<?xml version="1.0" encoding="utf-8"?>
<!-- Generator: Adobe Illustrator 16.0.0, SVG Export Plug-In . SVG Version: 6.00 Build 0)  -->
<!DOCTYPE svg PUBLIC "-//W3C//DTD SVG 1.1//EN" "http://www.w3.org/Graphics/SVG/1.1/DTD/svg11.dtd">
<svg version="1.1" id="name" xmlns="http://www.w3.org/2000/svg" xmlns:xlink="http://www.w3.org/1999/xlink" x="0px" y="0px"
	 width="85.711px" height="50px" viewBox="358 276 85.711 50" enable-background="new 358 276 85.711 50" xml:space="preserve">
<g id="nl-ant">
	<g>
		<defs>
			<rect id="SVGID_1_" x="358" y="276" width="85.711" height="50"/>
		</defs>
		<clipPath id="SVGID_2_">
			<use xlink:href="#SVGID_1_"  overflow="visible"/>
		</clipPath>
		<rect x="358" y="276" clip-path="url(#SVGID_2_)" fill="#FFFFFF" width="85.711" height="50"/>
		<rect x="392.521" y="276" clip-path="url(#SVGID_2_)" fill="#C9202E" width="16.666" height="50"/>
		<rect x="358" y="292.668" clip-path="url(#SVGID_2_)" fill="#352E89" width="85.711" height="16.666"/>
		<polygon clip-path="url(#SVGID_2_)" fill="#FFFFFF" points="400.854,293.561 400.211,295.541 401.201,295.865 		"/>
		<polygon clip-path="url(#SVGID_2_)" fill="#FFFFFF" points="400.854,293.561 401.498,295.541 400.508,295.865 		"/>
		<polygon clip-path="url(#SVGID_2_)" fill="#FFFFFF" points="402.836,295.001 400.754,295.001 400.754,296.041 		"/>
		<polygon clip-path="url(#SVGID_2_)" fill="#FFFFFF" points="402.836,295.001 401.152,296.225 400.539,295.382 		"/>
		<polygon clip-path="url(#SVGID_2_)" fill="#FFFFFF" points="398.873,295.001 400.559,296.225 401.172,295.382 		"/>
		<polygon clip-path="url(#SVGID_2_)" fill="#FFFFFF" points="398.873,295.001 400.957,295.001 400.957,296.041 		"/>
		<polygon clip-path="url(#SVGID_2_)" fill="#FFFFFF" points="402.078,297.328 401.436,295.348 400.445,295.672 		"/>
		<polygon clip-path="url(#SVGID_2_)" fill="#FFFFFF" points="402.078,297.328 400.393,296.105 401.008,295.262 		"/>
		<polygon clip-path="url(#SVGID_2_)" fill="#FFFFFF" points="399.631,297.328 401.316,296.105 400.703,295.262 		"/>
		<polygon clip-path="url(#SVGID_2_)" fill="#FFFFFF" points="399.631,297.328 400.273,295.348 401.264,295.672 		"/>
		<polygon clip-path="url(#SVGID_2_)" fill="#FFFFFF" points="411.965,298.162 411.322,300.143 412.312,300.467 		"/>
		<polygon clip-path="url(#SVGID_2_)" fill="#FFFFFF" points="411.965,298.162 412.609,300.143 411.619,300.467 		"/>
		<polygon clip-path="url(#SVGID_2_)" fill="#FFFFFF" points="413.947,299.604 411.863,299.604 411.863,300.644 		"/>
		<polygon clip-path="url(#SVGID_2_)" fill="#FFFFFF" points="413.947,299.604 412.26,300.828 411.65,299.984 		"/>
		<polygon clip-path="url(#SVGID_2_)" fill="#FFFFFF" points="409.984,299.604 411.67,300.828 412.283,299.984 		"/>
		<polygon clip-path="url(#SVGID_2_)" fill="#FFFFFF" points="409.984,299.604 412.066,299.604 412.066,300.644 		"/>
		<polygon clip-path="url(#SVGID_2_)" fill="#FFFFFF" points="413.189,301.934 412.547,299.949 411.557,300.271 		"/>
		<polygon clip-path="url(#SVGID_2_)" fill="#FFFFFF" points="413.189,301.934 411.504,300.709 412.119,299.865 		"/>
		<polygon clip-path="url(#SVGID_2_)" fill="#FFFFFF" points="410.742,301.934 412.428,300.709 411.814,299.865 		"/>
		<polygon clip-path="url(#SVGID_2_)" fill="#FFFFFF" points="410.742,301.934 411.385,299.949 412.375,300.271 		"/>
		<polygon clip-path="url(#SVGID_2_)" fill="#FFFFFF" points="405.455,304.672 404.812,306.652 405.805,306.977 		"/>
		<polygon clip-path="url(#SVGID_2_)" fill="#FFFFFF" points="405.455,304.672 406.102,306.652 405.111,306.977 		"/>
		<polygon clip-path="url(#SVGID_2_)" fill="#FFFFFF" points="407.439,306.112 405.355,306.112 405.355,307.152 		"/>
		<polygon clip-path="url(#SVGID_2_)" fill="#FFFFFF" points="407.439,306.112 405.752,307.334 405.141,306.492 		"/>
		<polygon clip-path="url(#SVGID_2_)" fill="#FFFFFF" points="403.475,306.112 405.16,307.334 405.771,306.492 		"/>
		<polygon clip-path="url(#SVGID_2_)" fill="#FFFFFF" points="403.475,306.112 405.561,306.112 405.561,307.152 		"/>
		<polygon clip-path="url(#SVGID_2_)" fill="#FFFFFF" points="406.682,308.439 406.037,306.459 405.049,306.783 		"/>
		<polygon clip-path="url(#SVGID_2_)" fill="#FFFFFF" points="406.682,308.439 404.996,307.217 405.609,306.373 		"/>
		<polygon clip-path="url(#SVGID_2_)" fill="#FFFFFF" points="404.232,308.439 405.918,307.217 405.305,306.373 		"/>
		<polygon clip-path="url(#SVGID_2_)" fill="#FFFFFF" points="404.232,308.439 404.875,306.459 405.867,306.783 		"/>
		<polygon clip-path="url(#SVGID_2_)" fill="#FFFFFF" points="389.746,298.162 390.387,300.143 389.396,300.467 		"/>
		<polygon clip-path="url(#SVGID_2_)" fill="#FFFFFF" points="389.746,298.162 389.102,300.143 390.092,300.467 		"/>
		<polygon clip-path="url(#SVGID_2_)" fill="#FFFFFF" points="387.764,299.604 389.846,299.604 389.846,300.644 		"/>
		<polygon clip-path="url(#SVGID_2_)" fill="#FFFFFF" points="387.764,299.604 389.449,300.828 390.061,299.984 		"/>
		<polygon clip-path="url(#SVGID_2_)" fill="#FFFFFF" points="391.725,299.604 390.039,300.828 389.428,299.984 		"/>
		<polygon clip-path="url(#SVGID_2_)" fill="#FFFFFF" points="391.725,299.604 389.643,299.604 389.643,300.644 		"/>
		<polygon clip-path="url(#SVGID_2_)" fill="#FFFFFF" points="388.52,301.934 389.164,299.949 390.154,300.271 		"/>
		<polygon clip-path="url(#SVGID_2_)" fill="#FFFFFF" points="388.52,301.934 390.205,300.709 389.592,299.865 		"/>
		<polygon clip-path="url(#SVGID_2_)" fill="#FFFFFF" points="390.969,301.934 389.285,300.709 389.896,299.865 		"/>
		<polygon clip-path="url(#SVGID_2_)" fill="#FFFFFF" points="390.969,301.934 390.324,299.949 389.334,300.271 		"/>
		<polygon clip-path="url(#SVGID_2_)" fill="#FFFFFF" points="396.254,304.672 396.896,306.652 395.906,306.977 		"/>
		<polygon clip-path="url(#SVGID_2_)" fill="#FFFFFF" points="396.254,304.672 395.609,306.652 396.6,306.977 		"/>
		<polygon clip-path="url(#SVGID_2_)" fill="#FFFFFF" points="394.271,306.112 396.355,306.112 396.355,307.152 		"/>
		<polygon clip-path="url(#SVGID_2_)" fill="#FFFFFF" points="394.271,306.112 395.957,307.334 396.568,306.492 		"/>
		<polygon clip-path="url(#SVGID_2_)" fill="#FFFFFF" points="398.234,306.112 396.549,307.334 395.936,306.492 		"/>
		<polygon clip-path="url(#SVGID_2_)" fill="#FFFFFF" points="398.234,306.112 396.15,306.112 396.15,307.152 		"/>
		<polygon clip-path="url(#SVGID_2_)" fill="#FFFFFF" points="395.027,308.439 395.672,306.459 396.662,306.783 		"/>
		<polygon clip-path="url(#SVGID_2_)" fill="#FFFFFF" points="395.027,308.439 396.715,307.217 396.1,306.373 		"/>
		<polygon clip-path="url(#SVGID_2_)" fill="#FFFFFF" points="397.477,308.439 395.791,307.217 396.404,306.373 		"/>
		<polygon clip-path="url(#SVGID_2_)" fill="#FFFFFF" points="397.477,308.439 396.834,306.459 395.844,306.783 		"/>
	</g>
</g>
</svg>
