<?xml version="1.0" encoding="utf-8"?>
<!-- Generator: Adobe Illustrator 16.0.0, SVG Export Plug-In . SVG Version: 6.00 Build 0)  -->
<!DOCTYPE svg PUBLIC "-//W3C//DTD SVG 1.1//EN" "http://www.w3.org/Graphics/SVG/1.1/DTD/svg11.dtd">
<svg version="1.1" id="name" xmlns="http://www.w3.org/2000/svg" xmlns:xlink="http://www.w3.org/1999/xlink" x="0px" y="0px"
	 width="85.713px" height="50px" viewBox="358 276 85.713 50" enable-background="new 358 276 85.713 50" xml:space="preserve">
<g id="az-nag">
	<g>
		<defs>
			<rect id="SVGID_1_" x="358" y="276" width="85.713" height="50"/>
		</defs>
		<clipPath id="SVGID_2_">
			<use xlink:href="#SVGID_1_"  overflow="visible"/>
		</clipPath>
		<rect x="358" y="276" clip-path="url(#SVGID_2_)" fill="#E91E26" width="85.713" height="16.669"/>
		<rect x="358" y="292.669" clip-path="url(#SVGID_2_)" fill="#40489E" width="85.713" height="16.665"/>
		<rect x="358" y="309.334" clip-path="url(#SVGID_2_)" fill="#F2B024" width="85.713" height="16.666"/>
		<polygon clip-path="url(#SVGID_2_)" fill="#FFFFFF" points="428.898,276 428.898,281.557 421.492,281.557 421.492,287.111 
			414.084,287.111 414.084,292.669 406.676,292.669 406.676,298.223 399.27,298.223 399.27,303.777 406.676,303.777 
			406.676,309.334 414.084,309.334 414.084,314.889 421.492,314.889 421.492,320.445 428.898,320.445 428.898,326 443.713,326 
			443.713,320.445 436.307,320.445 436.307,314.889 428.898,314.889 428.898,309.334 421.492,309.334 421.492,303.777 
			414.084,303.777 414.084,298.223 421.492,298.223 421.492,292.669 428.898,292.669 428.898,287.111 436.307,287.111 
			436.307,281.557 443.713,281.557 443.713,276 		"/>
	</g>
</g>
</svg>
