<?xml version="1.0" encoding="utf-8"?>
<!-- Generator: Adobe Illustrator 16.0.0, SVG Export Plug-In . SVG Version: 6.00 Build 0)  -->
<!DOCTYPE svg PUBLIC "-//W3C//DTD SVG 1.1//EN" "http://www.w3.org/Graphics/SVG/1.1/DTD/svg11.dtd">
<svg version="1.1" id="name" xmlns="http://www.w3.org/2000/svg" xmlns:xlink="http://www.w3.org/1999/xlink" x="0px" y="0px"
	 width="85.711px" height="50px" viewBox="358 276 85.711 50" enable-background="new 358 276 85.711 50" xml:space="preserve">
<g id="in-sk">
	<g>
		<defs>
			<rect id="SVGID_1_" x="358" y="276" width="85.711" height="50"/>
		</defs>
		<clipPath id="SVGID_2_">
			<use xlink:href="#SVGID_1_"  overflow="visible"/>
		</clipPath>
		<g clip-path="url(#SVGID_2_)">
			<defs>
				<rect id="SVGID_3_" x="358" y="276" width="85.711" height="50"/>
			</defs>
			<clipPath id="SVGID_4_">
				<use xlink:href="#SVGID_3_"  overflow="visible"/>
			</clipPath>
			<rect x="358" y="276" clip-path="url(#SVGID_4_)" fill="#E91E26" width="85.711" height="50"/>
			<rect x="364.336" y="282.338" clip-path="url(#SVGID_4_)" fill="#FFFFFF" width="73.041" height="37.326"/>
			<g clip-path="url(#SVGID_4_)">
				<defs>
					<rect id="SVGID_5_" x="358" y="276" width="85.711" height="50"/>
				</defs>
				<clipPath id="SVGID_6_">
					<use xlink:href="#SVGID_5_"  overflow="visible"/>
				</clipPath>
				<path clip-path="url(#SVGID_6_)" fill="#F5CB29" d="M401.691,285.626c0,0.539-0.438,0.977-0.978,0.977
					c-0.541,0-0.979-0.438-0.979-0.977c0-0.543,0.438-0.98,0.979-0.98C401.254,284.646,401.691,285.083,401.691,285.626
					L401.691,285.626z"/>
				<g clip-path="url(#SVGID_6_)">
					<path fill="#010101" d="M400.713,286.717c-0.604,0-1.094-0.489-1.094-1.091c0-0.605,0.49-1.095,1.094-1.095
						c0.603,0,1.093,0.489,1.093,1.095C401.807,286.228,401.316,286.717,400.713,286.717L400.713,286.717z M400.713,284.759
						c-0.477,0-0.865,0.39-0.865,0.867c0,0.474,0.389,0.863,0.865,0.863c0.476,0,0.865-0.39,0.865-0.863
						C401.578,285.148,401.189,284.759,400.713,284.759L400.713,284.759z"/>
				</g>
				<path clip-path="url(#SVGID_6_)" fill="#F5CB29" d="M392.03,291.464c0,0.543-0.436,0.98-0.977,0.98
					c-0.542,0-0.981-0.438-0.981-0.98c0-0.537,0.439-0.978,0.981-0.978C391.594,290.486,392.03,290.927,392.03,291.464
					L392.03,291.464z"/>
				<g clip-path="url(#SVGID_6_)">
					<path fill="#010101" d="M391.053,292.558c-0.604,0-1.094-0.488-1.094-1.094c0-0.6,0.49-1.091,1.094-1.091
						c0.602,0,1.09,0.491,1.09,1.091C392.143,292.069,391.655,292.558,391.053,292.558L391.053,292.558z M391.053,290.601
						c-0.479,0-0.868,0.389-0.868,0.863c0,0.48,0.389,0.866,0.868,0.866c0.477,0,0.863-0.386,0.863-0.866
						C391.917,290.989,391.53,290.601,391.053,290.601L391.053,290.601z"/>
				</g>
				<path clip-path="url(#SVGID_6_)" fill="#F5CB29" d="M402.723,287.436c0,0.537-0.439,0.977-0.98,0.977s-0.98-0.439-0.98-0.977
					c0-0.543,0.439-0.98,0.98-0.98S402.723,286.893,402.723,287.436L402.723,287.436z"/>
				<g clip-path="url(#SVGID_6_)">
					<path fill="#010101" d="M401.742,288.526c-0.604,0-1.093-0.491-1.093-1.091c0-0.605,0.49-1.094,1.093-1.094
						s1.094,0.488,1.094,1.094C402.836,288.035,402.346,288.526,401.742,288.526L401.742,288.526z M401.742,286.568
						c-0.477,0-0.867,0.387-0.867,0.867c0,0.475,0.39,0.863,0.867,0.863c0.479,0,0.867-0.389,0.867-0.863
						C402.609,286.955,402.221,286.568,401.742,286.568L401.742,286.568z"/>
				</g>
				<path clip-path="url(#SVGID_6_)" fill="#F5CB29" d="M400.77,287.424c0,0.543-0.438,0.98-0.979,0.98
					c-0.543,0-0.98-0.438-0.98-0.98c0-0.54,0.438-0.978,0.98-0.978C400.333,286.446,400.77,286.884,400.77,287.424L400.77,287.424z"
					/>
				<g clip-path="url(#SVGID_6_)">
					<path fill="#010101" d="M399.792,288.518c-0.605,0-1.094-0.488-1.094-1.094c0-0.603,0.488-1.091,1.094-1.091
						c0.604,0,1.094,0.488,1.094,1.091C400.885,288.029,400.395,288.518,399.792,288.518L399.792,288.518z M399.792,286.561
						c-0.479,0-0.867,0.389-0.867,0.863c0,0.478,0.389,0.866,0.867,0.866s0.865-0.389,0.865-0.866
						C400.657,286.949,400.27,286.561,399.792,286.561L399.792,286.561z"/>
				</g>
				<path clip-path="url(#SVGID_6_)" fill="#F5CB29" d="M411.521,291.464c0,0.54-0.439,0.98-0.98,0.98s-0.98-0.44-0.98-0.98
					c0-0.543,0.439-0.98,0.98-0.98S411.521,290.921,411.521,291.464L411.521,291.464z"/>
				<g clip-path="url(#SVGID_6_)">
					<path fill="#010101" d="M410.541,292.558c-0.604,0-1.094-0.491-1.094-1.094c0-0.605,0.49-1.094,1.094-1.094
						s1.094,0.488,1.094,1.094C411.635,292.066,411.145,292.558,410.541,292.558L410.541,292.558z M410.541,290.598
						c-0.477,0-0.867,0.389-0.867,0.866s0.391,0.866,0.867,0.866c0.479,0,0.867-0.389,0.867-0.866S411.02,290.598,410.541,290.598
						L410.541,290.598z"/>
				</g>
				<path clip-path="url(#SVGID_6_)" fill="#F5CB29" d="M415.32,300.141c0,0.54-0.438,0.98-0.98,0.98
					c-0.539,0-0.977-0.44-0.977-0.98c0-0.543,0.438-0.98,0.977-0.98C414.883,299.16,415.32,299.598,415.32,300.141L415.32,300.141z"
					/>
				<g clip-path="url(#SVGID_6_)">
					<path fill="#010101" d="M414.34,301.234c-0.6,0-1.09-0.491-1.09-1.094c0-0.605,0.49-1.094,1.09-1.094
						c0.605,0,1.096,0.488,1.096,1.094C415.436,300.743,414.945,301.234,414.34,301.234L414.34,301.234z M414.34,299.274
						c-0.475,0-0.863,0.386-0.863,0.866c0,0.478,0.389,0.866,0.863,0.866c0.48,0,0.867-0.389,0.867-0.866
						C415.207,299.66,414.82,299.274,414.34,299.274L414.34,299.274z"/>
				</g>
				<path clip-path="url(#SVGID_6_)" fill="#F5CB29" d="M415.305,302.072c0,0.537-0.438,0.978-0.98,0.978
					c-0.539,0-0.979-0.44-0.979-0.978c0-0.542,0.439-0.98,0.979-0.98C414.867,301.092,415.305,301.53,415.305,302.072
					L415.305,302.072z"/>
				<g clip-path="url(#SVGID_6_)">
					<path fill="#010101" d="M414.324,303.163c-0.602,0-1.092-0.491-1.092-1.091c0-0.604,0.49-1.094,1.092-1.094
						c0.605,0,1.096,0.489,1.096,1.094C415.42,302.672,414.93,303.163,414.324,303.163L414.324,303.163z M414.324,301.206
						c-0.475,0-0.863,0.387-0.863,0.866c0,0.475,0.389,0.864,0.863,0.864c0.479,0,0.867-0.39,0.867-0.864
						C415.191,301.593,414.803,301.206,414.324,301.206L414.324,301.206z"/>
				</g>
				<path clip-path="url(#SVGID_6_)" fill="#F5CB29" d="M417.062,301.237c0,0.543-0.441,0.98-0.98,0.98
					c-0.541,0-0.98-0.438-0.98-0.98c0-0.54,0.439-0.978,0.98-0.978C416.621,300.26,417.062,300.697,417.062,301.237L417.062,301.237
					z"/>
				<g clip-path="url(#SVGID_6_)">
					<path fill="#010101" d="M416.082,302.331c-0.604,0-1.094-0.488-1.094-1.094c0-0.6,0.49-1.091,1.094-1.091
						s1.094,0.491,1.094,1.091C417.176,301.843,416.686,302.331,416.082,302.331L416.082,302.331z M416.082,300.373
						c-0.479,0-0.865,0.39-0.865,0.864c0,0.48,0.387,0.866,0.865,0.866s0.867-0.386,0.867-0.866
						C416.949,300.763,416.561,300.373,416.082,300.373L416.082,300.373z"/>
				</g>
				<path clip-path="url(#SVGID_6_)" fill="#F5CB29" d="M411.359,310.729c0,0.542-0.439,0.979-0.98,0.979s-0.98-0.438-0.98-0.979
					c0-0.543,0.439-0.98,0.98-0.98S411.359,310.187,411.359,310.729L411.359,310.729z"/>
				<g clip-path="url(#SVGID_6_)">
					<path fill="#010101" d="M410.379,311.823c-0.604,0-1.094-0.489-1.094-1.094c0-0.603,0.49-1.094,1.094-1.094
						s1.094,0.491,1.094,1.094C411.473,311.334,410.982,311.823,410.379,311.823L410.379,311.823z M410.379,309.862
						c-0.479,0-0.867,0.39-0.867,0.867s0.389,0.866,0.867,0.866c0.477,0,0.865-0.389,0.865-0.866S410.855,309.862,410.379,309.862
						L410.379,309.862z"/>
				</g>
				<path clip-path="url(#SVGID_6_)" fill="#F5CB29" d="M400.766,314.517c0,0.542-0.438,0.979-0.977,0.979
					c-0.541,0-0.98-0.438-0.98-0.979c0-0.54,0.439-0.978,0.98-0.978C400.329,313.539,400.766,313.977,400.766,314.517
					L400.766,314.517z"/>
				<g clip-path="url(#SVGID_6_)">
					<path fill="#010101" d="M399.79,315.61c-0.604,0-1.094-0.489-1.094-1.094c0-0.603,0.49-1.091,1.094-1.091
						c0.602,0,1.09,0.488,1.09,1.091C400.879,315.121,400.391,315.61,399.79,315.61L399.79,315.61z M399.79,313.652
						c-0.479,0-0.867,0.39-0.867,0.864c0,0.478,0.389,0.866,0.867,0.866c0.477,0,0.863-0.389,0.863-0.866
						C400.653,314.042,400.266,313.652,399.79,313.652L399.79,313.652z"/>
				</g>
				<path clip-path="url(#SVGID_6_)" fill="#F5CB29" d="M402.803,314.639c0,0.543-0.439,0.98-0.979,0.98
					c-0.541,0-0.978-0.438-0.978-0.98c0-0.54,0.437-0.98,0.978-0.98C402.363,313.658,402.803,314.099,402.803,314.639
					L402.803,314.639z"/>
				<g clip-path="url(#SVGID_6_)">
					<path fill="#010101" d="M401.824,315.732c-0.604,0-1.093-0.488-1.093-1.094c0-0.603,0.49-1.094,1.093-1.094
						c0.602,0,1.092,0.491,1.092,1.094C402.916,315.244,402.426,315.732,401.824,315.732L401.824,315.732z M401.824,313.772
						c-0.477,0-0.865,0.389-0.865,0.866c0,0.48,0.388,0.866,0.865,0.866s0.865-0.386,0.865-0.866
						C402.689,314.161,402.301,313.772,401.824,313.772L401.824,313.772z"/>
				</g>
				<path clip-path="url(#SVGID_6_)" fill="#F5CB29" d="M401.744,316.309c0,0.543-0.438,0.98-0.978,0.98
					c-0.541,0-0.98-0.438-0.98-0.98c0-0.539,0.439-0.979,0.98-0.979C401.307,315.329,401.744,315.77,401.744,316.309
					L401.744,316.309z"/>
				<g clip-path="url(#SVGID_6_)">
					<path fill="#010101" d="M400.766,317.403c-0.604,0-1.094-0.492-1.094-1.095c0-0.602,0.49-1.094,1.094-1.094
						c0.603,0,1.093,0.492,1.093,1.094C401.859,316.911,401.369,317.403,400.766,317.403L400.766,317.403z M400.766,315.442
						c-0.477,0-0.865,0.39-0.865,0.866c0,0.478,0.389,0.867,0.865,0.867c0.476,0,0.865-0.39,0.865-0.867
						C401.631,315.832,401.242,315.442,400.766,315.442L400.766,315.442z"/>
				</g>
				<path clip-path="url(#SVGID_6_)" fill="#F5CB29" d="M392.092,310.607c0,0.539-0.439,0.979-0.98,0.979
					c-0.542,0-0.979-0.44-0.979-0.979c0-0.54,0.438-0.978,0.979-0.978C391.653,309.63,392.092,310.067,392.092,310.607
					L392.092,310.607z"/>
				<g clip-path="url(#SVGID_6_)">
					<path fill="#010101" d="M391.112,311.701c-0.604,0-1.094-0.492-1.094-1.094c0-0.603,0.49-1.092,1.094-1.092
						c0.604,0,1.094,0.489,1.094,1.092C392.206,311.209,391.715,311.701,391.112,311.701L391.112,311.701z M391.112,309.743
						c-0.477,0-0.866,0.387-0.866,0.864c0,0.477,0.389,0.866,0.866,0.866c0.477,0,0.865-0.39,0.865-0.866
						C391.977,310.13,391.588,309.743,391.112,309.743L391.112,309.743z"/>
				</g>
				<path clip-path="url(#SVGID_6_)" fill="#F5CB29" d="M388.262,302.218c0,0.539-0.439,0.979-0.979,0.979
					c-0.543,0-0.98-0.44-0.98-0.979c0-0.543,0.438-0.98,0.98-0.98C387.822,301.237,388.262,301.675,388.262,302.218L388.262,302.218
					z"/>
				<g clip-path="url(#SVGID_6_)">
					<path fill="#010101" d="M387.283,303.312c-0.605,0-1.094-0.492-1.094-1.094c0-0.603,0.488-1.094,1.094-1.094
						c0.602,0,1.092,0.491,1.092,1.094C388.375,302.819,387.885,303.312,387.283,303.312L387.283,303.312z M387.283,301.351
						c-0.479,0-0.867,0.39-0.867,0.867c0,0.477,0.389,0.866,0.867,0.866c0.475,0,0.865-0.39,0.865-0.866
						C388.148,301.74,387.758,301.351,387.283,301.351L387.283,301.351z"/>
				</g>
				<path clip-path="url(#SVGID_6_)" fill="#F5CB29" d="M388.303,300.141c0,0.54-0.438,0.98-0.98,0.98c-0.541,0-0.98-0.44-0.98-0.98
					c0-0.543,0.439-0.98,0.98-0.98C387.865,299.16,388.303,299.598,388.303,300.141L388.303,300.141z"/>
				<g clip-path="url(#SVGID_6_)">
					<path fill="#010101" d="M387.322,301.234c-0.604,0-1.094-0.491-1.094-1.094c0-0.605,0.49-1.094,1.094-1.094
						s1.094,0.488,1.094,1.094C388.416,300.743,387.926,301.234,387.322,301.234L387.322,301.234z M387.322,299.274
						c-0.477,0-0.865,0.386-0.865,0.866c0,0.478,0.389,0.866,0.865,0.866c0.479,0,0.867-0.389,0.867-0.866
						C388.189,299.66,387.801,299.274,387.322,299.274L387.322,299.274z"/>
				</g>
				<path clip-path="url(#SVGID_6_)" fill="#F5CB29" d="M386.549,301.157c0,0.543-0.438,0.98-0.977,0.98
					c-0.541,0-0.98-0.438-0.98-0.98c0-0.542,0.439-0.979,0.98-0.979C386.111,300.178,386.549,300.615,386.549,301.157
					L386.549,301.157z"/>
				<g clip-path="url(#SVGID_6_)">
					<path fill="#010101" d="M385.572,302.252c-0.604,0-1.094-0.489-1.094-1.095c0-0.604,0.49-1.094,1.094-1.094
						c0.602,0,1.09,0.489,1.09,1.094C386.662,301.763,386.174,302.252,385.572,302.252L385.572,302.252z M385.572,300.291
						c-0.479,0-0.867,0.39-0.867,0.866c0,0.478,0.389,0.867,0.867,0.867c0.477,0,0.863-0.39,0.863-0.867
						C386.436,300.681,386.049,300.291,385.572,300.291L385.572,300.291z"/>
				</g>
				<path clip-path="url(#SVGID_6_)" fill="#F5CB29" d="M413.369,301.001c0.004,6.973-5.648,12.629-12.619,12.635
					c-6.977,0.003-12.633-5.648-12.637-12.62v-0.015c-0.004-6.975,5.649-12.628,12.622-12.634
					c6.974-0.003,12.63,5.648,12.634,12.623V301.001z"/>
				<g clip-path="url(#SVGID_6_)">
					<path fill="#010101" d="M400.75,313.749h-0.008c-7.021,0-12.739-5.713-12.743-12.733c-0.002-3.418,1.32-6.617,3.727-9.026
						c2.406-2.406,5.605-3.733,9.008-3.735c7.029,0,12.744,5.713,12.748,12.736c0.002,3.415-1.32,6.614-3.727,9.021
						C407.35,312.42,404.15,313.746,400.75,313.749L400.75,313.749z M400.743,288.48c-3.35,0.003-6.492,1.308-8.854,3.671
						c-2.364,2.364-3.663,5.509-3.663,8.85c0.004,6.91,5.62,12.521,12.516,12.521v0.114l0.008-0.114
						c3.339-0.002,6.482-1.307,8.845-3.67c2.361-2.367,3.662-5.509,3.66-8.851C413.252,294.092,407.637,288.48,400.743,288.48
						L400.743,288.48z"/>
				</g>
				<path clip-path="url(#SVGID_6_)" fill="#FFFFFF" d="M410.496,300.8c0.115,5.387-4.162,9.85-9.548,9.961
					c-5.389,0.116-9.85-4.162-9.961-9.549c0-0.003,0-0.006,0-0.009c-0.115-5.39,4.159-9.848,9.549-9.961
					c5.386-0.116,9.845,4.159,9.96,9.546V300.8z"/>
				<g clip-path="url(#SVGID_6_)">
					<path fill="#010101" d="M400.737,310.877c-5.328,0-9.754-4.333-9.864-9.662c-0.059-2.646,0.917-5.146,2.741-7.049
						s4.281-2.983,6.92-3.037l0.213-0.003c5.326,0,9.751,4.333,9.865,9.662c0.057,2.646-0.918,5.146-2.744,7.049
						c-1.824,1.903-4.281,2.983-6.917,3.037L400.737,310.877L400.737,310.877z M400.747,291.354l-0.209,0.002
						c-2.576,0.055-4.977,1.108-6.758,2.967c-1.783,1.86-2.734,4.301-2.68,6.878c0.109,5.214,4.432,9.449,9.637,9.449l0.209-0.003
						c2.576-0.054,4.974-1.107,6.757-2.969c1.783-1.857,2.734-4.301,2.68-6.875C410.271,295.589,405.949,291.354,400.747,291.354
						L400.747,291.354z"/>
				</g>
				<path clip-path="url(#SVGID_6_)" fill="#F5CB29" d="M406.504,300.882c0.07,3.185-2.457,5.818-5.64,5.884
					c-3.184,0.068-5.818-2.457-5.885-5.64c0-0.002,0-0.005-0.002-0.005c-0.066-3.183,2.459-5.819,5.643-5.887
					c3.183-0.065,5.818,2.46,5.884,5.642V300.882z"/>
				<g clip-path="url(#SVGID_6_)">
					<path fill="#010101" d="M400.737,306.883c-3.172,0-5.807-2.583-5.871-5.757c-0.07-3.244,2.512-5.935,5.752-6.006h0.125
						c3.173,0,5.81,2.58,5.875,5.753c0.035,1.577-0.545,3.066-1.633,4.199c-1.086,1.134-2.549,1.776-4.119,1.808L400.737,306.883
						L400.737,306.883z M400.743,295.348h-0.121c-3.113,0.068-5.596,2.656-5.531,5.771c0.066,3.054,2.598,5.537,5.646,5.537
						l0.125-0.003c1.507-0.031,2.914-0.647,3.958-1.738c1.045-1.089,1.602-2.521,1.57-4.029
						C406.326,297.828,403.793,295.348,400.743,295.348L400.743,295.348z"/>
				</g>
				<path clip-path="url(#SVGID_6_)" fill="#F5CB29" d="M405.537,300.902c0.057,2.647-2.047,4.841-4.693,4.897
					c-2.648,0.054-4.844-2.046-4.898-4.693v-0.009c-0.055-2.645,2.047-4.835,4.695-4.892c2.646-0.058,4.837,2.042,4.896,4.693
					V300.902z"/>
				<g clip-path="url(#SVGID_6_)">
					<path fill="#010101" d="M400.739,305.914c-2.65,0-4.852-2.157-4.906-4.808c-0.027-1.315,0.457-2.557,1.365-3.506
						c0.906-0.946,2.129-1.483,3.441-1.509l0.105-0.003c2.648,0,4.849,2.156,4.906,4.808c0.027,1.315-0.457,2.56-1.363,3.506
						c-0.908,0.946-2.131,1.482-3.441,1.512H400.739L400.739,305.914z M400.745,296.316c-1.352,0.028-2.518,0.54-3.383,1.443
						s-1.326,2.088-1.301,3.338c0.053,2.531,2.15,4.589,4.678,4.589l0.104-0.003c1.248-0.025,2.414-0.537,3.279-1.44
						s1.326-2.088,1.301-3.339C405.369,298.373,403.271,296.316,400.745,296.316L400.745,296.316z"/>
				</g>
				<path clip-path="url(#SVGID_6_)" fill="#FFFFFF" d="M405.141,301.001c0,2.43-1.967,4.401-4.398,4.401
					c-2.43,0.003-4.4-1.969-4.4-4.398v-0.003c0-2.429,1.967-4.4,4.396-4.4c2.431,0,4.402,1.966,4.402,4.396V301.001z"/>
				<g clip-path="url(#SVGID_6_)">
					<path fill="#010101" d="M400.743,305.459h-0.004c-2.453,0-4.453-1.997-4.455-4.455c0-2.46,1.998-4.46,4.455-4.46
						c2.458,0,4.458,1.997,4.458,4.452c0,1.195-0.463,2.315-1.303,3.156C403.053,304.996,401.934,305.459,400.743,305.459
						L400.743,305.459z M400.743,296.657c-2.396,0-4.344,1.949-4.344,4.344c0.002,2.396,1.949,4.345,4.34,4.345v0.057l0.004-0.057
						c1.16,0,2.251-0.452,3.07-1.273c0.82-0.82,1.271-1.912,1.27-3.071C405.082,298.604,403.135,296.657,400.743,296.657
						L400.743,296.657z"/>
				</g>
				<g clip-path="url(#SVGID_6_)">
					<g>
						<defs>
							<rect id="SVGID_7_" x="390.277" y="290.541" width="20.926" height="20.924"/>
						</defs>
						<clipPath id="SVGID_8_">
							<use xlink:href="#SVGID_7_"  overflow="visible"/>
						</clipPath>
						<path clip-path="url(#SVGID_8_)" fill="#FFFFFF" d="M411.203,301.001c0,5.776-4.682,10.464-10.462,10.464
							c-5.779,0-10.463-4.688-10.463-10.464c0-5.778,4.684-10.46,10.463-10.46C406.521,290.541,411.203,295.223,411.203,301.001
							L411.203,301.001z"/>
					</g>
				</g>
				<g clip-path="url(#SVGID_6_)">
					<path fill="#010101" d="M400.741,311.527c-5.805,0-10.528-4.722-10.528-10.526c0-5.804,4.723-10.525,10.528-10.525
						c5.804,0,10.527,4.722,10.527,10.525C411.268,306.806,406.545,311.527,400.741,311.527L400.741,311.527z M400.741,290.604
						c-5.732,0-10.399,4.665-10.399,10.397c0,5.733,4.667,10.398,10.399,10.398c5.734,0,10.398-4.665,10.398-10.398
						C411.139,295.269,406.475,290.604,400.741,290.604L400.741,290.604z"/>
				</g>
				<polygon clip-path="url(#SVGID_6_)" fill="#F5CB29" points="400.094,291.254 400.094,292.816 399.52,293.385 400.094,293.955 
					400.094,295.234 401.475,295.234 401.475,294.078 402.166,293.385 401.475,292.7 401.475,291.254 				"/>
				<g clip-path="url(#SVGID_6_)">
					<path fill="#010101" d="M401.547,295.305h-1.453l-0.074-1.35l-0.549-0.52l0.57-0.67l-0.021-1.512l1.455-0.071l0.072,1.518
						l0.668,0.636l-0.689,0.793L401.547,295.305L401.547,295.305z M401.404,291.254l-1.31,0.07l0.07,1.492l-0.592,0.619l0.57,0.472
						l0.021,1.327l1.24-0.068v-1.088l0.709-0.742l-0.688-0.585L401.404,291.254L401.404,291.254z"/>
				</g>
				<g clip-path="url(#SVGID_6_)">
					<polygon fill="#010101" points="400.831,295.12 400.688,295.12 400.688,291.199 400.831,291.199 400.831,295.12 					"/>
				</g>
				
					<rect x="400.449" y="293.125" transform="matrix(-0.7033 0.7109 -0.7109 -0.7033 891.2433 214.9286)" clip-path="url(#SVGID_6_)" fill="#F5CB29" width="0.644" height="0.645"/>
				<g clip-path="url(#SVGID_6_)">
					<path fill="#010101" d="M400.77,293.984l-0.494-0.495l0.453-0.539l0.537,0.457L400.77,293.984L400.77,293.984z
						 M400.729,293.032l-0.371,0.457l0.408,0.336l0.417-0.418L400.729,293.032L400.729,293.032z"/>
				</g>
				<polygon clip-path="url(#SVGID_6_)" fill="#F5CB29" points="407.219,293.651 406.096,294.736 405.289,294.723 405.275,295.529 
					404.359,296.416 405.32,297.41 406.152,296.606 407.129,296.623 407.141,295.651 408.182,294.646 				"/>
				<g clip-path="url(#SVGID_6_)">
					<path fill="#010101" d="M405.318,297.51l-1.012-1.046l0.92-0.985l-0.01-0.756l0.879-0.06l1.074-1.062l1.062,0.994l-1.043,1.108
						l0.01,0.92l-1.047,0.057L405.318,297.51L405.318,297.51z M407.168,293.7l-1.023,1.088l-0.857,0.006l0.061,0.735l-0.939,0.938
						l0.912,0.847l0.783-0.759l1.025-0.002l-0.061-0.901l1.062-1.057L407.168,293.7L407.168,293.7z"/>
				</g>
				<g clip-path="url(#SVGID_6_)">
					<polygon fill="#010101" points="404.877,296.99 404.779,296.891 407.67,294.044 407.77,294.143 404.877,296.99 					"/>
				</g>
				
					<rect x="405.792" y="295.342" transform="matrix(-0.9998 -0.0182 0.0182 -0.9998 806.7866 598.6619)" clip-path="url(#SVGID_6_)" fill="#F5CB29" width="0.645" height="0.645"/>
				<g clip-path="url(#SVGID_6_)">
					<path fill="#010101" d="M406.49,296.053l-0.703-0.015l-0.047-0.705l0.703-0.045l0.047,0.704V296.053L406.49,296.053z
						 M406.383,295.348l-0.586,0.046l0.049,0.588l0.529-0.043L406.383,295.348L406.383,295.348z"/>
				</g>
				<polygon clip-path="url(#SVGID_6_)" fill="#F5CB29" points="410.506,300.394 408.945,300.368 408.385,299.788 407.805,300.348 
					406.527,300.325 406.506,301.709 407.662,301.729 408.34,302.431 409.037,301.752 410.482,301.774 				"/>
				<g clip-path="url(#SVGID_6_)">
					<path fill="#010101" d="M408.34,302.533l-0.73-0.753h-1.104l-0.049-1.455l1.348-0.051l0.529-0.537l0.662,0.579l1.51,0.006
						l0.049,1.455l-1.52,0.045L408.34,302.533L408.34,302.533z M407.662,301.658l0.678,0.673l0.646-0.631l1.498,0.003l-0.051-1.312
						l-1.49,0.048l-0.611-0.602l-0.479,0.562h-1.326l0.051,1.31L407.662,301.658L407.662,301.658z"/>
				</g>
				<g clip-path="url(#SVGID_6_)">
					<polygon fill="#010101" points="410.547,301.129 406.572,301.061 406.574,300.916 410.549,300.987 410.547,301.129 					"/>
				</g>
				
					<rect x="407.979" y="300.714" transform="matrix(-0.6964 -0.7176 0.7176 -0.6964 476.6244 803.6934)" clip-path="url(#SVGID_6_)" fill="#F5CB29" width="0.645" height="0.643"/>
				<g clip-path="url(#SVGID_6_)">
					<path fill="#010101" d="M408.295,301.572l-0.49-0.506l0.465-0.528l0.531,0.463L408.295,301.572L408.295,301.572z
						 M408.266,300.621l-0.379,0.448l0.406,0.341l0.426-0.409L408.266,300.621L408.266,300.621z"/>
				</g>
				<polygon clip-path="url(#SVGID_6_)" fill="#F5CB29" points="395.008,300.391 393.45,300.365 392.889,299.785 392.309,300.348 
					391.032,300.325 391.01,301.709 392.165,301.726 392.844,302.431 393.54,301.749 394.987,301.774 				"/>
				<g clip-path="url(#SVGID_6_)">
					<path fill="#010101" d="M392.842,302.53l-0.729-0.753l-1.105,0.003l-0.047-1.455l1.348-0.051l0.529-0.54l0.662,0.582
						l1.51,0.003l0.049,1.455l-1.52,0.045L392.842,302.53L392.842,302.53z M392.167,301.655l0.678,0.676l0.646-0.634l1.498,0.006
						l-0.051-1.312l-1.49,0.045l-0.611-0.602l-0.479,0.565h-1.326l0.049,1.31L392.167,301.655L392.167,301.655z"/>
				</g>
				<g clip-path="url(#SVGID_6_)">
					<polygon fill="#010101" points="395.051,301.129 391.004,301.061 391.008,300.916 395.051,300.984 395.051,301.129 					"/>
				</g>
				
					<rect x="392.484" y="300.712" transform="matrix(-0.6964 -0.7176 0.7176 -0.6964 450.3383 792.5709)" clip-path="url(#SVGID_6_)" fill="#F5CB29" width="0.645" height="0.645"/>
				<g clip-path="url(#SVGID_6_)">
					<path fill="#010101" d="M392.799,301.572l-0.49-0.506l0.465-0.531l0.531,0.466L392.799,301.572L392.799,301.572z
						 M392.772,300.618l-0.381,0.451l0.404,0.341l0.428-0.412L392.772,300.618L392.772,300.618z"/>
				</g>
				<polygon clip-path="url(#SVGID_6_)" fill="#F5CB29" points="400.208,306.752 400.208,308.312 399.637,308.883 400.208,309.451 
					400.208,310.727 401.59,310.727 401.59,309.573 402.281,308.883 401.59,308.198 401.59,306.752 				"/>
				<g clip-path="url(#SVGID_6_)">
					<path fill="#010101" d="M401.66,310.798h-1.453l-0.072-1.347l-0.547-0.521l0.568-0.67l-0.021-1.509l1.455-0.074l0.07,1.521
						l0.672,0.633l-0.691,0.79L401.66,310.798L401.66,310.798z M401.518,306.752l-1.31,0.07l0.072,1.489l-0.592,0.619l0.57,0.469
						l0.021,1.327l1.238-0.065v-1.088l0.715-0.742l-0.693-0.582L401.518,306.752L401.518,306.752z"/>
				</g>
				<g clip-path="url(#SVGID_6_)">
					<polygon fill="#010101" points="400.946,310.74 400.801,310.74 400.801,306.697 400.946,306.697 400.946,310.74 					"/>
				</g>
				
					<rect x="400.566" y="308.62" transform="matrix(-0.7056 0.7086 -0.7086 -0.7056 902.6711 242.8485)" clip-path="url(#SVGID_6_)" fill="#F5CB29" width="0.642" height="0.645"/>
				<g clip-path="url(#SVGID_6_)">
					<path fill="#010101" d="M400.885,309.479l-0.494-0.495l0.453-0.539l0.539,0.454L400.885,309.479L400.885,309.479z
						 M400.844,308.527l-0.371,0.457l0.408,0.333l0.419-0.418L400.844,308.527L400.844,308.527z"/>
				</g>
				<polygon clip-path="url(#SVGID_6_)" fill="#F5CB29" points="396.297,304.641 395.174,305.729 394.368,305.715 394.354,306.521 
					393.436,307.408 394.399,308.402 395.227,307.599 396.208,307.612 396.217,306.641 397.256,305.635 				"/>
				<g clip-path="url(#SVGID_6_)">
					<path fill="#010101" d="M394.397,308.505l-1.012-1.046l0.92-0.988l-0.008-0.759l0.879-0.054l1.072-1.068l1.061,0.997
						l-1.041,1.105l0.01,0.923l-1.051,0.057L394.397,308.505L394.397,308.505z M396.247,304.692l-1.023,1.088l-0.855,0.006
						l0.059,0.735l-0.939,0.938l0.912,0.847l0.781-0.759l1.027-0.005l-0.061-0.901l1.061-1.057L396.247,304.692L396.247,304.692z"/>
				</g>
				<g clip-path="url(#SVGID_6_)">
					<polygon fill="#010101" points="393.965,307.987 393.864,307.889 396.749,305.033 396.848,305.135 393.965,307.987 					"/>
				</g>
				
					<rect x="394.871" y="306.332" transform="matrix(-0.9999 -0.0136 0.0136 -0.9999 786.1677 618.6696)" clip-path="url(#SVGID_6_)" fill="#F5CB29" width="0.645" height="0.645"/>
				<g clip-path="url(#SVGID_6_)">
					<path fill="#010101" d="M395.567,307.041l-0.701-0.011l-0.049-0.705l0.705-0.045l0.047,0.701L395.567,307.041L395.567,307.041z
						 M395.461,306.337l-0.586,0.048l0.049,0.589l0.527-0.046L395.461,306.337L395.461,306.337z"/>
				</g>
				<polygon clip-path="url(#SVGID_6_)" fill="#F5CB29" points="393.338,294.572 394.426,295.694 394.411,296.501 395.217,296.513 
					396.106,297.43 397.1,296.47 396.297,295.641 396.313,294.66 395.338,294.648 394.333,293.611 				"/>
				<g clip-path="url(#SVGID_6_)">
					<path fill="#010101" d="M396.104,297.532l-0.938-0.972l-0.756,0.012l-0.057-0.881l-1.066-1.071l0.996-1.06l1.105,1.04
						l0.926-0.012l0.055,1.052l0.781,0.778L396.104,297.532L396.104,297.532z M395.219,296.441l0.889,0.89l0.943-0.915l-0.805-0.728
						l-0.004-1.028l-0.904,0.06l-1.057-1.06l-0.893,0.963l1.088,1.021l0.006,0.857L395.219,296.441L395.219,296.441z"/>
				</g>
				<g clip-path="url(#SVGID_6_)">
					<polygon fill="#010101" points="396.549,297.038 393.731,294.117 393.833,294.021 396.653,296.941 396.549,297.038 					"/>
				</g>
				
					<rect x="395.03" y="295.352" transform="matrix(-0.0182 0.9998 -0.9998 -0.0182 698.1646 -94.2374)" clip-path="url(#SVGID_6_)" fill="#F5CB29" width="0.645" height="0.645"/>
				<g clip-path="url(#SVGID_6_)">
					<path fill="#010101" d="M395.727,296.061l-0.703-0.011l-0.047-0.702l0.703-0.048l0.047,0.704V296.061L395.727,296.061z
						 M395.622,295.356l-0.586,0.048l0.047,0.588l0.529-0.045L395.622,295.356L395.622,295.356z"/>
				</g>
				<polygon clip-path="url(#SVGID_6_)" fill="#F5CB29" points="404.285,305.572 405.369,306.695 405.357,307.502 406.164,307.516 
					407.053,308.431 408.043,307.471 407.24,306.641 407.256,305.664 406.285,305.652 405.279,304.612 				"/>
				<g clip-path="url(#SVGID_6_)">
					<path fill="#010101" d="M407.049,308.53l-0.936-0.966l-0.758,0.009l-0.059-0.878l-1.062-1.071l0.994-1.062l1.107,1.04
						l0.922-0.009l0.055,1.048l0.781,0.781L407.049,308.53L407.049,308.53z M406.166,307.445l0.887,0.886l0.941-0.912l-0.805-0.729
						l-0.004-1.025l-0.902,0.06l-1.057-1.062l-0.893,0.963l1.086,1.022l0.008,0.855L406.166,307.445L406.166,307.445z"/>
				</g>
				<g clip-path="url(#SVGID_6_)">
					<polygon fill="#010101" points="407.426,308.005 404.719,305.166 404.775,305.024 404.725,305.072 404.82,305.07 
						407.527,307.908 407.426,308.005 					"/>
				</g>
				
					<rect x="405.976" y="306.354" transform="matrix(-0.0183 0.9998 -0.9998 -0.0183 720.3417 -93.9524)" clip-path="url(#SVGID_6_)" fill="#F5CB29" width="0.642" height="0.645"/>
				<g clip-path="url(#SVGID_6_)">
					<path fill="#010101" d="M406.672,307.064l-0.703-0.012l-0.047-0.704l0.703-0.046l0.047,0.702V307.064L406.672,307.064z
						 M406.566,306.359l-0.586,0.049l0.047,0.588l0.531-0.046L406.566,306.359L406.566,306.359z"/>
				</g>
				<path clip-path="url(#SVGID_6_)" fill="#F5CB29" d="M400.926,299.769c0.037-0.75,0.681-1.35,1.386-1.506
					c0.596-0.165,1.307-0.247,1.842,0.128c0.354,0.247,0.371,0.312,0.496,0.728c0.195,0.25,0.273,0.966,0.1,0.67
					c-0.242-0.259-0.652-0.642-0.947-0.847c-0.467-0.332-1.094-0.225-1.564,0.037c-0.252,0.116-0.494,0.301-0.561,0.585
					c-0.078,0.247,0.125,0.543,0.412,0.608c0.332,0.02,0.566,0.659,0.234,0.853c-0.27,0.204-0.729-0.188-0.951-0.347
					c-0.236-0.19-0.478-0.449-0.498-0.765l0.01-0.062l0.021-0.057L400.926,299.769z"/>
				<g clip-path="url(#SVGID_6_)">
					<path fill="#010101" d="M402.145,301.155c-0.248,0-0.541-0.217-0.732-0.358l-0.084-0.062c-0.337-0.272-0.507-0.54-0.525-0.818
						l0.17-0.094c-0.014,0.321,0.14,0.554,0.445,0.801c0.301,0.222,0.668,0.495,0.863,0.344c0.168-0.099,0.133-0.31,0.117-0.372
						c-0.045-0.192-0.18-0.344-0.311-0.352c-0.184-0.04-0.338-0.156-0.426-0.31c-0.074-0.128-0.092-0.268-0.053-0.39
						c0.061-0.259,0.268-0.478,0.598-0.631c0.453-0.25,1.123-0.395,1.637-0.028c0.291,0.199,0.703,0.582,0.959,0.855
						c-0.01-0.021-0.078-0.412-0.209-0.58c-0.135-0.438-0.148-0.479-0.48-0.71c-0.42-0.296-1.004-0.335-1.781-0.119
						c-0.637,0.142-1.297,0.682-1.335,1.44l-0.143-0.009c0.043-0.829,0.757-1.418,1.443-1.571c0.818-0.228,1.441-0.182,1.898,0.14
						c0.373,0.261,0.398,0.347,0.521,0.761c0.143,0.177,0.242,0.654,0.184,0.781h-0.043l-0.168-0.048
						c-0.242-0.256-0.645-0.631-0.926-0.824c-0.461-0.326-1.07-0.192-1.492,0.04c-0.299,0.14-0.473,0.318-0.523,0.54
						c-0.029,0.091-0.016,0.19,0.037,0.284c0.068,0.116,0.188,0.204,0.322,0.235c0.209,0.015,0.379,0.241,0.43,0.46
						c0.055,0.228-0.014,0.43-0.178,0.523C402.295,301.135,402.223,301.155,402.145,301.155L402.145,301.155z"/>
				</g>
				<path clip-path="url(#SVGID_6_)" fill="#F5CB29" d="M401.66,301.569c1.201,0.421,1.082,1.753,0.838,2.341
					c-0.191,0.48-0.375,0.949-0.791,1.245c-0.426,0.229-1.384,0.21-1.705,0.085c-0.322-0.125-0.209,0.04-0.318-0.128
					c-0.068-0.278,0.258-0.344,0.42-0.36c0.416-0.04,0.854,0.136,1.199-0.114c0.379-0.281,0.621-0.943,0.688-1.412
					c0.016-0.354-0.221-0.775-0.59-0.847c-0.234-0.017-0.396,0.25-0.64,0.148c-0.24-0.119-0.246-0.466-0.092-0.628
					c0.18-0.222,0.445-0.387,0.736-0.4c0.082-0.003,0.166,0.011,0.24,0.042L401.66,301.569z"/>
				<g clip-path="url(#SVGID_6_)">
					<path fill="#010101" d="M400.719,305.402c-0.303,0-0.584-0.037-0.742-0.097c-0.143-0.057-0.186-0.048-0.201-0.046l-0.045,0.012
						l-0.1-0.11c-0.037-0.128-0.025-0.214,0.025-0.284c0.094-0.134,0.291-0.18,0.439-0.193c0.145-0.018,0.293-0.006,0.439,0.009
						c0.268,0.02,0.521,0.036,0.726-0.111c0.342-0.256,0.59-0.881,0.66-1.366c0.014-0.315-0.197-0.702-0.535-0.768
						c-0.096-0.017-0.152,0.037-0.232,0.08c-0.117,0.062-0.251,0.136-0.421,0.065c-0.127-0.062-0.207-0.177-0.232-0.321
						c-0.027-0.156,0.02-0.318,0.117-0.421c0.207-0.253,0.492-0.406,0.783-0.423c0.1,0.003,0.189,0.014,0.271,0.051l-0.053,0.128
						c-0.066-0.025-0.15-0.031-0.213-0.037c-0.248,0.012-0.5,0.148-0.683,0.372c-0.072,0.077-0.102,0.193-0.082,0.308
						c0.01,0.057,0.041,0.161,0.15,0.216c0.096,0.039,0.178,0.003,0.296-0.062c0.092-0.046,0.182-0.094,0.318-0.094
						c0.416,0.079,0.672,0.539,0.654,0.92c-0.072,0.506-0.326,1.177-0.715,1.466c-0.25,0.18-0.542,0.159-0.822,0.137
						c-0.139-0.011-0.279-0.022-0.414-0.009c-0.168,0.018-0.291,0.065-0.34,0.134c-0.025,0.037-0.031,0.083-0.018,0.14
						c0.049,0.017,0.117,0.017,0.275,0.079c0.32,0.122,1.253,0.131,1.644-0.082c0.395-0.278,0.572-0.73,0.76-1.208
						c0.125-0.301,0.27-0.96,0.016-1.528c-0.152-0.344-0.426-0.585-0.811-0.719l0.047-0.134c0.424,0.148,0.723,0.415,0.895,0.796
						c0.236,0.537,0.162,1.21-0.016,1.64c-0.188,0.474-0.381,0.966-0.816,1.272C401.498,305.346,401.094,305.402,400.719,305.402
						L400.719,305.402z"/>
				</g>
				<path clip-path="url(#SVGID_6_)" fill="#F5CB29" d="M399.999,301.203c-0.387,0.643-1.275,0.89-1.957,0.6
					c-0.543-0.202-1.02-0.565-1.361-1.028c-0.223-0.375-0.107-0.833,0-1.228c0.092-0.321,0.229-0.631,0.422-0.906
					c0.221-0.15,0.393,0.159,0.32,0.347c-0.018,0.329-0.26,0.597-0.27,0.926c-0.033,0.31,0.092,0.634,0.34,0.827
					c0.287,0.256,0.654,0.423,1.037,0.478c0.328,0.005,0.715-0.174,0.781-0.521c0-0.19-0.111-0.412,0.051-0.571
					c0.129-0.153,0.391-0.179,0.529-0.025c0.299,0.268,0.369,0.759,0.141,1.094L399.999,301.203z"/>
				<g clip-path="url(#SVGID_6_)">
					<path fill="#010101" d="M398.649,301.993c-0.217,0-0.432-0.043-0.637-0.128c-0.541-0.202-1.037-0.574-1.389-1.049
						c-0.246-0.414-0.111-0.917-0.012-1.287c0.102-0.352,0.246-0.661,0.434-0.929c0.119-0.088,0.232-0.088,0.324-0.017
						c0.119,0.097,0.172,0.287,0.119,0.429c-0.006,0.153-0.072,0.31-0.137,0.46c-0.064,0.148-0.125,0.29-0.129,0.443
						c-0.031,0.301,0.088,0.594,0.312,0.77c0.281,0.248,0.635,0.412,1.004,0.464c0.002,0,0.004,0,0.008,0
						c0.291,0,0.637-0.159,0.697-0.464c-0.002-0.039-0.012-0.094-0.021-0.147c-0.023-0.15-0.053-0.323,0.09-0.463
						c0.074-0.088,0.197-0.145,0.324-0.147c0.113-0.006,0.23,0.042,0.305,0.125c0.324,0.289,0.393,0.82,0.146,1.182l-0.115-0.079
						c0.205-0.299,0.146-0.756-0.129-1.001c-0.053-0.06-0.104-0.082-0.203-0.088c-0.09,0.003-0.172,0.04-0.225,0.105
						c-0.096,0.091-0.076,0.21-0.055,0.344c0.01,0.062,0.02,0.125,0.02,0.182c-0.076,0.395-0.525,0.554-0.854,0.591
						c-0.402-0.057-0.783-0.232-1.08-0.494c-0.26-0.202-0.4-0.543-0.365-0.887c0.006-0.176,0.074-0.335,0.141-0.491
						c0.062-0.145,0.123-0.281,0.131-0.432c0.035-0.105,0-0.236-0.07-0.29c-0.045-0.034-0.088-0.034-0.143,0.003
						c-0.16,0.236-0.299,0.534-0.395,0.869c-0.098,0.364-0.221,0.815-0.008,1.174c0.334,0.446,0.805,0.804,1.326,0.997
						c0.676,0.287,1.514,0.031,1.873-0.568l0.119,0.071C399.772,301.715,399.213,301.993,398.649,301.993L398.649,301.993z"/>
				</g>
				<path clip-path="url(#SVGID_6_)" fill="#F5CB29" d="M401.504,301.141c0,0.381-0.311,0.69-0.693,0.69
					c-0.379,0-0.691-0.307-0.691-0.69l0,0c0-0.381,0.309-0.69,0.691-0.69C401.191,300.447,401.504,300.757,401.504,301.141
					L401.504,301.141z"/>
				<g clip-path="url(#SVGID_6_)">
					<path fill="#010101" d="M400.811,301.902c-0.42,0-0.762-0.341-0.762-0.762c-0.002-0.202,0.078-0.395,0.221-0.54
						c0.145-0.145,0.338-0.222,0.541-0.222c0.423,0,0.763,0.341,0.763,0.762S401.232,301.902,400.811,301.902L400.811,301.902z
						 M400.815,300.521c-0.17,0-0.326,0.062-0.443,0.182c-0.117,0.116-0.18,0.272-0.18,0.438c0,0.341,0.277,0.619,0.619,0.619
						c0.341,0,0.621-0.278,0.621-0.619S401.156,300.521,400.815,300.521L400.815,300.521z"/>
				</g>
			</g>
		</g>
	</g>
</g>
</svg>
