<?xml version="1.0" encoding="utf-8"?>
<!-- Generator: Adobe Illustrator 16.0.0, SVG Export Plug-In . SVG Version: 6.00 Build 0)  -->
<!DOCTYPE svg PUBLIC "-//W3C//DTD SVG 1.1//EN" "http://www.w3.org/Graphics/SVG/1.1/DTD/svg11.dtd">
<svg version="1.1" id="name" xmlns="http://www.w3.org/2000/svg" xmlns:xlink="http://www.w3.org/1999/xlink" x="0px" y="0px"
	 width="85.057px" height="49.615px" viewBox="358 276 85.057 49.615" enable-background="new 358 276 85.057 49.615"
	 xml:space="preserve">
<g id="ge-aj">
	<g>
		<defs>
			<rect id="SVGID_1_" x="358" y="276" width="85.057" height="49.615"/>
		</defs>
		<clipPath id="SVGID_2_">
			<use xlink:href="#SVGID_1_"  overflow="visible"/>
		</clipPath>
		<rect x="358" y="276" clip-path="url(#SVGID_2_)" fill="#FFFFFF" width="85.057" height="49.615"/>
		<rect x="400.528" y="276" clip-path="url(#SVGID_2_)" fill="#4452A4" width="42.529" height="7.088"/>
		<rect x="400.528" y="290.176" clip-path="url(#SVGID_2_)" fill="#4452A4" width="42.529" height="7.087"/>
		<polyline clip-path="url(#SVGID_2_)" fill="#4452A4" points="443.057,311.438 443.057,304.351 358,304.351 358,311.438 		"/>
		<rect x="358" y="318.527" clip-path="url(#SVGID_2_)" fill="#4452A4" width="85.057" height="7.088"/>
		<polygon clip-path="url(#SVGID_2_)" fill="#D51F3A" points="376.43,276 376.43,287.34 358,287.34 358,293.012 376.43,293.012 
			376.43,304.351 382.1,304.351 382.1,293.012 400.528,293.012 400.528,287.34 382.1,287.34 382.1,276 		"/>
		<g clip-path="url(#SVGID_2_)">
			<defs>
				<rect id="SVGID_3_" x="358" y="276" width="85.057" height="49.615"/>
			</defs>
			<clipPath id="SVGID_4_">
				<use xlink:href="#SVGID_3_"  overflow="visible"/>
			</clipPath>
			<path clip-path="url(#SVGID_4_)" fill="#D51F3A" d="M366.23,278.836c0.654,0.082,1.315,0.082,1.969,0
				c-0.144,0.699-0.235,1.41-0.275,2.126c0.715-0.041,1.424-0.134,2.128-0.276c-0.084,0.654-0.084,1.314,0,1.968
				c-0.704-0.144-1.413-0.235-2.128-0.274c0.04,0.713,0.132,1.425,0.275,2.125c-0.653-0.083-1.314-0.083-1.969,0
				c0.143-0.7,0.236-1.412,0.277-2.125c-0.717,0.039-1.427,0.131-2.129,0.274c0.085-0.653,0.085-1.313,0-1.968
				c0.702,0.143,1.412,0.235,2.129,0.276C366.467,280.246,366.373,279.535,366.23,278.836"/>
			<path clip-path="url(#SVGID_4_)" fill="#D51F3A" d="M390.33,278.836c0.652,0.082,1.313,0.082,1.967,0
				c-0.143,0.699-0.234,1.41-0.273,2.126c0.715-0.041,1.424-0.134,2.125-0.276c-0.082,0.654-0.082,1.314,0,1.968
				c-0.701-0.144-1.41-0.235-2.125-0.274c0.039,0.713,0.131,1.425,0.273,2.125c-0.654-0.083-1.315-0.083-1.967,0
				c0.144-0.7,0.235-1.412,0.275-2.125c-0.716,0.039-1.426,0.131-2.127,0.274c0.083-0.653,0.083-1.313,0-1.968
				c0.701,0.143,1.411,0.235,2.127,0.276C390.565,280.246,390.474,279.535,390.33,278.836"/>
			<path clip-path="url(#SVGID_4_)" fill="#D51F3A" d="M366.23,295.846c0.654,0.082,1.315,0.082,1.969,0
				c-0.144,0.701-0.235,1.413-0.275,2.127c0.715-0.041,1.424-0.133,2.128-0.277c-0.084,0.656-0.084,1.316,0,1.969
				c-0.704-0.143-1.413-0.236-2.128-0.273c0.04,0.713,0.132,1.425,0.275,2.125c-0.653-0.083-1.314-0.083-1.969,0
				c0.143-0.7,0.236-1.412,0.277-2.125c-0.717,0.037-1.427,0.131-2.129,0.273c0.085-0.652,0.085-1.312,0-1.969
				c0.702,0.145,1.412,0.236,2.129,0.277C366.467,297.259,366.373,296.547,366.23,295.846"/>
			<path clip-path="url(#SVGID_4_)" fill="#D51F3A" d="M390.33,295.846c0.652,0.082,1.313,0.082,1.967,0
				c-0.143,0.701-0.234,1.413-0.273,2.127c0.715-0.041,1.424-0.133,2.125-0.277c-0.082,0.656-0.082,1.316,0,1.969
				c-0.701-0.143-1.41-0.236-2.125-0.273c0.039,0.713,0.131,1.425,0.273,2.125c-0.654-0.083-1.315-0.083-1.967,0
				c0.144-0.7,0.235-1.412,0.275-2.125c-0.716,0.037-1.426,0.131-2.127,0.273c0.083-0.652,0.083-1.312,0-1.969
				c0.701,0.145,1.411,0.236,2.127,0.277C390.565,297.259,390.474,296.547,390.33,295.846"/>
		</g>
	</g>
</g>
</svg>
