<?xml version="1.0" encoding="utf-8"?>
<!-- Generator: Adobe Illustrator 16.0.0, SVG Export Plug-In . SVG Version: 6.00 Build 0)  -->
<!DOCTYPE svg PUBLIC "-//W3C//DTD SVG 1.1//EN" "http://www.w3.org/Graphics/SVG/1.1/DTD/svg11.dtd">
<svg version="1.1" id="name" xmlns="http://www.w3.org/2000/svg" xmlns:xlink="http://www.w3.org/1999/xlink" x="0px" y="0px"
	 width="85.055px" height="49.615px" viewBox="358 276 85.055 49.615" enable-background="new 358 276 85.055 49.615"
	 xml:space="preserve">
<g id="mh-ba">
	<g>
		<defs>
			<rect id="SVGID_1_" x="358" y="276" width="85.055" height="49.615"/>
		</defs>
		<clipPath id="SVGID_2_">
			<use xlink:href="#SVGID_1_"  overflow="visible"/>
		</clipPath>
		<polygon clip-path="url(#SVGID_2_)" fill="#FFFFFF" points="358,276 358,300.805 358,325.615 405.131,325.615 443.055,325.615 
			443.055,276 		"/>
		<g clip-path="url(#SVGID_2_)">
			<defs>
				<rect id="SVGID_3_" x="358" y="276" width="85.055" height="49.615"/>
			</defs>
			<clipPath id="SVGID_4_">
				<use xlink:href="#SVGID_3_"  overflow="visible"/>
			</clipPath>
			<path clip-path="url(#SVGID_4_)" fill="#010101" d="M431.783,313.743c0-0.006,0.082-0.264,0.182-0.569
				c0.098-0.311,0.174-0.57,0.172-0.576c-0.01-0.014-0.117-0.096-0.242-0.187s-0.34-0.249-0.477-0.349l-0.252-0.185l0.615-0.015
				l0.613-0.012l0.18-0.559c0.1-0.306,0.186-0.553,0.193-0.544c0.008,0.005,0.094,0.258,0.189,0.557l0.174,0.546l0.615,0.012
				l0.611,0.015l-0.248,0.185c-0.137,0.1-0.352,0.258-0.477,0.349c-0.127,0.091-0.236,0.173-0.242,0.187
				c-0.006,0.006,0.07,0.266,0.17,0.574c0.1,0.308,0.178,0.562,0.174,0.565c-0.002,0.006-0.223-0.151-0.488-0.343l-0.48-0.351
				l-0.08,0.058c-0.041,0.029-0.25,0.181-0.457,0.33C431.838,313.717,431.783,313.754,431.783,313.743 M436.514,313.743
				c0-0.006,0.082-0.264,0.182-0.569c0.102-0.311,0.178-0.57,0.172-0.576c-0.008-0.014-0.115-0.096-0.242-0.187
				c-0.125-0.091-0.34-0.249-0.477-0.349l-0.248-0.185l0.613-0.015l0.613-0.012l0.18-0.559c0.1-0.306,0.186-0.553,0.191-0.544
				c0.008,0.005,0.094,0.258,0.189,0.557l0.174,0.546l0.615,0.012l0.611,0.015l-0.248,0.185c-0.135,0.1-0.35,0.258-0.477,0.349
				s-0.232,0.173-0.24,0.187c-0.004,0.006,0.07,0.266,0.17,0.574c0.098,0.308,0.176,0.562,0.172,0.565
				c-0.002,0.006-0.223-0.151-0.486-0.343l-0.482-0.351l-0.08,0.058c-0.041,0.029-0.248,0.181-0.457,0.33
				C436.568,313.717,436.514,313.754,436.514,313.743 M370.121,313.461c-0.559-0.109-0.895-0.566-0.895-1.218
				c0-0.653,0.33-1.099,0.902-1.216c0.33-0.07,0.711-0.033,0.975,0.091c0.178,0.082,0.395,0.302,0.477,0.478
				c0.176,0.371,0.172,0.946-0.008,1.314c-0.092,0.18-0.293,0.382-0.469,0.463C370.842,313.49,370.447,313.527,370.121,313.461
				 M370.664,312.901c0.191-0.089,0.262-0.235,0.279-0.591c0.016-0.268-0.027-0.479-0.123-0.604
				c-0.117-0.152-0.359-0.206-0.547-0.12c-0.113,0.05-0.156,0.098-0.223,0.244c-0.047,0.1-0.055,0.15-0.055,0.413
				s0.008,0.313,0.055,0.413c0.066,0.145,0.109,0.193,0.223,0.245C370.391,312.957,370.547,312.957,370.664,312.901
				 M380.699,313.474c-0.244-0.042-0.473-0.2-0.57-0.396c-0.043-0.085-0.115-0.336-0.115-0.412c0-0.025,0.062-0.042,0.305-0.076
				c0.168-0.021,0.326-0.045,0.354-0.051c0.043-0.012,0.051,0.002,0.062,0.121c0.006,0.076,0.033,0.158,0.057,0.189
				c0.094,0.123,0.242,0.123,0.338-0.003c0.045-0.062,0.047-0.095,0.055-0.938l0.006-0.871h0.381h0.379l-0.008,0.879
				c-0.008,0.84-0.012,0.885-0.062,1.037c-0.086,0.268-0.324,0.465-0.623,0.521C381.119,313.499,380.859,313.499,380.699,313.474
				 M385.393,313.474c-0.246-0.042-0.471-0.2-0.572-0.396c-0.043-0.085-0.111-0.336-0.113-0.412c0-0.025,0.062-0.042,0.305-0.076
				c0.17-0.021,0.326-0.045,0.352-0.051c0.047-0.012,0.051,0.002,0.062,0.121c0.01,0.076,0.035,0.158,0.061,0.189
				c0.09,0.123,0.242,0.123,0.334-0.003c0.047-0.062,0.049-0.095,0.055-0.938l0.008-0.871h0.381h0.381l-0.012,0.879
				c-0.008,0.84-0.008,0.885-0.061,1.037c-0.086,0.268-0.326,0.465-0.621,0.521C385.811,313.499,385.551,313.499,385.393,313.474
				 M393.834,313.474c-0.242-0.042-0.471-0.2-0.572-0.396c-0.041-0.085-0.111-0.336-0.113-0.412c0-0.025,0.062-0.042,0.305-0.076
				c0.168-0.021,0.33-0.045,0.355-0.051c0.045-0.012,0.049,0.002,0.061,0.121c0.01,0.076,0.031,0.158,0.057,0.189
				c0.092,0.123,0.242,0.123,0.34-0.003c0.045-0.062,0.047-0.095,0.053-0.938l0.008-0.871h0.379h0.381l-0.01,0.879
				c-0.008,0.84-0.012,0.885-0.061,1.037c-0.088,0.268-0.326,0.465-0.621,0.521C394.254,313.499,393.994,313.499,393.834,313.474
				 M401.082,313.461c-0.557-0.109-0.891-0.566-0.891-1.218c0-0.653,0.33-1.099,0.902-1.216c0.326-0.07,0.709-0.033,0.973,0.091
				c0.178,0.082,0.395,0.302,0.477,0.478c0.176,0.371,0.172,0.946-0.01,1.314c-0.088,0.18-0.293,0.382-0.467,0.463
				C401.807,313.49,401.412,313.527,401.082,313.461 M401.625,312.901c0.193-0.089,0.264-0.235,0.283-0.591
				c0.014-0.268-0.029-0.479-0.125-0.604c-0.117-0.152-0.361-0.206-0.547-0.12c-0.115,0.05-0.158,0.098-0.225,0.244
				c-0.045,0.1-0.053,0.15-0.053,0.413s0.008,0.313,0.053,0.413c0.066,0.145,0.109,0.193,0.225,0.245
				C401.352,312.957,401.51,312.957,401.625,312.901 M421.762,313.474c-0.246-0.042-0.471-0.2-0.572-0.396
				c-0.043-0.085-0.111-0.336-0.113-0.412c0-0.025,0.062-0.042,0.305-0.076c0.166-0.021,0.326-0.045,0.352-0.051
				c0.045-0.012,0.051,0.002,0.062,0.121c0.008,0.076,0.033,0.158,0.059,0.189c0.092,0.123,0.242,0.123,0.336-0.003
				c0.049-0.062,0.049-0.095,0.057-0.938l0.006-0.871h0.379h0.383l-0.01,0.879c-0.012,0.84-0.012,0.885-0.061,1.037
				c-0.088,0.268-0.328,0.465-0.623,0.521C422.182,313.499,421.92,313.499,421.762,313.474 M359.727,312.243v-1.208l0.498,0.006
				l0.498,0.006l0.186,0.723c0.1,0.397,0.188,0.709,0.195,0.691c0.006-0.021,0.092-0.346,0.188-0.725l0.174-0.689l0.5-0.006
				l0.498-0.006v1.208v1.208h-0.311h-0.311l-0.004-0.902l-0.01-0.9l-0.229,0.9l-0.229,0.902h-0.277h-0.277l-0.23-0.902l-0.229-0.9
				l-0.006,0.9l-0.006,0.902h-0.311h-0.309V312.243z M362.945,312.243v-1.206h0.988h0.99v0.252v0.254h-0.609h-0.609v0.193v0.195
				h0.564h0.562v0.244v0.24h-0.562h-0.564v0.24v0.241h0.633h0.631v0.276v0.277h-1.012h-1.012V312.243z M365.385,312.243v-1.206
				h0.354h0.355l0.434,0.643l0.432,0.646l0.006-0.646l0.006-0.643h0.359h0.354v1.206v1.208h-0.354h-0.355l-0.436-0.641l-0.43-0.641
				l-0.006,0.641l-0.006,0.641h-0.357h-0.355V312.243z M372.721,312.542v-0.911h-0.379h-0.381v-0.294v-0.3h1.143h1.137v0.3v0.294
				h-0.379h-0.379v0.911v0.909h-0.379h-0.383V312.542z M374.564,312.243v-1.206h0.988h0.99v0.252v0.254h-0.611h-0.609v0.193v0.195
				h0.562h0.564v0.244v0.24h-0.564h-0.562v0.24v0.241h0.631h0.633v0.276v0.277h-1.012h-1.01V312.243z M376.977,312.243v-1.208
				l0.502,0.006l0.5,0.006l0.182,0.723c0.102,0.397,0.189,0.709,0.195,0.691c0.006-0.021,0.09-0.346,0.189-0.725l0.174-0.689
				l0.498-0.006l0.498-0.006v1.208v1.208h-0.311h-0.309l-0.008-0.902l-0.006-0.9l-0.229,0.9l-0.23,0.902h-0.275h-0.279l-0.227-0.902
				l-0.23-0.9l-0.006,0.9l-0.008,0.902h-0.309h-0.312V312.243z M382.451,312.243v-1.206h0.99h0.99v0.252v0.254h-0.609h-0.611v0.193
				v0.195h0.564h0.564v0.244v0.24h-0.564h-0.564v0.24v0.241h0.633h0.633v0.276v0.277h-1.012h-1.014V312.243z M388.273,312.24v-1.209
				l0.82,0.01c0.961,0.012,0.998,0.018,1.182,0.199c0.23,0.232,0.246,0.644,0.033,0.893c-0.078,0.092-0.324,0.236-0.4,0.236
				c-0.02,0.001,0.004,0.021,0.059,0.043c0.123,0.059,0.244,0.206,0.395,0.482c0.066,0.121,0.162,0.297,0.213,0.389l0.092,0.168
				h-0.424h-0.424l-0.24-0.443c-0.256-0.473-0.318-0.547-0.471-0.547h-0.076v0.496v0.494h-0.379h-0.379V312.24z M389.492,311.976
				c0.186-0.038,0.256-0.178,0.172-0.345c-0.045-0.082-0.145-0.112-0.42-0.112h-0.213v0.241V312h0.172
				C389.297,312,389.426,311.989,389.492,311.976 M390.896,312.243v-1.206h0.988h0.99v0.252v0.254h-0.611h-0.609v0.193v0.195h0.564
				h0.562v0.244v0.24h-0.562h-0.564v0.24v0.241h0.631h0.635v0.276v0.277h-1.014h-1.01V312.243z M396.738,312.243v-1.206h0.379h0.381
				v1.206v1.208h-0.381h-0.379V312.243z M398.025,312.243v-1.206h0.381h0.379v0.908v0.908h0.576h0.572v0.297v0.301h-0.953h-0.955
				V312.243z M404.215,312.243v-1.206h0.758c0.459,0,0.803,0.008,0.873,0.023c0.34,0.072,0.551,0.407,0.463,0.731
				c-0.029,0.112-0.174,0.282-0.277,0.323c-0.086,0.037-0.088,0.062-0.006,0.077c0.117,0.025,0.275,0.146,0.344,0.263
				c0.059,0.098,0.064,0.132,0.064,0.306c0,0.177-0.006,0.21-0.072,0.321c-0.039,0.068-0.113,0.162-0.166,0.201
				c-0.18,0.14-0.395,0.166-1.285,0.166l-0.695,0.002V312.243z M405.535,312.891c0.162-0.068,0.199-0.236,0.082-0.365l-0.064-0.076
				l-0.291-0.009l-0.289-0.005v0.24v0.247h0.242C405.369,312.923,405.486,312.91,405.535,312.891 M405.516,311.902
				c0.037-0.045,0.055-0.094,0.055-0.152c0-0.062-0.018-0.11-0.055-0.154c-0.053-0.062-0.064-0.066-0.299-0.074l-0.244-0.008v0.236
				v0.234l0.244-0.009C405.451,311.967,405.463,311.964,405.516,311.902 M406.838,312.243v-1.206h0.988h0.988v0.252v0.254h-0.609
				h-0.607v0.193v0.195h0.561h0.564v0.244v0.24h-0.564h-0.561v0.24v0.241h0.631h0.633v0.276v0.277h-1.012h-1.012V312.243z
				 M409.299,312.243v-1.206h0.379h0.381v1.206v1.208h-0.381h-0.379V312.243z M410.586,312.243v-1.206h0.355h0.355l0.434,0.643
				l0.432,0.646l0.006-0.646l0.006-0.643h0.357h0.355v1.206v1.208h-0.355h-0.355l-0.434-0.641l-0.432-0.641l-0.004,0.641
				l-0.008,0.641h-0.355h-0.357V312.243z M414.365,313.25c0.041-0.111,0.238-0.651,0.443-1.201l0.369-1.002h0.42h0.422l0.385,1.034
				c0.211,0.571,0.412,1.112,0.445,1.202l0.062,0.168l-0.393-0.006l-0.395-0.007l-0.059-0.188l-0.059-0.19h-0.418h-0.42l-0.057,0.19
				l-0.057,0.188l-0.383,0.007l-0.383,0.006L414.365,313.25z M415.77,312.262c-0.045-0.15-0.105-0.346-0.131-0.438l-0.049-0.165
				l-0.051,0.178c-0.031,0.098-0.088,0.293-0.131,0.438l-0.078,0.258h0.26h0.26L415.77,312.262z M417.143,312.243v-1.206h0.354
				h0.355l0.434,0.643l0.434,0.646l0.006-0.646l0.006-0.643h0.355h0.355v1.206v1.208h-0.354h-0.355l-0.434-0.641l-0.432-0.641
				l-0.006,0.641l-0.008,0.641h-0.355h-0.355V312.243z M419.973,312.243v-1.206h0.379h0.379v1.206v1.208h-0.379h-0.379V312.243z
				 M427.051,283.209c0-0.006,0.082-0.26,0.182-0.568s0.176-0.568,0.172-0.578c-0.008-0.012-0.115-0.093-0.242-0.184
				s-0.34-0.249-0.477-0.35l-0.248-0.186l0.613-0.012l0.613-0.014l0.178-0.559c0.102-0.307,0.188-0.551,0.195-0.543
				c0.006,0.006,0.092,0.256,0.188,0.557l0.174,0.545l0.613,0.014l0.615,0.012l-0.248,0.186c-0.139,0.101-0.352,0.259-0.477,0.35
				c-0.127,0.091-0.236,0.172-0.242,0.184c-0.004,0.01,0.07,0.27,0.168,0.575c0.102,0.308,0.178,0.563,0.176,0.567
				s-0.223-0.15-0.488-0.344l-0.482-0.35l-0.078,0.056c-0.045,0.031-0.25,0.183-0.459,0.334
				C427.107,283.184,427.051,283.222,427.051,283.209 M431.783,283.209c0-0.006,0.082-0.26,0.182-0.568
				c0.098-0.309,0.174-0.568,0.172-0.578c-0.01-0.012-0.117-0.093-0.242-0.184s-0.34-0.249-0.477-0.35l-0.252-0.186l0.615-0.012
				l0.613-0.014l0.18-0.559c0.1-0.307,0.186-0.551,0.193-0.543c0.008,0.006,0.094,0.256,0.189,0.557l0.174,0.545l0.615,0.014
				l0.611,0.012l-0.248,0.186c-0.137,0.101-0.352,0.259-0.477,0.35c-0.127,0.091-0.236,0.172-0.242,0.184
				c-0.006,0.01,0.07,0.27,0.17,0.575c0.1,0.308,0.178,0.563,0.174,0.567c-0.002,0.004-0.223-0.15-0.488-0.344l-0.48-0.35
				l-0.08,0.056c-0.041,0.031-0.25,0.183-0.457,0.334C431.838,283.184,431.783,283.222,431.783,283.209 M436.514,283.209
				c0-0.006,0.082-0.26,0.182-0.568c0.102-0.309,0.178-0.568,0.172-0.578c-0.008-0.012-0.115-0.093-0.242-0.184
				c-0.125-0.091-0.34-0.249-0.477-0.35l-0.248-0.186l0.613-0.012l0.613-0.014l0.18-0.559c0.1-0.307,0.186-0.551,0.191-0.543
				c0.008,0.006,0.094,0.256,0.189,0.557l0.174,0.545l0.615,0.014l0.611,0.012l-0.248,0.186c-0.135,0.101-0.35,0.259-0.477,0.35
				s-0.232,0.172-0.24,0.184c-0.004,0.01,0.07,0.27,0.17,0.575c0.098,0.308,0.176,0.563,0.172,0.567
				c-0.002,0.004-0.223-0.15-0.486-0.344l-0.482-0.35l-0.08,0.056c-0.041,0.031-0.248,0.183-0.457,0.334
				C436.568,283.184,436.514,283.222,436.514,283.209"/>
			<polygon clip-path="url(#SVGID_4_)" fill="#2A2773" points="358,289.359 358,276 378.037,276 398.074,276 398.074,289.359 
				398.074,302.715 378.037,302.715 358,302.715 			"/>
			<path clip-path="url(#SVGID_4_)" fill="#FFFFFF" d="M360.771,300.414c0.205-0.151,0.414-0.301,0.459-0.332l0.078-0.055
				l0.482,0.352c0.266,0.189,0.482,0.345,0.486,0.34c0.006-0.004-0.074-0.258-0.172-0.566c-0.1-0.307-0.176-0.566-0.172-0.574
				c0.006-0.014,0.115-0.092,0.242-0.187c0.127-0.091,0.342-0.245,0.479-0.347l0.248-0.187l-0.613-0.014l-0.615-0.013l-0.174-0.543
				c-0.098-0.302-0.182-0.551-0.189-0.56c-0.006-0.007-0.094,0.239-0.191,0.546l-0.18,0.557l-0.613,0.013l-0.615,0.014l0.248,0.187
				c0.137,0.102,0.354,0.256,0.48,0.347c0.127,0.095,0.234,0.173,0.238,0.187c0.006,0.008-0.07,0.268-0.168,0.576
				c-0.102,0.307-0.182,0.564-0.182,0.568C360.326,300.738,360.383,300.698,360.771,300.414"/>
			<path clip-path="url(#SVGID_4_)" fill="#FFFFFF" d="M369.137,300.414c0.207-0.151,0.414-0.301,0.459-0.332l0.08-0.055l0.48,0.352
				c0.264,0.189,0.482,0.345,0.486,0.34c0.006-0.004-0.072-0.258-0.172-0.566c-0.1-0.307-0.176-0.566-0.172-0.574
				c0.008-0.014,0.115-0.092,0.242-0.187c0.127-0.091,0.34-0.245,0.477-0.347l0.25-0.187l-0.615-0.014l-0.613-0.013l-0.176-0.543
				c-0.096-0.302-0.182-0.551-0.188-0.56c-0.006-0.007-0.094,0.239-0.193,0.546l-0.178,0.557l-0.613,0.013l-0.615,0.014l0.248,0.187
				c0.137,0.102,0.354,0.256,0.479,0.347c0.125,0.095,0.234,0.173,0.24,0.187c0.006,0.008-0.07,0.268-0.168,0.576
				c-0.102,0.307-0.184,0.564-0.184,0.568C368.691,300.738,368.748,300.698,369.137,300.414"/>
			<path clip-path="url(#SVGID_4_)" fill="#FFFFFF" d="M377.502,300.414c0.207-0.151,0.414-0.301,0.459-0.332l0.078-0.055
				l0.482,0.352c0.262,0.189,0.484,0.345,0.488,0.34c0.002-0.004-0.074-0.258-0.174-0.566c-0.1-0.307-0.176-0.566-0.17-0.574
				c0.006-0.014,0.113-0.092,0.238-0.187c0.127-0.091,0.342-0.245,0.477-0.347l0.252-0.187l-0.615-0.014l-0.613-0.013l-0.176-0.543
				c-0.096-0.302-0.18-0.551-0.188-0.56c-0.008-0.007-0.094,0.239-0.193,0.546l-0.178,0.557l-0.613,0.013l-0.613,0.014l0.248,0.187
				c0.137,0.102,0.352,0.256,0.477,0.347c0.125,0.095,0.234,0.173,0.24,0.187c0.006,0.008-0.07,0.268-0.17,0.576
				c-0.102,0.307-0.182,0.564-0.182,0.568C377.057,300.738,377.111,300.698,377.502,300.414"/>
			<path clip-path="url(#SVGID_4_)" fill="#FFFFFF" d="M385.865,300.414c0.209-0.151,0.416-0.301,0.459-0.332l0.08-0.055
				l0.479,0.352c0.266,0.189,0.486,0.345,0.492,0.34c0.002-0.004-0.074-0.258-0.176-0.566c-0.098-0.307-0.174-0.566-0.168-0.574
				c0.004-0.014,0.113-0.092,0.24-0.187c0.125-0.091,0.34-0.245,0.477-0.347l0.25-0.187l-0.615-0.014l-0.611-0.013l-0.178-0.543
				c-0.096-0.302-0.182-0.551-0.186-0.56c-0.01-0.007-0.098,0.239-0.195,0.546l-0.18,0.557l-0.613,0.013l-0.613,0.014l0.248,0.187
				c0.137,0.102,0.355,0.256,0.479,0.347c0.125,0.095,0.236,0.173,0.24,0.187c0.006,0.008-0.07,0.268-0.17,0.576
				c-0.1,0.307-0.182,0.564-0.182,0.568C385.422,300.738,385.479,300.698,385.865,300.414"/>
			<path clip-path="url(#SVGID_4_)" fill="#FFFFFF" d="M394.23,300.414c0.209-0.151,0.416-0.301,0.459-0.332l0.08-0.055l0.48,0.352
				c0.266,0.189,0.486,0.345,0.488,0.34c0.004-0.004-0.076-0.258-0.174-0.566c-0.1-0.307-0.176-0.566-0.17-0.574
				c0.008-0.014,0.115-0.092,0.242-0.187c0.125-0.091,0.34-0.245,0.477-0.347l0.248-0.187l-0.613-0.014l-0.611-0.013l-0.178-0.543
				c-0.096-0.302-0.182-0.551-0.188-0.56c-0.008-0.007-0.094,0.239-0.193,0.546l-0.18,0.557l-0.613,0.013l-0.611,0.014l0.248,0.187
				c0.135,0.102,0.35,0.256,0.477,0.347c0.127,0.095,0.234,0.173,0.24,0.187c0.006,0.008-0.068,0.268-0.17,0.576
				c-0.1,0.307-0.182,0.564-0.182,0.568C393.787,300.738,393.842,300.698,394.23,300.414"/>
			<path clip-path="url(#SVGID_4_)" fill="#FFFFFF" d="M360.771,295.395c0.205-0.15,0.414-0.301,0.459-0.33l0.078-0.057l0.482,0.348
				c0.266,0.193,0.482,0.348,0.486,0.346c0.006-0.004-0.074-0.258-0.172-0.566c-0.1-0.309-0.176-0.568-0.172-0.578
				c0.006-0.008,0.115-0.092,0.242-0.184c0.127-0.09,0.342-0.25,0.479-0.35l0.248-0.184l-0.613-0.014l-0.615-0.013l-0.174-0.542
				c-0.098-0.303-0.182-0.555-0.189-0.561c-0.006-0.008-0.094,0.24-0.191,0.546l-0.18,0.557l-0.613,0.013l-0.615,0.014l0.248,0.184
				c0.137,0.1,0.354,0.26,0.48,0.35c0.127,0.092,0.234,0.176,0.238,0.184c0.006,0.01-0.07,0.27-0.168,0.578
				c-0.102,0.309-0.182,0.564-0.182,0.568C360.326,295.717,360.383,295.679,360.771,295.395"/>
			<path clip-path="url(#SVGID_4_)" fill="#FFFFFF" d="M369.137,295.395c0.207-0.15,0.414-0.301,0.459-0.33l0.08-0.057l0.48,0.348
				c0.264,0.193,0.482,0.348,0.486,0.346c0.006-0.004-0.072-0.258-0.172-0.566s-0.176-0.568-0.172-0.578
				c0.008-0.008,0.115-0.092,0.242-0.184c0.127-0.09,0.34-0.25,0.477-0.35l0.25-0.184l-0.615-0.014l-0.613-0.013l-0.176-0.542
				c-0.096-0.303-0.182-0.555-0.188-0.561c-0.006-0.008-0.094,0.24-0.193,0.546l-0.178,0.557l-0.613,0.013l-0.615,0.014l0.248,0.184
				c0.137,0.1,0.354,0.26,0.479,0.35c0.125,0.092,0.234,0.176,0.24,0.184c0.006,0.01-0.07,0.27-0.168,0.578
				c-0.102,0.309-0.184,0.564-0.184,0.568C368.691,295.717,368.748,295.679,369.137,295.395"/>
			<path clip-path="url(#SVGID_4_)" fill="#FFFFFF" d="M385.865,295.395c0.209-0.15,0.416-0.301,0.459-0.33l0.08-0.057l0.479,0.348
				c0.266,0.193,0.486,0.348,0.492,0.346c0.002-0.004-0.074-0.258-0.176-0.566c-0.098-0.309-0.174-0.568-0.168-0.578
				c0.004-0.008,0.113-0.092,0.24-0.184c0.125-0.09,0.34-0.25,0.477-0.35l0.25-0.184l-0.615-0.014l-0.611-0.013l-0.178-0.542
				c-0.096-0.303-0.182-0.555-0.186-0.561c-0.01-0.008-0.098,0.24-0.195,0.546l-0.18,0.557l-0.613,0.013l-0.613,0.014l0.248,0.184
				c0.137,0.1,0.355,0.26,0.479,0.35c0.125,0.092,0.236,0.176,0.24,0.184c0.006,0.01-0.07,0.27-0.17,0.578s-0.182,0.564-0.182,0.568
				C385.422,295.717,385.479,295.679,385.865,295.395"/>
			<path clip-path="url(#SVGID_4_)" fill="#FFFFFF" d="M394.23,295.395c0.209-0.15,0.416-0.301,0.459-0.33l0.08-0.057l0.48,0.348
				c0.266,0.193,0.486,0.348,0.488,0.346c0.004-0.004-0.076-0.258-0.174-0.566c-0.1-0.309-0.176-0.568-0.17-0.578
				c0.008-0.008,0.115-0.092,0.242-0.184c0.125-0.09,0.34-0.25,0.477-0.35l0.248-0.184l-0.613-0.014l-0.611-0.013l-0.178-0.542
				c-0.096-0.303-0.182-0.555-0.188-0.561c-0.008-0.008-0.094,0.24-0.193,0.546l-0.18,0.557l-0.613,0.013l-0.611,0.014l0.248,0.184
				c0.135,0.1,0.35,0.26,0.477,0.35c0.127,0.092,0.234,0.176,0.24,0.184c0.006,0.01-0.068,0.27-0.17,0.578
				c-0.1,0.309-0.182,0.564-0.182,0.568C393.787,295.717,393.842,295.679,394.23,295.395"/>
			<path clip-path="url(#SVGID_4_)" fill="#FFFFFF" d="M360.771,290.377c0.205-0.152,0.414-0.302,0.459-0.332l0.078-0.057
				l0.482,0.351c0.266,0.191,0.482,0.345,0.486,0.344c0.006-0.007-0.074-0.263-0.172-0.567c-0.1-0.31-0.176-0.567-0.172-0.577
				c0.006-0.01,0.115-0.092,0.242-0.183c0.127-0.092,0.342-0.25,0.479-0.35l0.248-0.186l-0.613-0.012l-0.615-0.014l-0.174-0.545
				c-0.098-0.299-0.182-0.552-0.189-0.557c-0.006-0.009-0.094,0.236-0.191,0.545l-0.18,0.557l-0.613,0.014l-0.615,0.012l0.248,0.186
				c0.137,0.1,0.354,0.258,0.48,0.35c0.127,0.091,0.234,0.173,0.238,0.183c0.006,0.01-0.07,0.272-0.168,0.577
				c-0.102,0.31-0.182,0.564-0.182,0.568C360.326,290.698,360.383,290.66,360.771,290.377"/>
			<path clip-path="url(#SVGID_4_)" fill="#FFFFFF" d="M369.137,290.377c0.207-0.152,0.414-0.302,0.459-0.332l0.08-0.057l0.48,0.351
				c0.264,0.191,0.482,0.345,0.486,0.344c0.006-0.007-0.072-0.263-0.172-0.567c-0.1-0.31-0.176-0.567-0.172-0.577
				c0.008-0.01,0.115-0.092,0.242-0.183c0.127-0.092,0.34-0.25,0.477-0.35l0.25-0.186l-0.615-0.012l-0.613-0.014l-0.176-0.545
				c-0.096-0.299-0.182-0.552-0.188-0.557c-0.006-0.009-0.094,0.236-0.193,0.545l-0.178,0.557l-0.613,0.014l-0.615,0.012
				l0.248,0.186c0.137,0.1,0.354,0.258,0.479,0.35c0.125,0.091,0.234,0.173,0.24,0.183s-0.07,0.272-0.168,0.577
				c-0.102,0.31-0.184,0.564-0.184,0.568C368.691,290.698,368.748,290.66,369.137,290.377"/>
			<path clip-path="url(#SVGID_4_)" fill="#FFFFFF" d="M377.502,290.377c0.207-0.152,0.414-0.302,0.459-0.332l0.078-0.057
				l0.482,0.351c0.262,0.191,0.484,0.345,0.488,0.344c0.002-0.007-0.074-0.263-0.174-0.567c-0.1-0.31-0.176-0.567-0.17-0.577
				s0.113-0.092,0.238-0.183c0.127-0.092,0.342-0.25,0.477-0.35l0.252-0.186l-0.615-0.012l-0.613-0.014l-0.176-0.545
				c-0.096-0.299-0.18-0.552-0.188-0.557c-0.008-0.009-0.094,0.236-0.193,0.545l-0.178,0.557l-0.613,0.014l-0.613,0.012l0.248,0.186
				c0.137,0.1,0.352,0.258,0.477,0.35c0.125,0.091,0.234,0.173,0.24,0.183s-0.07,0.272-0.17,0.577
				c-0.102,0.31-0.182,0.564-0.182,0.568C377.057,290.698,377.111,290.66,377.502,290.377"/>
			<path clip-path="url(#SVGID_4_)" fill="#FFFFFF" d="M385.865,290.377c0.209-0.152,0.416-0.302,0.459-0.332l0.08-0.057
				l0.479,0.351c0.266,0.191,0.486,0.345,0.492,0.344c0.002-0.007-0.074-0.263-0.176-0.567c-0.098-0.31-0.174-0.567-0.168-0.577
				c0.004-0.01,0.113-0.092,0.24-0.183c0.125-0.092,0.34-0.25,0.477-0.35l0.25-0.186l-0.615-0.012l-0.611-0.014l-0.178-0.545
				c-0.096-0.299-0.182-0.552-0.186-0.557c-0.01-0.009-0.098,0.236-0.195,0.545l-0.18,0.557l-0.613,0.014l-0.613,0.012l0.248,0.186
				c0.137,0.1,0.355,0.258,0.479,0.35c0.125,0.091,0.236,0.173,0.24,0.183c0.006,0.01-0.07,0.272-0.17,0.577
				c-0.1,0.31-0.182,0.564-0.182,0.568C385.422,290.698,385.479,290.66,385.865,290.377"/>
			<path clip-path="url(#SVGID_4_)" fill="#FFFFFF" d="M394.23,290.377c0.209-0.152,0.416-0.302,0.459-0.332l0.08-0.057l0.48,0.351
				c0.266,0.191,0.486,0.345,0.488,0.344c0.004-0.007-0.076-0.263-0.174-0.567c-0.1-0.31-0.176-0.567-0.17-0.577
				c0.008-0.01,0.115-0.092,0.242-0.183c0.125-0.092,0.34-0.25,0.477-0.35l0.248-0.186l-0.613-0.012l-0.611-0.014l-0.178-0.545
				c-0.096-0.299-0.182-0.552-0.188-0.557c-0.008-0.009-0.094,0.236-0.193,0.545l-0.18,0.557l-0.613,0.014l-0.611,0.012l0.248,0.186
				c0.135,0.1,0.35,0.258,0.477,0.35c0.127,0.091,0.234,0.173,0.24,0.183s-0.068,0.272-0.17,0.577
				c-0.1,0.31-0.182,0.564-0.182,0.568C393.787,290.698,393.842,290.66,394.23,290.377"/>
			<path clip-path="url(#SVGID_4_)" fill="#FFFFFF" d="M360.771,285.358c0.205-0.152,0.414-0.302,0.459-0.333l0.078-0.057
				l0.482,0.352c0.266,0.191,0.482,0.346,0.486,0.342c0.006-0.005-0.074-0.258-0.172-0.566c-0.1-0.31-0.176-0.566-0.172-0.576
				c0.006-0.01,0.115-0.092,0.242-0.185c0.127-0.091,0.342-0.247,0.479-0.35l0.248-0.183l-0.613-0.015l-0.615-0.011l-0.174-0.546
				c-0.098-0.3-0.182-0.552-0.189-0.558c-0.006-0.008-0.094,0.237-0.191,0.543l-0.18,0.561l-0.613,0.011l-0.615,0.015l0.248,0.183
				c0.137,0.103,0.354,0.259,0.48,0.35c0.127,0.093,0.234,0.175,0.238,0.185c0.006,0.01-0.07,0.267-0.168,0.576
				c-0.102,0.311-0.182,0.566-0.182,0.57C360.326,285.68,360.383,285.642,360.771,285.358"/>
			<path clip-path="url(#SVGID_4_)" fill="#FFFFFF" d="M369.137,285.358c0.207-0.152,0.414-0.302,0.459-0.333l0.08-0.057l0.48,0.352
				c0.264,0.191,0.482,0.346,0.486,0.342c0.006-0.005-0.072-0.258-0.172-0.566c-0.1-0.31-0.176-0.566-0.172-0.576
				c0.008-0.01,0.115-0.092,0.242-0.185c0.127-0.091,0.34-0.247,0.477-0.35l0.25-0.183l-0.615-0.015l-0.613-0.011l-0.176-0.546
				c-0.096-0.3-0.182-0.552-0.188-0.558c-0.006-0.008-0.094,0.237-0.193,0.543l-0.178,0.561l-0.613,0.011l-0.615,0.015l0.248,0.183
				c0.137,0.103,0.354,0.259,0.479,0.35c0.125,0.093,0.234,0.175,0.24,0.185s-0.07,0.267-0.168,0.576
				c-0.102,0.311-0.184,0.566-0.184,0.57C368.691,285.68,368.748,285.642,369.137,285.358"/>
			<path clip-path="url(#SVGID_4_)" fill="#FFFFFF" d="M385.865,285.358c0.209-0.152,0.416-0.302,0.459-0.333l0.08-0.057
				l0.479,0.352c0.266,0.191,0.486,0.346,0.492,0.342c0.002-0.005-0.074-0.258-0.176-0.566c-0.098-0.31-0.174-0.566-0.168-0.576
				c0.004-0.01,0.113-0.092,0.24-0.185c0.125-0.091,0.34-0.247,0.477-0.35l0.25-0.183l-0.615-0.015l-0.611-0.011l-0.178-0.546
				c-0.096-0.3-0.182-0.552-0.186-0.558c-0.01-0.008-0.098,0.237-0.195,0.543l-0.18,0.561l-0.613,0.011l-0.613,0.015l0.248,0.183
				c0.137,0.103,0.355,0.259,0.479,0.35c0.125,0.093,0.236,0.175,0.24,0.185c0.006,0.01-0.07,0.267-0.17,0.576
				c-0.1,0.311-0.182,0.566-0.182,0.57C385.422,285.68,385.479,285.642,385.865,285.358"/>
			<path clip-path="url(#SVGID_4_)" fill="#FFFFFF" d="M394.23,285.358c0.209-0.152,0.416-0.302,0.459-0.333l0.08-0.057l0.48,0.352
				c0.266,0.191,0.486,0.346,0.488,0.342c0.004-0.005-0.076-0.258-0.174-0.566c-0.1-0.31-0.176-0.566-0.17-0.576
				c0.008-0.01,0.115-0.092,0.242-0.185c0.125-0.091,0.34-0.247,0.477-0.35l0.248-0.183l-0.613-0.015l-0.611-0.011l-0.178-0.546
				c-0.096-0.3-0.182-0.552-0.188-0.558c-0.008-0.008-0.094,0.237-0.193,0.543l-0.18,0.561l-0.613,0.011l-0.611,0.015l0.248,0.183
				c0.135,0.103,0.35,0.259,0.477,0.35c0.127,0.093,0.234,0.175,0.24,0.185s-0.068,0.267-0.17,0.576
				c-0.1,0.311-0.182,0.566-0.182,0.57C393.787,285.68,393.842,285.642,394.23,285.358"/>
			<path clip-path="url(#SVGID_4_)" fill="#FFFFFF" d="M360.771,280.34c0.205-0.152,0.414-0.305,0.459-0.334l0.078-0.053
				l0.482,0.346c0.266,0.193,0.482,0.349,0.486,0.344c0.006-0.004-0.074-0.258-0.172-0.564c-0.1-0.311-0.176-0.566-0.172-0.578
				c0.006-0.01,0.115-0.093,0.242-0.184c0.127-0.09,0.342-0.248,0.479-0.351l0.248-0.183l-0.613-0.014l-0.615-0.014l-0.174-0.543
				c-0.098-0.302-0.182-0.551-0.189-0.56c-0.006-0.005-0.094,0.239-0.191,0.546l-0.18,0.557l-0.613,0.014l-0.615,0.014l0.248,0.183
				c0.137,0.103,0.354,0.261,0.48,0.351c0.127,0.091,0.234,0.174,0.238,0.184c0.006,0.012-0.07,0.268-0.168,0.578
				c-0.102,0.311-0.182,0.564-0.182,0.569C360.326,280.662,360.383,280.623,360.771,280.34"/>
			<path clip-path="url(#SVGID_4_)" fill="#FFFFFF" d="M369.137,280.34c0.207-0.152,0.414-0.305,0.459-0.334l0.08-0.053l0.48,0.346
				c0.264,0.193,0.482,0.349,0.486,0.344c0.006-0.004-0.072-0.258-0.172-0.564c-0.1-0.311-0.176-0.566-0.172-0.578
				c0.008-0.01,0.115-0.093,0.242-0.184c0.127-0.09,0.34-0.248,0.477-0.351l0.25-0.183l-0.615-0.014l-0.613-0.014l-0.176-0.543
				c-0.096-0.302-0.182-0.551-0.188-0.56c-0.006-0.005-0.094,0.239-0.193,0.546l-0.178,0.557l-0.613,0.014l-0.615,0.014l0.248,0.183
				c0.137,0.103,0.354,0.261,0.479,0.351c0.125,0.091,0.234,0.174,0.24,0.184c0.006,0.012-0.07,0.268-0.168,0.578
				c-0.102,0.311-0.184,0.564-0.184,0.569C368.691,280.662,368.748,280.623,369.137,280.34"/>
			<path clip-path="url(#SVGID_4_)" fill="#FFFFFF" d="M377.502,280.34c0.207-0.152,0.414-0.305,0.459-0.334l0.078-0.053
				l0.482,0.346c0.262,0.193,0.484,0.349,0.488,0.344c0.002-0.004-0.074-0.258-0.174-0.564c-0.1-0.311-0.176-0.566-0.17-0.578
				c0.006-0.01,0.113-0.093,0.238-0.184c0.127-0.09,0.342-0.248,0.477-0.351l0.252-0.183l-0.615-0.014l-0.613-0.014l-0.176-0.543
				c-0.096-0.302-0.18-0.551-0.188-0.56c-0.008-0.005-0.094,0.239-0.193,0.546l-0.178,0.557l-0.613,0.014l-0.613,0.014l0.248,0.183
				c0.137,0.103,0.352,0.261,0.477,0.351c0.125,0.091,0.234,0.174,0.24,0.184c0.006,0.012-0.07,0.268-0.17,0.578
				c-0.102,0.311-0.182,0.564-0.182,0.569C377.057,280.662,377.111,280.623,377.502,280.34"/>
			<path clip-path="url(#SVGID_4_)" fill="#FFFFFF" d="M385.865,280.34c0.209-0.152,0.416-0.305,0.459-0.334l0.08-0.053l0.479,0.346
				c0.266,0.193,0.486,0.349,0.492,0.344c0.002-0.004-0.074-0.258-0.176-0.564c-0.098-0.311-0.174-0.566-0.168-0.578
				c0.004-0.01,0.113-0.093,0.24-0.184c0.125-0.09,0.34-0.248,0.477-0.351l0.25-0.183l-0.615-0.014l-0.611-0.014l-0.178-0.543
				c-0.096-0.302-0.182-0.551-0.186-0.56c-0.01-0.005-0.098,0.239-0.195,0.546l-0.18,0.557l-0.613,0.014l-0.613,0.014l0.248,0.183
				c0.137,0.103,0.355,0.261,0.479,0.351c0.125,0.091,0.236,0.174,0.24,0.184c0.006,0.012-0.07,0.268-0.17,0.578
				s-0.182,0.564-0.182,0.569C385.422,280.662,385.479,280.623,385.865,280.34"/>
			<path clip-path="url(#SVGID_4_)" fill="#FFFFFF" d="M394.23,280.34c0.209-0.152,0.416-0.305,0.459-0.334l0.08-0.053l0.48,0.346
				c0.266,0.193,0.486,0.349,0.488,0.344c0.004-0.004-0.076-0.258-0.174-0.564c-0.1-0.311-0.176-0.566-0.17-0.578
				c0.008-0.01,0.115-0.093,0.242-0.184c0.125-0.09,0.34-0.248,0.477-0.351l0.248-0.183l-0.613-0.014l-0.611-0.014l-0.178-0.543
				c-0.096-0.302-0.182-0.551-0.188-0.56c-0.008-0.005-0.094,0.239-0.193,0.546l-0.18,0.557l-0.613,0.014l-0.611,0.014l0.248,0.183
				c0.135,0.103,0.35,0.261,0.477,0.351c0.127,0.091,0.234,0.174,0.24,0.184c0.006,0.012-0.068,0.268-0.17,0.578
				c-0.1,0.311-0.182,0.564-0.182,0.569C393.787,280.662,393.842,280.623,394.23,280.34"/>
			<rect x="358" y="321.798" clip-path="url(#SVGID_4_)" fill="#E81E26" width="85.055" height="3.817"/>
			<rect x="358" y="314.164" clip-path="url(#SVGID_4_)" fill="#E81E26" width="85.055" height="3.816"/>
			<rect x="358" y="306.529" clip-path="url(#SVGID_4_)" fill="#E81E26" width="85.055" height="3.818"/>
			<rect x="398.068" y="298.898" clip-path="url(#SVGID_4_)" fill="#E81E26" width="44.986" height="3.816"/>
			<rect x="398.068" y="291.265" clip-path="url(#SVGID_4_)" fill="#E81E26" width="44.986" height="3.817"/>
			<rect x="398.068" y="283.633" clip-path="url(#SVGID_4_)" fill="#E81E26" width="44.986" height="3.816"/>
			<rect x="398.068" y="276" clip-path="url(#SVGID_4_)" fill="#E81E26" width="44.986" height="3.816"/>
		</g>
	</g>
</g>
</svg>
