<?xml version="1.0" encoding="utf-8"?>
<!-- Generator: Adobe Illustrator 16.0.0, SVG Export Plug-In . SVG Version: 6.00 Build 0)  -->
<!DOCTYPE svg PUBLIC "-//W3C//DTD SVG 1.1//EN" "http://www.w3.org/Graphics/SVG/1.1/DTD/svg11.dtd">
<svg version="1.1" id="name" xmlns="http://www.w3.org/2000/svg" xmlns:xlink="http://www.w3.org/1999/xlink" x="0px" y="0px"
	 width="85.758px" height="50.047px" viewBox="357.977 275.977 85.758 50.047"
	 enable-background="new 357.977 275.977 85.758 50.047" xml:space="preserve">
<g id="uz-qr">
	<g>
		<defs>
			<rect id="SVGID_1_" x="358" y="276" width="85.711" height="50"/>
		</defs>
		<clipPath id="SVGID_2_">
			<use xlink:href="#SVGID_1_"  overflow="visible"/>
		</clipPath>
		<rect x="358" y="276" clip-path="url(#SVGID_2_)" fill="#FFFFFF" width="85.711" height="50"/>
		<g clip-path="url(#SVGID_2_)">
			<defs>
				<rect id="SVGID_3_" x="358" y="276" width="85.711" height="50"/>
			</defs>
			<clipPath id="SVGID_4_">
				<use xlink:href="#SVGID_3_"  overflow="visible"/>
			</clipPath>
			<g clip-path="url(#SVGID_4_)">
				<path fill="#A8A6A6" d="M443.734,326.023H358L357.977,276l85.734-0.023L443.734,326.023L443.734,326.023z M443.689,276
					L358,276.025L358.023,326l85.666-0.023V276L443.689,276z"/>
			</g>
		</g>
		<rect x="358" y="310.184" clip-path="url(#SVGID_2_)" fill="#479D46" width="85.711" height="15.816"/>
		<rect x="358" y="292.729" clip-path="url(#SVGID_2_)" fill="#C8202C" width="85.711" height="16.66"/>
		<rect x="358" y="293.407" clip-path="url(#SVGID_2_)" fill="#ECBB37" width="85.711" height="15.302"/>
		<rect x="358" y="276" clip-path="url(#SVGID_2_)" fill="#418CB3" width="85.711" height="15.998"/>
		<polygon clip-path="url(#SVGID_2_)" fill="#FFFFFF" points="383.959,286.858 382.719,285.998 384.209,285.998 384.656,284.523 
			385.172,285.998 386.713,285.998 385.486,286.91 385.982,288.285 384.756,287.424 383.512,288.336 		"/>
		<polygon clip-path="url(#SVGID_2_)" fill="#FFFFFF" points="379.898,286.858 378.672,285.998 380.164,285.998 380.611,284.523 
			381.125,285.998 382.668,285.998 381.439,286.91 381.938,288.285 380.711,287.424 379.469,288.336 		"/>
		<polygon clip-path="url(#SVGID_2_)" fill="#FFFFFF" points="375.854,286.858 374.629,285.998 376.119,285.998 376.566,284.523 
			377.082,285.998 378.623,285.998 377.395,286.91 377.891,288.285 376.666,287.424 375.422,288.336 		"/>
		<polygon clip-path="url(#SVGID_2_)" fill="#FFFFFF" points="377.875,284.256 376.65,283.396 378.141,283.396 378.588,281.904 
			379.104,283.396 380.646,283.396 379.416,284.29 379.914,285.682 378.688,284.822 377.445,285.733 		"/>
		<polygon clip-path="url(#SVGID_2_)" fill="#FFFFFF" points="381.938,284.256 380.695,283.396 382.188,283.396 382.633,281.904 
			383.148,283.396 384.689,283.396 383.463,284.29 383.959,285.682 382.734,284.822 381.49,285.733 		"/>
		<g clip-path="url(#SVGID_2_)">
			<defs>
				<rect id="SVGID_5_" x="358" y="276" width="85.711" height="50"/>
			</defs>
			<clipPath id="SVGID_6_">
				<use xlink:href="#SVGID_5_"  overflow="visible"/>
			</clipPath>
			<path clip-path="url(#SVGID_6_)" fill="#FFFFFF" d="M373.104,287.938c-0.232,0.031-0.482,0.052-0.732,0.052
				c-2.305,0-4.176-1.693-4.176-3.781c0-2.089,1.871-3.796,4.176-3.796c0.152,0,0.299,0,0.449,0.018
				c-0.713-0.415-1.541-0.648-2.438-0.648c-2.586,0-4.707,2.006-4.707,4.492c0,2.472,2.121,4.494,4.707,4.494
				C371.395,288.768,372.34,288.453,373.104,287.938"/>
		</g>
	</g>
</g>
</svg>
