<?xml version="1.0" encoding="utf-8"?>
<!-- Generator: Adobe Illustrator 16.0.0, SVG Export Plug-In . SVG Version: 6.00 Build 0)  -->
<!DOCTYPE svg PUBLIC "-//W3C//DTD SVG 1.1//EN" "http://www.w3.org/Graphics/SVG/1.1/DTD/svg11.dtd">
<svg version="1.1" id="name" xmlns="http://www.w3.org/2000/svg" xmlns:xlink="http://www.w3.org/1999/xlink" x="0px" y="0px"
	 width="85.719px" height="50px" viewBox="358 276 85.719 50" enable-background="new 358 276 85.719 50" xml:space="preserve">
<g id="ag">
	<g>
		<defs>
			<rect id="SVGID_1_" x="358" y="276" width="85.719" height="50"/>
		</defs>
		<clipPath id="SVGID_2_">
			<use xlink:href="#SVGID_1_"  overflow="visible"/>
		</clipPath>
		<rect x="358" y="276" clip-path="url(#SVGID_2_)" fill="#FFFFFF" width="85.719" height="50"/>
		<rect x="358" y="295.562" clip-path="url(#SVGID_2_)" fill="#406FB6" width="85.719" height="10.871"/>
		<rect x="358" y="276" clip-path="url(#SVGID_2_)" fill="#010101" width="85.719" height="19.562"/>
		<polygon clip-path="url(#SVGID_2_)" fill="#BD1F34" points="443.719,276 400.861,326 358,276 358,326 443.719,326 		"/>
		<polygon clip-path="url(#SVGID_2_)" fill="#F4D130" points="409.012,293.943 415.922,289.326 407.771,290.946 412.387,284.035 
			405.479,288.653 407.101,280.499 402.48,287.412 400.858,279.26 399.238,287.412 394.619,280.499 396.242,288.653 
			389.331,284.035 393.947,290.946 385.796,289.326 392.707,293.943 384.555,295.562 417.164,295.562 		"/>
	</g>
</g>
</svg>
