<?xml version="1.0" encoding="utf-8"?>
<!-- Generator: Adobe Illustrator 16.0.0, SVG Export Plug-In . SVG Version: 6.00 Build 0)  -->
<!DOCTYPE svg PUBLIC "-//W3C//DTD SVG 1.1//EN" "http://www.w3.org/Graphics/SVG/1.1/DTD/svg11.dtd">
<svg version="1.1" id="name" xmlns="http://www.w3.org/2000/svg" xmlns:xlink="http://www.w3.org/1999/xlink" x="0px" y="0px"
	 width="85.715px" height="50px" viewBox="358 276 85.715 50" enable-background="new 358 276 85.715 50" xml:space="preserve">
<g id="ai">
	<g>
		<defs>
			<rect id="SVGID_1_" x="358" y="276" width="85.715" height="50"/>
		</defs>
		<clipPath id="SVGID_2_">
			<use xlink:href="#SVGID_1_"  overflow="visible"/>
		</clipPath>
		<rect x="358" y="276" clip-path="url(#SVGID_2_)" fill="#272E68" width="85.715" height="50"/>
		<polygon clip-path="url(#SVGID_2_)" fill="#FFFFFF" points="397.906,276 384.208,282.849 384.208,276 376.722,276 
			376.722,282.849 363.023,276 358,276 358,278.51 367.953,283.486 358,283.486 358,290.974 367.953,290.974 358,295.951 
			358,298.463 363.023,298.463 376.722,291.614 376.722,298.463 384.208,298.463 384.208,291.614 397.906,298.463 402.926,298.463 
			402.926,295.951 392.975,290.974 402.926,290.974 402.926,283.486 392.975,283.486 402.926,278.51 402.926,276 		"/>
		<polygon clip-path="url(#SVGID_2_)" fill="#BD1F38" points="402.926,276 399.578,276 384.604,283.486 387.953,283.486 		"/>
		<polygon clip-path="url(#SVGID_2_)" fill="#BD1F38" points="358,276 358,277.672 369.627,283.486 372.977,283.486 		"/>
		<polygon clip-path="url(#SVGID_2_)" fill="#BD1F38" points="372.977,290.974 358,298.463 361.348,298.463 376.326,290.974 		"/>
		<polygon clip-path="url(#SVGID_2_)" fill="#BD1F38" points="387.953,290.974 402.926,298.463 402.926,296.789 391.299,290.974 		
			"/>
		<polygon clip-path="url(#SVGID_2_)" fill="#BD1F38" points="378.219,276 378.219,284.984 358,284.984 358,289.479 
			378.219,289.479 378.219,298.463 382.711,298.463 382.711,289.479 402.926,289.479 402.926,284.984 382.711,284.984 382.711,276 
					"/>
		<g clip-path="url(#SVGID_2_)">
			<defs>
				<rect id="SVGID_3_" x="358" y="276" width="85.715" height="50"/>
			</defs>
			<clipPath id="SVGID_4_">
				<use xlink:href="#SVGID_3_"  overflow="visible"/>
			</clipPath>
			<path clip-path="url(#SVGID_4_)" fill="#FFFFFF" d="M423.377,290.182c-3.473,1.997-7.217,1.931-9.561,0.327v12.414
				c0,4.299,2.617,9.115,9.561,11.635c6.947-2.52,9.561-7.336,9.561-11.635v-12.414C430.59,292.112,426.85,292.179,423.377,290.182"
				/>
			<path clip-path="url(#SVGID_4_)" fill="#3B71B8" d="M414.652,307.051c1.24,2.979,3.969,5.779,8.725,7.506
				c4.754-1.727,7.48-4.527,8.729-7.506H414.652z"/>
			<path clip-path="url(#SVGID_4_)" fill="#D87134" d="M429.658,295.901c-1.115-1.031-2.428-0.564-3.469-1.465
				c-0.9-0.775-2.215-1.086-3.217-0.999c0.066-0.129,0.154-0.281,0.221-0.412c-4.732,1.128-5.252,7.38-0.936,8.095
				c0.055-0.661-0.475-1.062-0.5-1.712c0.207,0.042,0.449,0.126,0.611,0.237c-0.066-0.739-0.719-0.889-0.697-1.801
				c0.047-1.847,0.984-2.989,2.672-3.125c0.801-0.066,1.895,0.254,2.234,0.934c0.131,0.258,0.391,0.618,0.586,0.814
				c0.186,0.186,0.188,0.119,0.219-0.144c0.057-0.548,1.037-0.795,2.191-0.258C429.875,296.205,429.883,296.111,429.658,295.901"/>
			<path clip-path="url(#SVGID_4_)" fill="#D87134" d="M425.514,299.364c-0.344,0.205-0.793,0.987-1.498,1.062
				c0.012-0.26,0-0.685-0.041-0.847c-0.402,0.618-0.5,1.411-1.521,2.107c-1.145,0.777-3.176,1.027-4.207-0.09
				c-0.543-0.586-0.893-1.365-0.588-2.474c0.205-0.739,0.834-0.777,1.182-1.085c0.102-0.087,0.012-0.101-0.139-0.12
				c-0.643-0.075-0.828-0.964-0.285-2.3c0.123-0.294-0.043-0.283-0.389,0.336c-0.494,0.879-0.488,1.709-0.758,2.452
				c-0.652,1.778-0.311,4.269,1.34,5.161c-0.082,0.119-0.18,0.274-0.281,0.396C422.064,304.854,425.795,303.291,425.514,299.364"/>
			<path clip-path="url(#SVGID_4_)" fill="#D87134" d="M424.475,296.542c0.215,0.432,0.846,0.739,1.039,1.324
				c-0.174,0-0.5,0.086-0.674,0.194c0.467,0.217,0.719,0.25,1.15,0.598l0.109,0.054c1.389,1.475,1.994,2.938,1.48,4.255
				c-0.266,0.66-0.805,1.402-1.689,1.682c-1.189,0.378-1.514-0.598-2.588-0.423c-0.076,0.011-0.02,0.073,0.086,0.119
				c0.67,0.291,0.438,1.04-0.836,1.604c-0.1,0.045-0.105,0.052,0.111,0.078c0.768,0.086,1.736-0.166,2.244-0.434
				c0.629-0.338,1.4-0.564,2.074-0.883c1.311-0.617,2.025-1.711,2.23-3.23c0.252,0.184,0.326,0.346,0.445,0.553
				C430.201,299.58,428.486,296.434,424.475,296.542"/>
			<path clip-path="url(#SVGID_4_)" fill="#FFFFFF" d="M420.676,299.077c0.121,0,0.221,0.098,0.221,0.22s-0.1,0.222-0.221,0.222
				c-0.123,0-0.223-0.1-0.223-0.222S420.553,299.077,420.676,299.077"/>
			<path clip-path="url(#SVGID_4_)" fill="#FFFFFF" d="M424.82,300.683c-0.123,0-0.225,0.099-0.225,0.222
				c0,0.122,0.102,0.223,0.225,0.223s0.221-0.101,0.221-0.223C425.041,300.782,424.943,300.683,424.82,300.683"/>
			<path clip-path="url(#SVGID_4_)" fill="#FFFFFF" d="M426.557,297.049c-0.123,0-0.225,0.099-0.225,0.222
				c0,0.122,0.102,0.221,0.225,0.221c0.121,0,0.221-0.099,0.221-0.221C426.777,297.148,426.678,297.049,426.557,297.049"/>
		</g>
	</g>
</g>
</svg>
