<?xml version="1.0" encoding="utf-8"?>
<!-- Generator: Adobe Illustrator 16.0.0, SVG Export Plug-In . SVG Version: 6.00 Build 0)  -->
<!DOCTYPE svg PUBLIC "-//W3C//DTD SVG 1.1//EN" "http://www.w3.org/Graphics/SVG/1.1/DTD/svg11.dtd">
<svg version="1.1" id="name" xmlns="http://www.w3.org/2000/svg" xmlns:xlink="http://www.w3.org/1999/xlink" x="0px" y="0px"
	 width="85.715px" height="50px" viewBox="358 276 85.715 50" enable-background="new 358 276 85.715 50" xml:space="preserve">
<g id="al">
	<g>
		<defs>
			<rect id="SVGID_1_" x="358" y="276" width="85.715" height="50"/>
		</defs>
		<clipPath id="SVGID_2_">
			<use xlink:href="#SVGID_1_"  overflow="visible"/>
		</clipPath>
		<rect x="358" y="276" clip-path="url(#SVGID_2_)" fill="#BD1F34" width="85.715" height="50"/>
		<g clip-path="url(#SVGID_2_)">
			<defs>
				<rect id="SVGID_3_" x="358" y="276" width="85.715" height="50"/>
			</defs>
			<clipPath id="SVGID_4_">
				<use xlink:href="#SVGID_3_"  overflow="visible"/>
			</clipPath>
			<path clip-path="url(#SVGID_4_)" fill="#010101" d="M414.641,307.762c-0.105-0.076-0.285-0.13-0.457-0.137
				c-0.16-0.008-0.385-0.059-0.516-0.122c-0.283-0.134-0.584-0.09-0.846,0.134c-0.173,0.142-0.284,0.166-0.943,0.217
				c-0.926,0.075-1.227,0.075-1.227,0.012c0-0.025,0.235-0.196,0.528-0.381c0.395-0.262,0.562-0.332,0.688-0.306
				c0.278,0.052,0.628-0.083,0.889-0.351c0.247-0.254,0.308-0.271,0.878-0.246c0.139,0.004,0.045,0.012,0.238-0.018
				c-0.084-0.229-0.426-0.677-0.988-0.531c-0.241,0.064-0.395,0.07-0.52,0.026c-0.363-0.126-0.855,0.134-1.006,0.526
				c-0.076,0.205-0.44,0.505-1.097,0.904l-0.475,0.301l-0.923-0.356c-1.031-0.396-1.901-0.79-1.901-0.853
				c0-0.033,0.125-0.191,0.284-0.371c0.159-0.17,0.287-0.336,0.287-0.354s-0.176-0.13-0.397-0.237
				c-1.433-0.725-2.452-1.743-2.878-2.889c-0.308-0.801-0.154-0.986,0.225-0.268c0.298,0.579,0.52,0.841,0.929,1.104
				c0.438,0.278,0.685,0.336,0.85,0.184c0.198-0.18,0.153-0.395-0.128-0.713c-0.628-0.719-0.81-1.805-0.293-1.805
				c0.196,0,0.225,0.035,0.625,0.959c0.562,1.289,1.134,2.154,1.586,2.383c0.38,0.197,1.006,0.041,1.104-0.283
				c0.083-0.262-0.02-0.428-0.457-0.706c-0.682-0.448-1.134-1.163-1.31-2.106c-0.06-0.306-0.052-0.383,0.039-0.523
				c0.156-0.234,0.271-0.15,0.714,0.516c0.835,1.254,2.335,2.902,2.954,3.243c1.094,0.605,2.168,0.581,2.82-0.066
				c0.178-0.178,0.234-0.288,0.234-0.448c0-0.311-0.23-0.443-0.734-0.418c-1.138,0.053-1.249,0.038-1.687-0.165
				c-0.847-0.402-1.671-1.361-2.318-2.71c-0.613-1.259-0.463-1.324,0.574-0.267c1.4,1.424,2.528,1.95,3.567,1.646
				c0.5-0.146,0.979-0.598,0.979-0.936c0-0.362-0.178-0.47-0.725-0.436c-0.25,0.019-0.711,0.03-1.022,0.03
				c-0.529,0.004-0.611-0.011-1.001-0.203c-0.232-0.115-0.616-0.389-0.872-0.625c-0.667-0.617-1.787-2.156-1.787-2.451
				c0-0.298,0.265-0.18,0.955,0.423c0.557,0.489,1.554,1.167,2.006,1.378c0.261,0.114,0.429,0.139,0.923,0.146
				c0.52,0,0.648-0.02,0.912-0.161c0.418-0.21,0.562-0.417,0.6-0.856c0.049-0.622-0.26-0.777-1.166-0.55
				c-1.277,0.32-1.945,0.085-3.124-1.105c-0.571-0.585-0.775-0.898-0.699-1.081c0.065-0.178,0.318-0.094,1.407,0.452
				c1.192,0.606,1.534,0.726,2.094,0.726c0.496,0,0.814-0.101,1.119-0.369c0.465-0.394,0.578-0.842,0.283-1.128
				c-0.225-0.236-0.678-0.217-1.184,0.038c-0.254,0.121-0.528,0.213-0.762,0.232c-0.801,0.075-1.978-0.373-2.568-0.965
				c-0.395-0.394-0.585-0.761-0.475-0.902c0.113-0.128,0.287-0.106,0.73,0.078c0.863,0.371,1.278,0.47,1.932,0.47
				c0.733,0,1.18-0.114,1.809-0.47c0.49-0.267,0.811-0.612,0.811-0.853c0-0.095-0.061-0.267-0.133-0.382
				c-0.182-0.3-0.516-0.286-1.143,0.055c-1.235,0.675-2.088,0.771-2.952,0.334c-0.363-0.185-0.985-0.779-1.15-1.094
				c-0.097-0.199-0.097-0.225-0.009-0.314c0.114-0.114,0.196-0.103,1.151,0.247c0.479,0.172,0.69,0.217,1.25,0.239
				c0.747,0.03,1.202-0.048,1.69-0.276c0.652-0.3,1.295-1.077,1.295-1.56c0-0.236-0.148-0.54-0.293-0.597
				c-0.277-0.108-0.432-0.04-0.861,0.412c-0.675,0.688-1.343,0.949-2.408,0.949c-1.131-0.007-1.594-0.178-1.594-0.606
				c0-0.292,0.222-0.469,0.685-0.542c1.409-0.227,3.034-0.964,3.907-1.773c0.516-0.477,0.713-0.815,0.703-1.22
				c-0.006-0.466-0.203-0.778-0.57-0.879c-0.316-0.089-0.551,0.057-0.879,0.564c-0.544,0.861-1.099,1.333-2.158,1.867
				c-0.619,0.304-1.605,0.641-1.79,0.603c-0.057-0.011-0.147-0.125-0.195-0.273c-0.153-0.43-0.18-0.436-0.815-0.169
				c-0.318,0.139-0.969,0.388-1.452,0.557c-0.969,0.346-1.293,0.556-1.522,1.009c-0.111,0.222-0.137,0.375-0.137,1.056
				c-0.009,0.726-0.025,0.812-0.153,1.004c-0.196,0.272-0.358,0.348-0.765,0.348c-0.591,0-0.918-0.348-0.954-1.03
				c-0.028-0.555,0.065-1.025,0.338-1.585c0.27-0.566,0.579-0.909,1.168-1.297c0.562-0.369,1.102-0.539,1.892-0.615
				c0.705-0.062,1.427-0.335,1.6-0.685c-0.725,0.214-1.451-0.095-1.387-0.131c0.062-0.037,1.35-0.031,1.521-0.051
				c0.54-0.057,0.75-0.208,1.048-0.426c0.344-0.246,0.574-0.476,0.483-0.636c-0.088-0.169-0.344-0.141-0.517,0.057
				c-0.092,0.102-0.256,0.284-0.375,0.419c-0.202,0.23-0.248,0.249-0.858,0.345c-0.466,0.062-0.552,0.062-0.815,0
				c-0.091-0.064-0.165-0.141-0.165-0.172c0-0.091,0.256-0.236,0.491-0.286c0.168-0.033,0.549,0.097,0.867,0.188
				c-0.074-0.177-0.068-0.193-0.179-0.403c-0.154-0.298-0.424-0.409-1.108-0.428c-0.475-0.018-0.634-0.051-0.733-0.141
				c-0.073-0.069-0.188-0.153-0.258-0.191c-0.083-0.044-0.199-0.067-0.345-0.071c-0.429-0.013-1.102,0.148-1.75,0.433
				c-0.357,0.159-0.517,0.198-0.886,0.198c-0.253,0-0.571-0.03-0.714-0.07c-0.505-0.132-0.602-0.136-0.602-0.035
				c0,0.121,0.435,0.516,0.758,0.679c0.18,0.09,0.248,0.159,0.214,0.225c-0.046,0.133-0.534,0.463-0.836,0.564
				c-0.301,0.108-0.295,0.229,0.037,0.388c0.147,0.071,0.265,0.158,0.272,0.198c0.006,0.185-0.631,0.599-0.917,0.599
				c-0.355,0-0.222,0.28,0.164,0.362c0.219,0.045,0.219,0.068,0.028,0.278c-0.21,0.242-0.4,0.327-0.61,0.282
				c-0.238-0.05-0.281,0.04-0.147,0.288c0.11,0.189,0.11,0.202-0.006,0.284c-0.051,0.041-0.122,0.067-0.19,0.083v-0.003
				c-0.015,0.004-0.031,0.007-0.045,0.01c-0.017,0.001-0.038,0.003-0.054,0.004c-0.019-0.001-0.04-0.003-0.056-0.004
				c-0.014-0.003-0.032-0.005-0.045-0.01v0.003c-0.068-0.016-0.138-0.042-0.19-0.083c-0.117-0.083-0.117-0.095-0.006-0.284
				c0.134-0.249,0.087-0.338-0.147-0.288c-0.211,0.045-0.401-0.04-0.611-0.282c-0.19-0.21-0.19-0.233,0.027-0.278
				c0.386-0.083,0.521-0.362,0.166-0.362c-0.29,0-0.924-0.415-0.916-0.599c0.007-0.04,0.123-0.126,0.271-0.198
				c0.331-0.159,0.339-0.28,0.036-0.388c-0.3-0.101-0.793-0.431-0.834-0.564c-0.035-0.065,0.034-0.135,0.213-0.225
				c0.324-0.163,0.759-0.558,0.759-0.679c0-0.101-0.097-0.097-0.604,0.035c-0.141,0.04-0.459,0.07-0.712,0.07
				c-0.369,0-0.531-0.039-0.887-0.198c-0.647-0.285-1.318-0.446-1.75-0.433c-0.145,0.004-0.262,0.027-0.345,0.071
				c-0.068,0.038-0.183,0.122-0.258,0.191c-0.104,0.09-0.258,0.123-0.732,0.141c-0.684,0.019-0.956,0.129-1.108,0.428
				c-0.11,0.21-0.11,0.226-0.179,0.403c0.316-0.091,0.693-0.22,0.865-0.188c0.237,0.05,0.492,0.195,0.492,0.286
				c0,0.031-0.078,0.108-0.164,0.172c-0.266,0.062-0.352,0.062-0.817,0c-0.609-0.097-0.656-0.115-0.86-0.345
				c-0.115-0.135-0.28-0.317-0.369-0.419c-0.175-0.198-0.431-0.226-0.521-0.057c-0.09,0.16,0.141,0.391,0.486,0.636
				c0.295,0.219,0.507,0.369,1.047,0.426c0.169,0.02,1.457,0.014,1.52,0.051c0.064,0.036-0.662,0.345-1.387,0.131
				c0.174,0.35,0.894,0.622,1.599,0.685c0.79,0.077,1.331,0.246,1.894,0.615c0.588,0.388,0.897,0.73,1.168,1.297
				c0.271,0.56,0.368,1.03,0.337,1.585c-0.037,0.682-0.363,1.03-0.955,1.03c-0.406,0-0.568-0.076-0.765-0.348
				c-0.126-0.192-0.145-0.279-0.151-1.004c0-0.681-0.023-0.834-0.137-1.056c-0.231-0.453-0.556-0.663-1.524-1.009
				c-0.484-0.169-1.132-0.417-1.45-0.557c-0.637-0.267-0.662-0.261-0.816,0.169c-0.052,0.148-0.139,0.262-0.196,0.273
				c-0.187,0.038-1.171-0.298-1.787-0.603c-1.062-0.534-1.617-1.005-2.164-1.867c-0.325-0.507-0.558-0.653-0.875-0.564
				c-0.364,0.101-0.567,0.414-0.572,0.879c-0.007,0.405,0.188,0.743,0.706,1.22c0.871,0.809,2.499,1.546,3.903,1.773
				c0.467,0.073,0.689,0.25,0.689,0.542c0,0.429-0.465,0.599-1.599,0.606c-1.062,0-1.729-0.261-2.404-0.949
				c-0.434-0.452-0.586-0.52-0.864-0.412c-0.142,0.057-0.291,0.361-0.291,0.597c0,0.483,0.641,1.26,1.296,1.56
				c0.488,0.228,0.941,0.306,1.691,0.276c0.559-0.021,0.769-0.067,1.244-0.239c0.958-0.35,1.04-0.361,1.154-0.247
				c0.089,0.089,0.089,0.115-0.008,0.314c-0.164,0.315-0.788,0.909-1.15,1.094c-0.868,0.438-1.716,0.341-2.953-0.334
				c-0.627-0.341-0.961-0.355-1.143-0.055c-0.072,0.115-0.132,0.287-0.132,0.382c0,0.24,0.321,0.585,0.81,0.853
				c0.631,0.356,1.075,0.47,1.81,0.47c0.655,0,1.067-0.1,1.933-0.47c0.438-0.185,0.616-0.206,0.731-0.078
				c0.108,0.141-0.081,0.508-0.478,0.902c-0.588,0.592-1.767,1.04-2.568,0.965c-0.231-0.019-0.512-0.111-0.76-0.232
				c-0.504-0.255-0.959-0.274-1.187-0.038c-0.294,0.286-0.181,0.734,0.286,1.128c0.305,0.269,0.622,0.369,1.117,0.369
				c0.559,0,0.904-0.119,2.096-0.726c1.085-0.545,1.341-0.629,1.405-0.452c0.076,0.183-0.127,0.496-0.698,1.081
				c-1.179,1.19-1.848,1.425-3.126,1.105c-0.905-0.227-1.215-0.072-1.163,0.55c0.036,0.439,0.183,0.646,0.596,0.856
				c0.269,0.141,0.396,0.161,0.915,0.161c0.49-0.007,0.663-0.033,0.925-0.146c0.45-0.211,1.446-0.889,2.005-1.378
				c0.69-0.604,0.953-0.722,0.953-0.423c0,0.294-1.118,1.834-1.787,2.451c-0.255,0.236-0.637,0.51-0.872,0.625
				c-0.39,0.192-0.471,0.208-0.999,0.203c-0.313,0-0.774-0.011-1.022-0.03c-0.547-0.034-0.725,0.074-0.725,0.436
				c0,0.338,0.478,0.789,0.976,0.936c1.04,0.304,2.169-0.223,3.57-1.646c1.037-1.057,1.188-0.992,0.573,0.267
				c-0.646,1.349-1.47,2.308-2.318,2.71c-0.438,0.203-0.55,0.218-1.69,0.165c-0.5-0.025-0.729,0.107-0.729,0.418
				c0,0.16,0.058,0.271,0.232,0.448c0.652,0.647,1.728,0.672,2.818,0.066c0.621-0.341,2.123-1.989,2.956-3.243
				c0.445-0.666,0.559-0.75,0.711-0.516c0.097,0.141,0.104,0.218,0.044,0.523c-0.179,0.943-0.627,1.658-1.31,2.106
				c-0.438,0.278-0.54,0.444-0.458,0.706c0.1,0.324,0.724,0.48,1.105,0.283c0.452-0.229,1.022-1.094,1.585-2.383
				c0.399-0.924,0.428-0.959,0.624-0.959c0.518,0,0.337,1.086-0.293,1.805c-0.279,0.318-0.328,0.533-0.128,0.713
				c0.167,0.152,0.414,0.095,0.852-0.184c0.41-0.263,0.631-0.524,0.929-1.104c0.377-0.719,0.531-0.533,0.225,0.268
				c-0.426,1.146-1.446,2.164-2.875,2.889c-0.225,0.107-0.399,0.219-0.399,0.237s0.126,0.185,0.285,0.354
				c0.158,0.18,0.286,0.338,0.286,0.371c0,0.062-0.871,0.457-1.902,0.853l-0.927,0.356l-0.473-0.301
				c-0.657-0.399-1.02-0.699-1.095-0.904c-0.151-0.393-0.644-0.652-1.006-0.526c-0.127,0.044-0.279,0.038-0.521-0.026
				c-0.562-0.146-0.903,0.302-0.988,0.531c0.193,0.029,0.1,0.021,0.237,0.018c0.572-0.025,0.631-0.008,0.879,0.246
				c0.262,0.268,0.609,0.402,0.888,0.351c0.128-0.026,0.293,0.044,0.689,0.306c0.292,0.185,0.526,0.355,0.526,0.381
				c0,0.063-0.299,0.063-1.226-0.012c-0.66-0.051-0.771-0.075-0.943-0.217c-0.263-0.224-0.562-0.268-0.848-0.134
				c-0.128,0.063-0.355,0.114-0.515,0.122c-0.17,0.007-0.351,0.061-0.457,0.137c-0.187,0.142-0.311,0.211-0.393,0.491
				c0.344-0.006,0.23-0.006,0.479-0.037c0.427-0.065,0.472-0.06,0.607,0.062c0.082,0.069,0.209,0.167,0.285,0.206
				c0.189,0.097,0.629,0.086,0.841-0.028c0.131-0.063,0.435-0.087,1.127-0.093c0.522-0.007,0.978-0.007,1.009,0
				c0.038,0-0.17,0.14-0.455,0.312c-0.49,0.301-0.537,0.31-0.957,0.302c-0.559-0.006-0.875,0.161-0.965,0.517
				c-0.031,0.128-0.091,0.358-0.128,0.499c-0.09,0.336-0.124,0.389,0.125,0.971c0.271-0.641,0.178-0.444,0.262-0.564
				c0.133-0.199,0.186-0.23,0.503-0.255c0.44-0.037,0.644-0.171,0.808-0.521c0.111-0.243,0.229-0.344,0.814-0.706
				c0.804-0.496,0.751-0.496,1.656-0.076c0.444,0.211,0.61,0.316,0.687,0.465c0.135,0.266,0.42,0.369,0.737,0.273
				c0.3-0.088,0.43-0.041,0.638,0.247c0.081,0.124,0.088,0.1,0.217,0.215c0.034-0.178,0.037-0.202,0.037-0.381
				c0-0.261-0.031-0.312-0.369-0.656c-0.396-0.394-0.637-0.503-0.922-0.394c-0.131,0.053-0.244,0.034-0.587-0.125
				c-0.382-0.17-0.53-0.312-0.329-0.312c0.036,0,0.654-0.229,1.36-0.503l1.284-0.497l0.19,0.153
				c0.351,0.272,0.906,0.528,1.147,0.528c0.224,0,0.248-0.019,0.318-0.247c0.108-0.364,0.853-1.797,1.253-2.405
				c0.667-1.033,1.034-1.301,1.336-0.971c0.092,0.109,0.12,0.232,0.113,0.625c-0.01,1.164-0.675,2.686-1.546,3.543
				c-0.459,0.459-0.963,0.708-1.57,0.797c-0.474,0.064-0.79,0.184-0.79,0.305c0,0.127,0.312,0.498,0.51,0.6
				c0.172,0.09,0.337,0.106,0.699,0.094c0.44-0.019,0.523-0.043,0.941-0.297c0.415-0.248,0.478-0.27,0.56-0.186
				c0.084,0.082,0.091,0.141,0.025,0.37c-0.135,0.497-0.488,0.724-1.316,0.825c-0.844,0.107-1.132,0.363-0.851,0.759
				c0.182,0.255,0.5,0.388,0.94,0.388c0.497,0,0.923-0.219,1.488-0.753c0.244-0.222,0.465-0.386,0.502-0.364
				c0.091,0.053,0.083,0.563-0.009,0.873c-0.091,0.3-0.49,0.772-0.734,0.866c-0.094,0.037-0.338,0.115-0.537,0.165
				c-0.693,0.191-0.793,0.46-0.304,0.785c0.32,0.212,0.848,0.228,1.235,0.043c0.256-0.113,0.956-0.77,1.087-1.006
				c0.118-0.21,0.237-0.054,0.2,0.258c-0.026,0.26-0.179,0.553-0.524,1.037c-0.278,0.381-0.183,0.896,0.293,1.596
				c0.316,0.468,0.616,0.802,0.756,0.859c0.136-0.058,0.437-0.392,0.752-0.859c0.478-0.699,0.574-1.215,0.293-1.596
				c-0.344-0.484-0.494-0.777-0.523-1.037c-0.036-0.312,0.083-0.468,0.196-0.258c0.134,0.236,0.836,0.893,1.091,1.006
				c0.39,0.185,0.915,0.169,1.23-0.043c0.494-0.325,0.396-0.594-0.301-0.785c-0.196-0.05-0.44-0.128-0.537-0.165
				c-0.241-0.094-0.643-0.566-0.733-0.866c-0.094-0.31-0.097-0.82-0.008-0.873c0.036-0.021,0.258,0.143,0.503,0.364
				c0.564,0.534,0.991,0.753,1.488,0.753c0.44,0,0.759-0.133,0.94-0.388c0.281-0.396-0.009-0.651-0.853-0.759
				c-0.826-0.102-1.182-0.328-1.315-0.825c-0.065-0.229-0.06-0.288,0.025-0.37c0.083-0.084,0.146-0.062,0.558,0.186
				c0.42,0.254,0.503,0.278,0.94,0.297c0.366,0.013,0.531-0.004,0.704-0.094c0.196-0.102,0.509-0.473,0.509-0.6
				c0-0.121-0.318-0.24-0.79-0.305c-0.608-0.089-1.113-0.338-1.568-0.797c-0.872-0.857-1.54-2.379-1.549-3.543
				c-0.008-0.393,0.018-0.516,0.114-0.625c0.301-0.33,0.668-0.062,1.335,0.971c0.4,0.608,1.146,2.041,1.253,2.405
				c0.071,0.229,0.097,0.247,0.318,0.247c0.241,0,0.796-0.256,1.147-0.528l0.19-0.153l1.284,0.497
				c0.708,0.274,1.324,0.503,1.361,0.503c0.199,0,0.051,0.143-0.329,0.312c-0.347,0.159-0.458,0.178-0.589,0.125
				c-0.284-0.109-0.525,0-0.92,0.394c-0.338,0.344-0.369,0.396-0.369,0.656c0,0.179,0.002,0.203,0.036,0.381
				c0.128-0.115,0.131-0.091,0.219-0.215c0.202-0.288,0.336-0.335,0.637-0.247c0.318,0.096,0.603-0.008,0.736-0.273
				c0.076-0.148,0.241-0.254,0.688-0.465c0.903-0.42,0.854-0.42,1.656,0.076c0.585,0.362,0.701,0.463,0.812,0.706
				c0.165,0.351,0.369,0.484,0.81,0.521c0.318,0.024,0.369,0.056,0.503,0.255c0.082,0.12-0.012-0.076,0.261,0.564
				c0.248-0.582,0.213-0.635,0.125-0.971c-0.037-0.141-0.096-0.371-0.127-0.499c-0.091-0.355-0.406-0.522-0.967-0.517
				c-0.417,0.008-0.466-0.001-0.954-0.302c-0.287-0.172-0.494-0.312-0.457-0.312c0.031-0.007,0.485-0.007,1.008,0
				c0.693,0.006,0.995,0.029,1.128,0.093c0.211,0.114,0.65,0.125,0.842,0.028c0.076-0.039,0.201-0.137,0.283-0.206
				c0.137-0.122,0.182-0.128,0.607-0.062c0.248,0.031,0.135,0.031,0.48,0.037C414.951,307.973,414.828,307.903,414.641,307.762
				 M405.481,286.859c0.136-0.088-0.117-0.347,0.161-0.334c0.062,0.003,0.159,0.019,0.29,0.057c0.202,0.037,0.307,0.263,0.179,0.389
				c-0.127,0.135-0.829,0.183-0.963,0.075C404.91,286.409,405.316,286.967,405.481,286.859 M396.569,287.046
				c-0.134,0.108-0.837,0.06-0.965-0.075c-0.128-0.126-0.024-0.353,0.179-0.389c0.131-0.039,0.228-0.054,0.29-0.057
				c0.278-0.013,0.024,0.246,0.159,0.334C396.397,286.967,396.807,286.409,396.569,287.046"/>
		</g>
	</g>
</g>
</svg>
