<?xml version="1.0" encoding="utf-8"?>
<!-- Generator: Adobe Illustrator 16.0.0, SVG Export Plug-In . SVG Version: 6.00 Build 0)  -->
<!DOCTYPE svg PUBLIC "-//W3C//DTD SVG 1.1//EN" "http://www.w3.org/Graphics/SVG/1.1/DTD/svg11.dtd">
<svg version="1.1" id="name" xmlns="http://www.w3.org/2000/svg" xmlns:xlink="http://www.w3.org/1999/xlink" x="0px" y="0px"
	 width="85.712px" height="50px" viewBox="358 276 85.712 50" enable-background="new 358 276 85.712 50" xml:space="preserve">
<g id="ao">
	<g>
		<defs>
			<rect id="SVGID_1_" x="358" y="276" width="85.712" height="50"/>
		</defs>
		<clipPath id="SVGID_2_">
			<use xlink:href="#SVGID_1_"  overflow="visible"/>
		</clipPath>
		<rect x="358" y="276" clip-path="url(#SVGID_2_)" fill="#BD1F34" width="85.712" height="50"/>
		<rect x="358" y="300.998" clip-path="url(#SVGID_2_)" fill="#010101" width="85.712" height="25.002"/>
		<polygon clip-path="url(#SVGID_2_)" fill="#F1D631" points="397.036,300.14 399.682,298.218 402.324,300.14 401.314,297.03 
			403.961,295.107 400.692,295.107 399.682,291.997 398.67,295.107 395.399,295.107 398.045,297.03 		"/>
		<g clip-path="url(#SVGID_2_)">
			<defs>
				<rect id="SVGID_3_" x="358" y="276" width="85.712" height="50"/>
			</defs>
			<clipPath id="SVGID_4_">
				<use xlink:href="#SVGID_3_"  overflow="visible"/>
			</clipPath>
			<path clip-path="url(#SVGID_4_)" fill="#F1D631" d="M413.775,315.48c-0.387-0.628-0.863-1.091-1.488-1.646
				c-0.625-0.553-1.488-1.163-2.125-1.783l-1.217,1.426c-0.051,0.062-0.033,0.199,0.031,0.21c1.363,0.233,1.791,0.719,2.336,1.181
				c0.73,0.74,1.033,1.637,1.508,1.969C413.707,317.449,414.344,316.402,413.775,315.48 M410.578,313.217
				c-0.088,0-0.166-0.076-0.166-0.168s0.078-0.166,0.166-0.166c0.094,0,0.17,0.074,0.17,0.166S410.672,313.217,410.578,313.217
				 M411.814,314.293c-0.094,0-0.164-0.072-0.164-0.168c0-0.09,0.07-0.166,0.164-0.166s0.17,0.076,0.17,0.166
				C411.984,314.221,411.908,314.293,411.814,314.293 M412.904,315.398c-0.096,0-0.168-0.076-0.168-0.168
				c0-0.094,0.072-0.166,0.168-0.166c0.094,0,0.166,0.072,0.166,0.166C413.07,315.322,412.998,315.398,412.904,315.398"/>
			<path clip-path="url(#SVGID_4_)" fill="#F1D631" d="M402.854,310.225c-0.994,0.344-2.062,0.528-3.171,0.528
				c-2.35,0-4.469-0.865-6.152-2.247l-1.424,1.737c0.6,0.491,1.248,0.933,1.936,1.308l-0.488,0.912
				c0.752,0.402,1.541,0.729,2.354,0.977l0.291-0.969c0.742,0.232,1.51,0.392,2.305,0.475l-0.096,0.992
				c0.85,0.083,1.699,0.083,2.547,0l-0.096-0.992c0.794-0.076,1.564-0.23,2.306-0.457l0.289,0.951
				c0.404-0.123,0.801-0.264,1.189-0.424l-0.527-2.047L402.854,310.225z"/>
			<path clip-path="url(#SVGID_4_)" fill="#F1D631" d="M409.432,301.005c0,2.98-1.344,5.651-3.453,7.44l2.74,1.898
				c0.357-0.346,0.695-0.711,1.012-1.098l-0.771-0.633c0.496-0.605,0.936-1.262,1.305-1.957l0.881,0.471
				c0.4-0.75,0.73-1.537,0.977-2.354l-0.953-0.288c0.225-0.743,0.377-1.515,0.453-2.309l0.996,0.096c0.082-0.846,0.082-1.7,0-2.548
				l-0.996,0.098c-0.078-0.794-0.234-1.565-0.459-2.307l0.959-0.289c-0.246-0.817-0.576-1.605-0.977-2.355l-0.893,0.477
				c-0.377-0.69-0.818-1.342-1.318-1.945l0.797-0.653c-0.541-0.656-1.143-1.26-1.805-1.801l-0.66,0.808
				c-0.604-0.491-1.258-0.923-1.953-1.292l0.494-0.932c-0.75-0.399-1.537-0.726-2.354-0.973l-0.307,1.016
				c-0.713-0.215-1.453-0.365-2.218-0.446l-0.232,2.225C405.594,291.868,409.432,295.971,409.432,301.005"/>
			<path clip-path="url(#SVGID_4_)" fill="#F1D631" d="M405.631,309.754c-2.574-1.814-5.236-3.69-7.472-5.797
				c-0.02-0.02-0.02-0.053-0.002-0.072c0.02-0.021,0.055-0.021,0.074-0.003c2.229,2.103,4.888,3.975,7.462,5.786
				c1.27,0.895,2.584,1.819,3.824,2.758l0.395-0.459c-4.287-3.059-14.423-10.102-14.546-12.665c-2.002,3.907,0.533,6.241,2.17,7.171
				c4.158,2.363,6.917,3.924,11.255,6.809l0.66-0.775C408.211,311.57,406.9,310.645,405.631,309.754"/>
		</g>
	</g>
</g>
</svg>
