<?xml version="1.0" encoding="utf-8"?>
<!-- Generator: Adobe Illustrator 16.0.0, SVG Export Plug-In . SVG Version: 6.00 Build 0)  -->
<!DOCTYPE svg PUBLIC "-//W3C//DTD SVG 1.1//EN" "http://www.w3.org/Graphics/SVG/1.1/DTD/svg11.dtd">
<svg version="1.1" id="name" xmlns="http://www.w3.org/2000/svg" xmlns:xlink="http://www.w3.org/1999/xlink" x="0px" y="0px"
	 width="85.718px" height="50px" viewBox="358 276 85.718 50" enable-background="new 358 276 85.718 50" xml:space="preserve">
<g id="aq">
	<g>
		<defs>
			<rect id="SVGID_1_" x="358" y="276" width="85.718" height="50"/>
		</defs>
		<clipPath id="SVGID_2_">
			<use xlink:href="#SVGID_1_"  overflow="visible"/>
		</clipPath>
		<rect x="358" y="276" clip-path="url(#SVGID_2_)" fill="#557ABC" width="85.718" height="50"/>
		<g clip-path="url(#SVGID_2_)">
			<defs>
				<rect id="SVGID_3_" x="358" y="276" width="85.718" height="50"/>
			</defs>
			<clipPath id="SVGID_4_">
				<use xlink:href="#SVGID_3_"  overflow="visible"/>
			</clipPath>
			<path clip-path="url(#SVGID_4_)" fill="#FFFFFF" d="M381.834,300.043c-0.408-0.818-0.408-0.818-0.408-1.635
				c-0.205,0-0.244,0.038-0.359,0.007c-0.117-0.032-0.162,0.753-0.549,0.6c-0.061-0.077,0.277-0.644-0.09-0.881
				c-0.121-0.078,0.029-0.541-0.023-0.749c0,0-0.467,0.245-0.816-0.611c-0.174-0.226-0.41,0.205-0.41,0.205s0.104,0.261-0.082,0.324
				c-0.262-0.19-0.451-0.091-0.785-0.355c-0.332-0.263,0.072-0.564-0.562-0.787c0.41-1.021,0.41-0.817,1.43-1.226
				c-0.613-0.407-0.613-0.407-1.02-1.02c-0.613-0.205-0.816-0.411-1.43-0.82c-0.82-1.02-1.227-3.064-1.227-4.495
				c0.516-0.479,1.227,1.635,2.246,2.249l1.43,0.615c0.814,0.406,1.023,0.815,1.635,1.222l1.838,0.615
				c0.818,0.614,1.227,1.429,1.838,1.634c0.668,0,0.793-0.381,1.008-0.407c1.199-0.061,1.812-0.217,2.053-0.577
				c0.24-0.287,0.822,0.165,2.457-0.447l-0.203-0.818c0,0,0.434-0.355,1.018-0.205c-0.012-0.371-0.051-1.367,0.529-1.817
				c-0.352-0.368-0.117-0.633-0.117-0.633s0.322-0.312,0.365-0.479c-0.172-0.899,0.148-0.914,0.221-1.179
				c0.072-0.263-0.279-0.173-0.18-0.538c0.1-0.365,0.689-0.452,0.768-0.753c0.08-0.301-0.168-0.452-0.154-0.524
				c0.131-0.287,0.021-0.964,0-1.226c1.1-0.292,1.457-1.186,1.84-0.815c0.203-1.228,0.41-1.635,1.637-1.635
				c0.172-0.375-0.449-0.696-0.207-0.818c0.41-0.051,0.723-0.025,1.201,0.595c0.152,0.196,0.18-0.287,0.33-0.338
				c0.156-0.053,0.521-0.053,0.576-0.294c0.059-0.25,0.141-0.574,0.346-0.983c0.172-0.333,0.307,0.126,0.457,0.778
				c0.865,0.033,2.81,0.223,3.628,0.446c0.615,0.161,1.018-0.159,1.609-0.223c0.434,0.435,0.844,0.111,1.07,1.034
				c0.324,0.499,0.857,0.045,0.973,0.192c0.682,1.884,3.031,0.614,3.209,0.646c0.303,0,0.672,0.842,0.904,0.818
				c0.381-0.064,0.275-0.326,0.607-0.219c-0.088,0.707,0.66,1.527,0.66,2.053c0,0,0.182,0.092,0.352-0.065
				c0.168-0.158,0.324-0.562,0.473-0.551c0.357,0.05,0.502,0.097,0.914,0.167c1.107,0.379,1.67,0.463,2.102,0.659
				c0.199,0.367,0.393,0.553,0.799,0.486c0.336,0.225,0.092,0.52,0.291,0.54c0.406-0.206,0.539-0.429,0.951-0.225
				c0.406,0.205,0.814,0.612,1.02,1.02c0,0.206-0.205,1.021,0,2.249c0.104,0.408,0.15,0.732,0.592,1.434
				c-0.117,0.719,0.551,1.931,0.551,2.239c0,0.406-0.324,0.618-0.529,1.027c0.816,0.612,0,1.632-0.406,2.246
				c3.061,0.614,1.631,1.84,4.086,1.226c-0.613,1.429-0.398,1.314,0.217,2.745c-1.229,0.817-0.025,1.066-0.844,2.088
				c-0.053,0.063,0.484,0.889,1.238,0.889c-0.205,1.633-0.818,1.021-0.611,3.471c-1.611-0.029-0.961,1.836-2.043,1.637
				c0.061,1.168,0.617,1.269,0.406,2.451c-0.818,0.202-0.818,0.202-1.227,0.816l-0.611-0.202c-0.205,1.021-0.611,1.224,0,2.246
				c0,0-0.789,0.025-1.023,0c-0.02,0.349,0.354,0.446,0.412,0.818c-0.033,0.146-1.164,0.79-2.043,0.816
				c-0.232,0.503,0.611,1.038,0.561,1.296c-0.957,0.185-1.381,1.359-1.381,1.359s0.492,0.197,0.408,0.409
				c-0.26-0.193-0.408-0.206-0.814-0.206c-0.205,0.053-0.705-0.013-1.182,0.794c-0.523,0.171-0.77,0.109-1.168,0.637
				c-0.176-0.5-0.43,0.003-0.736,0.2c-0.312,0.193-0.73,0.675-0.783,0.653c0.014-0.136,0.189-0.651,0.189-0.651l-1.02,0.207
				c0,0-0.045,0.006-0.127,0.013c-0.08,0.009-0.061-0.599-0.254-0.574c-0.189,0.021-0.748,0.759-0.936,0.782
				c-0.188,0.025-0.25-0.235-0.41-0.214c-0.162,0.024-0.48,0.778-0.592,0.8c-0.119,0.021-0.574-0.459-0.967-0.394
				c-2.008,0.712-2.326-1.397-2.641-0.209c-0.422-0.226-0.348-0.094-0.777,0.017c-0.27,0.073-0.297-0.357-0.539-0.354
				c-0.486,0.015-0.461,0.475-0.727,0.338c-0.217-0.958-1.527-0.785-1.654-1.196c-0.104-0.423,0.568-0.423,0.787-0.71
				c0.162-0.416-0.174-0.573,0.498-0.976c0.879-0.596,0.371-0.82,0.527-1.266c0.275-0.646,0.275-0.801,0.049-1.368
				c0,0-0.686-1.84-0.822-1.84c-0.406-0.115-0.406,0.677-1.007,0.896c-1.225,0.407-3.387-1.037-3.766-1.037
				c-0.346,0.007-1.939,0.382-1.883-0.416c-0.236,0.773-1.113,0.182-1.17,0.182c-0.816,0-0.502,0.632-1.049,0.605
				c-0.252-0.082-2.768-0.229-2.768-0.229v0.409l-1.635-0.816l-1.428-0.41c-1.227-0.408-0.615-1.429-2.658-0.818v-1.225h-1.02
				c0.406-2.449,0-1.225-0.205-3.475l-0.816,0.205c-0.818-1.103,1.135-0.894-0.613-1.634c0,0,0.029-1.219-0.41-0.816
				c-0.09,0.05,0.205,0.612,0.205,0.612c-1.637-0.203-2.041-0.612-2.041-2.246c0,0,1.348,0.19,1.223,0
				c-0.189-0.307-0.438-2.301-0.396-2.432c-0.018-0.27,1.254-0.947,1.006-1.59C381.375,300.047,381.834,300.043,381.834,300.043
				L381.834,300.043z"/>
			<g clip-path="url(#SVGID_4_)">
				<path fill="#FFFFFF" d="M423.395,306.457c-0.033,0-0.064-0.018-0.082-0.045c-0.088-0.129-0.094-0.301-0.025-0.459
					c0.02-0.041,0.061-0.071,0.104-0.062c0.041,0.005,0.078,0.034,0.09,0.077c0.062,0.154,0.113,0.273,0,0.443
					C423.463,306.439,423.43,306.457,423.395,306.457L423.395,306.457z"/>
			</g>
			<g clip-path="url(#SVGID_4_)">
				<path fill="#FFFFFF" d="M375.165,291.295c-0.004,0-0.008-0.001-0.012-0.001c-0.051-0.004-0.098-0.041-0.111-0.094
					c-0.037-0.139,0.002-0.229,0.039-0.278c0.059-0.077,0.162-0.12,0.287-0.12c0.043,0.006,0.107,0.034,0.127,0.073
					c0.018,0.04,0.043,0.086,0.02,0.124c-0.105,0.071-0.174,0.098-0.234,0.224C375.258,291.267,375.215,291.295,375.165,291.295
					L375.165,291.295z"/>
			</g>
			<g clip-path="url(#SVGID_4_)">
				<path fill="#FFFFFF" d="M375.165,290.67c-0.004,0-0.008-0.001-0.012-0.001c-0.053-0.004-0.098-0.042-0.111-0.094
					c-0.033-0.126-0.023-0.225,0.031-0.297c0.082-0.109,0.225-0.111,0.34-0.112h0.002c0.041,0,0.107,0.017,0.131,0.05
					c0.025,0.031,0.062,0.072,0.051,0.112c-0.01,0.04-0.068,0.082-0.105,0.096c-0.051,0.019-0.154,0.056-0.211,0.172
					C375.258,290.642,375.215,290.67,375.165,290.67L375.165,290.67z"/>
			</g>
			<g clip-path="url(#SVGID_4_)">
				<path fill="#FFFFFF" d="M376.852,294.334c-0.049,0-0.094-0.028-0.115-0.072c-0.068-0.141-0.125-0.181-0.146-0.196
					c-0.023-0.038-0.047-0.109-0.025-0.149c0.02-0.039,0.033-0.09,0.078-0.092c0.09,0.001,0.207,0.011,0.289,0.116
					c0.039,0.053,0.082,0.148,0.043,0.297c-0.014,0.053-0.057,0.089-0.111,0.095C376.862,294.333,376.856,294.334,376.852,294.334
					L376.852,294.334z"/>
			</g>
		</g>
	</g>
</g>
</svg>
