<?xml version="1.0" encoding="utf-8"?>
<!-- Generator: Adobe Illustrator 16.0.0, SVG Export Plug-In . SVG Version: 6.00 Build 0)  -->
<!DOCTYPE svg PUBLIC "-//W3C//DTD SVG 1.1//EN" "http://www.w3.org/Graphics/SVG/1.1/DTD/svg11.dtd">
<svg version="1.1" id="name" xmlns="http://www.w3.org/2000/svg" xmlns:xlink="http://www.w3.org/1999/xlink" x="0px" y="0px"
	 width="85.711px" height="50px" viewBox="358 276 85.711 50" enable-background="new 358 276 85.711 50" xml:space="preserve">
<g id="ar-v">
	<g>
		<defs>
			<rect id="SVGID_1_" x="358" y="276" width="85.711" height="50"/>
		</defs>
		<clipPath id="SVGID_2_">
			<use xlink:href="#SVGID_1_"  overflow="visible"/>
		</clipPath>
		<rect x="363.99" y="276" clip-path="url(#SVGID_2_)" fill="#FFFFFF" width="73.732" height="50"/>
		<polygon clip-path="url(#SVGID_2_)" fill="#EE943D" points="358,326 443.711,326 433.531,316.227 404.725,304.95 383.334,304.974 
			393.43,299.313 374.732,282.972 358,276 		"/>
		<polygon clip-path="url(#SVGID_2_)" fill="#517CBF" points="375.123,276 396.201,298.183 408.119,296.672 406.125,303.371 
			437.375,311.107 443.711,326 443.711,276 		"/>
		<polygon clip-path="url(#SVGID_2_)" fill="#FFFFFF" points="418.357,281.702 420.061,280.711 419.662,278.759 421.113,280.1 
			422.814,279.111 422.012,280.93 423.461,282.271 421.512,282.055 420.705,283.87 420.309,281.918 		"/>
		<polygon clip-path="url(#SVGID_2_)" fill="#FFFFFF" points="415.285,293.01 416.986,292.021 416.586,290.066 418.039,291.407 
			419.74,290.419 418.936,292.236 420.389,293.578 418.439,293.362 417.633,295.18 417.236,293.229 		"/>
		<polygon clip-path="url(#SVGID_2_)" fill="#FFFFFF" points="430.863,306.896 432.566,305.908 432.168,303.956 433.619,305.297 
			435.322,304.306 434.516,306.124 435.969,307.468 434.02,307.249 433.213,309.067 432.814,307.115 		"/>
		<polygon clip-path="url(#SVGID_2_)" fill="#FFFFFF" points="430.41,283.239 432.113,282.25 431.713,280.296 433.166,281.64 
			434.869,280.648 434.062,282.466 435.516,283.808 433.564,283.592 432.76,285.409 432.359,283.455 		"/>
		<polygon clip-path="url(#SVGID_2_)" fill="#FFFFFF" points="430.709,291.063 431.604,290.544 431.393,289.518 432.156,290.223 
			433.051,289.702 432.627,290.657 433.391,291.361 432.365,291.248 431.941,292.202 431.734,291.177 		"/>
	</g>
</g>
</svg>
