<?xml version="1.0" encoding="utf-8"?>
<!-- Generator: Adobe Illustrator 16.0.0, SVG Export Plug-In . SVG Version: 6.00 Build 0)  -->
<!DOCTYPE svg PUBLIC "-//W3C//DTD SVG 1.1//EN" "http://www.w3.org/Graphics/SVG/1.1/DTD/svg11.dtd">
<svg version="1.1" id="name" xmlns="http://www.w3.org/2000/svg" xmlns:xlink="http://www.w3.org/1999/xlink" x="0px" y="0px"
	 width="85.716px" height="50px" viewBox="358 276 85.716 50" enable-background="new 358 276 85.716 50" xml:space="preserve">
<g id="ar">
	<g>
		<defs>
			<rect id="SVGID_1_" x="358" y="276" width="85.716" height="50"/>
		</defs>
		<clipPath id="SVGID_2_">
			<use xlink:href="#SVGID_1_"  overflow="visible"/>
		</clipPath>
		<rect x="358" y="292.666" clip-path="url(#SVGID_2_)" fill="#FFFFFF" width="85.716" height="16.666"/>
		<rect x="358" y="276" clip-path="url(#SVGID_2_)" fill="#7FA6D8" width="85.716" height="16.666"/>
		<rect x="358" y="309.332" clip-path="url(#SVGID_2_)" fill="#7FA6D8" width="85.716" height="16.668"/>
		<g clip-path="url(#SVGID_2_)">
			<defs>
				<rect id="SVGID_3_" x="358" y="276" width="85.716" height="50"/>
			</defs>
			<clipPath id="SVGID_4_">
				<use xlink:href="#SVGID_3_"  overflow="visible"/>
			</clipPath>
			<path clip-path="url(#SVGID_4_)" fill="#F1BD51" d="M400.518,300.998l0.258,6.817c0,0,0,0.128,0.086,0.128
				c0.082,0,0.082-0.128,0.082-0.128l0.257-6.817H400.518z"/>
			<g clip-path="url(#SVGID_4_)">
				<path fill="#7B371D" d="M400.862,307.965c-0.086,0-0.107-0.098-0.107-0.149l-0.26-6.816l0.043-0.003l0.258,6.819
					c0,0.001,0,0.106,0.066,0.106c0.059,0,0.062-0.105,0.062-0.106l0.257-6.819l-0.218,6.82
					C400.963,307.867,400.944,307.965,400.862,307.965L400.862,307.965z"/>
			</g>
			<polygon clip-path="url(#SVGID_4_)" fill="#7B371D" points="400.688,300.998 400.862,305.679 401.029,300.998 			"/>
			<path clip-path="url(#SVGID_4_)" fill="#F1BD51" d="M400.217,303.201c-0.395,0.857-0.061,1.56-0.449,2.309
				c-0.393,0.747-0.148,1.365-0.174,1.706c-0.025,0.347-0.307,0.44-0.234,0.522c0.068,0.077,0.365-0.079,0.479-0.537
				c0.113-0.455-0.158-0.719,0.309-1.637c0.473-0.918,0.098-1.332,0.57-2.152L400.217,303.201z"/>
			<g clip-path="url(#SVGID_4_)">
				<path fill="#7B371D" d="M399.434,307.775l-0.09-0.022c-0.043-0.048,0-0.099,0.051-0.156c0.064-0.074,0.164-0.188,0.178-0.382
					c0.006-0.092-0.004-0.202-0.02-0.33c-0.039-0.353-0.094-0.834,0.197-1.385c0.193-0.371,0.205-0.728,0.221-1.104
					c0.014-0.38,0.029-0.771,0.227-1.203l0.039,0.017c-0.195,0.426-0.211,0.812-0.225,1.188c-0.014,0.382-0.027,0.743-0.225,1.12
					c-0.283,0.542-0.23,1.016-0.193,1.363c0.016,0.131,0.027,0.244,0.021,0.336c-0.016,0.209-0.121,0.328-0.189,0.408
					c-0.051,0.059-0.068,0.081-0.051,0.1c0.166-0.019,0.355-0.184,0.443-0.527c0.035-0.152,0.031-0.284,0.025-0.425
					c-0.014-0.284-0.025-0.604,0.285-1.216c0.232-0.455,0.258-0.784,0.279-1.103c0.027-0.328,0.049-0.638,0.291-1.054
					c-0.199,0.429-0.223,0.734-0.248,1.057c-0.021,0.322-0.047,0.656-0.285,1.118c-0.307,0.601-0.293,0.917-0.281,1.196
					c0.006,0.143,0.012,0.277-0.027,0.436c-0.084,0.34-0.273,0.531-0.412,0.565L399.434,307.775L399.434,307.775z"/>
			</g>
			<path clip-path="url(#SVGID_4_)" fill="#7B371D" d="M400.323,303.418c-0.301,0.855,0.018,1.422-0.391,2.145
				c0.451-0.518,0.154-1.187,0.549-2.067L400.323,303.418z"/>
			<path clip-path="url(#SVGID_4_)" fill="#F1BD51" d="M401.201,300.998l-0.257-6.816c0,0,0-0.126-0.082-0.126
				c-0.086,0-0.086,0.126-0.086,0.126l-0.258,6.816H401.201z"/>
			<g clip-path="url(#SVGID_4_)">
				<path fill="#7B371D" d="M401.182,301l-0.257-6.816c0-0.003-0.004-0.107-0.062-0.107c-0.066,0-0.066,0.104-0.066,0.105
					L400.538,301l0.217-6.819c0-0.05,0.021-0.146,0.107-0.146c0.082,0,0.102,0.097,0.102,0.148l0.261,6.814L401.182,301L401.182,301
					z"/>
			</g>
			<polygon clip-path="url(#SVGID_4_)" fill="#7B371D" points="401.029,300.998 400.862,296.32 400.688,300.998 			"/>
			<path clip-path="url(#SVGID_4_)" fill="#F1BD51" d="M401.506,298.796c0.389-0.855,0.055-1.558,0.443-2.307
				c0.393-0.747,0.148-1.364,0.176-1.709c0.023-0.344,0.307-0.44,0.232-0.518c-0.068-0.081-0.363,0.078-0.477,0.534
				c-0.113,0.456,0.158,0.72-0.311,1.638c-0.471,0.919-0.096,1.333-0.566,2.152L401.506,298.796z"/>
			<g clip-path="url(#SVGID_4_)">
				<path fill="#7B371D" d="M401.523,298.805l-0.037-0.017c0.193-0.422,0.207-0.81,0.221-1.184c0.012-0.383,0.025-0.746,0.223-1.124
					c0.283-0.54,0.232-1.013,0.193-1.359c-0.016-0.132-0.025-0.249-0.021-0.342c0.018-0.208,0.123-0.329,0.191-0.408
					c0.055-0.06,0.064-0.078,0.051-0.095c-0.168,0.014-0.355,0.177-0.443,0.525c-0.037,0.152-0.031,0.284-0.025,0.425
					c0.012,0.284,0.025,0.605-0.287,1.216c-0.232,0.455-0.258,0.784-0.281,1.103c-0.025,0.327-0.049,0.636-0.287,1.051
					c0.199-0.428,0.223-0.733,0.244-1.056c0.025-0.322,0.053-0.655,0.287-1.116c0.307-0.601,0.293-0.918,0.281-1.196
					c-0.006-0.144-0.012-0.278,0.029-0.436c0.09-0.367,0.295-0.54,0.412-0.567l0.012-0.003l0.09,0.027
					c0.043,0.045,0,0.094-0.051,0.151c-0.066,0.075-0.164,0.189-0.18,0.382c-0.008,0.093,0.006,0.206,0.02,0.335
					c0.037,0.351,0.092,0.833-0.197,1.382c-0.191,0.371-0.205,0.729-0.219,1.106C401.732,297.983,401.719,298.375,401.523,298.805
					L401.523,298.805z"/>
			</g>
			<path clip-path="url(#SVGID_4_)" fill="#7B371D" d="M401.395,298.579c0.307-0.854-0.016-1.422,0.393-2.145
				c-0.455,0.52-0.154,1.189-0.551,2.068L401.395,298.579z"/>
			<path clip-path="url(#SVGID_4_)" fill="#F1BD51" d="M400.862,300.657l-6.818,0.256c0,0-0.129,0-0.129,0.085
				c0,0.086,0.129,0.086,0.129,0.086l6.818,0.258V300.657z"/>
			<g clip-path="url(#SVGID_4_)">
				<path fill="#7B371D" d="M400.862,301.32l-6.818-0.215c-0.051,0-0.148-0.022-0.148-0.107c0-0.084,0.098-0.105,0.148-0.105
					l6.818-0.257v0.042l-6.816,0.256c-0.002,0-0.109,0.001-0.109,0.064c0,0.064,0.107,0.064,0.107,0.064L400.862,301.32
					L400.862,301.32z"/>
			</g>
			<polygon clip-path="url(#SVGID_4_)" fill="#7B371D" points="400.862,300.829 396.178,300.998 400.862,301.17 			"/>
			<path clip-path="url(#SVGID_4_)" fill="#F1BD51" d="M398.657,300.354c-0.859-0.394-1.559-0.056-2.305-0.448
				c-0.752-0.391-1.367-0.146-1.713-0.172c-0.342-0.028-0.438-0.308-0.518-0.237c-0.078,0.071,0.08,0.365,0.535,0.48
				c0.457,0.112,0.721-0.158,1.635,0.312c0.922,0.47,1.334,0.097,2.154,0.567L398.657,300.354z"/>
			<g clip-path="url(#SVGID_4_)">
				<path fill="#7B371D" d="M398.456,300.839c-0.428-0.198-0.732-0.22-1.055-0.245c-0.322-0.024-0.656-0.049-1.117-0.285
					c-0.604-0.31-0.92-0.296-1.195-0.284c-0.145,0.007-0.279,0.011-0.438-0.027c-0.34-0.085-0.529-0.274-0.564-0.412l-0.002-0.012
					l0.023-0.092c0.049-0.045,0.098,0.001,0.152,0.051c0.076,0.065,0.189,0.165,0.381,0.181c0.088,0.008,0.205-0.006,0.332-0.02
					c0.35-0.039,0.834-0.094,1.389,0.194c0.369,0.195,0.727,0.208,1.104,0.22c0.379,0.015,0.768,0.029,1.201,0.226l-0.02,0.039
					c-0.424-0.195-0.809-0.209-1.184-0.222c-0.381-0.014-0.742-0.027-1.121-0.226c-0.543-0.281-1.02-0.229-1.363-0.19
					c-0.133,0.016-0.244,0.026-0.342,0.021c-0.205-0.017-0.326-0.122-0.404-0.192c-0.057-0.05-0.08-0.068-0.098-0.051
					c0.018,0.168,0.182,0.357,0.525,0.443c0.152,0.039,0.283,0.033,0.424,0.027c0.285-0.013,0.605-0.027,1.219,0.289
					c0.451,0.231,0.783,0.256,1.1,0.28C397.731,300.576,398.042,300.6,398.456,300.839L398.456,300.839z"/>
			</g>
			<path clip-path="url(#SVGID_4_)" fill="#7B371D" d="M398.438,300.464c-0.855-0.306-1.418,0.014-2.143-0.392
				c0.518,0.453,1.189,0.153,2.068,0.55L398.438,300.464z"/>
			<path clip-path="url(#SVGID_4_)" fill="#F1BD51" d="M400.862,301.342l6.816-0.258c0,0,0.125,0,0.125-0.086
				c0-0.085-0.125-0.085-0.125-0.085l-6.816-0.256V301.342z"/>
			<g clip-path="url(#SVGID_4_)">
				<path fill="#7B371D" d="M400.862,301.363v-0.043l6.812-0.258c0.004,0,0.107,0,0.107-0.064c0-0.062-0.104-0.064-0.104-0.064
					l-6.816-0.256l6.816,0.214c0.051,0,0.146,0.021,0.146,0.105c0,0.085-0.096,0.107-0.146,0.107L400.862,301.363L400.862,301.363z"
					/>
			</g>
			<polygon clip-path="url(#SVGID_4_)" fill="#7B371D" points="400.862,301.17 405.541,300.998 400.862,300.829 			"/>
			<path clip-path="url(#SVGID_4_)" fill="#F1BD51" d="M403.062,301.643c0.857,0.393,1.557,0.056,2.307,0.449
				c0.748,0.394,1.365,0.146,1.711,0.175c0.342,0.025,0.438,0.306,0.514,0.234c0.084-0.071-0.076-0.365-0.533-0.48
				c-0.451-0.114-0.719,0.161-1.635-0.31c-0.92-0.471-1.334-0.097-2.152-0.569L403.062,301.643z"/>
			<g clip-path="url(#SVGID_4_)">
				<path fill="#7B371D" d="M407.568,302.533c-0.033,0-0.07-0.031-0.109-0.068c-0.078-0.064-0.191-0.164-0.381-0.179
					c-0.092-0.007-0.205,0.006-0.336,0.021c-0.352,0.038-0.832,0.092-1.381-0.196c-0.373-0.194-0.73-0.209-1.107-0.222
					c-0.379-0.014-0.768-0.029-1.199-0.228l0.018-0.038c0.422,0.194,0.809,0.209,1.182,0.223c0.383,0.015,0.746,0.029,1.127,0.228
					c0.537,0.281,1.01,0.229,1.355,0.192c0.133-0.016,0.248-0.027,0.344-0.021c0.205,0.016,0.326,0.119,0.406,0.188
					c0.062,0.056,0.08,0.062,0.094,0.052c-0.014-0.168-0.176-0.355-0.523-0.443c-0.15-0.038-0.281-0.031-0.426-0.026
					c-0.283,0.016-0.605,0.027-1.215-0.286c-0.453-0.231-0.781-0.257-1.1-0.281c-0.328-0.024-0.637-0.048-1.055-0.288
					c0.43,0.199,0.736,0.221,1.057,0.246s0.656,0.051,1.117,0.286c0.6,0.309,0.914,0.293,1.195,0.281
					c0.145-0.007,0.279-0.015,0.436,0.027c0.363,0.093,0.537,0.297,0.564,0.411l0.004,0.014l-0.025,0.091
					C407.598,302.527,407.584,302.533,407.568,302.533L407.568,302.533z"/>
			</g>
			<path clip-path="url(#SVGID_4_)" fill="#7B371D" d="M403.279,301.533c0.855,0.307,1.42-0.013,2.146,0.394
				c-0.521-0.453-1.193-0.155-2.07-0.55L403.279,301.533z"/>
			<path clip-path="url(#SVGID_4_)" fill="#F1BD51" d="M400.618,300.758l-4.639,5c0,0-0.09,0.093-0.031,0.15
				c0.062,0.062,0.152-0.031,0.152-0.031l5.001-4.635L400.618,300.758z"/>
			<g clip-path="url(#SVGID_4_)">
				<path fill="#7B371D" d="M395.999,305.951c-0.125-0.085-0.072-0.172-0.035-0.207l4.639-5l0.029,0.028l-4.637,5
					c-0.002,0.001-0.074,0.078-0.031,0.12c0.047,0.051,0.123-0.027,0.123-0.027l5.001-4.639l-4.974,4.668
					C396.114,305.896,396.059,305.95,395.999,305.951L395.999,305.951z"/>
			</g>
			<polygon clip-path="url(#SVGID_4_)" fill="#7B371D" points="400.737,300.878 397.549,304.307 400.981,301.12 			"/>
			<path clip-path="url(#SVGID_4_)" fill="#F1BD51" d="M398.846,302.102c-0.883,0.328-1.141,1.062-1.945,1.314
				c-0.809,0.254-1.074,0.86-1.334,1.086c-0.26,0.224-0.529,0.094-0.533,0.199c-0.004,0.106,0.311,0.203,0.719-0.039
				c0.402-0.239,0.395-0.621,1.377-0.938s1.01-0.873,1.924-1.117L398.846,302.102z"/>
			<g clip-path="url(#SVGID_4_)">
				<path fill="#7B371D" d="M395.268,304.835c-0.082,0-0.148-0.017-0.195-0.044l-0.061-0.09c0.002-0.064,0.068-0.066,0.143-0.072
					c0.102-0.008,0.252-0.018,0.396-0.144c0.07-0.058,0.139-0.146,0.219-0.244c0.223-0.277,0.525-0.657,1.123-0.845
					c0.4-0.125,0.664-0.369,0.939-0.627c0.277-0.258,0.562-0.523,1.006-0.688l0.016,0.039c-0.436,0.162-0.719,0.426-0.992,0.68
					c-0.281,0.262-0.547,0.507-0.955,0.635c-0.586,0.185-0.887,0.559-1.104,0.831c-0.082,0.103-0.152,0.19-0.223,0.251
					c-0.158,0.135-0.316,0.146-0.422,0.152c-0.076,0.006-0.104,0.01-0.105,0.033c0.135,0.107,0.383,0.121,0.688-0.059
					c0.135-0.081,0.225-0.18,0.32-0.283c0.191-0.209,0.408-0.447,1.064-0.657c0.482-0.155,0.732-0.37,0.973-0.577
					c0.25-0.215,0.486-0.416,0.949-0.541c-0.443,0.164-0.676,0.361-0.92,0.572c-0.246,0.211-0.498,0.428-0.992,0.586
					c-0.641,0.207-0.855,0.439-1.043,0.646c-0.098,0.105-0.189,0.205-0.328,0.289C395.577,304.791,395.403,304.835,395.268,304.835
					L395.268,304.835z"/>
			</g>
			<path clip-path="url(#SVGID_4_)" fill="#7B371D" d="M398.77,302.332c-0.82,0.388-0.994,1.016-1.795,1.238
				c0.689-0.047,0.951-0.731,1.854-1.072L398.77,302.332z"/>
			<path clip-path="url(#SVGID_4_)" fill="#F1BD51" d="M401.102,301.242l4.637-5.002c0,0,0.09-0.089,0.031-0.15
				c-0.062-0.061-0.15,0.028-0.15,0.028l-5.001,4.64L401.102,301.242z"/>
			<g clip-path="url(#SVGID_4_)">
				<path fill="#7B371D" d="M401.117,301.256l-0.029-0.026l4.635-5.003c0.002-0.001,0.076-0.077,0.033-0.122
					c-0.049-0.045-0.121,0.027-0.121,0.028l-5.003,4.641l4.974-4.671c0.035-0.036,0.117-0.089,0.18-0.028
					c0.057,0.061,0.002,0.145-0.031,0.18L401.117,301.256L401.117,301.256z"/>
			</g>
			<polygon clip-path="url(#SVGID_4_)" fill="#7B371D" points="400.981,301.12 404.168,297.689 400.737,300.878 			"/>
			<path clip-path="url(#SVGID_4_)" fill="#F1BD51" d="M402.873,299.897c0.883-0.328,1.139-1.062,1.945-1.314
				s1.072-0.864,1.336-1.087c0.258-0.223,0.525-0.092,0.531-0.2c0.006-0.105-0.312-0.202-0.719,0.041
				c-0.404,0.242-0.395,0.621-1.379,0.938c-0.98,0.315-1.008,0.873-1.924,1.12L402.873,299.897z"/>
			<g clip-path="url(#SVGID_4_)">
				<path fill="#7B371D" d="M402.881,299.917l-0.014-0.04c0.434-0.162,0.715-0.425,0.988-0.678c0.283-0.261,0.549-0.508,0.957-0.636
					c0.582-0.182,0.881-0.555,1.1-0.828c0.082-0.104,0.156-0.193,0.229-0.256c0.156-0.133,0.314-0.144,0.42-0.15
					c0.076-0.006,0.105-0.009,0.105-0.034c-0.135-0.105-0.385-0.122-0.688,0.06c-0.135,0.081-0.225,0.179-0.318,0.283
					c-0.193,0.209-0.41,0.446-1.066,0.658c-0.482,0.156-0.736,0.371-0.977,0.578c-0.248,0.215-0.482,0.417-0.947,0.542
					c0.443-0.162,0.674-0.362,0.922-0.573c0.244-0.211,0.496-0.427,0.99-0.586c0.643-0.208,0.859-0.442,1.047-0.648
					c0.096-0.105,0.188-0.205,0.326-0.289c0.301-0.18,0.568-0.183,0.693-0.11l0.059,0.089c-0.004,0.064-0.07,0.068-0.146,0.074
					c-0.098,0.006-0.248,0.016-0.393,0.141c-0.07,0.06-0.143,0.148-0.225,0.25c-0.221,0.277-0.525,0.655-1.119,0.841
					c-0.398,0.125-0.662,0.37-0.938,0.627C403.607,299.486,403.324,299.752,402.881,299.917L402.881,299.917z"/>
			</g>
			<path clip-path="url(#SVGID_4_)" fill="#7B371D" d="M402.949,299.667c0.818-0.388,0.994-1.016,1.793-1.237
				c-0.688,0.045-0.949,0.729-1.854,1.069L402.949,299.667z"/>
			<path clip-path="url(#SVGID_4_)" fill="#F1BD51" d="M401.102,300.758l-5.001-4.64c0,0-0.09-0.089-0.152-0.028
				c-0.059,0.061,0.031,0.15,0.031,0.15l4.639,5.002L401.102,300.758z"/>
			<g clip-path="url(#SVGID_4_)">
				<path fill="#7B371D" d="M400.631,301.229l-4.668-4.975c-0.037-0.035-0.09-0.119-0.029-0.179
					c0.062-0.061,0.145-0.009,0.182,0.027l5.001,4.64l-0.029,0.031l-5.001-4.64c-0.002-0.003-0.076-0.075-0.123-0.03
					c-0.043,0.045,0.029,0.121,0.031,0.121L400.631,301.229L400.631,301.229z"/>
			</g>
			<polygon clip-path="url(#SVGID_4_)" fill="#7B371D" points="400.981,300.878 397.549,297.689 400.737,301.12 			"/>
			<path clip-path="url(#SVGID_4_)" fill="#F1BD51" d="M399.758,298.988c-0.33-0.886-1.064-1.144-1.316-1.951
				c-0.252-0.807-0.859-1.066-1.084-1.331c-0.223-0.261-0.094-0.527-0.201-0.534c-0.105-0.007-0.203,0.315,0.037,0.718
				c0.244,0.405,0.623,0.395,0.938,1.378c0.316,0.981,0.875,1.011,1.119,1.925L399.758,298.988z"/>
			<g clip-path="url(#SVGID_4_)">
				<path fill="#7B371D" d="M399.272,299.187c-0.162-0.443-0.361-0.676-0.574-0.922c-0.209-0.246-0.428-0.499-0.586-0.99
					c-0.207-0.645-0.439-0.858-0.646-1.045c-0.105-0.097-0.205-0.189-0.289-0.328c-0.191-0.323-0.17-0.589-0.107-0.692l0.09-0.058
					c0.062,0.004,0.066,0.069,0.072,0.145c0.008,0.099,0.018,0.25,0.143,0.396c0.061,0.071,0.148,0.142,0.252,0.223
					c0.275,0.22,0.65,0.523,0.838,1.117c0.125,0.399,0.367,0.661,0.625,0.938c0.258,0.278,0.523,0.564,0.689,1.01l-0.039,0.016
					c-0.164-0.439-0.426-0.722-0.682-0.996c-0.26-0.281-0.508-0.547-0.635-0.956c-0.182-0.581-0.553-0.878-0.826-1.095
					c-0.102-0.083-0.193-0.155-0.254-0.228c-0.135-0.158-0.145-0.316-0.152-0.422c-0.006-0.075-0.01-0.104-0.033-0.105
					c-0.109,0.131-0.127,0.379,0.057,0.686c0.08,0.134,0.178,0.223,0.281,0.318c0.209,0.192,0.447,0.409,0.658,1.064
					c0.154,0.483,0.369,0.733,0.578,0.976C398.946,298.486,399.147,298.722,399.272,299.187L399.272,299.187z"/>
			</g>
			<path clip-path="url(#SVGID_4_)" fill="#7B371D" d="M399.528,298.91c-0.389-0.821-1.018-0.995-1.242-1.794
				c0.047,0.687,0.736,0.951,1.076,1.853L399.528,298.91z"/>
			<path clip-path="url(#SVGID_4_)" fill="#F1BD51" d="M400.618,301.242l5.001,4.635c0,0,0.088,0.093,0.15,0.031
				c0.059-0.058-0.031-0.15-0.031-0.15l-4.637-5L400.618,301.242z"/>
			<g clip-path="url(#SVGID_4_)">
				<path fill="#7B371D" d="M405.719,305.93c-0.078,0-0.113-0.035-0.115-0.037l-5.001-4.635l0.029-0.031l5.003,4.637
					c0,0.002,0.072,0.08,0.121,0.029c0.043-0.042-0.031-0.119-0.033-0.12l-4.635-5l4.666,4.972c0.039,0.039,0.088,0.122,0.031,0.179
					C405.762,305.929,405.738,305.93,405.719,305.93L405.719,305.93z"/>
			</g>
			<polygon clip-path="url(#SVGID_4_)" fill="#7B371D" points="400.737,301.12 404.168,304.307 400.981,300.878 			"/>
			<path clip-path="url(#SVGID_4_)" fill="#F1BD51" d="M401.961,303.014c0.328,0.883,1.062,1.138,1.314,1.947
				c0.25,0.807,0.861,1.07,1.086,1.328c0.225,0.265,0.09,0.529,0.199,0.535c0.107,0.006,0.205-0.311-0.037-0.715
				c-0.242-0.405-0.619-0.398-0.938-1.379c-0.316-0.982-0.875-1.011-1.119-1.924L401.961,303.014z"/>
			<g clip-path="url(#SVGID_4_)">
				<path fill="#7B371D" d="M404.561,306.845c-0.066-0.003-0.068-0.067-0.074-0.144c-0.006-0.1-0.014-0.25-0.143-0.397
					c-0.059-0.068-0.145-0.138-0.244-0.218c-0.277-0.22-0.658-0.522-0.844-1.119c-0.125-0.402-0.369-0.664-0.627-0.943
					c-0.26-0.275-0.523-0.561-0.688-1.002l0.039-0.016c0.162,0.434,0.424,0.717,0.68,0.989c0.26,0.282,0.508,0.548,0.635,0.96
					c0.184,0.583,0.559,0.881,0.83,1.099c0.104,0.081,0.191,0.151,0.254,0.224c0.133,0.157,0.145,0.316,0.15,0.422
					c0.006,0.08,0.012,0.102,0.031,0.104c0.109-0.131,0.127-0.377-0.055-0.684c-0.082-0.135-0.18-0.225-0.283-0.32
					c-0.209-0.191-0.447-0.408-0.656-1.062c-0.156-0.484-0.373-0.734-0.58-0.977c-0.213-0.249-0.418-0.484-0.541-0.947
					c0.162,0.443,0.361,0.674,0.572,0.92s0.43,0.498,0.588,0.992c0.207,0.642,0.439,0.854,0.645,1.043
					c0.105,0.099,0.207,0.189,0.291,0.33c0.182,0.301,0.182,0.568,0.109,0.689L404.561,306.845L404.561,306.845z"/>
			</g>
			<path clip-path="url(#SVGID_4_)" fill="#7B371D" d="M402.191,303.089c0.389,0.818,1.016,0.991,1.238,1.794
				c-0.043-0.686-0.732-0.95-1.074-1.851L402.191,303.089z"/>
			<path clip-path="url(#SVGID_4_)" fill="#F1BD51" d="M400.543,300.869l-2.373,6.395c0,0-0.049,0.119,0.031,0.152
				s0.127-0.086,0.127-0.086l2.845-6.2L400.543,300.869z"/>
			<g clip-path="url(#SVGID_4_)">
				<path fill="#7B371D" d="M398.262,307.436c-0.148-0.032-0.131-0.132-0.111-0.18l2.373-6.395l0.041,0.014l-2.375,6.396
					c0,0.001-0.039,0.101,0.02,0.125l0.1-0.076l2.845-6.199l-2.806,6.217C398.346,307.341,398.317,307.413,398.262,307.436
					L398.262,307.436z"/>
			</g>
			<polygon clip-path="url(#SVGID_4_)" fill="#7B371D" points="400.702,300.933 399.069,305.324 401.014,301.062 			"/>
			<path clip-path="url(#SVGID_4_)" fill="#F1BD51" d="M399.422,302.787c-0.689,0.643-0.648,1.418-1.297,1.959
				c-0.65,0.543-0.656,1.207-0.816,1.516c-0.154,0.305-0.451,0.286-0.416,0.389c0.039,0.101,0.367,0.065,0.646-0.311
				c0.283-0.38,0.133-0.725,0.916-1.396c0.787-0.668,0.602-1.192,1.348-1.771L399.422,302.787z"/>
			<g clip-path="url(#SVGID_4_)">
				<path fill="#7B371D" d="M397,306.72c-0.014,0-0.025-0.001-0.035-0.003l-0.094-0.06c-0.02-0.062,0.039-0.089,0.107-0.124
					c0.09-0.043,0.225-0.11,0.311-0.281c0.043-0.083,0.074-0.192,0.111-0.318c0.1-0.34,0.234-0.803,0.711-1.203
					c0.32-0.268,0.471-0.594,0.629-0.938c0.156-0.344,0.318-0.697,0.666-1.021l0.029,0.031c-0.342,0.317-0.502,0.668-0.658,1.008
					c-0.158,0.348-0.311,0.678-0.639,0.951c-0.467,0.391-0.602,0.849-0.697,1.184c-0.037,0.129-0.07,0.24-0.113,0.326
					c-0.094,0.183-0.236,0.254-0.332,0.301c-0.066,0.033-0.092,0.049-0.084,0.069c0.166,0.05,0.4-0.031,0.609-0.315
					c0.096-0.126,0.141-0.251,0.189-0.383c0.1-0.268,0.211-0.568,0.73-1.015c0.389-0.329,0.537-0.625,0.684-0.911
					c0.146-0.291,0.287-0.568,0.664-0.86c-0.346,0.319-0.482,0.593-0.627,0.881c-0.146,0.288-0.297,0.587-0.693,0.922
					c-0.514,0.438-0.621,0.735-0.719,0.997c-0.049,0.135-0.096,0.263-0.193,0.395C397.366,306.609,397.141,306.72,397,306.72
					L397,306.72z"/>
			</g>
			<path clip-path="url(#SVGID_4_)" fill="#7B371D" d="M399.438,303.031c-0.609,0.672-0.529,1.318-1.186,1.829
				c0.621-0.304,0.602-1.04,1.303-1.698L399.438,303.031z"/>
			<path clip-path="url(#SVGID_4_)" fill="#F1BD51" d="M401.174,301.13l2.375-6.397c0,0,0.049-0.115-0.031-0.149
				c-0.08-0.033-0.129,0.085-0.129,0.085l-2.845,6.199L401.174,301.13z"/>
			<g clip-path="url(#SVGID_4_)">
				<path fill="#7B371D" d="M401.193,301.137l-0.039-0.016l2.375-6.396c0-0.001,0.039-0.097-0.02-0.121l-0.104,0.074l-2.843,6.199
					l2.806-6.216c0-0.003,0.031-0.072,0.086-0.095l0.119,0.048c0.023,0.054-0.006,0.124-0.008,0.126L401.193,301.137
					L401.193,301.137z"/>
			</g>
			<polygon clip-path="url(#SVGID_4_)" fill="#7B371D" points="401.014,301.062 402.648,296.675 400.702,300.933 			"/>
			<path clip-path="url(#SVGID_4_)" fill="#F1BD51" d="M402.295,299.211c0.691-0.642,0.652-1.418,1.299-1.959
				c0.65-0.542,0.656-1.208,0.816-1.515c0.152-0.308,0.451-0.287,0.414-0.389c-0.037-0.101-0.367-0.068-0.645,0.311
				c-0.285,0.378-0.131,0.726-0.918,1.395c-0.785,0.668-0.6,1.195-1.348,1.769L402.295,299.211z"/>
			<g clip-path="url(#SVGID_4_)">
				<path fill="#7B371D" d="M402.311,299.227l-0.029-0.031c0.342-0.317,0.504-0.668,0.66-1.007c0.158-0.35,0.309-0.678,0.639-0.953
					c0.469-0.389,0.6-0.848,0.695-1.182c0.041-0.129,0.072-0.241,0.113-0.325c0.094-0.186,0.24-0.256,0.334-0.303
					c0.064-0.033,0.09-0.047,0.082-0.069c-0.166-0.048-0.4,0.033-0.607,0.316c-0.098,0.126-0.143,0.252-0.191,0.384
					c-0.096,0.269-0.207,0.57-0.73,1.014c-0.387,0.33-0.537,0.624-0.678,0.908c-0.152,0.294-0.291,0.57-0.672,0.862
					c0.348-0.319,0.486-0.592,0.631-0.88c0.148-0.289,0.299-0.587,0.691-0.921c0.514-0.438,0.621-0.734,0.719-0.997
					c0.051-0.135,0.096-0.263,0.195-0.395c0.205-0.28,0.445-0.389,0.592-0.365l0.094,0.062c0.02,0.06-0.041,0.088-0.109,0.121
					c-0.088,0.044-0.225,0.109-0.309,0.283c-0.045,0.083-0.076,0.192-0.111,0.318c-0.1,0.339-0.232,0.805-0.713,1.203
					c-0.32,0.269-0.469,0.594-0.627,0.938C402.822,298.549,402.66,298.902,402.311,299.227L402.311,299.227z"/>
			</g>
			<path clip-path="url(#SVGID_4_)" fill="#7B371D" d="M402.281,298.968c0.607-0.672,0.529-1.318,1.186-1.831
				c-0.623,0.306-0.6,1.042-1.305,1.701L402.281,298.968z"/>
			<path clip-path="url(#SVGID_4_)" fill="#F1BD51" d="M400.989,300.683l-6.395-2.371c0,0-0.115-0.048-0.152,0.028
				c-0.031,0.081,0.088,0.131,0.088,0.131l6.201,2.846L400.989,300.683z"/>
			<g clip-path="url(#SVGID_4_)">
				<path fill="#7B371D" d="M400.739,301.297l-6.219-2.808c-0.047-0.02-0.129-0.078-0.096-0.156c0.033-0.077,0.133-0.06,0.18-0.04
					l6.391,2.37l-0.014,0.04l-6.393-2.371c-0.004-0.001-0.1-0.042-0.125,0.017c-0.025,0.06,0.072,0.102,0.072,0.102L400.739,301.297
					L400.739,301.297z"/>
			</g>
			<polygon clip-path="url(#SVGID_4_)" fill="#7B371D" points="400.924,300.843 396.538,299.208 400.795,301.158 			"/>
			<path clip-path="url(#SVGID_4_)" fill="#F1BD51" d="M399.073,299.562c-0.645-0.692-1.42-0.65-1.963-1.297
				c-0.541-0.649-1.203-0.661-1.514-0.812c-0.307-0.156-0.285-0.452-0.389-0.419c-0.1,0.035-0.066,0.366,0.314,0.649
				c0.373,0.28,0.723,0.129,1.391,0.915c0.67,0.786,1.195,0.597,1.771,1.347L399.073,299.562z"/>
			<g clip-path="url(#SVGID_4_)">
				<path fill="#7B371D" d="M398.702,299.931c-0.322-0.348-0.594-0.486-0.885-0.631c-0.287-0.146-0.586-0.297-0.92-0.69
					c-0.439-0.514-0.736-0.622-0.996-0.719c-0.137-0.048-0.262-0.095-0.391-0.192c-0.283-0.211-0.391-0.458-0.371-0.598l0.062-0.088
					c0.057-0.023,0.088,0.039,0.121,0.108c0.045,0.089,0.111,0.225,0.283,0.312c0.08,0.04,0.186,0.07,0.307,0.104
					c0.342,0.098,0.811,0.232,1.213,0.715c0.27,0.319,0.594,0.469,0.938,0.625c0.344,0.158,0.701,0.321,1.025,0.67l-0.031,0.028
					c-0.318-0.344-0.672-0.504-1.012-0.66c-0.348-0.159-0.676-0.31-0.951-0.637c-0.395-0.473-0.855-0.605-1.191-0.7
					c-0.125-0.037-0.232-0.067-0.314-0.108c-0.186-0.094-0.256-0.237-0.303-0.333c-0.031-0.065-0.043-0.097-0.072-0.085
					c-0.047,0.162,0.033,0.399,0.32,0.612c0.125,0.094,0.25,0.139,0.381,0.188c0.268,0.097,0.57,0.208,1.014,0.73
					c0.33,0.388,0.623,0.536,0.91,0.679C398.129,299.411,398.407,299.55,398.702,299.931L398.702,299.931z"/>
			</g>
			<path clip-path="url(#SVGID_4_)" fill="#7B371D" d="M398.829,299.577c-0.672-0.606-1.32-0.528-1.83-1.183
				c0.303,0.619,1.037,0.598,1.699,1.301L398.829,299.577z"/>
			<path clip-path="url(#SVGID_4_)" fill="#F1BD51" d="M400.731,301.316l6.392,2.369c0,0,0.119,0.05,0.152-0.029
				c0.031-0.078-0.088-0.129-0.088-0.129l-6.199-2.845L400.731,301.316z"/>
			<g clip-path="url(#SVGID_4_)">
				<path fill="#7B371D" d="M407.197,303.721c-0.031,0-0.061-0.007-0.08-0.016l-6.394-2.369l0.014-0.039l6.394,2.37
					c0,0,0.1,0.038,0.125-0.02c0.023-0.058-0.074-0.1-0.074-0.1l-6.205-2.846l6.222,2.808c0.049,0.021,0.125,0.078,0.098,0.153
					C407.275,303.709,407.236,303.721,407.197,303.721L407.197,303.721z"/>
			</g>
			<polygon clip-path="url(#SVGID_4_)" fill="#7B371D" points="400.795,301.158 405.182,302.791 400.924,300.843 			"/>
			<path clip-path="url(#SVGID_4_)" fill="#F1BD51" d="M402.645,302.438c0.646,0.691,1.418,0.646,1.963,1.297
				c0.543,0.648,1.205,0.657,1.512,0.812c0.307,0.157,0.287,0.454,0.391,0.416c0.1-0.033,0.064-0.367-0.312-0.646
				c-0.375-0.279-0.723-0.127-1.393-0.912c-0.668-0.789-1.193-0.602-1.77-1.352L402.645,302.438z"/>
			<g clip-path="url(#SVGID_4_)">
				<path fill="#7B371D" d="M406.492,304.988c-0.045,0-0.068-0.053-0.1-0.111c-0.043-0.089-0.111-0.225-0.281-0.312
					c-0.082-0.041-0.189-0.07-0.312-0.105c-0.342-0.099-0.807-0.232-1.207-0.713c-0.27-0.32-0.594-0.47-0.938-0.627
					c-0.344-0.156-0.699-0.32-1.023-0.668l0.029-0.028c0.32,0.343,0.67,0.503,1.01,0.659c0.35,0.159,0.68,0.31,0.955,0.638
					c0.391,0.47,0.85,0.603,1.186,0.697c0.127,0.037,0.236,0.068,0.32,0.11c0.182,0.094,0.254,0.238,0.299,0.332
					c0.037,0.073,0.051,0.09,0.074,0.084c0.047-0.16-0.031-0.396-0.318-0.609c-0.125-0.094-0.25-0.139-0.381-0.187
					c-0.268-0.097-0.57-0.206-1.018-0.73c-0.326-0.39-0.621-0.537-0.906-0.682c-0.295-0.147-0.57-0.288-0.863-0.669
					c0.32,0.348,0.594,0.485,0.881,0.632c0.289,0.146,0.588,0.297,0.924,0.692c0.438,0.514,0.734,0.621,0.996,0.717
					c0.135,0.049,0.262,0.096,0.389,0.191c0.305,0.225,0.387,0.482,0.371,0.599l-0.061,0.085
					C406.51,304.986,406.5,304.988,406.492,304.988L406.492,304.988z"/>
			</g>
			<path clip-path="url(#SVGID_4_)" fill="#7B371D" d="M402.889,302.422c0.674,0.605,1.318,0.526,1.83,1.183
				c-0.303-0.616-1.037-0.599-1.699-1.302L402.889,302.422z"/>
			<path clip-path="url(#SVGID_4_)" fill="#F1BD51" d="M400.731,300.683l-6.201,2.845c0,0-0.119,0.051-0.088,0.129
				c0.037,0.079,0.152,0.029,0.152,0.029l6.395-2.369L400.731,300.683z"/>
			<g clip-path="url(#SVGID_4_)">
				<path fill="#7B371D" d="M394.522,303.723c-0.039,0-0.08-0.014-0.098-0.06c-0.033-0.075,0.049-0.134,0.096-0.153l6.199-2.846
					l0.02,0.038l-6.201,2.846c-0.002,0-0.098,0.042-0.074,0.1c0.025,0.06,0.121,0.02,0.125,0.02l6.393-2.37l-6.379,2.408
					C394.583,303.714,394.553,303.723,394.522,303.723L394.522,303.723z"/>
			</g>
			<polygon clip-path="url(#SVGID_4_)" fill="#7B371D" points="400.795,300.843 396.538,302.791 400.924,301.158 			"/>
			<path clip-path="url(#SVGID_4_)" fill="#F1BD51" d="M398.577,301.248c-0.941-0.035-1.461,0.543-2.301,0.467
				c-0.842-0.074-1.318,0.389-1.646,0.494c-0.328,0.108-0.523-0.114-0.568-0.02c-0.049,0.096,0.209,0.309,0.678,0.238
				c0.465-0.067,0.604-0.422,1.631-0.339c1.029,0.083,1.266-0.421,2.207-0.298V301.248z"/>
			<g clip-path="url(#SVGID_4_)">
				<path fill="#7B371D" d="M394.561,302.463c-0.271,0-0.445-0.099-0.502-0.178l-0.02-0.104c0.027-0.056,0.09-0.037,0.162-0.012
					c0.094,0.031,0.24,0.08,0.422,0.02c0.086-0.028,0.186-0.082,0.299-0.145c0.311-0.17,0.725-0.402,1.355-0.352
					c0.418,0.042,0.752-0.084,1.105-0.219c0.355-0.13,0.715-0.268,1.195-0.248l-0.002,0.043c-0.457-0.016-0.826,0.116-1.18,0.246
					c-0.359,0.133-0.697,0.255-1.123,0.221c-0.598-0.053-1.025,0.176-1.332,0.346c-0.115,0.062-0.217,0.117-0.307,0.147
					c-0.199,0.063-0.35,0.015-0.447-0.021c-0.078-0.026-0.102-0.029-0.109-0.01c0.078,0.149,0.301,0.26,0.658,0.208
					c0.154-0.022,0.275-0.079,0.402-0.138c0.256-0.119,0.541-0.256,1.23-0.202c0.506,0.046,0.822-0.062,1.125-0.16
					c0.312-0.103,0.609-0.2,1.086-0.137c-0.492-0.028-0.766,0.075-1.072,0.177c-0.309,0.101-0.625,0.203-1.143,0.163
					c-0.674-0.056-0.957,0.079-1.209,0.196c-0.131,0.061-0.252,0.119-0.412,0.142C394.678,302.458,394.616,302.463,394.561,302.463
					L394.561,302.463z"/>
			</g>
			<path clip-path="url(#SVGID_4_)" fill="#7B371D" d="M398.418,301.428c-0.906,0.047-1.305,0.561-2.133,0.459
				c0.656,0.224,1.156-0.311,2.121-0.279L398.418,301.428z"/>
			<path clip-path="url(#SVGID_4_)" fill="#F1BD51" d="M400.989,301.316l6.199-2.846c0,0,0.119-0.05,0.088-0.131
				c-0.033-0.077-0.152-0.028-0.152-0.028l-6.392,2.371L400.989,301.316z"/>
			<g clip-path="url(#SVGID_4_)">
				<path fill="#7B371D" d="M400.999,301.334l-0.021-0.037l6.203-2.846c0.002,0,0.1-0.042,0.076-0.102
					c-0.025-0.059-0.121-0.019-0.125-0.017l-6.394,2.371l6.38-2.411c0.049-0.018,0.145-0.035,0.18,0.04
					c0.027,0.08-0.053,0.138-0.1,0.158L400.999,301.334L400.999,301.334z"/>
			</g>
			<polygon clip-path="url(#SVGID_4_)" fill="#7B371D" points="400.924,301.158 405.182,299.208 400.795,300.843 			"/>
			<path clip-path="url(#SVGID_4_)" fill="#F1BD51" d="M403.143,300.75c0.939,0.036,1.461-0.545,2.301-0.467
				c0.844,0.075,1.318-0.388,1.645-0.497c0.33-0.105,0.527,0.118,0.568,0.021c0.049-0.095-0.209-0.309-0.678-0.239
				c-0.467,0.069-0.604,0.423-1.629,0.339c-1.031-0.081-1.268,0.419-2.207,0.297V300.75z"/>
			<g clip-path="url(#SVGID_4_)">
				<path fill="#7B371D" d="M403.225,300.773c-0.027,0-0.057,0-0.086-0.001l0.004-0.042c0.465,0.014,0.826-0.117,1.176-0.246
					c0.361-0.135,0.707-0.258,1.125-0.221c0.613,0.054,1.029-0.178,1.336-0.347c0.113-0.064,0.215-0.12,0.305-0.149
					c0.197-0.064,0.346-0.011,0.447,0.023c0.074,0.025,0.098,0.031,0.105,0.01c-0.076-0.149-0.295-0.26-0.652-0.21
					c-0.156,0.024-0.277,0.079-0.404,0.139c-0.256,0.121-0.551,0.257-1.232,0.202c-0.504-0.04-0.822,0.062-1.123,0.161
					c-0.312,0.102-0.607,0.2-1.086,0.136c0.473,0.022,0.766-0.077,1.072-0.176s0.621-0.2,1.139-0.162
					c0.67,0.051,0.961-0.081,1.213-0.199c0.131-0.06,0.254-0.118,0.412-0.142c0.35-0.054,0.6,0.048,0.682,0.165l0.021,0.105
					c-0.029,0.057-0.09,0.037-0.16,0.011c-0.094-0.033-0.238-0.081-0.42-0.021c-0.088,0.028-0.186,0.082-0.299,0.145
					c-0.311,0.172-0.732,0.405-1.357,0.353c-0.416-0.04-0.754,0.085-1.109,0.217C404,300.646,403.656,300.773,403.225,300.773
					L403.225,300.773z"/>
			</g>
			<path clip-path="url(#SVGID_4_)" fill="#7B371D" d="M403.301,300.567c0.904-0.044,1.305-0.557,2.131-0.459
				c-0.652-0.219-1.158,0.315-2.121,0.286L403.301,300.567z"/>
			<path clip-path="url(#SVGID_4_)" fill="#F1BD51" d="M401.174,300.869l-2.845-6.199c0,0-0.047-0.118-0.127-0.085
				c-0.08,0.034-0.031,0.149-0.031,0.149l2.373,6.397L401.174,300.869z"/>
			<g clip-path="url(#SVGID_4_)">
				<path fill="#7B371D" d="M400.565,301.121l-2.414-6.381c0-0.003-0.029-0.072-0.008-0.125l0.119-0.051
					c0.055,0.023,0.084,0.094,0.086,0.097l2.845,6.199l-0.039,0.017l-2.9-6.293l-0.045,0.02l-0.02,0.121L400.565,301.121
					L400.565,301.121z"/>
			</g>
			<polygon clip-path="url(#SVGID_4_)" fill="#7B371D" points="401.014,300.933 399.069,296.675 400.702,301.062 			"/>
			<path clip-path="url(#SVGID_4_)" fill="#F1BD51" d="M400.614,298.719c0.035-0.943-0.549-1.463-0.473-2.306
				c0.076-0.841-0.387-1.317-0.494-1.644c-0.105-0.327,0.119-0.524,0.021-0.571c-0.096-0.046-0.307,0.211-0.236,0.677
				c0.068,0.467,0.418,0.604,0.336,1.634c-0.08,1.028,0.42,1.267,0.301,2.205L400.614,298.719z"/>
			<g clip-path="url(#SVGID_4_)">
				<path fill="#7B371D" d="M400.633,298.719l-0.041-0.001c0.016-0.466-0.117-0.828-0.248-1.179
					c-0.135-0.359-0.262-0.699-0.225-1.126c0.055-0.608-0.176-1.025-0.344-1.33c-0.062-0.116-0.119-0.216-0.148-0.305
					c-0.064-0.198-0.012-0.348,0.023-0.448c0.023-0.072,0.031-0.101,0.01-0.112c-0.15,0.083-0.26,0.306-0.207,0.655
					c0.021,0.156,0.078,0.278,0.137,0.406c0.119,0.257,0.254,0.548,0.199,1.233c-0.039,0.507,0.062,0.821,0.162,1.124
					c0.102,0.312,0.199,0.607,0.137,1.081c0.02-0.47-0.076-0.76-0.176-1.068c-0.102-0.307-0.205-0.624-0.166-1.139
					c0.057-0.673-0.078-0.96-0.193-1.213c-0.062-0.131-0.119-0.254-0.143-0.417c-0.051-0.345,0.047-0.594,0.16-0.678l0.107-0.022
					c0.057,0.028,0.035,0.091,0.01,0.163c-0.031,0.095-0.078,0.239-0.021,0.422c0.029,0.087,0.084,0.185,0.146,0.297
					c0.172,0.31,0.406,0.734,0.35,1.355c-0.037,0.417,0.088,0.753,0.219,1.108C400.514,297.88,400.651,298.246,400.633,298.719
					L400.633,298.719z"/>
			</g>
			<path clip-path="url(#SVGID_4_)" fill="#7B371D" d="M400.426,298.557c-0.045-0.906-0.557-1.305-0.453-2.131
				c-0.227,0.654,0.309,1.159,0.277,2.124L400.426,298.557z"/>
			<path clip-path="url(#SVGID_4_)" fill="#F1BD51" d="M400.543,301.13l2.845,6.2c0,0,0.049,0.119,0.129,0.086
				s0.031-0.152,0.031-0.152l-2.375-6.395L400.543,301.13z"/>
			<g clip-path="url(#SVGID_4_)">
				<path fill="#7B371D" d="M403.525,307.436c-0.125-0.023-0.156-0.095-0.156-0.098l-2.843-6.199l0.037-0.018l2.843,6.199
					c0.004,0.002,0.049,0.104,0.104,0.076c0.059-0.024,0.02-0.124,0.02-0.125l-2.375-6.396l2.414,6.38
					C403.586,307.304,403.604,307.403,403.525,307.436L403.525,307.436z"/>
			</g>
			<polygon clip-path="url(#SVGID_4_)" fill="#7B371D" points="400.702,301.062 402.648,305.324 401.014,300.933 			"/>
			<path clip-path="url(#SVGID_4_)" fill="#F1BD51" d="M401.105,303.279c-0.035,0.943,0.549,1.463,0.471,2.303
				c-0.072,0.841,0.387,1.32,0.492,1.648c0.107,0.326-0.117,0.52-0.02,0.569c0.096,0.047,0.307-0.215,0.238-0.679
				c-0.068-0.465-0.42-0.604-0.338-1.631s-0.42-1.268-0.299-2.207L401.105,303.279z"/>
			<g clip-path="url(#SVGID_4_)">
				<path fill="#7B371D" d="M402.039,307.818c-0.057-0.029-0.035-0.092-0.01-0.162c0.031-0.094,0.082-0.236,0.02-0.42
					c-0.029-0.088-0.082-0.188-0.145-0.301c-0.172-0.31-0.404-0.734-0.348-1.356c0.037-0.415-0.088-0.75-0.219-1.104
					c-0.133-0.355-0.27-0.722-0.252-1.198l0.043,0.004c-0.021,0.465,0.115,0.829,0.246,1.18c0.133,0.358,0.262,0.697,0.225,1.123
					c-0.057,0.607,0.174,1.026,0.342,1.332c0.064,0.116,0.119,0.217,0.146,0.309c0.066,0.195,0.014,0.346-0.02,0.445
					c-0.025,0.072-0.031,0.1-0.012,0.111c0.15-0.081,0.262-0.305,0.211-0.658c-0.023-0.153-0.08-0.273-0.139-0.4
					c-0.121-0.257-0.256-0.549-0.203-1.234c0.043-0.508-0.059-0.821-0.158-1.123c-0.104-0.312-0.199-0.607-0.139-1.083
					c-0.018,0.472,0.078,0.761,0.178,1.069c0.1,0.307,0.205,0.625,0.162,1.14c-0.055,0.675,0.08,0.962,0.199,1.214
					c0.059,0.13,0.117,0.252,0.143,0.411c0.047,0.35-0.053,0.599-0.166,0.683L402.039,307.818L402.039,307.818z"/>
			</g>
			<path clip-path="url(#SVGID_4_)" fill="#7B371D" d="M401.293,303.438c0.043,0.906,0.557,1.308,0.457,2.134
				c0.219-0.654-0.312-1.159-0.283-2.121L401.293,303.438z"/>
			<path clip-path="url(#SVGID_4_)" fill="#F1BD51" d="M400.862,298.224c1.531,0,2.775,1.241,2.775,2.774
				c0,1.535-1.244,2.779-2.775,2.779c-1.537,0-2.781-1.244-2.781-2.779C398.081,299.465,399.325,298.224,400.862,298.224
				L400.862,298.224z"/>
			<g clip-path="url(#SVGID_4_)">
				<path fill="#7B371D" d="M400.862,303.799c-1.547,0-2.803-1.257-2.803-2.801c0-1.542,1.256-2.796,2.803-2.796
					c1.542,0,2.798,1.254,2.798,2.796C403.66,302.542,402.404,303.799,400.862,303.799L400.862,303.799z M400.862,298.243
					c-1.523,0-2.762,1.236-2.762,2.755c0,1.521,1.238,2.759,2.762,2.759c1.519,0,2.755-1.237,2.755-2.759
					C403.617,299.479,402.381,298.243,400.862,298.243L400.862,298.243z"/>
			</g>
			<path clip-path="url(#SVGID_4_)" fill="#7B371D" d="M402.611,300.4c-0.494-0.425-1.107-0.492-1.455-0.167
				c-0.246,0.328-0.224,0.721,0.066,1.131c-0.021,0-0.066,0.021-0.086,0.041c-0.212-0.408-0.253-0.833-0.107-1.218
				C401.504,299.803,402.143,299.761,402.611,300.4L402.611,300.4z"/>
			<path clip-path="url(#SVGID_4_)" fill="#7B371D" d="M401.844,300.272c-0.281,0-0.34,0.065-0.475,0.17
				c-0.125,0.108-0.188,0.085-0.213,0.108c-0.02,0.021,0,0.085,0.045,0.064c0.043-0.022,0.129-0.064,0.256-0.172
				c0.129-0.105,0.256-0.105,0.387-0.105c0.381,0,0.594,0.319,0.639,0.298C402.525,300.614,402.27,300.272,401.844,300.272
				L401.844,300.272z"/>
			<path clip-path="url(#SVGID_4_)" fill="#7B371D" d="M402.332,300.636c-0.277-0.298-0.789-0.32-1.002,0.021h0.084
				c0.215-0.341,0.729-0.193,0.771-0.042v0.042L402.332,300.636z"/>
			<path clip-path="url(#SVGID_4_)" fill="#7B371D" d="M401.799,300.421c0.105,0,0.193,0.088,0.193,0.193
				c0,0.106-0.088,0.193-0.193,0.193c-0.104,0-0.191-0.087-0.191-0.193C401.607,300.509,401.695,300.421,401.799,300.421
				L401.799,300.421z"/>
			<path clip-path="url(#SVGID_4_)" fill="#7B371D" d="M401.33,300.657c0.213,0.193,0.682,0.215,1.002-0.021l-0.146-0.021
				c-0.217,0.236-0.557,0.214-0.771,0.042v-0.042L401.33,300.657z"/>
			<path clip-path="url(#SVGID_4_)" fill="#7B371D" d="M402.355,300.742c-0.363,0.279-0.727,0.256-0.941,0.129
				c-0.213-0.129-0.213-0.169-0.17-0.169s0.086,0.04,0.26,0.126C401.67,300.913,401.93,300.913,402.355,300.742L402.355,300.742z"/>
			<path clip-path="url(#SVGID_4_)" fill="#7B371D" d="M401.311,301.385c0.064,0.022,0.1,0.096,0.072,0.163
				c-0.021,0.066-0.096,0.103-0.16,0.078c-0.049-0.016-0.084-0.062-0.086-0.112c-0.02,0.041-0.107,0.169-0.275,0.169h-0.045
				l0.045,0.063c0.043,0,0.167,0,0.255-0.063c0.059,0.087,0.178,0.108,0.266,0.05c0.086-0.062,0.109-0.182,0.049-0.271
				C401.404,301.422,401.357,301.393,401.311,301.385L401.311,301.385z"/>
			<path clip-path="url(#SVGID_4_)" fill="#7B371D" d="M401.562,302.279c-0.193-0.127-0.275-0.32-0.488-0.32
				c-0.045,0-0.13,0.025-0.212,0.066h-0.045l0.045,0.063c0.082,0,0.212-0.104,0.361-0.022
				C401.369,302.152,401.457,302.239,401.562,302.279L401.562,302.279z"/>
			<path clip-path="url(#SVGID_4_)" fill="#7B371D" d="M401.504,302.279c-0.43-0.127-0.515-0.04-0.642-0.04h-0.045l0.045,0.085
				C401.029,302.324,401.117,302.195,401.504,302.279L401.504,302.279z"/>
			<path clip-path="url(#SVGID_4_)" fill="#7B371D" d="M401.562,302.279c-0.465-0.04-0.318,0.238-0.701,0.238h-0.045l0.045,0.062
				C401.33,302.58,401.117,302.324,401.562,302.279L401.562,302.279z"/>
			<path clip-path="url(#SVGID_4_)" fill="#7B371D" d="M401.244,302.964c0-0.212-0.174-0.384-0.382-0.384
				c-0.213,0-0.387,0.172-0.387,0.384c0.049-0.212,0.262-0.343,0.477-0.291C401.098,302.705,401.211,302.817,401.244,302.964
				L401.244,302.964z"/>
			<path clip-path="url(#SVGID_4_)" fill="#7B371D" d="M399.108,300.4c0.492-0.425,1.109-0.492,1.453-0.167
				c0.25,0.328,0.225,0.721-0.066,1.131c0.023,0,0.066,0.021,0.088,0.041c0.213-0.408,0.25-0.833,0.105-1.218
				C400.217,299.803,399.577,299.761,399.108,300.4L399.108,300.4z"/>
			<path clip-path="url(#SVGID_4_)" fill="#7B371D" d="M399.875,300.272c0.279,0,0.342,0.065,0.471,0.17
				c0.129,0.108,0.191,0.085,0.215,0.108c0.021,0.021,0,0.085-0.043,0.064c-0.043-0.022-0.129-0.064-0.258-0.172
				c-0.127-0.105-0.258-0.105-0.385-0.105c-0.381,0-0.596,0.319-0.641,0.298C399.194,300.614,399.45,300.272,399.875,300.272
				L399.875,300.272z"/>
			<path clip-path="url(#SVGID_4_)" fill="#7B371D" d="M399.387,300.636c0.275-0.298,0.789-0.32,1.002,0.021h-0.086
				c-0.215-0.341-0.727-0.193-0.768-0.042v0.042L399.387,300.636z"/>
			<path clip-path="url(#SVGID_4_)" fill="#7B371D" d="M399.92,300.421c-0.107,0-0.191,0.088-0.191,0.193
				c0,0.106,0.084,0.193,0.191,0.193c0.104,0,0.189-0.087,0.189-0.193C400.11,300.509,400.024,300.421,399.92,300.421
				L399.92,300.421z"/>
			<path clip-path="url(#SVGID_4_)" fill="#7B371D" d="M400.389,300.657c-0.213,0.193-0.682,0.215-1.002-0.021l0.148-0.021
				c0.211,0.236,0.553,0.214,0.768,0.042v-0.042L400.389,300.657z"/>
			<path clip-path="url(#SVGID_4_)" fill="#7B371D" d="M399.362,300.742c0.367,0.279,0.727,0.256,0.941,0.129
				c0.215-0.129,0.215-0.169,0.172-0.169c-0.045,0-0.086,0.04-0.258,0.126C400.047,300.913,399.792,300.913,399.362,300.742
				L399.362,300.742z"/>
			<path clip-path="url(#SVGID_4_)" fill="#7B371D" d="M400.409,301.385c-0.064,0.022-0.1,0.096-0.074,0.163
				c0.023,0.066,0.096,0.103,0.16,0.078c0.049-0.016,0.082-0.062,0.088-0.112c0.02,0.041,0.105,0.169,0.279,0.169h0.043
				l-0.043,0.063c-0.045,0-0.174,0-0.26-0.063c-0.062,0.087-0.178,0.108-0.268,0.05c-0.088-0.062-0.107-0.182-0.049-0.271
				C400.317,301.422,400.36,301.393,400.409,301.385L400.409,301.385z"/>
			<path clip-path="url(#SVGID_4_)" fill="#7B371D" d="M400.155,302.279c0.191-0.127,0.275-0.32,0.488-0.32
				c0.045,0,0.133,0.025,0.219,0.066h0.043l-0.043,0.063c-0.086,0-0.219-0.104-0.367-0.022
				C400.346,302.152,400.26,302.239,400.155,302.279L400.155,302.279z"/>
			<path clip-path="url(#SVGID_4_)" fill="#7B371D" d="M400.217,302.279c0.426-0.127,0.514-0.04,0.645-0.04h0.043l-0.043,0.085
				C400.688,302.324,400.602,302.195,400.217,302.279L400.217,302.279z"/>
			<path clip-path="url(#SVGID_4_)" fill="#7B371D" d="M400.155,302.279c0.469-0.04,0.32,0.238,0.707,0.238h0.043l-0.043,0.062
				C400.389,302.58,400.602,302.324,400.155,302.279L400.155,302.279z"/>
			<path clip-path="url(#SVGID_4_)" fill="#7B371D" d="M400.475,302.964c0-0.212,0.174-0.384,0.387-0.384
				c0.208,0,0.382,0.172,0.382,0.384c-0.049-0.212-0.263-0.343-0.476-0.291C400.624,302.705,400.508,302.817,400.475,302.964
				L400.475,302.964z"/>
		</g>
	</g>
</g>
</svg>
