<?xml version="1.0" encoding="utf-8"?>
<!-- Generator: Adobe Illustrator 16.0.0, SVG Export Plug-In . SVG Version: 6.00 Build 0)  -->
<!DOCTYPE svg PUBLIC "-//W3C//DTD SVG 1.1//EN" "http://www.w3.org/Graphics/SVG/1.1/DTD/svg11.dtd">
<svg version="1.1" id="name" xmlns="http://www.w3.org/2000/svg" xmlns:xlink="http://www.w3.org/1999/xlink" x="0px" y="0px"
	 width="85.715px" height="50px" viewBox="358 276 85.715 50" enable-background="new 358 276 85.715 50" xml:space="preserve">
<g id="as">
	<g>
		<defs>
			<rect id="SVGID_1_" x="358" y="276" width="85.715" height="50"/>
		</defs>
		<clipPath id="SVGID_2_">
			<use xlink:href="#SVGID_1_"  overflow="visible"/>
		</clipPath>
		<rect x="358" y="276" clip-path="url(#SVGID_2_)" fill="#231E60" width="85.715" height="50"/>
		<polygon clip-path="url(#SVGID_2_)" fill="#AC1E2F" points="443.715,276 358,300.998 358,300.998 443.715,326 		"/>
		<polygon clip-path="url(#SVGID_2_)" fill-rule="evenodd" clip-rule="evenodd" fill="#FFFFFF" points="443.715,278.676 
			443.715,323.322 367.184,300.998 		"/>
		<g clip-path="url(#SVGID_2_)">
			<defs>
				<rect id="SVGID_3_" x="358" y="276" width="85.715" height="50"/>
			</defs>
			<clipPath id="SVGID_4_">
				<use xlink:href="#SVGID_3_"  overflow="visible"/>
			</clipPath>
			<path clip-path="url(#SVGID_4_)" fill-rule="evenodd" clip-rule="evenodd" fill="#8F3A1F" d="M426.918,306.605
				c0,0-0.625-0.511,0.115-1.334c-0.399-0.342-0.031-0.992-0.031-0.992s-0.678-0.257,0.031-1.305
				c-0.514-0.342-0.285-1.109-0.285-1.109s-1.674-0.623-0.086-1.22c-1.305,0.567-2.525-0.767-2.525-0.767l-1.904,0.057
				c-0.319-1.578-2.824-0.207-0.963-4.739c-0.482-0.083-1.02-0.226-1.561,0.172c-0.539,0.395-2.07,1.249-2.979,0.395
				c-0.906-0.85,0.595-2.07,0.626-2.098c0.027-0.029,2.016-1.048,2.297-1.73c-0.026-0.51-0.652-0.908-0.084-2.016
				c0.652-1.05,4.653-2.042,6.469-2.382c0.881-0.401,1.278-1.165,1.278-1.165l0.199,0.739c0,0,4.028-1.192,4.228-1.762
				c0.2-0.566,0.086,0.513,0.086,0.513c1.588-0.142,3.604-1.506,3.886-0.882c1.334-0.254,3.89-1.389,3.89-1.389
				s0.879-0.027,0.256,0.938c0.396,0.624-0.113,1.162-0.145,1.162c-0.029,0,0.172,0.625-0.338,0.964
				c0.168,0.541-0.312,0.966-0.312,0.966s0.227,0.652-0.683,0.993c0.085,0.567-0.511,0.681-0.511,0.681s0.086,0.597-0.312,0.852
				c0,0.455-0.453,0.681-0.453,0.681s0.283,0.172-0.113,0.453c-0.398,0.286-4.513,2.811-4.513,2.783s3.007,0.539,3.208,0.652
				c0.195,0.115,2.467,1.618,2.467,1.618l-2.299,2.835c0,0-2.553-0.283-2.668-0.141c-0.111,0.141,0.539,0.201,0.684,0.426
				c0.141,0.228,0.369,0.766,0.82,0.709c0.455-0.056-0.85,0.824-1.702,0.908c0,0.314,1.079,0.341,1.364,0.086
				c0.282-0.255-0.682,0.738-0.796,0.879s1.278-0.197,1.278-0.197s-0.227,0.936-1.447,1.22c0.482,0.793,0.283,1.306,0.256,1.306
				s-0.797-0.794-1.533-0.653c0.199,0.767,0.795,1.478,0.965,1.589c0.169,0.115-1.334,0.086-1.533-0.34
				c-0.195-0.427-0.369,1.022,0.172,1.477c-0.627,0.029-1.163-0.341-1.163-0.341s-0.37,0.851-0.115,1.277
				c0.255,0.423-0.88-0.853-0.88-0.853l-2.156,0.908L426.918,306.605z"/>
			<g clip-path="url(#SVGID_4_)">
				<path fill="#010101" d="M430.468,307.544c-0.044,0-0.12-0.007-0.975-0.966l-2.058,0.929c-0.039,0.021-0.086,0.001-0.108-0.035
					l-0.483-0.823l0,0c-0.006,0-0.23-0.195-0.256-0.535c-0.021-0.271,0.088-0.553,0.327-0.836c-0.281-0.314-0.11-0.779-0.026-0.964
					c-0.076-0.05-0.182-0.146-0.234-0.31c-0.084-0.268,0.004-0.606,0.262-1.01c-0.387-0.32-0.313-0.873-0.271-1.076
					c-0.205-0.086-0.746-0.348-0.754-0.703c-0.002-0.123,0.056-0.238,0.178-0.345c-1.088,0.025-1.961-0.895-1.996-0.934
					l-1.837,0.084c-0.046-0.011-0.078-0.027-0.085-0.068c-0.1-0.487-0.424-0.672-0.764-0.865c-0.714-0.405-1.449-0.823-0.236-3.824
					l-0.024-0.006c-0.47-0.084-0.978-0.106-1.368,0.179c-0.485,0.359-1.314,0.778-2.047,0.778c-0.416,0-0.766-0.131-1.041-0.389
					c-0.217-0.203-0.324-0.443-0.316-0.715c0.016-0.667,0.723-1.319,0.938-1.504c0.015-0.014,0.021-0.018,0.131-0.08
					c1.585-0.879,2.046-1.369,2.15-1.626c-0.013-0.099-0.071-0.231-0.136-0.385c-0.162-0.368-0.363-0.826,0.054-1.637
					c0.838-1.344,6.474-2.417,6.53-2.428c0.825-0.376,1.215-1.112,1.217-1.119c0.018-0.031,0.052-0.051,0.086-0.045
					c0.035,0.004,0.065,0.028,0.074,0.062l0.176,0.653c1.547-0.462,3.955-1.306,4.087-1.682c0.053-0.147,0.093-0.222,0.169-0.222
					c0.091,0.056,0.145,0.114,0.094,0.667c0.668-0.081,1.404-0.364,2.057-0.617c0.879-0.338,1.562-0.564,1.776-0.266
					c1.325-0.27,3.787-1.361,3.812-1.371c0.105-0.009,0.423,0.004,0.55,0.237c0.105,0.192,0.041,0.47-0.189,0.826
					c0.28,0.345,0.141,0.74,0.035,0.936c-0.006,0.007-0.083,0.146-0.162,0.22c0.022,0.214,0.057,0.665-0.327,0.959
					c0.125,0.525-0.284,0.93-0.349,0.989c0.045,0.013,0.192,0.642-0.652,0.99c0.027,0.415-0.286,0.621-0.512,0.69
					c0.01,0.181-0.004,0.632-0.359,0.86c0.029,0.312-0.216,0.527-0.361,0.625c0.025,0.038,0.046,0.085,0.047,0.139
					c0.004,0.124-0.078,0.247-0.246,0.366c-0.293,0.21-3.426,2.145-4.304,2.664c0.722,0.123,2.809,0.523,2.989,0.626
					c0.199,0.115,2.381,1.56,2.472,1.621c0.021,0.014,0.034,0.034,0.038,0.058c0.004,0.024-0.003,0.048-0.019,0.068l-2.296,2.835
					c-0.09,0.025-1.713-0.149-2.412-0.149c-0.102,0-0.167,0.004-0.207,0.01c0.049,0.004,0.112,0.028,0.165,0.047
					c0.182,0.067,0.386,0.141,0.474,0.277l0.066,0.112c0.131,0.231,0.371,0.571,0.647,0.561c0.176,0,0.212,0.057,0.213,0.105
					c0.011,0.227-1.042,0.825-1.743,0.951c0.187,0.123,0.979,0.124,1.17-0.045c0.016-0.014,0.088-0.062,0.107-0.062
					c0.106,0.111,0.106,0.111-0.372,0.621c-0.112,0.117-0.224,0.235-0.303,0.322c0.368-0.045,1.078-0.217,1.087-0.219
					c0.027-0.008,0.059,0.001,0.08,0.022s0.031,0.053,0.021,0.081c-0.008,0.039-0.238,0.935-1.397,1.256
					c0.375,0.675,0.278,1.159,0.21,1.279c-0.016,0.027-0.055,0.057-0.086,0.057c-0.021,0-0.1-0.055-0.115-0.067
					c-0.182-0.155-0.732-0.649-1.309-0.6c0.212,0.694,0.746,1.341,0.902,1.446c0.033,0.021,0.06,0.08,0.049,0.116
					c-0.021,0.063-0.08,0.099-0.336,0.099c-0.322,0-1.197-0.08-1.371-0.447c0.002,0.016-0.041,0.225-0.021,0.514
					c0.012,0.186,0.068,0.644,0.327,0.859c0.026,0.022,0.037,0.06,0.025,0.094c-0.011,0.033-0.042,0.057-0.077,0.059
					c-0.002,0-0.004,0-0.005,0c-0.526,0-0.943-0.199-1.12-0.301c-0.084,0.225-0.267,0.802-0.082,1.107
					c0.014,0.025,0.051,0.144,0.037,0.169L430.468,307.544L430.468,307.544L430.468,307.544z M426.586,300.768l-0.005,0.001
					c-0.339,0.142-0.521,0.295-0.519,0.442c0.006,0.253,0.531,0.506,0.715,0.574c0.041,0.016,0.064,0.061,0.053,0.105
					c-0.004,0.006-0.203,0.709,0.251,1.012c0.019,0.012,0.032,0.031,0.036,0.055c0.006,0.022,0,0.045-0.014,0.064
					c-0.258,0.383-0.355,0.705-0.285,0.932c0.057,0.182,0.213,0.245,0.213,0.245c0.024,0.009,0.043,0.027,0.051,0.052
					c0.01,0.022,0.006,0.049-0.005,0.07c-0.003,0.008-0.329,0.596,0.011,0.885c0.02,0.016,0.029,0.037,0.031,0.062
					c0.002,0.022-0.007,0.046-0.022,0.062c-0.243,0.271-0.354,0.528-0.338,0.771c0.022,0.278,0.213,0.437,0.214,0.438l0.465,0.781
					l2.087-0.878c0.312,0.291,0.604,0.59,0.788,0.77c-0.133-0.464,0.146-1.119,0.16-1.15c0.01-0.023,0.031-0.041,0.053-0.048
					c0.023-0.009,0.052-0.005,0.074,0.011c0.003,0.004,0.414,0.28,0.92,0.322c-0.295-0.42-0.291-1.146-0.196-1.412
					c0.081-0.221,0.272-0.064,0.297-0.011c0.108,0.228,0.775,0.349,1.216,0.349c0.028,0,0.055,0,0.075-0.002
					c-0.257-0.258-0.714-0.891-0.884-1.539c-0.006-0.021-0.001-0.047,0.01-0.066c0.015-0.02,0.035-0.033,0.057-0.039
					c0.662-0.129,1.339,0.447,1.547,0.625c-0.018-0.025,0.078-0.486-0.324-1.146c-0.015-0.024-0.018-0.053-0.006-0.078
					c0.01-0.025,0.031-0.045,0.06-0.051c0.881-0.205,1.219-0.755,1.333-1.017c-0.285,0.065-0.877,0.198-1.086,0.198
					c-0.031,0-0.128-0.035-0.143-0.064c-0.014-0.029-0.005-0.086,0.016-0.111c0.047-0.057,0.23-0.251,0.417-0.448
					c0.051-0.054,0.103-0.108,0.15-0.161c-0.513,0.123-1.153,0.041-1.153-0.301c0-0.044,0.033-0.081,0.076-0.085
					c0.686-0.068,1.661-0.672,1.723-0.808l-0.077,0.077c-0.397,0-0.628-0.406-0.767-0.649l-0.061-0.107
					c-0.055-0.085-0.24-0.152-0.389-0.206c-0.174-0.064-0.29-0.105-0.316-0.199c-0.008-0.025,0.011-0.098,0.029-0.119
					c0.037-0.047,0.111-0.073,0.389-0.073c0.708,0,2.287,0.175,2.354,0.182l2.162-2.73c-0.401-0.266-2.215-1.463-2.386-1.564
					c-0.163-0.091-2.945-0.635-3.159-0.641c-0.03-0.001-0.062-0.019-0.077-0.045c-0.014-0.027-0.017-0.06,0-0.085
					c0.174-0.094,4.089-2.487,4.537-2.807c0.115-0.082,0.178-0.16,0.174-0.222c-0.001-0.052-0.055-0.088-0.055-0.089
					c-0.027-0.016-0.043-0.045-0.041-0.077c0.001-0.031,0.02-0.06,0.047-0.072c0.004-0.003,0.404-0.209,0.404-0.604
					c0.387-0.294,0.314-0.835,0.312-0.841c-0.006-0.045,0.024-0.088,0.07-0.097c0.021-0.004,0.512-0.106,0.441-0.583
					c-0.006-0.04,0.017-0.08,0.054-0.094c0.815-0.305,0.64-0.861,0.631-0.883c0.028-0.097,0.463-0.489,0.312-0.969
					c-0.011-0.037,0.003-0.077,0.034-0.096c0.373-0.249,0.32-0.668,0.303-0.826c-0.003-0.024,0.001-0.105,0.018-0.124
					c0.029-0.022,0.504-0.487,0.137-1.06c0.191-0.387,0.254-0.612,0.182-0.745c-0.08-0.15-0.328-0.155-0.355-0.155
					c-0.077,0.04-2.553,1.135-3.881,1.389c-0.041,0.004-0.079-0.014-0.095-0.049c-0.021-0.048-0.069-0.112-0.239-0.112
					c-0.299,0-0.787,0.189-1.354,0.406c-0.698,0.27-1.488,0.574-2.207,0.638c-0.028,0.003-0.051-0.007-0.068-0.025
					c-0.019-0.019-0.027-0.042-0.025-0.068c0.014-0.129,0.025-0.272,0.029-0.389c-0.49,0.606-3.834,1.611-4.231,1.729
					c-0.022,0.005-0.048,0.004-0.067-0.007s-0.035-0.03-0.041-0.053l-0.147-0.547c-0.173,0.257-0.565,0.735-1.21,1.029
					c-2.275,0.429-5.845,1.403-6.434,2.35c-0.375,0.731-0.201,1.131-0.047,1.483c0.07,0.161,0.136,0.312,0.147,0.481
					c-0.181,0.453-0.909,1.013-2.233,1.749l-0.102,0.057c-0.421,0.358-0.87,0.906-0.881,1.381c-0.006,0.223,0.079,0.415,0.262,0.585
					c0.244,0.227,0.553,0.342,0.924,0.342c0.908,0,1.843-0.668,1.946-0.745c0.425-0.312,0.987-0.301,1.499-0.21l0.127,0.022
					c0.026,0.004,0.049,0.021,0.061,0.043c0.014,0.022,0.016,0.051,0.006,0.075c-1.213,2.952-0.564,3.318,0.121,3.709
					c0.344,0.195,0.699,0.398,0.83,0.909l1.832-0.054c0.074,0.035,0.885,0.906,1.855,0.906c0.184,0,0.363-0.031,0.535-0.092
					l0.107-0.043c0.045-0.014,0.094,0.006,0.111,0.048c0.017,0.042-0.004,0.092-0.046,0.111L426.586,300.768L426.586,300.768
					L426.586,300.768z"/>
			</g>
			<path clip-path="url(#SVGID_4_)" fill-rule="evenodd" clip-rule="evenodd" fill="#F3C033" d="M410.252,304.916
				c0.048,0,3.131-0.049,4.549-0.861c0.704,1.115,1.668,1.873,1.668,1.873l0.453-1.619c0,0,1.109,0.051,1.213,0.305
				c-0.152,0.303-0.203,0.707-0.203,0.707s0.758,0.051,0.81,0.15c0.048,0.102-0.204,0.959-0.204,0.959l3.235,0.76
				c0,0,0.251-1.262,0.506-1.111c0.251,0.153,1.364,1.717,2.929,1.82c1.567,0.102,1.668-1.314,1.668-1.314l0.355,0.203
				c0,0,0.656-1.416,0.757-1.416c0.1,0,0.251,0.201,1.112,0.201c0.252,0.304,0.353,1.012,0.353,1.012s-0.958,0.961-0.655,1.719
				c0.303,0.757,0.352,0.555,0.352,0.555l6.978,1.668c0,0,0.35,0.555-0.256,0.858c0,0.05-7.024-1.618-7.024-1.618
				s-0.655,0.76-1.16,0.606c-0.508-0.15-0.154,0.304-0.154,0.304l7.58,0.607c0,0,0.557,0.707,0.152,0.91
				c-0.504,0.051-8.187-0.506-8.187-0.506s-0.454,0.962-0.96,0.152c-0.354,0.555-0.76-0.152-0.76-0.152s-0.652,0.506-0.756-0.049
				c-0.557,0.404-0.911-0.255-0.911-0.255l-3.23-0.202l-0.204,0.303c0,0,0.555,0.154-0.303,0.506
				c-0.859,0.353,5.154,0.203,5.306,0.254s-0.403,0.504-0.403,0.504s3.08,0.204,3.639-0.453c0.555-0.656-0.204,0.857-0.204,0.857
				s2.427-0.102,2.427-0.2c0-0.104-0.053,0.757-1.721,0.656c1.013,0.656,2.274,1.062,2.274,1.062s-1.262,0.303-2.728-0.051
				c0.254,0.656,1.363,1.264,1.363,1.264s-0.807,0.709-2.625-1.012c0.503,0.908,0.1,1.264,0.049,1.162
				c-0.049-0.101-0.91-1.363-2.93-1.818c1.262,0.807,0.707,1.162,0.707,1.162s-0.658-1.162-1.72,0
				c-0.401-1.06-1.97-1.668-3.89-1.769c-0.606-0.708-0.961-0.506-2.377-0.909c-0.807-0.91-1.971-1.922-1.971-1.922
				s0.052-1.363,1.416-1.212c0.152,0.454,0.152,0.304,0.152,0.304s1.516-0.557,1.971,0.199c0.656-1.159,1.566-0.17,1.719,0.231
				c0.434,0.065,2.629,0.125,2.629,0.125s-0.256-0.454-0.103-0.405c0.15,0.049,1.364-0.454,1.315-0.605
				c-0.053-0.151-0.105-0.657,0.1-0.607c0.203,0.051-1.719-0.253-2.781,0.557c-0.35-0.355-0.1-1.314-0.1-1.314l-3.135-0.656
				l-0.151,0.809c0,0-0.911,0.15-0.858-0.051c0.053-0.203-0.203,0.707-0.203,0.707s-1.213-0.304-1.213-0.352
				c0-0.053,0.355-1.821,0.355-1.771c0,0.053-1.009,0.104-2.427,1.164C413.436,306.637,410.252,304.965,410.252,304.916
				L410.252,304.916z"/>
			<g clip-path="url(#SVGID_4_)">
				<path fill="#010101" d="M427.358,316.136c-0.003,0-0.005,0-0.006,0l-0.052-0.001l-0.048-0.062
					c-0.007-0.015-0.694-1.12-2.417-1.653c0.317,0.26,0.479,0.498,0.479,0.714c0,0.21-0.156,0.312-0.162,0.315l-0.077,0.05
					l-0.045-0.079c-0.002-0.004-0.244-0.424-0.653-0.469c-0.29-0.037-0.603,0.131-0.927,0.484l-0.094,0.102l-0.051-0.129
					c-0.366-0.967-1.791-1.606-3.812-1.713c-0.456-0.492-0.728-0.546-1.322-0.662c-0.28-0.056-0.624-0.124-1.073-0.252
					c-0.835-0.922-1.993-1.929-2.006-1.939c-0.028-0.095,0-0.714,0.442-1.094c0.262-0.225,0.616-0.313,1.041-0.268
					c0.106,0.21,0.153,0.294,0.174,0.328c0.369-0.156,1.457-0.449,1.933,0.105c0.277-0.418,0.584-0.49,0.794-0.475
					c0.503,0.039,0.914,0.568,1.012,0.83c0.301,0.008,1.906,0.052,2.404,0.064c-0.137-0.277-0.089-0.337-0.066-0.363l0.037-0.046
					l0.097,0.013c0.126,0.025,1.131-0.387,1.208-0.531c-0.025-0.049-0.083-0.331-0.03-0.519c-1.396-0.065-2.141,0.259-2.516,0.544
					l-0.062,0.045l-0.053-0.053c-0.318-0.323-0.198-1.055-0.142-1.309l-2.964-0.621l-0.136,0.723
					c-0.302,0.099-0.702,0.158-0.902,0.094c-0.062,0.217-0.16,0.57-0.16,0.57l-0.022,0.08l-0.08-0.02
					c-1.278-0.319-1.278-0.356-1.278-0.436c0-0.031,0.06-0.342,0.175-0.924c0.072-0.361,0.117-0.584,0.148-0.721
					c-0.322,0.078-1.162,0.286-2.257,1.105l-0.097,0.072l-0.037-0.114c-0.319-1.005-2.544-2.327-3.273-2.763
					c-0.316-0.188-0.316-0.188-0.316-0.246v-0.086h0.086c0.031,0,3.115-0.053,4.506-0.85l0.07-0.041l0.043,0.07
					c0.561,0.881,1.285,1.543,1.549,1.768l0.438-1.557l0.068,0.004c0.272,0.011,1.173,0.073,1.288,0.355
					c-0.104,0.255-0.161,0.525-0.183,0.661c0.717,0.056,0.77,0.156,0.787,0.19c0.039,0.085-0.02,0.398-0.174,0.936l3.061,0.719
					c0.067-0.312,0.238-0.991,0.459-1.09l0.041-0.02l0.119,0.027c0.062,0.039,0.15,0.133,0.287,0.271
					c0.454,0.473,1.4,1.457,2.602,1.537c1.471,0.088,1.571-1.181,1.577-1.234l0.009-0.137l0.392,0.223
					c0.646-1.381,0.735-1.381,0.797-1.381l0.132,0.041c0.117,0.052,0.355,0.162,0.98,0.162c0.33,0.35,0.437,1.055,0.44,1.084
					c-0.034,0.083-0.942,1.005-0.663,1.701c0.186,0.466,0.26,0.525,0.269,0.531l7.001,1.639c0.058,0.049,0.224,0.314,0.145,0.6
					c-0.049,0.176-0.178,0.316-0.383,0.42c-0.012,0.012-0.026,0.023-0.658-0.114c0.131,0.178,0.288,0.466,0.238,0.692
					c-0.024,0.102-0.087,0.182-0.186,0.23c-0.531,0.061-7.779-0.464-8.221-0.496c0.031,0.033-0.193,0.457-0.517,0.476
					c-0.165,0.011-0.312-0.078-0.452-0.262c-0.09,0.103-0.201,0.151-0.304,0.151c-0.216-0.005-0.392-0.211-0.474-0.33
					c-0.131,0.086-0.395,0.229-0.6,0.153c-0.084-0.032-0.146-0.097-0.186-0.19c-0.143,0.078-0.289,0.103-0.429,0.07
					c-0.318-0.073-0.499-0.402-0.506-0.417l-3.162-0.157l-0.083,0.172c0.066,0.033,0.141,0.095,0.146,0.188
					c0.01,0.151-0.154,0.287-0.532,0.442c0.159,0.088,2.793,0.084,4.062,0.078c0.962-0.002,1.189-0.002,1.24,0.016l0.047,0.016
					l0.035,0.074c0.016,0.088-0.084,0.229-0.295,0.42c0.961,0.047,2.951,0.039,3.355-0.436c0.11-0.133,0.21-0.238,0.304-0.178
					c0.062,0.039,0.142,0.094-0.302,1c0.973-0.043,2.006-0.111,2.208-0.164l0.013-0.038l0.149,0.013v0.081
					c0,0.02,0,0.038-0.021,0.058c-0.094,0.236-0.412,0.678-1.469,0.692c0.936,0.546,1.973,0.882,1.983,0.885l0.293,0.094
					l-0.298,0.073c-0.051,0.011-1.203,0.279-2.592-0.011c0.336,0.56,1.238,1.059,1.247,1.064l0.108,0.058l-0.092,0.082
					c-0.033,0.029-0.789,0.661-2.434-0.736c0.164,0.471,0.051,0.723,0.004,0.8C427.483,316.09,427.421,316.136,427.358,316.136
					L427.358,316.136z M423.943,314.024l0.477,0.106c1.83,0.412,2.771,1.51,2.961,1.818c0.003-0.022,0.021-0.051,0.037-0.095
					c0.034-0.104,0.085-0.405-0.213-0.94l-0.27-0.486l0.404,0.381c1.346,1.273,2.115,1.18,2.391,1.071
					c-0.309-0.187-1.057-0.684-1.269-1.229l-0.06-0.152l0.16,0.038c0.998,0.239,1.908,0.169,2.369,0.104
					c-0.441-0.163-1.275-0.502-1.982-0.96l-0.273-0.177l0.324,0.02c0.992,0.057,1.389-0.23,1.543-0.439
					c-0.291,0.049-0.914,0.098-2.25,0.154l-0.145,0.006l0.064-0.131c0.133-0.264,0.271-0.564,0.344-0.761
					c-0.588,0.681-3.579,0.491-3.707,0.479l-0.217-0.014l0.168-0.138c0.202-0.165,0.385-0.353,0.398-0.407
					c-0.024,0.042-0.571,0.045-1.15,0.047c-3.803,0.007-4.229-0.07-4.264-0.244c-0.021-0.1,0.097-0.148,0.135-0.166
					c0.426-0.174,0.426-0.271,0.426-0.271c0-0.021-0.061-0.058-0.113-0.071l-0.113-0.033l0.27-0.401l3.307,0.163
					c0.073,0.049,0.225,0.322,0.467,0.377c0.121,0.028,0.252-0.008,0.389-0.105l0.109-0.081l0.024,0.136
					c0.028,0.146,0.091,0.17,0.114,0.178c0.15,0.061,0.423-0.115,0.508-0.182l0.077-0.059l0.05,0.084
					c0.051,0.089,0.219,0.318,0.379,0.322c0.091,0.018,0.158-0.058,0.231-0.172l0.073-0.115l0.072,0.115
					c0.123,0.193,0.25,0.285,0.365,0.282c0.205-0.012,0.392-0.312,0.445-0.427c0.15-0.048,7.111,0.459,8.15,0.461
					c0.048,0,0.084-0.002,0.105-0.004c0.021-0.018,0.052-0.055,0.063-0.107c0.046-0.2-0.183-0.547-0.276-0.664l-7.518-0.574
					c-0.121-0.112-0.257-0.311-0.173-0.434c0.075-0.106,0.239-0.072,0.356-0.038c0.377,0.118,0.899-0.381,1.071-0.581l0.001,0.002
					l0.182-0.82l0.037,0.008c-0.064-0.078-0.152-0.238-0.283-0.563c-0.312-0.781,0.592-1.725,0.673-1.808
					c-0.031-0.006-0.135-0.633-0.354-0.9c-0.598,0.029-0.861-0.089-0.986-0.146c-0.103,0.031-0.452,0.716-0.742,1.341l-0.038,0.084
					l-0.328-0.187c-0.072,0.362-0.391,1.356-1.739,1.265c-1.268-0.084-2.245-1.102-2.715-1.59c-0.111-0.116-0.208-0.217-0.252-0.242
					c-0.093,0.021-0.27,0.516-0.377,1.055l-0.013,0.061l0.009,0.002l-0.303,0.908l-0.022-0.008c-0.059,0.285-0.12,0.814,0.057,1.076
					c0.429-0.299,1.233-0.614,2.696-0.523l0.008,0.008l0.08-0.008c0.088,0.021,0.082,0.088,0.08,0.103l-0.012,0.077l-0.112-0.006
					c-0.052,0.055-0.046,0.341,0.006,0.488l0.017,0.051l-0.074,0.108c-0.186,0.185-1.083,0.591-1.342,0.562
					c0.057,0.027,0.113,0.157,0.18,0.276l0.074,0.131l-0.151-0.004c-0.09-0.002-2.205-0.06-2.64-0.125
					c-0.156-0.289-0.529-0.742-0.931-0.773c-0.265-0.014-0.5,0.148-0.7,0.5l-0.072,0.129l-0.076-0.127
					c-0.414-0.688-1.854-0.168-1.867-0.163c-0.112,0.043-0.152-0.024-0.264-0.356c-0.307,0.014-0.613,0.091-0.838,0.284
					c-0.371,0.319-0.408,0.862-0.41,0.9c0.004-0.041,1.162,0.975,1.951,1.864c0.402,0.101,0.74,0.168,1.017,0.221
					c0.597,0.119,0.927,0.183,1.36,0.689c1.948,0.076,3.392,0.707,3.85,1.671c0.333-0.331,0.662-0.479,0.983-0.443
					c0.364,0.041,0.61,0.31,0.72,0.458c0.014-0.027,0.026-0.062,0.025-0.107c-0.002-0.127-0.105-0.407-0.787-0.844L423.943,314.024
					L423.943,314.024z M428.949,309.747c2.79,0.616,6.734,1.542,6.918,1.552c0.123-0.071,0.222-0.176,0.258-0.303
					c0.058-0.211-0.071-0.424-0.072-0.425l-6.876-1.618l-0.046,0.016c-0.002,0-0.006,0-0.008,0L428.949,309.747L428.949,309.747z
					 M427.518,310.428c-0.02,0-0.029,0.004-0.029,0.004c0.004,0.018,0.053,0.117,0.111,0.19l6.705,0.513
					c-1.022-0.234-2.705-0.627-5.478-1.285c0.042,0.019-0.616,0.769-1.168,0.605C427.586,310.434,427.541,310.428,427.518,310.428
					L427.518,310.428z M416.014,308.507c0.102,0,0.585,0.131,1.049,0.247c0.059-0.21,0.1-0.361,0.133-0.469l-0.006-0.001
					l0.646-2.884h-0.002l0.012-0.092c0.003-0.016,0.056-0.422,0.212-0.734c-0.05-0.048-0.581-0.146-1.072-0.176l-0.47,1.677
					l-0.102-0.079c-0.01-0.01-0.941-0.75-1.643-1.826c-1.199,0.641-3.447,0.79-4.237,0.824c0.012,0.006,0.024,0.013,0.036,0.021
					c0.795,0.473,2.86,1.701,3.309,2.746c1.085-0.791,1.916-0.992,2.234-1.068c0.045-0.012,0.079-0.02,0.096-0.024
					c0.018-0.021,0.031-0.021,0.055-0.021h0.085v0.087c0,0.018-0.003,0.032-0.009,0.045c-0.048,0.196-0.338,1.646-0.346,1.732
					C415.996,308.508,416.002,308.507,416.014,308.507L416.014,308.507z M417.417,308.054l0.021,0.006l-0.029,0.112
					c0.046,0.014,0.406,0.004,0.76-0.056l0.098-0.825l0.012,0.002l0.168-0.796l-0.018-0.003l0.026-0.088
					c0.11-0.375,0.222-0.828,0.206-0.906c-0.04-0.019-0.357-0.064-0.65-0.087L417.417,308.054L417.417,308.054z M418.445,307.328
					l2.998,0.628l0.232-0.699l-3.062-0.72L418.445,307.328L418.445,307.328z M428.125,314.719h-0.173
					c-0.015-0.07-0.262-0.313-2.236-1.012c-0.261-0.094-0.271-0.096-0.247-0.177l0.113-0.058c0.146,0.036,1.213-0.088,1.566-0.127
					c0.133-0.016,0.221-0.025,0.232-0.025l0.003,0.172c-0.017,0.001-0.099,0.012-0.216,0.023c-0.467,0.055-0.858,0.098-1.144,0.118
					C427.759,314.259,428.125,314.521,428.125,314.719L428.125,314.719z M424.506,313.832c-0.571-0.37-1.236-0.745-1.561-0.865
					c-0.137,0.001-0.229-0.002-0.262-0.015l-0.062-0.087l0.079-0.097c0.055-0.022,0.146-0.009,0.264,0.028
					c0.433-0.018,1.324-0.129,1.424-0.21l0.119,0.124c-0.102,0.101-0.703,0.191-1.189,0.232c0.439,0.212,0.985,0.553,1.281,0.743
					L424.506,313.832L424.506,313.832z M421.381,313.598c-0.254,0-0.816-0.338-1.625-0.875c-0.074-0.049-0.137-0.09-0.18-0.117
					c-0.043-0.014-0.072-0.031-0.091-0.049l-0.054-0.055l0.039-0.072c0.04-0.051,0.051-0.062,0.191,0.026
					c0.224,0.062,0.988,0.078,1.652,0.056l0.006,0.172c-0.314,0.01-0.902,0.021-1.332-0.013c0.821,0.538,1.299,0.794,1.402,0.755
					l0.054,0.162C421.426,313.596,421.406,313.598,421.381,313.598L421.381,313.598z M418.318,312.633
					c-0.849-0.171-1.217-0.586-1.543-0.951c-0.071-0.082-0.145-0.163-0.219-0.236l-0.208-0.209l0.287,0.063
					c0.303,0.067,0.854,0.261,1.224,0.391c0.174,0.062,0.303,0.108,0.334,0.114l-0.011,0.172c-0.026,0-0.053-0.009-0.381-0.124
					c-0.266-0.093-0.626-0.22-0.917-0.308c0.007,0.008,0.012,0.016,0.02,0.021c0.322,0.364,0.654,0.738,1.447,0.896L418.318,312.633
					L418.318,312.633z M418.525,311.289c-0.041-0.033-0.309-0.137-0.545-0.229c-1.038-0.401-1.501-0.617-1.501-0.839v-0.118
					l0.114,0.037c0.517,0.17,1.115,0.342,1.67,0.2l0.043,0.167c-0.468,0.117-0.946,0.037-1.39-0.088
					c0.321,0.168,0.85,0.374,1.125,0.48c0.526,0.203,0.594,0.236,0.624,0.295L418.525,311.289L418.525,311.289z"/>
			</g>
			<path clip-path="url(#SVGID_4_)" fill-rule="evenodd" clip-rule="evenodd" fill="#F3C033" d="M414.192,300.772
				c0,0-2.121,1.818,0,2.88c0.101-0.707,0.253-0.808,0.253-0.808s1.768,0.657,2.826-0.911c-0.454-0.656-1.261-0.404-1.261-0.404
				S414.344,301.529,414.192,300.772L414.192,300.772z"/>
			<g clip-path="url(#SVGID_4_)">
				<path fill="#010101" d="M426.189,311.904l-0.076-0.155c0.068-0.048,0.15-0.491,0.18-0.949v-0.001
					c-0.034-0.071-0.165-0.316-0.243-0.463l-0.4,0.495c0.001,0.222-0.06,0.859-0.251,0.959l-0.078-0.153
					c0.066-0.045,0.148-0.449,0.177-0.865l0.009-0.012l-0.009,0.002c-0.009-0.046-0.104-0.312-0.156-0.456
					c-0.213,0.128-0.466,0.319-0.494,0.433c-0.017,0.068-0.032,0.172-0.048,0.285c-0.055,0.389-0.098,0.629-0.23,0.683l-0.065-0.161
					c0.056-0.041,0.103-0.383,0.125-0.547c0.017-0.119,0.032-0.229,0.052-0.301c0.008-0.032,0.021-0.063,0.042-0.096l-0.046-0.005
					c0.02-0.185,0.004-0.388-0.033-0.417c-0.137,0.017-0.848,0.672-0.873,1.252l-0.172-0.007c0.014-0.26,0.146-0.54,0.316-0.781
					l-0.892-0.135l0.027-0.169l0.984,0.148c0.233-0.281,0.495-0.479,0.614-0.479h0.039l0.086,0.057
					c0.07,0.081,0.086,0.245,0.084,0.378c0.177-0.162,0.421-0.303,0.488-0.34l0.086-0.048l0.035,0.095
					c0.084,0.228,0.133,0.367,0.161,0.452l0.329-0.427c-0.082-0.023-0.156-0.062-0.215-0.111c-0.08-0.066-0.125-0.146-0.135-0.232
					c-0.264,0.03-0.463-0.026-0.61-0.158c-0.057-0.052-0.103-0.111-0.138-0.174c-0.096,0.003-0.575,0.029-0.575,0.029l-0.009-0.172
					c0,0,0.344-0.018,0.512-0.026c-0.057-0.173-0.061-0.345-0.059-0.434c-0.299-0.007-0.363,0.001-0.377,0.006l-0.002-0.006
					l-0.003,0.032l-0.114-0.111c0.009-0.088,0.012-0.109,0.702-0.087c0.193,0.01,0.362-0.052,0.483-0.171
					c0.262-0.258,0.251-0.729,0.251-0.732l0.172-0.006c0,0.023,0.012,0.55-0.302,0.861c-0.155,0.154-0.361,0.232-0.609,0.22
					c-0.011,0-0.021,0-0.029,0c-0.002,0.124,0.009,0.459,0.213,0.642c0.14,0.124,0.348,0.158,0.624,0.099
					c0.726-0.528,0.776-1.085,0.808-1.418c0.01-0.094,0.016-0.169,0.035-0.229c0.057-0.171-0.199-0.26-0.202-0.26l0.056-0.164
					c0.111,0.039,0.285,0.143,0.322,0.307c0.082-0.044,0.365-0.176,0.582-0.072c0.109,0.055,0.182,0.153,0.218,0.3
					c0.106-0.068,0.321-0.179,0.519-0.118c0.119,0.04,0.209,0.134,0.264,0.28c0.1-0.038,0.348-0.105,0.539,0.058l-0.112,0.131
					c-0.136-0.117-0.335-0.043-0.381-0.021c0.071,0.492-0.233,1.305-0.507,1.713c-0.112,0.166-0.209,0.25-0.297,0.261l-0.02-0.172
					c0.018-0.003,0.09-0.052,0.204-0.231c0.25-0.399,0.55-1.206,0.433-1.619c-0.037-0.13-0.096-0.208-0.176-0.233
					c-0.152-0.053-0.359,0.079-0.425,0.135l-0.02-0.024c0.034,0.596-0.446,1.504-0.86,1.807l0.021-0.012
					c0.15,0.318,0.589,0.285,0.671,0.266l0.04,0.168c-0.078,0.017-0.326,0.039-0.549-0.058l0.172,0.251l0.505-0.043l0.015,0.17
					l-0.506,0.045l0.061,0.793l-0.172,0.012l-0.06-0.939l-0.147-0.186l-0.328,0.33C426.443,311.18,426.378,311.811,426.189,311.904
					L426.189,311.904z M426.181,310.213c0.062,0.115,0.176,0.334,0.237,0.452l0.312-0.335c-0.055-0.049-0.104-0.109-0.141-0.187
					c-0.003,0.001-0.004,0.001-0.008,0.003C426.455,310.196,426.315,310.221,426.181,310.213L426.181,310.213z M426.082,310.029
					c0.129,0.025,0.285,0.018,0.437-0.043c0.38-0.154,0.962-1.225,0.881-1.779c-0.019-0.127-0.063-0.21-0.135-0.244
					c-0.142-0.068-0.37,0.033-0.446,0.076l-0.057-0.095c0,0.032-0.006,0.068-0.019,0.106c-0.015,0.041-0.021,0.109-0.026,0.19
					c-0.031,0.339-0.089,0.968-0.912,1.558c-0.01,0.001-0.018,0.002-0.026,0.006c0.001,0.045,0.026,0.089,0.074,0.127
					c0.051,0.045,0.13,0.078,0.224,0.097l0.004-0.004L426.082,310.029L426.082,310.029z M420.579,311.229l-0.142-0.095
					c0.26-0.391-0.016-0.708-0.029-0.72l0.129-0.115C420.67,310.443,420.85,310.826,420.579,311.229L420.579,311.229z
					 M414.26,303.783l-0.105-0.054c-0.594-0.297-0.926-0.685-0.982-1.149c-0.113-0.938,0.921-1.835,0.965-1.874l0.112-0.095
					l0.028,0.144c0.112,0.563,1.29,0.688,1.733,0.688c-0.009-0.002,0.85-0.256,1.333,0.442c-1.016,1.594-2.682,1.122-2.904,1.048
					c0.012,0.039-0.088,0.213-0.162,0.732L414.26,303.783L414.26,303.783z M414.152,300.927c-0.25,0.243-0.894,0.944-0.81,1.632
					c0.047,0.379,0.31,0.701,0.784,0.963c0.097-0.59,0.23-0.721,0.27-0.75c0.009,0.002,0.025,0.006,0.046,0.011l-0.003-0.003
					l1.361-1.175C415.349,301.579,414.396,301.457,414.152,300.927L414.152,300.927z M414.645,302.829
					c0.531,0.112,1.75,0.255,2.557-0.943c-0.414-0.5-1.156-0.276-1.164-0.274c-0.007,0.002-0.022,0.002-0.051,0l0.029,0.035
					L414.645,302.829L414.645,302.829z"/>
			</g>
			<path clip-path="url(#SVGID_4_)" fill-rule="evenodd" clip-rule="evenodd" fill="#FFFFFF" d="M414.262,300.786L414.262,300.786
				c0,0,0.283-0.284,0.369-0.624c0.086-0.341-0.115-0.709,0.227-1.02c0.341-0.315,4.824-2.213,5.191-2.583
				c0.369-0.37,1.052-1.165,1.139-1.335c0.082-0.169,0.341,0.854-0.43,1.304c0.824-0.225,1.367-0.481,1.702-0.367
				c-0.335,0.482-1.245,1.276-1.673,1.276c0.995-0.368,1.902-0.681,2.156-0.483c0.258,0.2-1.219,1.192-1.816,1.249
				c0.998-0.253,2.33-0.651,2.498-0.226c-0.537,0.169-0.367,0.312-1.473,0.937c-0.143,0.113-0.852,0.142-0.852,0.142
				c0.852-0.085,2.012-0.426,2.125,0.199c-0.679,0.254-0.935,0.598-1.503,0.739c-0.567,0.142-1.874,0.397-2.665,0.708
				c-0.795,0.313-1.96,1.221-1.96,1.221s-2.526,0.087-2.526,0.057C414.771,301.951,414.289,300.817,414.262,300.786L414.262,300.786
				z"/>
			<g clip-path="url(#SVGID_4_)">
				<path fill="#010101" d="M414.922,302.072c-0.167,0-0.235,0-0.235-0.093c-0.022-0.065-0.454-1.077-0.495-1.145
					c-0.03-0.034-0.021-0.077,0.01-0.108c0.002-0.003,0.267-0.274,0.346-0.585c0.027-0.105,0.023-0.217,0.02-0.335
					c-0.009-0.233-0.02-0.498,0.234-0.728c0.158-0.146,1.011-0.547,2.395-1.188c1.223-0.565,2.608-1.208,2.793-1.392
					c0.373-0.374,1.044-1.159,1.122-1.314c0.015-0.029,0.065-0.065,0.097-0.065c0.098,0,0.131,0.124,0.143,0.165
					c0.07,0.257,0.045,0.706-0.234,1.051c0.086-0.025,0.168-0.051,0.248-0.077c0.503-0.158,0.872-0.264,1.125-0.178
					c0.025,0.009,0.045,0.029,0.055,0.054c0.008,0.025,0.004,0.054-0.012,0.077c-0.154,0.22-0.449,0.53-0.768,0.794
					c0.564-0.179,1.043-0.266,1.233-0.119c0.024,0.02,0.065,0.129,0.06,0.161c-0.031,0.206-0.443,0.537-0.884,0.804
					c0.782-0.177,1.411-0.211,1.532,0.095c0.008,0.023,0.008,0.047-0.002,0.068c-0.01,0.023-0.029,0.039-0.053,0.045
					c-0.247,0.078-0.332,0.149-0.487,0.277c-0.135,0.112-0.312,0.257-0.667,0.476c0.089-0.008,0.174-0.013,0.254-0.013
					c0.168,0,0.68,0,0.762,0.439c0.007,0.041-0.018,0.083-0.055,0.097c-0.312,0.116-0.529,0.25-0.738,0.379
					c-0.237,0.146-0.461,0.284-0.774,0.362l-0.501,0.117c-0.654,0.148-1.552,0.352-2.154,0.588
					c-0.775,0.304-1.928,1.199-1.939,1.208C417.301,302.008,415.467,302.072,414.922,302.072L414.922,302.072z M414.834,301.898
					c0.359,0.006,2.461-0.062,2.461-0.062c-0.003-0.019,1.133-0.9,1.932-1.214c0.613-0.24,1.518-0.445,2.18-0.595l0.497-0.115
					c0.286-0.072,0.489-0.197,0.724-0.342c0.191-0.118,0.407-0.25,0.697-0.365c-0.047-0.119-0.174-0.231-0.574-0.231
					c-0.195,0-0.418,0.027-0.645,0.058c-0.211,0.087-0.779,0.111-0.802,0.111c-0.073,0.001-0.085-0.033-0.088-0.08
					c-0.005-0.047,0.03-0.086,0.077-0.091c0.173-0.017,0.359-0.045,0.548-0.074l0.239-0.036c0.584-0.334,0.809-0.521,0.974-0.658
					c0.136-0.111,0.23-0.19,0.427-0.266c-0.254-0.158-1.219,0.061-2.015,0.269c-0.124,0.045-0.237,0.075-0.329,0.083
					c-0.041,0.015-0.086-0.027-0.094-0.071s0.02-0.086,0.063-0.098l0.297-0.077c0.679-0.25,1.499-0.879,1.484-1.028
					c-0.021-0.013-0.077-0.036-0.192-0.036c-0.332,0-0.938,0.199-1.426,0.374c-0.186,0.111-0.354,0.169-0.482,0.169
					c-0.043,0-0.077-0.03-0.086-0.071c-0.007-0.04,0.018-0.081,0.056-0.095l0.454-0.165c0.393-0.232,0.849-0.658,1.099-0.972
					c-0.204-0.003-0.512,0.081-0.896,0.202c-0.189,0.06-0.4,0.126-0.633,0.19c-0.04,0.01-0.086-0.01-0.102-0.049
					c-0.017-0.04-0.001-0.085,0.035-0.108c0.316-0.185,0.432-0.469,0.473-0.673c0.051-0.262,0.002-0.472-0.025-0.509
					c0.008,0.175-0.686,0.981-1.052,1.348c-0.192,0.192-1.25,0.689-2.841,1.426c-1.082,0.5-2.202,1.019-2.353,1.158
					c-0.194,0.178-0.188,0.371-0.179,0.595c0.004,0.125,0.008,0.254-0.023,0.384c-0.074,0.284-0.27,0.527-0.354,0.622
					C414.463,301.027,414.749,301.667,414.834,301.898L414.834,301.898z"/>
			</g>
			<g clip-path="url(#SVGID_4_)">
				<path fill="#010101" d="M415.539,300.593l-0.17-0.008c0-0.025,0.032-0.611,0.314-0.831c0.092-0.071,0.287-0.167,0.537-0.289
					c0.457-0.224,1.084-0.531,1.259-0.795c0.071-0.105,0.112-0.159,0.183-0.121c0.073,0.042,0.052,0.089-0.023,0.243
					c-0.092,0.192-0.377,0.777-0.315,0.945l-0.162,0.058c-0.057-0.158,0.037-0.446,0.179-0.77c-0.301,0.23-0.701,0.426-1.043,0.594
					c-0.064,0.033-0.127,0.062-0.184,0.091c0.235,0.125,0.525,0.386,0.414,0.763l-0.164-0.048c0.116-0.399-0.406-0.598-0.43-0.606
					l0.009-0.02c-0.068,0.036-0.122,0.067-0.153,0.092C415.605,300.032,415.547,300.445,415.539,300.593L415.539,300.593z"/>
			</g>
			<g clip-path="url(#SVGID_4_)">
				<path fill="#010101" d="M416.232,300.607c-0.3,0-0.543-0.243-0.543-0.543c0-0.301,0.243-0.545,0.543-0.545
					c0.299,0,0.543,0.244,0.543,0.545C416.775,300.364,416.531,300.607,416.232,300.607L416.232,300.607z M416.232,299.668
					c-0.218,0-0.395,0.178-0.395,0.396c0,0.217,0.177,0.394,0.395,0.394c0.217,0,0.395-0.176,0.395-0.394
					C416.627,299.846,416.449,299.668,416.232,299.668L416.232,299.668z"/>
			</g>
			<path clip-path="url(#SVGID_4_)" fill-rule="evenodd" clip-rule="evenodd" fill="#FFFFFF" d="M435.914,299.056l4.91,0.938
				c0,0,0.538-0.625,0.254-0.966c0.737-0.169,0.539-1.133,0.539-1.133s0.85-0.37,0.141-1.223c0.485-0.481-0.111-0.85-0.111-0.85
				s0.195-0.851-0.426-0.936c0.167-0.682-1.08-0.908-1.08-0.908s-2.582,0.708-4.398,0.764c0.597,0.598-0.227,0.964-0.227,0.964
				s0.482,0.341,0.34,0.626c-0.142,0.284,0.086,0.597-0.536,0.794c0.823,0.369-0.087,0.993-0.087,0.993
				S436.143,298.745,435.914,299.056L435.914,299.056z"/>
			<g clip-path="url(#SVGID_4_)">
				<path fill="#010101" d="M430.461,306.211c-0.818-0.848-0.518-2.18-0.503-2.235l0.166,0.038
					c-0.003,0.014-0.291,1.299,0.462,2.077L430.461,306.211L430.461,306.211z M429.115,305.767c-0.022-0.04-0.035-0.108,0.01-0.647
					l0.178-0.076l-0.007,0.09c-0.026,0.332-0.036,0.521-0.025,0.562L429.115,305.767L429.115,305.767z M427.94,305.447
					c-0.649-0.588-0.212-1.439-0.14-1.568c-0.261-0.516,0.271-1.237,0.296-1.271l0.037,0.027c-0.128-0.527,0.292-1.302,0.374-1.445
					c-0.084-0.116-0.174-0.25-0.27-0.391c-0.16-0.241-0.326-0.49-0.479-0.666c-0.318-0.367-1.575-0.501-1.752-0.509l0.001-0.034
					c-0.084,0.179-0.308,0.273-0.335,0.284l-1.561,0.091l-0.01-0.172l1.533-0.085c0.037-0.02,0.205-0.112,0.227-0.228
					c0.012-0.065-0.025-0.138-0.113-0.219l0.118-0.126c0.112,0.104,0.169,0.21,0.171,0.318c0.205,0.017,1.479,0.139,1.851,0.565
					c0.156,0.182,0.328,0.438,0.493,0.683c0.211,0.318,0.434,0.646,0.562,0.72c0.064,0.035,0.117,0.048,0.152,0.035l0.201,0.007
					c-0.003,0.011-0.034,0.109-0.137,0.151c-0.084,0.035-0.185,0.021-0.301-0.043c-0.071-0.04-0.154-0.123-0.242-0.232
					c-0.211,0.396-0.553,1.236-0.15,1.506l-0.096,0.143c-0.083-0.056-0.146-0.127-0.186-0.207c-0.139,0.211-0.5,0.848-0.107,1.176
					l-0.111,0.132c-0.02-0.019-0.039-0.035-0.057-0.054c-0.109,0.223-0.347,0.841,0.144,1.285L427.94,305.447L427.94,305.447z
					 M431.39,305.007c-0.739-0.386-0.943-1.407-0.952-1.45l0.171-0.033c0,0.01,0.196,0.984,0.86,1.33L431.39,305.007L431.39,305.007
					z M427.378,304.648l-0.411-0.279l0.098-0.143l0.41,0.28L427.378,304.648L427.378,304.648z M432.026,303.719
					c-0.017-0.149-0.39-0.484-0.647-0.676l0.101-0.139c0.114,0.084,0.688,0.519,0.718,0.797L432.026,303.719L432.026,303.719z
					 M427.418,303.276c-0.238,0-0.466-0.222-0.494-0.25l0.122-0.12c0.062,0.062,0.261,0.225,0.4,0.195l0.028,0.17
					C427.455,303.275,427.437,303.276,427.418,303.276L427.418,303.276z M433.256,303.214c-0.631,0-1.412-0.515-1.448-0.538
					l0.097-0.143c0.008,0.006,0.92,0.602,1.497,0.498l0.031,0.167C433.376,303.209,433.316,303.214,433.256,303.214L433.256,303.214
					z M432.855,302.234c-0.763,0-1.318-0.248-1.35-0.262l0.072-0.158c0.01,0.004,0.926,0.412,1.988,0.168l0.038,0.168
					C433.342,302.209,433.089,302.234,432.855,302.234L432.855,302.234z M426.848,302.043c-0.045,0-0.086-0.007-0.123-0.025
					l0.078-0.153c0.144,0.074,0.691-0.271,0.779-0.349l0.123,0.121C427.699,301.642,427.174,302.043,426.848,302.043
					L426.848,302.043z M432.414,301.267c-0.793,0-1.354-0.475-1.383-0.5l0.113-0.129c0.007,0.007,0.801,0.675,1.793,0.378
					l0.049,0.167C432.787,301.24,432.594,301.267,432.414,301.267L432.414,301.267z M440.889,300.05l-5.123-0.936l0.079-0.109
					c0.011-0.016,0.025-0.042,0.017-0.091c-0.037-0.223-0.444-0.557-0.641-0.698l-0.022,0.023c-0.104-0.084-1.243-0.358-2.281-0.574
					l0.036-0.169c0.448,0.094,1.786,0.379,2.232,0.551c0.117-0.081,0.41-0.334,0.391-0.548c-0.01-0.112-0.106-0.21-0.291-0.292
					v0.035c0,0-1.483-0.057-1.529-0.057l0.002-0.172c0.024,0,1.175,0.042,1.467,0.054l0.068-0.023
					c0.327-0.104,0.385-0.229,0.406-0.382c-0.229-0.363-1.846-0.397-2.873-0.33l-0.012-0.172c0.252-0.017,2.314-0.135,2.914,0.29
					c0.008-0.051,0.025-0.105,0.051-0.156c0.082-0.169-0.176-0.414-0.295-0.504l-0.035,0.028c-0.158-0.111-2.061-0.243-3.768-0.308
					l0.006-0.172c0.992,0.038,3.174,0.139,3.757,0.305l0.035-0.016c0.005-0.001,0.343-0.156,0.388-0.405
					c0.024-0.13-0.038-0.272-0.186-0.42l-0.141-0.141l0.199-0.006c1.783-0.055,4.352-0.754,4.379-0.761
					c0.07,0.004,0.842,0.148,1.109,0.562c0.074,0.112,0.103,0.231,0.092,0.359c0.131,0.036,0.236,0.109,0.312,0.219
					c0.164,0.239,0.133,0.587,0.11,0.734c0.001,0.001,0.003,0.001,0.003,0.003l-0.003,0.001c-0.003,0.02-0.006,0.036-0.009,0.047
					c0.028-0.021,0.268,0.155,0.295,0.411c0.02,0.152-0.035,0.301-0.158,0.443c0.215,0.278,0.295,0.538,0.236,0.777
					c-0.063,0.27-0.285,0.426-0.396,0.489c0.054,0.354,0.005,0.947-0.503,1.136C441.379,299.472,440.91,300.025,440.889,300.05
					L440.889,300.05z M436.032,298.991l4.808,0.919c0.055-0.131,0.366-0.594,0.173-0.827l-0.073-0.089
					c-0.217-0.193-0.805-0.391-0.967-0.391c-0.201,0-4.372-0.49-4.551-0.51l0.002-0.017c-0.017,0.014-0.033,0.028-0.048,0.042
					c0.196,0.146,0.608,0.484,0.656,0.768C436.038,298.922,436.038,298.957,436.032,298.991L436.032,298.991z M435.562,297.935
					c1.282,0.15,4.257,0.496,4.41,0.496c0.193,0,0.914,0.225,1.143,0.498c0.492-0.155,0.455-0.751,0.428-0.952l-5.886-0.138
					l0.001-0.034C435.629,297.851,435.598,297.896,435.562,297.935L435.562,297.935z M436.012,297.675l5.59,0.129
					c0.067-0.034,0.286-0.163,0.34-0.393c0.04-0.173-0.017-0.371-0.173-0.587C440.981,297.31,437.22,297.596,436.012,297.675
					L436.012,297.675z M435.521,297.141c0.139,0.095,0.215,0.21,0.227,0.342c0,0.011,0.002,0.024,0.002,0.036
					c2.076-0.126,5.319-0.451,5.915-0.826l-0.024-0.028l0.057-0.055c0.121-0.121,0.176-0.24,0.162-0.357
					c-0.022-0.21-0.256-0.356-0.258-0.359c-0.002-0.005-0.004-0.014-0.006-0.024c-0.242,0.004-3.508,0.335-5.688,0.571
					c-0.015,0.053-0.021,0.105-0.025,0.162C435.861,296.785,435.84,296.989,435.521,297.141L435.521,297.141z M435.686,295.735
					c0.128,0.116,0.305,0.319,0.281,0.527c4.115-0.445,5.281-0.521,5.625-0.523c0.005-0.172,0.018-0.435-0.102-0.606
					c-0.062-0.092-0.154-0.145-0.281-0.162l-0.096-0.013l0.002-0.006C440.497,295.007,437.627,295.431,435.686,295.735
					L435.686,295.735z M435.922,294.821c0.104,0.145,0.142,0.29,0.116,0.433c-0.021,0.106-0.075,0.198-0.141,0.274
					c3.59-0.562,4.817-0.698,5.247-0.702c0.016-0.099-0.004-0.19-0.06-0.275c-0.228-0.352-0.952-0.487-0.958-0.489
					C440.138,294.068,437.715,294.728,435.922,294.821L435.922,294.821z M432.529,299.252l-0.046-0.166
					c0.449-0.123,0.714-0.144,0.796-0.061l-0.123,0.122C433.1,299.124,432.786,299.181,432.529,299.252L432.529,299.252z
					 M429.482,298.875c-0.541,0-0.816-0.22-0.834-0.237l0.048-0.057c-0.641,0.152-1.131-0.097-1.14-0.101l0.015-0.024
					c-0.266,0.116-0.531,0.167-0.792,0.145c-0.802-0.062-1.276-0.746-1.297-0.776l0.015-0.008c-0.327-0.003-0.646-0.065-0.932-0.189
					c-0.362-0.156-0.616-0.388-0.683-0.62c-0.052-0.246,0.089-0.339,0.192-0.409c0.115-0.075,0.197-0.13,0.149-0.363
					c-0.086-0.625-1.342-0.827-1.946-0.924c-0.183-0.03-0.278-0.045-0.329-0.063c-0.156-0.059-0.421-0.378-0.613-0.634
					c0.056,0.233,0.077,0.463,0.051,0.676l-0.171-0.021c0.161-1.249-1.554-3.146-1.571-3.165l0.128-0.116
					c0.054,0.061,1.037,1.149,1.447,2.249l0.038-0.025c0.212,0.31,0.604,0.821,0.75,0.875c0.039,0.014,0.16,0.034,0.299,0.057
					c0.645,0.103,1.986,0.318,2.086,1.064c0.073,0.34-0.098,0.453-0.223,0.536c-0.098,0.065-0.147,0.098-0.119,0.225
					c0.049,0.172,0.275,0.371,0.582,0.503c0.657,0.283,1.484,0.22,2.215-0.165l0.082,0.151c-0.398,0.211-0.824,0.33-1.239,0.356
					c0.147,0.176,0.541,0.575,1.104,0.618c0.535,0.043,1.089-0.247,1.648-0.852l0.127,0.116c-0.277,0.298-0.555,0.526-0.832,0.676
					c0.342,0.125,1.455,0.379,2.426-1.231l0.146,0.088c-0.486,0.811-1.021,1.175-1.489,1.32c0.198,0.112,0.868,0.375,2.028-0.247
					l0.082,0.152C430.327,298.776,429.844,298.875,429.482,298.875L429.482,298.875z M430.786,295.297l-0.141-0.099
					c0.257-0.364,0.61-0.489,0.894-0.588c0.194-0.069,0.365-0.128,0.45-0.247c0.146-0.146,0.208-0.266,0.187-0.358
					c-0.018-0.072-0.083-0.121-0.127-0.145l0,0c-0.025-0.014-0.045-0.022-0.045-0.022l0.01-0.03l-0.014-0.02l-0.021,0.083
					c-0.174-0.048-0.324,0.054-0.406,0.131l0.017,0.105c-0.059,0.27-0.497,0.618-1.309,1.039l-0.079-0.152
					c0.935-0.484,1.154-0.767,1.205-0.887l-0.006-0.002c-0.015-0.006-0.314-0.123-0.596,0.133l-0.051,0.045l0.014,0.02
					c-0.031,0.022-0.759,0.577-1.389,0.845l-0.068-0.158c0.584-0.25,1.279-0.77,1.348-0.821c-0.112-0.145-0.316-0.155-0.383-0.147
					h-0.01c-0.37,0.3-1.316,1.036-1.623,0.984l0.033-0.169c0.151,0.034,0.901-0.479,1.516-0.975c0-0.071-0.012-0.17-0.072-0.226
					c-0.053-0.051-0.146-0.062-0.277-0.035l-0.009,0.001c-0.168,0.118-0.614,0.38-1.788,1.064l-0.088-0.149
					c0.631-0.365,1.561-0.911,1.787-1.057c0.031-0.276-0.01-0.467-0.121-0.556c-0.165-0.132-0.453-0.024-0.458-0.022l0.015,0.022
					l-2.119,1.312l-0.09-0.145l2.081-1.29c0.015-0.068,0.031-0.261-0.063-0.344c-0.089-0.081-0.261-0.045-0.391-0.003l-0.021,0.007
					c-0.215,0.15-0.853,0.522-2.741,1.568l-0.086-0.152c0.984-0.542,2.445-1.361,2.738-1.556c0.015-0.167-0.017-0.297-0.098-0.383
					c-0.107-0.118-0.278-0.135-0.335-0.136c-0.001,0.002-0.003,0.005-0.005,0.008c-0.595,0.453-2.954,1.634-3.054,1.684
					l-0.077-0.154c0.026-0.013,2.447-1.224,3.004-1.635c0.068-0.185,0.07-0.353-0.025-0.467c-0.154-0.182-0.52-0.196-0.643-0.19
					c-0.034,0.109-0.092,0.222-0.17,0.33c-0.598,0.172-2.03,1.058-2.643,1.438c-0.29,0.181-0.29,0.181-0.321,0.181l-0.034-0.165
					c0.023-0.011,0.119-0.071,0.264-0.162c0.62-0.382,2.068-1.28,2.643-1.425c0.134-0.217,0.182-0.49,0.072-0.663
					c-0.089-0.144-0.273-0.198-0.51-0.152l-0.01-0.05c-0.163,0.263-0.425,0.49-0.605,0.554c-0.406,0.145-3.035,1.503-3.061,1.517
					l-0.08-0.153c0.108-0.055,2.665-1.376,3.083-1.526c0.235-0.083,0.692-0.58,0.64-0.892c-0.041-0.234-0.387-0.284-0.668-0.284
					v-0.034c-1.049,0.443-3.271,1.584-3.807,1.928c-0.631,0.412-1.395,0.02-1.426,0.004l0.08-0.152
					c0.007,0.001,0.705,0.361,1.252,0.003c0.625-0.4,3.502-1.862,4.232-2.095c0.697-0.225,1.109-1.577,1.253-2.148l0.168,0.042
					c-0.105,0.414-0.284,0.996-0.553,1.472l4.056-1.188c-0.012,0,0.627-0.551,0.656-1.531l0.17,0.005
					c-0.011,0.42-0.125,0.765-0.261,1.03c0.708-0.088,3.97-0.564,3.97-1.867h0.172c0,0.368-0.215,0.675-0.547,0.927
					c1.342-0.371,4.232-1.223,4.545-1.555l0.125,0.116c-0.408,0.436-4.133,1.47-4.787,1.651c0.201,0.195,0.287,0.391,0.264,0.589
					l4.26-1.189l0.045,0.167l-4.361,1.217c-0.006,0.01-0.011,0.021-0.017,0.033c0.077,0.027,0.235,0.105,0.312,0.284
					c0.048,0.116,0.054,0.253,0.015,0.405l3.674-1.12l0.049,0.165l-3.794,1.158c-0.009,0.017-0.017,0.034-0.026,0.051
					c0.094,0.051,0.281,0.179,0.307,0.382c0.005,0.05,0.001,0.098-0.014,0.148l3.15-0.949l0.049,0.165l-3.324,1.001
					c-0.012,0.011-0.021,0.022-0.031,0.034c0.07,0.022,0.327,0.126,0.381,0.354c0.008,0.026,0.012,0.054,0.012,0.081
					c0.914-0.281,2.23-0.682,2.312-0.682l0.006,0.172c-0.102,0.014-1.424,0.415-2.363,0.705c-0.033,0.075-0.088,0.153-0.161,0.233
					l0.075-0.027c0.139,0.051,0.33,0.12,0.373,0.274l1.499-0.604l0.065,0.159l-1.551,0.625l-0.015-0.038
					c-0.034,0.122-0.149,0.256-0.354,0.415c-0.729,0.328-2.355,0.972-2.721,1.117l-0.144,0.239c0.076,0.02,0.16,0.064,0.212,0.153
					c0.031,0.056,0.046,0.12,0.04,0.192c0.119-0.047,1.57-0.611,2.25-0.979c0.222-0.141,0.355-0.294,0.378-0.441
					c0.02-0.123-0.044-0.203-0.044-0.203l0.132-0.111c0.003,0.005,0.079,0.098,0.088,0.246c1.23-0.544,1.287-0.544,1.31-0.544
					l0.012,0.17c-0.08,0.019-0.853,0.354-1.321,0.561l-0.017-0.041c-0.045,0.167-0.176,0.325-0.393,0.474
					c0.046,0.045,0.103,0.121,0.105,0.225c0.004,0.131-0.08,0.257-0.248,0.378c-0.107,0.054-0.28,0.142-0.484,0.25
					c0.062,0.054,0.127,0.149,0.102,0.291l-0.169-0.028c0.019-0.102-0.056-0.141-0.069-0.146l0.025-0.06
					c-0.623,0.323-1.463,0.763-1.705,0.89c-0.002,0.004-0.002,0.007-0.006,0.008l-0.002-0.003c-0.037,0.019-0.059,0.03-0.059,0.03
					l-1.062,0.698c0.06,0.047,0.12,0.115,0.141,0.21c0.036,0.154-0.041,0.324-0.223,0.507c-0.108,0.15-0.31,0.222-0.522,0.297
					C431.322,294.868,431.012,294.978,430.786,295.297L430.786,295.297z M430.51,293.867c0.086,0.017,0.176,0.05,0.238,0.109
					c0.017,0.016,0.032,0.034,0.045,0.054c0.25-0.167,0.498-0.133,0.611-0.105c0.085-0.092,0.298-0.283,0.579-0.23l1.193-0.784
					c0,0,0.003,0,0.006-0.003c-0.005-0.111-0.04-0.167-0.1-0.21v0.012C432.969,292.727,431.146,293.399,430.51,293.867
					L430.51,293.867z M429.967,293.414c0.111,0,0.204,0.034,0.272,0.099c0.077,0.073,0.106,0.17,0.118,0.256
					c0.553-0.435,2.242-1.097,2.641-1.214l0.006-0.009c0.235-0.352,0.217-0.501,0.184-0.558c-0.047-0.087-0.199-0.083-0.198-0.085
					l-0.104,0.004l-2.961,1.287c0.006,0.068,0.004,0.142-0.003,0.223C429.937,293.415,429.952,293.414,429.967,293.414
					L429.967,293.414z M429.404,292.667c0.107,0,0.227,0.024,0.326,0.103c0.075,0.06,0.129,0.144,0.162,0.25l3.061-1.312
					l0.136-0.291c0.003-0.001,0.007-0.004,0.015-0.007c-0.03-0.075-0.131-0.25-0.526-0.345l-0.024-0.006
					c-0.105,0.097-0.289,0.23-0.526,0.303c-0.355,0.106-2.499,0.983-2.818,1.115c0.022,0.071,0.028,0.146,0.025,0.208
					C429.281,292.676,429.342,292.667,429.404,292.667L429.404,292.667z M433.195,292.567c0.092,0.065,0.15,0.144,0.172,0.23
					c0,0.004,0,0.008,0.003,0.013c0.491-0.257,1.788-0.936,2.172-1.129c0.106-0.077,0.167-0.156,0.167-0.226
					c-0.004-0.077-0.084-0.132-0.084-0.132l0.008-0.016c-0.746,0.389-2.184,0.943-2.2,0.949l-0.054-0.144
					C433.367,292.237,433.307,292.388,433.195,292.567L433.195,292.567z M428.836,292.219c0.11,0,0.2,0.03,0.268,0.092
					c0.006,0.004,0.012,0.01,0.016,0.016c0.246-0.101,2.48-1.016,2.855-1.129c0.271-0.083,0.463-0.258,0.545-0.341
					c-0.02-0.324-0.359-0.573-0.469-0.644c-0.008,0.071-0.055,0.2-0.146,0.27c-0.113,0.085-2.484,0.882-3.506,1.225
					c0.042,0.024,0.082,0.055,0.119,0.095c0.1,0.11,0.148,0.256,0.147,0.438C428.727,292.226,428.783,292.219,428.836,292.219
					L428.836,292.219z M428.113,291.616c0.005,0,0.01,0.001,0.012,0.001l0,0c1.41-0.47,3.552-1.197,3.68-1.274
					c0.06-0.047,0.1-0.19,0.111-0.269c0.006-0.007,0.027-0.017,0.064-0.033c0.003-0.1-0.032-0.325-0.33-0.544l-0.046-0.033
					c-0.069,0.075-0.192,0.182-0.368,0.28c-0.284,0.153-2.853,0.888-3.695,1.126c0.16,0.027,0.332,0.085,0.451,0.197
					C428.094,291.167,428.188,291.338,428.113,291.616L428.113,291.616z M432.717,290.925c0.357,0.109,0.488,0.291,0.535,0.42
					c0.494-0.209,1.979-0.798,2.65-1.098c0.27-0.212,0.286-0.32,0.28-0.355c-0.013-0.075-0.166-0.13-0.269-0.167l-0.1-0.037
					l0.01-0.021c-0.002,0.001-0.004,0.003-0.005,0.004C435.12,290.095,433.1,290.794,432.717,290.925L432.717,290.925z
					 M432.208,290.11c0.151,0.109,0.417,0.343,0.474,0.654c0.501-0.182,2.396-0.845,3.033-1.229c0.09-0.088,0.154-0.172,0.187-0.249
					l-0.017-0.057c0.014-0.004,0.027-0.009,0.039-0.013c0.009-0.034,0.009-0.066,0-0.096c-0.037-0.161-0.275-0.234-0.277-0.234
					l0.037-0.132c-0.041,0.039-0.089,0.078-0.143,0.119C434.869,289.263,432.833,289.915,432.208,290.11L432.208,290.11z
					 M426.707,290.223c0.225,0,0.404,0.087,0.506,0.249c0.055,0.085,0.083,0.185,0.086,0.292c1.262-0.355,3.606-1.033,3.855-1.169
					c0.298-0.163,0.413-0.354,0.414-0.355c0.008-0.006,0.037-0.016,0.086-0.033c-0.009-0.269-0.217-0.499-0.307-0.597l-0.046-0.074
					l-4.634,1.57c-0.014,0.041-0.029,0.083-0.049,0.124C426.65,290.226,426.68,290.223,426.707,290.223L426.707,290.223z
					 M431.802,289.399c0.265,0.213,0.335,0.436,0.349,0.581c0.686-0.247,2.664-0.885,3.297-1.251
					c0.125-0.091,0.278-0.237,0.262-0.381c-0.015-0.139-0.187-0.236-0.238-0.261c-1.11,0.436-3.094,1.057-3.652,1.23
					C431.814,289.343,431.809,289.371,431.802,289.399L431.802,289.399z M426.148,289.424c0.395,0.061,0.517,0.247,0.543,0.408
					c0.005,0.027,0.008,0.054,0.008,0.081l4.557-1.517c0.008-0.074,0.134-0.423,0.037-0.618c-0.037-0.075-0.105-0.122-0.205-0.144
					l0.01-0.049l-4.117,1.211l-0.014-0.051c-0.198,0.31-0.439,0.555-0.729,0.647C426.212,289.402,426.182,289.413,426.148,289.424
					L426.148,289.424z M431.447,288.461c0.11,0.122,0.344,0.378,0.375,0.688c0.682-0.225,2.563-0.815,3.579-1.202
					c0.11-0.225,0.161-0.442,0.099-0.591c-0.064-0.156-0.234-0.199-0.234-0.2l0.012-0.057c-0.714,0.417-3.668,1.129-3.794,1.161
					l-0.015-0.059c-0.033,0.148-0.088,0.27-0.104,0.304h0.096h-0.088L431.447,288.461L431.447,288.461z M431.246,287.507
					c0.092,0.042,0.158,0.108,0.201,0.194c0.057,0.114,0.062,0.251,0.045,0.379c0.395-0.097,3.094-0.761,3.686-1.112
					c0.201-0.315-0.004-0.551-0.208-0.719l-0.046-0.05c-1.184,0.659-3.147,0.878-3.351,0.899
					C431.447,287.301,431.318,287.437,431.246,287.507L431.246,287.507z M435.947,291.476l-0.074-0.155l1.193-0.565l0.074,0.155
					L435.947,291.476L435.947,291.476z"/>
			</g>
		</g>
	</g>
</g>
</svg>
