<?xml version="1.0" encoding="utf-8"?>
<!-- Generator: Adobe Illustrator 16.0.0, SVG Export Plug-In . SVG Version: 6.00 Build 0)  -->
<!DOCTYPE svg PUBLIC "-//W3C//DTD SVG 1.1//EN" "http://www.w3.org/Graphics/SVG/1.1/DTD/svg11.dtd">
<svg version="1.1" id="Australian_Capital_Territory"
	 xmlns="http://www.w3.org/2000/svg" xmlns:xlink="http://www.w3.org/1999/xlink" x="0px" y="0px" width="100px" height="50px"
	 viewBox="0 0 100 50" enable-background="new 0 0 100 50" xml:space="preserve">
<g id="au-act">
	<rect x="300" y="251" fill="#EAAC2E" width="100" height="50"/>
	<rect x="300.061" y="251" fill="#313376" width="35.08" height="50"/>
	<g>
		<polygon fill="#FFFFFF" points="314.271,264.037 316.27,262.92 314.926,261.016 317.008,261.948 317.595,259.664 318.193,261.946 
			320.271,261.002 318.936,262.913 320.938,264.02 318.674,264.121 319.094,266.445 317.605,264.661 316.127,266.453 
			316.536,264.127 		"/>
		<polygon fill="#FFFFFF" points="323.41,272.648 325.335,271.532 324.04,269.628 326.047,270.562 326.613,268.277 327.189,270.559 
			329.191,269.614 327.904,271.525 329.834,272.632 327.652,272.734 328.057,275.059 326.624,273.273 325.198,275.066 
			325.592,272.739 		"/>
		<polygon fill="#FFFFFF" points="313.547,292.146 315.471,291.068 314.176,289.232 316.182,290.133 316.748,287.93 
			317.325,290.129 319.328,289.219 318.041,291.062 319.97,292.129 317.789,292.229 318.193,294.469 316.76,292.748 
			315.334,294.477 315.729,292.232 		"/>
		<polygon fill="#FFFFFF" points="304.551,275.217 306.475,274.179 305.18,272.411 307.186,273.277 307.752,271.156 
			308.328,273.275 310.33,272.398 309.043,274.173 310.973,275.201 308.792,275.295 309.196,277.454 307.764,275.797 
			306.338,277.461 306.731,275.3 		"/>
		<polygon fill="#FFFFFF" points="319.658,281.886 320.242,280.398 319.051,279.336 320.645,279.432 321.289,277.969 
			321.69,279.516 323.279,279.677 321.934,280.535 322.271,282.098 321.038,281.082 		"/>
	</g>
	<g>
		<g>
			<path fill="#313376" d="M361.698,269.871v9.625c0,4.812,6.198,7.219,7.392,7.219c1.194,0,6.916-2.406,6.916-7.219v-9.625H361.698
				z"/>
			<rect x="366.825" y="282.384" fill="#FFFFFF" width="4.173" height="0.097"/>
			<rect x="366.825" y="282.094" fill="#FFFFFF" width="4.173" height="0.096"/>
			<rect x="366.825" y="281.807" fill="#FFFFFF" width="4.173" height="0.094"/>
			<rect x="366.825" y="281.518" fill="#FFFFFF" width="4.173" height="0.097"/>
			<rect x="366.944" y="280.361" fill="#FFFFFF" width="4.175" height="0.097"/>
			<rect x="366.825" y="281.229" fill="#FFFFFF" width="4.173" height="0.097"/>
			<rect x="366.825" y="280.939" fill="#FFFFFF" width="4.173" height="0.096"/>
			<rect x="366.944" y="280.073" fill="#FFFFFF" width="4.175" height="0.095"/>
			<rect x="366.825" y="280.65" fill="#FFFFFF" width="4.173" height="0.097"/>
			<rect x="366.944" y="279.784" fill="#FFFFFF" width="4.175" height="0.095"/>
			<rect x="368.852" y="279.688" fill="#FFFFFF" width="0.119" height="2.888"/>
			<rect x="369.21" y="279.688" fill="#FFFFFF" width="0.119" height="2.888"/>
			<rect x="368.494" y="279.688" fill="#FFFFFF" width="0.118" height="2.888"/>
			<rect x="368.138" y="279.688" fill="#FFFFFF" width="0.117" height="2.888"/>
			<rect x="367.779" y="279.688" fill="#FFFFFF" width="0.119" height="2.888"/>
			<rect x="367.422" y="279.688" fill="#FFFFFF" width="0.119" height="2.888"/>
			<rect x="367.062" y="279.688" fill="#FFFFFF" width="0.119" height="2.888"/>
			<rect x="369.926" y="279.688" fill="#FFFFFF" width="0.119" height="2.888"/>
			<rect x="369.568" y="279.688" fill="#FFFFFF" width="0.119" height="2.888"/>
			<rect x="370.283" y="279.688" fill="#FFFFFF" width="0.117" height="2.888"/>
			<rect x="370.641" y="279.688" fill="#FFFFFF" width="0.119" height="2.888"/>
			<rect x="367.779" y="276.512" fill="#FFFFFF" stroke="#313376" stroke-width="0.3054" width="2.146" height="2.406"/>
			<rect x="365.633" y="278.811" fill="#313376" width="6.56" height="0.119"/>
			<path fill="#FFFFFF" stroke="#313376" stroke-width="0.2693" d="M366.922,282.573c0-2.087,1.48-2.845,1.947-2.823
				c0.431-0.021,1.945,0.736,1.98,2.834c0.413-0.01,1.46-0.01,1.46-0.01v-3.561h-7.034v3.561L366.922,282.573L366.922,282.573
				L366.922,282.573z"/>
			<polygon fill="#FFFFFF" stroke="#313376" stroke-width="0.2693" points="372.549,278.929 372.549,279.164 371.758,279.164 
				371.758,279.398 371.441,279.398 371.441,279.164 370.492,279.164 370.492,279.398 370.177,279.398 370.177,279.164 
				369.07,279.164 369.07,279.398 368.754,279.398 368.754,279.164 367.646,279.164 367.646,279.398 367.331,279.398 
				367.331,279.164 366.382,279.164 366.382,279.398 366.066,279.398 366.066,279.164 365.275,279.164 365.275,278.929 			"/>
			<polygon fill="#FFFFFF" stroke="#313376" stroke-width="0.2693" points="372.391,278.811 372.549,278.576 371.92,278.576 
				371.92,278.341 371.291,278.341 371.291,278.576 370.66,278.576 370.66,278.341 370.031,278.341 370.031,278.576 
				369.246,278.576 369.246,278.341 368.616,278.341 368.616,278.576 367.829,278.576 367.829,278.341 367.201,278.341 
				367.201,278.576 366.572,278.576 366.572,278.341 365.942,278.341 365.942,278.576 365.312,278.576 365.156,278.811 			"/>
			<rect x="362.891" y="281.421" fill="#FFFFFF" stroke="#313376" stroke-width="0.2693" width="3.575" height="1.443"/>
			<rect x="371.355" y="281.421" fill="#FFFFFF" stroke="#313376" stroke-width="0.2693" width="3.577" height="1.443"/>
			<polygon fill="#FFFFFF" stroke="#313376" stroke-width="0.2693" points="371.953,280.458 371.355,281.421 374.934,281.421 
				374.338,280.458 			"/>
			<polygon fill="#FFFFFF" stroke="#313376" stroke-width="0.2693" points="363.486,280.458 362.891,281.421 366.467,281.421 
				365.871,280.458 			"/>
			<polygon fill="#FFFFFF" stroke="#313376" stroke-width="0.2693" points="363.486,280.458 363.844,277.09 365.514,277.09 
				365.871,280.458 			"/>
			<polygon fill="#FFFFFF" stroke="#313376" stroke-width="0.2693" points="371.953,280.458 372.31,277.09 373.979,277.09 
				374.338,280.458 			"/>
			<polygon fill="#FFFFFF" stroke="#313376" stroke-width="0.2693" points="371.953,276.607 372.31,277.09 373.979,277.09 
				374.338,276.607 			"/>
			<polygon fill="#FFFFFF" stroke="#313376" stroke-width="0.2693" points="363.486,276.607 363.844,277.09 365.514,277.09 
				365.871,276.607 			"/>
			<polygon fill="#FFFFFF" stroke="#313376" stroke-width="0.2693" points="363.486,276.03 363.486,276.607 365.871,276.607 
				365.871,276.03 365.752,276.03 365.752,276.146 365.514,276.146 365.514,276.03 365.275,276.03 365.275,276.146 364.798,276.146 
				364.798,276.03 364.56,276.03 364.56,276.146 364.083,276.146 364.083,276.03 363.844,276.03 363.844,276.146 363.605,276.146 
				363.605,276.03 			"/>
			<polygon fill="#FFFFFF" stroke="#313376" stroke-width="0.2693" points="371.953,276.03 371.953,276.607 374.338,276.607 
				374.338,276.03 374.219,276.03 374.219,276.146 373.979,276.146 373.979,276.03 373.741,276.03 373.741,276.146 373.264,276.146 
				373.264,276.03 373.025,276.03 373.025,276.146 372.549,276.146 372.549,276.03 372.31,276.03 372.31,276.146 372.072,276.146 
				372.072,276.03 			"/>
			<polygon fill="#FFFFFF" stroke="#313376" stroke-width="0.2693" points="367.541,276.03 367.779,276.512 369.926,276.512 
				370.164,276.03 			"/>
			<polygon fill="#FFFFFF" stroke="#313376" stroke-width="0.2693" points="367.541,275.453 367.541,276.03 370.164,276.03 
				370.164,275.453 370.032,275.453 370.032,275.568 369.771,275.568 369.771,275.453 369.508,275.453 369.508,275.568 
				368.984,275.568 368.984,275.453 368.721,275.453 368.721,275.568 368.196,275.568 368.196,275.453 367.934,275.453 
				367.934,275.568 367.672,275.568 367.672,275.453 			"/>
			<polygon fill="#313376" points="364.083,277.764 364.202,277.764 364.202,278.052 364.44,278.052 364.44,278.148 
				364.202,278.148 364.202,278.533 364.083,278.533 364.083,278.148 363.844,278.148 363.844,278.052 364.083,278.052 			"/>
			<polygon fill="#313376" points="365.156,279.303 365.275,279.303 365.275,279.592 365.514,279.592 365.514,279.688 
				365.275,279.688 365.275,280.073 365.156,280.073 365.156,279.688 364.918,279.688 364.918,279.592 365.156,279.592 			"/>
			<polygon fill="#313376" points="373.741,277.764 373.622,277.764 373.622,278.052 373.384,278.052 373.384,278.148 
				373.622,278.148 373.622,278.533 373.741,278.533 373.741,278.148 373.979,278.148 373.979,278.052 373.741,278.052 			"/>
			<polygon fill="#313376" points="372.668,279.303 372.549,279.303 372.549,279.592 372.31,279.592 372.31,279.688 
				372.549,279.688 372.549,280.073 372.668,280.073 372.668,279.688 372.906,279.688 372.906,279.592 372.668,279.592 			"/>
			<polygon fill="#313376" points="368.972,277.281 368.852,277.281 368.852,277.57 368.614,277.57 368.614,277.666 
				368.852,277.666 368.852,278.052 368.972,278.052 368.972,277.666 369.21,277.666 369.21,277.57 368.972,277.57 			"/>
			<g>
				<path fill="#313376" stroke="#FFFFFF" stroke-width="1.01" d="M364.854,274.201l-0.036,0.4c0.084,0.162-0.122,0.235-0.206,0.072
					l0.038-0.4C364.583,274.105,364.77,274.038,364.854,274.201z"/>
				<path fill="#313376" stroke="#FFFFFF" stroke-width="1.01" d="M365.061,274.127l-0.037,0.4c0.084,0.164-0.122,0.238-0.206,0.074
					l0.036-0.4C364.789,274.031,364.977,273.964,365.061,274.127z"/>
				<path fill="#313376" stroke="#FFFFFF" stroke-width="1.01" d="M364.648,274.273l-0.038,0.4c0.084,0.163-0.121,0.238-0.205,0.073
					l0.038-0.399C364.377,274.178,364.564,274.111,364.648,274.273z"/>
				<path fill="#313376" stroke="#FFFFFF" stroke-width="1.01" d="M364.443,274.35l-0.038,0.398c0.084,0.164-0.12,0.238-0.204,0.074
					l0.036-0.402C364.172,274.252,364.359,274.186,364.443,274.35z"/>
				<path fill="#313376" stroke="#FFFFFF" stroke-width="1.01" d="M364.237,274.422l-0.036,0.4c0.084,0.164-0.122,0.238-0.206,0.074
					l0.036-0.4C363.966,274.326,364.153,274.259,364.237,274.422z"/>
				<path fill="#313376" stroke="#FFFFFF" stroke-width="1.01" d="M363.826,274.568l-0.038,0.4c0.084,0.163-0.122,0.238-0.206,0.073
					l0.038-0.399C363.555,274.473,363.742,274.405,363.826,274.568z"/>
				<path fill="#313376" stroke="#FFFFFF" stroke-width="1.01" d="M364.031,274.496l-0.037,0.4c0.084,0.162-0.122,0.235-0.206,0.072
					l0.038-0.402C363.76,274.398,363.947,274.332,364.031,274.496z"/>
				<path fill="#313376" stroke="#FFFFFF" stroke-width="1.01" d="M363.62,274.643l-0.038,0.4c0.084,0.164-0.122,0.237-0.205,0.074
					l0.037-0.401C363.348,274.547,363.536,274.479,363.62,274.643z"/>
				<path fill="#313376" stroke="#FFFFFF" stroke-width="1.01" d="M363.414,274.716l-0.037,0.401
					c0.083,0.162-0.122,0.238-0.207,0.072l0.038-0.398C363.143,274.62,363.33,274.553,363.414,274.716z"/>
				<path fill="#313376" stroke="#FFFFFF" stroke-width="1.01" d="M363.208,274.79l-0.038,0.399
					c0.085,0.164-0.121,0.236-0.205,0.074l0.037-0.4C362.938,274.693,363.124,274.627,363.208,274.79z"/>
				<path fill="#313376" stroke="#FFFFFF" stroke-width="1.01" d="M363.002,274.863l-0.037,0.4l-0.168-0.326
					C362.73,274.768,362.919,274.7,363.002,274.863z"/>
				<polygon fill="#FFFFFF" stroke="#313376" stroke-width="1.01" points="365.267,274.054 373.997,271.009 374.814,270.834 
					374.114,271.238 365.434,274.381 				"/>
				<polygon fill="#FFFFFF" stroke="#313376" stroke-width="1.01" points="365.014,273.564 365.686,274.871 366.266,275.051 
					366.145,275.288 365.273,275.018 364.604,273.711 364.967,273 365.299,273.075 				"/>
				<path fill="#FFFFFF" stroke="#313376" stroke-width="1.01" d="M362.713,274.773l0.336,0.652c0.084,0.164-0.326,0.312-0.41,0.147
					l-0.337-0.654C362.236,274.752,362.629,274.609,362.713,274.773z"/>
			</g>
			<g>
				<polygon fill="#FFFFFF" stroke="#2B265F" stroke-width="1.01" points="365.395,271.336 373.945,274.898 373.675,275.368 
					365.125,271.804 				"/>
				<polygon fill="#FFFFFF" stroke="#2B265F" stroke-width="1.01" points="371.245,273.773 371.471,273.868 371.199,274.337 
					370.975,274.243 				"/>
				<polygon fill="#FFFFFF" stroke="#2B265F" stroke-width="1.01" points="372.369,274.243 372.596,274.338 372.324,274.807 
					372.1,274.713 				"/>
				<polygon fill="#FFFFFF" stroke="#2B265F" stroke-width="1.01" points="368.994,272.836 369.22,272.93 368.949,273.398 
					368.725,273.305 				"/>
				<polygon fill="#FFFFFF" stroke="#2B265F" stroke-width="1.01" points="370.119,273.307 370.345,273.398 370.075,273.868 
					369.85,273.773 				"/>
				<polygon fill="#FFFFFF" stroke="#2B265F" stroke-width="1.01" points="366.52,271.805 366.744,271.898 366.475,272.367 
					366.25,272.273 				"/>
				<polygon fill="#FFFFFF" stroke="#2B265F" stroke-width="1.01" points="367.869,272.367 368.095,272.461 367.824,272.93 
					367.6,272.836 				"/>
				<polygon fill="#FFFFFF" stroke="#2B265F" stroke-width="1.01" points="365.395,271.336 365.619,271.43 365.35,271.898 
					365.125,271.804 				"/>
				<polygon fill="#FFFFFF" stroke="#2B265F" stroke-width="1.01" points="365.381,271.339 364.99,270.586 363.685,270.914 
					363.234,270.727 365.125,270.352 				"/>
				<polygon fill="#FFFFFF" stroke="#2B265F" stroke-width="1.01" points="365.125,271.804 364.179,271.992 363.685,270.914 
					363.234,270.727 364.043,272.227 				"/>
				<polygon fill="#FFFFFF" stroke="#2B265F" stroke-width="1.01" points="363.145,270.396 362.784,270.539 362.874,270.867 
					363.909,271.008 				"/>
			</g>
			<g>
				<polygon fill="#FFFFFF" stroke="#313376" stroke-width="1.3467" points="367.307,284.023 367.751,283.346 368.641,283.346 
					368.863,284.023 369.085,283.346 369.975,283.346 370.418,284.023 369.529,284.361 370.418,284.191 370.641,284.869 
					370.196,285.377 369.307,284.855 369.975,285.546 369.082,285.911 368.195,285.546 368.645,284.902 367.576,286.049 
					367.335,285.9 368.449,284.867 367.751,285.377 367.062,285.018 367.307,284.191 368.195,284.361 				"/>
				<path fill="#FFFFFF" stroke="#313376" stroke-width="1.3467" d="M369.529,284.531c0-0.281-0.299-0.51-0.666-0.51
					s-0.668,0.228-0.668,0.51c0,0.279,0.3,0.508,0.667,0.508C369.23,285.039,369.529,284.812,369.529,284.531L369.529,284.531
					h-0.666H369.529z"/>
			</g>
			<path fill="#FFFFFF" stroke="#313376" stroke-width="1.01" d="M366.467,273.398l0.562,0.803h3.647l0.562-0.803l-2.243-1.336
				l-0.16-0.268l-0.121,0.268L366.467,273.398z M367.028,273.398h3.647l-1.827-1.068L367.028,273.398z M367.004,273.662l0.268,0.398
				l0.601-0.019l-0.164-0.377L367.004,273.662z M370.676,273.666l-0.265,0.398h-0.575l0.139-0.398H370.676z M368.012,273.666
				c0.139-0.014,0.699,0,0.699,0v0.377h-0.561L368.012,273.666z M369.693,273.673c-0.14-0.014-0.699,0-0.699,0v0.377h0.561
				L369.693,273.673z"/>
		</g>
		<g>
			<path fill="#FFFFFF" stroke="#313376" stroke-width="0.5871" d="M381.135,270.123c0.271-0.424-3.472,0.038-2.781-1.986
				c0.69-2.025,4.361-2.14,6.164-0.262c1.802,1.879,0.95,5.566,2.351,8.08c1.397,2.513,0.479,2.542,2.479,4.345
				c-0.918,0.028-3.061-1.079-4.332-3.321c-1.271-2.24-1.548-5.342-2.068-5.463"/>
			<path fill="#FFFFFF" stroke="#313376" stroke-width="0.6734" d="M384.09,276.227c0.654,0.295,3.753,2.953,4.57,4.58
				c0.324,1.182,0.815,2.51-0.979,2.362c-1.143-0.147-0.489-1.478-1.143-1.921c-0.654-0.441-3.101-2.068-3.101-2.216
				S383.927,276.668,384.09,276.227z"/>
			<path fill="#FFFFFF" stroke="#313376" stroke-width="0.97" d="M383.036,282.578l-0.102,2.986c0,0-1.113-0.113-1.82,0.346
				c-0.706,0.459-1.213,0.803-1.112,0.803c0.102,0,1.213-0.689,1.719-0.689s0.809,0.689,0.908,0.576
				c0.102-0.115,0.607-0.807,1.314-0.807s1.719,0.461,1.616,0.346c-0.102-0.115-1.516-0.805-1.719-1.033
				c-0.201-0.229,0-2.299-0.201-2.299C383.439,282.809,383.238,282.809,383.036,282.578z"/>
			<path fill="#FFFFFF" stroke="#313376" stroke-width="0.97" d="M378.789,279.902l-2.42-1.329c0,0,0.312-0.972-0.072-1.681
				c-0.381-0.709-0.672-1.22-0.688-1.129c-0.019,0.092,0.548,1.198,0.462,1.649c-0.084,0.45-0.886,0.606-0.777,0.717
				c0.107,0.11,0.773,0.677,0.656,1.308c-0.119,0.634-0.789,1.457-0.646,1.387c0.142-0.072,1.129-1.219,1.412-1.361
				c0.284-0.142,1.687,1.123,1.722,0.943C378.472,280.225,378.505,280.045,378.789,279.902z"/>
			<path fill="#FFFFFF" stroke="#313376" stroke-width="0.6734" d="M380.501,279.477c-0.489,0-3.101-0.297-3.427,0.59
				c-0.326,0.888,3.915,1.478,3.915,1.33C380.989,281.248,380.664,279.771,380.501,279.477z"/>
			<path fill="#FFFFFF" stroke="#313376" stroke-width="0.6734" d="M378.053,266.475c1.363-1.393,3.276-2.373,4.078-1.478
				c1.319,1.469-4.24,4.284-4.73,6.944c-0.489,2.658,1.794,4.578,2.121,6.352c0.325,1.773,0.325,2.955,1.306,3.398
				c0.979,0.442,1.957,0.146,1.957,0.146s-0.326,1.772,0.979,1.626c0.816,0-0.161-7.238,0.162-10.193
				c0.327-2.955-2.446-3.693-2.446-3.693s3.465-2.971,2.61-4.579c-1.104-2.084-2.772-1.478-3.916-1.183
				c-1.142,0.297-2.187,0.562-3.358,1.592c-1.133,1.043-2.16,4.172-1.698,4.066L378.053,266.475z"/>
			<path fill="#FFFFFF" stroke="#313376" stroke-width="0.6734" d="M381.154,276.964c0,0,0,1.921,0.162,1.772
				c0.164-0.146,0.815-1.329,0.815-1.329s0.489,2.069,0.489,1.923c0-0.15,0.489-1.479,0.489-1.479s0.163,2.217,0.325,2.217
				c0.164,0,0.652-1.329,0.652-1.329s0.49,2.806,0.49,2.511c0-0.296,0.489-1.625,0.489-1.479c0,0.147,0.814,3.25,0.814,3.104
				c0-0.148-0.162-10.636-0.162-10.636l-2.772,0.296"/>
			<path fill="#FFFFFF" stroke="#313376" stroke-width="0.5871" d="M380.338,271.793c0.215,0,2.789,0,3.219-0.295
				c0.429-0.296-3.219-1.182-1.718-2.809c1.501-1.625,4.937-0.441,5.794,1.922c0.859,2.365-1.502,5.467-1.286,8.271
				c0.216,2.809-0.644,2.512,0.429,4.876c-0.858-0.296-2.36-2.067-2.573-4.58c-0.217-2.51,0.856-5.467,0.428-5.76
				c-0.428-0.296-2.36,0-2.36,0"/>
			<path fill="#323377" d="M376.919,267.561c0,0,0.424-0.373,0.47-0.467c-0.119-0.019-0.334-0.096-0.492-0.234
				c-0.329-0.321-0.477-1.006-0.477-0.953c0,0.052-0.629,1.068-0.629,1.068L376.919,267.561z"/>
			<path fill="none" stroke="#323377" stroke-width="0.521" d="M377.156,265.902c0.26-0.242,0.856-0.775,0.856-0.775"/>
			<path fill="none" stroke="#323377" stroke-width="0.6734" d="M377.809,265.689c0.127-0.136,0.18-0.281,0.119-0.328
				c-0.061-0.045-0.216,0.027-0.344,0.162l0,0c-0.128,0.135-0.184,0.281-0.125,0.33c0.061,0.047,0.213-0.023,0.344-0.158
				C377.805,265.693,377.806,265.691,377.809,265.689l-0.112-0.084L377.809,265.689z"/>
		</g>
		<g>
			<path fill="#313376" stroke="#EAAC2E" stroke-width="0.5871" d="M356.486,270.123c-0.271-0.424,3.473,0.038,2.781-1.986
				c-0.689-2.025-4.36-2.14-6.164-0.262c-1.802,1.879-0.95,5.566-2.35,8.08c-1.396,2.513-0.479,2.542-2.479,4.345
				c0.917,0.028,3.061-1.079,4.332-3.321c1.271-2.238,1.546-5.342,2.067-5.463"/>
			<path fill="#313376" stroke="#EAAC2E" stroke-width="0.6734" d="M353.53,276.227c-0.651,0.295-3.753,2.953-4.568,4.58
				c-0.326,1.182-0.815,2.51,0.979,2.362c1.142-0.147,0.489-1.478,1.142-1.921c0.653-0.441,3.1-2.068,3.1-2.216
				C354.183,278.884,353.694,276.668,353.53,276.227z"/>
			<path fill="#FFFFFF" stroke="#313376" stroke-width="0.97" d="M354.585,282.578l0.101,2.986c0,0,1.113-0.113,1.82,0.346
				s1.213,0.803,1.113,0.803c-0.103,0-1.215-0.689-1.719-0.689c-0.506,0-0.811,0.689-0.909,0.576
				c-0.102-0.115-0.607-0.807-1.313-0.807c-0.708,0-1.719,0.461-1.617,0.346c0.103-0.115,1.517-0.805,1.72-1.033
				c0.202-0.229,0-2.299,0.201-2.299C354.184,282.807,354.383,282.809,354.585,282.578z"/>
			<path fill="#FFFFFF" stroke="#313376" stroke-width="0.97" d="M359.047,280.125l2.42-1.329c0,0-0.311-0.973,0.072-1.682
				c0.382-0.71,0.672-1.218,0.689-1.128c0.017,0.09-0.55,1.199-0.464,1.649c0.084,0.45,0.886,0.606,0.777,0.718
				c-0.107,0.108-0.773,0.677-0.654,1.307c0.116,0.633,0.787,1.457,0.646,1.386c-0.142-0.071-1.131-1.219-1.413-1.36
				c-0.285-0.143-1.688,1.123-1.721,0.943C359.365,280.448,359.332,280.268,359.047,280.125z"/>
			<path fill="#313376" stroke="#EAAC2E" stroke-width="0.6734" d="M357.119,279.477c0.49,0,3.101-0.297,3.428,0.59
				c0.326,0.888-3.916,1.478-3.916,1.33C356.631,281.248,356.957,279.771,357.119,279.477z"/>
			<path fill="#313376" stroke="#EAAC2E" stroke-width="0.6734" d="M359.567,266.475c-1.363-1.393-3.276-2.373-4.079-1.478
				c-1.318,1.469,4.242,4.284,4.731,6.944c0.49,2.658-1.795,4.578-2.12,6.352c-0.326,1.773-0.326,2.955-1.306,3.398
				c-0.979,0.442-1.958,0.146-1.958,0.146s0.327,1.772-0.979,1.626c-0.815,0,0.162-7.238-0.163-10.193s2.447-3.693,2.447-3.693
				s-3.463-2.971-2.609-4.579c1.104-2.084,2.772-1.478,3.916-1.183c1.141,0.297,2.185,0.562,3.357,1.592
				c1.132,1.043,2.159,4.172,1.698,4.066L359.567,266.475z"/>
			<path fill="#313376" stroke="#EAAC2E" stroke-width="0.6734" d="M356.467,276.964c0,0,0,1.921-0.161,1.772
				c-0.163-0.146-0.816-1.329-0.816-1.329S355,279.477,355,279.33c0-0.15-0.49-1.479-0.49-1.479s-0.162,2.217-0.326,2.217
				c-0.161,0-0.652-1.329-0.652-1.329s-0.489,2.806-0.489,2.511c0-0.296-0.49-1.625-0.49-1.479c0,0.147-0.815,3.25-0.815,3.104
				c0-0.148,0.164-10.636,0.164-10.636l2.772,0.296"/>
			<path fill="#313376" stroke="#EAAC2E" stroke-width="0.5871" d="M357.283,271.793c-0.217,0-2.789,0-3.221-0.295
				c-0.429-0.296,3.221-1.182,1.719-2.809c-1.502-1.625-4.937-0.441-5.795,1.922c-0.857,2.365,1.503,5.467,1.287,8.271
				c-0.214,2.809,0.645,2.512-0.429,4.876c0.859-0.296,2.361-2.067,2.574-4.58c0.215-2.51-0.858-5.467-0.428-5.76
				c0.428-0.295,2.36,0,2.36,0"/>
			<path fill="#FFFFFF" d="M360.701,267.561c0,0-0.425-0.373-0.469-0.467c0.117-0.019,0.333-0.096,0.491-0.232
				c0.328-0.323,0.476-1.008,0.476-0.955c0,0.052,0.631,1.068,0.631,1.068L360.701,267.561z"/>
			<path fill="none" stroke="#FFFFFF" stroke-width="0.521" d="M360.465,265.902c-0.26-0.242-0.855-0.775-0.855-0.775"/>
			<path fill="none" stroke="#FFFFFF" stroke-width="0.6734" d="M359.812,265.689c-0.128-0.136-0.182-0.281-0.12-0.328
				c0.062-0.045,0.216,0.027,0.345,0.162l0,0c0.128,0.135,0.184,0.281,0.123,0.33c-0.061,0.047-0.213-0.023-0.342-0.158
				C359.816,265.693,359.815,265.691,359.812,265.689l0.11-0.084L359.812,265.689z"/>
		</g>
	</g>
</g>
</svg>
