<?xml version="1.0" encoding="utf-8"?>
<!-- Generator: Adobe Illustrator 16.0.0, SVG Export Plug-In . SVG Version: 6.00 Build 0)  -->
<svg version="1.2" baseProfile="tiny" id="Australian_Capital_Territory"
	 xmlns="http://www.w3.org/2000/svg" xmlns:xlink="http://www.w3.org/1999/xlink" x="0px" y="0px" width="90.123px" height="50px"
	 viewBox="5 0 90.123 50" xml:space="preserve">
<g id="au-act">
	<rect x="5.123" fill="#E8AB2B" width="90" height="50"/>
	<g>
		<rect x="5" fill="#2F3576" width="35" height="50"/>
		<g>
			<polygon fill="#FFFFFF" points="19.579,11.967 21.577,10.85 20.233,8.945 22.315,9.878 22.902,7.594 23.5,9.875 25.579,8.932 
				24.243,10.843 26.245,11.949 23.981,12.051 24.401,14.375 22.913,12.591 21.435,14.383 21.844,12.057 			"/>
			<polygon fill="#FFFFFF" points="28.718,20.578 30.643,19.462 29.348,17.558 31.354,18.492 31.92,16.207 32.497,18.488 
				34.498,17.544 33.211,19.455 35.142,20.562 32.959,20.664 33.364,22.988 31.932,21.203 30.506,22.996 30.899,20.669 			"/>
			<polygon fill="#FFFFFF" points="18.854,40.076 20.778,38.998 19.483,37.162 21.489,38.062 22.056,35.859 22.633,38.059 
				24.636,37.148 23.349,38.992 25.277,40.059 23.097,40.158 23.5,42.398 22.067,40.678 20.642,42.406 21.036,40.162 			"/>
			<polygon fill="#FFFFFF" points="9.858,23.146 11.782,22.109 10.487,20.341 12.493,21.207 13.06,19.086 13.636,21.205 
				15.638,20.328 14.351,22.103 16.28,23.131 14.1,23.225 14.503,25.384 13.071,23.727 11.646,25.391 12.039,23.229 			"/>
			<polygon fill="#FFFFFF" points="24.966,29.814 25.55,28.328 24.358,27.266 25.952,27.361 26.597,25.898 26.997,27.445 
				28.586,27.605 27.241,28.465 27.579,30.027 26.346,29.012 			"/>
		</g>
	</g>
	<g>
		<g>
			<path fill="#2F3576" d="M60.511,18.871v9.625c0,4.812,6.197,7.219,7.392,7.219c1.195,0,6.916-2.406,6.916-7.219v-9.625H60.511z"
				/>
			<rect x="65.639" y="31.384" fill="#FFFFFF" width="4.172" height="0.097"/>
			<rect x="65.639" y="31.094" fill="#FFFFFF" width="4.172" height="0.096"/>
			<rect x="65.639" y="30.807" fill="#FFFFFF" width="4.172" height="0.094"/>
			<rect x="65.639" y="30.518" fill="#FFFFFF" width="4.172" height="0.099"/>
			<rect x="65.757" y="29.361" fill="#FFFFFF" width="4.175" height="0.097"/>
			<rect x="65.639" y="30.229" fill="#FFFFFF" width="4.172" height="0.099"/>
			<rect x="65.639" y="29.939" fill="#FFFFFF" width="4.172" height="0.096"/>
			<rect x="65.757" y="29.073" fill="#FFFFFF" width="4.175" height="0.095"/>
			<rect x="65.639" y="29.65" fill="#FFFFFF" width="4.172" height="0.097"/>
			<rect x="65.757" y="28.784" fill="#FFFFFF" width="4.175" height="0.095"/>
			<rect x="67.665" y="28.688" fill="#FFFFFF" width="0.119" height="2.89"/>
			<rect x="68.021" y="28.688" fill="#FFFFFF" width="0.119" height="2.89"/>
			<rect x="67.307" y="28.688" fill="#FFFFFF" width="0.118" height="2.89"/>
			<rect x="66.95" y="28.688" fill="#FFFFFF" width="0.116" height="2.89"/>
			<rect x="66.591" y="28.688" fill="#FFFFFF" width="0.119" height="2.89"/>
			<rect x="66.234" y="28.688" fill="#FFFFFF" width="0.119" height="2.89"/>
			<rect x="65.876" y="28.688" fill="#FFFFFF" width="0.117" height="2.89"/>
			<rect x="68.738" y="28.688" fill="#FFFFFF" width="0.119" height="2.89"/>
			<rect x="68.38" y="28.688" fill="#FFFFFF" width="0.119" height="2.89"/>
			<rect x="69.096" y="28.688" fill="#FFFFFF" width="0.116" height="2.89"/>
			<rect x="69.454" y="28.688" fill="#FFFFFF" width="0.118" height="2.89"/>
			<rect x="66.591" y="25.512" fill="#FFFFFF" stroke="#2F3576" stroke-width="0.3054" width="2.146" height="2.406"/>
			<rect x="64.445" y="27.811" fill="#2F3576" width="6.562" height="0.119"/>
			<path fill="#FFFFFF" stroke="#2F3576" stroke-width="0.2693" d="M65.734,31.573c0-2.087,1.479-2.845,1.947-2.823
				c0.431-0.021,1.943,0.736,1.979,2.834c0.412-0.01,1.459-0.01,1.459-0.01v-3.561h-7.033v3.561L65.734,31.573L65.734,31.573
				L65.734,31.573z"/>
			<polygon fill="#FFFFFF" stroke="#2F3576" stroke-width="0.2693" points="71.361,27.93 71.361,28.164 70.57,28.164 70.57,28.398 
				70.253,28.398 70.253,28.164 69.305,28.164 69.305,28.398 68.989,28.398 68.989,28.164 67.882,28.164 67.882,28.398 
				67.566,28.398 67.566,28.164 66.46,28.164 66.46,28.398 66.145,28.398 66.145,28.164 65.193,28.164 65.193,28.398 64.878,28.398 
				64.878,28.164 64.087,28.164 64.087,27.93 			"/>
			<polygon fill="#FFFFFF" stroke="#2F3576" stroke-width="0.2693" points="71.204,27.811 71.361,27.576 70.732,27.576 
				70.732,27.341 70.104,27.341 70.104,27.576 69.473,27.576 69.473,27.341 68.844,27.341 68.844,27.576 68.059,27.576 
				68.059,27.341 67.43,27.341 67.43,27.576 66.643,27.576 66.643,27.341 66.014,27.341 66.014,27.576 65.385,27.576 65.385,27.341 
				64.755,27.341 64.755,27.576 64.126,27.576 63.969,27.811 			"/>
			<rect x="61.704" y="30.421" fill="#FFFFFF" stroke="#2F3576" stroke-width="0.2693" width="3.573" height="1.443"/>
			<rect x="70.169" y="30.421" fill="#FFFFFF" stroke="#2F3576" stroke-width="0.2693" width="3.576" height="1.443"/>
			<polygon fill="#FFFFFF" stroke="#2F3576" stroke-width="0.2693" points="70.766,29.458 70.169,30.421 73.747,30.421 
				73.15,29.458 			"/>
			<polygon fill="#FFFFFF" stroke="#2F3576" stroke-width="0.2693" points="62.298,29.458 61.704,30.421 65.279,30.421 
				64.684,29.458 			"/>
			<polygon fill="#FFFFFF" stroke="#2F3576" stroke-width="0.2693" points="62.298,29.458 62.656,26.09 64.327,26.09 64.684,29.458 
							"/>
			<polygon fill="#FFFFFF" stroke="#2F3576" stroke-width="0.2693" points="70.766,29.458 71.122,26.09 72.792,26.09 73.15,29.458 
							"/>
			<polygon fill="#FFFFFF" stroke="#2F3576" stroke-width="0.2693" points="70.766,25.607 71.122,26.09 72.792,26.09 73.15,25.607 
							"/>
			<polygon fill="#FFFFFF" stroke="#2F3576" stroke-width="0.2693" points="62.298,25.607 62.656,26.09 64.327,26.09 64.684,25.607 
							"/>
			<polygon fill="#FFFFFF" stroke="#2F3576" stroke-width="0.2693" points="62.298,25.03 62.298,25.607 64.684,25.607 64.684,25.03 
				64.564,25.03 64.564,25.146 64.327,25.146 64.327,25.03 64.087,25.03 64.087,25.146 63.609,25.146 63.609,25.03 63.372,25.03 
				63.372,25.146 62.896,25.146 62.896,25.03 62.656,25.03 62.656,25.146 62.419,25.146 62.419,25.03 			"/>
			<polygon fill="#FFFFFF" stroke="#2F3576" stroke-width="0.2693" points="70.766,25.03 70.766,25.607 73.15,25.607 73.15,25.03 
				73.031,25.03 73.031,25.146 72.792,25.146 72.792,25.03 72.555,25.03 72.555,25.146 72.077,25.146 72.077,25.03 71.837,25.03 
				71.837,25.146 71.361,25.146 71.361,25.03 71.122,25.03 71.122,25.146 70.885,25.146 70.885,25.03 			"/>
			<polygon fill="#FFFFFF" stroke="#2F3576" stroke-width="0.2693" points="66.354,25.03 66.591,25.512 68.738,25.512 68.977,25.03 
							"/>
			<polygon fill="#FFFFFF" stroke="#2F3576" stroke-width="0.2693" points="66.354,24.453 66.354,25.03 68.977,25.03 68.977,24.453 
				68.845,24.453 68.845,24.568 68.585,24.568 68.585,24.453 68.32,24.453 68.32,24.568 67.796,24.568 67.796,24.453 67.534,24.453 
				67.534,24.568 67.009,24.568 67.009,24.453 66.747,24.453 66.747,24.568 66.484,24.568 66.484,24.453 			"/>
			<polygon fill="#2F3576" points="62.896,26.764 63.016,26.764 63.016,27.052 63.253,27.052 63.253,27.148 63.016,27.148 
				63.016,27.533 62.896,27.533 62.896,27.148 62.656,27.148 62.656,27.052 62.896,27.052 			"/>
			<polygon fill="#2F3576" points="63.969,28.303 64.087,28.303 64.087,28.592 64.327,28.592 64.327,28.688 64.087,28.688 
				64.087,29.073 63.969,29.073 63.969,28.688 63.73,28.688 63.73,28.592 63.969,28.592 			"/>
			<polygon fill="#2F3576" points="72.555,26.764 72.436,26.764 72.436,27.052 72.195,27.052 72.195,27.148 72.436,27.148 
				72.436,27.533 72.555,27.533 72.555,27.148 72.792,27.148 72.792,27.052 72.555,27.052 			"/>
			<polygon fill="#2F3576" points="71.48,28.303 71.361,28.303 71.361,28.592 71.122,28.592 71.122,28.688 71.361,28.688 
				71.361,29.073 71.48,29.073 71.48,28.688 71.719,28.688 71.719,28.592 71.48,28.592 			"/>
			<polygon fill="#2F3576" points="67.784,26.281 67.665,26.281 67.665,26.57 67.427,26.57 67.427,26.666 67.665,26.666 
				67.665,27.052 67.784,27.052 67.784,26.666 68.021,26.666 68.021,26.57 67.784,26.57 			"/>
			<g>
				<path fill="#2F3576" stroke="#FFFFFF" stroke-width="1.01" d="M63.667,23.201l-0.035,0.4c0.084,0.16-0.122,0.233-0.206,0.07
					l0.038-0.398C63.396,23.105,63.583,23.038,63.667,23.201z"/>
				<path fill="#2F3576" stroke="#FFFFFF" stroke-width="1.01" d="M63.874,23.127l-0.037,0.4c0.084,0.164-0.121,0.238-0.205,0.074
					l0.035-0.4C63.602,23.031,63.79,22.964,63.874,23.127z"/>
				<path fill="#2F3576" stroke="#FFFFFF" stroke-width="1.01" d="M63.46,23.273l-0.037,0.398c0.084,0.163-0.12,0.238-0.205,0.073
					l0.037-0.397C63.189,23.178,63.378,23.111,63.46,23.273z"/>
				<path fill="#2F3576" stroke="#FFFFFF" stroke-width="1.01" d="M63.255,23.35l-0.037,0.397c0.084,0.164-0.12,0.237-0.204,0.073
					l0.036-0.401C62.984,23.252,63.171,23.186,63.255,23.35z"/>
				<path fill="#2F3576" stroke="#FFFFFF" stroke-width="1.01" d="M63.05,23.422l-0.036,0.4c0.084,0.164-0.121,0.238-0.205,0.074
					l0.035-0.4C62.777,23.326,62.966,23.259,63.05,23.422z"/>
				<path fill="#2F3576" stroke="#FFFFFF" stroke-width="1.01" d="M62.639,23.568l-0.037,0.398c0.084,0.163-0.123,0.238-0.207,0.073
					l0.039-0.397C62.368,23.473,62.555,23.405,62.639,23.568z"/>
				<path fill="#2F3576" stroke="#FFFFFF" stroke-width="1.01" d="M62.844,23.496l-0.037,0.4c0.084,0.162-0.121,0.233-0.205,0.07
					l0.037-0.4C62.572,23.398,62.76,23.332,62.844,23.496z"/>
				<path fill="#2F3576" stroke="#FFFFFF" stroke-width="1.01" d="M62.434,23.643l-0.039,0.399c0.084,0.164-0.121,0.237-0.205,0.074
					l0.037-0.401C62.161,23.547,62.35,23.479,62.434,23.643z"/>
				<path fill="#2F3576" stroke="#FFFFFF" stroke-width="1.01" d="M62.227,23.716l-0.037,0.401c0.084,0.162-0.121,0.238-0.207,0.072
					l0.039-0.398C61.956,23.62,62.143,23.553,62.227,23.716z"/>
				<path fill="#2F3576" stroke="#FFFFFF" stroke-width="1.01" d="M62.021,23.79l-0.039,0.399c0.086,0.164-0.121,0.234-0.205,0.074
					l0.037-0.4C61.751,23.693,61.938,23.627,62.021,23.79z"/>
				<path fill="#2F3576" stroke="#FFFFFF" stroke-width="1.01" d="M61.814,23.863l-0.037,0.4l-0.168-0.326
					C61.544,23.768,61.73,23.7,61.814,23.863z"/>
				<polygon fill="#FFFFFF" stroke="#2F3576" stroke-width="1.01" points="64.079,23.055 72.811,20.009 73.628,19.834 
					72.927,20.238 64.247,23.381 				"/>
				<polygon fill="#FFFFFF" stroke="#2F3576" stroke-width="1.01" points="63.827,22.564 64.499,23.871 65.079,24.051 
					64.958,24.288 64.085,24.018 63.417,22.711 63.779,22 64.111,22.075 				"/>
				<path fill="#FFFFFF" stroke="#2F3576" stroke-width="1.01" d="M61.525,23.773l0.336,0.65c0.084,0.164-0.325,0.312-0.409,0.146
					l-0.338-0.653C61.048,23.752,61.441,23.609,61.525,23.773z"/>
			</g>
			<g>
				<polygon fill="#FFFFFF" stroke="#29265F" stroke-width="1.01" points="64.208,20.336 72.757,23.898 72.486,24.368 
					63.938,20.805 				"/>
				<polygon fill="#FFFFFF" stroke="#29265F" stroke-width="1.01" points="70.059,22.773 70.284,22.868 70.012,23.337 
					69.788,23.243 				"/>
				<polygon fill="#FFFFFF" stroke="#29265F" stroke-width="1.01" points="71.182,23.243 71.409,23.338 71.137,23.807 
					70.913,23.713 				"/>
				<polygon fill="#FFFFFF" stroke="#29265F" stroke-width="1.01" points="67.807,21.836 68.032,21.93 67.762,22.398 67.538,22.305 
									"/>
				<polygon fill="#FFFFFF" stroke="#29265F" stroke-width="1.01" points="68.932,22.307 69.157,22.398 68.889,22.868 
					68.663,22.773 				"/>
				<polygon fill="#FFFFFF" stroke="#29265F" stroke-width="1.01" points="65.333,20.805 65.557,20.898 65.288,21.367 
					65.062,21.273 				"/>
				<polygon fill="#FFFFFF" stroke="#29265F" stroke-width="1.01" points="66.682,21.367 66.907,21.461 66.637,21.93 66.413,21.836 
									"/>
				<polygon fill="#FFFFFF" stroke="#29265F" stroke-width="1.01" points="64.208,20.336 64.432,20.43 64.163,20.898 63.938,20.805 
									"/>
				<polygon fill="#FFFFFF" stroke="#29265F" stroke-width="1.01" points="64.193,20.339 63.803,19.586 62.497,19.914 
					62.046,19.727 63.938,19.352 				"/>
				<polygon fill="#FFFFFF" stroke="#29265F" stroke-width="1.01" points="63.938,20.805 62.991,20.992 62.497,19.914 
					62.046,19.727 62.855,21.227 				"/>
				<polygon fill="#FFFFFF" stroke="#29265F" stroke-width="1.01" points="61.958,19.396 61.598,19.539 61.688,19.867 
					62.723,20.008 				"/>
			</g>
			<g>
				<polygon fill="#FFFFFF" stroke="#2F3576" stroke-width="1.3467" points="66.12,33.023 66.562,32.346 67.454,32.346 
					67.675,33.023 67.896,32.346 68.788,32.346 69.23,33.023 68.341,33.361 69.23,33.191 69.454,33.869 69.009,34.377 68.12,33.855 
					68.788,34.546 67.895,34.911 67.007,34.546 67.458,33.902 66.389,35.049 66.146,34.9 67.262,33.867 66.562,34.377 
					65.876,34.018 66.12,33.191 67.007,33.361 				"/>
				<path fill="#FFFFFF" stroke="#2F3576" stroke-width="1.3467" d="M68.341,33.531c0-0.281-0.299-0.51-0.666-0.51
					c-0.366,0-0.668,0.228-0.668,0.51c0,0.279,0.302,0.508,0.668,0.508C68.044,34.039,68.341,33.812,68.341,33.531L68.341,33.531
					h-0.666H68.341z"/>
			</g>
			<path fill="#FFFFFF" stroke="#2F3576" stroke-width="1.01" d="M65.279,22.398l0.562,0.803h3.646l0.562-0.803l-2.242-1.336
				l-0.16-0.27l-0.121,0.27L65.279,22.398z M65.841,22.398h3.646L67.66,21.33L65.841,22.398z M65.816,22.662l0.269,0.398
				l0.603-0.021l-0.164-0.377H65.816z M69.488,22.666l-0.266,0.398h-0.574l0.14-0.398H69.488z M66.825,22.666
				c0.139-0.014,0.698,0,0.698,0v0.377h-0.562L66.825,22.666z M68.505,22.673c-0.141-0.014-0.698,0-0.698,0v0.377h0.562
				L68.505,22.673z"/>
		</g>
		<g>
			<path fill="#FFFFFF" stroke="#2F3576" stroke-width="0.5871" d="M79.947,19.123c0.271-0.424-3.473,0.038-2.78-1.986
				c0.688-2.025,4.36-2.14,6.164-0.262c1.803,1.879,0.948,5.566,2.353,8.08c1.396,2.513,0.479,2.542,2.479,4.345
				c-0.918,0.028-3.061-1.079-4.332-3.321c-1.271-2.237-1.547-5.341-2.066-5.462"/>
			<path fill="#FFFFFF" stroke="#2F3576" stroke-width="0.6734" d="M82.902,25.227c0.654,0.294,3.752,2.953,4.57,4.58
				c0.322,1.184,0.812,2.51-0.979,2.361c-1.144-0.146-0.488-1.479-1.144-1.921c-0.654-0.44-3.102-2.067-3.102-2.216
				C82.251,27.884,82.739,25.668,82.902,25.227z"/>
			<path fill="#FFFFFF" stroke="#2F3576" stroke-width="0.97" d="M81.85,31.578l-0.104,2.986c0,0-1.111-0.113-1.818,0.346
				c-0.706,0.459-1.213,0.803-1.112,0.803c0.104,0,1.213-0.689,1.721-0.689c0.506,0,0.81,0.689,0.906,0.576
				c0.104-0.115,0.606-0.807,1.313-0.807s1.72,0.461,1.615,0.346c-0.103-0.115-1.517-0.805-1.72-1.033c-0.2-0.229,0-2.299-0.2-2.299
				C82.253,31.809,82.05,31.809,81.85,31.578z"/>
			<path fill="#FFFFFF" stroke="#2F3576" stroke-width="0.97" d="M77.602,28.902l-2.42-1.329c0,0,0.312-0.972-0.072-1.681
				c-0.381-0.709-0.672-1.223-0.688-1.129c-0.02,0.092,0.549,1.196,0.463,1.647c-0.084,0.447-0.887,0.604-0.777,0.717
				c0.107,0.109,0.773,0.68,0.656,1.311c-0.119,0.633-0.789,1.457-0.646,1.387c0.144-0.072,1.129-1.219,1.412-1.361
				c0.284-0.143,1.688,1.123,1.723,0.943C77.284,29.225,77.316,29.045,77.602,28.902z"/>
			<path fill="#FFFFFF" stroke="#2F3576" stroke-width="0.6734" d="M79.312,28.477c-0.488,0-3.102-0.297-3.427,0.59
				c-0.325,0.89,3.915,1.479,3.915,1.33C79.802,30.247,79.477,28.771,79.312,28.477z"/>
			<path fill="#FFFFFF" stroke="#2F3576" stroke-width="0.6734" d="M76.865,15.475c1.363-1.394,3.275-2.373,4.078-1.479
				c1.318,1.469-4.239,4.284-4.729,6.943c-0.487,2.658,1.795,4.579,2.121,6.353c0.324,1.772,0.324,2.955,1.308,3.397
				c0.979,0.44,1.957,0.146,1.957,0.146s-0.326,1.771,0.979,1.626c0.816,0-0.16-7.237,0.162-10.192
				c0.326-2.955-2.445-3.692-2.445-3.692s3.465-2.972,2.609-4.579c-1.104-2.084-2.771-1.479-3.916-1.184
				c-1.144,0.297-2.188,0.562-3.357,1.593c-1.133,1.043-2.159,4.172-1.697,4.065L76.865,15.475z"/>
			<path fill="#FFFFFF" stroke="#2F3576" stroke-width="0.6734" d="M79.966,25.964c0,0,0,1.921,0.162,1.772
				c0.164-0.146,0.813-1.329,0.813-1.329s0.49,2.069,0.49,1.923c0-0.15,0.488-1.479,0.488-1.479s0.162,2.217,0.324,2.217
				c0.164,0,0.65-1.329,0.65-1.329s0.49,2.806,0.49,2.511c0-0.296,0.489-1.625,0.489-1.479c0,0.146,0.812,3.25,0.812,3.104
				c0-0.148-0.162-10.636-0.162-10.636l-2.771,0.296"/>
			<path fill="#FFFFFF" stroke="#2F3576" stroke-width="0.5871" d="M79.15,20.793c0.216,0,2.789,0,3.22-0.295
				c0.43-0.296-3.22-1.182-1.72-2.809c1.502-1.625,4.938-0.441,5.795,1.922c0.859,2.365-1.502,5.467-1.286,8.271
				c0.217,2.81-0.644,2.513,0.43,4.876c-0.856-0.296-2.358-2.066-2.571-4.58c-0.218-2.51,0.854-5.467,0.428-5.76
				c-0.428-0.296-2.359,0-2.359,0"/>
			<path fill="#2F3477" d="M75.73,16.561c0,0,0.425-0.373,0.472-0.468c-0.119-0.019-0.334-0.096-0.492-0.233
				c-0.328-0.32-0.478-1.006-0.478-0.952c0,0.052-0.629,1.067-0.629,1.067L75.73,16.561z"/>
			<path fill="none" stroke="#2F3477" stroke-width="0.521" d="M75.969,14.902c0.26-0.242,0.854-0.775,0.854-0.775"/>
			<path fill="none" stroke="#2F3477" stroke-width="0.6734" d="M76.622,14.689c0.127-0.138,0.181-0.281,0.119-0.328
				c-0.062-0.045-0.218,0.027-0.345,0.162l0,0c-0.129,0.135-0.186,0.279-0.125,0.33c0.062,0.047,0.213-0.023,0.345-0.158
				C76.618,14.693,76.618,14.691,76.622,14.689l-0.111-0.084L76.622,14.689z"/>
		</g>
		<g>
			<path fill="#2F3576" stroke="#E8AB2B" stroke-width="0.5871" d="M55.298,19.123c-0.271-0.424,3.474,0.038,2.781-1.986
				c-0.688-2.025-4.359-2.14-6.164-0.262c-1.803,1.879-0.949,5.566-2.351,8.08c-1.396,2.513-0.479,2.542-2.479,4.345
				c0.918,0.028,3.062-1.079,4.332-3.321c1.271-2.235,1.547-5.341,2.065-5.462"/>
			<path fill="#2F3576" stroke="#E8AB2B" stroke-width="0.6734" d="M52.343,25.227c-0.651,0.294-3.754,2.953-4.568,4.58
				c-0.326,1.184-0.814,2.51,0.979,2.361c1.143-0.146,0.488-1.479,1.143-1.921c0.653-0.44,3.1-2.067,3.1-2.216
				C52.995,27.884,52.507,25.668,52.343,25.227z"/>
			<path fill="#FFFFFF" stroke="#2F3576" stroke-width="0.97" d="M53.396,31.578l0.103,2.986c0,0,1.112-0.113,1.819,0.346
				s1.213,0.803,1.112,0.803c-0.104,0-1.216-0.689-1.72-0.689c-0.506,0-0.812,0.689-0.908,0.576
				c-0.104-0.115-0.607-0.807-1.312-0.807c-0.709,0-1.719,0.461-1.616,0.346c0.104-0.115,1.519-0.805,1.721-1.033
				c0.201-0.229,0-2.299,0.201-2.299S53.195,31.809,53.396,31.578z"/>
			<path fill="#FFFFFF" stroke="#2F3576" stroke-width="0.97" d="M57.859,29.125l2.42-1.329c0,0-0.312-0.973,0.072-1.682
				c0.381-0.71,0.672-1.218,0.688-1.128c0.018,0.09-0.551,1.2-0.465,1.647c0.084,0.45,0.887,0.606,0.777,0.721
				c-0.107,0.105-0.773,0.676-0.654,1.307c0.115,0.633,0.787,1.457,0.646,1.386c-0.143-0.071-1.131-1.219-1.413-1.36
				c-0.285-0.143-1.688,1.123-1.722,0.943C58.178,29.448,58.145,29.268,57.859,29.125z"/>
			<path fill="#2F3576" stroke="#E8AB2B" stroke-width="0.6734" d="M55.932,28.477c0.489,0,3.102-0.297,3.428,0.59
				c0.326,0.89-3.916,1.479-3.916,1.33S55.77,28.771,55.932,28.477z"/>
			<path fill="#2F3576" stroke="#E8AB2B" stroke-width="0.6734" d="M58.38,15.475c-1.362-1.394-3.276-2.373-4.079-1.479
				c-1.318,1.469,4.241,4.284,4.729,6.943c0.489,2.658-1.796,4.579-2.119,6.353c-0.326,1.774-0.326,2.955-1.308,3.397
				c-0.979,0.44-1.957,0.146-1.957,0.146s0.326,1.771-0.979,1.626c-0.813,0,0.162-7.237-0.162-10.192
				c-0.323-2.955,2.447-3.692,2.447-3.692s-3.464-2.972-2.608-4.579c1.104-2.084,2.771-1.479,3.916-1.184
				c1.141,0.297,2.186,0.562,3.356,1.593c1.131,1.043,2.157,4.172,1.696,4.065L58.38,15.475z"/>
			<path fill="#2F3576" stroke="#E8AB2B" stroke-width="0.6734" d="M55.279,25.964c0,0,0,1.921-0.161,1.772
				c-0.162-0.146-0.814-1.329-0.814-1.329s-0.491,2.069-0.491,1.923c0-0.15-0.49-1.479-0.49-1.479s-0.16,2.217-0.324,2.217
				c-0.16,0-0.651-1.329-0.651-1.329s-0.489,2.806-0.489,2.511c0-0.296-0.489-1.625-0.489-1.479c0,0.146-0.813,3.25-0.813,3.104
				c0-0.148,0.163-10.636,0.163-10.636l2.771,0.296"/>
			<path fill="#2F3576" stroke="#E8AB2B" stroke-width="0.5871" d="M56.096,20.793c-0.218,0-2.789,0-3.222-0.295
				c-0.431-0.296,3.222-1.182,1.72-2.809c-1.503-1.625-4.938-0.441-5.796,1.922c-0.856,2.365,1.504,5.467,1.287,8.271
				c-0.215,2.81,0.646,2.513-0.43,4.876c0.859-0.296,2.361-2.066,2.574-4.58c0.215-2.51-0.856-5.467-0.428-5.76
				c0.428-0.295,2.359,0,2.359,0"/>
			<path fill="#FFFFFF" d="M59.514,16.561c0,0-0.425-0.373-0.47-0.468c0.117-0.019,0.334-0.096,0.49-0.231
				c0.327-0.322,0.478-1.008,0.478-0.954c0,0.052,0.631,1.067,0.631,1.067L59.514,16.561z"/>
			<path fill="none" stroke="#FFFFFF" stroke-width="0.521" d="M59.277,14.902c-0.26-0.242-0.854-0.775-0.854-0.775"/>
			<path fill="none" stroke="#FFFFFF" stroke-width="0.6734" d="M58.626,14.689c-0.129-0.138-0.185-0.281-0.121-0.328
				c0.062-0.045,0.218,0.027,0.347,0.162l0,0c0.127,0.135,0.184,0.279,0.123,0.33c-0.062,0.047-0.214-0.023-0.343-0.158
				C58.628,14.693,58.628,14.691,58.626,14.689l0.108-0.084L58.626,14.689z"/>
		</g>
	</g>
</g>
</svg>
