<?xml version="1.0" encoding="utf-8"?>
<!-- Generator: Adobe Illustrator 16.0.0, SVG Export Plug-In . SVG Version: 6.00 Build 0)  -->
<!DOCTYPE svg PUBLIC "-//W3C//DTD SVG 1.1//EN" "http://www.w3.org/Graphics/SVG/1.1/DTD/svg11.dtd">
<svg version="1.1" id="Eureka_Flag_1_" xmlns="http://www.w3.org/2000/svg" xmlns:xlink="http://www.w3.org/1999/xlink" x="0px"
	 y="0px" width="100px" height="50px" viewBox="0 0 100 50" enable-background="new 0 0 100 50" xml:space="preserve">
<g id="au-eu">
	<rect x="288.461" y="251" fill="none" width="100" height="50"/>
	<g>
		<polygon fill="#205C87" points="300,301 376.923,301 376.923,251 300,251 		"/>
		<polygon fill="#FFFFFF" points="310.938,279.605 365.985,279.605 365.985,272.516 310.938,272.516 		"/>
		<polygon fill="#FFFFFF" points="334.975,293.908 342.066,293.908 342.066,258.092 334.975,258.092 		"/>
		<polygon fill="#5B657B" points="345.093,276 341.523,277.27 343.15,280.689 339.729,279.062 338.461,282.632 337.191,279.062 
			333.771,280.689 335.396,277.27 331.83,276 335.396,274.73 333.771,271.311 337.191,272.938 338.461,269.368 339.729,272.938 
			343.15,271.311 341.523,274.73 		"/>
		<polygon fill="#5B657B" points="317.568,276 314,277.27 315.626,280.689 312.205,279.062 310.938,282.632 309.668,279.062 
			306.248,280.689 307.873,277.27 304.306,276 307.873,274.73 306.248,271.311 309.668,272.938 310.938,269.368 312.205,272.938 
			315.626,271.311 314,274.73 		"/>
		<polygon fill="#5B657B" points="372.616,276 369.048,277.27 370.674,280.689 367.254,279.062 365.985,282.632 364.716,279.062 
			361.296,280.689 362.921,277.27 359.354,276 362.921,274.73 361.296,271.311 364.716,272.938 365.985,269.368 367.254,272.938 
			370.674,271.311 369.048,274.73 		"/>
		<polygon fill="#5B657B" points="345.093,258.092 341.523,259.359 343.15,262.78 339.729,261.154 338.461,264.723 337.191,261.154 
			333.771,262.78 335.396,259.359 331.83,258.092 335.396,256.822 333.771,253.402 337.191,255.027 338.461,251.46 339.729,255.027 
			343.15,253.402 341.523,256.822 		"/>
		<polygon fill="#5B657B" points="345.093,293.908 341.523,295.177 343.15,298.598 339.729,296.973 338.461,300.539 
			337.191,296.973 333.771,298.598 335.396,295.177 331.83,293.908 335.396,292.641 333.771,289.219 337.191,290.845 
			338.461,287.277 339.729,290.845 343.15,289.219 341.523,292.641 		"/>
		<polygon fill="#FFFFFF" points="344.229,276 341.125,277.104 342.539,280.078 339.564,278.664 338.461,281.768 337.357,278.664 
			334.383,280.078 335.797,277.104 332.693,276 335.797,274.896 334.383,271.923 337.357,273.336 338.461,270.232 339.564,273.336 
			342.539,271.923 341.125,274.896 		"/>
		<polygon fill="#FFFFFF" points="316.703,276 313.601,277.104 315.015,280.078 312.041,278.664 310.938,281.768 309.834,278.664 
			306.859,280.078 308.273,277.104 305.17,276 308.273,274.896 306.859,271.923 309.834,273.336 310.938,270.232 312.041,273.336 
			315.015,271.923 313.601,274.896 		"/>
		<polygon fill="#FFFFFF" points="371.751,276 368.648,277.104 370.062,280.078 367.089,278.664 365.985,281.768 364.882,278.664 
			361.907,280.078 363.32,277.104 360.218,276 363.32,274.896 361.907,271.923 364.882,273.336 365.985,270.232 367.089,273.336 
			370.062,271.923 368.648,274.896 		"/>
		<polygon fill="#FFFFFF" points="344.229,258.092 341.125,259.195 342.539,262.169 339.564,260.755 338.461,263.857 
			337.357,260.755 334.383,262.169 335.797,259.195 332.693,258.092 335.797,256.988 334.383,254.014 337.357,255.428 
			338.461,252.324 339.564,255.428 342.539,254.014 341.125,256.988 		"/>
		<polygon fill="#FFFFFF" points="344.229,293.908 341.125,295.012 342.539,297.986 339.564,296.572 338.461,299.676 
			337.357,296.572 334.383,297.986 335.797,295.012 332.693,293.908 335.797,292.805 334.383,289.83 337.357,291.244 
			338.461,288.143 339.564,291.244 342.539,289.83 341.125,292.805 		"/>
	</g>
</g>
</svg>
