<?xml version="1.0" encoding="utf-8"?>
<!-- Generator: Adobe Illustrator 16.0.0, SVG Export Plug-In . SVG Version: 6.00 Build 0)  -->
<svg version="1.2" baseProfile="tiny" id="Northern_Territory"
	 xmlns="http://www.w3.org/2000/svg" xmlns:xlink="http://www.w3.org/1999/xlink" x="0px" y="0px" width="90px" height="50px"
	 viewBox="5 0 90 50" xml:space="preserve">
<g id="au-nt">
	<polygon fill="#E17F28" points="5,50 95,50 95,0 5,0 	"/>
	<polygon fill="#211F1F" points="5,50 37,50 37,0 5,0 	"/>
	<path fill="#FFFFFF" d="M68.518,13.657c0.643,0.63,1.279,1.259,1.279,2.519c0,1.26-2.556,5.036-3.831,5.036
		c-1.276,0-3.832-3.776-3.832-5.036c0-1.26,0.64-1.889,1.277-2.519C64.048,13.025,67.88,13.025,68.518,13.657L68.518,13.657z"/>
	<path fill="#FFFFFF" d="M57.473,16.271c0.896-0.102,1.795-0.198,2.793,0.588c0.998,0.785,2.398,5.107,1.604,6.096
		c-0.799,0.982-5.387,0.595-6.385-0.191c-0.998-0.785-1.101-1.671-1.197-2.555C54.184,19.324,56.573,16.371,57.473,16.271
		L57.473,16.271z"/>
	<path fill="#FFFFFF" d="M52.874,26.598c0.479-0.754,0.963-1.507,2.208-1.785c1.243-0.277,5.548,1.339,5.829,2.567
		c0.282,1.228-2.89,4.521-4.134,4.802c-1.245,0.279-2.012-0.197-2.772-0.671C53.241,31.036,52.393,27.352,52.874,26.598
		L52.874,26.598z"/>
	<path fill="#FFFFFF" d="M58.008,36.646c-0.297-0.846-0.594-1.686-0.037-2.816c0.557-1.135,4.522-3.439,5.676-2.891
		c1.147,0.547,1.778,5.045,1.225,6.18c-0.557,1.133-1.405,1.426-2.262,1.719C61.755,39.132,58.305,37.486,58.008,36.646
		L58.008,36.646z"/>
	<path fill="#FFFFFF" d="M69.218,38.834c-0.854-0.295-1.704-0.591-2.256-1.727c-0.553-1.139,0.095-5.633,1.248-6.176
		c1.147-0.548,5.108,1.771,5.662,2.906c0.552,1.139,0.252,1.979-0.05,2.814C73.523,37.498,70.068,39.131,69.218,38.834
		L69.218,38.834z"/>
	<path fill="#FFFFFF" d="M77.979,31.641c-0.767,0.471-1.531,0.943-2.775,0.659c-1.242-0.282-4.402-3.589-4.114-4.815
		c0.288-1.226,4.595-2.826,5.841-2.548c1.243,0.282,1.723,1.039,2.201,1.794C79.605,27.486,78.743,31.168,77.979,31.641
		L77.979,31.641z"/>
	<path fill="#FFFFFF" d="M77.825,20.443c-0.104,0.887-0.207,1.77-1.209,2.553c-1,0.784-5.593,1.156-6.386,0.168
		c-0.793-0.987,0.623-5.307,1.623-6.091c1.002-0.78,1.897-0.679,2.795-0.576C75.549,16.6,77.93,19.559,77.825,20.443L77.825,20.443z
		"/>
	<path fill="#211F1F" d="M69.225,19.922c0,0-0.466,2.719,0.33,3.721c0.793,1.004,3.521,1.078,3.521,1.078s-2.556,1.509-2.804,2.654
		c-0.25,1.146,1.246,3.405,1.246,3.405s-2.699-0.97-3.795-0.572c-1.093,0.397-1.599,3.063-1.643,3.062
		c-0.045,0-1.094-2.666-2.201-3.252c-1.109-0.584-3.699,0.711-3.613,0.67c0.09-0.041,1.504-2.646,1.361-3.719
		c-0.146-1.072-2.574-2.418-2.531-2.416c0.043,0.002,2.604-0.144,3.58-1.141c0.98-0.997,0.275-3.663,0.275-3.663
		s2.061,2.147,3.188,2.136C67.268,21.874,69.268,19.965,69.225,19.922L69.225,19.922z"/>
	<polygon fill="#FFFFFF" points="15.641,14.757 18.309,13.328 16.514,10.893 19.293,12.087 20.078,9.166 20.877,12.084 
		23.65,10.875 21.869,13.318 24.541,14.734 21.52,14.865 22.08,17.838 20.094,15.557 18.119,17.848 18.664,14.873 	"/>
	<polygon fill="#FFFFFF" points="15.641,14.757 18.309,13.328 16.514,10.893 19.293,12.087 20.078,9.166 20.877,12.084 
		23.65,10.875 21.869,13.318 24.541,14.734 21.52,14.865 22.08,17.838 20.094,15.557 18.119,17.848 18.664,14.873 	"/>
	<polygon fill="#FFFFFF" points="22.738,30.402 23.322,28.916 22.129,27.852 23.725,27.947 24.369,26.484 24.77,28.031 
		26.359,28.191 25.014,29.052 25.352,30.611 24.117,29.598 	"/>
</g>
</svg>
