<?xml version="1.0" encoding="utf-8"?>
<!-- Generator: Adobe Illustrator 16.0.0, SVG Export Plug-In . SVG Version: 6.00 Build 0)  -->
<!DOCTYPE svg PUBLIC "-//W3C//DTD SVG 1.1//EN" "http://www.w3.org/Graphics/SVG/1.1/DTD/svg11.dtd">
<svg version="1.1" id="Northern_Territory" xmlns="http://www.w3.org/2000/svg" xmlns:xlink="http://www.w3.org/1999/xlink" x="0px"
	 y="0px" width="100px" height="50px" viewBox="0 0 100 50" enable-background="new 0 0 100 50" xml:space="preserve">
<g id="au-nt">
	<polygon fill="#E57F29" points="300,301 400,301 400,251 300,251 	"/>
	<path fill="#FFFFFF" d="M370.802,264.657c0.641,0.63,1.279,1.259,1.279,2.519s-2.555,5.036-3.831,5.036
		c-1.277,0-3.832-3.776-3.832-5.036s0.639-1.889,1.277-2.519C366.332,264.025,370.164,264.025,370.802,264.657L370.802,264.657z"/>
	<path fill="#FFFFFF" d="M359.756,267.271c0.897-0.1,1.795-0.198,2.793,0.588c0.998,0.785,2.399,5.109,1.604,6.096
		c-0.799,0.982-5.387,0.595-6.385-0.191c-0.998-0.785-1.099-1.671-1.198-2.555C356.468,270.324,358.857,267.371,359.756,267.271
		L359.756,267.271z"/>
	<path fill="#FFFFFF" d="M355.158,277.598c0.48-0.754,0.963-1.507,2.208-1.785c1.243-0.279,5.548,1.34,5.829,2.567
		c0.283,1.228-2.887,4.521-4.133,4.802c-1.246,0.279-2.011-0.197-2.773-0.671C355.525,282.036,354.677,278.352,355.158,277.598
		L355.158,277.598z"/>
	<path fill="#FFFFFF" d="M360.292,287.646c-0.297-0.843-0.594-1.683-0.038-2.816c0.556-1.135,4.523-3.439,5.675-2.891
		c1.149,0.547,1.78,5.045,1.225,6.18c-0.556,1.133-1.406,1.426-2.261,1.719C364.039,290.132,360.589,288.486,360.292,287.646
		L360.292,287.646z"/>
	<path fill="#FFFFFF" d="M371.502,289.834c-0.853-0.295-1.705-0.591-2.256-1.727c-0.553-1.137,0.094-5.633,1.248-6.176
		c1.15-0.545,5.109,1.774,5.662,2.909c0.552,1.136,0.252,1.976-0.049,2.815C375.809,288.498,372.354,290.131,371.502,289.834
		L371.502,289.834z"/>
	<path fill="#FFFFFF" d="M380.262,282.641c-0.766,0.471-1.531,0.943-2.776,0.659c-1.243-0.282-4.403-3.589-4.115-4.815
		c0.288-1.226,4.595-2.829,5.841-2.549c1.243,0.282,1.723,1.039,2.201,1.795C381.89,278.486,381.027,282.168,380.262,282.641
		L380.262,282.641z"/>
	<path fill="#FFFFFF" d="M380.109,271.443c-0.104,0.887-0.207,1.77-1.209,2.553c-1,0.784-5.591,1.156-6.384,0.168
		c-0.793-0.987,0.623-5.307,1.623-6.091c1.002-0.78,1.898-0.679,2.795-0.576C377.833,267.6,380.213,270.559,380.109,271.443
		L380.109,271.443z"/>
	<path fill="#231F20" d="M371.509,270.922c0,0-0.466,2.719,0.329,3.721c0.794,1.004,3.52,1.078,3.52,1.078s-2.553,1.51-2.802,2.654
		c-0.249,1.146,1.246,3.405,1.246,3.405s-2.698-0.97-3.794-0.572c-1.093,0.397-1.599,3.063-1.643,3.062
		c-0.044,0-1.094-2.666-2.201-3.252c-1.109-0.584-3.699,0.711-3.613,0.67c0.09-0.041,1.504-2.647,1.361-3.719
		c-0.145-1.072-2.574-2.418-2.531-2.416s2.602-0.144,3.58-1.141c0.98-0.997,0.276-3.663,0.276-3.663s2.06,2.147,3.186,2.136
		C369.551,272.874,371.552,270.965,371.509,270.922L371.509,270.922z"/>
	<polygon fill="#231F20" points="300,301 335.08,301 335.08,251 300,251 	"/>
	<polygon fill="#FFFFFF" points="311.291,265.757 313.959,264.328 312.164,261.893 314.943,263.087 315.729,260.166 
		316.527,263.084 319.302,261.875 317.52,264.318 320.192,265.734 317.17,265.865 317.73,268.838 315.744,266.557 313.77,268.848 
		314.314,265.873 	"/>
	<polygon fill="#FFFFFF" points="311.291,265.757 313.959,264.328 312.164,261.893 314.943,263.087 315.729,260.166 
		316.527,263.084 319.302,261.875 317.52,264.318 320.192,265.734 317.17,265.865 317.73,268.838 315.744,266.557 313.77,268.848 
		314.314,265.873 	"/>
	<polygon fill="#FFFFFF" points="311.291,265.757 313.959,264.328 312.164,261.893 314.943,263.087 315.729,260.166 
		316.527,263.084 319.302,261.875 317.52,264.318 320.192,265.734 317.17,265.865 317.73,268.838 315.744,266.557 313.77,268.848 
		314.314,265.873 	"/>
	<polygon fill="#FFFFFF" points="311.291,265.757 313.959,264.328 312.164,261.893 314.943,263.087 315.729,260.166 
		316.527,263.084 319.302,261.875 317.52,264.318 320.192,265.734 317.17,265.865 317.73,268.838 315.744,266.557 313.77,268.848 
		314.314,265.873 	"/>
	<polygon fill="#FFFFFF" points="318.389,281.402 318.973,279.916 317.78,278.852 319.375,278.947 320.02,277.484 320.42,279.031 
		322.01,279.191 320.664,280.052 321.002,281.611 319.768,280.598 	"/>
</g>
</svg>
