<?xml version="1.0" encoding="utf-8"?>
<!-- Generator: Adobe Illustrator 16.0.0, SVG Export Plug-In . SVG Version: 6.00 Build 0)  -->
<!DOCTYPE svg PUBLIC "-//W3C//DTD SVG 1.1//EN" "http://www.w3.org/Graphics/SVG/1.1/DTD/svg11.dtd">
<svg version="1.1" id="New_South_Wales" xmlns="http://www.w3.org/2000/svg" xmlns:xlink="http://www.w3.org/1999/xlink" x="0px"
	 y="0px" width="100px" height="50px" viewBox="0 0 100 50" enable-background="new 0 0 100 50" xml:space="preserve">
<g id="au-nsw">
	<polygon fill="#003974" points="400,301 400,251 300,251 300,301 	"/>
	<polygon fill="#003974" points="300.051,275.999 350.049,275.999 350.049,251.001 300.051,251.001 	"/>
	<path fill="#FFFFFF" d="M300.049,272.841l43.751-21.796h6.249v3.115L306.3,275.955c0,0-6.251,0-6.251-0.091
		C300.049,275.688,300.049,272.841,300.049,272.841L300.049,272.841z"/>
	<path fill="#FFFFFF" d="M350.049,272.841L306.3,251.045l-6.251-0.012v3.128l43.752,21.794c0,0,6.248,0.176,6.248,0
		S350.049,272.841,350.049,272.841L350.049,272.841z"/>
	<polygon fill="#EC1C24" points="300.051,275.999 304.738,275.999 329.737,263.5 325.05,263.5 	"/>
	<polygon fill="#EC1C24" points="325.05,263.5 350.049,251.001 345.361,251.001 320.361,263.5 	"/>
	<polygon fill="#EC1C24" points="300.051,253.344 300.051,251.001 325.05,263.5 320.361,263.5 	"/>
	<polygon fill="#EC1C24" points="329.737,263.5 350.049,273.655 350.049,275.999 325.05,263.5 	"/>
	<polygon fill="#FFFFFF" points="300,259.574 300,267.425 350,267.425 350,259.574 	"/>
	<polygon fill="#FFFFFF" points="321.136,276.059 328.964,276.059 328.964,251.059 321.136,251.059 	"/>
	<polygon fill="#EC1C24" points="300,261.205 300,265.914 350,265.914 350,261.205 	"/>
	<polygon fill="#EC1C24" points="322.701,276 327.396,276 327.396,251 322.701,251 	"/>
	<path fill="#FFFFFF" d="M376.182,263.795L376.182,263.795c6.829,0,12.4,5.571,12.4,12.402l0,0c0,6.83-5.571,12.402-12.4,12.402l0,0
		c-6.831,0-12.402-5.572-12.402-12.402l0,0C363.779,269.366,369.351,263.795,376.182,263.795L376.182,263.795z"/>
	<path fill="#C64A34" d="M376.182,263.795L376.182,263.795c0.977,0,1.771,0.055,1.771,0.12v24.563c0,0.064-0.796,0.119-1.771,0.119
		l0,0c-0.977,0-1.771-0.055-1.771-0.119v-24.563C374.409,263.85,375.205,263.795,376.182,263.795L376.182,263.795z"/>
	<path fill="#C64A34" d="M363.779,276.197L363.779,276.197c1.096-0.119,1.891-0.066,1.891,0l22.793-1.771
		c1.771,1.838,0.977,1.891,0,1.891l0.119-0.118c-1.094,0.118-1.891,0.065-1.891,0l-22.793,1.771c-1.771-1.838-0.977-1.891,0-1.891
		L363.779,276.197z"/>
	<polygon fill="#FFE200" stroke="#231F20" stroke-width="0.7501" stroke-miterlimit="2.6131" points="375.875,271.375 
		375.568,270.281 374.619,270.906 375.176,269.916 374.062,269.688 375.156,269.381 374.531,268.432 375.521,268.986 
		375.75,267.875 376.057,268.969 377.006,268.344 376.451,269.334 377.562,269.562 376.469,269.869 377.095,270.816 
		376.104,270.262 	"/>
	<polygon fill="#FFE200" stroke="#231F20" stroke-width="0.7501" stroke-miterlimit="2.6131" points="375.875,271.375 
		375.568,270.281 374.619,270.906 375.176,269.916 374.062,269.688 375.156,269.381 374.531,268.432 375.521,268.986 
		375.75,267.875 376.057,268.969 377.006,268.344 376.451,269.334 377.562,269.562 376.469,269.869 377.095,270.816 
		376.104,270.262 	"/>
	<polygon fill="#FFE200" stroke="#231F20" stroke-width="0.7501" stroke-miterlimit="2.6131" points="375.875,271.375 
		375.568,270.281 374.619,270.906 375.176,269.916 374.062,269.688 375.156,269.381 374.531,268.432 375.521,268.986 
		375.75,267.875 376.057,268.969 377.006,268.344 376.451,269.334 377.562,269.562 376.469,269.869 377.095,270.816 
		376.104,270.262 	"/>
	<polygon fill="#FFE200" stroke="#231F20" stroke-width="0.7501" stroke-miterlimit="2.6131" points="375.875,271.375 
		375.568,270.281 374.619,270.906 375.176,269.916 374.062,269.688 375.156,269.381 374.531,268.432 375.521,268.986 
		375.75,267.875 376.057,268.969 377.006,268.344 376.451,269.334 377.562,269.562 376.469,269.869 377.095,270.816 
		376.104,270.262 	"/>
	<path fill="#FFC609" stroke="#231F20" stroke-width="0.7501" stroke-miterlimit="2.6131" d="M371.552,275.318
		c-0.044-0.344,0.709-0.172,0.843,0.1c0.443,0.148,2.48,0.689,2.48,0.689l-0.266,0.197c0,0-2.037-0.718-2.17-0.666
		c-0.134,0.049-0.487-0.123-0.487-0.123l-0.046-0.173c0,0-0.044,0.147-0.088,0.147c-0.045,0-0.045-0.174-0.045-0.174l-0.179,0.123
		L371.552,275.318L371.552,275.318z"/>
	<path fill="#FFC609" stroke="#231F20" stroke-width="0.7501" stroke-miterlimit="2.6131" d="M375.139,275.984
		c0.666-0.014,3.785-0.014,3.785-0.014s0.576-0.011,0.6-0.195c0.022-0.186-0.51-0.197-0.51-0.197l-2.791-0.012
		c0,0-0.377-0.025-0.42-0.348c-0.045-0.32,0.398-0.344,0.398-0.344l1.527-0.025c0,0,0-0.16,0.022-0.16
		c0.021,0,0.088,0.086,0.088,0.086s0.179-0.122,0.179-0.109c0,0.012,0.064,0.1,0.064,0.1l0.133-0.062c0,0,0.046,0.072,0.069,0.072
		c0.021,0,0.176-0.062,0.176-0.062l0.111,0.086l0.221,0.074h-0.266l-0.044,0.062l-0.111-0.062l-0.133,0.099l-0.089-0.062
		c0,0-0.091,0.049-0.091,0.062c0,0.012-0.088-0.074-0.11-0.074c-0.021,0-0.134,0.062-0.134,0.062s-0.065-0.049-0.088-0.049
		s-1.527,0.022-1.527,0.022s-0.244,0.013-0.268,0.283c-0.021,0.271,0.312,0.271,0.312,0.271s2.855,0.012,2.879,0.012
		c0.021,0,0.553,0.037,0.531,0.259c-0.024,0.222-0.288,0.261-0.288,0.261s0.288,0.086,0.421,0.258
		c0.132,0.175,0.045,0.224,0.177,0.322c0.133,0.098,0.663,0.308,0.663,0.506c0,0.197-0.088,0.185-0.111,0.185
		c-0.021,0-0.108-0.05-0.108-0.05s0.063,0.072-0.156,0.186c-0.222,0.111-0.709,0.186-0.709,0.186l-0.111-0.062l-0.045,0.074
		c0,0-0.021-0.062-0.044-0.062c-0.022,0-0.112,0.051-0.112,0.051s-0.043-0.062-0.065-0.062c-0.021,0-0.111,0.074-0.111,0.074
		s-0.021-0.086,0.068-0.136c0.087-0.051,0.287-0.024,0.309-0.024c0.022,0,0.599-0.024,0.554-0.347
		c-0.045-0.319-0.466-0.319-0.466-0.319s-0.53-0.123-1.262-0.135c-0.73-0.015-1.638,0.159-2.812,0.245
		c-1.174,0.087-2.724,0.419-2.724,0.419l-0.044,0.073c0,0-0.066-0.098-0.09-0.088c-0.021,0.012-0.044,0.101-0.066,0.101
		c-0.021,0-0.134-0.112-0.134-0.112s-0.198,0.147-0.198,0.137c0-0.012,0.021-0.112,0.021-0.112s-0.133-0.197,0.311-0.271
		c0.443-0.074,0.467-0.012,0.997-0.121c0.53-0.112,0.197-0.42,0.708-0.681C374.741,275.996,375.161,275.996,375.139,275.984
		L375.139,275.984z"/>
	<path fill="#FFC609" stroke="#231F20" stroke-width="0.7501" stroke-miterlimit="2.6131" d="M374.531,275.973L374.531,275.973
		c0.091-0.063,0.164,0,0.164,0.079l0,0c0,0.077-0.073,0.144-0.164,0.144v-0.063c-0.094,0.063-0.166-0.002-0.166-0.079l0,0
		c0-0.078,0.072-0.145,0.166-0.145V275.973z"/>
	<path fill="#FFC609" stroke="#231F20" stroke-width="0.7501" stroke-miterlimit="2.6131" d="M374.354,275.91L374.354,275.91
		c0.093-0.062,0.166,0,0.166,0.08l0,0c0,0.078-0.073,0.144-0.166,0.144v-0.062c-0.092,0.062-0.166-0.003-0.166-0.08l0,0
		c0-0.08,0.074-0.146,0.166-0.146V275.91z"/>
	<path fill="#FFC609" stroke="#231F20" stroke-width="0.7501" stroke-miterlimit="2.6131" d="M374.342,276.07L374.342,276.07
		c0.094-0.063,0.168,0.001,0.168,0.08l0,0c0,0.078-0.074,0.144-0.168,0.144v-0.063c-0.092,0.063-0.166,0-0.166-0.08l0,0
		c0-0.078,0.074-0.145,0.166-0.145V276.07z"/>
	<path fill="#FFC609" stroke="#231F20" stroke-width="0.7501" stroke-miterlimit="2.6131" d="M374.176,276.003L374.176,276.003
		c0.094-0.063,0.166,0,0.166,0.08l0,0c0,0.079-0.072,0.144-0.166,0.144v-0.062c-0.091,0.062-0.165-0.001-0.165-0.08l0,0
		c0-0.08,0.074-0.145,0.165-0.145V276.003z"/>
	<path fill="#FFC609" stroke="#231F20" stroke-width="0.7501" stroke-miterlimit="2.6131" d="M374.021,276.114L374.021,276.114
		c0.092-0.063,0.166,0,0.166,0.079l0,0c0,0.078-0.074,0.145-0.166,0.145v-0.064c-0.093,0.064-0.166,0-0.166-0.078l0,0
		c0-0.08,0.073-0.145,0.166-0.145V276.114z"/>
	<path fill="#FFC609" stroke="#231F20" stroke-width="0.7501" stroke-miterlimit="2.6131" d="M374.165,276.188L374.165,276.188
		c0.092-0.063,0.167,0.002,0.167,0.08l0,0c0,0.08-0.075,0.146-0.167,0.146v-0.065c-0.092,0.065-0.166,0-0.166-0.08v0.002
		c0-0.08,0.074-0.146,0.166-0.146V276.188z"/>
	<path fill="#FFC609" stroke="#231F20" stroke-width="0.7501" stroke-miterlimit="2.6131" d="M373.855,276.182L373.855,276.182
		c0.091-0.063,0.166,0,0.166,0.079l0,0c0,0.08-0.075,0.146-0.166,0.146v-0.064c-0.093,0.064-0.166,0-0.166-0.08l0,0
		c0-0.078,0.073-0.144,0.166-0.144V276.182z"/>
	<path fill="#FFC609" stroke="#231F20" stroke-width="0.7501" stroke-miterlimit="2.6131" d="M373.979,276.243L373.979,276.243
		c0.091-0.063,0.164,0,0.164,0.08l0,0c0,0.077-0.073,0.144-0.164,0.144v-0.062c-0.093,0.062-0.166-0.004-0.166-0.08l0,0
		c0-0.08,0.073-0.145,0.166-0.145V276.243z"/>
	<path fill="#FFC609" stroke="#231F20" stroke-width="0.7501" stroke-miterlimit="2.6131" d="M374.465,275.793L374.465,275.793
		c0.092-0.062,0.166,0.001,0.166,0.08l0,0c0,0.08-0.074,0.145-0.166,0.145v-0.063c-0.092,0.063-0.167-0.001-0.167-0.08l0,0
		c0-0.079,0.075-0.144,0.167-0.144V275.793z"/>
	<path fill="#FFC609" stroke="#231F20" stroke-width="0.7501" stroke-miterlimit="2.6131" d="M374.664,275.893L374.664,275.893
		c0.091-0.063,0.166,0,0.166,0.08l0,0c0,0.078-0.075,0.144-0.166,0.144v-0.063c-0.094,0.063-0.166-0.001-0.166-0.08l0,0
		c0-0.078,0.072-0.145,0.166-0.145V275.893z"/>
	<path fill="#FFC609" stroke="#231F20" stroke-width="0.7501" stroke-miterlimit="2.6131" d="M374.586,275.695L374.586,275.695
		c0.092-0.063,0.166,0,0.166,0.08l0,0c0,0.078-0.072,0.145-0.166,0.145v-0.064c-0.092,0.064-0.166-0.002-0.166-0.08l0,0
		c0-0.079,0.074-0.144,0.166-0.144V275.695z"/>
	<path fill="#FFC609" stroke="#231F20" stroke-width="0.7501" stroke-miterlimit="2.6131" d="M374.773,275.799L374.773,275.799
		c0.094-0.064,0.168,0.002,0.168,0.08l0,0c0,0.08-0.074,0.145-0.168,0.145v-0.063c-0.091,0.063-0.165,0-0.165-0.08l0,0
		c0-0.078,0.074-0.146,0.165-0.146V275.799z"/>
	<path fill="#FFC609" stroke="#231F20" stroke-width="0.7501" stroke-miterlimit="2.6131" d="M374.918,275.893L374.918,275.893
		c0.092-0.063,0.166,0,0.166,0.08l0,0c0,0.078-0.074,0.144-0.166,0.144v-0.063c-0.091,0.063-0.166-0.001-0.166-0.08l0,0
		c0-0.078,0.075-0.145,0.166-0.145V275.893z"/>
	<path fill="#FFC609" stroke="#231F20" stroke-width="0.7501" stroke-miterlimit="2.6131" d="M374.786,276.003L374.786,276.003
		c0.091-0.063,0.165,0,0.165,0.08l0,0c0,0.079-0.074,0.144-0.165,0.144v-0.062c-0.094,0.062-0.167-0.001-0.167-0.08l0,0
		c0-0.08,0.073-0.145,0.167-0.145V276.003z"/>
	<path fill="#FFC609" stroke="#231F20" stroke-width="0.7501" stroke-miterlimit="2.6131" d="M374.652,276.083L374.652,276.083
		c0.094-0.063,0.166,0.001,0.166,0.08l0,0c0,0.078-0.072,0.144-0.166,0.144v-0.062c-0.093,0.062-0.166-0.002-0.166-0.08l0,0
		c0-0.079,0.074-0.145,0.166-0.145V276.083z"/>
	<path fill="#FFC609" stroke="#231F20" stroke-width="0.7501" stroke-miterlimit="2.6131" d="M374.465,276.168L374.465,276.168
		c0.092-0.062,0.166,0.002,0.166,0.08l0,0c0,0.08-0.074,0.145-0.166,0.145v-0.063c-0.092,0.063-0.167,0-0.167-0.08l0,0
		c0-0.078,0.075-0.144,0.167-0.144V276.168z"/>
	<path fill="#FFC609" stroke="#231F20" stroke-width="0.7501" stroke-miterlimit="2.6131" d="M374.309,276.248L374.309,276.248
		c0.093-0.062,0.167,0.002,0.167,0.08l0,0c0,0.08-0.074,0.145-0.167,0.145v-0.063c-0.092,0.063-0.166,0-0.166-0.08l0,0
		c0-0.078,0.074-0.144,0.166-0.144V276.248z"/>
	<path fill="#FFC609" stroke="#231F20" stroke-width="0.7501" stroke-miterlimit="2.6131" d="M374.165,276.342L374.165,276.342
		c0.092-0.062,0.167,0.001,0.167,0.08l0,0c0,0.079-0.075,0.145-0.167,0.145v-0.063c-0.092,0.063-0.166-0.001-0.166-0.08l0,0
		c0-0.079,0.074-0.144,0.166-0.144V276.342z"/>
	<path fill="#FFC609" stroke="#231F20" stroke-width="0.7501" stroke-miterlimit="2.6131" d="M373.623,276.52L373.623,276.52
		c0.092-0.062,0.166,0.002,0.166,0.08l0,0c0,0.079-0.074,0.146-0.166,0.146v-0.063c-0.092,0.063-0.166-0.002-0.166-0.08l0,0
		c0-0.078,0.074-0.145,0.166-0.145V276.52z"/>
	<path fill="#FFC609" stroke="#231F20" stroke-width="0.7501" stroke-miterlimit="2.6131" d="M373.445,276.458L373.445,276.458
		c0.093-0.063,0.166,0.002,0.166,0.08l0,0c0,0.08-0.073,0.144-0.166,0.144v-0.062c-0.092,0.062-0.166,0-0.166-0.08l0,0
		c0-0.078,0.074-0.145,0.166-0.145V276.458z"/>
	<path fill="#FFC609" stroke="#231F20" stroke-width="0.7501" stroke-miterlimit="2.6131" d="M373.312,276.193L373.312,276.193
		c0.092-0.062,0.166,0,0.166,0.08l0,0c0,0.078-0.074,0.145-0.166,0.145v-0.064c-0.092,0.064-0.166,0-0.166-0.08l0,0
		c0-0.078,0.074-0.143,0.166-0.143V276.193z"/>
	<path fill="#FFC609" stroke="#231F20" stroke-width="0.7501" stroke-miterlimit="2.6131" d="M373.557,276.342L373.557,276.342
		c0.092-0.062,0.166,0.001,0.166,0.08l0,0c0,0.079-0.074,0.145-0.166,0.145v-0.063c-0.093,0.063-0.166-0.001-0.166-0.08l0,0
		c0-0.079,0.073-0.144,0.166-0.144V276.342z"/>
	<path fill="#FFC609" stroke="#231F20" stroke-width="0.7501" stroke-miterlimit="2.6131" d="M373.755,276.439L373.755,276.439
		c0.094-0.063,0.167,0.002,0.167,0.08l0,0c0,0.08-0.073,0.145-0.167,0.145V276.6c-0.091,0.064-0.165,0-0.165-0.08l0,0
		c0-0.078,0.074-0.144,0.165-0.144V276.439z"/>
	<path fill="#FFC609" stroke="#231F20" stroke-width="0.7501" stroke-miterlimit="2.6131" d="M373.679,276.243L373.679,276.243
		c0.091-0.063,0.165,0,0.165,0.08l0,0c0,0.077-0.074,0.144-0.165,0.144v-0.062c-0.093,0.062-0.167-0.004-0.167-0.08l0,0
		c0-0.08,0.074-0.145,0.167-0.145V276.243z"/>
	<path fill="#FFC609" stroke="#231F20" stroke-width="0.7501" stroke-miterlimit="2.6131" d="M373.866,276.348L373.866,276.348
		c0.091-0.063,0.165,0.002,0.165,0.08l0,0c0,0.078-0.074,0.145-0.165,0.145v-0.065c-0.093,0.065-0.165,0-0.165-0.078l0,0
		c0-0.079,0.072-0.145,0.165-0.145V276.348z"/>
	<path fill="#FFC609" stroke="#231F20" stroke-width="0.7501" stroke-miterlimit="2.6131" d="M374.011,276.439L374.011,276.439
		c0.091-0.063,0.164,0.002,0.164,0.08l0,0c0,0.08-0.073,0.145-0.164,0.145V276.6c-0.093,0.064-0.166,0-0.166-0.08l0,0
		c0-0.078,0.073-0.144,0.166-0.144V276.439z"/>
	<path fill="#FFC609" stroke="#231F20" stroke-width="0.7501" stroke-miterlimit="2.6131" d="M373.877,276.551L373.877,276.551
		c0.094-0.062,0.167,0.001,0.167,0.08l0,0c0,0.08-0.073,0.145-0.167,0.145v-0.063c-0.091,0.063-0.166,0-0.166-0.08l0,0
		c0-0.079,0.075-0.144,0.166-0.144V276.551z"/>
	<path fill="#FFC609" stroke="#231F20" stroke-width="0.7501" stroke-miterlimit="2.6131" d="M373.623,276.205L373.623,276.205
		c0.092-0.062,0.166,0.002,0.166,0.081l0,0c0,0.079-0.074,0.144-0.166,0.144v-0.062c-0.092,0.062-0.166-0.001-0.166-0.08l0,0
		c0-0.079,0.074-0.145,0.166-0.145V276.205z"/>
	<path fill="#FFC609" stroke="#231F20" stroke-width="0.7501" stroke-miterlimit="2.6131" d="M373.435,276.293L373.435,276.293
		c0.092-0.064,0.165,0,0.165,0.08l0,0c0,0.078-0.073,0.143-0.165,0.143v-0.062c-0.091,0.062-0.165-0.001-0.165-0.079l0,0
		c0-0.08,0.074-0.146,0.165-0.146V276.293z"/>
	<path fill="#FFC609" stroke="#231F20" stroke-width="0.7501" stroke-miterlimit="2.6131" d="M374.83,276.188L374.83,276.188
		c0.091-0.063,0.166,0.002,0.166,0.08l0,0c0,0.08-0.075,0.146-0.166,0.146v-0.065c-0.093,0.065-0.166,0-0.166-0.08v0.002
		c0-0.08,0.073-0.146,0.166-0.146V276.188z"/>
	<path fill="#FFC609" stroke="#231F20" stroke-width="0.7501" stroke-miterlimit="2.6131" d="M374.652,276.125L374.652,276.125
		c0.094-0.062,0.166,0.002,0.166,0.08l0,0c0,0.08-0.072,0.145-0.166,0.145v-0.062c-0.093,0.062-0.166-0.001-0.166-0.081l0,0
		c0-0.078,0.074-0.144,0.166-0.144V276.125z"/>
	<path fill="#FFC609" stroke="#231F20" stroke-width="0.7501" stroke-miterlimit="2.6131" d="M374.643,276.286L374.643,276.286
		c0.092-0.063,0.165,0.001,0.165,0.08l0,0c0,0.079-0.073,0.144-0.165,0.144v-0.062c-0.094,0.062-0.167-0.001-0.167-0.08l0,0
		c0-0.079,0.073-0.145,0.167-0.145V276.286z"/>
	<path fill="#FFC609" stroke="#231F20" stroke-width="0.7501" stroke-miterlimit="2.6131" d="M374.476,276.218L374.476,276.218
		c0.093-0.062,0.167,0.002,0.167,0.08l0,0c0,0.08-0.074,0.144-0.167,0.144v-0.062c-0.094,0.062-0.167,0-0.167-0.08l0,0
		c0-0.078,0.073-0.144,0.167-0.144V276.218z"/>
	<path fill="#FFC609" stroke="#231F20" stroke-width="0.7501" stroke-miterlimit="2.6131" d="M374.32,276.328L374.32,276.328
		c0.093-0.062,0.166,0.002,0.166,0.08l0,0c0,0.081-0.073,0.145-0.166,0.145v-0.062c-0.092,0.062-0.166,0-0.166-0.081l0,0
		c0-0.078,0.074-0.144,0.166-0.144V276.328z"/>
	<path fill="#FFC609" stroke="#231F20" stroke-width="0.7501" stroke-miterlimit="2.6131" d="M374.26,275.314L374.26,275.314
		c-0.031-0.06,0.029-0.008,0.029,0.057l-0.018,0.066c0.018-0.004-0.041,0.047-0.114,0.047l-0.104-0.059
		c0.031,0.059-0.028,0.01-0.028-0.055l0.019-0.068c-0.019,0.006,0.041-0.048,0.114-0.048L374.26,275.314z"/>
	<path fill="#FFC609" stroke="#231F20" stroke-width="0.7501" stroke-miterlimit="2.6131" d="M374.232,275.201L374.232,275.201
		c-0.031-0.059,0.029-0.008,0.029,0.056l-0.019,0.066c0.019-0.003-0.041,0.05-0.114,0.05l-0.104-0.061
		c0.03,0.061-0.029,0.008-0.029-0.056l0.019-0.065c-0.019,0.002,0.041-0.049,0.113-0.049L374.232,275.201z"/>
	<path fill="#FFC609" stroke="#231F20" stroke-width="0.7501" stroke-miterlimit="2.6131" d="M373.98,275.216L373.98,275.216
		c-0.03-0.06,0.029-0.007,0.029,0.056l-0.018,0.066c0.018-0.004-0.042,0.051-0.114,0.051l-0.104-0.061
		c0.03,0.061-0.029,0.008-0.029-0.055l0.018-0.066c-0.018,0.003,0.042-0.051,0.114-0.051L373.98,275.216z"/>
	<path fill="#FFC609" stroke="#231F20" stroke-width="0.7501" stroke-miterlimit="2.6131" d="M373.951,275.35L373.951,275.35
		c-0.031-0.059,0.029-0.008,0.029,0.057l-0.019,0.066c0.019-0.004-0.042,0.049-0.114,0.049l-0.104-0.061
		c0.031,0.061-0.03,0.008-0.03-0.055l0.02-0.068c-0.02,0.004,0.042-0.047,0.114-0.047L373.951,275.35z"/>
	<path fill="#FFC609" stroke="#231F20" stroke-width="0.7501" stroke-miterlimit="2.6131" d="M373.782,275.288L373.782,275.288
		c-0.031-0.06,0.028-0.008,0.028,0.056l-0.019,0.066c0.019-0.004-0.041,0.049-0.113,0.049l-0.104-0.061
		c0.03,0.061-0.03,0.008-0.03-0.056l0.018-0.067c-0.018,0.004,0.043-0.049,0.115-0.049L373.782,275.288z"/>
	<path fill="#FFC609" stroke="#231F20" stroke-width="0.7501" stroke-miterlimit="2.6131" d="M374.11,275.332L374.11,275.332
		c-0.03-0.061,0.029-0.009,0.029,0.055l-0.018,0.066c0.018-0.002-0.043,0.049-0.115,0.049l-0.104-0.061
		c0.03,0.061-0.029,0.01-0.029-0.056l0.018-0.067c-0.018,0.005,0.043-0.047,0.115-0.047L374.11,275.332z"/>
	<path fill="#FFC609" stroke="#231F20" stroke-width="0.7501" stroke-miterlimit="2.6131" d="M374.465,276.402L374.465,276.402
		c0.092-0.062,0.166,0,0.166,0.08l0,0c0,0.08-0.074,0.145-0.166,0.145v-0.062c-0.092,0.062-0.167-0.002-0.167-0.08l0,0
		c0-0.08,0.075-0.145,0.167-0.145V276.402z"/>
	<path fill="#FFC609" stroke="#231F20" stroke-width="0.7501" stroke-miterlimit="2.6131" d="M374.154,276.396L374.154,276.396
		c0.092-0.062,0.166,0.002,0.166,0.08l0,0c0,0.08-0.074,0.145-0.166,0.145v-0.064c-0.092,0.064-0.166,0-0.166-0.08l0,0
		c0-0.078,0.074-0.143,0.166-0.143V276.396z"/>
	<path fill="#FFC609" stroke="#231F20" stroke-width="0.7501" stroke-miterlimit="2.6131" d="M374.275,276.458L374.275,276.458
		c0.094-0.063,0.166,0.002,0.166,0.08l0,0c0,0.08-0.072,0.144-0.166,0.144v-0.062c-0.091,0.062-0.165,0-0.165-0.08l0,0
		c0-0.078,0.074-0.145,0.165-0.145V276.458z"/>
	<path fill="#FFC609" stroke="#231F20" stroke-width="0.7501" stroke-miterlimit="2.6131" d="M374.764,276.009L374.764,276.009
		c0.093-0.063,0.166,0.001,0.166,0.079l0,0c0,0.08-0.074,0.145-0.166,0.145v-0.063c-0.094,0.063-0.167,0-0.167-0.08l0,0
		c0-0.078,0.073-0.144,0.167-0.144V276.009z"/>
	<path fill="#FFC609" stroke="#231F20" stroke-width="0.7501" stroke-miterlimit="2.6131" d="M374.453,275.688
		c0.021-0.098,0.311-0.072,0.288-0.209c-0.067-0.135-0.71,0.014-0.952-0.012c-0.311-0.062-0.554-0.271-0.73-0.197
		c-0.178,0.074,0.154,0.1,0.045,0.187c-0.11,0.086-0.377,0.614,0.198,0.812C373.855,276.378,374.431,275.787,374.453,275.688
		L374.453,275.688z"/>
	<path fill="#FFC609" stroke="#231F20" stroke-width="0.7501" stroke-miterlimit="2.6131" d="M374.963,276.107L374.963,276.107
		c0.092-0.064,0.166,0,0.166,0.08l0,0c0,0.078-0.074,0.145-0.166,0.145v-0.064c-0.092,0.064-0.166,0-0.166-0.08l0,0
		c0-0.078,0.074-0.145,0.166-0.145V276.107z"/>
	<path fill="#FFC609" stroke="#231F20" stroke-width="0.7501" stroke-miterlimit="2.6131" d="M374.886,275.91L374.886,275.91
		c0.091-0.062,0.164,0,0.164,0.08l0,0c0,0.078-0.073,0.144-0.164,0.144v-0.062c-0.093,0.062-0.167-0.003-0.167-0.08l0,0
		c0-0.08,0.074-0.146,0.167-0.146V275.91z"/>
	<path fill="#FFC609" stroke="#231F20" stroke-width="0.7501" stroke-miterlimit="2.6131" d="M375.073,276.016L375.073,276.016
		c0.092-0.064,0.166,0,0.166,0.079l0,0c0,0.079-0.074,0.145-0.166,0.145v-0.063c-0.093,0.063-0.166-0.002-0.166-0.08l0,0
		c0-0.078,0.073-0.145,0.166-0.145V276.016z"/>
	<path fill="#FFC609" stroke="#231F20" stroke-width="0.7501" stroke-miterlimit="2.6131" d="M373.855,276.508L373.855,276.508
		c0.091-0.064,0.166,0.001,0.166,0.08l0,0c0,0.08-0.075,0.145-0.166,0.145v-0.063c-0.093,0.063-0.166,0-0.166-0.08l0,0
		c0-0.079,0.073-0.146,0.166-0.146V276.508z"/>
	<path fill="#FFC609" stroke="#231F20" stroke-width="0.7501" stroke-miterlimit="2.6131" d="M373.979,276.408L373.979,276.408
		c0.091-0.063,0.164,0.001,0.164,0.081l0,0c0,0.079-0.073,0.144-0.164,0.144v-0.064c-0.093,0.064-0.166,0-0.166-0.078l0,0
		c0-0.08,0.073-0.146,0.166-0.146V276.408z"/>
	<path fill="#FFC609" stroke="#231F20" stroke-width="0.7501" stroke-miterlimit="2.6131" d="M374.165,276.516L374.165,276.516
		c0.092-0.064,0.167,0,0.167,0.079l0,0c0,0.077-0.075,0.145-0.167,0.145v-0.063c-0.092,0.063-0.166-0.003-0.166-0.08l0,0
		c0-0.08,0.074-0.145,0.166-0.145V276.516z"/>
	<path fill="#FFC609" stroke="#231F20" stroke-width="0.7501" stroke-miterlimit="2.6131" d="M375.129,275.859L375.129,275.859
		c0.092-0.062,0.165,0.002,0.165,0.082l0,0c0,0.078-0.074,0.143-0.165,0.143v-0.062c-0.092,0.062-0.166-0.002-0.166-0.08l0,0
		c0-0.08,0.074-0.145,0.166-0.145V275.859z"/>
	<path fill="#FFC609" stroke="#231F20" stroke-width="0.7501" stroke-miterlimit="2.6131" d="M374.808,275.521L374.808,275.521
		c0.092-0.062,0.166,0,0.166,0.08l0,0c0,0.078-0.074,0.145-0.166,0.145v-0.062c-0.093,0.062-0.165-0.002-0.165-0.08l0,0
		c0-0.08,0.072-0.145,0.165-0.145V275.521z"/>
	<path fill="#FFC609" stroke="#231F20" stroke-width="0.7501" stroke-miterlimit="2.6131" d="M374.951,275.596L374.951,275.596
		c0.092-0.062,0.166,0.002,0.166,0.08l0,0c0,0.078-0.074,0.145-0.166,0.145v-0.064c-0.092,0.064-0.165-0.001-0.165-0.079l0,0
		c0-0.079,0.073-0.144,0.165-0.144V275.596z"/>
	<path fill="#FFC609" stroke="#231F20" stroke-width="0.7501" stroke-miterlimit="2.6131" d="M374.643,275.59L374.643,275.59
		c0.092-0.064,0.165,0.001,0.165,0.08l0,0c0,0.08-0.073,0.145-0.165,0.145v-0.063c-0.094,0.063-0.167,0-0.167-0.08l0,0
		c0-0.078,0.073-0.146,0.167-0.146V275.59z"/>
	<path fill="#FFC609" stroke="#231F20" stroke-width="0.7501" stroke-miterlimit="2.6131" d="M374.764,275.65L374.764,275.65
		c0.093-0.062,0.166,0.002,0.166,0.08l0,0c0,0.08-0.074,0.145-0.166,0.145v-0.062c-0.094,0.062-0.167-0.002-0.167-0.08l0,0
		c0-0.08,0.073-0.145,0.167-0.145V275.65z"/>
	<path fill="#FFC609" stroke="#231F20" stroke-width="0.7501" stroke-miterlimit="2.6131" d="M375.096,275.657L375.096,275.657
		c0.092-0.063,0.165,0.001,0.165,0.079l0,0c0,0.078-0.073,0.146-0.165,0.146v-0.065c-0.093,0.065-0.166,0-0.166-0.077l0,0
		c0-0.08,0.073-0.146,0.166-0.146V275.657z"/>
	<path fill="#FFC609" stroke="#231F20" stroke-width="0.7501" stroke-miterlimit="2.6131" d="M374.951,275.75L374.951,275.75
		c0.092-0.064,0.166,0.002,0.166,0.08l0,0c0,0.08-0.074,0.145-0.166,0.145v-0.063c-0.092,0.063-0.165,0-0.165-0.08l0,0
		c0-0.078,0.073-0.146,0.165-0.146V275.75z"/>
	<path fill="#FFC609" stroke="#231F20" stroke-width="0.7501" stroke-miterlimit="2.6131" d="M374.475,275.209L374.475,275.209
		c-0.03-0.061,0.029-0.008,0.029,0.057l-0.019,0.066c0.019-0.004-0.042,0.048-0.114,0.048l-0.104-0.06
		c0.031,0.06-0.03,0.009-0.03-0.055l0.019-0.067c-0.019,0.003,0.042-0.05,0.114-0.05L374.475,275.209z"/>
	<path fill="#FFC609" stroke="#231F20" stroke-width="0.7501" stroke-miterlimit="2.6131" d="M374.713,275.321L374.713,275.321
		c-0.031-0.061,0.031-0.009,0.031,0.055l-0.02,0.067c0.02-0.004-0.042,0.049-0.113,0.049l-0.104-0.061
		c0.031,0.061-0.028,0.01-0.028-0.056l0.019-0.065c-0.019,0.004,0.042-0.051,0.114-0.051L374.713,275.321z"/>
	<path fill="#FFC609" stroke="#231F20" stroke-width="0.7501" stroke-miterlimit="2.6131" d="M374.518,275.323L374.518,275.323
		c-0.03-0.062,0.027-0.009,0.027,0.054l-0.017,0.068c0.017-0.006-0.042,0.048-0.114,0.048l-0.105-0.06
		c0.031,0.06-0.026,0.008-0.026-0.057l0.017-0.066c-0.017,0.004,0.041-0.049,0.114-0.049L374.518,275.323z"/>
	<path fill="#FFC609" stroke="#231F20" stroke-width="0.7501" stroke-miterlimit="2.6131" d="M374.89,275.424L374.89,275.424
		c-0.03-0.061,0.028-0.009,0.028,0.055l-0.018,0.066c0.018-0.003-0.041,0.049-0.115,0.049l-0.104-0.06
		c0.031,0.06-0.028,0.009-0.028-0.054l0.018-0.066c-0.018,0.002,0.041-0.051,0.114-0.051L374.89,275.424z"/>
	<path fill="#231F20" d="M373.902,276.098c0.004-0.056,0.004-0.056,0.004-0.056c0-0.122-0.176-0.222-0.39-0.222
		c-0.212,0-0.387,0.097-0.389,0.218c0,0.004,0,0.005,0,0.005c0,0.122,0.176,0.221,0.389,0.221c0.214,0,0.39-0.099,0.39-0.221
		c0-0.001,0-0.003,0-0.003l-0.39,0.003L373.902,276.098L373.902,276.098z"/>
	<path fill="#231F20" d="M373.643,275.717c0.008-0.045,0.008-0.045,0.008-0.045c0-0.049-0.073-0.092-0.163-0.092
		c-0.088,0-0.16,0.041-0.162,0.091c0,0.001,0,0.001,0,0.001c0,0.053,0.073,0.094,0.162,0.094c0.09,0,0.162-0.041,0.162-0.094l0,0
		h-0.162L373.643,275.717L373.643,275.717z"/>
	<path fill="#231F20" d="M374.086,275.814c0.006-0.043,0.006-0.043,0.006-0.043c0-0.052-0.072-0.094-0.161-0.094
		s-0.161,0.04-0.161,0.092v0.002c0,0.05,0.072,0.091,0.161,0.091c0.091,0,0.161-0.041,0.161-0.091c0-0.002,0-0.002,0-0.002
		l-0.161,0.002L374.086,275.814L374.086,275.814z"/>
	<path fill="#231F20" d="M373.82,275.891c0.008-0.046,0.008-0.046,0.008-0.046c0-0.052-0.074-0.093-0.162-0.093
		c-0.09,0-0.162,0.041-0.164,0.091c0,0.003,0,0.003,0,0.003c0,0.051,0.074,0.092,0.164,0.092c0.089,0,0.162-0.041,0.162-0.092
		c0,0,0,0,0-0.002l-0.162,0.002L373.82,275.891L373.82,275.891z"/>
	<path fill="#231F20" d="M373.487,276.003c0.21-0.084,0.21-0.084,0.21-0.084c0-0.038-0.055-0.069-0.121-0.069
		s-0.12,0.03-0.122,0.067c0,0.002,0,0.002,0,0.002c0,0.038,0.054,0.069,0.122,0.069c0.066,0,0.121-0.031,0.121-0.069
		c0,0,0-0.001,0-0.002l-0.121,0.002L373.487,276.003L373.487,276.003z"/>
</g>
</svg>
