<?xml version="1.0" encoding="utf-8"?>
<!-- Generator: Adobe Illustrator 16.0.0, SVG Export Plug-In . SVG Version: 6.00 Build 0)  -->
<svg version="1.2" baseProfile="tiny" id="Queensland"
	 xmlns="http://www.w3.org/2000/svg" xmlns:xlink="http://www.w3.org/1999/xlink" x="0px" y="0px" width="90px" height="50px"
	 viewBox="5 0 90 50" xml:space="preserve">
<g id="au-qld">
	<polygon fill="#1E3E71" points="95,50 95,0 5,0 5,50 	"/>
	<polygon fill="#1E3E71" points="5.046,24.999 50.043,24.999 50.043,0.001 5.046,0.001 	"/>
	<path fill="#FFFFFF" d="M5.044,21.841L44.42,0.047h5.625v3.112L10.669,24.955c0,0-5.625,0-5.625-0.091
		C5.044,24.688,5.044,21.841,5.044,21.841L5.044,21.841z"/>
	<path fill="#FFFFFF" d="M50.045,21.841L10.67,0.047L5.045,0.033v3.126L44.42,24.955c0,0,5.625,0.177,5.625,0
		C50.045,24.777,50.045,21.841,50.045,21.841L50.045,21.841z"/>
	<polygon fill="#E82429" points="5.046,24.999 9.266,24.999 31.764,12.5 27.544,12.5 	"/>
	<polygon fill="#E82429" points="27.544,12.5 50.043,0.001 45.825,0.001 23.325,12.5 	"/>
	<polygon fill="#E82429" points="5.046,2.345 5.046,0.001 27.544,12.5 23.325,12.5 	"/>
	<polygon fill="#E82429" points="31.764,12.5 50.043,22.655 50.043,24.999 27.544,12.5 	"/>
	<polygon fill="#FFFFFF" points="5,8.575 5,16.425 50,16.425 50,8.575 	"/>
	<polygon fill="#FFFFFF" points="24.021,25.059 31.066,25.059 31.066,0.059 24.021,0.059 	"/>
	<polygon fill="#E82429" points="5,10.204 5,14.913 50,14.913 50,10.204 	"/>
	<polygon fill="#E82429" points="25.432,25 29.659,25 29.659,0 25.432,0 	"/>
	<polygon fill="#FFFFFF" points="76.296,24.998 76.781,26.49 78.35,26.49 77.082,27.412 77.566,28.905 76.296,27.982 75.027,28.905 
		75.514,27.412 74.244,26.49 75.812,26.49 	"/>
	<path fill="#FFFFFF" d="M72.5,12.796L72.5,12.796c6.83,0,12.4,5.57,12.4,12.401l0,0c0,6.83-5.57,12.402-12.4,12.402l0,0
		c-6.83,0-12.4-5.572-12.4-12.402l0,0C60.098,18.366,65.669,12.796,72.5,12.796L72.5,12.796z"/>
	<polygon fill="#587EB3" points="61.493,21.727 63.201,25.598 61.493,29.469 72.598,25.598 	"/>
	<polygon fill="#587EB3" points="83.654,21.727 81.945,25.598 83.654,29.469 72.548,25.598 	"/>
	<polygon fill="#587EB3" points="76.443,14.518 72.573,16.227 68.703,14.518 72.573,25.621 	"/>
	<polygon fill="#587EB3" points="76.443,36.678 72.573,34.969 68.703,36.678 72.573,25.574 	"/>
	<path fill="#C54A34" stroke="#211F1F" stroke-width="0.7501" stroke-miterlimit="2.6131" d="M69.41,28.203l-0.016-2.283
		l-0.574-1.066c-0.146-0.521-0.072-0.775,0.158-0.793c0.231-0.019,0.465,0.137,0.801,0.15c0.336,0.02,0.271-0.592,0.768-0.575
		c0.496,0.021,1.359,0.323,2.098,0.373c0.732,0.054,1.113-0.271,1.967-0.304c0.847-0.034,1.07,0.424,1.119,0.424
		c0.047,0,0.287-0.188,0.523-0.22c0.24-0.033,0.32,0.102,0.32,0.102s-0.016,0.573-0.129,0.912c-0.109,0.341-0.51,0.896-0.525,0.896
		c-0.018,0-0.146,2.488-0.146,2.508C75.773,28.339,69.41,28.254,69.41,28.203L69.41,28.203z"/>
	<path fill="#FBE400" stroke="#211F1F" stroke-width="0.7501" stroke-miterlimit="2.6131" d="M75.99,25.868
		c0,0,0.645-0.521,0.658-1.767c0.01-0.72-0.323-1.235-1.157-1.235c-1.169,0-2.839,0.528-2.839,0.528v0.179
		c0,0,1.336-0.531,2.839-0.531c0.667,0,1.001,0.521,1.001,1.05c0,0.883-0.667,1.776-0.667,1.776v1.411h0.165V25.868L75.99,25.868z"
		/>
	<path fill="#FFFFFF" stroke="#211F1F" stroke-width="0.7501" stroke-miterlimit="2.6131" d="M76.339,25.498
		c0.334-0.092,0.263-0.167,0.168-0.167C76.416,25.331,76.339,25.406,76.339,25.498L76.339,25.498c0,0.093,0.074,0.167,0.168,0.167
		c0.095,0,0.166-0.074,0.166-0.166c0-0.001,0-0.002,0-0.002l-0.166,0.001H76.339L76.339,25.498z"/>
	<path fill="#FFFFFF" stroke="#211F1F" stroke-width="0.7501" stroke-miterlimit="2.6131" d="M76.507,25.094
		c0.334-0.092,0.263-0.166,0.166-0.166C76.582,24.928,76.507,25.002,76.507,25.094L76.507,25.094c0,0.094,0.072,0.168,0.166,0.168
		c0.097,0,0.168-0.074,0.168-0.167c0-0.001,0-0.001,0-0.002l-0.168,0.001H76.507L76.507,25.094z"/>
	<path fill="#FFFFFF" stroke="#211F1F" stroke-width="0.7501" stroke-miterlimit="2.6131" d="M76.596,24.684
		c0.331-0.094,0.258-0.166,0.163-0.166C76.669,24.518,76.596,24.591,76.596,24.684L76.596,24.684c0,0.092,0.069,0.168,0.163,0.168
		c0.095,0,0.168-0.076,0.168-0.168v-0.002l-0.168,0.002H76.596L76.596,24.684z"/>
	<path fill="#FFFFFF" stroke="#211F1F" stroke-width="0.7501" stroke-miterlimit="2.6131" d="M76.658,24.243
		c0.334-0.093,0.262-0.167,0.168-0.167C76.732,24.075,76.658,24.15,76.658,24.243L76.658,24.243c0,0.093,0.074,0.168,0.168,0.168
		s0.166-0.075,0.166-0.167c0-0.001,0-0.001,0-0.002l-0.166,0.001H76.658L76.658,24.243z"/>
	<path fill="#FFFFFF" stroke="#211F1F" stroke-width="0.7501" stroke-miterlimit="2.6131" d="M76.643,23.768
		c0.334-0.094,0.258-0.168,0.166-0.168C76.716,23.6,76.643,23.675,76.643,23.768L76.643,23.768c0,0.092,0.073,0.168,0.166,0.168
		c0.092,0,0.168-0.076,0.168-0.168v-0.002l-0.168,0.002H76.643L76.643,23.768z"/>
	<path fill="#FFFFFF" stroke="#211F1F" stroke-width="0.7501" stroke-miterlimit="2.6131" d="M76.102,25.854
		c0.332-0.094,0.258-0.166,0.166-0.166C76.175,25.688,76.102,25.761,76.102,25.854L76.102,25.854c0,0.092,0.071,0.168,0.166,0.168
		c0.092,0,0.166-0.073,0.166-0.168c0,0,0,0,0-0.002l-0.166,0.002H76.102L76.102,25.854z"/>
	<path fill="#FFFFFF" stroke="#211F1F" stroke-width="0.7501" stroke-miterlimit="2.6131" d="M76.501,23.314
		c0.334-0.092,0.261-0.166,0.166-0.166C76.575,23.148,76.501,23.225,76.501,23.314L76.501,23.314c0,0.095,0.072,0.17,0.166,0.17
		s0.168-0.076,0.168-0.168c0-0.002,0-0.002,0-0.002h-0.168H76.501L76.501,23.314z"/>
	<path fill="#FFFFFF" stroke="#211F1F" stroke-width="0.7501" stroke-miterlimit="2.6131" d="M76.197,22.961
		c0.334-0.092,0.26-0.167,0.166-0.167C76.271,22.794,76.197,22.869,76.197,22.961L76.197,22.961c0,0.094,0.074,0.167,0.166,0.167
		c0.094,0,0.168-0.073,0.168-0.166c0-0.001,0-0.002,0-0.002l-0.168,0.001H76.197L76.197,22.961z"/>
	<path fill="#FFFFFF" stroke="#211F1F" stroke-width="0.7501" stroke-miterlimit="2.6131" d="M75.782,22.725
		c0.334-0.094,0.261-0.168,0.166-0.168C75.855,22.557,75.782,22.633,75.782,22.725L75.782,22.725c0,0.092,0.073,0.168,0.166,0.168
		c0.095,0,0.168-0.076,0.168-0.168v-0.002l-0.168,0.002H75.782L75.782,22.725z"/>
	<path fill="#FFFFFF" stroke="#211F1F" stroke-width="0.7501" stroke-miterlimit="2.6131" d="M75.366,22.689
		c0.333-0.092,0.261-0.168,0.167-0.168C75.441,22.521,75.366,22.6,75.366,22.689L75.366,22.689c0,0.094,0.075,0.168,0.167,0.168
		c0.094,0,0.166-0.074,0.166-0.166c0-0.002,0-0.002,0-0.002h-0.166H75.366L75.366,22.689z"/>
	<path fill="#FFFFFF" stroke="#211F1F" stroke-width="0.7501" stroke-miterlimit="2.6131" d="M74.917,22.707
		c0.334-0.092,0.263-0.167,0.168-0.167C74.991,22.54,74.917,22.615,74.917,22.707L74.917,22.707c0,0.093,0.073,0.168,0.168,0.168
		s0.166-0.075,0.166-0.167c0-0.001,0-0.001,0-0.002l-0.166,0.001H74.917L74.917,22.707z"/>
	<path fill="#FFFFFF" stroke="#211F1F" stroke-width="0.7501" stroke-miterlimit="2.6131" d="M74.471,22.773
		c0.334-0.092,0.26-0.166,0.165-0.166C74.546,22.607,74.471,22.684,74.471,22.773L74.471,22.773c0,0.094,0.071,0.168,0.165,0.168
		c0.095,0,0.169-0.074,0.169-0.166c0-0.002,0-0.002,0-0.002h-0.169H74.471L74.471,22.773z"/>
	<path fill="#FFFFFF" stroke="#211F1F" stroke-width="0.7501" stroke-miterlimit="2.6131" d="M74.021,22.842
		c0.336-0.092,0.261-0.166,0.168-0.166C74.098,22.676,74.021,22.75,74.021,22.842L74.021,22.842c0,0.094,0.074,0.168,0.168,0.168
		c0.093,0,0.168-0.074,0.168-0.167c0-0.001,0-0.001,0-0.001h-0.168H74.021L74.021,22.842z"/>
	<path fill="#FFFFFF" stroke="#211F1F" stroke-width="0.7501" stroke-miterlimit="2.6131" d="M73.542,22.927
		c0.334-0.092,0.263-0.167,0.168-0.167C73.616,22.76,73.542,22.835,73.542,22.927L73.542,22.927c0,0.095,0.073,0.168,0.168,0.168
		s0.166-0.073,0.166-0.167c0-0.001,0-0.002,0-0.002l-0.166,0.001H73.542L73.542,22.927z"/>
	<path fill="#FFFFFF" stroke="#211F1F" stroke-width="0.7501" stroke-miterlimit="2.6131" d="M73.126,23.045
		c0.336-0.092,0.263-0.166,0.168-0.166C73.202,22.879,73.126,22.954,73.126,23.045L73.126,23.045c0,0.094,0.074,0.168,0.168,0.168
		c0.095,0,0.168-0.074,0.168-0.167c0-0.001,0-0.001,0-0.002l-0.168,0.001H73.126L73.126,23.045z"/>
	<path fill="#FFFFFF" stroke="#211F1F" stroke-width="0.7501" stroke-miterlimit="2.6131" d="M68.964,25.498
		c0-0.092-0.071-0.167-0.166-0.167c-0.094,0-0.166,0.075-0.166,0.167v0.001c0,0.092,0.072,0.166,0.166,0.166
		C68.891,25.665,68.964,25.591,68.964,25.498C68.964,25.498,68.964,25.497,68.964,25.498h-0.166H68.964L68.964,25.498z"/>
	<path fill="#FFFFFF" stroke="#211F1F" stroke-width="0.7501" stroke-miterlimit="2.6131" d="M68.798,25.094
		c0-0.092-0.073-0.166-0.166-0.166c-0.094,0-0.168,0.074-0.168,0.166v0.001c0,0.093,0.074,0.167,0.168,0.167
		C68.725,25.262,68.798,25.188,68.798,25.094L68.798,25.094h-0.166H68.798L68.798,25.094z"/>
	<path fill="#FFFFFF" stroke="#211F1F" stroke-width="0.7501" stroke-miterlimit="2.6131" d="M68.712,24.684
		c0-0.094-0.071-0.166-0.168-0.166c-0.092,0-0.166,0.073-0.166,0.166l0,0c0,0.092,0.073,0.168,0.166,0.168
		C68.639,24.852,68.712,24.775,68.712,24.684C68.712,24.684,68.712,24.682,68.712,24.684h-0.168H68.712L68.712,24.684z"/>
	<path fill="#FFFFFF" stroke="#211F1F" stroke-width="0.7501" stroke-miterlimit="2.6131" d="M68.646,24.243
		c0-0.093-0.073-0.167-0.164-0.167c-0.094,0-0.168,0.074-0.168,0.167v0.001c0,0.092,0.074,0.167,0.168,0.167
		C68.573,24.411,68.646,24.336,68.646,24.243L68.646,24.243h-0.164H68.646L68.646,24.243z"/>
	<path fill="#FFFFFF" stroke="#211F1F" stroke-width="0.7501" stroke-miterlimit="2.6131" d="M68.664,23.768
		c0-0.094-0.074-0.168-0.166-0.168c-0.094,0-0.166,0.074-0.166,0.168l0,0c0,0.092,0.072,0.168,0.166,0.168
		C68.589,23.936,68.664,23.859,68.664,23.768C68.664,23.768,68.664,23.766,68.664,23.768h-0.166H68.664L68.664,23.768z"/>
	<path fill="#FFFFFF" stroke="#211F1F" stroke-width="0.7501" stroke-miterlimit="2.6131" d="M68.807,23.314
		c0-0.092-0.074-0.166-0.168-0.166c-0.093,0-0.166,0.076-0.166,0.166v0.002c0,0.093,0.073,0.168,0.166,0.168
		C68.732,23.484,68.807,23.408,68.807,23.314L68.807,23.314h-0.168H68.807L68.807,23.314z"/>
	<path fill="#FFFFFF" stroke="#211F1F" stroke-width="0.7501" stroke-miterlimit="2.6131" d="M69.109,22.961
		c0-0.092-0.075-0.167-0.168-0.167c-0.092,0-0.164,0.076-0.164,0.167v0.001c0,0.093,0.072,0.166,0.164,0.166
		C69.034,23.128,69.109,23.055,69.109,22.961C69.109,22.961,69.109,22.96,69.109,22.961h-0.168H69.109L69.109,22.961z"/>
	<path fill="#FFFFFF" stroke="#211F1F" stroke-width="0.7501" stroke-miterlimit="2.6131" d="M69.525,22.725
		c0-0.094-0.075-0.168-0.168-0.168c-0.092,0-0.166,0.075-0.166,0.168l0,0c0,0.092,0.074,0.168,0.166,0.168
		C69.45,22.893,69.525,22.816,69.525,22.725C69.525,22.725,69.525,22.723,69.525,22.725h-0.168H69.525L69.525,22.725z"/>
	<path fill="#FFFFFF" stroke="#211F1F" stroke-width="0.7501" stroke-miterlimit="2.6131" d="M69.941,22.689
		c0-0.092-0.075-0.168-0.168-0.168c-0.092,0-0.166,0.076-0.166,0.168v0.002c0,0.092,0.074,0.166,0.166,0.166
		C69.866,22.857,69.941,22.783,69.941,22.689L69.941,22.689h-0.168H69.941L69.941,22.689z"/>
	<path fill="#FFFFFF" stroke="#211F1F" stroke-width="0.7501" stroke-miterlimit="2.6131" d="M70.389,22.707
		c0-0.092-0.074-0.167-0.168-0.167c-0.093,0-0.166,0.075-0.166,0.167v0.001c0,0.092,0.073,0.167,0.166,0.167
		C70.314,22.875,70.389,22.8,70.389,22.707L70.389,22.707h-0.168H70.389L70.389,22.707z"/>
	<path fill="#FFFFFF" stroke="#211F1F" stroke-width="0.7501" stroke-miterlimit="2.6131" d="M70.837,22.773
		c0-0.092-0.071-0.166-0.168-0.166c-0.094,0-0.166,0.074-0.166,0.166v0.002c0,0.092,0.072,0.166,0.166,0.166
		C70.761,22.941,70.837,22.867,70.837,22.773L70.837,22.773h-0.168H70.837L70.837,22.773z"/>
	<path fill="#FFFFFF" stroke="#211F1F" stroke-width="0.7501" stroke-miterlimit="2.6131" d="M71.284,22.842
		c0-0.092-0.073-0.166-0.166-0.166s-0.167,0.074-0.167,0.166v0.001c0,0.093,0.074,0.167,0.167,0.167S71.284,22.936,71.284,22.842
		L71.284,22.842h-0.166H71.284L71.284,22.842z"/>
	<path fill="#FFFFFF" stroke="#211F1F" stroke-width="0.7501" stroke-miterlimit="2.6131" d="M71.764,22.927
		c0-0.092-0.074-0.167-0.166-0.167c-0.095,0-0.168,0.075-0.168,0.167v0.001c0,0.094,0.073,0.167,0.168,0.167
		C71.689,23.095,71.764,23.021,71.764,22.927C71.764,22.927,71.764,22.926,71.764,22.927h-0.166H71.764L71.764,22.927z"/>
	<path fill="#FFFFFF" stroke="#211F1F" stroke-width="0.7501" stroke-miterlimit="2.6131" d="M72.18,23.045
		c0-0.092-0.072-0.166-0.166-0.166c-0.097,0-0.168,0.074-0.168,0.166v0.001c0,0.093,0.071,0.167,0.168,0.167
		C72.107,23.213,72.18,23.139,72.18,23.045L72.18,23.045h-0.166H72.18L72.18,23.045z"/>
	<path fill="#FFFFFF" stroke="#211F1F" stroke-width="0.7501" stroke-miterlimit="2.6131" d="M69.207,25.854
		c0-0.094-0.076-0.166-0.168-0.166c-0.094,0-0.166,0.072-0.166,0.166l0,0c0,0.095,0.072,0.168,0.166,0.168
		C69.13,26.021,69.207,25.945,69.207,25.854L69.207,25.854h-0.168H69.207L69.207,25.854z"/>
	<path fill="#FBE400" stroke="#211F1F" stroke-width="0.7501" stroke-miterlimit="2.6131" d="M69.316,25.868
		c0,0-0.642-0.521-0.658-1.767c-0.01-0.72,0.324-1.235,1.158-1.235c1.168,0,2.836,0.528,2.836,0.528v0.179
		c0,0-1.334-0.531-2.836-0.531c-0.668,0-1.002,0.521-1.002,1.05c0,0.883,0.668,1.776,0.668,1.776v1.411h-0.166V25.868L69.316,25.868
		z"/>
	<path fill="#FBE400" stroke="#211F1F" stroke-width="0.1403" stroke-miterlimit="2.6131" d="M70.484,26.523
		c0,0,0.048-0.135,0.223-0.135c0.116,0,0.223,0.135,0.223,0.27v0.269h0.111v-0.269c0-0.137,0.111-0.27,0.223-0.27
		c0.168,0,0.223,0.135,0.223,0.135s0-0.402-0.223-0.402c-0.166,0-0.223,0.134-0.223,0.134s0.057-0.202,0.057-0.403
		s-0.111-0.338-0.111-0.338c0,0.026-0.11,0.135-0.11,0.338c0,0.201,0.058,0.403,0.058,0.403s-0.058-0.134-0.224-0.134
		C70.484,26.121,70.484,26.523,70.484,26.523L70.484,26.523z"/>
	<path fill="#FBE400" stroke="#211F1F" stroke-width="0.1403" stroke-miterlimit="2.6131" d="M73.82,26.523
		c0,0,0.05-0.135,0.225-0.135c0.117,0,0.225,0.135,0.225,0.27v0.269h0.109v-0.269c0-0.137,0.11-0.27,0.225-0.27
		c0.168,0,0.222,0.135,0.222,0.135s0-0.402-0.222-0.402c-0.168,0-0.225,0.134-0.225,0.134s0.057-0.202,0.057-0.403
		s-0.111-0.338-0.111-0.338c0,0.026-0.11,0.135-0.11,0.338c0,0.201,0.058,0.403,0.058,0.403s-0.058-0.134-0.224-0.134
		C73.82,26.121,73.82,26.523,73.82,26.523L73.82,26.523z"/>
	<path fill="#FBE400" stroke="#211F1F" stroke-width="0.7501" stroke-miterlimit="2.6131" d="M69.316,28.34v-1.589
		c0,0,0.332,0.529,0.834,0.529c0.41,0,0.834-0.706,0.834-0.706s0.391,0.529,0.834,0.529c0.396,0,0.834-0.687,0.834-0.687
		s0.406,0.687,0.836,0.687c0.428,0,0.834-0.529,0.834-0.529s0.438,0.706,1.002,0.706c0.501,0,0.666-0.529,0.666-0.529v1.589H69.316
		L69.316,28.34z"/>
	<path fill="#FBE400" stroke="#211F1F" stroke-width="0.7501" stroke-miterlimit="2.6131" d="M69.316,28.34v-1.236
		c0,0,1,0.354,1,1.236H69.316L69.316,28.34z"/>
	<path fill="#FBE400" stroke="#211F1F" stroke-width="0.7501" stroke-miterlimit="2.6131" d="M75.99,28.34v-1.236
		c0,0-1,0.354-1,1.236H75.99L75.99,28.34z"/>
	<path fill="#FBE400" stroke="#211F1F" stroke-width="0.7501" stroke-miterlimit="2.6131" d="M69.982,28.34
		c0-0.883,1.002-1.439,1.002-1.439s1.002,0.561,1.002,1.439H69.982L69.982,28.34z"/>
	<path fill="#FBE400" stroke="#211F1F" stroke-width="0.7501" stroke-miterlimit="2.6131" d="M73.32,28.34
		c0-0.883,1.003-1.439,1.003-1.439s1.001,0.561,1.001,1.439H73.32L73.32,28.34z"/>
	<path fill="#FBE400" stroke="#211F1F" stroke-width="0.7501" stroke-miterlimit="2.6131" d="M71.484,28.34
		c0-0.883,1.17-1.589,1.17-1.589s1.166,0.706,1.166,1.589H71.484L71.484,28.34z"/>
	<path fill="#FFFFFF" stroke="#211F1F" stroke-width="0.7501" stroke-miterlimit="2.6131" d="M76.158,28.34
		c-0.33-0.177-1.547-0.354-3.506-0.354c-1.957,0-3.26,0.178-3.59,0.354c-0.33,0.178-0.33,0.53,0,0.706
		c0.33,0.177,1.633,0.354,3.59,0.354c1.959,0,3.176-0.178,3.506-0.354C76.486,28.869,76.486,28.516,76.158,28.34L76.158,28.34z"/>
	<path fill="#909294" d="M75.99,29.046c0,0.354-2.771,0.354-3.338,0.354c-0.604,0-3.336,0.096-3.336-0.354
		c0-0.354,2.752-0.354,3.336-0.354S75.99,28.766,75.99,29.046L75.99,29.046z"/>
	<path fill="#C54A34" d="M69.648,27.777c0-0.108-0.073-0.197-0.166-0.197c-0.092,0-0.166,0.089-0.166,0.197l0,0
		c0,0.105,0.072,0.199,0.166,0.199C69.575,27.977,69.648,27.887,69.648,27.777c0,0,0-0.002,0-0.004l-0.166,0.004H69.648
		L69.648,27.777z"/>
	<path fill="#C54A34" d="M75.99,27.777c0-0.108-0.072-0.197-0.165-0.197s-0.168,0.089-0.168,0.197l0,0
		c0,0.105,0.075,0.199,0.168,0.199S75.99,27.887,75.99,27.777c0,0,0-0.002,0-0.004l-0.165,0.004H75.99L75.99,27.777z"/>
	<path fill="#211F1F" d="M72.986,27.666c0-0.219-0.148-0.395-0.334-0.395c-0.185,0-0.332,0.177-0.332,0.395c0-0.001,0,0.001,0,0.001
		c0,0.217,0.147,0.396,0.332,0.396C72.838,28.062,72.986,27.884,72.986,27.666c0-0.001,0-0.004,0-0.005l-0.334,0.005H72.986
		L72.986,27.666z"/>
	<path fill="#4D6C5B" d="M74.589,27.666c-0.002-0.164-0.112-0.296-0.254-0.296c-0.137,0-0.246,0.132-0.246,0.296v0.001
		c0,0.163,0.109,0.296,0.246,0.296C74.477,27.963,74.587,27.83,74.589,27.666c-0.002,0-0.002-0.003-0.002-0.004l-0.252,0.004H74.589
		L74.589,27.666z"/>
	<path fill="#4D6C5B" d="M71.152,27.666c0-0.164-0.113-0.296-0.252-0.296c-0.137,0-0.25,0.132-0.25,0.296v0.001
		c0,0.163,0.113,0.296,0.25,0.296C71.039,27.963,71.152,27.83,71.152,27.666c0,0,0-0.003,0-0.004L70.9,27.666H71.152L71.152,27.666z
		"/>
	<path fill="#FBE400" stroke="#211F1F" stroke-width="0.1403" stroke-miterlimit="2.6131" d="M71.986,26.448
		c0,0,0.188-0.304,0.381-0.304h0.191v0.198c0,0.306-0.285,0.404-0.285,0.404h0.762c0,0-0.285-0.104-0.285-0.404v-0.198h0.189
		c0.19,0,0.383,0.304,0.383,0.304v-0.808c0,0-0.191,0.301-0.383,0.301H72.75v-0.2c0-0.302,0.285-0.403,0.285-0.403h-0.762
		c0,0,0.285,0.102,0.285,0.403v0.2h-0.191c-0.188,0-0.381-0.301-0.381-0.301V26.448L71.986,26.448z"/>
	<path fill="#FBE400" stroke="#211F1F" stroke-width="0.2103" stroke-miterlimit="2.6131" d="M69.316,27.104h0.188
		c0,0-0.146-0.088-0.146-0.354v-0.177h0.097c0.096,0,0.188,0.264,0.188,0.264v-0.705c0,0-0.096,0.267-0.188,0.267h-0.097V26.22
		c0-0.266,0.146-0.354,0.146-0.354h-0.188V27.104L69.316,27.104z"/>
	<path fill="#FBE400" stroke="#211F1F" stroke-width="0.2103" stroke-miterlimit="2.6131" d="M75.99,27.104h-0.188
		c0,0,0.144-0.088,0.144-0.354v-0.177H75.85c-0.097,0-0.189,0.264-0.189,0.264v-0.705c0,0,0.098,0.267,0.189,0.267h0.096V26.22
		c0-0.266-0.144-0.354-0.144-0.354h0.188V27.104L75.99,27.104z"/>
	<path fill="#FFFFFF" stroke="#211F1F" stroke-width="0.7501" stroke-miterlimit="2.6131" d="M72.82,26.044
		c0-0.092-0.075-0.166-0.168-0.166c-0.092,0-0.166,0.074-0.166,0.166c0,0.001,0,0.001,0,0.001c0,0.092,0.074,0.168,0.166,0.168
		C72.745,26.213,72.82,26.137,72.82,26.044C72.82,26.045,72.82,26.044,72.82,26.044h-0.168H72.82L72.82,26.044z"/>
	<path fill="#FBE400" stroke="#211F1F" stroke-width="0.1403" stroke-miterlimit="2.6131" d="M71.986,22.74
		c0,0,0.188-0.303,0.381-0.303h0.191v0.199c0,0.305-0.285,0.403-0.285,0.403h0.762c0,0-0.285-0.103-0.285-0.403v-0.199h0.189
		c0.19,0,0.383,0.303,0.383,0.303v-0.809c0,0-0.191,0.303-0.383,0.303H72.75v-0.2c0-0.304,0.285-0.404,0.285-0.404h-0.762
		c0,0,0.285,0.101,0.285,0.404v0.2h-0.191c-0.188,0-0.381-0.303-0.381-0.303V22.74L71.986,22.74z"/>
	<path fill="#FFFFFF" stroke="#211F1F" stroke-width="0.7501" stroke-miterlimit="2.6131" d="M72.835,22.366
		c0-0.093-0.071-0.166-0.166-0.166c-0.092,0-0.166,0.073-0.166,0.166v0.001c0,0.092,0.074,0.167,0.166,0.167
		S72.835,22.459,72.835,22.366L72.835,22.366h-0.166H72.835L72.835,22.366z"/>
	<polygon fill="#FBE400" stroke="#211F1F" stroke-width="0.7501" stroke-miterlimit="2.6131" points="72.32,23.573 72.986,23.573 
		72.986,23.043 72.32,23.043 	"/>
	<polygon fill="#FBE400" stroke="#211F1F" stroke-width="0.7501" stroke-miterlimit="2.6131" points="72.32,25.339 72.986,25.339 
		72.986,23.32 72.32,23.32 	"/>
	<path fill="#FFFFFF" stroke="#211F1F" stroke-width="0.7501" stroke-miterlimit="2.6131" d="M72.82,24.984
		c0-0.092-0.075-0.166-0.168-0.166c-0.092,0-0.166,0.074-0.166,0.166l0,0c0,0.095,0.074,0.168,0.166,0.168
		C72.745,25.152,72.82,25.078,72.82,24.984c0,0,0,0,0-0.002l-0.168,0.002H72.82L72.82,24.984z"/>
	<path fill="#FFFFFF" stroke="#211F1F" stroke-width="0.7501" stroke-miterlimit="2.6131" d="M72.82,24.527
		c0-0.092-0.075-0.166-0.168-0.166c-0.092,0-0.166,0.074-0.166,0.166v0.002c0,0.094,0.074,0.166,0.166,0.166
		C72.745,24.695,72.82,24.623,72.82,24.527L72.82,24.527h-0.168H72.82L72.82,24.527z"/>
	<path fill="#FFFFFF" stroke="#211F1F" stroke-width="0.7501" stroke-miterlimit="2.6131" d="M72.82,24.104
		c0-0.094-0.075-0.166-0.168-0.166c-0.092,0-0.166,0.073-0.166,0.166l0,0c0,0.095,0.074,0.166,0.166,0.166
		C72.745,24.27,72.82,24.195,72.82,24.104v-0.002l-0.168,0.002H72.82L72.82,24.104z"/>
	<path fill="#FFFFFF" stroke="#211F1F" stroke-width="0.7501" stroke-miterlimit="2.6131" d="M72.82,23.663
		c0-0.093-0.075-0.167-0.168-0.167c-0.092,0-0.166,0.074-0.166,0.167v0.001c0,0.092,0.074,0.167,0.166,0.167
		C72.745,23.831,72.82,23.757,72.82,23.663L72.82,23.663h-0.168H72.82L72.82,23.663z"/>
	<path fill="#211F1F" d="M73.007,28.344L73.007,28.344c0-0.072-0.151-0.136-0.342-0.136c-0.185,0-0.336,0.062-0.339,0.135
		c0,0.003,0,0.003,0,0.003c0,0.074,0.152,0.135,0.339,0.135C72.855,28.48,73.007,28.418,73.007,28.344c0,0,0-0.001,0-0.002
		l-0.342,0.002H73.007L73.007,28.344z"/>
	<path fill="#211F1F" d="M76.082,28.693c0.012-0.09,0.012-0.09,0.012-0.09c0-0.074-0.154-0.141-0.346-0.141
		c-0.188,0-0.346,0.062-0.35,0.139c0,0.004,0,0.004,0,0.004c0,0.076,0.156,0.14,0.35,0.14c0.189,0,0.346-0.063,0.346-0.14v-0.002
		l-0.346,0.002L76.082,28.693L76.082,28.693z"/>
	<path fill="#211F1F" d="M74.796,28.455c0.004-0.028,0.004-0.028,0.004-0.028c0-0.075-0.155-0.138-0.35-0.138
		c-0.188,0-0.345,0.062-0.347,0.136c0,0.003,0,0.003,0,0.003c0,0.075,0.154,0.137,0.347,0.137s0.35-0.062,0.35-0.137
		c0-0.001,0-0.002,0-0.003l-0.35,0.002L74.796,28.455L74.796,28.455z"/>
	<path fill="#211F1F" d="M69.15,28.693c0.682-0.09,0.682-0.09,0.682-0.09c0-0.074-0.152-0.141-0.346-0.141
		c-0.188,0-0.344,0.062-0.348,0.139c0.002,0.004,0.002,0.004,0.002,0.004c0,0.076,0.155,0.14,0.346,0.14
		c0.189,0,0.346-0.063,0.346-0.14v-0.002l-0.346,0.002L69.15,28.693L69.15,28.693z"/>
	<path fill="#211F1F" d="M70.5,28.422c0.691-0.027,0.691-0.027,0.691-0.027c0-0.078-0.155-0.14-0.346-0.14
		c-0.188,0-0.347,0.062-0.349,0.138c0,0.002,0,0.002,0,0.002c0,0.076,0.155,0.142,0.349,0.142c0.188,0,0.346-0.062,0.346-0.142
		v-0.002l-0.346,0.002L70.5,28.422L70.5,28.422z"/>
</g>
</svg>
