<?xml version="1.0" encoding="utf-8"?>
<!-- Generator: Adobe Illustrator 16.0.0, SVG Export Plug-In . SVG Version: 6.00 Build 0)  -->
<!DOCTYPE svg PUBLIC "-//W3C//DTD SVG 1.1//EN" "http://www.w3.org/Graphics/SVG/1.1/DTD/svg11.dtd">
<svg version="1.1" id="Queensland" xmlns="http://www.w3.org/2000/svg" xmlns:xlink="http://www.w3.org/1999/xlink" x="0px" y="0px"
	 width="100px" height="50px" viewBox="0 0 100 50" enable-background="new 0 0 100 50" xml:space="preserve">
<g id="au-qld">
	<polygon fill="#003974" points="400,301 400,251 300,251 300,301 	"/>
	<polygon fill="#FFFFFF" points="379.979,275.998 380.463,277.49 382.032,277.49 380.764,278.412 381.248,279.905 379.979,278.982 
		378.709,279.905 379.195,278.412 377.926,277.49 379.494,277.49 	"/>
	<polygon fill="#003974" points="300.051,275.999 350.048,275.999 350.048,251.001 300.051,251.001 	"/>
	<path fill="#FFFFFF" d="M300.049,272.841l43.751-21.794h6.25v3.112l-43.751,21.796c0,0-6.25,0-6.25-0.091
		C300.049,275.688,300.049,272.841,300.049,272.841L300.049,272.841z"/>
	<path fill="#FFFFFF" d="M350.05,272.841l-43.75-21.794l-6.25-0.014v3.126l43.75,21.796c0,0,6.25,0.177,6.25,0
		C350.05,275.777,350.05,272.841,350.05,272.841L350.05,272.841z"/>
	<polygon fill="#EC1C24" points="300.051,275.999 304.738,275.999 329.737,263.5 325.049,263.5 	"/>
	<polygon fill="#EC1C24" points="325.049,263.5 350.048,251.001 345.361,251.001 320.362,263.5 	"/>
	<polygon fill="#EC1C24" points="300.051,253.345 300.051,251.001 325.049,263.5 320.362,263.5 	"/>
	<polygon fill="#EC1C24" points="329.737,263.5 350.048,273.655 350.048,275.999 325.049,263.5 	"/>
	<polygon fill="#FFFFFF" points="300,259.575 300,267.425 350,267.425 350,259.575 	"/>
	<polygon fill="#FFFFFF" points="321.136,276.059 328.964,276.059 328.964,251.059 321.136,251.059 	"/>
	<polygon fill="#EC1C24" points="300,261.204 300,265.913 350,265.913 350,261.204 	"/>
	<polygon fill="#EC1C24" points="322.701,276 327.398,276 327.398,251 322.701,251 	"/>
	<path fill="#FFFFFF" d="M376.182,263.796L376.182,263.796c6.83,0,12.401,5.57,12.401,12.401l0,0c0,6.83-5.571,12.402-12.401,12.402
		l0,0c-6.831,0-12.402-5.572-12.402-12.402l0,0C363.779,269.366,369.351,263.796,376.182,263.796L376.182,263.796z"/>
	<polygon fill="#587EB4" points="365.175,272.727 366.883,276.598 365.175,280.469 376.279,276.598 	"/>
	<polygon fill="#587EB4" points="387.336,272.727 385.628,276.598 387.336,280.469 376.23,276.598 	"/>
	<polygon fill="#587EB4" points="380.126,265.518 376.255,267.227 372.385,265.518 376.255,276.621 	"/>
	<polygon fill="#587EB4" points="380.126,287.678 376.255,285.969 372.385,287.678 376.255,276.574 	"/>
	<path fill="#C64A34" stroke="#231F20" stroke-width="0.7501" stroke-miterlimit="2.6131" d="M373.092,279.203l-0.015-2.283
		l-0.575-1.066c-0.145-0.522-0.073-0.777,0.159-0.793c0.232-0.019,0.464,0.135,0.8,0.15c0.336,0.02,0.271-0.592,0.768-0.575
		c0.496,0.019,1.359,0.323,2.095,0.373c0.734,0.054,1.116-0.271,1.967-0.304c0.846-0.034,1.071,0.424,1.119,0.424
		s0.287-0.188,0.526-0.22c0.24-0.033,0.32,0.102,0.32,0.102s-0.016,0.573-0.128,0.912c-0.111,0.34-0.511,0.896-0.527,0.896
		c-0.016,0-0.145,2.488-0.145,2.505C379.455,279.339,373.092,279.254,373.092,279.203L373.092,279.203z"/>
	<path fill="#FFE600" stroke="#231F20" stroke-width="0.7501" stroke-miterlimit="2.6131" d="M379.672,276.868
		c0,0,0.643-0.521,0.659-1.767c0.009-0.718-0.324-1.235-1.158-1.235c-1.169,0-2.838,0.528-2.838,0.528v0.179
		c0,0,1.336-0.531,2.838-0.531c0.667,0,1.001,0.521,1.001,1.05c0,0.883-0.667,1.776-0.667,1.776v1.411h0.165V276.868
		L379.672,276.868z"/>
	<path fill="#FFFFFF" stroke="#231F20" stroke-width="0.7501" stroke-miterlimit="2.6131" d="M380.021,276.498
		c0.335-0.092,0.262-0.167,0.168-0.167C380.098,276.331,380.021,276.406,380.021,276.498L380.021,276.498
		c0,0.093,0.075,0.167,0.168,0.167c0.094,0,0.166-0.074,0.166-0.166c0-0.001,0-0.002,0-0.002l-0.166,0.001H380.021L380.021,276.498z
		"/>
	<path fill="#FFFFFF" stroke="#231F20" stroke-width="0.7501" stroke-miterlimit="2.6131" d="M380.189,276.094
		c0.334-0.092,0.261-0.166,0.166-0.166C380.264,275.928,380.189,276.002,380.189,276.094L380.189,276.094
		c0,0.094,0.073,0.168,0.166,0.168c0.095,0,0.168-0.074,0.168-0.167c0-0.001,0-0.001,0-0.002l-0.168,0.001H380.189L380.189,276.094z
		"/>
	<path fill="#FFFFFF" stroke="#231F20" stroke-width="0.7501" stroke-miterlimit="2.6131" d="M380.277,275.684
		c0.333-0.093,0.259-0.166,0.165-0.166C380.351,275.518,380.277,275.591,380.277,275.684L380.277,275.684
		c0,0.092,0.072,0.168,0.165,0.168c0.094,0,0.168-0.076,0.168-0.168v-0.002l-0.168,0.002H380.277L380.277,275.684z"/>
	<path fill="#FFFFFF" stroke="#231F20" stroke-width="0.7501" stroke-miterlimit="2.6131" d="M380.34,275.243
		c0.334-0.093,0.262-0.167,0.168-0.167C380.415,275.075,380.34,275.15,380.34,275.243L380.34,275.243
		c0,0.093,0.075,0.168,0.168,0.168c0.094,0,0.166-0.075,0.166-0.167c0-0.001,0-0.001,0-0.002l-0.166,0.001H380.34L380.34,275.243z"
		/>
	<path fill="#FFFFFF" stroke="#231F20" stroke-width="0.7501" stroke-miterlimit="2.6131" d="M380.324,274.768
		c0.334-0.093,0.259-0.168,0.167-0.168S380.324,274.675,380.324,274.768L380.324,274.768c0,0.092,0.074,0.168,0.167,0.168
		c0.092,0,0.167-0.076,0.167-0.168v-0.002l-0.167,0.002H380.324L380.324,274.768z"/>
	<path fill="#FFFFFF" stroke="#231F20" stroke-width="0.7501" stroke-miterlimit="2.6131" d="M379.783,276.854
		c0.333-0.093,0.259-0.166,0.166-0.166C379.857,276.688,379.783,276.761,379.783,276.854L379.783,276.854
		c0,0.092,0.072,0.168,0.166,0.168c0.093,0,0.167-0.075,0.167-0.168c0,0,0,0,0-0.002l-0.167,0.002H379.783L379.783,276.854z"/>
	<path fill="#FFFFFF" stroke="#231F20" stroke-width="0.7501" stroke-miterlimit="2.6131" d="M380.184,274.314
		c0.333-0.092,0.258-0.166,0.165-0.166C380.257,274.148,380.184,274.225,380.184,274.314L380.184,274.314
		c0,0.095,0.072,0.17,0.165,0.17s0.168-0.076,0.168-0.168c0-0.002,0-0.002,0-0.002h-0.168H380.184L380.184,274.314z"/>
	<path fill="#FFFFFF" stroke="#231F20" stroke-width="0.7501" stroke-miterlimit="2.6131" d="M379.879,273.961
		c0.334-0.092,0.26-0.167,0.166-0.167C379.953,273.794,379.879,273.869,379.879,273.961L379.879,273.961
		c0,0.093,0.074,0.167,0.166,0.167c0.094,0,0.168-0.074,0.168-0.166c0-0.001,0-0.002,0-0.002l-0.168,0.001H379.879L379.879,273.961z
		"/>
	<path fill="#FFFFFF" stroke="#231F20" stroke-width="0.7501" stroke-miterlimit="2.6131" d="M379.464,273.725
		c0.334-0.093,0.26-0.168,0.166-0.168C379.538,273.557,379.464,273.633,379.464,273.725L379.464,273.725
		c0,0.092,0.074,0.168,0.166,0.168c0.094,0,0.168-0.076,0.168-0.168v-0.002l-0.168,0.002H379.464L379.464,273.725z"/>
	<path fill="#FFFFFF" stroke="#231F20" stroke-width="0.7501" stroke-miterlimit="2.6131" d="M379.048,273.689
		c0.333-0.092,0.26-0.168,0.167-0.168C379.123,273.521,379.048,273.6,379.048,273.689L379.048,273.689
		c0,0.094,0.075,0.168,0.167,0.168c0.093,0,0.166-0.074,0.166-0.166c0-0.002,0-0.002,0-0.002h-0.166H379.048L379.048,273.689z"/>
	<path fill="#FFFFFF" stroke="#231F20" stroke-width="0.7501" stroke-miterlimit="2.6131" d="M378.599,273.707
		c0.335-0.092,0.261-0.167,0.168-0.167S378.599,273.615,378.599,273.707L378.599,273.707c0,0.093,0.074,0.168,0.168,0.168
		c0.093,0,0.167-0.075,0.167-0.167c0-0.001,0-0.001,0-0.002l-0.167,0.001H378.599L378.599,273.707z"/>
	<path fill="#FFFFFF" stroke="#231F20" stroke-width="0.7501" stroke-miterlimit="2.6131" d="M378.152,273.773
		c0.334-0.092,0.26-0.166,0.166-0.166C378.229,273.607,378.152,273.684,378.152,273.773L378.152,273.773
		c0,0.094,0.074,0.168,0.166,0.168c0.094,0,0.168-0.074,0.168-0.166c0-0.002,0-0.002,0-0.002h-0.168H378.152L378.152,273.773z"/>
	<path fill="#FFFFFF" stroke="#231F20" stroke-width="0.7501" stroke-miterlimit="2.6131" d="M377.704,273.842
		c0.335-0.092,0.26-0.166,0.167-0.166C377.779,273.676,377.704,273.75,377.704,273.842L377.704,273.842
		c0,0.094,0.074,0.168,0.167,0.168s0.168-0.074,0.168-0.167c0-0.001,0-0.001,0-0.001h-0.168H377.704L377.704,273.842z"/>
	<path fill="#FFFFFF" stroke="#231F20" stroke-width="0.7501" stroke-miterlimit="2.6131" d="M377.225,273.927
		c0.334-0.092,0.26-0.167,0.167-0.167S377.225,273.835,377.225,273.927L377.225,273.927c0,0.095,0.073,0.168,0.167,0.168
		c0.093,0,0.167-0.073,0.167-0.167c0-0.001,0-0.002,0-0.002l-0.167,0.001H377.225L377.225,273.927z"/>
	<path fill="#FFFFFF" stroke="#231F20" stroke-width="0.7501" stroke-miterlimit="2.6131" d="M376.809,274.045
		c0.335-0.092,0.261-0.166,0.168-0.166S376.809,273.954,376.809,274.045L376.809,274.045c0,0.094,0.074,0.168,0.168,0.168
		c0.093,0,0.167-0.074,0.167-0.167c0-0.001,0-0.001,0-0.002l-0.167,0.001H376.809L376.809,274.045z"/>
	<path fill="#FFFFFF" stroke="#231F20" stroke-width="0.7501" stroke-miterlimit="2.6131" d="M372.646,276.498
		c0-0.092-0.073-0.167-0.166-0.167s-0.166,0.075-0.166,0.167v0.001c0,0.092,0.073,0.166,0.166,0.166
		S372.646,276.591,372.646,276.498C372.646,276.498,372.646,276.497,372.646,276.498h-0.166H372.646L372.646,276.498z"/>
	<path fill="#FFFFFF" stroke="#231F20" stroke-width="0.7501" stroke-miterlimit="2.6131" d="M372.48,276.094
		c0-0.092-0.074-0.166-0.166-0.166c-0.093,0-0.168,0.074-0.168,0.166v0.001c0,0.093,0.075,0.167,0.168,0.167
		C372.406,276.262,372.48,276.188,372.48,276.094L372.48,276.094h-0.166H372.48L372.48,276.094z"/>
	<path fill="#FFFFFF" stroke="#231F20" stroke-width="0.7501" stroke-miterlimit="2.6131" d="M372.395,275.684
		c0-0.093-0.074-0.166-0.168-0.166c-0.092,0-0.167,0.074-0.167,0.166l0,0c0,0.092,0.074,0.168,0.167,0.168
		C372.32,275.852,372.395,275.775,372.395,275.684C372.395,275.684,372.395,275.682,372.395,275.684h-0.168H372.395L372.395,275.684
		z"/>
	<path fill="#FFFFFF" stroke="#231F20" stroke-width="0.7501" stroke-miterlimit="2.6131" d="M372.329,275.243
		c0-0.093-0.074-0.167-0.165-0.167c-0.094,0-0.168,0.074-0.168,0.167v0.001c0,0.092,0.074,0.167,0.168,0.167
		C372.255,275.411,372.329,275.336,372.329,275.243L372.329,275.243h-0.165H372.329L372.329,275.243z"/>
	<path fill="#FFFFFF" stroke="#231F20" stroke-width="0.7501" stroke-miterlimit="2.6131" d="M372.346,274.768
		c0-0.093-0.074-0.168-0.167-0.168s-0.166,0.075-0.166,0.168l0,0c0,0.092,0.073,0.168,0.166,0.168S372.346,274.859,372.346,274.768
		C372.346,274.768,372.346,274.766,372.346,274.768h-0.167H372.346L372.346,274.768z"/>
	<path fill="#FFFFFF" stroke="#231F20" stroke-width="0.7501" stroke-miterlimit="2.6131" d="M372.488,274.314
		c0-0.092-0.074-0.166-0.167-0.166s-0.167,0.076-0.167,0.166v0.002c0,0.093,0.074,0.168,0.167,0.168
		S372.488,274.408,372.488,274.314L372.488,274.314h-0.167H372.488L372.488,274.314z"/>
	<path fill="#FFFFFF" stroke="#231F20" stroke-width="0.7501" stroke-miterlimit="2.6131" d="M372.792,273.961
		c0-0.092-0.076-0.167-0.168-0.167s-0.165,0.076-0.165,0.167v0.001c0,0.093,0.073,0.166,0.165,0.166
		S372.792,274.054,372.792,273.961C372.792,273.961,372.792,273.96,372.792,273.961h-0.168H372.792L372.792,273.961z"/>
	<path fill="#FFFFFF" stroke="#231F20" stroke-width="0.7501" stroke-miterlimit="2.6131" d="M373.207,273.725
		c0-0.093-0.075-0.168-0.167-0.168s-0.166,0.076-0.166,0.168l0,0c0,0.092,0.074,0.168,0.166,0.168S373.207,273.816,373.207,273.725
		C373.207,273.725,373.207,273.723,373.207,273.725h-0.167H373.207L373.207,273.725z"/>
	<path fill="#FFFFFF" stroke="#231F20" stroke-width="0.7501" stroke-miterlimit="2.6131" d="M373.623,273.689
		c0-0.092-0.075-0.168-0.167-0.168c-0.093,0-0.166,0.076-0.166,0.168v0.002c0,0.092,0.073,0.166,0.166,0.166
		C373.548,273.857,373.623,273.783,373.623,273.689L373.623,273.689h-0.167H373.623L373.623,273.689z"/>
	<path fill="#FFFFFF" stroke="#231F20" stroke-width="0.7501" stroke-miterlimit="2.6131" d="M374.071,273.707
		c0-0.092-0.074-0.167-0.168-0.167c-0.093,0-0.166,0.075-0.166,0.167v0.001c0,0.092,0.073,0.167,0.166,0.167
		C373.997,273.875,374.071,273.8,374.071,273.707L374.071,273.707h-0.168H374.071L374.071,273.707z"/>
	<path fill="#FFFFFF" stroke="#231F20" stroke-width="0.7501" stroke-miterlimit="2.6131" d="M374.52,273.773
		c0-0.092-0.074-0.166-0.168-0.166s-0.166,0.074-0.166,0.166v0.002c0,0.092,0.072,0.166,0.166,0.166
		C374.444,273.941,374.52,273.867,374.52,273.773L374.52,273.773h-0.168H374.52L374.52,273.773z"/>
	<path fill="#FFFFFF" stroke="#231F20" stroke-width="0.7501" stroke-miterlimit="2.6131" d="M374.966,273.842
		c0-0.092-0.074-0.166-0.166-0.166c-0.093,0-0.167,0.074-0.167,0.166v0.001c0,0.093,0.074,0.167,0.167,0.167
		C374.892,274.01,374.966,273.936,374.966,273.842L374.966,273.842H374.8H374.966L374.966,273.842z"/>
	<path fill="#FFFFFF" stroke="#231F20" stroke-width="0.7501" stroke-miterlimit="2.6131" d="M375.445,273.927
		c0-0.092-0.073-0.167-0.166-0.167c-0.094,0-0.167,0.075-0.167,0.167v0.001c0,0.094,0.073,0.167,0.167,0.167
		C375.372,274.095,375.445,274.021,375.445,273.927C375.445,273.927,375.445,273.926,375.445,273.927h-0.166H375.445
		L375.445,273.927z"/>
	<path fill="#FFFFFF" stroke="#231F20" stroke-width="0.7501" stroke-miterlimit="2.6131" d="M375.861,274.045
		c0-0.092-0.072-0.166-0.166-0.166s-0.167,0.074-0.167,0.166v0.001c0,0.093,0.073,0.167,0.167,0.167
		S375.861,274.139,375.861,274.045L375.861,274.045h-0.166H375.861L375.861,274.045z"/>
	<path fill="#FFFFFF" stroke="#231F20" stroke-width="0.7501" stroke-miterlimit="2.6131" d="M372.888,276.854
		c0-0.093-0.075-0.166-0.167-0.166c-0.094,0-0.166,0.073-0.166,0.166l0,0c0,0.093,0.072,0.168,0.166,0.168
		C372.812,277.021,372.888,276.945,372.888,276.854L372.888,276.854h-0.167H372.888L372.888,276.854z"/>
	<path fill="#FFE600" stroke="#231F20" stroke-width="0.7501" stroke-miterlimit="2.6131" d="M372.998,276.868
		c0,0-0.641-0.521-0.658-1.767c-0.01-0.718,0.324-1.235,1.158-1.235c1.168,0,2.837,0.528,2.837,0.528v0.179
		c0,0-1.335-0.531-2.837-0.531c-0.668,0-1.001,0.521-1.001,1.05c0,0.883,0.667,1.776,0.667,1.776v1.411h-0.166V276.868
		L372.998,276.868z"/>
	<path fill="#FFE600" stroke="#231F20" stroke-width="0.1403" stroke-miterlimit="2.6131" d="M374.166,277.523
		c0,0,0.048-0.135,0.222-0.135c0.117,0,0.223,0.135,0.223,0.27v0.269h0.112v-0.269c0-0.137,0.111-0.27,0.222-0.27
		c0.167,0,0.222,0.135,0.222,0.135s0-0.402-0.222-0.402c-0.167,0-0.222,0.134-0.222,0.134s0.055-0.202,0.055-0.403
		s-0.111-0.338-0.111-0.338c0,0.026-0.111,0.135-0.111,0.338c0,0.201,0.055,0.403,0.055,0.403s-0.055-0.134-0.222-0.134
		C374.166,277.121,374.166,277.523,374.166,277.523L374.166,277.523z"/>
	<path fill="#FFE600" stroke="#231F20" stroke-width="0.1403" stroke-miterlimit="2.6131" d="M377.503,277.523
		c0,0,0.049-0.135,0.224-0.135c0.117,0,0.223,0.135,0.223,0.27v0.269h0.111v-0.269c0-0.137,0.11-0.27,0.223-0.27
		c0.167,0,0.221,0.135,0.221,0.135s0-0.402-0.221-0.402c-0.168,0-0.223,0.134-0.223,0.134s0.055-0.202,0.055-0.403
		s-0.112-0.338-0.112-0.338c0,0.026-0.111,0.135-0.111,0.338c0,0.201,0.057,0.403,0.057,0.403s-0.057-0.134-0.223-0.134
		C377.503,277.121,377.503,277.523,377.503,277.523L377.503,277.523z"/>
	<path fill="#FFE600" stroke="#231F20" stroke-width="0.7501" stroke-miterlimit="2.6131" d="M372.998,279.34v-1.589
		c0,0,0.333,0.529,0.834,0.529c0.41,0,0.834-0.706,0.834-0.706s0.391,0.529,0.835,0.529c0.396,0,0.834-0.684,0.834-0.684
		s0.406,0.684,0.835,0.684c0.428,0,0.834-0.529,0.834-0.529s0.438,0.706,1.002,0.706c0.501,0,0.666-0.529,0.666-0.529v1.589H372.998
		L372.998,279.34z"/>
	<path fill="#FFE600" stroke="#231F20" stroke-width="0.7501" stroke-miterlimit="2.6131" d="M372.998,279.34v-1.236
		c0,0,1.001,0.354,1.001,1.236H372.998L372.998,279.34z"/>
	<path fill="#FFE600" stroke="#231F20" stroke-width="0.7501" stroke-miterlimit="2.6131" d="M379.672,279.34v-1.236
		c0,0-1,0.354-1,1.236H379.672L379.672,279.34z"/>
	<path fill="#FFE600" stroke="#231F20" stroke-width="0.7501" stroke-miterlimit="2.6131" d="M373.665,279.34
		c0-0.883,1.002-1.439,1.002-1.439s1.001,0.558,1.001,1.439H373.665L373.665,279.34z"/>
	<path fill="#FFE600" stroke="#231F20" stroke-width="0.7501" stroke-miterlimit="2.6131" d="M377.003,279.34
		c0-0.883,1.002-1.439,1.002-1.439s1.001,0.558,1.001,1.439H377.003L377.003,279.34z"/>
	<path fill="#FFE600" stroke="#231F20" stroke-width="0.7501" stroke-miterlimit="2.6131" d="M375.167,279.34
		c0-0.883,1.169-1.589,1.169-1.589s1.167,0.706,1.167,1.589H375.167L375.167,279.34z"/>
	<path fill="#FFFFFF" stroke="#231F20" stroke-width="0.7501" stroke-miterlimit="2.6131" d="M379.84,279.34
		c-0.33-0.177-1.546-0.354-3.505-0.354c-1.958,0-3.26,0.178-3.591,0.354c-0.329,0.178-0.329,0.53,0,0.706
		c0.33,0.177,1.633,0.354,3.591,0.354c1.959,0,3.175-0.178,3.505-0.354C380.169,279.869,380.169,279.516,379.84,279.34
		L379.84,279.34z"/>
	<path fill="#929497" d="M379.672,280.046c0,0.354-2.773,0.354-3.337,0.354c-0.604,0-3.337,0.096-3.337-0.354
		c0-0.354,2.753-0.354,3.337-0.354S379.672,279.766,379.672,280.046L379.672,280.046z"/>
	<path fill="#C64A34" d="M373.331,278.777c0-0.108-0.074-0.197-0.167-0.197c-0.092,0-0.166,0.089-0.166,0.197l0,0
		c0,0.108,0.073,0.199,0.166,0.199S373.331,278.887,373.331,278.777c0,0,0-0.002,0-0.004l-0.167,0.004H373.331L373.331,278.777z"/>
	<path fill="#C64A34" d="M379.672,278.777c0-0.108-0.072-0.197-0.165-0.197s-0.168,0.089-0.168,0.197l0,0
		c0,0.108,0.075,0.199,0.168,0.199S379.672,278.887,379.672,278.777c0,0,0-0.002,0-0.004l-0.165,0.004H379.672L379.672,278.777z"/>
	<path fill="#231F20" d="M376.669,278.666c0-0.219-0.149-0.395-0.334-0.395c-0.184,0-0.333,0.177-0.333,0.395
		c0-0.001,0,0.001,0,0.001c0,0.217,0.149,0.396,0.333,0.396C376.52,279.062,376.669,278.884,376.669,278.666
		c0-0.001,0-0.004,0-0.005l-0.334,0.005H376.669L376.669,278.666z"/>
	<path fill="#4B6C5A" d="M378.271,278.666c-0.002-0.164-0.113-0.296-0.253-0.296c-0.137,0-0.247,0.132-0.247,0.296v0.001
		c0,0.163,0.11,0.296,0.247,0.296C378.158,278.963,378.27,278.83,378.271,278.666c-0.002,0-0.002-0.003-0.002-0.004l-0.251,0.004
		H378.271L378.271,278.666z"/>
	<path fill="#4B6C5A" d="M374.834,278.666c0-0.164-0.113-0.296-0.251-0.296s-0.25,0.132-0.25,0.296v0.001
		c0,0.163,0.112,0.296,0.25,0.296S374.834,278.83,374.834,278.666c0,0,0-0.003,0-0.004l-0.251,0.004H374.834L374.834,278.666z"/>
	<path fill="#FFE600" stroke="#231F20" stroke-width="0.1403" stroke-miterlimit="2.6131" d="M375.668,277.448
		c0,0,0.19-0.304,0.381-0.304h0.191v0.201c0,0.303-0.285,0.404-0.285,0.404h0.762c0,0-0.285-0.102-0.285-0.404v-0.201h0.19
		c0.19,0,0.382,0.304,0.382,0.304v-0.808c0,0-0.191,0.301-0.382,0.301h-0.19v-0.2c0-0.302,0.285-0.403,0.285-0.403h-0.762
		c0,0,0.285,0.102,0.285,0.403v0.2h-0.191c-0.189,0-0.381-0.301-0.381-0.301V277.448L375.668,277.448z"/>
	<path fill="#FFE600" stroke="#231F20" stroke-width="0.2103" stroke-miterlimit="2.6131" d="M372.998,278.104h0.189
		c0,0-0.144-0.088-0.144-0.353v-0.177h0.096c0.095,0,0.19,0.264,0.19,0.264v-0.705c0,0-0.096,0.266-0.19,0.266h-0.096v-0.178
		c0-0.266,0.144-0.354,0.144-0.354h-0.189V278.104L372.998,278.104z"/>
	<path fill="#FFE600" stroke="#231F20" stroke-width="0.2103" stroke-miterlimit="2.6131" d="M379.672,278.104h-0.189
		c0,0,0.144-0.088,0.144-0.353v-0.177h-0.096c-0.095,0-0.19,0.264-0.19,0.264v-0.705c0,0,0.096,0.266,0.19,0.266h0.096v-0.178
		c0-0.266-0.144-0.354-0.144-0.354h0.189V278.104L379.672,278.104z"/>
	<path fill="#FFFFFF" stroke="#231F20" stroke-width="0.7501" stroke-miterlimit="2.6131" d="M376.503,277.044
		c0-0.092-0.076-0.166-0.168-0.166s-0.166,0.074-0.166,0.166c0,0.001,0,0.001,0,0.001c0,0.092,0.074,0.168,0.166,0.168
		S376.503,277.137,376.503,277.044C376.503,277.045,376.503,277.044,376.503,277.044h-0.168H376.503L376.503,277.044z"/>
	<path fill="#FFE600" stroke="#231F20" stroke-width="0.1403" stroke-miterlimit="2.6131" d="M375.668,273.74
		c0,0,0.19-0.303,0.381-0.303h0.191v0.201c0,0.303-0.285,0.403-0.285,0.403h0.762c0,0-0.285-0.101-0.285-0.403v-0.201h0.19
		c0.19,0,0.382,0.303,0.382,0.303v-0.809c0,0-0.191,0.303-0.382,0.303h-0.19v-0.2c0-0.304,0.285-0.404,0.285-0.404h-0.762
		c0,0,0.285,0.101,0.285,0.404v0.2h-0.191c-0.189,0-0.381-0.303-0.381-0.303V273.74L375.668,273.74z"/>
	<path fill="#FFFFFF" stroke="#231F20" stroke-width="0.7501" stroke-miterlimit="2.6131" d="M376.518,273.366
		c0-0.093-0.073-0.166-0.166-0.166c-0.092,0-0.166,0.073-0.166,0.166v0.001c0,0.092,0.074,0.167,0.166,0.167
		C376.444,273.534,376.518,273.459,376.518,273.366L376.518,273.366h-0.166H376.518L376.518,273.366z"/>
	<polygon fill="#FFE600" stroke="#231F20" stroke-width="0.7501" stroke-miterlimit="2.6131" points="376.002,274.573 
		376.669,274.573 376.669,274.043 376.002,274.043 	"/>
	<polygon fill="#FFE600" stroke="#231F20" stroke-width="0.7501" stroke-miterlimit="2.6131" points="376.002,276.339 
		376.669,276.339 376.669,274.32 376.002,274.32 	"/>
	<path fill="#FFFFFF" stroke="#231F20" stroke-width="0.7501" stroke-miterlimit="2.6131" d="M376.503,275.984
		c0-0.092-0.076-0.166-0.168-0.166s-0.166,0.074-0.166,0.166l0,0c0,0.095,0.074,0.168,0.166,0.168S376.503,276.078,376.503,275.984
		c0,0,0,0,0-0.002l-0.168,0.002H376.503L376.503,275.984z"/>
	<path fill="#FFFFFF" stroke="#231F20" stroke-width="0.7501" stroke-miterlimit="2.6131" d="M376.503,275.527
		c0-0.092-0.076-0.165-0.168-0.165s-0.166,0.073-0.166,0.165v0.002c0,0.094,0.074,0.167,0.166,0.167
		S376.503,275.623,376.503,275.527L376.503,275.527h-0.168H376.503L376.503,275.527z"/>
	<path fill="#FFFFFF" stroke="#231F20" stroke-width="0.7501" stroke-miterlimit="2.6131" d="M376.503,275.104
		c0-0.093-0.076-0.166-0.168-0.166s-0.166,0.074-0.166,0.166l0,0c0,0.094,0.074,0.166,0.166,0.166S376.503,275.195,376.503,275.104
		v-0.002l-0.168,0.002H376.503L376.503,275.104z"/>
	<path fill="#FFFFFF" stroke="#231F20" stroke-width="0.7501" stroke-miterlimit="2.6131" d="M376.503,274.663
		c0-0.093-0.076-0.167-0.168-0.167s-0.166,0.075-0.166,0.167v0.001c0,0.092,0.074,0.167,0.166,0.167
		S376.503,274.757,376.503,274.663L376.503,274.663h-0.168H376.503L376.503,274.663z"/>
	<path fill="#231F20" d="M376.69,279.344L376.69,279.344c0-0.072-0.153-0.136-0.341-0.136c-0.184,0-0.336,0.062-0.339,0.135
		c0,0.003,0,0.003,0,0.003c0,0.074,0.152,0.135,0.339,0.135C376.537,279.48,376.69,279.418,376.69,279.344c0,0,0-0.001,0-0.002
		l-0.341,0.002H376.69L376.69,279.344z"/>
	<path fill="#231F20" d="M379.763,279.693c0.012-0.09,0.012-0.09,0.012-0.09c0-0.074-0.155-0.138-0.346-0.138
		c-0.188,0-0.345,0.062-0.348,0.136c0,0.004,0,0.004,0,0.004c0,0.076,0.156,0.14,0.348,0.14c0.19,0,0.346-0.063,0.346-0.14v-0.002
		l-0.346,0.002L379.763,279.693L379.763,279.693z"/>
	<path fill="#231F20" d="M378.479,279.455c0.002-0.028,0.002-0.028,0.002-0.028c0-0.075-0.155-0.138-0.348-0.138
		c-0.188,0-0.345,0.062-0.347,0.136c0,0.003,0,0.003,0,0.003c0,0.075,0.156,0.137,0.347,0.137c0.192,0,0.348-0.062,0.348-0.137
		c0-0.001,0-0.002,0-0.003l-0.348,0.002L378.479,279.455L378.479,279.455z"/>
	<path fill="#231F20" d="M372.832,279.693c0.682-0.09,0.682-0.09,0.682-0.09c0-0.074-0.154-0.138-0.346-0.138
		c-0.188,0-0.344,0.062-0.348,0.136c0.002,0.004,0.002,0.004,0.002,0.004c0,0.076,0.156,0.14,0.346,0.14
		c0.19,0,0.346-0.063,0.346-0.14v-0.002l-0.346,0.002L372.832,279.693L372.832,279.693z"/>
	<path fill="#231F20" d="M374.181,279.422c0.692-0.027,0.692-0.027,0.692-0.027c0-0.078-0.155-0.14-0.346-0.14
		c-0.188,0-0.345,0.062-0.347,0.138c0,0.002,0,0.002,0,0.002c0,0.076,0.156,0.139,0.347,0.139c0.189,0,0.346-0.062,0.346-0.139
		v-0.002l-0.346,0.002L374.181,279.422L374.181,279.422z"/>
</g>
</svg>
