<?xml version="1.0" encoding="utf-8"?>
<!-- Generator: Adobe Illustrator 16.0.0, SVG Export Plug-In . SVG Version: 6.00 Build 0)  -->
<svg version="1.2" baseProfile="tiny" id="South_Australia"
	 xmlns="http://www.w3.org/2000/svg" xmlns:xlink="http://www.w3.org/1999/xlink" x="0px" y="0px" width="90px" height="50px"
	 viewBox="5 0 90 50" xml:space="preserve">
<g id="au-sa">
	<polygon fill="#1E3E71" points="95,50 95,0 5,0 5,50 	"/>
	<polygon fill="#1E3E71" points="5.046,24.999 50.044,24.999 50.044,0 5.046,0 	"/>
	<path fill="#FFFFFF" d="M5.045,21.841L44.42,0.045h5.624v3.114L10.669,24.954c0,0-5.625,0-5.625-0.09
		C5.045,24.688,5.045,21.841,5.045,21.841L5.045,21.841z"/>
	<path fill="#FFFFFF" d="M50.044,21.841L10.669,0.045L5.044,0.032v3.127l39.375,21.795c0,0,5.625,0.177,5.625,0
		C50.044,24.777,50.044,21.841,50.044,21.841L50.044,21.841z"/>
	<polygon fill="#E82429" points="5.046,24.999 9.266,24.999 31.764,12.5 27.545,12.5 	"/>
	<polygon fill="#E82429" points="27.545,12.5 50.044,0 45.825,0 23.325,12.5 	"/>
	<polygon fill="#E82429" points="5.046,2.344 5.046,0 27.545,12.5 23.325,12.5 	"/>
	<polygon fill="#E82429" points="31.764,12.5 50.044,22.655 50.044,24.999 27.545,12.5 	"/>
	<polygon fill="#FFFFFF" points="5,8.574 5,16.424 50,16.424 50,8.574 	"/>
	<polygon fill="#FFFFFF" points="24.023,25.061 31.066,25.061 31.066,0.061 24.023,0.061 	"/>
	<polygon fill="#E82429" points="5,10.204 5,14.914 50,14.914 50,10.204 	"/>
	<polygon fill="#E82429" points="25.432,25 29.659,25 29.659,0 25.432,0 	"/>
	<path fill="#FBD800" d="M72.861,12.795L72.861,12.795c6.83,0,12.399,5.571,12.399,12.402l0,0c0,6.83-5.569,12.402-12.399,12.402
		l0,0c-6.832,0-12.402-5.572-12.402-12.402l0,0C60.458,18.366,66.029,12.795,72.861,12.795L72.861,12.795z"/>
	<path fill="#4A755E" stroke="#211F1F" stroke-width="0.1454" stroke-miterlimit="2.6131" d="M67.865,32.943h10.203
		c0.23,0.012,0.422,0.199,0.422,0.43l0,0c0,0.232-0.188,0.42-0.422,0.42l-10.203,0.012c-0.229-0.012-0.42-0.199-0.42-0.431l0,0
		c0-0.229,0.188-0.419,0.42-0.419V32.943z"/>
	<polygon fill="#C54A34" stroke="#211F1F" stroke-width="0.1454" stroke-miterlimit="2.6131" points="68.333,33.803 69.318,33.803 
		69.318,32.943 68.333,32.943 	"/>
	<polygon fill="#C54A34" stroke="#211F1F" stroke-width="0.1454" stroke-miterlimit="2.6131" points="76.686,33.803 77.666,33.803 
		77.666,32.943 76.686,32.943 	"/>
	<path fill="#211F1F" d="M75.359,33.938c1.012,1.084,1.617,2.08,1.363,2.226c-0.257,0.146-1.285-0.619-2.293-1.701
		c-0.031-0.412-0.168-0.455,0.09-0.603C74.775,33.715,74.889,33.812,75.359,33.938L75.359,33.938z"/>
	<path fill="#FFFFFF" stroke="#211F1F" stroke-width="0.2043" stroke-miterlimit="2.6131" d="M75.523,34.165
		c0.812,0.871,0.633,1.074,0.416,1.194c-0.215,0.119-0.484,0.171-1.299-0.701c-0.812-0.871-1.857-2.336-1.644-2.456
		C73.212,32.081,74.71,33.291,75.523,34.165L75.523,34.165z"/>
	<path fill="#211F1F" d="M75.025,34.156c0.805,1.182,1.228,2.234,0.945,2.348c-0.279,0.115-1.16-0.752-1.962-1.934
		c0.043-0.412-0.083-0.469,0.197-0.584C74.488,33.872,74.582,33.98,75.025,34.156L75.025,34.156z"/>
	<path fill="#FFFFFF" stroke="#211F1F" stroke-width="0.2043" stroke-miterlimit="2.6131" d="M75.145,34.398
		c0.646,0.951,0.432,1.133,0.196,1.229s-0.512,0.114-1.155-0.838c-0.646-0.951-1.418-2.516-1.183-2.611
		C73.238,32.083,74.5,33.445,75.145,34.398L75.145,34.398z"/>
	<path fill="#211F1F" d="M74.617,34.322c0.613,1.248,0.871,2.332,0.576,2.419c-0.299,0.088-1.033-0.854-1.646-2.104
		c0.105-0.404-0.012-0.472,0.285-0.562C74.127,33.989,74.205,34.105,74.617,34.322L74.617,34.322z"/>
	<path fill="#FFFFFF" stroke="#211F1F" stroke-width="0.2143" stroke-miterlimit="2.6131" d="M74.699,34.572
		c0.494,1.007,0.252,1.164,0.006,1.24c-0.246,0.068-0.523,0.062-1.021-0.939c-0.496-1.002-1.017-2.63-0.771-2.703
		C73.162,32.096,74.205,33.566,74.699,34.572L74.699,34.572z"/>
	<path fill="#211F1F" d="M74.221,34.466c0.381,1.302,0.44,2.404,0.131,2.459c-0.31,0.054-0.867-0.96-1.25-2.263
		c0.182-0.389,0.078-0.471,0.387-0.525S73.852,34.206,74.221,34.466L74.221,34.466z"/>
	<path fill="#FFFFFF" stroke="#211F1F" stroke-width="0.2143" stroke-miterlimit="2.6131" d="M74.258,34.723
		c0.305,1.049,0.036,1.185-0.222,1.229c-0.263,0.046-0.531,0.009-0.843-1.039c-0.307-1.054-0.528-2.718-0.271-2.765
		C73.184,32.104,73.951,33.675,74.258,34.723L74.258,34.723z"/>
	<path fill="#211F1F" d="M73.83,34.531c0.223,1.324,0.146,2.427-0.164,2.458c-0.314,0.03-0.75-1.021-0.975-2.343
		c0.225-0.375,0.135-0.463,0.445-0.494C73.453,34.12,73.492,34.247,73.83,34.531L73.83,34.531z"/>
	<path fill="#FFFFFF" stroke="#211F1F" stroke-width="0.2167" stroke-miterlimit="2.6131" d="M73.833,34.791
		c0.183,1.064-0.104,1.178-0.364,1.204c-0.263,0.026-0.531-0.029-0.712-1.095c-0.18-1.066-0.202-2.74,0.062-2.77
		C73.078,32.105,73.656,33.725,73.833,34.791L73.833,34.791z"/>
	<path fill="#211F1F" d="M70.434,33.938c-1.01,1.084-1.619,2.08-1.363,2.226c0.26,0.146,1.283-0.619,2.293-1.701
		c0.031-0.412,0.168-0.455-0.092-0.603C71.016,33.715,70.904,33.812,70.434,33.938L70.434,33.938z"/>
	<path fill="#FFFFFF" stroke="#211F1F" stroke-width="0.2043" stroke-miterlimit="2.6131" d="M70.27,34.165
		c-0.812,0.871-0.631,1.074-0.416,1.194c0.215,0.121,0.485,0.171,1.299-0.701c0.812-0.871,1.858-2.336,1.646-2.456
		C72.58,32.081,71.08,33.291,70.27,34.165L70.27,34.165z"/>
	<path fill="#211F1F" d="M70.768,34.156c-0.803,1.182-1.228,2.234-0.945,2.348c0.279,0.115,1.156-0.752,1.961-1.934
		c-0.045-0.412,0.082-0.469-0.196-0.584C71.305,33.872,71.208,33.98,70.768,34.156L70.768,34.156z"/>
	<path fill="#FFFFFF" stroke="#211F1F" stroke-width="0.2043" stroke-miterlimit="2.6131" d="M70.646,34.398
		c-0.646,0.951-0.431,1.133-0.195,1.229c0.234,0.096,0.515,0.114,1.158-0.838c0.646-0.951,1.416-2.516,1.184-2.611
		C72.555,32.083,71.292,33.445,70.646,34.398L70.646,34.398z"/>
	<path fill="#211F1F" d="M71.173,34.322c-0.614,1.248-0.871,2.332-0.573,2.419c0.295,0.088,1.033-0.854,1.646-2.104
		c-0.104-0.404,0.012-0.472-0.285-0.562C71.664,33.989,71.587,34.105,71.173,34.322L71.173,34.322z"/>
	<path fill="#FFFFFF" stroke="#211F1F" stroke-width="0.2143" stroke-miterlimit="2.6131" d="M71.091,34.572
		c-0.493,1.007-0.25,1.164-0.004,1.24c0.248,0.068,0.524,0.062,1.021-0.939c0.49-1.006,1.017-2.63,0.771-2.703
		C72.63,32.096,71.585,33.566,71.091,34.572L71.091,34.572z"/>
	<path fill="#211F1F" d="M71.57,34.466c-0.379,1.302-0.438,2.404-0.131,2.459c0.311,0.054,0.867-0.96,1.248-2.263
		c-0.179-0.389-0.074-0.471-0.385-0.525C71.994,34.082,71.941,34.206,71.57,34.466L71.57,34.466z"/>
	<path fill="#FFFFFF" stroke="#211F1F" stroke-width="0.2143" stroke-miterlimit="2.6131" d="M71.533,34.723
		c-0.307,1.049-0.035,1.185,0.225,1.229c0.258,0.046,0.531,0.009,0.84-1.039c0.307-1.054,0.529-2.718,0.271-2.765
		C72.609,32.104,71.841,33.675,71.533,34.723L71.533,34.723z"/>
	<path fill="#211F1F" d="M71.962,34.531c-0.226,1.324-0.151,2.427,0.162,2.458c0.313,0.03,0.752-1.021,0.976-2.343
		c-0.228-0.375-0.134-0.463-0.447-0.494C72.339,34.12,72.299,34.247,71.962,34.531L71.962,34.531z"/>
	<path fill="#FFFFFF" stroke="#211F1F" stroke-width="0.2167" stroke-miterlimit="2.6131" d="M71.957,34.791
		c-0.18,1.064,0.104,1.178,0.363,1.204c0.266,0.026,0.533-0.029,0.715-1.095c0.182-1.066,0.201-2.74-0.062-2.77
		C72.713,32.105,72.137,33.725,71.957,34.791L71.957,34.791z"/>
	<path fill="#211F1F" d="M73.576,34.678c0.021,1.336-0.225,2.424-0.541,2.426c-0.314,0.004-0.59-1.08-0.605-2.414
		c0.281-0.353,0.203-0.445,0.521-0.446C73.266,34.234,73.285,34.364,73.576,34.678L73.576,34.678z"/>
	<path fill="#FFFFFF" stroke="#211F1F" stroke-width="0.2189" stroke-miterlimit="2.6131" d="M73.541,34.938
		c0.016,1.072-0.283,1.157-0.549,1.162c-0.268,0.002-0.521-0.078-0.539-1.154c-0.018-1.072,0.221-2.737,0.482-2.74
		C73.198,32.202,73.527,33.861,73.541,34.938L73.541,34.938z"/>
	<path fill="#FFFFFF" d="M78.693,28.65c0.019,0.016-0.014-0.006-0.051-0.006c-0.035,0-0.062,0.021-0.062,0.051
		c0,0.029,0.029,0.053,0.062,0.053c0.037,0,0.065-0.023,0.065-0.053l0,0h-0.065L78.693,28.65L78.693,28.65z"/>
	<path fill="#211F1F" d="M78.632,28.68c0.031,0.01,0.021,0.004,0.011,0.004c-0.012,0-0.021,0.008-0.021,0.02
		c0,0.01,0.011,0.02,0.021,0.02c0.014,0,0.022-0.01,0.022-0.02l0,0h-0.022L78.632,28.68L78.632,28.68z"/>
	<path fill="#211F1F" stroke="#211F1F" stroke-width="0.3093" stroke-miterlimit="2.6131" d="M72.939,32.82
		c-0.797-0.047-0.58-1.045-0.814-1.045c-0.232,0-1.027,0.91-1.264,1.146c-0.231,0.24-0.279,0.621-0.279,0.621
		s-0.049-0.621-0.375-0.67c-0.326-0.048-0.698,0.479-0.698,0.479s0.046-0.525,0.323-0.721c0.279-0.189,0.799,0,0.799,0
		s1.122-1.101,1.354-1.527c0.234-0.432-0.526-0.461-0.717-0.795c-0.188-0.334,0.096-1.291-0.188-1.482
		c-0.232,0.479-0.469,1.578-0.748,1.529c-0.28-0.049-0.562-0.812-0.562-0.812s0.144,0.908-0.278,0.908
		c-0.423,0-0.517-0.908-0.517-0.908s-0.047,0.956-0.468,0.956c-0.425,0-0.425-1.146-0.425-1.146s-0.325,0.957-0.562,1.101
		c-0.232,0.144-0.139-1.054-0.139-1.054s-0.328,0.959-0.701,0.91c-0.375-0.052-0.328-0.812-0.328-0.812s-0.279,0.669-0.795,0.525
		c-0.517-0.146-0.375-0.907-0.375-0.907s-0.188,0.573-0.607,0.239c-0.422-0.336,0.143-0.861,0.143-0.861s-0.374,0.525-0.796,0.285
		c-0.423-0.238,0.187-1.051,0.187-1.051s-0.701,0.235-1.028-0.191c-0.325-0.432,0.471-0.671,0.471-0.671s-0.519-0.095-0.608-0.478
		c-0.094-0.388,0.656-0.479,0.656-0.479s-0.607-0.146-0.656-0.527c-0.047-0.383,0.701-0.095,0.75-0.095
		c0.047,0-0.938-0.67-0.938-0.957s0.938,0.145,0.938,0.145s-0.938-0.621-0.938-1.054c0-0.43,0.606-0.095,0.845-0.047
		c-0.188-0.287-0.845-0.574-0.795-0.91c0.047-0.334,0.889,0.05,0.889,0.05s-0.797-0.859-0.654-1.146
		c0.142-0.286,0.98,0.384,0.98,0.384s-0.98-0.86-0.89-1.103c0.095-0.236,1.028,0.433,1.028,0.433s-0.938-0.909-0.795-1.244
		c0.142-0.334,0.938,0.433,1.121,0.575c-0.188-0.098-1.073-1.292-0.889-1.579c0.188-0.287,1.17,0.908,1.17,0.908
		s-0.889-1.437-0.748-1.626c0.141-0.191,1.217,1.146,1.217,1.146s-0.842-1.482-0.514-1.724c0.326-0.239,0.889,1.244,0.936,1.244
		c0.05,0-0.469-1.628-0.094-1.771c0.373-0.145,0.938,1.53,0.982,1.53c0.049,0-0.375-2.2,0.095-2.15
		c0.468,0.049,0.374,1.053,0.374,1.101c0,0.048,0.047-0.573,0.328-0.573c-0.049,0.143,0.842,5.262,1.121,6.457
		s0.605,0.861,0.844,1.244c0.236,0.383,0.561,0.43,0.936,0.479c0.373,0.047,1.181,0.058,1.404-0.384
		c0.166-0.405-0.047-2.057,1.287-2.104c1.334,0.051,1.121,1.699,1.286,2.104c0.228,0.438,1.03,0.431,1.401,0.384
		c0.375-0.049,0.703-0.096,0.938-0.479c0.235-0.385,0.562-0.049,0.846-1.244c0.279-1.195,1.17-6.314,1.121-6.457
		c0.28,0,0.326,0.621,0.326,0.573c0-0.048-0.094-1.052,0.375-1.101c0.471-0.051,0.047,2.15,0.096,2.15
		c0.047,0,0.606-1.675,0.981-1.53c0.373,0.146-0.144,1.771-0.094,1.771c0.048,0,0.604-1.483,0.935-1.244
		c0.33,0.239-0.515,1.724-0.515,1.724s1.074-1.341,1.218-1.146c0.143,0.191-0.748,1.626-0.748,1.626s0.983-1.196,1.17-0.908
		c0.188,0.287-0.699,1.481-0.888,1.579c0.188-0.146,0.979-0.909,1.121-0.575c0.142,0.335-0.795,1.244-0.795,1.244
		s0.937-0.669,1.028-0.433c0.095,0.24-0.892,1.103-0.892,1.103s0.845-0.669,0.983-0.384c0.14,0.288-0.655,1.146-0.655,1.146
		s0.845-0.384,0.89-0.05c0.049,0.336-0.604,0.623-0.797,0.91c0.234-0.049,0.844-0.384,0.844,0.047c0,0.431-0.937,1.054-0.937,1.054
		s0.937-0.431,0.937-0.145c0,0.287-0.979,0.957-0.937,0.957s0.795-0.287,0.748,0.095c-0.048,0.384-0.655,0.527-0.655,0.527
		s0.75,0.094,0.655,0.479c-0.095,0.383-0.608,0.478-0.608,0.478s0.797,0.239,0.469,0.671c-0.323,0.43-1.026,0.191-1.026,0.191
		s0.604,0.812,0.188,1.051c-0.422,0.24-0.797-0.285-0.797-0.285s0.562,0.525,0.141,0.861c-0.42,0.334-0.605-0.239-0.605-0.239
		s0.141,0.766-0.373,0.907c-0.518,0.144-0.798-0.525-0.798-0.525s0.048,0.766-0.325,0.812c-0.375,0.049-0.703-0.91-0.703-0.91
		s0.095,1.197-0.14,1.054c-0.233-0.144-0.562-1.101-0.562-1.101s0,1.146-0.422,1.146s-0.469-0.956-0.469-0.956
		s-0.095,0.908-0.517,0.908s-0.279-0.908-0.279-0.908s-0.28,0.768-0.562,0.812c-0.279,0.05-0.514-1.051-0.748-1.529
		c-0.278,0.191,0,1.148-0.188,1.482s-1.019,0.361-0.781,0.795c0.235,0.431,1.357,1.527,1.357,1.527s0.514-0.189,0.796,0
		c0.279,0.191,0.327,0.721,0.327,0.721s-0.375-0.525-0.702-0.479c-0.327,0.049-0.374,0.67-0.374,0.67s-0.047-0.383-0.281-0.621
		c-0.23-0.235-1.027-1.146-1.262-1.146C73.434,31.775,73.781,32.773,72.939,32.82L72.939,32.82z"/>
	<path fill="#FFFFFF" d="M73.84,24.523c0.026,0.007-0.354,0.73-0.884,1.107c-0.531,0.376-0.978,0.222-1.079,0.181
		c0.01,0.112,0.034,0.754,0.057,1.09c0.098,1.479-0.324,1.979-0.324,1.979s0.279,0.479,0.279,0.719c0,0.239-0.013,0.551,0.221,1.127
		c0.416,0.771,0.471,0.86,0.471,1.147s0.07,0.701,0.365,0.637c0.33,0.095,0.365-0.354,0.365-0.639c0-0.288,0.053-0.382,0.471-1.149
		c0.33-0.541,0.152-0.888,0.152-1.127c0-0.238,0.28-0.719,0.28-0.719s-0.426-0.479-0.327-1.961
		C73.934,26.245,74.309,25.527,73.84,24.523L73.84,24.523z"/>
	<path fill="#FBD800" stroke="#211F1F" stroke-width="0.3093" stroke-miterlimit="2.6131" d="M70.701,22.438
		c0,0,0.475,0.123,0.785,0.354c0.312,0.23,0.5,0.477,0.387,0.589c-0.113,0.115-0.405,0.029-0.645-0.094
		c-0.23-0.123-0.689-0.615-0.672-0.613c0.021,0.001,0.078,0.563,0.572,0.832c0.491,0.267,0.557,0.324,0.729,0.317
		c0.172-0.008,0.547-0.545,0.488-0.797c-0.057-0.252-0.334-0.481-0.727-0.641C71.236,22.232,70.705,22.479,70.701,22.438
		L70.701,22.438z"/>
	<path fill="#FFFFFF" d="M73.208,23.232L73.208,23.232c0-0.092-0.077-0.164-0.176-0.164c-0.097,0-0.177,0.072-0.179,0.16
		c0,0.094,0.078,0.166,0.179,0.166C73.13,23.396,73.208,23.322,73.208,23.232L73.208,23.232h-0.176H73.208L73.208,23.232z"/>
	<path fill="#FFFFFF" stroke="#211F1F" stroke-width="0.3093" stroke-miterlimit="2.6131" d="M76.335,25.027
		c0.115-0.006,0.603-0.228,0.738-0.439c0.227-0.354,0.518-1.023,0.518-1.023s-0.034,0.509,0.104,0.535
		c0.143,0.027,0.273-0.039,0.496-0.149c-0.037,0.128-0.482,0.366-0.438,0.467c0.039,0.067,0.673-0.086,0.845-0.106
		c-0.144,0.099-0.883,0.254-0.9,0.424c-0.018,0.133,0.486,0.102,0.65,0.154c-0.203,0.032-0.693,0.022-0.824,0.178
		c-0.07,0.084,0.557,0.542,0.465,0.547c-0.094,0.007-0.521-0.439-0.688-0.318c-0.132,0.094-0.009,0.396-0.021,0.553
		c-0.108-0.1-0.283-0.479-0.426-0.474c-0.181,0.009-0.445,0.47-0.578,0.565c0.068-0.145,0.219-0.61,0.146-0.67
		c-0.099-0.101-0.724,0.029-0.917,0.182C75.648,25.213,76.201,25.036,76.335,25.027L76.335,25.027z"/>
	<path fill="#FFFFFF" stroke="#211F1F" stroke-width="0.3093" stroke-miterlimit="2.6131" d="M69.623,25.096
		c-0.115-0.006-0.604-0.226-0.738-0.438c-0.227-0.354-0.518-1.024-0.518-1.024s0.033,0.507-0.104,0.534
		c-0.141,0.029-0.272-0.039-0.496-0.148c0.037,0.129,0.484,0.365,0.439,0.467c-0.041,0.07-0.672-0.088-0.844-0.108
		c0.144,0.099,0.883,0.252,0.898,0.422c0.018,0.136-0.49,0.103-0.652,0.156c0.203,0.033,0.695,0.024,0.824,0.176
		c0.072,0.086-0.553,0.541-0.463,0.551c0.094,0.008,0.521-0.438,0.688-0.321c0.133,0.097,0.01,0.397,0.021,0.555
		c0.108-0.1,0.284-0.479,0.424-0.475c0.184,0.011,0.448,0.471,0.58,0.563c-0.07-0.141-0.218-0.608-0.146-0.668
		c0.099-0.101,0.722,0.03,0.92,0.184C70.311,25.28,69.759,25.104,69.623,25.096L69.623,25.096z"/>
	<path fill="#FFFFFF" stroke="#211F1F" stroke-width="0.3093" stroke-miterlimit="2.6131" d="M78.742,21.324
		c0.051,0.104,0.266,0.501,0.229,0.754c-0.056,0.416-0.396,0.668-0.525,0.955c0.221-0.117,0.281-0.291,0.381-0.215
		c0.095,0.078,0.059,0.186,0.125,0.424c0.049-0.12-0.006-0.573,0.07-0.615c0.062-0.021,0.342,0.533,0.428,0.67
		c-0.029-0.172-0.371-0.801-0.295-0.939c0.062-0.104,0.334,0.271,0.455,0.348c-0.1-0.167-0.387-0.505-0.381-0.706
		c0.002-0.114,0.604-0.008,0.553-0.076c-0.051-0.065-0.528-0.045-0.561-0.248c-0.025-0.157,0.203-0.296,0.276-0.417
		c-0.112-0.006-0.412,0.15-0.487,0.053c-0.103-0.137-0.013-0.656-0.037-0.818c-0.031,0.15-0.193,0.596-0.267,0.592
		c-0.106,0.004-0.188-0.173-0.363-0.268C78.508,21.114,78.695,21.198,78.742,21.324L78.742,21.324z"/>
	<path fill="#FFFFFF" stroke="#211F1F" stroke-width="0.3093" stroke-miterlimit="2.6131" d="M67.404,21.663
		c-0.053,0.104-0.266,0.501-0.229,0.753c0.054,0.417,0.396,0.669,0.525,0.956c-0.222-0.118-0.283-0.291-0.382-0.215
		c-0.094,0.077-0.057,0.186-0.125,0.424c-0.047-0.12,0.007-0.573-0.069-0.614c-0.062-0.023-0.34,0.531-0.426,0.668
		c0.028-0.17,0.37-0.801,0.293-0.938c-0.062-0.108-0.332,0.269-0.453,0.344c0.099-0.168,0.385-0.506,0.381-0.706
		c-0.004-0.112-0.604-0.008-0.556-0.075c0.052-0.068,0.529-0.047,0.562-0.249c0.022-0.159-0.203-0.296-0.279-0.417
		c0.115-0.006,0.414,0.149,0.49,0.051c0.102-0.135,0.012-0.654,0.035-0.817c0.032,0.151,0.196,0.597,0.266,0.593
		c0.108,0.004,0.188-0.173,0.363-0.268C67.635,21.453,67.451,21.537,67.404,21.663L67.404,21.663z"/>
</g>
</svg>
