<?xml version="1.0" encoding="utf-8"?>
<!-- Generator: Adobe Illustrator 16.0.0, SVG Export Plug-In . SVG Version: 6.00 Build 0)  -->
<!DOCTYPE svg PUBLIC "-//W3C//DTD SVG 1.1//EN" "http://www.w3.org/Graphics/SVG/1.1/DTD/svg11.dtd">
<svg version="1.1" id="South_Australia" xmlns="http://www.w3.org/2000/svg" xmlns:xlink="http://www.w3.org/1999/xlink" x="0px"
	 y="0px" width="100px" height="50px" viewBox="0 0 100 50" enable-background="new 0 0 100 50" xml:space="preserve">
<g id="au-sa">
	<polygon fill="#003974" points="400,301 400,251 300,251 300,301 	"/>
	<polygon fill="#003974" points="300.051,275.999 350.049,275.999 350.049,251 300.051,251 	"/>
	<path fill="#FFFFFF" d="M300.05,272.841l43.75-21.796h6.249v3.114l-43.75,21.795c0,0-6.25,0-6.25-0.09
		C300.05,275.688,300.05,272.841,300.05,272.841L300.05,272.841z"/>
	<path fill="#FFFFFF" d="M350.049,272.841l-43.75-21.796l-6.25-0.013v3.127l43.75,21.795c0,0,6.25,0.177,6.25,0
		S350.049,272.841,350.049,272.841L350.049,272.841z"/>
	<polygon fill="#EC1C24" points="300.051,275.999 304.738,275.999 329.736,263.5 325.05,263.5 	"/>
	<polygon fill="#EC1C24" points="325.05,263.5 350.049,251 345.361,251 320.362,263.5 	"/>
	<polygon fill="#EC1C24" points="300.051,253.344 300.051,251 325.05,263.5 320.362,263.5 	"/>
	<polygon fill="#EC1C24" points="329.736,263.5 350.049,273.655 350.049,275.999 325.05,263.5 	"/>
	<polygon fill="#FFFFFF" points="300,259.574 300,267.424 350,267.424 350,259.574 	"/>
	<polygon fill="#FFFFFF" points="321.136,276.061 328.963,276.061 328.963,251.061 321.136,251.061 	"/>
	<polygon fill="#EC1C24" points="300,261.204 300,265.914 350,265.914 350,261.204 	"/>
	<polygon fill="#EC1C24" points="322.701,276 327.398,276 327.398,251 322.701,251 	"/>
	<path fill="#FFDA00" d="M376.181,263.795L376.181,263.795c6.83,0,12.401,5.571,12.401,12.402l0,0
		c0,6.83-5.571,12.402-12.401,12.402l0,0c-6.831,0-12.402-5.572-12.402-12.402l0,0C363.779,269.366,369.35,263.795,376.181,263.795
		L376.181,263.795z"/>
	<path fill="#4A745D" stroke="#231F20" stroke-width="0.1454" stroke-miterlimit="2.6131" d="M371.186,283.943h10.203
		c0.231,0.012,0.421,0.199,0.421,0.43l0,0c0,0.232-0.188,0.42-0.421,0.42l-10.203,0.011c-0.229-0.011-0.42-0.198-0.42-0.43l0,0
		c0-0.229,0.189-0.419,0.42-0.419V283.943z"/>
	<polygon fill="#C64A34" stroke="#231F20" stroke-width="0.1454" stroke-miterlimit="2.6131" points="371.655,284.803 
		372.639,284.803 372.639,283.943 371.655,283.943 	"/>
	<polygon fill="#C64A34" stroke="#231F20" stroke-width="0.1454" stroke-miterlimit="2.6131" points="380.006,284.803 
		380.987,284.803 380.987,283.943 380.006,283.943 	"/>
	<path fill="#231F20" d="M378.68,284.938c1.01,1.084,1.618,2.08,1.363,2.224c-0.256,0.144-1.285-0.619-2.293-1.701
		c-0.031-0.412-0.168-0.455,0.09-0.601C378.096,284.715,378.209,284.812,378.68,284.938L378.68,284.938z"/>
	<path fill="#FFFFFF" stroke="#231F20" stroke-width="0.2043" stroke-miterlimit="2.6131" d="M378.844,285.165
		c0.812,0.871,0.633,1.074,0.416,1.194c-0.215,0.119-0.485,0.171-1.299-0.701c-0.811-0.871-1.857-2.336-1.643-2.456
		C376.533,283.081,378.031,284.291,378.844,285.165L378.844,285.165z"/>
	<path fill="#231F20" d="M378.346,285.156c0.803,1.182,1.226,2.234,0.946,2.348c-0.28,0.115-1.16-0.752-1.962-1.934
		c0.043-0.412-0.083-0.469,0.197-0.584C377.809,284.872,377.902,284.98,378.346,285.156L378.346,285.156z"/>
	<path fill="#FFFFFF" stroke="#231F20" stroke-width="0.2043" stroke-miterlimit="2.6131" d="M378.466,285.398
		c0.646,0.951,0.431,1.133,0.196,1.229c-0.235,0.096-0.512,0.114-1.156-0.838c-0.646-0.951-1.418-2.516-1.182-2.611
		C376.558,283.083,377.82,284.445,378.466,285.398L378.466,285.398z"/>
	<path fill="#231F20" d="M377.938,285.322c0.614,1.248,0.871,2.332,0.575,2.419c-0.298,0.088-1.032-0.854-1.647-2.104
		c0.107-0.404-0.01-0.472,0.286-0.562C377.448,284.989,377.525,285.105,377.938,285.322L377.938,285.322z"/>
	<path fill="#FFFFFF" stroke="#231F20" stroke-width="0.2143" stroke-miterlimit="2.6131" d="M378.02,285.572
		c0.494,1.007,0.252,1.164,0.005,1.24c-0.246,0.071-0.525,0.065-1.021-0.939s-1.016-2.63-0.77-2.703
		C376.482,283.096,377.525,284.566,378.02,285.572L378.02,285.572z"/>
	<path fill="#231F20" d="M377.542,285.466c0.381,1.302,0.44,2.404,0.13,2.459c-0.308,0.054-0.867-0.96-1.249-2.263
		c0.181-0.389,0.077-0.471,0.386-0.525C377.118,285.082,377.172,285.206,377.542,285.466L377.542,285.466z"/>
	<path fill="#FFFFFF" stroke="#231F20" stroke-width="0.2143" stroke-miterlimit="2.6131" d="M377.579,285.723
		c0.304,1.049,0.036,1.182-0.222,1.227c-0.26,0.046-0.531,0.009-0.841-1.039c-0.307-1.051-0.53-2.715-0.271-2.762
		C376.505,283.104,377.271,284.675,377.579,285.723L377.579,285.723z"/>
	<path fill="#231F20" d="M377.15,285.531c0.223,1.324,0.148,2.427-0.164,2.458c-0.314,0.03-0.75-1.019-0.974-2.343
		c0.225-0.375,0.134-0.463,0.447-0.494C376.773,285.12,376.812,285.247,377.15,285.531L377.15,285.531z"/>
	<path fill="#FFFFFF" stroke="#231F20" stroke-width="0.2167" stroke-miterlimit="2.6131" d="M377.154,285.791
		c0.182,1.064-0.104,1.178-0.364,1.204c-0.263,0.026-0.532-0.029-0.712-1.095c-0.18-1.066-0.203-2.74,0.06-2.767
		C376.399,283.105,376.976,284.725,377.154,285.791L377.154,285.791z"/>
	<path fill="#231F20" d="M373.754,284.938c-1.009,1.084-1.619,2.08-1.363,2.224c0.258,0.144,1.283-0.619,2.293-1.701
		c0.031-0.412,0.168-0.455-0.092-0.601C374.336,284.715,374.225,284.812,373.754,284.938L373.754,284.938z"/>
	<path fill="#FFFFFF" stroke="#231F20" stroke-width="0.2043" stroke-miterlimit="2.6131" d="M373.59,285.165
		c-0.812,0.871-0.631,1.074-0.416,1.194c0.215,0.121,0.486,0.171,1.299-0.701c0.812-0.871,1.859-2.336,1.644-2.456
		C375.9,283.081,374.401,284.291,373.59,285.165L373.59,285.165z"/>
	<path fill="#231F20" d="M374.088,285.156c-0.802,1.182-1.227,2.234-0.946,2.348c0.28,0.115,1.157-0.752,1.962-1.934
		c-0.045-0.412,0.082-0.469-0.198-0.584C374.625,284.872,374.53,284.98,374.088,285.156L374.088,285.156z"/>
	<path fill="#FFFFFF" stroke="#231F20" stroke-width="0.2043" stroke-miterlimit="2.6131" d="M373.967,285.398
		c-0.646,0.951-0.43,1.133-0.195,1.229s0.513,0.114,1.158-0.838c0.646-0.951,1.416-2.516,1.182-2.611
		C375.876,283.083,374.613,284.445,373.967,285.398L373.967,285.398z"/>
	<path fill="#231F20" d="M374.494,285.322c-0.614,1.248-0.871,2.332-0.574,2.419c0.296,0.088,1.034-0.854,1.647-2.104
		c-0.106-0.404,0.011-0.472-0.286-0.562C374.984,284.989,374.908,285.105,374.494,285.322L374.494,285.322z"/>
	<path fill="#FFFFFF" stroke="#231F20" stroke-width="0.2143" stroke-miterlimit="2.6131" d="M374.412,285.572
		c-0.494,1.007-0.25,1.164-0.004,1.24c0.248,0.071,0.526,0.065,1.021-0.939c0.491-1.006,1.016-2.63,0.769-2.703
		C375.951,283.096,374.906,284.566,374.412,285.572L374.412,285.572z"/>
	<path fill="#231F20" d="M374.891,285.466c-0.38,1.302-0.438,2.404-0.131,2.459c0.31,0.054,0.867-0.96,1.248-2.263
		c-0.178-0.389-0.074-0.471-0.385-0.525C375.315,285.082,375.261,285.206,374.891,285.466L374.891,285.466z"/>
	<path fill="#FFFFFF" stroke="#231F20" stroke-width="0.2143" stroke-miterlimit="2.6131" d="M374.854,285.723
		c-0.306,1.049-0.037,1.182,0.223,1.227c0.258,0.046,0.531,0.009,0.839-1.039c0.308-1.051,0.53-2.715,0.271-2.762
		C375.929,283.104,375.162,284.675,374.854,285.723L374.854,285.723z"/>
	<path fill="#231F20" d="M375.283,285.531c-0.224,1.324-0.152,2.427,0.162,2.458c0.315,0.03,0.752-1.019,0.975-2.343
		c-0.227-0.375-0.133-0.463-0.447-0.494C375.66,285.12,375.62,285.247,375.283,285.531L375.283,285.531z"/>
	<path fill="#FFFFFF" stroke="#231F20" stroke-width="0.2167" stroke-miterlimit="2.6131" d="M375.277,285.791
		c-0.179,1.064,0.104,1.178,0.365,1.204c0.264,0.026,0.533-0.029,0.714-1.095c0.181-1.066,0.201-2.74-0.061-2.767
		C376.034,283.105,375.458,284.725,375.277,285.791L375.277,285.791z"/>
	<path fill="#231F20" d="M376.896,285.678c0.02,1.336-0.224,2.424-0.541,2.426c-0.316,0.004-0.589-1.08-0.606-2.414
		c0.281-0.353,0.203-0.448,0.521-0.449C376.586,285.234,376.605,285.364,376.896,285.678L376.896,285.678z"/>
	<path fill="#FFFFFF" stroke="#231F20" stroke-width="0.2189" stroke-miterlimit="2.6131" d="M376.861,285.938
		c0.016,1.073-0.283,1.158-0.549,1.162c-0.266,0.002-0.522-0.078-0.539-1.154c-0.015-1.074,0.221-2.739,0.485-2.742
		S376.847,284.861,376.861,285.938L376.861,285.938z"/>
	<path fill="#FFFFFF" d="M382.014,279.65c0.017,0.016-0.013-0.006-0.05-0.006c-0.036,0-0.064,0.021-0.064,0.051
		c0,0.029,0.029,0.053,0.064,0.053c0.036,0,0.065-0.023,0.065-0.053l0,0h-0.065L382.014,279.65L382.014,279.65z"/>
	<path fill="#231F20" d="M381.953,279.68c0.031,0.01,0.021,0.004,0.01,0.004c-0.011,0-0.021,0.008-0.021,0.017
		c0,0.01,0.01,0.019,0.021,0.019c0.013,0,0.023-0.009,0.023-0.019l0,0h-0.023L381.953,279.68L381.953,279.68z"/>
	<path fill="#231F20" stroke="#231F20" stroke-width="0.3093" stroke-miterlimit="2.6131" d="M376.26,283.821
		c-0.797-0.048-0.58-1.046-0.815-1.046c-0.233,0-1.028,0.91-1.263,1.147c-0.233,0.24-0.28,0.621-0.28,0.621s-0.048-0.621-0.375-0.67
		c-0.327-0.048-0.699,0.479-0.699,0.479s0.046-0.526,0.324-0.719c0.28-0.191,0.798,0,0.798,0s1.122-1.101,1.355-1.529
		c0.234-0.43-0.528-0.461-0.717-0.795c-0.188-0.334,0.095-1.291-0.188-1.483c-0.233,0.479-0.468,1.578-0.748,1.53
		c-0.28-0.049-0.562-0.812-0.562-0.812s0.141,0.908-0.28,0.908c-0.422,0-0.515-0.908-0.515-0.908s-0.047,0.956-0.468,0.956
		c-0.424,0-0.424-1.147-0.424-1.147s-0.326,0.957-0.562,1.101c-0.234,0.144-0.139-1.054-0.139-1.054s-0.328,0.959-0.702,0.91
		c-0.375-0.049-0.328-0.812-0.328-0.812s-0.28,0.669-0.795,0.525s-0.375-0.907-0.375-0.907s-0.187,0.573-0.608,0.239
		c-0.422-0.336,0.142-0.861,0.142-0.861s-0.374,0.525-0.796,0.286c-0.423-0.239,0.187-1.052,0.187-1.052s-0.701,0.238-1.03-0.191
		c-0.326-0.432,0.47-0.671,0.47-0.671s-0.516-0.095-0.608-0.478c-0.094-0.385,0.656-0.479,0.656-0.479s-0.608-0.145-0.656-0.527
		c-0.047-0.383,0.701-0.095,0.749-0.095c0.046,0-0.937-0.67-0.937-0.957s0.937,0.144,0.937,0.144s-0.937-0.621-0.937-1.053
		c0-0.43,0.608-0.095,0.844-0.047c-0.188-0.287-0.844-0.574-0.795-0.91c0.047-0.334,0.888,0.049,0.888,0.049
		s-0.796-0.86-0.655-1.147c0.141-0.286,0.982,0.384,0.982,0.384s-0.982-0.861-0.889-1.102c0.094-0.237,1.029,0.432,1.029,0.432
		s-0.937-0.909-0.795-1.244c0.14-0.334,0.936,0.432,1.122,0.575c-0.188-0.097-1.075-1.292-0.889-1.579
		c0.188-0.287,1.17,0.908,1.17,0.908s-0.889-1.436-0.748-1.626c0.14-0.191,1.217,1.147,1.217,1.147s-0.842-1.482-0.514-1.723
		c0.327-0.239,0.889,1.244,0.936,1.244s-0.469-1.627-0.094-1.771c0.373-0.144,0.937,1.531,0.982,1.531
		c0.049,0-0.375-2.2,0.095-2.152c0.467,0.049,0.374,1.053,0.374,1.101s0.047-0.573,0.328-0.573
		c-0.049,0.143,0.842,5.262,1.122,6.457c0.279,1.196,0.607,0.861,0.843,1.244s0.561,0.43,0.936,0.479
		c0.373,0.047,1.179,0.056,1.403-0.384c0.167-0.405-0.046-2.057,1.288-2.104c1.333,0.049,1.121,1.699,1.286,2.104
		c0.228,0.438,1.03,0.431,1.402,0.384c0.375-0.049,0.703-0.096,0.938-0.479c0.235-0.385,0.562-0.049,0.844-1.244
		c0.28-1.195,1.171-6.314,1.122-6.457c0.281,0,0.327,0.621,0.327,0.573s-0.094-1.052,0.374-1.101
		c0.47-0.049,0.047,2.152,0.095,2.152c0.047,0,0.608-1.675,0.983-1.531c0.373,0.145-0.142,1.771-0.094,1.771
		s0.607-1.483,0.935-1.244c0.328,0.239-0.515,1.723-0.515,1.723s1.075-1.34,1.218-1.147c0.142,0.192-0.748,1.626-0.748,1.626
		s0.983-1.196,1.169-0.908c0.189,0.287-0.699,1.482-0.887,1.579c0.188-0.146,0.981-0.909,1.122-0.575
		c0.14,0.335-0.796,1.244-0.796,1.244s0.936-0.669,1.03-0.432c0.094,0.24-0.891,1.102-0.891,1.102s0.844-0.669,0.983-0.384
		c0.14,0.288-0.655,1.147-0.655,1.147s0.844-0.383,0.889-0.049c0.049,0.336-0.606,0.623-0.797,0.91
		c0.236-0.049,0.845-0.384,0.845,0.047c0,0.43-0.937,1.053-0.937,1.053s0.937-0.43,0.937-0.144c0,0.287-0.982,0.957-0.937,0.957
		s0.795-0.287,0.748,0.095c-0.048,0.383-0.656,0.527-0.656,0.527s0.75,0.094,0.656,0.479c-0.094,0.383-0.609,0.478-0.609,0.478
		s0.798,0.239,0.469,0.671c-0.325,0.43-1.028,0.191-1.028,0.191s0.607,0.812,0.188,1.052c-0.422,0.239-0.797-0.286-0.797-0.286
		s0.562,0.525,0.14,0.861c-0.42,0.334-0.607-0.239-0.607-0.239s0.142,0.766-0.373,0.907c-0.516,0.144-0.797-0.525-0.797-0.525
		s0.047,0.766-0.326,0.812c-0.375,0.049-0.703-0.91-0.703-0.91s0.095,1.197-0.139,1.054c-0.234-0.144-0.562-1.101-0.562-1.101
		s0,1.147-0.421,1.147c-0.422,0-0.469-0.956-0.469-0.956s-0.094,0.908-0.515,0.908c-0.422,0-0.28-0.908-0.28-0.908
		s-0.281,0.766-0.562,0.812c-0.28,0.049-0.514-1.051-0.748-1.53c-0.28,0.192,0,1.149-0.187,1.483
		c-0.188,0.334-1.018,0.363-0.782,0.795c0.236,0.43,1.358,1.529,1.358,1.529s0.514-0.191,0.796,0
		c0.28,0.191,0.327,0.719,0.327,0.719s-0.375-0.526-0.702-0.479c-0.327,0.049-0.374,0.67-0.374,0.67s-0.047-0.383-0.281-0.621
		c-0.232-0.237-1.028-1.147-1.262-1.147C376.754,282.775,377.102,283.773,376.26,283.821L376.26,283.821z"/>
	<path fill="#FFFFFF" d="M377.161,275.523c0.026,0.007-0.352,0.732-0.884,1.109c-0.531,0.376-0.976,0.219-1.079,0.178
		c0.009,0.115,0.034,0.754,0.057,1.09c0.097,1.481-0.325,1.979-0.325,1.979s0.28,0.479,0.28,0.719c0,0.239-0.013,0.551,0.22,1.127
		c0.415,0.77,0.47,0.86,0.47,1.147s0.071,0.701,0.366,0.637c0.329,0.095,0.365-0.354,0.365-0.639c0-0.288,0.053-0.382,0.47-1.149
		c0.331-0.542,0.153-0.888,0.153-1.127c0-0.238,0.281-0.719,0.281-0.719s-0.426-0.479-0.328-1.961
		C377.254,277.245,377.629,276.527,377.161,275.523L377.161,275.523z"/>
	<path fill="#FFDA00" stroke="#231F20" stroke-width="0.3093" stroke-miterlimit="2.6131" d="M374.021,273.438
		c0,0,0.474,0.123,0.785,0.354c0.314,0.231,0.5,0.476,0.387,0.589c-0.114,0.115-0.406,0.029-0.644-0.094
		c-0.232-0.123-0.691-0.615-0.671-0.613c0.021,0.001,0.078,0.564,0.572,0.832c0.492,0.266,0.557,0.324,0.729,0.317
		s0.548-0.544,0.489-0.796c-0.056-0.252-0.335-0.482-0.726-0.64C374.557,273.232,374.026,273.479,374.021,273.438L374.021,273.438z"
		/>
	<path fill="#FFFFFF" d="M376.529,274.232L376.529,274.232c0-0.092-0.077-0.164-0.176-0.164c-0.095,0-0.174,0.072-0.177,0.16
		c0,0.094,0.078,0.166,0.177,0.166C376.451,274.396,376.529,274.322,376.529,274.232L376.529,274.232h-0.176H376.529
		L376.529,274.232z"/>
	<path fill="#FFFFFF" stroke="#231F20" stroke-width="0.3093" stroke-miterlimit="2.6131" d="M379.656,276.027
		c0.115-0.006,0.602-0.226,0.738-0.439c0.227-0.354,0.518-1.023,0.518-1.023s-0.035,0.507,0.104,0.535
		c0.141,0.027,0.274-0.039,0.496-0.151c-0.037,0.128-0.483,0.368-0.439,0.467c0.04,0.069,0.673-0.086,0.844-0.108
		c-0.143,0.099-0.882,0.254-0.901,0.424c-0.017,0.133,0.488,0.102,0.652,0.155c-0.203,0.033-0.695,0.023-0.825,0.177
		c-0.072,0.084,0.555,0.541,0.464,0.547c-0.093,0.007-0.521-0.439-0.688-0.318c-0.132,0.094-0.009,0.396-0.021,0.552
		c-0.109-0.099-0.283-0.479-0.425-0.473c-0.18,0.009-0.446,0.47-0.579,0.565c0.07-0.142,0.219-0.61,0.148-0.67
		c-0.098-0.099-0.723,0.031-0.917,0.182C378.969,276.213,379.521,276.036,379.656,276.027L379.656,276.027z"/>
	<path fill="#FFFFFF" stroke="#231F20" stroke-width="0.3093" stroke-miterlimit="2.6131" d="M372.943,276.096
		c-0.115-0.006-0.604-0.226-0.738-0.438c-0.227-0.354-0.518-1.024-0.518-1.024s0.034,0.506-0.104,0.534
		c-0.14,0.029-0.272-0.039-0.495-0.149c0.037,0.129,0.484,0.366,0.439,0.467c-0.041,0.07-0.672-0.088-0.843-0.109
		c0.143,0.098,0.882,0.252,0.9,0.422c0.017,0.135-0.49,0.102-0.654,0.156c0.205,0.033,0.697,0.025,0.826,0.176
		c0.072,0.086-0.553,0.541-0.463,0.549c0.093,0.008,0.522-0.438,0.688-0.32c0.132,0.096,0.009,0.398,0.019,0.554
		c0.11-0.099,0.285-0.479,0.424-0.474c0.183,0.01,0.449,0.47,0.581,0.564c-0.071-0.141-0.218-0.609-0.148-0.668
		c0.098-0.1,0.721,0.03,0.919,0.182C373.632,276.28,373.08,276.104,372.943,276.096L372.943,276.096z"/>
	<path fill="#FFFFFF" stroke="#231F20" stroke-width="0.3093" stroke-miterlimit="2.6131" d="M382.062,272.324
		c0.05,0.104,0.265,0.501,0.229,0.754c-0.055,0.416-0.396,0.668-0.527,0.955c0.22-0.117,0.283-0.291,0.381-0.215
		c0.094,0.078,0.058,0.186,0.125,0.424c0.048-0.12-0.006-0.573,0.072-0.615c0.062-0.021,0.34,0.533,0.426,0.67
		c-0.03-0.172-0.371-0.801-0.295-0.939c0.062-0.106,0.334,0.271,0.456,0.346c-0.099-0.167-0.386-0.505-0.381-0.706
		c0.003-0.114,0.602-0.008,0.552-0.076c-0.05-0.067-0.529-0.045-0.56-0.248c-0.026-0.159,0.204-0.296,0.278-0.417
		c-0.113-0.006-0.413,0.15-0.488,0.051c-0.102-0.135-0.013-0.656-0.037-0.818c-0.033,0.15-0.195,0.596-0.266,0.592
		c-0.107,0.004-0.188-0.173-0.364-0.268C381.829,272.114,382.015,272.198,382.062,272.324L382.062,272.324z"/>
	<path fill="#FFFFFF" stroke="#231F20" stroke-width="0.3093" stroke-miterlimit="2.6131" d="M370.725,272.663
		c-0.053,0.104-0.266,0.501-0.229,0.753c0.054,0.417,0.397,0.669,0.526,0.956c-0.221-0.118-0.283-0.291-0.381-0.215
		c-0.094,0.077-0.057,0.186-0.125,0.424c-0.047-0.12,0.006-0.573-0.071-0.614c-0.062-0.023-0.339,0.531-0.425,0.668
		c0.03-0.17,0.371-0.801,0.293-0.938c-0.061-0.108-0.332,0.269-0.454,0.344c0.098-0.168,0.385-0.506,0.381-0.706
		c-0.004-0.112-0.604-0.008-0.554-0.075c0.05-0.068,0.529-0.047,0.562-0.249c0.024-0.159-0.204-0.296-0.28-0.417
		c0.115-0.006,0.414,0.149,0.49,0.051c0.101-0.135,0.012-0.656,0.036-0.819c0.032,0.153,0.196,0.597,0.265,0.593
		c0.109,0.004,0.188-0.173,0.364-0.266C370.956,272.453,370.771,272.537,370.725,272.663L370.725,272.663z"/>
</g>
</svg>
