<?xml version="1.0" encoding="utf-8"?>
<!-- Generator: Adobe Illustrator 16.0.0, SVG Export Plug-In . SVG Version: 6.00 Build 0)  -->
<!DOCTYPE svg PUBLIC "-//W3C//DTD SVG 1.1//EN" "http://www.w3.org/Graphics/SVG/1.1/DTD/svg11.dtd">
<svg version="1.1" id="Tasmania" xmlns="http://www.w3.org/2000/svg" xmlns:xlink="http://www.w3.org/1999/xlink" x="0px" y="0px"
	 width="100px" height="50px" viewBox="0 0 100 50" enable-background="new 0 0 100 50" xml:space="preserve">
<g id="au-tas">
	<polygon fill="#003974" points="400,301 400,251 300,251 300,301 	"/>
	<polygon fill="#003974" points="300.051,276 350.049,276 350.049,251 300.051,251 	"/>
	<path fill="#FFFFFF" d="M300.05,272.841l43.75-21.794h6.25v3.112l-43.75,21.796c0,0-6.25,0-6.25-0.091
		C300.05,275.688,300.05,272.841,300.05,272.841L300.05,272.841z"/>
	<path fill="#FFFFFF" d="M350.05,272.841l-43.75-21.794l-6.25-0.015v3.127l43.75,21.796c0,0,6.25,0.176,6.25,0
		C350.05,275.777,350.05,272.841,350.05,272.841L350.05,272.841z"/>
	<polygon fill="#EC1C24" points="300.051,276 304.738,276 329.736,263.5 325.05,263.5 	"/>
	<polygon fill="#EC1C24" points="325.05,263.5 350.049,251 345.361,251 320.363,263.5 	"/>
	<polygon fill="#EC1C24" points="300.051,253.344 300.051,251 325.05,263.5 320.363,263.5 	"/>
	<polygon fill="#EC1C24" points="329.736,263.5 350.049,273.656 350.049,276 325.05,263.5 	"/>
	<polygon fill="#FFFFFF" points="300,259.575 300,267.425 350,267.425 350,259.575 	"/>
	<polygon fill="#FFFFFF" points="321.136,276.059 328.964,276.059 328.964,251.061 321.136,251.061 	"/>
	<polygon fill="#EC1C24" points="300,261.205 300,265.914 350,265.914 350,261.205 	"/>
	<polygon fill="#EC1C24" points="322.701,276 327.398,276 327.398,251 322.701,251 	"/>
	<path fill="#FFDA00" d="M376.182,263.795L376.182,263.795c6.83,0,12.4,5.571,12.4,12.402l0,0c0,6.83-5.57,12.402-12.4,12.402l0,0
		c-6.83,0-12.401-5.572-12.401-12.402l0,0C363.779,269.366,369.352,263.795,376.182,263.795L376.182,263.795z"/>
	<path fill="#4A745D" stroke="#231F20" stroke-width="0.3526" stroke-miterlimit="2.6131" d="M371.186,283.945h10.204
		c0.231,0.01,0.419,0.197,0.419,0.429l0,0c0,0.231-0.188,0.419-0.419,0.419l-10.204,0.011c-0.229-0.011-0.42-0.198-0.42-0.429l0,0
		c0-0.23,0.189-0.42,0.42-0.42V283.945z"/>
	<polygon fill="#C64A34" stroke="#231F20" stroke-width="0.3526" stroke-miterlimit="2.6131" points="371.654,284.804 
		372.638,284.804 372.638,283.945 371.654,283.945 	"/>
	<polygon fill="#C64A34" stroke="#231F20" stroke-width="0.3526" stroke-miterlimit="2.6131" points="380.006,284.804 
		380.988,284.804 380.988,283.945 380.006,283.945 	"/>
	<path fill="#231F20" d="M378.68,284.938c1.011,1.084,1.619,2.08,1.363,2.224c-0.256,0.146-1.285-0.617-2.293-1.701
		c-0.031-0.412-0.167-0.456,0.09-0.601C378.098,284.716,378.209,284.812,378.68,284.938L378.68,284.938z"/>
	<path fill="#FFFFFF" stroke="#231F20" stroke-width="0.4955" stroke-miterlimit="2.6131" d="M378.844,285.164
		c0.812,0.872,0.633,1.075,0.417,1.195c-0.216,0.121-0.486,0.171-1.299-0.701c-0.812-0.871-1.858-2.337-1.644-2.457
		C376.533,283.08,378.031,284.293,378.844,285.164L378.844,285.164z"/>
	<path fill="#231F20" d="M378.346,285.156c0.804,1.182,1.227,2.234,0.945,2.348c-0.279,0.115-1.158-0.752-1.961-1.934
		c0.044-0.412-0.082-0.471,0.197-0.584C377.809,284.872,377.902,284.98,378.346,285.156L378.346,285.156z"/>
	<path fill="#FFFFFF" stroke="#231F20" stroke-width="0.4955" stroke-miterlimit="2.6131" d="M378.467,285.398
		c0.646,0.951,0.43,1.133,0.196,1.229c-0.235,0.096-0.513,0.115-1.158-0.836c-0.646-0.952-1.416-2.518-1.181-2.611
		C376.557,283.084,377.82,284.446,378.467,285.398L378.467,285.398z"/>
	<path fill="#231F20" d="M377.938,285.321c0.614,1.249,0.872,2.333,0.576,2.421c-0.297,0.088-1.035-0.855-1.647-2.104
		c0.106-0.406-0.011-0.474,0.286-0.562C377.448,284.989,377.525,285.105,377.938,285.321L377.938,285.321z"/>
	<path fill="#FFFFFF" stroke="#231F20" stroke-width="0.5196" stroke-miterlimit="2.6131" d="M378.021,285.572
		c0.493,1.006,0.252,1.166,0.004,1.238c-0.247,0.073-0.526,0.067-1.021-0.938c-0.493-1.005-1.017-2.63-0.769-2.701
		C376.482,283.098,377.526,284.568,378.021,285.572L378.021,285.572z"/>
	<path fill="#231F20" d="M377.543,285.466c0.381,1.302,0.439,2.405,0.13,2.458c-0.31,0.055-0.868-0.959-1.25-2.261
		c0.181-0.39,0.077-0.472,0.386-0.526S377.173,285.207,377.543,285.466L377.543,285.466z"/>
	<path fill="#FFFFFF" stroke="#231F20" stroke-width="0.5196" stroke-miterlimit="2.6131" d="M377.578,285.723
		c0.307,1.049,0.038,1.182-0.221,1.227c-0.259,0.046-0.532,0.009-0.841-1.039c-0.307-1.051-0.529-2.715-0.271-2.762
		C376.506,283.104,377.271,284.674,377.578,285.723L377.578,285.723z"/>
	<path fill="#231F20" d="M377.15,285.531c0.224,1.324,0.149,2.426-0.164,2.457c-0.314,0.031-0.75-1.018-0.975-2.342
		c0.227-0.375,0.135-0.463,0.447-0.496C376.773,285.12,376.812,285.248,377.15,285.531L377.15,285.531z"/>
	<path fill="#FFFFFF" stroke="#231F20" stroke-width="0.5255" stroke-miterlimit="2.6131" d="M377.155,285.791
		c0.181,1.066-0.104,1.178-0.366,1.205c-0.262,0.025-0.531-0.03-0.711-1.096c-0.182-1.066-0.203-2.741,0.061-2.769
		C376.399,283.105,376.976,284.725,377.155,285.791L377.155,285.791z"/>
	<path fill="#231F20" d="M373.754,284.938c-1.01,1.084-1.619,2.08-1.363,2.224c0.258,0.146,1.283-0.617,2.293-1.701
		c0.031-0.412,0.168-0.456-0.09-0.601C374.337,284.716,374.224,284.812,373.754,284.938L373.754,284.938z"/>
	<path fill="#FFFFFF" stroke="#231F20" stroke-width="0.4955" stroke-miterlimit="2.6131" d="M373.59,285.164
		c-0.812,0.872-0.631,1.075-0.416,1.195c0.216,0.121,0.486,0.171,1.299-0.701c0.812-0.871,1.859-2.337,1.646-2.457
		C375.9,283.08,374.402,284.293,373.59,285.164L373.59,285.164z"/>
	<path fill="#231F20" d="M374.088,285.156c-0.802,1.182-1.227,2.234-0.946,2.348c0.28,0.115,1.159-0.752,1.962-1.934
		c-0.044-0.412,0.082-0.471-0.197-0.584C374.626,284.872,374.531,284.98,374.088,285.156L374.088,285.156z"/>
	<path fill="#FFFFFF" stroke="#231F20" stroke-width="0.4955" stroke-miterlimit="2.6131" d="M373.967,285.398
		c-0.646,0.951-0.43,1.133-0.195,1.229c0.235,0.096,0.513,0.115,1.158-0.836c0.646-0.952,1.416-2.518,1.183-2.611
		C375.877,283.084,374.613,284.446,373.967,285.398L373.967,285.398z"/>
	<path fill="#231F20" d="M374.496,285.321c-0.615,1.249-0.872,2.333-0.576,2.421c0.297,0.088,1.035-0.855,1.648-2.104
		c-0.107-0.406,0.01-0.474-0.287-0.562S374.908,285.105,374.496,285.321L374.496,285.321z"/>
	<path fill="#FFFFFF" stroke="#231F20" stroke-width="0.5196" stroke-miterlimit="2.6131" d="M374.412,285.572
		c-0.492,1.006-0.25,1.166-0.003,1.238c0.248,0.073,0.525,0.067,1.021-0.938c0.493-1.005,1.017-2.63,0.77-2.701
		C375.951,283.098,374.906,284.568,374.412,285.572L374.412,285.572z"/>
	<path fill="#231F20" d="M374.892,285.466c-0.382,1.302-0.439,2.405-0.131,2.458c0.309,0.055,0.868-0.959,1.249-2.261
		c-0.179-0.39-0.076-0.472-0.386-0.526C375.315,285.082,375.261,285.207,374.892,285.466L374.892,285.466z"/>
	<path fill="#FFFFFF" stroke="#231F20" stroke-width="0.5196" stroke-miterlimit="2.6131" d="M374.855,285.723
		c-0.308,1.049-0.039,1.182,0.221,1.227c0.258,0.046,0.531,0.009,0.84-1.039c0.307-1.051,0.529-2.715,0.271-2.762
		C375.929,283.104,375.161,284.674,374.855,285.723L374.855,285.723z"/>
	<path fill="#231F20" d="M375.283,285.531c-0.224,1.324-0.15,2.426,0.163,2.457c0.314,0.031,0.751-1.018,0.974-2.342
		c-0.225-0.375-0.133-0.463-0.447-0.496C375.66,285.12,375.62,285.248,375.283,285.531L375.283,285.531z"/>
	<path fill="#FFFFFF" stroke="#231F20" stroke-width="0.5255" stroke-miterlimit="2.6131" d="M375.278,285.791
		c-0.18,1.066,0.104,1.178,0.366,1.205c0.264,0.025,0.531-0.03,0.713-1.096c0.18-1.066,0.201-2.741-0.062-2.769
		C376.035,283.105,375.458,284.725,375.278,285.791L375.278,285.791z"/>
	<path fill="#231F20" d="M376.896,285.678c0.02,1.336-0.224,2.424-0.539,2.426c-0.317,0.002-0.591-1.08-0.609-2.416
		c0.281-0.352,0.203-0.446,0.521-0.448C376.586,285.234,376.605,285.364,376.896,285.678L376.896,285.678z"/>
	<path fill="#FFFFFF" stroke="#231F20" stroke-width="0.5309" stroke-miterlimit="2.6131" d="M376.862,285.936
		c0.015,1.075-0.283,1.16-0.55,1.164c-0.266,0.002-0.523-0.078-0.537-1.154c-0.017-1.074,0.219-2.739,0.483-2.741
		C376.523,283.2,376.848,284.861,376.862,285.936L376.862,285.936z"/>
	<path fill="#FFFFFF" d="M382.014,279.65c0.019,0.017-0.012-0.006-0.049-0.006c-0.038,0-0.065,0.021-0.065,0.051
		s0.029,0.053,0.065,0.053s0.066-0.023,0.066-0.053l0,0h-0.066L382.014,279.65L382.014,279.65z"/>
	<path fill="#231F20" d="M381.954,279.68c0.031,0.01,0.021,0.004,0.01,0.004s-0.021,0.008-0.021,0.017
		c0,0.01,0.01,0.019,0.021,0.019s0.022-0.009,0.022-0.019l0,0h-0.022L381.954,279.68L381.954,279.68z"/>
	<path fill="#231F20" stroke="#231F20" stroke-width="0.7501" stroke-miterlimit="2.6131" d="M376.26,283.821
		c-0.796-0.048-0.581-1.046-0.814-1.046s-1.029,0.908-1.264,1.147c-0.232,0.24-0.28,0.621-0.28,0.621s-0.048-0.621-0.375-0.669
		c-0.326-0.048-0.7,0.479-0.7,0.479s0.047-0.525,0.327-0.717s0.795,0,0.795,0s1.123-1.101,1.356-1.531
		c0.234-0.431-0.528-0.461-0.716-0.795c-0.188-0.336,0.095-1.291-0.188-1.482c-0.233,0.477-0.469,1.577-0.749,1.529
		c-0.28-0.047-0.562-0.812-0.562-0.812s0.141,0.908-0.28,0.908c-0.422,0-0.516-0.908-0.516-0.908s-0.046,0.957-0.468,0.957
		s-0.422-1.148-0.422-1.148s-0.327,0.957-0.562,1.101c-0.234,0.146-0.14-1.052-0.14-1.052s-0.328,0.955-0.703,0.908
		c-0.373-0.049-0.326-0.813-0.326-0.813s-0.281,0.67-0.796,0.524c-0.515-0.143-0.375-0.906-0.375-0.906s-0.187,0.572-0.608,0.238
		c-0.42-0.334,0.142-0.86,0.142-0.86s-0.374,0.526-0.796,0.287s0.187-1.052,0.187-1.052s-0.7,0.238-1.028-0.192
		s0.469-0.669,0.469-0.669s-0.516-0.096-0.609-0.479c-0.094-0.384,0.656-0.479,0.656-0.479s-0.608-0.143-0.656-0.526
		c-0.047-0.383,0.702-0.096,0.749-0.096s-0.937-0.669-0.937-0.956s0.937,0.145,0.937,0.145s-0.937-0.623-0.937-1.054
		c0-0.43,0.608-0.095,0.844-0.047c-0.188-0.287-0.844-0.573-0.795-0.908c0.046-0.336,0.888,0.048,0.888,0.048
		s-0.796-0.86-0.655-1.147c0.141-0.286,0.982,0.384,0.982,0.384s-0.982-0.861-0.889-1.102c0.095-0.239,1.03,0.432,1.03,0.432
		s-0.937-0.91-0.797-1.244c0.141-0.334,0.937,0.432,1.123,0.573c-0.188-0.095-1.076-1.291-0.889-1.578
		c0.187-0.287,1.17,0.908,1.17,0.908s-0.889-1.435-0.748-1.626s1.217,1.148,1.217,1.148s-0.844-1.484-0.515-1.724
		c0.327-0.238,0.889,1.244,0.937,1.244s-0.47-1.626-0.095-1.771c0.374-0.144,0.938,1.53,0.981,1.53c0.049,0-0.373-2.2,0.095-2.151
		c0.468,0.047,0.374,1.051,0.374,1.1c0,0.048,0.047-0.573,0.326-0.573c-0.047,0.144,0.844,5.261,1.123,6.457
		c0.28,1.195,0.608,0.861,0.844,1.244s0.562,0.43,0.936,0.478c0.375,0.049,1.179,0.057,1.404-0.383
		c0.166-0.404-0.047-2.057,1.287-2.104c1.334,0.048,1.12,1.699,1.287,2.104c0.226,0.438,1.028,0.432,1.403,0.383
		c0.373-0.048,0.701-0.095,0.937-0.478s0.561-0.049,0.842-1.244c0.281-1.196,1.171-6.313,1.123-6.457
		c0.281,0,0.328,0.621,0.328,0.573c0-0.049-0.094-1.053,0.374-1.1c0.468-0.049,0.046,2.151,0.094,2.151s0.608-1.674,0.983-1.53
		c0.374,0.144-0.142,1.771-0.094,1.771c0.047,0,0.606-1.482,0.936-1.244c0.328,0.24-0.515,1.724-0.515,1.724
		s1.074-1.341,1.217-1.148c0.14,0.191-0.749,1.626-0.749,1.626s0.983-1.196,1.171-0.908c0.188,0.287-0.702,1.483-0.89,1.578
		c0.188-0.144,0.982-0.908,1.123-0.573c0.141,0.334-0.796,1.244-0.796,1.244s0.937-0.67,1.03-0.432s-0.89,1.102-0.89,1.102
		s0.843-0.67,0.982-0.384c0.141,0.287-0.654,1.147-0.654,1.147s0.842-0.384,0.888-0.048c0.048,0.335-0.608,0.621-0.795,0.908
		c0.233-0.049,0.843-0.384,0.843,0.047s-0.936,1.054-0.936,1.054s0.936-0.432,0.936-0.145s-0.984,0.956-0.936,0.956
		c0.047,0,0.795-0.286,0.748,0.096c-0.047,0.384-0.655,0.526-0.655,0.526s0.749,0.095,0.655,0.479
		c-0.095,0.383-0.609,0.479-0.609,0.479s0.797,0.238,0.469,0.669c-0.327,0.431-1.029,0.192-1.029,0.192s0.609,0.812,0.188,1.052
		c-0.422,0.239-0.796-0.287-0.796-0.287s0.562,0.526,0.14,0.86c-0.42,0.336-0.606-0.238-0.606-0.238s0.139,0.765-0.375,0.906
		c-0.515,0.146-0.795-0.524-0.795-0.524s0.047,0.767-0.328,0.813s-0.702-0.908-0.702-0.908s0.095,1.195-0.14,1.052
		s-0.562-1.101-0.562-1.101s0,1.148-0.421,1.148c-0.422,0-0.469-0.957-0.469-0.957s-0.095,0.908-0.516,0.908
		s-0.279-0.908-0.279-0.908s-0.281,0.766-0.562,0.812c-0.281,0.049-0.515-1.053-0.749-1.529c-0.281,0.191,0,1.146-0.188,1.482
		c-0.188,0.334-1.017,0.363-0.781,0.795c0.232,0.43,1.357,1.531,1.357,1.531s0.514-0.191,0.796,0
		c0.279,0.19,0.326,0.717,0.326,0.717s-0.375-0.525-0.701-0.479c-0.327,0.047-0.374,0.669-0.374,0.669s-0.047-0.383-0.281-0.621
		c-0.233-0.239-1.029-1.147-1.264-1.147S377.102,283.773,376.26,283.821L376.26,283.821z"/>
	<path fill="#FFFFFF" d="M377.162,275.523c0.023,0.008-0.35,0.733-0.884,1.11c-0.531,0.376-0.976,0.22-1.08,0.179
		c0.009,0.117,0.034,0.754,0.058,1.088c0.098,1.481-0.326,1.979-0.326,1.979s0.28,0.479,0.28,0.719c0,0.238-0.013,0.551,0.22,1.127
		c0.416,0.77,0.47,0.861,0.47,1.148c0,0.286,0.071,0.7,0.366,0.638c0.328,0.095,0.366-0.354,0.366-0.642
		c0-0.286,0.054-0.379,0.469-1.148c0.332-0.541,0.154-0.887,0.154-1.127c0-0.238,0.281-0.717,0.281-0.717s-0.425-0.479-0.327-1.961
		C377.256,277.246,377.63,276.527,377.162,275.523L377.162,275.523z"/>
	<path fill="#FFDA00" stroke="#231F20" stroke-width="0.7501" stroke-miterlimit="2.6131" d="M374.021,273.438
		c0,0,0.473,0.121,0.786,0.354c0.314,0.233,0.5,0.476,0.387,0.59c-0.115,0.115-0.407,0.028-0.643-0.094
		c-0.234-0.123-0.693-0.615-0.673-0.612c0.023,0.001,0.079,0.563,0.574,0.831c0.49,0.269,0.555,0.324,0.729,0.318
		c0.174-0.009,0.547-0.543,0.49-0.798c-0.056-0.252-0.336-0.481-0.727-0.637C374.556,273.232,374.026,273.479,374.021,273.438
		L374.021,273.438z"/>
	<path fill="#FFFFFF" d="M376.529,274.232C376.529,274.23,376.529,274.23,376.529,274.232c0-0.09-0.077-0.164-0.174-0.164
		s-0.176,0.072-0.177,0.16c0,0.094,0.077,0.166,0.177,0.166C376.451,274.396,376.529,274.322,376.529,274.232L376.529,274.232
		h-0.174H376.529L376.529,274.232z"/>
	<path fill="#FFFFFF" stroke="#231F20" stroke-width="0.7501" stroke-miterlimit="2.6131" d="M379.657,276.027
		c0.116-0.006,0.601-0.225,0.739-0.439c0.227-0.354,0.516-1.023,0.516-1.023s-0.033,0.507,0.104,0.535
		c0.142,0.027,0.273-0.039,0.495-0.15c-0.036,0.128-0.484,0.367-0.438,0.466c0.04,0.071,0.672-0.086,0.842-0.108
		c-0.143,0.099-0.88,0.254-0.9,0.424c-0.017,0.133,0.488,0.101,0.653,0.156c-0.204,0.032-0.697,0.023-0.826,0.176
		c-0.072,0.086,0.555,0.541,0.464,0.547c-0.094,0.008-0.522-0.438-0.688-0.318c-0.131,0.095-0.008,0.398-0.021,0.553
		c-0.109-0.098-0.282-0.479-0.423-0.473c-0.182,0.008-0.45,0.469-0.583,0.564c0.072-0.142,0.219-0.61,0.151-0.67
		c-0.098-0.098-0.722,0.031-0.918,0.183C378.969,276.213,379.521,276.036,379.657,276.027L379.657,276.027z"/>
	<path fill="#FFFFFF" stroke="#231F20" stroke-width="0.7501" stroke-miterlimit="2.6131" d="M372.943,276.096
		c-0.115-0.007-0.603-0.225-0.738-0.438c-0.227-0.354-0.518-1.023-0.518-1.023s0.034,0.505-0.104,0.533
		c-0.14,0.028-0.273-0.039-0.495-0.151c0.037,0.129,0.484,0.367,0.439,0.469c-0.041,0.07-0.672-0.088-0.845-0.109
		c0.145,0.097,0.882,0.252,0.902,0.422c0.016,0.135-0.489,0.102-0.654,0.156c0.204,0.033,0.697,0.023,0.826,0.176
		c0.072,0.086-0.553,0.541-0.463,0.548c0.092,0.009,0.523-0.438,0.688-0.319c0.131,0.096,0.009,0.398,0.02,0.556
		c0.111-0.101,0.285-0.479,0.424-0.474c0.183,0.008,0.45,0.468,0.581,0.562c-0.071-0.141-0.217-0.609-0.148-0.668
		c0.098-0.1,0.722,0.031,0.918,0.182C373.631,276.281,373.08,276.104,372.943,276.096L372.943,276.096z"/>
	<path fill="#FFFFFF" stroke="#231F20" stroke-width="0.7501" stroke-miterlimit="2.6131" d="M382.061,272.324
		c0.052,0.104,0.267,0.502,0.231,0.754c-0.056,0.415-0.397,0.668-0.527,0.955c0.221-0.118,0.283-0.291,0.38-0.215
		c0.095,0.076,0.059,0.186,0.125,0.423c0.047-0.119-0.006-0.573,0.072-0.614c0.062-0.021,0.34,0.533,0.426,0.669
		c-0.03-0.171-0.371-0.8-0.294-0.938c0.061-0.106,0.333,0.27,0.456,0.345c-0.099-0.168-0.387-0.507-0.382-0.706
		c0.005-0.113,0.602-0.008,0.552-0.076c-0.049-0.068-0.528-0.046-0.561-0.249c-0.023-0.16,0.205-0.295,0.279-0.418
		c-0.113-0.004-0.413,0.151-0.488,0.052c-0.103-0.135-0.014-0.656-0.037-0.82c-0.032,0.152-0.195,0.598-0.266,0.594
		c-0.107,0.004-0.188-0.173-0.363-0.268C381.83,272.115,382.016,272.198,382.061,272.324L382.061,272.324z"/>
	<path fill="#FFFFFF" stroke="#231F20" stroke-width="0.7501" stroke-miterlimit="2.6131" d="M370.725,272.662
		c-0.052,0.104-0.265,0.502-0.229,0.754c0.055,0.416,0.396,0.668,0.526,0.955c-0.22-0.118-0.284-0.291-0.379-0.215
		c-0.096,0.076-0.059,0.187-0.127,0.424c-0.046-0.12,0.006-0.574-0.071-0.614c-0.062-0.022-0.339,0.532-0.427,0.668
		c0.031-0.171,0.371-0.8,0.295-0.938c-0.061-0.107-0.331,0.271-0.455,0.345c0.099-0.168,0.386-0.506,0.38-0.706
		c-0.002-0.113-0.601-0.008-0.552-0.076c0.05-0.068,0.529-0.046,0.562-0.248c0.025-0.16-0.204-0.296-0.279-0.417
		c0.114-0.006,0.414,0.15,0.489,0.05c0.102-0.134,0.011-0.656,0.037-0.818c0.032,0.152,0.195,0.597,0.265,0.594
		c0.107,0.002,0.188-0.174,0.364-0.268C370.956,272.453,370.77,272.537,370.725,272.662L370.725,272.662z"/>
	<path fill="#FFFFFF" d="M376.155,263.848L376.155,263.848c6.83,0,12.401,5.571,12.401,12.402l0,0c0,6.83-5.571,12.4-12.401,12.4
		l0,0c-6.83,0-12.402-5.57-12.402-12.4l0,0C363.753,269.419,369.324,263.848,376.155,263.848L376.155,263.848z"/>
	<path fill="#C64A34" stroke="#231F20" stroke-width="0.7501" stroke-miterlimit="2.6131" d="M371.408,272.532
		c0.024-0.021,0.197,0.032,0.365,0.104c0.218,0.021,0.371,0.108,0.589,0.125c0.182,0.082,0.363,0.153,0.583,0.198
		c0.242,0.038,0.354-0.015,0.601-0.024c0.171-0.045,0.364-0.106,0.533-0.104c0.194-0.052,0.335-0.054,0.54-0.179
		c0.186-0.156,1.229,0.676,1.226,0.502c-0.241-0.24-1.247-1.11-1.515-1.088c-0.241,0.015-0.461-0.146-0.738-0.137
		c-0.246,0.055-0.463,0.125-0.715,0.053c-0.234-0.019-0.354-0.057-0.596-0.051c-0.219-0.017-0.371,0.043-0.561-0.011
		c-0.158-0.056-0.255-0.073-0.345,0.084C371.416,272.129,371.396,272.304,371.408,272.532L371.408,272.532z"/>
	<path fill="#C64A34" stroke="#231F20" stroke-width="0.7501" stroke-miterlimit="2.6131" d="M371.938,272.643
		c0.244-0.031,0.338-0.112,0.57-0.191c0.152-0.094,0.32-0.206,0.481-0.251c0.173-0.104,0.306-0.146,0.468-0.324
		c0.135-0.204,1.482-0.081,1.43-0.245c-0.3-0.162-1.621-0.333-1.871-0.236c-0.227,0.084-0.485-0.01-0.746,0.078
		c-0.223,0.121-0.409,0.252-0.672,0.252C371.367,271.771,371.715,272.662,371.938,272.643L371.938,272.643z"/>
	<path fill="#C64A34" stroke="#231F20" stroke-width="0.7501" stroke-miterlimit="2.6131" d="M371.936,272.018
		c0.03-0.01,0.174,0.104,0.305,0.23c0.193,0.097,0.308,0.234,0.504,0.328c0.139,0.143,0.282,0.275,0.471,0.396
		c0.214,0.122,0.337,0.113,0.57,0.193c0.176,0.02,0.378,0.031,0.534,0.095c0.198,0.021,0.33,0.22,0.566,0.177
		c0.231-0.08,1.106,0.53,1.163,0.367c-0.137-0.312-0.963-0.941-1.219-1.018c-0.23-0.074-0.379-0.453-0.639-0.544
		c-0.25-0.038-0.479-0.05-0.688-0.209c-0.211-0.101-0.309-0.179-0.536-0.261c-0.198-0.096-0.362-0.094-0.52-0.211
		c-0.127-0.109-0.21-0.16-0.351-0.047C372.089,271.645,372.008,271.8,371.936,272.018L371.936,272.018z"/>
	<path fill="#C64A34" stroke="#231F20" stroke-width="0.7501" stroke-miterlimit="2.6131" d="M382.533,277.523
		c-0.068,0.629,0.05,3.392-0.525,4.396c-0.572,1.005-0.684,0.858-0.721,0.838c-0.035-0.021-0.039-0.354-0.039-0.354
		s-0.105,0.438-0.793,0.796c-0.688,0.355-1.707,0.272-1.707,0.272l-0.004-0.418l-0.289,0.336c0,0,0.144-0.336,0.105-0.355
		c-0.035-0.021-0.325,0.146-0.325,0.146s0.105-0.354,0.07-0.377c-0.036-0.02-0.397,0.273-0.397,0.273s0.215-0.461,0.505-0.63
		c0.289-0.166,0.546,0.146,0.583,0.168c0.037,0.021,1.059,0.438,1.918-1.237c0.859-1.674,0.314-3.267,0.314-3.267
		S382.601,276.896,382.533,277.523L382.533,277.523z"/>
	<path fill="#C64A34" stroke="#231F20" stroke-width="0.7501" stroke-miterlimit="2.6131" d="M367.401,275.631
		c-0.896-1.818,0.822-1.472,1.697-0.117c1.119,0.452,5.947,1.799,5.947,1.799l0.008,1.264c0,0-5.237-2.272-5.352-1.905
		c-0.115,0.366-1.14-0.287-1.14-0.287l-0.486-0.894c0,0,0.273,0.828,0.197,0.861c-0.077,0.034-0.487-0.893-0.487-0.893l-0.015,0.798
		L367.401,275.631L367.401,275.631z"/>
	<path fill="#C64A34" stroke="#231F20" stroke-width="0.7501" stroke-miterlimit="2.6131" d="M372.348,272.209
		c0.03-0.006,0.156,0.126,0.269,0.271c0.178,0.123,0.271,0.275,0.453,0.396c0.118,0.161,0.241,0.312,0.411,0.458
		c0.193,0.15,0.166,0.421,0.388,0.533c0.172,0.043,0.369,0.084,0.517,0.167c0.194,0.051,0.317,0.116,0.559,0.106
		c0.238-0.048,1.1,0.493,1.18,0.342c-0.094-0.327-0.9-0.883-1.146-0.993c-0.22-0.104-0.332-0.354-0.576-0.479
		c-0.243-0.072-0.317-0.378-0.502-0.564c-0.195-0.129-0.28-0.219-0.494-0.334c-0.186-0.12-0.347-0.144-0.486-0.28
		c-0.11-0.125-0.186-0.188-0.34-0.095C372.551,271.859,372.448,272.004,372.348,272.209L372.348,272.209z"/>
	<path fill="#C64A34" stroke="#231F20" stroke-width="0.7501" stroke-miterlimit="2.6131" d="M374.682,274.791
		c1.262-0.073,7.196-0.073,7.196-0.073s2.044-0.125,2.086-1.21c0.042-1.086-1.283-0.207-1.76-0.103
		c-1.212,0.303-3.236,0.885-4.194,0.403c-0.424-0.265-0.965-0.306-1.012-1.444c-0.047-1.197,0.865-1.044,1.339-1.022
		c1.056,0.042,2.007,0.078,3.168,0.276c0,0,0-0.94,0.042-0.94s0.168,0.508,0.168,0.508s0.337-0.725,0.337-0.651
		s0.128,0.579,0.128,0.579l0.252-0.362c0,0,0.084,0.435,0.126,0.435s0.337-0.361,0.337-0.361l0.212,0.507l0.42,0.435h-0.505
		l-0.084,0.361l-0.211-0.361l-0.253,0.578l-0.168-0.361c0,0-0.169,0.289-0.169,0.361s-0.169-0.435-0.211-0.435
		s-0.252,0.362-0.252,0.362s-0.127-0.289-0.169-0.289s-3.062-0.172-3.062-0.172c-0.634,0.051-1.021-0.088-1.032,0.555
		c-0.021,1.168,0.643,1.169,0.643,1.169c0.896,0.423,3.107-0.089,4.363-0.562c0.039-0.017,1.844-0.839,1.802,0.465
		c-0.041,1.303-1.497,1.572-1.497,1.572s0.548,0.508,0.802,1.52c0.252,1.012,0.084,1.302,0.336,1.881
		c0.254,0.579,1.264,1.809,1.264,2.966s-0.169,1.085-0.211,1.085s-0.211-0.289-0.211-0.289s0.126,0.434-0.294,1.085
		c-0.423,0.651-1.348,1.085-1.348,1.085l-0.211-0.361l-0.084,0.435c0,0-0.043-0.362-0.084-0.362c-0.043,0-0.211,0.29-0.211,0.29
		s-0.084-0.362-0.126-0.362c-0.043,0-0.212,0.435-0.212,0.435s-0.042-0.507,0.127-0.796c0.169-0.29,0.548-0.146,0.59-0.146
		s1.084-0.145,1-2.023c-0.085-0.772-0.301-1.135-0.735-1.072c-1.049,0.139-2.961-0.125-3.104-0.684
		c-0.322-1.319-2.507,0.02-4.736,0.525c-2.231,0.508-5.179,2.461-5.179,2.461l-0.083,0.434c0,0-0.128-0.578-0.169-0.508
		c-0.042,0.074-0.084,0.58-0.126,0.58c-0.044,0-0.254-0.652-0.254-0.652s-0.378,0.867-0.378,0.796c0-0.072,0.041-0.651,0.041-0.651
		s-0.252-1.156,0.591-1.592c0.842-0.434,0.884-0.072,1.895-0.723c1.01-0.651,0.379-2.459,1.346-3.979
		C373.923,274.863,374.723,274.863,374.682,274.791L374.682,274.791z"/>
	<path fill="#C64A34" stroke="#231F20" stroke-width="0.7501" stroke-miterlimit="2.6131" d="M372.674,274.527
		c0.019,0.025-0.057,0.191-0.149,0.35c-0.048,0.213-0.153,0.355-0.196,0.569c-0.104,0.17-0.198,0.342-0.271,0.554
		c-0.068,0.236-0.292,0.614-0.312,0.859c0.023,0.177,0.061,0.375,0.038,0.543c0.025,0.197,0.01,0.338,0.109,0.557
		c0.133,0.205,0.467,1.365,0.637,1.383c0.27-0.209-0.031-1.324-0.021-1.594c0.016-0.241,0.203-0.439,0.229-0.716
		c-0.023-0.252,0.194-0.737,0.3-0.978c0.046-0.229,0.1-0.345,0.124-0.585c0.044-0.215,0.004-0.372,0.079-0.555
		c0.073-0.149,0.104-0.242-0.039-0.353C373.073,274.585,372.903,274.545,372.674,274.527L372.674,274.527z"/>
	<path fill="#C64A34" stroke="#231F20" stroke-width="0.7501" stroke-miterlimit="2.6131" d="M372.629,273.03
		c0.031-0.005,0.146,0.138,0.244,0.29c0.168,0.139,0.248,0.3,0.418,0.434c0.104,0.17,0.215,0.332,0.371,0.49
		c0.18,0.168,0.303,0.188,0.512,0.316c0.167,0.059,0.362,0.114,0.5,0.211c0.19,0.065,0.307,0.144,0.549,0.152
		c0.241-0.025,1.279,0.288,1.372,0.143c-0.064-0.334-1.05-0.656-1.282-0.789c-0.209-0.121-0.302-0.379-0.534-0.525
		c-0.236-0.093-0.455-0.154-0.623-0.357c-0.184-0.145-0.261-0.242-0.465-0.375c-0.174-0.135-0.332-0.17-0.459-0.319
		c-0.101-0.136-0.171-0.203-0.332-0.124C372.86,272.699,372.747,272.834,372.629,273.03L372.629,273.03z"/>
	<path fill="#C64A34" stroke="#231F20" stroke-width="0.7501" stroke-miterlimit="2.6131" d="M372.893,273.973
		c0.021,0.023-0.027,0.197-0.096,0.366c-0.014,0.218-0.098,0.375-0.109,0.593c-0.077,0.185-0.146,0.367-0.184,0.588
		c-0.031,0.244,0.023,0.354,0.039,0.601c0.052,0.17,0.117,0.36,0.119,0.53c0.057,0.191,0.062,0.332,0.193,0.533
		c0.161,0.184-0.076,1.129,0.096,1.121c0.233-0.246,0.511-1.156,0.481-1.424c-0.021-0.24,0.136-0.466,0.117-0.74
		c-0.061-0.246-0.137-0.461-0.069-0.715c0.012-0.234,0.046-0.354,0.033-0.596c0.012-0.221-0.053-0.371-0.006-0.561
		c0.052-0.16,0.068-0.257-0.092-0.343C373.297,273.969,373.121,273.953,372.893,273.973L372.893,273.973z"/>
	<path fill="#C64A34" stroke="#231F20" stroke-width="0.7501" stroke-miterlimit="2.6131" d="M372.976,272.998
		c0.007,0.029-0.124,0.156-0.269,0.27c-0.122,0.181-0.275,0.273-0.393,0.455c-0.16,0.12-0.312,0.245-0.455,0.416
		c-0.15,0.194-0.157,0.318-0.269,0.539c-0.043,0.172-0.082,0.369-0.165,0.518c-0.048,0.195-0.113,0.318-0.102,0.56
		c0.048,0.238-0.409,1.587-0.257,1.666c0.327-0.094,0.8-1.392,0.907-1.637c0.104-0.22,0.351-0.334,0.476-0.58
		c0.071-0.242,0.112-0.468,0.299-0.652c0.128-0.196,0.22-0.28,0.33-0.498c0.12-0.184,0.141-0.346,0.279-0.487
		c0.124-0.11,0.186-0.187,0.093-0.34C373.326,273.198,373.182,273.098,372.976,272.998L372.976,272.998z"/>
	<path fill="#C64A34" stroke="#231F20" stroke-width="0.7501" stroke-miterlimit="2.6131" d="M372.789,273.281
		c0.01,0.029-0.096,0.176-0.219,0.311c-0.09,0.197-0.224,0.317-0.311,0.516c-0.138,0.146-0.265,0.293-0.379,0.486
		c-0.114,0.219-0.102,0.34-0.173,0.576c-0.014,0.178-0.018,0.379-0.075,0.537c-0.014,0.2,0.091,0.297,0.145,0.531
		c0.087,0.228-0.21,1.035-0.046,1.09c0.307-0.149,0.626-0.909,0.691-1.171c0.065-0.233,0.142-0.351,0.222-0.614
		c0.028-0.252,0.031-0.48,0.185-0.693c0.093-0.216,0.168-0.314,0.241-0.546c0.088-0.202,0.08-0.364,0.192-0.528
		c0.104-0.131,0.151-0.215,0.031-0.352C373.168,273.42,373.01,273.345,372.789,273.281L372.789,273.281z"/>
	<path fill="#C64A34" stroke="#231F20" stroke-width="0.7501" stroke-miterlimit="2.6131" d="M373.041,274.164
		c0.027,0.014,0.041,0.195,0.035,0.379c0.061,0.208,0.034,0.385,0.101,0.593c-0.011,0.2,0.1,0.357,0.141,0.577
		c0.053,0.24,0.143,0.325,0.241,0.551c0.105,0.144,0.232,0.301,0.293,0.459c0.118,0.16,0.173,0.29,0.363,0.436
		c0.217,0.115,0.401,1.143,0.56,1.074c0.137-0.312,0-1.315-0.119-1.558c-0.103-0.219-0.031-0.483-0.142-0.735
		c-0.143-0.211-0.287-0.387-0.311-0.647c-0.071-0.224-0.19-0.312-0.284-0.534c-0.065-0.21-0.176-0.33-0.196-0.525
		c-0.008-0.166-0.023-0.263-0.203-0.289C373.419,274.021,373.25,274.068,373.041,274.164L373.041,274.164z"/>
	<path fill="#C64A34" stroke="#231F20" stroke-width="0.7501" stroke-miterlimit="2.6131" d="M373.467,273.828
		c0.031,0.01,0.078,0.186,0.107,0.363c0.098,0.193,2.123,2.873,2.225,3.063c0.028,0.197-1.913-2.073-1.834-1.864
		c0.1,0.227,0.203,0.293,0.344,0.494c0.132,0.12,0.285,0.25,0.374,0.395c0.147,0.136,0.188,0.365,0.403,0.472
		c0.232,0.073,0.634,1.235,0.777,1.14c0.074-0.332-0.274-1.482-0.438-1.697c-0.142-0.195-0.087-0.579-0.241-0.808
		c-0.179-0.181-0.393-0.362-0.465-0.614c-0.11-0.207-0.143-0.326-0.276-0.528c-0.104-0.195-0.236-0.291-0.293-0.479
		c-0.037-0.162-0.072-0.254-0.254-0.246C373.812,273.617,373.654,273.695,373.467,273.828L373.467,273.828z"/>
	<path fill="#C64A34" stroke="#231F20" stroke-width="0.7501" stroke-miterlimit="2.6131" d="M372.591,273.073
		c0.031,0,0.134,0.149,0.219,0.312c0.154,0.151,0.222,0.319,0.38,0.469c0.089,0.178,0.185,0.348,0.326,0.521
		c0.166,0.183,0.284,0.212,0.482,0.358c0.162,0.072,0.352,0.146,0.48,0.254c0.184,0.084,0.293,0.17,0.531,0.201
		c0.243-0.004,1.104,0.388,1.21,0.25c-0.035-0.338-0.844-0.735-1.064-0.887c-0.197-0.14-0.268-0.404-0.487-0.57
		c-0.227-0.113-0.439-0.193-0.589-0.409c-0.171-0.161-0.239-0.267-0.431-0.414c-0.161-0.15-0.316-0.198-0.431-0.36
		c-0.088-0.142-0.15-0.217-0.319-0.152C372.85,272.766,372.725,272.889,372.591,273.073L372.591,273.073z"/>
	<path fill="#C64A34" stroke="#231F20" stroke-width="0.7501" stroke-miterlimit="2.6131" d="M372.676,273.055
		c0.031,0.006,0.1,0.174,0.15,0.351c0.119,0.18,0.149,0.356,0.274,0.534c0.052,0.193,0.109,0.379,0.214,0.576
		c0.125,0.213,0.235,0.267,0.399,0.45c0.144,0.104,0.312,0.216,0.418,0.347c0.162,0.117,0.253,0.226,0.479,0.306
		c0.238,0.045,1.318,0.974,1.448,0.86c0.034-0.338-0.989-1.262-1.177-1.455c-0.165-0.178-0.178-0.449-0.361-0.657
		c-0.196-0.156-0.391-0.279-0.49-0.521c-0.137-0.19-0.182-0.308-0.338-0.491c-0.127-0.181-0.27-0.262-0.348-0.44
		c-0.057-0.157-0.104-0.243-0.281-0.215C372.992,272.807,372.846,272.9,372.676,273.055L372.676,273.055z"/>
	<path fill="#C64A34" stroke="#231F20" stroke-width="0.7501" stroke-miterlimit="2.6131" d="M372.734,272.939
		c0.028,0.014,0.053,0.191,0.057,0.375c0.072,0.205,0.058,0.384,0.134,0.586c0.001,0.201,0.013,0.396,0.063,0.613
		c0.067,0.236,0.162,0.315,0.273,0.535c0.112,0.137,0.249,0.285,0.318,0.44c0.128,0.153,0.188,0.28,0.388,0.413
		c0.222,0.104,1.033,1.272,1.189,1.197c0.117-0.319-0.646-1.469-0.777-1.703c-0.114-0.213-0.061-0.479-0.185-0.727
		c-0.153-0.202-0.309-0.369-0.348-0.629c-0.082-0.219-0.096-0.344-0.203-0.562c-0.076-0.205-0.194-0.318-0.227-0.513
		c-0.015-0.167-0.039-0.261-0.219-0.276C373.104,272.777,372.938,272.832,372.734,272.939L372.734,272.939z"/>
	<path fill="#C64A34" stroke="#231F20" stroke-width="0.7501" stroke-miterlimit="2.6131" d="M372.4,272.984
		c0.023,0.02,0.01,0.199-0.027,0.379c0.025,0.217-0.027,0.387,0.003,0.603c-0.043,0.196-0.075,0.388-0.072,0.61
		c0.014,0.246,0.089,0.345,0.15,0.583c0.08,0.157,0.18,0.333,0.214,0.5c0.092,0.179,0.385,0.166,0.55,0.341
		c0.194,0.148,0.358,1.316,0.526,1.277c0.184-0.285,0.064-1.275-0.014-1.532c-0.064-0.231-0.216-0.481-0.28-0.749
		c-0.105-0.23-0.22-0.428-0.202-0.689c-0.031-0.23-0.021-0.355-0.075-0.593c-0.03-0.218-0.12-0.354-0.108-0.55
		c0.021-0.166,0.02-0.264-0.153-0.32C372.796,272.906,372.621,272.924,372.4,272.984L372.4,272.984z"/>
	<path fill="#C64A34" stroke="#231F20" stroke-width="0.7501" stroke-miterlimit="2.6131" d="M372.457,272.244
		c0.019,0.025-0.051,0.193-0.137,0.354c-0.04,0.215-0.142,0.361-0.178,0.574c-0.099,0.176-0.187,0.35-0.25,0.562
		c-0.06,0.24-0.018,0.355-0.028,0.602c0.03,0.175,0.073,0.372,0.056,0.541c0.035,0.197,0.023,0.337,0.132,0.552
		c0.141,0.199,0.264,1.618,0.435,1.63c0.263-0.219,0.174-1.594,0.177-1.863c0.006-0.241,0.186-0.447,0.201-0.723
		c-0.033-0.252-0.085-0.474,0.011-0.718c0.038-0.231,0.087-0.347,0.104-0.588c0.035-0.218-0.011-0.374,0.061-0.56
		c0.068-0.15,0.094-0.246-0.053-0.35C372.859,272.287,372.688,272.252,372.457,272.244L372.457,272.244z"/>
	<path fill="#C64A34" stroke="#231F20" stroke-width="0.7501" stroke-miterlimit="2.6131" d="M372.211,272.902
		c0.245,0.02,0.354-0.04,0.598-0.068c0.168-0.059,0.355-0.133,0.524-0.145c0.188-0.064,0.329-0.077,0.524-0.219
		c0.174-0.17,1.698,0.17,1.684-0.003c-0.629-0.223-1.748-0.603-2.014-0.561c-0.239,0.032-0.471-0.112-0.744-0.082
		c-0.243,0.071-0.453,0.157-0.711,0.104C371.838,271.932,371.989,272.875,372.211,272.902L372.211,272.902z"/>
	<path fill="#C64A34" stroke="#231F20" stroke-width="0.7501" stroke-miterlimit="2.6131" d="M372.274,272.986
		c0.243-0.031,0.337-0.113,0.57-0.193c0.15-0.092,0.318-0.205,0.48-0.251c0.172-0.104,0.305-0.146,0.468-0.324
		c0.135-0.204,1.468-0.026,1.415-0.192c-0.3-0.161-1.604-0.385-1.857-0.287c-0.227,0.083-0.482-0.012-0.745,0.076
		c-0.223,0.121-0.408,0.252-0.673,0.252C371.705,272.115,372.052,273.006,372.274,272.986L372.274,272.986z"/>
	<path fill="#C64A34" stroke="#231F20" stroke-width="0.7501" stroke-miterlimit="2.6131" d="M372.217,272.072
		c0.029,0.014,0.053,0.193,0.059,0.376c0.072,0.204,0.058,0.384,0.134,0.587c0.002,0.199,0.012,0.395,0.063,0.611
		c0.066,0.238,0.16,0.317,0.273,0.537c0.113,0.135,0.25,0.284,0.318,0.438c0.127,0.155,0.188,0.28,0.389,0.416
		c0.22,0.103,0.623,1.01,0.777,0.935c0.117-0.32-0.233-1.207-0.365-1.441c-0.115-0.213-0.062-0.48-0.185-0.729
		c-0.153-0.199-0.309-0.367-0.347-0.627c-0.083-0.219-0.098-0.344-0.204-0.562c-0.076-0.205-0.194-0.319-0.227-0.514
		c-0.016-0.166-0.038-0.26-0.22-0.277C372.586,271.909,372.42,271.966,372.217,272.072L372.217,272.072z"/>
	<path fill="#C64A34" stroke="#231F20" stroke-width="0.7501" stroke-miterlimit="2.6131" d="M371.562,273.301
		c0.067,0.236,0.161,0.315,0.273,0.535c0.114,0.137,0.249,0.285,0.318,0.439c0.129,0.154,0.188,0.281,0.39,0.416
		c0.221,0.104,0.771,1.197,0.927,1.121c0.117-0.319-0.384-1.396-0.515-1.627c-0.115-0.215-0.062-0.48-0.185-0.729
		C372.618,273.255,371.511,273.083,371.562,273.301L371.562,273.301z"/>
	<path fill="#C64A34" stroke="#231F20" stroke-width="0.7501" stroke-miterlimit="2.6131" d="M372.275,271.866
		c0.019,0.024-0.047,0.194-0.132,0.356c-0.034,0.215-0.134,0.362-0.165,0.578c-0.096,0.176-0.181,0.352-0.238,0.566
		c-0.057,0.238-0.013,0.355-0.02,0.602c0.032,0.176,0.081,0.371,0.067,0.539c0.037,0.197,0.028,0.337,0.141,0.551
		c0.145,0.197,0.293,1.613,0.465,1.621c0.259-0.224,0.144-1.599,0.141-1.867c0.002-0.24,0.178-0.449,0.188-0.726
		c-0.037-0.251-0.094-0.472-0.001-0.718c0.032-0.232,0.08-0.348,0.092-0.59c0.032-0.219-0.017-0.374,0.051-0.561
		c0.065-0.154,0.092-0.246-0.06-0.348C372.678,271.9,372.506,271.87,372.275,271.866L372.275,271.866z"/>
	<path fill="#C64A34" stroke="#231F20" stroke-width="0.7501" stroke-miterlimit="2.6131" d="M372.145,273.236
		c0.03-0.01,0.173,0.104,0.301,0.234c0.192,0.102,0.304,0.24,0.499,0.338c0.137,0.146,0.278,0.279,0.466,0.402
		c0.211,0.128,0.335,0.121,0.564,0.204c0.177,0.021,0.08,0.147,0.236,0.215c0.198,0.025,0.143,0.188,0.38,0.148
		c0.232-0.074,0.777,0.809,0.838,0.647c-0.134-0.312-0.552-1.07-0.809-1.148c-0.229-0.076-0.261-0.571-0.521-0.665
		c-0.249-0.043-0.178-0.171-0.385-0.333c-0.209-0.104-0.305-0.186-0.532-0.271c-0.196-0.098-0.359-0.1-0.516-0.22
		c-0.126-0.11-0.208-0.163-0.352-0.052C372.304,272.865,372.221,273.02,372.145,273.236L372.145,273.236z"/>
	<path fill="#C64A34" stroke="#231F20" stroke-width="0.7501" stroke-miterlimit="2.6131" d="M372.012,273.52
		c-0.041,0.006-1.196,0.562-1.735,0.59c-0.539,0.029-0.589-0.496-0.822-0.332c-0.236,0.166,0.277,0.762,0.809,0.646
		c0.532-0.116,2.104-0.684,2.104-0.684L372.012,273.52L372.012,273.52z"/>
	<path fill="#C64A34" stroke="#231F20" stroke-width="0.7501" stroke-miterlimit="2.6131" d="M369.85,273.677
		c0.23,0.069,0.111-0.103,0.606-0.02s1.35,0.104,1.35,0.104s-0.438,0.511-0.947,0.681c-0.511,0.17-0.844,0.215-0.844,0.215
		l0.333,0.354c0.069,0.343-0.047,0.308-0.037,0.406c0.07-0.06,0.223-0.03,0.334-0.045c0.11-0.017,0.776-0.104,1.337-0.532
		c0.561-0.426,0.979,0.068,1.239-1.169c0.284-0.928-0.023-1.038-0.018-1.267c0.004-0.229,0.396-0.416,0.223-0.688
		c-0.163-0.294-0.425-0.125-0.544,0.003c-0.175,0.156-0.473-0.16-0.789-0.301c-0.417,0.001-0.925,0.525-1.073,0.747
		c-0.059,0.088-0.184,0.104-0.303,0.127c-0.115,0.022-0.764,0.099-0.918,0.238C369.652,272.672,369.635,273.625,369.85,273.677
		L369.85,273.677z"/>
	<path fill="none" stroke="#231F20" stroke-width="0.7501" stroke-miterlimit="2.6131" d="M372.342,274.691
		c0,0,0.324-0.545-0.021-1.049c-0.347-0.504-0.708-0.355-0.708-0.355 M369.834,272.501l0.87,0.295 M370.229,273.639
		c0.074-0.012,0.653-0.24,0.653-0.24l-0.032,0.055 M370.261,273.65c0.062-0.053,0.466-0.398,0.466-0.398 M370.278,273.656
		c-0.005-0.051,0.093-0.614,0.093-0.614 M370.297,273.553c0.098-0.162,0.195-0.326,0.195-0.326 M371.497,272.15
		c0.28-0.012,0.552,0,0.697,0.043"/>
	<path fill="#231F20" d="M372.079,272.271c0.003-0.028-0.106-0.078-0.24-0.078c-0.132,0-0.239,0.049-0.241,0.108
		c0,0.003,0,0.005,0,0.005c0,0.061,0.108,0.11,0.241,0.11c0.136,0,0.243-0.051,0.243-0.11c0-0.003,0-0.003,0-0.003h-0.243
		L372.079,272.271L372.079,272.271z"/>
	<path fill="#231F20" d="M373.317,271.891c0-0.078-0.068-0.143-0.153-0.143c-0.084,0-0.152,0.062-0.152,0.143v0.002
		c0,0.08,0.068,0.144,0.152,0.144c0.085,0,0.153-0.063,0.153-0.144V271.891h-0.153H373.317L373.317,271.891z"/>
</g>
</svg>
