<?xml version="1.0" encoding="utf-8"?>
<!-- Generator: Adobe Illustrator 16.0.0, SVG Export Plug-In . SVG Version: 6.00 Build 0)  -->
<!DOCTYPE svg PUBLIC "-//W3C//DTD SVG 1.1//EN" "http://www.w3.org/Graphics/SVG/1.1/DTD/svg11.dtd">
<svg version="1.1" id="Torrest_Strait_Islands_1_" xmlns="http://www.w3.org/2000/svg" xmlns:xlink="http://www.w3.org/1999/xlink"
	 x="0px" y="0px" width="100px" height="50px" viewBox="0 0 100 50" enable-background="new 0 0 100 50" xml:space="preserve">
<g id="au-tsi">
	<rect id="frame" x="287.5" y="251" fill="#FFFFFF" width="100" height="50"/>
	<g id="layer1">
		<rect id="rect2160" x="300" y="292.25" fill="#008800" width="75" height="8.75"/>
		<rect id="rect3198" x="300" y="251" fill="#008800" width="75" height="8.75"/>
		<rect id="rect3200" x="300" y="259.75" width="75" height="2.5"/>
		<rect id="rect4171" x="300" y="289.75" width="75" height="2.5"/>
		<rect id="rect4173" x="300" y="262.25" fill="#0033FF" width="75" height="27.5"/>
		<path id="path5162" fill="#FFFFFF" d="M336.25,262.875c-12.5,3.75-11.875,13.125-7.875,21.75l-4.75,4.5L332.25,286v-11.5
			c2.75-4.125,7.75-4.125,10.5,0V286l8.625,3.125l-4.75-4.5c4-8.625,4.625-18-7.875-21.75l-1.25,5.375L336.25,262.875z"/>
		<path id="path6829" fill="#FFFFFF" d="M342.25,275.631l-2.918,2.246l1.107,3.623l-2.938-2.227l-2.934,2.223l1.102-3.621
			l-2.92-2.25l3.618-0.014l1.13-3.611l1.133,3.614L342.25,275.631z"/>
	</g>
</g>
</svg>
