<?xml version="1.0" encoding="utf-8"?>
<!-- Generator: Adobe Illustrator 16.0.0, SVG Export Plug-In . SVG Version: 6.00 Build 0)  -->
<svg version="1.2" baseProfile="tiny" id="Tasmania"
	 xmlns="http://www.w3.org/2000/svg" xmlns:xlink="http://www.w3.org/1999/xlink" x="0px" y="0px" width="90px" height="50px"
	 viewBox="5 0 90 50" xml:space="preserve">
<g id="au-sa_1_">
	<polygon fill="#1E3E71" points="95,50 95,0 5,0 5,50 	"/>
	<polygon fill="#1E3E71" points="5.046,25 50.044,25 50.044,0 5.046,0 	"/>
	<path fill="#FFFFFF" d="M5.045,21.841L44.42,0.047h5.625v3.112L10.67,24.955c0,0-5.625,0-5.625-0.091
		C5.045,24.688,5.045,21.841,5.045,21.841L5.045,21.841z"/>
	<path fill="#FFFFFF" d="M50.045,21.841L10.67,0.047L5.045,0.032v3.127L44.42,24.955c0,0,5.625,0.176,5.625,0
		C50.045,24.777,50.045,21.841,50.045,21.841L50.045,21.841z"/>
	<polygon fill="#E82429" points="5.046,25 9.266,25 31.764,12.5 27.545,12.5 	"/>
	<polygon fill="#E82429" points="27.545,12.5 50.044,0 45.825,0 23.327,12.5 	"/>
	<polygon fill="#E82429" points="5.046,2.344 5.046,0 27.545,12.5 23.327,12.5 	"/>
	<polygon fill="#E82429" points="31.764,12.5 50.044,22.656 50.044,25 27.545,12.5 	"/>
	<polygon fill="#FFFFFF" points="5,8.575 5,16.425 50,16.425 50,8.575 	"/>
	<polygon fill="#FFFFFF" points="24.023,25.059 31.066,25.059 31.066,0.061 24.023,0.061 	"/>
	<polygon fill="#E82429" points="5,10.205 5,14.914 50,14.914 50,10.205 	"/>
	<polygon fill="#E82429" points="25.432,25 29.659,25 29.659,0 25.432,0 	"/>
	<path fill="#FBD800" d="M72.514,12.795L72.514,12.795c6.83,0,12.4,5.571,12.4,12.402l0,0c0,6.83-5.57,12.402-12.4,12.402l0,0
		c-6.83,0-12.398-5.572-12.398-12.402l0,0C60.111,18.366,65.684,12.795,72.514,12.795L72.514,12.795z"/>
	<path fill="#4A755E" stroke="#211F1F" stroke-width="0.3526" stroke-miterlimit="2.6131" d="M67.518,32.945h10.205
		c0.23,0.01,0.418,0.197,0.418,0.429l0,0c0,0.231-0.188,0.419-0.418,0.419l-10.205,0.012c-0.229-0.012-0.42-0.199-0.42-0.43l0,0
		c0-0.23,0.189-0.42,0.42-0.42V32.945z"/>
	<polygon fill="#C54A34" stroke="#211F1F" stroke-width="0.3526" stroke-miterlimit="2.6131" points="67.986,33.805 68.971,33.805 
		68.971,32.945 67.986,32.945 	"/>
	<polygon fill="#C54A34" stroke="#211F1F" stroke-width="0.3526" stroke-miterlimit="2.6131" points="76.338,33.805 77.32,33.805 
		77.32,32.945 76.338,32.945 	"/>
	<path fill="#211F1F" d="M75.012,33.938c1.012,1.084,1.619,2.08,1.363,2.226s-1.285-0.617-2.293-1.701
		c-0.031-0.412-0.167-0.456,0.09-0.603C74.43,33.716,74.542,33.812,75.012,33.938L75.012,33.938z"/>
	<path fill="#FFFFFF" stroke="#211F1F" stroke-width="0.4955" stroke-miterlimit="2.6131" d="M75.176,34.164
		c0.812,0.872,0.633,1.075,0.418,1.195c-0.217,0.121-0.486,0.171-1.3-0.701c-0.812-0.871-1.858-2.338-1.644-2.457
		C72.866,32.08,74.363,33.293,75.176,34.164L75.176,34.164z"/>
	<path fill="#211F1F" d="M74.678,34.156c0.805,1.182,1.229,2.234,0.945,2.348c-0.279,0.115-1.158-0.752-1.961-1.934
		c0.044-0.412-0.082-0.471,0.197-0.584C74.141,33.872,74.234,33.98,74.678,34.156L74.678,34.156z"/>
	<path fill="#FFFFFF" stroke="#211F1F" stroke-width="0.4955" stroke-miterlimit="2.6131" d="M74.799,34.398
		c0.646,0.951,0.43,1.133,0.196,1.229c-0.235,0.096-0.513,0.115-1.158-0.836c-0.646-0.952-1.416-2.518-1.181-2.611
		C72.889,32.084,74.152,33.445,74.799,34.398L74.799,34.398z"/>
	<path fill="#211F1F" d="M74.27,34.32c0.614,1.25,0.873,2.334,0.576,2.422s-1.035-0.855-1.646-2.104
		c0.104-0.406-0.013-0.477,0.286-0.562C73.781,33.989,73.857,34.105,74.27,34.32L74.27,34.32z"/>
	<path fill="#FFFFFF" stroke="#211F1F" stroke-width="0.5196" stroke-miterlimit="2.6131" d="M74.354,34.572
		c0.492,1.006,0.252,1.166,0.004,1.238c-0.246,0.07-0.524,0.064-1.021-0.938c-0.493-1.005-1.017-2.63-0.769-2.701
		C72.814,32.098,73.857,33.568,74.354,34.572L74.354,34.572z"/>
	<path fill="#211F1F" d="M73.875,34.466c0.381,1.302,0.439,2.405,0.13,2.458c-0.31,0.055-0.868-0.959-1.25-2.261
		c0.181-0.39,0.077-0.472,0.386-0.526C73.451,34.083,73.505,34.207,73.875,34.466L73.875,34.466z"/>
	<path fill="#FFFFFF" stroke="#211F1F" stroke-width="0.5196" stroke-miterlimit="2.6131" d="M73.911,34.723
		c0.307,1.049,0.038,1.185-0.222,1.229c-0.26,0.046-0.531,0.009-0.842-1.039c-0.308-1.054-0.529-2.718-0.271-2.765
		C72.838,32.104,73.604,33.674,73.911,34.723L73.911,34.723z"/>
	<path fill="#211F1F" d="M73.482,34.531c0.225,1.324,0.147,2.426-0.164,2.457c-0.313,0.031-0.75-1.021-0.977-2.342
		c0.229-0.375,0.137-0.463,0.447-0.496C73.105,34.12,73.145,34.248,73.482,34.531L73.482,34.531z"/>
	<path fill="#FFFFFF" stroke="#211F1F" stroke-width="0.5255" stroke-miterlimit="2.6131" d="M73.486,34.791
		c0.183,1.066-0.104,1.178-0.364,1.205c-0.263,0.025-0.531-0.03-0.711-1.096c-0.183-1.066-0.203-2.741,0.062-2.771
		C72.73,32.105,73.309,33.725,73.486,34.791L73.486,34.791z"/>
	<path fill="#211F1F" d="M70.086,33.938c-1.01,1.084-1.619,2.08-1.363,2.226c0.26,0.146,1.283-0.617,2.293-1.701
		c0.031-0.412,0.168-0.456-0.09-0.603C70.669,33.716,70.557,33.812,70.086,33.938L70.086,33.938z"/>
	<path fill="#FFFFFF" stroke="#211F1F" stroke-width="0.4955" stroke-miterlimit="2.6131" d="M69.922,34.164
		c-0.812,0.872-0.631,1.075-0.416,1.195c0.217,0.121,0.486,0.171,1.299-0.701c0.812-0.871,1.859-2.338,1.646-2.457
		C72.232,32.08,70.734,33.293,69.922,34.164L69.922,34.164z"/>
	<path fill="#211F1F" d="M70.42,34.156c-0.802,1.182-1.227,2.234-0.945,2.348c0.279,0.115,1.158-0.752,1.961-1.934
		c-0.043-0.412,0.082-0.471-0.194-0.584C70.958,33.872,70.863,33.98,70.42,34.156L70.42,34.156z"/>
	<path fill="#FFFFFF" stroke="#211F1F" stroke-width="0.4955" stroke-miterlimit="2.6131" d="M70.299,34.398
		c-0.646,0.951-0.43,1.133-0.195,1.229c0.235,0.096,0.516,0.115,1.158-0.836c0.646-0.952,1.416-2.518,1.184-2.611
		C72.209,32.084,70.945,33.445,70.299,34.398L70.299,34.398z"/>
	<path fill="#211F1F" d="M70.829,34.32c-0.615,1.25-0.872,2.334-0.576,2.422c0.297,0.088,1.035-0.855,1.647-2.104
		c-0.106-0.406,0.011-0.477-0.287-0.562C71.316,33.99,71.241,34.105,70.829,34.32L70.829,34.32z"/>
	<path fill="#FFFFFF" stroke="#211F1F" stroke-width="0.5196" stroke-miterlimit="2.6131" d="M70.745,34.572
		c-0.492,1.006-0.25,1.166-0.003,1.238c0.248,0.07,0.523,0.064,1.021-0.938c0.492-1.005,1.019-2.63,0.771-2.701
		C72.284,32.098,71.238,33.568,70.745,34.572L70.745,34.572z"/>
	<path fill="#211F1F" d="M71.225,34.466c-0.383,1.302-0.438,2.405-0.131,2.458c0.309,0.055,0.867-0.959,1.248-2.261
		c-0.179-0.39-0.076-0.472-0.386-0.526C71.646,34.083,71.594,34.207,71.225,34.466L71.225,34.466z"/>
	<path fill="#FFFFFF" stroke="#211F1F" stroke-width="0.5196" stroke-miterlimit="2.6131" d="M71.188,34.723
		c-0.309,1.049-0.039,1.185,0.223,1.229c0.258,0.046,0.529,0.009,0.84-1.039c0.309-1.054,0.527-2.718,0.271-2.765
		C72.262,32.104,71.494,33.674,71.188,34.723L71.188,34.723z"/>
	<path fill="#211F1F" d="M71.616,34.531c-0.226,1.324-0.15,2.426,0.161,2.457c0.313,0.031,0.752-1.021,0.976-2.342
		c-0.226-0.375-0.133-0.463-0.446-0.496C71.993,34.12,71.953,34.248,71.616,34.531L71.616,34.531z"/>
	<path fill="#FFFFFF" stroke="#211F1F" stroke-width="0.5255" stroke-miterlimit="2.6131" d="M71.609,34.791
		c-0.18,1.066,0.104,1.178,0.367,1.205c0.265,0.025,0.529-0.03,0.713-1.096c0.181-1.066,0.199-2.741-0.062-2.771
		C72.368,32.105,71.791,33.725,71.609,34.791L71.609,34.791z"/>
	<path fill="#211F1F" d="M73.229,34.678c0.021,1.336-0.225,2.424-0.539,2.426c-0.315,0.002-0.592-1.08-0.607-2.416
		c0.279-0.352,0.203-0.443,0.521-0.445C72.918,34.234,72.938,34.364,73.229,34.678L73.229,34.678z"/>
	<path fill="#FFFFFF" stroke="#211F1F" stroke-width="0.5309" stroke-miterlimit="2.6131" d="M73.193,34.936
		c0.017,1.074-0.281,1.159-0.549,1.164c-0.268,0.002-0.522-0.078-0.537-1.154c-0.019-1.072,0.22-2.737,0.481-2.739
		C72.855,32.2,73.18,33.861,73.193,34.936L73.193,34.936z"/>
	<path fill="#FFFFFF" d="M78.346,28.65c0.021,0.017-0.012-0.006-0.049-0.006c-0.038,0-0.064,0.021-0.064,0.051
		c0,0.029,0.029,0.053,0.064,0.053c0.036,0,0.066-0.023,0.066-0.053l0,0h-0.066L78.346,28.65L78.346,28.65z"/>
	<path fill="#211F1F" d="M78.287,28.68c0.029,0.01,0.021,0.004,0.01,0.004c-0.011,0-0.021,0.008-0.021,0.02
		c0,0.01,0.011,0.02,0.021,0.02c0.012,0,0.021-0.01,0.021-0.02l0,0h-0.021L78.287,28.68L78.287,28.68z"/>
	<path fill="#211F1F" stroke="#211F1F" stroke-width="0.7501" stroke-miterlimit="2.6131" d="M72.592,32.82
		c-0.796-0.047-0.58-1.045-0.812-1.045s-1.028,0.908-1.266,1.146c-0.229,0.24-0.279,0.621-0.279,0.621s-0.049-0.621-0.375-0.669
		c-0.324-0.048-0.698,0.479-0.698,0.479s0.047-0.523,0.325-0.718c0.279-0.192,0.797,0,0.797,0s1.123-1.101,1.354-1.53
		c0.234-0.432-0.527-0.461-0.716-0.795c-0.188-0.336,0.095-1.291-0.188-1.48c-0.231,0.479-0.469,1.577-0.748,1.527
		c-0.279-0.047-0.562-0.812-0.562-0.812s0.142,0.908-0.278,0.908c-0.422,0-0.518-0.908-0.518-0.908s-0.046,0.957-0.468,0.957
		c-0.423,0-0.423-1.147-0.423-1.147s-0.326,0.957-0.562,1.103c-0.231,0.146-0.14-1.054-0.14-1.054s-0.328,0.955-0.703,0.908
		c-0.373-0.05-0.326-0.812-0.326-0.812s-0.279,0.67-0.796,0.522c-0.517-0.144-0.375-0.904-0.375-0.904s-0.188,0.57-0.606,0.236
		c-0.42-0.334,0.143-0.858,0.143-0.858s-0.374,0.524-0.796,0.287c-0.423-0.239,0.187-1.054,0.187-1.054s-0.699,0.237-1.027-0.19
		c-0.326-0.431,0.471-0.669,0.471-0.669s-0.518-0.098-0.607-0.479c-0.096-0.385,0.654-0.479,0.654-0.479s-0.607-0.144-0.654-0.526
		c-0.049-0.383,0.7-0.096,0.748-0.096c0.047,0-0.938-0.669-0.938-0.956s0.938,0.145,0.938,0.145s-0.938-0.623-0.938-1.054
		c0-0.43,0.605-0.095,0.844-0.047c-0.188-0.287-0.844-0.573-0.795-0.908c0.046-0.336,0.889,0.048,0.889,0.048
		s-0.797-0.858-0.654-1.146c0.142-0.286,0.98,0.384,0.98,0.384s-0.98-0.859-0.889-1.104c0.095-0.237,1.027,0.434,1.027,0.434
		s-0.937-0.91-0.797-1.244c0.144-0.334,0.938,0.434,1.123,0.573c-0.188-0.097-1.076-1.291-0.889-1.578s1.17,0.908,1.17,0.908
		s-0.889-1.437-0.748-1.626c0.141-0.191,1.217,1.146,1.217,1.146s-0.844-1.482-0.515-1.724c0.327-0.238,0.889,1.244,0.937,1.244
		c0.049,0-0.47-1.626-0.095-1.771c0.374-0.146,0.938,1.528,0.981,1.528c0.049,0-0.373-2.2,0.095-2.149
		c0.468,0.047,0.374,1.051,0.374,1.1c0,0.048,0.047-0.573,0.326-0.573c-0.049,0.144,0.844,5.261,1.123,6.457
		c0.279,1.194,0.607,0.86,0.844,1.244c0.234,0.383,0.562,0.43,0.936,0.478c0.375,0.049,1.182,0.059,1.404-0.383
		c0.166-0.404-0.047-2.057,1.287-2.104c1.334,0.048,1.12,1.699,1.287,2.104c0.227,0.438,1.027,0.432,1.402,0.383
		c0.373-0.048,0.701-0.095,0.938-0.478c0.236-0.384,0.561-0.05,0.842-1.244c0.281-1.196,1.172-6.313,1.123-6.457
		c0.281,0,0.328,0.621,0.328,0.573c0-0.049-0.094-1.053,0.374-1.1c0.468-0.051,0.046,2.149,0.095,2.149
		c0.047,0,0.607-1.674,0.982-1.528c0.374,0.144-0.143,1.771-0.096,1.771c0.049,0,0.605-1.482,0.938-1.244
		c0.328,0.24-0.515,1.724-0.515,1.724s1.073-1.341,1.217-1.146c0.14,0.189-0.749,1.626-0.749,1.626s0.982-1.196,1.171-0.908
		c0.188,0.287-0.702,1.481-0.89,1.578c0.188-0.146,0.98-0.908,1.121-0.573c0.143,0.334-0.795,1.244-0.795,1.244
		s0.938-0.67,1.029-0.434c0.094,0.238-0.891,1.104-0.891,1.104s0.843-0.67,0.98-0.384c0.143,0.287-0.652,1.146-0.652,1.146
		s0.842-0.384,0.888-0.048c0.048,0.335-0.606,0.621-0.795,0.908c0.231-0.049,0.843-0.384,0.843,0.047
		c0,0.431-0.936,1.054-0.936,1.054s0.936-0.432,0.936-0.145s-0.982,0.956-0.936,0.956s0.795-0.286,0.748,0.096
		c-0.049,0.385-0.655,0.526-0.655,0.526s0.749,0.095,0.655,0.479c-0.098,0.383-0.609,0.479-0.609,0.479s0.797,0.236,0.471,0.669
		c-0.328,0.431-1.029,0.19-1.029,0.19s0.609,0.812,0.188,1.054c-0.422,0.237-0.796-0.287-0.796-0.287s0.562,0.524,0.142,0.858
		c-0.42,0.336-0.605-0.236-0.605-0.236s0.139,0.765-0.375,0.904c-0.516,0.146-0.795-0.522-0.795-0.522s0.047,0.769-0.328,0.812
		c-0.375,0.047-0.702-0.908-0.702-0.908s0.095,1.195-0.14,1.054c-0.235-0.144-0.562-1.103-0.562-1.103s0,1.147-0.421,1.147
		c-0.422,0-0.469-0.957-0.469-0.957s-0.097,0.908-0.517,0.908c-0.422,0-0.278-0.908-0.278-0.908s-0.281,0.767-0.562,0.812
		c-0.281,0.05-0.517-1.054-0.75-1.527c-0.281,0.189,0,1.146-0.188,1.48s-1.019,0.362-0.781,0.795c0.231,0.432,1.356,1.53,1.356,1.53
		s0.515-0.19,0.797,0c0.277,0.19,0.324,0.718,0.324,0.718s-0.375-0.523-0.699-0.479c-0.327,0.047-0.374,0.669-0.374,0.669
		s-0.048-0.383-0.281-0.621c-0.231-0.237-1.028-1.146-1.264-1.146C73.085,31.775,73.434,32.773,72.592,32.82L72.592,32.82z"/>
	<path fill="#FFFFFF" d="M73.495,24.523c0.021,0.008-0.351,0.731-0.886,1.108c-0.529,0.376-0.977,0.223-1.078,0.182
		c0.009,0.114,0.033,0.754,0.058,1.088c0.099,1.479-0.325,1.979-0.325,1.979s0.279,0.479,0.279,0.719
		c0,0.238-0.014,0.551,0.221,1.127c0.416,0.771,0.471,0.861,0.471,1.148c0,0.286,0.07,0.7,0.365,0.638
		c0.327,0.095,0.365-0.354,0.365-0.642c0-0.286,0.055-0.379,0.471-1.148c0.332-0.541,0.152-0.887,0.152-1.127
		c0-0.238,0.281-0.717,0.281-0.717s-0.426-0.479-0.327-1.961C73.588,26.246,73.962,25.527,73.495,24.523L73.495,24.523z"/>
	<path fill="#FBD800" stroke="#211F1F" stroke-width="0.7501" stroke-miterlimit="2.6131" d="M70.354,22.438
		c0,0,0.475,0.121,0.785,0.354c0.314,0.232,0.5,0.477,0.389,0.59c-0.114,0.115-0.406,0.028-0.645-0.094
		c-0.232-0.123-0.691-0.615-0.673-0.612c0.022,0.001,0.079,0.563,0.574,0.831c0.489,0.27,0.555,0.324,0.729,0.318
		c0.174-0.01,0.547-0.543,0.488-0.799c-0.057-0.252-0.336-0.48-0.729-0.637C70.889,22.232,70.357,22.479,70.354,22.438
		L70.354,22.438z"/>
	<path fill="#FFFFFF" d="M72.861,23.232C72.861,23.23,72.861,23.23,72.861,23.232c0-0.09-0.076-0.164-0.174-0.164
		c-0.099,0-0.178,0.072-0.179,0.16c0,0.094,0.077,0.166,0.179,0.166C72.784,23.396,72.861,23.322,72.861,23.232L72.861,23.232
		h-0.174H72.861L72.861,23.232z"/>
	<path fill="#FFFFFF" stroke="#211F1F" stroke-width="0.7501" stroke-miterlimit="2.6131" d="M75.99,25.027
		c0.115-0.006,0.601-0.227,0.738-0.439c0.228-0.354,0.517-1.023,0.517-1.023s-0.033,0.509,0.104,0.535
		c0.144,0.027,0.272-0.039,0.496-0.148c-0.037,0.128-0.484,0.365-0.438,0.466c0.04,0.071,0.672-0.086,0.842-0.106
		c-0.144,0.099-0.88,0.254-0.899,0.424c-0.018,0.133,0.487,0.101,0.652,0.156c-0.204,0.03-0.697,0.021-0.826,0.176
		c-0.07,0.086,0.557,0.542,0.465,0.547c-0.095,0.008-0.521-0.438-0.688-0.318c-0.133,0.096-0.01,0.398-0.021,0.553
		c-0.109-0.098-0.281-0.479-0.424-0.473c-0.182,0.008-0.449,0.469-0.583,0.564c0.072-0.145,0.22-0.61,0.151-0.67
		c-0.098-0.1-0.723,0.029-0.918,0.183C75.301,25.213,75.854,25.036,75.99,25.027L75.99,25.027z"/>
	<path fill="#FFFFFF" stroke="#211F1F" stroke-width="0.7501" stroke-miterlimit="2.6131" d="M69.275,25.096
		c-0.114-0.007-0.604-0.225-0.737-0.438c-0.228-0.354-0.519-1.023-0.519-1.023s0.033,0.506-0.104,0.533
		c-0.141,0.027-0.271-0.039-0.495-0.15c0.037,0.129,0.483,0.366,0.438,0.469c-0.041,0.07-0.672-0.088-0.846-0.108
		c0.146,0.099,0.883,0.252,0.901,0.422c0.017,0.136-0.489,0.103-0.653,0.156c0.203,0.033,0.696,0.022,0.825,0.176
		c0.072,0.086-0.553,0.541-0.463,0.549c0.092,0.01,0.522-0.438,0.688-0.319c0.131,0.097,0.01,0.397,0.021,0.557
		c0.11-0.102,0.285-0.479,0.424-0.475c0.185,0.009,0.45,0.469,0.581,0.562c-0.07-0.141-0.217-0.608-0.148-0.668
		c0.101-0.101,0.725,0.031,0.92,0.183C69.963,25.281,69.413,25.104,69.275,25.096L69.275,25.096z"/>
	<path fill="#FFFFFF" stroke="#211F1F" stroke-width="0.7501" stroke-miterlimit="2.6131" d="M78.393,21.324
		c0.053,0.104,0.27,0.502,0.231,0.754c-0.056,0.415-0.397,0.668-0.526,0.955c0.221-0.118,0.282-0.291,0.379-0.215
		c0.098,0.076,0.062,0.186,0.125,0.423c0.049-0.119-0.006-0.573,0.072-0.614c0.062-0.021,0.34,0.533,0.426,0.669
		c-0.029-0.171-0.371-0.8-0.293-0.938c0.062-0.104,0.332,0.271,0.455,0.347c-0.099-0.168-0.387-0.507-0.382-0.706
		c0.005-0.113,0.603-0.008,0.552-0.076c-0.049-0.066-0.525-0.046-0.561-0.249c-0.023-0.159,0.205-0.295,0.279-0.418
		c-0.113-0.004-0.414,0.151-0.488,0.054c-0.104-0.137-0.014-0.656-0.037-0.82c-0.031,0.152-0.195,0.598-0.266,0.594
		c-0.107,0.004-0.188-0.173-0.363-0.268C78.163,21.115,78.348,21.198,78.393,21.324L78.393,21.324z"/>
	<path fill="#FFFFFF" stroke="#211F1F" stroke-width="0.7501" stroke-miterlimit="2.6131" d="M67.057,21.662
		c-0.052,0.104-0.265,0.502-0.229,0.754c0.055,0.416,0.396,0.668,0.525,0.955c-0.222-0.118-0.283-0.291-0.379-0.215
		c-0.098,0.076-0.061,0.187-0.127,0.424c-0.048-0.12,0.006-0.574-0.07-0.614c-0.062-0.022-0.34,0.532-0.428,0.668
		c0.029-0.171,0.371-0.8,0.295-0.938c-0.062-0.105-0.33,0.271-0.455,0.347c0.1-0.168,0.387-0.506,0.381-0.706
		c-0.002-0.111-0.603-0.008-0.553-0.076c0.051-0.066,0.527-0.046,0.562-0.248c0.024-0.158-0.204-0.296-0.279-0.417
		c0.114-0.006,0.414,0.15,0.489,0.052c0.104-0.136,0.011-0.656,0.037-0.818c0.031,0.152,0.195,0.597,0.265,0.594
		c0.106,0.002,0.188-0.174,0.364-0.268C67.289,21.453,67.102,21.537,67.057,21.662L67.057,21.662z"/>
	<path fill="#FFFFFF" d="M72.486,12.848L72.486,12.848c6.83,0,12.4,5.571,12.4,12.402l0,0c0,6.83-5.57,12.4-12.4,12.4l0,0
		c-6.828,0-12.4-5.57-12.4-12.4l0,0C60.085,18.419,65.657,12.848,72.486,12.848L72.486,12.848z"/>
	<path fill="#C54A34" stroke="#211F1F" stroke-width="0.7501" stroke-miterlimit="2.6131" d="M67.741,21.532
		c0.022-0.021,0.196,0.032,0.364,0.104c0.219,0.021,0.369,0.108,0.588,0.125c0.184,0.082,0.363,0.153,0.584,0.198
		c0.242,0.038,0.354-0.016,0.602-0.023c0.171-0.045,0.364-0.105,0.533-0.104c0.193-0.052,0.335-0.055,0.54-0.18
		c0.187-0.155,1.229,0.677,1.228,0.503c-0.242-0.24-1.248-1.11-1.517-1.089c-0.241,0.016-0.461-0.146-0.738-0.137
		c-0.245,0.055-0.463,0.125-0.715,0.053c-0.233-0.02-0.354-0.058-0.597-0.051c-0.219-0.018-0.37,0.043-0.562-0.012
		c-0.155-0.056-0.255-0.072-0.345,0.084C67.749,21.129,67.729,21.305,67.741,21.532L67.741,21.532z"/>
	<path fill="#C54A34" stroke="#211F1F" stroke-width="0.7501" stroke-miterlimit="2.6131" d="M68.27,21.643
		c0.244-0.031,0.34-0.111,0.57-0.19c0.152-0.095,0.32-0.206,0.48-0.251c0.174-0.104,0.307-0.146,0.469-0.324
		c0.135-0.204,1.482-0.081,1.43-0.245c-0.3-0.162-1.621-0.333-1.871-0.235c-0.227,0.084-0.482-0.011-0.746,0.078
		c-0.223,0.12-0.408,0.252-0.672,0.252C67.7,20.771,68.047,21.662,68.27,21.643L68.27,21.643z"/>
	<path fill="#C54A34" stroke="#211F1F" stroke-width="0.7501" stroke-miterlimit="2.6131" d="M68.268,21.018
		c0.03-0.011,0.176,0.104,0.308,0.229c0.19,0.097,0.308,0.233,0.504,0.328c0.139,0.143,0.28,0.274,0.471,0.396
		c0.216,0.121,0.339,0.112,0.57,0.192c0.176,0.021,0.378,0.03,0.532,0.095c0.197,0.021,0.33,0.221,0.566,0.178
		c0.23-0.08,1.105,0.529,1.162,0.367c-0.137-0.312-0.963-0.941-1.219-1.019c-0.23-0.074-0.379-0.453-0.639-0.544
		c-0.25-0.038-0.479-0.051-0.688-0.209c-0.211-0.102-0.31-0.18-0.536-0.262c-0.197-0.097-0.361-0.095-0.52-0.211
		c-0.127-0.108-0.211-0.16-0.353-0.048C68.421,20.645,68.34,20.8,68.268,21.018L68.268,21.018z"/>
	<path fill="#C54A34" stroke="#211F1F" stroke-width="0.7501" stroke-miterlimit="2.6131" d="M78.866,26.523
		c-0.068,0.629,0.05,3.392-0.525,4.396c-0.571,1.005-0.684,0.858-0.721,0.838c-0.035-0.021-0.039-0.354-0.039-0.354
		s-0.104,0.438-0.793,0.799c-0.688,0.354-1.707,0.271-1.707,0.271l-0.004-0.418l-0.289,0.336c0,0,0.146-0.336,0.104-0.354
		c-0.033-0.021-0.324,0.146-0.324,0.146s0.104-0.354,0.07-0.377c-0.037-0.021-0.396,0.272-0.396,0.272s0.215-0.461,0.505-0.632
		c0.289-0.164,0.546,0.146,0.583,0.17c0.037,0.021,1.059,0.438,1.918-1.237c0.859-1.674,0.314-3.269,0.314-3.269
		S78.934,25.896,78.866,26.523L78.866,26.523z"/>
	<path fill="#C54A34" stroke="#211F1F" stroke-width="0.7501" stroke-miterlimit="2.6131" d="M63.732,24.631
		c-0.896-1.818,0.822-1.472,1.697-0.117c1.118,0.452,5.946,1.798,5.946,1.798l0.008,1.267c0,0-5.235-2.271-5.352-1.905
		c-0.115,0.366-1.142-0.287-1.142-0.287l-0.484-0.894c0,0,0.271,0.826,0.195,0.859c-0.076,0.034-0.485-0.893-0.485-0.893
		L64.1,25.257L63.732,24.631L63.732,24.631z"/>
	<path fill="#C54A34" stroke="#211F1F" stroke-width="0.7501" stroke-miterlimit="2.6131" d="M68.68,21.209
		c0.03-0.006,0.156,0.126,0.271,0.271c0.178,0.123,0.271,0.273,0.451,0.396c0.117,0.161,0.24,0.312,0.412,0.458
		c0.191,0.15,0.164,0.421,0.389,0.533c0.172,0.043,0.367,0.084,0.518,0.167c0.193,0.051,0.316,0.116,0.561,0.106
		c0.236-0.05,1.1,0.491,1.18,0.342c-0.094-0.327-0.9-0.883-1.146-0.993c-0.219-0.104-0.332-0.354-0.573-0.479
		c-0.243-0.072-0.317-0.378-0.503-0.564c-0.194-0.129-0.279-0.219-0.493-0.334c-0.188-0.118-0.349-0.144-0.486-0.278
		c-0.108-0.125-0.186-0.188-0.34-0.097C68.883,20.859,68.781,21.004,68.68,21.209L68.68,21.209z"/>
	<path fill="#C54A34" stroke="#211F1F" stroke-width="0.7501" stroke-miterlimit="2.6131" d="M71.014,23.791
		c1.264-0.073,7.196-0.073,7.196-0.073s2.044-0.125,2.086-1.21c0.042-1.086-1.282-0.207-1.76-0.103
		c-1.212,0.303-3.236,0.885-4.194,0.403c-0.424-0.267-0.965-0.308-1.012-1.444c-0.047-1.197,0.865-1.044,1.339-1.022
		c1.056,0.042,2.007,0.078,3.168,0.276c0,0,0-0.94,0.042-0.94s0.168,0.508,0.168,0.508s0.337-0.725,0.337-0.649
		c0,0.076,0.128,0.579,0.128,0.579l0.252-0.362c0,0,0.084,0.437,0.127,0.437c0.041,0,0.336-0.361,0.336-0.361l0.213,0.507
		l0.42,0.435h-0.504l-0.086,0.361l-0.211-0.361l-0.252,0.578l-0.168-0.361c0,0-0.17,0.289-0.17,0.361
		c0,0.072-0.169-0.435-0.211-0.435s-0.252,0.362-0.252,0.362s-0.127-0.289-0.169-0.289s-3.062-0.172-3.062-0.172
		c-0.635,0.051-1.021-0.088-1.032,0.555c-0.021,1.168,0.644,1.169,0.644,1.169c0.896,0.423,3.106-0.089,4.362-0.562
		c0.039-0.019,1.845-0.841,1.802,0.465c-0.041,1.303-1.496,1.57-1.496,1.57s0.547,0.51,0.803,1.521
		c0.252,1.012,0.084,1.302,0.336,1.881c0.254,0.579,1.265,1.81,1.265,2.966c0,1.157-0.169,1.085-0.211,1.085
		s-0.211-0.289-0.211-0.289s0.126,0.435-0.294,1.085c-0.424,0.651-1.35,1.086-1.35,1.086l-0.211-0.361l-0.084,0.437
		c0,0-0.043-0.36-0.084-0.36c-0.043,0-0.211,0.289-0.211,0.289s-0.084-0.36-0.127-0.36s-0.212,0.435-0.212,0.435
		s-0.042-0.507,0.127-0.796c0.169-0.29,0.548-0.146,0.591-0.146c0.041,0,1.084-0.146,1-2.021c-0.086-0.771-0.302-1.136-0.733-1.072
		c-1.052,0.142-2.962-0.125-3.104-0.684c-0.322-1.318-2.508,0.02-4.736,0.523c-2.229,0.508-5.18,2.461-5.18,2.461l-0.082,0.436
		c0,0-0.129-0.578-0.17-0.509c-0.042,0.073-0.084,0.579-0.126,0.579c-0.044,0-0.254-0.65-0.254-0.65s-0.378,0.866-0.378,0.796
		c0-0.071,0.041-0.649,0.041-0.649s-0.252-1.155,0.591-1.594c0.843-0.434,0.884-0.069,1.896-0.723
		c1.012-0.65,0.381-2.459,1.348-3.979C70.255,23.863,71.055,23.863,71.014,23.791L71.014,23.791z"/>
	<path fill="#C54A34" stroke="#211F1F" stroke-width="0.7501" stroke-miterlimit="2.6131" d="M69.006,23.527
		c0.02,0.023-0.057,0.189-0.148,0.35c-0.049,0.213-0.151,0.355-0.194,0.568c-0.104,0.171-0.198,0.343-0.271,0.555
		c-0.066,0.236-0.291,0.614-0.312,0.859c0.021,0.177,0.062,0.375,0.038,0.543c0.022,0.197,0.01,0.338,0.106,0.557
		c0.135,0.205,0.469,1.365,0.639,1.383c0.271-0.209-0.03-1.324-0.021-1.594c0.019-0.241,0.203-0.439,0.229-0.716
		c-0.022-0.252,0.193-0.737,0.301-0.978c0.046-0.229,0.1-0.347,0.124-0.587c0.044-0.215,0.004-0.37,0.079-0.555
		c0.072-0.147,0.104-0.242-0.039-0.354C69.406,23.585,69.234,23.545,69.006,23.527L69.006,23.527z"/>
	<path fill="#C54A34" stroke="#211F1F" stroke-width="0.7501" stroke-miterlimit="2.6131" d="M68.961,22.03
		c0.031-0.005,0.146,0.138,0.244,0.29c0.168,0.139,0.248,0.3,0.418,0.434c0.104,0.17,0.215,0.332,0.371,0.49
		c0.18,0.168,0.303,0.188,0.512,0.316c0.167,0.059,0.362,0.112,0.5,0.211c0.189,0.063,0.307,0.144,0.549,0.15
		c0.241-0.023,1.279,0.288,1.373,0.145c-0.062-0.334-1.051-0.656-1.283-0.789c-0.209-0.121-0.301-0.379-0.533-0.525
		c-0.234-0.093-0.453-0.154-0.621-0.357c-0.186-0.145-0.264-0.242-0.467-0.375c-0.174-0.135-0.332-0.17-0.459-0.317
		c-0.102-0.138-0.172-0.203-0.332-0.124C69.191,21.699,69.08,21.834,68.961,22.03L68.961,22.03z"/>
	<path fill="#C54A34" stroke="#211F1F" stroke-width="0.7501" stroke-miterlimit="2.6131" d="M69.225,22.973
		c0.021,0.023-0.024,0.197-0.096,0.366c-0.014,0.218-0.098,0.375-0.109,0.593c-0.076,0.187-0.146,0.367-0.184,0.588
		c-0.031,0.244,0.023,0.354,0.039,0.603c0.053,0.17,0.117,0.358,0.119,0.527c0.057,0.191,0.062,0.332,0.193,0.533
		c0.16,0.187-0.076,1.129,0.096,1.121c0.232-0.246,0.511-1.156,0.48-1.424c-0.021-0.24,0.137-0.466,0.115-0.74
		c-0.062-0.246-0.137-0.461-0.066-0.715c0.012-0.234,0.045-0.354,0.03-0.596c0.015-0.221-0.053-0.371-0.006-0.561
		c0.054-0.16,0.067-0.259-0.092-0.345C69.629,22.969,69.454,22.953,69.225,22.973L69.225,22.973z"/>
	<path fill="#C54A34" stroke="#211F1F" stroke-width="0.7501" stroke-miterlimit="2.6131" d="M69.309,21.998
		c0.008,0.029-0.125,0.156-0.27,0.27c-0.122,0.183-0.275,0.273-0.393,0.455c-0.16,0.12-0.312,0.245-0.455,0.416
		c-0.15,0.194-0.157,0.318-0.271,0.539c-0.043,0.172-0.082,0.369-0.165,0.518c-0.048,0.195-0.11,0.318-0.103,0.562
		c0.049,0.238-0.408,1.587-0.258,1.666c0.326-0.094,0.801-1.393,0.906-1.637c0.104-0.222,0.354-0.334,0.479-0.58
		c0.068-0.242,0.109-0.47,0.299-0.651c0.128-0.195,0.22-0.279,0.33-0.498c0.119-0.185,0.141-0.347,0.277-0.486
		c0.125-0.11,0.188-0.188,0.094-0.34C69.659,22.198,69.514,22.098,69.309,21.998L69.309,21.998z"/>
	<path fill="#C54A34" stroke="#211F1F" stroke-width="0.7501" stroke-miterlimit="2.6131" d="M69.122,22.281
		c0.01,0.029-0.097,0.176-0.22,0.311c-0.09,0.197-0.225,0.317-0.312,0.516c-0.138,0.146-0.265,0.293-0.379,0.486
		c-0.112,0.219-0.103,0.34-0.173,0.576c-0.016,0.178-0.02,0.379-0.075,0.537c-0.014,0.2,0.093,0.297,0.146,0.531
		c0.086,0.228-0.211,1.036-0.047,1.09c0.309-0.148,0.627-0.909,0.69-1.171c0.065-0.233,0.144-0.351,0.222-0.614
		c0.028-0.252,0.031-0.48,0.188-0.693c0.093-0.216,0.168-0.312,0.24-0.545c0.089-0.203,0.08-0.365,0.191-0.529
		c0.104-0.131,0.15-0.215,0.03-0.352C69.5,22.42,69.342,22.345,69.122,22.281L69.122,22.281z"/>
	<path fill="#C54A34" stroke="#211F1F" stroke-width="0.7501" stroke-miterlimit="2.6131" d="M69.374,23.164
		c0.026,0.014,0.041,0.195,0.035,0.379c0.062,0.208,0.032,0.385,0.101,0.593c-0.011,0.2,0.102,0.357,0.143,0.577
		c0.054,0.24,0.144,0.325,0.24,0.551c0.104,0.146,0.231,0.3,0.293,0.458c0.119,0.16,0.174,0.291,0.362,0.438
		c0.218,0.112,0.401,1.144,0.562,1.071c0.138-0.312,0-1.312-0.118-1.558c-0.104-0.219-0.031-0.483-0.144-0.735
		c-0.144-0.211-0.287-0.387-0.312-0.646c-0.071-0.226-0.188-0.312-0.284-0.534c-0.064-0.21-0.176-0.328-0.195-0.523
		c-0.009-0.166-0.021-0.264-0.203-0.289C69.751,23.021,69.583,23.068,69.374,23.164L69.374,23.164z"/>
	<path fill="#C54A34" stroke="#211F1F" stroke-width="0.7501" stroke-miterlimit="2.6131" d="M69.799,22.828
		c0.031,0.01,0.078,0.186,0.107,0.363c0.098,0.191,2.123,2.874,2.225,3.062c0.028,0.197-1.912-2.071-1.834-1.862
		c0.102,0.227,0.203,0.293,0.344,0.492c0.133,0.12,0.285,0.25,0.375,0.396c0.146,0.136,0.188,0.366,0.402,0.472
		c0.232,0.073,0.635,1.235,0.777,1.14c0.074-0.332-0.274-1.479-0.438-1.697c-0.142-0.193-0.087-0.577-0.241-0.808
		c-0.179-0.181-0.393-0.362-0.465-0.614c-0.109-0.207-0.143-0.326-0.275-0.526c-0.104-0.195-0.234-0.291-0.293-0.479
		c-0.037-0.16-0.07-0.254-0.254-0.244C70.145,22.617,69.986,22.695,69.799,22.828L69.799,22.828z"/>
	<path fill="#C54A34" stroke="#211F1F" stroke-width="0.7501" stroke-miterlimit="2.6131" d="M68.923,22.073
		c0.031,0,0.134,0.149,0.22,0.312c0.153,0.151,0.224,0.319,0.381,0.469c0.088,0.18,0.186,0.35,0.324,0.521
		c0.166,0.184,0.284,0.212,0.482,0.357c0.162,0.072,0.352,0.146,0.48,0.254c0.184,0.084,0.293,0.171,0.528,0.201
		c0.243-0.004,1.104,0.389,1.21,0.25c-0.033-0.338-0.844-0.734-1.062-0.888c-0.196-0.14-0.269-0.403-0.486-0.569
		c-0.227-0.112-0.439-0.192-0.589-0.408c-0.171-0.161-0.239-0.268-0.431-0.414c-0.162-0.15-0.316-0.198-0.434-0.36
		c-0.088-0.142-0.148-0.217-0.316-0.151C69.182,21.766,69.057,21.889,68.923,22.073L68.923,22.073z"/>
	<path fill="#C54A34" stroke="#211F1F" stroke-width="0.7501" stroke-miterlimit="2.6131" d="M69.008,22.055
		c0.031,0.006,0.102,0.174,0.15,0.353c0.119,0.18,0.148,0.354,0.273,0.532c0.053,0.193,0.107,0.379,0.215,0.576
		c0.125,0.213,0.232,0.269,0.396,0.45c0.146,0.104,0.312,0.216,0.418,0.347c0.162,0.117,0.253,0.228,0.479,0.308
		c0.236,0.045,1.316,0.974,1.447,0.858c0.033-0.338-0.988-1.262-1.178-1.455c-0.165-0.178-0.178-0.447-0.361-0.655
		c-0.193-0.156-0.391-0.279-0.488-0.521c-0.139-0.189-0.184-0.309-0.338-0.49c-0.129-0.183-0.271-0.264-0.35-0.44
		c-0.057-0.157-0.104-0.243-0.281-0.215C69.325,21.807,69.178,21.9,69.008,22.055L69.008,22.055z"/>
	<path fill="#C54A34" stroke="#211F1F" stroke-width="0.7501" stroke-miterlimit="2.6131" d="M69.066,21.939
		c0.027,0.014,0.054,0.189,0.058,0.375c0.071,0.205,0.06,0.384,0.134,0.586c0.001,0.201,0.014,0.396,0.062,0.613
		c0.066,0.234,0.162,0.313,0.271,0.533c0.112,0.139,0.249,0.285,0.318,0.439c0.128,0.152,0.188,0.279,0.388,0.412
		c0.224,0.104,1.033,1.272,1.188,1.197c0.117-0.318-0.646-1.469-0.776-1.703c-0.114-0.213-0.062-0.479-0.185-0.727
		c-0.153-0.202-0.312-0.369-0.351-0.629c-0.082-0.219-0.096-0.344-0.202-0.562c-0.074-0.205-0.193-0.316-0.228-0.513
		c-0.017-0.167-0.039-0.261-0.22-0.276C69.436,21.777,69.27,21.832,69.066,21.939L69.066,21.939z"/>
	<path fill="#C54A34" stroke="#211F1F" stroke-width="0.7501" stroke-miterlimit="2.6131" d="M68.732,21.984
		c0.021,0.02,0.011,0.199-0.026,0.379c0.024,0.217-0.026,0.387,0.003,0.603c-0.043,0.196-0.075,0.388-0.07,0.61
		c0.014,0.246,0.088,0.345,0.148,0.583c0.08,0.157,0.18,0.333,0.214,0.5c0.092,0.179,0.386,0.166,0.55,0.341
		c0.194,0.148,0.358,1.316,0.526,1.277c0.185-0.285,0.062-1.275-0.015-1.532c-0.063-0.231-0.217-0.481-0.279-0.749
		c-0.104-0.23-0.221-0.428-0.202-0.689c-0.031-0.229-0.021-0.354-0.075-0.593c-0.029-0.218-0.119-0.354-0.107-0.55
		c0.021-0.166,0.021-0.264-0.151-0.32C69.128,21.906,68.954,21.924,68.732,21.984L68.732,21.984z"/>
	<path fill="#C54A34" stroke="#211F1F" stroke-width="0.7501" stroke-miterlimit="2.6131" d="M68.79,21.244
		c0.021,0.025-0.052,0.193-0.138,0.354c-0.041,0.215-0.144,0.361-0.18,0.574c-0.099,0.176-0.187,0.35-0.25,0.562
		c-0.06,0.24-0.018,0.354-0.027,0.602c0.029,0.175,0.074,0.372,0.058,0.541c0.035,0.197,0.022,0.337,0.132,0.553
		c0.143,0.198,0.266,1.617,0.438,1.628c0.263-0.219,0.174-1.594,0.177-1.863c0.006-0.239,0.187-0.445,0.201-0.723
		c-0.033-0.252-0.085-0.474,0.011-0.718c0.038-0.231,0.087-0.347,0.104-0.588c0.035-0.218-0.012-0.374,0.062-0.56
		c0.066-0.15,0.096-0.246-0.055-0.352C69.191,21.287,69.02,21.252,68.79,21.244L68.79,21.244z"/>
	<path fill="#C54A34" stroke="#211F1F" stroke-width="0.7501" stroke-miterlimit="2.6131" d="M68.543,21.902
		c0.245,0.02,0.354-0.041,0.598-0.068c0.168-0.059,0.355-0.133,0.524-0.145c0.188-0.064,0.329-0.078,0.524-0.22
		c0.174-0.171,1.697,0.171,1.684-0.004c-0.629-0.223-1.748-0.603-2.014-0.561c-0.239,0.03-0.473-0.112-0.744-0.082
		c-0.243,0.069-0.453,0.155-0.711,0.104C68.17,20.932,68.32,21.875,68.543,21.902L68.543,21.902z"/>
	<path fill="#C54A34" stroke="#211F1F" stroke-width="0.7501" stroke-miterlimit="2.6131" d="M68.605,21.986
		c0.242-0.031,0.338-0.113,0.569-0.193c0.15-0.092,0.318-0.205,0.479-0.251c0.173-0.104,0.306-0.146,0.469-0.324
		c0.135-0.204,1.468-0.026,1.415-0.192c-0.3-0.159-1.604-0.385-1.856-0.285c-0.228,0.083-0.48-0.014-0.744,0.074
		c-0.225,0.121-0.408,0.252-0.674,0.252C68.038,21.115,68.384,22.006,68.605,21.986L68.605,21.986z"/>
	<path fill="#C54A34" stroke="#211F1F" stroke-width="0.7501" stroke-miterlimit="2.6131" d="M68.549,21.072
		c0.029,0.014,0.053,0.193,0.061,0.376c0.07,0.204,0.059,0.384,0.135,0.587c0.002,0.199,0.012,0.395,0.062,0.611
		c0.065,0.236,0.159,0.315,0.272,0.537c0.112,0.135,0.25,0.282,0.317,0.438c0.127,0.154,0.188,0.279,0.39,0.416
		c0.22,0.104,0.623,1.01,0.776,0.936c0.115-0.32-0.232-1.207-0.364-1.44c-0.115-0.214-0.062-0.48-0.187-0.729
		c-0.152-0.197-0.31-0.365-0.348-0.627c-0.083-0.219-0.098-0.344-0.204-0.562c-0.076-0.205-0.192-0.319-0.228-0.515
		c-0.018-0.166-0.037-0.261-0.221-0.276C68.918,20.909,68.752,20.966,68.549,21.072L68.549,21.072z"/>
	<path fill="#C54A34" stroke="#211F1F" stroke-width="0.7501" stroke-miterlimit="2.6131" d="M67.895,22.301
		c0.066,0.236,0.16,0.315,0.272,0.535c0.114,0.137,0.249,0.285,0.317,0.439c0.129,0.152,0.188,0.281,0.391,0.416
		c0.221,0.104,0.771,1.195,0.928,1.121c0.116-0.319-0.385-1.396-0.516-1.627c-0.115-0.217-0.062-0.48-0.186-0.729
		C68.951,22.255,67.844,22.083,67.895,22.301L67.895,22.301z"/>
	<path fill="#C54A34" stroke="#211F1F" stroke-width="0.7501" stroke-miterlimit="2.6131" d="M68.607,20.866
		c0.02,0.024-0.047,0.194-0.133,0.356c-0.033,0.215-0.135,0.36-0.164,0.576c-0.098,0.178-0.183,0.354-0.237,0.566
		c-0.06,0.236-0.015,0.354-0.021,0.602c0.032,0.178,0.081,0.371,0.067,0.539c0.037,0.197,0.027,0.337,0.141,0.553
		c0.146,0.195,0.295,1.611,0.467,1.619c0.26-0.224,0.145-1.599,0.142-1.865c0.002-0.24,0.178-0.449,0.188-0.728
		c-0.037-0.251-0.096-0.472-0.002-0.718c0.031-0.232,0.079-0.35,0.092-0.592c0.033-0.219-0.018-0.373,0.053-0.561
		c0.064-0.154,0.092-0.246-0.061-0.348C69.01,20.9,68.838,20.87,68.607,20.866L68.607,20.866z"/>
	<path fill="#C54A34" stroke="#211F1F" stroke-width="0.7501" stroke-miterlimit="2.6131" d="M68.477,22.236
		c0.03-0.01,0.174,0.104,0.303,0.232c0.191,0.104,0.305,0.24,0.498,0.34c0.139,0.146,0.277,0.277,0.468,0.4
		c0.211,0.128,0.335,0.121,0.562,0.204c0.178,0.021,0.08,0.146,0.236,0.215c0.198,0.024,0.143,0.188,0.38,0.147
		c0.231-0.073,0.777,0.81,0.839,0.646c-0.135-0.312-0.553-1.07-0.81-1.148c-0.229-0.074-0.261-0.569-0.521-0.664
		c-0.25-0.043-0.18-0.172-0.387-0.334c-0.209-0.104-0.305-0.186-0.531-0.271c-0.195-0.098-0.357-0.1-0.517-0.22
		c-0.126-0.11-0.208-0.163-0.353-0.053C68.637,21.865,68.553,22.02,68.477,22.236L68.477,22.236z"/>
	<path fill="#C54A34" stroke="#211F1F" stroke-width="0.7501" stroke-miterlimit="2.6131" d="M68.344,22.52
		c-0.041,0.006-1.195,0.562-1.734,0.59c-0.539,0.029-0.59-0.495-0.82-0.332c-0.234,0.166,0.275,0.763,0.811,0.646
		c0.53-0.114,2.104-0.684,2.104-0.684L68.344,22.52L68.344,22.52z"/>
	<path fill="#C54A34" stroke="#211F1F" stroke-width="0.7501" stroke-miterlimit="2.6131" d="M66.182,22.677
		c0.23,0.069,0.111-0.103,0.606-0.02s1.351,0.104,1.351,0.104s-0.438,0.511-0.947,0.681c-0.512,0.172-0.844,0.217-0.844,0.217
		l0.332,0.354c0.069,0.344-0.047,0.309-0.037,0.406c0.07-0.061,0.226-0.029,0.334-0.045c0.11-0.018,0.776-0.104,1.338-0.532
		c0.562-0.426,0.979,0.068,1.238-1.169c0.284-0.928-0.021-1.038-0.018-1.267c0.004-0.229,0.396-0.416,0.223-0.688
		c-0.162-0.294-0.425-0.125-0.544,0.003c-0.175,0.156-0.473-0.159-0.789-0.301c-0.417,0.001-0.925,0.524-1.073,0.747
		c-0.059,0.088-0.184,0.104-0.303,0.127c-0.115,0.021-0.764,0.1-0.918,0.238C65.984,21.672,65.967,22.625,66.182,22.677
		L66.182,22.677z"/>
	<path fill="none" stroke="#211F1F" stroke-width="0.7501" stroke-miterlimit="2.6131" d="M68.674,23.691
		c0,0,0.324-0.545-0.021-1.049c-0.348-0.504-0.707-0.355-0.707-0.355 M66.167,21.501l0.87,0.295 M66.561,22.639
		c0.074-0.012,0.653-0.24,0.653-0.24l-0.032,0.057 M66.594,22.65c0.062-0.053,0.465-0.398,0.465-0.398 M66.609,22.656
		c-0.004-0.051,0.095-0.614,0.095-0.614 M66.629,22.553c0.098-0.162,0.195-0.326,0.195-0.326 M67.83,21.15
		c0.279-0.012,0.552,0,0.695,0.043"/>
	<path fill="#211F1F" d="M68.412,21.271c0.003-0.028-0.105-0.078-0.24-0.078c-0.132,0-0.238,0.049-0.24,0.106
		c0,0.003,0,0.007,0,0.007c0,0.061,0.107,0.108,0.24,0.108c0.137,0,0.243-0.051,0.243-0.108c0-0.005,0-0.005,0-0.005h-0.243
		L68.412,21.271L68.412,21.271z"/>
	<path fill="#211F1F" d="M69.648,20.891c0-0.078-0.066-0.143-0.151-0.143c-0.084,0-0.151,0.062-0.151,0.143v0.002
		c0,0.08,0.067,0.146,0.151,0.146c0.085,0,0.151-0.062,0.151-0.146V20.891h-0.151H69.648L69.648,20.891z"/>
</g>
</svg>
