<?xml version="1.0" encoding="utf-8"?>
<!-- Generator: Adobe Illustrator 16.0.0, SVG Export Plug-In . SVG Version: 6.00 Build 0)  -->
<!DOCTYPE svg PUBLIC "-//W3C//DTD SVG 1.1//EN" "http://www.w3.org/Graphics/SVG/1.1/DTD/svg11.dtd">
<svg version="1.1" id="Victoria" xmlns="http://www.w3.org/2000/svg" xmlns:xlink="http://www.w3.org/1999/xlink" x="0px" y="0px"
	 width="100px" height="50px" viewBox="0 0 100 50" enable-background="new 0 0 100 50" xml:space="preserve">
<g id="au-vic">
	<rect x="300" y="251" fill="#00567D" width="100" height="50"/>
	<rect x="300.104" y="251" fill="#00567D" width="49.896" height="24.948"/>
	<path fill="#FFFFFF" d="M300.104,272.83l43.673-21.727H350v3.119l-43.672,21.726c0,0-6.226,0-6.226-0.104
		C300.104,275.74,300.104,272.83,300.104,272.83L300.104,272.83z"/>
	<path fill="#FFFFFF" d="M350,272.83l-43.672-21.727h-6.226v3.119l43.673,21.726c0,0,6.225,0.208,6.225,0S350,272.83,350,272.83
		L350,272.83z"/>
	<polygon fill="#DD612C" points="300.104,275.948 304.771,275.948 329.771,263.475 325.104,263.475 	"/>
	<polygon fill="#DD612C" points="325.104,263.475 350,251 345.332,251 320.436,263.475 	"/>
	<polygon fill="#DD612C" points="300.104,253.391 300.104,251 325.104,263.475 320.436,263.475 	"/>
	<polygon fill="#DD612C" points="329.771,263.475 350,273.661 350,275.948 325.104,263.475 	"/>
	<rect x="300" y="259.627" fill="#FFFFFF" width="50" height="7.798"/>
	<rect x="321.162" y="251.104" fill="#FFFFFF" width="7.779" height="24.949"/>
	<rect x="300" y="261.188" fill="#DD612C" width="50" height="4.781"/>
	<rect x="322.717" y="251" fill="#DD612C" width="4.669" height="24.948"/>
	<path fill="#D2532B" d="M370.954,265.449v-2.287l-0.52-1.039c-0.206-0.52-0.104-0.729,0.104-0.729
		c0.207-0.104,0.519,0.104,0.83,0.104c0.311,0,0.207-0.623,0.727-0.52c0.52,0,1.349,0.312,2.073,0.312
		c0.728,0.104,1.142-0.209,1.971-0.312c0.83,0,1.142,0.416,1.142,0.416c0.104,0,0.312-0.207,0.519-0.207s0.312,0.104,0.312,0.104
		s0,0.623-0.104,0.936c-0.104,0.312-0.519,0.937-0.519,0.937s-0.104,2.392-0.104,2.494
		C377.386,265.657,370.954,265.553,370.954,265.449L370.954,265.449z"/>
	<path fill="none" d="M370.954,265.449v-2.287l-0.52-1.039c-0.206-0.52-0.104-0.729,0.104-0.729c0.207-0.104,0.519,0.104,0.83,0.104
		c0.311,0,0.207-0.623,0.727-0.52c0.52,0,1.349,0.312,2.073,0.312c0.728,0.104,1.142-0.209,1.971-0.312
		c0.83,0,1.142,0.416,1.142,0.416c0.104,0,0.312-0.207,0.519-0.207s0.312,0.104,0.312,0.104s0,0.623-0.104,0.936
		c-0.104,0.312-0.519,0.937-0.519,0.937s-0.104,2.392-0.104,2.494C377.386,265.657,370.954,265.553,370.954,265.449L370.954,265.449
		z"/>
	<path fill="#FFE62C" d="M377.594,263.162c0,0,0.622-0.52,0.622-1.768c0-0.729-0.312-1.248-1.14-1.248
		c-1.143,0-2.803,0.521-2.803,0.521v0.207c0,0,1.244-0.521,2.803-0.521c0.621,0,0.932,0.521,0.932,1.039
		c0,0.832-0.622,1.769-0.622,1.769v1.455h0.208V263.162z"/>
	<path fill="none" d="M377.594,263.162c0,0,0.622-0.52,0.622-1.768c0-0.729-0.312-1.248-1.14-1.248
		c-1.143,0-2.803,0.521-2.803,0.521v0.207c0,0,1.244-0.521,2.803-0.521c0.621,0,0.932,0.521,0.932,1.039
		c0,0.832-0.622,1.769-0.622,1.769v1.455h0.208V263.162z"/>
	<path fill="#FFFFFF" d="M377.904,262.746c0.312,0,0.312-0.104,0.207-0.104C378.008,262.643,377.904,262.746,377.904,262.746
		L377.904,262.746c0,0.104,0.104,0.209,0.207,0.209s0.104-0.104,0.104-0.209l0,0h-0.104H377.904z"/>
	<path fill="none" d="M377.904,262.746c0.312,0,0.312-0.104,0.207-0.104C378.008,262.643,377.904,262.746,377.904,262.746
		L377.904,262.746c0,0.104,0.104,0.209,0.207,0.209s0.104-0.104,0.104-0.209l0,0h-0.104H377.904z"/>
	<path fill="#FFFFFF" d="M378.111,262.436c0.312-0.104,0.209-0.209,0.104-0.209C378.11,262.227,378.111,262.33,378.111,262.436
		L378.111,262.436c0,0,0,0.104,0.104,0.104c0.104,0,0.207-0.104,0.207-0.104l0,0h-0.207H378.111z"/>
	<path fill="none" d="M378.111,262.436c0.312-0.104,0.209-0.209,0.104-0.209C378.11,262.227,378.111,262.33,378.111,262.436
		L378.111,262.436c0,0,0,0.104,0.104,0.104c0.104,0,0.207-0.104,0.207-0.104l0,0h-0.207H378.111z"/>
	<path fill="#FFFFFF" d="M378.111,262.02c0.416-0.104,0.312-0.209,0.209-0.209C378.216,261.811,378.111,261.914,378.111,262.02
		L378.111,262.02c0,0,0.104,0.104,0.209,0.104c0.103,0,0.207-0.104,0.207-0.104l0,0h-0.207H378.111z"/>
	<path fill="none" d="M378.111,262.02c0.416-0.104,0.312-0.209,0.209-0.209C378.216,261.811,378.111,261.914,378.111,262.02
		L378.111,262.02c0,0,0.104,0.104,0.209,0.104c0.103,0,0.207-0.104,0.207-0.104l0,0h-0.207H378.111z"/>
	<path fill="#FFFFFF" d="M378.216,261.499c0.312-0.104,0.312-0.104,0.207-0.104C378.32,261.395,378.216,261.395,378.216,261.499
		L378.216,261.499c0,0.104,0.104,0.208,0.207,0.208c0.104,0,0.104-0.104,0.104-0.208l0,0h-0.104H378.216z"/>
	<path fill="none" d="M378.216,261.499c0.312-0.104,0.312-0.104,0.207-0.104C378.32,261.395,378.216,261.395,378.216,261.499
		L378.216,261.499c0,0.104,0.104,0.208,0.207,0.208c0.104,0,0.104-0.104,0.104-0.208l0,0h-0.104H378.216z"/>
	<path fill="#FFFFFF" d="M378.216,261.083c0.312-0.104,0.207-0.208,0.207-0.208C378.32,260.875,378.216,260.979,378.216,261.083
		L378.216,261.083c0,0.104,0.104,0.104,0.207,0.104c0,0,0.104,0,0.104-0.104l0,0h-0.104H378.216z"/>
	<path fill="none" d="M378.216,261.083c0.312-0.104,0.207-0.208,0.207-0.208C378.32,260.875,378.216,260.979,378.216,261.083
		L378.216,261.083c0,0.104,0.104,0.104,0.207,0.104c0,0,0.104,0,0.104-0.104l0,0h-0.104H378.216z"/>
	<path fill="#FFFFFF" d="M377.697,263.162c0.311-0.104,0.207-0.207,0.104-0.207C377.698,262.955,377.697,263.059,377.697,263.162
		L377.697,263.162c0,0.104,0,0.104,0.104,0.104c0.104,0,0.207,0,0.207-0.104l0,0h-0.207H377.697z"/>
	<path fill="none" d="M377.697,263.162c0.311-0.104,0.207-0.207,0.104-0.207C377.698,262.955,377.697,263.059,377.697,263.162
		L377.697,263.162c0,0.104,0,0.104,0.104,0.104c0.104,0,0.207,0,0.207-0.104l0,0h-0.207H377.697z"/>
	<path fill="#FFFFFF" d="M378.111,260.562c0.312,0,0.209-0.104,0.104-0.104C378.11,260.458,378.111,260.562,378.111,260.562
		L378.111,260.562c0,0.104,0,0.209,0.104,0.209c0.104,0,0.207-0.104,0.207-0.209l0,0h-0.207H378.111z"/>
	<path fill="none" d="M378.111,260.562c0.312,0,0.209-0.104,0.104-0.104C378.11,260.458,378.111,260.562,378.111,260.562
		L378.111,260.562c0,0.104,0,0.209,0.104,0.209c0.104,0,0.207-0.104,0.207-0.209l0,0h-0.207H378.111z"/>
	<path fill="#FFFFFF" d="M377.801,260.252c0.312-0.105,0.207-0.209,0.104-0.209C377.802,260.043,377.801,260.146,377.801,260.252
		L377.801,260.252c0,0.104,0,0.207,0.104,0.207c0.104,0,0.207-0.104,0.207-0.207l0,0h-0.207H377.801z"/>
	<path fill="none" d="M377.801,260.252c0.312-0.105,0.207-0.209,0.104-0.209C377.802,260.043,377.801,260.146,377.801,260.252
		L377.801,260.252c0,0.104,0,0.207,0.104,0.207c0.104,0,0.207-0.104,0.207-0.207l0,0h-0.207H377.801z"/>
	<path fill="#FFFFFF" d="M377.386,260.043c0.312-0.104,0.206-0.207,0.104-0.207C377.386,259.836,377.386,259.939,377.386,260.043
		L377.386,260.043c0,0.104,0,0.104,0.104,0.104c0.103,0,0.207,0,0.207-0.104l0,0h-0.207H377.386z"/>
	<path fill="none" d="M377.386,260.043c0.312-0.104,0.206-0.207,0.104-0.207C377.386,259.836,377.386,259.939,377.386,260.043
		L377.386,260.043c0,0.104,0,0.104,0.104,0.104c0.103,0,0.207,0,0.207-0.104l0,0h-0.207H377.386z"/>
	<path fill="#FFFFFF" d="M376.971,259.939c0.312,0,0.208-0.104,0.104-0.104C376.971,259.836,376.971,259.939,376.971,259.939
		L376.971,259.939c0,0.104,0,0.207,0.104,0.207c0.104,0,0.207-0.104,0.207-0.207l0,0h-0.207H376.971z"/>
	<path fill="none" d="M376.971,259.939c0.312,0,0.208-0.104,0.104-0.104C376.971,259.836,376.971,259.939,376.971,259.939
		L376.971,259.939c0,0.104,0,0.207,0.104,0.207c0.104,0,0.207-0.104,0.207-0.207l0,0h-0.207H376.971z"/>
	<path fill="#FFFFFF" d="M376.452,260.043c0.415-0.104,0.312-0.207,0.207-0.207C376.557,259.836,376.452,259.939,376.452,260.043
		L376.452,260.043c0,0.104,0.104,0.104,0.207,0.104s0.208,0,0.208-0.104l0,0h-0.208H376.452z"/>
	<path fill="none" d="M376.452,260.043c0.415-0.104,0.312-0.207,0.207-0.207C376.557,259.836,376.452,259.939,376.452,260.043
		L376.452,260.043c0,0.104,0.104,0.104,0.207,0.104s0.208,0,0.208-0.104l0,0h-0.208H376.452z"/>
	<path fill="#FFFFFF" d="M376.037,260.043c0.311-0.104,0.311-0.104,0.207-0.104C376.14,259.939,376.037,259.939,376.037,260.043
		L376.037,260.043c0,0.104,0.104,0.209,0.207,0.209c0.103,0,0.104-0.104,0.104-0.209l0,0h-0.104H376.037z"/>
	<path fill="none" d="M376.037,260.043c0.311-0.104,0.311-0.104,0.207-0.104C376.14,259.939,376.037,259.939,376.037,260.043
		L376.037,260.043c0,0.104,0.104,0.209,0.207,0.209c0.103,0,0.104-0.104,0.104-0.209l0,0h-0.104H376.037z"/>
	<path fill="#FFFFFF" d="M375.622,260.146c0.312-0.104,0.208-0.207,0.104-0.207C375.622,259.939,375.622,260.043,375.622,260.146
		L375.622,260.146c0,0.104,0,0.209,0.104,0.209c0.104,0,0.207-0.104,0.207-0.209l0,0h-0.207H375.622z"/>
	<path fill="none" d="M375.622,260.146c0.312-0.104,0.208-0.207,0.104-0.207C375.622,259.939,375.622,260.043,375.622,260.146
		L375.622,260.146c0,0.104,0,0.209,0.104,0.209c0.104,0,0.207-0.104,0.207-0.209l0,0h-0.207H375.622z"/>
	<path fill="#FFFFFF" d="M375.104,260.252c0.312-0.105,0.312-0.209,0.207-0.209C375.207,260.043,375.104,260.146,375.104,260.252
		L375.104,260.252c0,0.104,0.104,0.104,0.207,0.104c0.104,0,0.104,0,0.104-0.104l0,0h-0.104H375.104z"/>
	<path fill="none" d="M375.104,260.252c0.312-0.105,0.312-0.209,0.207-0.209C375.207,260.043,375.104,260.146,375.104,260.252
		L375.104,260.252c0,0.104,0.104,0.104,0.207,0.104c0.104,0,0.104,0,0.104-0.104l0,0h-0.104H375.104z"/>
	<path fill="#FFFFFF" d="M374.688,260.355c0.312-0.104,0.312-0.209,0.209-0.209C374.792,260.146,374.688,260.252,374.688,260.355
		L374.688,260.355c0,0.104,0.104,0.104,0.209,0.104c0.104,0,0.104,0,0.104-0.104l0,0h-0.104H374.688z"/>
	<path fill="none" d="M374.688,260.355c0.312-0.104,0.312-0.209,0.209-0.209C374.792,260.146,374.688,260.252,374.688,260.355
		L374.688,260.355c0,0.104,0.104,0.104,0.209,0.104c0.104,0,0.104,0,0.104-0.104l0,0h-0.104H374.688z"/>
	<path fill="#FFFFFF" d="M370.539,262.746c0,0-0.104-0.104-0.207-0.104l-0.104,0.104l0,0c0,0.104,0.104,0.209,0.104,0.209
		C370.436,262.955,370.539,262.85,370.539,262.746L370.539,262.746h-0.207H370.539z"/>
	<path fill="none" d="M370.539,262.746c0,0-0.104-0.104-0.207-0.104l-0.104,0.104l0,0c0,0.104,0.104,0.209,0.104,0.209
		C370.436,262.955,370.539,262.85,370.539,262.746L370.539,262.746h-0.207H370.539z"/>
	<path fill="#FFFFFF" d="M370.332,262.436c0-0.104,0-0.209-0.104-0.209c-0.104,0-0.209,0.104-0.209,0.209l0,0
		c0,0,0.104,0.104,0.209,0.104C370.332,262.539,370.332,262.436,370.332,262.436L370.332,262.436h-0.104H370.332z"/>
	<path fill="none" d="M370.332,262.436c0-0.104,0-0.209-0.104-0.209c-0.104,0-0.209,0.104-0.209,0.209l0,0
		c0,0,0.104,0.104,0.209,0.104C370.332,262.539,370.332,262.436,370.332,262.436L370.332,262.436h-0.104H370.332z"/>
	<path fill="#FFFFFF" d="M370.332,262.02c0-0.104-0.104-0.209-0.207-0.209s-0.209,0.104-0.209,0.209l0,0
		c0,0,0.104,0.104,0.209,0.104C370.229,262.123,370.332,262.02,370.332,262.02L370.332,262.02h-0.207H370.332z"/>
	<path fill="none" d="M370.332,262.02c0-0.104-0.104-0.209-0.207-0.209s-0.209,0.104-0.209,0.209l0,0c0,0,0.104,0.104,0.209,0.104
		C370.229,262.123,370.332,262.02,370.332,262.02L370.332,262.02h-0.207H370.332z"/>
	<path fill="#FFFFFF" d="M370.229,261.499c0-0.104-0.104-0.104-0.207-0.104c-0.104,0-0.104,0-0.104,0.104l0,0
		c0,0.104,0,0.208,0.104,0.208C370.125,261.707,370.229,261.604,370.229,261.499L370.229,261.499h-0.207H370.229z"/>
	<path fill="none" d="M370.229,261.499c0-0.104-0.104-0.104-0.207-0.104c-0.104,0-0.104,0-0.104,0.104l0,0
		c0,0.104,0,0.208,0.104,0.208C370.125,261.707,370.229,261.604,370.229,261.499L370.229,261.499h-0.207H370.229z"/>
	<path fill="#FFFFFF" d="M370.229,261.083c0-0.104-0.104-0.208-0.207-0.208c0,0-0.104,0.104-0.104,0.208l0,0
		c0,0.104,0.104,0.104,0.104,0.104C370.125,261.188,370.229,261.188,370.229,261.083L370.229,261.083h-0.207H370.229z"/>
	<path fill="none" d="M370.229,261.083c0-0.104-0.104-0.208-0.207-0.208c0,0-0.104,0.104-0.104,0.208l0,0
		c0,0.104,0.104,0.104,0.104,0.104C370.125,261.188,370.229,261.188,370.229,261.083L370.229,261.083h-0.207H370.229z"/>
	<path fill="#FFFFFF" d="M370.332,260.562c0,0,0-0.104-0.104-0.104c-0.104,0-0.209,0.104-0.209,0.104l0,0
		c0,0.104,0.104,0.209,0.209,0.209C370.332,260.771,370.332,260.668,370.332,260.562L370.332,260.562h-0.104H370.332z"/>
	<path fill="none" d="M370.332,260.562c0,0,0-0.104-0.104-0.104c-0.104,0-0.209,0.104-0.209,0.104l0,0
		c0,0.104,0.104,0.209,0.209,0.209C370.332,260.771,370.332,260.668,370.332,260.562L370.332,260.562h-0.104H370.332z"/>
	<path fill="#FFFFFF" d="M370.643,260.252c0-0.105,0-0.209-0.104-0.209c-0.104,0-0.207,0.104-0.207,0.209l0,0
		c0,0.104,0.104,0.207,0.207,0.207C370.642,260.459,370.643,260.355,370.643,260.252L370.643,260.252h-0.104H370.643z"/>
	<path fill="none" d="M370.643,260.252c0-0.105,0-0.209-0.104-0.209c-0.104,0-0.207,0.104-0.207,0.209l0,0
		c0,0.104,0.104,0.207,0.207,0.207C370.642,260.459,370.643,260.355,370.643,260.252L370.643,260.252h-0.104H370.643z"/>
	<path fill="#FFFFFF" d="M371.058,260.043c0-0.104,0-0.207-0.104-0.207c-0.104,0-0.208,0.104-0.208,0.207l0,0
		c0,0.104,0.104,0.104,0.208,0.104C371.058,260.146,371.058,260.146,371.058,260.043L371.058,260.043h-0.104H371.058z"/>
	<path fill="none" d="M371.058,260.043c0-0.104,0-0.207-0.104-0.207c-0.104,0-0.208,0.104-0.208,0.207l0,0
		c0,0.104,0.104,0.104,0.208,0.104C371.058,260.146,371.058,260.146,371.058,260.043L371.058,260.043h-0.104H371.058z"/>
	<path fill="#FFFFFF" d="M371.473,259.939c0,0,0-0.104-0.104-0.104c-0.104,0-0.207,0.104-0.207,0.104l0,0
		c0,0.104,0.104,0.207,0.207,0.207S371.473,260.043,371.473,259.939L371.473,259.939h-0.104H371.473z"/>
	<path fill="none" d="M371.473,259.939c0,0,0-0.104-0.104-0.104c-0.104,0-0.207,0.104-0.207,0.104l0,0
		c0,0.104,0.104,0.207,0.207,0.207S371.473,260.043,371.473,259.939L371.473,259.939h-0.104H371.473z"/>
	<path fill="#FFFFFF" d="M371.992,260.043c0-0.104-0.104-0.207-0.207-0.207c-0.105,0-0.209,0.104-0.209,0.207l0,0
		c0,0.104,0.104,0.104,0.209,0.104C371.888,260.146,371.992,260.146,371.992,260.043L371.992,260.043h-0.207H371.992z"/>
	<path fill="none" d="M371.992,260.043c0-0.104-0.104-0.207-0.207-0.207c-0.105,0-0.209,0.104-0.209,0.207l0,0
		c0,0.104,0.104,0.104,0.209,0.104C371.888,260.146,371.992,260.146,371.992,260.043L371.992,260.043h-0.207H371.992z"/>
	<path fill="#FFFFFF" d="M372.407,260.043c0-0.104-0.104-0.104-0.209-0.104c0,0-0.104,0-0.104,0.104l0,0
		c0,0.104,0.104,0.209,0.104,0.209C372.303,260.252,372.407,260.146,372.407,260.043L372.407,260.043h-0.209H372.407z"/>
	<path fill="none" d="M372.407,260.043c0-0.104-0.104-0.104-0.209-0.104c0,0-0.104,0-0.104,0.104l0,0
		c0,0.104,0.104,0.209,0.104,0.209C372.303,260.252,372.407,260.146,372.407,260.043L372.407,260.043h-0.209H372.407z"/>
	<path fill="#FFFFFF" d="M372.821,260.146c0-0.104,0-0.207-0.104-0.207c-0.104,0-0.207,0.104-0.207,0.207l0,0
		c0,0.104,0.104,0.209,0.207,0.209C372.82,260.355,372.821,260.252,372.821,260.146L372.821,260.146h-0.104H372.821z"/>
	<path fill="none" d="M372.821,260.146c0-0.104,0-0.207-0.104-0.207c-0.104,0-0.207,0.104-0.207,0.207l0,0
		c0,0.104,0.104,0.209,0.207,0.209C372.82,260.355,372.821,260.252,372.821,260.146L372.821,260.146h-0.104H372.821z"/>
	<path fill="#FFFFFF" d="M373.34,260.252c0-0.105-0.104-0.209-0.207-0.209c-0.103,0-0.104,0.104-0.104,0.209l0,0
		c0,0.104,0,0.104,0.104,0.104C373.237,260.355,373.34,260.355,373.34,260.252L373.34,260.252h-0.207H373.34z"/>
	<path fill="none" d="M373.34,260.252c0-0.105-0.104-0.209-0.207-0.209c-0.103,0-0.104,0.104-0.104,0.209l0,0
		c0,0.104,0,0.104,0.104,0.104C373.237,260.355,373.34,260.355,373.34,260.252L373.34,260.252h-0.207H373.34z"/>
	<path fill="#FFFFFF" d="M373.756,260.355c0-0.104-0.104-0.209-0.209-0.209c-0.104,0-0.104,0.104-0.104,0.209l0,0
		c0,0.104,0,0.104,0.104,0.104C373.651,260.459,373.756,260.459,373.756,260.355L373.756,260.355h-0.209H373.756z"/>
	<path fill="none" d="M373.756,260.355c0-0.104-0.104-0.209-0.209-0.209c-0.104,0-0.104,0.104-0.104,0.209l0,0
		c0,0.104,0,0.104,0.104,0.104C373.651,260.459,373.756,260.459,373.756,260.355L373.756,260.355h-0.209H373.756z"/>
	<path fill="#FFFFFF" d="M370.746,263.162c0-0.104,0-0.207-0.104-0.207c-0.104,0-0.207,0.104-0.207,0.207l0,0
		c0,0.104,0.104,0.104,0.207,0.104C370.745,263.266,370.746,263.266,370.746,263.162L370.746,263.162h-0.104H370.746z"/>
	<path fill="none" d="M370.746,263.162c0-0.104,0-0.207-0.104-0.207c-0.104,0-0.207,0.104-0.207,0.207l0,0
		c0,0.104,0.104,0.104,0.207,0.104C370.745,263.266,370.746,263.266,370.746,263.162L370.746,263.162h-0.104H370.746z"/>
	<path fill="#FFE62C" d="M370.851,263.162c0,0-0.622-0.52-0.622-1.768c0-0.729,0.312-1.248,1.142-1.248
		c1.141,0,2.904,0.521,2.904,0.521v0.207c0,0-1.35-0.521-2.904-0.521c-0.623,0-0.935,0.521-0.935,1.039
		c0,0.832,0.622,1.769,0.622,1.769v1.455h-0.207V263.162z"/>
	<path fill="none" d="M370.851,263.162c0,0-0.622-0.52-0.622-1.768c0-0.729,0.312-1.248,1.142-1.248
		c1.141,0,2.904,0.521,2.904,0.521v0.207c0,0-1.35-0.521-2.904-0.521c-0.623,0-0.935,0.521-0.935,1.039
		c0,0.832,0.622,1.769,0.622,1.769v1.455h-0.207V263.162z"/>
	<path fill="#FFE62C" d="M372.096,263.786c0,0,0-0.104,0.207-0.104c0.104,0,0.207,0.104,0.207,0.312v0.207h0.104v-0.207
		c0-0.208,0.104-0.312,0.206-0.312c0.207,0,0.207,0.104,0.207,0.104s0-0.417-0.207-0.417c-0.104,0-0.206,0.209-0.206,0.209
		s0.104-0.209,0.104-0.416s-0.208-0.312-0.208-0.312s-0.103,0.105-0.103,0.312s0.103,0.416,0.103,0.416s-0.103-0.209-0.207-0.209
		C372.096,263.369,372.096,263.786,372.096,263.786L372.096,263.786z"/>
	<path fill="none" d="M372.096,263.786c0,0,0-0.104,0.207-0.104c0.104,0,0.207,0.104,0.207,0.312v0.207h0.104v-0.207
		c0-0.208,0.104-0.312,0.206-0.312c0.207,0,0.207,0.104,0.207,0.104s0-0.417-0.207-0.417c-0.104,0-0.206,0.209-0.206,0.209
		s0.104-0.209,0.104-0.416s-0.208-0.312-0.208-0.312s-0.103,0.105-0.103,0.312s0.103,0.416,0.103,0.416s-0.103-0.209-0.207-0.209
		C372.096,263.369,372.096,263.786,372.096,263.786L372.096,263.786z"/>
	<path fill="#FFE62C" d="M375.415,263.786c0,0,0-0.104,0.207-0.104c0.104,0,0.208,0.104,0.208,0.312v0.207h0.104v-0.207
		c0-0.208,0.104-0.312,0.207-0.312c0.207,0,0.207,0.104,0.207,0.104s0-0.417-0.207-0.417c-0.104,0-0.207,0.209-0.207,0.209
		s0.104-0.209,0.104-0.416s-0.104-0.312-0.104-0.312s-0.104,0.105-0.104,0.312s0,0.416,0,0.416s0-0.209-0.208-0.209
		C375.415,263.369,375.415,263.786,375.415,263.786L375.415,263.786z"/>
	<path fill="none" d="M375.415,263.786c0,0,0-0.104,0.207-0.104c0.104,0,0.208,0.104,0.208,0.312v0.207h0.104v-0.207
		c0-0.208,0.104-0.312,0.207-0.312c0.207,0,0.207,0.104,0.207,0.104s0-0.417-0.207-0.417c-0.104,0-0.207,0.209-0.207,0.209
		s0.104-0.209,0.104-0.416s-0.104-0.312-0.104-0.312s-0.104,0.105-0.104,0.312s0,0.416,0,0.416s0-0.209-0.208-0.209
		C375.415,263.369,375.415,263.786,375.415,263.786L375.415,263.786z"/>
	<path fill="#FFE62C" d="M370.851,265.657v-1.664c0,0,0.415,0.624,0.829,0.624c0.416,0,0.83-0.729,0.83-0.729
		s0.414,0.521,0.829,0.521s0.936-0.728,0.936-0.728s0.311,0.728,0.829,0.728c0.414,0,0.829-0.521,0.829-0.521
		s0.415,0.729,0.936,0.729c0.517,0,0.725-0.624,0.725-0.624v1.664H370.851z"/>
	<path fill="none" d="M370.851,265.657v-1.664c0,0,0.415,0.624,0.829,0.624c0.416,0,0.83-0.729,0.83-0.729s0.414,0.521,0.829,0.521
		s0.936-0.728,0.936-0.728s0.311,0.728,0.829,0.728c0.414,0,0.829-0.521,0.829-0.521s0.415,0.729,0.936,0.729
		c0.517,0,0.725-0.624,0.725-0.624v1.664H370.851z"/>
	<path fill="#FFE62C" d="M370.851,265.657v-1.248c0,0,1.037,0.312,1.037,1.248H370.851z"/>
	<path fill="none" d="M370.851,265.657v-1.248c0,0,1.037,0.312,1.037,1.248H370.851z"/>
	<path fill="#FFE62C" d="M377.594,265.657v-1.248c0,0-1.037,0.312-1.037,1.248H377.594z"/>
	<path fill="none" d="M377.594,265.657v-1.248c0,0-1.037,0.312-1.037,1.248H377.594z"/>
	<path fill="#FFE62C" d="M371.576,265.657c0-0.938,0.934-1.456,0.934-1.456s1.037,0.52,1.037,1.456H371.576L371.576,265.657z"/>
	<path fill="none" d="M371.576,265.657c0-0.938,0.934-1.456,0.934-1.456s1.037,0.52,1.037,1.456H371.576L371.576,265.657z"/>
	<path fill="#FFE62C" d="M374.896,265.657c0-0.938,1.036-1.456,1.036-1.456s0.935,0.52,0.935,1.456H374.896L374.896,265.657z"/>
	<path fill="none" d="M374.896,265.657c0-0.938,1.036-1.456,1.036-1.456s0.935,0.52,0.935,1.456H374.896L374.896,265.657z"/>
	<path fill="#FFE62C" d="M373.029,265.657c0-0.938,1.244-1.664,1.244-1.664s1.142,0.728,1.142,1.664H373.029L373.029,265.657z"/>
	<path fill="none" d="M373.029,265.657c0-0.938,1.244-1.664,1.244-1.664s1.142,0.728,1.142,1.664H373.029L373.029,265.657z"/>
	<path fill="#FFFFFF" d="M377.697,265.657c-0.312-0.209-1.557-0.416-3.424-0.416c-1.972,0-3.319,0.208-3.632,0.416
		c-0.311,0.104-0.311,0.52,0,0.623c0.312,0.208,1.66,0.415,3.632,0.415c1.866,0,3.111-0.207,3.424-0.415
		C378.008,266.177,378.008,265.761,377.697,265.657L377.697,265.657z"/>
	<path fill="none" d="M377.697,265.657c-0.312-0.209-1.557-0.416-3.424-0.416c-1.972,0-3.319,0.208-3.632,0.416
		c-0.311,0.104-0.311,0.52,0,0.623c0.312,0.208,1.66,0.415,3.632,0.415c1.866,0,3.111-0.207,3.424-0.415
		C378.008,266.177,378.008,265.761,377.697,265.657L377.697,265.657z"/>
	<path fill="#878E94" d="M377.594,266.281c0,0.416-2.801,0.416-3.319,0.416c-0.622,0-3.424,0.104-3.424-0.416
		c0-0.312,2.802-0.312,3.424-0.312C374.793,265.969,377.594,266.073,377.594,266.281L377.594,266.281z"/>
	<path fill="#D2532B" d="M371.266,265.033c0-0.104-0.104-0.208-0.208-0.208c-0.104,0-0.207,0.104-0.207,0.208l0,0
		c0,0.104,0.104,0.208,0.207,0.208C371.162,265.241,371.266,265.137,371.266,265.033L371.266,265.033h-0.208H371.266z"/>
	<path fill="#D2532B" d="M377.594,265.033c0-0.104-0.104-0.208-0.208-0.208c-0.103,0-0.206,0.104-0.206,0.208l0,0
		c0,0.104,0.104,0.208,0.206,0.208C377.489,265.241,377.594,265.137,377.594,265.033L377.594,265.033h-0.208H377.594z"/>
	<path fill="#231F20" d="M374.586,264.93c0-0.209-0.208-0.416-0.312-0.416c-0.207,0-0.414,0.209-0.414,0.416l0,0
		c0,0.207,0.207,0.416,0.414,0.416C374.378,265.345,374.586,265.137,374.586,264.93L374.586,264.93h-0.312H374.586z"/>
	<path fill="#008445" d="M376.141,264.93c0-0.104-0.104-0.312-0.207-0.312c-0.207,0-0.312,0.208-0.312,0.312l0,0
		c0,0.207,0.104,0.312,0.312,0.312C376.037,265.241,376.141,265.137,376.141,264.93L376.141,264.93h-0.207H376.141z"/>
	<path fill="#008445" d="M372.718,264.93c0-0.104-0.104-0.312-0.207-0.312c-0.208,0-0.312,0.208-0.312,0.312l0,0
		c0,0.207,0.104,0.312,0.312,0.312C372.614,265.241,372.718,265.137,372.718,264.93L372.718,264.93h-0.207H372.718z"/>
	<path fill="#FFE62C" d="M373.547,263.786c0,0,0.209-0.312,0.416-0.312h0.207v0.207c0,0.207-0.311,0.312-0.311,0.312h0.727
		c0,0-0.312-0.104-0.312-0.312v-0.207h0.207c0.209,0,0.416,0.312,0.416,0.312v-0.831c0,0-0.207,0.311-0.416,0.311h-0.207v-0.207
		c0-0.312,0.312-0.416,0.312-0.416h-0.727c0,0,0.311,0.104,0.311,0.416v0.207h-0.207c-0.207,0-0.416-0.311-0.416-0.311V263.786z"/>
	<path fill="none" d="M373.547,263.786c0,0,0.209-0.312,0.416-0.312h0.207v0.207c0,0.207-0.311,0.312-0.311,0.312h0.727
		c0,0-0.312-0.104-0.312-0.312v-0.207h0.207c0.209,0,0.416,0.312,0.416,0.312v-0.831c0,0-0.207,0.311-0.416,0.311h-0.207v-0.207
		c0-0.312,0.312-0.416,0.312-0.416h-0.727c0,0,0.311,0.104,0.311,0.416v0.207h-0.207c-0.207,0-0.416-0.311-0.416-0.311V263.786z"/>
	<path fill="#FFE62C" d="M370.851,264.409h0.207c0,0-0.104-0.104-0.104-0.416v-0.104h0.104c0.104,0,0.208,0.209,0.208,0.209v-0.623
		c0,0-0.104,0.207-0.208,0.207h-0.104v-0.207c0-0.209,0.104-0.312,0.104-0.312h-0.207V264.409L370.851,264.409z"/>
	<path fill="none" d="M370.851,264.409h0.207c0,0-0.104-0.104-0.104-0.416v-0.104h0.104c0.104,0,0.208,0.209,0.208,0.209v-0.623
		c0,0-0.104,0.207-0.208,0.207h-0.104v-0.207c0-0.209,0.104-0.312,0.104-0.312h-0.207V264.409L370.851,264.409z"/>
	<path fill="#FFE62C" d="M377.594,264.409h-0.208c0,0,0.104-0.104,0.104-0.416v-0.104h-0.104c-0.103,0-0.206,0.209-0.206,0.209
		v-0.623c0,0,0.104,0.207,0.206,0.207h0.104v-0.207c0-0.209-0.104-0.312-0.104-0.312h0.208V264.409L377.594,264.409z"/>
	<path fill="none" d="M377.594,264.409h-0.208c0,0,0.104-0.104,0.104-0.416v-0.104h-0.104c-0.103,0-0.206,0.209-0.206,0.209v-0.623
		c0,0,0.104,0.207,0.206,0.207h0.104v-0.207c0-0.209-0.104-0.312-0.104-0.312h0.208V264.409L377.594,264.409z"/>
	<path fill="#FFFFFF" d="M374.378,263.369c0-0.104-0.104-0.207-0.104-0.207c-0.104,0-0.207,0.104-0.207,0.207l0,0
		c0,0.105,0.104,0.105,0.207,0.105C374.273,263.475,374.378,263.475,374.378,263.369L374.378,263.369h-0.104H374.378z"/>
	<path fill="none" d="M374.378,263.369c0-0.104-0.104-0.207-0.104-0.207c-0.104,0-0.207,0.104-0.207,0.207l0,0
		c0,0.105,0.104,0.105,0.207,0.105C374.273,263.475,374.378,263.475,374.378,263.369L374.378,263.369h-0.104H374.378z"/>
	<path fill="#FFE62C" d="M373.547,260.043c0,0,0.209-0.312,0.416-0.312h0.207v0.209c0,0.312-0.311,0.416-0.311,0.416h0.727
		c0,0-0.312-0.104-0.312-0.416v-0.209h0.207c0.209,0,0.416,0.312,0.416,0.312v-0.831c0,0-0.207,0.312-0.416,0.312h-0.207v-0.207
		c0-0.312,0.312-0.416,0.312-0.416h-0.727c0,0,0.311,0.104,0.311,0.416v0.207h-0.207c-0.207,0-0.416-0.312-0.416-0.312V260.043z"/>
	<path fill="none" d="M373.547,260.043c0,0,0.209-0.312,0.416-0.312h0.207v0.209c0,0.312-0.311,0.416-0.311,0.416h0.727
		c0,0-0.312-0.104-0.312-0.416v-0.209h0.207c0.209,0,0.416,0.312,0.416,0.312v-0.831c0,0-0.207,0.312-0.416,0.312h-0.207v-0.207
		c0-0.312,0.312-0.416,0.312-0.416h-0.727c0,0,0.311,0.104,0.311,0.416v0.207h-0.207c-0.207,0-0.416-0.312-0.416-0.312V260.043z"/>
	<path fill="#FFFFFF" d="M374.378,259.627c0-0.104,0-0.104-0.104-0.104c-0.104,0-0.207,0-0.207,0.104l0,0
		c0,0.104,0.104,0.209,0.207,0.209S374.378,259.73,374.378,259.627L374.378,259.627h-0.104H374.378z"/>
	<path fill="none" d="M374.378,259.627c0-0.104,0-0.104-0.104-0.104c-0.104,0-0.207,0-0.207,0.104l0,0
		c0,0.104,0.104,0.209,0.207,0.209S374.378,259.73,374.378,259.627L374.378,259.627h-0.104H374.378z"/>
	<rect x="373.859" y="260.355" fill="#FFE62C" width="0.727" height="0.52"/>
	<rect x="373.859" y="260.355" fill="none" width="0.727" height="0.52"/>
	<rect x="373.859" y="260.668" fill="#FFE62C" width="0.727" height="1.975"/>
	<rect x="373.859" y="260.668" fill="none" width="0.727" height="1.975"/>
	<path fill="#FFFFFF" d="M374.378,262.33c0-0.104-0.104-0.207-0.104-0.207c-0.104,0-0.207,0.104-0.207,0.207l0,0
		c0,0,0.104,0.104,0.207,0.104L374.378,262.33v-0.104l-0.104,0.104H374.378z"/>
	<path fill="none" d="M374.378,262.33c0-0.104-0.104-0.207-0.104-0.207c-0.104,0-0.207,0.104-0.207,0.207l0,0
		c0,0,0.104,0.104,0.207,0.104L374.378,262.33v-0.104l-0.104,0.104H374.378z"/>
	<path fill="#FFFFFF" d="M374.378,261.811c0-0.104-0.104-0.104-0.104-0.104c-0.104,0-0.207,0-0.207,0.104l0,0
		c0,0.104,0.104,0.209,0.207,0.209C374.273,262.02,374.378,261.914,374.378,261.811L374.378,261.811h-0.104H374.378z"/>
	<path fill="none" d="M374.378,261.811c0-0.104-0.104-0.104-0.104-0.104c-0.104,0-0.207,0-0.207,0.104l0,0
		c0,0.104,0.104,0.209,0.207,0.209C374.273,262.02,374.378,261.914,374.378,261.811L374.378,261.811h-0.104H374.378z"/>
	<path fill="#FFFFFF" d="M374.378,261.395c0-0.104-0.104-0.207-0.104-0.207c-0.104,0-0.207,0.104-0.207,0.207l0,0
		c0,0.104,0.104,0.209,0.207,0.209C374.273,261.604,374.378,261.499,374.378,261.395L374.378,261.395h-0.104H374.378z"/>
	<path fill="none" d="M374.378,261.395c0-0.104-0.104-0.207-0.104-0.207c-0.104,0-0.207,0.104-0.207,0.207l0,0
		c0,0.104,0.104,0.209,0.207,0.209C374.273,261.604,374.378,261.499,374.378,261.395L374.378,261.395h-0.104H374.378z"/>
	<path fill="#FFFFFF" d="M374.378,260.979c0-0.104-0.104-0.207-0.104-0.207c-0.104,0-0.207,0.104-0.207,0.207l0,0
		c0,0.104,0.104,0.104,0.207,0.104C374.273,261.083,374.378,261.083,374.378,260.979L374.378,260.979h-0.104H374.378z"/>
	<path fill="none" d="M374.378,260.979c0-0.104-0.104-0.207-0.104-0.207c-0.104,0-0.207,0.104-0.207,0.207l0,0
		c0,0.104,0.104,0.104,0.207,0.104C374.273,261.083,374.378,261.083,374.378,260.979L374.378,260.979h-0.104H374.378z"/>
	<path fill="#231F20" d="M374.586,265.657L374.586,265.657c0-0.104-0.208-0.209-0.312-0.209c-0.207,0-0.414,0.104-0.414,0.209l0,0
		c0,0,0.207,0.104,0.414,0.104C374.378,265.761,374.586,265.657,374.586,265.657L374.586,265.657h-0.312H374.586z"/>
	<path fill="#231F20" d="M377.697,265.969c0-0.104,0-0.104,0-0.104s-0.208-0.104-0.414-0.104c-0.207,0-0.312,0.104-0.312,0.104l0,0
		c0,0.104,0.104,0.208,0.312,0.208c0.206,0,0.414-0.104,0.414-0.208l0,0h-0.414L377.697,265.969z"/>
	<path fill="#231F20" d="M376.348,265.761L376.348,265.761c0-0.104-0.104-0.208-0.311-0.208s-0.312,0.104-0.415,0.208l0,0
		c0,0,0.208,0.104,0.415,0.104C376.244,265.864,376.348,265.761,376.348,265.761L376.348,265.761h-0.311H376.348z"/>
	<path fill="#231F20" d="M370.746,265.969c0.623-0.104,0.623-0.104,0.623-0.104s-0.104-0.104-0.312-0.104
		c-0.207,0-0.312,0.104-0.312,0.104l0,0c0,0.104,0.104,0.208,0.312,0.208s0.312-0.104,0.312-0.208l0,0h-0.312L370.746,265.969z"/>
	<path fill="#231F20" d="M372.096,265.761c0.621-0.104,0.621-0.104,0.621-0.104s-0.103-0.104-0.31-0.104
		c-0.209,0-0.312,0-0.312,0.104l0,0c0,0.104,0.104,0.207,0.312,0.207c0.207,0,0.31-0.104,0.31-0.207l0,0h-0.31L372.096,265.761z"/>
	<path fill="#FFFFFF" d="M372.511,274.598"/>
	<path fill="#FFFFFF" d="M372.511,274.598"/>
	<path fill="#FFFFFF" d="M372.511,274.598"/>
	<path fill="#FFFFFF" d="M372.511,274.598"/>
	<path fill="#FFFFFF" d="M380.912,288.006"/>
</g>
</svg>
