<?xml version="1.0" encoding="utf-8"?>
<!-- Generator: Adobe Illustrator 16.0.0, SVG Export Plug-In . SVG Version: 6.00 Build 0)  -->
<!DOCTYPE svg PUBLIC "-//W3C//DTD SVG 1.1//EN" "http://www.w3.org/Graphics/SVG/1.1/DTD/svg11.dtd">
<svg version="1.1" id="West_Australia" xmlns="http://www.w3.org/2000/svg" xmlns:xlink="http://www.w3.org/1999/xlink" x="0px"
	 y="0px" width="100px" height="50px" viewBox="0 0 100 50" enable-background="new 0 0 100 50" xml:space="preserve">
<g id="au-wa">
	<polygon fill="#003974" points="400,301 400,251 300,251 300,301 	"/>
	<polygon fill="#003974" points="300.051,275.999 350.049,275.999 350.049,251.001 300.051,251.001 	"/>
	<path fill="#FFFFFF" d="M300.05,272.841l43.75-21.795h6.25v3.113l-43.75,21.796c0,0-6.25,0-6.25-0.09
		C300.05,275.688,300.05,272.841,300.05,272.841L300.05,272.841z"/>
	<path fill="#FFFFFF" d="M350.05,272.841l-43.75-21.795l-6.25-0.013v3.126l43.75,21.796c0,0,6.25,0.177,6.25,0
		C350.05,275.777,350.05,272.841,350.05,272.841L350.05,272.841z"/>
	<polygon fill="#EC1C24" points="300.051,275.999 304.738,275.999 329.736,263.5 325.05,263.5 	"/>
	<polygon fill="#EC1C24" points="325.05,263.5 350.049,251.001 345.361,251.001 320.363,263.5 	"/>
	<polygon fill="#EC1C24" points="300.051,253.344 300.051,251.001 325.05,263.5 320.363,263.5 	"/>
	<polygon fill="#EC1C24" points="329.736,263.5 350.049,273.656 350.049,275.999 325.05,263.5 	"/>
	<polygon fill="#FFFFFF" points="300,259.574 300,267.425 350,267.425 350,259.574 	"/>
	<polygon fill="#FFFFFF" points="321.136,276.059 328.964,276.059 328.964,251.059 321.136,251.059 	"/>
	<polygon fill="#EC1C24" points="300,261.204 300,265.914 350,265.914 350,261.204 	"/>
	<polygon fill="#EC1C24" points="322.701,276 327.398,276 327.398,251 322.701,251 	"/>
	<path fill="#FFDA00" d="M372.736,262.482L372.736,262.482c6.83,0,12.401,5.571,12.401,12.401l0,0
		c0,6.831-5.571,12.402-12.401,12.402l0,0c-6.83,0-12.402-5.572-12.402-12.402l0,0C360.334,268.054,365.906,262.482,372.736,262.482
		L372.736,262.482z"/>
	<path fill="#231F20" d="M364.416,269.707c0.545-0.877,0.934-0.782,0.985-0.83c0.051-0.048,0.939-0.1,1.479-0.506
		c0.538-0.405,0.493-0.793,0.493-0.793s1.107,0.414,1.066,1.695c-0.039,1.281-4.984,3.586-4.969,8.259
		c0.016,4.674,5.023,5.354,7.434,5.229s2.606-0.452,3.489-0.505c0.886-0.052,0.519,0.829,1.438,0.901
		c0.922,0.073,1.051,0.092,0.986,0c-0.064-0.091-0.697-0.416-0.492-0.47c0.205-0.053,3.531-0.895,4.928-2.199
		s1.396-1.735,1.479-1.73c-0.082-0.005-0.574,0.471-0.574,0.471l1.396-1.805c0,0-0.821,0.615-0.862,0.541
		c-0.041-0.072,1.441-2.384,1.438-2.309c-0.004,0.076-1.203,1.033-2.266,1.178s-2.16,0.193-2.652,0.193l1.346-2.094l-0.864,0.361
		c0,0,1.393-1.67,1.438-1.695c0.045-0.024-0.945,0.434-0.945,0.434s0.486-1.419,0.492-1.37s-0.977,0.479-0.977,0.479
		s0.196-0.432,0.196-0.625l-0.934,0.193l0.737-0.661c-0.491,0.05-1.214,0.218-1.159,0.23c0.055,0.012,0.369-0.698,0.369-0.698
		l-0.929,0.268c0,0,0.465-0.826,0.519-0.701c0.055,0.125-1.864,0.507-1.807,0.47c0.059-0.035,0.821-1.3,0.821-1.3l-1.149,0.865
		l0.41-1.298l-1.027,1.011l-0.082-0.865c0,0-1.754,1.357-2.299,2.02c-0.547,0.662-0.442,1.362-0.74,1.659
		c-0.297,0.298-1.939,0.617-3.246,2.022c-1.306,1.406-2.051,3.566-2.051,3.566s-1.561-0.685-1.355-2.669
		c0.205-1.983,3.74-5.476,4.066-7.501c0.324-2.025-1.652-2.965-2.629-2.922c-0.488,0.021-1.473,0.031-2.453,0.896
		c-0.521,0.459-0.053,0.908-0.49,1.293C364.033,268.782,364.375,269.742,364.416,269.707L364.416,269.707z"/>
	<path fill="#FFFFFF" d="M365.714,267.133c0.112,0.105-0.076-0.041-0.306-0.041c-0.231,0-0.42,0.146-0.42,0.325
		s0.188,0.325,0.42,0.325c0.229,0,0.418-0.146,0.418-0.325c0-0.001,0-0.004,0-0.005l-0.418,0.005L365.714,267.133L365.714,267.133z"
		/>
	<path fill="#231F20" d="M365.334,267.318c0.205,0.064,0.141,0.016,0.062,0.016c-0.077,0-0.142,0.05-0.142,0.111
		c0,0.061,0.063,0.108,0.142,0.108c0.077,0,0.143-0.05,0.143-0.108c0-0.002,0-0.002,0-0.002l-0.143,0.002L365.334,267.318
		L365.334,267.318z"/>
</g>
</svg>
