<?xml version="1.0" encoding="utf-8"?>
<!-- Generator: Adobe Illustrator 16.0.0, SVG Export Plug-In . SVG Version: 6.00 Build 0)  -->
<svg version="1.2" baseProfile="tiny" id="West_Australia"
	 xmlns="http://www.w3.org/2000/svg" xmlns:xlink="http://www.w3.org/1999/xlink" x="0px" y="0px" width="90px" height="50px"
	 viewBox="5 0 90 50" xml:space="preserve">
<g id="au-wa">
	<polygon fill="#1E3E71" points="95,50 95,0 5,0 5,50 	"/>
	<polygon fill="#1E3E71" points="5.046,24.999 50.044,24.999 50.044,0.001 5.046,0.001 	"/>
	<path fill="#FFFFFF" d="M5.045,21.841L44.42,0.046h5.625v3.113L10.67,24.955c0,0-5.625,0-5.625-0.09
		C5.045,24.688,5.045,21.841,5.045,21.841L5.045,21.841z"/>
	<path fill="#FFFFFF" d="M50.045,21.841L10.67,0.046L5.045,0.033v3.126L44.42,24.955c0,0,5.625,0.177,5.625,0
		C50.045,24.777,50.045,21.841,50.045,21.841L50.045,21.841z"/>
	<polygon fill="#E82429" points="5.046,24.999 9.265,24.999 31.763,12.5 27.545,12.5 	"/>
	<polygon fill="#E82429" points="27.545,12.5 50.044,0.001 45.825,0.001 23.327,12.5 	"/>
	<polygon fill="#E82429" points="5.046,2.344 5.046,0.001 27.545,12.5 23.327,12.5 	"/>
	<polygon fill="#E82429" points="31.763,12.5 50.044,22.656 50.044,24.999 27.545,12.5 	"/>
	<polygon fill="#FFFFFF" points="5,8.574 5,16.425 50,16.425 50,8.574 	"/>
	<polygon fill="#FFFFFF" points="24.022,25.059 31.067,25.059 31.067,0.059 24.022,0.059 	"/>
	<polygon fill="#E82429" points="5,10.204 5,14.914 50,14.914 50,10.204 	"/>
	<polygon fill="#E82429" points="25.431,25 29.659,25 29.659,0 25.431,0 	"/>
	<path fill="#FBD800" d="M72.861,11.482L72.861,11.482c6.83,0,12.4,5.568,12.4,12.398l0,0c0,6.831-5.57,12.402-12.4,12.402l0,0
		c-6.83,0-12.402-5.572-12.402-12.402l0,0C60.458,17.055,66.031,11.482,72.861,11.482L72.861,11.482z"/>
	<path fill="#211F1F" d="M64.541,18.707c0.545-0.877,0.934-0.782,0.984-0.83c0.052-0.048,0.938-0.1,1.479-0.506
		c0.538-0.405,0.493-0.793,0.493-0.793s1.106,0.414,1.065,1.695c-0.039,1.281-4.983,3.586-4.971,8.259
		c0.018,4.674,5.023,5.354,7.436,5.229c2.41-0.125,2.604-0.452,3.488-0.505c0.887-0.052,0.521,0.829,1.438,0.901
		c0.922,0.073,1.051,0.092,0.985,0c-0.063-0.091-0.696-0.416-0.492-0.47c0.205-0.056,3.529-0.896,4.929-2.199
		c1.396-1.305,1.396-1.735,1.479-1.73c-0.082-0.005-0.574,0.471-0.574,0.471l1.396-1.805c0,0-0.82,0.615-0.861,0.541
		c-0.041-0.072,1.44-2.384,1.438-2.309c-0.004,0.076-1.203,1.033-2.267,1.178c-1.062,0.145-2.159,0.193-2.651,0.193l1.347-2.094
		l-0.863,0.358c0,0,1.394-1.67,1.438-1.692c0.045-0.024-0.944,0.434-0.944,0.434s0.485-1.419,0.491-1.37
		c0.007,0.049-0.977,0.479-0.977,0.479s0.194-0.435,0.194-0.625l-0.935,0.19l0.737-0.661c-0.491,0.053-1.215,0.221-1.159,0.229
		c0.056,0.013,0.369-0.696,0.369-0.696l-0.929,0.271c0,0,0.465-0.826,0.519-0.701c0.056,0.125-1.864,0.507-1.808,0.47
		c0.06-0.035,0.819-1.3,0.819-1.3l-1.147,0.865l0.41-1.301l-1.026,1.014l-0.082-0.865c0,0-1.754,1.357-2.299,2.02
		c-0.548,0.662-0.442,1.362-0.74,1.659c-0.297,0.298-1.938,0.617-3.246,2.022c-1.306,1.406-2.051,3.563-2.051,3.563
		s-1.562-0.687-1.354-2.669c0.205-1.98,3.739-5.479,4.065-7.501c0.323-2.022-1.651-2.965-2.629-2.922
		c-0.488,0.021-1.474,0.028-2.453,0.896c-0.521,0.459-0.054,0.907-0.49,1.293C64.158,17.782,64.5,18.742,64.541,18.707
		L64.541,18.707z"/>
	<path fill="#FFFFFF" d="M65.838,16.133c0.112,0.105-0.074-0.041-0.306-0.041s-0.421,0.146-0.421,0.325s0.188,0.325,0.421,0.325
		c0.229,0,0.418-0.146,0.418-0.325c0-0.001,0-0.004,0-0.005l-0.418,0.005L65.838,16.133L65.838,16.133z"/>
	<path fill="#211F1F" d="M65.458,16.318c0.205,0.062,0.142,0.016,0.062,0.016c-0.078,0-0.144,0.05-0.144,0.111
		c0,0.061,0.063,0.105,0.144,0.105c0.076,0,0.144-0.05,0.144-0.105c0-0.002,0-0.002,0-0.002l-0.144,0.002L65.458,16.318
		L65.458,16.318z"/>
</g>
</svg>
