<?xml version="1.0" encoding="utf-8"?>
<!-- Generator: Adobe Illustrator 16.0.0, SVG Export Plug-In . SVG Version: 6.00 Build 0)  -->
<!DOCTYPE svg PUBLIC "-//W3C//DTD SVG 1.1//EN" "http://www.w3.org/Graphics/SVG/1.1/DTD/svg11.dtd">
<svg version="1.1" id="name" xmlns="http://www.w3.org/2000/svg" xmlns:xlink="http://www.w3.org/1999/xlink" x="0px" y="0px"
	 width="85.711px" height="50px" viewBox="358 276 85.711 50" enable-background="new 358 276 85.711 50" xml:space="preserve">
<g id="au_1_">
	<g>
		<defs>
			<rect id="SVGID_1_" x="358" y="276" width="85.711" height="50"/>
		</defs>
		<clipPath id="SVGID_2_">
			<use xlink:href="#SVGID_1_"  overflow="visible"/>
		</clipPath>
		<rect x="358" y="276" clip-path="url(#SVGID_2_)" fill="#2C2A7C" width="85.711" height="50"/>
		<polygon clip-path="url(#SVGID_2_)" fill="#FFFFFF" points="380.548,306.631 381.854,310.691 385.838,309.182 383.48,312.729 
			387.144,314.903 382.9,315.273 383.484,319.491 380.548,316.406 377.614,319.491 378.199,315.273 373.955,314.903 
			377.619,312.729 375.261,309.182 379.245,310.691 		"/>
		<polygon clip-path="url(#SVGID_2_)" fill="#FFFFFF" points="425.646,313.936 426.27,315.865 428.164,315.148 427.043,316.838 
			428.789,317.873 426.766,318.049 427.045,320.057 425.646,318.586 424.249,320.057 424.527,318.049 422.506,317.873 
			424.252,316.838 423.127,315.148 425.025,315.865 		"/>
		<polygon clip-path="url(#SVGID_2_)" fill="#FFFFFF" points="414.373,296.084 414.994,298.016 416.891,297.296 415.769,298.989 
			417.514,300.021 415.493,300.197 415.77,302.205 414.373,300.736 412.973,302.205 413.253,300.197 411.231,300.021 
			412.977,298.989 411.854,297.296 413.752,298.016 		"/>
		<polygon clip-path="url(#SVGID_2_)" fill="#FFFFFF" points="425.646,283.87 426.27,285.801 428.164,285.084 427.043,286.773 
			428.789,287.81 426.766,287.985 427.045,289.993 425.646,288.524 424.249,289.993 424.527,287.985 422.506,287.81 
			424.252,286.773 423.127,285.084 425.025,285.801 		"/>
		<polygon clip-path="url(#SVGID_2_)" fill="#FFFFFF" points="435.67,293.079 436.289,295.008 438.188,294.292 437.064,295.98 
			438.809,297.015 436.787,297.192 437.066,299.202 435.67,297.731 434.271,299.202 434.551,297.192 432.527,297.015 
			434.271,295.98 433.15,294.292 435.048,295.008 		"/>
		<polygon clip-path="url(#SVGID_2_)" fill="#FFFFFF" points="430.158,302.123 430.648,303.328 431.943,303.423 430.951,304.261 
			431.261,305.523 430.158,304.839 429.052,305.523 429.363,304.261 428.369,303.423 429.667,303.328 		"/>
		<polygon clip-path="url(#SVGID_2_)" fill="#FFFFFF" points="376.79,276 376.79,283.515 358,283.515 358,291.033 376.79,291.033 
			376.79,298.552 384.308,298.552 384.308,291.033 403.1,291.033 403.1,283.515 384.308,283.515 384.308,276 		"/>
		<polygon clip-path="url(#SVGID_2_)" fill="#FFFFFF" points="358,276 358,278.52 398.056,298.552 403.098,298.552 403.098,296.029 
			363.043,276 		"/>
		<polygon clip-path="url(#SVGID_2_)" fill="#FFFFFF" points="398.056,276 358,296.029 358,298.552 363.043,298.552 403.098,278.52 
			403.098,276 		"/>
		<polygon clip-path="url(#SVGID_2_)" fill="#E91E26" points="378.294,276 378.294,285.02 358,285.02 358,289.529 378.294,289.529 
			378.294,298.552 382.805,298.552 382.805,289.529 403.098,289.529 403.098,285.02 382.805,285.02 382.805,276 		"/>
		<path clip-path="url(#SVGID_2_)" fill="#E91E26" d="M358,276v1.683l11.671,5.832h3.362L358,276z M399.737,276l-15.032,7.515h3.361
			L403.098,276H399.737z"/>
		<path clip-path="url(#SVGID_2_)" fill="#E91E26" d="M373.034,291.033L358,298.552h3.362l15.032-7.519H373.034z M388.065,291.033
			l15.034,7.519v-1.682l-11.672-5.837H388.065z"/>
	</g>
</g>
</svg>
