<?xml version="1.0" encoding="utf-8"?>
<!-- Generator: Adobe Illustrator 16.0.0, SVG Export Plug-In . SVG Version: 6.00 Build 0)  -->
<!DOCTYPE svg PUBLIC "-//W3C//DTD SVG 1.1//EN" "http://www.w3.org/Graphics/SVG/1.1/DTD/svg11.dtd">
<svg version="1.1" id="name" xmlns="http://www.w3.org/2000/svg" xmlns:xlink="http://www.w3.org/1999/xlink" x="0px" y="0px"
	 width="85.72px" height="50px" viewBox="358 276 85.72 50" enable-background="new 358 276 85.72 50" xml:space="preserve">
<g id="ax">
	<g>
		<defs>
			<rect id="SVGID_1_" x="358" y="276" width="85.72" height="50"/>
		</defs>
		<clipPath id="SVGID_2_">
			<use xlink:href="#SVGID_1_"  overflow="visible"/>
		</clipPath>
		<rect x="358" y="308.352" clip-path="url(#SVGID_2_)" fill="#2D52A1" width="23.53" height="17.648"/>
		<rect x="396.238" y="308.352" clip-path="url(#SVGID_2_)" fill="#2D52A1" width="47.482" height="17.648"/>
		<rect x="358" y="276" clip-path="url(#SVGID_2_)" fill="#2D52A1" width="23.53" height="17.648"/>
		<rect x="396.238" y="276" clip-path="url(#SVGID_2_)" fill="#2D52A1" width="47.482" height="17.648"/>
		<polygon clip-path="url(#SVGID_2_)" fill="#F6CD2A" points="381.53,276 381.53,293.648 358,293.648 358,298.059 385.944,298.059 
			385.944,276 		"/>
		<polygon clip-path="url(#SVGID_2_)" fill="#F6CD2A" points="396.238,293.648 396.238,276 391.825,276 391.825,298.059 
			443.72,298.059 443.72,293.648 		"/>
		<polygon clip-path="url(#SVGID_2_)" fill="#F6CD2A" points="358,303.941 358,308.352 381.53,308.352 381.53,326 385.944,326 
			385.944,303.941 		"/>
		<polygon clip-path="url(#SVGID_2_)" fill="#F6CD2A" points="391.825,303.941 391.825,326 396.238,326 396.238,308.352 
			443.72,308.352 443.72,303.941 		"/>
		<polygon clip-path="url(#SVGID_2_)" fill="#C01F3F" points="385.944,276 385.944,298.059 358,298.059 358,303.941 
			385.944,303.941 385.944,326 391.825,326 391.825,303.941 443.72,303.941 443.72,298.059 391.825,298.059 391.825,276 		"/>
	</g>
</g>
</svg>
