<?xml version="1.0" encoding="utf-8"?>
<!-- Generator: Adobe Illustrator 16.0.0, SVG Export Plug-In . SVG Version: 6.00 Build 0)  -->
<!DOCTYPE svg PUBLIC "-//W3C//DTD SVG 1.1//EN" "http://www.w3.org/Graphics/SVG/1.1/DTD/svg11.dtd">
<svg version="1.1" id="name" xmlns="http://www.w3.org/2000/svg" xmlns:xlink="http://www.w3.org/1999/xlink" x="0px" y="0px"
	 width="85.717px" height="50px" viewBox="358 276 85.717 50" enable-background="new 358 276 85.717 50" xml:space="preserve">
<g id="az">
	<g>
		<defs>
			<rect id="SVGID_1_" x="358" y="276" width="85.717" height="50"/>
		</defs>
		<clipPath id="SVGID_2_">
			<use xlink:href="#SVGID_1_"  overflow="visible"/>
		</clipPath>
		<rect x="358" y="276" clip-path="url(#SVGID_2_)" fill="#4490C3" width="85.717" height="50"/>
		<rect x="358" y="292.665" clip-path="url(#SVGID_2_)" fill="#D61E42" width="85.717" height="16.669"/>
		<rect x="358" y="309.334" clip-path="url(#SVGID_2_)" fill="#49AE68" width="85.717" height="16.666"/>
		<g clip-path="url(#SVGID_2_)">
			<defs>
				<rect id="SVGID_3_" x="358" y="276" width="85.717" height="50"/>
			</defs>
			<clipPath id="SVGID_4_">
				<use xlink:href="#SVGID_3_"  overflow="visible"/>
			</clipPath>
			<path clip-path="url(#SVGID_4_)" fill="#FFFFFF" d="M402.551,306.836c-3.222,0-5.833-2.613-5.833-5.837
				c0-3.222,2.611-5.832,5.833-5.832c1.168,0,2.254,0.344,3.166,0.933c-1.271-1.295-3.043-2.101-5.001-2.101
				c-3.863,0-6.999,3.134-6.999,7c0,3.871,3.135,7.002,6.999,7.002c1.958,0,3.73-0.803,5.001-2.101
				C404.805,306.492,403.719,306.836,402.551,306.836"/>
			<polygon clip-path="url(#SVGID_4_)" fill="#FFFFFF" points="410.45,303.656 408.538,302.784 407.796,304.75 407.061,302.784 
				405.148,303.648 406.018,301.734 404.049,300.999 406.018,300.26 405.15,298.346 407.062,299.214 407.805,297.252 
				408.541,299.219 410.453,298.349 409.586,300.26 411.55,301.003 409.586,301.742 			"/>
		</g>
	</g>
</g>
</svg>
