<?xml version="1.0" encoding="utf-8"?>
<!-- Generator: Adobe Illustrator 16.0.0, SVG Export Plug-In . SVG Version: 6.00 Build 0)  -->
<!DOCTYPE svg PUBLIC "-//W3C//DTD SVG 1.1//EN" "http://www.w3.org/Graphics/SVG/1.1/DTD/svg11.dtd">
<svg version="1.1" id="name" xmlns="http://www.w3.org/2000/svg" xmlns:xlink="http://www.w3.org/1999/xlink" x="0px" y="0px"
	 width="85.716px" height="50px" viewBox="358 276 85.716 50" enable-background="new 358 276 85.716 50" xml:space="preserve">
<g id="ba-bih">
	<g>
		<defs>
			<rect id="SVGID_1_" x="358" y="276" width="85.713" height="50"/>
		</defs>
		<clipPath id="SVGID_2_">
			<use xlink:href="#SVGID_1_"  overflow="visible"/>
		</clipPath>
		<rect x="373.402" y="276" clip-path="url(#SVGID_2_)" fill="#FFFFFF" width="55.142" height="50"/>
		<rect x="358" y="276" clip-path="url(#SVGID_2_)" fill="#CB202B" width="15.895" height="50"/>
		<rect x="427.822" y="276" clip-path="url(#SVGID_2_)" fill="#3D9447" width="15.894" height="50"/>
		<polygon clip-path="url(#SVGID_2_)" fill-rule="evenodd" clip-rule="evenodd" fill="#FDF8F8" points="387.06,285.904 
			414.855,285.904 414.855,299.562 387.06,299.5 		"/>
		<g clip-path="url(#SVGID_2_)">
			<path fill="#9A8B41" d="M415.212,299.921l-28.511-0.063v-14.311h28.511V299.921L415.212,299.921z M387.416,299.145l27.083,0.061
				v-12.944h-27.083V299.145L387.416,299.145z"/>
		</g>
		<g clip-path="url(#SVGID_2_)">
			<defs>
				<rect id="SVGID_3_" x="358" y="276" width="85.716" height="50"/>
			</defs>
			<clipPath id="SVGID_4_">
				<use xlink:href="#SVGID_3_"  overflow="visible"/>
			</clipPath>
			<path clip-path="url(#SVGID_4_)" fill-rule="evenodd" clip-rule="evenodd" fill="#3C3570" d="M414.855,299.296
				c-0.22,16.021-13.38,15.261-13.932,17.35c-0.565-2.188-13.845-1.88-13.864-17.415L414.855,299.296z"/>
			<g clip-path="url(#SVGID_4_)">
				<path fill="#9A8B41" d="M400.921,318.061l-0.344-1.326c-0.102-0.396-1.212-0.834-2.388-1.297
					c-4.01-1.573-11.473-4.507-11.488-16.207v-0.357l28.516,0.066l-0.005,0.361c-0.166,12.162-7.664,14.859-11.689,16.307
					c-1.111,0.398-2.159,0.775-2.253,1.129L400.921,318.061L400.921,318.061z M387.419,299.589
					c0.16,10.914,6.953,13.583,11.032,15.186c1.154,0.453,2.024,0.794,2.484,1.239c0.447-0.396,1.266-0.691,2.346-1.078
					c3.824-1.375,10.908-3.922,11.211-15.284L387.419,299.589L387.419,299.589z"/>
			</g>
			<path clip-path="url(#SVGID_4_)" fill-rule="evenodd" clip-rule="evenodd" fill="#2C693C" d="M388.503,287.242h10.907v5.396
				c-0.353,3.022-3.287,5.511-5.577,5.762c-2.449-0.44-5.143-3.034-5.33-5.762V287.242z"/>
			<g clip-path="url(#SVGID_4_)">
				<path fill="#9A8B41" d="M393.827,298.572l-0.025-0.004c-2.418-0.435-5.273-3.059-5.47-5.918l-0.001-5.58h11.251v5.567
					c-0.358,3.083-3.32,5.668-5.73,5.933L393.827,298.572L393.827,298.572z M388.673,287.413v5.225
					c0.188,2.687,2.876,5.163,5.165,5.589c2.279-0.266,5.066-2.712,5.401-5.609v-5.204H388.673L388.673,287.413z"/>
			</g>
			<path clip-path="url(#SVGID_4_)" fill-rule="evenodd" clip-rule="evenodd" fill="#9A8B41" d="M394.344,296.379l0.103-0.695
				l0.327,0.007v-0.456l-0.276,0.002l0.091-0.608l1.048,0.015v-0.499h-0.834c0.572-0.983,1.348-0.956,1.753-0.636
				c0.263,0.352,0.244,0.777-0.086,1.135c0.524,0.047,1.252-0.18,1.333-1.186c-0.004-0.584-0.682-1.65-2.116-1.028
				c-0.742,0.315-1.063,1.019-1.191,1.658c-0.017,0.081-0.147,0.016-0.173,0.044c-0.122-1.121,0.888-2.443,0.921-3.733
				c-0.073-1.491-0.978-1.729-1.353-2.431c-0.375,0.701-1.281,0.939-1.355,2.431c0.034,1.29,1.043,2.612,0.922,3.733
				c-0.027-0.028-0.154,0.037-0.172-0.044c-0.131-0.64-0.452-1.343-1.19-1.658c-1.435-0.622-2.115,0.444-2.116,1.028
				c0.079,1.006,0.807,1.232,1.329,1.186c-0.326-0.357-0.348-0.783-0.082-1.135c0.403-0.32,1.178-0.348,1.753,0.636h-0.835
				l-0.002,0.499l1.047-0.015l0.091,0.608l-0.275-0.002v0.456l0.33-0.007l0.099,0.695H394.344z"/>
			<path clip-path="url(#SVGID_4_)" fill-rule="evenodd" clip-rule="evenodd" fill="#C4202F" d="M402.525,287.17h10.846l0.071,6.51
				c-0.249,2.42-2.902,4.602-5.427,4.607c-2.184-0.006-5.502-2.041-5.42-4.607L402.525,287.17z"/>
			<g clip-path="url(#SVGID_4_)">
				<path fill="#D41F36" d="M408.017,298.572h-0.002c-1.467-0.004-3.299-0.845-4.46-2.045c-0.845-0.875-1.276-1.863-1.245-2.858
					l-0.074-6.784h11.419l0.073,6.79C413.467,296.248,410.744,298.566,408.017,298.572L408.017,298.572z M402.812,287.455
					l0.067,6.22c-0.034,1.068,0.573,1.923,1.086,2.456c1.061,1.098,2.728,1.867,4.05,1.871c2.414-0.008,4.914-2.123,5.141-4.353
					l-0.067-6.194H402.812L402.812,287.455z"/>
			</g>
			
				<rect x="404.857" y="287.275" clip-path="url(#SVGID_4_)" fill-rule="evenodd" clip-rule="evenodd" fill="#FBF8FB" width="2.105" height="2.21"/>
			
				<rect x="409.04" y="287.275" clip-path="url(#SVGID_4_)" fill-rule="evenodd" clip-rule="evenodd" fill="#FBF8FB" width="2.043" height="2.237"/>
			
				<rect x="402.658" y="289.476" clip-path="url(#SVGID_4_)" fill-rule="evenodd" clip-rule="evenodd" fill="#FBF8FB" width="2.23" height="2.115"/>
			
				<rect x="406.928" y="289.502" clip-path="url(#SVGID_4_)" fill-rule="evenodd" clip-rule="evenodd" fill="#FBF8FB" width="2.116" height="2.072"/>
			
				<rect x="404.85" y="291.58" clip-path="url(#SVGID_4_)" fill-rule="evenodd" clip-rule="evenodd" fill="#FBF8FB" width="2.1" height="2.096"/>
			
				<rect x="409.006" y="291.55" clip-path="url(#SVGID_4_)" fill-rule="evenodd" clip-rule="evenodd" fill="#FBF8FB" width="2.081" height="2.213"/>
			<path clip-path="url(#SVGID_4_)" fill-rule="evenodd" clip-rule="evenodd" fill="#FBF8FB" d="M402.688,293.656h2.166v2.087
				l-1.441,0.009c-0.246-0.318-0.359-0.603-0.538-0.988C402.761,294.396,402.695,294.049,402.688,293.656L402.688,293.656z"/>
			
				<rect x="406.943" y="293.668" clip-path="url(#SVGID_4_)" fill-rule="evenodd" clip-rule="evenodd" fill="#FBF8FB" width="2.116" height="2.081"/>
			<path clip-path="url(#SVGID_4_)" fill-rule="evenodd" clip-rule="evenodd" fill="#FBF8FB" d="M404.85,295.733h2.055v2.188
				l-0.479-0.028c-0.517-0.203-1.119-0.513-1.576-0.803V295.733z"/>
			<path clip-path="url(#SVGID_4_)" fill-rule="evenodd" clip-rule="evenodd" fill="#FBF8FB" d="M409.006,295.733h2.081l-0.01,1.416
				c-0.458,0.3-1.049,0.638-1.611,0.806l-0.46-0.009V295.733z"/>
			
				<rect x="411.086" y="289.5" clip-path="url(#SVGID_4_)" fill-rule="evenodd" clip-rule="evenodd" fill="#FBF8FB" width="2.256" height="2.06"/>
			<path clip-path="url(#SVGID_4_)" fill-rule="evenodd" clip-rule="evenodd" fill="#FBF8FB" d="M411.083,293.769h2.248
				c-0.05,0.413-0.188,0.745-0.325,1.128c-0.167,0.324-0.334,0.649-0.528,0.875l-1.395-0.019V293.769z"/>
			<polygon clip-path="url(#SVGID_4_)" fill-rule="evenodd" clip-rule="evenodd" fill="#FFFFFF" points="400.358,300.359 
				400.354,300.358 400.358,301.114 399.723,301.471 400.358,301.833 400.358,302.567 401.004,302.198 401.639,302.567 
				401.639,302.561 401.642,301.839 402.276,301.451 401.639,301.089 401.639,300.354 401.004,300.729 			"/>
			<g clip-path="url(#SVGID_4_)">
				<path fill="#FFFFFF" d="M401.676,302.623l-0.054-0.024l-0.637-0.37l-0.609,0.37l-0.053-0.766l-0.619-0.331l0.638-0.419
					l-0.022-0.725l0.703,0.339l0.6-0.374l0.054,0.766l0.619,0.331l-0.635,0.45L401.676,302.623L401.676,302.623z M400.342,300.391
					l0.054,0.724l-0.656,0.388l0.637,0.3l0.02,0.766l0.591-0.4l0.617,0.341l0.001-0.669l0.653-0.417l-0.636-0.302l-0.019-0.766
					l-0.581,0.405L400.342,300.391L400.342,300.391z"/>
			</g>
			<polygon clip-path="url(#SVGID_4_)" fill-rule="evenodd" clip-rule="evenodd" fill="#FFFFFF" points="404.363,301.292 
				404.362,301.286 403.903,301.887 403.183,301.779 403.463,302.455 403.016,303.035 403.75,303.142 404.026,303.819 
				404.031,303.816 404.475,303.246 405.216,303.326 404.932,302.65 405.381,302.07 404.65,301.979 			"/>
			<g clip-path="url(#SVGID_4_)">
				<path fill="#FFFFFF" d="M404.02,303.886l-0.025-0.052l-0.278-0.68l-0.705-0.084l0.424-0.638l-0.284-0.64l0.759,0.061
					l0.426-0.588l0.348,0.698l0.702,0.071l-0.426,0.638l0.288,0.641l-0.775-0.031L404.02,303.886L404.02,303.886z M403.177,301.814
					l0.32,0.627l-0.453,0.616l0.711,0.048l0.282,0.646l0.408-0.526l0.773,0.067l-0.321-0.628l0.454-0.615l-0.707-0.035l-0.313-0.707
					l-0.399,0.602L403.177,301.814L403.177,301.814z"/>
			</g>
			<polygon clip-path="url(#SVGID_4_)" fill-rule="evenodd" clip-rule="evenodd" fill="#FFFFFF" points="406.853,304.188 
				406.853,304.184 406.134,304.416 405.601,303.914 405.447,304.631 404.747,304.852 405.291,305.357 405.131,306.072 
				405.136,306.069 405.825,305.856 406.387,306.348 406.543,305.629 407.241,305.41 406.694,304.914 			"/>
			<g clip-path="url(#SVGID_4_)">
				<path fill="#FFFFFF" d="M406.409,306.414l-0.608-0.531l-0.653,0.221l0.108-0.754l-0.533-0.471l0.715-0.283l0.128-0.688
					l0.592,0.481l0.684-0.238l-0.11,0.771l0.533,0.461l-0.711,0.28L406.409,306.414L406.409,306.414z M405.815,305.822l0.548,0.46
					l0.144-0.661l0.724-0.245l-0.561-0.435l0.146-0.76l-0.672,0.268l-0.568-0.508l-0.094,0.695l-0.726,0.249l0.559,0.444
					l-0.151,0.75L405.815,305.822L405.815,305.822z"/>
			</g>
			<polygon clip-path="url(#SVGID_4_)" fill-rule="evenodd" clip-rule="evenodd" fill="#FFFFFF" points="407.237,308.049 
				407.243,308.043 406.52,307.822 406.369,307.106 405.834,307.607 405.133,307.388 405.291,308.112 404.75,308.607 
				404.757,308.612 405.443,308.826 405.625,309.551 406.16,309.051 406.862,309.27 406.696,308.551 			"/>
			<g clip-path="url(#SVGID_4_)">
				<path fill="#FFFFFF" d="M405.604,309.619l-0.195-0.783l-0.662-0.189l0.52-0.561l-0.169-0.689l0.746,0.178l0.501-0.494
					l0.209,0.735l0.699,0.192l-0.533,0.57l0.178,0.684l-0.747-0.177L405.604,309.619L405.604,309.619z M405.122,307.422l0.204,0.684
					l-0.551,0.527l0.679,0.16l0.19,0.693l0.492-0.463l0.735,0.213l-0.21-0.677l0.551-0.537l-0.704-0.166l-0.174-0.743l-0.478,0.52
					L405.122,307.422L405.122,307.422z"/>
			</g>
			<polygon clip-path="url(#SVGID_4_)" fill-rule="evenodd" clip-rule="evenodd" fill="#FFFFFF" points="405.153,311.592 
				405.159,311.59 404.723,310.975 405.041,310.316 404.311,310.385 403.892,309.783 403.57,310.453 402.842,310.513 
				402.845,310.52 403.255,311.111 402.954,311.795 403.688,311.728 404.107,312.328 404.414,311.66 			"/>
			<g clip-path="url(#SVGID_4_)">
				<path fill="#FFFFFF" d="M404.113,312.4l-0.455-0.652l-0.701,0.08l0.264-0.731l-0.406-0.557l0.753-0.122l0.29-0.649l0.483,0.597
					l0.696-0.084l-0.281,0.709l0.432,0.58l-0.771,0.126L404.113,312.4L404.113,312.4z M403.685,311.691l0.416,0.567l0.281-0.612
					l0.767-0.09l-0.455-0.562l0.314-0.693l-0.692,0.119l-0.453-0.617l-0.258,0.666l-0.76,0.08l0.438,0.542l-0.295,0.718
					L403.685,311.691L403.685,311.691z"/>
			</g>
			<polygon clip-path="url(#SVGID_4_)" fill-rule="evenodd" clip-rule="evenodd" fill="#FFFFFF" points="401.645,313.1 
				401.65,313.102 401.645,312.347 402.279,311.988 401.642,311.627 401.642,310.894 400.998,311.264 400.361,310.894 
				400.361,310.902 400.361,311.621 399.726,312.012 400.364,312.374 400.366,313.105 401.001,312.736 			"/>
			<g clip-path="url(#SVGID_4_)">
				<path fill="#FFFFFF" d="M400.33,313.168l-0.001-0.794l-0.621-0.333l0.634-0.451l-0.015-0.688l0.689,0.33l0.607-0.37l0.055,0.765
					l0.619,0.33l-0.637,0.421l0.023,0.724l-0.702-0.334L400.33,313.168L400.33,313.168z M400.982,312.705l0.679,0.363l-0.054-0.722
					l0.655-0.39l-0.639-0.299l-0.017-0.765l-0.593,0.401l-0.67-0.37l0.053,0.696l-0.652,0.42l0.637,0.302l0.02,0.702
					L400.982,312.705L400.982,312.705z"/>
			</g>
			<polygon clip-path="url(#SVGID_4_)" fill-rule="evenodd" clip-rule="evenodd" fill="#FFFFFF" points="396.655,302.079 
				396.651,302.083 397.123,302.673 396.842,303.348 397.567,303.238 398.021,303.816 398.299,303.127 399.026,303.025 
				399.021,303.02 398.577,302.451 398.839,301.754 398.111,301.861 397.658,301.286 397.39,301.97 			"/>
			<g clip-path="url(#SVGID_4_)">
				<path fill="#FFFFFF" d="M398.029,303.886l-0.49-0.625l-0.692,0.121l0.242-0.724l-0.466-0.554l0.761-0.169l0.242-0.662
					l0.514,0.565l0.693-0.12l-0.222,0.745l0.439,0.532l-0.746,0.166L398.029,303.886L398.029,303.886z M397.562,303.203l0.447,0.543
					l0.258-0.631l0.754-0.125l-0.472-0.517l0.256-0.733l-0.688,0.156l-0.487-0.589l-0.206,0.677l-0.765,0.13l0.492,0.536
					l-0.277,0.711L397.562,303.203L397.562,303.203z"/>
			</g>
			<polygon clip-path="url(#SVGID_4_)" fill-rule="evenodd" clip-rule="evenodd" fill="#FFFFFF" points="397.671,312.172 
				397.675,312.176 398.117,311.562 398.842,311.65 398.54,310.98 398.973,310.387 398.235,310.307 397.938,309.634 
				397.936,309.638 397.509,310.221 396.765,310.159 397.067,310.83 396.636,311.422 397.367,311.493 			"/>
			<g clip-path="url(#SVGID_4_)">
				<path fill="#FFFFFF" d="M397.678,312.233l-0.032-0.038l-0.312-0.687l-0.703-0.053l0.406-0.647l-0.304-0.634l0.778,0.01
					l0.396-0.567l0.36,0.676l0.709,0.059l-0.408,0.65l0.306,0.633l-0.763-0.037L397.678,312.233L397.678,312.233z M396.762,310.195
					l0.338,0.619l-0.436,0.627l0.706,0.018l0.31,0.649l0.407-0.567l0.761,0.074l-0.34-0.619l0.436-0.631l-0.713-0.024l-0.323-0.692
					l-0.37,0.594L396.762,310.195L396.762,310.195z"/>
			</g>
			<polygon clip-path="url(#SVGID_4_)" fill-rule="evenodd" clip-rule="evenodd" fill="#FFFFFF" points="394.984,309.059 
				394.983,309.064 395.708,308.85 396.227,309.361 396.398,308.647 397.103,308.444 396.571,307.928 396.748,307.215 
				396.742,307.217 396.049,307.414 395.497,306.912 395.327,307.628 394.621,307.831 395.156,308.336 			"/>
			<g clip-path="url(#SVGID_4_)">
				<path fill="#FFFFFF" d="M396.246,309.43l-0.562-0.555l-0.69,0.225l0.129-0.771l-0.525-0.472l0.722-0.263l0.146-0.69l0.607,0.484
					l0.661-0.204l-0.127,0.752l0.522,0.483l-0.719,0.263L396.246,309.43L396.246,309.43z M395.699,308.815l0.507,0.478l0.158-0.652
					l0.729-0.23l-0.548-0.457l0.166-0.748l-0.654,0.244l-0.583-0.512l-0.112,0.699l-0.731,0.229l0.551,0.444l-0.161,0.757
					L395.699,308.815L395.699,308.815z"/>
			</g>
			<polygon clip-path="url(#SVGID_4_)" fill-rule="evenodd" clip-rule="evenodd" fill="#FFFFFF" points="394.682,305.251 
				394.68,305.256 395.396,305.492 395.531,306.211 396.078,305.721 396.773,305.957 396.631,305.229 397.183,304.745 
				397.178,304.744 396.495,304.51 396.33,303.783 395.781,304.272 395.087,304.038 395.236,304.758 			"/>
			<g clip-path="url(#SVGID_4_)">
				<path fill="#FFFFFF" d="M395.508,306.279l-0.146-0.779l-0.693-0.211l0.545-0.559l-0.161-0.688l0.743,0.195l0.513-0.481
					l0.222,0.745l0.66,0.208l-0.534,0.546l0.155,0.694l-0.745-0.194L395.508,306.279L395.508,306.279z M395.074,304.072l0.197,0.679
					l-0.563,0.526l0.698,0.182l0.146,0.684l0.502-0.447l0.731,0.228l-0.189-0.688l0.562-0.517l-0.676-0.176l-0.188-0.751
					l-0.488,0.507L395.074,304.072L395.074,304.072z"/>
			</g>
		</g>
	</g>
</g>
</svg>
