<?xml version="1.0" encoding="utf-8"?>
<!-- Generator: Adobe Illustrator 16.0.0, SVG Export Plug-In . SVG Version: 6.00 Build 0)  -->
<!DOCTYPE svg PUBLIC "-//W3C//DTD SVG 1.1//EN" "http://www.w3.org/Graphics/SVG/1.1/DTD/svg11.dtd">
<svg version="1.1" id="name" xmlns="http://www.w3.org/2000/svg" xmlns:xlink="http://www.w3.org/1999/xlink" x="0px" y="0px"
	 width="85.71px" height="50px" viewBox="358 276 85.71 50" enable-background="new 358 276 85.71 50" xml:space="preserve">
<g id="ba">
	<g>
		<defs>
			<rect id="SVGID_1_" x="358" y="276" width="85.71" height="50"/>
		</defs>
		<clipPath id="SVGID_2_">
			<use xlink:href="#SVGID_1_"  overflow="visible"/>
		</clipPath>
		<rect x="358" y="276" clip-path="url(#SVGID_2_)" fill="#302D86" width="85.714" height="50"/>
		<polygon clip-path="url(#SVGID_2_)" fill="#F5CD2B" points="377.356,276 427.357,326 427.357,276 		"/>
		<polygon clip-path="url(#SVGID_2_)" fill="#FFFFFF" points="370.092,276 368.356,276 366.624,276 365.567,279.279 368.356,277.25 
			371.149,279.279 		"/>
		<polygon clip-path="url(#SVGID_2_)" fill="#FFFFFF" points="417.295,323.969 413.84,323.969 416.621,326 418.357,326 420.094,326 
			422.875,323.969 419.42,323.969 418.357,320.688 		"/>
		<polygon clip-path="url(#SVGID_2_)" fill="#FFFFFF" points="374.606,283.5 377.399,285.529 376.334,282.246 379.125,280.221 
			375.672,280.221 374.606,276.936 373.54,280.221 370.088,280.221 372.881,282.246 371.813,285.529 		"/>
		<polygon clip-path="url(#SVGID_2_)" fill="#FFFFFF" points="380.858,289.75 383.651,291.781 382.584,288.498 385.374,286.47 
			381.924,286.47 380.858,283.185 379.792,286.47 376.34,286.47 379.131,288.496 378.065,291.781 		"/>
		<polygon clip-path="url(#SVGID_2_)" fill="#FFFFFF" points="387.108,296 389.901,298.029 388.833,294.748 391.625,292.719 
			388.172,292.719 387.108,289.436 386.042,292.719 382.59,292.719 385.381,294.748 384.315,298.029 		"/>
		<polygon clip-path="url(#SVGID_2_)" fill="#FFFFFF" points="393.358,302.25 396.149,304.281 395.083,300.997 397.875,298.969 
			394.424,298.969 393.358,295.687 392.29,298.969 388.84,298.969 391.633,300.997 390.565,304.281 		"/>
		<polygon clip-path="url(#SVGID_2_)" fill="#FFFFFF" points="399.608,308.502 402.398,310.529 401.332,307.247 404.123,305.219 
			400.674,305.219 399.608,301.936 398.542,305.219 395.09,305.219 397.881,307.247 396.815,310.529 		"/>
		<polygon clip-path="url(#SVGID_2_)" fill="#FFFFFF" points="405.855,314.752 408.648,316.779 407.584,313.499 410.377,311.467 
			406.924,311.467 405.855,308.188 404.791,311.467 401.342,311.467 404.131,313.499 403.062,316.779 		"/>
		<polygon clip-path="url(#SVGID_2_)" fill="#FFFFFF" points="412.105,321.001 414.896,323.029 413.834,319.746 416.623,317.719 
			413.174,317.719 412.105,314.437 411.041,317.719 407.59,317.719 410.381,319.746 409.316,323.029 		"/>
	</g>
</g>
</svg>
