<?xml version="1.0" encoding="utf-8"?>
<!-- Generator: Adobe Illustrator 16.0.0, SVG Export Plug-In . SVG Version: 6.00 Build 0)  -->
<!DOCTYPE svg PUBLIC "-//W3C//DTD SVG 1.1//EN" "http://www.w3.org/Graphics/SVG/1.1/DTD/svg11.dtd">
<svg version="1.1" id="name" xmlns="http://www.w3.org/2000/svg" xmlns:xlink="http://www.w3.org/1999/xlink" x="0px" y="0px"
	 width="85.718px" height="50px" viewBox="358 276 85.718 50" enable-background="new 358 276 85.718 50" xml:space="preserve">
<g id="bb">
	<g>
		<defs>
			<rect id="SVGID_1_" x="358" y="276" width="85.718" height="50"/>
		</defs>
		<clipPath id="SVGID_2_">
			<use xlink:href="#SVGID_1_"  overflow="visible"/>
		</clipPath>
		<rect x="358" y="276" clip-path="url(#SVGID_2_)" fill="#2C3078" width="85.718" height="50"/>
		<rect x="386.573" y="276" clip-path="url(#SVGID_2_)" fill="#F4C637" width="28.572" height="50"/>
		<g clip-path="url(#SVGID_2_)">
			<defs>
				<rect id="SVGID_3_" x="358" y="276" width="85.718" height="50"/>
			</defs>
			<clipPath id="SVGID_4_">
				<use xlink:href="#SVGID_3_"  overflow="visible"/>
			</clipPath>
			<path clip-path="url(#SVGID_4_)" fill="#010101" d="M400.86,287.156c-0.93,2.531-1.875,5.167-3.9,7.189
				c0.627-0.21,1.73-0.396,2.434-0.375v10.648l-3.002,0.447c-0.111-0.012-0.148-0.182-0.148-0.411
				c-0.289-3.306-1.07-6.084-1.969-8.958c-0.064-0.394-1.203-1.892-0.324-1.629c0.104,0.014,1.281,0.496,1.094,0.264
				c-1.6-1.656-3.938-2.848-6.211-3.204c-0.199-0.051-0.318,0.048-0.137,0.283c3.01,4.64,5.535,10.115,5.514,16.613
				c1.172,0,4.01-0.693,5.184-0.693v7.516h2.933v-7.516c1.174,0,4.01,0.693,5.184,0.693c-0.021-6.498,2.502-11.973,5.512-16.613
				c0.18-0.234,0.064-0.333-0.139-0.283c-2.271,0.355-4.609,1.547-6.211,3.204c-0.188,0.231,0.992-0.25,1.098-0.264
				c0.875-0.263-0.26,1.236-0.324,1.629c-0.9,2.874-1.684,5.653-1.971,8.958c0,0.229-0.037,0.399-0.146,0.411l-3.002-0.447v-10.648
				c0.703-0.021,1.805,0.165,2.434,0.375C402.732,292.323,401.789,289.688,400.86,287.156"/>
		</g>
	</g>
</g>
</svg>
