<?xml version="1.0" encoding="utf-8"?>
<!-- Generator: Adobe Illustrator 16.0.0, SVG Export Plug-In . SVG Version: 6.00 Build 0)  -->
<!DOCTYPE svg PUBLIC "-//W3C//DTD SVG 1.1//EN" "http://www.w3.org/Graphics/SVG/1.1/DTD/svg11.dtd">
<svg version="1.1" id="name" xmlns="http://www.w3.org/2000/svg" xmlns:xlink="http://www.w3.org/1999/xlink" x="0px" y="0px"
	 width="85.714px" height="50px" viewBox="358 276 85.714 50" enable-background="new 358 276 85.714 50" xml:space="preserve">
<g id="bi">
	<g>
		<defs>
			<rect id="SVGID_1_" x="358" y="276" width="85.714" height="50"/>
		</defs>
		<clipPath id="SVGID_2_">
			<use xlink:href="#SVGID_1_"  overflow="visible"/>
		</clipPath>
		<polygon clip-path="url(#SVGID_2_)" fill="#BD1F34" points="437.051,276 364.663,276 400.858,297.113 		"/>
		<polygon clip-path="url(#SVGID_2_)" fill="#BD1F34" points="364.663,326 437.051,326 400.858,304.887 		"/>
		<polygon clip-path="url(#SVGID_2_)" fill="#50B648" points="443.714,322.113 443.714,279.887 407.521,301 		"/>
		<polygon clip-path="url(#SVGID_2_)" fill="#50B648" points="358,322.113 394.193,301 358,279.887 		"/>
		<g clip-path="url(#SVGID_2_)">
			<defs>
				<rect id="SVGID_3_" x="358" y="276" width="85.714" height="50"/>
			</defs>
			<clipPath id="SVGID_4_">
				<use xlink:href="#SVGID_3_"  overflow="visible"/>
			</clipPath>
			<path clip-path="url(#SVGID_4_)" fill="#FFFFFF" d="M443.714,276h-6.663l-25.816,15.06c-2.643-2.608-6.316-4.226-10.376-4.226
				c-4.061,0-7.736,1.618-10.379,4.226L364.663,276H358v3.887l28.946,16.886c-0.429,1.335-0.661,2.754-0.661,4.227
				s0.231,2.892,0.661,4.227L358,322.113V326h6.663l25.816-15.059c2.644,2.609,6.319,4.225,10.379,4.225
				c4.06,0,7.734-1.617,10.376-4.225L437.051,326h6.663v-3.887l-28.945-16.887c0.429-1.335,0.659-2.754,0.659-4.227
				s-0.23-2.892-0.659-4.227l28.945-16.886V276z"/>
			<polygon clip-path="url(#SVGID_4_)" fill="#50B648" points="401.818,292 400.858,290.333 399.896,292 397.971,292 
				398.933,293.667 397.971,295.334 399.896,295.334 400.858,297 401.818,295.334 403.744,295.334 402.781,293.667 403.744,292 			
				"/>
			<polygon clip-path="url(#SVGID_4_)" fill="#50B648" points="409.131,304.667 410.095,303.001 408.171,303.001 407.208,301.333 
				406.245,303.001 404.321,303.001 405.285,304.667 404.321,306.334 406.245,306.334 407.208,308 408.171,306.334 410.095,306.334 
							"/>
			<polygon clip-path="url(#SVGID_4_)" fill="#50B648" points="395.468,303.001 394.506,301.333 393.543,303.001 391.619,303.001 
				392.581,304.667 391.619,306.334 393.543,306.334 394.506,308 395.468,306.334 397.393,306.334 396.431,304.667 397.393,303.001 
							"/>
			<polygon clip-path="url(#SVGID_4_)" fill="#BD1F34" points="401.645,292.3 400.858,290.933 400.067,292.3 398.491,292.3 
				399.279,293.667 398.491,295.034 400.067,295.034 400.858,296.401 401.645,295.034 403.225,295.034 402.436,293.667 
				403.225,292.3 			"/>
			<polygon clip-path="url(#SVGID_4_)" fill="#BD1F34" points="408.785,304.667 409.574,303.301 407.998,303.301 407.208,301.934 
				406.418,303.301 404.842,303.301 405.631,304.667 404.842,306.033 406.418,306.033 407.208,307.4 407.998,306.033 
				409.574,306.033 			"/>
			<polygon clip-path="url(#SVGID_4_)" fill="#BD1F34" points="395.296,303.301 394.506,301.934 393.716,303.301 392.138,303.301 
				392.928,304.667 392.138,306.033 393.716,306.033 394.506,307.4 395.296,306.033 396.873,306.033 396.084,304.667 
				396.873,303.301 			"/>
		</g>
	</g>
</g>
</svg>
