<?xml version="1.0" encoding="utf-8"?>
<!-- Generator: Adobe Illustrator 16.0.0, SVG Export Plug-In . SVG Version: 6.00 Build 0)  -->
<!DOCTYPE svg PUBLIC "-//W3C//DTD SVG 1.1//EN" "http://www.w3.org/Graphics/SVG/1.1/DTD/svg11.dtd">
<svg version="1.1" id="name" xmlns="http://www.w3.org/2000/svg" xmlns:xlink="http://www.w3.org/1999/xlink" x="0px" y="0px"
	 width="85.714px" height="50px" viewBox="358 276 85.714 50" enable-background="new 358 276 85.714 50" xml:space="preserve">
<g id="bn">
	<g>
		<defs>
			<rect id="SVGID_1_" x="358" y="276" width="85.714" height="50"/>
		</defs>
		<clipPath id="SVGID_2_">
			<use xlink:href="#SVGID_1_"  overflow="visible"/>
		</clipPath>
		<g clip-path="url(#SVGID_2_)">
			<defs>
				<rect id="SVGID_3_" x="358" y="276" width="85.714" height="50"/>
			</defs>
			<clipPath id="SVGID_4_">
				<use xlink:href="#SVGID_3_"  overflow="visible"/>
			</clipPath>
			<rect x="358" y="276" clip-path="url(#SVGID_4_)" fill="#F0E030" width="85.714" height="50"/>
			<polygon clip-path="url(#SVGID_4_)" fill="#FFFFFF" points="358,291.278 443.715,312.111 443.715,300.306 358,279.472 			"/>
			<polygon clip-path="url(#SVGID_4_)" fill="#010101" points="358,301.693 443.715,322.529 443.715,312.111 358,291.278 			"/>
			<rect x="400.362" y="296.824" clip-path="url(#SVGID_4_)" fill="#BD2033" width="0.9" height="2.402"/>
			<g clip-path="url(#SVGID_4_)">
				<path fill="#010101" d="M401.342,299.305h-1.056v-2.559h1.056V299.305L401.342,299.305z M400.442,299.147h0.744v-2.245h-0.744
					V299.147L400.442,299.147z"/>
			</g>
			<g clip-path="url(#SVGID_4_)">
				<defs>
					<rect id="SVGID_5_" x="358" y="276" width="85.714" height="50"/>
				</defs>
				<clipPath id="SVGID_6_">
					<use xlink:href="#SVGID_5_"  overflow="visible"/>
				</clipPath>
				<path clip-path="url(#SVGID_6_)" fill="#BD2033" d="M402.162,303.166c-0.012-1.649,0.049-3.235,0.162-3.687
					c0.113-0.449,0.281-0.543,0.492-0.768c-0.494-0.051-1.043,0.425-1.293,1.053c-0.16-0.708-0.457-1.186-0.718-1.428
					c-0.264,0.242-0.572,0.728-0.713,1.435c-0.26-0.527-0.711-1.111-1.248-1.045c0.191,0.227,0.365,0.311,0.48,0.751
					c0.117,0.439,0.174,2.016,0.133,3.665L402.162,303.166z"/>
				<g clip-path="url(#SVGID_6_)">
					<path fill="#010101" d="M402.004,303.167c-0.012-1.485,0.037-3.215,0.164-3.726c0.051-0.203,0.117-0.345,0.188-0.455
						c-0.273,0.158-0.533,0.464-0.682,0.838l-0.193,0.48l-0.113-0.504c-0.113-0.501-0.318-0.949-0.562-1.231
						c-0.162,0.189-0.426,0.578-0.557,1.234l-0.092,0.463l-0.209-0.425c-0.084-0.169-0.324-0.612-0.646-0.831
						c0.066,0.104,0.129,0.237,0.18,0.426c0.119,0.459,0.18,2.054,0.137,3.71l-0.322-0.006c0.043-1.605-0.014-3.195-0.125-3.622
						c-0.078-0.298-0.182-0.405-0.312-0.54c-0.043-0.045-0.09-0.094-0.135-0.149l-0.193-0.228l0.295-0.035
						c0.539-0.074,0.959,0.389,1.211,0.78c0.15-0.469,0.385-0.875,0.662-1.128l0.107-0.1l0.107,0.1
						c0.269,0.247,0.5,0.638,0.656,1.108c0.32-0.507,0.807-0.818,1.262-0.774l0.32,0.034l-0.332,0.351
						c-0.146,0.148-0.256,0.254-0.338,0.581c-0.105,0.412-0.168,1.913-0.156,3.645L402.004,303.167L402.004,303.167z"/>
				</g>
				<path clip-path="url(#SVGID_6_)" fill="#BD2033" d="M402.242,307.293c-0.008-1.979,0.064-3.67,0.174-4.207
					c0.107-0.535,0.281-0.637,0.527-0.869c-0.539-0.061-1.055,0.104-1.355,1.023c-0.168-0.855-0.496-1.275-0.783-1.563
					c-0.287,0.288-0.623,0.724-0.777,1.569c-0.332-0.91-0.791-1.115-1.377-1.037c0.244,0.255,0.434,0.35,0.555,0.875
					c0.117,0.527,0.133,2.203,0.088,4.184L402.242,307.293z"/>
				<g clip-path="url(#SVGID_6_)">
					<path fill="#010101" d="M402.104,307.294c-0.012-1.927,0.062-3.668,0.176-4.235c0.074-0.373,0.182-0.558,0.318-0.705
						c-0.33,0.042-0.654,0.254-0.875,0.93l-0.168,0.512l-0.104-0.528c-0.141-0.716-0.396-1.109-0.646-1.387
						c-0.244,0.271-0.51,0.677-0.639,1.393l-0.094,0.511l-0.178-0.488c-0.258-0.711-0.582-0.922-0.914-0.956
						c0.148,0.153,0.273,0.331,0.361,0.714c0.146,0.661,0.119,2.926,0.09,4.217l-0.279-0.006c0.049-2.209,0.021-3.68-0.086-4.148
						c-0.09-0.391-0.209-0.506-0.387-0.68l-0.322-0.328l0.273-0.037c0.617-0.082,1.045,0.146,1.357,0.734
						c0.182-0.623,0.473-0.979,0.717-1.227l0.1-0.102l0.1,0.102c0.255,0.258,0.531,0.604,0.718,1.217
						c0.289-0.551,0.732-0.787,1.334-0.717l0.303,0.033l-0.305,0.284c-0.195,0.179-0.314,0.288-0.404,0.72
						c-0.107,0.549-0.178,2.268-0.166,4.176L402.104,307.294L402.104,307.294z"/>
				</g>
				<path clip-path="url(#SVGID_6_)" fill="#BD2033" d="M402.791,308.389c-0.021-0.46,0.041-1.079,0.146-1.318
					c0.105-0.238,0.254-0.414,0.398-0.616c-0.631-0.091-1.273-0.044-1.613,0.882c-0.223-0.846-0.553-1.289-0.912-1.578
					c-0.361,0.289-0.672,0.732-0.895,1.578c-0.34-0.926-0.986-0.982-1.637-0.882c0.146,0.202,0.297,0.378,0.408,0.616
					c0.111,0.239,0.18,0.858,0.16,1.318H402.791z"/>
				<g clip-path="url(#SVGID_6_)">
					<path fill="#010101" d="M398.973,308.395l-0.25-0.01c0.02-0.46-0.049-1.05-0.148-1.263c-0.082-0.177-0.189-0.318-0.301-0.468
						l-0.219-0.293l0.203-0.031c0.559-0.084,1.223-0.078,1.633,0.65c0.197-0.598,0.467-1.021,0.84-1.32l0.08-0.062l0.076,0.062
						c0.386,0.31,0.664,0.734,0.857,1.32c0.4-0.713,1.031-0.733,1.611-0.65l0.205,0.03l-0.201,0.276
						c-0.117,0.154-0.225,0.302-0.309,0.484c-0.09,0.209-0.156,0.801-0.135,1.264l-0.25,0.01c-0.018-0.445,0.037-1.098,0.158-1.375
						c0.08-0.18,0.18-0.322,0.285-0.466c-0.574-0.037-1.006,0.112-1.271,0.827l-0.139,0.372l-0.1-0.386
						c-0.215-0.834-0.539-1.226-0.789-1.447c-0.355,0.318-0.598,0.77-0.773,1.447l-0.102,0.386l-0.137-0.372
						c-0.279-0.759-0.773-0.879-1.291-0.828c0.105,0.137,0.211,0.285,0.293,0.465C398.93,307.299,398.993,307.95,398.973,308.395
						L398.973,308.395z"/>
				</g>
				<rect x="400.477" y="292.156" clip-path="url(#SVGID_6_)" fill="#BD2033" width="0.667" height="1.898"/>
				<g clip-path="url(#SVGID_6_)">
					<path fill="#010101" d="M401.27,294.179h-0.917v-2.148h0.917V294.179L401.27,294.179z M400.6,293.931h0.419v-1.649H400.6
						V293.931L400.6,293.931z"/>
				</g>
				<g clip-path="url(#SVGID_6_)">
					<g>
						<defs>
							<rect id="SVGID_7_" x="389.088" y="309.868" width="23.513" height="5.98"/>
						</defs>
						<clipPath id="SVGID_8_">
							<use xlink:href="#SVGID_7_"  overflow="visible"/>
						</clipPath>
						<path clip-path="url(#SVGID_8_)" fill="#BD2033" d="M405.129,315.583c0.164,0.11,0.826,0.228,2.025,0.017
							c2.094-0.366,2.076-2.432,5.336-1.473c-0.148-0.295-0.662-1.197-1.936-1.234c0.131-0.424,0.223-1.05-0.016-1.438
							c-0.246,0.545-0.627,0.801-0.902,0.98c-0.084-0.047-0.578-0.449-0.631-1.057c-0.072-1.203-0.66-1.416-0.723-1.383
							c-0.379-0.012-2.646,3.575-7.501,3.598c-4.783,0.024-7.18-3.566-7.449-3.598c-0.062-0.033-0.65,0.18-0.725,1.383
							c-0.053,0.607-0.551,0.99-0.635,1.045c-0.273-0.171-0.652-0.424-0.896-0.969c-0.238,0.388-0.148,1.014-0.018,1.438
							c-1.271,0.037-1.787,0.939-1.934,1.234c3.258-0.959,3.266,1.106,5.357,1.473c1.199,0.211,1.822,0.113,1.988,0.002
							L405.129,315.583z"/>
						<g clip-path="url(#SVGID_8_)">
							<path fill="#010101" d="M395.715,315.849c-0.326,0-0.74-0.036-1.254-0.125c-0.812-0.142-1.318-0.528-1.807-0.901
								c-0.779-0.596-1.514-1.158-3.496-0.576l-0.146-0.175c0.225-0.452,0.764-1.198,1.885-1.294
								c-0.084-0.331-0.189-0.965,0.072-1.389l0.221,0.016c0.205,0.455,0.504,0.691,0.775,0.867
								c0.141-0.115,0.479-0.436,0.521-0.903c0.059-1.006,0.469-1.341,0.641-1.44c0.074-0.043,0.18-0.086,0.262-0.043
								c0.035,0.01,0.121,0.07,0.395,0.354c0.855,0.887,3.123,3.232,6.953,3.232c0.014,0,0.031,0,0.045,0
								c3.734-0.019,5.937-2.193,6.878-3.123c0.34-0.335,0.486-0.477,0.623-0.477c0,0,0.002,0,0.004,0
								c0.018-0.027,0.123,0.013,0.199,0.055c0.174,0.099,0.582,0.436,0.645,1.445c0.041,0.461,0.367,0.795,0.51,0.913
								c0.24-0.161,0.57-0.405,0.783-0.88l0.219-0.016c0.266,0.424,0.16,1.058,0.074,1.389c1.123,0.096,1.66,0.842,1.885,1.294
								l-0.146,0.175c-1.977-0.578-2.703-0.02-3.477,0.574c-0.486,0.373-0.986,0.762-1.801,0.903
								c-1.293,0.225-1.938,0.084-2.117-0.038l0.139-0.207c0.129,0.088,0.773,0.201,1.936,0c0.752-0.133,1.23-0.501,1.689-0.855
								c0.75-0.577,1.523-1.171,3.404-0.697c-0.27-0.404-0.779-0.883-1.676-0.908l-0.117-0.16c0.105-0.343,0.17-0.777,0.088-1.108
								c-0.256,0.425-0.588,0.641-0.818,0.791l-0.127,0.005c-0.105-0.058-0.637-0.483-0.697-1.156
								c-0.062-0.998-0.482-1.26-0.584-1.271c-0.066,0.021-0.268,0.219-0.461,0.41c-0.963,0.95-3.219,3.175-7.054,3.191
								c-0.014,0-0.031,0-0.045,0c-3.938,0.002-6.256-2.4-7.131-3.307c-0.133-0.137-0.27-0.277-0.311-0.299
								c-0.08,0.015-0.5,0.275-0.562,1.273c-0.053,0.607-0.518,1.031-0.693,1.143l-0.133,0.001c-0.199-0.125-0.549-0.34-0.816-0.781
								c-0.082,0.329-0.016,0.766,0.088,1.108l-0.115,0.16c-0.898,0.025-1.406,0.504-1.678,0.908
								c1.881-0.475,2.664,0.121,3.422,0.697c0.465,0.355,0.945,0.723,1.699,0.855c1.252,0.219,1.793,0.088,1.895,0.02l0.139,0.207
								C396.42,315.786,396.149,315.849,395.715,315.849L395.715,315.849z"/>
						</g>
					</g>
				</g>
				<g clip-path="url(#SVGID_6_)">
					<g>
						<defs>
							<rect id="SVGID_9_" x="391.825" y="312.265" width="17.962" height="4.409"/>
						</defs>
						<clipPath id="SVGID_10_">
							<use xlink:href="#SVGID_9_"  overflow="visible"/>
						</clipPath>
						<path clip-path="url(#SVGID_10_)" fill="#BD2033" d="M395.014,314.552c-1.137-0.046-3.35-1.772-3.033-2.13
							c0.1-0.101,0.586,0.003,1.432,0.596c1.252,0.855,2.328,3.551,7.357,3.531c5.128-0.021,6.179-2.676,7.433-3.531
							c0.844-0.593,1.371-0.686,1.432-0.571c0.301,0.341-1.916,2.065-3.051,2.11L395.014,314.552z"/>
						<g clip-path="url(#SVGID_10_)">
							<path fill="#010101" d="M400.717,316.674c-3.072,0-4.701-1.028-5.766-2.002c-1.037-0.086-2.832-1.395-3.09-1.998
								c-0.072-0.172-0.027-0.275,0.025-0.334c0.197-0.201,0.807,0.021,1.596,0.575c0.295,0.202,0.574,0.495,0.896,0.834
								c1.076,1.13,2.547,2.675,6.334,2.675c0.02,0,0.037,0,0.057,0c3.916-0.018,5.396-1.561,6.476-2.689
								c0.316-0.334,0.594-0.619,0.889-0.82c0.631-0.443,1.211-0.692,1.475-0.624l0.137,0.1c0.031,0.03,0.076,0.13,0.006,0.294
								c-0.256,0.602-2.064,1.908-3.105,1.996c-1.072,0.966-2.729,1.98-5.876,1.994
								C400.754,316.674,400.733,316.674,400.717,316.674L400.717,316.674z M409.516,312.521c-0.113,0-0.545,0.111-1.238,0.598
								c-0.277,0.187-0.543,0.467-0.85,0.789c-0.137,0.143-0.281,0.294-0.441,0.45c0.855-0.253,2.02-1.084,2.426-1.603
								c0.135-0.169,0.125-0.232,0.125-0.232C409.533,312.521,409.527,312.521,409.516,312.521L409.516,312.521z M392.065,312.516
								c0.01,0.006,0.016,0.064,0.104,0.19c0.369,0.521,1.576,1.39,2.449,1.646c-0.15-0.15-0.287-0.296-0.418-0.432
								c-0.312-0.329-0.584-0.612-0.859-0.8C392.53,312.553,392.135,312.494,392.065,312.516L392.065,312.516z"/>
						</g>
					</g>
				</g>
				<path clip-path="url(#SVGID_6_)" fill="#BD2033" d="M393.459,297.108c-4.484,4.729-2.072,15.589,7.252,15.745
					c9.373,0.107,12.109-10.864,7.449-15.767L393.459,297.108z M394.368,297.271c-2.385,4.021,0.096,11.065,6.477,11.065
					c6.433,0,8.792-7.096,6.429-11.088L394.368,297.271z"/>
				<g clip-path="url(#SVGID_6_)">
					<path fill="#010101" d="M400.844,312.98c-0.045,0-0.09,0-0.133-0.002c-4.043-0.066-7.225-2.169-8.736-5.766
						c-1.494-3.559-0.922-7.749,1.395-10.19l0.182,0.172c-2.25,2.371-2.803,6.452-1.346,9.921c1.471,3.501,4.57,5.548,8.508,5.612
						c3.955,0.002,7.148-1.953,8.685-5.482c1.529-3.501,0.98-7.643-1.33-10.072l0.184-0.172c2.375,2.5,2.943,6.754,1.377,10.344
						C408.066,310.932,404.867,312.98,400.844,312.98L400.844,312.98z M400.844,308.46c-2.746,0-5.086-1.341-6.42-3.683
						c-1.363-2.396-1.43-5.438-0.164-7.569l0.217,0.126c-1.223,2.059-1.156,4.999,0.166,7.32c1.287,2.26,3.549,3.557,6.201,3.557
						c2.679,0,4.867-1.248,6.156-3.513c1.334-2.335,1.398-5.303,0.166-7.387l0.215-0.128c1.277,2.158,1.211,5.228-0.162,7.639
						C405.881,307.169,403.617,308.46,400.844,308.46L400.844,308.46z"/>
				</g>
				<path clip-path="url(#SVGID_6_)" fill="#F4D030" d="M402.479,314.24c0.326,0.072,0.625,0.41,0.502,0.756
					c-0.131,0.414-0.625,0.514-0.809,0.482c-0.199-0.119-0.08-0.292,0.533-0.359c0.398-0.146,0.033-0.416-0.268-0.545
					C402.273,314.504,402.324,314.208,402.479,314.24L402.479,314.24z"/>
				<g clip-path="url(#SVGID_6_)">
					<path fill="#BD2033" d="M402.242,315.496l-0.07-0.006c-0.094-0.055-0.105-0.107-0.098-0.143
						c0.023-0.109,0.254-0.197,0.629-0.238c0.107-0.041,0.164-0.092,0.166-0.154c0.004-0.125-0.215-0.275-0.438-0.371
						c-0.094-0.041-0.119-0.148-0.102-0.231c0.018-0.077,0.064-0.126,0.125-0.126c0.219,0.047,0.398,0.18,0.494,0.351
						c0.076,0.136,0.092,0.284,0.043,0.423C402.875,315.364,402.48,315.496,402.242,315.496L402.242,315.496z M402.473,314.252
						c-0.078,0-0.111,0.057-0.119,0.106c-0.018,0.072,0.006,0.169,0.088,0.206c0.209,0.09,0.453,0.246,0.451,0.393
						c-0.002,0.07-0.064,0.129-0.186,0.174c-0.363,0.04-0.59,0.121-0.613,0.221c-0.008,0.051,0.041,0.092,0.082,0.119l0.066,0.003
						c0.23,0,0.617-0.128,0.73-0.48c0.045-0.134,0.031-0.274-0.043-0.406c-0.092-0.165-0.268-0.294-0.455-0.335H402.473
						L402.473,314.252z"/>
				</g>
				<path clip-path="url(#SVGID_6_)" fill="#F4D030" d="M401.467,314.134c0.152-0.172,0.275,0.358,0.307,0.725
					c0.045,0.358,0.051,0.8-0.094,0.821c-0.088,0.014-0.014-0.41-0.105-0.801C401.455,314.426,401.404,314.211,401.467,314.134
					L401.467,314.134z"/>
				<g clip-path="url(#SVGID_6_)">
					<path fill="#BD2033" d="M401.674,315.691c-0.051,0-0.055-0.104-0.057-0.271c-0.006-0.147-0.01-0.351-0.055-0.541
						c-0.115-0.45-0.17-0.671-0.105-0.753c0.018-0.002,0.037-0.004,0.053,0.003c-0.09,0.109-0.031,0.335,0.076,0.745
						c0.043,0.192,0.049,0.396,0.053,0.546c0.004,0.128,0.006,0.247,0.035,0.247v0.012l0.002-0.012
						c0.129-0.018,0.137-0.42,0.088-0.81c-0.021-0.228-0.07-0.469-0.129-0.614c0.088,0.152,0.133,0.42,0.15,0.613
						c0.016,0.133,0.09,0.804-0.105,0.834H401.674L401.674,315.691z"/>
				</g>
				<path clip-path="url(#SVGID_6_)" fill="#F4D030" d="M401.117,314.787c0.381,0.369-0.263,1.439-1.673,0.973
					c-0.08-0.146,0.561,0,1.01-0.08C401.312,315.545,400.948,314.623,401.117,314.787L401.117,314.787z"/>
				<g clip-path="url(#SVGID_6_)">
					<path fill="#BB4C4C" d="M400.108,315.887c-0.209,0-0.434-0.039-0.668-0.117c0.002-0.016,0.004-0.029,0.01-0.041
						c0.227,0.098,0.451,0.136,0.658,0.136c0.605,0,0.953-0.319,1.062-0.595c0.078-0.187,0.055-0.364-0.059-0.474
						c-0.039-0.019-0.039,0.05-0.039,0.099c-0.006,0.229-0.016,0.703-0.617,0.797c-0.111,0.02-0.232,0.025-0.352,0.025l0,0
						c-0.104,0-0.205-0.004-0.293-0.009l-0.203-0.006c-0.033,0-0.137,0-0.158,0.026c0.023-0.042,0.072-0.049,0.158-0.049
						l0.203,0.006c0.197,0.01,0.438,0.02,0.641-0.018c0.583-0.091,0.593-0.553,0.597-0.773c0.002-0.089,0.002-0.137,0.037-0.137
						c0.158,0.138,0.184,0.325,0.105,0.52C401.076,315.559,400.725,315.887,400.108,315.887L400.108,315.887z"/>
				</g>
				<path clip-path="url(#SVGID_6_)" fill="#F4D030" d="M400.428,314.055c0.152-0.172,0.064,0.375,0.096,0.741
					c0.031,0.345-0.01,0.765-0.172,0.71c-0.09-0.043,0.055-0.43-0.035-0.794C400.219,314.254,400.313,314.171,400.428,314.055
					L400.428,314.055z"/>
				<g clip-path="url(#SVGID_6_)">
					<path fill="#BD2033" d="M400.379,315.521l-0.031-0.006c-0.049-0.023-0.041-0.115-0.025-0.254
						c0.014-0.148,0.033-0.352-0.016-0.547c-0.098-0.456-0.008-0.547,0.107-0.66c0.016,0,0.029,0.002,0.041,0.007
						c-0.145,0.13-0.217,0.231-0.129,0.647c0.051,0.197,0.031,0.405,0.016,0.555c-0.01,0.12-0.02,0.215,0.014,0.232l0.023,0.014
						l0.053-0.036c0.088-0.097,0.104-0.419,0.08-0.678c-0.012-0.125-0.008-0.271-0.006-0.401c0.004-0.111,0.006-0.218-0.002-0.286
						c0.029,0.057,0.027,0.156,0.025,0.287c-0.004,0.13-0.006,0.275,0.004,0.399c0.023,0.271,0.008,0.592-0.086,0.694
						L400.379,315.521L400.379,315.521z"/>
				</g>
				<path clip-path="url(#SVGID_6_)" fill="#F4D030" d="M399.458,313.91c0.27-0.004,0.199,0.072,0.18,0.792
					c-0.021,0.806-0.701,0.896-0.863,0.675c-0.137-0.174-0.086-0.227-0.693-0.166c-0.137-0.07-0.131-0.217-0.578-0.178
					c-0.113,0.021-0.109-0.197-0.316-0.328c-0.361-0.216-0.482,0.159-1.172-0.237c-0.043-0.024-0.324-0.202-0.271-0.553
					c0.053-0.442-0.35,0.054-0.793-0.14c-0.088-0.037-0.348-0.146-0.578-0.348c-0.322-0.277,0.016-0.334,0.455-0.049
					c0.27,0.17,0.666-0.225,0.676-0.619c0.025-0.417-0.182-0.527,0.141-0.518c0.178,0.006,0.137,0.729-0.168,1.051
					c-0.41,0.441-0.135,0.356,0.012,0.334c0.152-0.039,0.844-0.895,0.959-0.822c0.18,0.123-0.539,0.67-0.377,1.189
					c0.074,0.232,0.504,0.452,0.857,0.489c0.416,0.068,0.416-0.494,0.582-0.388c0.234,0.152-0.443,0.44,0.268,0.648
					c0.156,0.049,0.248-0.352,0.342-0.334c0.223,0.036-0.145,0.467,0.252,0.535c0.279,0.047,0.201-0.402,0.375-0.374
					c0.199-0.015,0.012,0.718,0.566,0.642C399.543,315.182,399.178,313.91,399.458,313.91L399.458,313.91z"/>
				<g clip-path="url(#SVGID_6_)">
					<path fill="#BD2033" d="M399.024,315.492c-0.111,0-0.209-0.04-0.26-0.109c-0.15-0.207-0.162-0.211-0.684-0.162
						c-0.043-0.02-0.068-0.044-0.096-0.066c-0.074-0.067-0.154-0.139-0.48-0.109c-0.074,0.038-0.098-0.049-0.135-0.111
						c-0.039-0.069-0.088-0.154-0.189-0.221c-0.125-0.073-0.244-0.076-0.385-0.057c-0.15,0.021-0.307,0.099-0.787-0.18
						c-0.033-0.019-0.328-0.195-0.277-0.564c0.012-0.08,0.006-0.132-0.018-0.157c-0.092-0.019-0.145-0.001-0.207,0.017
						c-0.154,0.046-0.381,0.094-0.562,0.015c-0.107-0.047-0.357-0.157-0.576-0.35c-0.104-0.089-0.148-0.159-0.131-0.208
						c0.021-0.054,0.213-0.107,0.596,0.14c0.248,0.157,0.65-0.231,0.66-0.608c0.01-0.152-0.012-0.262-0.029-0.344
						c-0.014-0.072-0.023-0.119,0-0.15c0.023-0.023,0.062-0.035,0.143-0.035c0.062,0.002,0.096,0.016,0.121,0.076
						c0.084,0.197,0.004,0.733-0.246,0.994c-0.139,0.15-0.191,0.232-0.205,0.277c-0.004-0.057,0.049-0.141,0.189-0.293
						c0.244-0.256,0.322-0.776,0.242-0.97l-0.064-0.073l-0.037,0.011c-0.072,0-0.109,0.009-0.125,0.027
						c-0.018,0.022-0.01,0.066,0.006,0.132c0.016,0.082,0.037,0.193,0.027,0.348c-0.012,0.398-0.428,0.796-0.693,0.627
						c-0.213-0.137-0.385-0.185-0.477-0.185c-0.092,0.051-0.094,0.106,0.037,0.218c0.215,0.189,0.465,0.299,0.559,0.34
						c0.211,0.092,0.406,0.036,0.559-0.01c0.064-0.02,0.119-0.037,0.162-0.037c0.098,0.058,0.104,0.114,0.092,0.202
						c-0.051,0.354,0.234,0.524,0.268,0.543c0.473,0.272,0.625,0.196,0.773,0.176c0.145-0.017,0.268-0.017,0.396,0.062
						c0.109,0.067,0.158,0.155,0.199,0.226c0.035,0.059,0.059,0.102,0.1,0.102c0.066-0.006,0.107-0.008,0.15-0.008
						c0.225,0,0.297,0.064,0.361,0.121c0.025,0.024,0.051,0.045,0.084,0.062c0.527-0.054,0.564-0.016,0.656,0.115
						c0.086,0.119,0.178,0.156,0.283,0.156c0.281,0,0.588-0.242,0.602-0.769l0.016-0.364c0.012-0.225,0.018-0.339-0.027-0.383
						c-0.021-0.025-0.062-0.035-0.145-0.035c-0.137,0.104-0.111,0.393-0.088,0.672c0.025,0.318,0.051,0.617-0.07,0.633
						c-0.338-0.031-0.418-0.248-0.457-0.436c-0.023-0.117-0.074-0.23-0.105-0.206c-0.076,0-0.1,0.067-0.129,0.149
						c-0.037,0.105-0.08,0.227-0.211,0.227c-0.279-0.044-0.254-0.211-0.234-0.346c0.018-0.109,0.021-0.18-0.061-0.192l0,0
						c-0.033,0-0.074,0.068-0.109,0.134c-0.055,0.096-0.117,0.205-0.203,0.205c-0.219-0.061-0.326-0.127-0.361-0.208
						c-0.031-0.083,0.016-0.167,0.057-0.239c0.055-0.096,0.084-0.158,0.006-0.209c-0.078-0.01-0.107,0.051-0.146,0.117
						c-0.068,0.117-0.162,0.279-0.363,0.279c-0.412-0.041-0.855-0.261-0.936-0.502c-0.096-0.307,0.113-0.624,0.264-0.855
						c0.104-0.158,0.186-0.283,0.119-0.328h-0.002c-0.092,0-0.32,0.235-0.525,0.444c-0.189,0.194-0.354,0.36-0.424,0.38
						c-0.082,0.014-0.125,0.021-0.158,0.021c-0.018-0.014-0.031-0.026-0.041-0.039c0.078,0.016,0.117,0.01,0.154,0.002
						c0.105-0.023,0.281-0.203,0.453-0.38c0.217-0.224,0.445-0.453,0.533-0.453c0.105,0.062,0.021,0.19-0.092,0.365
						c-0.148,0.228-0.352,0.54-0.26,0.837c0.076,0.232,0.512,0.445,0.848,0.48c0.27,0.01,0.342-0.143,0.41-0.262
						c0.045-0.078,0.078-0.14,0.133-0.14c0.145,0.079,0.094,0.167,0.047,0.251c-0.041,0.073-0.084,0.148-0.055,0.221
						c0.031,0.074,0.135,0.138,0.318,0.191c0.09,0.004,0.152-0.1,0.203-0.191c0.047-0.078,0.084-0.145,0.129-0.145
						c0.113,0.018,0.1,0.115,0.084,0.217c-0.02,0.14-0.041,0.281,0.178,0.318c0,0,0.002,0,0.006,0c0.146,0,0.184-0.106,0.221-0.209
						c0.029-0.085,0.057-0.166,0.129-0.166c0.1,0.002,0.121,0.105,0.146,0.227c0.039,0.188,0.088,0.423,0.357,0.423
						c0.178-0.019,0.15-0.321,0.125-0.614c-0.021-0.283-0.047-0.576,0.035-0.667c0.15-0.028,0.205-0.022,0.238,0.013
						c0.049,0.053,0.045,0.16,0.031,0.4l-0.014,0.362C399.633,315.244,399.317,315.492,399.024,315.492L399.024,315.492z"/>
				</g>
				<path clip-path="url(#SVGID_6_)" fill="#F4D030" d="M394.446,312.961c0.16-0.035,0.436-0.184,0.447-0.426
					c0.021-0.262-0.344-0.354-0.779-0.285c-0.227,0.034-0.617-0.113-0.846-0.309c-0.229-0.285-0.229-0.605-0.504-0.469
					c-0.205,0.092,0.287,0.619,0.527,0.744c0.24,0.126,0.629,0.114,0.652,0.298C393.965,312.697,393.852,312.983,394.446,312.961
					L394.446,312.961z"/>
				<g clip-path="url(#SVGID_6_)">
					<path fill="#BD2033" d="M394.381,312.972c-0.443,0-0.443-0.2-0.445-0.362c-0.018-0.2-0.166-0.236-0.34-0.281
						c-0.107-0.027-0.219-0.054-0.309-0.102c-0.207-0.108-0.588-0.5-0.582-0.682c0.025-0.025,0.047-0.045,0.064-0.062
						c-0.047,0.232,0.326,0.619,0.525,0.724c0.092,0.047,0.201,0.074,0.307,0.101c0.174,0.045,0.338,0.084,0.354,0.207
						c0.004,0.264,0.006,0.436,0.426,0.436v0.012l0.064-0.012c0.137-0.029,0.424-0.169,0.436-0.414
						c0.006-0.063-0.012-0.117-0.055-0.162c-0.107-0.12-0.385-0.166-0.709-0.111c-0.312,0.028-0.645-0.133-0.855-0.312
						c-0.078-0.094-0.129-0.19-0.172-0.275c-0.088-0.171-0.15-0.275-0.318-0.191c0.055-0.047,0.082-0.053,0.109-0.053
						c0.107,0,0.162,0.104,0.23,0.234c0.041,0.082,0.092,0.179,0.166,0.271c0.203,0.173,0.541,0.309,0.766,0.309
						c0.162-0.02,0.252-0.026,0.336-0.026c0.217,0,0.383,0.05,0.465,0.14c0.045,0.049,0.064,0.11,0.059,0.18
						c-0.01,0.234-0.271,0.395-0.453,0.434L394.381,312.972L394.381,312.972z"/>
				</g>
				<path clip-path="url(#SVGID_6_)" fill="#F4D030" d="M404.18,314.188c-0.088,0.045-0.16,0.843,0.338,0.861
					c0.629,0.022,0.943-0.295,1.1-0.409c0.262-0.198,0.73-0.595,0.514-0.937c-0.109-0.125-0.17,0.228-0.295,0.434
					c-0.17,0.305-0.756,0.662-1.205,0.613C404.084,314.717,404.291,314.161,404.18,314.188L404.18,314.188z"/>
				<g clip-path="url(#SVGID_6_)">
					<path fill="#BD2033" d="M404.584,315.061l-0.066-0.002c-0.201-0.007-0.34-0.144-0.393-0.385
						c-0.045-0.213-0.008-0.466,0.049-0.496c0.061-0.022,0.055,0.051,0.061,0.121c0.01,0.156,0.031,0.418,0.396,0.44
						c0.535-0.015,1.037-0.324,1.197-0.606c0.041-0.071,0.076-0.158,0.107-0.236c0.051-0.129,0.094-0.23,0.15-0.23
						c0.012,0.015,0.02,0.029,0.029,0.042c-0.078,0-0.117,0.089-0.16,0.197c-0.031,0.079-0.068,0.166-0.111,0.239
						c-0.162,0.286-0.689,0.62-1.127,0.62c-0.473-0.028-0.492-0.312-0.504-0.463c-0.004-0.056-0.008-0.103-0.025-0.103
						c-0.041,0.019-0.088,0.254-0.039,0.469c0.033,0.164,0.127,0.361,0.369,0.369l0.066,0.012v-0.012
						c0.508,0,0.791-0.225,0.963-0.357c0.438-0.332,0.637-0.59,0.627-0.8c0.025,0.226-0.164,0.476-0.551,0.769
						C405.398,314.824,405.098,315.061,404.584,315.061L404.584,315.061z"/>
				</g>
				<path clip-path="url(#SVGID_6_)" fill="#F4D030" d="M405.467,313.818c-0.129-0.096,0.283-0.254,0.326-0.403
					c0.043-0.15-0.182-0.29-0.057-0.454c0.131-0.215,0.139,0.406,0.305,0.423c0.459,0.048,0.133,0.347-0.043,0.288
					C405.803,313.613,405.547,313.891,405.467,313.818L405.467,313.818z"/>
				<g clip-path="url(#SVGID_6_)">
					<path fill="#BD2033" d="M405.498,313.842l-0.037-0.015c-0.006-0.019-0.008-0.036-0.006-0.05l0.045,0.041
						c0.037,0,0.094-0.028,0.156-0.063c0.088-0.047,0.188-0.101,0.285-0.101l0.107,0.016c0.098,0,0.213-0.082,0.217-0.154
						c0.002-0.061-0.08-0.105-0.225-0.121c-0.088-0.008-0.131-0.156-0.172-0.286c-0.016-0.062-0.035-0.13-0.059-0.162
						c0.039,0.021,0.059,0.083,0.082,0.156c0.035,0.116,0.076,0.265,0.15,0.271c0.217,0.022,0.244,0.101,0.244,0.144
						c-0.006,0.085-0.127,0.174-0.238,0.174l-0.107-0.016c-0.092,0-0.188,0.052-0.273,0.099c-0.068,0.036-0.125,0.067-0.168,0.067
						H405.498L405.498,313.842z M405.455,313.768c0.008-0.068,0.07-0.113,0.139-0.166c0.08-0.061,0.172-0.129,0.188-0.189
						c0.018-0.061-0.01-0.121-0.041-0.184c-0.043-0.086-0.09-0.174-0.012-0.275c0.016-0.007,0.033-0.013,0.047-0.014
						c-0.094,0.122-0.057,0.199-0.016,0.279c0.031,0.064,0.062,0.131,0.045,0.199c-0.02,0.068-0.111,0.137-0.195,0.201
						C405.537,313.671,405.467,313.727,405.455,313.768L405.455,313.768z"/>
				</g>
				<path clip-path="url(#SVGID_6_)" fill="#F4D030" d="M405.111,312.878c-0.027,0.206,0.098,0.259,0.133,0.14
					C405.291,312.796,405.162,312.69,405.111,312.878L405.111,312.878z"/>
				<g clip-path="url(#SVGID_6_)">
					<path fill="none" d="M405.111,312.878c-0.027,0.206,0.098,0.259,0.133,0.14C405.291,312.796,405.162,312.69,405.111,312.878z"
						/>
				</g>
				<path clip-path="url(#SVGID_6_)" fill="#F4D030" d="M405.443,312.662c-0.074,0.006-0.084,0.264,0.012,0.27
					c0.105,0.009,0.057,0.184,0.145,0.182c0.105-0.002,0.111-0.295-0.006-0.297C405.484,312.814,405.512,312.664,405.443,312.662
					L405.443,312.662z"/>
				<g clip-path="url(#SVGID_6_)">
					<path fill="#BD2033" d="M405.598,313.125h-0.01l-0.062-0.09c-0.014-0.045-0.025-0.089-0.07-0.092
						c-0.059-0.004-0.08-0.081-0.08-0.146c0-0.068,0.021-0.142,0.068-0.146c0.08,0.111,0.098,0.154,0.15,0.155
						c0.066,0.001,0.098,0.079,0.098,0.156c0,0.079-0.031,0.161-0.092,0.163H405.598L405.598,313.125z M405.441,312.707
						c-0.035,0-0.045,0.043-0.045,0.09c0.002,0.061,0.02,0.121,0.062,0.125c0.062,0.004,0.076,0.062,0.088,0.107l0.051,0.084v-0.011
						c0.049,0,0.07-0.073,0.07-0.142c0-0.066-0.021-0.131-0.074-0.133c-0.07-0.002-0.09-0.057-0.107-0.1
						C405.467,312.713,405.453,312.707,405.441,312.707L405.441,312.707z"/>
				</g>
				<path clip-path="url(#SVGID_6_)" fill="#F4D030" d="M406.277,312.612c-0.09,0.112-0.256-0.429,0.307-0.507
					c0.266,0.023,0.496,0.465,0.471,0.889c-0.008,0.156-0.014,0.512-0.102,0.684c-0.068,0.166-0.33,0.709-0.455,0.662
					s0.033-0.275,0.244-0.59c0.17-0.258,0.236-0.977,0.148-1.101c-0.086-0.126-0.174,0.313-0.354,0.407
					c-0.15,0.08-0.307-0.147-0.328-0.258c-0.021-0.131,0.1-0.211,0.178-0.056c0.066,0.116,0.262-0.115,0.26-0.28
					C406.648,312.195,406.473,312.408,406.277,312.612L406.277,312.612z"/>
				<g clip-path="url(#SVGID_6_)">
					<path fill="#BD2033" d="M406.516,314.354l-0.02-0.004c-0.01-0.016-0.018-0.031-0.021-0.048l0.041,0.03
						c0.109,0,0.338-0.443,0.428-0.658c0.074-0.15,0.088-0.44,0.098-0.613c0.027-0.486-0.201-0.921-0.457-0.943
						c-0.303,0.041-0.398,0.223-0.387,0.379c0.002,0.07,0.031,0.121,0.053,0.121c0.184-0.187,0.281-0.291,0.344-0.291
						c0.055,0.033,0.062,0.074,0.062,0.137c0.004,0.098-0.059,0.205-0.115,0.265c-0.037,0.037-0.074,0.057-0.105,0.057
						c-0.082-0.088-0.117-0.114-0.148-0.114c-0.068,0.047-0.076,0.086-0.07,0.127c0.02,0.092,0.133,0.266,0.256,0.266
						c0.143-0.059,0.207-0.185,0.262-0.285c0.047-0.094,0.082-0.162,0.125-0.162c0.008,0.013,0.02,0.028,0.025,0.047
						c0-0.003-0.004-0.006-0.004-0.007c-0.051-0.019-0.09,0.058-0.127,0.132c-0.055,0.104-0.123,0.232-0.211,0.279
						c-0.199,0.005-0.326-0.166-0.346-0.266c-0.01-0.049,0.002-0.095,0.027-0.125c0.088-0.029,0.131-0.017,0.174,0.062l0.125-0.025
						c0.057-0.058,0.113-0.163,0.111-0.249c0-0.069-0.012-0.096-0.02-0.107c-0.078-0.02-0.174,0.1-0.279,0.211l-0.086,0.073
						c-0.039,0-0.07-0.062-0.076-0.142c-0.012-0.166,0.088-0.358,0.41-0.404c0.275,0.025,0.508,0.463,0.482,0.9
						c-0.012,0.242-0.025,0.535-0.102,0.689C406.961,313.689,406.674,314.354,406.516,314.354L406.516,314.354z M406.473,314.224
						c0.018-0.118,0.113-0.262,0.232-0.44c0.176-0.264,0.242-0.857,0.199-1.068c0.068,0.258-0.012,0.822-0.154,1.041
						C406.609,313.967,406.504,314.124,406.473,314.224L406.473,314.224z"/>
				</g>
				<path clip-path="url(#SVGID_6_)" fill="#F4D030" d="M407.486,311.406c-0.07,0.102-0.312,0.33-0.361,0.425
					c-0.045,0.094-0.053,0.261,0.023,0.417c0.08,0.156,0.244,0.408,0.213,0.636c-0.031,0.229-0.188,0.7-0.102,0.661
					c0.088-0.039,0.299-0.504,0.252-0.857s-0.213-0.549-0.182-0.669c0.031-0.118,0.229-0.338,0.268-0.487
					c0.039-0.148-0.023-0.55-0.08-0.581c-0.053-0.031-0.25,0.04-0.188,0.173S407.527,311.178,407.486,311.406L407.486,311.406z"/>
				<g clip-path="url(#SVGID_6_)">
					<path fill="#BD2033" d="M407.25,313.557l-0.016-0.008c-0.025-0.033,0.002-0.159,0.051-0.362
						c0.027-0.109,0.055-0.222,0.064-0.303c0.025-0.188-0.084-0.396-0.164-0.548c-0.127-0.246-0.117-0.415-0.068-0.51
						c0.029-0.057,0.117-0.152,0.205-0.248c0.064-0.069,0.127-0.135,0.156-0.178c0.021-0.129-0.014-0.15-0.062-0.179
						c-0.035-0.019-0.068-0.04-0.094-0.094c-0.02-0.041-0.02-0.079,0.002-0.114c0.031-0.051,0.109-0.082,0.16-0.082
						c0.105,0.045,0.162,0.457,0.125,0.603c-0.023,0.081-0.086,0.181-0.148,0.274c-0.055,0.082-0.105,0.16-0.119,0.213
						c-0.014,0.055,0.014,0.125,0.055,0.225c0.045,0.113,0.102,0.254,0.127,0.441c0.045,0.355-0.164,0.824-0.258,0.867
						L407.25,313.557L407.25,313.557z M407.492,310.959c-0.064,0-0.121,0.027-0.148,0.066c0.021,0.141,0.053,0.159,0.084,0.178
						c0.047,0.028,0.096,0.056,0.07,0.205c-0.031,0.048-0.094,0.115-0.158,0.184c-0.086,0.095-0.178,0.191-0.203,0.244
						c-0.045,0.089-0.057,0.251,0.023,0.406c0.125,0.238,0.238,0.448,0.213,0.643c-0.012,0.083-0.039,0.196-0.064,0.306
						c-0.035,0.142-0.078,0.319-0.059,0.345h0.006c0.074-0.035,0.293-0.489,0.244-0.846c-0.025-0.184-0.078-0.322-0.125-0.436
						c-0.041-0.104-0.07-0.177-0.053-0.238c0.014-0.057,0.064-0.135,0.119-0.219c0.062-0.094,0.125-0.189,0.145-0.268
						c0.043-0.156-0.025-0.543-0.07-0.568C407.506,310.959,407.5,310.959,407.492,310.959L407.492,310.959z"/>
				</g>
				<path clip-path="url(#SVGID_6_)" fill="#F4D030" d="M407.812,311.59c-0.09,0.081-0.045,0.519,0.074,0.362
					C407.998,311.8,407.881,311.518,407.812,311.59L407.812,311.59z"/>
				<g clip-path="url(#SVGID_6_)">
					<path fill="none" d="M407.812,311.59c-0.09,0.081-0.045,0.519,0.074,0.362C407.998,311.8,407.881,311.518,407.812,311.59z"/>
				</g>
				<path clip-path="url(#SVGID_6_)" fill="#F4D030" d="M405.5,314.842c-0.039,0.193,0.148,0.252,0.199,0.143
					C405.762,314.779,405.574,314.671,405.5,314.842L405.5,314.842z"/>
				<g clip-path="url(#SVGID_6_)">
					<path fill="none" d="M405.5,314.842c-0.039,0.193,0.148,0.252,0.199,0.143C405.762,314.779,405.574,314.671,405.5,314.842z"/>
				</g>
				<path clip-path="url(#SVGID_6_)" fill="#F4D030" d="M405.791,314.68c-0.062,0.157,0.213,0.172,0.289,0.08
					C406.172,314.592,405.898,314.539,405.791,314.68L405.791,314.68z"/>
				<g clip-path="url(#SVGID_6_)">
					<path fill="#BD2033" d="M405.924,314.83c-0.062,0-0.117-0.021-0.143-0.057c0.01-0.027,0.016-0.05,0.023-0.071
						c0.055,0.183,0.217,0.106,0.264,0.048c-0.021-0.238-0.17-0.151-0.244-0.088c0.086-0.139,0.232-0.086,0.275-0.014
						c0.012,0.022,0.023,0.061-0.008,0.119C406.057,314.806,405.994,314.83,405.924,314.83L405.924,314.83z"/>
				</g>
				<path clip-path="url(#SVGID_6_)" fill="#BD2033" d="M394.413,312.412c-0.148-0.066-0.139,0.228-0.068,0.307
					C394.413,312.8,394.809,312.594,394.413,312.412L394.413,312.412z"/>
				<g clip-path="url(#SVGID_6_)">
					<path fill="#BD2033" d="M394.395,312.749L394.395,312.749l-0.059-0.022c-0.051-0.057-0.068-0.208-0.033-0.283l0.115-0.043
						c0.168,0.078,0.188,0.156,0.178,0.208C394.577,312.695,394.463,312.749,394.395,312.749L394.395,312.749z M394.409,312.422
						c-0.117,0.098-0.102,0.238-0.057,0.29l0.043,0.015l0,0c0.061,0,0.164-0.052,0.18-0.121
						C394.588,312.541,394.532,312.478,394.409,312.422L394.409,312.422z"/>
				</g>
				<path clip-path="url(#SVGID_6_)" fill="#BD2033" d="M400.874,296.254c-1.473,0.295-2.48,1.157-2.01,1.451
					c0.291,0.193,1.65-0.338,1.941-0.79c0.519,0.798,1.937,1.1,2.281,0.92L400.874,296.254z"/>
				<g clip-path="url(#SVGID_6_)">
					<path fill="#010101" d="M402.785,298.012c-0.568,0-1.506-0.311-1.986-0.894c-0.311,0.312-0.967,0.614-1.455,0.717
						c-0.26,0.053-0.439,0.046-0.549-0.027c-0.133-0.083-0.195-0.213-0.166-0.366c0.088-0.486,1.104-1.087,2.219-1.31
						c0.07-0.01,0.133,0.031,0.146,0.098c0.015,0.067-0.031,0.132-0.1,0.146c-1.152,0.231-1.965,0.812-2.02,1.111
						c-0.008,0.041-0.002,0.075,0.055,0.111c0.031,0.021,0.139,0.037,0.363-0.007c0.486-0.104,1.221-0.458,1.406-0.743l0.102-0.163
						l0.105,0.162c0.5,0.763,1.861,1.014,2.119,0.878c0.062-0.033,0.137-0.009,0.172,0.052c0.031,0.061,0.008,0.136-0.055,0.169
						C403.061,297.989,402.936,298.012,402.785,298.012L402.785,298.012z"/>
				</g>
				<path clip-path="url(#SVGID_6_)" fill="#BD2033" d="M393.247,295.783c0.242,0.376,1.508,1.287,2.416,1.353
					c0.91,0.068,2.973,0.49,3.373,0.311c0.4-0.176,1.531-0.953,1.818-0.821c0.289,0.135,1.974,1.067,2.595,1.044
					c0.619-0.023,4.637-1.155,4.768-1.376c0.133-0.222-0.799-0.798-1.398-0.798C406.223,295.495,393.247,295.804,393.247,295.783
					L393.247,295.783z"/>
				<path clip-path="url(#SVGID_6_)" fill="#BD2033" d="M396.78,297.614c0.004,0.226,0.18,0.391,0.598,0.395
					c0.703,0.014,1.891-0.316,2.598-1.115L396.78,297.614z"/>
				<g clip-path="url(#SVGID_6_)">
					<path fill="#010101" d="M397.42,298.134c-0.016,0-0.031-0.001-0.045-0.001c-0.639-0.006-0.717-0.361-0.721-0.515
						c-0.004-0.069,0.051-0.128,0.119-0.129c0.109,0.008,0.127,0.052,0.131,0.121c0.004,0.179,0.164,0.271,0.473,0.274
						c0.736,0,1.865-0.355,2.506-1.074c0.047-0.05,0.127-0.056,0.176-0.01c0.053,0.045,0.057,0.125,0.01,0.176
						C399.311,297.832,398.088,298.134,397.42,298.134L397.42,298.134z"/>
				</g>
				<path clip-path="url(#SVGID_6_)" fill="#BD2033" d="M394.672,297.277c-0.035,0.19,0.277,0.439,0.893,0.446
					c0.615,0.007,2.756-0.256,3.443-0.973L394.672,297.277z"/>
				<g clip-path="url(#SVGID_6_)">
					<path fill="#010101" d="M395.584,297.849c-0.008,0-0.014,0-0.021,0c-0.424-0.006-0.773-0.124-0.932-0.32
						c-0.072-0.086-0.1-0.183-0.082-0.275c0.014-0.068,0.078-0.114,0.146-0.1c0.066,0.013,0.111,0.078,0.1,0.146
						c-0.004,0.018,0.006,0.042,0.029,0.071c0.084,0.103,0.328,0.223,0.74,0.228c0.672-0.023,2.715-0.269,3.354-0.935
						c0.049-0.048,0.127-0.051,0.176-0.004c0.051,0.048,0.051,0.128,0.004,0.178C398.358,297.608,396.157,297.849,395.584,297.849
						L395.584,297.849z"/>
				</g>
				<path clip-path="url(#SVGID_6_)" fill="#BD2033" d="M393.221,296.701c-0.328,0.425,0.719,0.577,1.35,0.57
					c0.629-0.007,2.25-0.017,2.979-0.559L393.221,296.701z"/>
				<g clip-path="url(#SVGID_6_)">
					<path fill="#010101" d="M394.571,297.394c-0.219,0-1.311-0.019-1.506-0.411c-0.031-0.064-0.068-0.198,0.057-0.358
						c0.043-0.056,0.121-0.067,0.178-0.023c0.053,0.042,0.064,0.121,0.021,0.175c-0.049,0.062-0.035,0.085-0.031,0.094
						c0.074,0.153,0.684,0.269,1.279,0.274c0.631-0.007,2.221-0.024,2.906-0.534c0.055-0.039,0.133-0.029,0.174,0.027
						c0.041,0.055,0.031,0.133-0.025,0.175c-0.748,0.557-2.34,0.574-3.021,0.581C394.596,297.394,394.586,297.394,394.571,297.394
						L394.571,297.394z"/>
				</g>
				<path clip-path="url(#SVGID_6_)" fill="#BD2033" d="M392.073,295.989c-0.314,0.418,0.742,0.784,2.029,0.754
					c1.186-0.028,2.391-0.439,2.391-0.439L392.073,295.989z"/>
				<g clip-path="url(#SVGID_6_)">
					<path fill="#010101" d="M393.967,296.871c-0.887,0-1.838-0.193-2.037-0.58c-0.064-0.124-0.049-0.257,0.041-0.378
						c0.043-0.054,0.123-0.068,0.176-0.024c0.057,0.041,0.066,0.119,0.027,0.175c-0.043,0.054-0.035,0.086-0.021,0.112
						c0.119,0.233,0.938,0.466,1.945,0.442c1.152-0.028,2.342-0.429,2.354-0.433c0.066-0.02,0.137,0.013,0.16,0.078
						c0.021,0.065-0.016,0.136-0.08,0.159c-0.049,0.017-1.236,0.417-2.426,0.446C394.059,296.87,394.014,296.871,393.967,296.871
						L393.967,296.871z"/>
				</g>
				<path clip-path="url(#SVGID_6_)" fill="#BD2033" d="M404.811,297.614c-0.008,0.226-0.182,0.391-0.6,0.395
					c-0.701,0.014-1.889-0.316-2.6-1.115L404.811,297.614z"/>
				<g clip-path="url(#SVGID_6_)">
					<path fill="#010101" d="M404.166,298.134c-0.668,0-1.887-0.302-2.648-1.158c-0.045-0.051-0.039-0.13,0.012-0.176
						c0.051-0.046,0.131-0.04,0.176,0.01c0.639,0.719,1.752,1.064,2.504,1.074c0.309-0.002,0.471-0.095,0.477-0.274
						c0-0.068,0.031-0.112,0.127-0.121c0.068,0.001,0.123,0.06,0.123,0.129c-0.006,0.154-0.086,0.509-0.725,0.515
						C404.197,298.134,404.182,298.134,404.166,298.134L404.166,298.134z"/>
				</g>
				<path clip-path="url(#SVGID_6_)" fill="#BD2033" d="M406.916,297.277c0.037,0.19-0.279,0.439-0.893,0.446
					c-0.613,0.007-2.756-0.256-3.443-0.973L406.916,297.277z"/>
				<g clip-path="url(#SVGID_6_)">
					<path fill="#010101" d="M406.004,297.849c-0.572,0-2.775-0.24-3.516-1.012c-0.047-0.05-0.045-0.129,0.004-0.178
						c0.051-0.047,0.131-0.044,0.176,0.004c0.643,0.667,2.674,0.939,3.355,0.935c0.412-0.004,0.656-0.125,0.738-0.228
						c-0.012-0.068,0.049-0.169,0.113-0.182c0.068-0.012,0.152-0.003,0.162,0.064c0.018,0.092-0.01,0.189-0.082,0.275
						c-0.158,0.196-0.506,0.314-0.93,0.32C406.018,297.849,406.012,297.849,406.004,297.849L406.004,297.849z"/>
				</g>
				<path clip-path="url(#SVGID_6_)" fill="#BD2033" d="M408.355,296.71c0.33,0.423-0.709,0.567-1.338,0.56
					c-0.627-0.007-2.252-0.017-2.977-0.559L408.355,296.71z"/>
				<g clip-path="url(#SVGID_6_)">
					<path fill="#010101" d="M407.053,297.394c-0.018,0-0.029,0-0.035,0c-0.713-0.007-2.307-0.024-3.055-0.581
						c-0.053-0.042-0.064-0.12-0.025-0.175c0.043-0.056,0.123-0.065,0.178-0.027c0.682,0.51,2.275,0.527,2.875,0.533
						c0.621,0.03,1.227-0.115,1.301-0.265c-0.043-0.054-0.049-0.179,0.006-0.221c0.053-0.042,0.115-0.08,0.158-0.024
						c0.119,0.153,0.098,0.278,0.061,0.358C408.324,297.374,407.285,297.394,407.053,297.394L407.053,297.394z"/>
				</g>
				<path clip-path="url(#SVGID_6_)" fill="#BD2033" d="M409.518,295.982c0.316,0.417-0.744,0.791-2.031,0.761
					c-1.184-0.028-2.393-0.439-2.393-0.439L409.518,295.982z"/>
				<g clip-path="url(#SVGID_6_)">
					<path fill="#010101" d="M407.621,296.871c-0.047,0-0.092-0.001-0.137-0.003c-1.191-0.028-2.379-0.429-2.43-0.446
						c-0.064-0.023-0.1-0.094-0.076-0.159c0.02-0.065,0.094-0.098,0.156-0.078c0.014,0.004,1.205,0.405,2.355,0.433
						c1.006,0.017,1.826-0.211,1.949-0.447c0.014-0.027,0.02-0.06-0.021-0.114c-0.041-0.055-0.031-0.134,0.025-0.175
						c0.053-0.042,0.135-0.031,0.174,0.024c0.092,0.121,0.105,0.255,0.043,0.379C409.461,296.676,408.506,296.871,407.621,296.871
						L407.621,296.871z"/>
				</g>
				<path clip-path="url(#SVGID_6_)" fill="#BD2033" d="M394.598,295.951c-1.635,0.236-2.389,0.116-2.715-0.04
					c-0.406-0.179-1.105-0.726-0.074-0.746c0.686-0.013,1.029,0.038,1.805,0.036c1.986-0.026,4.854-1.596,5.723-1.603
					c0.809-0.006,1.021,0.368,1.482,0.376c0.472,0.004,0.625-0.382,1.431-0.376c0.869,0.007,3.736,1.577,5.725,1.603
					c0.777,0.002,1.121-0.048,1.805-0.036c1.029,0.02,0.332,0.567-0.076,0.746c-0.326,0.156-1.08,0.276-2.713,0.04H394.598z"/>
				<g clip-path="url(#SVGID_6_)">
					<path fill="#010101" d="M408.572,296.208c-0.41,0-0.932-0.037-1.6-0.133c-0.068-0.01-0.117-0.074-0.105-0.142
						c0.008-0.068,0.074-0.121,0.143-0.105c1.721,0.249,2.393,0.088,2.639-0.03c0.307-0.134,0.549-0.357,0.543-0.428l0,0
						c-0.002,0-0.055-0.073-0.414-0.08c-0.35-0.007-0.611,0.004-0.887,0.014c-0.264,0.011-0.541,0.02-0.918,0.02
						c-1.213-0.014-2.73-0.588-3.949-1.048c-0.775-0.295-1.449-0.55-1.773-0.553c-0.426,0.02-0.658,0.111-0.863,0.213
						c-0.17,0.085-0.33,0.17-0.568,0.164c-0.221-0.004-0.391-0.081-0.568-0.162c-0.221-0.101-0.48-0.222-0.912-0.214
						c-0.326,0.003-0.996,0.257-1.775,0.551c-1.217,0.461-2.732,1.036-3.947,1.05c-0.371,0-0.654-0.009-0.916-0.02
						c-0.275-0.01-0.537-0.021-0.887-0.014c-0.363,0.007-0.416,0.081-0.416,0.083c-0.006,0.068,0.236,0.291,0.537,0.423
						c0.25,0.119,0.922,0.281,2.646,0.031c0.068-0.016,0.131,0.037,0.141,0.105s-0.037,0.132-0.104,0.142
						c-1.703,0.246-2.455,0.106-2.787-0.051c-0.207-0.091-0.74-0.398-0.678-0.702c0.049-0.243,0.396-0.277,0.654-0.281
						c0.357-0.009,0.621,0.004,0.902,0.016c0.26,0.01,0.527,0.022,0.904,0.02c1.168-0.016,2.662-0.581,3.861-1.034
						c0.832-0.315,1.492-0.565,1.861-0.567c0.52,0.021,0.783,0.128,1.02,0.236c0.164,0.075,0.295,0.136,0.467,0.139
						c0.135-0.028,0.296-0.061,0.453-0.138c0.219-0.107,0.479-0.223,0.975-0.237c0.373,0.001,1.029,0.251,1.865,0.567
						c1.197,0.455,2.689,1.019,3.859,1.034c0.385,0.002,0.646-0.01,0.904-0.02c0.281-0.011,0.549-0.024,0.9-0.016
						c0.258,0.004,0.607,0.038,0.656,0.281c0.061,0.305-0.471,0.611-0.682,0.703C409.555,296.121,409.199,296.208,408.572,296.208
						L408.572,296.208z"/>
				</g>
				<path clip-path="url(#SVGID_6_)" fill="#BD2033" d="M400.792,290.077c-0.771,0.038-1.83-0.092-2.17,0.766
					c-0.518,0.981-0.373,2.094-0.139,2.118c0.416,0.045,0.455-1.112,0.633-1.114c0.186-0.001,0.186,1.004,0.549,0.997
					c0.271-0.007,0.441-1.013,0.525-1.004c0.086,0.007,0.262,0.966,0.604,0.966c0.367,0,0.523-0.958,0.605-0.966
					c0.084-0.008,0.256,0.997,0.525,1.004c0.363,0.007,0.363-0.999,0.551-0.997c0.176,0.001,0.256,1.152,0.67,1.105
					c0.234-0.022,0.348-1.128-0.17-2.109C402.635,289.984,401.555,290.115,400.792,290.077L400.792,290.077z"/>
				<g clip-path="url(#SVGID_6_)">
					<path fill="#010101" d="M398.506,293.087l-0.037-0.003c-0.055-0.006-0.137-0.037-0.201-0.161
						c-0.184-0.339-0.201-1.295,0.244-2.141c0.314-0.796,1.203-0.81,1.918-0.821c0.121-0.003,0.24-0.003,0.355-0.01
						c0.121,0.007,0.24,0.007,0.363,0.01c0.725,0.011,1.621,0.027,1.943,0.834c0.445,0.847,0.439,1.797,0.264,2.126
						c-0.062,0.118-0.143,0.149-0.199,0.155h-0.002c-0.363,0-0.5-0.447-0.611-0.805c-0.025-0.084-0.059-0.189-0.086-0.256
						c0.006,0.065-0.02,0.166-0.039,0.24c-0.082,0.318-0.184,0.713-0.488,0.713c-0.268-0.007-0.404-0.425-0.523-0.794
						c-0.002-0.009-0.002-0.017-0.008-0.027c-0.111,0.323-0.275,0.783-0.605,0.783c-0.312,0-0.48-0.454-0.602-0.79
						c-0.004,0.011-0.006,0.022-0.01,0.034c-0.119,0.369-0.254,0.787-0.514,0.794c-0.312,0-0.414-0.395-0.498-0.713
						c-0.018-0.07-0.041-0.161-0.064-0.226c0.002,0.065-0.023,0.164-0.045,0.242C398.961,292.633,398.838,293.087,398.506,293.087
						L398.506,293.087z M400.786,290.202c-0.105,0.005-0.227,0.008-0.352,0.01c-0.707,0.011-1.436,0.023-1.695,0.676
						c-0.496,0.94-0.344,1.868-0.227,1.953l-0.006-0.004c0.143,0,0.252-0.41,0.314-0.63c0.078-0.292,0.131-0.483,0.293-0.484
						c0.176,0,0.23,0.208,0.299,0.472c0.049,0.185,0.137,0.525,0.248,0.525c0.094-0.028,0.23-0.46,0.283-0.622
						c0.088-0.271,0.123-0.382,0.244-0.382c0.119,0.01,0.154,0.105,0.236,0.333c0.068,0.189,0.23,0.633,0.369,0.633
						c0.158,0,0.314-0.452,0.38-0.643c0.07-0.215,0.105-0.312,0.213-0.323c0.1-0.03,0.17,0.111,0.258,0.386
						c0.055,0.161,0.191,0.59,0.285,0.618c0.111,0,0.199-0.342,0.246-0.527c0.068-0.263,0.123-0.47,0.297-0.47
						c0.162,0.001,0.221,0.19,0.309,0.476c0.072,0.236,0.193,0.631,0.338,0.631c0.104-0.08,0.234-1.004-0.256-1.928
						c-0.264-0.666-1.037-0.678-1.719-0.689C401.02,290.21,400.899,290.207,400.786,290.202L400.786,290.202z"/>
				</g>
				<path clip-path="url(#SVGID_6_)" fill="#BD2033" d="M398.942,290.427c0.207,0.348,1.818,0.34,1.908,0.34
					c0.094,0,1.498,0.016,1.826-0.323L398.942,290.427z"/>
				<g clip-path="url(#SVGID_6_)">
					<path fill="#010101" d="M400.901,290.892c-0.016,0-0.033,0-0.053,0c-0.68,0-1.807-0.053-2.012-0.401l0.215-0.126
						c0.094,0.161,0.844,0.277,1.779,0.277c0.02,0,0.037,0,0.055,0c0.875,0,1.533-0.111,1.701-0.284l0.18,0.175
						C402.461,290.844,401.486,290.892,400.901,290.892L400.901,290.892z"/>
				</g>
				<path clip-path="url(#SVGID_6_)" fill="#BD2033" d="M400.499,286.808v3.424c0,0,0.018,0.19,0.303,0.196
					c0.281,0.007,0.328-0.161,0.328-0.185l-0.016-3.44L400.499,286.808z"/>
				<g clip-path="url(#SVGID_6_)">
					<path fill="#010101" d="M400.817,290.552c-0.006,0-0.012,0-0.018,0c-0.314-0.007-0.414-0.206-0.426-0.31v-3.435h0.25v3.424l0,0
						c0.002,0,0.025,0.068,0.182,0.072c0.184-0.003,0.199-0.072,0.199-0.075l-0.015-3.426h0.25l0.016,3.44
						c0,0.047-0.025,0.124-0.094,0.192C401.104,290.488,401,290.552,400.817,290.552L400.817,290.552z"/>
				</g>
				<path clip-path="url(#SVGID_6_)" fill="#BD2033" d="M400.831,287.206c1.289-0.067,1.673,0.693,2.037,0.858
					c0.363,0.166,0.527,0.231,1.023,0.199s-0.859,0.827-0.859,0.861l0.494,0.893c-0.463,0.065-1.338-0.361-1.684-0.595
					c-0.393-0.232-0.824-0.1-0.992-0.132L400.831,287.206z"/>
				<g clip-path="url(#SVGID_6_)">
					<path fill="#010101" d="M403.424,290.147c-0.545,0-1.363-0.429-1.65-0.624c-0.186-0.108-0.475-0.128-0.707-0.111l-0.142,0.006
						l-0.1-0.02l-0.1-0.109l-0.02-2.204l0.281-0.01c0.892,0,1.349,0.401,1.654,0.667c0.107,0.092,0.197,0.172,0.277,0.207
						c0.357,0.167,0.506,0.217,0.963,0.188c0.004,0,0.004,0,0.004,0c0.172,0,0.219,0.074,0.232,0.118
						c0.049,0.158-0.119,0.327-0.818,0.822c-0.043,0.03-0.076,0.056-0.107,0.077l0.533,0.96L403.424,290.147L403.424,290.147z
						 M401.262,289.154c0.258,0,0.463,0.05,0.643,0.158c0.33,0.222,0.98,0.53,1.412,0.579l-0.395-0.708
						c-0.016-0.132-0.006-0.139,0.232-0.309c0.143-0.101,0.465-0.331,0.627-0.481c-0.48,0.023-0.621-0.058-0.969-0.216
						c-0.109-0.051-0.215-0.141-0.334-0.247c-0.293-0.256-0.693-0.604-1.492-0.604h-0.029l0.018,1.838l0.074-0.001
						C401.113,289.159,401.186,289.154,401.262,289.154L401.262,289.154z"/>
				</g>
				<path clip-path="url(#SVGID_6_)" fill="#BD2033" d="M401.545,286.163c0,0.394-0.334,0.71-0.744,0.71
					c-0.412,0-0.744-0.317-0.744-0.71c0-0.392,0.332-0.71,0.744-0.71C401.211,285.453,401.545,285.771,401.545,286.163
					L401.545,286.163z"/>
				<g clip-path="url(#SVGID_6_)">
					<path fill="#010101" d="M400.801,286.957c-0.457,0-0.826-0.357-0.826-0.794s0.369-0.792,0.826-0.792
						c0.458,0,0.828,0.355,0.828,0.792S401.26,286.957,400.801,286.957L400.801,286.957z M400.801,285.536
						c-0.363,0-0.66,0.281-0.66,0.626s0.297,0.628,0.66,0.628c0.365,0,0.66-0.283,0.66-0.628S401.166,285.536,400.801,285.536
						L400.801,285.536z"/>
				</g>
				<path clip-path="url(#SVGID_6_)" fill="#F4D030" d="M392.836,303.162c-0.098,0.136-0.184-0.225-0.521,0.027
					c-0.189,0.164-0.266,0.412-0.264,0.934c0.002,0.441,0.256,0.736,0.402,0.707c0.225-0.029,0.109-0.569,0.354-0.668
					c0.354-0.167,0.854,0.089,0.943,0.412c0.088,0.324-0.168,0.678-0.443,0.639c-0.156-0.059,0.088-0.285,0.107-0.383
					c0.02-0.1,0.051-0.423-0.186-0.511c-0.234-0.09-0.195,0.235-0.207,0.323c-0.01,0.088-0.176,0.364-0.363,0.354
					c-0.186-0.01-0.482-0.008-0.775-0.323c-0.154-0.162-0.344-0.6-0.176-1.149c0.168-0.549,0.451-0.6,0.607-0.607
					C392.473,302.906,392.875,303.002,392.836,303.162L392.836,303.162z"/>
				<g clip-path="url(#SVGID_6_)">
					<path fill="#BD2033" d="M393.35,305.234l-0.047-0.004c-0.082-0.12-0.027-0.203,0.027-0.285
						c0.031-0.045,0.062-0.091,0.066-0.119c0.004-0.018,0.078-0.395-0.176-0.49c-0.162-0.004-0.176,0.115-0.178,0.249
						c-0.012,0.153-0.178,0.432-0.375,0.432c-0.229-0.011-0.516-0.025-0.797-0.331c-0.164-0.169-0.348-0.621-0.182-1.166
						c0.162-0.535,0.436-0.612,0.625-0.624c0.189-0.016,0.426,0.059,0.516,0.171v0.002l0.021,0.104l-0.152,0.002
						c-0.084-0.053-0.209-0.092-0.373,0.031c-0.188,0.162-0.258,0.411-0.258,0.918c0.002,0.428,0.236,0.69,0.363,0.69
						c0.117-0.015,0.145-0.149,0.172-0.292c0.029-0.152,0.064-0.323,0.197-0.377c0.334-0.159,0.875,0.09,0.967,0.425
						c0.045,0.165,0.008,0.348-0.1,0.489C393.583,305.17,393.465,305.234,393.35,305.234L393.35,305.234z M393.157,304.285
						c0.361,0.122,0.281,0.531,0.277,0.55c-0.008,0.034-0.037,0.079-0.072,0.132c-0.045,0.066-0.1,0.149-0.086,0.195l0.074,0.033
						c0.105,0,0.209-0.059,0.287-0.16c0.1-0.129,0.137-0.306,0.094-0.456c-0.086-0.313-0.594-0.556-0.916-0.4
						c-0.115,0.047-0.145,0.2-0.174,0.349c-0.029,0.158-0.059,0.305-0.186,0.32l0,0c-0.184,0-0.422-0.29-0.424-0.725
						c0-0.52,0.074-0.777,0.271-0.947c0.182-0.135,0.332-0.088,0.416-0.033c0.008-0.147-0.244-0.21-0.379-0.21
						c-0.137,0.007-0.443,0.026-0.615,0.597c-0.162,0.531,0.016,0.967,0.172,1.131c0.273,0.294,0.553,0.309,0.734,0.316h0.002
						c0.207,0,0.361-0.257,0.371-0.335C393.008,304.479,393.012,304.285,393.157,304.285L393.157,304.285z"/>
				</g>
				<path clip-path="url(#SVGID_6_)" fill="#F4D030" d="M392.434,305.449c-0.164-0.088,0.061-0.406-0.363-0.295
					c-0.17,0.047,0.256,0.54,0.441,0.561C392.719,305.694,392.663,305.561,392.434,305.449L392.434,305.449z"/>
				<g clip-path="url(#SVGID_6_)">
					<path fill="#BD2033" d="M392.512,305.732L392.512,305.732c-0.16-0.017-0.486-0.354-0.5-0.516
						c0.115-0.096,0.166-0.105,0.207-0.105c0.139,0,0.15,0.093,0.158,0.176c0.006,0.061,0.012,0.117,0.066,0.146
						c0.145,0.07,0.225,0.152,0.213,0.219c-0.006,0.031-0.035,0.07-0.143,0.08H392.512L392.512,305.732z M392.219,305.148
						c-0.037,0-0.086,0.009-0.145,0.024c-0.012,0.184,0.297,0.506,0.438,0.521c0.064-0.006,0.104-0.024,0.109-0.05
						c0.006-0.037-0.053-0.107-0.195-0.179c-0.07-0.038-0.08-0.11-0.086-0.175C392.331,305.209,392.325,305.148,392.219,305.148
						L392.219,305.148z"/>
				</g>
				<path clip-path="url(#SVGID_6_)" fill="#F4D030" d="M392.887,305.715c0.088,0.401,0.17,0.367,0.184,0.568
					c0.01,0.258-0.432,0.148-0.49,0.265c-0.059,0.118-0.137,0.422,0.148,0.443c0.283,0.021,0.691-0.091,0.773,0.106
					c0.223,0.559,0.697,0.477,0.916,0.391c0.25-0.101,0.836-0.629,0.971-0.675c0.199-0.072-0.188-0.216-0.412-0.02
					c-0.059,0.058-0.551,0.56-0.805,0.569c-0.188,0.02-0.477-0.451-0.461-0.617c0.018-0.119,0.447-0.021,0.51-0.266
					c0.047-0.176,0.049-0.364-0.09-0.373c-0.137-0.012-0.785,0.078-0.805-0.021c-0.117-0.283,0.119-0.401,0.029-0.479
					C393.258,305.566,392.895,305.507,392.887,305.715L392.887,305.715z"/>
				<g clip-path="url(#SVGID_6_)">
					<path fill="#BD2033" d="M394.104,307.568c-0.197,0-0.465-0.08-0.617-0.463c-0.043-0.104-0.229-0.115-0.48-0.1
						c-0.066,0.002-0.135,0.006-0.197,0.006c-0.172-0.01-0.236-0.043-0.271-0.105c-0.066-0.113-0.012-0.289,0.027-0.365
						c0.025-0.056,0.111-0.068,0.211-0.081c0.139-0.017,0.281-0.037,0.277-0.177c-0.008-0.089-0.027-0.127-0.057-0.188
						c-0.033-0.067-0.082-0.161-0.129-0.377c0.004-0.111,0.096-0.171,0.254-0.171c0.092,0,0.191,0.021,0.242,0.042
						c0.053,0.045,0.029,0.094,0.002,0.151c-0.037,0.075-0.088,0.179-0.021,0.338c0.002,0.007,0.014,0.036,0.201,0.036
						c0.105,0,0.236-0.009,0.348-0.016c0.088-0.006,0.164-0.012,0.213-0.012c0.068,0.003,0.102,0.021,0.125,0.054
						c0.062,0.087,0.031,0.253,0.008,0.343c-0.039,0.156-0.211,0.182-0.348,0.204c-0.082,0.013-0.158,0.024-0.162,0.06
						c-0.008,0.102,0.107,0.332,0.24,0.478c0.07,0.077,0.139,0.12,0.189,0.12c0.166-0.006,0.449-0.209,0.797-0.559
						c0.271-0.234,0.49-0.121,0.506-0.027c-0.123,0.09-0.275,0.207-0.436,0.332c-0.215,0.168-0.459,0.357-0.6,0.414
						C394.366,307.528,394.243,307.568,394.104,307.568L394.104,307.568z M393.194,306.96c0.127,0,0.277,0.015,0.326,0.131
						c0.248,0.624,0.754,0.432,0.893,0.38c0.137-0.057,0.377-0.242,0.59-0.408c0.172-0.131,0.318-0.246,0.381-0.268
						c0.062-0.075-0.139-0.211-0.395,0.014c-0.213,0.214-0.596,0.564-0.816,0.574h-0.002c-0.09,0-0.174-0.072-0.23-0.133
						c-0.139-0.152-0.258-0.394-0.25-0.508c0.012-0.062,0.098-0.076,0.195-0.09c0.133-0.021,0.283-0.045,0.316-0.178
						c0.039-0.145,0.037-0.256-0.002-0.312l-0.094-0.037c-0.049,0-0.125,0.006-0.209,0.012c-0.279,0.02-0.574,0.026-0.588-0.046
						c-0.07-0.172-0.016-0.288,0.023-0.366c0.029-0.061,0.035-0.083,0.012-0.104c-0.086-0.033-0.43-0.109-0.441,0.094
						c0.049,0.208,0.094,0.299,0.127,0.364c0.031,0.062,0.053,0.105,0.061,0.203c0.006,0.173-0.17,0.198-0.311,0.215
						c-0.084,0.011-0.164,0.022-0.184,0.06c-0.033,0.07-0.084,0.23-0.027,0.331c0.029,0.051,0.084,0.078,0.162,0.083
						c0.139,0.004,0.207-0.001,0.271-0.005C393.069,306.963,393.133,306.96,393.194,306.96L393.194,306.96z"/>
				</g>
				<path clip-path="url(#SVGID_6_)" fill="#F4D030" d="M395.069,307.275c-0.207,0.217-0.756,0.566-0.756,0.812
					c0,0.139,0.152,0.357,0.279,0.41c0.189,0.074,0.477,0.056,0.697-0.115c0.248-0.201,0.359-0.406,0.254-0.442
					c-0.375-0.108-0.385,0.41-0.566,0.427c-0.172,0.014-0.434-0.262-0.09-0.607s0.82-0.689,0.803-0.789
					C395.674,306.873,395.215,307.125,395.069,307.275L395.069,307.275z"/>
				<g clip-path="url(#SVGID_6_)">
					<path fill="#BD2033" d="M394.827,308.559c-0.088,0-0.17-0.016-0.24-0.043c-0.137-0.056-0.291-0.284-0.291-0.428
						c0-0.182,0.27-0.404,0.506-0.602c0.1-0.083,0.191-0.16,0.254-0.224c0.127-0.128,0.477-0.331,0.598-0.331
						c0.012,0.014,0.016,0.028,0.018,0.043c-0.002,0-0.002,0-0.002,0c-0.129,0-0.463,0.188-0.588,0.313
						c-0.062,0.065-0.156,0.144-0.256,0.228c-0.219,0.182-0.492,0.409-0.492,0.572c0,0.129,0.145,0.342,0.268,0.394
						c0.199,0.077,0.488,0.034,0.678-0.114c0.203-0.164,0.297-0.314,0.285-0.379l-0.117-0.044c-0.15,0-0.225,0.136-0.289,0.255
						c-0.051,0.092-0.098,0.179-0.176,0.188h-0.002c-0.111,0-0.213-0.074-0.258-0.178c-0.033-0.082-0.059-0.252,0.154-0.462
						c0.131-0.134,0.283-0.267,0.418-0.386c0.176-0.151,0.357-0.309,0.377-0.373c-0.002,0.096-0.133,0.212-0.352,0.402
						c-0.135,0.117-0.287,0.25-0.418,0.382c-0.195,0.196-0.174,0.349-0.143,0.422c0.041,0.101,0.135,0.155,0.207,0.155
						c0.07-0.006,0.111-0.082,0.16-0.17c0.064-0.121,0.148-0.271,0.32-0.271l0.104,0.016c0.068,0.146-0.053,0.314-0.248,0.474
						C395.168,308.502,394.999,308.559,394.827,308.559L394.827,308.559z"/>
				</g>
				<path clip-path="url(#SVGID_6_)" fill="#F4D030" d="M394.174,308.719c-0.016,0.139,0.352,0.141,0.418,0.018
					C394.641,308.646,394.19,308.581,394.174,308.719L394.174,308.719z"/>
				<g clip-path="url(#SVGID_6_)">
					<path fill="#BD2033" d="M394.362,308.846L394.362,308.846c-0.084,0-0.15-0.021-0.184-0.059
						c-0.029-0.246,0.365-0.196,0.43-0.088C394.571,308.814,394.458,308.846,394.362,308.846L394.362,308.846z M394.352,308.658
						c-0.074,0-0.152,0.017-0.158,0.063c0.037,0.067,0.098,0.085,0.168,0.085l0,0c0.102,0,0.189-0.033,0.213-0.08
						C394.559,308.689,394.461,308.658,394.352,308.658L394.352,308.658z"/>
				</g>
				<path clip-path="url(#SVGID_6_)" fill="#F4D030" d="M395.415,308.81c-0.209,0.219,0.023,0.466,0.182,0.669
					c0.088,0.108,0.291,0.215,0.416,0.266c0.189,0.074,0.564,0.049,0.783-0.122c0.25-0.202,0.268-0.557,0.117-0.558
					c-0.389-0.005-0.117,0.518-0.299,0.535c-0.172,0.014-0.654-0.097-0.891-0.594c-0.135-0.293,0.248-0.35,0.191-0.478
					C395.856,308.393,395.563,308.66,395.415,308.81L395.415,308.81z"/>
				<g clip-path="url(#SVGID_6_)">
					<path fill="#BD2033" d="M396.262,309.803c-0.1,0-0.191-0.014-0.256-0.041c-0.143-0.059-0.338-0.164-0.424-0.271
						c-0.193-0.243-0.387-0.482-0.182-0.693c0.146-0.148,0.346-0.325,0.455-0.325c0.105,0.113,0.049,0.159-0.01,0.208
						c-0.084,0.073-0.182,0.154-0.105,0.317c0.227,0.479,0.686,0.585,0.844,0.585c0.08-0.007,0.084-0.074,0.08-0.184
						c0-0.104-0.002-0.223,0.068-0.293c0.066-0.067,0.236-0.107,0.281,0.021c0.047,0.129-0.027,0.365-0.207,0.51
						C396.674,309.742,396.469,309.803,396.262,309.803L396.262,309.803z M395.862,308.533c-0.111,0-0.256,0.11-0.436,0.291
						c-0.18,0.188-0.008,0.402,0.145,0.592c0.129,0.16,0.338,0.266,0.449,0.312c0.193,0.075,0.576,0.024,0.764-0.121
						c0.184-0.147,0.23-0.364,0.195-0.468c-0.137-0.057-0.186-0.042-0.219-0.007c-0.059,0.06-0.059,0.171-0.059,0.267
						c0.004,0.109,0.004,0.211-0.086,0.22c-0.002,0-0.002,0-0.002,0c-0.238,0-0.682-0.128-0.908-0.605
						c-0.086-0.188,0.031-0.288,0.115-0.36c0.061-0.051,0.092-0.08,0.076-0.115C395.885,308.534,395.874,308.533,395.862,308.533
						L395.862,308.533z"/>
				</g>
				<path clip-path="url(#SVGID_6_)" fill="#F4D030" d="M396.426,308.791c0.08,0.113,0.355-0.131,0.322-0.266
					C396.725,308.425,396.346,308.676,396.426,308.791L396.426,308.791z"/>
				<g clip-path="url(#SVGID_6_)">
					<path fill="#BD2033" d="M396.487,308.84L396.487,308.84l-0.082-0.047l0.008-0.098c0.055-0.104,0.221-0.213,0.301-0.213
						c0.07,0.105,0.023,0.178-0.006,0.217C396.655,308.766,396.561,308.84,396.487,308.84L396.487,308.84z"/>
				</g>
				<path clip-path="url(#SVGID_6_)" fill="#F4D030" d="M396.975,309.826c-0.012,0.16,0.037,0.377-0.15,0.385
					c-0.188,0.005-0.426-0.246-0.613-0.239s-0.266,0.151-0.244,0.231c0.02,0.08,0.346,0.172,0.9,0.137
					c0.557-0.035,0.432,0.303,0.822,0.273c0.391-0.027,0.447-0.158,0.418-0.244c-0.027-0.086-0.359-0.029-0.482-0.051
					c-0.123-0.023-0.34-0.217-0.369-0.384c-0.027-0.166-0.027-0.452,0.117-0.453c0.266-0.005,0.145,0.243,0.152,0.328
					c0.008,0.077,0.098,0.156,0.213,0.017c0.158-0.184,0.074-0.475-0.076-0.576C397.508,309.148,397.004,309.438,396.975,309.826
					L396.975,309.826z"/>
				<g clip-path="url(#SVGID_6_)">
					<path fill="#BD2033" d="M397.643,310.634c-0.15,0-0.219-0.062-0.293-0.126c-0.082-0.074-0.17-0.152-0.404-0.152
						c-0.162,0.008-0.24,0.012-0.314,0.012c-0.373,0-0.66-0.067-0.684-0.16c-0.012-0.042,0.004-0.1,0.039-0.145
						c0.027-0.039,0.094-0.105,0.225-0.111l0,0c0.104,0,0.213,0.062,0.316,0.123c0.1,0.057,0.203,0.117,0.289,0.117
						c0.129-0.006,0.139-0.104,0.139-0.266c0.027-0.455,0.428-0.715,0.627-0.715c0.176,0.08,0.238,0.192,0.256,0.313
						c0.018,0.12-0.014,0.231-0.086,0.315c-0.045,0.055-0.09,0.082-0.135,0.082l0,0c-0.062,0-0.104-0.057-0.109-0.109
						c0.018-0.15,0.031-0.229-0.006-0.272c-0.021-0.027-0.062-0.04-0.121-0.04c-0.125,0.1-0.131,0.284-0.105,0.432
						c0.029,0.162,0.242,0.348,0.352,0.368l0.18,0.003l0.111-0.003c0.096,0,0.189,0.007,0.207,0.062
						c0.014,0.041,0.008,0.085-0.018,0.12c-0.053,0.083-0.195,0.135-0.418,0.15L397.643,310.634L397.643,310.634z M396.881,310.321
						c0.318,0,0.412,0.083,0.494,0.159c0.07,0.061,0.131,0.116,0.268,0.116v0.019l0.045-0.021c0.262-0.018,0.357-0.081,0.389-0.132
						c0.006-0.11-0.053-0.124-0.158-0.124l-0.109,0.002l-0.186-0.003c-0.137-0.024-0.355-0.23-0.385-0.399
						c-0.02-0.116-0.033-0.338,0.045-0.432l0.098-0.045c0.07,0,0.119,0.02,0.15,0.057c0.049,0.055,0.033,0.145,0.023,0.214
						c-0.01,0.204,0.084,0.187,0.172,0.084c0.062-0.075,0.088-0.178,0.074-0.284c-0.018-0.111-0.074-0.215-0.15-0.268
						c-0.238-0.001-0.633,0.229-0.656,0.564c-0.002,0.237-0.002,0.394-0.17,0.4l0,0c-0.105,0-0.213-0.062-0.316-0.122
						c-0.1-0.057-0.201-0.118-0.289-0.118c-0.123,0.006-0.18,0.062-0.205,0.096c-0.027,0.037-0.039,0.081-0.031,0.113
						c0.016,0.055,0.299,0.164,0.885,0.124C396.874,310.321,396.877,310.321,396.881,310.321L396.881,310.321z"/>
				</g>
				<path clip-path="url(#SVGID_6_)" fill="#F4D030" d="M398.354,309.855c-0.029,0.287-0.234,0.309-0.209,0.412
					c0.029,0.119,0.104,0.157,0.15,0.454c0.027,0.147,0.209,0.209,0.441,0.196c0.188-0.006,0.316-0.264,0.439-0.253
					c0.174,0.009,0.029,0.4,0.432,0.396c0.326-0.002,0.404-0.282,0.521-0.287c0.115-0.008,0.1,0.323,0.367,0.323
					c0.266,0,0.383-0.303,0.503-0.31c0.131,0.007,0.131,0.324,0.529,0.303c0.395-0.021,0.689-0.078,0.783-0.158
					c0.094-0.079,0.137-0.34,0.268-0.354c0.131-0.016,0.332,0.244,0.512,0.244c0.182,0,0.557-0.453,0.674-0.461
					c0.113-0.008,0.207,0.281,0.469,0.281c0.402-0.008,0.447-0.531,0.639-0.557c0.338-0.035,0.352-0.172,0.369-0.208
					c0.037-0.101-0.002-0.575-0.08-0.792c-0.037-0.114-0.469-1.078-0.662-1.099c-0.195-0.022-0.139,0.26-0.021,0.425
					c0.113,0.166,0.707,0.939,0.627,1.163s-0.5-0.094-0.83-0.094c-0.463,0-0.74,0.933-1.068,0.966
					c-0.141,0.016-0.295-0.122-0.244-0.223c0.094-0.145,0.203-0.492-0.158-0.44c-0.361,0.05-0.73,0.216-0.67,0.412
					c0.057,0.192,0.271,0.39,0.037,0.469c-0.24,0.079-0.652,0.101-0.854,0.035s-0.08-0.52-0.201-0.52
					c-0.136,0-0.144,0.534-0.341,0.548c-0.193,0.016-0.365-0.063-0.408-0.216c-0.045-0.151,0.07-0.339-0.061-0.36
					c-0.129-0.021-0.258,0.6-0.453,0.584c-0.193-0.015-0.203-0.057-0.318-0.181c-0.115-0.122,0.102-0.542-0.092-0.577
					c-0.195-0.037-0.391,0.621-0.52,0.613c-0.131-0.006-0.326-0.014-0.385-0.143c-0.027-0.065-0.02-0.473-0.014-0.639
					C398.524,309.732,398.338,309.769,398.354,309.855L398.354,309.855z"/>
				<g clip-path="url(#SVGID_6_)">
					<path fill="#BD2033" d="M400.497,311.117c-0.172,0-0.236-0.131-0.283-0.225c-0.027-0.057-0.049-0.102-0.082-0.102
						c-0.037,0.002-0.072,0.039-0.117,0.084c-0.08,0.087-0.193,0.203-0.406,0.205c-0.258,0-0.307-0.156-0.34-0.271
						c-0.025-0.079-0.041-0.124-0.092-0.126c-0.027,0.041-0.107,0.047-0.168,0.101c-0.076,0.069-0.164,0.149-0.271,0.151
						c-0.266,0-0.436-0.074-0.461-0.211c-0.027-0.189-0.07-0.271-0.102-0.337c-0.02-0.038-0.037-0.071-0.049-0.116
						c-0.012-0.053,0.023-0.088,0.066-0.128c0.053-0.054,0.127-0.128,0.145-0.29c0.043-0.09,0.092-0.104,0.127-0.104l0.082,0.062
						c-0.01,0.221-0.01,0.574,0.012,0.628c0.053,0.116,0.229,0.125,0.357,0.132l0,0c0.059,0,0.131-0.133,0.197-0.251
						c0.1-0.178,0.199-0.364,0.314-0.364c0.145,0.025,0.125,0.176,0.107,0.32c-0.014,0.106-0.029,0.217,0.016,0.266
						c0.121,0.135,0.146,0.163,0.307,0.174l0,0c0.096,0,0.18-0.172,0.252-0.324c0.068-0.146,0.125-0.259,0.193-0.259
						c0.104,0.016,0.094,0.104,0.082,0.19c-0.008,0.06-0.016,0.125,0.002,0.184c0.035,0.123,0.17,0.204,0.346,0.204
						c0.139-0.009,0.188-0.163,0.23-0.302c0.042-0.133,0.08-0.248,0.156-0.248c0.07,0,0.076,0.097,0.084,0.21
						c0.012,0.131,0.021,0.278,0.123,0.31c0.186,0.061,0.613,0.041,0.838-0.035c0.051-0.016,0.08-0.039,0.092-0.066
						c0.021-0.052-0.02-0.129-0.062-0.211c-0.029-0.054-0.057-0.11-0.078-0.169c-0.01-0.048-0.004-0.097,0.027-0.142
						c0.096-0.152,0.4-0.256,0.66-0.293c0.154-0.008,0.219,0.024,0.25,0.081c0.061,0.11-0.01,0.292-0.072,0.388
						c0.051,0.152,0.133,0.196,0.207,0.196c0.158-0.016,0.293-0.21,0.438-0.413c0.182-0.26,0.389-0.557,0.652-0.557
						c0.137,0,0.291,0.055,0.424,0.102c0.191,0.065,0.35,0.112,0.389,0.006c0.066-0.186-0.389-0.818-0.562-1.056l-0.062-0.089
						c-0.084-0.121-0.141-0.302-0.094-0.396c0.018-0.027,0.047-0.061,0.109-0.061c0.234,0.024,0.67,1.012,0.701,1.114
						c0.076,0.218,0.117,0.698,0.08,0.803c-0.025,0.067-0.072,0.188-0.387,0.22c-0.066,0.009-0.113,0.094-0.174,0.193
						c-0.094,0.16-0.213,0.359-0.465,0.365c-0.166,0-0.262-0.106-0.342-0.19c-0.049-0.05-0.088-0.093-0.125-0.093
						c-0.045,0.005-0.15,0.096-0.252,0.186c-0.148,0.129-0.312,0.276-0.424,0.276c-0.1,0-0.205-0.073-0.295-0.14
						c-0.078-0.053-0.152-0.104-0.205-0.104c-0.076,0.007-0.119,0.1-0.166,0.188c-0.031,0.065-0.059,0.126-0.098,0.161
						c-0.098,0.082-0.387,0.142-0.799,0.164h-0.004c-0.271,0-0.363-0.125-0.428-0.216c-0.035-0.048-0.061-0.085-0.098-0.087
						c-0.039,0.002-0.083,0.049-0.138,0.104C400.774,311.003,400.667,311.117,400.497,311.117L400.497,311.117z M400.127,310.753
						c0.061,0,0.088,0.057,0.121,0.122c0.045,0.096,0.1,0.203,0.248,0.203c0.152,0,0.258-0.106,0.34-0.193
						c0.057-0.061,0.107-0.111,0.164-0.116c0.057,0.003,0.092,0.05,0.129,0.104c0.064,0.09,0.145,0.2,0.363,0.2
						c0.432-0.023,0.721-0.08,0.809-0.154c0.035-0.03,0.062-0.088,0.094-0.149c0.047-0.099,0.094-0.2,0.184-0.21
						c0.072,0.008,0.156,0.054,0.238,0.111c0.094,0.066,0.188,0.135,0.275,0.135c0.096,0,0.264-0.15,0.396-0.27
						c0.135-0.117,0.219-0.189,0.273-0.194l0,0c0.061,0,0.105,0.05,0.16,0.105c0.072,0.079,0.164,0.177,0.312,0.177
						c0.232-0.004,0.338-0.186,0.434-0.345c0.062-0.108,0.117-0.2,0.201-0.212c0.293-0.029,0.334-0.136,0.35-0.18
						c0.041-0.112,0-0.586-0.072-0.795c-0.043-0.126-0.473-1.066-0.648-1.086c-0.133,0.116-0.08,0.287-0.004,0.396l0.062,0.089
						c0.316,0.438,0.629,0.907,0.566,1.09c-0.045,0.13-0.225,0.091-0.438,0.017c-0.131-0.047-0.279-0.098-0.41-0.098
						c-0.246,0-0.445,0.285-0.621,0.537c-0.15,0.213-0.291,0.413-0.443,0.429c-0.123,0.003-0.207-0.048-0.254-0.122
						c-0.025-0.044-0.031-0.09-0.01-0.128c0.059-0.093,0.119-0.261,0.07-0.351c-0.023-0.044-0.074-0.066-0.148-0.066
						c-0.359,0.045-0.621,0.158-0.697,0.279c-0.027,0.037-0.031,0.075-0.021,0.112c0.018,0.054,0.047,0.109,0.074,0.162
						c0.049,0.088,0.092,0.173,0.066,0.241c-0.018,0.04-0.055,0.068-0.115,0.088c-0.234,0.08-0.666,0.1-0.863,0.037
						c-0.125-0.039-0.137-0.209-0.146-0.344c-0.016-0.211-0.109-0.145-0.167,0.047c-0.049,0.148-0.1,0.316-0.219,0.326
						c-0.004,0-0.006,0-0.01,0c-0.234,0-0.383-0.09-0.422-0.23c-0.018-0.066-0.01-0.135,0-0.197c0.01-0.102,0.01-0.141-0.043-0.15
						l0,0c-0.049,0-0.109,0.127-0.164,0.239c-0.08,0.171-0.166,0.347-0.279,0.347c-0.182-0.014-0.217-0.05-0.295-0.138
						c-0.102-0.11-0.086-0.23-0.07-0.345c0.02-0.156,0.027-0.261-0.057-0.277h-0.002c-0.105,0-0.211,0.189-0.293,0.344
						c-0.084,0.152-0.152,0.271-0.219,0.271c-0.145-0.008-0.342-0.018-0.402-0.155c-0.037-0.085-0.016-0.64-0.016-0.646
						l-0.127,0.011c-0.025,0.213-0.107,0.292-0.164,0.349c-0.041,0.042-0.061,0.062-0.055,0.094
						c0.012,0.042,0.025,0.073,0.045,0.108c0.033,0.068,0.076,0.153,0.107,0.348c0.021,0.115,0.152,0.182,0.361,0.182
						c0.154-0.004,0.236-0.079,0.311-0.145c0.062-0.056,0.121-0.111,0.184-0.111c0.088,0.006,0.109,0.078,0.135,0.155
						c0.033,0.114,0.072,0.241,0.297,0.241c0.203,0,0.305-0.106,0.387-0.191C400.038,310.797,400.077,310.756,400.127,310.753
						L400.127,310.753L400.127,310.753z"/>
				</g>
				<path clip-path="url(#SVGID_6_)" fill="#F4D030" d="M404.91,308.088c0.355,0.539,0.676,1.268,0.871,1.306
					c0.135,0.021-0.408-0.975-0.59-1.198C405.041,307.965,404.605,307.619,404.91,308.088L404.91,308.088z"/>
				<g clip-path="url(#SVGID_6_)">
					<path fill="#BD2033" d="M405.787,309.414l-0.006-0.002c-0.139-0.027-0.312-0.334-0.533-0.722
						c-0.111-0.196-0.23-0.406-0.352-0.593c-0.115-0.174-0.117-0.221-0.105-0.244c0.107-0.031,0.324,0.19,0.418,0.332
						c0.146,0.182,0.664,1.094,0.609,1.208L405.787,309.414L405.787,309.414z M404.822,307.873c0,0.002-0.006,0.033,0.105,0.205
						c0.121,0.186,0.244,0.397,0.354,0.594c0.197,0.348,0.385,0.675,0.504,0.703c0.027-0.09-0.43-0.945-0.607-1.166
						C405.072,308.051,404.869,307.873,404.822,307.873L404.822,307.873z"/>
				</g>
				<path clip-path="url(#SVGID_6_)" fill="#F4D030" d="M398.321,309.398c-0.053,0.131-0.033,0.256,0.059,0.238
					c0.09-0.019,0.207-0.238,0.176-0.28C398.524,309.315,398.393,309.278,398.321,309.398L398.321,309.398z"/>
				<g clip-path="url(#SVGID_6_)">
					<path fill="#BD2033" d="M398.362,309.658l-0.066-0.036c-0.033-0.048-0.029-0.138,0.01-0.229
						c0.107-0.188,0.23-0.098,0.266-0.047c-0.035,0.173-0.113,0.295-0.189,0.309L398.362,309.658L398.362,309.658z"/>
				</g>
				<path clip-path="url(#SVGID_6_)" fill="#F4D030" d="M405.955,308.326c-0.002,0.293,0.205,0.623,0.588,0.602
					c0.387-0.02,0.807-0.446,0.838-0.883c0.031-0.438-0.508-0.758-0.641-0.664c-0.137,0.094,0.051,0.42,0.395,0.439
					c0.146,0.01,0.1,0.299-0.182,0.526c-0.299,0.235-0.738,0.231-0.844,0.069C406.023,308.188,405.949,308.185,405.955,308.326
					L405.955,308.326z"/>
				<g clip-path="url(#SVGID_6_)">
					<path fill="#BD2033" d="M406.51,308.947c-0.15,0-0.287-0.055-0.391-0.159c-0.115-0.116-0.184-0.288-0.184-0.462l0.023-0.102
						c0.098-0.023,0.133,0.095,0.166,0.185c0.1,0.147,0.562,0.125,0.816-0.077c0.215-0.174,0.275-0.366,0.25-0.447
						c-0.295-0.059-0.469-0.216-0.508-0.356c-0.018-0.071-0.004-0.13,0.045-0.162c0.195-0.021,0.363,0.077,0.486,0.209
						c0.129,0.141,0.197,0.308,0.184,0.472c-0.027,0.434-0.451,0.879-0.852,0.9H406.51L406.51,308.947z M405.99,308.25
						c-0.018,0.24,0.047,0.403,0.156,0.513c0.096,0.097,0.221,0.146,0.363,0.146v0.02l0.033-0.02
						c0.385-0.021,0.791-0.449,0.818-0.865c0.012-0.151-0.051-0.31-0.176-0.443c-0.131-0.142-0.293-0.218-0.383-0.218
						c-0.1,0.046-0.092,0.104-0.084,0.136c0.031,0.109,0.18,0.27,0.418,0.282l0.012,0.002l0.08,0.072
						c0.033,0.105-0.049,0.311-0.264,0.486c-0.271,0.214-0.756,0.24-0.873,0.064C406.037,308.281,405.998,308.25,405.99,308.25
						L405.99,308.25z"/>
				</g>
				<path clip-path="url(#SVGID_6_)" fill="#F4D030" d="M406.186,307.441c-0.055,0.115,0.062,0.383,0.188,0.371
					C406.504,307.8,406.229,307.365,406.186,307.441L406.186,307.441z"/>
				<g clip-path="url(#SVGID_6_)">
					<path fill="#BD2033" d="M406.199,307.451c-0.025,0.056-0.002,0.168,0.051,0.254c0.035,0.057,0.078,0.089,0.115,0.089v0.019
						l0.008-0.02C406.385,307.663,406.236,307.451,406.199,307.451L406.199,307.451z"/>
				</g>
				<path clip-path="url(#SVGID_6_)" fill="#F4D030" d="M407.316,307.236c0.074,0.172,0.162,0.436,0.32,0.436
					c0.16,0,0.285,0.044,0.285,0.176c0,0.134-0.412,0.578-0.424,0.73c-0.023,0.254,0.162,0.241,0.252,0.102
					c0.094-0.141,0.34-0.797,0.391-0.977c0.021-0.144,0.199-0.412,0.207-0.691c-0.012-0.317,0.279-0.062,0.418-0.051
					c0.127,0.006,0.268-0.229,0.287-0.4c0.016-0.17-0.137-0.2-0.137-0.352c0-0.084,0.162-0.358,0.17-0.54
					c0.02-0.162-0.314-0.626-0.455-0.62c-0.115,0.006-0.016,0.177,0.049,0.249c0.068,0.073,0.236,0.225,0.176,0.358
					c-0.107,0.262-0.641,0.328-0.668,0.607c-0.025,0.201,0.027,0.832-0.139,0.832c-0.164,0-0.299-0.395-0.551-0.395
					C407.211,306.693,407.256,307.104,407.316,307.236L407.316,307.236z"/>
				<g clip-path="url(#SVGID_6_)">
					<path fill="#BD2033" d="M407.6,308.799l-0.082-0.037c-0.033-0.037-0.049-0.102-0.039-0.187c0.008-0.079,0.111-0.226,0.221-0.38
						c0.094-0.135,0.205-0.286,0.205-0.348c0-0.105-0.092-0.157-0.268-0.157c-0.15,0-0.24-0.212-0.312-0.382
						c-0.07-0.162-0.105-0.4-0.02-0.531c0.119-0.187,0.4-0.027,0.545,0.141c0.068,0.082,0.135,0.158,0.199,0.158
						c0.104,0,0.107-0.35,0.111-0.579c0.002-0.097,0.002-0.183,0.012-0.234c0.014-0.159,0.182-0.253,0.344-0.344
						c0.133-0.075,0.275-0.153,0.324-0.271c0.047-0.105-0.074-0.234-0.146-0.311s-0.156-0.201-0.127-0.268
						c0.137-0.035,0.221,0.04,0.281,0.108c0.133,0.149,0.27,0.381,0.258,0.491c-0.006,0.108-0.062,0.248-0.109,0.361
						c-0.031,0.075-0.061,0.146-0.061,0.178c0,0.064,0.031,0.105,0.062,0.148c0.039,0.05,0.082,0.108,0.07,0.205
						c-0.016,0.164-0.152,0.418-0.297,0.418c-0.051-0.004-0.104-0.027-0.16-0.053c-0.062-0.027-0.125-0.056-0.172-0.056
						c-0.066,0.038-0.078,0.078-0.074,0.138c-0.004,0.18-0.078,0.355-0.137,0.496c-0.035,0.079-0.062,0.148-0.068,0.2
						c-0.051,0.172-0.299,0.839-0.393,0.984C407.725,308.757,407.66,308.799,407.6,308.799L407.6,308.799z M407.496,306.72
						c-0.074,0-0.125,0.026-0.16,0.078c-0.076,0.118-0.043,0.343-0.002,0.429c0.094,0.229,0.176,0.427,0.303,0.427
						c0.25,0,0.305,0.106,0.305,0.194c0,0.074-0.102,0.218-0.213,0.371c-0.104,0.143-0.207,0.289-0.213,0.361
						c-0.01,0.092,0.014,0.136,0.031,0.156l0.053,0.025c0.049,0,0.1-0.037,0.137-0.092c0.088-0.136,0.332-0.782,0.387-0.971
						c0.006-0.055,0.037-0.125,0.07-0.208c0.059-0.138,0.129-0.308,0.135-0.479c-0.004-0.072,0.008-0.12,0.037-0.148
						c0.131-0.028,0.195,0.002,0.262,0.029c0.053,0.025,0.104,0.046,0.139,0.051l0,0c0.115,0,0.25-0.221,0.268-0.384
						c0.008-0.083-0.027-0.13-0.062-0.179c-0.037-0.046-0.072-0.094-0.072-0.172c0-0.039,0.029-0.107,0.062-0.192
						c0.045-0.109,0.104-0.247,0.107-0.349c0.01-0.089-0.107-0.307-0.25-0.464c-0.072-0.085-0.145-0.136-0.184-0.136
						c-0.051,0.055,0.002,0.156,0.059,0.217c0.105,0.111,0.24,0.248,0.18,0.379c-0.055,0.127-0.199,0.208-0.34,0.287
						c-0.162,0.092-0.314,0.175-0.324,0.315c-0.006,0.053-0.01,0.137-0.01,0.23c-0.006,0.29-0.012,0.618-0.15,0.618
						c-0.082,0-0.15-0.08-0.227-0.172c-0.092-0.105-0.193-0.224-0.324-0.224H407.496L407.496,306.72z"/>
				</g>
				<path clip-path="url(#SVGID_6_)" fill="#F4D030" d="M407.734,304.836c0.008,0.112,0.24,0.602,0.381,0.602
					c0.201,0-0.088-0.23-0.072-0.316c0.018-0.083,0.305-0.213,0.188-0.242C408.023,304.814,407.723,304.688,407.734,304.836
					L407.734,304.836z"/>
				<g clip-path="url(#SVGID_6_)">
					<path fill="#BD2033" d="M408.115,305.457c-0.16,0-0.393-0.51-0.4-0.619l0.102-0.09c0.08,0,0.199,0.041,0.314,0.078l0.105,0.035
						c0.049,0.068,0.004,0.104-0.059,0.152c-0.049,0.035-0.109,0.082-0.117,0.112c-0.002,0.026,0.037,0.081,0.068,0.128
						c0.049,0.065,0.09,0.127,0.07,0.169L408.115,305.457L408.115,305.457z M407.816,304.787c-0.057,0.151,0.176,0.632,0.299,0.632
						v0.019l0.051-0.031c0.012-0.021-0.035-0.086-0.066-0.131c-0.041-0.061-0.084-0.117-0.072-0.158
						c0.008-0.043,0.066-0.09,0.127-0.135c0.031-0.023,0.086-0.065,0.086-0.081l-0.119-0.038
						C408.006,304.824,407.891,304.787,407.816,304.787L407.816,304.787z"/>
				</g>
				<path clip-path="url(#SVGID_6_)" fill="#F4D030" d="M407.717,304.205c0.043,0.158,0.691,0.395,0.969,0.474
					c0.281,0.079,0.619,0.413,0.748,0.304c0.127-0.109-0.855-0.498-1-0.553C408.285,304.375,407.686,304.048,407.717,304.205
					L407.717,304.205z"/>
				<g clip-path="url(#SVGID_6_)">
					<path fill="#BD2033" d="M409.367,305.022c-0.084,0-0.201-0.069-0.334-0.151c-0.117-0.068-0.24-0.143-0.35-0.174
						c-0.186-0.053-0.936-0.303-0.986-0.487c0.02-0.007,0.043-0.015,0.064-0.017c0.041,0.16,0.631,0.383,0.93,0.469
						c0.117,0.032,0.242,0.107,0.361,0.178c0.121,0.074,0.238,0.146,0.314,0.146v0.019l0.055-0.035
						c-0.014-0.114-0.668-0.399-0.998-0.521c-0.033-0.014-0.096-0.041-0.168-0.077c-0.141-0.066-0.326-0.153-0.438-0.181
						c0.146,0.004,0.318,0.084,0.453,0.148c0.074,0.032,0.133,0.062,0.168,0.075c0.01,0.003,0.994,0.376,1.021,0.538
						L409.367,305.022L409.367,305.022z"/>
				</g>
				<path clip-path="url(#SVGID_6_)" fill="#F4D030" d="M409.674,305.226c0.244,0.005,0.111-0.475,0.049-0.59
					c-0.061-0.114-0.15,0.219-0.137,0.315C409.598,305.049,409.604,305.22,409.674,305.226L409.674,305.226z"/>
				<g clip-path="url(#SVGID_6_)">
					<path fill="#BD2033" d="M409.68,305.244L409.68,305.244h-0.006c-0.078-0.006-0.09-0.139-0.102-0.246
						c-0.014-0.115,0.031-0.32,0.086-0.383c0.014,0.01,0.027,0.021,0.039,0.037c-0.061,0.058-0.102,0.232-0.094,0.297
						c0.014,0.123,0.027,0.255,0.074,0.258l0.002,0.019v-0.019c0.041,0,0.072-0.016,0.092-0.049c0.059-0.104,0.006-0.34-0.041-0.461
						c0.088,0.138,0.141,0.367,0.072,0.481C409.777,305.223,409.734,305.244,409.68,305.244L409.68,305.244z"/>
				</g>
				<path clip-path="url(#SVGID_6_)" fill="#F4D030" d="M408.262,302.839c-0.002,0.108,0.672,0.032,0.984,0.115
					c0.133,0.036,0.594,0.286,0.678,0.224c0.098-0.127-0.625-0.4-1.037-0.4C408.754,302.781,408.266,302.711,408.262,302.839
					L408.262,302.839z"/>
				<g clip-path="url(#SVGID_6_)">
					<path fill="#BD2033" d="M409.885,303.207c-0.094,0-0.279-0.081-0.441-0.152c-0.084-0.037-0.16-0.069-0.203-0.082
						c-0.141-0.037-0.359-0.043-0.549-0.047c-0.295-0.006-0.449-0.015-0.449-0.087c0.004-0.147,0.336-0.099,0.512-0.085l0.127,0.006
						c0.367,0,0.99,0.213,1.062,0.361L409.885,303.207L409.885,303.207z M408.51,302.781c-0.199,0-0.227,0.035-0.23,0.058
						c0,0.041,0.248,0.046,0.412,0.05c0.193,0.004,0.412,0.01,0.561,0.049c0.041,0.011,0.119,0.045,0.207,0.084
						c0.15,0.066,0.34,0.148,0.426,0.148v0.019l0.027-0.024c-0.064-0.153-0.656-0.366-1.025-0.366l-0.135-0.007
						C408.678,302.785,408.59,302.781,408.51,302.781L408.51,302.781z"/>
				</g>
				<path clip-path="url(#SVGID_6_)" fill="#F4D030" d="M408.086,303.148c-0.121,0.129,0.406,0.273,0.875,0.291
					c0.467,0.02,0.768,0.299,0.729,0.505c-0.068,0.345-0.652,0.12-0.578,0.31c0.043,0.146,0.299,0.092,0.328,0.248
					c0.02,0.16,0.184,0.187,0.176-0.008c0-0.155,0.359-0.41,0.352-0.483c-0.018-0.146-0.236-0.656-0.795-0.71
					C408.615,303.246,408.24,302.977,408.086,303.148L408.086,303.148z"/>
				<g clip-path="url(#SVGID_6_)">
					<path fill="#BD2033" d="M409.541,304.648c-0.051,0-0.107-0.049-0.119-0.143c-0.014-0.068-0.082-0.093-0.154-0.115
						c-0.074-0.025-0.15-0.052-0.176-0.133c0.029-0.106,0.102-0.11,0.193-0.115c0.156-0.01,0.35-0.02,0.383-0.203
						c0.016-0.062-0.01-0.136-0.064-0.207c-0.1-0.123-0.318-0.262-0.645-0.272c-0.387-0.017-0.854-0.121-0.904-0.247
						c0.129-0.274,0.273-0.14,0.52-0.062c0.168,0.048,0.367,0.109,0.6,0.131c0.557,0.055,0.791,0.553,0.812,0.729
						c0.004,0.037-0.043,0.088-0.137,0.182c-0.096,0.098-0.219,0.221-0.219,0.303c0.006,0.074-0.016,0.111-0.033,0.131
						L409.541,304.648L409.541,304.648z M408.23,303.11c-0.059,0-0.1,0.016-0.131,0.052c0.029,0.135,0.453,0.244,0.861,0.26
						c0.336,0.012,0.568,0.157,0.67,0.288c0.062,0.079,0.09,0.163,0.074,0.237c-0.039,0.211-0.258,0.225-0.418,0.232
						c-0.07,0.004-0.145,0.009-0.16,0.033c0.02,0.096,0.084,0.117,0.152,0.142c0.076,0.024,0.162,0.054,0.18,0.146
						c0.008,0.07,0.047,0.111,0.082,0.111v0.02l0.027-0.031c0.021-0.021,0.029-0.058,0.027-0.104c0-0.099,0.121-0.222,0.227-0.331
						c0.055-0.054,0.131-0.129,0.127-0.15c-0.02-0.16-0.252-0.643-0.781-0.694c-0.232-0.022-0.438-0.084-0.602-0.136
						C408.434,303.146,408.316,303.11,408.23,303.11L408.23,303.11z"/>
				</g>
				<path clip-path="url(#SVGID_6_)" fill="#BD2033" d="M393.163,306.554c-0.074-0.042-0.342,0.196-0.244,0.25
					C393.1,306.907,393.278,306.617,393.163,306.554L393.163,306.554z"/>
				<g clip-path="url(#SVGID_6_)">
					<path fill="#BD2033" d="M392.997,306.829L392.997,306.829l-0.082-0.021c0-0.015,0.004-0.029,0.006-0.042l0.076,0.056
						c0.09,0,0.174-0.086,0.193-0.166c0.012-0.046,0.002-0.082-0.027-0.1c-0.037-0.006-0.119,0.035-0.176,0.082
						c0.051-0.055,0.113-0.094,0.156-0.094c0.057,0.024,0.066,0.062,0.055,0.113C393.176,306.741,393.094,306.829,392.997,306.829
						L392.997,306.829z"/>
				</g>
				<path clip-path="url(#SVGID_6_)" fill="#BD2033" d="M393.737,306.27c-0.131-0.018-0.193,0.259-0.084,0.274
					C393.93,306.582,393.981,306.298,393.737,306.27L393.737,306.27z"/>
				<g clip-path="url(#SVGID_6_)">
					<path fill="#BD2033" d="M393.702,306.551L393.702,306.551l-0.049-0.003c-0.041-0.005-0.064-0.048-0.059-0.109
						c0.006-0.083,0.059-0.173,0.131-0.173c0.127,0.014,0.176,0.084,0.172,0.146C393.893,306.48,393.825,306.551,393.702,306.551
						L393.702,306.551z"/>
				</g>
				<path clip-path="url(#SVGID_6_)" fill="#BD2033" d="M407.703,307.041c-0.061,0-0.254,0.084-0.188,0.219
					c0.064,0.133,0.258,0.137,0.346,0.06C407.941,307.247,407.922,307.043,407.703,307.041L407.703,307.041z"/>
				<g clip-path="url(#SVGID_6_)">
					<path fill="#BD2033" d="M407.711,307.373c-0.09,0-0.164-0.041-0.199-0.111c-0.02-0.041-0.02-0.082,0.004-0.119
						c0.043-0.067,0.146-0.105,0.188-0.105c0.096,0.001,0.164,0.041,0.193,0.111c0.021,0.061,0.01,0.135-0.031,0.174
						C407.828,307.355,407.771,307.373,407.711,307.373L407.711,307.373z M407.703,307.045c-0.041,0-0.141,0.039-0.18,0.103
						c-0.023,0.036-0.023,0.071-0.006,0.109c0.057,0.114,0.254,0.14,0.342,0.06c0.039-0.037,0.053-0.107,0.031-0.166
						C407.873,307.111,407.828,307.045,407.703,307.045L407.703,307.045z"/>
				</g>
				<path clip-path="url(#SVGID_6_)" fill="#BD2033" d="M408.461,306.459c0.02,0.146,0.129,0.121,0.213,0.089
					c0.098-0.041,0.125-0.171,0.031-0.218C408.605,306.281,408.441,306.352,408.461,306.459L408.461,306.459z"/>
				<g clip-path="url(#SVGID_6_)">
					<path fill="#BD2033" d="M408.568,306.576c-0.062,0-0.098-0.039-0.109-0.117c0.008-0.021,0.016-0.037,0.027-0.052
						c-0.012,0.215,0.111,0.167,0.188,0.138c0.049-0.021,0.086-0.07,0.086-0.121c0-0.023-0.006-0.043-0.02-0.061
						c0.021,0.019,0.027,0.039,0.027,0.061c-0.002,0.053-0.039,0.104-0.09,0.129C408.646,306.563,408.605,306.576,408.568,306.576
						L408.568,306.576z"/>
				</g>
				<path clip-path="url(#SVGID_6_)" fill="#BD2033" d="M404.074,309.893c-0.131,0.289-0.018,0.572,0.193,0.518
					c0.207-0.055,0.414-0.454,0.262-0.58C404.375,309.701,404.162,309.7,404.074,309.893L404.074,309.893z"/>
				<g clip-path="url(#SVGID_6_)">
					<path fill="#BD2033" d="M404.217,310.42c-0.061,0-0.113-0.031-0.15-0.086c-0.068-0.107-0.066-0.281,0.006-0.441
						c0.078-0.177,0.297-0.202,0.459-0.066c0.053,0.042,0.066,0.114,0.047,0.208c-0.035,0.151-0.166,0.341-0.311,0.38
						L404.217,310.42L404.217,310.42z M404.303,309.744c-0.1,0-0.18,0.053-0.223,0.15c-0.074,0.158-0.076,0.33-0.008,0.436
						c0.037,0.054,0.084,0.084,0.145,0.084v0.004l0.049-0.012c0.139-0.037,0.271-0.226,0.307-0.373
						c0.02-0.09,0.002-0.161-0.047-0.201C404.459,309.775,404.379,309.744,404.303,309.744L404.303,309.744z"/>
				</g>
				<path clip-path="url(#SVGID_6_)" fill="#BD2033" d="M386.479,297.905c-0.484-0.045-1.59-0.266-1.637-0.045
					c-0.043,0.222,0.598,2.81,0.93,3.142s1.881,1.04,2.035,0.952c0.156-0.089-0.311-1.704-0.486-1.992
					c-0.178-0.287-0.707-1.329-0.664-1.373C386.702,298.546,386.458,297.905,386.479,297.905L386.479,297.905z"/>
				<path clip-path="url(#SVGID_6_)" fill="#BD2033" d="M385.506,297.816c0.119-0.623,0.842,0.124,0.77,0.935
					c-0.033,0.275,0.119,0.578,0.27,0.728L385.506,297.816z"/>
				<g clip-path="url(#SVGID_6_)">
					<path fill="#010101" d="M386.456,299.566c-0.18-0.18-0.342-0.523-0.303-0.831c0.049-0.537-0.293-1.003-0.449-1.024
						c-0.027,0.004-0.068,0.097-0.074,0.129l-0.246-0.047c0.064-0.344,0.289-0.336,0.355-0.33c0.338,0.047,0.719,0.668,0.662,1.297
						c-0.029,0.232,0.1,0.496,0.232,0.628L386.456,299.566L386.456,299.566z"/>
				</g>
				<path clip-path="url(#SVGID_6_)" fill="#BD2033" d="M386.129,297.846l-0.027,0.036c0.363-0.614,0.713,0.261,0.768,1.27
					L386.129,297.846z"/>
				<g clip-path="url(#SVGID_6_)">
					<path fill="#010101" d="M386.745,299.158c-0.041-0.79-0.256-1.321-0.391-1.354c-0.031-0.017-0.072,0.029-0.129,0.115
						l0.004,0.001l-0.027,0.036l-0.207-0.138c0.152-0.262,0.312-0.284,0.42-0.259c0.396,0.098,0.551,1.042,0.58,1.584
						L386.745,299.158L386.745,299.158z"/>
				</g>
				<path clip-path="url(#SVGID_6_)" fill="#BD2033" d="M384.879,297.75c-0.021-0.504,0.797-0.649,0.746,1.172
					c0.357,0.23,0.775,1.111,0.797,1.426c0.268,0.062,0.713,0.391,0.822,0.663L384.879,297.75z"/>
				<g clip-path="url(#SVGID_6_)">
					<path fill="#010101" d="M387.127,301.059c-0.092-0.229-0.502-0.535-0.732-0.589l-0.092-0.021l-0.006-0.092
						c-0.02-0.294-0.434-1.131-0.74-1.329l-0.057-0.038v-0.071c0.031-1.097-0.256-1.319-0.314-1.354
						c-0.039-0.026-0.076-0.028-0.105-0.007c-0.051,0.03-0.08,0.104-0.076,0.188l-0.25,0.01c-0.008-0.176,0.068-0.334,0.197-0.412
						c0.109-0.065,0.242-0.064,0.359,0.004c0.174,0.102,0.459,0.433,0.441,1.513c0.344,0.276,0.711,1.009,0.783,1.392
						c0.303,0.108,0.711,0.428,0.824,0.713L387.127,301.059L387.127,301.059z"/>
				</g>
				<path clip-path="url(#SVGID_6_)" fill="#BD2033" d="M386.885,307.832c0.037-1.385,0.061-4.352-0.084-4.674
					c-0.256-0.595-1.539-1.287-1.93-2.223c-0.393-0.99-0.725-3.252-0.564-3.524c0.205-0.392,0.9,0.483,0.711,1.447
					c0.838,0.986,0.662,1.573,0.816,1.699c0.518,0.397,1.307,0.671,1.447,1.028c0.287,0.637-0.062-0.902-0.293-1.217
					c-0.23-0.314-0.629-1.007-0.357-1.173c0.273-0.168,0.754,0.272,0.818,0.397c0.062,0.126,0.713,0.838,0.9,1.007
					c0.336,0.251,1.184,0.814,1.166,1.296c0,0.779,0.068,5.908,0.068,5.908L386.885,307.832z"/>
				<g clip-path="url(#SVGID_6_)">
					<path fill="#010101" d="M387.008,307.835l-0.248-0.005c0.047-1.754,0.043-4.359-0.074-4.621
						c-0.104-0.239-0.414-0.52-0.744-0.816c-0.447-0.403-0.957-0.86-1.188-1.409c-0.363-0.921-0.762-3.283-0.557-3.635
						c0.072-0.135,0.207-0.192,0.352-0.14c0.336,0.12,0.727,0.841,0.602,1.614c0.566,0.684,0.664,1.188,0.719,1.463
						c0.014,0.07,0.031,0.158,0.045,0.176c0.189,0.145,0.424,0.275,0.643,0.4c0.244,0.137,0.465,0.262,0.625,0.398
						c-0.08-0.312-0.203-0.692-0.295-0.818c-0.055-0.075-0.541-0.753-0.465-1.141c0.02-0.094,0.068-0.167,0.145-0.213
						c0.068-0.041,0.186-0.082,0.357-0.034c0.279,0.08,0.576,0.362,0.639,0.483c0.051,0.101,0.67,0.79,0.871,0.969l0.107,0.081
						c0.418,0.304,1.117,0.814,1.1,1.314c0,0.774,0.068,5.902,0.068,5.902l-0.25,0.005c0,0-0.068-5.133-0.068-5.912
						c0.012-0.371-0.668-0.869-0.996-1.109l-0.119-0.088c-0.186-0.165-0.861-0.895-0.938-1.051
						c-0.031-0.062-0.271-0.294-0.482-0.353c-0.068-0.02-0.121-0.019-0.158,0.006c-0.064,0.231,0.156,0.672,0.391,0.994
						c0.16,0.216,0.5,1.315,0.406,1.495l-0.035,0.069l-0.088,0.003c-0.096-0.003-0.143-0.092-0.205-0.227
						c-0.072-0.184-0.406-0.373-0.732-0.557c-0.23-0.13-0.473-0.269-0.676-0.425c-0.086-0.068-0.105-0.174-0.135-0.322
						c-0.053-0.275-0.145-0.737-0.701-1.394l-0.039-0.045l0.012-0.06c0.139-0.708-0.234-1.321-0.43-1.39
						c-0.164,0.246,0.107,2.394,0.521,3.445c0.207,0.493,0.693,0.932,1.123,1.318c0.363,0.328,0.682,0.612,0.805,0.901
						C387.09,303.5,387.034,306.938,387.008,307.835L387.008,307.835z"/>
				</g>
				<path clip-path="url(#SVGID_6_)" fill="#BD2033" d="M386.727,309.659c0,0-0.004,0.557-0.004,0.568
					c0.242,0.294,1.252,0.328,1.479,0.327c0.219-0.008,1.168,0.01,1.391-0.354c0.004-0.011,0.014-0.474,0.014-0.602L386.727,309.659
					z"/>
				<g clip-path="url(#SVGID_6_)">
					<path fill="#010101" d="M388.229,310.678c-0.289,0-1.318-0.025-1.604-0.371l-0.023-0.648l0.25,0.002l-0.006,0.567
						c0.135,0.116,0.881,0.187,1.354,0.202c0.766-0.015,1.176-0.113,1.285-0.293c-0.01-0.003-0.006-0.418-0.006-0.537h0.252
						c0,0.18-0.004,0.605-0.025,0.653c-0.217,0.359-0.879,0.415-1.43,0.425C388.264,310.678,388.247,310.678,388.229,310.678
						L388.229,310.678z"/>
				</g>
				<path clip-path="url(#SVGID_6_)" fill="#BD2033" d="M386.682,308.835c-0.279,0.062-0.354,0.405-0.154,0.653
					c0.16,0.202,0.824,0.436,1.584,0.451c0.764,0.016,1.771-0.249,1.818-0.668c0.016-0.421-0.379-0.395-0.33-0.379L386.682,308.835z
					"/>
				<g clip-path="url(#SVGID_6_)">
					<path fill="#010101" d="M388.178,310.065c-0.021,0-0.047,0-0.068-0.001c-0.732-0.015-1.471-0.234-1.682-0.499
						c-0.131-0.163-0.172-0.376-0.107-0.558c0.055-0.151,0.176-0.26,0.336-0.295l0.053,0.244c-0.096,0.02-0.137,0.086-0.152,0.135
						c-0.037,0.1-0.01,0.221,0.068,0.318c0.125,0.16,0.752,0.39,1.49,0.404c0.779-0.016,1.656-0.271,1.691-0.557
						c0.002-0.083-0.02-0.151-0.062-0.193c-0.045-0.046-0.088-0.066-0.127-0.055l-0.018-0.119l-0.041,0.121l-0.086-0.15l0.166-0.088
						l-0.002,0.005l0.031-0.015c0.188,0.024,0.4,0.174,0.387,0.512C389.997,309.803,388.952,310.065,388.178,310.065
						L388.178,310.065z"/>
				</g>
				<path clip-path="url(#SVGID_6_)" fill="#BD2033" d="M386.682,308.064c-0.279,0.062-0.33,0.412-0.135,0.662
					c0.16,0.202,0.834,0.482,1.596,0.498s1.725-0.296,1.771-0.717c0.016-0.418-0.273-0.381-0.295-0.371L386.682,308.064z"/>
				<g clip-path="url(#SVGID_6_)">
					<path fill="#010101" d="M388.194,309.352c-0.018,0-0.035,0-0.053-0.002c-0.766-0.016-1.494-0.296-1.691-0.546
						c-0.137-0.172-0.18-0.394-0.115-0.578c0.051-0.146,0.168-0.25,0.322-0.284l0.053,0.243c-0.068,0.017-0.115,0.058-0.139,0.125
						c-0.037,0.103-0.008,0.234,0.076,0.339c0.117,0.15,0.736,0.436,1.5,0.451c0.781,0.01,1.609-0.296,1.643-0.605
						c0.004-0.1-0.016-0.179-0.057-0.213l-0.168-0.259c0.057-0.026,0.186-0.03,0.295,0.042c0.088,0.057,0.189,0.182,0.18,0.449
						C389.981,309.044,388.944,309.352,388.194,309.352L388.194,309.352z"/>
				</g>
				<path clip-path="url(#SVGID_6_)" fill="#BD2033" d="M388.268,308.492c1.01,0.016,1.662-0.48,1.662-0.745
					s-0.326-0.28-0.529-0.202c-0.201,0.077-0.512,0.275-1.164,0.28c-0.668,0.021-1.26-0.466-1.461-0.452
					c-0.203,0.018-0.361,0.234-0.295,0.468C386.559,308.07,387.272,308.523,388.268,308.492L388.268,308.492z"/>
				<g clip-path="url(#SVGID_6_)">
					<path fill="#010101" d="M388.17,308.619c-0.947,0-1.703-0.436-1.807-0.737c-0.047-0.155-0.02-0.312,0.068-0.435
						c0.078-0.115,0.201-0.188,0.334-0.197c0.145,0.041,0.25,0.06,0.426,0.146c0.262,0.129,0.625,0.304,1.004,0.304
						c0.555-0.003,0.846-0.134,1.039-0.22l0.123-0.052c0.318-0.122,0.695,0.019,0.697,0.318c0,0.349-0.695,0.872-1.74,0.872H388.17
						L388.17,308.619z M386.786,307.498c-0.059,0.005-0.113,0.039-0.15,0.093c-0.041,0.062-0.057,0.141-0.033,0.216
						c0.043,0.125,0.621,0.562,1.568,0.562v0.125l0.094-0.127l0,0c1.014,0,1.541-0.465,1.541-0.62c0-0.028,0-0.118-0.18-0.118
						c-0.061,0-0.125,0.012-0.18,0.033l-0.107,0.047c-0.213,0.095-0.535,0.236-1.1,0.241c-0.002,0-0.004,0-0.004,0
						c-0.479,0-0.869-0.19-1.152-0.329C386.963,307.564,386.833,307.498,386.786,307.498L386.786,307.498z"/>
				</g>
				<path clip-path="url(#SVGID_6_)" fill="#BD2033" d="M415.234,297.905c0.486-0.045,1.594-0.266,1.637-0.045
					c0.045,0.222-0.598,2.81-0.93,3.142s-1.877,1.04-2.033,0.952c-0.154-0.089,0.309-1.704,0.484-1.992
					c0.18-0.287,0.711-1.329,0.666-1.373S415.258,297.905,415.234,297.905L415.234,297.905z"/>
				<path clip-path="url(#SVGID_6_)" fill="#BD2033" d="M416.209,297.816c-0.119-0.623-0.844,0.124-0.77,0.935
					c0.033,0.275-0.119,0.578-0.268,0.728L416.209,297.816z"/>
				<g clip-path="url(#SVGID_6_)">
					<path fill="#010101" d="M415.26,299.566l-0.176-0.178c0.131-0.133,0.258-0.397,0.23-0.622
						c-0.057-0.636,0.324-1.256,0.662-1.303c0.064-0.007,0.289-0.014,0.355,0.33l-0.246,0.047c-0.004-0.031-0.02-0.125-0.076-0.129
						c-0.152,0.021-0.494,0.487-0.449,1.029C415.602,299.041,415.439,299.386,415.26,299.566L415.26,299.566z"/>
				</g>
				<path clip-path="url(#SVGID_6_)" fill="#BD2033" d="M415.586,297.846l0.029,0.036c-0.363-0.614-0.717,0.261-0.77,1.27
					L415.586,297.846z"/>
				<g clip-path="url(#SVGID_6_)">
					<path fill="#010101" d="M414.971,299.158l-0.25-0.014c0.027-0.542,0.184-1.486,0.582-1.584
						c0.105-0.025,0.264-0.003,0.418,0.259l-0.207,0.138l0.033-0.034l-0.039,0.022c-0.066-0.106-0.117-0.156-0.145-0.141
						C415.227,297.837,415.014,298.368,414.971,299.158L414.971,299.158z"/>
				</g>
				<path clip-path="url(#SVGID_6_)" fill="#BD2033" d="M416.834,297.75c0.023-0.504-0.795-0.649-0.744,1.172
					c-0.357,0.23-0.775,1.111-0.795,1.426c-0.271,0.062-0.713,0.391-0.822,0.663L416.834,297.75z"/>
				<g clip-path="url(#SVGID_6_)">
					<path fill="#010101" d="M414.586,301.059l-0.229-0.093c0.113-0.286,0.52-0.605,0.822-0.713
						c0.072-0.383,0.438-1.118,0.785-1.392c-0.02-1.08,0.264-1.411,0.438-1.511c0.119-0.071,0.25-0.074,0.361-0.006
						c0.127,0.078,0.203,0.236,0.195,0.412l-0.246-0.01c0.002-0.083-0.029-0.158-0.078-0.188c-0.031-0.02-0.068-0.019-0.107,0.007
						c-0.057,0.034-0.344,0.257-0.312,1.354l0.002,0.071l-0.059,0.038c-0.307,0.198-0.723,1.034-0.742,1.329l-0.006,0.092
						l-0.09,0.021C415.092,300.523,414.678,300.83,414.586,301.059L414.586,301.059z"/>
				</g>
				<path clip-path="url(#SVGID_6_)" fill="#BD2033" d="M414.832,307.832c-0.037-1.385-0.061-4.352,0.084-4.674
					c0.256-0.595,1.537-1.287,1.926-2.223c0.393-0.99,0.729-3.252,0.568-3.524c-0.209-0.392-0.902,0.483-0.713,1.447
					c-0.838,0.986-0.662,1.573-0.818,1.699c-0.516,0.397-1.307,0.671-1.445,1.028c-0.287,0.637,0.062-0.902,0.293-1.217
					c0.232-0.314,0.631-1.007,0.357-1.173c-0.273-0.168-0.756,0.272-0.818,0.397c-0.062,0.126-0.713,0.838-0.9,1.007
					c-0.336,0.251-1.186,0.814-1.168,1.296c0.002,0.779-0.068,5.908-0.068,5.908L414.832,307.832z"/>
				<g clip-path="url(#SVGID_6_)">
					<path fill="#010101" d="M414.707,307.835c-0.027-0.897-0.084-4.335,0.096-4.728c0.123-0.287,0.438-0.571,0.805-0.899
						c0.428-0.386,0.914-0.823,1.121-1.321c0.416-1.048,0.686-3.196,0.574-3.414c-0.25,0.041-0.621,0.653-0.482,1.361l0.012,0.06
						l-0.041,0.045c-0.553,0.655-0.645,1.117-0.699,1.392c-0.031,0.148-0.051,0.256-0.133,0.324
						c-0.205,0.156-0.449,0.294-0.68,0.425c-0.322,0.184-0.658,0.373-0.729,0.551c-0.062,0.137-0.111,0.229-0.209,0.232
						l-0.076,0.002l-0.045-0.074c-0.094-0.18,0.246-1.277,0.406-1.495c0.236-0.321,0.457-0.763,0.42-0.946
						c-0.064-0.071-0.119-0.075-0.188-0.054c-0.211,0.059-0.451,0.29-0.482,0.354c-0.078,0.156-0.754,0.886-0.93,1.042l-0.127,0.095
						c-0.328,0.24-1.01,0.738-0.998,1.105c0.002,0.783-0.068,5.916-0.068,5.916l-0.25-0.005c0,0,0.07-5.128,0.068-5.907
						c-0.018-0.495,0.682-1.005,1.1-1.309l0.117-0.088c0.193-0.172,0.812-0.858,0.865-0.961c0.061-0.121,0.355-0.403,0.637-0.483
						c0.17-0.048,0.291-0.007,0.357,0.034c0.074,0.046,0.125,0.12,0.143,0.213c0.076,0.391-0.408,1.065-0.463,1.142
						c-0.094,0.125-0.215,0.504-0.295,0.816c0.158-0.135,0.381-0.26,0.625-0.397c0.219-0.125,0.451-0.255,0.645-0.403
						c0.014-0.017,0.031-0.105,0.043-0.175c0.053-0.274,0.152-0.78,0.719-1.462c-0.125-0.771,0.264-1.494,0.6-1.614
						c0.146-0.048,0.281,0.004,0.357,0.145c0.201,0.348-0.199,2.71-0.562,3.628c-0.23,0.55-0.738,1.007-1.186,1.412
						c-0.328,0.295-0.641,0.576-0.744,0.814c-0.119,0.262-0.121,2.867-0.072,4.621L414.707,307.835L414.707,307.835z"/>
				</g>
				<path clip-path="url(#SVGID_6_)" fill="#BD2033" d="M414.988,309.659c0,0,0.004,0.557,0.004,0.568
					c-0.24,0.294-1.252,0.328-1.477,0.327c-0.221-0.008-1.17,0.01-1.393-0.354c-0.006-0.011-0.014-0.474-0.014-0.602
					L414.988,309.659z"/>
				<g clip-path="url(#SVGID_6_)">
					<path fill="#010101" d="M413.527,310.68c-0.006,0-0.01,0-0.012,0c-0.627-0.012-1.287-0.067-1.5-0.412
						c-0.029-0.062-0.031-0.488-0.031-0.668h0.25c0,0.119,0.008,0.534,0.012,0.585c0.094,0.132,0.502,0.23,1.199,0.243
						c0.559-0.01,1.289-0.082,1.451-0.279l-0.033-0.488l0.25-0.002l0.004,0.569C414.795,310.662,413.701,310.68,413.527,310.68
						L413.527,310.68z"/>
				</g>
				<path clip-path="url(#SVGID_6_)" fill="#BD2033" d="M415.033,308.835c0.277,0.062,0.352,0.405,0.156,0.653
					c-0.162,0.202-0.824,0.436-1.586,0.451s-1.773-0.249-1.818-0.668c-0.014-0.421,0.379-0.395,0.332-0.379L415.033,308.835z"/>
				<g clip-path="url(#SVGID_6_)">
					<path fill="#010101" d="M413.535,310.065c-0.771,0-1.818-0.263-1.875-0.78c-0.012-0.346,0.199-0.497,0.387-0.521l0.111-0.016
						l0.109,0.223l-0.109,0.039l-0.041-0.111l-0.02,0.111c-0.023-0.012-0.08,0.009-0.127,0.055c-0.043,0.042-0.062,0.11-0.061,0.203
						c0.031,0.276,0.893,0.539,1.691,0.547c0.734-0.015,1.363-0.244,1.488-0.404c0.076-0.098,0.105-0.219,0.07-0.318
						c-0.02-0.049-0.059-0.115-0.156-0.135l0.055-0.244c0.162,0.035,0.283,0.144,0.336,0.295c0.064,0.182,0.021,0.395-0.109,0.558
						c-0.209,0.265-0.945,0.484-1.678,0.499C413.584,310.065,413.559,310.065,413.535,310.065L413.535,310.065z"/>
				</g>
				<path clip-path="url(#SVGID_6_)" fill="#BD2033" d="M415.033,308.064c0.277,0.062,0.332,0.412,0.133,0.662
					c-0.158,0.202-0.832,0.482-1.594,0.498s-1.725-0.296-1.773-0.717c-0.014-0.418,0.275-0.381,0.297-0.371L415.033,308.064z"/>
				<g clip-path="url(#SVGID_6_)">
					<path fill="#010101" d="M413.521,309.352c-0.75,0-1.787-0.308-1.848-0.829c-0.008-0.276,0.094-0.401,0.18-0.458
						c0.111-0.072,0.242-0.068,0.295-0.042l-0.107,0.226c-0.1,0.067-0.119,0.146-0.117,0.258c0.035,0.298,0.873,0.58,1.646,0.594
						c0.764-0.016,1.381-0.301,1.5-0.451c0.082-0.104,0.109-0.236,0.076-0.339c-0.025-0.067-0.07-0.108-0.143-0.125l0.055-0.243
						c0.152,0.034,0.27,0.139,0.324,0.284c0.064,0.185,0.02,0.406-0.117,0.578c-0.199,0.25-0.926,0.53-1.689,0.546
						C413.559,309.352,413.539,309.352,413.521,309.352L413.521,309.352z"/>
				</g>
				<path clip-path="url(#SVGID_6_)" fill="#BD2033" d="M413.447,308.492c-1.008,0.016-1.662-0.48-1.662-0.745
					s0.326-0.28,0.529-0.202c0.201,0.077,0.512,0.275,1.164,0.28c0.668,0.021,1.26-0.466,1.461-0.452
					c0.201,0.018,0.361,0.234,0.295,0.468C415.154,308.07,414.441,308.523,413.447,308.492L413.447,308.492z"/>
				<g clip-path="url(#SVGID_6_)">
					<path fill="#010101" d="M413.545,308.619l-0.1-0.002c-0.004,0-0.004,0-0.006,0c-0.498,0-0.936-0.102-1.275-0.289
						c-0.316-0.174-0.504-0.391-0.504-0.581c0-0.3,0.379-0.44,0.699-0.318l0.119,0.052c0.195,0.086,0.488,0.217,1,0.22h0.004
						c0.42,0,0.777-0.177,1.041-0.304c0.178-0.086,0.303-0.148,0.406-0.148c0.152,0.012,0.273,0.084,0.355,0.199
						c0.086,0.123,0.111,0.279,0.068,0.428C415.246,308.184,414.49,308.619,413.545,308.619L413.545,308.619z M412.092,307.629
						c-0.182,0-0.182,0.09-0.182,0.118c0,0.052,0.092,0.208,0.375,0.36c0.305,0.168,0.701,0.26,1.113,0.26l0.146,0.002
						c0.945,0,1.525-0.438,1.572-0.569c0.018-0.068,0.006-0.146-0.039-0.209c-0.037-0.054-0.09-0.088-0.148-0.093
						c-0.045,0-0.178,0.066-0.295,0.123c-0.287,0.139-0.68,0.329-1.117,0.329c-0.604-0.005-0.926-0.146-1.139-0.241l-0.111-0.047
						C412.215,307.641,412.148,307.629,412.092,307.629L412.092,307.629z"/>
				</g>
			</g>
		</g>
	</g>
</g>
</svg>
