<?xml version="1.0" encoding="utf-8"?>
<!-- Generator: Adobe Illustrator 16.0.0, SVG Export Plug-In . SVG Version: 6.00 Build 0)  -->
<!DOCTYPE svg PUBLIC "-//W3C//DTD SVG 1.1//EN" "http://www.w3.org/Graphics/SVG/1.1/DTD/svg11.dtd">
<svg version="1.1" id="name" xmlns="http://www.w3.org/2000/svg" xmlns:xlink="http://www.w3.org/1999/xlink" x="0px" y="0px"
	 width="85.715px" height="50px" viewBox="358 276 85.715 50" enable-background="new 358 276 85.715 50" xml:space="preserve">
<g id="br">
	<g>
		<defs>
			<rect id="SVGID_1_" x="358" y="276" width="85.715" height="50"/>
		</defs>
		<clipPath id="SVGID_2_">
			<use xlink:href="#SVGID_1_"  overflow="visible"/>
		</clipPath>
		<rect x="358" y="276" clip-path="url(#SVGID_2_)" fill="#3D9244" width="85.715" height="50"/>
		<polygon clip-path="url(#SVGID_2_)" fill="#EDC223" points="371.216,300.998 400.857,319.928 430.501,300.998 400.857,282.071 		
			"/>
		<g clip-path="url(#SVGID_2_)">
			<defs>
				<rect id="SVGID_3_" x="358" y="276" width="85.715" height="50"/>
			</defs>
			<clipPath id="SVGID_4_">
				<use xlink:href="#SVGID_3_"  overflow="visible"/>
			</clipPath>
			<path clip-path="url(#SVGID_4_)" fill="#31276C" d="M413.357,300.998c0,6.9-5.6,12.501-12.5,12.501
				c-6.9,0-12.499-5.601-12.499-12.501c0-6.897,5.599-12.499,12.499-12.499C407.758,288.5,413.357,294.101,413.357,300.998"/>
			<path clip-path="url(#SVGID_4_)" fill="#FFFFFF" d="M393.716,295.642c-1.458,0-2.891,0.105-4.294,0.303
				c-0.269,0.614-0.493,1.253-0.667,1.912c1.612-0.28,3.268-0.429,4.961-0.429c7.331,0,14.016,2.763,19.077,7.302
				c0.198-0.638,0.346-1.3,0.442-1.976C407.957,298.316,401.149,295.642,393.716,295.642"/>
			<path clip-path="url(#SVGID_4_)" fill-rule="evenodd" clip-rule="evenodd" fill="#3D9244" d="M390.196,297.346
				c0.294-0.037,0.5-0.328,0.46-0.656c-0.04-0.326-0.31-0.562-0.604-0.526c-0.294,0.034-0.5,0.331-0.46,0.656
				C389.633,297.146,389.903,297.381,390.196,297.346 M390.17,297.125c0.173-0.021,0.291-0.205,0.266-0.408
				c-0.024-0.208-0.185-0.356-0.358-0.334c-0.173,0.021-0.293,0.203-0.266,0.408C389.836,296.998,389.999,297.146,390.17,297.125"/>
			<path clip-path="url(#SVGID_4_)" fill-rule="evenodd" clip-rule="evenodd" fill="#3D9244" d="M391.166,297.239l0.22-0.017
				l-0.028-0.44l0.473-0.034c0.206-0.014,0.362-0.193,0.348-0.401c-0.014-0.204-0.193-0.361-0.401-0.346l-0.678,0.048
				L391.166,297.239z M391.341,296.56l0.459-0.031c0.083-0.004,0.146-0.08,0.141-0.164c-0.007-0.085-0.078-0.149-0.162-0.141
				l-0.458,0.03L391.341,296.56z"/>
			<path clip-path="url(#SVGID_4_)" fill="#3D9244" d="M392.175,297.168c-0.01-0.17-0.037-0.545-0.29-0.525l-0.322,0.022
				c0.371-0.025,0.398,0.347,0.409,0.516"/>
			<path clip-path="url(#SVGID_4_)" fill-rule="evenodd" clip-rule="evenodd" fill="#3D9244" d="M392.676,297.144l0.561-0.012
				c0.283-0.002,0.506-0.234,0.501-0.519l-0.004-0.17c-0.005-0.28-0.236-0.505-0.519-0.501l-0.561,0.01L392.676,297.144z
				 M392.894,296.921l0.322-0.009c0.179-0.004,0.32-0.15,0.315-0.328v-0.102c-0.002-0.178-0.149-0.32-0.33-0.315l-0.322,0.004
				L392.894,296.921z"/>
			<polygon clip-path="url(#SVGID_4_)" fill="#3D9244" points="394.188,297.128 395.259,297.167 395.266,296.945 394.399,296.915 
				394.409,296.608 395.091,296.632 395.098,296.428 394.417,296.405 394.425,296.168 395.243,296.196 395.248,295.973 
				394.229,295.938 			"/>
			<polygon clip-path="url(#SVGID_4_)" fill="#3D9244" points="395.698,297.195 395.902,297.21 395.972,296.398 396.137,297.23 
				396.326,297.249 396.634,296.456 396.562,297.269 396.765,297.287 396.867,296.101 396.571,296.074 396.263,296.868 
				396.099,296.033 395.802,296.007 			"/>
			<polygon clip-path="url(#SVGID_4_)" fill="#3D9244" points="398.164,297.471 399.045,297.621 399.08,297.422 398.4,297.304 
				398.445,297.036 398.999,297.132 399.033,296.929 398.48,296.835 398.512,296.651 399.168,296.766 399.205,296.563 
				398.344,296.414 			"/>
			<path clip-path="url(#SVGID_4_)" fill-rule="evenodd" clip-rule="evenodd" fill="#3D9244" d="M400.424,297.915l0.215,0.054
				l0.111-0.426l0.459,0.118c0.201,0.052,0.406-0.068,0.461-0.267c0.047-0.199-0.072-0.405-0.271-0.458l-0.66-0.17L400.424,297.915z
				 M400.805,297.327l0.447,0.116c0.079,0.02,0.164-0.028,0.184-0.11c0.021-0.083-0.027-0.165-0.11-0.187l-0.444-0.115
				L400.805,297.327z"/>
			<path clip-path="url(#SVGID_4_)" fill-rule="evenodd" clip-rule="evenodd" fill="#3D9244" d="M401.885,298.303l0.211,0.068
				l0.133-0.422l0.455,0.142c0.195,0.062,0.406-0.045,0.472-0.243c0.06-0.198-0.048-0.406-0.245-0.469l-0.652-0.206L401.885,298.303
				z M402.297,297.739l0.436,0.138c0.082,0.025,0.167-0.019,0.192-0.1c0.026-0.083-0.017-0.166-0.099-0.193l-0.438-0.138
				L402.297,297.739z"/>
			<path clip-path="url(#SVGID_4_)" fill="#3D9244" d="M402.852,298.608c0.051-0.161,0.162-0.517-0.08-0.595l-0.31-0.097
				c0.358,0.112,0.244,0.469,0.193,0.631"/>
			<path clip-path="url(#SVGID_4_)" fill-rule="evenodd" clip-rule="evenodd" fill="#3D9244" d="M403.826,298.958
				c0.277,0.104,0.596-0.062,0.71-0.37c0.113-0.307-0.017-0.642-0.293-0.746c-0.278-0.104-0.597,0.062-0.71,0.369
				C403.416,298.521,403.547,298.854,403.826,298.958 M403.902,298.75c0.162,0.062,0.353-0.047,0.426-0.24
				c0.071-0.193,0-0.397-0.162-0.46c-0.164-0.061-0.354,0.045-0.426,0.241C403.666,298.485,403.74,298.692,403.902,298.75"/>
			<path clip-path="url(#SVGID_4_)" fill-rule="evenodd" clip-rule="evenodd" fill="#3D9244" d="M405.227,299.525
				c0.272,0.119,0.6-0.033,0.73-0.334s0.017-0.639-0.256-0.759c-0.271-0.116-0.598,0.03-0.728,0.333
				C404.843,299.066,404.957,299.407,405.227,299.525 M405.314,299.322c0.159,0.071,0.355-0.029,0.438-0.218
				c0.086-0.188,0.022-0.4-0.139-0.469c-0.156-0.068-0.355,0.029-0.438,0.218C405.093,299.042,405.155,299.25,405.314,299.322"/>
			
				<rect x="405.488" y="299.094" transform="matrix(-0.9184 -0.3956 0.3956 -0.9184 659.9726 734.4562)" clip-path="url(#SVGID_4_)" fill="#3D9244" width="0.453" height="0.171"/>
			
				<rect x="405.674" y="299.132" transform="matrix(-0.9193 -0.3936 0.3936 -0.9193 660.9235 734.3915)" clip-path="url(#SVGID_4_)" fill="#3D9244" width="0.17" height="0.597"/>
			<path clip-path="url(#SVGID_4_)" fill-rule="evenodd" clip-rule="evenodd" fill="#3D9244" d="M406.115,299.924l0.199,0.098
				l0.199-0.395l0.423,0.212c0.188,0.095,0.412,0.018,0.503-0.167c0.091-0.186,0.02-0.409-0.168-0.504l-0.607-0.301L406.115,299.924
				z M406.609,299.43l0.412,0.205c0.077,0.038,0.168,0.007,0.205-0.068c0.037-0.077,0.008-0.167-0.068-0.206l-0.409-0.206
				L406.609,299.43z"/>
			<path clip-path="url(#SVGID_4_)" fill="#3D9244" d="M407.021,300.374c0.077-0.15,0.242-0.484,0.015-0.599l-0.287-0.145
				c0.333,0.166,0.168,0.503,0.091,0.653"/>
			<polygon clip-path="url(#SVGID_4_)" fill="#3D9244" points="407.465,300.61 408.396,301.137 408.505,300.944 407.752,300.515 
				407.902,300.252 408.494,300.586 408.596,300.408 408.002,300.075 408.119,299.866 408.832,300.268 408.939,300.075 
				408.051,299.573 			"/>
			<path clip-path="url(#SVGID_4_)" fill="#3D9244" d="M409.201,301.191c-0.062,0.101,0.003,0.213,0.145,0.304
				c0.143,0.091,0.242,0.087,0.281,0.024c0.134-0.205-0.619-0.504-0.389-0.86c0.199-0.305,0.543-0.068,0.67,0.014
				c0.131,0.083,0.338,0.295,0.176,0.54l-0.219-0.14c0.072-0.106-0.005-0.211-0.121-0.281c-0.108-0.076-0.202-0.105-0.268,0
				c-0.111,0.166,0.628,0.478,0.4,0.835c-0.164,0.262-0.457,0.146-0.65,0.023c-0.164-0.105-0.412-0.354-0.25-0.604L409.201,301.191z
				"/>
			<path clip-path="url(#SVGID_4_)" fill="#3D9244" d="M410.479,302.035c-0.071,0.098-0.011,0.211,0.128,0.311
				c0.137,0.1,0.236,0.102,0.281,0.039c0.143-0.195-0.597-0.533-0.347-0.877c0.216-0.297,0.546-0.041,0.671,0.049
				c0.125,0.089,0.32,0.311,0.147,0.548l-0.213-0.15c0.073-0.103,0.005-0.209-0.108-0.29c-0.105-0.076-0.193-0.112-0.264-0.012
				c-0.119,0.16,0.6,0.51,0.355,0.853c-0.18,0.255-0.467,0.125-0.651-0.007c-0.159-0.115-0.392-0.375-0.219-0.618L410.479,302.035z"
				/>
			<path clip-path="url(#SVGID_4_)" fill-rule="evenodd" clip-rule="evenodd" fill="#3D9244" d="M411.688,303.406
				c0.229,0.184,0.585,0.123,0.789-0.133c0.205-0.257,0.182-0.613-0.048-0.799c-0.233-0.184-0.585-0.126-0.793,0.131
				C411.434,302.864,411.454,303.223,411.688,303.406 M411.826,303.232c0.134,0.107,0.35,0.066,0.478-0.097
				c0.131-0.161,0.122-0.381-0.015-0.49c-0.137-0.108-0.35-0.063-0.477,0.097C411.682,302.906,411.688,303.123,411.826,303.232"/>
			<polygon clip-path="url(#SVGID_4_)" fill="#FFFFFF" points="390.655,298.219 390.489,298.728 390.741,298.81 			"/>
			<polygon clip-path="url(#SVGID_4_)" fill="#FFFFFF" points="390.655,298.219 390.819,298.728 390.565,298.81 			"/>
			<polygon clip-path="url(#SVGID_4_)" fill="#FFFFFF" points="391.163,298.588 390.626,298.588 390.626,298.854 			"/>
			<polygon clip-path="url(#SVGID_4_)" fill="#FFFFFF" points="391.163,298.588 390.73,298.902 390.571,298.688 			"/>
			<polygon clip-path="url(#SVGID_4_)" fill="#FFFFFF" points="390.145,298.588 390.578,298.902 390.734,298.688 			"/>
			<polygon clip-path="url(#SVGID_4_)" fill="#FFFFFF" points="390.145,298.588 390.682,298.588 390.682,298.854 			"/>
			<polygon clip-path="url(#SVGID_4_)" fill="#FFFFFF" points="390.967,299.188 390.803,298.678 390.548,298.762 			"/>
			<polygon clip-path="url(#SVGID_4_)" fill="#FFFFFF" points="390.967,299.188 390.537,298.873 390.692,298.655 			"/>
			<polygon clip-path="url(#SVGID_4_)" fill="#FFFFFF" points="390.339,299.188 390.774,298.873 390.615,298.655 			"/>
			<polygon clip-path="url(#SVGID_4_)" fill="#FFFFFF" points="390.339,299.188 390.504,298.678 390.76,298.762 			"/>
			<polygon clip-path="url(#SVGID_4_)" fill="#FFFFFF" points="391.759,303.475 391.594,303.982 391.848,304.064 			"/>
			<polygon clip-path="url(#SVGID_4_)" fill="#FFFFFF" points="391.759,303.475 391.923,303.982 391.672,304.064 			"/>
			<polygon clip-path="url(#SVGID_4_)" fill="#FFFFFF" points="392.269,303.845 391.733,303.845 391.733,304.111 			"/>
			<polygon clip-path="url(#SVGID_4_)" fill="#FFFFFF" points="392.269,303.845 391.834,304.157 391.679,303.943 			"/>
			<polygon clip-path="url(#SVGID_4_)" fill="#FFFFFF" points="391.249,303.845 391.682,304.157 391.841,303.943 			"/>
			<polygon clip-path="url(#SVGID_4_)" fill="#FFFFFF" points="391.249,303.845 391.786,303.845 391.786,304.111 			"/>
			<polygon clip-path="url(#SVGID_4_)" fill="#FFFFFF" points="392.074,304.441 391.909,303.934 391.653,304.017 			"/>
			<polygon clip-path="url(#SVGID_4_)" fill="#FFFFFF" points="392.074,304.441 391.641,304.127 391.798,303.913 			"/>
			<polygon clip-path="url(#SVGID_4_)" fill="#FFFFFF" points="391.445,304.441 391.878,304.127 391.72,303.913 			"/>
			<polygon clip-path="url(#SVGID_4_)" fill="#FFFFFF" points="391.445,304.441 391.611,303.934 391.867,304.017 			"/>
			<polygon clip-path="url(#SVGID_4_)" fill="#FFFFFF" points="390.23,304.773 390.119,305.113 390.288,305.168 			"/>
			<polygon clip-path="url(#SVGID_4_)" fill="#FFFFFF" points="390.23,304.773 390.339,305.113 390.169,305.168 			"/>
			<polygon clip-path="url(#SVGID_4_)" fill="#FFFFFF" points="390.568,305.021 390.211,305.021 390.211,305.199 			"/>
			<polygon clip-path="url(#SVGID_4_)" fill="#FFFFFF" points="390.568,305.021 390.278,305.23 390.175,305.086 			"/>
			<polygon clip-path="url(#SVGID_4_)" fill="#FFFFFF" points="389.889,305.021 390.177,305.23 390.281,305.086 			"/>
			<polygon clip-path="url(#SVGID_4_)" fill="#FFFFFF" points="389.889,305.021 390.246,305.021 390.246,305.199 			"/>
			<polygon clip-path="url(#SVGID_4_)" fill="#FFFFFF" points="390.44,305.42 390.33,305.082 390.159,305.137 			"/>
			<polygon clip-path="url(#SVGID_4_)" fill="#FFFFFF" points="390.44,305.42 390.149,305.21 390.255,305.064 			"/>
			<polygon clip-path="url(#SVGID_4_)" fill="#FFFFFF" points="390.019,305.42 390.308,305.21 390.203,305.064 			"/>
			<polygon clip-path="url(#SVGID_4_)" fill="#FFFFFF" points="390.019,305.42 390.129,305.082 390.298,305.137 			"/>
			<polygon clip-path="url(#SVGID_4_)" fill="#FFFFFF" points="392.983,302.988 392.906,303.229 393.027,303.271 			"/>
			<polygon clip-path="url(#SVGID_4_)" fill="#FFFFFF" points="392.983,302.988 393.062,303.229 392.942,303.271 			"/>
			<polygon clip-path="url(#SVGID_4_)" fill="#FFFFFF" points="393.228,303.166 392.972,303.166 392.972,303.292 			"/>
			<polygon clip-path="url(#SVGID_4_)" fill="#FFFFFF" points="393.228,303.166 393.02,303.316 392.945,303.213 			"/>
			<polygon clip-path="url(#SVGID_4_)" fill="#FFFFFF" points="392.742,303.166 392.946,303.316 393.023,303.213 			"/>
			<polygon clip-path="url(#SVGID_4_)" fill="#FFFFFF" points="392.742,303.166 392.995,303.166 392.995,303.292 			"/>
			<polygon clip-path="url(#SVGID_4_)" fill="#FFFFFF" points="393.134,303.449 393.054,303.205 392.935,303.246 			"/>
			<polygon clip-path="url(#SVGID_4_)" fill="#FFFFFF" points="393.134,303.449 392.928,303.301 393.001,303.198 			"/>
			<polygon clip-path="url(#SVGID_4_)" fill="#FFFFFF" points="392.834,303.449 393.04,303.301 392.965,303.198 			"/>
			<polygon clip-path="url(#SVGID_4_)" fill="#FFFFFF" points="392.834,303.449 392.914,303.205 393.034,303.246 			"/>
			<polygon clip-path="url(#SVGID_4_)" fill="#FFFFFF" points="394.361,304.804 394.225,305.229 394.435,305.299 			"/>
			<polygon clip-path="url(#SVGID_4_)" fill="#FFFFFF" points="394.361,304.804 394.499,305.229 394.287,305.299 			"/>
			<polygon clip-path="url(#SVGID_4_)" fill="#FFFFFF" points="394.784,305.111 394.338,305.111 394.338,305.335 			"/>
			<polygon clip-path="url(#SVGID_4_)" fill="#FFFFFF" points="394.784,305.111 394.425,305.376 394.294,305.194 			"/>
			<polygon clip-path="url(#SVGID_4_)" fill="#FFFFFF" points="393.935,305.111 394.297,305.376 394.429,305.194 			"/>
			<polygon clip-path="url(#SVGID_4_)" fill="#FFFFFF" points="393.935,305.111 394.384,305.111 394.384,305.335 			"/>
			<polygon clip-path="url(#SVGID_4_)" fill="#FFFFFF" points="394.624,305.61 394.486,305.188 394.273,305.257 			"/>
			<polygon clip-path="url(#SVGID_4_)" fill="#FFFFFF" points="394.624,305.61 394.263,305.35 394.394,305.168 			"/>
			<polygon clip-path="url(#SVGID_4_)" fill="#FFFFFF" points="394.1,305.61 394.459,305.35 394.329,305.168 			"/>
			<polygon clip-path="url(#SVGID_4_)" fill="#FFFFFF" points="394.1,305.61 394.239,305.188 394.449,305.257 			"/>
			<polygon clip-path="url(#SVGID_4_)" fill="#FFFFFF" points="393.987,306.045 393.85,306.47 394.062,306.541 			"/>
			<polygon clip-path="url(#SVGID_4_)" fill="#FFFFFF" points="393.987,306.045 394.125,306.47 393.912,306.541 			"/>
			<polygon clip-path="url(#SVGID_4_)" fill="#FFFFFF" points="394.412,306.354 393.965,306.354 393.965,306.576 			"/>
			<polygon clip-path="url(#SVGID_4_)" fill="#FFFFFF" points="394.412,306.354 394.05,306.617 393.919,306.436 			"/>
			<polygon clip-path="url(#SVGID_4_)" fill="#FFFFFF" points="393.562,306.354 393.925,306.617 394.054,306.436 			"/>
			<polygon clip-path="url(#SVGID_4_)" fill="#FFFFFF" points="393.562,306.354 394.009,306.354 394.009,306.576 			"/>
			<polygon clip-path="url(#SVGID_4_)" fill="#FFFFFF" points="394.249,306.855 394.112,306.429 393.901,306.497 			"/>
			<polygon clip-path="url(#SVGID_4_)" fill="#FFFFFF" points="394.249,306.855 393.887,306.591 394.019,306.41 			"/>
			<polygon clip-path="url(#SVGID_4_)" fill="#FFFFFF" points="393.725,306.855 394.087,306.591 393.955,306.41 			"/>
			<polygon clip-path="url(#SVGID_4_)" fill="#FFFFFF" points="393.725,306.855 393.864,306.429 394.076,306.497 			"/>
			<polygon clip-path="url(#SVGID_4_)" fill="#FFFFFF" points="404.738,296.584 404.57,297.096 404.826,297.178 			"/>
			<polygon clip-path="url(#SVGID_4_)" fill="#FFFFFF" points="404.738,296.584 404.902,297.096 404.646,297.178 			"/>
			<polygon clip-path="url(#SVGID_4_)" fill="#FFFFFF" points="405.243,296.955 404.709,296.955 404.709,297.225 			"/>
			<polygon clip-path="url(#SVGID_4_)" fill="#FFFFFF" points="405.243,296.955 404.812,297.271 404.655,297.053 			"/>
			<polygon clip-path="url(#SVGID_4_)" fill="#FFFFFF" points="404.227,296.955 404.658,297.271 404.817,297.053 			"/>
			<polygon clip-path="url(#SVGID_4_)" fill="#FFFFFF" points="404.227,296.955 404.764,296.955 404.764,297.225 			"/>
			<polygon clip-path="url(#SVGID_4_)" fill="#FFFFFF" points="405.051,297.554 404.885,297.046 404.63,297.128 			"/>
			<polygon clip-path="url(#SVGID_4_)" fill="#FFFFFF" points="405.051,297.554 404.618,297.24 404.774,297.023 			"/>
			<polygon clip-path="url(#SVGID_4_)" fill="#FFFFFF" points="404.422,297.554 404.854,297.24 404.697,297.023 			"/>
			<polygon clip-path="url(#SVGID_4_)" fill="#FFFFFF" points="404.422,297.554 404.587,297.046 404.843,297.128 			"/>
			<polygon clip-path="url(#SVGID_4_)" fill="#FFFFFF" points="409.615,304.852 409.451,305.361 409.707,305.444 			"/>
			<polygon clip-path="url(#SVGID_4_)" fill="#FFFFFF" points="409.615,304.852 409.783,305.361 409.527,305.444 			"/>
			<polygon clip-path="url(#SVGID_4_)" fill="#FFFFFF" points="410.125,305.22 409.59,305.22 409.59,305.488 			"/>
			<polygon clip-path="url(#SVGID_4_)" fill="#FFFFFF" points="410.125,305.22 409.692,305.537 409.536,305.319 			"/>
			<polygon clip-path="url(#SVGID_4_)" fill="#FFFFFF" points="409.107,305.22 409.539,305.537 409.698,305.319 			"/>
			<polygon clip-path="url(#SVGID_4_)" fill="#FFFFFF" points="409.107,305.22 409.642,305.22 409.642,305.488 			"/>
			<polygon clip-path="url(#SVGID_4_)" fill="#FFFFFF" points="409.932,305.82 409.767,305.311 409.511,305.392 			"/>
			<polygon clip-path="url(#SVGID_4_)" fill="#FFFFFF" points="409.932,305.82 409.496,305.504 409.656,305.287 			"/>
			<polygon clip-path="url(#SVGID_4_)" fill="#FFFFFF" points="409.301,305.82 409.735,305.504 409.576,305.287 			"/>
			<polygon clip-path="url(#SVGID_4_)" fill="#FFFFFF" points="409.301,305.82 409.465,305.311 409.721,305.392 			"/>
			<polygon clip-path="url(#SVGID_4_)" fill="#FFFFFF" points="411.352,305.148 411.241,305.488 411.412,305.543 			"/>
			<polygon clip-path="url(#SVGID_4_)" fill="#FFFFFF" points="411.352,305.148 411.463,305.488 411.292,305.543 			"/>
			<polygon clip-path="url(#SVGID_4_)" fill="#FFFFFF" points="411.689,305.396 411.332,305.396 411.332,305.572 			"/>
			<polygon clip-path="url(#SVGID_4_)" fill="#FFFFFF" points="411.689,305.396 411.402,305.605 411.298,305.461 			"/>
			<polygon clip-path="url(#SVGID_4_)" fill="#FFFFFF" points="411.011,305.396 411.301,305.605 411.406,305.461 			"/>
			<polygon clip-path="url(#SVGID_4_)" fill="#FFFFFF" points="411.011,305.396 411.369,305.396 411.369,305.572 			"/>
			<polygon clip-path="url(#SVGID_4_)" fill="#FFFFFF" points="411.562,305.794 411.451,305.454 411.281,305.51 			"/>
			<polygon clip-path="url(#SVGID_4_)" fill="#FFFFFF" points="411.562,305.794 411.272,305.585 411.377,305.439 			"/>
			<polygon clip-path="url(#SVGID_4_)" fill="#FFFFFF" points="411.142,305.794 411.429,305.585 411.326,305.439 			"/>
			<polygon clip-path="url(#SVGID_4_)" fill="#FFFFFF" points="411.142,305.794 411.25,305.454 411.423,305.51 			"/>
			<polygon clip-path="url(#SVGID_4_)" fill="#FFFFFF" points="410.125,306.045 409.988,306.47 410.201,306.541 			"/>
			<polygon clip-path="url(#SVGID_4_)" fill="#FFFFFF" points="410.125,306.045 410.264,306.47 410.053,306.541 			"/>
			<polygon clip-path="url(#SVGID_4_)" fill="#FFFFFF" points="410.551,306.354 410.104,306.354 410.104,306.576 			"/>
			<polygon clip-path="url(#SVGID_4_)" fill="#FFFFFF" points="410.551,306.354 410.189,306.617 410.059,306.436 			"/>
			<polygon clip-path="url(#SVGID_4_)" fill="#FFFFFF" points="409.701,306.354 410.062,306.617 410.195,306.436 			"/>
			<polygon clip-path="url(#SVGID_4_)" fill="#FFFFFF" points="409.701,306.354 410.15,306.354 410.15,306.576 			"/>
			<polygon clip-path="url(#SVGID_4_)" fill="#FFFFFF" points="410.392,306.855 410.252,306.429 410.039,306.497 			"/>
			<polygon clip-path="url(#SVGID_4_)" fill="#FFFFFF" points="410.392,306.855 410.027,306.591 410.158,306.41 			"/>
			<polygon clip-path="url(#SVGID_4_)" fill="#FFFFFF" points="409.865,306.855 410.227,306.591 410.094,306.41 			"/>
			<polygon clip-path="url(#SVGID_4_)" fill="#FFFFFF" points="409.865,306.855 410.002,306.429 410.215,306.497 			"/>
			<polygon clip-path="url(#SVGID_4_)" fill="#FFFFFF" points="407.115,308.663 406.979,309.09 407.189,309.159 			"/>
			<polygon clip-path="url(#SVGID_4_)" fill="#FFFFFF" points="407.115,308.663 407.255,309.09 407.042,309.159 			"/>
			<polygon clip-path="url(#SVGID_4_)" fill="#FFFFFF" points="407.542,308.975 407.096,308.975 407.096,309.197 			"/>
			<polygon clip-path="url(#SVGID_4_)" fill="#FFFFFF" points="407.542,308.975 407.182,309.236 407.047,309.054 			"/>
			<polygon clip-path="url(#SVGID_4_)" fill="#FFFFFF" points="406.692,308.975 407.053,309.236 407.184,309.054 			"/>
			<polygon clip-path="url(#SVGID_4_)" fill="#FFFFFF" points="406.692,308.975 407.139,308.975 407.139,309.197 			"/>
			<polygon clip-path="url(#SVGID_4_)" fill="#FFFFFF" points="407.38,309.472 407.24,309.049 407.03,309.116 			"/>
			<polygon clip-path="url(#SVGID_4_)" fill="#FFFFFF" points="407.38,309.472 407.016,309.209 407.15,309.029 			"/>
			<polygon clip-path="url(#SVGID_4_)" fill="#FFFFFF" points="406.854,309.472 407.215,309.209 407.084,309.029 			"/>
			<polygon clip-path="url(#SVGID_4_)" fill="#FFFFFF" points="406.854,309.472 406.994,309.049 407.203,309.116 			"/>
			<polygon clip-path="url(#SVGID_4_)" fill="#FFFFFF" points="407.099,310.013 406.99,310.353 407.158,310.408 			"/>
			<polygon clip-path="url(#SVGID_4_)" fill="#FFFFFF" points="407.099,310.013 407.209,310.353 407.039,310.408 			"/>
			<polygon clip-path="url(#SVGID_4_)" fill="#FFFFFF" points="407.439,310.26 407.082,310.26 407.082,310.439 			"/>
			<polygon clip-path="url(#SVGID_4_)" fill="#FFFFFF" points="407.439,310.26 407.15,310.469 407.045,310.324 			"/>
			<polygon clip-path="url(#SVGID_4_)" fill="#FFFFFF" points="406.761,310.26 407.047,310.469 407.152,310.324 			"/>
			<polygon clip-path="url(#SVGID_4_)" fill="#FFFFFF" points="406.761,310.26 407.115,310.26 407.115,310.439 			"/>
			<polygon clip-path="url(#SVGID_4_)" fill="#FFFFFF" points="407.309,310.658 407.201,310.32 407.03,310.375 			"/>
			<polygon clip-path="url(#SVGID_4_)" fill="#FFFFFF" points="407.309,310.658 407.02,310.449 407.127,310.305 			"/>
			<polygon clip-path="url(#SVGID_4_)" fill="#FFFFFF" points="406.889,310.658 407.178,310.449 407.076,310.305 			"/>
			<polygon clip-path="url(#SVGID_4_)" fill="#FFFFFF" points="406.889,310.658 406.999,310.32 407.172,310.375 			"/>
			<polygon clip-path="url(#SVGID_4_)" fill="#FFFFFF" points="408.357,307.769 408.246,308.109 408.417,308.163 			"/>
			<polygon clip-path="url(#SVGID_4_)" fill="#FFFFFF" points="408.357,307.769 408.469,308.109 408.298,308.163 			"/>
			<polygon clip-path="url(#SVGID_4_)" fill="#FFFFFF" points="408.698,308.014 408.34,308.014 408.34,308.193 			"/>
			<polygon clip-path="url(#SVGID_4_)" fill="#FFFFFF" points="408.698,308.014 408.408,308.226 408.303,308.081 			"/>
			<polygon clip-path="url(#SVGID_4_)" fill="#FFFFFF" points="408.02,308.014 408.309,308.226 408.414,308.081 			"/>
			<polygon clip-path="url(#SVGID_4_)" fill="#FFFFFF" points="408.02,308.014 408.377,308.014 408.377,308.193 			"/>
			<polygon clip-path="url(#SVGID_4_)" fill="#FFFFFF" points="408.567,308.414 408.457,308.075 408.289,308.131 			"/>
			<polygon clip-path="url(#SVGID_4_)" fill="#FFFFFF" points="408.567,308.414 408.281,308.203 408.386,308.061 			"/>
			<polygon clip-path="url(#SVGID_4_)" fill="#FFFFFF" points="408.15,308.414 408.438,308.203 408.332,308.061 			"/>
			<polygon clip-path="url(#SVGID_4_)" fill="#FFFFFF" points="408.15,308.414 408.261,308.075 408.428,308.131 			"/>
			<polygon clip-path="url(#SVGID_4_)" fill="#FFFFFF" points="409.36,307.049 409.224,307.475 409.434,307.544 			"/>
			<polygon clip-path="url(#SVGID_4_)" fill="#FFFFFF" points="409.36,307.049 409.5,307.475 409.286,307.544 			"/>
			<polygon clip-path="url(#SVGID_4_)" fill="#FFFFFF" points="409.783,307.357 409.338,307.357 409.338,307.581 			"/>
			<polygon clip-path="url(#SVGID_4_)" fill="#FFFFFF" points="409.783,307.357 409.426,307.619 409.295,307.439 			"/>
			<polygon clip-path="url(#SVGID_4_)" fill="#FFFFFF" points="408.938,307.357 409.298,307.619 409.428,307.439 			"/>
			<polygon clip-path="url(#SVGID_4_)" fill="#FFFFFF" points="408.938,307.357 409.383,307.357 409.383,307.581 			"/>
			<polygon clip-path="url(#SVGID_4_)" fill="#FFFFFF" points="409.625,307.855 409.485,307.434 409.271,307.502 			"/>
			<polygon clip-path="url(#SVGID_4_)" fill="#FFFFFF" points="409.625,307.855 409.264,307.594 409.395,307.414 			"/>
			<polygon clip-path="url(#SVGID_4_)" fill="#FFFFFF" points="409.099,307.855 409.459,307.594 409.329,307.414 			"/>
			<polygon clip-path="url(#SVGID_4_)" fill="#FFFFFF" points="409.099,307.855 409.238,307.434 409.448,307.502 			"/>
			<polygon clip-path="url(#SVGID_4_)" fill="#FFFFFF" points="407.064,307.531 406.957,307.869 407.127,307.926 			"/>
			<polygon clip-path="url(#SVGID_4_)" fill="#FFFFFF" points="407.064,307.531 407.176,307.869 407.008,307.926 			"/>
			<polygon clip-path="url(#SVGID_4_)" fill="#FFFFFF" points="407.405,307.777 407.047,307.777 407.047,307.956 			"/>
			<polygon clip-path="url(#SVGID_4_)" fill="#FFFFFF" points="407.405,307.777 407.115,307.986 407.014,307.841 			"/>
			<polygon clip-path="url(#SVGID_4_)" fill="#FFFFFF" points="406.727,307.777 407.016,307.986 407.119,307.841 			"/>
			<polygon clip-path="url(#SVGID_4_)" fill="#FFFFFF" points="406.727,307.777 407.082,307.777 407.082,307.956 			"/>
			<polygon clip-path="url(#SVGID_4_)" fill="#FFFFFF" points="407.275,308.178 407.164,307.836 406.994,307.889 			"/>
			<polygon clip-path="url(#SVGID_4_)" fill="#FFFFFF" points="407.275,308.178 406.984,307.966 407.09,307.822 			"/>
			<polygon clip-path="url(#SVGID_4_)" fill="#FFFFFF" points="406.854,308.178 407.145,307.966 407.039,307.822 			"/>
			<polygon clip-path="url(#SVGID_4_)" fill="#FFFFFF" points="406.854,308.178 406.965,307.836 407.139,307.889 			"/>
			<polygon clip-path="url(#SVGID_4_)" fill="#FFFFFF" points="396.096,301.062 395.958,301.486 396.171,301.557 			"/>
			<polygon clip-path="url(#SVGID_4_)" fill="#FFFFFF" points="396.096,301.062 396.233,301.486 396.021,301.557 			"/>
			<polygon clip-path="url(#SVGID_4_)" fill="#FFFFFF" points="396.521,301.37 396.074,301.37 396.074,301.595 			"/>
			<polygon clip-path="url(#SVGID_4_)" fill="#FFFFFF" points="396.521,301.37 396.16,301.635 396.029,301.453 			"/>
			<polygon clip-path="url(#SVGID_4_)" fill="#FFFFFF" points="395.672,301.37 396.033,301.635 396.162,301.453 			"/>
			<polygon clip-path="url(#SVGID_4_)" fill="#FFFFFF" points="395.672,301.37 396.118,301.37 396.118,301.595 			"/>
			<polygon clip-path="url(#SVGID_4_)" fill="#FFFFFF" points="396.357,301.87 396.221,301.447 396.007,301.516 			"/>
			<polygon clip-path="url(#SVGID_4_)" fill="#FFFFFF" points="396.357,301.87 395.999,301.609 396.13,301.427 			"/>
			<polygon clip-path="url(#SVGID_4_)" fill="#FFFFFF" points="395.833,301.87 396.195,301.609 396.063,301.427 			"/>
			<polygon clip-path="url(#SVGID_4_)" fill="#FFFFFF" points="395.833,301.87 395.972,301.447 396.185,301.516 			"/>
			<polygon clip-path="url(#SVGID_4_)" fill="#FFFFFF" points="404.26,300.013 404.149,300.352 404.32,300.408 			"/>
			<polygon clip-path="url(#SVGID_4_)" fill="#FFFFFF" points="404.26,300.013 404.371,300.352 404.201,300.408 			"/>
			<polygon clip-path="url(#SVGID_4_)" fill="#FFFFFF" points="404.599,300.259 404.243,300.259 404.243,300.438 			"/>
			<polygon clip-path="url(#SVGID_4_)" fill="#FFFFFF" points="404.599,300.259 404.312,300.471 404.207,300.326 			"/>
			<polygon clip-path="url(#SVGID_4_)" fill="#FFFFFF" points="403.922,300.259 404.209,300.471 404.314,300.326 			"/>
			<polygon clip-path="url(#SVGID_4_)" fill="#FFFFFF" points="403.922,300.259 404.277,300.259 404.277,300.438 			"/>
			<polygon clip-path="url(#SVGID_4_)" fill="#FFFFFF" points="404.471,300.66 404.359,300.32 404.189,300.374 			"/>
			<polygon clip-path="url(#SVGID_4_)" fill="#FFFFFF" points="404.471,300.66 404.181,300.448 404.286,300.303 			"/>
			<polygon clip-path="url(#SVGID_4_)" fill="#FFFFFF" points="404.051,300.66 404.34,300.448 404.232,300.303 			"/>
			<polygon clip-path="url(#SVGID_4_)" fill="#FFFFFF" points="404.051,300.66 404.158,300.32 404.328,300.374 			"/>
			<polygon clip-path="url(#SVGID_4_)" fill="#FFFFFF" points="400.857,306.074 400.691,306.585 400.948,306.668 			"/>
			<polygon clip-path="url(#SVGID_4_)" fill="#FFFFFF" points="400.857,306.074 401.024,306.585 400.769,306.668 			"/>
			<polygon clip-path="url(#SVGID_4_)" fill="#FFFFFF" points="401.368,306.444 400.832,306.444 400.832,306.715 			"/>
			<polygon clip-path="url(#SVGID_4_)" fill="#FFFFFF" points="401.368,306.444 400.936,306.76 400.776,306.543 			"/>
			<polygon clip-path="url(#SVGID_4_)" fill="#FFFFFF" points="400.35,306.444 400.782,306.76 400.939,306.543 			"/>
			<polygon clip-path="url(#SVGID_4_)" fill="#FFFFFF" points="400.35,306.444 400.886,306.444 400.886,306.715 			"/>
			<polygon clip-path="url(#SVGID_4_)" fill="#FFFFFF" points="401.172,307.044 401.008,306.535 400.752,306.617 			"/>
			<polygon clip-path="url(#SVGID_4_)" fill="#FFFFFF" points="401.172,307.044 400.739,306.73 400.897,306.513 			"/>
			<polygon clip-path="url(#SVGID_4_)" fill="#FFFFFF" points="400.543,307.044 400.976,306.73 400.819,306.513 			"/>
			<polygon clip-path="url(#SVGID_4_)" fill="#FFFFFF" points="400.543,307.044 400.708,306.535 400.965,306.617 			"/>
			<polygon clip-path="url(#SVGID_4_)" fill="#FFFFFF" points="402.306,303.683 402.166,304.105 402.379,304.176 			"/>
			<polygon clip-path="url(#SVGID_4_)" fill="#FFFFFF" points="402.306,303.683 402.441,304.105 402.229,304.176 			"/>
			<polygon clip-path="url(#SVGID_4_)" fill="#FFFFFF" points="402.729,303.991 402.283,303.991 402.283,304.213 			"/>
			<polygon clip-path="url(#SVGID_4_)" fill="#FFFFFF" points="402.729,303.991 402.365,304.252 402.234,304.072 			"/>
			<polygon clip-path="url(#SVGID_4_)" fill="#FFFFFF" points="401.879,303.991 402.24,304.252 402.371,304.072 			"/>
			<polygon clip-path="url(#SVGID_4_)" fill="#FFFFFF" points="401.879,303.991 402.326,303.991 402.326,304.213 			"/>
			<polygon clip-path="url(#SVGID_4_)" fill="#FFFFFF" points="402.564,304.49 402.428,304.064 402.218,304.135 			"/>
			<polygon clip-path="url(#SVGID_4_)" fill="#FFFFFF" points="402.564,304.49 402.206,304.227 402.334,304.045 			"/>
			<polygon clip-path="url(#SVGID_4_)" fill="#FFFFFF" points="402.041,304.49 402.402,304.227 402.271,304.045 			"/>
			<polygon clip-path="url(#SVGID_4_)" fill="#FFFFFF" points="402.041,304.49 402.181,304.064 402.391,304.135 			"/>
			<polygon clip-path="url(#SVGID_4_)" fill="#FFFFFF" points="400.857,302.561 400.72,302.984 400.934,303.053 			"/>
			<polygon clip-path="url(#SVGID_4_)" fill="#FFFFFF" points="400.857,302.561 400.996,302.984 400.784,303.053 			"/>
			<polygon clip-path="url(#SVGID_4_)" fill="#FFFFFF" points="401.283,302.867 400.836,302.867 400.836,303.092 			"/>
			<polygon clip-path="url(#SVGID_4_)" fill="#FFFFFF" points="401.283,302.867 400.922,303.129 400.791,302.949 			"/>
			<polygon clip-path="url(#SVGID_4_)" fill="#FFFFFF" points="400.434,302.867 400.795,303.129 400.925,302.949 			"/>
			<polygon clip-path="url(#SVGID_4_)" fill="#FFFFFF" points="400.434,302.867 400.88,302.867 400.88,303.092 			"/>
			<polygon clip-path="url(#SVGID_4_)" fill="#FFFFFF" points="401.121,303.367 400.981,302.943 400.771,303.011 			"/>
			<polygon clip-path="url(#SVGID_4_)" fill="#FFFFFF" points="401.121,303.367 400.759,303.105 400.89,302.924 			"/>
			<polygon clip-path="url(#SVGID_4_)" fill="#FFFFFF" points="400.595,303.367 400.956,303.105 400.826,302.924 			"/>
			<polygon clip-path="url(#SVGID_4_)" fill="#FFFFFF" points="400.595,303.367 400.734,302.943 400.948,303.011 			"/>
			<polygon clip-path="url(#SVGID_4_)" fill="#FFFFFF" points="399.6,303.771 399.489,304.111 399.658,304.166 			"/>
			<polygon clip-path="url(#SVGID_4_)" fill="#FFFFFF" points="399.6,303.771 399.709,304.111 399.539,304.166 			"/>
			<polygon clip-path="url(#SVGID_4_)" fill="#FFFFFF" points="399.939,304.017 399.583,304.017 399.583,304.195 			"/>
			<polygon clip-path="url(#SVGID_4_)" fill="#FFFFFF" points="399.939,304.017 399.65,304.229 399.545,304.084 			"/>
			<polygon clip-path="url(#SVGID_4_)" fill="#FFFFFF" points="399.259,304.017 399.549,304.229 399.653,304.084 			"/>
			<polygon clip-path="url(#SVGID_4_)" fill="#FFFFFF" points="399.259,304.017 399.617,304.017 399.617,304.195 			"/>
			<polygon clip-path="url(#SVGID_4_)" fill="#FFFFFF" points="399.809,304.417 399.701,304.078 399.529,304.132 			"/>
			<polygon clip-path="url(#SVGID_4_)" fill="#FFFFFF" points="399.809,304.417 399.521,304.209 399.625,304.063 			"/>
			<polygon clip-path="url(#SVGID_4_)" fill="#FFFFFF" points="399.39,304.417 399.68,304.209 399.575,304.063 			"/>
			<polygon clip-path="url(#SVGID_4_)" fill="#FFFFFF" points="399.39,304.417 399.5,304.078 399.67,304.132 			"/>
			<polygon clip-path="url(#SVGID_4_)" fill="#FFFFFF" points="400.228,304.74 400.15,304.982 400.272,305.021 			"/>
			<polygon clip-path="url(#SVGID_4_)" fill="#FFFFFF" points="400.228,304.74 400.309,304.982 400.187,305.021 			"/>
			<polygon clip-path="url(#SVGID_4_)" fill="#FFFFFF" points="400.471,304.917 400.217,304.917 400.217,305.043 			"/>
			<polygon clip-path="url(#SVGID_4_)" fill="#FFFFFF" points="400.471,304.917 400.264,305.068 400.191,304.965 			"/>
			<polygon clip-path="url(#SVGID_4_)" fill="#FFFFFF" points="399.986,304.917 400.192,305.068 400.268,304.965 			"/>
			<polygon clip-path="url(#SVGID_4_)" fill="#FFFFFF" points="399.986,304.917 400.241,304.917 400.241,305.043 			"/>
			<polygon clip-path="url(#SVGID_4_)" fill="#FFFFFF" points="400.378,305.203 400.298,304.959 400.178,305 			"/>
			<polygon clip-path="url(#SVGID_4_)" fill="#FFFFFF" points="400.378,305.203 400.171,305.053 400.248,304.948 			"/>
			<polygon clip-path="url(#SVGID_4_)" fill="#FFFFFF" points="400.079,305.203 400.286,305.053 400.209,304.948 			"/>
			<polygon clip-path="url(#SVGID_4_)" fill="#FFFFFF" points="400.079,305.203 400.157,304.959 400.278,305 			"/>
			<polygon clip-path="url(#SVGID_4_)" fill="#FFFFFF" points="404.602,308.971 404.462,309.396 404.676,309.465 			"/>
			<polygon clip-path="url(#SVGID_4_)" fill="#FFFFFF" points="404.602,308.971 404.738,309.396 404.524,309.465 			"/>
			<polygon clip-path="url(#SVGID_4_)" fill="#FFFFFF" points="405.024,309.278 404.578,309.278 404.578,309.503 			"/>
			<polygon clip-path="url(#SVGID_4_)" fill="#FFFFFF" points="405.024,309.278 404.664,309.541 404.533,309.361 			"/>
			<polygon clip-path="url(#SVGID_4_)" fill="#FFFFFF" points="404.176,309.278 404.536,309.541 404.666,309.361 			"/>
			<polygon clip-path="url(#SVGID_4_)" fill="#FFFFFF" points="404.176,309.278 404.621,309.278 404.621,309.503 			"/>
			<polygon clip-path="url(#SVGID_4_)" fill="#FFFFFF" points="404.863,309.778 404.727,309.354 404.51,309.424 			"/>
			<polygon clip-path="url(#SVGID_4_)" fill="#FFFFFF" points="404.863,309.778 404.502,309.516 404.633,309.336 			"/>
			<polygon clip-path="url(#SVGID_4_)" fill="#FFFFFF" points="404.337,309.778 404.697,309.516 404.567,309.336 			"/>
			<polygon clip-path="url(#SVGID_4_)" fill="#FFFFFF" points="404.337,309.778 404.474,309.354 404.687,309.424 			"/>
			<polygon clip-path="url(#SVGID_4_)" fill="#FFFFFF" points="405.67,307.956 405.562,308.294 405.729,308.351 			"/>
			<polygon clip-path="url(#SVGID_4_)" fill="#FFFFFF" points="405.67,307.956 405.78,308.294 405.613,308.351 			"/>
			<polygon clip-path="url(#SVGID_4_)" fill="#FFFFFF" points="406.01,308.203 405.652,308.203 405.652,308.378 			"/>
			<polygon clip-path="url(#SVGID_4_)" fill="#FFFFFF" points="406.01,308.203 405.724,308.41 405.618,308.269 			"/>
			<polygon clip-path="url(#SVGID_4_)" fill="#FFFFFF" points="405.332,308.203 405.618,308.41 405.727,308.269 			"/>
			<polygon clip-path="url(#SVGID_4_)" fill="#FFFFFF" points="405.332,308.203 405.689,308.203 405.689,308.378 			"/>
			<polygon clip-path="url(#SVGID_4_)" fill="#FFFFFF" points="405.88,308.6 405.771,308.26 405.602,308.316 			"/>
			<polygon clip-path="url(#SVGID_4_)" fill="#FFFFFF" points="405.88,308.6 405.593,308.393 405.697,308.247 			"/>
			<polygon clip-path="url(#SVGID_4_)" fill="#FFFFFF" points="405.462,308.6 405.749,308.393 405.645,308.247 			"/>
			<polygon clip-path="url(#SVGID_4_)" fill="#FFFFFF" points="405.462,308.6 405.57,308.26 405.74,308.316 			"/>
			<polygon clip-path="url(#SVGID_4_)" fill="#FFFFFF" points="403.615,307.648 403.504,307.987 403.672,308.044 			"/>
			<polygon clip-path="url(#SVGID_4_)" fill="#FFFFFF" points="403.615,307.648 403.723,307.987 403.553,308.044 			"/>
			<polygon clip-path="url(#SVGID_4_)" fill="#FFFFFF" points="403.953,307.895 403.596,307.895 403.596,308.075 			"/>
			<polygon clip-path="url(#SVGID_4_)" fill="#FFFFFF" points="403.953,307.895 403.664,308.105 403.559,307.96 			"/>
			<polygon clip-path="url(#SVGID_4_)" fill="#FFFFFF" points="403.274,307.895 403.562,308.105 403.666,307.96 			"/>
			<polygon clip-path="url(#SVGID_4_)" fill="#FFFFFF" points="403.274,307.895 403.629,307.895 403.629,308.075 			"/>
			<polygon clip-path="url(#SVGID_4_)" fill="#FFFFFF" points="403.826,308.295 403.715,307.956 403.541,308.013 			"/>
			<polygon clip-path="url(#SVGID_4_)" fill="#FFFFFF" points="403.826,308.295 403.533,308.084 403.639,307.941 			"/>
			<polygon clip-path="url(#SVGID_4_)" fill="#FFFFFF" points="403.402,308.295 403.691,308.084 403.587,307.941 			"/>
			<polygon clip-path="url(#SVGID_4_)" fill="#FFFFFF" points="403.402,308.295 403.514,307.956 403.684,308.013 			"/>
			<polygon clip-path="url(#SVGID_4_)" fill="#FFFFFF" points="395.84,307.096 395.676,307.604 395.931,307.69 			"/>
			<polygon clip-path="url(#SVGID_4_)" fill="#FFFFFF" points="395.84,307.096 396.006,307.604 395.752,307.69 			"/>
			<polygon clip-path="url(#SVGID_4_)" fill="#FFFFFF" points="396.351,307.467 395.816,307.467 395.816,307.734 			"/>
			<polygon clip-path="url(#SVGID_4_)" fill="#FFFFFF" points="396.351,307.467 395.917,307.781 395.76,307.565 			"/>
			<polygon clip-path="url(#SVGID_4_)" fill="#FFFFFF" points="395.331,307.467 395.766,307.781 395.922,307.565 			"/>
			<polygon clip-path="url(#SVGID_4_)" fill="#FFFFFF" points="395.331,307.467 395.867,307.467 395.867,307.734 			"/>
			<polygon clip-path="url(#SVGID_4_)" fill="#FFFFFF" points="396.157,308.064 395.992,307.555 395.736,307.641 			"/>
			<polygon clip-path="url(#SVGID_4_)" fill="#FFFFFF" points="396.157,308.064 395.722,307.75 395.88,307.533 			"/>
			<polygon clip-path="url(#SVGID_4_)" fill="#FFFFFF" points="395.526,308.064 395.959,307.75 395.802,307.533 			"/>
			<polygon clip-path="url(#SVGID_4_)" fill="#FFFFFF" points="395.526,308.064 395.692,307.555 395.946,307.641 			"/>
			<polygon clip-path="url(#SVGID_4_)" fill="#FFFFFF" points="400.857,310.598 400.802,310.769 400.889,310.797 			"/>
			<polygon clip-path="url(#SVGID_4_)" fill="#FFFFFF" points="400.857,310.598 400.914,310.769 400.828,310.797 			"/>
			<polygon clip-path="url(#SVGID_4_)" fill="#FFFFFF" points="401.027,310.723 400.849,310.723 400.849,310.811 			"/>
			<polygon clip-path="url(#SVGID_4_)" fill="#FFFFFF" points="401.027,310.723 400.883,310.828 400.832,310.754 			"/>
			<polygon clip-path="url(#SVGID_4_)" fill="#FFFFFF" points="400.688,310.723 400.833,310.828 400.886,310.754 			"/>
			<polygon clip-path="url(#SVGID_4_)" fill="#FFFFFF" points="400.688,310.723 400.867,310.723 400.867,310.811 			"/>
			<polygon clip-path="url(#SVGID_4_)" fill="#FFFFFF" points="400.962,310.922 400.909,310.753 400.823,310.781 			"/>
			<polygon clip-path="url(#SVGID_4_)" fill="#FFFFFF" points="400.962,310.922 400.819,310.816 400.87,310.746 			"/>
			<polygon clip-path="url(#SVGID_4_)" fill="#FFFFFF" points="400.753,310.922 400.897,310.816 400.846,310.746 			"/>
			<polygon clip-path="url(#SVGID_4_)" fill="#FFFFFF" points="400.753,310.922 400.809,310.753 400.894,310.781 			"/>
		</g>
	</g>
</g>
</svg>
