<?xml version="1.0" encoding="utf-8"?>
<!-- Generator: Adobe Illustrator 16.0.0, SVG Export Plug-In . SVG Version: 6.00 Build 0)  -->
<!DOCTYPE svg PUBLIC "-//W3C//DTD SVG 1.1//EN" "http://www.w3.org/Graphics/SVG/1.1/DTD/svg11.dtd">
<svg version="1.1" id="name" xmlns="http://www.w3.org/2000/svg" xmlns:xlink="http://www.w3.org/1999/xlink" x="0px" y="0px"
	 width="85.719px" height="50px" viewBox="358 276 85.719 50" enable-background="new 358 276 85.719 50" xml:space="preserve">
<g id="by">
	<g>
		<defs>
			<rect id="SVGID_1_" x="358" y="276" width="85.719" height="50"/>
		</defs>
		<clipPath id="SVGID_2_">
			<use xlink:href="#SVGID_1_"  overflow="visible"/>
		</clipPath>
		<rect x="358" y="276" clip-path="url(#SVGID_2_)" fill="#BA2025" width="85.719" height="33.332"/>
		<rect x="358" y="309.332" clip-path="url(#SVGID_2_)" fill="#409B46" width="85.719" height="16.668"/>
		<rect x="358" y="276" clip-path="url(#SVGID_2_)" fill="#FFFFFF" width="11.001" height="50"/>
		<path clip-path="url(#SVGID_2_)" fill="#BA2025" d="M359.333,325.081h0.491v-1.386h-0.491V325.081z M363.256,325.081h0.492v-1.386
			h-0.492V325.081z M367.177,325.081h0.492v-1.386h-0.492V325.081z M361.296,321.392h0.488v-1.151h-0.488V321.392z M365.217,321.392
			h0.491v-1.151h-0.491V321.392z M359.333,318.398h0.491v-1.383h-0.491V318.398z M363.256,318.398h0.489v-1.383h-0.489V318.398z
			 M367.177,318.398h0.492v-1.383h-0.492V318.398z M360.315,320.24h0.489v-1.15h0.491v-1.154h0.488v1.154h0.492v1.15h0.488v1.151
			h-0.488v1.153h-0.492v1.15h-0.488v-1.15h-0.491v-1.153h-0.489V320.24z M364.236,320.24h0.492v-1.15h0.488v-1.154h0.491v1.154
			h0.489v1.15h0.491v1.151h-0.491v1.153h-0.489v1.15h-0.491v-1.15h-0.488v-1.153h-0.492V320.24z M365.217,315.635v1.15h-0.491v1.15
			h-0.489v1.154h-0.491v1.15h-0.489v-1.15h-0.491v-1.154h-0.488v-1.15h-0.492v-1.15h-0.488v1.15h-0.491v1.15h-0.489v1.154h-0.491
			v1.15h-0.491v1.151h0.491v1.153h0.491v1.15h0.489v1.155h0.491V326h0.491v-1.149h0.489v-1.155h0.488v-1.15h0.491v-1.153h0.492
			v1.153h0.488v1.15h0.492v1.155h0.488V326h0.491v-1.149h0.489v-1.155h0.491v-1.15h0.49v-1.153h0.49v-1.151h-0.492v-1.15h-0.488
			v-1.154h-0.491v-1.15h-0.489v-1.15H365.217z M366.436,314.482h0.244v-0.457h0.247v0.457h0.245v0.463h-0.245v0.463h-0.247v-0.463
			h-0.244V314.482z M366.436,312.875v0.689h-0.244v0.691h-0.247v0.92h0.247v0.692h0.244v0.688h0.736v-0.688h0.244v-0.692h0.244
			v-0.92h-0.244v-0.691h-0.244v-0.689H366.436z M359.824,314.479h0.247v-0.46h0.244v0.46h0.244v0.463h-0.244v0.463h-0.244v-0.463
			h-0.247V314.479z M359.824,312.867v0.692h-0.244v0.688h-0.247v0.924h0.247v0.689h0.244v0.691h0.735v-0.691h0.245v-0.689h0.244
			v-0.924h-0.244v-0.688h-0.245v-0.692H359.824z M362.521,314.479h0.244v-0.46h0.247v0.46h0.244v0.463h-0.244v0.463h-0.247v-0.463
			h-0.244V314.479z M363.745,314.479h0.247v-0.46h0.244v0.46h0.244v0.463h-0.244v0.463h-0.244v-0.463h-0.247V314.479z
			 M363.748,312.867v0.692h-0.492v-0.692h-0.735v0.692h-0.244v0.688h-0.247v0.924h0.247v0.689h0.244v0.691h0.735v-0.691h0.489v0.691
			h0.735v-0.691h0.248v-0.689h0.244v-0.924h-0.244v-0.688h-0.248v-0.692H363.748z M359.333,312.406h0.491v-1.381h-0.491V312.406z
			 M363.256,312.406h0.492v-1.381h-0.492V312.406z M367.177,312.406h0.492v-1.381h-0.492V312.406z M359.333,306.646h0.491v-0.923
			h-0.491V306.646z M367.177,306.646h0.492v-0.923h-0.492V306.646z M363.256,303.421h0.492v-1.153h-0.492V303.421z M359.335,300.31
			v0.686v0.01v0.685h0.489v-0.685v-0.01v-0.686H359.335z M362.031,300.31v0.686v0.01v0.685h0.489v-0.685v-0.01v-0.686H362.031z
			 M364.48,300.31v0.686v0.01v0.685h0.492v-0.685v-0.01v-0.686H364.48z M367.177,300.31v0.686v0.01v0.685h0.492v-0.685v-0.01v-0.686
			H367.177z M363.992,299.502v0.46h-0.244v0.347h-0.492v-0.347h-0.244v-0.46h-0.491v0.69h0.244v0.348h0.247v0.452v0.013v0.455
			h-0.247v0.344h-0.244v0.693h0.491v-0.463h0.244v-0.345h0.492v0.345h0.244v0.463h0.488v-0.693h-0.244v-0.344h-0.244v-0.455v-0.013
			v-0.452h0.244v-0.348h0.244v-0.69H363.992z M363.256,299.731h0.492v-1.151h-0.492V299.731z M359.333,296.276h0.491v-0.92h-0.491
			V296.276z M367.177,296.276h0.492v-0.92h-0.492V296.276z M359.333,290.976h0.491v-1.381h-0.491V290.976z M363.256,290.976h0.492
			v-1.381h-0.492V290.976z M367.177,290.976h0.492v-1.381h-0.492V290.976z M361.296,301.013v-0.024l0,0v-0.448h0.488v-0.807h0.492
			v-0.923h0.735v-1.085h0.244v-0.527h0.245h0.247v0.517h0.244v1.096h0.736v0.461v0.462h0.488v0.807h0.491v0.452v0.468h-0.491v0.807
			h-0.488v0.461v0.462h-0.736v1.091h-0.244v0.521h-0.247h-0.245v-0.529h-0.244v-1.083h-0.735v-0.923h-0.492v-0.807h-0.488V301.013z
			 M365.217,288.209v1.156h-0.491v1.149h-0.489v1.155h-0.491v0.919v0.232h-0.489v-1.151h-0.491v-1.155h-0.488v-1.149h-0.492v-1.156
			h-0.488v1.156h-0.491v1.149h-0.492v1.155h-0.488v0.919v0.232h-0.491v1.15h0.491v1.154h0.488v1.152h0.492v1.152h0.491v-1.152h0.488
			v-1.152h0.492v-1.154h-0.492v-1.382h0.492v0.232v0.693h0.488v1.843h0.247l0.003,1.139l-0.738,0.012v0.922h-0.492v0.69h-0.488
			v1.153h-0.491v-1.153h-0.492v-0.69h-0.488v-0.692h-0.491v2.074h0.491v0.923h0.488v0.807h0.492v0.452v0.015v0.453h-0.492v0.807
			h-0.488v0.923h-0.491v2.073h0.491v-0.692h0.488v-0.692h0.492v-1.15h0.491v1.15h0.488v0.692h0.492v0.923l0.738,0.011l-0.003,1.141
			h-0.247v1.844h-0.488v0.693v0.23h-0.492v-1.387h0.492v-1.149h-0.492v-1.154h-0.488v-1.151h-0.491v1.151h-0.492v1.154h-0.488v1.149
			h-0.491v1.156h0.491v0.23v0.919h0.491v1.154h0.489v1.15h0.491v1.152l0,0l0,0h0.488v-1.152h0.492v-1.152h0.488v-1.152h0.491v-1.149
			h0.492v0.226v0.924h0.488v1.152h0.492v1.152h0.488v1.152h0.491v-1.152h0.489v-1.152h0.491v-1.152h0.488v-1.149h0.492v-1.156
			h-0.492v-1.149h-0.488v-1.154h-0.491v-1.151h-0.489v1.151h-0.491v1.154h-0.491v1.149h0.491v1.156v0.226h-0.491v-0.226v-0.693
			h-0.489v-1.844h-0.065h-0.179v-1.153h0.179h0.131h0.179h0.248v-0.921h0.488v-0.692h0.491v-1.15h0.489v1.15h0.491v0.692h0.49v0.692
			h0.49v-2.073h-0.49v-0.923h-0.49v-0.807h-0.491v-0.455v-0.013v-0.452h0.491v-0.807h0.49v-0.923h0.49v-2.074h-0.49v0.692h-0.49
			v0.69h-0.491v1.153h-0.489v-1.153h-0.491v-0.69h-0.488v-0.922h-0.248h-0.179h-0.131h-0.179v-1.151h0.179h0.065v-1.843h0.489
			v-0.693v-0.232h0.491v0.232v1.155h-0.491v1.149h0.491v1.152h0.491v1.152h0.489v-1.152h0.491v-1.152h0.488v-1.149h0.492v-1.155
			h-0.492v-1.151h-0.488v-1.155h-0.491v-1.149h-0.489v-1.156H365.217z M359.824,287.061h0.244v-0.463h0.247v0.463h0.244v0.46h-0.244
			v0.462h-0.247v-0.462h-0.244V287.061z M359.824,286.139h-0.244v0.689h-0.247v0.925h0.247v0.689h0.244v0.692h0.735v-0.692h0.245
			v-0.689h0.244v-0.925h-0.244v-0.689h-0.245v-0.69h-0.735V286.139z M362.521,287.061h0.244v-0.463h0.247v0.463h0.244v0.46h-0.244
			v0.462h-0.247v-0.462h-0.244V287.061z M363.745,287.061h0.247v-0.463h0.244v0.463h0.244v0.46h-0.244v0.462h-0.244v-0.462h-0.247
			V287.061z M362.521,286.139h-0.244v0.689h-0.247v0.925h0.247v0.689h0.244v0.692h0.735v-0.692h0.492v0.692h0.732v-0.692h0.248
			v-0.689h0.244v-0.925h-0.244v-0.689h-0.248v-0.69h-0.732v0.69h-0.492v-0.69h-0.735V286.139z M366.436,287.057h0.244v-0.462h0.247
			v0.462h0.245v0.458h-0.245v0.461h-0.247v-0.461h-0.244V287.057z M366.436,285.44v0.693h-0.244v0.692h-0.247v0.92h0.247v0.692
			h0.244v0.689h0.736v-0.689h0.244v-0.692h0.244v-0.92h-0.244v-0.692h-0.244v-0.693H366.436z M359.333,284.985h0.491v-1.382h-0.491
			V284.985z M363.256,284.985h0.492v-1.382h-0.492V284.985z M367.177,284.985h0.492v-1.382h-0.492V284.985z M361.296,281.761h0.488
			v-1.154h-0.488V281.761z M365.217,281.761h0.491v-1.154h-0.491V281.761z M359.333,278.306h0.491v-1.385h-0.491V278.306z
			 M363.256,278.306h0.492v-1.385h-0.492V278.306z M367.177,278.306h0.492v-1.385h-0.492V278.306z M360.315,280.607h0.489v-1.15
			h0.491v-1.151h0.488v1.151h0.492v1.15h0.488v1.154h-0.488v1.15h-0.492v1.154h-0.488v-1.154h-0.491v-1.15h-0.489V280.607z
			 M364.236,280.607h0.492v-1.15h0.488v-1.151h0.491v1.151h0.489v1.15h0.491v1.154h-0.491v1.15h-0.489v1.154h-0.491v-1.154h-0.488
			v-1.15h-0.492V280.607z M365.217,276v1.151h-0.488v1.155h-0.492v1.151h-0.488v1.15h-0.492v-1.15h-0.491v-1.151h-0.488v-1.155
			h-0.489V276h-0.491v1.151h-0.491v1.155h-0.489v1.151h-0.491v1.15h-0.491v1.154h0.491v1.15h0.491v1.154h0.489v1.15h0.491v1.151
			h0.488v-1.151h0.492v-1.15h0.488v-1.154h0.491v-1.15h0.489v1.15h0.491v1.154h0.489v1.15h0.491v1.151h0.491v-1.151h0.489v-1.15
			h0.491v-1.154h0.488v-1.15h0.492v-1.154h-0.49v-1.15h-0.49v-1.155h-0.491v-1.15h-0.489V276H365.217z"/>
	</g>
</g>
</svg>
