<?xml version="1.0" encoding="utf-8"?>
<!-- Generator: Adobe Illustrator 16.0.0, SVG Export Plug-In . SVG Version: 6.00 Build 0)  -->
<!DOCTYPE svg PUBLIC "-//W3C//DTD SVG 1.1//EN" "http://www.w3.org/Graphics/SVG/1.1/DTD/svg11.dtd">
<svg version="1.1" id="name" xmlns="http://www.w3.org/2000/svg" xmlns:xlink="http://www.w3.org/1999/xlink" x="0px" y="0px"
	 width="85.71px" height="50px" viewBox="358 276 85.71 50" enable-background="new 358 276 85.71 50" xml:space="preserve">
<g id="ca">
	<g>
		<defs>
			<rect id="SVGID_1_" x="358" y="276" width="85.71" height="50"/>
		</defs>
		<clipPath id="SVGID_2_">
			<use xlink:href="#SVGID_1_"  overflow="visible"/>
		</clipPath>
		<rect x="358" y="276" clip-path="url(#SVGID_2_)" fill="#E91E26" width="20.162" height="50"/>
		<rect x="423.549" y="276" clip-path="url(#SVGID_2_)" fill="#E91E26" width="20.162" height="50"/>
		<rect x="378.163" y="276" clip-path="url(#SVGID_2_)" fill="#FFFFFF" width="45.386" height="50"/>
		<g clip-path="url(#SVGID_2_)">
			<defs>
				<rect id="SVGID_3_" x="358" y="276" width="85.71" height="50"/>
			</defs>
			<clipPath id="SVGID_4_">
				<use xlink:href="#SVGID_3_"  overflow="visible"/>
			</clipPath>
			<path clip-path="url(#SVGID_4_)" fill="#E91E26" d="M400.854,282.483l-2.971,5.777c-0.338,0.628-0.941,0.569-1.545,0.217
				l-2.152-1.161l1.604,8.875c0.338,1.62-0.746,1.62-1.279,0.919l-3.756-4.381l-0.611,2.223c-0.07,0.294-0.379,0.601-0.844,0.527
				l-4.748-1.04l1.248,4.725c0.268,1.051,0.475,1.489-0.27,1.766l-1.693,0.827l8.178,6.921c0.322,0.263,0.484,0.732,0.369,1.157
				l-0.715,2.448c2.814-0.338,5.34-0.641,8.154-0.979c0.25-0.004,0.666,0.22,0.662,0.52l-0.373,8.963h1.369l-0.215-8.946
				c-0.004-0.298,0.375-0.54,0.625-0.536c2.812,0.338,5.338,0.641,8.152,0.979l-0.715-2.448c-0.117-0.425,0.049-0.895,0.371-1.157
				l8.176-6.921l-1.693-0.827c-0.746-0.277-0.535-0.714-0.268-1.766l1.246-4.725l-4.75,1.04c-0.463,0.074-0.773-0.233-0.842-0.527
				l-0.611-2.223l-3.754,4.381c-0.535,0.701-1.617,0.701-1.281-0.919l1.605-8.875l-2.152,1.161
				c-0.604,0.352-1.209,0.411-1.547-0.217L400.854,282.483z"/>
		</g>
	</g>
</g>
</svg>
