<?xml version="1.0" encoding="utf-8"?>
<!-- Generator: Adobe Illustrator 16.0.0, SVG Export Plug-In . SVG Version: 6.00 Build 0)  -->
<!DOCTYPE svg PUBLIC "-//W3C//DTD SVG 1.1//EN" "http://www.w3.org/Graphics/SVG/1.1/DTD/svg11.dtd">
<svg version="1.1" id="name" xmlns="http://www.w3.org/2000/svg" xmlns:xlink="http://www.w3.org/1999/xlink" x="0px" y="0px"
	 width="85.716px" height="50px" viewBox="358 276 85.716 50" enable-background="new 358 276 85.716 50" xml:space="preserve">
<g id="ck">
	<g>
		<defs>
			<rect id="SVGID_1_" x="358" y="276" width="85.716" height="50"/>
		</defs>
		<clipPath id="SVGID_2_">
			<use xlink:href="#SVGID_1_"  overflow="visible"/>
		</clipPath>
		<polygon clip-path="url(#SVGID_2_)" fill="#2C3077" points="400.876,276 400.876,277.587 400.876,278.134 400.876,278.385 
			391.363,283.143 400.876,283.143 400.876,284.572 400.876,286.714 400.876,288.858 400.876,290.286 391.363,290.286 
			400.876,295.042 400.876,295.844 400.876,297.44 400.876,297.571 397.947,297.571 396.856,297.571 396.351,297.571 
			383.001,290.896 383.001,297.571 381.572,297.571 379.428,297.571 377.285,297.571 375.855,297.571 375.855,290.896 
			362.506,297.571 360.911,297.571 358,297.571 358,326 443.716,326 443.716,276 		"/>
		<polygon clip-path="url(#SVGID_2_)" fill="#2C3077" points="358,290.286 358,295.034 367.494,290.286 		"/>
		<polygon clip-path="url(#SVGID_2_)" fill="#2C3077" points="383.001,276 383.001,282.532 396.066,276 		"/>
		<polygon clip-path="url(#SVGID_2_)" fill="#2C3077" points="375.855,276 362.79,276 375.855,282.532 		"/>
		<polygon clip-path="url(#SVGID_2_)" fill="#2C3077" points="358,283.143 367.494,283.143 358,278.395 		"/>
		<polygon clip-path="url(#SVGID_2_)" fill="#FFFFFF" points="400.856,276 386.571,283.143 383.377,283.143 397.663,276 
			396.066,276 383.001,282.532 383.001,276 381.572,276 381.572,283.248 381.572,284.046 381.572,284.572 383.713,284.572 
			386.909,284.572 388,284.572 388.506,284.572 400.876,284.572 400.876,283.143 391.363,283.143 400.876,278.385 400.876,278.134 
			400.876,277.587 400.876,276 		"/>
		<polygon clip-path="url(#SVGID_2_)" fill="#FFFFFF" points="375.855,276 375.855,282.532 362.79,276 358,276 372.286,283.143 
			369.092,283.143 358,277.597 358,278.395 367.494,283.143 358,283.143 358,284.572 370.352,284.572 371.947,284.572 
			375.141,284.572 377.285,284.572 377.285,284.046 377.285,283.5 377.285,283.248 377.285,276 		"/>
		<polygon clip-path="url(#SVGID_2_)" fill="#FFFFFF" points="386.909,288.858 383.713,288.858 381.572,288.858 381.572,289.383 
			381.572,289.929 381.572,290.182 381.572,297.571 383.001,297.571 383.001,290.896 396.351,297.571 396.856,297.571 
			397.947,297.571 400.876,297.571 400.876,297.44 386.571,290.286 389.766,290.286 400.876,295.844 400.876,295.042 
			391.363,290.286 400.876,290.286 400.876,288.858 388.506,288.858 		"/>
		<polygon clip-path="url(#SVGID_2_)" fill="#FFFFFF" points="375.141,288.858 371.947,288.858 370.856,288.858 370.352,288.858 
			358,288.858 358,290.286 367.494,290.286 358,295.034 358,297.429 372.286,290.286 375.479,290.286 360.911,297.571 
			362.506,297.571 375.855,290.896 375.855,297.571 377.285,297.571 377.285,290.182 377.285,289.383 377.285,288.858 		"/>
		<polygon clip-path="url(#SVGID_2_)" fill="#BD1F38" points="372.286,290.286 358,297.429 358,297.571 360.911,297.571 
			375.479,290.286 		"/>
		<polygon clip-path="url(#SVGID_2_)" fill="#BD1F38" points="358,277.597 369.092,283.143 372.286,283.143 358,276 		"/>
		<polygon clip-path="url(#SVGID_2_)" fill="#BD1F38" points="400.856,276 397.663,276 383.377,283.143 386.571,283.143 		"/>
		<polygon clip-path="url(#SVGID_2_)" fill="#BD1F38" points="386.571,290.286 400.876,297.44 400.876,295.844 389.766,290.286 		
			"/>
		<polygon clip-path="url(#SVGID_2_)" fill="#BD1F38" points="377.285,276 377.285,283.248 377.285,283.5 377.285,284.046 
			377.285,284.572 375.141,284.572 371.947,284.572 370.352,284.572 358,284.572 358,288.858 370.352,288.858 370.856,288.858 
			371.947,288.858 375.141,288.858 377.285,288.858 377.285,289.383 377.285,290.182 377.285,297.571 379.428,297.571 
			381.572,297.571 381.572,290.182 381.572,289.929 381.572,289.383 381.572,288.858 383.713,288.858 386.909,288.858 
			388.506,288.858 400.876,288.858 400.876,286.714 400.876,284.572 388.506,284.572 388,284.572 386.909,284.572 383.713,284.572 
			381.572,284.572 381.572,284.046 381.572,283.248 381.572,276 		"/>
		<polygon clip-path="url(#SVGID_2_)" fill="#FFFFFF" points="421.121,286.764 420.396,288.986 422.288,287.612 424.178,288.986 
			423.453,286.764 425.346,285.392 423.007,285.392 422.288,283.171 421.563,285.392 419.231,285.392 		"/>
		<polygon clip-path="url(#SVGID_2_)" fill="#FFFFFF" points="427.715,288.767 428.883,290.789 429.127,288.466 431.411,287.981 
			429.277,287.031 429.52,284.708 427.959,286.443 425.825,285.494 426.993,287.517 425.431,289.251 		"/>
		<polygon clip-path="url(#SVGID_2_)" fill="#FFFFFF" points="432.053,290.592 429.92,291.543 432.203,292.029 432.445,294.351 
			433.615,292.328 435.899,292.812 434.337,291.078 435.502,289.055 433.371,290.006 431.809,288.27 		"/>
		<polygon clip-path="url(#SVGID_2_)" fill="#FFFFFF" points="435.423,295.46 433.087,295.46 434.979,296.833 434.255,299.054 
			436.145,297.682 438.036,299.054 437.312,296.833 439.201,295.46 436.866,295.46 436.145,293.24 		"/>
		<polygon clip-path="url(#SVGID_2_)" fill="#FFFFFF" points="436.28,303.604 437.448,305.626 437.689,303.302 439.974,302.816 
			437.843,301.867 438.085,299.543 436.524,301.279 434.391,300.33 435.559,302.353 433.993,304.086 		"/>
		<polygon clip-path="url(#SVGID_2_)" fill="#FFFFFF" points="436.127,308.115 437.295,306.092 435.161,307.043 433.599,305.308 
			433.843,307.629 431.709,308.578 433.993,309.063 434.237,311.388 435.405,309.365 437.689,309.851 		"/>
		<polygon clip-path="url(#SVGID_2_)" fill="#FFFFFF" points="431.572,311.752 430.852,309.529 430.13,311.752 427.795,311.752 
			429.684,313.127 428.962,315.346 430.852,313.973 432.74,315.346 432.019,313.127 433.908,311.752 		"/>
		<polygon clip-path="url(#SVGID_2_)" fill="#FFFFFF" points="426.38,314.596 426.624,312.274 425.062,314.01 422.928,313.059 
			424.096,315.084 422.533,316.817 424.817,316.332 425.987,318.354 426.229,316.033 428.514,315.547 		"/>
		<polygon clip-path="url(#SVGID_2_)" fill="#FFFFFF" points="420.479,315.084 421.646,313.059 419.513,314.01 417.95,312.274 
			418.194,314.596 416.061,315.547 418.345,316.033 418.589,318.354 419.757,316.332 422.041,316.817 		"/>
		<polygon clip-path="url(#SVGID_2_)" fill="#FFFFFF" points="414.89,313.127 416.779,311.752 414.443,311.752 413.723,309.529 
			413,311.752 410.665,311.752 412.555,313.127 411.833,315.346 413.723,313.973 415.611,315.346 		"/>
		<polygon clip-path="url(#SVGID_2_)" fill="#FFFFFF" points="410.58,309.063 412.864,308.578 410.73,307.629 410.975,305.308 
			409.412,307.043 407.278,306.092 408.446,308.115 406.883,309.851 409.168,309.365 410.336,311.388 		"/>
		<polygon clip-path="url(#SVGID_2_)" fill="#FFFFFF" points="407.125,305.626 408.293,303.604 410.58,304.086 409.018,302.353 
			410.182,300.33 408.051,301.279 406.488,299.543 406.732,301.867 404.6,302.816 406.883,303.302 		"/>
		<polygon clip-path="url(#SVGID_2_)" fill="#FFFFFF" points="407.262,296.833 406.539,299.054 408.43,297.682 410.318,299.054 
			409.597,296.833 411.486,295.46 409.15,295.46 408.43,293.24 407.705,295.46 405.372,295.46 		"/>
		<polygon clip-path="url(#SVGID_2_)" fill="#FFFFFF" points="410.958,292.328 412.125,294.351 412.37,292.029 414.654,291.543 
			412.523,290.592 412.765,288.27 411.202,290.006 409.071,289.055 410.239,291.078 408.674,292.812 		"/>
		<polygon clip-path="url(#SVGID_2_)" fill="#FFFFFF" points="415.449,288.466 415.691,290.789 416.858,288.767 419.144,289.251 
			417.58,287.515 418.748,285.494 416.614,286.444 415.052,284.708 415.296,287.031 413.165,287.981 		"/>
	</g>
</g>
</svg>
