<?xml version="1.0" encoding="utf-8"?>
<!-- Generator: Adobe Illustrator 16.0.0, SVG Export Plug-In . SVG Version: 6.00 Build 0)  -->
<!DOCTYPE svg PUBLIC "-//W3C//DTD SVG 1.1//EN" "http://www.w3.org/Graphics/SVG/1.1/DTD/svg11.dtd">
<svg version="1.1" id="name" xmlns="http://www.w3.org/2000/svg" xmlns:xlink="http://www.w3.org/1999/xlink" x="0px" y="0px"
	 width="85.711px" height="50px" viewBox="358 276 85.711 50" enable-background="new 358 276 85.711 50" xml:space="preserve">
<g id="cl-rn">
	<g>
		<defs>
			<rect id="SVGID_1_" x="358" y="276" width="85.711" height="50"/>
		</defs>
		<clipPath id="SVGID_2_">
			<use xlink:href="#SVGID_1_"  overflow="visible"/>
		</clipPath>
		<rect x="358" y="276" clip-path="url(#SVGID_2_)" fill="#FFFFFF" width="85.711" height="50"/>
		<g clip-path="url(#SVGID_2_)">
			<defs>
				<rect id="SVGID_3_" x="358" y="276" width="85.711" height="50"/>
			</defs>
			<clipPath id="SVGID_4_">
				<use xlink:href="#SVGID_3_"  overflow="visible"/>
			</clipPath>
			<path clip-path="url(#SVGID_4_)" fill="#E91E26" d="M434.324,286.14l0.113-0.972l-0.275,0.949
				c-0.578,1.982-2.219,3.676-3.898,4.018c-1.25,0.252-2.354,0.658-2.791,1.02c-0.273,0.227-0.375,0.219-0.678-0.055
				c-0.229-0.209-0.703-0.32-1.338-0.32c-0.867,0-1.031,0.068-1.428,0.605c-0.246,0.332-0.498,0.554-0.557,0.494
				c-0.061-0.057,0.002-0.244,0.139-0.409c0.182-0.219,0.188-0.298,0.018-0.298c-0.125,0-0.352,0.292-0.5,0.646
				c-0.334,0.802-1.244,1.629-1.688,1.629c-1.371-0.483-1.551-2.619-3.119-2.73c-0.529,0.028-0.529,0.028-0.039,0.116
				c0.68,0.125,0.938,0.839,1.803,1.94C425.537,299.723,433.145,293.643,434.324,286.14L434.324,286.14z"/>
			<path clip-path="url(#SVGID_4_)" fill="#E91E26" d="M401.666,319.246c-8.61,0.117-19.892-5.77-23.362-14.076
				c-0.331-0.949-0.814-1.836-1.184-2.768c-1.105-1.631-2.159-3.449-3.547-4.855c-3.255-3.311-6.339-7.271-6.533-12.086
				c0.01-0.387,0.135,0.085,0.291,1.049c1.295,7.906,8.98,13.18,14.469,6.445c0.365-0.448,0.695-1.113,0.913-1.355
				c0.4-0.448,1.115-0.607,1.115-0.246c0,0.11-0.219,0.199-0.489,0.199c-0.392,0-0.592,0.201-1.008,1.021
				c-0.479,0.947-2.489,2.986-2.859,3.111c-0.311,0.105-0.105,0.35,0.666,0.753c1.723,0.903,2.318,1.298,4.113,2.73
				c1.915,1.585,4.18,2.839,6.732,2.896c2.294-0.483,3.743-0.531,5.14,0.812c0.737,0.707,2.21,0.877,4.731,0.877
				c2.523,0,3.98-0.188,4.733-0.877c1.465-1.344,2.845-1.296,5.14-0.812c2.603-0.015,4.759-1.369,6.731-2.896
				c1.795-1.433,2.391-1.827,4.113-2.73c0.771-0.403,1.08-0.753,0.666-0.753c-0.391,0-2.381-2.164-2.859-3.111
				c-0.416-0.82-0.615-1.021-1.008-1.021c-0.27,0-0.488-0.089-0.488-0.199c0-0.361,0.713-0.202,1.115,0.246
				c0.217,0.242,0.627,0.855,0.912,1.355c6.148,7.361,13.365,0.318,14.59-6.445c0.15-0.964,0.281-1.436,0.291-1.049
				c-0.213,4.801-3.51,8.742-6.652,12.086c-1.336,1.486-2.562,3.113-3.549,4.855c-0.43,0.906-0.764,1.855-1.182,2.768
				C419.096,313.408,410.983,319.4,401.666,319.246L401.666,319.246z"/>
			<path clip-path="url(#SVGID_4_)" fill="#FFFFFF" d="M394.262,302.587c0.184-0.781-1.118-0.46-0.679,0.176
				C393.771,303.064,394.3,303.002,394.262,302.587L394.262,302.587z"/>
			<path clip-path="url(#SVGID_4_)" fill="#FFFFFF" d="M408.175,302.652c0.213-0.707-1.013-0.722-0.724,0.045
				C407.557,303.07,408.091,303.016,408.175,302.652L408.175,302.652z"/>
			<path clip-path="url(#SVGID_4_)" fill="#E91E26" d="M367.412,286.125l-0.115-0.971l0.276,0.949
				c0.578,1.982,2.217,3.676,3.897,4.017c1.25,0.256,2.354,0.659,2.79,1.021c0.274,0.227,0.377,0.219,0.678-0.055
				c0.231-0.207,0.707-0.32,1.34-0.32c0.866,0,1.031,0.07,1.427,0.604c0.246,0.333,0.498,0.558,0.559,0.497
				c0.06-0.06-0.004-0.244-0.141-0.412c-0.182-0.219-0.188-0.298-0.019-0.298c0.127,0,0.354,0.292,0.503,0.647
				c0.334,0.801,1.241,1.628,1.687,1.628c1.371-0.479,1.55-2.616,3.118-2.729c0.529,0.027,0.531,0.027,0.039,0.119
				c-0.677,0.121-0.938,0.835-1.802,1.939C376.197,299.709,368.592,293.629,367.412,286.125L367.412,286.125z"/>
			<path clip-path="url(#SVGID_4_)" fill="#FFFFFF" d="M376.619,295.197c0.688-0.523,0.255-0.893-1.003-0.857l-1.138,0.027
				l0.984,0.119c0.541,0.062,0.956,0.205,0.923,0.312c-0.034,0.108-0.212,0.171-0.395,0.143c-0.182-0.031-0.687-0.097-1.121-0.145
				l-0.787-0.092l0.689,0.213c0.381,0.114,0.822,0.285,0.985,0.379C376.154,295.521,376.192,295.518,376.619,295.197
				L376.619,295.197z"/>
			<path clip-path="url(#SVGID_4_)" fill="#FFFFFF" d="M374.083,294.305c0-0.439-0.962-0.383-1.048,0.066
				c-0.055,0.289,0.038,0.346,0.491,0.295C373.863,294.629,374.083,294.486,374.083,294.305L374.083,294.305z"/>
			<path clip-path="url(#SVGID_4_)" fill="#FFFFFF" d="M373.448,294.385c0.065-0.065,0.234-0.071,0.378-0.018
				c0.157,0.062,0.11,0.111-0.119,0.119C373.501,294.498,373.383,294.449,373.448,294.385L373.448,294.385z"/>
			<path clip-path="url(#SVGID_4_)" fill="#FFFFFF" d="M375.327,292.379c-0.067-0.588-0.751-0.889-0.751-0.332
				c0,0.182-0.176,0.554-0.394,0.829c-0.585,0.744-0.483,0.85,0.406,0.417C375.265,292.967,375.377,292.828,375.327,292.379
				L375.327,292.379z"/>
			<path clip-path="url(#SVGID_4_)" fill="#FFFFFF" d="M372.014,292.629c-0.466-0.826-0.5-1.529-0.096-1.863
				c0.353-0.296,0.383-0.135,0.068,0.369c-0.135,0.213-0.163,0.517-0.069,0.735c0.132,0.318,0.175,0.284,0.293-0.239
				c0.076-0.334,0.195-0.698,0.268-0.814c0.188-0.305-0.463-0.492-0.781-0.23c-0.526,0.44-0.092,2.736,0.521,2.736
				C372.319,293.322,372.228,293.01,372.014,292.629L372.014,292.629z"/>
			<path clip-path="url(#SVGID_4_)" fill="#FFFFFF" d="M373.938,292.754c0.409-0.551,0.409-0.574,0.047-0.67
				c-0.206-0.055-0.411,0.005-0.455,0.127c-0.044,0.125-0.211,0.449-0.307,0.361c-0.094-0.088,0.084-0.608,0.331-0.796
				s0.387-0.4,0.31-0.478c-0.076-0.076-0.274-0.027-0.438,0.105c-0.252,0.205-0.28,0.19-0.18-0.082
				c0.136-0.358-0.351-0.671-0.545-0.353c-0.064,0.103-0.015,0.188,0.112,0.188c0.128,0,0.178,0.136,0.113,0.307
				c-0.066,0.173-0.034,0.253,0.077,0.185c0.106-0.068,0.18,0.04,0.161,0.236c-0.06,0.71,0.037,1.438,0.192,1.438
				C373.445,293.322,373.707,293.066,373.938,292.754L373.938,292.754z"/>
			<path clip-path="url(#SVGID_4_)" fill="#FFFFFF" d="M372.546,291.793c-0.048-0.184-0.088,0.015-0.086,0.447
				c0.004,0.432,0.044,0.588,0.091,0.34C372.596,292.339,372.595,291.984,372.546,291.793L372.546,291.793z"/>
			<path clip-path="url(#SVGID_4_)" fill="#FFFFFF" d="M376.867,291.848c-0.162-0.165-0.342-0.295-0.4-0.295
				s-0.054,0.13,0.006,0.295c0.062,0.162,0.243,0.293,0.401,0.293C377.124,292.141,377.124,292.104,376.867,291.848L376.867,291.848
				z"/>
			<path clip-path="url(#SVGID_4_)" fill="#FFFFFF" d="M425.904,295.309c0.191-0.1,0.652-0.276,1.033-0.391l0.689-0.213
				l-0.787,0.092c-0.436,0.048-0.938,0.113-1.121,0.145c-0.184,0.028-0.361-0.034-0.395-0.143c-0.033-0.107,0.383-0.25,0.924-0.312
				l0.984-0.119l-1.137-0.027c-1.26-0.035-1.693,0.334-1.004,0.857C425.541,295.535,425.488,295.527,425.904,295.309
				L425.904,295.309z"/>
			<path clip-path="url(#SVGID_4_)" fill="#FFFFFF" d="M428.672,294.359c-0.078-0.398-0.699-0.577-0.99-0.285
				c-0.297,0.297,0,0.625,0.561,0.625C428.607,294.699,428.719,294.609,428.672,294.359L428.672,294.359z"/>
			<path clip-path="url(#SVGID_4_)" fill="#FFFFFF" d="M427.777,294.385c0.066-0.065,0.236-0.071,0.379-0.018
				c0.156,0.062,0.109,0.111-0.119,0.119C427.828,294.498,427.713,294.449,427.777,294.385L427.777,294.385z"/>
			<path clip-path="url(#SVGID_4_)" fill="#FFFFFF" d="M427.562,292.933c-0.234-0.317-0.428-0.722-0.428-0.897
				c0-0.551-0.684-0.236-0.752,0.347c-0.051,0.448,0.059,0.591,0.689,0.897c0.414,0.201,0.789,0.336,0.836,0.301
				C427.955,293.543,427.801,293.254,427.562,292.933L427.562,292.933z"/>
			<path clip-path="url(#SVGID_4_)" fill="#FFFFFF" d="M428.541,292.782c0.02-0.298,0.02-0.702,0.004-0.897
				c-0.02-0.196,0.055-0.305,0.162-0.236c0.109,0.068,0.143-0.012,0.076-0.185c-0.064-0.171-0.014-0.307,0.113-0.307
				s0.176-0.085,0.113-0.188c-0.195-0.318-0.682-0.006-0.547,0.353c0.102,0.272,0.072,0.287-0.178,0.082
				c-0.166-0.133-0.363-0.182-0.439-0.105c-0.076,0.077,0.062,0.29,0.311,0.478s0.371,0.412,0.277,0.5
				c-0.096,0.089-0.209,0.06-0.254-0.065c-0.045-0.122-0.248-0.182-0.455-0.127c-0.361,0.096-0.359,0.119,0.047,0.67
				C428.299,293.464,428.504,293.473,428.541,292.782L428.541,292.782z"/>
			<path clip-path="url(#SVGID_4_)" fill="#FFFFFF" d="M429.984,292.742c0.373-0.721,0.391-1.857,0.029-2.156
				c-0.318-0.262-0.967-0.074-0.781,0.23c0.072,0.116,0.191,0.48,0.268,0.814c0.119,0.523,0.16,0.558,0.297,0.239
				c0.09-0.219,0.062-0.522-0.074-0.735c-0.312-0.504-0.285-0.665,0.068-0.369c0.406,0.334,0.371,1.037-0.094,1.863
				c-0.215,0.381-0.307,0.693-0.203,0.693S429.818,293.061,429.984,292.742L429.984,292.742z"/>
			<path clip-path="url(#SVGID_4_)" fill="#FFFFFF" d="M429.238,291.793c-0.051-0.184-0.088,0.015-0.086,0.447
				c0.002,0.432,0.041,0.588,0.09,0.34C429.289,292.339,429.287,291.984,429.238,291.793L429.238,291.793z"/>
			<path clip-path="url(#SVGID_4_)" fill="#FFFFFF" d="M425.238,291.848c0.062-0.165,0.062-0.295,0.006-0.295
				c-0.059,0-0.24,0.13-0.402,0.295c-0.256,0.256-0.256,0.293-0.006,0.293C424.994,292.141,425.176,292.01,425.238,291.848
				L425.238,291.848z"/>
		</g>
	</g>
</g>
</svg>
