<?xml version="1.0" encoding="utf-8"?>
<!-- Generator: Adobe Illustrator 16.0.0, SVG Export Plug-In . SVG Version: 6.00 Build 0)  -->
<!DOCTYPE svg PUBLIC "-//W3C//DTD SVG 1.1//EN" "http://www.w3.org/Graphics/SVG/1.1/DTD/svg11.dtd">
<svg version="1.1" id="name" xmlns="http://www.w3.org/2000/svg" xmlns:xlink="http://www.w3.org/1999/xlink" x="0px" y="0px"
	 width="85.715px" height="50px" viewBox="358 276 85.715 50" enable-background="new 358 276 85.715 50" xml:space="preserve">
<g id="cl">
	<g>
		<defs>
			<rect id="SVGID_1_" x="358" y="276" width="85.715" height="50"/>
		</defs>
		<clipPath id="SVGID_2_">
			<use xlink:href="#SVGID_1_"  overflow="visible"/>
		</clipPath>
		<rect x="358" y="276" clip-path="url(#SVGID_2_)" fill="#FFFFFF" width="85.715" height="50"/>
		<rect x="358" y="276" clip-path="url(#SVGID_2_)" fill="#313F99" width="24.998" height="50"/>
		<rect x="358" y="301" clip-path="url(#SVGID_2_)" fill="#C22827" width="85.715" height="25"/>
		<polygon clip-path="url(#SVGID_2_)" fill="#FFFFFF" points="370.499,282.249 368.567,288.194 371.541,289.16 		"/>
		<polygon clip-path="url(#SVGID_2_)" fill="#FFFFFF" points="370.499,282.249 372.432,288.194 369.459,289.16 		"/>
		<polygon clip-path="url(#SVGID_2_)" fill="#FFFFFF" points="376.444,286.569 370.193,286.569 370.193,289.694 		"/>
		<polygon clip-path="url(#SVGID_2_)" fill="#FFFFFF" points="376.444,286.569 371.387,290.244 369.549,287.714 		"/>
		<polygon clip-path="url(#SVGID_2_)" fill="#FFFFFF" points="364.555,286.569 369.611,290.244 371.449,287.714 		"/>
		<polygon clip-path="url(#SVGID_2_)" fill="#FFFFFF" points="364.555,286.569 370.805,286.569 370.805,289.694 		"/>
		<polygon clip-path="url(#SVGID_2_)" fill="#FFFFFF" points="374.173,293.557 372.242,287.613 369.27,288.579 		"/>
		<polygon clip-path="url(#SVGID_2_)" fill="#FFFFFF" points="374.173,293.557 369.117,289.883 370.954,287.356 		"/>
		<polygon clip-path="url(#SVGID_2_)" fill="#FFFFFF" points="366.827,293.557 371.882,289.883 370.045,287.356 		"/>
		<polygon clip-path="url(#SVGID_2_)" fill="#FFFFFF" points="366.827,293.557 368.756,287.613 371.729,288.579 		"/>
	</g>
</g>
</svg>
