<?xml version="1.0" encoding="utf-8"?>
<!-- Generator: Adobe Illustrator 16.0.0, SVG Export Plug-In . SVG Version: 6.00 Build 0)  -->
<!DOCTYPE svg PUBLIC "-//W3C//DTD SVG 1.1//EN" "http://www.w3.org/Graphics/SVG/1.1/DTD/svg11.dtd">
<svg version="1.1" id="name" xmlns="http://www.w3.org/2000/svg" xmlns:xlink="http://www.w3.org/1999/xlink" x="0px" y="0px"
	 width="85.714px" height="50px" viewBox="358 276 85.714 50" enable-background="new 358 276 85.714 50" xml:space="preserve">
<g id="cn">
	<g>
		<defs>
			<rect id="SVGID_1_" x="358" y="276" width="85.714" height="50"/>
		</defs>
		<clipPath id="SVGID_2_">
			<use xlink:href="#SVGID_1_"  overflow="visible"/>
		</clipPath>
		<rect x="358" y="276" clip-path="url(#SVGID_2_)" fill="#CB2127" width="85.714" height="50"/>
		<polygon clip-path="url(#SVGID_2_)" fill="#F7DE28" points="366.249,294.097 367.86,289.106 363.625,286.014 368.868,286.004 
			370.5,281.022 372.131,286.005 377.375,286.02 373.137,289.109 374.747,294.1 370.499,291.025 		"/>
		<polygon clip-path="url(#SVGID_2_)" fill="#F7DE28" points="380.866,296.795 382.635,297.506 383.866,296.048 383.735,297.949 
			385.5,298.668 383.653,299.134 383.514,301.035 382.5,299.421 380.651,299.875 381.872,298.412 		"/>
		<polygon clip-path="url(#SVGID_2_)" fill="#F7DE28" points="390.444,287.207 388.565,286.88 387.665,288.561 387.397,286.674 
			385.52,286.336 387.231,285.498 386.971,283.609 388.299,284.978 390.014,284.147 389.122,285.832 		"/>
		<polygon clip-path="url(#SVGID_2_)" fill="#F7DE28" points="386.456,295.75 387.04,293.935 385.5,292.81 387.407,292.806 
			388,290.994 388.594,292.807 390.5,292.812 388.961,293.935 389.543,295.75 388,294.633 		"/>
		<polygon clip-path="url(#SVGID_2_)" fill="#F7DE28" points="380.959,279.178 382.688,279.98 383.993,278.588 383.764,280.482 
			385.491,281.293 383.62,281.66 383.381,283.552 382.454,281.886 380.583,282.245 381.879,280.849 		"/>
	</g>
</g>
</svg>
