<?xml version="1.0" encoding="utf-8"?>
<!-- Generator: Adobe Illustrator 16.0.0, SVG Export Plug-In . SVG Version: 6.00 Build 0)  -->
<!DOCTYPE svg PUBLIC "-//W3C//DTD SVG 1.1//EN" "http://www.w3.org/Graphics/SVG/1.1/DTD/svg11.dtd">
<svg version="1.1" id="name" xmlns="http://www.w3.org/2000/svg" xmlns:xlink="http://www.w3.org/1999/xlink" x="0px" y="0px"
	 width="85.715px" height="50px" viewBox="358 276 85.715 50" enable-background="new 358 276 85.715 50" xml:space="preserve">
<g id="cu">
	<g>
		<defs>
			<rect id="SVGID_1_" x="358" y="276" width="85.715" height="50"/>
		</defs>
		<clipPath id="SVGID_2_">
			<use xlink:href="#SVGID_1_"  overflow="visible"/>
		</clipPath>
		<rect x="358" y="276" clip-path="url(#SVGID_2_)" fill="#2E3D85" width="85.715" height="50"/>
		<path clip-path="url(#SVGID_2_)" fill="#2A2D2F" d="M358,311.025h85.715H358z M358,290.975h85.715H358z"/>
		<path clip-path="url(#SVGID_2_)" fill="#FFFFFF" d="M358,316.017h85.715v-9.986H358V316.017z M358,295.967h85.715v-9.984H358
			V295.967z"/>
		<polygon clip-path="url(#SVGID_2_)" fill="#D81E34" points="358,276 358,326 401.227,301.041 		"/>
		<polygon clip-path="url(#SVGID_2_)" fill-rule="evenodd" clip-rule="evenodd" fill="#FFFFFF" points="372.437,292.666 
			369.854,300.558 373.808,301.846 		"/>
		<polygon clip-path="url(#SVGID_2_)" fill-rule="evenodd" clip-rule="evenodd" fill="#FFFFFF" points="372.437,292.666 
			374.936,300.558 370.985,301.846 		"/>
		<polygon clip-path="url(#SVGID_2_)" fill-rule="evenodd" clip-rule="evenodd" fill="#FFFFFF" points="380.339,298.464 
			372.032,298.464 372.032,302.57 		"/>
		<polygon clip-path="url(#SVGID_2_)" fill-rule="evenodd" clip-rule="evenodd" fill="#FFFFFF" points="380.339,298.464 
			373.566,303.294 371.147,299.993 		"/>
		<polygon clip-path="url(#SVGID_2_)" fill-rule="evenodd" clip-rule="evenodd" fill="#FFFFFF" points="364.454,298.464 
			371.227,303.294 373.646,299.993 		"/>
		<polygon clip-path="url(#SVGID_2_)" fill-rule="evenodd" clip-rule="evenodd" fill="#FFFFFF" points="364.454,298.464 
			372.839,298.464 372.839,302.57 		"/>
		<polygon clip-path="url(#SVGID_2_)" fill-rule="evenodd" clip-rule="evenodd" fill="#FFFFFF" points="377.275,307.721 
			374.694,299.834 370.742,301.121 		"/>
		<polygon clip-path="url(#SVGID_2_)" fill-rule="evenodd" clip-rule="evenodd" fill="#FFFFFF" points="377.275,307.721 
			370.582,302.811 373,299.51 		"/>
		<polygon clip-path="url(#SVGID_2_)" fill-rule="evenodd" clip-rule="evenodd" fill="#FFFFFF" points="367.518,307.721 
			374.21,302.811 371.791,299.51 		"/>
		<polygon clip-path="url(#SVGID_2_)" fill-rule="evenodd" clip-rule="evenodd" fill="#FFFFFF" points="367.518,307.721 
			370.099,299.834 374.049,301.121 		"/>
	</g>
</g>
</svg>
