<?xml version="1.0" encoding="utf-8"?>
<!-- Generator: Adobe Illustrator 16.0.0, SVG Export Plug-In . SVG Version: 6.00 Build 0)  -->
<!DOCTYPE svg PUBLIC "-//W3C//DTD SVG 1.1//EN" "http://www.w3.org/Graphics/SVG/1.1/DTD/svg11.dtd">
<svg version="1.1" id="name" xmlns="http://www.w3.org/2000/svg" xmlns:xlink="http://www.w3.org/1999/xlink" x="0px" y="0px"
	 width="85.714px" height="50px" viewBox="358 276 85.714 50" enable-background="new 358 276 85.714 50" xml:space="preserve">
<g id="cv">
	<g>
		<defs>
			<rect id="SVGID_1_" x="358" y="276" width="85.714" height="50"/>
		</defs>
		<clipPath id="SVGID_2_">
			<use xlink:href="#SVGID_1_"  overflow="visible"/>
		</clipPath>
		<rect x="358" y="276" clip-path="url(#SVGID_2_)" fill="#273B8C" width="85.714" height="50"/>
		<rect x="358" y="301" clip-path="url(#SVGID_2_)" fill="#FFFFFF" width="85.714" height="12.5"/>
		<rect x="358" y="305.166" clip-path="url(#SVGID_2_)" fill="#BD1F34" width="85.714" height="4.168"/>
		<polygon clip-path="url(#SVGID_2_)" fill="#F4D130" points="389.875,292.25 389.313,293.977 387.498,293.977 388.965,295.045 
			388.405,296.772 389.875,295.703 391.344,296.772 390.782,295.045 392.251,293.977 390.436,293.977 		"/>
		<polygon clip-path="url(#SVGID_2_)" fill="#F4D130" points="382.528,294.636 381.967,296.363 380.151,296.363 381.619,297.432 
			381.059,299.159 382.528,298.089 383.997,299.159 383.436,297.432 384.906,296.363 383.089,296.363 		"/>
		<polygon clip-path="url(#SVGID_2_)" fill="#F4D130" points="377.986,300.888 377.425,302.613 375.609,302.613 377.078,303.681 
			376.518,305.408 377.986,304.342 379.456,305.408 378.894,303.681 380.363,302.613 378.547,302.613 		"/>
		<polygon clip-path="url(#SVGID_2_)" fill="#F4D130" points="377.986,308.614 377.425,310.34 375.609,310.34 377.078,311.406 
			376.518,313.135 377.986,312.067 379.456,313.135 378.894,311.406 380.363,310.34 378.547,310.34 		"/>
		<polygon clip-path="url(#SVGID_2_)" fill="#F4D130" points="382.528,314.863 381.967,316.589 380.151,316.589 381.619,317.658 
			381.059,319.385 382.528,318.318 383.997,319.385 383.436,317.658 384.906,316.589 383.089,316.589 		"/>
		<polygon clip-path="url(#SVGID_2_)" fill="#F4D130" points="389.875,317.25 389.313,318.977 387.498,318.977 388.965,320.045 
			388.405,321.771 389.875,320.703 391.344,321.771 390.782,320.045 392.251,318.977 390.436,318.977 		"/>
		<polygon clip-path="url(#SVGID_2_)" fill="#F4D130" points="397.221,314.863 396.66,316.589 394.844,316.589 396.312,317.658 
			395.751,319.385 397.221,318.318 398.69,319.385 398.129,317.658 399.598,316.589 397.782,316.589 		"/>
		<polygon clip-path="url(#SVGID_2_)" fill="#F4D130" points="401.762,300.888 401.201,302.613 399.386,302.613 400.854,303.681 
			400.293,305.408 401.762,304.342 403.231,305.408 402.67,303.681 404.141,302.613 402.325,302.613 		"/>
		<polygon clip-path="url(#SVGID_2_)" fill="#F4D130" points="401.762,308.614 401.201,310.34 399.386,310.34 400.854,311.406 
			400.293,313.135 401.762,312.067 403.231,313.135 402.67,311.406 404.141,310.34 402.325,310.34 		"/>
		<polygon clip-path="url(#SVGID_2_)" fill="#F4D130" points="397.221,294.636 396.66,296.363 394.844,296.363 396.312,297.432 
			395.751,299.159 397.221,298.089 398.69,299.159 398.129,297.432 399.598,296.363 397.782,296.363 		"/>
	</g>
</g>
</svg>
