<?xml version="1.0" encoding="utf-8"?>
<!-- Generator: Adobe Illustrator 16.0.0, SVG Export Plug-In . SVG Version: 6.00 Build 0)  -->
<!DOCTYPE svg PUBLIC "-//W3C//DTD SVG 1.1//EN" "http://www.w3.org/Graphics/SVG/1.1/DTD/svg11.dtd">
<svg version="1.1" id="name" xmlns="http://www.w3.org/2000/svg" xmlns:xlink="http://www.w3.org/1999/xlink" x="0px" y="0px"
	 width="85.717px" height="50px" viewBox="358 276 85.717 50" enable-background="new 358 276 85.717 50" xml:space="preserve">
<g id="cx">
	<g>
		<defs>
			<rect id="SVGID_1_" x="358" y="276" width="85.717" height="50"/>
		</defs>
		<clipPath id="SVGID_2_">
			<use xlink:href="#SVGID_1_"  overflow="visible"/>
		</clipPath>
		<rect x="358" y="276" clip-path="url(#SVGID_2_)" fill="#333694" width="85.717" height="50"/>
		<polygon clip-path="url(#SVGID_2_)" fill="#408B44" points="358,276 443.717,326 443.666,276.037 		"/>
		<g clip-path="url(#SVGID_2_)">
			<defs>
				<rect id="SVGID_3_" x="358" y="276" width="85.717" height="50"/>
			</defs>
			<clipPath id="SVGID_4_">
				<use xlink:href="#SVGID_3_"  overflow="visible"/>
			</clipPath>
			<path clip-path="url(#SVGID_4_)" fill="#F4C545" d="M408.686,300.978c0,4.276-3.467,7.742-7.742,7.742
				c-4.275,0-7.74-3.466-7.74-7.742c0-4.276,3.465-7.743,7.74-7.743C405.219,293.235,408.686,296.702,408.686,300.978
				L408.686,300.978z"/>
			<path clip-path="url(#SVGID_4_)" fill="#408B44" d="M396.131,297.523c0.529,0.727,1.333,1.946,1.977,1.628
				c0.502,0,0.764,0.037,0.833,0.372c1.187,0.202,3.184-0.298,4.426-1.918c0,0,0.104,0.014,0.068-0.599
				c0.008-0.27,0.365-0.216,0.376-0.128c0.05,0.13,0.04,0.233,0.109,0.236c0.151-0.051,0.36-0.395,0.537-0.614
				c0.048-0.094,0.022-0.196,0.031-0.315c0.094-0.228,0.322-0.179,0.372-0.06c0.043,0.077,0.045,0.136,0.088,0.213
				c0.234,0.156,0.656,0.009,0.69,0.009c0.041-0.19,0.165-0.173,0.165-0.173c0.153-0.034,0.094-0.02,0.195,0.034
				c-0.09,1.029,0.202,1.074,0.178,1.603c0.01,0.588-0.178,0.756-0.178,0.983c0.061,0.272,0.93,0.281,0.623,0.514
				c-0.268,0.145,0.002,0.415-0.404,0.517c-1.176,0.597-1.4,1.111-1.4,1.111s-0.297,0.557-0.329,0.557
				c-0.196,0.372-0.446,0.17-0.585,0.352c-0.068,0.228-0.148,0.733-0.01,0.995c0.068,0.36-0.008,0.557-0.096,0.921
				c-0.077,0.752-0.375,0.866-0.409,1.131c-0.14,0.283,0.028,1.607-0.104,1.607c-0.875,0.02-1.545-0.164-1.893-0.236
				c0.338-1.454,0.207-2.732,0.207-2.866c-0.087-1.04-1.56-0.787-1.785-0.923c-0.188-0.041-0.304-0.193-0.371-0.26
				c-0.208-0.021-0.286-0.07-0.493-0.09c-0.104,0.051-0.042,0.104-0.273,0.176c-0.588,0.07-0.847-0.512-0.847-0.512
				c0.03-0.195-1.32,0.04-2.053-0.131c-0.302,0.168-0.434,0.662-0.679,0.723c-0.008,0.152-0.405-0.125-0.485-0.276
				c-0.019-0.44,0.382-0.636,0.382-0.636c0.318-0.223,0.507-0.259,0.66-0.415c0.076-0.381,0.038-0.665,0.201-0.952
				c0.137-0.222,0.342-0.116,0.479-0.216c0.149-0.1,0.211-0.742,0.074-0.92c0,0-0.594-0.537-0.625-0.568
				C395.59,297.841,396.01,297.483,396.131,297.523L396.131,297.523z"/>
			<path clip-path="url(#SVGID_4_)" fill="#F4C545" d="M433.254,287.933c-0.35-1.387-3.49-4.377-5.851-6.281
				c-0.563-0.382-0.929-0.155-0.858,0.394c0.295,0.49,0.516,1.029,0.811,1.519c0.079,0.327,0.236,0.556,0.318,0.881
				c0,0,0.021,0.564,0.073,0.612c0.735,0.809,0.833,1.495,0.833,1.495c0.423,0.817,0.799,1.412,1.542,2.081
				c0.833,0.524,0.222,2.148,0.246,3.015c0,0.547-0.394,0.481-0.734,0.416c-2.704-2.481-5.382-2.49-7.741-3.209
				c-0.922-0.098-0.939,0.342-0.638,0.588c1.651,1.763,3.202,2.963,5.242,3.967c0.343,0.213,0.688,0.425,1.028,0.637
				c0.393,0.328,0.785,0.654,1.176,0.981c0.906,0.588,0.98,1.125,0.98,1.176c0.023,1.1-0.564,1.958-0.736,2.301
				c-0.309,1.17-0.928,1.372-0.928,1.372c-5.048,3.403-7.693,4.288-15.875,3.233c-0.121-0.065-0.906,0.065,0,0.393
				c2.083,0.693,7.197,1.807,12.146-0.537c1.188-0.833,1.984-0.561,2.843-1.057c1.413-0.873,3.432-1.958,3.801-2.081
				c1.1-0.588,4.188-1.25,4.898-1.838c0.816-0.065,1.662-0.173,1.719-0.875c0.27-0.173,0.659-0.045,0.952-0.619
				c0.646-0.111,0.537-0.344,0.537-0.344c-0.162-0.458-0.767-0.645-1.199-0.978c-0.636-0.213-1.079-0.278-1.544-0.051
				c-0.146,0.065-0.295,0.13-0.44,0.196c0,0-0.687-0.097-0.687-0.145C433.645,295.091,433.793,290.04,433.254,287.933
				L433.254,287.933z"/>
			<path clip-path="url(#SVGID_4_)" fill="#408B44" d="M436.826,296.202c-0.041,0.122-0.24,0.17-0.439,0.108
				c-0.195-0.06-0.32-0.21-0.278-0.333c0.043-0.125,0.241-0.173,0.44-0.111C436.745,295.929,436.87,296.08,436.826,296.202
				L436.826,296.202z"/>
			<polygon clip-path="url(#SVGID_4_)" fill="#FFFFFF" points="374.129,295.938 373.034,294.915 371.93,295.923 372.048,294.431 
				370.569,294.195 371.811,293.358 371.072,292.056 372.501,292.503 373.061,291.114 373.6,292.51 375.035,292.081 374.28,293.374 
				375.51,294.228 374.029,294.445 			"/>
			<polygon clip-path="url(#SVGID_4_)" fill="#FFFFFF" points="378.005,308.334 376.827,307.547 375.679,308.376 376.083,307.041 
				374.918,306.234 376.347,306.193 376.776,304.867 377.255,306.177 378.684,306.166 377.551,307.012 			"/>
			<polygon clip-path="url(#SVGID_4_)" fill="#FFFFFF" points="383.421,303.229 382.329,302.202 381.224,303.214 381.343,301.719 
				379.863,301.483 381.104,300.645 380.367,299.344 381.795,299.79 382.354,298.403 382.894,299.798 384.329,299.37 
				383.574,300.662 384.804,301.515 383.323,301.733 			"/>
			<polygon clip-path="url(#SVGID_4_)" fill="#FFFFFF" points="364.522,306.501 363.43,305.479 362.323,306.486 362.442,304.992 
				360.963,304.76 362.204,303.921 361.466,302.617 362.895,303.066 363.455,301.677 363.994,303.072 365.429,302.643 
				364.674,303.936 365.903,304.791 364.422,305.006 			"/>
			<polygon clip-path="url(#SVGID_4_)" fill="#FFFFFF" points="374.345,319.002 373.251,317.979 372.145,318.988 372.264,317.494 
				370.786,317.258 372.026,316.422 371.29,315.118 372.717,315.567 373.276,314.178 373.817,315.572 375.25,315.145 
				374.498,316.437 375.727,317.292 374.246,317.508 			"/>
		</g>
	</g>
</g>
</svg>
