<?xml version="1.0" encoding="utf-8"?>
<!-- Generator: Adobe Illustrator 16.0.0, SVG Export Plug-In . SVG Version: 6.00 Build 0)  -->
<!DOCTYPE svg PUBLIC "-//W3C//DTD SVG 1.1//EN" "http://www.w3.org/Graphics/SVG/1.1/DTD/svg11.dtd">
<svg version="1.1" id="name" xmlns="http://www.w3.org/2000/svg" xmlns:xlink="http://www.w3.org/1999/xlink" x="0px" y="0px"
	 width="85.712px" height="50px" viewBox="358 276 85.712 50" enable-background="new 358 276 85.712 50" xml:space="preserve">
<g id="cy">
	<g>
		<defs>
			<rect id="SVGID_1_" x="358" y="276" width="85.712" height="50"/>
		</defs>
		<clipPath id="SVGID_2_">
			<use xlink:href="#SVGID_1_"  overflow="visible"/>
		</clipPath>
		<rect x="358" y="276" clip-path="url(#SVGID_2_)" fill="#FFFFFF" width="85.712" height="50"/>
		<g clip-path="url(#SVGID_2_)">
			<defs>
				<rect id="SVGID_3_" x="358" y="276" width="85.712" height="50"/>
			</defs>
			<clipPath id="SVGID_4_">
				<use xlink:href="#SVGID_3_"  overflow="visible"/>
			</clipPath>
			<path clip-path="url(#SVGID_4_)" fill="#DC7E27" d="M394.657,291.194c0,0.657,0.083,0.739,0.123,0.861
				c0.042,0.125,0.092,2.39-0.246,3.006c-0.339,0.617-1.007,0.966-1.275,1.029c-0.267,0.062-1.111-0.534-1.894-0.784
				c-0.781-0.245-0.74-0.205-1.068-0.205c-0.331,0-1.071,0.278-1.275,0.455c-0.134-0.023-0.167-0.083-0.249,0
				c-0.08,0.08-0.41,0.409-0.493,0.616c-0.083,0.205-0.287,0.986-0.536,1.068c-0.244,0.083-0.914,0.75-1.355,0.784
				c-0.443,0.028-0.321-0.022-0.618-0.042c-0.298-0.02-0.328-0.33-0.618-0.495c-0.289-0.165-0.371-0.287-0.371-0.287
				s-0.081-0.33-0.206-0.33c-0.122,0-0.244,0.577-0.244,0.741c0,0.165,0.327,0.782,0.493,0.904c0.165,0.125,0.165,0.864,0.082,1.071
				c-0.082,0.205,0.165,0.412,0.205,0.617c0.042,0.205-0.247,0.369-0.122,0.412c0.122,0.04,0.287,0.287,0.287,0.534
				c0,0.247,0.616,0.329,0.741,0.577c0.123,0.246,0.165,0.658,0.205,0.902c0.042,0.248,0.186,0.137,0.206,0.742
				c0.195,0.094,0.494,0.287,0.74,0.412c0.247,0.121,0.206,0.412,0.536,0.537c0.328,0.121,0.328,0,0.493,0.039
				c0.165,0.04-0.083,0.082,0.206,0.165c0.29,0.083,0.412-0.042,0.659,0.083c0.246,0.121,0.371,0.408,0.534,0.49
				c0.165,0.083,0.865,0.291,0.905,0.333c0.042,0.04,0.493,0.204,0.575,0.204c0.084,0,0.331-0.164,0.331-0.164s0.287,0.082,0.536,0
				c0.246-0.082,0.41-0.33,0.575-0.33s0.205,0.082,0.371,0.082c0.165,0,0.411-0.082,0.411-0.082s0.369-0.082,0.658,0.082
				c0.287,0.166,0.946,0.947,0.946,1.276s-0.042,0.491-0.042,0.491s0.331-0.039,0.453,0.043c0.124,0.082,0.112-0.071,1.029,0.082
				c-0.062-0.227-0.946-0.863-0.123-1.768c0.821-0.906,0.874-0.536,1.068-0.701c0.195-0.164,0.946-0.647,2.222-0.205
				c1.234-0.204,0.33-0.371,1.029-0.411c0.125-0.052,0.361,0.011,0.616,0.082c0.082-0.153,0.259-0.298,0.537-0.247
				c0.049-0.145,0.39-0.341,0.738-0.369c0.052-0.279,0.938-0.628,1.441-0.659c0.204-0.185,0.443-1.009,1.562-0.616
				c0.039-0.268,0.227-0.702,0.537-0.781c0.059-0.557-0.146-1.68,0.408-2.06c0.557-0.503,1.083-0.39,2.018-0.37
				c0.637,0.134,0.946,0.617,1.15,0.659c0.205,0.04,0.287,0.04,0.537-0.125c0.247-0.165-0.043-0.492,0.165-0.492
				c0.204,0,0.122,0.04,0.451,0c0.327-0.042,0.287-0.156,0.495-0.205c0.326,0.162,0.695,0.04,0.86,0.162
				c0.168,0.125,0.188,0.114,0.537,0.165c0.122,0.205,0.452,0.205,0.452,0.205s-0.248-0.08-0.165-0.205
				c0.082-0.123,0-0.495-0.165-0.659c-0.162-0.165-0.244-0.205-0.369-0.37c-0.122-0.165,0.043-0.165-0.165-0.369
				c-0.207-0.208-0.659-0.412-0.781-0.659s-0.082-0.409-0.287-0.617c-0.207-0.207-1.028-0.906-1.071-1.647
				c-0.039-0.739,0.043-1.449,0.534-1.685c-0.02-0.432,0.083-0.494,0.537-0.741c0.452-0.248,0.492-0.083,0.778-0.083
				c0.29,0,0.455,0.042,0.742-0.165c0.287-0.204,0.042-0.659,0.784-1.315c0.738-0.659,1.028-0.988,1.275-1.028
				c0.244-0.042,1.14-0.67,1.52-0.616c0.268-0.321,0.537-0.702,0.864-0.949c0.329-0.244,0.701-0.244,0.866-0.452
				c0.162-0.205,0.122-0.577,0.616-0.903c0.495-0.33,0.904-0.537,1.111-0.702c0.204-0.165,0.656-0.04,0.821-0.205
				c0.165-0.165,0.165-0.781,0.329-0.906c0.165-0.123-0.534,0.29-0.903,0.455c-0.372,0.165-0.906,0.452-1.358,0.409
				c-0.454-0.04-0.207,0.248-0.454,0.33c-0.244,0.083-0.659,0.043-0.824,0.208c-0.162,0.165-0.448,0.574-0.696,0.739
				c-0.25,0.165-0.372,0.125-0.619,0.247c-0.244,0.125-0.451,0.247-0.659,0.33c-0.204,0.083-0.82,0.042-0.82,0.042
				s-0.534,0.699-0.782,0.946c-0.247,0.247-0.536,0.205-0.783,0.33c-0.245,0.122-2.345,1.48-3.782,1.685
				c-1.442,0.205-0.784-0.122-1.235,0c-0.452,0.125-1.111,0.989-1.645,1.029c-0.535,0.042-0.702,0-0.824,0
				c-0.123,0-0.781,0.412-1.193,0.329c-0.605,0.185-1.057,0.145-1.233,0.125c-0.176-0.022-0.494,0.205-0.946,0
				c-0.35-0.113-0.35,0.134-1.028-0.082s-1.152,0.082-1.48-0.083c-0.331-0.165-0.29-0.29-0.536-0.29
				c-0.247,0-0.247,0.165-0.536,0.165c-0.287,0-0.33-0.165-0.575-0.165c-0.247,0-0.536,0.165-0.906,0.125
				c-0.37-0.043-0.493-0.208-0.74-0.208S394.657,291.194,394.657,291.194L394.657,291.194z"/>
			<path clip-path="url(#SVGID_4_)" fill="#2D6853" d="M398.865,316.326c0.714-0.518,1.345-0.688,2.315-0.857
				c0.971-0.171,2-0.458,2.543-0.6c0.542-0.143-1.83,0.684-2.43,0.857C400.693,315.896,398.865,316.326,398.865,316.326
				L398.865,316.326z"/>
			<path clip-path="url(#SVGID_4_)" fill="#2D6853" d="M402.779,314.809c-0.199-1.227,0.287-2.512,1.4-3.025
				C404.438,312.67,403.637,314.182,402.779,314.809L402.779,314.809z"/>
			<path clip-path="url(#SVGID_4_)" fill="#2D6853" d="M404.66,314.173c-0.594-1.021,0.414-2.333,1.152-2.975
				C406.151,311.812,405.552,313.639,404.66,314.173L404.66,314.173z"/>
			<path clip-path="url(#SVGID_4_)" fill="#2D6853" d="M406.406,313.383c-0.633-0.872,0.117-2.4,0.918-3
				C407.637,311.24,407.324,312.783,406.406,313.383L406.406,313.383z"/>
			<path clip-path="url(#SVGID_4_)" fill="#2D6853" d="M408.157,312.289c-0.577-0.821-0.177-2.105,0.65-2.936
				C409.41,310.039,408.893,311.525,408.157,312.289L408.157,312.289z"/>
			<path clip-path="url(#SVGID_4_)" fill="#2D6853" d="M409.552,311.184c-0.485-0.772,0.114-2.631,0.887-3.145
				C410.779,308.727,410.523,310.667,409.552,311.184L409.552,311.184z"/>
			<path clip-path="url(#SVGID_4_)" fill="#2D6853" d="M410.666,310.896c-0.143-1.113,1.801-2.344,2.6-2.312
				C413.18,309.496,412.351,310.496,410.666,310.896L410.666,310.896z"/>
			<path clip-path="url(#SVGID_4_)" fill="#2D6853" d="M409.58,312.152c0.912-0.939,2.686-0.939,3.312-0.741
				C412.723,311.953,410.637,313.152,409.58,312.152L409.58,312.152z"/>
			<path clip-path="url(#SVGID_4_)" fill="#2D6853" d="M408.322,313.096c1.286-0.344,2.116-0.628,2.886,0.174
				C410.666,313.954,408.58,313.752,408.322,313.096L408.322,313.096z"/>
			<path clip-path="url(#SVGID_4_)" fill="#2D6853" d="M406.495,313.926c1.228-0.656,2.713,0.314,2.94,0.883
				C408.066,315.38,406.467,314.07,406.495,313.926L406.495,313.926z"/>
			<path clip-path="url(#SVGID_4_)" fill="#2D6853" d="M404.808,314.869c1.116-0.43,2.4,0.142,2.915,0.77
				C407.123,315.926,405.552,316.238,404.808,314.869L404.808,314.869z"/>
			<path clip-path="url(#SVGID_4_)" fill="#2D6853" d="M403.268,315.354c1.284-0.146,2.518,0.829,2.787,1.387
				C404.41,316.897,403.779,316.412,403.268,315.354L403.268,315.354z"/>
			<path clip-path="url(#SVGID_4_)" fill="#2D6853" d="M402.853,316.326c-0.716-0.518-1.344-0.688-2.315-0.857
				c-0.972-0.171-2.001-0.458-2.543-0.6c-0.541-0.143,1.83,0.684,2.43,0.857C401.023,315.896,402.853,316.326,402.853,316.326
				L402.853,316.326z"/>
			<path clip-path="url(#SVGID_4_)" fill="#2D6853" d="M398.937,314.809c0.2-1.227-0.286-2.512-1.401-3.025
				C397.279,312.67,398.081,314.182,398.937,314.809L398.937,314.809z"/>
			<path clip-path="url(#SVGID_4_)" fill="#2D6853" d="M397.056,314.173c0.595-1.021-0.414-2.333-1.152-2.975
				C395.566,311.812,396.166,313.639,397.056,314.173L397.056,314.173z"/>
			<path clip-path="url(#SVGID_4_)" fill="#2D6853" d="M395.309,313.383c0.636-0.872-0.115-2.4-0.914-3
				C394.082,311.24,394.396,312.783,395.309,313.383L395.309,313.383z"/>
			<path clip-path="url(#SVGID_4_)" fill="#2D6853" d="M393.56,312.289c0.577-0.821,0.176-2.105-0.652-2.936
				C392.309,310.039,392.823,311.525,393.56,312.289L393.56,312.289z"/>
			<path clip-path="url(#SVGID_4_)" fill="#2D6853" d="M392.165,311.184c0.487-0.772-0.115-2.631-0.885-3.145
				C390.938,308.727,391.195,310.667,392.165,311.184L392.165,311.184z"/>
			<path clip-path="url(#SVGID_4_)" fill="#2D6853" d="M391.053,310.896c0.142-1.113-1.801-2.344-2.601-2.312
				C388.537,309.496,389.365,310.496,391.053,310.896L391.053,310.896z"/>
			<path clip-path="url(#SVGID_4_)" fill="#2D6853" d="M392.137,312.152c-0.913-0.939-2.685-0.939-3.314-0.741
				C388.993,311.953,391.08,313.152,392.137,312.152L392.137,312.152z"/>
			<path clip-path="url(#SVGID_4_)" fill="#2D6853" d="M393.396,313.096c-1.287-0.344-2.115-0.628-2.887,0.174
				C391.053,313.954,393.137,313.752,393.396,313.096L393.396,313.096z"/>
			<path clip-path="url(#SVGID_4_)" fill="#2D6853" d="M395.222,313.926c-1.227-0.656-2.713,0.314-2.942,0.883
				C393.652,315.38,395.251,314.07,395.222,313.926L395.222,313.926z"/>
			<path clip-path="url(#SVGID_4_)" fill="#2D6853" d="M396.908,314.869c-1.115-0.43-2.4,0.142-2.913,0.77
				C394.594,315.926,396.166,316.238,396.908,314.869L396.908,314.869z"/>
			<path clip-path="url(#SVGID_4_)" fill="#2D6853" d="M398.453,315.354c-1.286-0.146-2.52,0.829-2.79,1.387
				C397.309,316.897,397.937,316.412,398.453,315.354L398.453,315.354z"/>
		</g>
	</g>
</g>
</svg>
