<?xml version="1.0" encoding="utf-8"?>
<!-- Generator: Adobe Illustrator 16.0.0, SVG Export Plug-In . SVG Version: 6.00 Build 0)  -->
<!DOCTYPE svg PUBLIC "-//W3C//DTD SVG 1.1//EN" "http://www.w3.org/Graphics/SVG/1.1/DTD/svg11.dtd">
<svg version="1.1" id="name" xmlns="http://www.w3.org/2000/svg" xmlns:xlink="http://www.w3.org/1999/xlink" x="0px" y="0px"
	 width="85.716px" height="50px" viewBox="358 276 85.716 50" enable-background="new 358 276 85.716 50" xml:space="preserve">
<g id="de">
	<g>
		<defs>
			<rect id="SVGID_1_" x="358" y="276" width="85.716" height="50"/>
		</defs>
		<clipPath id="SVGID_2_">
			<use xlink:href="#SVGID_1_"  overflow="visible"/>
		</clipPath>
		<rect x="358" y="276" clip-path="url(#SVGID_2_)" fill="#010101" width="85.716" height="16.667"/>
		<rect x="358" y="292.667" clip-path="url(#SVGID_2_)" fill="#E01F26" width="85.716" height="16.667"/>
		<rect x="358" y="309.334" clip-path="url(#SVGID_2_)" fill="#F6D929" width="85.716" height="16.666"/>
		<g clip-path="url(#SVGID_2_)">
			<defs>
				<rect id="SVGID_3_" x="358" y="276" width="85.716" height="50"/>
			</defs>
			<clipPath id="SVGID_4_">
				<use xlink:href="#SVGID_3_"  overflow="visible"/>
			</clipPath>
			<path clip-path="url(#SVGID_4_)" fill="#F5D729" d="M388.993,287.836v20.013c0,7.493,10.068,6.596,11.867,9.59
				c1.794-2.994,11.865-2.097,11.865-9.59v-20.013H388.993z"/>
			<g clip-path="url(#SVGID_4_)">
				<path fill="#010101" d="M400.86,317.584l-0.064-0.105c-0.637-1.059-2.328-1.619-4.285-2.27c-3.381-1.125-7.592-2.52-7.592-7.359
					v-20.087h23.88v20.087c0,4.84-4.211,6.234-7.592,7.359c-1.959,0.65-3.648,1.211-4.285,2.27L400.86,317.584L400.86,317.584z
					 M389.069,287.911v19.939c0,4.731,3.979,6.053,7.49,7.217c1.922,0.64,3.594,1.193,4.301,2.234
					c0.705-1.041,2.375-1.595,4.298-2.234c3.512-1.164,7.49-2.485,7.49-7.217v-19.939H389.069L389.069,287.911z"/>
			</g>
			<path clip-path="url(#SVGID_4_)" fill="#010101" d="M400.079,290.715c0.123,0.597-0.119,2.034-0.418,2.515
				c-0.299,0.48-1.08,1.378-1.139,2.278c-0.301,4.495,1.377,11.023,2.338,15.697c0.957-4.674,2.636-11.202,2.335-15.697
				c-0.299-4.495-0.898-5.694-0.898-5.694L400.079,290.715z"/>
			<path clip-path="url(#SVGID_4_)" fill="#CA2027" d="M400.321,291.374c-1.119-0.083-2.059-0.301-2.818-0.659
				c0.32,0.397,1.039,0.716,2.156,0.958L400.321,291.374z"/>
			<g clip-path="url(#SVGID_4_)">
				<path fill="#010101" d="M399.668,291.635c-1.139-0.167-1.871-0.494-2.195-0.898c0.795,0.298,1.738,0.517,2.85,0.597
					l-0.006,0.077c-1.119-0.082-2.07-0.304-2.83-0.665C397.844,291.081,398.561,291.399,399.668,291.635L399.668,291.635z"/>
			</g>
			<path clip-path="url(#SVGID_4_)" fill="#CA2027" d="M399.959,288.916c-1.797-0.9-2.875,0.12-1.676,1.736
				c0.119-0.298,1.256-0.719,1.795,0.722c-0.279,0.159-0.938,0.179-1.977,0.057c0.539,0.42,2.158,0.48,2.457,0.301
				c0.301-0.179-0.537-1.676-0.537-1.676L399.959,288.916z"/>
			<g clip-path="url(#SVGID_4_)">
				<path fill="#010101" d="M399.874,291.863c-0.615,0-1.434-0.123-1.795-0.401c1.057,0.051,1.713,0.034,1.982-0.122
					c-0.338-0.81-0.85-0.943-1.125-0.946c-0.006,0-0.008,0-0.012,0c-0.32,0-0.562,0.159-0.607,0.273
					c-0.607-0.722-0.73-1.401-0.391-1.804c0.367-0.438,1.154-0.429,2.051,0.02l-0.035,0.068c-0.852-0.429-1.621-0.443-1.957-0.04
					c-0.316,0.375-0.193,1.017,0.326,1.719c-0.002-0.147,0.303-0.312,0.625-0.312c0.297,0.006,0.842,0.145,1.18,1.043
					c-0.307,0.21-0.959,0.23-2.018,0.111c0.547,0.335,2.15,0.403,2.443,0.23c0.193-0.119-0.236-1.06-0.555-1.628
					c0.209,0.219,0.908,1.503,0.592,1.69C400.471,291.829,400.202,291.863,399.874,291.863L399.874,291.863z"/>
			</g>
			<path clip-path="url(#SVGID_4_)" fill="#010101" d="M402.178,290.175c0.299-0.062,0.779-0.241,1.137-0.6
				c-0.66,0-1.855-0.361-2.335-0.599c-0.48-0.242-1.318-0.779-1.318,0.238c0,1.02,1.078,1.799,0.898,2.637L402.178,290.175z"/>
			<path clip-path="url(#SVGID_4_)" fill="#F0F7FC" d="M400.678,289.516c0,0-0.6-0.301-0.719-0.42s-0.299,0.659,0.242,0.898
				C400.28,289.794,400.44,289.635,400.678,289.516L400.678,289.516z"/>
			<path clip-path="url(#SVGID_4_)" fill="#010101" d="M400.26,289.155c-0.281,0.08-0.34,0.298-0.182,0.659
				c0.043-0.278,0.242-0.46,0.6-0.54L400.26,289.155z"/>
			<path clip-path="url(#SVGID_4_)" fill="#010101" d="M403.496,297.304v7.071l8.029,6.592v-17.559c0-1.355-0.281-2.276-0.838-2.756
				v3.657L403.496,297.304z"/>
			<g clip-path="url(#SVGID_4_)">
				<polygon fill="#F5D729" points="405.104,310.188 404.879,310.188 404.879,295.207 405.104,295.207 405.104,310.188 				"/>
			</g>
			<g clip-path="url(#SVGID_4_)">
				<polygon fill="#F5D729" points="406.783,310.188 406.559,310.188 406.559,295.207 406.783,295.207 406.783,310.188 				"/>
			</g>
			<g clip-path="url(#SVGID_4_)">
				<polygon fill="#F5D729" points="408.463,310.188 408.238,310.188 408.238,295.207 408.463,295.207 408.463,310.188 				"/>
			</g>
			<g clip-path="url(#SVGID_4_)">
				<polygon fill="#F5D729" points="410.139,310.188 409.914,310.188 409.914,295.207 410.139,295.207 410.139,310.188 				"/>
			</g>
			<path clip-path="url(#SVGID_4_)" fill="#010101" d="M401.936,298.622c5.396,0,7.672-1.736,8.811-3.055v-4.853
				c0.6-0.162,0.918-0.603,0.959-1.318c-1.678,1.375-4.314-1.858-5.873,1.497c0.84,1.677,2.518,1.498,3.117,0.537
				c1.199,1.02,0.238,4.856-7.014,4.796V298.622z"/>
			<path clip-path="url(#SVGID_4_)" fill="#CA2027" d="M403.914,310.367c-0.418,0.54-0.061,1.021,0.301,1.199
				c-0.119-0.361-0.059-0.699,0.18-1.018L403.914,310.367z"/>
			<g clip-path="url(#SVGID_4_)">
				<path fill="#010101" d="M404.25,311.555c-0.248-0.051-0.48-0.258-0.543-0.542c-0.051-0.219,0.012-0.452,0.178-0.668l0.061,0.048
					c-0.156,0.199-0.213,0.401-0.168,0.604c0.061,0.258,0.273,0.448,0.455,0.536c-0.176-0.323-0.113-0.676,0.133-1.009
					C404.189,310.882,404.133,311.205,404.25,311.555L404.25,311.555z"/>
			</g>
			<path clip-path="url(#SVGID_4_)" fill="#CA2027" d="M406.01,312.404c0.041,0.242-0.078,0.54-0.357,0.9
				c0.719-0.178,1.02-0.42,0.779-0.838L406.01,312.404z"/>
			<g clip-path="url(#SVGID_4_)">
				<path fill="#010101" d="M405.662,313.34c0.232-0.406,0.352-0.699,0.312-0.93l0.072-0.012c0.043,0.25-0.078,0.562-0.365,0.93
					c0.439-0.18,0.695-0.315,0.771-0.492c0.043-0.099,0.023-0.215-0.053-0.352c0.156,0.122,0.172,0.258,0.121,0.383
					C406.438,313.064,406.164,313.215,405.662,313.34L405.662,313.34z"/>
			</g>
			<path clip-path="url(#SVGID_4_)" fill="#CA2027" d="M408.408,311.507c0.119,0.281,0.141,0.6,0.061,0.96
				c0.539-0.479,0.719-1.139,0.301-1.262L408.408,311.507z"/>
			<g clip-path="url(#SVGID_4_)">
				<path fill="#010101" d="M408.494,312.492c0.018-0.386-0.004-0.701-0.119-0.971l0.068-0.029c0.121,0.285,0.145,0.614,0.062,0.98
					c0.293-0.35,0.508-0.77,0.449-1.028c-0.027-0.103-0.092-0.171-0.197-0.202c0.154-0.033,0.238,0.055,0.268,0.186
					C409.094,311.717,408.875,312.154,408.494,312.492L408.494,312.492z"/>
			</g>
			<path clip-path="url(#SVGID_4_)" fill="#CA2027" d="M408.35,309.351c0.199,0.04,0.4,0.238,0.6,0.599
				c0.059-0.658-0.061-1.02-0.66-1.139L408.35,309.351z"/>
			<g clip-path="url(#SVGID_4_)">
				<path fill="#010101" d="M408.986,309.953c-0.266-0.333-0.459-0.529-0.646-0.568l0.018-0.071c0.211,0.042,0.42,0.25,0.623,0.616
					c-0.006-0.689-0.172-0.977-0.699-1.082C408.949,308.904,409.043,309.322,408.986,309.953L408.986,309.953z"/>
			</g>
			<path clip-path="url(#SVGID_4_)" fill="#CA2027" d="M403.076,307.373l2.818,2.576c0,0-1.08,0.239-1.5,0.239
				c-0.422,0-0.779,0.12-0.66,0.239c0.119,0.121,0.361,0.121,0.48,0.301c0.119,0.179,0.299,0.42,0.539,0.179
				c0.24-0.238,1.078-0.479,1.078-0.479s0,1.381-0.061,1.56c-0.059,0.179-0.238,0.536-0.119,0.536s0.119-0.057,0.6,0
				c0.48,0.062,0.42,0.183,0.301-0.536c-0.121-0.72-0.062-1.497-0.062-1.497s1.08,0.715,1.438,1.195
				c0.361,0.48,0.303,0.123,0.48-0.06c0.18-0.179,0.422-0.238,0.6-0.298c0.18-0.061-0.48-0.242-0.658-0.361
				c-0.18-0.119-1.557-0.897-1.557-0.897s0.777-0.239,1.258-0.302c0.477-0.059,0.477-0.059,0.418-0.298c-0.061-0.239,0-0.479,0-0.6
				c0-0.119-0.061-0.239-0.359,0c-0.301,0.239-1.678,0.839-1.678,0.839l-2.336-3.115L403.076,307.373z"/>
			<g clip-path="url(#SVGID_4_)">
				<path fill="#010101" d="M406.57,312.609c-0.033,0-0.08-0.009-0.137-0.018l-0.188-0.027c-0.338-0.046-0.432-0.026-0.5-0.012
					l-0.156-0.02c-0.043-0.062,0.006-0.197,0.088-0.406l0.057-0.154c0.049-0.139,0.061-1.15,0.061-1.539
					c-0.037,0.057-0.795,0.281-1.014,0.502c-0.084,0.08-0.156,0.119-0.25,0.108c-0.143-0.012-0.25-0.147-0.348-0.296
					c-0.062-0.094-0.164-0.133-0.264-0.176c-0.08-0.031-0.154-0.062-0.211-0.117l-0.018-0.02l-0.01-0.091
					c0.053-0.125,0.406-0.193,0.713-0.193c0.412,0,1.48-0.235,1.49-0.238l-2.834-2.515l0.051-0.054l2.814,2.577
					c-0.059,0.073-1.102,0.304-1.521,0.304c-0.361,0-0.617,0.088-0.643,0.15c0.055,0.071,0.125,0.1,0.195,0.128
					c0.105,0.043,0.223,0.088,0.299,0.205c0.086,0.131,0.182,0.25,0.293,0.261c0.059,0.006,0.121-0.022,0.188-0.088
					c0.244-0.244,1.062-0.479,1.096-0.489c0.047,0.092,0.047,1.421-0.014,1.605l-0.059,0.154c-0.041,0.1-0.119,0.304-0.098,0.338
					c0.154-0.025,0.254-0.046,0.605-0.003l0.188,0.031c0.064,0.011,0.137,0.025,0.148,0.015c0.016-0.021-0.006-0.137-0.031-0.271
					l-0.047-0.271c-0.121-0.715-0.062-1.5-0.062-1.506c0.104,0,1.148,0.699,1.506,1.177c0.141,0.188,0.172,0.208,0.23,0.225
					c0.025,0,0.051-0.054,0.076-0.105c0.027-0.057,0.061-0.128,0.117-0.182c0.162-0.165,0.375-0.233,0.543-0.287
					c0.057-0.036-0.127-0.11-0.25-0.159c-0.137-0.054-0.275-0.107-0.346-0.156c-0.184-0.119-1.559-0.895-1.559-0.895
					c0.018-0.074,0.797-0.311,1.273-0.373c0.244-0.027,0.379-0.045,0.406-0.084c0.018-0.026,0.004-0.083-0.02-0.168
					c-0.043-0.18-0.023-0.355-0.008-0.486c0.002-0.048,0.008-0.091,0.008-0.122c-0.055-0.104-0.119-0.114-0.299,0.028
					c-0.301,0.242-1.631,0.821-1.688,0.847l-2.381-3.128l2.395,3.068c-0.002-0.028,1.336-0.613,1.629-0.844
					c0.156-0.125,0.27-0.17,0.344-0.133c0.033,0.014,0.074,0.057,0.074,0.161c0,0.034-0.004,0.079-0.01,0.131
					c-0.014,0.125-0.031,0.296,0.01,0.46c0.027,0.108,0.045,0.174,0.008,0.228c-0.045,0.065-0.158,0.079-0.461,0.116
					c-0.438,0.057-1.135,0.265-1.238,0.296c0.143,0.017,1.385,0.722,1.555,0.835c0.064,0.043,0.201,0.1,0.336,0.15
					c0.277,0.108,0.375,0.154,0.371,0.217l-0.127,0.082c-0.168,0.057-0.361,0.116-0.512,0.268c-0.049,0.048-0.076,0.11-0.105,0.164
					c-0.037,0.074-0.068,0.14-0.133,0.145c-0.074,0.006-0.156-0.064-0.299-0.25c-0.332-0.445-1.307-1.107-1.418-1.184
					c0.039,0.079-0.004,0.798,0.105,1.454l0.047,0.267c0.041,0.211,0.055,0.29,0.012,0.336
					C406.627,312.601,406.604,312.609,406.57,312.609L406.57,312.609z"/>
			</g>
			<path clip-path="url(#SVGID_4_)" fill="#010101" d="M400.86,315.164l1.259-1.5c1.438,0.88,2.494,0.639,3.172-0.72
				c-2.156,0.36-3.172-1.597-3.053-5.872l1.615,2.517v-2.335l1.979,0.238l-5.214-5.574L400.86,315.164z"/>
			<path clip-path="url(#SVGID_4_)" fill="#010101" d="M398.221,297.304v7.071l-8.029,6.592v-17.559c0-1.355,0.281-2.276,0.84-2.756
				v3.657L398.221,297.304z"/>
			<g clip-path="url(#SVGID_4_)">
				<polygon fill="#F5D729" points="396.836,310.188 396.612,310.188 396.612,295.207 396.836,295.207 396.836,310.188 				"/>
			</g>
			<g clip-path="url(#SVGID_4_)">
				<polygon fill="#F5D729" points="395.157,310.188 394.934,310.188 394.934,295.207 395.157,295.207 395.157,310.188 				"/>
			</g>
			<g clip-path="url(#SVGID_4_)">
				<polygon fill="#F5D729" points="393.481,310.188 393.256,310.188 393.256,295.207 393.481,295.207 393.481,310.188 				"/>
			</g>
			<g clip-path="url(#SVGID_4_)">
				<polygon fill="#F5D729" points="391.801,310.188 391.579,310.188 391.579,295.207 391.801,295.207 391.801,310.188 				"/>
			</g>
			<path clip-path="url(#SVGID_4_)" fill="#010101" d="M399.78,298.622c-5.393,0-7.67-1.736-8.809-3.055v-4.853
				c-0.6-0.162-0.92-0.603-0.959-1.318c1.678,1.375,4.316-1.858,5.873,1.497c-0.838,1.677-2.518,1.498-3.117,0.537
				c-1.199,1.02-0.238,4.856,7.012,4.796V298.622z"/>
			<path clip-path="url(#SVGID_4_)" fill="#CA2027" d="M397.803,310.367c0.418,0.54,0.059,1.021-0.301,1.199
				c0.121-0.361,0.061-0.699-0.18-1.018L397.803,310.367z"/>
			<g clip-path="url(#SVGID_4_)">
				<path fill="#010101" d="M397.52,311.601c0.064-0.396,0.008-0.719-0.227-1.028c0.307,0.284,0.367,0.637,0.246,1.008
					c0.127-0.136,0.34-0.326,0.4-0.584c0.045-0.202-0.012-0.404-0.168-0.604l0.059-0.048c0.168,0.216,0.23,0.449,0.182,0.668
					C397.948,311.297,397.715,311.504,397.52,311.601L397.52,311.601z"/>
			</g>
			<path clip-path="url(#SVGID_4_)" fill="#CA2027" d="M395.706,312.404c-0.039,0.242,0.08,0.54,0.359,0.9
				c-0.721-0.178-1.018-0.42-0.779-0.838L395.706,312.404z"/>
			<g clip-path="url(#SVGID_4_)">
				<path fill="#010101" d="M396.096,313.279c-0.543-0.064-0.816-0.215-0.902-0.412c-0.051-0.125-0.031-0.261,0.059-0.42
					c-0.012,0.174-0.031,0.29,0.012,0.389c0.076,0.177,0.332,0.312,0.811,0.433c-0.324-0.308-0.449-0.62-0.406-0.87l0.072,0.012
					C395.704,312.641,395.823,312.934,396.096,313.279L396.096,313.279z"/>
			</g>
			<path clip-path="url(#SVGID_4_)" fill="#CA2027" d="M393.307,311.507c-0.119,0.281-0.139,0.6-0.059,0.96
				c-0.539-0.479-0.719-1.139-0.301-1.262L393.307,311.507z"/>
			<g clip-path="url(#SVGID_4_)">
				<path fill="#010101" d="M393.286,312.459c-0.441-0.305-0.66-0.742-0.594-1.031c0.027-0.131,0.115-0.219,0.246-0.256
					c-0.084,0.102-0.15,0.17-0.174,0.272c-0.059,0.259,0.154,0.679,0.51,0.995c-0.143-0.33-0.123-0.66,0-0.947l0.068,0.029
					C393.225,311.794,393.206,312.109,393.286,312.459L393.286,312.459z"/>
			</g>
			<path clip-path="url(#SVGID_4_)" fill="#CA2027" d="M393.368,309.351c-0.199,0.04-0.398,0.238-0.6,0.599
				c-0.059-0.658,0.061-1.02,0.66-1.139L393.368,309.351z"/>
			<g clip-path="url(#SVGID_4_)">
				<path fill="#010101" d="M392.803,309.967c-0.129-0.645-0.033-1.062,0.617-1.193c-0.514,0.18-0.678,0.467-0.615,1.171
					c0.139-0.387,0.344-0.589,0.555-0.631l0.016,0.071C393.188,309.424,392.995,309.62,392.803,309.967L392.803,309.967z"/>
			</g>
			<path clip-path="url(#SVGID_4_)" fill="#CA2027" d="M398.641,307.373l-2.816,2.576c0,0,1.078,0.239,1.498,0.239
				s0.779,0.12,0.658,0.239c-0.119,0.121-0.357,0.121-0.479,0.301c-0.119,0.179-0.299,0.42-0.537,0.179
				c-0.24-0.238-1.08-0.479-1.08-0.479s0,1.381,0.059,1.56c0.061,0.179,0.24,0.536,0.121,0.536c-0.121,0-0.121-0.057-0.6,0
				c-0.479,0.062-0.418,0.183-0.299-0.536c0.119-0.72,0.059-1.497,0.059-1.497s-1.078,0.715-1.438,1.195s-0.301,0.123-0.48-0.06
				c-0.178-0.179-0.418-0.238-0.598-0.298c-0.18-0.061,0.479-0.242,0.658-0.361s1.559-0.897,1.559-0.897s-0.779-0.239-1.258-0.302
				c-0.48-0.059-0.48-0.059-0.42-0.298c0.059-0.239,0-0.479,0-0.6c0-0.119,0.059-0.239,0.359,0c0.299,0.239,1.678,0.839,1.678,0.839
				l2.338-3.115L398.641,307.373z"/>
			<g clip-path="url(#SVGID_4_)">
				<path fill="#010101" d="M395.147,312.609c-0.031,0-0.057-0.009-0.076-0.025c-0.043-0.046-0.029-0.125,0.01-0.336l0.049-0.267
					c0.111-0.671,0.064-1.403,0.059-1.483c-0.035,0.086-1.033,0.762-1.369,1.213c-0.141,0.186-0.227,0.256-0.301,0.25
					c-0.064-0.005-0.096-0.07-0.133-0.145c-0.025-0.054-0.057-0.116-0.104-0.162c-0.15-0.153-0.344-0.213-0.514-0.27l-0.127-0.082
					c-0.002-0.062,0.096-0.108,0.375-0.217c0.131-0.051,0.266-0.107,0.332-0.15c0.166-0.11,1.371-0.793,1.539-0.889
					c-0.127,0.006-0.799-0.188-1.225-0.242c-0.301-0.037-0.412-0.051-0.459-0.116c-0.035-0.054-0.02-0.119,0.008-0.228
					c0.043-0.164,0.023-0.335,0.01-0.46c-0.006-0.052-0.01-0.097-0.01-0.131c0-0.104,0.041-0.147,0.076-0.161
					c0.074-0.037,0.188,0.008,0.344,0.133c0.293,0.232,1.654,0.826,1.668,0.832l2.293-3.105l-2.277,3.162
					c-0.1-0.011-1.43-0.59-1.73-0.832c-0.178-0.143-0.246-0.133-0.266-0.125c-0.033,0.128-0.027,0.171-0.021,0.219
					c0.014,0.131,0.031,0.307-0.012,0.486c-0.023,0.085-0.037,0.142-0.02,0.168c0.027,0.039,0.162,0.057,0.406,0.084
					c0.477,0.062,1.256,0.299,1.266,0.305c0.006,0.068-1.369,0.844-1.549,0.963c-0.072,0.049-0.211,0.103-0.348,0.156
					c-0.123,0.049-0.307,0.123-0.328,0.154c0.246,0.059,0.459,0.127,0.621,0.292c0.057,0.054,0.09,0.125,0.117,0.182
					c0.023,0.052,0.049,0.105,0.074,0.105c0.043-0.017,0.092-0.037,0.23-0.225c0.361-0.478,1.404-1.177,1.449-1.204
					c0.057,0.033,0.117,0.818-0.002,1.533l-0.049,0.271c-0.025,0.134-0.047,0.25-0.031,0.271c0.014,0.011,0.086-0.004,0.148-0.015
					l0.189-0.031c0.35-0.043,0.451-0.022,0.525-0.009c0.102-0.022,0.02-0.23-0.02-0.33l-0.059-0.15
					c-0.061-0.185-0.061-1.514-0.061-1.57c0.086-0.023,0.898,0.21,1.143,0.454c0.064,0.065,0.131,0.094,0.189,0.088
					c0.109-0.011,0.205-0.13,0.291-0.261c0.076-0.117,0.193-0.162,0.297-0.205c0.074-0.028,0.143-0.057,0.188-0.102
					c-0.014-0.089-0.271-0.177-0.633-0.177c-0.418,0-1.461-0.23-1.506-0.239l2.799-2.642l0.051,0.054l-2.807,2.571
					c0.094-0.034,1.074,0.182,1.463,0.182c0.307,0,0.662,0.068,0.713,0.193l0.01,0.026l-0.037,0.084
					c-0.055,0.055-0.131,0.086-0.211,0.117c-0.098,0.043-0.201,0.082-0.264,0.176c-0.096,0.148-0.205,0.284-0.348,0.296
					c-0.086,0.011-0.168-0.028-0.25-0.108c-0.229-0.232-1.055-0.469-1.061-0.471c0.047,0.346,0.059,1.365,0.105,1.508l0.055,0.15
					c0.086,0.213,0.133,0.348,0.092,0.41l-0.156,0.02c-0.068-0.015-0.164-0.031-0.502,0.012l-0.186,0.027
					C395.225,312.601,395.184,312.609,395.147,312.609L395.147,312.609z"/>
			</g>
			<path clip-path="url(#SVGID_4_)" fill="#010101" d="M400.86,315.164l-1.258-1.5c-1.439,0.88-2.498,0.639-3.178-0.72
				c2.156,0.36,3.178-1.597,3.057-5.872l-1.619,2.517v-2.335l-1.977,0.238l5.212-5.574L400.86,315.164z"/>
		</g>
	</g>
</g>
</svg>
