<?xml version="1.0" encoding="utf-8"?>
<!-- Generator: Adobe Illustrator 16.0.0, SVG Export Plug-In . SVG Version: 6.00 Build 0)  -->
<!DOCTYPE svg PUBLIC "-//W3C//DTD SVG 1.1//EN" "http://www.w3.org/Graphics/SVG/1.1/DTD/svg11.dtd">
<svg version="1.1" id="name" xmlns="http://www.w3.org/2000/svg" xmlns:xlink="http://www.w3.org/1999/xlink" x="0px" y="0px"
	 width="85.712px" height="50px" viewBox="358 276 85.712 50" enable-background="new 358 276 85.712 50" xml:space="preserve">
<g id="dm">
	<g>
		<defs>
			<rect id="SVGID_1_" x="358" y="276" width="85.712" height="50"/>
		</defs>
		<clipPath id="SVGID_2_">
			<use xlink:href="#SVGID_1_"  overflow="visible"/>
		</clipPath>
		<rect x="358" y="276" clip-path="url(#SVGID_2_)" fill="#2E6D42" width="85.712" height="50"/>
		<rect x="358" y="303.084" clip-path="url(#SVGID_2_)" fill="#FFFFFF" width="85.712" height="4.165"/>
		<rect x="358" y="298.916" clip-path="url(#SVGID_2_)" fill="#010101" width="85.712" height="4.168"/>
		<rect x="358" y="294.748" clip-path="url(#SVGID_2_)" fill="#F4D130" width="85.712" height="4.168"/>
		<rect x="394.606" y="276" clip-path="url(#SVGID_2_)" fill="#F4D130" width="4.167" height="50"/>
		<rect x="398.773" y="276" clip-path="url(#SVGID_2_)" fill="#010101" width="4.167" height="50"/>
		<rect x="402.939" y="276" clip-path="url(#SVGID_2_)" fill="#FFFFFF" width="4.166" height="50"/>
		<g clip-path="url(#SVGID_2_)">
			<defs>
				<rect id="SVGID_3_" x="358" y="276" width="85.712" height="50"/>
			</defs>
			<clipPath id="SVGID_4_">
				<use xlink:href="#SVGID_3_"  overflow="visible"/>
			</clipPath>
			<path clip-path="url(#SVGID_4_)" fill="#C21F3B" d="M413.357,301.002c0,6.9-5.596,12.498-12.5,12.498
				c-6.903,0-12.501-5.598-12.501-12.498c0-6.904,5.598-12.501,12.501-12.501C407.762,288.5,413.357,294.098,413.357,301.002
				L413.357,301.002z"/>
			<path clip-path="url(#SVGID_4_)" fill="#2E6D42" d="M400.456,291.131c0-0.017,0.401-1.142,0.401-1.142l0.364,1.125
				c0,0,1.223,0.037,1.223,0.017c0-0.017-0.967,0.739-0.967,0.739s0.455,1.29,0.438,1.256c-0.02-0.04-1.057-0.775-1.057-0.775
				s-1.058,0.736-1.039,0.736c0.018,0,0.401-1.216,0.401-1.216l-0.948-0.719L400.456,291.131z"/>
			<g clip-path="url(#SVGID_4_)">
				<path fill="#010101" d="M401.908,293.208l-0.031-0.062c-0.053-0.054-0.668-0.495-1.046-0.762
					c-0.221,0.19-0.935,0.688-0.982,0.73c-0.037-0.1,0.188-0.798,0.33-1.259l-0.932-0.67l1.189-0.094
					c0-0.037,0.071-0.25,0.381-1.117l0.443,1.123c0.016-0.023,0.746-0.003,1.049,0c0.055,0,0.094-0.003,0.113-0.003l0.021-0.006
					l-0.016,0.006c0,0.005-0.006,0.014-0.01,0.022c0,0.006,0,0.012,0,0.014l0.02,0.003l-0.02-0.003
					c-0.006,0.029-0.023,0.043-0.049,0.045c-0.174,0.188-0.662,0.565-0.867,0.728c0.318,0.844,0.418,1.105,0.443,1.193
					c0.004,0.005,0.006,0.008,0.006,0.008h-0.002c0.008,0.034,0.004,0.037,0,0.043L401.908,293.208L401.908,293.208z
					 M400.827,290.032c-0.004,0.176-0.318,1.057-0.33,1.108l-1.225,0.054l0.972,0.642c-0.021,0.151-0.3,1.048-0.374,1.236
					c0.115-0.165,0.925-0.733,0.961-0.755c0.589,0.397,0.869,0.594,1.001,0.69c-0.111-0.318-0.395-1.123-0.395-1.123
					c0.084-0.096,0.621-0.522,0.863-0.705c-0.32,0-1.08-0.022-1.08-0.022L400.827,290.032L400.827,290.032z"/>
			</g>
			<path clip-path="url(#SVGID_4_)" fill="#2E6D42" d="M401.258,310.896c0,0.018-0.401,1.143-0.401,1.143l-0.365-1.125
				c0,0-1.221-0.037-1.221-0.018c0,0.018,0.966-0.738,0.966-0.738s-0.455-1.29-0.438-1.256c0.019,0.04,1.058,0.775,1.058,0.775
				s1.057-0.735,1.038-0.735c-0.018,0-0.4,1.216-0.4,1.216l0.949,0.719L401.258,310.896z"/>
			<g clip-path="url(#SVGID_4_)">
				<path fill="#010101" d="M400.854,312.167l-0.4-1.235c-0.02,0.021-0.764,0-1.061,0c-0.057,0-0.096,0-0.11,0.002
					c0.003-0.006,0.007-0.017,0.013-0.025c0-0.039,0.018-0.054,0.047-0.057c0.155-0.17,0.578-0.5,0.869-0.728
					c-0.319-0.844-0.418-1.104-0.443-1.196c-0.004-0.002-0.005-0.006-0.005-0.006s0.001,0,0.003,0
					c-0.01-0.033-0.006-0.037-0.002-0.042c0.108,0.042,0.733,0.491,1.117,0.765c0.218-0.186,0.896-0.662,0.978-0.729l0.035-0.017
					l-0.025,0.017l0.025,0.026l-0.029-0.026c0.004,0.01,0.004,0.021,0.004,0.035l-0.014,0.006l0.014-0.006
					c-0.006,0.182-0.201,0.801-0.336,1.221l0.936,0.671l-1.193,0.094c0.002,0.034-0.068,0.25-0.378,1.116L400.854,312.167
					L400.854,312.167z M399.412,310.849c0.321,0,1.081,0.022,1.081,0.022l0.364,1.04c0.101-0.275,0.346-0.979,0.358-1.022
					l1.229-0.055l-0.975-0.642c0.02-0.151,0.301-1.048,0.375-1.235c-0.117,0.164-0.927,0.732-0.962,0.755
					c-0.796-0.54-1.023-0.707-1.091-0.761c0.131,0.184,0.485,1.193,0.485,1.193C400.193,310.24,399.655,310.664,399.412,310.849
					L399.412,310.849z"/>
			</g>
			<path clip-path="url(#SVGID_4_)" fill="#2E6D42" d="M406.668,293.956c0,0.017-0.404,1.142-0.404,1.142l-0.363-1.125
				c0,0-1.223-0.037-1.223-0.017c0,0.017,0.969-0.739,0.969-0.739s-0.457-1.292-0.439-1.253c0.02,0.037,1.057,0.776,1.057,0.776
				s1.061-0.739,1.039-0.739c-0.02,0-0.4,1.216-0.4,1.216l0.949,0.719L406.668,293.956z"/>
			<g clip-path="url(#SVGID_4_)">
				<path fill="#010101" d="M406.264,295.229l-0.402-1.239c-0.018,0.025-0.754,0.003-1.055,0.003c-0.061,0-0.1,0-0.113,0.002
					c0-0.008,0.006-0.017,0.012-0.028c0-0.037,0.016-0.051,0.045-0.057c0.152-0.17,0.576-0.497,0.869-0.728
					c-0.318-0.841-0.418-1.105-0.443-1.193c-0.002-0.003-0.002-0.006-0.006-0.009c0.004,0,0.004,0,0.006,0.003
					c-0.012-0.034-0.006-0.037-0.002-0.045c0.107,0.042,0.732,0.491,1.115,0.767c0.217-0.188,0.898-0.662,0.979-0.73l0.035-0.017
					l-0.027,0.017l0.025,0.028l-0.025-0.026c0,0.009,0.002,0.02,0,0.034l-0.012,0.003l0.012-0.003
					c-0.004,0.182-0.201,0.798-0.332,1.216l0.932,0.676l-1.191,0.091c0.004,0.037-0.07,0.25-0.381,1.117L406.264,295.229
					L406.264,295.229z M404.82,293.907c0.322,0,1.08,0.023,1.08,0.023l0.367,1.042c0.096-0.281,0.346-0.983,0.357-1.025l1.225-0.054
					l-0.973-0.642c0.02-0.153,0.301-1.048,0.373-1.236c-0.113,0.165-0.924,0.73-0.961,0.758c-0.795-0.54-1.021-0.707-1.088-0.764
					c0.129,0.188,0.482,1.193,0.482,1.193C405.602,293.299,405.062,293.726,404.82,293.907L404.82,293.907z"/>
			</g>
			<path clip-path="url(#SVGID_4_)" fill="#2E6D42" d="M410.174,304.209c0,0.02-0.4,1.143-0.4,1.143l-0.365-1.123
				c0,0-1.221-0.039-1.221-0.02s0.965-0.738,0.965-0.738s-0.453-1.29-0.438-1.254c0.018,0.037,1.059,0.776,1.059,0.776
				s1.057-0.739,1.039-0.739c-0.02,0-0.4,1.217-0.4,1.217l0.945,0.719L410.174,304.209z"/>
			<g clip-path="url(#SVGID_4_)">
				<path fill="#010101" d="M409.773,305.482l-0.402-1.239c-0.02,0.022-0.764,0.003-1.062,0.003c-0.057,0-0.096,0-0.109,0.003
					c0.002-0.009,0.008-0.017,0.014-0.026c0-0.042,0.018-0.053,0.045-0.059c0.156-0.168,0.578-0.498,0.869-0.729
					c-0.318-0.84-0.416-1.104-0.443-1.192c-0.002-0.003-0.004-0.006-0.004-0.009c0,0,0.002,0,0.002,0.003
					c-0.008-0.034-0.006-0.037,0-0.046c0.107,0.043,0.732,0.492,1.117,0.768c0.215-0.185,0.896-0.665,0.977-0.73l0.037-0.017
					l-0.029,0.017l0.027,0.029l0,0l-0.027-0.029v0.003c0,0.009,0.004,0.021,0.004,0.034l-0.014,0.003l0.014-0.003
					c-0.008,0.185-0.211,0.815-0.336,1.219l0.932,0.674l-1.189,0.091c0,0.036-0.072,0.25-0.381,1.116L409.773,305.482
					L409.773,305.482z M408.33,304.16c0.32,0,1.082,0.026,1.082,0.026l0.363,1.04c0.096-0.279,0.346-0.98,0.357-1.025l1.225-0.055
					l-0.971-0.643c0.02-0.15,0.297-1.048,0.371-1.235c-0.113,0.167-0.922,0.733-0.959,0.759c-0.797-0.543-1.023-0.707-1.092-0.765
					c0.131,0.188,0.486,1.193,0.486,1.193C409.107,303.553,408.57,303.979,408.33,304.16L408.33,304.16z"/>
			</g>
			<path clip-path="url(#SVGID_4_)" fill="#2E6D42" d="M392.339,304.502c0,0.017-0.401,1.142-0.401,1.142l-0.365-1.125
				c0,0-1.221-0.034-1.221-0.017c0,0.017,0.967-0.736,0.967-0.736s-0.456-1.293-0.438-1.256c0.018,0.037,1.057,0.775,1.057,0.775
				s1.057-0.738,1.039-0.738c-0.02,0-0.402,1.219-0.402,1.219l0.949,0.719L392.339,304.502z"/>
			<g clip-path="url(#SVGID_4_)">
				<path fill="#010101" d="M391.936,305.774l-0.401-1.239c-0.021,0.023-0.763,0.004-1.061,0.004c-0.057,0-0.096,0-0.11,0.002
					c0.002-0.008,0.007-0.017,0.014-0.027c-0.002-0.037,0.018-0.052,0.045-0.058c0.156-0.167,0.578-0.494,0.871-0.725
					c-0.32-0.844-0.419-1.108-0.444-1.196c-0.005-0.002-0.005-0.006-0.006-0.008c0.001,0.002,0.003,0.002,0.003,0.002
					c-0.008-0.033-0.005-0.039,0-0.045c0.107,0.045,0.732,0.494,1.117,0.764c0.217-0.182,0.898-0.661,0.978-0.724l0.036-0.021
					l-0.027,0.018l0.025,0.028h-0.002l-0.023-0.028l-0.002,0.003c0.002,0.009,0.003,0.02,0.002,0.034l-0.012,0.002l0.012-0.002
					c-0.006,0.185-0.207,0.814-0.334,1.219l0.933,0.674l-1.191,0.09c0.003,0.037-0.069,0.25-0.378,1.117L391.936,305.774
					L391.936,305.774z M390.493,304.453c0.32,0.003,1.082,0.025,1.082,0.025l0.363,1.043c0.1-0.281,0.349-0.982,0.359-1.028
					l1.225-0.052l-0.972-0.645c0.021-0.15,0.3-1.045,0.374-1.236c-0.115,0.168-0.926,0.733-0.961,0.76
					c-0.797-0.541-1.023-0.708-1.091-0.762c0.13,0.185,0.485,1.193,0.485,1.193C391.274,303.846,390.737,304.271,390.493,304.453
					L390.493,304.453z"/>
			</g>
			<path clip-path="url(#SVGID_4_)" fill="#2E6D42" d="M395.578,294.075c0,0.017-0.402,1.142-0.402,1.142l-0.364-1.125
				c0,0-1.221-0.034-1.221-0.017s0.967-0.738,0.967-0.738s-0.457-1.29-0.438-1.253c0.018,0.037,1.056,0.772,1.056,0.772
				s1.058-0.736,1.038-0.736c-0.018,0-0.399,1.216-0.399,1.216l0.947,0.721L395.578,294.075z"/>
			<g clip-path="url(#SVGID_4_)">
				<path fill="#010101" d="M395.174,295.348l-0.402-1.239c-0.02,0.026-0.753,0.003-1.055,0.003c-0.06,0-0.102,0-0.115,0
					c0.002-0.006,0.006-0.014,0.013-0.025c-0.001-0.034,0.017-0.048,0.046-0.057c0.154-0.167,0.578-0.497,0.871-0.724
					c-0.319-0.844-0.418-1.105-0.443-1.193c-0.006-0.006-0.006-0.009-0.007-0.011c0.001,0.002,0.003,0.002,0.005,0.002
					c-0.01-0.034-0.006-0.04-0.002-0.045c0.107,0.045,0.731,0.495,1.115,0.764c0.217-0.182,0.898-0.662,0.979-0.724l0.035-0.02
					l-0.026,0.02l0.025,0.025l-0.028-0.025c0.003,0.008,0.004,0.02,0.004,0.034l-0.013,0.002l0.013-0.002
					c-0.006,0.179-0.203,0.801-0.334,1.219l0.934,0.673l-1.192,0.091c0.002,0.037-0.069,0.247-0.38,1.117L395.174,295.348
					L395.174,295.348z M393.731,294.026c0.32,0.003,1.082,0.026,1.082,0.026l0.363,1.04c0.1-0.278,0.35-0.98,0.359-1.025
					l1.225-0.051l-0.972-0.645c0.02-0.15,0.3-1.045,0.372-1.236c-0.113,0.165-0.924,0.733-0.961,0.756
					c-0.793-0.537-1.021-0.702-1.089-0.758c0.13,0.188,0.485,1.19,0.485,1.19C394.512,293.418,393.974,293.845,393.731,294.026
					L393.731,294.026z"/>
			</g>
			<path clip-path="url(#SVGID_4_)" fill="#2E6D42" d="M391.466,297.822c0-0.017,0.401-1.142,0.401-1.142l0.363,1.125
				c0,0,1.221,0.034,1.221,0.017s-0.965,0.736-0.965,0.736s0.455,1.292,0.438,1.256c-0.02-0.037-1.057-0.776-1.057-0.776
				s-1.057,0.739-1.039,0.739c0.019,0,0.4-1.219,0.4-1.219l-0.947-0.719L391.466,297.822z"/>
			<g clip-path="url(#SVGID_4_)">
				<path fill="#010101" d="M392.917,299.896l-0.029-0.06c-0.055-0.054-0.667-0.494-1.046-0.764
					c-0.223,0.188-0.937,0.69-0.983,0.733c-0.038-0.102,0.187-0.801,0.329-1.258l-0.932-0.673l1.192-0.091
					c-0.003-0.04,0.069-0.25,0.378-1.117l0.443,1.122c0.016-0.025,0.752-0.003,1.055-0.003c0.053,0,0.091,0,0.108-0.002l0.019-0.003
					l-0.012,0.003l0.008,0.042l-0.021-0.003c-0.003,0.028-0.02,0.037-0.043,0.045c-0.154,0.167-0.578,0.497-0.871,0.725
					c0.318,0.841,0.418,1.105,0.443,1.193c0.004,0.005,0.004,0.005,0.006,0.008l-0.004,0.003c0.008,0.031,0.006,0.037,0.001,0.042
					L392.917,299.896L392.917,299.896z M391.838,296.723c-0.005,0.176-0.318,1.057-0.33,1.108l-1.227,0.051l0.973,0.645
					c-0.02,0.15-0.301,1.045-0.373,1.236c0.114-0.167,0.924-0.733,0.961-0.759c0.59,0.401,0.866,0.594,0.998,0.69
					c-0.11-0.318-0.393-1.122-0.393-1.122c0.084-0.094,0.621-0.52,0.865-0.705c-0.322,0-1.082-0.022-1.082-0.022L391.838,296.723
					L391.838,296.723z"/>
			</g>
			<path clip-path="url(#SVGID_4_)" fill="#2E6D42" d="M394.952,308.056c0-0.017,0.401-1.142,0.401-1.142l0.364,1.125
				c0,0,1.221,0.037,1.221,0.017c0-0.017-0.967,0.739-0.967,0.739s0.457,1.289,0.438,1.252c-0.018-0.033-1.056-0.772-1.056-0.772
				s-1.058,0.739-1.038,0.739c0.018,0,0.399-1.219,0.399-1.219l-0.947-0.719L394.952,308.056z"/>
			<g clip-path="url(#SVGID_4_)">
				<path fill="#010101" d="M396.403,310.13l-0.028-0.058c-0.055-0.053-0.667-0.494-1.046-0.764
					c-0.223,0.188-0.937,0.69-0.983,0.732c-0.038-0.102,0.185-0.801,0.329-1.261l-0.934-0.673l1.192-0.092
					c-0.002-0.037,0.069-0.246,0.38-1.116l0.443,1.122c0.016-0.022,0.744-0.002,1.049-0.002c0.055,0,0.095,0,0.113,0l0.019-0.006
					l-0.013,0.006c-0.002,0.005-0.006,0.014-0.012,0.021c0,0.006,0,0.012,0,0.018h0.021h-0.021
					c-0.005,0.028-0.022,0.037-0.049,0.043c-0.174,0.188-0.661,0.564-0.867,0.725c0.319,0.844,0.418,1.104,0.443,1.193
					c0.006,0.008,0.006,0.008,0.006,0.008l-0.002,0.003c0.008,0.031,0.004,0.037,0,0.042L396.403,310.13L396.403,310.13z
					 M395.324,306.956c-0.005,0.179-0.319,1.06-0.331,1.108l-1.225,0.054l0.973,0.642c-0.021,0.151-0.301,1.049-0.373,1.239
					c0.113-0.167,0.924-0.733,0.961-0.759c0.588,0.4,0.866,0.594,0.998,0.69c-0.111-0.317-0.395-1.122-0.395-1.122
					c0.084-0.097,0.621-0.52,0.865-0.705c-0.321,0-1.082-0.021-1.082-0.021L395.324,306.956L395.324,306.956z"/>
			</g>
			<path clip-path="url(#SVGID_4_)" fill="#2E6D42" d="M409.309,297.549c0-0.02,0.402-1.145,0.402-1.145l0.363,1.125
				c0,0,1.221,0.037,1.221,0.02c0-0.02-0.965,0.736-0.965,0.736s0.453,1.293,0.438,1.256c-0.018-0.04-1.057-0.775-1.057-0.775
				s-1.059,0.736-1.037,0.736c0.016,0,0.4-1.216,0.4-1.216l-0.949-0.719L409.309,297.549z"/>
			<g clip-path="url(#SVGID_4_)">
				<path fill="#010101" d="M410.762,299.624l-0.029-0.06c-0.057-0.054-0.668-0.498-1.045-0.764c-0.225,0.19-0.938,0.69-0.986,0.73
					c-0.037-0.1,0.188-0.798,0.33-1.256l-0.932-0.673l1.189-0.094c0-0.037,0.072-0.247,0.381-1.116l0.443,1.125
					c0.018-0.026,0.744-0.006,1.051-0.003c0.053,0,0.094-0.003,0.111-0.003l0.02-0.003l-0.014,0.003
					c0,0.006-0.006,0.014-0.012,0.022c0,0.006,0,0.012,0,0.017h0.02h-0.02c-0.006,0.029-0.021,0.04-0.049,0.043
					c-0.172,0.185-0.662,0.565-0.865,0.727c0.318,0.844,0.418,1.108,0.443,1.196c0.006,0.003,0.006,0.006,0.006,0.008h-0.004
					c0.01,0.031,0.006,0.034,0,0.04L410.762,299.624L410.762,299.624z M409.682,296.447c-0.006,0.179-0.318,1.06-0.332,1.108
					l-1.225,0.054l0.971,0.645c-0.02,0.151-0.297,1.046-0.371,1.236c0.113-0.168,0.926-0.733,0.963-0.759
					c0.588,0.397,0.863,0.594,0.996,0.69c-0.109-0.318-0.395-1.122-0.395-1.122c0.086-0.094,0.623-0.523,0.865-0.705
					c-0.318,0-1.08-0.022-1.08-0.022L409.682,296.447L409.682,296.447z"/>
			</g>
			<path clip-path="url(#SVGID_4_)" fill="#2E6D42" d="M406.059,307.962c0-0.02,0.404-1.146,0.404-1.146l0.363,1.126
				c0,0,1.223,0.036,1.223,0.02c0-0.02-0.967,0.735-0.967,0.735s0.455,1.291,0.438,1.254c-0.02-0.035-1.057-0.773-1.057-0.773
				s-1.057,0.738-1.039,0.738c0.02,0,0.4-1.219,0.4-1.219l-0.947-0.719L406.059,307.962z"/>
			<g clip-path="url(#SVGID_4_)">
				<path fill="#010101" d="M407.514,310.033l-0.031-0.057c-0.055-0.055-0.668-0.494-1.045-0.765
					c-0.223,0.188-0.936,0.688-0.982,0.733c-0.037-0.105,0.188-0.801,0.328-1.259l-0.932-0.677l1.191-0.088
					c-0.004-0.039,0.07-0.25,0.381-1.119l0.441,1.123c0.016-0.023,0.762-0.004,1.061-0.004c0.049,0,0.086,0,0.102,0l0.018-0.002
					l-0.008,0.002l0.006,0.04h-0.02c-0.006,0.028-0.021,0.04-0.047,0.043c-0.156,0.171-0.58,0.497-0.869,0.728
					c0.318,0.844,0.418,1.104,0.443,1.193c0.002,0.005,0.006,0.005,0.006,0.008l-0.004,0.003c0.01,0.028,0.004,0.034,0,0.042
					L407.514,310.033L407.514,310.033z M406.432,306.859c-0.004,0.18-0.318,1.057-0.33,1.111l-1.225,0.051l0.973,0.645
					c-0.02,0.151-0.301,1.046-0.373,1.236c0.113-0.168,0.924-0.732,0.961-0.758c0.588,0.4,0.865,0.594,0.996,0.689
					c-0.109-0.318-0.391-1.122-0.391-1.122c0.082-0.094,0.619-0.52,0.863-0.704c-0.322,0-1.082-0.023-1.082-0.023L406.432,306.859
					L406.432,306.859z"/>
			</g>
			<path clip-path="url(#SVGID_4_)" fill="#3D9546" d="M392.447,298.277h0.06H392.447z"/>
			<path clip-path="url(#SVGID_4_)" fill="#3D9546" d="M403.207,305.852h0.059H403.207z"/>
			<path clip-path="url(#SVGID_4_)" fill="#3D9546" d="M400.07,317.875h0.061H400.07z"/>
			<path clip-path="url(#SVGID_4_)" fill="#3D9546" d="M385.026,317.875h0.061H385.026z"/>
			<path clip-path="url(#SVGID_4_)" fill="#3D9546" d="M382.28,305.541h0.059H382.28z"/>
			<path clip-path="url(#SVGID_4_)" fill="#3D9546" d="M415.238,283.174h-0.062H415.238z"/>
			<path clip-path="url(#SVGID_4_)" fill="#3D9546" d="M419.557,294.924h-0.059H419.557z"/>
			<path clip-path="url(#SVGID_4_)" fill="#3D9546" d="M408.844,303.519h-0.061H408.844z"/>
			<path clip-path="url(#SVGID_4_)" fill="#3D9546" d="M398.78,294.924h-0.061H398.78z"/>
			<path clip-path="url(#SVGID_4_)" fill="#3D9546" d="M402.494,283.347h-0.061H402.494z"/>
			<path clip-path="url(#SVGID_4_)" fill="#2E6D42" d="M402.307,300.632c0.412-0.042,0.863,1.568,1.008,3.597
				c0.145,2.029-0.07,3.708-0.482,3.75c-0.41,0.046-0.861-1.568-1.006-3.596C401.682,302.354,401.896,300.675,402.307,300.632
				L402.307,300.632z"/>
			<g clip-path="url(#SVGID_4_)">
				<path fill="#010101" d="M402.818,308.024c-0.504,0-0.906-1.875-1.035-3.636c-0.127-1.83,0.031-3.748,0.52-3.799l0,0
					c0.523,0,0.928,1.873,1.053,3.637c0.129,1.826-0.029,3.744-0.518,3.795L402.818,308.024L402.818,308.024z M402.324,300.675
					c-0.35,0.034-0.609,1.534-0.455,3.708c0.15,2.125,0.613,3.557,0.949,3.557v0.043l0.01-0.046c0.34-0.034,0.598-1.534,0.443-3.704
					C403.119,302.104,402.658,300.675,402.324,300.675L402.324,300.675z"/>
			</g>
			<path clip-path="url(#SVGID_4_)" fill="#2E6D42" d="M403.039,300.624c0.436-0.045,0.906,1.562,1.051,3.591
				c0.145,2.031-0.088,3.713-0.521,3.756c-0.436,0.049-0.904-1.561-1.053-3.592C402.371,302.352,402.605,300.669,403.039,300.624
				L403.039,300.624z"/>
			<g clip-path="url(#SVGID_4_)">
				<path fill="#010101" d="M403.547,308.016c-0.525,0-0.945-1.872-1.07-3.633c-0.133-1.824,0.043-3.748,0.561-3.802l0,0
					c0.551,0,0.969,1.872,1.094,3.634c0.133,1.824-0.043,3.744-0.561,3.799L403.547,308.016L403.547,308.016z M403.059,300.666
					c-0.375,0.037-0.656,1.537-0.5,3.711c0.154,2.125,0.637,3.554,0.988,3.554v0.043l0.016-0.046
					c0.359-0.033,0.641-1.534,0.484-3.707C403.895,302.092,403.414,300.666,403.059,300.666L403.059,300.666z"/>
			</g>
			<path clip-path="url(#SVGID_4_)" fill="#2E6D42" d="M402.672,300.433c0.348-0.037,0.756,1.752,0.912,3.995
				c0.156,2.244,0,4.092-0.346,4.128c-0.348,0.037-0.756-1.753-0.912-3.994C402.172,302.316,402.326,300.47,402.672,300.433
				L402.672,300.433z"/>
			<g clip-path="url(#SVGID_4_)">
				<path fill="#010101" d="M403.23,308.599c-0.434,0-0.809-2.077-0.943-4.034c-0.141-1.989-0.053-4.125,0.383-4.171l0,0
					c0.443,0,0.82,2.077,0.957,4.031c0.139,1.989,0.051,4.126-0.383,4.174H403.23L403.23,308.599z M402.684,300.476
					c-0.283,0.029-0.48,1.714-0.314,4.083c0.164,2.366,0.576,3.957,0.861,3.957v0.04l0.004-0.04
					c0.279-0.031,0.473-1.716,0.309-4.085C403.381,302.064,402.965,300.476,402.684,300.476L402.684,300.476z"/>
			</g>
			<path clip-path="url(#SVGID_4_)" fill="#914C21" d="M397.172,306.212c0.637-0.025,0.361-0.366,0.684-0.548
				c0.32-0.182,0.779-0.061,0.917,0.167c0.138,0.225,0.026,0.449,0.204,0.452c0.178,0.002,4.994-0.199,5.167-0.012
				c0.174,0.193,0.201,0.565,0.023,0.713c-0.18,0.145-6.27,0.213-6.48,0.061C397.478,306.894,397.171,306.252,397.172,306.212
				L397.172,306.212z"/>
			<g clip-path="url(#SVGID_4_)">
				<path fill="#010101" d="M399.987,307.176c-1.001,0-2.217-0.018-2.323-0.098c-0.212-0.153-0.535-0.798-0.534-0.866
					c0.402-0.057,0.442-0.167,0.494-0.304c0.033-0.097,0.072-0.202,0.211-0.281c0.312-0.174,0.826-0.065,0.975,0.182
					c0.065,0.105,0.078,0.21,0.089,0.293c0.015,0.113,0.022,0.136,0.08,0.139h0.001c0.045,0,0.215-0.006,0.469-0.014
					c0.768-0.025,2.298-0.077,3.404-0.077c1.238,0,1.295,0.065,1.324,0.097c0.107,0.116,0.168,0.301,0.152,0.475
					c-0.008,0.127-0.057,0.232-0.133,0.298C404.047,307.135,401.244,307.176,399.987,307.176L399.987,307.176z M398.21,305.618
					c-0.123,0-0.239,0.028-0.335,0.083c-0.111,0.062-0.142,0.145-0.174,0.232c-0.054,0.15-0.111,0.304-0.528,0.32
					c0.053,0.012,0.349,0.62,0.54,0.756c0.061,0.037,0.693,0.08,2.273,0.08c2.013,0,4.033-0.065,4.158-0.139
					c0.057-0.049,0.094-0.135,0.102-0.236c0.012-0.153-0.043-0.312-0.133-0.415c-0.023-0.017-0.199-0.065-1.262-0.065
					c-1.105,0-2.634,0.051-3.4,0.077c-0.257,0.009-0.428,0.015-0.47,0.015c-0.141-0.006-0.154-0.108-0.167-0.214
					c-0.01-0.079-0.021-0.171-0.078-0.261C398.655,305.715,398.438,305.618,398.21,305.618L398.21,305.618z"/>
			</g>
			<path clip-path="url(#SVGID_4_)" fill="#F4D130" d="M400.576,306.684c-0.011,0.48,0.7,0.344,0.711,0.747
				c-0.023,0.423-1.196,0.026-1.207-0.756c0.049-0.778,1.197-1.161,1.21-0.719C401.301,306.328,400.586,306.201,400.576,306.684
				L400.576,306.684z"/>
			<g clip-path="url(#SVGID_4_)">
				<path fill="#010101" d="M401.047,307.646c-0.349,0-1-0.369-1.008-0.969c0.052-0.838,1.282-1.176,1.293-0.722
					c0.006,0.202-0.17,0.276-0.341,0.347c-0.191,0.08-0.368,0.153-0.374,0.381c-0.005,0.225,0.167,0.299,0.349,0.375
					c0.175,0.074,0.357,0.153,0.363,0.369C401.32,307.564,401.215,307.646,401.047,307.646L401.047,307.646z M401.047,305.812
					c-0.306,0-0.891,0.329-0.925,0.869c0.009,0.537,0.613,0.881,0.925,0.881c0.088,0,0.191-0.025,0.197-0.134
					c-0.004-0.162-0.148-0.221-0.31-0.293c-0.192-0.082-0.406-0.173-0.401-0.454c0.006-0.281,0.239-0.378,0.425-0.458
					c0.183-0.073,0.294-0.127,0.292-0.264C401.244,305.837,401.135,305.812,401.047,305.812L401.047,305.812z"/>
			</g>
			<path clip-path="url(#SVGID_4_)" fill="#F4D130" d="M400.995,306.687c-0.01,0.483,0.701,0.347,0.712,0.747
				c-0.023,0.426-1.195,0.025-1.208-0.753c0.051-0.778,1.197-1.162,1.21-0.719C401.721,306.334,401.008,306.206,400.995,306.687
				L400.995,306.687z"/>
			<g clip-path="url(#SVGID_4_)">
				<path fill="#010101" d="M401.469,307.649c-0.35,0-1.001-0.366-1.009-0.966c0.051-0.838,1.279-1.176,1.292-0.722
					c0.006,0.202-0.17,0.275-0.344,0.347c-0.188,0.08-0.367,0.153-0.371,0.381c-0.006,0.225,0.166,0.298,0.348,0.375
					c0.178,0.074,0.355,0.153,0.361,0.369C401.74,307.57,401.637,307.649,401.469,307.649L401.469,307.649z M401.469,305.816
					c-0.307,0-0.893,0.33-0.927,0.87c0.008,0.534,0.615,0.881,0.927,0.881c0.084,0,0.189-0.026,0.195-0.137
					c-0.006-0.159-0.148-0.219-0.312-0.29c-0.189-0.082-0.406-0.173-0.398-0.454c0.006-0.281,0.228-0.372,0.423-0.454
					c0.186-0.077,0.295-0.131,0.293-0.271C401.664,305.843,401.557,305.816,401.469,305.816L401.469,305.816z"/>
			</g>
			<path clip-path="url(#SVGID_4_)" fill="#F4D130" d="M401.445,306.672c-0.012,0.48,0.701,0.344,0.711,0.744
				c-0.023,0.43-1.193,0.029-1.205-0.75c0.048-0.781,1.195-1.164,1.21-0.719C402.172,306.314,401.457,306.189,401.445,306.672
				L401.445,306.672z"/>
			<g clip-path="url(#SVGID_4_)">
				<path fill="#010101" d="M401.92,307.633c-0.352,0-1.003-0.367-1.011-0.967c0.055-0.835,1.281-1.176,1.294-0.721
					c0.006,0.204-0.172,0.275-0.344,0.346c-0.189,0.077-0.365,0.154-0.371,0.381c-0.006,0.225,0.164,0.299,0.35,0.375
					c0.174,0.074,0.355,0.15,0.361,0.369C402.193,307.556,402.088,307.633,401.92,307.633L401.92,307.633z M401.918,305.8
					c-0.309,0-0.891,0.329-0.923,0.866c0.005,0.537,0.611,0.885,0.925,0.885c0.086,0,0.188-0.023,0.193-0.135
					c-0.004-0.162-0.145-0.221-0.311-0.292c-0.189-0.079-0.406-0.173-0.4-0.454c0.01-0.281,0.23-0.375,0.426-0.455
					c0.184-0.076,0.297-0.128,0.291-0.268C402.115,305.826,402.008,305.8,401.918,305.8L401.918,305.8z"/>
			</g>
			<path clip-path="url(#SVGID_4_)" fill="#F4D130" d="M401.865,306.678c-0.01,0.48,0.699,0.344,0.711,0.748
				c-0.023,0.423-1.193,0.025-1.205-0.756c0.049-0.776,1.197-1.162,1.211-0.719C402.594,306.32,401.877,306.195,401.865,306.678
				L401.865,306.678z"/>
			<g clip-path="url(#SVGID_4_)">
				<path fill="#010101" d="M402.34,307.639c-0.352,0-1.002-0.367-1.012-0.967c0.053-0.838,1.279-1.179,1.297-0.721
					c0.006,0.201-0.174,0.275-0.344,0.346c-0.188,0.08-0.367,0.154-0.373,0.381c-0.006,0.225,0.166,0.299,0.348,0.375
					c0.176,0.074,0.357,0.15,0.363,0.369C402.609,307.559,402.508,307.639,402.34,307.639L402.34,307.639z M402.338,305.806
					c-0.307,0-0.893,0.329-0.924,0.866c0.006,0.54,0.611,0.884,0.926,0.884c0.086,0,0.188-0.025,0.193-0.134
					c-0.002-0.162-0.145-0.221-0.309-0.293c-0.191-0.078-0.406-0.173-0.4-0.454c0.008-0.281,0.238-0.378,0.426-0.457
					c0.182-0.074,0.295-0.128,0.289-0.265C402.537,305.831,402.428,305.806,402.338,305.806L402.338,305.806z"/>
			</g>
			<path clip-path="url(#SVGID_4_)" fill="#914C21" d="M403.877,306.203c0.225,0.003,0.404,0.19,0.398,0.418
				c-0.004,0.227-0.191,0.409-0.416,0.406c-0.223-0.003-0.4-0.19-0.396-0.418C403.469,306.383,403.652,306.201,403.877,306.203
				L403.877,306.203z"/>
			<g clip-path="url(#SVGID_4_)">
				<path fill="#010101" d="M403.865,307.07h-0.006c-0.119-0.004-0.229-0.052-0.312-0.137c-0.084-0.088-0.127-0.201-0.125-0.324
					c0.004-0.247,0.209-0.449,0.449-0.449c0.125,0,0.236,0.049,0.318,0.135c0.086,0.088,0.131,0.204,0.129,0.329
					C404.312,306.868,404.109,307.07,403.865,307.07L403.865,307.07z M403.877,306.246c-0.205,0-0.365,0.164-0.371,0.363
					c-0.004,0.1,0.033,0.193,0.102,0.268c0.068,0.068,0.158,0.107,0.252,0.107l0.006,0.043v-0.043c0.199,0,0.365-0.162,0.369-0.363
					c0-0.1-0.035-0.196-0.104-0.268C404.062,306.285,403.975,306.246,403.877,306.246L403.877,306.246L403.877,306.246z"/>
			</g>
			<path clip-path="url(#SVGID_4_)" fill="#2E6D42" d="M401.344,304.439c0.199-0.031,0.396,0.301,0.445,0.741
				c0.045,0.438-0.076,0.818-0.275,0.85c-0.199,0.028-0.398-0.304-0.445-0.741S401.145,304.471,401.344,304.439L401.344,304.439z"/>
			<g clip-path="url(#SVGID_4_)">
				<path fill="#010101" d="M401.488,306.072c-0.217,0-0.416-0.335-0.461-0.781c-0.05-0.465,0.086-0.86,0.311-0.895l0,0
					c0.246,0,0.443,0.338,0.49,0.778c0.053,0.469-0.084,0.864-0.309,0.897H401.488L401.488,306.072z M401.369,304.479
					c-0.174,0.025-0.307,0.353-0.26,0.807c0.047,0.436,0.234,0.705,0.379,0.705v0.04l0.02-0.04c0.154-0.025,0.287-0.352,0.238-0.807
					C401.699,304.749,401.514,304.479,401.369,304.479L401.369,304.479z"/>
			</g>
			<path clip-path="url(#SVGID_4_)" fill="#2E6D42" d="M400.731,304.391c0.197-0.031,0.396,0.301,0.445,0.742
				c0.045,0.438-0.076,0.818-0.277,0.85c-0.198,0.027-0.397-0.305-0.443-0.742C400.408,304.803,400.53,304.422,400.731,304.391
				L400.731,304.391z"/>
			<g clip-path="url(#SVGID_4_)">
				<path fill="#010101" d="M400.875,306.024c-0.217,0-0.415-0.335-0.462-0.781c-0.052-0.469,0.085-0.86,0.31-0.896h0.003
					c0.245,0,0.444,0.339,0.493,0.779c0.047,0.469-0.088,0.863-0.312,0.897H400.875L400.875,306.024z M400.754,304.431
					c-0.174,0.025-0.307,0.353-0.257,0.807c0.046,0.435,0.231,0.704,0.378,0.704v0.041l0.018-0.041
					c0.154-0.025,0.289-0.352,0.24-0.807C401.088,304.701,400.899,304.431,400.754,304.431L400.754,304.431z"/>
			</g>
			<path clip-path="url(#SVGID_4_)" fill="#2E6D42" d="M400.291,303.606c0.2-0.031,0.399,0.302,0.444,0.741
				c0.049,0.438-0.074,0.818-0.274,0.848c-0.198,0.031-0.397-0.302-0.444-0.739C399.969,304.016,400.092,303.635,400.291,303.606
				L400.291,303.606z"/>
			<g clip-path="url(#SVGID_4_)">
				<path fill="#010101" d="M400.436,305.24c-0.216,0-0.414-0.335-0.462-0.781c-0.05-0.469,0.087-0.861,0.31-0.893
					c0.002,0,0.002,0,0.004,0c0.245,0,0.443,0.333,0.49,0.776c0.049,0.469-0.088,0.86-0.311,0.895L400.436,305.24L400.436,305.24z
					 M400.315,303.646c-0.173,0.025-0.306,0.352-0.258,0.805c0.047,0.434,0.232,0.704,0.379,0.704v0.042l0.018-0.042
					c0.156-0.022,0.289-0.353,0.24-0.804C400.648,303.916,400.461,303.646,400.315,303.646L400.315,303.646z"/>
			</g>
			<path clip-path="url(#SVGID_4_)" fill="#2E6D42" d="M400.905,303.49c0.191-0.031,0.386,0.338,0.439,0.821
				c0.051,0.485-0.062,0.903-0.254,0.932c-0.191,0.031-0.386-0.338-0.437-0.821C400.601,303.939,400.713,303.519,400.905,303.49
				L400.905,303.49z"/>
			<g clip-path="url(#SVGID_4_)">
				<path fill="#010101" d="M401.068,305.285c-0.208,0-0.408-0.369-0.458-0.86c-0.055-0.511,0.072-0.94,0.288-0.975h0.001
					c0.236,0,0.433,0.366,0.486,0.858c0.055,0.514-0.072,0.943-0.289,0.977H401.068L401.068,305.285z M400.926,303.529
					c-0.16,0.023-0.285,0.396-0.232,0.887c0.049,0.473,0.234,0.787,0.375,0.787v0.043l0.016-0.043
					c0.148-0.022,0.27-0.387,0.217-0.887C401.252,303.846,401.068,303.529,400.926,303.529L400.926,303.529z"/>
			</g>
			<path clip-path="url(#SVGID_4_)" fill="#3D9546" d="M401.766,303.553c0.191-0.028,0.387,0.315,0.436,0.768
				c0.049,0.454-0.068,0.85-0.258,0.877c-0.191,0.029-0.387-0.314-0.436-0.767C401.459,303.973,401.576,303.581,401.766,303.553
				L401.766,303.553z"/>
			<g clip-path="url(#SVGID_4_)">
				<path fill="#010101" d="M401.92,305.24c-0.211,0-0.404-0.347-0.451-0.807c-0.051-0.486,0.076-0.89,0.293-0.921h0.002
					c0.236,0,0.43,0.344,0.477,0.804c0.055,0.483-0.076,0.887-0.291,0.921L401.92,305.24L401.92,305.24z M401.789,303.592
					c-0.164,0.023-0.287,0.364-0.238,0.833c0.049,0.452,0.23,0.733,0.369,0.733v0.043l0.018-0.046
					c0.146-0.022,0.271-0.36,0.221-0.829C402.109,303.873,401.932,303.592,401.789,303.592L401.789,303.592z"/>
			</g>
			<path clip-path="url(#SVGID_4_)" fill="#3D9546" d="M401.295,303.269c0.193-0.028,0.387,0.315,0.436,0.767
				c0.047,0.458-0.068,0.85-0.26,0.879c-0.189,0.027-0.383-0.316-0.434-0.768C400.991,303.691,401.104,303.297,401.295,303.269
				L401.295,303.269z"/>
			<g clip-path="url(#SVGID_4_)">
				<path fill="#010101" d="M401.449,304.956c-0.209,0-0.404-0.347-0.453-0.807c-0.051-0.483,0.076-0.887,0.292-0.921h0.002
					c0.236,0,0.434,0.347,0.48,0.805c0.053,0.482-0.078,0.887-0.291,0.92L401.449,304.956L401.449,304.956z M401.318,303.309
					c-0.162,0.025-0.287,0.363-0.24,0.832c0.049,0.452,0.23,0.733,0.371,0.733v0.042l0.016-0.045c0.148-0.02,0.273-0.361,0.223-0.83
					C401.639,303.59,401.459,303.309,401.318,303.309L401.318,303.309z"/>
			</g>
			<path clip-path="url(#SVGID_4_)" fill="#3D9546" d="M400.702,302.859c0.191-0.031,0.386,0.315,0.433,0.77
				c0.049,0.455-0.066,0.844-0.257,0.875c-0.191,0.029-0.386-0.314-0.434-0.77C400.393,303.279,400.51,302.888,400.702,302.859
				L400.702,302.859z"/>
			<g clip-path="url(#SVGID_4_)">
				<path fill="#010101" d="M400.854,304.547c-0.209,0-0.403-0.346-0.451-0.807c-0.055-0.482,0.076-0.889,0.292-0.924h0.003
					c0.236,0,0.429,0.348,0.478,0.807c0.051,0.484-0.076,0.891-0.292,0.924H400.854L400.854,304.547z M400.725,302.899
					c-0.162,0.022-0.29,0.369-0.24,0.829c0.048,0.455,0.23,0.736,0.369,0.736v0.039l0.018-0.039
					c0.148-0.025,0.273-0.367,0.222-0.832C401.045,303.181,400.864,302.899,400.725,302.899L400.725,302.899z"/>
			</g>
			<path clip-path="url(#SVGID_4_)" fill="#2E6D42" d="M400.151,302.612c0.191-0.031,0.387,0.312,0.434,0.771
				c0.049,0.451-0.066,0.844-0.258,0.875c-0.191,0.027-0.385-0.318-0.434-0.771C399.844,303.033,399.959,302.641,400.151,302.612
				L400.151,302.612z"/>
			<g clip-path="url(#SVGID_4_)">
				<path fill="#010101" d="M400.304,304.3c-0.21,0-0.404-0.347-0.453-0.81c-0.052-0.482,0.077-0.889,0.294-0.92h0.001
					c0.239,0,0.433,0.346,0.481,0.807c0.051,0.482-0.078,0.887-0.294,0.92L400.304,304.3L400.304,304.3z M400.174,302.652
					c-0.165,0.025-0.289,0.363-0.239,0.832c0.048,0.449,0.229,0.73,0.369,0.73v0.043l0.016-0.043
					c0.146-0.023,0.272-0.369,0.222-0.83C400.497,302.934,400.315,302.652,400.174,302.652L400.174,302.652z"/>
			</g>
			<path clip-path="url(#SVGID_4_)" fill="#835FA8" d="M399.627,296.609c0,0-1.22,1.06-1.082,3.929
				c0.152,2.884,2.699,4.242,2.699,4.242s0.646-0.818,0.574-3.14c-0.182-3.387-1.384-4.884-1.384-4.884L399.627,296.609z"/>
			<g clip-path="url(#SVGID_4_)">
				<path fill="#010101" d="M401.256,304.831l-0.031-0.015c-0.027-0.014-2.568-1.4-2.722-4.278c-0.136-2.855,1.086-3.949,1.098-3.96
					l0.84,0.136c0.039,0.031,1.238,1.562,1.419,4.926c0.074,2.307-0.557,3.131-0.584,3.165L401.256,304.831L401.256,304.831z
					 M399.622,296.652c0.018,0.005-1.169,1.077-1.035,3.884c0.142,2.65,2.351,4.017,2.646,4.187
					c0.107-0.164,0.607-1.042,0.543-3.079c-0.18-3.333-1.362-4.847-1.375-4.861L399.622,296.652L399.622,296.652z"/>
			</g>
			<path clip-path="url(#SVGID_4_)" fill="#2E6D42" d="M402.438,304.53c0.201,0.005,0.338,0.366,0.307,0.807
				c-0.035,0.44-0.223,0.792-0.424,0.787c-0.201-0.006-0.338-0.37-0.305-0.808C402.047,304.877,402.234,304.524,402.438,304.53
				L402.438,304.53z"/>
			<g clip-path="url(#SVGID_4_)">
				<path fill="#010101" d="M402.326,306.166h-0.006c-0.064-0.002-0.125-0.031-0.176-0.09c-0.131-0.143-0.195-0.436-0.17-0.762
					c0.033-0.463,0.234-0.827,0.457-0.827c0.07,0.003,0.131,0.031,0.182,0.091c0.131,0.143,0.195,0.436,0.17,0.762
					C402.752,305.803,402.551,306.166,402.326,306.166L402.326,306.166z M402.434,304.572c-0.156,0-0.344,0.299-0.377,0.748
					c-0.02,0.301,0.037,0.573,0.15,0.701c0.037,0.037,0.074,0.06,0.117,0.06l0.002,0.043v-0.043c0.154,0,0.342-0.298,0.375-0.747
					c0.023-0.301-0.037-0.574-0.15-0.701C402.516,304.596,402.477,304.572,402.434,304.572L402.434,304.572L402.434,304.572z"/>
			</g>
			<path clip-path="url(#SVGID_4_)" fill="#2E6D42" d="M401.844,304.374c0.201,0.005,0.338,0.366,0.303,0.807
				c-0.031,0.44-0.219,0.792-0.42,0.787c-0.201-0.006-0.338-0.366-0.307-0.808C401.453,304.721,401.641,304.368,401.844,304.374
				L401.844,304.374z"/>
			<g clip-path="url(#SVGID_4_)">
				<path fill="#010101" d="M401.732,306.01h-0.006c-0.064-0.002-0.125-0.033-0.176-0.09c-0.131-0.146-0.197-0.436-0.17-0.765
					c0.031-0.464,0.232-0.824,0.457-0.824c0.07,0.003,0.131,0.031,0.182,0.091c0.131,0.143,0.195,0.436,0.17,0.762
					C402.156,305.646,401.953,306.01,401.732,306.01L401.732,306.01z M401.84,304.416c-0.156,0-0.346,0.299-0.377,0.744
					c-0.023,0.305,0.037,0.577,0.15,0.705c0.033,0.037,0.074,0.06,0.113,0.06l0.006,0.043v-0.043c0.154,0,0.342-0.301,0.375-0.747
					c0.02-0.301-0.037-0.576-0.15-0.701C401.92,304.437,401.883,304.416,401.84,304.416L401.84,304.416L401.84,304.416z"/>
			</g>
			<path clip-path="url(#SVGID_4_)" fill="#2E6D42" d="M401.551,303.521c0.199,0.006,0.338,0.369,0.307,0.81
				c-0.033,0.44-0.221,0.793-0.424,0.787c-0.201-0.006-0.338-0.369-0.303-0.81C401.162,303.868,401.35,303.516,401.551,303.521
				L401.551,303.521z"/>
			<g clip-path="url(#SVGID_4_)">
				<path fill="#010101" d="M401.439,305.16h-0.006c-0.064-0.002-0.125-0.033-0.176-0.09c-0.131-0.143-0.195-0.438-0.17-0.765
					c0.033-0.464,0.234-0.827,0.457-0.827c0.07,0.003,0.131,0.034,0.182,0.092c0.131,0.142,0.195,0.438,0.17,0.764
					C401.863,304.795,401.664,305.16,401.439,305.16L401.439,305.16z M401.547,303.564c-0.156,0-0.344,0.301-0.377,0.747
					c-0.023,0.301,0.037,0.577,0.15,0.702c0.037,0.039,0.074,0.059,0.117,0.062l0.002,0.042v-0.042c0.154,0,0.342-0.302,0.375-0.75
					c0.023-0.299-0.037-0.574-0.15-0.699C401.627,303.587,401.59,303.566,401.547,303.564L401.547,303.564L401.547,303.564z"/>
			</g>
			<path clip-path="url(#SVGID_4_)" fill="#2E6D42" d="M402.176,303.519c0.193,0.003,0.32,0.401,0.283,0.887
				c-0.033,0.485-0.221,0.875-0.414,0.872c-0.193-0.006-0.32-0.403-0.283-0.889C401.795,303.904,401.982,303.513,402.176,303.519
				L402.176,303.519z"/>
			<g clip-path="url(#SVGID_4_)">
				<path fill="#010101" d="M402.047,305.32h-0.002c-0.057-0.004-0.107-0.029-0.154-0.08c-0.133-0.145-0.201-0.48-0.172-0.855
					c0.045-0.653,0.396-1.062,0.609-0.832c0.135,0.145,0.199,0.48,0.174,0.855C402.465,304.92,402.266,305.32,402.047,305.32
					L402.047,305.32z M402.172,303.561c-0.146,0-0.334,0.339-0.371,0.83c-0.025,0.35,0.037,0.668,0.15,0.793
					c0.031,0.034,0.062,0.051,0.096,0.051v0.043v-0.043c0.152,0,0.336-0.335,0.371-0.832c0.025-0.347-0.035-0.665-0.148-0.793
					C402.238,303.575,402.207,303.561,402.172,303.561L402.172,303.561z"/>
			</g>
			<path clip-path="url(#SVGID_4_)" fill="#2E6D42" d="M403.014,303.731c0.193,0.006,0.32,0.381,0.289,0.835
				c-0.033,0.455-0.219,0.822-0.412,0.816c-0.191-0.006-0.322-0.381-0.289-0.836C402.637,304.092,402.82,303.727,403.014,303.731
				L403.014,303.731z"/>
			<g clip-path="url(#SVGID_4_)">
				<path fill="#010101" d="M402.896,305.425h-0.006c-0.059-0.003-0.113-0.031-0.16-0.085c-0.129-0.139-0.193-0.451-0.172-0.793
					c0.037-0.482,0.234-0.855,0.449-0.855c0.066,0,0.119,0.029,0.168,0.083c0.127,0.14,0.193,0.452,0.168,0.792
					C403.309,305.05,403.113,305.425,402.896,305.425L402.896,305.425z M403.012,303.774c-0.152,0-0.334,0.312-0.367,0.778
					c-0.023,0.315,0.037,0.607,0.148,0.732c0.031,0.035,0.064,0.055,0.098,0.055l0.006,0.043v-0.043c0.148,0,0.33-0.312,0.365-0.778
					c0.021-0.315-0.037-0.608-0.148-0.733C403.082,303.794,403.047,303.774,403.012,303.774L403.012,303.774z"/>
			</g>
			<path clip-path="url(#SVGID_4_)" fill="#2E6D42" d="M402.6,303.368c0.193,0.005,0.322,0.378,0.289,0.835
				c-0.033,0.455-0.217,0.821-0.408,0.815c-0.193-0.005-0.324-0.378-0.291-0.832C402.225,303.729,402.406,303.365,402.6,303.368
				L402.6,303.368z"/>
			<g clip-path="url(#SVGID_4_)">
				<path fill="#010101" d="M402.482,305.062h-0.002c-0.061-0.003-0.117-0.031-0.162-0.083c-0.129-0.142-0.197-0.454-0.172-0.798
					c0.037-0.485,0.23-0.855,0.449-0.855c0.062,0.003,0.119,0.031,0.168,0.083c0.127,0.145,0.193,0.457,0.168,0.798
					C402.896,304.687,402.699,305.062,402.482,305.062L402.482,305.062z M402.6,303.41c-0.15,0-0.334,0.312-0.367,0.779
					c-0.025,0.314,0.033,0.61,0.145,0.732c0.035,0.034,0.068,0.055,0.104,0.055l0.002,0.042v-0.042c0.15,0,0.33-0.312,0.363-0.775
					c0.025-0.316-0.033-0.611-0.145-0.736C402.668,303.431,402.633,303.414,402.6,303.41L402.6,303.41z"/>
			</g>
			<path clip-path="url(#SVGID_4_)" fill="#2E6D42" d="M402.088,302.859c0.193,0.006,0.324,0.378,0.289,0.836
				c-0.033,0.454-0.215,0.818-0.408,0.814c-0.193-0.006-0.324-0.377-0.291-0.832C401.709,303.221,401.895,302.856,402.088,302.859
				L402.088,302.859z"/>
			<g clip-path="url(#SVGID_4_)">
				<path fill="#010101" d="M401.971,304.553h-0.006c-0.057-0.003-0.113-0.031-0.158-0.082c-0.131-0.143-0.197-0.455-0.17-0.799
					c0.033-0.477,0.232-0.855,0.447-0.855c0.062,0.004,0.119,0.031,0.166,0.083c0.127,0.142,0.195,0.454,0.17,0.798
					C402.387,304.175,402.188,304.553,401.971,304.553L401.971,304.553z M402.088,302.902c-0.154,0-0.336,0.312-0.369,0.775
					c-0.023,0.318,0.037,0.613,0.146,0.736c0.035,0.037,0.068,0.054,0.104,0.054l0.002,0.042v-0.042c0.148,0,0.33-0.312,0.363-0.776
					c0.025-0.318-0.033-0.613-0.145-0.735C402.156,302.922,402.121,302.904,402.088,302.902L402.088,302.902z"/>
			</g>
			<path clip-path="url(#SVGID_4_)" fill="#2E6D42" d="M401.59,302.519c0.193,0.006,0.324,0.378,0.291,0.833
				c-0.035,0.457-0.217,0.82-0.41,0.814s-0.324-0.377-0.289-0.832C401.213,302.877,401.396,302.513,401.59,302.519L401.59,302.519z"
				/>
			<g clip-path="url(#SVGID_4_)">
				<path fill="#010101" d="M401.475,304.209h-0.006c-0.057,0-0.115-0.028-0.162-0.082c-0.129-0.14-0.193-0.455-0.168-0.796
					c0.033-0.489,0.227-0.854,0.449-0.854c0.062,0,0.119,0.027,0.168,0.082c0.125,0.142,0.193,0.454,0.164,0.795
					C401.887,303.834,401.689,304.209,401.475,304.209L401.475,304.209z M401.59,302.559c-0.152,0-0.334,0.312-0.369,0.778
					c-0.023,0.315,0.037,0.61,0.148,0.733c0.033,0.037,0.068,0.053,0.102,0.057l0.004,0.039v-0.039c0.146,0,0.328-0.312,0.363-0.779
					c0.021-0.314-0.035-0.607-0.145-0.732C401.658,302.581,401.625,302.561,401.59,302.559L401.59,302.559z"/>
			</g>
			<path clip-path="url(#SVGID_4_)" fill="#C21F3B" d="M400.971,298.632c0.531-0.205,1.519,0.929,2.207,2.534
				c0.691,1.608,0.818,3.074,0.287,3.279c-0.531,0.204-1.516-0.93-2.207-2.535C400.57,300.303,400.44,298.833,400.971,298.632
				L400.971,298.632z"/>
			<g clip-path="url(#SVGID_4_)">
				<path fill="#010101" d="M403.332,304.514c-0.58,0-1.469-1.089-2.113-2.589c-0.546-1.273-0.757-2.5-0.523-3.054
					c0.062-0.142,0.148-0.236,0.262-0.278c0.55-0.213,1.562,0.923,2.261,2.56c0.545,1.27,0.756,2.497,0.521,3.051
					c-0.059,0.145-0.146,0.238-0.26,0.281C403.434,304.502,403.387,304.514,403.332,304.514L403.332,304.514z M401.104,298.649
					c-0.041,0-0.082,0.006-0.115,0.02c-0.092,0.037-0.164,0.116-0.215,0.233c-0.225,0.534-0.017,1.736,0.523,2.992
					c0.668,1.557,1.652,2.708,2.154,2.515c0.092-0.037,0.162-0.117,0.213-0.236c0.225-0.534,0.014-1.736-0.523-2.988
					C402.521,299.737,401.646,298.649,401.104,298.649L401.104,298.649z"/>
			</g>
			<path clip-path="url(#SVGID_4_)" fill="#3D9546" d="M401.434,298.169c0.248,0.006,0.447,0.188,0.441,0.403
				c-0.004,0.219-0.207,0.395-0.455,0.392c-0.25-0.006-0.446-0.188-0.443-0.406C400.983,298.339,401.184,298.163,401.434,298.169
				L401.434,298.169z"/>
			<g clip-path="url(#SVGID_4_)">
				<path fill="#010101" d="M401.428,299.007h-0.01c-0.271-0.008-0.486-0.207-0.484-0.449c0.006-0.239,0.224-0.432,0.492-0.432
					c0.277,0.005,0.496,0.207,0.492,0.449C401.914,298.814,401.693,299.007,401.428,299.007L401.428,299.007z M401.432,298.211
					c-0.229,0-0.41,0.156-0.412,0.347c-0.004,0.196,0.176,0.358,0.4,0.364l0.008,0.042v-0.042c0.219,0,0.4-0.156,0.406-0.35
					C401.838,298.379,401.658,298.214,401.432,298.211L401.432,298.211L401.432,298.211z"/>
			</g>
			<path clip-path="url(#SVGID_4_)" fill="#3D9546" d="M401.771,297.609c0.223,0.002,0.398,0.182,0.396,0.403
				c-0.004,0.219-0.188,0.392-0.41,0.389c-0.225-0.003-0.4-0.185-0.398-0.403C401.365,297.777,401.547,297.604,401.771,297.609
				L401.771,297.609z"/>
			<g clip-path="url(#SVGID_4_)">
				<path fill="#010101" d="M401.764,298.444h-0.008c-0.117-0.003-0.23-0.051-0.311-0.136c-0.086-0.083-0.127-0.193-0.125-0.31
					c0.002-0.239,0.201-0.432,0.443-0.432c0.127,0.003,0.238,0.051,0.32,0.134c0.084,0.085,0.125,0.193,0.123,0.312
					C402.203,298.251,402.006,298.444,401.764,298.444L401.764,298.444z M401.77,297.652c-0.201,0-0.363,0.153-0.367,0.347
					c0,0.097,0.035,0.185,0.104,0.253c0.064,0.068,0.156,0.105,0.252,0.108l0.006,0.042v-0.042c0.195,0,0.357-0.156,0.361-0.347
					c0.002-0.097-0.035-0.188-0.104-0.256C401.957,297.691,401.865,297.652,401.77,297.652L401.77,297.652L401.77,297.652z"/>
			</g>
			<path clip-path="url(#SVGID_4_)" fill="#3D9546" d="M401.227,297.598c0.225,0.006,0.4,0.188,0.398,0.406
				c-0.006,0.216-0.188,0.392-0.412,0.387c-0.222-0.003-0.398-0.185-0.396-0.403C400.823,297.771,401.006,297.595,401.227,297.598
				L401.227,297.598z"/>
			<g clip-path="url(#SVGID_4_)">
				<path fill="#010101" d="M401.221,298.433h-0.008c-0.245-0.003-0.441-0.205-0.437-0.446c0.004-0.239,0.203-0.432,0.445-0.432
					c0.125,0.003,0.238,0.051,0.322,0.136c0.082,0.083,0.125,0.196,0.125,0.312C401.662,298.24,401.463,298.433,401.221,298.433
					L401.221,298.433z M401.227,297.641c-0.201,0-0.365,0.156-0.367,0.349c-0.003,0.193,0.156,0.358,0.355,0.361l0.006,0.04v-0.04
					c0.197,0,0.357-0.156,0.361-0.349c0.002-0.094-0.035-0.182-0.1-0.253C401.414,297.68,401.322,297.641,401.227,297.641
					L401.227,297.641L401.227,297.641z"/>
			</g>
			<path clip-path="url(#SVGID_4_)" fill="#2E6D42" d="M401.346,297.211c0.232,0.006,0.42,0.173,0.416,0.381
				c-0.004,0.205-0.193,0.369-0.428,0.364c-0.232-0.003-0.419-0.173-0.414-0.378C400.922,297.371,401.115,297.208,401.346,297.211
				L401.346,297.211z"/>
			<g clip-path="url(#SVGID_4_)">
				<path fill="#010101" d="M401.344,297.999h-0.01c-0.133-0.003-0.258-0.057-0.343-0.145c-0.076-0.077-0.115-0.176-0.113-0.278
					c0.004-0.225,0.21-0.406,0.46-0.406c0.143,0.003,0.268,0.057,0.355,0.145c0.072,0.077,0.113,0.176,0.109,0.279
					C401.801,297.816,401.594,297.999,401.344,297.999L401.344,297.999z M401.346,297.254c-0.213,0-0.38,0.145-0.382,0.324
					c-0.004,0.079,0.027,0.156,0.087,0.219c0.07,0.071,0.174,0.116,0.283,0.119l0.01,0.04v-0.04c0.203,0,0.375-0.145,0.377-0.324
					c0-0.083-0.031-0.159-0.09-0.219C401.559,297.299,401.457,297.257,401.346,297.254L401.346,297.254L401.346,297.254z"/>
			</g>
			<path clip-path="url(#SVGID_4_)" fill="#2E6D42" d="M401.301,296.743c0.232,0.003,0.418,0.173,0.414,0.378
				c-0.006,0.208-0.195,0.369-0.428,0.366c-0.234-0.005-0.419-0.176-0.416-0.38S401.068,296.737,401.301,296.743L401.301,296.743z"
				/>
			<g clip-path="url(#SVGID_4_)">
				<path fill="#010101" d="M401.295,297.53h-0.008c-0.256-0.009-0.461-0.196-0.458-0.423c0.006-0.228,0.208-0.406,0.462-0.406
					c0.266,0.003,0.471,0.193,0.465,0.42C401.752,297.351,401.547,297.53,401.295,297.53L401.295,297.53z M401.297,296.782
					c-0.215,0-0.38,0.142-0.382,0.327c-0.004,0.179,0.164,0.329,0.373,0.335l0.008,0.042v-0.042c0.205,0,0.375-0.145,0.377-0.324
					c0.004-0.182-0.164-0.335-0.371-0.338H401.297L401.297,296.782z"/>
			</g>
			<path clip-path="url(#SVGID_4_)" fill="#2E6D42" d="M400.709,297.28c0.223,0.005,0.398,0.188,0.394,0.406
				c-0.002,0.219-0.187,0.395-0.409,0.389c-0.222-0.003-0.399-0.185-0.396-0.403S400.487,297.277,400.709,297.28L400.709,297.28z"/>
			<g clip-path="url(#SVGID_4_)">
				<path fill="#010101" d="M400.704,298.118h-0.009c-0.119-0.003-0.229-0.051-0.312-0.133c-0.083-0.085-0.127-0.196-0.124-0.315
					c0.004-0.236,0.203-0.429,0.442-0.429c0.128,0,0.239,0.048,0.321,0.134c0.082,0.085,0.129,0.196,0.125,0.312
					C401.141,297.922,400.943,298.118,400.704,298.118L400.704,298.118z M400.709,297.322c-0.202,0-0.364,0.159-0.368,0.35
					c-0.001,0.094,0.034,0.185,0.101,0.253c0.068,0.068,0.158,0.108,0.254,0.108l0.008,0.042v-0.042c0.193,0,0.355-0.156,0.359-0.35
					c0.002-0.091-0.035-0.182-0.099-0.25C400.893,297.362,400.805,297.325,400.709,297.322L400.709,297.322L400.709,297.322z"/>
			</g>
			<path clip-path="url(#SVGID_4_)" fill="#2E6D42" d="M400.831,296.782c0.222,0.003,0.398,0.182,0.396,0.395
				c-0.002,0.213-0.188,0.386-0.41,0.381c-0.223-0.003-0.4-0.182-0.397-0.395C400.424,296.95,400.607,296.777,400.831,296.782
				L400.831,296.782z"/>
			<g clip-path="url(#SVGID_4_)">
				<path fill="#010101" d="M400.823,297.601h-0.006c-0.246-0.003-0.441-0.202-0.438-0.438c0.003-0.236,0.201-0.423,0.443-0.423
					c0.253,0.003,0.449,0.202,0.447,0.438C401.264,297.41,401.064,297.601,400.823,297.601L400.823,297.601z M400.831,296.825
					c-0.203,0-0.365,0.15-0.369,0.338c-0.002,0.193,0.156,0.353,0.355,0.353l0.006,0.042v-0.042c0.197,0,0.359-0.151,0.361-0.338
					C401.188,296.984,401.027,296.825,400.831,296.825L400.831,296.825L400.831,296.825z"/>
			</g>
			<path clip-path="url(#SVGID_4_)" fill="#2E6D42" d="M400.166,296.785c0.248,0.006,0.446,0.185,0.441,0.406
				c-0.003,0.219-0.208,0.392-0.456,0.387c-0.248-0.003-0.446-0.185-0.441-0.404C399.712,296.956,399.917,296.782,400.166,296.785
				L400.166,296.785z"/>
			<g clip-path="url(#SVGID_4_)">
				<path fill="#010101" d="M400.159,297.621h-0.009c-0.14-0.003-0.272-0.057-0.363-0.153c-0.079-0.08-0.122-0.185-0.12-0.293
					c0.005-0.238,0.225-0.432,0.49-0.432c0.279,0.006,0.497,0.208,0.492,0.449C400.645,297.427,400.424,297.621,400.159,297.621
					L400.159,297.621z M400.165,296.828c-0.228,0-0.41,0.156-0.414,0.349c-0.002,0.083,0.033,0.167,0.096,0.233
					c0.076,0.077,0.188,0.125,0.305,0.125l0.008,0.043v-0.043c0.221,0,0.402-0.153,0.406-0.344
					C400.57,296.996,400.388,296.831,400.165,296.828L400.165,296.828L400.165,296.828z"/>
			</g>
			<path clip-path="url(#SVGID_4_)" fill="#2E6D42" d="M400.991,296.152c0.234,0.003,0.417,0.176,0.416,0.38
				c-0.004,0.205-0.193,0.37-0.429,0.364c-0.23-0.003-0.418-0.173-0.412-0.378C400.567,296.311,400.757,296.149,400.991,296.152
				L400.991,296.152z"/>
			<g clip-path="url(#SVGID_4_)">
				<path fill="#010101" d="M400.989,296.938h-0.012c-0.131-0.002-0.256-0.054-0.344-0.145c-0.074-0.077-0.115-0.176-0.111-0.278
					c0.002-0.228,0.207-0.407,0.461-0.407c0.263,0.006,0.468,0.196,0.466,0.426C401.445,296.757,401.238,296.938,400.989,296.938
					L400.989,296.938z M400.991,296.194c-0.217,0-0.381,0.142-0.387,0.324c0,0.08,0.031,0.156,0.091,0.216
					c0.071,0.077,0.173,0.119,0.284,0.119l0.01,0.042v-0.042c0.205,0,0.371-0.145,0.376-0.321
					C401.369,296.348,401.201,296.197,400.991,296.194L400.991,296.194L400.991,296.194z"/>
			</g>
			<path clip-path="url(#SVGID_4_)" fill="#2E6D42" d="M400.428,296.208c0.223,0.003,0.4,0.182,0.397,0.395
				c-0.006,0.216-0.188,0.386-0.412,0.381c-0.222-0.003-0.399-0.179-0.396-0.395C400.023,296.374,400.206,296.203,400.428,296.208
				L400.428,296.208z"/>
			<g clip-path="url(#SVGID_4_)">
				<path fill="#010101" d="M400.422,297.027h-0.009c-0.118-0.003-0.229-0.051-0.312-0.134c-0.082-0.082-0.127-0.19-0.125-0.304
					c0.004-0.239,0.199-0.423,0.443-0.423c0.254,0.003,0.451,0.202,0.446,0.438C400.862,296.836,400.664,297.027,400.422,297.027
					L400.422,297.027z M400.428,296.251c-0.205,0-0.363,0.148-0.367,0.338c-0.002,0.091,0.033,0.182,0.101,0.247
					c0.066,0.065,0.157,0.105,0.253,0.105l0.008,0.043v-0.043c0.195,0,0.357-0.15,0.361-0.338
					C400.786,296.41,400.627,296.251,400.428,296.251L400.428,296.251L400.428,296.251z"/>
			</g>
			<path clip-path="url(#SVGID_4_)" fill="#2E6D42" d="M399.575,296.808c0.223,0.003,0.4,0.185,0.396,0.403
				c-0.004,0.219-0.187,0.392-0.409,0.389s-0.399-0.185-0.396-0.403S399.352,296.805,399.575,296.808L399.575,296.808z"/>
			<g clip-path="url(#SVGID_4_)">
				<path fill="#010101" d="M399.569,297.643h-0.009c-0.118-0.002-0.229-0.051-0.312-0.136c-0.083-0.083-0.127-0.193-0.125-0.31
					c0.004-0.239,0.203-0.432,0.444-0.432c0.126,0.002,0.237,0.051,0.319,0.136c0.083,0.083,0.127,0.193,0.125,0.31
					C400.008,297.45,399.809,297.643,399.569,297.643L399.569,297.643z M399.575,296.851c-0.202,0-0.364,0.153-0.367,0.347
					c-0.002,0.097,0.034,0.185,0.102,0.253c0.066,0.068,0.156,0.108,0.253,0.108l0.007,0.042v-0.042
					c0.194,0,0.355-0.153,0.359-0.347c0.002-0.097-0.033-0.185-0.101-0.253C399.76,296.891,399.67,296.851,399.575,296.851
					L399.575,296.851L399.575,296.851z"/>
			</g>
			<path clip-path="url(#SVGID_4_)" fill="#2E6D42" d="M399.715,296.521c0.222,0.003,0.399,0.179,0.395,0.395
				c-0.004,0.213-0.188,0.386-0.409,0.381c-0.223-0.003-0.399-0.182-0.396-0.395C399.309,296.686,399.493,296.516,399.715,296.521
				L399.715,296.521z"/>
			<g clip-path="url(#SVGID_4_)">
				<path fill="#010101" d="M399.708,297.339h-0.007c-0.118-0.003-0.229-0.048-0.312-0.131c-0.084-0.085-0.129-0.193-0.125-0.307
					c0.004-0.236,0.203-0.423,0.443-0.423c0.127,0.003,0.237,0.048,0.32,0.131c0.082,0.082,0.127,0.19,0.125,0.307
					C400.148,297.149,399.948,297.339,399.708,297.339L399.708,297.339z M399.713,296.563c-0.201,0-0.363,0.151-0.367,0.338
					c-0.001,0.091,0.035,0.179,0.102,0.247c0.067,0.068,0.158,0.105,0.254,0.105l0.006,0.043v-0.043
					c0.198,0,0.357-0.147,0.361-0.338c0.001-0.094-0.035-0.182-0.101-0.247C399.901,296.601,399.811,296.563,399.713,296.563
					L399.713,296.563L399.713,296.563z"/>
			</g>
			<path clip-path="url(#SVGID_4_)" fill="#2E6D42" d="M399.885,296.191c0.223,0.006,0.4,0.182,0.396,0.398s-0.188,0.386-0.41,0.38
				c-0.223-0.002-0.398-0.179-0.396-0.395S399.664,296.188,399.885,296.191L399.885,296.191z"/>
			<g clip-path="url(#SVGID_4_)">
				<path fill="#010101" d="M399.879,297.013h-0.008c-0.119,0-0.229-0.048-0.312-0.134c-0.082-0.082-0.127-0.19-0.124-0.307
					c0.003-0.23,0.202-0.423,0.442-0.423c0.128,0.003,0.238,0.051,0.32,0.133c0.083,0.083,0.128,0.19,0.125,0.307
					C400.319,296.822,400.12,297.013,399.879,297.013L399.879,297.013z M399.885,296.234c-0.203,0-0.363,0.154-0.367,0.341
					c-0.002,0.091,0.034,0.182,0.101,0.247c0.067,0.065,0.157,0.105,0.255,0.105l0.006,0.042v-0.042c0.195,0,0.356-0.15,0.36-0.341
					c0.001-0.091-0.034-0.179-0.101-0.244C400.072,296.274,399.982,296.237,399.885,296.234L399.885,296.234L399.885,296.234z"/>
			</g>
			<path clip-path="url(#SVGID_4_)" fill="#2E6D42" d="M401.031,297.583c0.682-0.241,1.896,1.114,2.721,3.026
				c0.822,1.912,0.936,3.656,0.256,3.898c-0.682,0.238-1.9-1.114-2.721-3.026C400.465,299.569,400.35,297.825,401.031,297.583
				L401.031,297.583z"/>
			<g clip-path="url(#SVGID_4_)">
				<path fill="#010101" d="M403.84,304.576c-0.725,0-1.838-1.324-2.594-3.08c-0.636-1.483-0.87-2.93-0.577-3.597
					c0.079-0.185,0.197-0.301,0.346-0.355c0.699-0.25,1.953,1.139,2.773,3.048c0.639,1.486,0.869,2.932,0.576,3.599
					c-0.078,0.183-0.195,0.302-0.346,0.355C403.965,304.566,403.902,304.576,403.84,304.576L403.84,304.576z M401.197,297.598
					c-0.053,0-0.107,0.009-0.152,0.026c-0.128,0.042-0.228,0.147-0.298,0.31c-0.283,0.648-0.052,2.065,0.576,3.532
					c0.803,1.86,2.018,3.225,2.672,3.003c0.125-0.046,0.225-0.147,0.295-0.31c0.285-0.648,0.051-2.068-0.576-3.532
					C402.971,298.899,401.889,297.598,401.197,297.598L401.197,297.598z"/>
			</g>
			<path clip-path="url(#SVGID_4_)" fill="#2E6D42" d="M403.271,300.93c0.125-0.062,0.373,0.213,0.549,0.611
				c0.18,0.398,0.223,0.77,0.094,0.83c-0.125,0.06-0.371-0.213-0.549-0.611C403.188,301.359,403.145,300.99,403.271,300.93
				L403.271,300.93z"/>
			<g clip-path="url(#SVGID_4_)">
				<path fill="#010101" d="M403.877,302.422c-0.178,0-0.412-0.335-0.551-0.645c-0.168-0.378-0.248-0.804-0.074-0.887
					c0.244,0.006,0.469,0.324,0.607,0.634c0.166,0.366,0.246,0.801,0.074,0.884L403.877,302.422L403.877,302.422z M403.309,300.964
					c-0.1,0.043-0.094,0.352,0.094,0.779c0.166,0.366,0.375,0.594,0.475,0.594v0.042l0.02-0.048c0.08-0.037,0.074-0.35-0.113-0.772
					C403.619,301.191,403.408,300.964,403.309,300.964L403.309,300.964z"/>
			</g>
			<path clip-path="url(#SVGID_4_)" fill="#2E6D42" d="M403.48,301.649c1.064,1.301,0.932,2.125,0.82,2.823
				c-0.336-0.804-0.52-1.312-1.588-2.61c-1.066-1.301-0.535-2.213-0.461-2.693C402.414,299.584,402.412,300.351,403.48,301.649
				L403.48,301.649z"/>
			<g clip-path="url(#SVGID_4_)">
				<path fill="#010101" d="M404.318,304.621l-0.105-0.247c-0.301-0.73-0.52-1.256-1.531-2.486
					c-0.904-1.099-0.674-1.946-0.537-2.452c0.027-0.105,0.055-0.196,0.064-0.273c0.117,0.08,0.146,0.188,0.178,0.312
					c0.115,0.449,0.289,1.131,1.125,2.147c1.076,1.311,0.939,2.166,0.828,2.854L404.318,304.621L404.318,304.621z M402.256,299.314
					c-0.004,0.042-0.016,0.091-0.029,0.145c-0.143,0.52-0.355,1.31,0.52,2.375c1.01,1.23,1.236,1.762,1.535,2.486
					c0.102-0.671,0.146-1.447-0.836-2.643c-0.844-1.031-1.023-1.725-1.143-2.182C402.287,299.43,402.271,299.371,402.256,299.314
					L402.256,299.314z"/>
			</g>
			<path clip-path="url(#SVGID_4_)" fill="#2E6D42" d="M403.574,302.697c1.068,1.301,0.934,2.125,0.822,2.827
				c-0.338-0.807-0.52-1.315-1.588-2.614c-1.064-1.298-0.533-2.213-0.459-2.693C402.508,300.635,402.506,301.399,403.574,302.697
				L403.574,302.697z"/>
			<g clip-path="url(#SVGID_4_)">
				<path fill="#010101" d="M404.418,305.67l-0.111-0.25c-0.301-0.729-0.52-1.254-1.529-2.48c-0.902-1.1-0.672-1.949-0.537-2.458
					c0.029-0.102,0.055-0.193,0.066-0.27c0.115,0.08,0.143,0.188,0.174,0.31c0.115,0.452,0.291,1.133,1.127,2.15
					c1.076,1.311,0.941,2.165,0.832,2.85L404.418,305.67L404.418,305.67z M402.352,300.365c-0.002,0.042-0.014,0.091-0.027,0.139
					c-0.143,0.523-0.355,1.316,0.52,2.38c1.008,1.228,1.232,1.759,1.533,2.483c0.104-0.671,0.148-1.446-0.834-2.642
					c-0.848-1.031-1.027-1.725-1.143-2.186C402.383,300.479,402.369,300.419,402.352,300.365L402.352,300.365z"/>
			</g>
			<path clip-path="url(#SVGID_4_)" fill="#2E6D42" d="M403.607,303.547c1.094,1.275,0.975,2.105,0.877,2.805
				c-0.352-0.799-0.545-1.302-1.639-2.577c-1.094-1.278-0.576-2.202-0.514-2.685C402.5,301.504,402.514,302.269,403.607,303.547
				L403.607,303.547z"/>
			<g clip-path="url(#SVGID_4_)">
				<path fill="#010101" d="M404.508,306.496l-0.113-0.25c-0.318-0.719-0.545-1.238-1.58-2.446c-0.924-1.079-0.713-1.932-0.584-2.44
					c0.025-0.105,0.047-0.195,0.059-0.275c0.117,0.08,0.145,0.185,0.182,0.307c0.123,0.449,0.312,1.128,1.168,2.128
					c1.102,1.287,0.982,2.142,0.889,2.829L404.508,306.496L404.508,306.496z M402.338,301.237c0,0.042-0.012,0.091-0.025,0.142
					c-0.131,0.525-0.33,1.318,0.564,2.367c1.035,1.207,1.27,1.732,1.586,2.451c0.088-0.673,0.119-1.451-0.889-2.625
					c-0.867-1.014-1.059-1.701-1.186-2.158C402.371,301.352,402.355,301.291,402.338,301.237L402.338,301.237z"/>
			</g>
			<path clip-path="url(#SVGID_4_)" fill="#2E6D42" d="M402.281,299.141c0.25-0.065,0.707,0.458,1.02,1.17
				c0.312,0.708,0.363,1.333,0.117,1.398c-0.254,0.065-0.709-0.461-1.023-1.171C402.082,299.831,402.031,299.206,402.281,299.141
				L402.281,299.141z"/>
			<g clip-path="url(#SVGID_4_)">
				<path fill="#010101" d="M403.371,301.754c-0.275,0-0.713-0.514-1.014-1.196c-0.25-0.565-0.342-1.102-0.23-1.333
					c0.035-0.068,0.082-0.111,0.145-0.125c0,0,0.004,0,0.006,0c0.33,0,0.762,0.512,1.061,1.19c0.25,0.565,0.344,1.103,0.23,1.332
					c-0.031,0.068-0.08,0.108-0.143,0.125L403.371,301.754L403.371,301.754z M402.326,299.177c-0.07,0.014-0.1,0.04-0.123,0.083
					c-0.102,0.208-0.004,0.728,0.23,1.264c0.318,0.719,0.725,1.148,0.938,1.148v0.04l0.035-0.043
					c0.037-0.011,0.064-0.036,0.084-0.082c0.104-0.208,0.01-0.725-0.229-1.262C402.949,299.618,402.531,299.177,402.326,299.177
					L402.326,299.177z"/>
			</g>
			<path clip-path="url(#SVGID_4_)" fill="#2E6D42" d="M401.982,300.084c0.227-0.04,0.605,0.406,0.85,0.991
				c0.244,0.589,0.258,1.097,0.033,1.134c-0.225,0.039-0.604-0.406-0.85-0.992C401.775,300.629,401.758,300.124,401.982,300.084
				L401.982,300.084z"/>
			<g clip-path="url(#SVGID_4_)">
				<path fill="#010101" d="M402.838,302.254c-0.25,0-0.617-0.439-0.857-1.02c-0.193-0.469-0.25-0.892-0.146-1.085
					c0.035-0.06,0.084-0.096,0.143-0.108h0.004c0.283,0,0.65,0.44,0.889,1.02c0.195,0.467,0.252,0.893,0.145,1.083
					c-0.031,0.06-0.082,0.097-0.143,0.104L402.838,302.254L402.838,302.254z M402.012,300.124c-0.055,0.006-0.084,0.028-0.104,0.065
					c-0.09,0.165-0.031,0.583,0.148,1.011c0.246,0.6,0.6,0.969,0.781,0.969v0.043l0.02-0.046c0.037-0.006,0.062-0.025,0.082-0.062
					c0.092-0.164,0.031-0.579-0.146-1.012C402.545,300.493,402.193,300.124,402.012,300.124L402.012,300.124z"/>
			</g>
			<path clip-path="url(#SVGID_4_)" fill="#2E6D42" d="M401.5,300.564c0.225-0.034,0.596,0.42,0.826,1.011
				c0.232,0.591,0.236,1.1,0.012,1.134s-0.598-0.418-0.826-1.012C401.277,301.106,401.275,300.601,401.5,300.564L401.5,300.564z"/>
			<g clip-path="url(#SVGID_4_)">
				<path fill="#010101" d="M402.312,302.752c-0.248,0-0.611-0.446-0.842-1.037c-0.184-0.469-0.232-0.895-0.121-1.088
					c0.033-0.057,0.084-0.094,0.145-0.103l0,0c0.281,0,0.643,0.446,0.871,1.035c0.186,0.471,0.234,0.897,0.123,1.088
					c-0.035,0.057-0.086,0.094-0.145,0.105H402.312L402.312,302.752z M401.521,300.606c-0.051,0.006-0.078,0.025-0.1,0.062
					c-0.096,0.165-0.041,0.583,0.129,1.015c0.236,0.607,0.58,0.985,0.762,0.985v0.043l0.02-0.043
					c0.033-0.005,0.062-0.025,0.082-0.065c0.098-0.162,0.043-0.579-0.125-1.014C402.051,300.981,401.707,300.606,401.521,300.606
					L401.521,300.606z"/>
			</g>
			<path clip-path="url(#SVGID_4_)" fill="#2E6D42" d="M401.957,299.066c0.184-0.031,0.5,0.298,0.711,0.733
				c0.207,0.438,0.229,0.821,0.047,0.855c-0.182,0.031-0.496-0.295-0.707-0.733C401.797,299.481,401.777,299.104,401.957,299.066
				L401.957,299.066z"/>
			<g clip-path="url(#SVGID_4_)">
				<path fill="#010101" d="M402.689,300.697c-0.201,0-0.512-0.327-0.719-0.758c-0.164-0.344-0.221-0.665-0.143-0.815
					c0.027-0.054,0.068-0.085,0.123-0.097c0,0,0,0,0.002,0c0.236,0,0.547,0.324,0.75,0.756c0.166,0.341,0.219,0.665,0.143,0.818
					c-0.025,0.051-0.068,0.083-0.121,0.094L402.689,300.697L402.689,300.697z M401.984,299.109
					c-0.133,0.153-0.113,0.432,0.061,0.792c0.211,0.44,0.5,0.71,0.645,0.71v0.042l0.02-0.042c0.115-0.153,0.094-0.432-0.082-0.793
					C402.418,299.379,402.131,299.109,401.984,299.109L401.984,299.109z"/>
			</g>
			<path clip-path="url(#SVGID_4_)" fill="#2E6D42" d="M401.578,299.379c0.186-0.023,0.48,0.321,0.662,0.767
				c0.182,0.449,0.18,0.832-0.002,0.855c-0.186,0.021-0.48-0.322-0.662-0.771C401.395,299.786,401.395,299.402,401.578,299.379
				L401.578,299.379z"/>
			<g clip-path="url(#SVGID_4_)">
				<path fill="#010101" d="M402.221,301.044c-0.207,0-0.5-0.341-0.684-0.795c-0.143-0.352-0.178-0.676-0.092-0.821
					c0.031-0.054,0.074-0.082,0.129-0.091h0.002c0.227,0,0.52,0.341,0.705,0.793c0.141,0.352,0.176,0.676,0.09,0.824
					c-0.031,0.055-0.074,0.082-0.127,0.088L402.221,301.044L402.221,301.044z M401.596,299.419
					c-0.139,0.153-0.131,0.423,0.018,0.795c0.188,0.46,0.461,0.745,0.607,0.745v0.043l0.012-0.043c0.139-0.17,0.1-0.478-0.031-0.796
					C402.014,299.703,401.744,299.419,401.596,299.419L401.596,299.419z"/>
			</g>
			<path clip-path="url(#SVGID_4_)" fill="#2E6D42" d="M401.574,299.686c0.316,0.77,0.445,1.466,0.285,1.548
				c-0.158,0.082-0.541-0.475-0.857-1.247L401.574,299.686z"/>
			<g clip-path="url(#SVGID_4_)">
				<path fill="#010101" d="M401.863,301.279l-0.092-0.005c-0.201-0.074-0.533-0.597-0.808-1.27c0.371,0.69,0.689,1.136,0.837,1.191
					c0.145-0.055,0.08-0.651-0.264-1.492l0.076-0.034c0.293,0.713,0.477,1.491,0.268,1.603L401.863,301.279L401.863,301.279z"/>
			</g>
			<path clip-path="url(#SVGID_4_)" fill="#2E6D42" d="M401.527,298.473c0.182-0.025,0.48,0.321,0.662,0.767
				c0.182,0.449,0.18,0.833-0.006,0.855c-0.182,0.022-0.477-0.321-0.658-0.77C401.344,298.879,401.344,298.496,401.527,298.473
				L401.527,298.473z"/>
			<g clip-path="url(#SVGID_4_)">
				<path fill="#010101" d="M402.168,300.138c-0.205,0-0.498-0.341-0.684-0.795c-0.141-0.35-0.178-0.673-0.09-0.821
					c0.027-0.054,0.074-0.082,0.127-0.091l0,0c0.23,0,0.523,0.341,0.709,0.795c0.139,0.353,0.176,0.673,0.088,0.821
					c-0.029,0.054-0.074,0.083-0.129,0.091H402.168L402.168,300.138z M401.545,298.513c-0.15,0.173-0.111,0.48,0.018,0.795
					c0.182,0.449,0.459,0.747,0.605,0.747v0.04l0.014-0.04c0.125-0.153,0.119-0.426-0.031-0.798
					C401.963,298.8,401.689,298.513,401.545,298.513L401.545,298.513z"/>
			</g>
			<path clip-path="url(#SVGID_4_)" fill="#2E6D42" d="M401.016,298.72c0.186-0.02,0.475,0.33,0.646,0.781
				c0.17,0.452,0.162,0.835-0.023,0.855s-0.473-0.33-0.644-0.784C400.823,299.124,400.833,298.74,401.016,298.72L401.016,298.72z"/>
			<g clip-path="url(#SVGID_4_)">
				<path fill="#010101" d="M401.625,300.399c-0.207,0-0.494-0.349-0.667-0.81c-0.138-0.355-0.166-0.679-0.075-0.824
					c0.032-0.051,0.077-0.083,0.131-0.088l0,0c0.227,0,0.512,0.35,0.688,0.81c0.133,0.352,0.162,0.679,0.07,0.824
					c-0.031,0.051-0.072,0.083-0.127,0.088H401.625L401.625,300.399z M401.033,298.763c-0.154,0.167-0.122,0.477,0,0.795
					c0.17,0.452,0.443,0.756,0.592,0.756v0.042l0.012-0.042c0.141-0.167,0.107-0.478-0.016-0.798
					C401.451,299.066,401.178,298.763,401.033,298.763L401.033,298.763z"/>
			</g>
			<path clip-path="url(#SVGID_4_)" fill="#2E6D42" d="M401.025,298.641c0.307,0.517,0.471,1.006,0.369,1.083
				c-0.104,0.08-0.437-0.279-0.742-0.801L401.025,298.641z"/>
			<g clip-path="url(#SVGID_4_)">
				<path fill="#010101" d="M401.42,299.757c-0.268-0.017-0.578-0.426-0.804-0.812c0.358,0.44,0.625,0.728,0.734,0.748
					c0.072-0.043-0.01-0.432-0.361-1.032l0.074-0.042C401.291,299.01,401.578,299.638,401.42,299.757L401.42,299.757z"/>
			</g>
			<path clip-path="url(#SVGID_4_)" fill="#2E6D42" d="M401.238,298.294c0.307,0.52,0.471,1.008,0.367,1.085
				c-0.104,0.079-0.436-0.282-0.742-0.801L401.238,298.294z"/>
			<g clip-path="url(#SVGID_4_)">
				<path fill="#010101" d="M401.631,299.413c-0.266-0.02-0.574-0.426-0.802-0.815c0.355,0.443,0.625,0.728,0.734,0.75
					c0.074-0.046-0.01-0.435-0.361-1.034l0.074-0.043C401.506,298.663,401.793,299.291,401.631,299.413L401.631,299.413z"/>
			</g>
			<path clip-path="url(#SVGID_4_)" fill="#2E6D42" d="M402.193,298.365c0.426,0.713,0.656,1.378,0.51,1.486
				c-0.145,0.108-0.607-0.383-1.033-1.094L402.193,298.365z"/>
			<g clip-path="url(#SVGID_4_)">
				<path fill="#010101" d="M402.621,299.902c-0.207-0.04-0.613-0.503-0.988-1.125c0.473,0.622,0.852,1.014,1.006,1.042
					c0.137-0.077-0.018-0.653-0.482-1.432l0.07-0.042c0.395,0.656,0.693,1.395,0.504,1.537L402.621,299.902L402.621,299.902z"/>
			</g>
			<path clip-path="url(#SVGID_4_)" fill="#2E6D42" d="M401.562,297.993c0.307,0.577,0.471,1.114,0.369,1.199
				c-0.104,0.085-0.438-0.31-0.744-0.886L401.562,297.993z"/>
			<g clip-path="url(#SVGID_4_)">
				<path fill="#010101" d="M401.959,299.223c-0.264-0.015-0.578-0.466-0.809-0.898c0.352,0.48,0.631,0.815,0.74,0.835
					c0.068-0.048-0.01-0.483-0.369-1.147l0.078-0.04C401.828,298.405,402.115,299.095,401.959,299.223L401.959,299.223z"/>
			</g>
			<path clip-path="url(#SVGID_4_)" fill="#835FA8" d="M401.533,297.16c-0.205,0.205-0.002,0.594,0.186,0.733
				c0.209,0.19,1.395,1.44,2.23,0.387C403.277,298.269,402.031,296.7,401.533,297.16L401.533,297.16z"/>
			<g clip-path="url(#SVGID_4_)">
				<path fill="#010101" d="M403.168,298.74L403.168,298.74c-0.617,0-1.205-0.56-1.428-0.77c-0.176-0.137-0.318-0.35-0.334-0.551
					c-0.01-0.117,0.025-0.216,0.1-0.29c0.281-0.264,0.82,0.1,1.377,0.517c0.387,0.29,0.789,0.588,1.066,0.594
					C403.752,298.595,403.48,298.74,403.168,298.74L403.168,298.74z M401.758,297.118c-0.08,0-0.143,0.023-0.195,0.074
					c-0.055,0.054-0.08,0.128-0.072,0.219c0.012,0.173,0.141,0.364,0.254,0.449c0.27,0.255,0.84,0.795,1.424,0.795l0,0
					c0.283,0,0.535-0.134,0.746-0.401c-0.277,0.065-0.664-0.23-1.082-0.542C402.439,297.419,402.037,297.118,401.758,297.118
					L401.758,297.118z"/>
			</g>
			<path clip-path="url(#SVGID_4_)" fill="#835FA8" d="M401.389,296.541c-0.207,0.208-0.006,0.594,0.182,0.736
				c0.211,0.19,1.395,1.44,2.23,0.389C403.133,297.652,401.883,296.081,401.389,296.541L401.389,296.541z"/>
			<g clip-path="url(#SVGID_4_)">
				<path fill="#010101" d="M403.02,298.124L403.02,298.124c-0.617,0-1.205-0.56-1.426-0.767c-0.174-0.139-0.318-0.353-0.334-0.557
					c-0.008-0.113,0.027-0.213,0.098-0.284c0.283-0.27,0.82,0.096,1.381,0.514c0.387,0.29,0.787,0.588,1.064,0.594
					C403.607,297.979,403.332,298.124,403.02,298.124L403.02,298.124z M401.609,296.501c-0.076,0-0.141,0.023-0.191,0.074
					c-0.055,0.054-0.08,0.128-0.074,0.219c0.014,0.173,0.139,0.363,0.252,0.449c0.27,0.256,0.842,0.795,1.424,0.795
					c0.287,0,0.537-0.133,0.75-0.397c-0.27,0.068-0.664-0.233-1.082-0.546C402.295,296.805,401.889,296.501,401.609,296.501
					L401.609,296.501z"/>
			</g>
			<path clip-path="url(#SVGID_4_)" fill="#835FA8" d="M401.201,295.953c-0.207,0.205-0.006,0.594,0.184,0.733
				c0.211,0.19,1.393,1.44,2.229,0.386C402.945,297.061,401.695,295.493,401.201,295.953L401.201,295.953z"/>
			<g clip-path="url(#SVGID_4_)">
				<path fill="#010101" d="M402.832,297.532L402.832,297.532c-0.617,0-1.205-0.56-1.426-0.77c-0.174-0.137-0.316-0.347-0.334-0.551
					c-0.008-0.117,0.027-0.216,0.098-0.29c0.283-0.267,0.824,0.1,1.381,0.517c0.387,0.29,0.787,0.588,1.064,0.594
					C403.42,297.388,403.145,297.532,402.832,297.532L402.832,297.532z M401.426,295.91c-0.08,0-0.145,0.023-0.197,0.074
					c-0.053,0.054-0.078,0.128-0.072,0.219c0.014,0.173,0.139,0.367,0.252,0.449c0.27,0.253,0.842,0.795,1.424,0.795l0,0
					c0.287,0,0.539-0.134,0.75-0.4c-0.279,0.068-0.664-0.23-1.082-0.543C402.107,296.211,401.701,295.91,401.426,295.91
					L401.426,295.91z"/>
			</g>
			<path clip-path="url(#SVGID_4_)" fill="#835FA8" d="M400.793,295.277c-0.207,0.207-0.005,0.594,0.184,0.733
				c0.21,0.19,1.394,1.44,2.23,0.389C402.539,296.388,401.289,294.816,400.793,295.277L400.793,295.277z"/>
			<g clip-path="url(#SVGID_4_)">
				<path fill="#010101" d="M402.426,296.856L402.426,296.856c-0.613,0-1.201-0.557-1.424-0.767
					c-0.176-0.142-0.322-0.353-0.335-0.554c-0.01-0.116,0.023-0.216,0.097-0.29c0.282-0.267,0.821,0.099,1.381,0.517
					c0.387,0.29,0.787,0.588,1.064,0.594C403.014,296.711,402.738,296.856,402.426,296.856L402.426,296.856z M401.016,295.234
					c-0.076,0-0.142,0.026-0.195,0.074c-0.055,0.054-0.078,0.127-0.072,0.219c0.015,0.173,0.14,0.363,0.253,0.449
					c0.273,0.256,0.844,0.795,1.424,0.795c0.287,0,0.537-0.133,0.75-0.397c-0.27,0.065-0.664-0.23-1.082-0.543
					C401.701,295.535,401.295,295.234,401.016,295.234L401.016,295.234z"/>
			</g>
			<path clip-path="url(#SVGID_4_)" fill="#835FA8" d="M399.333,294.629c0.424-0.315,1.202-0.406,1.807-0.1
				c0.504,0.248,1.344,1.259,1.979,1.495c-0.447,0.08-0.717,0.014-1-0.125c-0.562,0.409-0.762,0.472-1.335,0.548
				c-0.795,0.116-1.456-0.091-1.688-0.506C398.859,295.549,398.961,294.921,399.333,294.629L399.333,294.629z"/>
			<g clip-path="url(#SVGID_4_)">
				<path fill="#010101" d="M400.36,296.521c-0.618,0-1.104-0.208-1.301-0.56c-0.252-0.415-0.133-1.065,0.248-1.367
					c0.453-0.338,1.283-0.392,1.855-0.102c0.223,0.111,0.516,0.372,0.822,0.647c0.375,0.333,0.803,0.716,1.148,0.844
					c-0.143,0.105-0.258,0.117-0.367,0.117c-0.229,0-0.428-0.048-0.666-0.162c-0.523,0.406-0.73,0.472-1.31,0.551
					C400.641,296.513,400.498,296.521,400.36,296.521L400.36,296.521z M400.315,294.382c-0.369,0-0.717,0.105-0.956,0.281
					c-0.351,0.272-0.459,0.872-0.228,1.256c0.223,0.4,0.869,0.597,1.647,0.488c0.571-0.08,0.76-0.139,1.315-0.542
					c0.396,0.159,0.615,0.19,1.016,0.119c-0.365-0.057-0.781-0.426-1.182-0.781c-0.301-0.272-0.588-0.528-0.807-0.633
					C400.883,294.447,400.604,294.382,400.315,294.382L400.315,294.382z"/>
			</g>
			<path clip-path="url(#SVGID_4_)" fill="#C21F3B" d="M400.235,295.044c0.201,0.005,0.363,0.105,0.361,0.221
				c-0.002,0.117-0.167,0.208-0.368,0.205c-0.202-0.005-0.363-0.102-0.361-0.219C399.869,295.135,400.034,295.044,400.235,295.044
				L400.235,295.044z"/>
			<g clip-path="url(#SVGID_4_)">
				<path fill="#010101" d="M400.237,295.513h-0.01c-0.229-0.006-0.404-0.123-0.402-0.262s0.178-0.247,0.4-0.247
					c0.24,0.006,0.416,0.119,0.413,0.261C400.635,295.404,400.459,295.513,400.237,295.513L400.237,295.513z M400.234,295.086
					c-0.179,0-0.323,0.077-0.325,0.165c-0.002,0.091,0.146,0.173,0.32,0.176l0.008,0.042v-0.042c0.171,0,0.316-0.074,0.318-0.165
					C400.555,295.171,400.409,295.092,400.234,295.086L400.234,295.086L400.234,295.086z"/>
			</g>
			<path clip-path="url(#SVGID_4_)" fill="#F4D130" d="M399.012,295.822c0.263-0.097,0.524-0.045,0.584,0.113
				c0.06,0.159-0.105,0.37-0.369,0.469c-0.264,0.096-0.524,0.048-0.584-0.114C398.584,296.129,398.749,295.921,399.012,295.822
				L399.012,295.822z"/>
			<g clip-path="url(#SVGID_4_)">
				<path fill="#010101" d="M398.963,296.496c-0.181,0-0.315-0.071-0.359-0.19c-0.068-0.185,0.104-0.412,0.393-0.523
					c0.279-0.102,0.573-0.04,0.639,0.139c0.068,0.185-0.104,0.415-0.394,0.523C399.149,296.479,399.053,296.496,398.963,296.496
					L398.963,296.496z M399.274,295.816c-0.079,0-0.165,0.014-0.248,0.045c-0.236,0.088-0.394,0.278-0.344,0.412
					c0.05,0.133,0.299,0.179,0.53,0.091c0.237-0.088,0.396-0.278,0.345-0.415C399.526,295.865,399.418,295.816,399.274,295.816
					L399.274,295.816z"/>
			</g>
			<path clip-path="url(#SVGID_4_)" fill="#010101" d="M400.215,295.129c0.072,0.003,0.13,0.054,0.13,0.117
				c-0.003,0.062-0.062,0.113-0.134,0.111c-0.072,0-0.131-0.054-0.129-0.117C400.083,295.177,400.142,295.129,400.215,295.129
				L400.215,295.129z"/>
			<path clip-path="url(#SVGID_4_)" fill="#F4D130" d="M399.429,295.541c0.033,0.162-0.087,0.38-0.349,0.46
				c-0.267,0.108-0.467,0.358-0.584,0.77c-0.404-0.935-0.148-1.327,0.281-1.423C399.149,295.229,399.372,295.246,399.429,295.541
				L399.429,295.541z"/>
			<g clip-path="url(#SVGID_4_)">
				<path fill="#010101" d="M398.504,296.893l-0.047-0.108c-0.221-0.505-0.264-0.897-0.131-1.162
					c0.082-0.162,0.235-0.272,0.443-0.318c0.448-0.142,0.642-0.068,0.7,0.227c0.037,0.182-0.094,0.423-0.377,0.509
					c-0.259,0.108-0.446,0.355-0.557,0.739L398.504,296.893L398.504,296.893z M399.125,295.319c-0.084,0-0.193,0.022-0.335,0.068
					c-0.188,0.042-0.317,0.133-0.39,0.275c-0.111,0.222-0.082,0.551,0.09,0.983c0.121-0.347,0.313-0.577,0.574-0.685
					c0.238-0.071,0.352-0.27,0.323-0.412C399.356,295.39,399.278,295.319,399.125,295.319L399.125,295.319z"/>
			</g>
			<path clip-path="url(#SVGID_4_)" fill="#010101" d="M399.034,295.515c0.051-0.002,0.094,0.04,0.098,0.091
				c0.003,0.051-0.036,0.096-0.088,0.099c-0.051,0.003-0.094-0.037-0.098-0.088C398.944,295.563,398.983,295.521,399.034,295.515
				L399.034,295.515z"/>
		</g>
	</g>
</g>
</svg>
