<?xml version="1.0" encoding="utf-8"?>
<!-- Generator: Adobe Illustrator 16.0.0, SVG Export Plug-In . SVG Version: 6.00 Build 0)  -->
<!DOCTYPE svg PUBLIC "-//W3C//DTD SVG 1.1//EN" "http://www.w3.org/Graphics/SVG/1.1/DTD/svg11.dtd">
<svg version="1.1" id="name" xmlns="http://www.w3.org/2000/svg" xmlns:xlink="http://www.w3.org/1999/xlink" x="0px" y="0px"
	 width="85.974px" height="50.258px" viewBox="357.871 275.871 85.974 50.258"
	 enable-background="new 357.871 275.871 85.974 50.258" xml:space="preserve">
<g id="dz">
	<g>
		<defs>
			<rect id="SVGID_1_" x="358" y="276" width="85.714" height="50"/>
		</defs>
		<clipPath id="SVGID_2_">
			<use xlink:href="#SVGID_1_"  overflow="visible"/>
		</clipPath>
		<g clip-path="url(#SVGID_2_)">
			<rect x="358" y="276" fill="#FFFFFF" width="85.714" height="50"/>
			<path fill="#010101" d="M443.845,326.129h-85.974v-50.258h85.974V326.129L443.845,326.129z M358.128,325.871h85.458v-49.742
				h-85.458V325.871L358.128,325.871z"/>
		</g>
		<rect x="358" y="276" clip-path="url(#SVGID_2_)" fill="#327539" width="42.858" height="50"/>
		<g clip-path="url(#SVGID_2_)">
			<defs>
				<rect id="SVGID_3_" x="358" y="276" width="85.714" height="50"/>
			</defs>
			<clipPath id="SVGID_4_">
				<use xlink:href="#SVGID_3_"  overflow="visible"/>
			</clipPath>
			<path clip-path="url(#SVGID_4_)" fill="#C01F3F" d="M410.129,308.805c-4.311,3.454-10.607,2.756-14.059-1.555
				c-3.45-4.312-2.754-10.605,1.559-14.058c4.309-3.449,10.602-2.754,14.054,1.557c-1.097-1.899-2.673-3.478-4.574-4.574
				c-5.978-3.452-13.623-1.403-17.076,4.574c-3.452,5.981-1.404,13.625,4.576,17.078c5.977,3.453,13.622,1.401,17.074-4.576
				C411.226,307.824,410.703,308.347,410.129,308.805L410.129,308.805z"/>
			<polygon clip-path="url(#SVGID_4_)" fill="#C01F3F" points="405.177,303.27 407.848,306.943 407.848,302.402 412.166,301 
				407.848,299.596 407.848,295.054 405.177,298.728 400.858,297.327 403.529,301 400.858,304.674 			"/>
		</g>
	</g>
</g>
</svg>
