<?xml version="1.0" encoding="utf-8"?>
<!-- Generator: Adobe Illustrator 16.0.0, SVG Export Plug-In . SVG Version: 6.00 Build 0)  -->
<!DOCTYPE svg PUBLIC "-//W3C//DTD SVG 1.1//EN" "http://www.w3.org/Graphics/SVG/1.1/DTD/svg11.dtd">
<svg version="1.1" id="name" xmlns="http://www.w3.org/2000/svg" xmlns:xlink="http://www.w3.org/1999/xlink" x="0px" y="0px"
	 width="85.886px" height="50.174px" viewBox="357.912 275.912 85.886 50.174"
	 enable-background="new 357.912 275.912 85.886 50.174" xml:space="preserve">
<g id="eg">
	<g>
		<defs>
			<rect id="SVGID_1_" x="358" y="276" width="85.712" height="50"/>
		</defs>
		<clipPath id="SVGID_2_">
			<use xlink:href="#SVGID_1_"  overflow="visible"/>
		</clipPath>
		<rect x="358" y="309.334" clip-path="url(#SVGID_2_)" fill="#010101" width="85.712" height="16.666"/>
		<g clip-path="url(#SVGID_2_)">
			<defs>
				<rect id="SVGID_3_" x="358" y="276" width="85.712" height="50"/>
			</defs>
			<clipPath id="SVGID_4_">
				<use xlink:href="#SVGID_3_"  overflow="visible"/>
			</clipPath>
			<g clip-path="url(#SVGID_4_)">
				<path fill="#010101" d="M443.798,326.086h-85.886v-16.84h85.886V326.086L443.798,326.086z M358.088,325.912h85.536V309.42
					h-85.536V325.912L358.088,325.912z"/>
			</g>
		</g>
		<rect x="358" y="292.666" clip-path="url(#SVGID_2_)" fill="#FFFFFF" width="85.712" height="16.668"/>
		<g clip-path="url(#SVGID_2_)">
			<defs>
				<rect id="SVGID_5_" x="358" y="276" width="85.712" height="50"/>
			</defs>
			<clipPath id="SVGID_6_">
				<use xlink:href="#SVGID_5_"  overflow="visible"/>
			</clipPath>
			<g clip-path="url(#SVGID_6_)">
				<path fill="#FFFFFF" d="M443.798,309.42h-85.886v-16.839h85.886V309.42L443.798,309.42z M358.088,309.246h85.536v-16.492
					h-85.536V309.246L358.088,309.246z"/>
			</g>
		</g>
		<rect x="358" y="276" clip-path="url(#SVGID_2_)" fill="#BD1F34" width="85.712" height="16.666"/>
		<g clip-path="url(#SVGID_2_)">
			<defs>
				<rect id="SVGID_7_" x="358" y="276" width="85.712" height="50"/>
			</defs>
			<clipPath id="SVGID_8_">
				<use xlink:href="#SVGID_7_"  overflow="visible"/>
			</clipPath>
			<g clip-path="url(#SVGID_8_)">
				<path fill="#BD1F34" d="M443.798,292.754h-85.886v-16.842h85.886V292.754L443.798,292.754z M358.088,292.581h85.536v-16.493
					h-85.536V292.581L358.088,292.581z"/>
			</g>
			<path clip-path="url(#SVGID_8_)" fill="#FFFFFF" d="M400.38,308.902c1.637,0,3.206-0.131,4.125-0.387
				c0.39-0.07,0.39-0.272,0.39-0.531c0.386-0.131,0.188-0.59,0.458-0.59c-0.271,0.07-0.33-0.461-0.66-0.391
				c0-0.457-0.46-0.517-0.85-0.386c-0.777,0.259-2.156,0.315-3.463,0.315c-1.309-0.057-2.675-0.057-3.466-0.315
				c-0.388-0.131-0.847-0.071-0.847,0.386c-0.331-0.07-0.389,0.461-0.66,0.391c0.271,0,0.071,0.459,0.458,0.59
				c0,0.259,0,0.461,0.401,0.531C397.174,308.771,398.742,308.902,400.38,308.902L400.38,308.902z"/>
			<g clip-path="url(#SVGID_8_)">
				<path fill="#F0C726" d="M400.38,309.067c-1.762,0-3.279-0.146-4.158-0.396c-0.453-0.079-0.51-0.34-0.518-0.582
					c-0.199-0.116-0.248-0.312-0.276-0.438c-0.008-0.028-0.019-0.07-0.027-0.094c-0.016-0.003-0.03-0.006-0.036-0.006
					c-0.08-0.022-0.13-0.1-0.121-0.179c0.011-0.083,0.081-0.142,0.162-0.142c0.008,0,0.016,0.006,0.024,0.008
					c0.005-0.002,0.011-0.002,0.017-0.002l0,0l0,0c0.027-0.004,0.092-0.08,0.128-0.123c0.078-0.102,0.182-0.236,0.345-0.27
					c0.085-0.387,0.548-0.546,1.044-0.384c0.628,0.204,1.641,0.244,2.713,0.281l0.708,0.028c1.665,0,2.781-0.1,3.406-0.31
					c0.506-0.167,0.972,0.003,1.049,0.4c0.182,0.046,0.272,0.162,0.344,0.253c0.031,0.037,0.088,0.113,0.113,0.123
					c0.023-0.004,0.045-0.006,0.055-0.006c0.082,0,0.15,0.059,0.161,0.142c0.012,0.079-0.04,0.156-0.119,0.179
					c-0.009,0-0.017-0.002-0.028-0.002c-0.003,0.002-0.009,0.005-0.014,0.005l0,0l0,0c-0.004,0-0.004,0-0.006,0
					c0.008,0.006-0.006,0.06-0.015,0.097c-0.031,0.125-0.077,0.321-0.275,0.438c-0.009,0.242-0.068,0.5-0.522,0.586
					C403.66,308.922,402.137,309.067,400.38,309.067L400.38,309.067z M395.711,307.453c0.016,0.043,0.025,0.086,0.034,0.123
					c0.033,0.139,0.057,0.215,0.172,0.252c0.067,0.023,0.112,0.086,0.112,0.156c0,0.256,0,0.324,0.266,0.369
					c0.856,0.245,2.378,0.387,4.085,0.387c1.706,0,3.231-0.142,4.081-0.383c0.27-0.049,0.27-0.117,0.27-0.373
					c0-0.07,0.046-0.133,0.111-0.156c0.119-0.037,0.142-0.113,0.173-0.252c0.012-0.04,0.021-0.08,0.034-0.123
					c-0.045-0.042-0.085-0.09-0.119-0.139c-0.074-0.092-0.125-0.15-0.176-0.15c-0.052,0.006-0.111,0-0.151-0.031
					s-0.073-0.077-0.073-0.129c0-0.07,0-0.283-0.336-0.283c-0.094,0-0.195,0.017-0.295,0.051c-0.662,0.219-1.812,0.326-3.518,0.326
					l-0.713-0.027c-1.097-0.04-2.132-0.08-2.804-0.299c-0.101-0.034-0.205-0.051-0.297-0.051c-0.336,0-0.336,0.213-0.336,0.283
					c0,0.052-0.021,0.098-0.06,0.129c-0.037,0.031-0.088,0.045-0.137,0.031c-0.088,0.006-0.127,0.059-0.2,0.15
					C395.798,307.363,395.758,307.411,395.711,307.453L395.711,307.453z"/>
			</g>
			<path clip-path="url(#SVGID_8_)" fill="#F4D135" d="M396.657,307.266c-0.131,0-0.131,0.068,0,0.068
				C396.715,307.334,396.715,307.266,396.657,307.266L396.657,307.266z"/>
			<g clip-path="url(#SVGID_8_)">
				<path fill="#F0C726" d="M396.657,307.426c-0.176,0-0.187-0.105-0.187-0.125c0-0.074,0.111-0.125,0.187-0.125
					c0.048,0,0.13,0.076,0.13,0.125C396.788,307.349,396.705,307.426,396.657,307.426L396.657,307.426z"/>
			</g>
			<path clip-path="url(#SVGID_8_)" fill="#F4D135" d="M396.657,307.004c-0.073,0-0.073,0.131,0,0.131
				C396.786,307.135,396.786,307.004,396.657,307.004L396.657,307.004z"/>
			<g clip-path="url(#SVGID_8_)">
				<path fill="#F0C726" d="M396.657,307.223c-0.048,0-0.142-0.104-0.142-0.152c0-0.046,0.094-0.15,0.142-0.15
					c0.121,0,0.183,0.076,0.183,0.15C396.84,307.146,396.778,307.223,396.657,307.223L396.657,307.223z"/>
			</g>
			<path clip-path="url(#SVGID_8_)" fill="#F4D135" d="M396.657,307.984c-0.073,0-0.073,0.131,0,0.131
				C396.715,308.115,396.715,307.984,396.657,307.984L396.657,307.984z"/>
			<g clip-path="url(#SVGID_8_)">
				<path fill="#F0C726" d="M396.657,308.201c-0.048,0-0.142-0.105-0.142-0.154c0-0.045,0.094-0.15,0.142-0.15
					c0.048,0,0.13,0.105,0.13,0.15C396.788,308.096,396.705,308.201,396.657,308.201L396.657,308.201z"/>
			</g>
			<path clip-path="url(#SVGID_8_)" fill="#F4D135" d="M396.914,308.053c-0.128,0-0.128,0.131,0,0.131
				C396.986,308.184,396.986,308.053,396.914,308.053L396.914,308.053z"/>
			<g clip-path="url(#SVGID_8_)">
				<path fill="#F0C726" d="M396.914,308.271c-0.121,0-0.183-0.076-0.183-0.153c0-0.079,0.104-0.15,0.183-0.15
					c0.048,0,0.142,0.104,0.142,0.15C397.056,308.189,396.984,308.271,396.914,308.271L396.914,308.271z"/>
			</g>
			<path clip-path="url(#SVGID_8_)" fill="#F4D135" d="M397.174,308.115c-0.059,0-0.059,0.128,0,0.128
				C397.305,308.243,397.305,308.115,397.174,308.115L397.174,308.115z"/>
			<g clip-path="url(#SVGID_8_)">
				<path fill="#F0C726" d="M397.174,308.328c-0.048,0-0.131-0.102-0.131-0.15c0-0.048,0.083-0.153,0.131-0.153
					c0.122,0,0.185,0.077,0.185,0.153C397.359,308.252,397.296,308.328,397.174,308.328L397.174,308.328z"/>
			</g>
			<path clip-path="url(#SVGID_8_)" fill="#F4D135" d="M401.23,307.465c-0.062,0-0.062,0.131,0,0.131
				C401.299,307.596,401.299,307.465,401.23,307.465L401.23,307.465z"/>
			<g clip-path="url(#SVGID_8_)">
				<path fill="#F0C726" d="M401.23,307.681c-0.049,0-0.135-0.103-0.135-0.15s0.086-0.153,0.135-0.153s0.139,0.105,0.139,0.153
					S401.279,307.681,401.23,307.681L401.23,307.681z"/>
			</g>
			<path clip-path="url(#SVGID_8_)" fill="#F4D135" d="M401.299,307.724c-0.128,0-0.128,0.06,0,0.06
				C401.358,307.783,401.358,307.724,401.299,307.724L401.299,307.724z"/>
			<g clip-path="url(#SVGID_8_)">
				<path fill="none" d="M401.299,307.724c-0.128,0-0.128,0.06,0,0.06C401.358,307.783,401.358,307.724,401.299,307.724z"/>
			</g>
			<path clip-path="url(#SVGID_8_)" fill="#F4D135" d="M401.489,308.371c-0.06,0-0.06,0.145,0,0.145
				C401.561,308.516,401.561,308.371,401.489,308.371L401.489,308.371z"/>
			<g clip-path="url(#SVGID_8_)">
				<path fill="#F0C726" d="M401.489,308.602c-0.049,0-0.134-0.111-0.134-0.159c0-0.046,0.085-0.156,0.134-0.156
					c0.048,0,0.139,0.11,0.139,0.156C401.628,308.49,401.537,308.602,401.489,308.602L401.489,308.602z"/>
			</g>
			<path clip-path="url(#SVGID_8_)" fill="#F4D135" d="M401.759,308.371c-0.142,0-0.142,0.145,0,0.145
				C401.818,308.516,401.818,308.371,401.759,308.371L401.759,308.371z"/>
			<g clip-path="url(#SVGID_8_)">
				<path fill="#F0C726" d="M401.759,308.602c-0.128,0-0.193-0.08-0.193-0.159s0.065-0.156,0.193-0.156
					c0.048,0,0.134,0.11,0.134,0.156C401.893,308.514,401.827,308.602,401.759,308.602L401.759,308.602z"/>
			</g>
			<path clip-path="url(#SVGID_8_)" fill="#F4D135" d="M404.436,307.854c-0.131,0-0.131,0.072,0,0.072
				C404.506,307.926,404.506,307.854,404.436,307.854L404.436,307.854z"/>
			<g clip-path="url(#SVGID_8_)">
				<path fill="#F0C726" d="M404.436,308.01c-0.177,0-0.186-0.102-0.186-0.121c0-0.074,0.111-0.123,0.186-0.123
					c0.048,0,0.139,0.074,0.139,0.123C404.574,307.937,404.483,308.01,404.436,308.01L404.436,308.01z"/>
			</g>
			<g clip-path="url(#SVGID_8_)">
				<path fill="#F0C726" d="M397.362,308.096c-0.056,0-0.107-0.014-0.148-0.028c-0.069-0.017-0.145-0.04-0.193-0.089
					c-0.06,0.006-0.118-0.011-0.206-0.042c-0.06,0.006-0.188-0.103-0.188-0.284c0.062-0.133,0.109-0.315,0.159-0.506l0.044-0.164
					c0.013-0.046,0.054-0.074,0.107-0.061c0.047,0.012,0.074,0.061,0.062,0.108l-0.044,0.159c-0.055,0.213-0.104,0.395-0.163,0.506
					c0.011,0.033,0.042,0.068,0.054,0.074c0.057,0.014,0.104,0.027,0.128,0.036c0.009-0.04,0.023-0.079,0.04-0.125
					c0.014-0.125,0.041-0.185,0.089-0.204c0.013,0.012,0.036,0.051,0.057,0.094l0.048,0.033c0,0.004-0.005,0.031-0.013,0.062
					c0.001,0.01,0.001,0.018,0,0.023c-0.019,0.074-0.033,0.128-0.05,0.17c0.01,0.006,0.037,0.021,0.118,0.04
					c0.05,0.017,0.1,0.034,0.125,0.017c0.031-0.014,0.061-0.088,0.089-0.209l0.026,0.017l-0.091-0.103
					c0.019-0.034,0.094-0.065,0.135-0.057c0.038,0.012,0.102,0.122,0.102,0.159c-0.033,0.156-0.075,0.29-0.179,0.347
					C397.436,308.09,397.398,308.096,397.362,308.096L397.362,308.096z"/>
			</g>
			<g clip-path="url(#SVGID_8_)">
				<path fill="#F0C726" d="M396.845,307.942c-0.007,0-0.016,0-0.024-0.003c-0.196-0.055-0.322-0.165-0.319-0.284
					c0.001-0.073,0.049-0.171,0.267-0.216c0.049-0.006,0.094,0.02,0.104,0.068c0.01,0.045-0.02,0.091-0.068,0.102
					c-0.111,0.023-0.128,0.055-0.128,0.055c0.003,0.014,0.064,0.07,0.192,0.105c0.047,0.014,0.074,0.062,0.061,0.107
					C396.917,307.914,396.883,307.942,396.845,307.942L396.845,307.942z"/>
			</g>
			<g clip-path="url(#SVGID_8_)">
				<path fill="#F0C726" d="M398.732,308.471c-0.04,0-0.097-0.02-0.116-0.043c-0.016,0.031-0.151-0.006-0.151-0.244
					c-0.034,0-0.102-0.02-0.148-0.054c-0.166,0.071-0.358,0.088-0.476,0.046c-0.041,0.064-0.101,0.113-0.17,0.146
					c-0.047,0.018-0.095,0-0.117-0.042c-0.02-0.046,0-0.097,0.044-0.116c0.046-0.02,0.084-0.057,0.109-0.097
					c-0.021-0.043-0.032-0.089-0.032-0.142c-0.02-0.031-0.043-0.123,0.002-0.18c0.149-0.028,0.196,0.031,0.239,0.148
					c0,0.042-0.003,0.082-0.01,0.115c0.05,0.023,0.153,0.023,0.263-0.011c-0.08-0.085-0.083-0.204-0.041-0.29
					c0.058-0.119,0.188-0.176,0.319-0.139c0.108,0.057,0.162,0.156,0.159,0.262c-0.003,0.09-0.047,0.167-0.115,0.215
					c0.03,0.021,0.064,0.04,0.103,0.061c0.045,0.179,0.064,0.179,0.089,0.179l0,0c0.039,0,0.101-0.114,0.101-0.233v-0.588
					c0-0.097,0.175-0.097,0.175,0v0.588c0,0.162-0.087,0.373-0.205,0.415C398.75,308.468,398.741,308.471,398.732,308.471
					L398.732,308.471z"/>
			</g>
			<g clip-path="url(#SVGID_8_)">
				<path fill="#F0C726" d="M399.072,308.271c-0.048,0-0.088-0.039-0.088-0.088c0-0.102,0.02-0.244,0.039-0.381
					c0.017-0.125,0.032-0.247,0.032-0.338c0-0.097,0.175-0.097,0.175,0s-0.019,0.23-0.035,0.361
					c-0.017,0.131-0.034,0.261-0.034,0.357C399.16,308.232,399.12,308.271,399.072,308.271L399.072,308.271z"/>
			</g>
			<g clip-path="url(#SVGID_8_)">
				<path fill="#F0C726" d="M399.273,308.661c-0.027,0-0.052-0.015-0.069-0.034c-0.03-0.04-0.023-0.094,0.016-0.122
					c0.129-0.103,0.185-0.177,0.208-0.247c-0.039-0.025-0.067-0.061-0.092-0.088c-0.048-0.086-0.051-0.16-0.017-0.208
					c0.02-0.025,0.088-0.054,0.122-0.054c0.071,0.006,0.133,0.07,0.172,0.176c0.001,0.023,0.003,0.046,0.001,0.068
					c0.016,0.003,0.031,0.003,0.048,0.003c0.002,0,0.028-0.021,0.038-0.131c-0.033-0.02-0.055-0.054-0.055-0.099
					c0-0.049,0.068-0.143,0.116-0.143c0.04,0,0.092,0.062,0.109,0.111c0.028,0,0.068,0.002,0.121,0.002
					c0.145,0.065,0.408,0.062,0.457,0.025c0.159-0.027,0.22,0.077,0.22,0.262c0,0.014-0.038,0.125-0.045,0.137
					c-0.044,0.113-0.082,0.201-0.167,0.219c-0.086,0.008-0.153-0.051-0.209-0.105c-0.024-0.085-0.024-0.105-0.126-0.105h-0.458
					c-0.026,0-0.051,0-0.074-0.006c-0.033,0.098-0.105,0.199-0.261,0.318C399.311,308.652,399.292,308.661,399.273,308.661
					L399.273,308.661z M399.854,308.155h0.266c0.24,0,0.277,0.136,0.277,0.216c0.001,0,0.071-0.131,0.072-0.133
					c0.014-0.062,0.017-0.108,0.014-0.143c-0.155,0.054-0.419,0.025-0.534-0.037c-0.021,0.003-0.049,0.009-0.08,0.006
					C399.867,308.096,399.863,308.127,399.854,308.155L399.854,308.155z"/>
			</g>
			<g clip-path="url(#SVGID_8_)">
				<path fill="#F0C726" d="M400.84,308.328c-0.018,0-0.037-0.006-0.052-0.017c-0.056-0.011-0.097,0-0.122,0.006
					c-0.048,0-0.129-0.031-0.129-0.079c0-0.049-0.003-0.083,0.045-0.083v0.088l0.047-0.097c0.028-0.006,0.06-0.012,0.095-0.017
					c-0.007-0.091,0.03-0.147,0.058-0.177c0.057-0.057,0.141-0.07,0.216-0.039c0.08,0.033,0.129,0.11,0.129,0.201
					c0,0.137-0.197,0.213-0.284,0.213C400.843,308.328,400.842,308.328,400.84,308.328L400.84,308.328z"/>
			</g>
			<g clip-path="url(#SVGID_8_)">
				<path fill="#F0C726" d="M401.367,308.314c-0.025,0-0.052-0.006-0.074-0.014c-0.031-0.012-0.08-0.083-0.08-0.117
					c0.071-0.113,0.156-0.164,0.233-0.179c0.017-0.14,0.009-0.339-0.042-0.517c-0.012-0.046,0.017-0.094,0.062-0.105
					c0.051-0.015,0.094,0.014,0.107,0.06c0.049,0.179,0.071,0.421,0.043,0.604c0.02,0,0.131,0.049,0.142,0.049
					c0.062-0.006,0.091-0.028,0.1-0.145c-0.04-0.055-0.085-0.14-0.073-0.168c0.02-0.037,0.09-0.071,0.139-0.06
					c0.037,0.009,0.111,0.088,0.111,0.13c0,0.021,0,0.041,0,0.061c0,0.008,0,0.02,0,0.028c-0.012,0.255-0.08,0.329-0.276,0.329
					c-0.091,0.043-0.167,0.02-0.21-0.006c-0.003-0.006-0.009-0.008-0.012-0.014C401.483,308.295,401.424,308.314,401.367,308.314
					L401.367,308.314z"/>
			</g>
			<g clip-path="url(#SVGID_8_)">
				<path fill="#F0C726" d="M402.148,308.53c-0.02,0-0.043-0.009-0.061-0.025c-0.033-0.031-0.033-0.089,0-0.122
					c0.061-0.061,0.111-0.145,0.146-0.225c-0.147-0.086-0.171-0.182-0.171-0.232c0-0.037,0-0.151,0.088-0.186
					c0.092-0.031,0.174,0.04,0.25,0.125c0.108,0.193-0.042,0.492-0.189,0.64C402.193,308.521,402.171,308.53,402.148,308.53
					L402.148,308.53z"/>
			</g>
			<g clip-path="url(#SVGID_8_)">
				<path fill="#F0C726" d="M402.608,308.402c-0.037,0-0.068-0.022-0.083-0.057c-0.017-0.045,0.006-0.097,0.052-0.113
					c0.065-0.023,0.097-0.052,0.114-0.092c-0.137,0.009-0.188-0.059-0.205-0.121c-0.02-0.086,0.034-0.186,0.139-0.242
					c0.023-0.014,0.123-0.037,0.148-0.028c0.064,0.028,0.105,0.104,0.11,0.213c0.239-0.034,0.558-0.113,0.787-0.253
					c0.04-0.028,0.094-0.014,0.119,0.029c0.026,0.042,0.012,0.094-0.031,0.121c-0.278,0.168-0.628,0.242-0.884,0.271
					c-0.017,0.103-0.073,0.204-0.235,0.267C402.629,308.399,402.617,308.402,402.608,308.402L402.608,308.402z"/>
			</g>
			<g clip-path="url(#SVGID_8_)">
				<path fill="#F0C726" d="M403.393,308.155c-0.034,0-0.068-0.006-0.103-0.021c-0.048-0.073-0.085-0.158-0.113-0.252
					c-0.017,0.037-0.022,0.074-0.022,0.102c0,0.098-0.174,0.098-0.174,0c0-0.142,0.055-0.252,0.139-0.309
					c-0.002-0.015-0.005-0.035-0.011-0.052l-0.065-0.265c-0.012-0.045,0.014-0.094,0.06-0.107c0.054-0.014,0.097,0.014,0.108,0.062
					l0.068,0.27c0,0.009,0.006,0.02,0.006,0.029c0.036-0.01,0.096-0.006,0.156,0.02c0.099,0.039,0.161,0.125,0.161,0.221
					c0.04,0.049,0.028,0.156-0.04,0.229C403.518,308.13,403.455,308.155,403.393,308.155L403.393,308.155z"/>
			</g>
			<g clip-path="url(#SVGID_8_)">
				<path fill="#F0C726" d="M403.875,307.971c-0.116,0-0.207-0.057-0.241-0.159c-0.009-0.022-0.005-0.128,0.009-0.15
					c0.102-0.173,0.403-0.188,0.522-0.068c0.048,0.104,0.037,0.177-0.009,0.241C404.1,307.914,403.986,307.971,403.875,307.971
					L403.875,307.971z"/>
			</g>
			<g clip-path="url(#SVGID_8_)">
				<path fill="none" d="M404.105,307.724c0,0,0.128-0.071,0.199-0.128L404.105,307.724z"/>
			</g>
			<g clip-path="url(#SVGID_8_)">
				<path fill="#F0C726" d="M404.418,307.749c-0.043,0-0.076-0.011-0.105-0.025c-0.147-0.077-0.225-0.278-0.225-0.589
					c0-0.062-0.02-0.104-0.057-0.119c-0.054-0.022-0.133,0.003-0.182,0.051c-0.033,0.035-0.091,0.035-0.125,0
					c-0.033-0.033-0.033-0.088,0-0.121c0.1-0.103,0.256-0.143,0.373-0.092c0.104,0.046,0.164,0.146,0.164,0.281
					c0,0.271,0.068,0.401,0.134,0.436c0.022,0.012,0.054,0.014,0.085,0.006c0-0.006,0.003-0.015,0.006-0.023
					c0.02-0.033,0.113-0.137,0.159-0.119c0.037,0.012,0.077,0.122,0.077,0.162C404.592,307.715,404.492,307.749,404.418,307.749
					L404.418,307.749z"/>
			</g>
			<g clip-path="url(#SVGID_8_)">
				<path fill="none" d="M398.093,307.783h0.129H398.093z"/>
			</g>
			<g clip-path="url(#SVGID_8_)">
				<path fill="none" d="M398.552,307.854h0.062H398.552z"/>
			</g>
			<path clip-path="url(#SVGID_8_)" fill="#FFFFFF" d="M400.447,301.394l5.625,5.225l-0.398-9.486
				c-0.062-1.438-1.31-1.108-2.216-0.591c-0.921,0.591-1.969,0.591-3.078,0.202c-1.107,0.389-2.157,0.389-3.076-0.202
				c-0.908-0.517-2.158-0.847-2.216,0.591l-0.401,9.486L400.447,301.394z"/>
			<g clip-path="url(#SVGID_8_)">
				<path fill="#F0C726" d="M394.688,306.703c-0.011,0-0.024-0.002-0.037-0.008c-0.031-0.015-0.051-0.049-0.05-0.083l0.4-9.483
					c0.037-0.923,0.546-1.116,0.966-1.116c0.51,0,1.083,0.284,1.38,0.455c0.841,0.537,1.846,0.599,3.002,0.193
					c1.295,0.406,2.227,0.344,3.06-0.193c0.301-0.171,0.871-0.455,1.38-0.455c0.421,0,0.933,0.193,0.972,1.116l0.398,9.483
					c0,0.034-0.021,0.068-0.052,0.083c-0.031,0.014-0.071,0.011-0.097-0.015l-5.566-5.168l-5.699,5.168
					C394.731,306.695,394.709,306.703,394.688,306.703L394.688,306.703z M395.968,296.186c-0.507,0-0.766,0.312-0.792,0.949
					l-0.392,9.275l5.604-5.079c0.031-0.031,0.083-0.034,0.117,0l5.469,5.077l-0.389-9.273c-0.045-1.074-0.893-1.199-2.086-0.517
					c-0.875,0.56-1.938,0.633-3.149,0.208c-1.077,0.426-2.213,0.352-3.093-0.21C396.775,296.339,396.316,296.186,395.968,296.186
					L395.968,296.186z"/>
			</g>
			<path clip-path="url(#SVGID_8_)" fill="#FFFFFF" d="M401.299,297.072c0.318,0.188,0.65,0.188,0.85,0.188
				c-0.659-0.458-0.85-1.696-0.79-2.216c0.131-1.049-0.128-1.637-0.776-1.768c-0.132,0-0.202-0.068-0.462-0.068
				c-0.199-0.06-0.349,0.128-0.42,0.258c-0.199-0.13-0.368-0.06-0.557-0.19c-0.2-0.068-0.53,0-0.53,0.46l0.126-0.054
				c0.061,0.009,0.169,0.074,0.299,0.148c0.172,0.131,0.421,0.225,0.492,0.685c0.131,0.978,0,1.895-0.917,2.745
				c0.199,0,0.53,0,0.847-0.188c-0.128,0.188-0.187,0.258-0.317,0.386c0.388-0.068,0.72-0.199,0.908-0.517
				c0.069,0.131,0.258,0.318,0.33,0.449c0.069-0.131,0.26-0.318,0.33-0.449c0.189,0.318,0.521,0.449,0.907,0.517
				C401.489,297.331,401.43,297.26,401.299,297.072L401.299,297.072z"/>
			<g clip-path="url(#SVGID_8_)">
				<path fill="#F0C726" d="M398.897,297.589l0.188-0.188c0.051-0.048,0.089-0.088,0.126-0.131
					c-0.234,0.071-0.452,0.071-0.598,0.071h-0.209l0.153-0.142c0.78-0.719,1.047-1.52,0.892-2.674
					c-0.052-0.349-0.213-0.46-0.368-0.565l-0.092-0.068c-0.131-0.071-0.225-0.125-0.262-0.131l-0.196,0.1v-0.125
					c0-0.523,0.382-0.628,0.638-0.534c0.098,0.062,0.173,0.074,0.261,0.088c0.074,0.014,0.154,0.025,0.239,0.065
					c0.071-0.102,0.197-0.241,0.376-0.241c0.237,0.011,0.331,0.037,0.408,0.06c0.048,0.011,0.084,0.02,0.128,0.02
					c0.711,0.142,0.992,0.767,0.855,1.861c-0.06,0.537,0.143,1.71,0.759,2.136l0.214,0.151h-0.262c-0.145,0-0.363,0-0.597-0.071
					c0.034,0.042,0.073,0.083,0.125,0.134l0.185,0.182l-0.259-0.045c-0.296-0.054-0.658-0.156-0.891-0.455
					c-0.031,0.042-0.068,0.088-0.103,0.131c-0.062,0.077-0.124,0.15-0.158,0.213l-0.071,0.131l-0.071-0.131
					c-0.034-0.062-0.096-0.136-0.158-0.213c-0.035-0.043-0.071-0.088-0.102-0.131c-0.231,0.298-0.594,0.4-0.894,0.455
					L398.897,297.589L398.897,297.589z M400.707,296.777l0.074,0.125c0.121,0.202,0.305,0.335,0.6,0.42
					c-0.043-0.057-0.088-0.117-0.147-0.205l0.108-0.117c0.198,0.12,0.406,0.156,0.579,0.171c-0.552-0.56-0.699-1.648-0.642-2.134
					c0.125-1.012-0.108-1.56-0.714-1.682c-0.048,0.026-0.101-0.011-0.155-0.025c-0.074-0.02-0.156-0.034-0.309-0.042
					c-0.201,0-0.302,0.165-0.331,0.219l-0.042,0.077l-0.074-0.048c-0.085-0.057-0.165-0.068-0.251-0.083
					c-0.092-0.017-0.199-0.031-0.308-0.108c-0.05-0.011-0.327-0.094-0.391,0.264h0.001c0.112,0.003,0.2,0.054,0.321,0.12
					l0.146,0.096c0.166,0.117,0.372,0.259,0.438,0.679c0.102,0.764,0.098,1.747-0.794,2.67c0.176-0.011,0.393-0.051,0.601-0.173
					l0.109,0.117c-0.06,0.088-0.105,0.148-0.147,0.205c0.295-0.088,0.48-0.219,0.599-0.42l0.074-0.125l0.068,0.125
					c0.033,0.062,0.095,0.136,0.156,0.213c0.036,0.042,0.071,0.088,0.103,0.128c0.031-0.04,0.067-0.085,0.101-0.128
					c0.062-0.077,0.124-0.15,0.158-0.213L400.707,296.777L400.707,296.777z"/>
			</g>
			<g clip-path="url(#SVGID_8_)">
				<path fill="#F0C726" d="M401.342,297.217c-0.031,0-0.062-0.017-0.08-0.048c-0.191-0.372-0.38-0.787-0.38-1.344
					c0-0.097,0.176-0.097,0.176,0c0,0.517,0.17,0.895,0.36,1.267c0.022,0.042,0.006,0.094-0.04,0.116
					C401.367,297.217,401.353,297.217,401.342,297.217L401.342,297.217z"/>
			</g>
			<g clip-path="url(#SVGID_8_)">
				<path fill="#F0C726" d="M400.71,297.03c-0.028,0-0.057-0.014-0.074-0.04c-0.138-0.219-0.213-0.619-0.213-1.165
					c0-0.097,0.176-0.097,0.176,0c0,0.502,0.065,0.883,0.185,1.068c0.025,0.043,0.014,0.097-0.025,0.123
					C400.743,297.024,400.727,297.03,400.71,297.03L400.71,297.03z"/>
			</g>
			<g clip-path="url(#SVGID_8_)">
				<path fill="#F0C726" d="M399.42,297.217c-0.013,0-0.027,0-0.04-0.009c-0.043-0.022-0.06-0.074-0.037-0.116
					c0.182-0.355,0.359-0.745,0.359-1.267c0-0.097,0.175-0.097,0.175,0c0,0.565-0.188,0.974-0.379,1.347
					C399.482,297.203,399.451,297.217,399.42,297.217L399.42,297.217z"/>
			</g>
			<g clip-path="url(#SVGID_8_)">
				<path fill="#F0C726" d="M400.051,297.03c-0.017,0-0.033-0.006-0.048-0.014c-0.04-0.026-0.053-0.08-0.026-0.123
					c0.121-0.185,0.188-0.565,0.188-1.068c0-0.097,0.175-0.097,0.175,0c0,0.542-0.075,0.946-0.216,1.165
					C400.106,297.016,400.078,297.03,400.051,297.03L400.051,297.03z"/>
			</g>
			<path clip-path="url(#SVGID_8_)" fill="#F0C726" d="M398.656,293.677c0.138,0.008,0.199,0.057,0.383,0.153
				c0.129,0.068,0.421,0.225,0.492,0.625c-0.071-0.199,0.06-0.4,0.202-0.33C399.531,293.666,398.914,293.546,398.656,293.677
				L398.656,293.677z"/>
			<g clip-path="url(#SVGID_8_)">
				<path fill="#F0C726" d="M399.531,294.498c-0.017,0-0.033-0.011-0.039-0.028c0,0-0.001-0.003-0.001-0.006l0,0
					c-0.004-0.017-0.015-0.06-0.017-0.077v-0.002c-0.088-0.321-0.333-0.455-0.451-0.517l-0.074-0.085l-0.02,0.034
					c-0.118-0.062-0.173-0.094-0.277-0.1c0.054-0.113,0.146-0.13,0.25-0.13c0.307,0,0.709,0.162,0.867,0.522
					c0.005,0.011-0.024,0.02-0.033,0.031c-0.007,0.011-0.045,0.011-0.061,0.011h-0.001c-0.108,0.08-0.128,0.148-0.121,0.219
					c0,0.012-0.001,0.02-0.007,0.026c0.013,0.02,0.023,0.042,0.024,0.054c0.004,0.02-0.008,0.04-0.03,0.045
					C399.538,294.495,399.534,294.498,399.531,294.498L399.531,294.498z M398.796,293.677c0.051,0.003,0.104,0.028,0.173,0.068
					l0.094,0.051c0.106,0.057,0.312,0.17,0.432,0.415c0.013-0.029,0.028-0.057,0.048-0.077c0.037-0.043,0.083-0.062,0.131-0.062
					C399.537,293.782,399.072,293.629,398.796,293.677L398.796,293.677z"/>
			</g>
			<polygon clip-path="url(#SVGID_8_)" fill="#F0C726" points="400.64,302.434 401.43,306.027 401.168,306.285 400.899,306.087 
				400.45,302.883 400.64,306.087 400.38,306.416 400.12,306.087 400.309,302.883 399.86,306.087 399.59,306.285 399.332,306.027 
				400.12,302.434 			"/>
			<g clip-path="url(#SVGID_8_)">
				<path fill="#F0C726" d="M400.38,306.535l-0.317-0.402l0.081-1.543l-0.212,1.508l-0.297,0.25l-0.356-0.27l0.769-3.662
					l0.592-0.057l0.86,3.65l-0.278,0.33l-0.367-0.193l-0.231-1.576l0.09,1.514L400.38,306.535L400.38,306.535z M400.38,302.936
					l-0.186,3.157l0.183,0.207l0.205-0.259L400.38,302.936L400.38,302.936z M400.568,302.45l-0.448,0.058l-0.716,3.537l0.239,0.189
					l0.173-0.207l0.42-3.156l0.144,0.014l0.142-0.014l0.45,3.207l0.24,0.15l0.162-0.252L400.568,302.45L400.568,302.45z"/>
			</g>
			<path clip-path="url(#SVGID_8_)" fill="#F0C726" d="M395.736,296.802l-0.388,9.225l-0.661,0.591l0.401-9.486
				C395.276,297.001,395.606,296.802,395.736,296.802L395.736,296.802z"/>
			<path clip-path="url(#SVGID_8_)" fill="#F0C726" d="M396.526,297.458l-0.331,7.722l-0.659,0.673l0.401-8.912
				C396.067,297.072,396.455,297.391,396.526,297.458L396.526,297.458z"/>
			<path clip-path="url(#SVGID_8_)" fill="#F0C726" d="M397.245,298.05l-0.259,6.438l-0.531,0.517l0.331-7.344
				C396.914,297.791,397.174,297.979,397.245,298.05L397.245,298.05z"/>
			<path clip-path="url(#SVGID_8_)" fill="#F0C726" d="M398.023,298.379l-0.26,5.486l-0.519,0.42l0.259-6.105
				C397.634,298.24,397.893,298.379,398.023,298.379L398.023,298.379z"/>
			<path clip-path="url(#SVGID_8_)" fill="#F0C726" d="M398.742,298.379l-0.19,4.574l-0.528,0.518l0.199-5.032
				C398.353,298.439,398.684,298.439,398.742,298.379L398.742,298.379z"/>
			<path clip-path="url(#SVGID_8_)" fill="#F0C726" d="M405.023,296.802l0.389,9.225l0.66,0.591l-0.401-9.486
				C405.483,297.001,405.154,296.802,405.023,296.802L405.023,296.802z"/>
			<path clip-path="url(#SVGID_8_)" fill="#F0C726" d="M404.233,297.458l0.329,7.722l0.662,0.577l-0.4-8.816
				C404.693,297.072,404.305,297.391,404.233,297.458L404.233,297.458z"/>
			<path clip-path="url(#SVGID_8_)" fill="#F0C726" d="M403.515,298.05l0.272,6.438l0.518,0.421l-0.33-7.248
				C403.844,297.791,403.586,297.979,403.515,298.05L403.515,298.05z"/>
			<path clip-path="url(#SVGID_8_)" fill="#F0C726" d="M402.736,298.379l0.262,5.39l0.517,0.421l-0.259-6.009
				C403.129,298.24,402.867,298.379,402.736,298.379L402.736,298.379z"/>
			<path clip-path="url(#SVGID_8_)" fill="#F0C726" d="M402.018,298.379l0.19,4.574l0.528,0.518l-0.199-5.032
				C402.406,298.439,402.077,298.439,402.018,298.379L402.018,298.379z"/>
			<polygon clip-path="url(#SVGID_8_)" fill="#FFFFFF" points="398.613,300.856 397.045,306.416 399.203,306.746 400.12,302.564 			
				"/>
			<g clip-path="url(#SVGID_8_)">
				<path fill="#F0C726" d="M399.203,306.828c-0.004,0-0.008,0-0.011-0.002l-2.158-0.33c-0.022-0.003-0.044-0.018-0.057-0.037
					s-0.016-0.043-0.01-0.065l1.568-5.56c0.007-0.031,0.031-0.051,0.06-0.06c0.03-0.002,0.06,0.006,0.08,0.026l1.507,1.71
					l-0.899,4.254C399.273,306.803,399.241,306.828,399.203,306.828L399.203,306.828z M397.148,306.348l1.99,0.305l0.902-4.105
					l-1.39-1.528L397.148,306.348L397.148,306.348z"/>
			</g>
			<polygon clip-path="url(#SVGID_8_)" fill="#FFFFFF" points="402.148,300.856 403.713,306.416 401.561,306.746 400.64,302.564 			
				"/>
			<g clip-path="url(#SVGID_8_)">
				<path fill="#F0C726" d="M401.561,306.828c-0.04,0-0.071-0.025-0.08-0.064l-0.92-4.183l1.527-1.781
					c0.021-0.02,0.049-0.028,0.08-0.026c0.028,0.009,0.051,0.031,0.06,0.06l1.565,5.56c0.006,0.022,0.003,0.046-0.008,0.065
					c-0.015,0.02-0.035,0.034-0.058,0.037l-2.156,0.33C401.568,306.828,401.562,306.828,401.561,306.828L401.561,306.828z
					 M402.111,301.021l-1.41,1.597l0.922,4.037l1.988-0.308L402.111,301.021L402.111,301.021z"/>
			</g>
			<g clip-path="url(#SVGID_8_)">
				<path fill="#F0C726" d="M398.284,303.297c-0.006,0-0.012,0-0.016,0c-0.03-0.006-0.054-0.025-0.065-0.054l-0.189-0.458
					c-0.019-0.045,0.003-0.094,0.047-0.113c0.045-0.022,0.095,0.003,0.114,0.045l0.136,0.333l0.497-0.546
					c0.033-0.037,0.088-0.039,0.124-0.006c0.036,0.035,0.039,0.089,0.006,0.123l-0.589,0.65
					C398.331,303.289,398.308,303.297,398.284,303.297L398.284,303.297z"/>
			</g>
			<g clip-path="url(#SVGID_8_)">
				<path fill="#F0C726" d="M399.014,303.689c-0.008,0-0.016-0.004-0.022-0.006c-0.034-0.009-0.06-0.037-0.064-0.074l-0.202-1.826
					c-0.004-0.046,0.03-0.092,0.078-0.094c0.047-0.004,0.091,0.027,0.095,0.076l0.178,1.607l0.516-0.676
					c0.03-0.033,0.084-0.043,0.124-0.014c0.037,0.028,0.045,0.082,0.016,0.122l-0.647,0.849
					C399.066,303.675,399.041,303.689,399.014,303.689L399.014,303.689z"/>
			</g>
			<g clip-path="url(#SVGID_8_)">
				<path fill="#F0C726" d="M399.791,304.146c-0.034,0-0.068-0.02-0.081-0.055l-0.388-0.979c-0.018-0.042,0.003-0.094,0.048-0.11
					c0.044-0.023,0.095,0.002,0.112,0.048l0.388,0.978c0.019,0.043-0.003,0.096-0.048,0.113
					C399.812,304.146,399.801,304.146,399.791,304.146L399.791,304.146z"/>
			</g>
			<g clip-path="url(#SVGID_8_)">
				<path fill="#F0C726" d="M399.203,304.937c-0.007,0-0.014,0-0.021-0.003c-0.028-0.006-0.052-0.028-0.062-0.057l-0.267-0.855
					l-0.223,0.409c-0.016,0.028-0.05,0.065-0.08,0.046c-0.036,0-0.064-0.023-0.077-0.055l-0.223-0.534l-0.486,0.438
					c-0.037,0.027-0.091,0.027-0.122-0.006c-0.033-0.037-0.03-0.094,0.005-0.125l0.577-0.518c0.021-0.02,0.05-0.031,0.078-0.02
					c0.027,0.006,0.05,0.025,0.062,0.051l0.199,0.48l0.234-0.43c0.016-0.031,0.061-0.045,0.084-0.045
					c0.035,0.002,0.065,0.025,0.077,0.06l0.285,0.912l0.428-0.429c0.034-0.035,0.089-0.035,0.124,0c0.034,0.033,0.034,0.09,0,0.125
					l-0.53,0.527C399.248,304.928,399.226,304.937,399.203,304.937L399.203,304.937z"/>
			</g>
			<g clip-path="url(#SVGID_8_)">
				<path fill="#F0C726" d="M399.401,306.115c-0.04,0-0.077-0.028-0.085-0.07l-0.162-0.805l-0.402,0.512
					c-0.02,0.025-0.051,0.039-0.084,0.031c-0.031-0.006-0.058-0.029-0.068-0.057l-0.209-0.637l-0.358,0.46
					c-0.02,0.026-0.05,0.031-0.081,0.034c-0.03-0.003-0.056-0.022-0.068-0.054l-0.402-0.978c-0.019-0.045,0.003-0.097,0.047-0.113
					c0.045-0.023,0.095,0.002,0.114,0.045l0.345,0.842l0.368-0.473c0.019-0.022,0.055-0.033,0.083-0.031
					c0.031,0.006,0.058,0.029,0.068,0.057l0.208,0.637l0.419-0.533c0.021-0.026,0.054-0.041,0.088-0.029
					c0.034,0.009,0.058,0.034,0.065,0.068l0.2,0.988c0.008,0.049-0.021,0.094-0.07,0.103
					C399.413,306.112,399.409,306.115,399.401,306.115L399.401,306.115z"/>
			</g>
			<g clip-path="url(#SVGID_8_)">
				<path fill="#F0C726" d="M398.873,306.834c-0.008,0-0.017-0.003-0.024-0.003c-0.029-0.009-0.05-0.031-0.059-0.057l-0.2-0.608
					l-0.292,0.494c-0.017,0.029-0.05,0.061-0.083,0.043c-0.033-0.002-0.062-0.022-0.074-0.057l-0.273-0.71l-0.294,0.403
					c-0.028,0.037-0.085,0.045-0.122,0.018c-0.039-0.029-0.047-0.083-0.019-0.12l0.388-0.531c0.02-0.028,0.057-0.036,0.083-0.034
					c0.031,0.003,0.058,0.023,0.069,0.055l0.266,0.689l0.299-0.502c0.017-0.031,0.045-0.046,0.083-0.043
					c0.034,0.003,0.064,0.028,0.074,0.06l0.22,0.667l0.303-0.25c0.037-0.027,0.092-0.025,0.122,0.015
					c0.03,0.034,0.026,0.089-0.011,0.122l-0.4,0.33C398.912,306.826,398.893,306.834,398.873,306.834L398.873,306.834z"/>
			</g>
			<g clip-path="url(#SVGID_8_)">
				<path fill="#F0C726" d="M402.478,303.297c-0.025,0-0.048-0.008-0.065-0.025l-0.588-0.65c-0.031-0.034-0.028-0.088,0.006-0.123
					c0.034-0.033,0.091-0.031,0.125,0.006l0.494,0.546l0.137-0.333c0.017-0.042,0.068-0.067,0.113-0.045
					c0.045,0.02,0.065,0.068,0.049,0.113l-0.191,0.458c-0.011,0.028-0.036,0.048-0.064,0.054
					C402.486,303.297,402.483,303.297,402.478,303.297L402.478,303.297z"/>
			</g>
			<g clip-path="url(#SVGID_8_)">
				<path fill="#F0C726" d="M401.759,303.689c-0.025,0-0.051-0.012-0.068-0.035l-0.661-0.849c-0.03-0.04-0.022-0.094,0.016-0.122
					c0.037-0.031,0.092-0.023,0.123,0.014l0.525,0.68l0.168-1.611c0.003-0.049,0.049-0.08,0.097-0.076
					c0.046,0.002,0.082,0.045,0.077,0.094l-0.191,1.826c-0.002,0.034-0.027,0.065-0.062,0.074
					C401.775,303.686,401.768,303.689,401.759,303.689L401.759,303.689z"/>
			</g>
			<g clip-path="url(#SVGID_8_)">
				<path fill="#F0C726" d="M400.97,304.146c-0.011,0-0.021,0-0.033-0.006c-0.044-0.018-0.065-0.07-0.048-0.113l0.391-0.978
					c0.017-0.046,0.064-0.071,0.11-0.048c0.046,0.017,0.067,0.068,0.048,0.11l-0.387,0.979
					C401.037,304.127,401.004,304.146,400.97,304.146L400.97,304.146z"/>
			</g>
			<g clip-path="url(#SVGID_8_)">
				<path fill="#F0C726" d="M401.561,304.937c-0.023,0-0.046-0.009-0.062-0.026l-0.52-0.527c-0.034-0.037-0.034-0.092,0-0.125
					c0.033-0.035,0.09-0.035,0.123,0l0.41,0.42l0.222-0.898c0.009-0.033,0.037-0.059,0.071-0.064
					c0.033-0.006,0.068,0.012,0.088,0.039l0.299,0.449l0.204-0.494c0.011-0.025,0.034-0.045,0.062-0.051
					c0.028-0.009,0.057,0,0.077,0.02l0.59,0.518c0.035,0.031,0.04,0.085,0.006,0.121c-0.031,0.037-0.088,0.041-0.122,0.01
					l-0.497-0.438l-0.225,0.534c-0.012,0.031-0.039,0.051-0.07,0.055c-0.035,0-0.062-0.012-0.083-0.04l-0.278-0.421l-0.21,0.855
					c-0.009,0.028-0.031,0.054-0.062,0.062C401.574,304.937,401.568,304.937,401.561,304.937L401.561,304.937z"/>
			</g>
			<g clip-path="url(#SVGID_8_)">
				<path fill="#F0C726" d="M401.358,306.115c-0.006,0-0.012-0.003-0.017-0.003c-0.049-0.009-0.077-0.054-0.068-0.103l0.201-0.988
					c0.006-0.034,0.031-0.06,0.065-0.068c0.031-0.012,0.065,0.003,0.088,0.031l0.418,0.531l0.208-0.637
					c0.011-0.027,0.036-0.051,0.067-0.057c0.031-0.002,0.065,0.006,0.083,0.031l0.369,0.473l0.344-0.842
					c0.017-0.043,0.068-0.068,0.113-0.045c0.045,0.017,0.065,0.068,0.049,0.113l-0.4,0.978c-0.012,0.028-0.041,0.051-0.068,0.054
					c-0.031,0-0.062-0.008-0.083-0.034l-0.358-0.46l-0.209,0.637c-0.012,0.027-0.037,0.051-0.068,0.057
					c-0.029,0.008-0.062-0.006-0.083-0.031l-0.4-0.512l-0.165,0.805C401.436,306.087,401.398,306.115,401.358,306.115
					L401.358,306.115z"/>
			</g>
			<g clip-path="url(#SVGID_8_)">
				<path fill="#F0C726" d="M401.89,306.834c-0.021,0-0.04-0.008-0.057-0.02l-0.397-0.33c-0.041-0.033-0.043-0.088-0.015-0.122
					c0.031-0.04,0.085-0.042,0.122-0.015l0.305,0.25l0.219-0.667c0.011-0.031,0.039-0.057,0.073-0.06
					c0.031-0.003,0.068,0.012,0.085,0.043l0.296,0.502l0.267-0.689c0.012-0.031,0.037-0.052,0.068-0.055
					c0.025-0.002,0.062,0.006,0.082,0.034l0.39,0.531c0.028,0.037,0.021,0.091-0.021,0.12c-0.036,0.027-0.094,0.02-0.121-0.018
					l-0.293-0.403l-0.273,0.71c-0.014,0.034-0.042,0.055-0.073,0.057c-0.031,0.018-0.065-0.014-0.085-0.043l-0.29-0.49l-0.198,0.604
					c-0.01,0.025-0.031,0.048-0.061,0.057C401.906,306.831,401.898,306.834,401.89,306.834L401.89,306.834z"/>
			</g>
			<path clip-path="url(#SVGID_8_)" fill="#FFFFFF" d="M400.38,297.66c0.659,0.52,1.509,0.779,2.487,0.719
				c-0.071,2.287-0.719,3.855-2.487,5.031c-1.767-1.176-2.415-2.744-2.487-5.031C398.873,298.439,399.732,298.18,400.38,297.66
				L400.38,297.66z"/>
			<g clip-path="url(#SVGID_8_)">
				<path fill="#F0C726" d="M400.38,303.473c-0.013,0-0.024-0.002-0.034-0.008c-1.686-1.125-2.438-2.645-2.514-5.083
					c0.155-0.057,0.241-0.06,0.331-0.054l0,0c0.843,0,1.597-0.247,2.179-0.716c0.74,0.517,1.568,0.773,2.522,0.708
					c-0.012,2.5-0.762,4.021-2.45,5.146C400.403,303.471,400.392,303.473,400.38,303.473L400.38,303.473z M397.889,298.441
					c0.139,2.313,0.867,3.799,2.492,4.898c1.625-1.1,2.353-2.585,2.426-4.961c-0.027,0.068-0.119,0.071-0.207,0.071
					c-0.86,0-1.641-0.259-2.258-0.742c-0.528,0.483-1.308,0.742-2.179,0.742l0,0C398.073,298.45,397.981,298.447,397.889,298.441
					L397.889,298.441z"/>
			</g>
			<path clip-path="url(#SVGID_8_)" fill="#F0C726" d="M400.38,303.152c1.378-0.918,2.157-2.486,2.228-4.583
				c-0.85,0-1.709-0.19-2.228-0.647c-0.59,0.457-1.367,0.647-2.287,0.647C398.223,300.666,399.014,302.234,400.38,303.152
				L400.38,303.152z"/>
			<g clip-path="url(#SVGID_8_)">
				<path fill="#F0C726" d="M400.38,303.234c-0.017,0-0.033-0.006-0.045-0.014c-1.39-0.936-2.193-2.543-2.323-4.648
					c-0.001-0.022,0.007-0.042,0.023-0.06c0.014-0.017,0.037-0.025,0.058-0.025c0.96,0,1.692-0.208,2.236-0.631
					c0.031-0.023,0.074-0.023,0.105,0.003c0.451,0.4,1.243,0.628,2.174,0.628c0.022,0,0.042,0.008,0.057,0.025
					c0.017,0.014,0.026,0.037,0.026,0.06c-0.072,2.1-0.855,3.707-2.266,4.648C400.412,303.229,400.396,303.234,400.38,303.234
					L400.38,303.234z M398.18,298.649c0.141,1.986,0.901,3.509,2.201,4.407c1.319-0.903,2.057-2.424,2.143-4.407
					c-0.568-0.008-1.52-0.108-2.146-0.622C399.826,298.433,399.106,298.638,398.18,298.649L398.18,298.649z"/>
			</g>
			<path clip-path="url(#SVGID_8_)" fill="#FFFFFF" d="M398.153,306.416c0.531,0.071,1.121,0.131,1.58,0.071
				c0.259,0,0.446,0.446-0.071,0.517c-0.459,0.061-1.179,0-1.568-0.07c-0.33-0.057-1.048-0.188-1.509-0.315
				c-0.458-0.202-0.129-0.591,0.131-0.531C397.116,306.218,397.634,306.346,398.153,306.416L398.153,306.416z"/>
			<g clip-path="url(#SVGID_8_)">
				<path fill="#F0C726" d="M399.215,307.115c-0.42,0-0.874-0.045-1.136-0.094c-0.314-0.057-1.048-0.19-1.517-0.32
					c-0.31-0.135-0.304-0.33-0.287-0.406c0.034-0.168,0.208-0.302,0.386-0.302c0.345,0.097,0.881,0.253,1.503,0.335
					c0.411,0.057,1.078,0.134,1.557,0.074h0.001c0.185,0,0.341,0.147,0.354,0.324c0.01,0.147-0.091,0.324-0.402,0.366
					C399.538,307.109,399.38,307.115,399.215,307.115L399.215,307.115z M396.684,306.17c-0.121,0-0.222,0.076-0.239,0.158
					c-0.022,0.105,0.1,0.176,0.175,0.207c0.45,0.129,1.178,0.26,1.489,0.316c0.354,0.062,1.077,0.127,1.541,0.068
					c0.167-0.023,0.259-0.089,0.251-0.183c-0.004-0.077-0.078-0.161-0.169-0.161c-0.459,0.059-1.17-0.018-1.592-0.074
					c-0.635-0.086-1.182-0.244-1.452-0.332C396.687,306.17,396.686,306.17,396.684,306.17L396.684,306.17z"/>
			</g>
			<path clip-path="url(#SVGID_8_)" fill="#FFFFFF" d="M402.608,306.416c-0.531,0.071-1.119,0.131-1.569,0.071
				c-0.271,0-0.457,0.446,0.061,0.517c0.461,0.061,1.18,0,1.565-0.07c0.333-0.057,1.048-0.188,1.512-0.315
				c0.457-0.202,0.128-0.591-0.131-0.531C403.646,306.218,403.129,306.346,402.608,306.416L402.608,306.416z"/>
			<g clip-path="url(#SVGID_8_)">
				<path fill="#F0C726" d="M401.546,307.115c-0.165,0-0.324-0.006-0.458-0.022c-0.312-0.042-0.414-0.216-0.404-0.364
					c0.013-0.179,0.176-0.329,0.355-0.329c0.51,0.065,1.146-0.015,1.559-0.071c0.619-0.082,1.156-0.238,1.42-0.324
					c0.247-0.031,0.432,0.123,0.469,0.291c0.014,0.076,0.022,0.271-0.275,0.4c-0.483,0.136-1.217,0.27-1.529,0.326
					C402.418,307.07,401.967,307.115,401.546,307.115L401.546,307.115z M401.029,306.576c-0.086,0-0.165,0.088-0.17,0.164
					c-0.005,0.091,0.085,0.156,0.251,0.18c0.461,0.057,1.188-0.006,1.54-0.068c0.312-0.057,1.041-0.188,1.504-0.318
					c0.059-0.029,0.182-0.1,0.162-0.205c-0.018-0.082-0.123-0.158-0.217-0.158c-0.298,0.088-0.846,0.246-1.48,0.332
					C402.16,306.564,401.506,306.635,401.029,306.576L401.029,306.576z"/>
			</g>
			<path clip-path="url(#SVGID_8_)" fill="#FFFFFF" d="M396.526,306.158c-0.4-0.071-0.589,0.389-0.459,0.647
				c0.059-0.131,0.33-0.131,0.388-0.259C396.526,306.346,396.397,306.346,396.526,306.158L396.526,306.158z"/>
			<g clip-path="url(#SVGID_8_)">
				<path fill="#F0C726" d="M396.067,306.894c-0.034,0-0.064-0.02-0.078-0.048c-0.08-0.159-0.062-0.375,0.04-0.543
					c0.094-0.153,0.246-0.238,0.416-0.238c0.03,0.002,0.103,0.028,0.112,0.057c0.013,0.025,0.057,0.062,0.04,0.085
					c-0.051,0.077-0.047,0.1-0.04,0.142c0.007,0.049,0.019,0.117-0.02,0.229c-0.045,0.104-0.152,0.145-0.244,0.182
					c-0.062,0.025-0.132,0.051-0.146,0.085C396.133,306.874,396.11,306.899,396.067,306.894L396.067,306.894z M396.386,306.252
					c-0.125,0.028-0.181,0.096-0.209,0.142c-0.047,0.077-0.068,0.168-0.062,0.25c0.037-0.02,0.077-0.034,0.115-0.048
					c0.062-0.025,0.132-0.055,0.146-0.086c0.021-0.062,0.017-0.094,0.01-0.133C396.378,306.337,396.375,306.3,396.386,306.252
					L396.386,306.252z"/>
			</g>
			<path clip-path="url(#SVGID_8_)" fill="#FFFFFF" d="M398.093,307.363c0-0.26,0.26-0.229,0.26-0.486c0-0.131-0.069-0.33-0.2-0.33
				c-0.129,0-0.26,0.128-0.26,0.259C397.834,307.064,398.093,307.104,398.093,307.363L398.093,307.363z"/>
			<g clip-path="url(#SVGID_8_)">
				<path fill="#F0C726" d="M398.093,307.451c-0.048,0-0.087-0.04-0.087-0.088c0-0.092-0.041-0.146-0.092-0.211
					c-0.065-0.086-0.146-0.188-0.106-0.367c-0.003-0.158,0.166-0.326,0.345-0.326c0.196,0,0.289,0.247,0.289,0.418
					c0,0.168-0.093,0.25-0.161,0.307c-0.06,0.055-0.1,0.088-0.1,0.18C398.181,307.411,398.142,307.451,398.093,307.451
					L398.093,307.451z M398.153,306.633c-0.081,0-0.173,0.094-0.173,0.173c-0.024,0.116,0.014,0.165,0.072,0.239
					c0.016,0.021,0.034,0.042,0.051,0.07c0.021-0.022,0.042-0.043,0.062-0.062c0.061-0.051,0.101-0.085,0.101-0.176
					C398.267,306.764,398.206,306.633,398.153,306.633L398.153,306.633z"/>
			</g>
			<path clip-path="url(#SVGID_8_)" fill="#FFFFFF" d="M399.96,306.618c0.388,0,0.349,0.517,0.16,0.776
				c0-0.188-0.33-0.26-0.33-0.391C399.791,306.806,400.088,306.806,399.96,306.618L399.96,306.618z"/>
			<g clip-path="url(#SVGID_8_)">
				<path fill="#F0C726" d="M400.12,307.482c-0.008,0-0.019-0.004-0.027-0.006c-0.037-0.012-0.061-0.046-0.061-0.082
					c0-0.058-0.075-0.108-0.149-0.16c-0.088-0.059-0.18-0.125-0.18-0.23c0-0.13,0.089-0.201,0.148-0.25
					c-0.019-0.025-0.001-0.104,0.013-0.136c0.016-0.028,0.064-0.091,0.097-0.091c0.152,0,0.271,0.07,0.335,0.195
					c0.108,0.217,0.033,0.537-0.104,0.723C400.174,307.468,400.147,307.482,400.12,307.482L400.12,307.482z M400.076,306.732
					c-0.013,0.073-0.074,0.125-0.115,0.156c-0.052,0.045-0.083,0.07-0.083,0.115c0.007,0.021,0.068,0.062,0.104,0.086
					c0.048,0.031,0.101,0.068,0.144,0.113c0.054-0.142,0.064-0.304,0.016-0.4C400.123,306.771,400.104,306.749,400.076,306.732
					L400.076,306.732z"/>
			</g>
			<path clip-path="url(#SVGID_8_)" fill="#FFFFFF" d="M404.233,306.158c0.4-0.071,0.591,0.389,0.46,0.647
				c-0.06-0.131-0.329-0.131-0.389-0.259C404.233,306.346,404.364,306.346,404.233,306.158L404.233,306.158z"/>
			<g clip-path="url(#SVGID_8_)">
				<path fill="#F0C726" d="M404.693,306.894c-0.042-0.009-0.064-0.02-0.079-0.051c-0.017-0.034-0.085-0.06-0.147-0.085
					c-0.094-0.037-0.199-0.077-0.242-0.174c-0.039-0.119-0.031-0.188-0.022-0.236c0.009-0.042,0.011-0.064-0.04-0.142
					c-0.017-0.022-0.02-0.054-0.008-0.082c0.011-0.028,0.037-0.046,0.064-0.052c0.281-0.02,0.418,0.08,0.512,0.23
					c0.103,0.168,0.119,0.384,0.04,0.543C404.756,306.874,404.725,306.894,404.693,306.894L404.693,306.894z M404.373,306.243
					c0.014,0.052,0.008,0.091,0.002,0.134c-0.008,0.039-0.011,0.07,0.012,0.139c0.012,0.025,0.082,0.055,0.145,0.08
					c0.037,0.014,0.077,0.028,0.114,0.048c0.006-0.082-0.017-0.173-0.062-0.25C404.552,306.343,404.486,306.264,404.373,306.243
					L404.373,306.243z"/>
			</g>
			<path clip-path="url(#SVGID_8_)" fill="#FFFFFF" d="M402.665,307.363c0-0.26-0.259-0.229-0.259-0.486
				c0-0.131,0.071-0.33,0.202-0.33c0.128,0,0.259,0.128,0.259,0.259C402.927,307.064,402.665,307.104,402.665,307.363
				L402.665,307.363z"/>
			<g clip-path="url(#SVGID_8_)">
				<path fill="#F0C726" d="M402.665,307.451c-0.048,0-0.085-0.04-0.085-0.088c0-0.092-0.04-0.125-0.1-0.18
					c-0.068-0.057-0.162-0.139-0.162-0.307c0-0.171,0.092-0.418,0.29-0.418c0.179,0,0.347,0.168,0.347,0.347
					c0.037,0.159-0.043,0.261-0.107,0.347c-0.055,0.065-0.094,0.119-0.094,0.211C402.754,307.411,402.713,307.451,402.665,307.451
					L402.665,307.451z M402.608,306.633c-0.054,0-0.114,0.131-0.114,0.244c0,0.091,0.041,0.125,0.1,0.176
					c0.021,0.02,0.043,0.04,0.062,0.062c0.018-0.028,0.037-0.049,0.052-0.07c0.06-0.074,0.097-0.123,0.073-0.219
					C402.779,306.727,402.688,306.633,402.608,306.633L402.608,306.633z"/>
			</g>
			<path clip-path="url(#SVGID_8_)" fill="#FFFFFF" d="M400.801,306.618c-0.389,0-0.351,0.517-0.161,0.776
				c0-0.188,0.33-0.26,0.33-0.391C400.97,306.806,400.671,306.806,400.801,306.618L400.801,306.618z"/>
			<g clip-path="url(#SVGID_8_)">
				<path fill="#F0C726" d="M400.64,307.482c-0.027,0-0.054-0.015-0.071-0.037c-0.137-0.186-0.212-0.506-0.104-0.723
					c0.064-0.125,0.182-0.195,0.335-0.195c0.033,0,0.062,0.02,0.077,0.049c0.016,0.027,0.014,0.062-0.004,0.09
					c0.095,0.137,0.185,0.208,0.185,0.338c0,0.105-0.092,0.172-0.18,0.23c-0.075,0.052-0.15,0.103-0.15,0.16
					c0,0.036-0.024,0.07-0.06,0.082C400.657,307.479,400.649,307.482,400.64,307.482L400.64,307.482z M400.684,306.732
					c-0.027,0.017-0.048,0.039-0.064,0.07c-0.049,0.097-0.038,0.259,0.016,0.4c0.043-0.045,0.095-0.082,0.142-0.113
					c0.037-0.023,0.098-0.065,0.105-0.086c-0.001-0.045-0.031-0.07-0.085-0.115C400.758,306.857,400.697,306.806,400.684,306.732
					L400.684,306.732z"/>
			</g>
			<path clip-path="url(#SVGID_8_)" fill="#FFFFFF" d="M396.657,306.285c0.129,0,0.329,0.061,0.388,0.131L396.657,306.285z"/>
			<g clip-path="url(#SVGID_8_)">
				<path fill="#F0C726" d="M397.045,306.479c-0.006,0-0.013-0.002-0.019-0.006l-0.389-0.127c-0.027-0.012-0.045-0.04-0.042-0.068
					c0.006-0.028,0.031-0.051,0.062-0.051c0.129,0,0.358,0.057,0.436,0.15c0.017,0.02,0.017,0.051,0.003,0.074
					C397.084,306.468,397.064,306.479,397.045,306.479L397.045,306.479z"/>
			</g>
			<path clip-path="url(#SVGID_8_)" fill="#FFFFFF" d="M397.305,306.487c0.071,0,0.33,0.06,0.459,0.131L397.305,306.487z"/>
			<g clip-path="url(#SVGID_8_)">
				<path fill="#F0C726" d="M397.764,306.678c-0.004,0-0.011,0-0.016-0.003l-0.459-0.128c-0.031-0.008-0.048-0.037-0.044-0.068
					c0.013-0.11,0.361-0.02,0.548,0.083c0.027,0.017,0.039,0.048,0.027,0.077C397.811,306.664,397.788,306.678,397.764,306.678
					L397.764,306.678z"/>
			</g>
			<path clip-path="url(#SVGID_8_)" fill="#FFFFFF" d="M399.662,306.746c-0.131,0-0.388,0-0.459,0.06L399.662,306.746z"/>
			<g clip-path="url(#SVGID_8_)">
				<path fill="#F0C726" d="M399.203,306.865c-0.024,0-0.047-0.014-0.057-0.034c-0.01-0.025-0.003-0.054,0.017-0.071
					c0.072-0.062,0.246-0.073,0.499-0.073c0.033,0,0.06,0.022,0.061,0.054c0.003,0.034-0.021,0.062-0.053,0.065l-0.459,0.06
					C399.208,306.865,399.206,306.865,399.203,306.865L399.203,306.865z"/>
			</g>
			<path clip-path="url(#SVGID_8_)" fill="#FFFFFF" d="M398.943,306.746c-0.07-0.071-0.33-0.071-0.46,0H398.943z"/>
			<g clip-path="url(#SVGID_8_)">
				<path fill="#F0C726" d="M398.943,306.809h-0.46c-0.028,0-0.053-0.02-0.06-0.045c-0.007-0.029,0.006-0.058,0.03-0.072
					c0.117-0.059,0.376-0.146,0.534,0.012c0.017,0.018,0.022,0.046,0.013,0.065C398.991,306.791,398.968,306.809,398.943,306.809
					L398.943,306.809z"/>
			</g>
			<path clip-path="url(#SVGID_8_)" fill="#FFFFFF" d="M404.105,306.285c-0.131,0-0.318,0.061-0.393,0.131L404.105,306.285z"/>
			<g clip-path="url(#SVGID_8_)">
				<path fill="#F0C726" d="M403.713,306.479c-0.02,0-0.039-0.014-0.051-0.031c-0.014-0.022-0.012-0.057,0.012-0.076
					c0.088-0.086,0.295-0.145,0.432-0.145c0.031,0,0.055,0.022,0.06,0.051c0.006,0.028-0.011,0.057-0.04,0.068l-0.392,0.127
					C403.728,306.477,403.723,306.479,403.713,306.479L403.713,306.479z"/>
			</g>
			<path clip-path="url(#SVGID_8_)" fill="#FFFFFF" d="M403.458,306.487c-0.074,0-0.329,0.06-0.46,0.131L403.458,306.487z"/>
			<g clip-path="url(#SVGID_8_)">
				<path fill="#F0C726" d="M402.998,306.678c-0.025,0-0.049-0.014-0.057-0.039c-0.015-0.029,0-0.062,0.025-0.077
					c0.198-0.105,0.533-0.193,0.551-0.083c0.003,0.031-0.014,0.061-0.045,0.068l-0.461,0.128
					C403.006,306.678,403,306.678,402.998,306.678L402.998,306.678z"/>
			</g>
			<path clip-path="url(#SVGID_8_)" fill="#FFFFFF" d="M401.1,306.746c0.131,0,0.39,0,0.461,0.06L401.1,306.746z"/>
			<g clip-path="url(#SVGID_8_)">
				<path fill="#F0C726" d="M401.561,306.865c-0.004,0-0.006,0-0.009,0l-0.462-0.06c-0.032-0.003-0.055-0.031-0.053-0.065
					c0.002-0.031,0.029-0.054,0.062-0.054c0.253,0,0.426,0.011,0.5,0.073c0.02,0.018,0.025,0.046,0.018,0.071
					C401.605,306.852,401.583,306.865,401.561,306.865L401.561,306.865z"/>
			</g>
			<path clip-path="url(#SVGID_8_)" fill="#FFFFFF" d="M401.816,306.746c0.073-0.071,0.332-0.071,0.463,0H401.816z"/>
			<g clip-path="url(#SVGID_8_)">
				<path fill="#F0C726" d="M402.279,306.809h-0.463c-0.023,0-0.046-0.018-0.055-0.04c-0.012-0.022-0.006-0.048,0.014-0.067
					c0.162-0.154,0.421-0.068,0.531-0.01c0.026,0.015,0.037,0.043,0.031,0.072C402.33,306.789,402.307,306.809,402.279,306.809
					L402.279,306.809z"/>
			</g>
			<path clip-path="url(#SVGID_8_)" fill="#F0C726" d="M401.299,293.868c-0.131-0.33-0.363-0.591-0.681-0.651
				c-0.164-0.048-0.333-0.037-0.521-0.037c-0.202-0.057-0.364,0.156-0.435,0.287c0.199,0.142,0.246,0.284,0.348,0.33
				c0.199,0.071,0.299,0,0.501-0.188C400.71,293.407,401.168,293.467,401.299,293.868L401.299,293.868z"/>
			<g clip-path="url(#SVGID_8_)">
				<path fill="#F0C726" d="M400.147,293.865c-0.046,0-0.095-0.011-0.152-0.031c-0.06-0.023-0.099-0.074-0.146-0.131
					c-0.05-0.06-0.109-0.13-0.21-0.205c0.027-0.125,0.175-0.366,0.389-0.366l0.17,0.008c0.208-0.014,0.318,0.006,0.432,0.037
					c0.269,0.051,0.502,0.25,0.657,0.56c-0.258-0.179-0.583-0.267-0.748-0.1C400.392,293.774,400.287,293.865,400.147,293.865
					L400.147,293.865z M400.076,293.223c-0.192,0-0.31,0.136-0.378,0.261c0.097,0.028,0.161,0.105,0.213,0.167
					c0.042,0.048,0.075,0.088,0.114,0.108c0.17,0.057,0.249,0.014,0.457-0.182c0.145-0.147,0.435-0.156,0.623-0.031
					c-0.154-0.15-0.317-0.255-0.495-0.29c-0.108-0.031-0.214-0.034-0.315-0.034h-0.199
					C400.089,293.223,400.083,293.223,400.076,293.223L400.076,293.223z"/>
			</g>
			<path clip-path="url(#SVGID_8_)" fill="#FFFFFF" d="M400.051,293.362c-0.129,0-0.129,0.199,0,0.199
				C400.179,293.561,400.179,293.362,400.051,293.362L400.051,293.362z"/>
			<g clip-path="url(#SVGID_8_)">
				<path fill="#FFFFFF" d="M400.051,293.649c-0.105,0-0.185-0.083-0.185-0.188c0-0.213,0.368-0.213,0.368,0
					C400.234,293.566,400.154,293.649,400.051,293.649L400.051,293.649z"/>
			</g>
			<path clip-path="url(#SVGID_8_)" fill="#FFFFFF" d="M401.182,298.356v4.114c-0.236,0.258-0.506,0.482-0.801,0.682
				c-0.294-0.199-0.565-0.424-0.801-0.682v-4.125c0.294-0.105,0.565-0.248,0.801-0.423
				C400.604,298.109,400.875,298.251,401.182,298.356L401.182,298.356z"/>
		</g>
	</g>
</g>
</svg>
