<?xml version="1.0" encoding="utf-8"?>
<!-- Generator: Adobe Illustrator 16.0.0, SVG Export Plug-In . SVG Version: 6.00 Build 0)  -->
<!DOCTYPE svg PUBLIC "-//W3C//DTD SVG 1.1//EN" "http://www.w3.org/Graphics/SVG/1.1/DTD/svg11.dtd">
<svg version="1.1" id="name" xmlns="http://www.w3.org/2000/svg" xmlns:xlink="http://www.w3.org/1999/xlink" x="0px" y="0px"
	 width="85.713px" height="50px" viewBox="358 276 85.713 50" enable-background="new 358 276 85.713 50" xml:space="preserve">
<g id="eh">
	<g>
		<defs>
			<rect id="SVGID_1_" x="358" y="276" width="85.713" height="50"/>
		</defs>
		<clipPath id="SVGID_2_">
			<use xlink:href="#SVGID_1_"  overflow="visible"/>
		</clipPath>
		<rect x="358" y="276" clip-path="url(#SVGID_2_)" fill="#010101" width="85.713" height="16.666"/>
		<rect x="358" y="309.334" clip-path="url(#SVGID_2_)" fill="#36823E" width="85.713" height="16.666"/>
		<rect x="358" y="292.666" clip-path="url(#SVGID_2_)" fill="#FFFFFF" width="85.713" height="16.668"/>
		<polygon clip-path="url(#SVGID_2_)" fill="#BA2025" points="358.003,276 358,276.256 358,326 391.334,301.061 		"/>
		<g clip-path="url(#SVGID_2_)">
			<defs>
				<rect id="SVGID_3_" x="358" y="276" width="85.713" height="50"/>
			</defs>
			<clipPath id="SVGID_4_">
				<use xlink:href="#SVGID_3_"  overflow="visible"/>
			</clipPath>
			<path clip-path="url(#SVGID_4_)" fill="#BA2025" d="M408,294.354c3.671,0,6.646,2.975,6.646,6.645
				c0,3.673-2.976,6.648-6.646,6.648s-6.648-2.975-6.648-6.648C401.352,297.328,404.329,294.354,408,294.354"/>
			<path clip-path="url(#SVGID_4_)" fill="#FFFFFF" d="M410.54,294.354c3.671,0,6.646,2.975,6.646,6.645
				c0,3.673-2.975,6.648-6.646,6.648c-3.672,0-6.648-2.975-6.648-6.648C403.892,297.328,406.868,294.354,410.54,294.354"/>
			<polygon clip-path="url(#SVGID_4_)" fill="#BA2025" points="406.21,305.035 409.051,303.004 411.872,305.066 410.818,301.737 
				413.652,299.692 410.159,299.663 409.088,296.336 407.982,299.652 404.488,299.641 407.301,301.717 			"/>
		</g>
	</g>
</g>
</svg>
