<?xml version="1.0" encoding="utf-8"?>
<!-- Generator: Adobe Illustrator 16.0.0, SVG Export Plug-In . SVG Version: 6.00 Build 0)  -->
<!DOCTYPE svg PUBLIC "-//W3C//DTD SVG 1.1//EN" "http://www.w3.org/Graphics/SVG/1.1/DTD/svg11.dtd">
<svg version="1.1" id="name" xmlns="http://www.w3.org/2000/svg" xmlns:xlink="http://www.w3.org/1999/xlink" x="0px" y="0px"
	 width="85.708px" height="50px" viewBox="358 276 85.708 50" enable-background="new 358 276 85.708 50" xml:space="preserve">
<g id="et">
	<g>
		<defs>
			<rect id="SVGID_1_" x="358" y="276" width="85.708" height="50"/>
		</defs>
		<clipPath id="SVGID_2_">
			<use xlink:href="#SVGID_1_"  overflow="visible"/>
		</clipPath>
		<rect x="358" y="276" clip-path="url(#SVGID_2_)" fill="#D03733" width="85.708" height="50"/>
		<rect x="358" y="276" clip-path="url(#SVGID_2_)" fill="#F2DD31" width="85.708" height="33.334"/>
		<rect x="358" y="276" clip-path="url(#SVGID_2_)" fill="#2E6D42" width="85.708" height="16.668"/>
		<g clip-path="url(#SVGID_2_)">
			<defs>
				<rect id="SVGID_3_" x="358" y="276" width="85.708" height="50"/>
			</defs>
			<clipPath id="SVGID_4_">
				<use xlink:href="#SVGID_3_"  overflow="visible"/>
			</clipPath>
			<path clip-path="url(#SVGID_4_)" fill="#4DA2D6" d="M413.355,301.002c0,6.903-5.598,12.5-12.501,12.5
				c-6.902,0-12.498-5.597-12.498-12.5c0-6.904,5.596-12.501,12.498-12.501C407.758,288.5,413.355,294.098,413.355,301.002
				L413.355,301.002z"/>
			<path clip-path="url(#SVGID_4_)" fill="#F2DD31" d="M391.346,297.874h7.264l1.643-5.057l0.438,1.35l-2.385,7.347l-0.711-0.517
				l0.744-2.29h-5.846L391.346,297.874z M394.977,309.053l2.246-6.909l-4.303-3.125h1.42l6.248,4.54l-0.709,0.518l-1.947-1.418
				l-1.809,5.562L394.977,309.053L394.977,309.053z M406.732,309.053l-5.878-4.27l-4.297,3.125l0.436-1.35l6.251-4.54l0.266,0.833
				l-1.945,1.417l4.729,3.435L406.732,309.053L406.732,309.053z M410.363,297.874l-5.875,4.27l1.643,5.058l-1.148-0.836
				l-2.387-7.347h0.875l0.744,2.292l4.734-3.437H410.363L410.363,297.874z M400.854,290.961l2.246,6.913h5.318l-1.148,0.833h-7.724
				l0.271-0.833h2.408l-1.808-5.563L400.854,290.961z"/>
			<path clip-path="url(#SVGID_4_)" fill="#010101" d="M400.854,305.587v5.415V305.587z M396.499,302.419l-5.152,1.673
				L396.499,302.419z M398.161,297.294l-3.184-4.381L398.161,297.294z M403.547,297.294l3.186-4.381L403.547,297.294z
				 M405.213,302.419l5.15,1.673L405.213,302.419z"/>
			<g clip-path="url(#SVGID_4_)">
				<path fill="#F2DD31" d="M401.064,311.002h-0.417v-5.415h0.417V311.002L401.064,311.002z M410.301,304.289l-5.154-1.671
					l0.131-0.397l5.15,1.673L410.301,304.289L410.301,304.289z M391.409,304.289l-0.129-0.396l5.152-1.673l0.129,0.397
					L391.409,304.289L391.409,304.289z M403.715,297.416l-0.334-0.244l3.184-4.381l0.336,0.245L403.715,297.416L403.715,297.416z
					 M397.995,297.416l-3.184-4.381l0.334-0.245l3.186,4.381L397.995,297.416L397.995,297.416z"/>
			</g>
		</g>
	</g>
</g>
</svg>
