<?xml version="1.0" encoding="utf-8"?>
<!-- Generator: Adobe Illustrator 16.0.0, SVG Export Plug-In . SVG Version: 6.00 Build 0)  -->
<!DOCTYPE svg PUBLIC "-//W3C//DTD SVG 1.1//EN" "http://www.w3.org/Graphics/SVG/1.1/DTD/svg11.dtd">
<svg version="1.1" id="name" xmlns="http://www.w3.org/2000/svg" xmlns:xlink="http://www.w3.org/1999/xlink" x="0px" y="0px"
	 width="85.708px" height="50px" viewBox="358 276 85.708 50" enable-background="new 358 276 85.708 50" xml:space="preserve">
<g id="eur">
	<g>
		<defs>
			<rect id="SVGID_1_" x="358" y="276" width="85.708" height="50"/>
		</defs>
		<clipPath id="SVGID_2_">
			<use xlink:href="#SVGID_1_"  overflow="visible"/>
		</clipPath>
		<rect x="358" y="276" clip-path="url(#SVGID_2_)" fill="#2A388F" width="85.708" height="50"/>
		<polygon clip-path="url(#SVGID_2_)" fill="#F5CB29" points="400.856,281.557 400.233,283.475 398.213,283.475 399.846,284.662 
			399.221,286.583 400.856,285.396 402.488,286.583 401.863,284.662 403.496,283.475 401.477,283.475 		"/>
		<polygon clip-path="url(#SVGID_2_)" fill="#F5CB29" points="401.477,316.809 400.856,314.889 400.233,316.809 398.213,316.809 
			399.846,317.996 399.221,319.914 400.856,318.729 402.488,319.914 401.863,317.996 403.496,316.809 		"/>
		<polygon clip-path="url(#SVGID_2_)" fill="#F5CB29" points="384.19,302.064 385.821,303.248 385.198,301.328 386.833,300.144 
			384.811,300.144 384.19,298.223 383.565,300.144 381.547,300.144 383.18,301.328 382.555,303.248 		"/>
		<polygon clip-path="url(#SVGID_2_)" fill="#F5CB29" points="392.522,283.79 391.901,285.711 389.879,285.711 391.514,286.896 
			390.891,288.816 392.522,287.629 394.157,288.816 393.532,286.896 395.165,285.711 393.147,285.711 		"/>
		<polygon clip-path="url(#SVGID_2_)" fill="#F5CB29" points="386.422,289.891 385.797,291.811 383.78,291.811 385.411,292.998 
			384.79,294.916 386.422,293.73 388.057,294.916 387.432,292.998 389.063,291.811 387.045,291.811 		"/>
		<polygon clip-path="url(#SVGID_2_)" fill="#F5CB29" points="387.047,308.477 386.422,306.559 385.797,308.477 383.78,308.477 
			385.411,309.664 384.79,311.582 386.422,310.396 388.057,311.582 387.432,309.664 389.063,308.477 		"/>
		<polygon clip-path="url(#SVGID_2_)" fill="#F5CB29" points="393.147,314.579 392.522,312.658 391.901,314.579 389.879,314.579 
			391.514,315.764 390.889,317.684 392.522,316.496 394.157,317.684 393.532,315.764 395.165,314.579 		"/>
		<polygon clip-path="url(#SVGID_2_)" fill="#F5CB29" points="420.166,300.144 418.146,300.144 417.521,298.223 416.898,300.144 
			414.879,300.144 416.512,301.328 415.887,303.248 417.521,302.064 419.154,303.248 418.529,301.328 		"/>
		<polygon clip-path="url(#SVGID_2_)" fill="#F5CB29" points="409.188,283.79 408.566,285.711 406.549,285.711 408.18,286.896 
			407.557,288.816 409.188,287.629 410.82,288.816 410.199,286.896 411.83,285.711 409.812,285.711 		"/>
		<polygon clip-path="url(#SVGID_2_)" fill="#F5CB29" points="414.279,292.998 413.656,294.916 415.287,293.73 416.922,294.916 
			416.299,292.998 417.93,291.811 415.912,291.811 415.287,289.891 414.666,291.811 412.648,291.811 		"/>
		<polygon clip-path="url(#SVGID_2_)" fill="#F5CB29" points="415.912,308.477 415.287,306.559 414.666,308.477 412.648,308.477 
			414.279,309.664 413.656,311.582 415.287,310.396 416.922,311.582 416.299,309.664 417.93,308.477 		"/>
		<polygon clip-path="url(#SVGID_2_)" fill="#F5CB29" points="409.812,314.579 409.188,312.658 408.566,314.579 406.549,314.579 
			408.18,315.764 407.557,317.684 409.188,316.496 410.82,317.684 410.199,315.764 411.83,314.579 		"/>
	</g>
</g>
</svg>
