<?xml version="1.0" encoding="utf-8"?>
<!-- Generator: Adobe Illustrator 16.0.0, SVG Export Plug-In . SVG Version: 6.00 Build 0)  -->
<!DOCTYPE svg PUBLIC "-//W3C//DTD SVG 1.1//EN" "http://www.w3.org/Graphics/SVG/1.1/DTD/svg11.dtd">
<svg version="1.1" id="name" xmlns="http://www.w3.org/2000/svg" xmlns:xlink="http://www.w3.org/1999/xlink" x="0px" y="0px"
	 width="85.717px" height="50px" viewBox="358 276 85.717 50" enable-background="new 358 276 85.717 50" xml:space="preserve">
<g id="fj">
	<g>
		<defs>
			<rect id="SVGID_1_" x="358" y="276" width="85.717" height="50"/>
		</defs>
		<clipPath id="SVGID_2_">
			<use xlink:href="#SVGID_1_"  overflow="visible"/>
		</clipPath>
		<rect x="358" y="276" clip-path="url(#SVGID_2_)" fill="#6EB3DD" width="85.717" height="50"/>
		<g clip-path="url(#SVGID_2_)">
			<defs>
				<rect id="SVGID_3_" x="358" y="276" width="85.717" height="50"/>
			</defs>
			<clipPath id="SVGID_4_">
				<use xlink:href="#SVGID_3_"  overflow="visible"/>
			</clipPath>
			<path clip-path="url(#SVGID_4_)" fill="#FFFFFF" d="M414.396,291.896v10.644c0.216,6.563,3.512,8.913,8.112,10.842
				c5.271-2.327,7.949-5.188,7.949-10.842v-10.644H414.396z"/>
			<g clip-path="url(#SVGID_4_)">
				<path fill="#010101" d="M422.509,313.479l-0.034-0.014c-4.887-2.052-7.957-4.595-8.164-10.922v-10.731h16.232v10.729
					c0,5.315-2.242,8.379-8,10.922L422.509,313.479L422.509,313.479z M414.482,291.982v10.558c0.205,6.248,3.097,8.677,8.025,10.751
					c5.656-2.509,7.864-5.525,7.864-10.751v-10.558H414.482L414.482,291.982z"/>
			</g>
			<path clip-path="url(#SVGID_4_)" fill="#C01F3F" d="M414.393,302.361c0,0,0.018,1.369,0.378,3.091l15.351-0.009
				c0.342-1.534,0.381-3.082,0.381-3.082H414.393z"/>
			<path clip-path="url(#SVGID_4_)" fill="#C01F3F" d="M420.881,297.017l0.004,15.559c0.759,0.378,1.729,0.81,1.729,0.81
				s0.646-0.418,1.359-0.775l-0.005-15.593H420.881z"/>
			<rect x="358" y="276" clip-path="url(#SVGID_4_)" fill="#262D65" width="42.951" height="21.477"/>
			<polygon clip-path="url(#SVGID_4_)" fill="#FFFFFF" points="358,276 358,278.401 396.148,297.477 400.951,297.477 
				400.951,295.073 362.802,276 			"/>
			<polygon clip-path="url(#SVGID_4_)" fill="#FFFFFF" points="400.951,276 400.951,278.401 362.802,297.477 358,297.477 
				358,295.073 396.148,276 			"/>
			<rect x="375.896" y="276" clip-path="url(#SVGID_4_)" fill="#FFFFFF" width="7.158" height="21.477"/>
			<rect x="358" y="283.157" clip-path="url(#SVGID_4_)" fill="#FFFFFF" width="42.951" height="7.16"/>
			<rect x="358" y="284.589" clip-path="url(#SVGID_4_)" fill="#BD1F34" width="42.951" height="4.296"/>
			<rect x="377.327" y="276" clip-path="url(#SVGID_4_)" fill="#BD1F34" width="4.295" height="21.477"/>
			<polygon clip-path="url(#SVGID_4_)" fill="#C01F3F" points="358,297.477 372.316,290.317 375.518,290.317 361.201,297.477 			"/>
			<polygon clip-path="url(#SVGID_4_)" fill="#C01F3F" points="358,276 372.316,283.157 369.116,283.157 358,277.6 			"/>
			<polygon clip-path="url(#SVGID_4_)" fill="#C01F3F" points="383.433,283.157 397.75,276 400.951,276 386.633,283.157 			"/>
			<polygon clip-path="url(#SVGID_4_)" fill="#C01F3F" points="400.951,297.477 386.633,290.317 389.834,290.317 400.951,295.875 
							"/>
			<rect x="414.373" y="291.851" clip-path="url(#SVGID_4_)" fill="#C01F3F" width="16.107" height="5.739"/>
			<path clip-path="url(#SVGID_4_)" fill="#F3EDEB" d="M415.248,294.542h0.008c0.281,0,0.511,0.298,0.511,0.665v0.012
				c0,0.366-0.229,0.665-0.511,0.665h-0.008c-0.281,0-0.509-0.298-0.509-0.665v-0.012
				C414.739,294.84,414.967,294.542,415.248,294.542L415.248,294.542z"/>
			<g clip-path="url(#SVGID_4_)">
				<path fill="#010101" d="M415.256,295.892h-0.008c-0.285,0-0.518-0.301-0.518-0.673c0-0.381,0.232-0.682,0.518-0.682
					c0.295,0,0.528,0.301,0.528,0.67C415.776,295.59,415.543,295.892,415.256,295.892L415.256,295.892z M415.256,294.553
					c-0.283,0-0.508,0.292-0.508,0.653c0,0.373,0.225,0.668,0.5,0.668h0.008c0.276,0,0.5-0.295,0.5-0.656
					C415.756,294.846,415.532,294.553,415.256,294.553L415.256,294.553z"/>
			</g>
			<path clip-path="url(#SVGID_4_)" fill="#F5D02C" d="M427.039,294.189c0,0,0.926-0.06,1.25-0.378
				c0.327-0.318-0.219-0.895,0.128-0.955c0.14-0.011,0.339,0.028,0.489,0.188c-0.025-0.119-0.117-0.188-0.15-0.258
				c-0.129-0.1-0.256-0.088-0.442-0.088c-0.128,0.02-0.152-0.02-0.359-0.23c-0.105-0.1-0.105-0.347-0.022-0.514
				c-0.244,0.159-0.197,0.375-0.174,0.426c0.057,0.219,0.113,0.278,0.113,0.378c-0.068-0.031-0.195-0.29-0.855-0.327
				c-0.661-0.042-2.332,0.395-3.085,0.395s-1.843-0.267-1.843-0.267s0.277-0.19-0.059-0.27c-0.334-0.08-1.076,0.281-1.286,0.079
				c-0.151-0.188-0.094-0.147-0.116-0.238c-0.057,0.031-0.092,0.15-0.012,0.31c0.082,0.159,0.128,0.108,0.116,0.108
				c-0.011,0-0.267,0-0.29,0.08c-0.023,0.06-0.059,0.131,0.07,0.35c0.047-0.219-0.129-0.25,0.254-0.27
				c0.384-0.02,0.649,0.13,0.975,0.179c0.324,0.048,0.324-0.116,0.336-0.111c0.012,0.012,0.996,0.242,1.9,0.19
				c0.906-0.048,2.366-0.477,3.039-0.386c0.672,0.088,1.111,0.506,1.123,0.895c-0.012,0.239-0.301,0.358-0.533,0.397
				c-0.276,0.037-0.928,0.1-0.928,0.1L427.039,294.189z"/>
			<g clip-path="url(#SVGID_4_)">
				<path fill="#010101" d="M427.036,294.198l-0.003-0.003l-0.357-0.219c0.002-0.014,0.652-0.077,0.929-0.114
					c0.119-0.023,0.515-0.111,0.526-0.389c-0.01-0.367-0.432-0.795-1.117-0.887c-0.384-0.051-1.043,0.071-1.681,0.188
					c-0.476,0.088-0.97,0.179-1.355,0.199c-0.899,0.048-1.856-0.17-1.905-0.19c0.119,0.014,1.052,0.222,1.904,0.173
					c0.385-0.02,0.877-0.111,1.354-0.199c0.639-0.117,1.3-0.242,1.687-0.188c0.722,0.096,1.12,0.537,1.13,0.903
					c-0.014,0.29-0.416,0.384-0.539,0.406c-0.278,0.037-0.928,0.097-0.928,0.097l0.361,0.205c0.053-0.003,0.933-0.074,1.244-0.378
					c0.163-0.159,0.101-0.384,0.047-0.583c-0.034-0.131-0.065-0.244-0.023-0.312c0.021-0.031,0.057-0.051,0.108-0.06
					c0.118-0.003,0.328,0.017,0.495,0.19c-0.03-0.068-0.074-0.125-0.111-0.173c-0.156-0.154-0.262-0.159-0.398-0.159l-0.141-0.006
					v0.009c-0.08,0-0.126-0.043-0.258-0.179c-0.168-0.162-0.159-0.417-0.081-0.583c-0.216,0.159-0.188,0.367-0.159,0.429
					c0.028,0.102,0.054,0.17,0.076,0.222c0.023,0.06,0.04,0.105,0.04,0.159c-0.153-0.117-0.338-0.29-0.864-0.321
					c-0.423,0.037-1.023,0.1-1.58,0.196c-0.562,0.102-1.145,0.202-1.505,0.202c-0.745,0-1.833-0.264-1.844-0.267
					c-0.003-0.017,0.114-0.097,0.099-0.17c-0.006-0.043-0.061-0.077-0.158-0.1c-0.135-0.031-0.375,0.017-0.597,0.065
					c-0.293,0.065-0.589,0.111-0.693,0.014c-0.11-0.139-0.11-0.159-0.11-0.193c-0.049-0.014-0.086,0.091-0.004,0.253
					c0.035,0.071,0.062,0.097,0.08,0.105c-0.148,0.02-0.242,0.048-0.253,0.088c-0.025,0.062-0.054,0.133,0.068,0.341
					c0-0.062-0.009-0.111-0.013-0.148c0.007-0.02,0.013-0.034,0.021-0.048c0,0.091,0.006,0.14-0.009,0.202
					c-0.141-0.213-0.11-0.287-0.085-0.347c0.02-0.071,0.174-0.085,0.264-0.088c-0.031,0-0.06-0.04-0.091-0.096
					c-0.085-0.174-0.042-0.29,0.017-0.321c0.02,0.091,0.02,0.108,0.125,0.239c0.099,0.097,0.39,0.048,0.68-0.014
					c0.225-0.051,0.466-0.1,0.605-0.068c0.102,0.025,0.16,0.065,0.17,0.117c0.015,0.082-0.102,0.162-0.111,0.167h0.004
					c0.054,0,1.107,0.253,1.835,0.253c0.36,0,0.94-0.103,1.502-0.199c0.558-0.096,1.134-0.202,1.49-0.202
					c0.626,0.034,0.813,0.21,0.903,0.293c0.038-0.003,0.022-0.043-0.003-0.105c-0.021-0.054-0.048-0.119-0.073-0.221
					c-0.03-0.062-0.062-0.282,0.176-0.438c-0.072,0.19-0.062,0.423,0.033,0.517c0.188,0.19,0.229,0.23,0.303,0.23l0.141-0.003
					c0.14,0,0.248,0.006,0.357,0.091c0.092,0.128,0.138,0.182,0.153,0.264c-0.175-0.165-0.376-0.182-0.458-0.182
					c-0.082,0.011-0.113,0.028-0.132,0.054c-0.04,0.065-0.009,0.173,0.026,0.301c0.052,0.193,0.117,0.432-0.055,0.6
					c-0.322,0.315-1.247,0.381-1.256,0.381H427.036L427.036,294.198z M421.85,292.902c-0.033,0-0.07-0.003-0.111-0.008
					c-0.119-0.017-0.23-0.048-0.342-0.083c-0.174-0.048-0.352-0.097-0.56-0.097c-0.162,0.006-0.239,0.012-0.278,0.026
					c0.039-0.029,0.102-0.037,0.207-0.04c0.27-0.014,0.462,0.048,0.635,0.097c0.111,0.031,0.223,0.062,0.34,0.083
					c0.258,0.034,0.307-0.062,0.32-0.097c0.004,0,0.006,0,0.01,0C422.061,292.823,422.024,292.902,421.85,292.902L421.85,292.902z"
					/>
			</g>
			<path clip-path="url(#SVGID_4_)" fill="#F5D02C" d="M425.999,294.417c-0.011,0-0.618,0.014-0.798,0.341
				c-0.181,0.327-0.26,0.642-0.249,0.642c0.013,0,0.405-0.27,0.405-0.27s-0.293,0.537-0.134,1.023
				c0.157,0.486-0.417,0.455-0.747,0.472c-0.148-0.142-0.615-0.386-0.781-0.429c-0.105-0.051-0.309-0.057-0.523,0.248
				c-0.125,0.188,0.188-0.173,0.498-0.148c0.033,0.042,0.057,0.085,0.062,0.188c-0.166-0.014-0.339-0.259-0.541,0.242
				c0.202-0.173,0.229-0.168,0.33-0.179c0.139-0.014,0.119,0.08,0.113,0.08c-0.021,0-0.078,0.014-0.162,0.114
				c-0.045,0.071-0.158,0.227-0.136,0.227s0.091-0.085,0.196-0.156c0.064-0.057,0.127-0.057,0.326,0.014
				c1.093,0.327,1.68,0.085,1.748-0.045c0.032-0.054-0.631-1.665,1.137-2.091C426.721,294.673,425.999,294.431,425.999,294.417
				L425.999,294.417z"/>
			<g clip-path="url(#SVGID_4_)">
				<path fill="#010101" d="M424.863,296.994L424.863,296.994c-0.303,0-0.64-0.057-1.004-0.168c-0.201-0.071-0.25-0.074-0.324-0.014
					c-0.053,0.037-0.099,0.08-0.133,0.111c-0.012,0.003-0.02,0.008-0.028,0.008c0.067-0.06,0.108-0.096,0.156-0.127
					c0.072-0.06,0.124-0.062,0.333,0.014c0.883,0.264,1.662,0.105,1.738-0.04c-0.268-1.179,0.122-1.85,1.139-2.097
					c-0.014,0.005-0.139-0.042-0.272-0.088c-0.454-0.159-0.474-0.167-0.474-0.176c0,0.005-0.609,0.02-0.787,0.344
					c-0.174,0.312-0.254,0.616-0.25,0.636c0.01-0.008,0.244-0.167,0.397-0.275c0.005,0.014-0.282,0.554-0.126,1.028
					c0.041,0.128,0.035,0.228-0.016,0.301c-0.111,0.156-0.407,0.167-0.643,0.176c-0.006-0.006-0.012-0.009-0.018-0.011
					c0.295-0.009,0.551-0.031,0.65-0.171c0.049-0.071,0.055-0.167,0.015-0.29c-0.156-0.48,0.132-1.026,0.136-1.031
					c-0.141,0.108-0.389,0.281-0.401,0.281c-0.015-0.02,0.069-0.333,0.243-0.651c0.182-0.33,0.799-0.344,0.804-0.344
					c0.019,0.014,0.281,0.105,0.474,0.173c0.163,0.054,0.266,0.091,0.273,0.097c-1.012,0.256-1.397,0.923-1.152,1.995
					c0.016,0.074,0.021,0.097,0.016,0.108C425.567,296.863,425.326,296.994,424.863,296.994L424.863,296.994z M423.195,296.727
					c0.116-0.324,0.272-0.344,0.423-0.287c0.04,0.017,0.077,0.031,0.114,0.034c-0.01-0.065-0.021-0.105-0.043-0.139
					c0.033,0.037,0.044,0.079,0.049,0.147c-0.049,0-0.086-0.014-0.125-0.031c-0.109-0.042-0.225-0.205-0.417,0.273
					c0.188-0.17,0.22-0.173,0.313-0.182c0.078-0.014,0.135,0.026,0.135,0.065c-0.004,0.003-0.006,0.006-0.012,0.009l-0.086-0.065
					C423.418,296.559,423.389,296.565,423.195,296.727L423.195,296.727z M423.206,296.468c0.009-0.014,0.017-0.031,0.024-0.045
					c0.109-0.051,0.254-0.134,0.404-0.134c0.006,0.003,0.01,0.006,0.015,0.012C423.453,296.304,423.295,296.412,423.206,296.468
					L423.206,296.468z M424.203,296.426c-0.204-0.103-0.413-0.199-0.51-0.225c-0.053-0.025-0.174-0.065-0.341,0.057
					c0.155-0.142,0.292-0.094,0.345-0.065C423.797,296.215,424.016,296.318,424.203,296.426L424.203,296.426z"/>
			</g>
			<path clip-path="url(#SVGID_4_)" fill="#F5D02C" d="M418.428,296.195c0.725,0.656,5.613-0.696,6.233-1.167
				c0.354-0.27,0.975-0.469,0.975,0.455c0.159-0.625,0.159-0.781,0.159-0.767c0.013,0.014,0.25,0.241,0.46,1.011
				c0.054-0.685-0.091-1.083-0.013-1.025c0.053-0.057,0.053,0.341,0.477,0.897c-0.095-0.443-0.12-0.642-0.12-0.642
				s0.79,0.827,1.239,0.94c0.447,0.114,1.094-0.23,1.291-0.028c0.197,0.199,0.539,0.554,0.527,0.841
				c-0.015,0.284-0.739,0.042-0.818,0.27c-0.078,0.228,0.054,0.228,0.054,0.228s0.065,0.173,0.118,0.312
				c0.039-0.1-0.039-0.312,0.106-0.327c0.104,0.014,0.104,0.199,0.13,0.298c0.031-0.111-0.002-0.341,0.094-0.341
				c0.104-0.023,0.117,0.182,0.197,0.312v-0.312c0.303-0.1,0.566-0.114,0.605-0.327c0.041-0.216-0.461-0.699-0.579-1.011
				c-0.119-0.312,0.093-0.44-0.132-0.614c-0.225-0.17-1.082,0.27-1.475,0.1c-0.396-0.168-0.238-1.396-1.728-1.665
				c-1.489-0.27-5.521,1.423-6.232,1.497c-0.712,0.068-1.581-0.244-1.581-0.244L418.428,296.195z"/>
			<g clip-path="url(#SVGID_4_)">
				<path fill="#010101" d="M429.01,297.542l-0.055-0.142l0.053,0.099c0.009-0.031,0.008-0.068,0.006-0.111
					c0-0.091,0-0.193,0.102-0.202c0.088,0.011,0.105,0.122,0.123,0.225c0.022-0.162,0.029-0.267,0.102-0.267
					c0,0,0.002-0.003,0.004-0.003c0.074,0,0.102,0.08,0.136,0.167c0.017,0.051,0.037,0.105,0.063,0.151l-0.014-0.31l0.2-0.065
					c0.21-0.057,0.376-0.103,0.407-0.265c0.021-0.116-0.137-0.335-0.291-0.542c-0.116-0.162-0.238-0.327-0.289-0.463
					c-0.055-0.139-0.041-0.248-0.031-0.333c0.014-0.108,0.022-0.185-0.098-0.276c-0.094-0.074-0.352-0.025-0.631,0.04
					c-0.317,0.074-0.658,0.139-0.843,0.06c-0.134-0.06-0.203-0.225-0.293-0.44c-0.183-0.44-0.435-1.042-1.433-1.228
					c-1.016-0.179-3.198,0.543-4.738,1.054c-0.707,0.236-1.266,0.42-1.492,0.443c-0.709,0.077-1.578-0.242-1.585-0.242l0.022,1.301
					c0.125,0.111,0.393,0.171,0.791,0.171c1.627,0,4.944-0.975,5.43-1.344c0.09-0.068,0.324-0.227,0.557-0.227
					c0.197,0,0.432,0.119,0.432,0.688c0.121-0.545,0.141-0.736,0.142-0.767c0.077,0.062,0.29,0.324,0.478,1.008
					c0.014-0.392-0.02-0.685-0.04-0.863c-0.013-0.108-0.017-0.151-0.006-0.168c0.048-0.003,0.063,0.025,0.09,0.105
					c0.047,0.142,0.144,0.438,0.416,0.795c-0.106-0.438-0.134-0.637-0.134-0.637c0.021,0.003,0.809,0.821,1.25,0.932
					c0.191,0.048,0.467,0.006,0.705-0.04c0.268-0.051,0.496-0.077,0.588,0.015c0.176,0.179,0.545,0.551,0.531,0.847
					c-0.008,0.159-0.22,0.159-0.426,0.165c-0.176,0-0.356,0.006-0.393,0.105c-0.026,0.08-0.027,0.128-0.021,0.159
					c-0.021-0.048-0.016-0.1,0.008-0.162c0.039-0.113,0.226-0.116,0.406-0.119c0.199-0.003,0.403-0.006,0.409-0.147
					c0.015-0.29-0.35-0.659-0.524-0.835c-0.086-0.088-0.314-0.062-0.575-0.011c-0.241,0.045-0.521,0.091-0.714,0.04
					c-0.426-0.108-1.173-0.87-1.236-0.935c0.016,0.031,0.043,0.233,0.127,0.628c-0.287-0.353-0.385-0.654-0.433-0.796
					c-0.015-0.048-0.031-0.099-0.04-0.099c-0.031,0.008-0.022,0.082-0.014,0.159c0.021,0.176,0.057,0.471,0.025,0.866
					c-0.205-0.688-0.412-0.943-0.472-1.006c0.009,0.029-0.012,0.222-0.147,0.765c-0.023-0.699-0.477-0.833-0.979-0.452
					c-0.488,0.373-3.81,1.344-5.438,1.344c-0.002,0-0.002,0-0.002,0c-0.401,0-0.673-0.057-0.804-0.176l-0.016-1.315l0,0
					c0.032,0,0.887,0.304,1.589,0.236c0.225-0.023,0.783-0.208,1.49-0.443c1.541-0.511,3.727-1.233,4.744-1.054
					c1.008,0.185,1.26,0.793,1.445,1.236c0.088,0.21,0.156,0.377,0.283,0.432c0.182,0.08,0.521,0.014,0.833-0.06
					c0.287-0.065,0.544-0.117,0.644-0.04c0.129,0.097,0.118,0.185,0.105,0.293c-0.01,0.085-0.023,0.188,0.029,0.324
					c0.05,0.133,0.171,0.298,0.289,0.46c0.162,0.219,0.314,0.429,0.291,0.554c-0.031,0.171-0.201,0.219-0.416,0.279l-0.195,0.057
					l0.006,0.304c-0.043-0.043-0.062-0.097-0.08-0.148c-0.073-0.205-0.184-0.125-0.195,0.04c-0.002,0.051-0.006,0.1-0.014,0.14
					c-0.049-0.176-0.066-0.284-0.141-0.296c-0.088,0.012-0.088,0.097-0.084,0.19c0,0.051,0,0.1-0.015,0.137L429.01,297.542
					L429.01,297.542z"/>
			</g>
			<path clip-path="url(#SVGID_4_)" fill="#F5D02C" d="M417.496,295.724c0,0-0.771,0.966-1.291,0.943
				c-0.518-0.037-0.941-0.673-1.055-0.628s-0.141-0.054-0.184-0.23c-0.045-0.176,0.049-0.261,0.045-0.244
				c0.025,0.005,0.057,0.29,0.08,0.312c0.022,0.025-0.088-0.353,0.074-0.347c0.053-0.009,0.042,0.267,0.094,0.389
				c0.017-0.014-0.055-0.398,0.012-0.4c0.067-0.003,0.096,0.389,0.201,0.508c0.147,0.202,0.387,0.315,0.699,0.392
				c0.326-0.045,1.1-0.918,1.162-0.884L417.496,295.724z"/>
			<g clip-path="url(#SVGID_4_)">
				<path fill="#010101" d="M416.221,296.676h-0.016c-0.329-0.023-0.623-0.29-0.818-0.466c-0.079-0.074-0.145-0.134-0.189-0.157
					c0.064,0.023,0.125,0.077,0.198,0.145c0.193,0.176,0.485,0.44,0.81,0.463l0.016,0.005v-0.005c0.51,0,1.262-0.932,1.27-0.94
					l-0.162-0.179c-0.029,0.003-0.154,0.119-0.299,0.253c-0.275,0.253-0.65,0.605-0.857,0.634c-0.346-0.085-0.568-0.21-0.705-0.395
					c-0.055-0.062-0.088-0.193-0.117-0.31c-0.023-0.096-0.051-0.196-0.076-0.196c-0.035,0.031-0.021,0.182-0.012,0.278
					c0.009,0.088,0.009,0.111,0.002,0.117c-0.033-0.057-0.044-0.142-0.053-0.219c-0.008-0.051-0.014-0.105-0.025-0.139
					c0.023,0.028,0.029,0.077,0.038,0.136c0.007,0.071,0.019,0.145,0.036,0.199c-0.005-0.022-0.009-0.057-0.012-0.091
					c-0.013-0.139-0.021-0.256,0.007-0.287c0.044-0.02,0.074,0.062,0.108,0.199c0.029,0.113,0.062,0.244,0.115,0.304
					c0.136,0.185,0.35,0.304,0.694,0.389c0.2-0.028,0.575-0.375,0.849-0.628c0.178-0.167,0.275-0.255,0.308-0.255l0.172,0.19
					C417.492,295.738,416.736,296.676,416.221,296.676L416.221,296.676z"/>
			</g>
			<path clip-path="url(#SVGID_4_)" fill="#F5D02C" d="M417.52,295.184c0,0-0.633-1.014-1.146-1.111
				c-0.514-0.077-1.014,0.386-1.121,0.324c-0.104-0.065-0.145,0.014-0.21,0.159c-0.067,0.145,0.013,0.242,0.013,0.227
				c0.025,0,0.094-0.241,0.119-0.258s-0.132,0.29,0.025,0.321c0.053,0.017,0.08-0.224,0.146-0.321
				c0.015,0.017-0.105,0.338-0.04,0.355c0.065,0.014,0.145-0.324,0.264-0.403c0.172-0.145,0.423-0.193,0.739-0.193
				c0.315,0.114,0.96,1.046,1.026,1.031L417.52,295.184z"/>
			<g clip-path="url(#SVGID_4_)">
				<path fill="#010101" d="M417.334,295.32c-0.03,0-0.114-0.1-0.273-0.29c-0.236-0.281-0.56-0.671-0.756-0.742
					c-0.344,0-0.576,0.062-0.731,0.193c-0.06,0.04-0.109,0.147-0.153,0.241c-0.041,0.091-0.075,0.162-0.109,0.162
					c-0.047-0.054-0.016-0.17,0.008-0.267c-0.062,0.17-0.082,0.236-0.113,0.236c-0.014-0.014-0.023-0.028-0.033-0.042
					c0.057,0.011,0.079-0.048,0.096-0.111c0.02-0.062,0.043-0.137,0.071-0.179c-0.028,0.182-0.062,0.31-0.04,0.344
					c0.031-0.005,0.071-0.068,0.109-0.148c0.045-0.094,0.096-0.202,0.158-0.244c0.156-0.133,0.393-0.196,0.741-0.196
					c0.202,0.071,0.526,0.46,0.763,0.744c0.119,0.142,0.232,0.281,0.26,0.287l0.186-0.131c-0.008,0-0.64-1-1.145-1.097
					c-0.322-0.051-0.636,0.114-0.855,0.23c-0.105,0.054-0.188,0.097-0.238,0.097c-0.143-0.025-0.18,0.04-0.229,0.153
					c-0.057,0.12-0.006,0.208,0.006,0.216c0.012-0.006,0.04-0.083,0.059-0.131c0.027-0.074,0.044-0.119,0.059-0.125
					c-0.014,0.065-0.03,0.133-0.035,0.19c-0.006-0.06,0.012-0.111,0.023-0.148c-0.072,0.185-0.088,0.225-0.105,0.225
					c-0.028-0.031-0.074-0.114-0.019-0.233c0.053-0.117,0.087-0.188,0.152-0.188c0.136,0.031,0.216-0.014,0.321-0.068
					c0.221-0.116,0.537-0.29,0.863-0.233c0.512,0.097,1.145,1.103,1.152,1.114L417.334,295.32L417.334,295.32z"/>
			</g>
			<path clip-path="url(#SVGID_4_)" fill="#F5D02C" d="M417.203,294.872l-0.699,0.369l0.514,0.145l-0.369,0.455l0.529-0.188
				l-0.041,0.617l0.303-0.401l0.198,0.554l0.21-0.412l0.252,0.458l0.105-0.443l0.302,0.443l0.104-0.6l0.37,0.37l-0.052-0.625
				l0.447,0.156l-0.276-0.486c0,0,0.489-0.028,0.46-0.028c-0.025,0-0.367-0.312-0.672-0.397L417.203,294.872z"/>
			<g clip-path="url(#SVGID_4_)">
				<path fill="#010101" d="M418.512,296.482l-0.312-0.455l-0.094,0.44l-0.263-0.455l-0.201,0.412l-0.209-0.557l-0.291,0.404
					l0.027-0.62l-0.519,0.193l0.362-0.466l-0.512-0.133l0.697-0.381l1.689-0.014c0.225,0.062,0.465,0.244,0.593,0.341l0.077,0.054
					c-0.213-0.142-0.451-0.321-0.671-0.384l-1.685,0.014l-0.696,0.37l0.515,0.13l-0.367,0.466l0.52-0.196l-0.031,0.623l0.293-0.406
					l0.207,0.557l0.199-0.412l0.262,0.455l0.096-0.438l0.305,0.426l0.103-0.583l0.38,0.364l-0.062-0.619l0.455,0.15l-0.283-0.475
					c0.005-0.011,0.448-0.034,0.465-0.04l0.009,0.005c0,0.009,0,0.009-0.469,0.034l0.281,0.478l-0.454-0.148l0.059,0.62
					l-0.377-0.367L418.512,296.482L418.512,296.482z"/>
			</g>
			<path clip-path="url(#SVGID_4_)" fill="#F5D02C" d="M417.572,294.709l-0.384,0.208l0.282,0.083l-0.203,0.258l0.291-0.105
				l-0.023,0.347l0.166-0.225l0.109,0.312l0.115-0.233l0.138,0.259l0.058-0.25l0.166,0.25l0.057-0.338l0.203,0.208l-0.029-0.353
				l0.245,0.088l-0.151-0.276c0,0,0.268-0.014,0.254-0.014c-0.016,0-0.203-0.179-0.369-0.227L417.572,294.709z"/>
			<g clip-path="url(#SVGID_4_)">
				<path fill="#010101" d="M418.289,295.627l-0.174-0.265l-0.047,0.25l-0.146-0.256l-0.105,0.233l-0.119-0.315l-0.156,0.227
					l0.012-0.349l-0.281,0.108l0.195-0.264l-0.278-0.074l0.381-0.219l0.927-0.009c0.121,0.034,0.252,0.136,0.323,0.193
					c0.006,0.005,0.011,0.011,0.017,0.014c-0.113-0.077-0.232-0.165-0.342-0.196l-0.922,0.009l-0.381,0.208l0.281,0.071
					l-0.199,0.267l0.281-0.114l-0.014,0.353l0.156-0.23l0.119,0.315l0.105-0.233l0.146,0.259l0.047-0.25l0.167,0.238l0.058-0.327
					l0.209,0.208l-0.036-0.35l0.253,0.083l-0.159-0.267c0.004-0.006,0.179-0.017,0.237-0.022c-0.01,0.014-0.072,0.017-0.232,0.025
					l0.155,0.264l-0.251-0.08l0.037,0.35l-0.213-0.205L418.289,295.627L418.289,295.627z"/>
			</g>
			<path clip-path="url(#SVGID_4_)" fill="#F5D02C" d="M417.768,293.704c0,0-0.195-0.17-0.275,0c-0.079,0.17,0.172,0.1,0.172,0.128
				s-0.172,0.228-0.172,0.455c0,0.23,0.131,0.614,0.131,0.67c0,0.057,0.055,0.213,0.238,0.27c0.186,0.057,0.25-0.185,0.291-0.213
				c0.039-0.028,0.289,0.042,0.381-0.199c0.093-0.241,0.093-0.685,0.093-0.685s0.159,0.131,0.159-0.125c0-0.259-0.172,0-0.172,0
				s0.027-0.273-0.382-0.4C417.822,293.477,417.782,293.732,417.768,293.704L417.768,293.704z"/>
			<g clip-path="url(#SVGID_4_)">
				<path fill="#010101" d="M417.916,295.241l-0.056-0.008c-0.183-0.054-0.243-0.21-0.243-0.276c0-0.017-0.014-0.077-0.033-0.147
					c-0.039-0.148-0.098-0.37-0.098-0.523c0-0.102,0.035-0.196,0.072-0.275c-0.029,0.091-0.061,0.179-0.061,0.275
					c0,0.153,0.059,0.375,0.097,0.52c0.021,0.077,0.036,0.131,0.036,0.15c0,0.062,0.058,0.21,0.234,0.264l0.051,0.009
					c0.102,0,0.159-0.1,0.195-0.167l0.104-0.062c0.093-0.003,0.245-0.009,0.312-0.188c0.093-0.236,0.093-0.676,0.093-0.682
					c0.146,0.025,0.158-0.057,0.157-0.125c0-0.051-0.007-0.111-0.038-0.111c-0.039,0-0.102,0.083-0.123,0.111
					c-0.01-0.006,0.012-0.27-0.389-0.395c-0.278-0.088-0.406,0.037-0.439,0.085c-0.004,0-0.01,0-0.012,0
					c0.039-0.065,0.173-0.188,0.455-0.097c0.374,0.116,0.389,0.358,0.389,0.398c0.012-0.043,0.17-0.188,0.17,0.008
					c0,0.145-0.051,0.165-0.094,0.162c-0.065,0-0.068,0.417-0.158,0.65c-0.07,0.185-0.229,0.19-0.323,0.193l-0.094,0.057
					C418.084,295.139,418.023,295.241,417.916,295.241L417.916,295.241z"/>
			</g>
			<path clip-path="url(#SVGID_4_)" fill="#F5D02C" d="M417.717,293.658c-0.054-0.162-0.207-0.784-0.207-0.784l0.342,0.228
				c-0.115-0.043-0.214-0.071-0.203-0.071c0.014,0,0.156,0.301,0.156,0.301c0.134-0.017,0.271,0.054,0.438,0.111
				c0,0,0.131-0.25,0.118-0.25s-0.075-0.037-0.075-0.037l0.305-0.239l-0.092,0.315h-0.062l-0.119,0.228
				c0.141,0.042,0.211,0.074,0.35,0.213c0.121-0.031,0.221-0.133,0.284-0.213c-0.11-0.048-0.161-0.083-0.147-0.083
				c0.011,0,0.455,0.028,0.455,0.028s-0.424,0.446-0.676,0.611C418.345,293.908,417.742,293.718,417.717,293.658L417.717,293.658z"
				/>
			<g clip-path="url(#SVGID_4_)">
				<path fill="#010101" d="M418.584,294.025l-0.005-0.003c-0.089-0.04-0.231-0.091-0.374-0.145
					c-0.298-0.108-0.479-0.176-0.495-0.216c-0.053-0.162-0.208-0.787-0.208-0.787l0.354,0.222l-0.173-0.042
					c0,0,0.053,0.122,0.094,0.202c-0.062-0.088-0.117-0.202-0.131-0.216l0.207,0.054l-0.347-0.213
					c0.021,0.025,0.165,0.619,0.218,0.778c0.014,0.031,0.266,0.125,0.486,0.205c0.141,0.051,0.281,0.105,0.369,0.145
					c0.242-0.162,0.646-0.58,0.672-0.605c-0.021,0.009-0.401-0.017-0.447-0.02c0.015,0.003,0.061,0.031,0.148,0.071
					c-0.094,0.131-0.19,0.202-0.284,0.228c-0.149-0.145-0.219-0.173-0.355-0.213l0.271-0.554h-0.004l0.006-0.003l-0.082,0.321
					l-0.182,0.233c0.135,0.029,0.206,0.057,0.35,0.202c0.084-0.026,0.178-0.097,0.272-0.21c-0.009,0-0.156-0.06-0.151-0.08
					c0.021-0.011,0.467,0.02,0.467,0.02c0,0.02-0.425,0.463-0.674,0.625L418.584,294.025L418.584,294.025z M418.248,293.445
					l-0.123-0.037c-0.104-0.04-0.195-0.074-0.283-0.074c-0.002,0-0.006-0.006-0.008-0.006c0.1-0.014,0.197,0.028,0.297,0.065
					l0.115,0.04c0.027-0.068,0.083-0.176,0.102-0.221C418.35,293.246,418.319,293.309,418.248,293.445L418.248,293.445z"/>
			</g>
			<path clip-path="url(#SVGID_4_)" fill="#010101" d="M417.928,294.116l0.002,0.003c0.074,0.037,0.105,0.065,0.068,0.06l0,0
				c-0.037-0.003-0.127-0.037-0.204-0.077h-0.001c-0.076-0.04-0.107-0.065-0.07-0.062h0.002
				C417.762,294.045,417.854,294.079,417.928,294.116L417.928,294.116z"/>
			<path clip-path="url(#SVGID_4_)" fill="#010101" d="M418.322,294.286l0.003,0.003c0.075,0.04,0.106,0.068,0.067,0.06l0,0
				c-0.036-0.003-0.127-0.037-0.203-0.074l-0.001-0.003c-0.077-0.04-0.108-0.065-0.071-0.06h0.002
				C418.157,294.215,418.248,294.249,418.322,294.286L418.322,294.286z"/>
			<path clip-path="url(#SVGID_4_)" fill="#010101" d="M418.069,294.761l0.006,0.003c0.145,0.054,0.204,0.091,0.134,0.085h-0.004
				c-0.07-0.005-0.248-0.054-0.395-0.108l-0.004-0.003c-0.146-0.054-0.206-0.091-0.135-0.085h0.002
				C417.746,294.658,417.923,294.707,418.069,294.761L418.069,294.761z"/>
			<path clip-path="url(#SVGID_4_)" fill="#010101" d="M418.044,294.536h0.003c0.064,0.028,0.091,0.045,0.06,0.042l0,0
				c-0.034-0.002-0.114-0.028-0.179-0.054l-0.002-0.003c-0.065-0.025-0.092-0.042-0.061-0.042h0.002
				C417.898,294.485,417.979,294.508,418.044,294.536L418.044,294.536z"/>
			<path clip-path="url(#SVGID_4_)" fill="#010101" d="M417.95,294.593v-0.002c0.02-0.06,0.038-0.088,0.041-0.062l0,0
				c0.005,0.028-0.01,0.099-0.03,0.159v0.003c-0.02,0.06-0.038,0.088-0.041,0.062l0,0
				C417.916,294.724,417.93,294.653,417.95,294.593L417.95,294.593z"/>
			<polygon clip-path="url(#SVGID_4_)" fill="#33783B" points="415.592,306.276 415.276,305.719 415.729,306.265 415.748,306.483 
							"/>
			<g clip-path="url(#SVGID_4_)">
				<path fill="#010101" d="M415.756,306.504l-0.167-0.225l-0.318-0.557l0.46,0.539L415.756,306.504L415.756,306.504z
					 M415.271,305.723l0.47,0.744l-0.018-0.202L415.271,305.723L415.271,305.723z"/>
			</g>
			<polygon clip-path="url(#SVGID_4_)" fill="#33783B" points="415.683,306.336 415.732,305.933 415.87,306.421 415.746,306.498 			
				"/>
			<g clip-path="url(#SVGID_4_)">
				<polygon fill="#010101" points="415.742,306.506 415.677,306.339 415.727,305.93 415.876,306.421 415.742,306.506 				"/>
			</g>
			<polygon clip-path="url(#SVGID_4_)" fill="#33783B" points="415.566,306.473 415.032,306.193 415.475,306.33 415.764,306.495 			
				"/>
			<g clip-path="url(#SVGID_4_)">
				<path fill="#010101" d="M415.762,306.5l-0.195-0.021l-0.535-0.279l0.443,0.128l0.292,0.162L415.762,306.5L415.762,306.5z
					 M415.032,306.199l0.536,0.27l0.168,0.018l-0.264-0.15L415.032,306.199L415.032,306.199z"/>
			</g>
			<polygon clip-path="url(#SVGID_4_)" fill="#33783B" points="415.725,306.646 414.914,306.412 415.549,306.438 415.766,306.473 
							"/>
			<g clip-path="url(#SVGID_4_)">
				<path fill="#010101" d="M415.729,306.654l-0.005-0.003l-0.812-0.233l0.854,0.049L415.729,306.654L415.729,306.654z
					 M414.914,306.421l0.807,0.219l0.039-0.167l-0.211-0.029L414.914,306.421L414.914,306.421z"/>
			</g>
			<polygon clip-path="url(#SVGID_4_)" fill="#33783B" points="415.771,306.379 416.267,306.302 416.092,306.614 415.717,306.48 			
				"/>
			<g clip-path="url(#SVGID_4_)">
				<polygon fill="#010101" points="416.095,306.62 415.715,306.486 415.766,306.375 416.266,306.296 416.095,306.62 				"/>
			</g>
			<polygon clip-path="url(#SVGID_4_)" fill="#33783B" points="416.051,306.543 416.682,306.802 416.152,306.725 415.705,306.464 
							"/>
			<g clip-path="url(#SVGID_4_)">
				<path fill="#010101" d="M416.68,306.808l-0.528-0.077l-0.448-0.262l0.35,0.068l0.63,0.262L416.68,306.808L416.68,306.808z
					 M415.704,306.469l0.452,0.25l0.48,0.072l-0.588-0.242L415.704,306.469L415.704,306.469z"/>
			</g>
			<polygon clip-path="url(#SVGID_4_)" fill="#33783B" points="416.139,306.683 416.811,307.062 416.211,306.844 415.715,306.461 
							"/>
			<g clip-path="url(#SVGID_4_)">
				<path fill="#010101" d="M416.809,307.068l-0.6-0.219l-0.498-0.386l1.103,0.594L416.809,307.068L416.809,307.068z
					 M415.713,306.467l0.501,0.375l0.534,0.193L415.713,306.467L415.713,306.467z"/>
			</g>
			<polygon clip-path="url(#SVGID_4_)" fill="#33783B" points="416.143,306.812 416.532,307.391 415.924,306.739 415.735,306.469 
							"/>
			<g clip-path="url(#SVGID_4_)">
				<path fill="#010101" d="M416.526,307.393l-0.796-0.92l0.416,0.338l0.389,0.576L416.526,307.393L416.526,307.393z
					 M415.73,306.473l0.199,0.264l0.557,0.597l-0.348-0.517L415.73,306.473L415.73,306.473z"/>
			</g>
			<polygon clip-path="url(#SVGID_4_)" fill="#33783B" points="416.043,306.827 416.054,307.199 415.76,306.654 415.734,306.464 			
				"/>
			<g clip-path="url(#SVGID_4_)">
				<path fill="#010101" d="M416.049,307.199l-0.295-0.543l-0.025-0.189l0.319,0.355l0.011,0.377H416.049L416.049,307.199z
					 M415.729,306.469l0.037,0.186l0.281,0.52l-0.009-0.347L415.729,306.469L415.729,306.469z"/>
			</g>
			<polygon clip-path="url(#SVGID_4_)" fill="#33783B" points="415.893,306.711 415.6,306.938 415.614,306.531 415.746,306.495 			
				"/>
			<g clip-path="url(#SVGID_4_)">
				<polygon fill="#010101" points="415.594,306.949 415.609,306.531 415.745,306.489 415.896,306.711 415.594,306.949 				"/>
			</g>
			<polygon clip-path="url(#SVGID_4_)" fill="#33783B" points="415.521,306.268 415.305,305.952 415.598,306.265 415.74,306.48 			
				"/>
			<g clip-path="url(#SVGID_4_)">
				<polygon fill="#010101" points="415.735,306.483 415.516,306.273 415.302,305.958 415.604,306.262 415.744,306.479 
					415.735,306.483 				"/>
			</g>
			<polygon clip-path="url(#SVGID_4_)" fill="#33783B" points="415.674,306.401 415.461,306.004 415.771,306.433 415.814,306.555 
							"/>
			<g clip-path="url(#SVGID_4_)">
				<polygon fill="#010101" points="415.812,306.558 415.672,306.404 415.458,306.006 415.818,306.555 415.812,306.558 				"/>
			</g>
			<polygon clip-path="url(#SVGID_4_)" fill="#33783B" points="415.691,306.523 415.129,306.279 415.604,306.421 415.811,306.529 
							"/>
			<g clip-path="url(#SVGID_4_)">
				<polygon fill="#010101" points="415.811,306.535 415.691,306.529 415.129,306.281 415.813,306.526 415.811,306.535 				"/>
			</g>
			<polygon clip-path="url(#SVGID_4_)" fill="#33783B" points="415.839,306.492 416.354,306.646 415.967,306.583 415.764,306.51 			
				"/>
			<g clip-path="url(#SVGID_4_)">
				<polygon fill="#010101" points="416.354,306.648 415.762,306.51 416.299,306.635 416.26,306.62 416.355,306.643 
					416.354,306.648 				"/>
			</g>
			<polygon clip-path="url(#SVGID_4_)" fill="#33783B" points="415.861,306.62 415.707,306.725 415.787,306.572 415.779,306.498 			
				"/>
			<g clip-path="url(#SVGID_4_)">
				<polygon fill="none" points="415.861,306.62 415.707,306.725 415.787,306.572 415.779,306.498 				"/>
			</g>
			<polygon clip-path="url(#SVGID_4_)" fill="#33783B" points="416.08,306.723 416.412,307.135 416.133,306.839 415.793,306.512 			
				"/>
			<g clip-path="url(#SVGID_4_)">
				<path fill="#010101" d="M416.407,307.137l-0.62-0.619l0.298,0.199l0.331,0.414L416.407,307.137L416.407,307.137z
					 M415.789,306.518l0.53,0.509l-0.241-0.302L415.789,306.518L415.789,306.518z"/>
			</g>
			<polygon clip-path="url(#SVGID_4_)" fill="#33783B" points="415.995,306.577 416.088,306.467 416.119,306.674 415.805,306.537 
							"/>
			<g clip-path="url(#SVGID_4_)">
				<polygon fill="none" points="415.995,306.577 416.088,306.467 416.119,306.674 415.805,306.537 				"/>
			</g>
			<polygon clip-path="url(#SVGID_4_)" fill="#33783B" points="415.641,306.339 415.501,305.924 415.729,306.354 415.75,306.486 			
				"/>
			<g clip-path="url(#SVGID_4_)">
				<polygon fill="#010101" points="415.746,306.489 415.637,306.342 415.495,305.924 415.754,306.483 415.746,306.489 				"/>
			</g>
			<path clip-path="url(#SVGID_4_)" fill="#FFFFFF" d="M417.211,307.271c0.077-0.057,0.643-1.333,3.33-1.147
				c-1.527,0.642-2.475,1.994-2.701,2.051C417.672,308.229,417.303,307.479,417.211,307.271L417.211,307.271z"/>
			<g clip-path="url(#SVGID_4_)">
				<path fill="#010101" d="M417.819,308.191c-0.213,0-0.616-0.904-0.621-0.915c0.628-0.909,1.673-1.287,3.345-1.168
					c-1.055,0.472-1.826,1.251-2.289,1.72c-0.205,0.204-0.338,0.34-0.412,0.357L417.819,308.191L417.819,308.191z M420.021,306.12
					c-1.318,0-2.244,0.372-2.756,1.108c0.09,0.329,0.406,0.934,0.554,0.934v0.015l0.015-0.017c0.068-0.018,0.207-0.159,0.4-0.353
					c0.463-0.469,1.238-1.25,2.301-1.696C420.357,306.125,420.185,306.12,420.021,306.12L420.021,306.12z"/>
			</g>
			<path clip-path="url(#SVGID_4_)" fill="#FFFFFF" d="M420.812,306.64c-0.416,0.183-0.621,0.271-0.832,0.304
				c0.107,0.062,0.348,0.025,0.617,0.125c-0.241,0.006-0.689,0.25-0.877,0.256c0.129,0.103,0.59,0.006,0.674,0.031
				c-0.246,0.021-0.642,0.273-0.891,0.273c-0.11,0.116,0.576-0.077,0.852,0.139c-0.286-0.02-0.84,0.199-1.139,0.145
				c0.228,0.18,0.637-0.017,0.978,0.177c-0.099,0.015-0.89,0.131-1.171,0.073c0.168,0.114,0.672,0.094,0.796,0.191
				c-0.207-0.035-0.761,0.119-0.954,0.059c0.173,0.166,0.695,0.072,0.793,0.171c-0.342,0.159-0.861,0.031-1.1,0.074
				c0.158,0.103,0.292,0.202,0.434,0.296c0.205,0.189,0.85,0.732,1.236,0.895c-0.426-0.074-0.575-0.086-0.85-0.113l0.625,0.881
				c-0.262-0.186-0.721-0.541-1.028-0.723c-0.677-0.439-1.166-0.363-1.636-0.738c-0.66-0.847-1.026-1.857-1.058-2.128
				c-0.034-0.271-0.062-0.753-0.665-0.503c0.581-0.097,0.166-0.725,0.773-0.725c0.366,0,0.318,0.353,0.454,0.586
				c0.091,0.167,0.719,0.758,0.847,0.786C418.842,306.265,419.777,306.154,420.812,306.64L420.812,306.64z"/>
			<g clip-path="url(#SVGID_4_)">
				<path fill="#010101" d="M419.992,310.632l-0.234-0.171c-0.251-0.188-0.564-0.418-0.792-0.551
					c-0.339-0.219-0.634-0.312-0.894-0.393c-0.262-0.082-0.509-0.158-0.744-0.346c-0.674-0.867-1.035-1.881-1.066-2.146
					c-0.033-0.287-0.099-0.628-0.475-0.537c0.006-0.006,0.012-0.009,0.016-0.015c0.002-0.002,0.006-0.006,0.011-0.008
					c0.099-0.105,0.128-0.222,0.159-0.336c0.045-0.173,0.094-0.352,0.418-0.352c0.271,0,0.329,0.188,0.385,0.372
					c0.023,0.077,0.047,0.156,0.086,0.222c0.092,0.17,0.714,0.753,0.833,0.781c1.108-0.887,2.026-1.051,3.126-0.531
					c-0.41,0.213-0.617,0.304-0.83,0.341c0.053-0.009,0.123-0.003,0.213,0.009c0.112,0.008,0.253,0.022,0.402,0.076
					c-0.133,0.04-0.316,0.111-0.493,0.18c-0.146,0.054-0.281,0.107-0.372,0.116c0.048,0.005,0.116,0.009,0.216,0.009
					c0.079,0,0.165-0.006,0.239-0.012c0.059-0.006,0.113-0.012,0.151-0.012c-0.006,0.009-0.013,0.012-0.019,0.015
					c0.022-0.003,0.044-0.006,0.065-0.006c-0.04,0.015-0.071,0.022-0.101,0.028c-0.076,0.045-0.193,0.094-0.309,0.139
					c-0.159,0.066-0.324,0.137-0.455,0.143l-0.039-0.034c0.142-0.003,0.313-0.077,0.48-0.142c0.082-0.034,0.162-0.068,0.238-0.094
					c-0.003,0-0.008,0-0.01,0c-0.192,0.017-0.416,0.022-0.49-0.037c0.095-0.037,0.238-0.094,0.389-0.15
					c0.182-0.068,0.368-0.14,0.5-0.143c-0.15-0.014-0.287-0.028-0.397-0.039c-0.1-0.01-0.177-0.018-0.229-0.046
					c0.215-0.074,0.423-0.162,0.835-0.341c-1.091-0.418-1.98-0.318-3.103,0.565c-0.156-0.028-0.787-0.634-0.875-0.796
					c-0.04-0.068-0.066-0.153-0.092-0.23c-0.055-0.184-0.104-0.344-0.346-0.344c-0.296,0-0.336,0.148-0.381,0.321
					c-0.029,0.108-0.057,0.219-0.148,0.302c0.336-0.08,0.406,0.314,0.436,0.545c0.035,0.296,0.395,1.301,1.059,2.156
					c0.229,0.182,0.459,0.254,0.729,0.336c0.262,0.082,0.559,0.176,0.902,0.4c0.229,0.133,0.541,0.363,0.797,0.551l0.136,0.1
					l-0.557-0.784l0.135-0.02c0.209,0.022,0.37,0.04,0.734,0.103c-0.39-0.123-1.022-0.648-1.253-0.861l-0.168-0.116
					c-0.082-0.058-0.168-0.116-0.263-0.177c0.101-0.094,0.218-0.045,0.354-0.037c0.275,0.015,0.574,0.009,0.746-0.07
					c-0.042-0.006-0.167-0.015-0.298-0.02c-0.187-0.012-0.397-0.023-0.5-0.12c0.048-0.025,0.089-0.02,0.14-0.02
					c0.107,0,0.247-0.021,0.387-0.04c0.135-0.02,0.267-0.037,0.365-0.037c0.01-0.006-0.146-0.025-0.295-0.048
					c-0.17-0.021-0.344-0.043-0.432-0.103c0.064-0.025,0.137-0.02,0.216-0.02h0.001c0.333,0,0.832-0.074,0.945-0.092
					c-0.134-0.045-0.287-0.053-0.434-0.053h-0.18c-0.15,0-0.268-0.015-0.359-0.086l0.117-0.025c0.15,0,0.341-0.043,0.524-0.082
					c0.176-0.04,0.343-0.077,0.47-0.077c-0.062-0.034-0.213-0.068-0.432-0.068l-0.318,0.015l-0.037-0.043l0.355-0.008
					c0.23,0,0.384,0.036,0.482,0.11c-0.173,0.036-0.338,0.071-0.514,0.108c-0.231,0.051-0.472,0.104-0.641,0.073
					c0.098,0.031,0.209,0.046,0.352,0.046l0.18-0.004c0.15,0,0.311,0.012,0.459,0.094c-0.168,0.068-0.909,0.168-1.182,0.114
					c0.096,0.017,0.267,0.04,0.43,0.062c0.164,0.022,0.316,0.042,0.381,0.094c-0.186,0.028-0.316,0.048-0.45,0.068
					c-0.213,0.028-0.427,0.057-0.524,0.022c0.113,0.057,0.316,0.068,0.496,0.076c0.15,0.01,0.27,0.015,0.318,0.066
					c-0.188,0.125-0.487,0.116-0.771,0.104c-0.135-0.009-0.254-0.017-0.34,0c0.103,0.026,0.188,0.083,0.273,0.143l0.168,0.116
					c0.232,0.216,0.86,0.736,1.235,0.895c-0.374-0.027-0.536-0.042-0.745-0.064l-0.115-0.012l0.645,0.85L419.992,310.632
					L419.992,310.632z"/>
			</g>
			<path clip-path="url(#SVGID_4_)" fill="#2E6331" d="M424.38,311.367c-0.021-0.136-0.037-0.207,0.025-0.389
				c0.093-0.128,0.14-0.244,0.306-0.375c0.18-0.068,0.24-0.009,0.477-0.253c0.076-0.162,0.192-0.287,0.258-0.46
				c0.153-0.259,0.205-0.387,0.328-0.586c0.163-0.207,0.297-0.392,0.391-0.548c0.102-0.205,0.193-0.33,0.341-0.495
				c0.062-0.193,0.188-0.332,0.344-0.496c0.116-0.242,0.341-0.518,0.438-0.714c0.173-0.225,0.241-0.321,0.392-0.548
				c0.133-0.1,0.355-0.316,0.537-0.387c0.248-0.119,0.381-0.232,0.546-0.057c0.108,0.125,0.302,0.318,0.167,0.463
				c-0.072,0.091-0.187,0.102-0.323,0.034c-0.136-0.103-0.204-0.392-0.39-0.165c-0.133,0.174-0.204,0.31-0.392,0.494
				c-0.093,0.154-0.159,0.271-0.241,0.494c-0.111,0.143-0.203,0.305-0.296,0.552c-0.116,0.108-0.219,0.327-0.292,0.494
				c-0.117,0.137-0.202,0.278-0.293,0.491c-0.186,0.199-0.253,0.37-0.39,0.498c-0.091,0.213-0.234,0.42-0.344,0.548
				c-0.085,0.156-0.169,0.321-0.243,0.495c-0.154,0.179-0.162,0.219-0.391,0.494c-0.189,0.281-0.126,0.247-0.423,0.57
				C424.746,311.584,424.584,311.604,424.38,311.367L424.38,311.367z"/>
			<g clip-path="url(#SVGID_4_)">
				<path fill="#010101" d="M424.724,311.575c-0.122,0-0.234-0.062-0.351-0.199c-0.027-0.153-0.039-0.224,0.023-0.4l0.062-0.097
					c0.061-0.094,0.118-0.185,0.244-0.284c0.055-0.02,0.094-0.028,0.131-0.036c0.1-0.023,0.176-0.041,0.348-0.217
					c0.031-0.068,0.072-0.133,0.113-0.195c0.051-0.083,0.104-0.166,0.141-0.262c0.076-0.128,0.129-0.225,0.174-0.312
					c0.049-0.092,0.093-0.171,0.154-0.273c0.164-0.207,0.297-0.392,0.392-0.548c0.097-0.19,0.184-0.318,0.343-0.497
					c0.061-0.196,0.205-0.35,0.342-0.494c0.061-0.125,0.15-0.262,0.239-0.393c0.078-0.116,0.153-0.228,0.198-0.321
					c0.174-0.224,0.242-0.321,0.391-0.551l0.134-0.108c0.124-0.1,0.277-0.227,0.407-0.278l0.109-0.054
					c0.192-0.097,0.32-0.139,0.449,0c0.133,0.147,0.301,0.335,0.166,0.477c-0.073,0.092-0.195,0.104-0.333,0.035
					c-0.044-0.031-0.078-0.077-0.112-0.125c-0.08-0.105-0.154-0.177-0.264-0.043l-0.115,0.159c-0.076,0.104-0.15,0.21-0.277,0.338
					c-0.092,0.15-0.159,0.267-0.242,0.491c-0.12,0.156-0.207,0.321-0.292,0.549c-0.116,0.111-0.219,0.32-0.293,0.494
					c-0.119,0.143-0.204,0.281-0.292,0.494c-0.094,0.103-0.156,0.193-0.214,0.273c-0.06,0.088-0.11,0.162-0.182,0.225
					c-0.11,0.27-0.29,0.488-0.341,0.551c-0.084,0.153-0.168,0.315-0.242,0.492c-0.079,0.09-0.12,0.145-0.17,0.213
					s-0.107,0.145-0.222,0.283l-0.119,0.186c-0.065,0.104-0.097,0.156-0.306,0.383C424.863,311.553,424.795,311.575,424.724,311.575
					L424.724,311.575z M428.582,305.98c-0.072,0-0.154,0.04-0.254,0.094l-0.109,0.055c-0.129,0.051-0.281,0.173-0.404,0.277
					l-0.131,0.104c-0.147,0.227-0.215,0.323-0.389,0.548c-0.044,0.094-0.119,0.204-0.199,0.321
					c-0.085,0.131-0.176,0.264-0.238,0.392c-0.17,0.183-0.284,0.312-0.342,0.491c-0.16,0.186-0.246,0.307-0.344,0.498
					c-0.094,0.158-0.227,0.346-0.391,0.551c-0.061,0.1-0.104,0.182-0.151,0.27c-0.048,0.092-0.1,0.188-0.177,0.312
					c-0.036,0.1-0.089,0.182-0.142,0.265c-0.04,0.062-0.079,0.128-0.114,0.196c-0.176,0.188-0.256,0.201-0.357,0.225
					c-0.037,0.008-0.076,0.017-0.125,0.033c-0.122,0.1-0.179,0.186-0.238,0.281l-0.062,0.092c-0.057,0.17-0.046,0.238-0.025,0.366
					c0.179,0.225,0.383,0.21,0.518,0.162c0.203-0.222,0.234-0.272,0.301-0.378l0.119-0.188c0.113-0.139,0.172-0.216,0.221-0.284
					c0.051-0.065,0.092-0.119,0.171-0.21c0.071-0.174,0.156-0.336,0.241-0.492c0.053-0.062,0.229-0.281,0.342-0.551
					c0.07-0.065,0.121-0.139,0.182-0.225c0.057-0.082,0.119-0.174,0.21-0.272c0.091-0.21,0.177-0.353,0.293-0.495
					c0.075-0.17,0.177-0.386,0.294-0.494c0.084-0.227,0.172-0.392,0.294-0.551c0.079-0.222,0.147-0.338,0.241-0.492
					c0.128-0.127,0.202-0.229,0.275-0.338l0.117-0.158c0.122-0.148,0.213-0.068,0.299,0.045c0.032,0.045,0.066,0.091,0.105,0.119
					c0.125,0.062,0.24,0.055,0.307-0.031c0.121-0.128-0.037-0.304-0.143-0.424C428.697,306.01,428.643,305.98,428.582,305.98
					L428.582,305.98z"/>
			</g>
			<path clip-path="url(#SVGID_4_)" fill="#F5D02C" d="M426.746,309.24l0.002,0.002c0.072,0.071-0.104,0.373-0.396,0.668
				l-0.009,0.008c-0.292,0.296-0.589,0.479-0.665,0.401h-0.001c-0.075-0.074,0.104-0.372,0.396-0.671l0.009-0.006
				C426.374,309.348,426.672,309.166,426.746,309.24L426.746,309.24z"/>
			<g clip-path="url(#SVGID_4_)">
				<path fill="#010101" d="M425.727,310.348l-0.056-0.02c-0.001-0.021-0.001-0.04,0-0.062c0,0.002,0,0.006,0,0.006l0.056,0.054
					c0.116,0,0.366-0.171,0.607-0.415c0.225-0.225,0.361-0.426,0.404-0.551c-0.029,0.152-0.193,0.369-0.38,0.559
					C426.104,310.174,425.849,310.348,425.727,310.348L425.727,310.348z M425.676,310.234c0.031-0.171,0.184-0.384,0.389-0.592
					c0.256-0.256,0.512-0.432,0.634-0.432c0.015,0.012,0.022,0.023,0.031,0.037c-0.168-0.006-0.403,0.162-0.641,0.4
					C425.865,309.873,425.705,310.105,425.676,310.234L425.676,310.234z"/>
			</g>
			<path clip-path="url(#SVGID_4_)" fill="#F5D02C" d="M425.145,308.157h0.002c0.098,0.04,0.047,0.384-0.11,0.771l-0.003,0.011
				c-0.158,0.386-0.363,0.665-0.461,0.628l-0.002-0.003c-0.097-0.037-0.046-0.384,0.11-0.771l0.006-0.011
				C424.843,308.398,425.047,308.117,425.145,308.157L425.145,308.157z"/>
			<g clip-path="url(#SVGID_4_)">
				<path fill="#010101" d="M424.593,309.58l-0.022-0.006c-0.119-0.048-0.041-0.434,0.1-0.783c0.156-0.381,0.346-0.648,0.454-0.648
					c0.142,0.051,0.063,0.44-0.077,0.79C424.893,309.311,424.703,309.58,424.593,309.58L424.593,309.58z M425.14,308.166
					c-0.104,0-0.286,0.235-0.444,0.622c-0.172,0.423-0.199,0.733-0.119,0.765l0.017,0.005c0.087,0,0.271-0.233,0.429-0.625
					c0.174-0.421,0.201-0.733,0.121-0.767C425.141,308.166,425.141,308.166,425.14,308.166L425.14,308.166z"/>
			</g>
			<path clip-path="url(#SVGID_4_)" fill="#F5D02C" d="M425.402,308.339h0.003c0.095,0.042,0.037,0.387-0.134,0.767l-0.006,0.012
				c-0.168,0.381-0.383,0.654-0.479,0.611l-0.004-0.003c-0.094-0.04-0.034-0.384,0.137-0.765l0.004-0.008
				C425.094,308.572,425.309,308.297,425.402,308.339L425.402,308.339z"/>
			<g clip-path="url(#SVGID_4_)">
				<path fill="#010101" d="M424.809,309.742l-0.025-0.002c-0.117-0.055-0.025-0.438,0.125-0.781
					c0.168-0.373,0.363-0.635,0.475-0.635c0.094,0.035,0.085,0.168,0.065,0.273c-0.026,0.147-0.085,0.326-0.168,0.514
					C425.115,309.48,424.92,309.742,424.809,309.742L424.809,309.742z M425.398,308.35c-0.107,0-0.295,0.229-0.465,0.605
					c-0.185,0.418-0.223,0.728-0.145,0.762l0.02,0.006c0.087,0,0.279-0.23,0.447-0.611c0.087-0.193,0.146-0.372,0.172-0.517
					c0.023-0.137,0.015-0.228-0.025-0.245C425.4,308.35,425.4,308.35,425.398,308.35L425.398,308.35z"/>
			</g>
			<path clip-path="url(#SVGID_4_)" fill="#F5D02C" d="M425.988,308.766h0.004c0.084,0.062-0.045,0.383-0.289,0.721l-0.008,0.012
				c-0.243,0.336-0.509,0.56-0.594,0.497h-0.003c-0.084-0.062,0.046-0.384,0.29-0.722l0.006-0.012
				C425.639,308.928,425.904,308.703,425.988,308.766L425.988,308.766z"/>
			<g clip-path="url(#SVGID_4_)">
				<path fill="#010101" d="M425.135,310.018l-0.039-0.011c-0.008-0.022-0.012-0.046-0.012-0.071c0,0.003,0,0.009,0.002,0.012
					l0.049,0.048c0.107,0,0.345-0.216,0.552-0.503c0.214-0.298,0.321-0.545,0.319-0.658c0.02,0.146-0.121,0.42-0.293,0.658
					C425.489,309.803,425.249,310.018,425.135,310.018L425.135,310.018z M425.084,309.918c0.004-0.173,0.123-0.411,0.296-0.65
					c0.222-0.309,0.46-0.525,0.573-0.525c0.015,0.009,0.026,0.02,0.035,0.031c-0.006-0.003-0.009,0-0.012,0
					c-0.137,0-0.369,0.213-0.574,0.498C425.215,309.532,425.09,309.791,425.084,309.918L425.084,309.918z"/>
			</g>
			<path clip-path="url(#SVGID_4_)" fill="#F5D02C" d="M427.205,309.538l0.002,0.003c0.068,0.076-0.134,0.36-0.451,0.631
				l-0.008,0.008c-0.316,0.271-0.629,0.424-0.697,0.348l-0.002-0.004c-0.066-0.079,0.135-0.363,0.45-0.633l0.012-0.006
				C426.826,309.611,427.139,309.455,427.205,309.538L427.205,309.538z"/>
			<g clip-path="url(#SVGID_4_)">
				<path fill="#010101" d="M426.107,310.559l-0.064-0.026c-0.082-0.097,0.164-0.406,0.451-0.647
					c0.267-0.23,0.525-0.381,0.652-0.381c0.015,0.014,0.026,0.025,0.031,0.039c-0.174,0-0.42,0.143-0.662,0.348
					c-0.346,0.298-0.514,0.56-0.458,0.625l0.05,0.02c0.122,0,0.381-0.147,0.633-0.363c0.227-0.193,0.375-0.373,0.438-0.492
					c-0.051,0.145-0.224,0.338-0.414,0.5C426.495,310.41,426.234,310.559,426.107,310.559L426.107,310.559z"/>
			</g>
			<path clip-path="url(#SVGID_4_)" fill="#F5D02C" d="M426.992,309.407h0.002c0.073,0.077-0.108,0.372-0.404,0.665l-0.01,0.008
				c-0.295,0.293-0.596,0.467-0.669,0.393l-0.003-0.003c-0.07-0.071,0.109-0.369,0.406-0.662l0.009-0.005
				C426.62,309.51,426.92,309.334,426.992,309.407L426.992,309.407z"/>
			<g clip-path="url(#SVGID_4_)">
				<path fill="#010101" d="M425.961,310.501l-0.057-0.02c-0.003-0.022-0.002-0.046,0.001-0.065c-0.001,0-0.001,0.006-0.001,0.008
					l0.057,0.055c0.115,0,0.373-0.171,0.612-0.406c0.25-0.244,0.427-0.5,0.427-0.617c-0.172-0.054-0.428,0.117-0.67,0.353
					c-0.229,0.225-0.394,0.458-0.422,0.583c0.031-0.168,0.189-0.381,0.399-0.588c0.255-0.254,0.515-0.424,0.635-0.424l0.079,0.076
					c-0.002,0.123-0.176,0.381-0.424,0.623C426.34,310.334,426.083,310.501,425.961,310.501L425.961,310.501z"/>
			</g>
			<path clip-path="url(#SVGID_4_)" fill="#F5D02C" d="M426.374,309.089v0.003c0.085,0.06-0.042,0.384-0.286,0.722l-0.01,0.009
				c-0.242,0.338-0.508,0.56-0.594,0.5l-0.001-0.003c-0.083-0.06,0.044-0.381,0.288-0.719l0.006-0.012
				C426.021,309.251,426.289,309.029,426.374,309.089L426.374,309.089z"/>
			<g clip-path="url(#SVGID_4_)">
				<path fill="#010101" d="M425.52,310.342l-0.04-0.008c-0.103-0.077,0.063-0.436,0.284-0.739c0.221-0.31,0.461-0.525,0.575-0.525
					c0.01,0.02,0.017,0.042,0.021,0.062c-0.156-0.026-0.376,0.192-0.573,0.463c-0.265,0.372-0.365,0.668-0.296,0.719l0.029,0.009
					c0.107,0,0.344-0.217,0.551-0.506c0.133-0.185,0.236-0.367,0.285-0.503c-0.033,0.15-0.132,0.329-0.26,0.506
					C425.873,310.126,425.635,310.342,425.52,310.342L425.52,310.342z"/>
			</g>
			<path clip-path="url(#SVGID_4_)" fill="#F5D02C" d="M426.198,308.898L426.198,308.898c0.085,0.061-0.043,0.384-0.287,0.722
				l-0.007,0.009c-0.244,0.338-0.51,0.562-0.596,0.503l-0.002-0.003c-0.083-0.06,0.045-0.384,0.289-0.722l0.009-0.009
				C425.848,309.061,426.113,308.836,426.198,308.898L426.198,308.898z"/>
			<g clip-path="url(#SVGID_4_)">
				<path fill="#010101" d="M425.343,310.151l-0.04-0.011c-0.006-0.021-0.008-0.046-0.01-0.068c0,0.002,0,0.006,0.002,0.012
					l0.048,0.045c0.106,0,0.344-0.216,0.553-0.506c0.132-0.185,0.234-0.366,0.284-0.503c-0.034,0.153-0.133,0.329-0.26,0.506
					C425.697,309.933,425.457,310.151,425.343,310.151L425.343,310.151z M425.291,310.049c0.006-0.173,0.125-0.412,0.297-0.647
					c0.221-0.31,0.461-0.525,0.574-0.525c0.01,0.021,0.018,0.042,0.023,0.062c-0.181-0.034-0.378,0.193-0.572,0.466
					C425.426,309.663,425.301,309.918,425.291,310.049L425.291,310.049z"/>
			</g>
			<path clip-path="url(#SVGID_4_)" fill="#F5D02C" d="M426.545,306.256l0.001,0.004c0.084,0.059-0.046,0.38-0.288,0.719
				l-0.008,0.011c-0.242,0.339-0.51,0.562-0.594,0.5h-0.002c-0.084-0.062,0.044-0.386,0.288-0.725l0.007-0.005
				C426.192,306.421,426.459,306.197,426.545,306.256L426.545,306.256z"/>
			<g clip-path="url(#SVGID_4_)">
				<path fill="#010101" d="M425.689,307.51l-0.039-0.012c-0.006-0.018-0.01-0.037-0.011-0.057l0,0l0.05,0.048
					c0.107,0,0.344-0.219,0.553-0.506c0.223-0.31,0.328-0.565,0.318-0.673c0.029,0.145-0.118,0.432-0.295,0.676
					C426.045,307.293,425.807,307.51,425.689,307.51L425.689,307.51z M425.64,307.396c0.009-0.171,0.126-0.403,0.294-0.636
					c0.222-0.308,0.462-0.523,0.577-0.523c0.015,0.009,0.025,0.02,0.034,0.037c-0.003-0.006-0.008-0.006-0.015-0.006
					c-0.136,0-0.369,0.213-0.572,0.497C425.776,307.015,425.652,307.266,425.64,307.396L425.64,307.396z"/>
			</g>
			<path clip-path="url(#SVGID_4_)" fill="#F5D02C" d="M426.781,306.41l0.002,0.002c0.084,0.061-0.045,0.381-0.289,0.719
				l-0.006,0.012c-0.244,0.336-0.51,0.561-0.594,0.5h-0.005c-0.083-0.062,0.046-0.387,0.288-0.725l0.009-0.008
				C426.43,306.572,426.695,306.348,426.781,306.41L426.781,306.41z"/>
			<g clip-path="url(#SVGID_4_)">
				<path fill="#010101" d="M425.928,307.662l-0.041-0.011c-0.104-0.073,0.064-0.435,0.283-0.739
					c0.223-0.307,0.463-0.525,0.576-0.525c0.009,0.02,0.018,0.043,0.021,0.065c-0.166-0.005-0.377,0.193-0.572,0.464
					c-0.268,0.369-0.368,0.664-0.299,0.715l0.031,0.012c0.105,0,0.342-0.219,0.552-0.506c0.13-0.185,0.233-0.366,0.282-0.502
					c-0.032,0.15-0.132,0.326-0.26,0.502C426.28,307.447,426.041,307.662,425.928,307.662L425.928,307.662z"/>
			</g>
			<path clip-path="url(#SVGID_4_)" fill="#F5D02C" d="M427.017,306.583l0.003,0.003c0.085,0.06-0.046,0.381-0.29,0.719
				l-0.006,0.012c-0.244,0.338-0.509,0.56-0.594,0.5l-0.003-0.003c-0.084-0.062,0.045-0.384,0.289-0.722l0.006-0.009
				C426.667,306.745,426.933,306.523,427.017,306.583L427.017,306.583z"/>
			<g clip-path="url(#SVGID_4_)">
				<path fill="#010101" d="M426.164,307.836l-0.04-0.012c-0.104-0.073,0.062-0.434,0.282-0.738
					c0.224-0.307,0.463-0.523,0.576-0.523c0.012,0.018,0.018,0.041,0.022,0.062c-0.149-0.008-0.378,0.191-0.573,0.464
					c-0.268,0.369-0.367,0.665-0.299,0.716l0.031,0.009c0.105,0,0.342-0.216,0.551-0.503c0.134-0.188,0.234-0.369,0.285-0.503
					c-0.035,0.15-0.133,0.327-0.262,0.503C426.516,307.62,426.277,307.836,426.164,307.836L426.164,307.836z"/>
			</g>
			<path clip-path="url(#SVGID_4_)" fill="#F5D02C" d="M427.275,306.765h0.002c0.084,0.062-0.045,0.384-0.289,0.722l-0.008,0.012
				c-0.242,0.335-0.51,0.56-0.594,0.497h-0.001c-0.085-0.062,0.044-0.384,0.286-0.722l0.01-0.012
				C426.926,306.927,427.189,306.702,427.275,306.765L427.275,306.765z"/>
			<g clip-path="url(#SVGID_4_)">
				<path fill="#010101" d="M426.422,308.018l-0.042-0.012c-0.103-0.073,0.065-0.434,0.284-0.738
					c0.227-0.312,0.461-0.525,0.576-0.525c0.01,0.02,0.018,0.043,0.021,0.065c-0.166-0.028-0.376,0.192-0.572,0.46
					c-0.268,0.373-0.367,0.668-0.299,0.719l0.031,0.009c0.105,0,0.342-0.216,0.551-0.506c0.132-0.182,0.234-0.366,0.283-0.5
					c-0.033,0.15-0.131,0.327-0.26,0.503C426.775,307.799,426.536,308.018,426.422,308.018L426.422,308.018z"/>
			</g>
			<path clip-path="url(#SVGID_4_)" fill="#F5D02C" d="M427.469,306.93L427.469,306.93c0.084,0.062-0.045,0.384-0.287,0.722
				l-0.009,0.011c-0.243,0.339-0.509,0.561-0.595,0.5l-0.002-0.002c-0.082-0.061,0.045-0.384,0.289-0.722l0.006-0.009
				C427.115,307.092,427.383,306.87,427.469,306.93L427.469,306.93z"/>
			<g clip-path="url(#SVGID_4_)">
				<path fill="#010101" d="M426.613,308.183l-0.04-0.011c-0.103-0.074,0.063-0.433,0.284-0.739c0.222-0.31,0.461-0.522,0.575-0.522
					c0.016,0.008,0.026,0.02,0.036,0.033c-0.004-0.002-0.01-0.006-0.015-0.006c-0.137,0-0.37,0.217-0.574,0.498
					c-0.266,0.372-0.366,0.668-0.297,0.716l0.03,0.009c0.107,0,0.344-0.217,0.551-0.506c0.225-0.31,0.33-0.565,0.318-0.671
					c0.031,0.146-0.117,0.429-0.293,0.674C426.967,307.967,426.729,308.183,426.613,308.183L426.613,308.183z"/>
			</g>
			<path clip-path="url(#SVGID_4_)" fill="#F5D02C" d="M428.746,307.648h0.004c0.084,0.062-0.046,0.387-0.291,0.725l-0.005,0.008
				c-0.245,0.336-0.511,0.563-0.594,0.501h-0.003c-0.086-0.062,0.045-0.384,0.287-0.722l0.008-0.012
				C428.396,307.813,428.663,307.586,428.746,307.648L428.746,307.648z"/>
			<g clip-path="url(#SVGID_4_)">
				<path fill="#010101" d="M427.895,308.904l-0.041-0.014c-0.104-0.074,0.063-0.436,0.282-0.739c0.228-0.31,0.46-0.522,0.577-0.522
					c0.014,0.008,0.025,0.02,0.033,0.033c-0.004-0.002-0.008-0.005-0.011-0.005c-0.138,0-0.37,0.216-0.574,0.497
					c-0.267,0.369-0.366,0.668-0.298,0.716l0.031,0.012c0.105,0,0.342-0.219,0.551-0.506c0.217-0.298,0.322-0.552,0.318-0.662
					c0.021,0.147-0.119,0.423-0.295,0.665C428.246,308.686,428.008,308.904,427.895,308.904L427.895,308.904z"/>
			</g>
			<path clip-path="url(#SVGID_4_)" fill="#F5D02C" d="M428.551,307.58h0.002c0.083,0.062-0.046,0.387-0.289,0.722l-0.008,0.009
				c-0.244,0.338-0.51,0.562-0.595,0.503l-0.003-0.003c-0.082-0.06,0.046-0.384,0.29-0.722l0.007-0.009
				C428.198,307.742,428.465,307.518,428.551,307.58L428.551,307.58z"/>
			<g clip-path="url(#SVGID_4_)">
				<path fill="#010101" d="M427.695,308.834l-0.039-0.012c-0.104-0.077,0.063-0.436,0.283-0.739
					c0.222-0.31,0.461-0.525,0.576-0.525c0.01,0.022,0.017,0.042,0.021,0.062c-0.156,0-0.376,0.193-0.573,0.466
					c-0.267,0.369-0.368,0.668-0.298,0.716l0.029,0.012c0.106,0,0.344-0.219,0.551-0.509c0.135-0.182,0.236-0.366,0.285-0.5
					c-0.033,0.15-0.131,0.326-0.26,0.503C428.049,308.617,427.809,308.834,427.695,308.834L427.695,308.834z"/>
			</g>
			<path clip-path="url(#SVGID_4_)" fill="#F5D02C" d="M428.375,307.489L428.375,307.489c0.084,0.062-0.043,0.387-0.287,0.722
				l-0.009,0.012c-0.243,0.338-0.509,0.56-0.594,0.5l-0.003-0.003c-0.082-0.06,0.045-0.384,0.289-0.719l0.008-0.012
				C428.023,307.651,428.289,307.427,428.375,307.489L428.375,307.489z"/>
			<g clip-path="url(#SVGID_4_)">
				<path fill="#010101" d="M427.521,308.742l-0.041-0.012c-0.103-0.073,0.063-0.434,0.284-0.738
					c0.227-0.312,0.461-0.522,0.575-0.522c0.011,0.02,0.017,0.04,0.021,0.062c-0.171-0.034-0.375,0.192-0.573,0.463
					c-0.267,0.372-0.367,0.668-0.298,0.716l0.031,0.009c0.105,0,0.343-0.216,0.55-0.506c0.134-0.182,0.236-0.364,0.284-0.5
					c-0.034,0.153-0.13,0.327-0.259,0.503C427.873,308.526,427.635,308.742,427.521,308.742L427.521,308.742z"/>
			</g>
			<path clip-path="url(#SVGID_4_)" fill="#F5D02C" d="M428.133,307.33h0.003c0.084,0.062-0.046,0.384-0.288,0.722l-0.008,0.012
				c-0.244,0.335-0.51,0.56-0.594,0.497h-0.002c-0.086-0.062,0.045-0.384,0.289-0.722l0.006-0.011
				C427.783,307.492,428.048,307.268,428.133,307.33L428.133,307.33z"/>
			<g clip-path="url(#SVGID_4_)">
				<path fill="#010101" d="M427.281,308.583l-0.042-0.011c-0.104-0.074,0.063-0.436,0.286-0.739c0.221-0.31,0.46-0.525,0.573-0.525
					c0.015,0.009,0.024,0.021,0.032,0.031c-0.004-0.003-0.006,0-0.01,0c-0.137,0-0.369,0.213-0.573,0.497
					c-0.267,0.369-0.366,0.665-0.298,0.716l0.031,0.009c0.104,0,0.34-0.216,0.551-0.506c0.213-0.295,0.32-0.543,0.318-0.656
					c0.02,0.148-0.123,0.42-0.295,0.659C427.63,308.37,427.396,308.583,427.281,308.583L427.281,308.583z"/>
			</g>
			<path clip-path="url(#SVGID_4_)" fill="#F5D02C" d="M427.877,307.199l0.003,0.003c0.084,0.06-0.046,0.384-0.29,0.722
				l-0.006,0.009c-0.244,0.338-0.51,0.562-0.594,0.503l-0.002-0.003c-0.086-0.06,0.044-0.384,0.287-0.722l0.008-0.008
				C427.527,307.364,427.792,307.14,427.877,307.199L427.877,307.199z"/>
			<g clip-path="url(#SVGID_4_)">
				<path fill="#010101" d="M427.025,308.455l-0.041-0.014c-0.104-0.074,0.063-0.432,0.282-0.736
					c0.228-0.312,0.46-0.525,0.577-0.525c0.014,0.009,0.025,0.02,0.033,0.034c-0.002,0-0.007-0.003-0.012-0.003
					c-0.137,0-0.369,0.213-0.573,0.497c-0.267,0.37-0.368,0.665-0.298,0.714l0.031,0.011c0.104,0,0.342-0.219,0.551-0.506
					c0.216-0.298,0.322-0.548,0.318-0.661c0.021,0.146-0.119,0.423-0.296,0.664C427.377,308.239,427.139,308.455,427.025,308.455
					L427.025,308.455z"/>
			</g>
			<path clip-path="url(#SVGID_4_)" fill="#F5D02C" d="M427.674,307.062h0.004c0.084,0.061-0.045,0.387-0.289,0.723l-0.008,0.008
				c-0.242,0.338-0.51,0.562-0.594,0.504l-0.002-0.004c-0.084-0.059,0.045-0.383,0.288-0.721l0.007-0.009
				C427.323,307.225,427.59,307,427.674,307.062L427.674,307.062z"/>
			<g clip-path="url(#SVGID_4_)">
				<path fill="#010101" d="M426.822,308.316l-0.041-0.012c-0.104-0.076,0.062-0.435,0.283-0.738
					c0.223-0.311,0.461-0.525,0.574-0.525c0.012,0.021,0.019,0.042,0.022,0.062c-0.159,0-0.376,0.193-0.571,0.465
					c-0.268,0.37-0.369,0.666-0.298,0.717l0.03,0.008c0.105,0,0.342-0.215,0.551-0.506c0.132-0.182,0.232-0.363,0.284-0.5
					c-0.036,0.154-0.132,0.327-0.261,0.504C427.176,308.1,426.936,308.316,426.822,308.316L426.822,308.316z"/>
			</g>
			<path clip-path="url(#SVGID_4_)" fill="#F5D02C" d="M425.661,308.547h0.003c0.091,0.051,0.006,0.386-0.193,0.752l-0.006,0.012
				c-0.199,0.367-0.435,0.622-0.525,0.574l-0.003-0.003c-0.091-0.048-0.005-0.387,0.193-0.753l0.005-0.012
				C425.334,308.754,425.57,308.498,425.661,308.547L425.661,308.547z"/>
			<g clip-path="url(#SVGID_4_)">
				<path fill="#010101" d="M424.965,309.898l-0.031-0.008c-0.008-0.021-0.016-0.043-0.02-0.068
					c0.001,0.006,0.002,0.012,0.004,0.014l0.047,0.043c0.103,0,0.312-0.247,0.49-0.574c0.112-0.207,0.191-0.408,0.222-0.554
					c-0.013,0.159-0.089,0.354-0.197,0.554C425.291,309.654,425.076,309.898,424.965,309.898L424.965,309.898z M424.912,309.811
					c-0.021-0.17,0.066-0.424,0.209-0.685c0.189-0.353,0.404-0.597,0.515-0.597c0.01,0.018,0.02,0.037,0.025,0.057
					c-0.147-0.006-0.35,0.233-0.515,0.54C424.99,309.41,424.899,309.686,424.912,309.811L424.912,309.811z"/>
			</g>
			<path clip-path="url(#SVGID_4_)" fill="#F5D02C" d="M425.773,307.197l0.003,0.002c0.083,0.061-0.044,0.381-0.288,0.719
				l-0.008,0.012c-0.242,0.336-0.51,0.56-0.594,0.5l-0.003-0.003c-0.083-0.06,0.044-0.384,0.288-0.722l0.008-0.008
				C425.422,307.359,425.689,307.135,425.773,307.197L425.773,307.197z"/>
			<g clip-path="url(#SVGID_4_)">
				<path fill="#010101" d="M424.92,308.449l-0.04-0.011c-0.103-0.074,0.063-0.435,0.284-0.739c0.222-0.307,0.46-0.525,0.574-0.525
					c0.016,0.012,0.026,0.02,0.035,0.034c-0.003,0-0.008,0-0.013,0c-0.138,0-0.37,0.214-0.573,0.495
					c-0.267,0.369-0.367,0.664-0.297,0.715l0.029,0.009c0.105,0,0.344-0.216,0.553-0.503c0.213-0.295,0.319-0.545,0.319-0.658
					c0.017,0.146-0.122,0.42-0.296,0.658C425.275,308.234,425.035,308.449,424.92,308.449L424.92,308.449z"/>
			</g>
			<path clip-path="url(#SVGID_4_)" fill="#F5D02C" d="M426.011,307.35h0.003c0.084,0.062-0.046,0.385-0.29,0.723l-0.006,0.011
				c-0.244,0.335-0.511,0.56-0.594,0.497h-0.003c-0.085-0.062,0.045-0.383,0.287-0.721l0.009-0.012
				C425.66,307.512,425.926,307.287,426.011,307.35L426.011,307.35z"/>
			<g clip-path="url(#SVGID_4_)">
				<path fill="#010101" d="M425.158,308.604l-0.041-0.012c-0.004-0.02-0.009-0.04-0.01-0.06l0,0l0.051,0.048
					c0.105,0,0.341-0.216,0.551-0.502c0.213-0.299,0.321-0.546,0.318-0.662c0.02,0.15-0.122,0.423-0.295,0.662
					C425.511,308.387,425.271,308.604,425.158,308.604L425.158,308.604z M425.107,308.489c0.008-0.171,0.125-0.403,0.293-0.636
					c0.223-0.307,0.463-0.525,0.576-0.525c0.014,0.011,0.023,0.02,0.033,0.033c-0.002-0.002-0.008-0.002-0.011-0.002
					c-0.14,0-0.369,0.213-0.573,0.496C425.244,308.109,425.119,308.355,425.107,308.489L425.107,308.489z"/>
			</g>
			<path clip-path="url(#SVGID_4_)" fill="#F5D02C" d="M426.246,307.523h0.003c0.085,0.062-0.046,0.384-0.288,0.722l-0.008,0.011
				c-0.244,0.336-0.511,0.561-0.594,0.498h-0.002c-0.086-0.062,0.045-0.384,0.288-0.722l0.007-0.012
				C425.896,307.686,426.162,307.461,426.246,307.523L426.246,307.523z"/>
			<g clip-path="url(#SVGID_4_)">
				<path fill="#010101" d="M425.395,308.776l-0.04-0.011c-0.105-0.074,0.062-0.436,0.282-0.739c0.223-0.31,0.462-0.525,0.576-0.525
					c0.014,0.009,0.025,0.02,0.033,0.034c-0.002-0.003-0.008-0.003-0.012-0.003c-0.137,0-0.369,0.213-0.573,0.497
					c-0.267,0.369-0.366,0.665-0.298,0.716l0.031,0.009c0.104,0,0.342-0.217,0.551-0.506c0.213-0.295,0.32-0.545,0.318-0.659
					c0.02,0.15-0.121,0.423-0.295,0.662C425.746,308.561,425.508,308.776,425.395,308.776L425.395,308.776z"/>
			</g>
			<path clip-path="url(#SVGID_4_)" fill="#F5D02C" d="M426.505,307.703h0.003c0.084,0.062-0.045,0.386-0.29,0.724l-0.007,0.009
				c-0.243,0.338-0.51,0.562-0.592,0.5l-0.005-0.003c-0.084-0.06,0.046-0.381,0.288-0.719l0.009-0.011
				C426.154,307.867,426.42,307.643,426.505,307.703L426.505,307.703z"/>
			<g clip-path="url(#SVGID_4_)">
				<path fill="#010101" d="M425.652,308.959l-0.043-0.012c-0.004-0.02-0.008-0.04-0.008-0.061l0,0l0.051,0.049
					c0.105,0,0.342-0.219,0.55-0.506c0.216-0.299,0.323-0.551,0.319-0.662c0.021,0.148-0.12,0.424-0.295,0.665
					C426.005,308.739,425.766,308.959,425.652,308.959L425.652,308.959z M425.6,308.842c0.009-0.17,0.127-0.4,0.295-0.634
					c0.223-0.31,0.461-0.525,0.576-0.525c0.014,0.009,0.025,0.021,0.034,0.034c-0.005-0.003-0.009-0.006-0.013-0.006
					c-0.138,0-0.369,0.216-0.572,0.497C425.738,308.464,425.614,308.711,425.6,308.842L425.6,308.842z"/>
			</g>
			<path clip-path="url(#SVGID_4_)" fill="#F5D02C" d="M426.695,307.87h0.004c0.084,0.062-0.045,0.384-0.288,0.722l-0.009,0.008
				c-0.242,0.339-0.508,0.563-0.594,0.504l-0.002-0.003c-0.084-0.062,0.045-0.384,0.289-0.722l0.006-0.012
				C426.346,308.032,426.613,307.808,426.695,307.87L426.695,307.87z"/>
			<g clip-path="url(#SVGID_4_)">
				<path fill="#010101" d="M425.843,309.123l-0.04-0.012c-0.104-0.076,0.062-0.435,0.285-0.738c0.221-0.31,0.459-0.525,0.573-0.525
					c0.011,0.02,0.017,0.043,0.022,0.062c-0.156,0.006-0.376,0.193-0.574,0.463c-0.267,0.372-0.365,0.668-0.297,0.719l0.03,0.009
					c0.105,0,0.344-0.216,0.552-0.506c0.133-0.183,0.234-0.366,0.283-0.5c-0.033,0.15-0.132,0.327-0.258,0.503
					C426.197,308.904,425.957,309.123,425.843,309.123L425.843,309.123z"/>
			</g>
			<path clip-path="url(#SVGID_4_)" fill="#F5D02C" d="M427.977,308.586l0.003,0.003c0.085,0.062-0.046,0.384-0.29,0.722
				l-0.006,0.012c-0.244,0.335-0.511,0.562-0.594,0.5l-0.002-0.003c-0.086-0.06,0.045-0.384,0.288-0.722l0.007-0.009
				C427.626,308.754,427.893,308.526,427.977,308.586L427.977,308.586z"/>
			<g clip-path="url(#SVGID_4_)">
				<path fill="#010101" d="M427.125,309.842l-0.042-0.012c-0.004-0.017-0.009-0.037-0.01-0.057l0,0l0.052,0.049
					c0.104,0,0.342-0.219,0.551-0.506c0.217-0.301,0.324-0.557,0.318-0.668c0.022,0.148-0.119,0.426-0.296,0.671
					C427.477,309.626,427.238,309.842,427.125,309.842L427.125,309.842z M427.073,309.729c0.009-0.171,0.125-0.404,0.294-0.637
					c0.223-0.307,0.462-0.525,0.575-0.525c0.016,0.012,0.027,0.022,0.036,0.037c-0.005-0.004-0.01-0.006-0.015-0.006
					c-0.138,0-0.368,0.216-0.572,0.497C427.209,309.348,427.086,309.595,427.073,309.729L427.073,309.729z"/>
			</g>
			<path clip-path="url(#SVGID_4_)" fill="#F5D02C" d="M427.779,308.518l0.003,0.003c0.083,0.06-0.046,0.384-0.288,0.722
				l-0.009,0.009c-0.241,0.338-0.509,0.562-0.593,0.503l-0.004-0.003c-0.084-0.06,0.045-0.384,0.289-0.722l0.008-0.008
				C427.428,308.683,427.695,308.458,427.779,308.518L427.779,308.518z"/>
			<g clip-path="url(#SVGID_4_)">
				<path fill="#010101" d="M426.927,309.773l-0.041-0.014c-0.104-0.074,0.063-0.432,0.284-0.736c0.222-0.31,0.46-0.525,0.574-0.525
					c0.014,0.008,0.025,0.02,0.033,0.034c0-0.003-0.006-0.003-0.011-0.003c-0.137,0-0.37,0.213-0.573,0.497
					c-0.267,0.37-0.367,0.665-0.297,0.716l0.03,0.009c0.105,0,0.343-0.219,0.55-0.506c0.215-0.296,0.321-0.546,0.321-0.659
					c0.017,0.148-0.122,0.421-0.296,0.662C427.279,309.558,427.041,309.773,426.927,309.773L426.927,309.773z"/>
			</g>
			<path clip-path="url(#SVGID_4_)" fill="#F5D02C" d="M427.604,308.427l0.002,0.003c0.084,0.06-0.045,0.384-0.288,0.722
				l-0.009,0.009c-0.241,0.338-0.508,0.562-0.592,0.503l-0.004-0.003c-0.084-0.06,0.045-0.384,0.289-0.722l0.008-0.009
				C427.252,308.592,427.52,308.367,427.604,308.427L427.604,308.427z"/>
			<g clip-path="url(#SVGID_4_)">
				<path fill="#010101" d="M426.75,309.683l-0.041-0.011c-0.006-0.021-0.008-0.04-0.01-0.061v0.004l0.051,0.045
					c0.107,0,0.344-0.216,0.551-0.506c0.216-0.295,0.32-0.545,0.32-0.656c0.018,0.145-0.121,0.42-0.295,0.659
					C427.104,309.467,426.864,309.683,426.75,309.683L426.75,309.683z M426.699,309.569c0.008-0.171,0.127-0.403,0.295-0.637
					c0.221-0.31,0.46-0.525,0.574-0.525c0.014,0.009,0.025,0.02,0.033,0.034c0-0.003-0.006-0.003-0.012-0.003
					c-0.136,0-0.369,0.213-0.572,0.497C426.834,309.188,426.713,309.436,426.699,309.569L426.699,309.569z"/>
			</g>
			<path clip-path="url(#SVGID_4_)" fill="#F5D02C" d="M427.363,308.271h0.002c0.084,0.06-0.045,0.384-0.287,0.722l-0.008,0.009
				c-0.244,0.338-0.51,0.56-0.594,0.5l-0.003-0.003c-0.085-0.06,0.046-0.381,0.29-0.719l0.006-0.012
				C427.014,308.433,427.279,308.208,427.363,308.271L427.363,308.271z"/>
			<g clip-path="url(#SVGID_4_)">
				<path fill="#010101" d="M426.511,309.521l-0.04-0.01c-0.007-0.021-0.012-0.045-0.012-0.067c0,0.003,0,0.005,0,0.009l0.052,0.048
					c0.104,0,0.343-0.216,0.552-0.506c0.215-0.298,0.323-0.552,0.317-0.662c0.022,0.146-0.119,0.424-0.294,0.665
					C426.863,309.305,426.624,309.521,426.511,309.521L426.511,309.521z M426.459,309.418c0.004-0.173,0.123-0.408,0.296-0.645
					c0.222-0.31,0.46-0.525,0.574-0.525c0.015,0.008,0.025,0.02,0.034,0.034c-0.003-0.003-0.009-0.006-0.012-0.006
					c-0.138,0-0.369,0.216-0.574,0.497C426.592,309.035,426.467,309.291,426.459,309.418L426.459,309.418z"/>
			</g>
			<path clip-path="url(#SVGID_4_)" fill="#F5D02C" d="M427.107,308.141l0.003,0.002c0.085,0.061-0.046,0.381-0.29,0.719
				l-0.006,0.012c-0.244,0.338-0.512,0.562-0.594,0.5h-0.003c-0.085-0.062,0.046-0.387,0.287-0.725l0.009-0.006
				C426.756,308.305,427.023,308.08,427.107,308.141L427.107,308.141z"/>
			<g clip-path="url(#SVGID_4_)">
				<path fill="#010101" d="M426.255,309.396l-0.041-0.015c-0.005-0.017-0.009-0.034-0.011-0.058l0,0l0.052,0.049
					c0.104,0,0.343-0.219,0.552-0.506c0.219-0.307,0.326-0.562,0.318-0.668c0.027,0.146-0.12,0.43-0.297,0.671
					C426.607,309.178,426.369,309.396,426.255,309.396L426.255,309.396z M426.203,309.279c0.01-0.17,0.125-0.403,0.293-0.637
					c0.223-0.307,0.462-0.522,0.577-0.522c0.015,0.009,0.025,0.021,0.034,0.034c-0.003-0.003-0.009-0.003-0.013-0.003
					c-0.138,0-0.37,0.216-0.573,0.497C426.34,308.898,426.217,309.148,426.203,309.279L426.203,309.279z"/>
			</g>
			<path clip-path="url(#SVGID_4_)" fill="#F5D02C" d="M426.906,308.001v0.003c0.084,0.06-0.043,0.383-0.287,0.722l-0.008,0.009
				c-0.244,0.338-0.51,0.562-0.596,0.502l-0.001-0.002c-0.083-0.061,0.044-0.384,0.288-0.723l0.009-0.008
				C426.553,308.166,426.82,307.941,426.906,308.001L426.906,308.001z"/>
			<g clip-path="url(#SVGID_4_)">
				<path fill="#010101" d="M426.052,309.257l-0.041-0.015c-0.006-0.02-0.011-0.043-0.011-0.068c0,0.006,0,0.009,0.002,0.015
					l0.05,0.046c0.104,0,0.343-0.219,0.552-0.506c0.219-0.302,0.324-0.555,0.319-0.665c0.022,0.145-0.12,0.423-0.296,0.667
					C426.4,309.043,426.167,309.257,426.052,309.257L426.052,309.257z M425.999,309.154c0.005-0.174,0.124-0.409,0.296-0.65
					c0.223-0.307,0.463-0.523,0.575-0.523c0.016,0.009,0.026,0.021,0.036,0.037c-0.005-0.006-0.01-0.008-0.016-0.006
					c-0.136,0-0.367,0.217-0.57,0.498C426.131,308.768,426.006,309.023,425.999,309.154L425.999,309.154z"/>
			</g>
			<path clip-path="url(#SVGID_4_)" fill="#A98035" d="M427.063,299.102h0.004c0.142,0,0.256,0.04,0.256,0.091v3.038
				c0,0.048-0.114,0.091-0.256,0.091h-0.004c-0.141,0-0.257-0.043-0.257-0.091v-3.038
				C426.807,299.142,426.923,299.102,427.063,299.102L427.063,299.102z"/>
			<g clip-path="url(#SVGID_4_)">
				<path fill="#010101" d="M427.067,302.326h-0.004c-0.149,0-0.265-0.039-0.265-0.096v-3.038c0-0.111,0.533-0.108,0.533,0v3.038
					C427.332,302.287,427.219,302.326,427.067,302.326L427.067,302.326z M427.067,299.11c-0.153,0-0.253,0.043-0.253,0.083v3.038
					c0,0.039,0.1,0.082,0.249,0.082h0.004c0.149,0,0.25-0.043,0.25-0.082v-3.038C427.317,299.153,427.217,299.11,427.067,299.11
					L427.067,299.11z"/>
			</g>
			<polygon clip-path="url(#SVGID_4_)" fill="#33783B" points="426.526,300.318 425.039,301.324 425.995,300.105 426.951,299.883 
							"/>
			<g clip-path="url(#SVGID_4_)">
				<path fill="#010101" d="M425.047,301.336l-0.02-0.023l0.955-1.213l0.966-0.23l-0.412,0.46L425.047,301.336L425.047,301.336z
					 M426.941,299.872l-0.942,0.25l-0.89,1.137l1.408-0.952L426.941,299.872L426.941,299.872z"/>
			</g>
			<polygon clip-path="url(#SVGID_4_)" fill="#33783B" points="426.488,300.119 424.424,300.381 426.225,299.733 427.017,299.872 
							"/>
			<g clip-path="url(#SVGID_4_)">
				<path fill="#010101" d="M424.426,300.397l-0.006-0.031l1.801-0.647l0.799,0.139l-0.523,0.275L424.426,300.397L424.426,300.397z
					 M426.224,299.747l-1.668,0.603l1.933-0.245l0.522-0.247L426.224,299.747L426.224,299.747z"/>
			</g>
			<polygon clip-path="url(#SVGID_4_)" fill="#33783B" points="427.533,300.196 428.107,301.318 427.198,300.466 426.943,299.849 
							"/>
			<g clip-path="url(#SVGID_4_)">
				<path fill="#010101" d="M428.096,301.326l-0.908-0.849l-0.258-0.619l0.612,0.324l0.579,1.128L428.096,301.326L428.096,301.326z
					 M426.938,299.863l0.275,0.597l0.842,0.787l-0.534-1.045L426.938,299.863L426.938,299.863z"/>
			</g>
			<polygon clip-path="url(#SVGID_4_)" fill="#33783B" points="427.782,299.784 429.542,301.326 427.426,300.253 426.836,299.866 
							"/>
			<g clip-path="url(#SVGID_4_)">
				<path fill="#010101" d="M429.537,301.341l-2.12-1.074l-0.589-0.389l0.953-0.111l1.772,1.548L429.537,301.341L429.537,301.341z
					 M427.771,299.795l-0.934,0.088l0.595,0.358l2.011,1.018L427.771,299.795L427.771,299.795z"/>
			</g>
			<polygon clip-path="url(#SVGID_4_)" fill="#33783B" points="426.374,299.935 424.266,299.182 426.34,299.202 427.039,299.94 			
				"/>
			<g clip-path="url(#SVGID_4_)">
				<path fill="#010101" d="M427.073,299.955l-0.699-0.003l-2.114-0.756l2.08-0.008L427.073,299.955L427.073,299.955z
					 M424.266,299.196l2.114,0.725l0.622,0.003l-0.672-0.71L424.266,299.196L424.266,299.196z"/>
			</g>
			<polygon clip-path="url(#SVGID_4_)" fill="#33783B" points="426.158,299.332 425.156,298.062 426.65,299.008 427.008,299.972 			
				"/>
			<g clip-path="url(#SVGID_4_)">
				<path fill="#010101" d="M427.039,300.014l-0.889-0.667l-1.006-1.273l1.514,0.92L427.039,300.014L427.039,300.014z
					 M425.148,298.076l1.021,1.248l0.805,0.605l-0.338-0.917L425.148,298.076L425.148,298.076z"/>
			</g>
			<polygon clip-path="url(#SVGID_4_)" fill="#33783B" points="426.502,299.065 425.917,297.627 427,298.807 426.954,299.957 			"/>
			<g clip-path="url(#SVGID_4_)">
				<path fill="#010101" d="M426.965,300.017l-0.476-0.943l-0.587-1.44l1.108,1.162L426.965,300.017L426.965,300.017z
					 M425.905,297.636l0.61,1.424l0.424,0.838l0.046-1.091L425.905,297.636L425.905,297.636z"/>
			</g>
			<polygon clip-path="url(#SVGID_4_)" fill="#33783B" points="427.102,298.946 428.423,297.81 427.521,299.372 426.916,299.92 			
				"/>
			<g clip-path="url(#SVGID_4_)">
				<path fill="#010101" d="M426.893,299.96l0.195-1.014l1.326-1.148l-0.881,1.58L426.893,299.96L426.893,299.96z M428.41,297.801
					l-1.299,1.159l-0.172,0.918l0.571-0.518L428.41,297.801L428.41,297.801z"/>
			</g>
			<polygon clip-path="url(#SVGID_4_)" fill="#33783B" points="427.511,299.102 429.21,298.767 427.701,299.722 426.908,299.926 			
				"/>
			<g clip-path="url(#SVGID_4_)">
				<path fill="#010101" d="M426.871,299.952l0.627-0.861l1.709-0.338l-1.498,0.98L426.871,299.952L426.871,299.952z
					 M429.201,298.752l-1.688,0.364l-0.568,0.784l0.753-0.193L429.201,298.752L429.201,298.752z"/>
			</g>
			<polygon clip-path="url(#SVGID_4_)" fill="#33783B" points="427.502,299.449 429.579,299.741 427.639,300.065 427.002,299.878 
							"/>
			<g clip-path="url(#SVGID_4_)">
				<path fill="#010101" d="M427.639,300.08l-0.641-0.188l0.496-0.455l2.088,0.287L427.639,300.08L427.639,300.08z M427.5,299.463
					l-0.489,0.426l0.628,0.162l1.938-0.327L427.5,299.463L427.5,299.463z"/>
			</g>
			<polygon clip-path="url(#SVGID_4_)" fill="#33783B" points="426.74,300.446 426.021,301.071 426.448,300.318 426.963,299.9 			
				"/>
			<g clip-path="url(#SVGID_4_)">
				<path fill="#010101" d="M426.03,301.082l-0.022-0.017l0.426-0.753l0.52-0.423l-0.198,0.562L426.03,301.082L426.03,301.082z
					 M426.948,299.895l-0.491,0.438l-0.381,0.67l0.653-0.565L426.948,299.895L426.948,299.895z"/>
			</g>
			<polygon clip-path="url(#SVGID_4_)" fill="#33783B" points="426.817,300.077 425.713,300.767 426.633,299.886 427.045,299.713 
							"/>
			<g clip-path="url(#SVGID_4_)">
				<path fill="#010101" d="M425.718,300.775l-0.013-0.014l0.92-0.883l0.416-0.173l-0.215,0.375L425.718,300.775L425.718,300.775z
					 M427.036,299.707l-0.399,0.188l-0.848,0.813l1.023-0.639L427.036,299.707L427.036,299.707z"/>
			</g>
			<polygon clip-path="url(#SVGID_4_)" fill="#33783B" points="427.332,299.943 428.158,301.086 427.161,300.176 426.939,299.738 
							"/>
			<g clip-path="url(#SVGID_4_)">
				<path fill="#010101" d="M428.151,301.091l-0.995-0.906l-0.225-0.438l0.406,0.188l0.829,1.146L428.151,301.091L428.151,301.091z
					 M426.934,299.75l0.239,0.42l0.916,0.838l-0.766-1.06L426.934,299.75L426.934,299.75z"/>
			</g>
			<polygon clip-path="url(#SVGID_4_)" fill="#33783B" points="426.664,299.724 425.57,298.738 426.639,299.438 427.002,299.835 			
				"/>
			<g clip-path="url(#SVGID_4_)">
				<path fill="#010101" d="M427.032,299.858l-0.372-0.125l-1.096-0.986l1.08,0.682L427.032,299.858L427.032,299.858z
					 M425.566,298.747l1.104,0.972l0.301,0.097l-0.338-0.373L425.566,298.747L425.566,298.747z"/>
			</g>
			<polygon clip-path="url(#SVGID_4_)" fill="#33783B" points="427.188,299.577 428.204,299.747 427.215,299.741 426.906,299.821 
							"/>
			<g clip-path="url(#SVGID_4_)">
				<path fill="#010101" d="M426.906,299.83l-0.008-0.017l0.284-0.245l1.024,0.17l-0.992,0.015L426.906,299.83L426.906,299.83z
					 M427.188,299.585l-0.248,0.216l0.273-0.068l0.991,0.005L427.188,299.585L427.188,299.585z"/>
			</g>
			<polygon clip-path="url(#SVGID_4_)" fill="#33783B" points="426.879,299.127 427.65,298.227 427.244,298.943 426.923,299.784 			
				"/>
			<g clip-path="url(#SVGID_4_)">
				<path fill="#010101" d="M426.936,299.79l-0.029-0.003l-0.043-0.659l0.775-0.912l-0.383,0.736L426.936,299.79L426.936,299.79z
					 M427.637,298.221l-0.746,0.918l0.041,0.577l0.298-0.776L427.637,298.221L427.637,298.221z"/>
			</g>
			<polygon clip-path="url(#SVGID_4_)" fill="#33783B" points="426.511,299.395 425.672,299.335 426.542,299.105 426.994,299.747 
							"/>
			<g clip-path="url(#SVGID_4_)">
				<path fill="#010101" d="M426.984,299.758l-0.484-0.349l-0.829-0.057l0.865-0.261l0.469,0.645L426.984,299.758L426.984,299.758z
					 M426.529,299.113l-0.854,0.236l0.835,0.031l0.419,0.301L426.529,299.113L426.529,299.113z"/>
			</g>
			<polygon clip-path="url(#SVGID_4_)" fill="#33783B" points="426.65,300.188 425.207,300.775 426.408,300.028 426.947,299.88 			
				"/>
			<g clip-path="url(#SVGID_4_)">
				<path fill="#010101" d="M425.209,300.784l-0.008-0.017l1.203-0.75l0.539-0.145l-0.285,0.324L425.209,300.784L425.209,300.784z
					 M426.939,299.872l-0.527,0.165l-1.095,0.682l1.329-0.543L426.939,299.872L426.939,299.872z"/>
			</g>
			<path clip-path="url(#SVGID_4_)" fill="#A98035" d="M419.138,299.861h0.003c0.068,0.025,0.116,0.08,0.105,0.113l-0.693,2.242
				c-0.012,0.037-0.077,0.043-0.148,0.017h-0.001c-0.069-0.025-0.116-0.076-0.106-0.113l0.693-2.241
				C419.002,299.844,419.066,299.835,419.138,299.861L419.138,299.861z"/>
			<g clip-path="url(#SVGID_4_)">
				<path fill="#010101" d="M418.484,302.256l-0.082-0.018c-0.074-0.027-0.123-0.079-0.111-0.119l0.693-2.241l0.156-0.023
					c0.074,0.028,0.123,0.083,0.111,0.122l-0.693,2.239L418.484,302.256L418.484,302.256z M419.138,299.866l-0.14,0.014
					l-0.694,2.242c-0.01,0.034,0.036,0.079,0.101,0.105l0.08,0.022l0.061-0.037l0.695-2.239
					C419.248,299.94,419.203,299.892,419.138,299.866L419.138,299.866z"/>
			</g>
			<path clip-path="url(#SVGID_4_)" fill="#A98035" d="M417.725,299.65L417.725,299.65c0.074,0,0.135,0.031,0.135,0.068v2.367
				c0,0.039-0.061,0.07-0.134,0.07h-0.001c-0.076,0-0.135-0.031-0.135-0.07v-2.367C417.59,299.682,417.648,299.65,417.725,299.65
				L417.725,299.65z"/>
			<g clip-path="url(#SVGID_4_)">
				<path fill="#010101" d="M417.726,302.162c-0.079,0-0.142-0.031-0.142-0.076v-2.367c0-0.085,0.283-0.085,0.283,0v2.367
					C417.867,302.131,417.805,302.162,417.726,302.162L417.726,302.162z M417.726,299.656c-0.071,0-0.128,0.028-0.128,0.062v2.367
					c0,0.033,0.057,0.062,0.127,0.062h0.001c0.068,0,0.128-0.029,0.128-0.062v-2.367
					C417.854,299.685,417.794,299.656,417.726,299.656L417.726,299.656z"/>
			</g>
			<path clip-path="url(#SVGID_4_)" fill="#294921" d="M416.898,298.369c0.331-0.1,0.582,0.105,0.688,0.545
				c0.002,0.04,0.078,0.045,0.077,0.034c-0.057-0.748,0.688-1.361,1.159-0.304c0.045,0.168-0.227-0.085-0.399-0.278
				c-0.216-0.264-0.51,0.06-0.53,0.753c-0.02,0.159-0.047,0.503-0.047,0.503s-0.242-0.034-0.248-0.042
				c-0.006-0.009-0.203-0.861-0.56-0.949c-0.267-0.04-0.196,0.125-0.515,0.196c-0.295,0.028-0.287-0.017-0.066-0.117
				C416.648,298.702,416.773,298.415,416.898,298.369L416.898,298.369z"/>
			<g clip-path="url(#SVGID_4_)">
				<path fill="#010101" d="M417.854,299.628h-0.009c-0.245-0.031-0.253-0.04-0.253-0.043c-0.086-0.315-0.185-0.557-0.289-0.719
					c0.148,0.208,0.241,0.492,0.295,0.688c0.016,0.026,0.153,0.048,0.242,0.06c0.005-0.051,0.027-0.349,0.047-0.494
					c0.021-0.747,0.339-1.009,0.542-0.756c0.084,0.094,0.179,0.188,0.256,0.25c-0.09-0.054-0.193-0.159-0.267-0.241
					c-0.192-0.239-0.496,0.022-0.518,0.747c-0.019,0.159-0.047,0.503-0.047,0.503V299.628L417.854,299.628z M417.672,298.949
					c-0.02-0.045-0.04-0.085-0.061-0.122c0.046-0.213,0.13-0.44,0.268-0.591c0.287-0.31,0.697-0.159,0.949,0.406
					c-0.01,0.009-0.021,0.012-0.034,0.012c-0.237-0.588-0.631-0.702-0.903-0.406C417.734,298.415,417.65,298.685,417.672,298.949
					L417.672,298.949z M416.382,298.844c-0.021-0.012-0.034-0.02-0.046-0.026c0.09,0.009,0.134,0.006,0.188,0
					c0.143-0.031,0.207-0.085,0.259-0.128c0.048-0.037,0.089-0.074,0.179-0.074c0.024,0.006,0.047,0.011,0.068,0.022
					c-0.15-0.011-0.19,0.023-0.238,0.065c-0.051,0.043-0.117,0.097-0.266,0.128C416.464,298.838,416.416,298.844,416.382,298.844
					L416.382,298.844z M416.322,298.792c0.002-0.023,0.045-0.048,0.132-0.088c0.112-0.005,0.203-0.108,0.281-0.199
					c0.056-0.062,0.109-0.122,0.162-0.142c0.234-0.068,0.437,0.011,0.567,0.225c-0.158-0.208-0.342-0.276-0.563-0.21
					c-0.048,0.017-0.101,0.077-0.156,0.139c-0.079,0.091-0.172,0.196-0.286,0.202C416.381,298.752,416.342,298.775,416.322,298.792
					L416.322,298.792z"/>
			</g>
			<path clip-path="url(#SVGID_4_)" fill="#294921" d="M416.967,298.801c0.336-0.077,0.572,0.145,0.656,0.591
				c-0.002,0.04,0.074,0.051,0.074,0.04c-0.016-0.747,1.041-0.77,1.455,0.315c0.037,0.17-0.037,0.159-0.199-0.048
				c-0.202-0.278-0.979-0.773-1.037-0.083c-0.028,0.156-0.074,0.5-0.074,0.5s-0.241-0.048-0.247-0.06
				c-0.005-0.008-0.153-0.872-0.506-0.986c-0.265-0.057-0.344,0.185-0.665,0.233c-0.298,0.009-0.287-0.034-0.061-0.116
				C416.406,299.179,416.836,298.841,416.967,298.801L416.967,298.801z"/>
			<g clip-path="url(#SVGID_4_)">
				<path fill="#010101" d="M417.848,300.125l-0.008-0.003c-0.245-0.048-0.249-0.057-0.25-0.062c-0.08-0.367-0.18-0.637-0.293-0.801
					c0.131,0.167,0.227,0.429,0.299,0.77c0.016,0.031,0.152,0.062,0.24,0.08c0.006-0.051,0.047-0.35,0.072-0.492
					c0.025-0.295,0.182-0.358,0.308-0.358c0.263,0,0.614,0.261,0.743,0.438c0.11,0.139,0.157,0.162,0.176,0.162
					c0.018-0.014,0.025-0.034,0.009-0.108c-0.347-0.921-1.034-0.983-1.303-0.71c-0.093,0.094-0.141,0.23-0.138,0.392
					c-0.015-0.037-0.029-0.074-0.043-0.111c0.045-0.102,0.091-0.21,0.17-0.292c0.273-0.276,0.973-0.216,1.328,0.716
					c0.014,0.062,0.014,0.1,0,0.119c-0.062-0.005-0.123-0.048-0.211-0.159c-0.127-0.176-0.475-0.432-0.731-0.432
					c-0.175,0-0.272,0.117-0.293,0.347c-0.028,0.153-0.075,0.497-0.075,0.497V300.125L417.848,300.125z M416.407,299.312
					c-0.193,0-0.213-0.017-0.216-0.034c-0.004-0.017,0.014-0.043,0.17-0.1c0.016-0.003,0.1-0.06,0.188-0.125
					c0.15-0.105,0.336-0.236,0.415-0.258c0.239-0.054,0.429,0.04,0.55,0.252c-0.146-0.21-0.322-0.292-0.547-0.241
					c-0.075,0.022-0.268,0.159-0.409,0.258c-0.11,0.08-0.176,0.125-0.192,0.128c-0.152,0.057-0.162,0.077-0.161,0.085
					c0.001,0,0.011,0.02,0.155,0.02c0.207-0.022,0.304-0.085,0.389-0.139c0.086-0.054,0.159-0.102,0.262-0.102
					c0.022,0.006,0.045,0.014,0.064,0.02c-0.167,0.002-0.238,0.042-0.318,0.094c-0.088,0.057-0.184,0.119-0.332,0.142
					C416.418,299.312,416.413,299.312,416.407,299.312L416.407,299.312z"/>
			</g>
			<path clip-path="url(#SVGID_4_)" fill="#294921" d="M417.053,299.318c0.339-0.042,0.562,0.196,0.61,0.648
				c-0.003,0.04,0.071,0.057,0.071,0.048c0.041-0.75,0.72-0.341,0.988,0.688c0.037,0.108-0.21-0.114-0.357-0.33
				c-0.18-0.298-0.316-0.841-0.426-0.156c-0.039,0.153-0.11,0.492-0.11,0.492s-0.237-0.071-0.241-0.08
				c-0.004-0.012-0.09-0.887-0.434-1.029c-0.258-0.08-0.412,0.605-0.734,0.625c-0.297-0.018-0.283-0.06-0.053-0.123
				C416.41,300.1,416.922,299.347,417.053,299.318L417.053,299.318z"/>
			<g clip-path="url(#SVGID_4_)">
				<path fill="#010101" d="M418.717,300.739c-0.053,0-0.246-0.199-0.357-0.364c-0.04-0.065-0.077-0.145-0.113-0.219
					c-0.125-0.259-0.229-0.395-0.299,0.062c-0.04,0.153-0.111,0.489-0.111,0.489c-0.25-0.062-0.252-0.074-0.256-0.077
					c-0.068-0.509-0.189-0.844-0.35-0.975c0.18,0.147,0.297,0.475,0.361,0.946c0.012,0.029,0.154,0.074,0.238,0.097
					c-0.005-0.005,0.062-0.333,0.104-0.483c0.078-0.483,0.189-0.344,0.326-0.065c0.034,0.074,0.072,0.151,0.112,0.216
					c0.12,0.182,0.306,0.358,0.345,0.358v0.005l0.002-0.008c-0.28-1.085-0.941-1.37-0.977-0.708
					c-0.014-0.045-0.026-0.088-0.041-0.131c0.064-0.159,0.146-0.261,0.269-0.261c0.235,0,0.584,0.403,0.761,1.077L418.717,300.739
					L418.717,300.739z M416.42,300.233c-0.2-0.014-0.229-0.034-0.231-0.054c-0.001-0.017,0.019-0.04,0.177-0.085
					c0.018-0.003,0.11-0.125,0.199-0.242c0.18-0.233,0.402-0.523,0.488-0.54c0.066,0,0.123,0.005,0.178,0.02
					c-0.031-0.005-0.064-0.011-0.099-0.011c-0.156,0.023-0.388,0.321-0.558,0.542c-0.136,0.176-0.189,0.245-0.207,0.245
					c-0.154,0.045-0.164,0.065-0.164,0.071c0,0.006,0.018,0.026,0.217,0.04c0.158-0.009,0.271-0.182,0.385-0.347
					c0.1-0.148,0.193-0.287,0.307-0.287c0.037,0.014,0.07,0.031,0.103,0.057c-0.02-0.014-0.04-0.026-0.062-0.034
					c-0.18-0.048-0.239,0.128-0.336,0.272C416.703,300.048,416.585,300.222,416.42,300.233L416.42,300.233z"/>
			</g>
			<path clip-path="url(#SVGID_4_)" fill="#A98035" d="M415.797,299.659L415.797,299.659c0.07-0.023,0.136-0.015,0.15,0.022
				l0.77,2.238c0.013,0.035-0.034,0.086-0.102,0.111h-0.004c-0.07,0.023-0.136,0.014-0.15-0.022l-0.77-2.242
				C415.68,299.733,415.725,299.685,415.797,299.659L415.797,299.659z"/>
			<g clip-path="url(#SVGID_4_)">
				<path fill="#010101" d="M416.538,302.051l-0.083-0.042l-0.77-2.239c0.019-0.071,0.059-0.099,0.107-0.116l0.16,0.025l0.771,2.239
					c0.012,0.039-0.033,0.091-0.107,0.119L416.538,302.051L416.538,302.051z M415.798,299.659l0.003,0.005
					c-0.049,0.017-0.087,0.045-0.098,0.071l0.766,2.27l0.069,0.037l0.071-0.02c0.064-0.023,0.113-0.068,0.102-0.104l-0.771-2.235
					L415.798,299.659L415.798,299.659z"/>
			</g>
			<path clip-path="url(#SVGID_4_)" fill="#294921" d="M416.023,298.227c-0.342,0.034-0.497,0.318-0.426,0.764
				c0.014,0.037-0.055,0.071-0.057,0.062c-0.236-0.713-1.002-0.693-1.031,0.463c0.02,0.173,0.176-0.157,0.261-0.401
				c0.099-0.33,0.337-0.452,0.622,0.182c0.08,0.137,0.236,0.446,0.236,0.446s0.213-0.122,0.215-0.133
				c0.002-0.012-0.145-0.873,0.151-1.091c0.233-0.139,0.241-0.133,0.562-0.19c0.284-0.088,0.259-0.125,0.017-0.13
				C416.533,298.204,416.157,298.221,416.023,298.227L416.023,298.227z"/>
			<g clip-path="url(#SVGID_4_)">
				<path fill="#010101" d="M415.626,299.753l-0.003-0.006c0,0-0.158-0.31-0.236-0.443c-0.167-0.372-0.303-0.452-0.386-0.452
					c-0.091,0-0.173,0.097-0.222,0.267c-0.045,0.125-0.178,0.455-0.244,0.455c0-0.02,0-0.034,0-0.051
					c0.06-0.003,0.15-0.188,0.23-0.409c0.115-0.397,0.395-0.352,0.635,0.182c0.07,0.125,0.209,0.392,0.23,0.438
					c0.078-0.042,0.197-0.114,0.205-0.125c-0.075-0.594-0.02-0.966,0.156-1.094c0.219-0.133,0.238-0.136,0.506-0.182
					c0.247-0.068,0.259-0.094,0.259-0.1c0-0.005-0.017-0.025-0.183-0.028c-0.032,0.006-0.297,0.017-0.463,0.023
					c-0.229,0.022-0.338,0.077-0.413,0.173c-0.101,0.131-0.134,0.338-0.094,0.591c-0.019-0.025-0.036-0.048-0.056-0.071
					c0.012-0.245,0.049-0.412,0.14-0.529c0.077-0.099,0.188-0.156,0.335-0.173c0.253-0.011,0.516-0.022,0.551-0.028
					c0.168,0.003,0.193,0.023,0.197,0.04c0.002,0.02-0.021,0.045-0.213,0.105c-0.322,0.057-0.344,0.06-0.559,0.19
					c-0.17,0.125-0.224,0.5-0.152,1.054c0.002,0.037,0.002,0.045-0.217,0.17L415.626,299.753L415.626,299.753z M414.611,298.957
					c0.171-0.494,0.521-0.466,0.74-0.241C415.113,298.517,414.791,298.491,414.611,298.957L414.611,298.957z"/>
			</g>
			<path clip-path="url(#SVGID_4_)" fill="#294921" d="M416.126,298.65c-0.335,0.057-0.474,0.35-0.378,0.795
				c0.018,0.037-0.049,0.077-0.055,0.065c-0.271-0.696-1.033-0.628-0.996,0.531c0.031,0.173,0.166-0.167,0.236-0.417
				c0.078-0.338,0.309-0.475,0.63,0.142c0.087,0.13,0.259,0.432,0.259,0.432s0.204-0.136,0.207-0.148
				c0-0.011-0.195-0.866,0.088-1.105c0.223-0.153,0.232-0.15,0.547-0.227c0.277-0.108,0.252-0.143,0.01-0.134
				C416.633,298.594,416.262,298.636,416.126,298.65L416.126,298.65z"/>
			<g clip-path="url(#SVGID_4_)">
				<path fill="#010101" d="M415.82,300.21l-0.004-0.008c0,0-0.174-0.298-0.259-0.432c-0.183-0.352-0.318-0.423-0.4-0.423
					c-0.097,0-0.175,0.102-0.216,0.281c-0.037,0.13-0.15,0.472-0.217,0.472c-0.002-0.018-0.004-0.034-0.005-0.049
					c0.06-0.002,0.142-0.202,0.207-0.429c0.095-0.403,0.372-0.381,0.642,0.142c0.08,0.119,0.23,0.378,0.256,0.423
					c0.076-0.048,0.191-0.131,0.199-0.139c-0.068-0.344-0.137-0.915,0.09-1.108c0.211-0.145,0.231-0.153,0.497-0.216
					c0.237-0.085,0.249-0.111,0.245-0.117c0-0.002-0.008-0.017-0.115-0.017c-0.105,0.011-0.479,0.051-0.613,0.065
					c-0.137,0.025-0.242,0.088-0.311,0.19c-0.094,0.139-0.115,0.347-0.061,0.597c-0.02-0.02-0.039-0.042-0.059-0.065
					c-0.004-0.245,0.025-0.418,0.107-0.54c0.07-0.105,0.18-0.17,0.321-0.196c0.135-0.014,0.506-0.054,0.548-0.062
					c0.165-0.003,0.193,0.012,0.196,0.028c0.005,0.018-0.017,0.046-0.204,0.117c-0.314,0.077-0.336,0.083-0.545,0.228
					c-0.22,0.188-0.15,0.753-0.089,1.077c0.003,0.028,0.001,0.037-0.204,0.176L415.82,300.21L415.82,300.21z M414.714,299.738
					c0.017-0.255,0.091-0.443,0.203-0.56c0.161-0.167,0.403-0.156,0.581,0.014c-0.19-0.145-0.414-0.167-0.571-0.005
					C414.813,299.304,414.74,299.497,414.714,299.738L414.714,299.738z"/>
			</g>
			<path clip-path="url(#SVGID_4_)" fill="#294921" d="M416.245,299.162c-0.329,0.088-0.442,0.392-0.315,0.83
				c0.02,0.037-0.043,0.08-0.049,0.071c-0.323-0.676-1.07-0.54-0.948,0.619c0.046,0.171,0.153-0.182,0.204-0.44
				c0.052-0.344,0.271-0.503,0.635,0.088c0.096,0.125,0.289,0.412,0.289,0.412s0.193-0.156,0.193-0.167s-0.256-0.852,0.006-1.114
				c0.209-0.176,0.217-0.17,0.523-0.278c0.268-0.131,0.238-0.162,0-0.134C416.742,299.062,416.379,299.136,416.245,299.162
				L416.245,299.162z"/>
			<g clip-path="url(#SVGID_4_)">
				<path fill="#010101" d="M416.061,300.75l-0.006-0.006c0,0-0.193-0.287-0.289-0.412c-0.199-0.324-0.336-0.392-0.416-0.392
					c-0.102,0-0.176,0.11-0.204,0.304c-0.003,0.003-0.103,0.489-0.182,0.489c-0.003-0.014-0.006-0.031-0.009-0.048
					c0.057,0,0.127-0.208,0.176-0.443c0.061-0.417,0.339-0.415,0.646,0.085c0.088,0.114,0.256,0.358,0.286,0.403
					c0.069-0.06,0.179-0.147,0.185-0.159c-0.092-0.335-0.205-0.906,0.006-1.116c0.195-0.165,0.217-0.17,0.472-0.262
					c0.145-0.062,0.203-0.099,0.226-0.116c-0.004,0.025-0.053,0.057-0.163,0.111c-0.31,0.108-0.329,0.116-0.522,0.275
					c-0.15,0.153-0.154,0.548-0.009,1.088c0.005,0.025,0.004,0.037-0.19,0.196L416.061,300.75L416.061,300.75z M414.927,300.378
					c-0.001-0.273,0.062-0.475,0.175-0.6c0.156-0.173,0.398-0.165,0.584-0.003c-0.201-0.136-0.424-0.153-0.574,0.011
					C415,299.912,414.936,300.119,414.927,300.378L414.927,300.378z M415.938,299.988c-0.021-0.02-0.042-0.037-0.062-0.057
					c-0.022-0.25-0.009-0.426,0.065-0.554c0.062-0.111,0.163-0.185,0.303-0.225c0.132-0.026,0.496-0.097,0.538-0.111
					c0.056-0.006,0.1-0.011,0.131-0.011c0.015,0.008,0.024,0.017,0.031,0.022c-0.071-0.008-0.11-0.003-0.159,0.003
					c-0.04,0.014-0.404,0.085-0.537,0.111c-0.137,0.037-0.234,0.111-0.295,0.216C415.87,299.531,415.865,299.738,415.938,299.988
					L415.938,299.988z"/>
			</g>
			<path clip-path="url(#SVGID_4_)" fill="#294921" d="M418.873,298.062c0.342,0.031,0.515,0.315,0.48,0.77
				c-0.012,0.037,0.06,0.071,0.061,0.06c0.178-0.724,1.064-1.025,1.184,0.145c-0.007,0.176-0.186-0.162-0.289-0.409
				c-0.123-0.33-0.498-0.136-0.73,0.512c-0.066,0.139-0.197,0.455-0.197,0.455s-0.221-0.12-0.223-0.131s0.076-0.887-0.234-1.103
				c-0.24-0.139-0.224,0.043-0.545-0.008c-0.285-0.083-0.264-0.122-0.027-0.131C418.535,298.281,418.74,298.06,418.873,298.062
				L418.873,298.062z"/>
			<g clip-path="url(#SVGID_4_)">
				<path fill="#010101" d="M419.385,299.605l-0.008-0.003c-0.223-0.125-0.225-0.133-0.225-0.139
					c0.014-0.284,0.021-0.92-0.233-1.097c-0.06-0.034-0.109-0.051-0.153-0.051c-0.199,0.051-0.238,0.065-0.387,0.045
					c-0.195-0.057-0.219-0.085-0.216-0.105c0-0.017,0.025-0.034,0.188-0.042c0.161,0.011,0.247-0.04,0.327-0.083
					c0.07-0.04,0.136-0.074,0.193-0.074c0.232,0.02,0.391,0.153,0.457,0.38c-0.088-0.224-0.237-0.346-0.455-0.366l0,0
					c-0.055,0-0.119,0.034-0.189,0.071c-0.082,0.045-0.174,0.097-0.265,0.097l0,0c-0.228-0.011-0.241,0.011-0.241,0.017
					c-0.002,0.008,0.011,0.034,0.204,0.091c0.142,0.023,0.219-0.003,0.282-0.022l0.002-0.003l0.1-0.023
					c0.048,0,0.096,0.02,0.162,0.054c0.25,0.176,0.256,0.758,0.238,1.091c0.008,0.026,0.131,0.097,0.211,0.142
					c0.02-0.048,0.133-0.321,0.195-0.449c0.259-0.719,0.633-0.812,0.742-0.509c0.053,0.125,0.119,0.256,0.173,0.347
					c-0.075-0.097-0.151-0.261-0.185-0.341c-0.109-0.298-0.467-0.19-0.718,0.506c-0.066,0.145-0.197,0.458-0.197,0.458
					L419.385,299.605L419.385,299.605z M420.582,299.042c-0.002,0-0.006,0-0.008,0c-0.041-0.503-0.238-0.781-0.514-0.781
					c-0.276,0-0.551,0.27-0.639,0.633c-0.006-0.051-0.012-0.105-0.018-0.15c0.148-0.273,0.4-0.497,0.656-0.497
					c0.29,0,0.494,0.295,0.545,0.79C420.598,299.042,420.59,299.042,420.582,299.042L420.582,299.042z"/>
			</g>
			<path clip-path="url(#SVGID_4_)" fill="#294921" d="M418.804,298.494c0.339,0.054,0.496,0.35,0.437,0.798
				c-0.015,0.04,0.054,0.08,0.057,0.068c0.217-0.71,1.219-0.338,1.273,0.838c-0.018,0.173-0.083,0.134-0.172-0.119
				c-0.104-0.338-0.684-1.091-0.951-0.463c-0.075,0.137-0.223,0.44-0.223,0.44s-0.212-0.136-0.215-0.145
				c-0.003-0.014,0.123-0.88-0.174-1.116c-0.229-0.154-0.381,0.042-0.695-0.031c-0.283-0.103-0.259-0.139-0.023-0.134
				C418.16,298.642,418.672,298.482,418.804,298.494L418.804,298.494z"/>
			<g clip-path="url(#SVGID_4_)">
				<path fill="#010101" d="M420.525,300.312c-0.035,0-0.08-0.077-0.135-0.23c-0.075-0.247-0.4-0.702-0.665-0.702
					c-0.113,0-0.204,0.08-0.271,0.239c-0.076,0.136-0.224,0.44-0.224,0.44c-0.226-0.134-0.228-0.145-0.229-0.148
					c0.039-0.352,0.062-0.926-0.17-1.111c-0.106-0.071-0.217-0.062-0.34-0.04c-0.104,0.022-0.227,0.04-0.354,0.011
					c-0.19-0.071-0.214-0.1-0.21-0.116c0.002-0.018,0.064-0.023,0.154-0.034c0.07,0,0.156-0.02,0.258-0.046
					c0.157-0.04,0.354-0.091,0.445-0.091c0.242,0.037,0.394,0.182,0.449,0.409c-0.076-0.227-0.219-0.358-0.432-0.392h-0.002
					c-0.106,0-0.303,0.048-0.459,0.088c-0.107,0.025-0.191,0.048-0.219,0.048l0,0c-0.164,0.018-0.182,0.015-0.182,0.018
					c-0.002,0.005,0.012,0.031,0.2,0.102c0.122,0.028,0.246,0.011,0.347-0.011c0.127-0.026,0.242-0.034,0.353,0.04
					c0.237,0.19,0.214,0.773,0.179,1.103c0.004,0.031,0.131,0.114,0.209,0.162c-0.003-0.011,0.139-0.304,0.213-0.438
					c0.068-0.165,0.165-0.247,0.284-0.247c0.281,0,0.604,0.469,0.679,0.71c0.07,0.199,0.108,0.222,0.121,0.222
					c0.008,0,0.027-0.011,0.035-0.103c-0.033-0.733-0.457-1.188-0.832-1.188c-0.201,0-0.355,0.128-0.424,0.352
					c-0.002-0.045-0.004-0.091-0.008-0.136c0.111-0.133,0.253-0.23,0.432-0.23c0.389,0,0.812,0.449,0.847,1.205
					C420.568,300.275,420.553,300.312,420.525,300.312L420.525,300.312z"/>
			</g>
			<path clip-path="url(#SVGID_4_)" fill="#294921" d="M418.726,299.014c0.334,0.082,0.469,0.392,0.375,0.835
				c-0.015,0.037,0.052,0.083,0.054,0.071c0.268-0.69,0.781-0.048,0.719,1.017c0,0.117-0.164-0.185-0.234-0.446
				c-0.078-0.344-0.041-0.906-0.354-0.304c-0.085,0.131-0.254,0.42-0.254,0.42s-0.203-0.153-0.203-0.165
				c-0.002-0.012,0.188-0.864-0.092-1.128c-0.219-0.174-0.573,0.417-0.885,0.312c-0.272-0.125-0.246-0.159-0.01-0.134
				C417.882,299.508,418.595,298.988,418.726,299.014L418.726,299.014z"/>
			<g clip-path="url(#SVGID_4_)">
				<path fill="#010101" d="M419.862,300.969c-0.046,0-0.172-0.261-0.23-0.475c-0.017-0.077-0.028-0.165-0.04-0.25
					c-0.039-0.29-0.092-0.449-0.299-0.051c-0.086,0.127-0.256,0.42-0.256,0.42c-0.215-0.156-0.217-0.165-0.217-0.17
					c0.035-0.185,0.07-0.44,0.061-0.668c0.023,0.228-0.01,0.475-0.041,0.648c0.002,0.028,0.121,0.125,0.195,0.179
					c-0.002-0.011,0.162-0.29,0.244-0.417c0.225-0.432,0.286-0.247,0.327,0.06c0.011,0.083,0.022,0.17,0.04,0.247
					c0.062,0.23,0.188,0.463,0.216,0.463l0.005,0.005l-0.001-0.022c0.036-0.6-0.112-1.04-0.272-1.21
					c-0.154-0.162-0.322-0.088-0.434,0.196c0.003-0.048,0.004-0.094,0.004-0.139c0.207-0.23,0.32-0.19,0.439-0.065
					c0.164,0.173,0.312,0.616,0.277,1.219L419.862,300.969L419.862,300.969z M417.928,299.65c-0.023-0.011-0.046-0.02-0.066-0.028
					c0.199,0.008,0.333-0.088,0.461-0.179c0.116-0.085,0.227-0.165,0.324-0.165c0.016,0.011,0.031,0.022,0.045,0.037
					c-0.153-0.012-0.256,0.062-0.361,0.136C418.199,299.548,418.062,299.65,417.928,299.65L417.928,299.65z M417.822,299.608
					c-0.162-0.068-0.176-0.091-0.174-0.108c0.105-0.02,0.146-0.017,0.193-0.012l0,0c0.02,0,0.14-0.077,0.265-0.156
					c0.229-0.145,0.515-0.327,0.61-0.327c0.233,0.057,0.371,0.213,0.41,0.446c-0.061-0.233-0.191-0.378-0.401-0.429h-0.001
					c-0.102,0-0.398,0.185-0.614,0.324c-0.16,0.102-0.245,0.156-0.267,0.156c-0.053-0.006-0.093-0.012-0.123-0.012
					C417.666,299.511,417.672,299.534,417.822,299.608L417.822,299.608z"/>
			</g>
			<g clip-path="url(#SVGID_4_)">
				<path fill="#010101" d="M422.509,313.479l-0.034-0.014c-4.887-2.052-7.957-4.595-8.164-10.922v-10.731h16.232v10.729
					c0,5.315-2.242,8.379-8,10.922L422.509,313.479L422.509,313.479z M414.482,291.982v10.558c0.205,6.248,3.097,8.677,8.025,10.751
					c5.656-2.509,7.864-5.525,7.864-10.751v-10.558H414.482L414.482,291.982z"/>
			</g>
		</g>
	</g>
</g>
</svg>
