<?xml version="1.0" encoding="utf-8"?>
<!-- Generator: Adobe Illustrator 16.0.0, SVG Export Plug-In . SVG Version: 6.00 Build 0)  -->
<!DOCTYPE svg PUBLIC "-//W3C//DTD SVG 1.1//EN" "http://www.w3.org/Graphics/SVG/1.1/DTD/svg11.dtd">
<svg version="1.1" id="name" xmlns="http://www.w3.org/2000/svg" xmlns:xlink="http://www.w3.org/1999/xlink" x="0px" y="0px"
	 width="85.711px" height="50px" viewBox="358 276 85.711 50" enable-background="new 358 276 85.711 50" xml:space="preserve">
<g id="fm">
	<g>
		<defs>
			<rect id="SVGID_1_" x="358" y="276" width="85.711" height="50"/>
		</defs>
		<clipPath id="SVGID_2_">
			<use xlink:href="#SVGID_1_"  overflow="visible"/>
		</clipPath>
		<rect x="358" y="276" clip-path="url(#SVGID_2_)" fill="#83B0DA" width="85.711" height="50"/>
		<polygon clip-path="url(#SVGID_2_)" fill="#FFFFFF" points="400.857,281 399.311,285.756 401.689,286.529 		"/>
		<polygon clip-path="url(#SVGID_2_)" fill="#FFFFFF" points="400.857,281 402.4,285.756 400.023,286.529 		"/>
		<polygon clip-path="url(#SVGID_2_)" fill="#FFFFFF" points="405.611,284.455 400.611,284.455 400.611,286.955 		"/>
		<polygon clip-path="url(#SVGID_2_)" fill="#FFFFFF" points="405.611,284.455 401.565,287.396 400.097,285.373 		"/>
		<polygon clip-path="url(#SVGID_2_)" fill="#FFFFFF" points="396.101,284.455 400.146,287.396 401.615,285.373 		"/>
		<polygon clip-path="url(#SVGID_2_)" fill="#FFFFFF" points="396.101,284.455 401.102,284.455 401.102,286.955 		"/>
		<polygon clip-path="url(#SVGID_2_)" fill="#FFFFFF" points="403.795,290.046 402.25,285.291 399.873,286.063 		"/>
		<polygon clip-path="url(#SVGID_2_)" fill="#FFFFFF" points="403.795,290.046 399.75,287.108 401.221,285.086 		"/>
		<polygon clip-path="url(#SVGID_2_)" fill="#FFFFFF" points="397.917,290.046 401.962,287.108 400.493,285.086 		"/>
		<polygon clip-path="url(#SVGID_2_)" fill="#FFFFFF" points="397.917,290.046 399.462,285.291 401.84,286.063 		"/>
		<polygon clip-path="url(#SVGID_2_)" fill="#FFFFFF" points="420.855,301.002 416.101,299.456 415.328,301.834 		"/>
		<polygon clip-path="url(#SVGID_2_)" fill="#FFFFFF" points="420.855,301.002 416.101,302.547 415.328,300.169 		"/>
		<polygon clip-path="url(#SVGID_2_)" fill="#FFFFFF" points="417.4,305.758 417.4,300.757 414.9,300.757 		"/>
		<polygon clip-path="url(#SVGID_2_)" fill="#FFFFFF" points="417.4,305.758 414.463,301.712 416.485,300.243 		"/>
		<polygon clip-path="url(#SVGID_2_)" fill="#FFFFFF" points="417.4,296.246 414.463,300.291 416.485,301.76 		"/>
		<polygon clip-path="url(#SVGID_2_)" fill="#FFFFFF" points="417.4,296.246 417.4,301.246 414.9,301.246 		"/>
		<polygon clip-path="url(#SVGID_2_)" fill="#FFFFFF" points="411.811,303.939 416.566,302.396 415.794,300.016 		"/>
		<polygon clip-path="url(#SVGID_2_)" fill="#FFFFFF" points="411.811,303.939 414.75,299.896 416.772,301.365 		"/>
		<polygon clip-path="url(#SVGID_2_)" fill="#FFFFFF" points="411.811,298.064 414.75,302.106 416.772,300.638 		"/>
		<polygon clip-path="url(#SVGID_2_)" fill="#FFFFFF" points="411.811,298.064 416.566,299.606 415.794,301.984 		"/>
		<polygon clip-path="url(#SVGID_2_)" fill="#FFFFFF" points="380.855,301.002 385.612,302.547 386.384,300.169 		"/>
		<polygon clip-path="url(#SVGID_2_)" fill="#FFFFFF" points="380.855,301.002 385.612,299.456 386.384,301.834 		"/>
		<polygon clip-path="url(#SVGID_2_)" fill="#FFFFFF" points="384.311,296.246 384.311,301.246 386.812,301.246 		"/>
		<polygon clip-path="url(#SVGID_2_)" fill="#FFFFFF" points="384.311,296.246 387.25,300.291 385.228,301.76 		"/>
		<polygon clip-path="url(#SVGID_2_)" fill="#FFFFFF" points="384.311,305.758 387.25,301.712 385.228,300.243 		"/>
		<polygon clip-path="url(#SVGID_2_)" fill="#FFFFFF" points="384.311,305.758 384.311,300.757 386.812,300.757 		"/>
		<polygon clip-path="url(#SVGID_2_)" fill="#FFFFFF" points="389.901,298.064 385.146,299.606 385.918,301.984 		"/>
		<polygon clip-path="url(#SVGID_2_)" fill="#FFFFFF" points="389.901,298.064 386.962,302.106 384.939,300.638 		"/>
		<polygon clip-path="url(#SVGID_2_)" fill="#FFFFFF" points="389.901,303.939 386.962,299.896 384.939,301.365 		"/>
		<polygon clip-path="url(#SVGID_2_)" fill="#FFFFFF" points="389.901,303.939 385.146,302.396 385.918,300.016 		"/>
		<polygon clip-path="url(#SVGID_2_)" fill="#FFFFFF" points="400.857,321.002 402.4,316.246 400.023,315.474 		"/>
		<polygon clip-path="url(#SVGID_2_)" fill="#FFFFFF" points="400.857,321.002 399.311,316.246 401.689,315.474 		"/>
		<polygon clip-path="url(#SVGID_2_)" fill="#FFFFFF" points="396.101,317.545 401.102,317.545 401.102,315.048 		"/>
		<polygon clip-path="url(#SVGID_2_)" fill="#FFFFFF" points="396.101,317.545 400.146,314.607 401.615,316.631 		"/>
		<polygon clip-path="url(#SVGID_2_)" fill="#FFFFFF" points="405.611,317.545 401.565,314.607 400.097,316.631 		"/>
		<polygon clip-path="url(#SVGID_2_)" fill="#FFFFFF" points="405.611,317.545 400.611,317.545 400.611,315.048 		"/>
		<polygon clip-path="url(#SVGID_2_)" fill="#FFFFFF" points="397.917,311.957 399.462,316.709 401.84,315.939 		"/>
		<polygon clip-path="url(#SVGID_2_)" fill="#FFFFFF" points="397.917,311.957 401.962,314.895 400.493,316.917 		"/>
		<polygon clip-path="url(#SVGID_2_)" fill="#FFFFFF" points="403.795,311.957 399.75,314.895 401.221,316.917 		"/>
		<polygon clip-path="url(#SVGID_2_)" fill="#FFFFFF" points="403.795,311.957 402.25,316.709 399.873,315.939 		"/>
	</g>
</g>
</svg>
