<?xml version="1.0" encoding="utf-8"?>
<!-- Generator: Adobe Illustrator 16.0.0, SVG Export Plug-In . SVG Version: 6.00 Build 0)  -->
<!DOCTYPE svg PUBLIC "-//W3C//DTD SVG 1.1//EN" "http://www.w3.org/Graphics/SVG/1.1/DTD/svg11.dtd">
<svg version="1.1" id="name" xmlns="http://www.w3.org/2000/svg" xmlns:xlink="http://www.w3.org/1999/xlink" x="0px" y="0px"
	 width="85.058px" height="49.615px" viewBox="358.674 276 85.058 49.615" enable-background="new 358.674 276 85.058 49.615"
	 xml:space="preserve">
<g id="fr-e">
	<g>
		<defs>
			<rect id="SVGID_1_" x="358.674" y="276" width="85.058" height="49.615"/>
		</defs>
		<clipPath id="SVGID_2_">
			<use xlink:href="#SVGID_1_"  overflow="visible"/>
		</clipPath>
		<rect x="392.372" y="276" clip-path="url(#SVGID_2_)" fill="#010101" width="51.361" height="4.962"/>
		<rect x="392.372" y="287.164" clip-path="url(#SVGID_2_)" fill="#010101" width="51.361" height="4.961"/>
		<rect x="358.674" y="298.327" clip-path="url(#SVGID_2_)" fill="#010101" width="85.058" height="4.962"/>
		<rect x="358.674" y="309.492" clip-path="url(#SVGID_2_)" fill="#010101" width="85.058" height="4.96"/>
		<rect x="358.674" y="320.654" clip-path="url(#SVGID_2_)" fill="#010101" width="85.058" height="4.961"/>
		<rect x="392.372" y="280.962" clip-path="url(#SVGID_2_)" fill="#FFFFFF" width="51.361" height="6.202"/>
		<rect x="392.372" y="292.125" clip-path="url(#SVGID_2_)" fill="#FFFFFF" width="51.361" height="6.202"/>
		<rect x="358.674" y="303.289" clip-path="url(#SVGID_2_)" fill="#FFFFFF" width="85.058" height="6.203"/>
		<rect x="358.674" y="314.452" clip-path="url(#SVGID_2_)" fill="#FFFFFF" width="85.058" height="6.202"/>
		<rect x="358.674" y="276" clip-path="url(#SVGID_2_)" fill="#FFFFFF" width="33.697" height="22.327"/>
		<polygon clip-path="url(#SVGID_2_)" fill="#010101" points="383.946,285.428 384.692,284.932 385.928,285.428 384.692,285.924 		
			"/>
		<polygon clip-path="url(#SVGID_2_)" fill="#010101" points="383.946,285.428 383.202,285.924 381.965,285.428 383.202,284.932 		
			"/>
		<polygon clip-path="url(#SVGID_2_)" fill="#010101" points="383.946,285.428 383.45,284.684 383.946,283.441 384.442,284.684 		
			"/>
		<polygon clip-path="url(#SVGID_2_)" fill="#010101" points="383.946,291.133 383.45,290.141 381.717,290.886 383.946,285.428 
			386.176,290.886 384.442,290.141 		"/>
		<polygon clip-path="url(#SVGID_2_)" fill="#010101" points="388.159,292.125 388.901,291.629 390.141,292.125 388.901,292.621 		
			"/>
		<polygon clip-path="url(#SVGID_2_)" fill="#010101" points="388.159,292.125 387.415,292.621 386.176,292.125 387.415,291.629 		
			"/>
		<polygon clip-path="url(#SVGID_2_)" fill="#010101" points="388.159,292.125 387.663,291.381 388.159,290.141 388.655,291.381 		
			"/>
		<polygon clip-path="url(#SVGID_2_)" fill="#010101" points="388.159,297.831 387.663,296.838 385.928,297.583 388.159,292.125 
			390.389,297.583 388.655,296.838 		"/>
		<polygon clip-path="url(#SVGID_2_)" fill="#010101" points="379.735,292.125 380.479,291.629 381.717,292.125 380.479,292.621 		
			"/>
		<polygon clip-path="url(#SVGID_2_)" fill="#010101" points="379.735,292.125 378.991,292.621 377.752,292.125 378.991,291.629 		
			"/>
		<polygon clip-path="url(#SVGID_2_)" fill="#010101" points="379.735,292.125 379.239,291.381 379.735,290.141 380.231,291.381 		
			"/>
		<polygon clip-path="url(#SVGID_2_)" fill="#010101" points="379.735,297.831 379.239,296.838 377.504,297.583 379.735,292.125 
			381.965,297.583 380.231,296.838 		"/>
		<polygon clip-path="url(#SVGID_2_)" fill="#010101" points="388.159,278.232 388.901,277.736 390.141,278.232 388.901,278.729 		
			"/>
		<polygon clip-path="url(#SVGID_2_)" fill="#010101" points="388.159,278.232 387.415,278.729 386.176,278.232 387.415,277.736 		
			"/>
		<polygon clip-path="url(#SVGID_2_)" fill="#010101" points="388.159,278.232 387.663,277.488 388.159,276.248 388.655,277.488 		
			"/>
		<polygon clip-path="url(#SVGID_2_)" fill="#010101" points="388.159,283.938 387.663,282.947 385.928,283.691 388.159,278.232 
			390.389,283.691 388.655,282.947 		"/>
		<polygon clip-path="url(#SVGID_2_)" fill="#010101" points="379.983,278.363 380.727,277.866 381.965,278.363 380.727,278.859 		
			"/>
		<polygon clip-path="url(#SVGID_2_)" fill="#010101" points="379.983,278.363 379.239,278.859 378,278.363 379.239,277.866 		"/>
		<polygon clip-path="url(#SVGID_2_)" fill="#010101" points="379.983,278.363 379.487,277.618 379.983,276.377 380.479,277.618 		
			"/>
		<polygon clip-path="url(#SVGID_2_)" fill="#010101" points="379.983,284.068 379.487,283.076 377.752,283.82 379.983,278.363 
			382.213,283.82 380.479,283.076 		"/>
		<polygon clip-path="url(#SVGID_2_)" fill="#010101" points="375.522,285.428 376.266,284.932 377.504,285.428 376.266,285.924 		
			"/>
		<polygon clip-path="url(#SVGID_2_)" fill="#010101" points="375.522,285.428 374.782,285.924 373.542,285.428 374.782,284.932 		
			"/>
		<polygon clip-path="url(#SVGID_2_)" fill="#010101" points="375.522,285.428 375.026,284.684 375.522,283.441 376.018,284.684 		
			"/>
		<polygon clip-path="url(#SVGID_2_)" fill="#010101" points="375.522,291.133 375.026,290.141 373.293,290.886 375.522,285.428 
			377.752,290.886 376.018,290.141 		"/>
		<polygon clip-path="url(#SVGID_2_)" fill="#010101" points="371.311,278.232 372.055,277.736 373.293,278.232 372.055,278.729 		
			"/>
		<polygon clip-path="url(#SVGID_2_)" fill="#010101" points="371.311,278.232 370.569,278.729 369.329,278.232 370.569,277.736 		
			"/>
		<polygon clip-path="url(#SVGID_2_)" fill="#010101" points="371.311,278.232 370.815,277.488 371.311,276.248 371.807,277.488 		
			"/>
		<polygon clip-path="url(#SVGID_2_)" fill="#010101" points="371.311,283.938 370.815,282.947 369.081,283.691 371.311,278.232 
			373.542,283.691 371.807,282.947 		"/>
		<polygon clip-path="url(#SVGID_2_)" fill="#010101" points="371.311,292.125 372.055,291.629 373.293,292.125 372.055,292.621 		
			"/>
		<polygon clip-path="url(#SVGID_2_)" fill="#010101" points="371.311,292.125 370.569,292.621 369.329,292.125 370.569,291.629 		
			"/>
		<polygon clip-path="url(#SVGID_2_)" fill="#010101" points="371.311,292.125 370.815,291.381 371.311,290.141 371.807,291.381 		
			"/>
		<polygon clip-path="url(#SVGID_2_)" fill="#010101" points="371.311,297.831 370.815,296.838 369.081,297.583 371.311,292.125 
			373.542,297.583 371.807,296.838 		"/>
		<polygon clip-path="url(#SVGID_2_)" fill="#010101" points="367.098,285.428 367.842,284.932 369.081,285.428 367.842,285.924 		
			"/>
		<polygon clip-path="url(#SVGID_2_)" fill="#010101" points="367.098,285.428 366.358,285.924 365.116,285.428 366.358,284.932 		
			"/>
		<polygon clip-path="url(#SVGID_2_)" fill="#010101" points="367.098,285.428 366.602,284.684 367.098,283.441 367.594,284.684 		
			"/>
		<polygon clip-path="url(#SVGID_2_)" fill="#010101" points="367.098,291.133 366.602,290.141 364.868,290.886 367.098,285.428 
			369.329,290.886 367.594,290.141 		"/>
		<polygon clip-path="url(#SVGID_2_)" fill="#010101" points="362.887,278.232 363.631,277.736 364.868,278.232 363.631,278.729 		
			"/>
		<polygon clip-path="url(#SVGID_2_)" fill="#010101" points="362.887,278.232 362.145,278.729 360.905,278.232 362.145,277.736 		
			"/>
		<polygon clip-path="url(#SVGID_2_)" fill="#010101" points="362.887,278.232 362.393,277.488 362.887,276.248 363.383,277.488 		
			"/>
		<polygon clip-path="url(#SVGID_2_)" fill="#010101" points="362.887,283.938 362.393,282.947 360.657,283.691 362.887,278.232 
			365.116,283.691 363.383,282.947 		"/>
		<polygon clip-path="url(#SVGID_2_)" fill="#010101" points="362.887,292.125 363.631,291.629 364.868,292.125 363.631,292.621 		
			"/>
		<polygon clip-path="url(#SVGID_2_)" fill="#010101" points="362.887,292.125 362.145,292.621 360.905,292.125 362.145,291.629 		
			"/>
		<polygon clip-path="url(#SVGID_2_)" fill="#010101" points="362.887,292.125 362.393,291.381 362.887,290.141 363.383,291.381 		
			"/>
		<polygon clip-path="url(#SVGID_2_)" fill="#010101" points="362.887,297.831 362.393,296.838 360.657,297.583 362.887,292.125 
			365.116,297.583 363.383,296.838 		"/>
	</g>
</g>
</svg>
