<?xml version="1.0" encoding="utf-8"?>
<!-- Generator: Adobe Illustrator 16.0.0, SVG Export Plug-In . SVG Version: 6.00 Build 0)  -->
<!DOCTYPE svg PUBLIC "-//W3C//DTD SVG 1.1//EN" "http://www.w3.org/Graphics/SVG/1.1/DTD/svg11.dtd">
<svg version="1.1" id="name" xmlns="http://www.w3.org/2000/svg" xmlns:xlink="http://www.w3.org/1999/xlink" x="0px" y="0px"
	 width="85.715px" height="50px" viewBox="358 276 85.715 50" enable-background="new 358 276 85.715 50" xml:space="preserve">
<g id="gb-wls">
	<g>
		<defs>
			<rect id="SVGID_1_" x="358" y="276" width="85.715" height="50"/>
		</defs>
		<clipPath id="SVGID_2_">
			<use xlink:href="#SVGID_1_"  overflow="visible"/>
		</clipPath>
		<rect x="358" y="276" clip-path="url(#SVGID_2_)" fill="#FFFFFF" width="85.715" height="24.999"/>
		<rect x="358" y="300.999" clip-path="url(#SVGID_2_)" fill="#49AB48" width="85.715" height="25.001"/>
		<g clip-path="url(#SVGID_2_)">
			<defs>
				<rect id="SVGID_3_" x="358" y="276" width="85.715" height="50"/>
			</defs>
			<clipPath id="SVGID_4_">
				<use xlink:href="#SVGID_3_"  overflow="visible"/>
			</clipPath>
			<path clip-path="url(#SVGID_4_)" fill="#C01F3F" d="M432.771,283.009c-0.502,3.509-0.002,8.592,0.867,10.254
				c-1.057-0.378-2.232-1.273-2.812-2.443c-0.412,1.278-0.824,2.56-1.236,3.838c2.611,5.308-4.182,9.48-9.836,9.771
				c3.451,1.872,7.969,4.205,7.969,5.43c-1.375,0.517-2.193-0.946-3.287-1.418c1.174,3.054,0.447,5.318-0.158,8.336
				c-0.594,0.704,0,1.173,0.234,1.758c0.545,0.214,1.09,0.424,1.631,0.634c0.09,0.08,0.178,0.156,0.266,0.236
				c0,0,1.146,0.054,1.463,1.656c-0.764-0.927-1.807-0.631-1.807-0.631c-0.131,0.088-0.262,0.176-0.395,0.265l-0.92-0.555
				c-1.016-0.673-2.051-0.639-3.154-0.156c-0.562,0.338-1.141,0.318-1.684,0.052c-0.625-0.677-1.973-0.077-2-0.077
				c-0.025,0-1.445,0.946-1.445,0.946s-0.342-0.08-0.369-0.08c-0.025,0-0.92-0.02-2.104,0.736c0.312-1.608,1.473-1.577,1.473-1.577
				c-0.107-0.338,0.143-0.281,0.211-0.42c0.383-0.427,1.193-0.353,1.787-0.526c-1.137-0.054-2.277-0.107-3.418-0.159
				c0.02-0.054,0.037-0.104,0.053-0.156c-0.746-0.067-1.334-0.096-1.762,0.603c-0.041-1.173,0.945-1.389,1.578-1.656
				c0.287-0.443,0.91-0.369,1.5-0.315c0,0,3.258,1.211,3.023,1.131c-0.236-0.079-3.84-1.628-3.84-1.628
				c-0.178-0.267,0.051-0.423,0.051-0.449c0-0.025-0.971-0.616-1.656,0.052c0.135-1.393,1.791-1.025,1.791-1.025
				c0.092-0.452,0.543-0.39,0.762-0.183c0.428,0.421,0.857,0.842,1.287,1.262c0.404,0.256,0.807,0.509,1.211,0.762
				c1.121,0.497,2.314,0.315,3.312-1.287c-0.34-0.827-0.184-1.193,0.578-1.682c-0.195-0.555-0.125-1.123,0.107-1.659
				c-0.338-0.498-0.541-1.887-0.213-2.208c-0.754-0.267-1.051-1.025-1.104-1.025c-0.693,0.142-1.293-0.083-1.578-0.369
				c-1.07,0.474-1.982,0.219-2.682-0.396c-1.23,0.421-2.355,0.131-2.945-0.395c-0.941,0.232-2.426-0.443-2.684-1.208
				c-0.541,0-1.096-0.607-1.682-0.551c-0.482,0.793-0.611,0.716-1.34,1.366c-0.748,0.779-0.484,2.092,0.104,2.708
				c0.922,0.35,1.84,0.702,2.762,1.054c2.104,0.119,2.605,1.324,2.578,2.498c-0.797-0.239-0.824-0.373-1.211-0.396
				c-0.543-0.193-1.086-0.387-1.631-0.579c-1.699,2.738-4.105,4.659-7.547,5.548c0.658,0.312,1.314,0.193,1.973,0.29
				c0.236,0.14,0.473,0.281,0.711,0.421c1.021,0.216,1.742,0.537,1.736,1.5c-0.686-0.765-1.354-0.744-1.896-0.369
				c-1.09,0.457-1.715-0.543-2.576-0.815c-0.727-0.523-1.438-0.302-2.076,0.025c-0.719-0.469-1.543-0.23-2.367-0.131
				c-1.029,0.103-2.197,0.363-2.709,0.946c-0.338,0.267-0.473-0.131-0.5-0.105c-1.184-0.381-1.709,0.659-1.709,0.659
				c-0.281-1.201,0.328-1.46,0.973-1.631c-0.439-0.256-0.877-0.509-1.314-0.762c-0.027-0.15-0.127-0.179,0.131-0.238
				c-0.516-0.329-1.033-0.074-1.604,0.446c0.053-1.094,1.404-1.781,1.973-1.418c0.41-0.304,1.156-0.357,1.709,0.105
				c0.621,0.469,1.562,0.528,2.182,0.341c-0.268-0.741-1.123-1.179-1.604-1.21c-0.678-0.165-1.463-0.401-1.234-0.813
				c-0.42-0.599-1.016-0.411-1.686,0.077c0.24-1.355,1.67-1.216,2.053-0.921c0.139-0.417,0.578-0.514,0.947-0.079
				c0.582,0.156,0.666,0.562,0.998,0.844c0.646,0.659,1.646,1.003,2.471,1.128c0.77-0.44,1.683-0.509,2.578-0.525
				c0.172-0.75,0.664-0.915,1.314-0.918c-0.021-0.67,0.312-0.966,0.947-1.262c0,0-1.006-0.091-1.078-0.738
				c-1.689-0.009-2.802-0.238-2.945-1.341c-1.537-0.483-2.506-1.646-1.893-2.893c-0.764,0.23-1.262,0.25-1.92,0
				c-1.066,0.935-2.721,2.065-3.734,1.438c-0.48,0.497-1.605,1.086-1.631,1.086c-0.133,1.193-1.053,2.656-1.053,2.656
				c-0.455-1.148-1.32-2.403-1.262-3.531c-1.537,1.997-2.438,2.594-3.654,3.9c-0.986,1.015-1.494,2.205-1.842,3.522
				c0.736,0.421,1.684,0.35,2.525,0.526c0.229,0.301,0.174,0.176,0.262,0.264c0.898,0.018,1.561,0.515,1.553,1.446
				c-0.801-0.826-1.604-0.315-1.604-0.315c-0.658,0.546-1.49,0.299-2.287,0c-0.693-0.738-1.703-1.162-2.553-0.528
				c-1.027,0.838-1.486-0.44-3.076,0.449c-1.131,1.028-2.701,1.125-3.129,0.5c0,0-0.785-0.312-1.893,0.866
				c0.314-1.918,1.498-1.733,1.498-1.733c-0.018-0.204-0.035-0.406-0.053-0.604c-0.15-0.055-0.297-0.105-0.447-0.159
				c-0.799-0.353-1.791-0.265-2.236,0.104c0.307-1.258,1.475-1.264,2.34-1.13c0.16-0.177,0.318-0.35,0.475-0.526
				c-0.359-0.139-0.281-0.386-0.184-0.63c-0.484-0.483-0.842-0.58-1.447-0.08c0.191-1.222,1.35-1.143,2.156-0.605
				c0.438-0.272,1.387,0.245,2,0.605c1.867,0.628,3.031,0.707,4.916-1.707c0.018-1.154,0.086-1.597,1.105-2.29
				c-0.389-0.702-0.178-1.403,0.789-1.736c-0.344-0.323-0.08-0.801,0.16-1.301c-1.387-0.062-2.938,0.082-4.027,0.46
				c-0.357,1.097-0.822,2.244-1.604,2.972c0.02-2.855-1.627-4.878-3.629-7.021c-2.295-1.506-3.312-4.534-3.498-5.522
				c-0.422,1.107-0.709,1.287-0.709,1.312c-0.51,0.557-0.162,1.815-1.219,1.844c-0.984,1.204-2.174,0.497-2.174,0.497
				c1.125-0.153,1.316-0.61,1.525-1.366c-0.705-0.168-0.088-0.753,0.264-0.975c0.219-0.04,0.77-1.438,1.131-1.393
				c0.148-1.375,0.297-2.753,0.447-4.128c-0.906-0.375-1.51-0.963-1.447-1.975c-0.334-0.426-0.562-1.051-0.105-1.287
				c-0.201-0.517-0.438-1.085-1.184-1.287c1.73-0.301,1.949,0.753,2.395,0.842c0.508,0.304,0.857,2.051,1.473,2.972
				c-0.467-1.509-0.23-2.526,0.234-3.842c0.004-0.71-0.295-1.4-0.998-1.812c1.479-0.034,2.078,1.497,2.131,1.552
				c0.934,1.213-0.326,2.057,0.078,2.603c0.289-0.22,0.438-0.72,0.869-0.657c0.357-0.392,0.631-0.823,0.604-1.71
				c0.904,0.518,0.686,1.281,0.395,2.025c0.053,1.114-0.104,1.421-0.842,1.815c-0.738,0.438-0.877,0.802-0.789,1.342
				c0.898,0.96,1.078,3.918,1.078,3.918c0.904,0.27,1.234,1.051,1.184,1.682c0.854-0.077,1.631,0.585,1.764,1.185
				c0.502-0.475,1.215-0.034,1.709,0.472c0.174-0.265,0.543-0.387,0.943-0.236c0-0.466,0.262-0.756,0.686-1.131
				c-1.02-0.792-1.301-2.75-0.158-3.812c-0.229-1.435,0.209-2.787,0.947-2.946c-0.238-1.57,0.703-2.071,1.078-2.443
				c-0.246-0.724,0.551-2.042,1-2.054c-0.449-0.747,0.383-2.111,1.051-2.207c0-0.026-0.445-1.052-0.445-1.052
				s-2.143,0.321-2.523,2.287c-0.268-0.409-0.529-1.025-0.529-1.025s-0.854,2.287-0.881,2.235c-0.738-0.448-0.406-1.551-0.406-1.551
				c-0.537-0.588-0.438-1.332-0.658-2c-2.006-0.088-4.014-0.174-6.021-0.265c0,0,0.684,1.262,0.684,1.236
				c-0.713,0.014-4.191-2.961-4.865-5.495c1.785,1.401,3.686,1.773,5.705,2.183c-0.533,0.264-1.068,0.525-1.602,0.789
				c5.543,0.475,11.281-0.551,11.254-0.576c-0.619-1.296-2.654-1.29-2.654-1.29v0.866c-0.186-0.13-0.369-0.261-0.555-0.395
				c-0.008,0.219-0.016,0.44-0.025,0.659c-0.139-0.097-0.281-0.193-0.42-0.29c-0.045,0.185-0.088,0.366-0.133,0.554
				c-0.141-0.096-0.279-0.192-0.42-0.289c-0.061,0.164-0.123,0.332-0.184,0.497c-0.158-0.122-0.314-0.244-0.475-0.366
				c0,0-0.393,0-0.42-0.055c-0.258-1.312-1.498-1.341-1.498-1.341c-1.459-0.188-2.596,0.125-3.893,0.185
				c1.904-2.389,4.521-2.165,7.021-2.42c0.182-1.063,1.117-1.373,2.209-1.526c0,0,5.127,0.265,5.154,0.265
				c0.66-0.872,2.709-1.236,2.709-1.236c0.719-0.36,1.516-0.204,2.157-1.076c-0.168,1.193-0.176,1.435-0.266,2.156
				c0.221,0.025,0.441,0.051,0.66,0.079c-0.598,0.384-1.393,0.93-1.986,1.312c-0.665,1.006-0.538,1.023-0.25,1.552
				c0.201,0.352,0.404,0.704,0.605,1.054c1.023,0.312,1.768,0.747,1.998,1.418c-1.105-0.134-1.912,0.073-1.893,0.554
				c0.021,0.353,0.861,0.509,1.203,0.722c0.635,0.594,0.842,1.116,0.873,1.855c-0.814-0.043-1.877-1.262-2.445-0.131
				c-0.271,0.551,0.029,1.298,0.736,1.551c1.299,0.355,1.42,2.128,1.395,2.128s-2.854-1.883-2.711-0.125
				c-0.045,0.779,0.315,0.952,0.606,1.18c0.846,0.312,1.57,0.676,1.475,1.576c-1.219-0.438-1.797-0.094-1.947,0.605
				c0.16,0.455,0.316,0.912,0.473,1.367c1.65-0.333,3.299-0.665,4.945-1.001c0.719-0.656,1.043-1.747,0.973-2.917
				c0.084-1.745-0.541-3.29,1.684-5.233c4.636-3.864,9.349-6.896,14.621-9.808c-1.068,1.781-1.838,5.1,0.959,5.31
				c0.896,0.015,10.742-4.128,10.742-4.128c-3.422,2.498-7.361,5.986-2.787,7.495c-4.195,1.307-7.678,5.549-4.629,8.969
				c-2.178-0.622-5.033,0.781-5.547,2.367c2.477-0.021,4.715-0.156,7.072,0.656c0,0,6.574,1.31,7.021-1.58
				c-3.512,0.756-6.113,0.406-6.232-2.761c0.031-2.714,4.111-4.242,7.586-2.208c0.361-0.735,0.707-1.472,1.064-2.208
				c-1.27,0.156-2.418,0.373-3.732,0.062C427.977,288.321,430.492,285.824,432.771,283.009L432.771,283.009z"/>
			<g clip-path="url(#SVGID_4_)">
				<path fill="#010101" d="M373.078,321.673c-0.014,0-0.027-0.003-0.039-0.009c-0.035-0.017-0.055-0.054-0.047-0.094
					c0.275-1.679,1.219-1.81,1.5-1.81l-0.057-0.508l-0.389-0.083c-0.725-0.318-1.727-0.259-2.15,0.088
					c-0.029,0.028-0.072,0.028-0.104,0.009s-0.045-0.057-0.035-0.094c0.201-0.832,0.791-1.253,1.754-1.253
					c0.234,0,0.467,0.022,0.684,0.057l0.322-0.409c-0.09-0.051-0.15-0.116-0.186-0.192c-0.068-0.156-0.012-0.327,0.057-0.503
					c-0.48-0.342-0.771-0.424-1.309,0.02c-0.029,0.025-0.068,0.028-0.1,0.012c-0.031-0.021-0.047-0.055-0.041-0.091
					c0.104-0.668,0.516-1.052,1.131-1.052c0.367,0,0.789,0.142,1.158,0.387c0-0.06,0.121-0.091,0.262-0.091
					c0.486,0,1.148,0.352,1.732,0.695c0.555,0.186,1.162,0.361,1.73,0.361c1.049,0,1.938-0.594,3.074-2.049
					c0-1.131,0.088-1.585,1.061-2.264c-0.174-0.35-0.205-0.69-0.09-0.992c0.125-0.323,0.416-0.582,0.846-0.756
					c-0.232-0.329-0.031-0.758,0.172-1.179c-1.42-0.051-2.893,0.122-3.863,0.46c-0.293,1.006-0.758,2.193-1.572,2.952
					c-0.025,0.025-0.061,0.031-0.096,0.018c-0.031-0.015-0.051-0.046-0.051-0.08c0.018-2.85-1.623-4.838-3.605-6.964
					c-2.117-1.383-3.162-4.102-3.457-5.287c-0.203,0.486-0.404,0.842-0.6,1.052c-0.201,0.222-0.27,0.522-0.336,0.812
					c-0.113,0.5-0.244,1.068-0.969,1.085c-0.336,0.458-0.812,0.705-1.355,0.705c-0.492,0-0.85-0.208-0.865-0.219
					c-0.031-0.018-0.047-0.055-0.041-0.091c0.01-0.037,0.037-0.062,0.074-0.068c1.041-0.146,1.236-0.54,1.43-1.222
					c-0.176-0.057-0.275-0.153-0.297-0.287c-0.051-0.31,0.385-0.671,0.621-0.818c0.09-0.04,0.256-0.318,0.377-0.522
					c0.281-0.475,0.502-0.821,0.721-0.878l0.434-3.995c-1.027-0.442-1.498-1.107-1.439-2.031c-0.207-0.229-0.422-0.659-0.348-0.994
					c0.029-0.137,0.104-0.247,0.221-0.327c-0.184-0.469-0.408-0.979-1.1-1.167c-0.037-0.009-0.064-0.049-0.062-0.088
					c0-0.04,0.031-0.074,0.072-0.08c1.266-0.225,1.752,0.262,2.088,0.594c0.129,0.125,0.229,0.228,0.338,0.247
					c0.332,0.193,0.562,0.796,0.83,1.492c0.119,0.31,0.24,0.625,0.371,0.914c-0.232-1.238,0.035-2.17,0.408-3.219
					c-0.004-0.729-0.342-1.347-0.963-1.71c-0.033-0.021-0.047-0.06-0.039-0.097s0.037-0.105,0.084-0.065
					c0.658,0,1.516,0.267,2.166,1.525c0.623,0.83,0.373,1.478,0.188,1.949c-0.098,0.256-0.18,0.463-0.121,0.631
					c0.057-0.057,0.109-0.125,0.166-0.199c0.15-0.193,0.322-0.415,0.605-0.415c0.387-0.377,0.617-0.798,0.592-1.613
					c0-0.031,0.016-0.06,0.043-0.076c0.025-0.015,0.061-0.018,0.086,0c0.955,0.542,0.736,1.349,0.434,2.13
					c0.059,1.092-0.107,1.446-0.881,1.861c-0.729,0.432-0.824,0.772-0.744,1.25c0.887,0.927,1.07,3.805,1.078,3.927
					c0.83,0.193,1.199,0.938,1.189,1.594c0.785,0.008,1.512,0.56,1.715,1.128c0.514-0.353,1.287,0.136,1.654,0.491
					c0.199-0.222,0.539-0.312,0.875-0.222c0.039-0.421,0.295-0.707,0.631-1.012c-0.492-0.426-0.816-1.142-0.85-1.892
					c-0.035-0.79,0.236-1.494,0.768-1.989c-0.256-1.354,0.17-2.704,0.908-2.943c-0.176-1.335,0.482-1.897,0.92-2.272
					c0.072-0.06,0.141-0.116,0.191-0.171c-0.186-0.395,0.084-1.104,0.402-1.562c0.178-0.255,0.365-0.426,0.531-0.488
					c-0.145-0.332-0.107-0.775,0.111-1.236c0.236-0.494,0.607-0.872,0.957-0.974c-0.078-0.186-0.309-0.711-0.387-0.893
					c-0.355,0.074-2.057,0.515-2.385,2.207c-0.008,0.034-0.035,0.062-0.068,0.068c-0.037,0.009-0.072-0.008-0.092-0.037
					c-0.176-0.272-0.348-0.627-0.445-0.846c-0.785,2.097-0.812,2.097-0.889,2.097c-0.834-0.492-0.508-1.62-0.492-1.665
					c-0.355-0.327-0.434-0.81-0.51-1.275c-0.037-0.228-0.074-0.452-0.146-0.671l-2.932-0.074l-2.859-0.125
					c0.242,0.443,0.568,1.043,0.604,1.091c0.025,0.023,0.031,0.055,0.016,0.089c-0.012,0.034-0.047,0.051-0.084,0.051
					c-0.828,0-4.273-3.021-4.949-5.56c-0.01-0.037,0.006-0.077,0.037-0.097c0.031-0.023,0.07-0.018,0.102,0.005
					c1.742,1.37,3.611,1.748,5.588,2.151c0.037,0.006,0.105,0.042,0.109,0.082c0.004,0.034,0.025,0.08-0.006,0.097l-1.322,0.647
					c0.879,0.068,1.811,0.1,2.775,0.1c3.961,0,7.404-0.551,8.029-0.673c-0.561-0.992-2.062-1.122-2.439-1.143v0.778
					c0,0.031-0.018,0.062-0.047,0.077c-0.029,0.014-0.064,0.014-0.09-0.006l-0.422-0.301l-0.02,0.497
					c-0.002,0.031-0.021,0.06-0.047,0.073c-0.029,0.015-0.062,0.012-0.088-0.005l-0.318-0.219l-0.104,0.432
					c-0.006,0.028-0.025,0.048-0.053,0.06c-0.025,0.009-0.057,0.006-0.08-0.009l-0.328-0.228l-0.145,0.396
					c-0.01,0.025-0.031,0.045-0.059,0.054c-0.025,0.006-0.055,0-0.076-0.017l-0.475-0.367c-0.396,0.018-0.426-0.045-0.443-0.082
					c-0.25-1.25-1.377-1.293-1.424-1.293c-0.988-0.125-1.807-0.025-2.615,0.065c-0.418,0.049-0.836,0.097-1.271,0.116
					c-0.043,0-0.064-0.017-0.082-0.045c-0.014-0.031-0.012-0.068,0.01-0.094c1.635-2.052,3.814-2.208,5.922-2.358
					c0.367-0.025,0.73-0.051,1.094-0.088c0.229-1.1,1.273-1.393,2.27-1.531l0,0c0.031,0,5.096,0.262,5.168,0.264
					c0.604-0.854,2.609-1.221,2.693-1.235c0.225-0.116,0.481-0.182,0.731-0.244c0.494-0.125,0.963-0.244,1.371-0.799
					c0.023-0.034,0.066-0.042,0.102-0.031c0.037,0.018,0.059,0.055,0.053,0.094c-0.109,0.802-0.15,1.174-0.193,1.552l-0.059,0.517
					l0.572,0.068c0.035,0.006,0.066,0.031,0.074,0.068c0.008,0.034-0.008,0.071-0.039,0.091c-0.301,0.196-0.652,0.429-1.002,0.665
					c-0.344,0.229-0.688,0.46-0.984,0.65c-0.549,0.847-0.51,0.918-0.291,1.307l0.676,1.182c1.115,0.315,1.787,0.799,2.006,1.433
					c0.008,0.028,0.004,0.06-0.016,0.082c-0.02,0.025-0.051,0.031-0.078,0.034c-0.818-0.1-1.475-0.003-1.705,0.238
					c-0.064,0.065-0.094,0.14-0.092,0.225c0.014,0.179,0.396,0.327,0.703,0.443c0.178,0.071,0.346,0.137,0.463,0.207
					c0.627,0.586,0.881,1.123,0.912,1.924c0.002,0.025-0.008,0.048-0.025,0.065c-0.018,0.017-0.041,0.028-0.066,0.025
					c-0.287-0.014-0.6-0.165-0.902-0.312c-0.59-0.284-1.156-0.466-1.459,0.134c-0.115,0.235-0.119,0.52-0.014,0.778
					c0.123,0.301,0.379,0.54,0.701,0.653c1.297,0.355,1.475,2.046,1.453,2.216c-0.006,0.046-0.047,0.083-0.088,0.083
					c-0.016,0-0.102-0.046-0.115-0.055c-1.115-0.679-1.711-0.823-2.014-0.823c-0.17,0-0.299,0.045-0.377,0.133
					c-0.098,0.105-0.137,0.281-0.117,0.526c-0.039,0.659,0.211,0.847,0.477,1.042l0.094,0.074c0.809,0.293,1.611,0.674,1.508,1.653
					c-0.002,0.028-0.018,0.052-0.041,0.065c-0.023,0.015-0.051,0.018-0.074,0.009c-1.039-0.375-1.676-0.193-1.832,0.54l0.445,1.25
					l4.869-0.986c0.631-0.591,0.975-1.631,0.904-2.827c0.018-0.357,0.004-0.695-0.008-1.034c-0.047-1.383-0.088-2.69,1.721-4.27
					c4.261-3.555,8.777-6.58,14.634-9.819c0.033-0.02,0.076-0.011,0.105,0.018c0.027,0.025,0.031,0.071,0.012,0.103
					c-0.779,1.301-1.275,3.179-0.719,4.256c0.287,0.557,0.828,0.866,1.609,0.926c0.717,0,7.314-2.696,10.703-4.122
					c0.041-0.015,0.088,0,0.107,0.037c0.023,0.039,0.012,0.088-0.021,0.113c-3.439,2.509-5.012,4.361-4.809,5.659
					c0.115,0.719,0.785,1.284,1.996,1.682c0.035,0.012,0.059,0.046,0.059,0.086c0,0.037-0.023,0.068-0.059,0.079
					c-2.746,0.855-4.984,2.855-5.574,4.983c-0.379,1.369-0.039,2.699,0.982,3.847c0.025,0.025,0.029,0.068,0.008,0.103
					c-0.02,0.031-0.062,0.045-0.096,0.037c-0.342-0.097-0.713-0.148-1.104-0.148c-1.828,0-3.793,1.083-4.297,2.345l0.697-0.009
					c0.422-0.006,0.836-0.012,1.248-0.012c1.834,0,3.393,0.117,5.031,0.682c0.004,0,1.488,0.29,3.068,0.29
					c1.576,0,3.494-0.292,3.816-1.673c-1.006,0.21-1.855,0.31-2.6,0.31c-2.35,0-3.529-1.04-3.609-3.18
					c0.02-1.847,1.873-3.235,4.307-3.235c1.141,0,2.287,0.312,3.328,0.903l0.955-1.983l-0.293,0.037
					c-1.158,0.153-2.285,0.247-3.312,0.006c-0.031-0.006-0.057-0.031-0.064-0.062s0.002-0.062,0.023-0.086
					c2.49-2.36,5.119-4.945,7.461-7.841c0.025-0.028,0.066-0.04,0.104-0.022c0.035,0.014,0.057,0.051,0.051,0.091
					c-0.518,3.625,0.039,8.64,0.857,10.202c0.018,0.031,0.012,0.071-0.012,0.1c-0.021,0.025-0.059,0.039-0.094,0.022
					c-1.133-0.406-2.197-1.296-2.764-2.304l-1.174,3.645c0.816,1.6,0.768,3.299-0.145,4.85c-1.729,2.943-6.01,4.696-9.467,4.961
					l0.594,0.321c3.354,1.81,7.154,3.863,7.154,5.04c-0.26,0.156-0.461,0.195-0.658,0.195c-0.668,0-1.211-0.435-1.736-0.854
					c-0.266-0.211-0.537-0.43-0.822-0.586c0.947,2.62,0.5,4.717-0.012,7.134c-0.072,0.342-0.146,0.688-0.219,1.046
					c-0.428,0.525-0.225,0.881,0.016,1.29c0.078,0.137,0.158,0.275,0.217,0.42l1.58,0.586l0.291,0.25
					c-0.006-0.012,1.17,0.079,1.492,1.704c0.006,0.04-0.014,0.08-0.049,0.097c-0.037,0.018-0.08,0.006-0.105-0.022
					c-0.701-0.853-1.711-0.605-1.713-0.605l-0.371,0.253l-1.014-0.551c-0.934-0.619-1.891-0.668-3.076-0.15
					c-0.533,0.32-1.156,0.347-1.756,0.048c-0.383-0.4-1.033-0.403-1.889-0.088c-0.105,0.048-0.932,0.594-1.469,0.952
					c-0.072,0.011-0.379-0.061-0.424-0.065c-0.098,0-0.951,0.02-2.051,0.724c-0.029,0.018-0.066,0.018-0.094-0.002
					c-0.029-0.018-0.043-0.055-0.037-0.089c0.264-1.366,1.143-1.599,1.449-1.639c-0.029-0.188,0.064-0.262,0.164-0.318
					c0.004-0.009,0.084-0.077,0.09-0.082c0.252-0.279,0.662-0.358,1.074-0.415l-2.645-0.125c-0.027,0-0.053-0.015-0.068-0.037
					c-0.014-0.022-0.02-0.051-0.01-0.077l0.018-0.051c-0.592-0.054-1.141-0.128-1.57,0.571c-0.021,0.031-0.059,0.048-0.096,0.04
					c-0.037-0.012-0.064-0.043-0.066-0.083c-0.039-1.091,0.787-1.409,1.387-1.642l0.244-0.097c0.191-0.324,0.613-0.364,0.91-0.364
					c0.168,0,0.346,0.015,0.521,0.031c-0.439-0.19-0.746-0.32-0.746-0.32c-0.211-0.29-0.068-0.478-0.01-0.549
					c-0.045,0.02-0.389-0.159-0.771-0.159c-0.285,0-0.529,0.1-0.729,0.293c-0.027,0.025-0.066,0.031-0.098,0.017
					c-0.033-0.017-0.053-0.051-0.049-0.085c0.094-1,0.926-1.15,1.412-1.15c0.17,0,0.314,0.017,0.398,0.031
					c0.123-0.361,0.607-0.406,0.885-0.148l1.291,1.265l1.195,0.75c1.211,0.534,2.332,0.122,3.193-1.259
					c-0.346-0.75-0.219-1.164,0.549-1.673c-0.166-0.518-0.123-1.077,0.129-1.656c-0.307-0.387-0.529-1.656-0.268-2.134
					c-0.541-0.236-0.834-0.708-0.965-0.915c-0.133-0.037-0.283-0.022-0.432-0.02c-0.479,0-0.943-0.168-1.211-0.438
					c-0.283,0.185-0.66,0.27-1.025,0.27c-0.596,0-1.152-0.222-1.652-0.662c-0.316,0.153-0.721,0.225-1.119,0.225
					c-0.719,0-1.385-0.228-1.828-0.619c-0.053,0.051-0.197,0.068-0.352,0.068c-0.982,0-2.127-0.64-2.355-1.315
					c-0.189,0.065-0.465-0.083-0.73-0.219c-0.26-0.137-0.531-0.276-0.795-0.276c-0.346,0.531-0.523,0.671-0.842,0.921
					c-0.135,0.105-0.297,0.236-0.516,0.426c-0.729,0.762-0.428,2.021,0.109,2.586l2.73,1.031c2.223,0.122,2.66,1.472,2.631,2.58
					c0,0.028-0.012,0.054-0.035,0.067c-0.021,0.018-0.049,0.021-0.074,0.015c-0.369-0.111-0.578-0.199-0.729-0.265
					c-0.174-0.073-0.27-0.116-0.463-0.128l-1.588-0.56c-1.752,2.796-4.145,4.586-7.307,5.461c0.34,0.11,0.684,0.125,1.043,0.139
					c0.221,0.006,0.441,0.018,0.664,0.049l0.742,0.432c1.062,0.216,1.787,0.574,1.777,1.574c0,0.034-0.021,0.068-0.055,0.079
					c-0.035,0.009-0.072,0.003-0.096-0.022c-0.576-0.642-1.193-0.759-1.779-0.355c-0.754,0.321-1.328-0.025-1.865-0.378
					c-0.252-0.167-0.512-0.338-0.787-0.426c-0.703-0.491-1.488-0.247-2.011,0.02c-0.637-0.323-1.26-0.284-1.977-0.179
					c-0.141,0.02-0.279,0.043-0.418,0.06c-1.309,0.128-2.25,0.455-2.656,0.915c-0.307,0.25-0.525,0.022-0.6-0.074
					c-0.156-0.057-0.316-0.085-0.469-0.085c-0.766,0-1.113,0.668-1.129,0.696c-0.016,0.031-0.051,0.051-0.088,0.045
					c-0.035-0.003-0.064-0.031-0.074-0.065c-0.266-1.145,0.254-1.494,0.838-1.676l-1.137-0.662c-0.02-0.009-0.059-0.116-0.064-0.134
					c-0.016-0.042-0.033-0.097-0.006-0.15c0.01-0.014,0.02-0.028,0.035-0.04c-0.375-0.142-0.781,0.015-1.336,0.523
					c-0.025,0.025-0.064,0.031-0.096,0.014c-0.031-0.014-0.053-0.048-0.049-0.082c0.059-1.225,1.533-1.85,2.105-1.488
					c0.117-0.156,0.418-0.248,0.725-0.248c0.363,0,0.715,0.128,0.994,0.358c0.49,0.372,1.355,0.515,2.008,0.353
					c-0.283-0.646-1.047-1.037-1.49-1.065c-0.621-0.15-1.199-0.327-1.33-0.628c-0.045-0.1-0.037-0.211,0.021-0.315
					c-0.328-0.29-0.803-0.361-1.557,0.19c-0.027,0.02-0.066,0.022-0.096,0.003c-0.029-0.018-0.045-0.055-0.041-0.089
					c0.131-0.744,0.656-1.189,1.402-1.189c0.26,0,0.52,0.06,0.695,0.156c0.195-0.396,0.705-0.421,1.055-0.009
					c0.371,0.085,0.551,0.315,0.725,0.54c0.082,0.104,0.16,0.207,0.264,0.295c0.768,0.781,1.955,1.034,2.428,1.108
					c0.74-0.443,1.673-0.509,2.496-0.525c0.203-0.762,0.758-0.904,1.297-0.918c0.006-0.574,0.281-0.878,0.76-1.137
					c-0.309-0.073-0.781-0.256-0.879-0.69c-1.67-0.017-2.808-0.272-2.957-1.418c-0.92-0.238-1.65-0.804-1.943-1.482
					c-0.176-0.415-0.182-0.855-0.018-1.287c-0.73,0.199-1.178,0.182-1.797-0.051c-0.609,0.597-1.943,1.625-3.025,1.625
					c-0.246,0-0.471-0.055-0.664-0.159c-0.416,0.4-1.285,0.909-1.564,1.034c-0.152,1.188-1.02,2.585-1.059,2.645
					c-0.018,0.025-0.039,0.037-0.08,0.04c-0.033-0.003-0.062-0.025-0.074-0.054c-0.133-0.336-0.299-0.677-0.469-1.023
					c-0.371-0.761-0.754-1.545-0.799-2.289c-0.943,1.201-1.656,1.883-2.344,2.545c-0.377,0.361-0.75,0.722-1.162,1.162
					c-0.844,0.866-1.4,1.924-1.803,3.421c0.465,0.244,1.025,0.304,1.566,0.36c0.297,0.031,0.592,0.062,0.875,0.122
					c0.189,0.214,0.213,0.225,0.223,0.228c0.012,0.006,0.076,0.051,0.084,0.06c0.004,0,0.01,0,0.012,0
					c0.953,0,1.574,0.589,1.566,1.512c-0.002,0.034-0.023,0.065-0.057,0.079c-0.031,0.012-0.068,0.003-0.094-0.022
					c-0.287-0.295-0.604-0.443-0.941-0.443c-0.324,0-0.551,0.14-0.553,0.143c-0.598,0.497-1.592,0.298-2.365,0.009
					c-0.816-0.853-1.766-1.063-2.469-0.54c-0.438,0.354-0.877,0.341-1.348,0.232c-0.49-0.116-1.08-0.145-1.74,0.222
					c-0.611,0.56-1.432,0.9-2.182,0.9c-0.48,0-0.863-0.15-1.051-0.414c-0.008,0.006-0.084-0.015-0.201-0.015
					c-0.277,0-0.85,0.114-1.566,0.878C373.123,321.664,373.102,321.673,373.078,321.673L373.078,321.673z M415.465,320.068
					c-0.109,0-1.01,0.039-1.34,1.31c1.029-0.608,1.811-0.643,1.963-0.643c0.021,0,0.047,0,0.398,0.083
					c1.373-0.949,1.391-0.949,1.426-0.949c0.955-0.366,1.674-0.315,2.062,0.107c0.494,0.228,1.072,0.233,1.574-0.067
					c1.266-0.552,2.271-0.492,3.248,0.159l0.918,0.551l0.105-0.131l0.197-0.131c0.074-0.031,0.953-0.247,1.691,0.409
					c-0.369-1.213-1.264-1.272-1.305-1.275l-0.318-0.259l-1.605-0.616c-0.104-0.188-0.182-0.318-0.254-0.446
					c-0.248-0.429-0.506-0.869-0.016-1.451c0.053-0.318,0.127-0.668,0.199-1.006c0.541-2.558,0.969-4.574-0.057-7.242
					c-0.012-0.034-0.004-0.071,0.021-0.094c0.023-0.025,0.062-0.034,0.096-0.018c0.375,0.162,0.719,0.438,1.051,0.705
					c0.68,0.543,1.355,1.022,2.17,0.71c-0.057-0.991-3.971-3.105-7.119-4.807l-0.859-0.463c-0.035-0.021-0.053-0.058-0.045-0.097
					c0.01-0.037,0.043-0.065,0.082-0.068c3.461-0.176,7.879-1.915,9.629-4.893c0.891-1.52,0.936-3.116,0.131-4.75l1.232-3.904
					c0.012-0.033,0.041-0.06,0.076-0.062c0.033,0,0.068,0.018,0.084,0.049c0.488,0.983,1.48,1.878,2.562,2.324
					c-0.82-1.855-1.219-6.566-0.82-9.802c-2.262,2.762-4.773,5.236-7.162,7.506c0.957,0.193,2.008,0.1,3.09-0.043l0.453-0.06
					c0.033,0,0.064,0.012,0.082,0.037c0.02,0.025,0.021,0.06,0.008,0.088l-1.064,2.211c-0.012,0.02-0.031,0.037-0.055,0.045
					c-0.023,0.006-0.045,0.003-0.068-0.008c-1.035-0.605-2.184-0.927-3.322-0.927c-2.338,0-4.115,1.315-4.133,3.06
					c0.102,2.714,2,3.563,6.125,2.677c0.029-0.009,0.057,0,0.078,0.02c0.021,0.021,0.029,0.049,0.027,0.077
					c-0.199,1.275-1.586,1.949-4.012,1.949c-1.598,0-3.096-0.296-3.113-0.299c-1.629-0.562-3.172-0.676-4.986-0.676
					c-0.41,0-0.824,0.006-1.244,0.011l-0.824,0.009l0,0c-0.029,0-0.055-0.012-0.07-0.034c-0.018-0.022-0.021-0.051-0.012-0.079
					c0.514-1.589,3.312-2.921,5.389-2.489c-0.926-1.145-1.219-2.454-0.844-3.801c0.586-2.117,2.756-4.108,5.441-5.021
					c-1.125-0.418-1.754-1-1.867-1.733c-0.264-1.673,2.172-3.804,4.297-5.4c-2.236,0.935-9.309,3.858-10.109,3.858
					c-0.855-0.065-1.443-0.406-1.762-1.018c-0.574-1.108-0.125-2.869,0.57-4.156c-5.719,3.176-10.15,6.159-14.337,9.651
					c-1.744,1.522-1.701,2.789-1.658,4.131c0.014,0.341,0.025,0.688,0.006,1.039c0.076,1.239-0.289,2.327-1.002,2.978l-4.984,1.021
					c-0.043,0.009-0.084-0.018-0.098-0.057l-0.475-1.367c0.17-0.875,0.857-1.119,1.951-0.753c0.021-0.701-0.512-1.039-1.426-1.378
					l-0.115-0.082c-0.277-0.205-0.592-0.438-0.547-1.179c-0.023-0.284,0.031-0.506,0.163-0.648c0.355-0.386,1.229-0.17,2.543,0.619
					c-0.049-0.426-0.328-1.613-1.326-1.889c-0.375-0.134-0.668-0.406-0.807-0.753c-0.127-0.307-0.119-0.643,0.016-0.921
					c0.348-0.693,1.035-0.528,1.689-0.213c0.252,0.122,0.51,0.247,0.742,0.284c-0.047-0.704-0.281-1.171-0.84-1.693
					c-0.094-0.057-0.252-0.116-0.42-0.179c-0.391-0.15-0.793-0.307-0.812-0.6c-0.004-0.137,0.041-0.253,0.139-0.355
					c0.258-0.27,0.887-0.383,1.705-0.307c-0.244-0.514-0.863-0.92-1.887-1.233l-0.729-1.224c-0.254-0.455-0.288-0.583,0.324-1.512
					c0.322-0.213,0.662-0.443,1.006-0.674c0.275-0.185,0.555-0.369,0.807-0.534l-0.42-0.051c-0.023-0.003-0.045-0.015-0.061-0.031
					c-0.014-0.02-0.02-0.043-0.016-0.065l0.068-0.603c0.037-0.329,0.07-0.653,0.152-1.258c-0.396,0.411-0.84,0.522-1.27,0.63
					c-0.25,0.065-0.488,0.125-0.719,0.242c-0.045,0.011-2.049,0.375-2.68,1.21c-0.096,0.037-4.023-0.168-5.227-0.23
					c-0.988,0.14-1.941,0.412-2.119,1.455c-0.006,0.037-0.037,0.065-0.078,0.071c-0.385,0.039-0.775,0.065-1.164,0.094
					c-2.107,0.15-4.104,0.295-5.674,2.139c0.363-0.022,0.713-0.062,1.062-0.102c0.82-0.097,1.668-0.193,2.648-0.068l0,0
					c0.018,0,1.307,0.048,1.574,1.409c0.006-0.028,0.188-0.018,0.334-0.018l0.434,0.312l0.145-0.386
					c0.008-0.025,0.027-0.046,0.053-0.055c0.027-0.008,0.055-0.002,0.078,0.012l0.314,0.219l0.102-0.429
					c0.008-0.028,0.027-0.052,0.055-0.062c0.029-0.006,0.057-0.006,0.08,0.011l0.293,0.199l0.02-0.5c0-0.031,0.02-0.062,0.047-0.076
					c0.031-0.009,0.062-0.009,0.09,0.008l0.414,0.296v-0.696c0-0.048,0.039-0.088,0.088-0.088c0.086,0,2.1,0.014,2.732,1.341
					c-0.053,0.204-4.162,0.827-8.236,0.827c-1.088,0-2.131-0.043-3.105-0.128c-0.037-0.003-0.07-0.031-0.076-0.068
					c-0.008-0.04,0.012-0.077,0.045-0.094l1.377-0.679c-1.898-0.387-3.637-0.776-5.279-1.986c0.766,2.299,3.621,4.807,4.531,5.14
					c-0.092-0.162-0.264-0.472-0.586-1.068c-0.016-0.028-0.014-0.06,0.002-0.088c0.016-0.025,0.029-0.04,0.078-0.04l6.023,0.265
					c0.152,0.284,0.189,0.52,0.23,0.755c0.074,0.464,0.146,0.898,0.484,1.271c0.016,0.091-0.26,1.048,0.312,1.483
					c0.137-0.299,0.562-1.421,0.832-2.14c0.012-0.034,0.064-0.057,0.08-0.057c0.037,0,0.068,0.02,0.082,0.054
					c0.002,0.006,0.193,0.454,0.41,0.832c0.494-1.818,2.525-2.142,2.545-2.147c0.047-0.009,0.078,0.017,0.094,0.054
					c0.455,1.04,0.455,1.062,0.455,1.086c0,0.042-0.031,0.079-0.074,0.085c-0.309,0.045-0.699,0.423-0.924,0.9
					c-0.217,0.457-0.24,0.887-0.066,1.179c0.016,0.026,0.016,0.058,0.002,0.086c-0.018,0.028-0.043,0.045-0.074,0.045
					c-0.131,0.003-0.334,0.177-0.52,0.44c-0.305,0.435-0.539,1.088-0.4,1.497c-0.076,0.146-0.146,0.205-0.223,0.271
					c-0.416,0.354-1.047,0.897-0.852,2.19c0.008,0.045-0.023,0.088-0.068,0.097c-0.686,0.145-1.096,1.477-0.877,2.847
					c-0.52,0.534-0.771,1.19-0.74,1.929c0.035,0.741,0.365,1.443,0.865,1.83c0.02,0.017,0.031,0.039,0.033,0.065
					c0,0.025-0.012,0.051-0.029,0.067c-0.445,0.396-0.654,0.654-0.654,1.065c0,0.029-0.016,0.058-0.037,0.071
					c-0.025,0.018-0.055,0.021-0.082,0.012c-0.338-0.128-0.682-0.043-0.842,0.201c-0.014,0.021-0.039,0.034-0.066,0.037
					c-0.025,0.003-0.051-0.006-0.068-0.025c-0.609-0.619-1.215-0.821-1.588-0.469c-0.023,0.02-0.055,0.028-0.086,0.02
					c-0.029-0.011-0.053-0.034-0.059-0.065c-0.121-0.56-0.842-1.198-1.67-1.116c-0.023,0.003-0.051-0.006-0.068-0.022
					c-0.018-0.021-0.029-0.046-0.025-0.068c0.049-0.611-0.279-1.341-1.123-1.594c-0.062-0.108-0.25-3.018-1.115-3.94
					c-0.125-0.677,0.09-1.052,0.809-1.475c0.717-0.384,0.85-0.677,0.799-1.739c0.289-0.756,0.465-1.4-0.219-1.869
					c-0.008,0.768-0.258,1.202-0.631,1.608c-0.016,0.02-0.111,0.022-0.137,0.022c-0.199,0-0.33,0.17-0.469,0.35
					c-0.082,0.104-0.168,0.216-0.273,0.298c-0.02,0.015-0.041,0.021-0.064,0.015c-0.023-0.003-0.045-0.015-0.059-0.034
					c-0.188-0.256-0.072-0.56,0.053-0.881c0.189-0.483,0.4-1.031-0.131-1.722c-0.482-0.924-1.061-1.409-1.758-1.5
					c0.508,0.403,0.783,1,0.783,1.71c-0.432,1.23-0.719,2.273-0.24,3.815c0.014,0.04-0.006,0.086-0.047,0.105
					c-0.039,0.02-0.084,0.006-0.109-0.031c-0.279-0.423-0.5-0.997-0.713-1.554c-0.246-0.637-0.475-1.242-0.73-1.393
					c-0.129-0.02-0.254-0.142-0.396-0.284c-0.297-0.289-0.67-0.659-1.598-0.588c0.547,0.278,0.744,0.79,0.908,1.213
					c0.018,0.043-0.002,0.088-0.039,0.108c-0.111,0.057-0.176,0.139-0.199,0.25c-0.051,0.228,0.08,0.585,0.332,0.909
					c-0.037,0.929,0.406,1.528,1.412,1.943c0.033,0.017,0.057,0.051,0.053,0.091l-0.447,4.128c-0.004,0.025-0.014,0.046-0.031,0.06
					c-0.02,0.015-0.043,0.022-0.066,0.02l0,0c-0.166,0-0.451,0.48-0.639,0.799c-0.221,0.372-0.34,0.568-0.465,0.591
					c-0.254,0.168-0.541,0.469-0.514,0.634c0.016,0.097,0.146,0.147,0.254,0.17c0.023,0.006,0.043,0.023,0.057,0.043
					c0.01,0.02,0.016,0.043,0.008,0.065c-0.197,0.713-0.395,1.179-1.307,1.381c0.137,0.043,0.314,0.082,0.518,0.082
					c0.488,0,0.922-0.227,1.285-0.673c0.656-0.046,0.756-0.48,0.869-0.98c0.072-0.315,0.146-0.64,0.355-0.863
					c0.236-0.262,0.463-0.685,0.693-1.287c0.012-0.037,0.045-0.055,0.088-0.057c0.039,0.005,0.07,0.033,0.076,0.07
					c0.176,0.946,1.189,3.98,3.461,5.467c1.977,2.113,3.605,4.085,3.666,6.887c0.699-0.733,1.117-1.815,1.436-2.793
					c1.086-0.415,2.637-0.58,4.115-0.518c0.027,0,0.053,0.018,0.068,0.043c0.016,0.022,0.016,0.054,0.004,0.08l-0.047,0.096
					c-0.219,0.455-0.406,0.845-0.131,1.105c0.021,0.021,0.031,0.052,0.025,0.08c-0.008,0.031-0.029,0.054-0.057,0.065
					c-0.445,0.15-0.742,0.392-0.859,0.695c-0.104,0.273-0.062,0.588,0.117,0.915c0.021,0.04,0.01,0.091-0.027,0.113
					c-0.996,0.677-1.051,1.1-1.066,2.22c-1.191,1.557-2.123,2.167-3.23,2.167c-0.594,0-1.215-0.182-1.801-0.378
					c-0.68-0.395-1.58-0.835-1.926-0.613c-0.436-0.23-0.822-0.358-1.156-0.358s-0.742,0.122-0.91,0.68
					c0.508-0.341,0.852-0.293,1.371,0.228c-0.035,0.232-0.08,0.366-0.039,0.46c0.025,0.062,0.09,0.11,0.193,0.153
					c0.029,0.009,0.047,0.031,0.055,0.06c0.006,0.028-0.002,0.057-0.02,0.079l-0.475,0.526c-0.285-0.006-0.51-0.028-0.734-0.028
					c-0.791,0-1.291,0.292-1.52,0.897c0.531-0.275,1.443-0.281,2.119,0.017l0.441,0.156l0.109,0.68
					c0.002,0.025-0.008,0.054-0.027,0.07c-0.02,0.018-0.045,0.029-0.072,0.023c-0.291,0.022-1.041,0.102-1.346,1.383
					c0.971-0.911,1.754-0.698,1.785-0.682c0.193,0.256,0.527,0.384,0.957,0.384c0.707,0,1.484-0.324,2.082-0.866
					c0.729-0.412,1.389-0.369,1.879-0.253c0.438,0.104,0.803,0.125,1.201-0.199c0.779-0.582,1.844-0.347,2.67,0.534
					c0.672,0.233,1.607,0.457,2.168-0.006c0.02-0.014,0.279-0.176,0.656-0.176c0.324,0,0.629,0.116,0.906,0.35
					c-0.082-0.702-0.625-1.137-1.455-1.153c-0.137-0.065-0.172-0.092-0.332-0.296c-0.225-0.025-0.514-0.057-0.803-0.088
					c-0.586-0.062-1.188-0.125-1.695-0.415c-0.033-0.02-0.051-0.06-0.041-0.1c0.412-1.56,0.986-2.659,1.863-3.56
					c0.412-0.443,0.789-0.804,1.164-1.168c0.725-0.693,1.471-1.409,2.484-2.728c0.023-0.028,0.062-0.042,0.1-0.028
					c0.035,0.015,0.059,0.049,0.057,0.088c-0.041,0.776,0.377,1.631,0.781,2.461c0.145,0.295,0.287,0.585,0.408,0.872
					c0.23-0.397,0.844-1.531,0.954-2.472c0.002-0.046,0.041-0.077,0.084-0.077c0.061-0.028,1.119-0.597,1.568-1.06
					c0.027-0.028,0.074-0.034,0.109-0.011c0.178,0.11,0.391,0.167,0.631,0.167c1.025,0,2.318-1.003,3-1.6
					c0.807,0.208,1.145,0.228,1.951-0.02c0.033-0.006,0.068,0.003,0.09,0.028c0.023,0.025,0.029,0.062,0.014,0.094
					c-0.219,0.446-0.238,0.887-0.055,1.315c0.271,0.631,0.963,1.162,1.896,1.457c0.193,1.114,1.253,1.327,2.917,1.339
					c0.045,0,0.082,0.034,0.086,0.076c0.064,0.571,0.99,0.659,1,0.659c0.039,0.003,0.07,0.034,0.08,0.071
					c0.004,0.04-0.016,0.079-0.051,0.094c-0.598,0.278-0.918,0.548-0.896,1.182c0,0.022-0.008,0.046-0.025,0.062
					c-0.016,0.018-0.037,0.025-0.061,0.025c-0.623,0.006-1.07,0.151-1.232,0.853c-0.008,0.04-0.043,0.068-0.082,0.068
					c-0.818,0.015-1.755,0.068-2.535,0.515c-0.551-0.065-1.781-0.33-2.576-1.146c-0.113-0.094-0.201-0.204-0.285-0.315
					c-0.162-0.21-0.316-0.406-0.674-0.503c-0.385-0.403-0.725-0.338-0.844,0.023c-0.01,0.028-0.029,0.048-0.059,0.057
					c-0.025,0.006-0.053,0.003-0.076-0.015c-0.115-0.091-0.369-0.182-0.684-0.182c-0.287,0-0.943,0.088-1.178,0.829
					c0.736-0.482,1.25-0.448,1.617,0.074c-0.029,0.15-0.033,0.205-0.012,0.253c0.115,0.265,0.9,0.458,1.197,0.528
					c0.508,0.031,1.383,0.489,1.664,1.265c0.008,0.022,0.006,0.048-0.004,0.068c-0.01,0.02-0.029,0.036-0.053,0.045
					c-0.705,0.21-1.697,0.068-2.26-0.357c-0.457-0.384-1.191-0.409-1.604-0.105c-0.188-0.051-0.299-0.079-0.43-0.079
					c-0.523,0-1.312,0.477-1.479,1.213c0.611-0.506,1.086-0.588,1.533-0.305c0.031,0.021,0.045,0.055,0.039,0.089
					s-0.031,0.062-0.064,0.07c-0.094,0.023-0.115,0.034-0.121,0.037c0.035,0.022,0.047,0.057,0.055,0.1l0.254,0.11l1.02,0.595
					c0.029,0.017,0.047,0.051,0.043,0.085c-0.006,0.034-0.031,0.065-0.066,0.073c-0.611,0.159-1.105,0.376-0.951,1.318
					c0.178-0.232,0.553-0.602,1.162-0.602c0.17,0,0.35,0.028,0.531,0.088c0.027,0,0.062,0.045,0.078,0.068
					c0.078,0.102,0.18,0.179,0.34,0.051c0.545-0.622,1.801-0.869,2.756-0.963c0.135-0.018,0.275-0.037,0.41-0.057
					c0.762-0.114,1.49-0.143,2.012,0.201c0.406-0.295,1.375-0.534,2.08-0.025c0.273,0.082,0.545,0.262,0.807,0.435
					c0.529,0.347,1.057,0.637,1.686,0.372c0.568-0.397,1.24-0.335,1.826,0.219c-0.096-0.713-0.711-0.988-1.652-1.185l-0.736-0.429
					c-0.186-0.021-0.4-0.028-0.617-0.037c-0.439-0.018-0.893-0.034-1.35-0.25c-0.031-0.015-0.051-0.052-0.047-0.085
					c0.002-0.037,0.027-0.068,0.064-0.077c3.268-0.844,5.719-2.647,7.494-5.509c0.023-0.037,0.066-0.054,0.104-0.037l1.627,0.577
					c0.203,0.009,0.322,0.06,0.498,0.136c0.133,0.058,0.309,0.131,0.6,0.225c-0.006-1.429-0.844-2.201-2.496-2.295l-2.787-1.058
					c-0.617-0.639-0.939-2.014-0.135-2.853c0.225-0.198,0.391-0.329,0.527-0.438c0.312-0.247,0.473-0.369,0.801-0.912
					c0.016-0.028,0.121-0.045,0.148-0.045c0.307,0,0.596,0.147,0.875,0.293c0.256,0.136,0.5,0.261,0.732,0.261
					c0.33,0.768,1.785,1.427,2.662,1.214c0.766,0.599,1.883,0.758,2.938,0.395c0.893,0.69,1.736,0.815,2.678,0.397
					c0.357,0.259,0.939,0.491,1.594,0.364c0.002,0,0.004,0,0.006,0c0.072,0,0.1,0.039,0.162,0.145
					c0.129,0.204,0.432,0.688,0.982,0.884c0.027,0.011,0.051,0.034,0.057,0.065c0.006,0.028-0.002,0.06-0.025,0.079
					c-0.289,0.281-0.102,1.616,0.225,2.097c-0.236,0.647-0.273,1.185-0.098,1.68c0.016,0.036,0,0.079-0.033,0.102
					c-0.75,0.48-0.863,0.805-0.545,1.574c-0.918,1.565-2.1,1.986-3.43,1.4l-1.223-0.767l-1.301-1.273
					c-0.168-0.156-0.523-0.317-0.617,0.14c-0.004,0.02-0.02,0.04-0.039,0.054c-0.02,0.015-0.043,0.018-0.064,0.012
					c-0.002,0-0.193-0.043-0.443-0.043c-0.473,0-1.041,0.143-1.203,0.773c0.193-0.128,0.418-0.193,0.666-0.193
					c0.412,0,0.955,0.222,0.955,0.352c-0.107,0.159-0.168,0.253-0.068,0.401l0,0c0.033,0,2.838,1.204,3.615,1.522
					c0.262,0.1,0.262,0.1,0.25,0.173c-0.008,0.04-0.045,0.071-0.088,0.071c-0.01-0.003-0.021-0.009-0.037-0.011v0.002
					c-0.002-0.002-0.008-0.005-0.016-0.008c-0.051-0.015-0.105-0.037-0.178-0.065c-0.67-0.256-2.834-1.057-2.834-1.057
					c-0.721-0.058-1.191-0.034-1.395,0.281l-0.291,0.13c-0.551,0.214-1.168,0.452-1.264,1.196c0.5-0.565,1.062-0.463,1.672-0.409
					c0.027,0.003,0.049,0.018,0.064,0.04c0.016,0.02,0.02,0.048,0.01,0.074l-0.016,0.048l3.303,0.153
					c0.043,0.003,0.078,0.034,0.084,0.077c0.004,0.042-0.021,0.082-0.062,0.094c-0.203,0.06-0.43,0.091-0.656,0.122
					c-0.441,0.062-0.859,0.119-1.092,0.378c-0.021,0.051-0.082,0.085-0.131,0.113c-0.076,0.046-0.111,0.065-0.062,0.225
					c0.01,0.025,0.004,0.054-0.012,0.077C415.521,320.057,415.504,320.085,415.465,320.068L415.465,320.068L415.465,320.068z"/>
			</g>
			<path clip-path="url(#SVGID_4_)" fill="#FFFFFF" d="M426.305,295.495c0.035,1.128-3.344,1.418-3.557,0.159
				C422.641,295.016,424.436,293.896,426.305,295.495L426.305,295.495z"/>
			<g clip-path="url(#SVGID_4_)">
				<path fill="#010101" d="M424.377,296.547c-0.75,0-1.588-0.23-1.697-0.881c-0.025-0.15,0.035-0.321,0.172-0.48
					c0.227-0.27,0.744-0.582,1.463-0.582c0.482,0,1.227,0.147,2.037,0.841c0.029,0.23-0.041,0.397-0.186,0.546
					C425.836,296.328,425.135,296.547,424.377,296.547L424.377,296.547z M424.314,294.742c-0.672,0-1.15,0.287-1.357,0.531
					c-0.109,0.131-0.158,0.262-0.141,0.37c0.096,0.562,0.9,0.764,1.561,0.764c0.711,0,1.391-0.207,1.688-0.514
					c0.119-0.122,0.176-0.256,0.172-0.396C425.484,294.882,424.773,294.742,424.314,294.742L424.314,294.742z"/>
			</g>
			<g clip-path="url(#SVGID_4_)">
				<path fill="#010101" d="M430.822,290.93c-0.012,0-0.021-0.003-0.033-0.009c-0.035-0.02-0.045-0.062-0.025-0.097
					c0.305-0.511,0.52-3.088,0.521-3.113c0.004-0.037,0.037-0.062,0.074-0.062c0.041,0.003,0.068,0.037,0.066,0.074
					c-0.01,0.107-0.223,2.636-0.541,3.173C430.871,290.918,430.848,290.93,430.822,290.93L430.822,290.93z"/>
			</g>
			<g clip-path="url(#SVGID_4_)">
				<path fill="#010101" d="M429.045,290.89c-0.01,0-0.021,0-0.031-0.003c-0.045-0.017-0.066-0.067-0.051-0.113
					c0.295-0.793,1.066-2.863,1.09-2.935c0-0.097,0.17-0.071,0.17,0.022c0,0.022,0,0.031-1.096,2.972
					C429.113,290.87,429.08,290.89,429.045,290.89L429.045,290.89z"/>
			</g>
			<g clip-path="url(#SVGID_4_)">
				<path fill="#010101" d="M429.539,294.714c-0.467-0.869-1.137-1.323-1.457-1.54c-0.062-0.042-0.109-0.073-0.145-0.099
					l0.086-0.111c0.031,0.022,0.078,0.054,0.135,0.094c0.332,0.225,1.021,0.69,1.502,1.588L429.539,294.714L429.539,294.714z"/>
			</g>
			<g clip-path="url(#SVGID_4_)">
				<path fill="#010101" d="M426.66,298.05l-0.082-0.111c0.676-0.506-0.307-2.386-0.318-2.403l0.123-0.065
					C426.426,295.553,427.432,297.476,426.66,298.05L426.66,298.05z"/>
			</g>
			<g clip-path="url(#SVGID_4_)">
				<path fill="#010101" d="M419.709,304.527c-0.41-0.244-0.938-0.818-1.547-1.48c-1.047-1.142-2.354-2.571-3.318-2.443
					l-0.016-0.139c1.047-0.111,2.312,1.264,3.436,2.485c0.578,0.631,1.123,1.225,1.516,1.458L419.709,304.527L419.709,304.527z"/>
			</g>
			<g clip-path="url(#SVGID_4_)">
				<path fill="#010101" d="M425.969,320.503c-0.369-0.665,0.314-1.177,0.322-1.183l0.082,0.114c-0.025,0.017-0.594,0.446-0.281,1
					L425.969,320.503L425.969,320.503z"/>
			</g>
			<g clip-path="url(#SVGID_4_)">
				<path fill="#010101" d="M416.24,320.823l-0.139-0.02c0.076-0.577-0.609-0.775-0.639-0.784l0.037-0.137
					C415.51,319.886,416.332,320.125,416.24,320.823L416.24,320.823z"/>
			</g>
			<g clip-path="url(#SVGID_4_)">
				<path fill="#010101" d="M414.16,318.817l-0.111-0.082c0.332-0.438-0.176-0.983-0.182-0.985l0.102-0.1
					C413.975,317.658,414.562,318.289,414.16,318.817L414.16,318.817z"/>
			</g>
			<g clip-path="url(#SVGID_4_)">
				<path fill="#010101" d="M414.703,316.466l-0.08-0.114c0.277-0.193,0.418-0.381,0.406-0.543c-0.016-0.198-0.25-0.314-0.254-0.314
					l0.062-0.125c0.012,0.005,0.309,0.15,0.33,0.429C415.186,316.014,415.029,316.238,414.703,316.466L414.703,316.466z"/>
			</g>
			<g clip-path="url(#SVGID_4_)">
				<path fill="#010101" d="M405.207,320.557c-0.508-0.665,0.176-1.253,0.182-1.259l0.092,0.105
					c-0.025,0.02-0.592,0.511-0.162,1.068L405.207,320.557L405.207,320.557z"/>
			</g>
			<g clip-path="url(#SVGID_4_)">
				<path fill="#010101" d="M395.25,320.485l-0.125-0.06c0.1-0.213,0.107-0.389,0.027-0.522c-0.178-0.296-0.725-0.327-0.729-0.327
					l0.006-0.139c0.025,0.003,0.627,0.036,0.842,0.392C395.377,320.008,395.37,320.227,395.25,320.485L395.25,320.485z"/>
			</g>
			<g clip-path="url(#SVGID_4_)">
				<path fill="#010101" d="M393.202,318.525l-0.035-0.137c0.195-0.051,0.324-0.145,0.383-0.275
					c0.104-0.244-0.059-0.551-0.059-0.554l0.121-0.065c0.008,0.014,0.195,0.369,0.064,0.673
					C393.6,318.341,393.44,318.46,393.202,318.525L393.202,318.525z"/>
			</g>
			<g clip-path="url(#SVGID_4_)">
				<path fill="#010101" d="M394.68,316.045l-0.018-0.137c0.178-0.022,0.297-0.091,0.355-0.201c0.121-0.228-0.047-0.571-0.049-0.574
					l0.123-0.062c0.008,0.018,0.203,0.412,0.049,0.702C395.063,315.923,394.907,316.017,394.68,316.045L394.68,316.045z"/>
			</g>
			<g clip-path="url(#SVGID_4_)">
				<path fill="#010101" d="M394.227,319.389l-0.09-0.104c0.051-0.043,1.189-1.018,1.758-0.455c0.41,0.393,2.096-0.199,2.711-0.46
					l0.053,0.128c-0.094,0.036-2.305,0.969-2.859,0.432C395.319,318.463,394.239,319.38,394.227,319.389L394.227,319.389z"/>
			</g>
			<g clip-path="url(#SVGID_4_)">
				<polygon fill="#010101" points="397.575,318.02 397.508,317.897 399.375,316.92 399.44,317.042 397.575,318.02 				"/>
			</g>
			<g clip-path="url(#SVGID_4_)">
				<path fill="#010101" d="M403.211,317.094c-0.666,0-1.203-0.571-1.229-0.597l0.104-0.094c0.006,0.005,0.596,0.633,1.246,0.542
					c0.391-0.045,0.736-0.332,1.023-0.847l0.121,0.068c-0.312,0.557-0.691,0.864-1.129,0.918
					C403.301,317.091,403.256,317.094,403.211,317.094L403.211,317.094z"/>
			</g>
			<g clip-path="url(#SVGID_4_)">
				<path fill="#010101" d="M404.295,316.224c-0.244,0-0.408-0.136-0.637-0.354c-0.092-0.089-0.201-0.188-0.334-0.296l0.088-0.108
					c0.137,0.108,0.246,0.214,0.342,0.305c0.521,0.491,0.604,0.568,3.053-1.083l0.078,0.117
					C405.342,315.84,404.707,316.224,404.295,316.224L404.295,316.224z"/>
			</g>
			<g clip-path="url(#SVGID_4_)">
				<path fill="#010101" d="M406.857,314.826l-0.045-0.074c-0.102-0.091-1.158-0.264-2.518-0.409l-0.076-0.017l-0.221-0.153
					l0.277,0.071l0.023-0.031v0.025l0.002-0.034l0,0c0.029,0,1.834-0.052,2.279-1.872c0.881,0.022,1.332,0.232,1.455,0.594
					c0.203,0.594-0.635,1.383-0.994,1.719L406.857,314.826L406.857,314.826z M404.848,314.264c0.875,0.103,1.756,0.232,2.014,0.36
					l0.086-0.082c0.338-0.318,1.129-1.062,0.957-1.574c-0.104-0.295-0.527-0.479-1.266-0.551
					C406.396,313.599,405.504,314.093,404.848,314.264L404.848,314.264z"/>
			</g>
			<g clip-path="url(#SVGID_4_)">
				<path fill="#010101" d="M374.992,320.772l-0.111-0.082c0.143-0.196,0.186-0.358,0.135-0.483
					c-0.08-0.185-0.367-0.267-0.471-0.281l0.02-0.137c0.02,0,0.453,0.068,0.578,0.364
					C375.217,320.326,375.166,320.534,374.992,320.772L374.992,320.772z"/>
			</g>
			<g clip-path="url(#SVGID_4_)">
				<path fill="#010101" d="M374.104,319.15l-0.082-0.111c0.227-0.167,0.34-0.335,0.336-0.497c-0.01-0.225-0.24-0.372-0.242-0.375
					l0.074-0.116c0.012,0.006,0.295,0.188,0.307,0.485C374.502,318.747,374.371,318.954,374.104,319.15L374.104,319.15z"/>
			</g>
			<g clip-path="url(#SVGID_4_)">
				<path fill="#010101" d="M374.654,317.022c-0.062,0-0.127-0.006-0.195-0.012l0.014-0.139c0.322,0.034,0.537-0.015,0.639-0.148
					c0.135-0.176,0.029-0.448,0.029-0.451l0.131-0.052c0.006,0.015,0.133,0.35-0.051,0.589
					C375.113,316.951,374.922,317.022,374.654,317.022L374.654,317.022z"/>
			</g>
			<g clip-path="url(#SVGID_4_)">
				<path fill="#010101" d="M374.578,319.304l-0.088-0.105c0.055-0.045,1.336-1.085,2.043-0.4c0.598,0.199,0.949,0.159,0.951,0.159
					l0.02,0.137c-0.018,0.002-0.387,0.048-1.043-0.183C375.814,318.298,374.59,319.295,374.578,319.304L374.578,319.304z"/>
			</g>
			<g clip-path="url(#SVGID_4_)">
				<path fill="#010101" d="M385.916,320.372c-0.328-0.4,0.01-1.125,0.023-1.153l0.1-0.105l0.049,0.116
					c-0.031,0.049-0.336,0.722-0.062,1.055L385.916,320.372L385.916,320.372z"/>
			</g>
			<g clip-path="url(#SVGID_4_)">
				<path fill="#010101" d="M376.445,317.914c-0.383,0.006-0.654-0.076-0.896-0.164c-0.25-0.092-0.486-0.183-0.9-0.156l-0.008-0.14
					c0.439-0.025,0.705,0.071,0.957,0.162c0.238,0.091,0.488,0.156,0.846,0.159c0.594,0,1.186-0.177,1.867-0.384
					c0.246-0.074,0.506-0.15,0.779-0.228l0.037,0.137c-0.273,0.074-0.531,0.15-0.775,0.225
					C377.658,317.735,377.057,317.914,376.445,317.914L376.445,317.914z"/>
			</g>
			<g clip-path="url(#SVGID_4_)">
				<path fill="#010101" d="M369.377,293.361c-0.141,0-0.23-0.042-0.234-0.042l0.061-0.125c0.02,0.009,0.469,0.207,0.92-0.491
					l0.117,0.076C369.926,293.263,369.594,293.361,369.377,293.361L369.377,293.361z"/>
			</g>
			<g clip-path="url(#SVGID_4_)">
				<path fill="#010101" d="M369.623,303.837l-0.137-0.028c0.119-0.562-0.639-0.793-0.646-0.796l0.039-0.134
					C369.189,302.971,369.738,303.288,369.623,303.837L369.623,303.837z"/>
			</g>
			<g clip-path="url(#SVGID_4_)">
				<path fill="#010101" d="M372.252,292.095c-0.053,0-0.094-0.012-0.133-0.028c-0.096-0.051-0.123-0.147-0.123-0.199h0.139
					c0,0.003,0.002,0.052,0.049,0.074c0.059,0.028,0.264,0.048,0.871-0.4l0.082,0.11
					C372.74,291.947,372.447,292.095,372.252,292.095L372.252,292.095z"/>
			</g>
			<g clip-path="url(#SVGID_4_)">
				<path fill="#010101" d="M373.314,296.862c-0.986-0.518-0.225-2.597-0.191-2.688l0.129,0.049
					c-0.006,0.02-0.754,2.057,0.125,2.515L373.314,296.862L373.314,296.862z"/>
			</g>
			<g clip-path="url(#SVGID_4_)">
				<path fill="#010101" d="M374.75,294.217c-0.033,0-0.064-0.003-0.098-0.011c-0.357-0.074-0.576-0.54-0.586-0.561l0.125-0.06
					c0.004,0.006,0.201,0.424,0.488,0.486c0.119,0.02,0.244-0.021,0.369-0.128l0.092,0.104
					C375.014,294.16,374.883,294.217,374.75,294.217L374.75,294.217z"/>
			</g>
			<g clip-path="url(#SVGID_4_)">
				<polygon fill="#010101" points="373.219,288.111 372.521,286.983 373.188,286.754 373.232,286.884 372.73,287.058 
					373.336,288.04 373.219,288.111 				"/>
			</g>
			<g clip-path="url(#SVGID_4_)">
				<path fill="#010101" d="M379.977,284.793l-0.078-0.116c0.004-0.003,0.461-0.321,0.441-0.722
					c-0.02-0.424-0.629-1.188-0.635-1.196l0.109-0.085c0.025,0.031,0.643,0.807,0.664,1.272
					C380.504,284.427,379.998,284.776,379.977,284.793L379.977,284.793z"/>
			</g>
			<g clip-path="url(#SVGID_4_)">
				<path fill="#010101" d="M378.439,285.043l-0.051-0.128c0.322-0.134,0.672-0.344,0.672-0.451
					c0.047-0.327,0.182-0.805,0.182-0.805l0.135,0.04c0,0-0.133,0.466-0.176,0.775C379.201,284.717,378.617,284.972,378.439,285.043
					L378.439,285.043z"/>
			</g>
			<g clip-path="url(#SVGID_4_)">
				<path fill="#010101" d="M387.525,282.381l-0.102-0.094c0.307-0.326,0.414-0.863,0.41-0.926l0.115-0.062
					C388.031,281.381,387.842,282.046,387.525,282.381L387.525,282.381z"/>
			</g>
			<g clip-path="url(#SVGID_4_)">
				<path fill="#010101" d="M385.195,283.39c-0.037-0.003-1.238-0.29-1.875-0.335c-0.223-0.213-1.061-0.086-1.547,0.042
					l-0.035-0.133c0.139-0.034,1.35-0.341,1.639-0.028c0.602,0.025,1.775,0.307,1.826,0.317c-0.012-0.003,1.129-0.159,1.49-0.414
					l0.082,0.113C386.383,283.228,385.244,283.384,385.195,283.39L385.195,283.39z"/>
			</g>
			<g clip-path="url(#SVGID_4_)">
				<path fill="#010101" d="M383.48,284.071c-0.158,0-0.295-0.042-0.398-0.088c-0.479-0.216-0.789-0.787-0.697-1.085l0.131,0.039
					c-0.064,0.217,0.193,0.728,0.623,0.921c0.496,0.222,1.012-0.054,1.451-0.775l0.117,0.071
					C384.264,283.881,383.822,284.071,383.48,284.071L383.48,284.071z"/>
			</g>
			<path clip-path="url(#SVGID_4_)" fill="#010101" d="M382.854,282.873l1.213,0.224
				C384.066,283.097,383.213,284.239,382.854,282.873L382.854,282.873z"/>
			<g clip-path="url(#SVGID_4_)">
				<path fill="#010101" d="M383.395,283.614c-0.275,0-0.48-0.244-0.609-0.722c-0.006-0.025,0.002-0.049,0.018-0.065
					c0.018-0.02,0.043-0.025,0.064-0.022l1.211,0.225c0.023,0.002,0.043,0.02,0.051,0.042c0.01,0.022,0.006,0.049-0.008,0.065
					C384.107,283.156,383.764,283.614,383.395,283.614L383.395,283.614z M382.951,282.961c0.107,0.341,0.256,0.514,0.443,0.514
					c0.199,0,0.418-0.193,0.543-0.332L382.951,282.961L382.951,282.961z"/>
			</g>
			<g clip-path="url(#SVGID_4_)">
				<path fill="#010101" d="M386.084,289.396c-0.033,0.003-0.062-0.017-0.076-0.045l-1.594-3.052
					c-0.021-0.043-0.006-0.094,0.037-0.116s0.096-0.006,0.115,0.034l1.527,2.923l0.68-1.022c0.018-0.025,0.041-0.04,0.078-0.037
					c0.031,0,0.057,0.018,0.07,0.046l0.334,0.642l0.57-1.006c0.012-0.02,0.031-0.034,0.055-0.039
					c0.021-0.003,0.047-0.003,0.066,0.011l0.922,0.591l-0.355-1.164c-0.008-0.026-0.004-0.055,0.012-0.077
					c0.014-0.02,0.037-0.034,0.064-0.037l0.814-0.057c-0.105-0.185-0.385-0.551-0.979-0.645c-0.035-0.006-0.062-0.031-0.072-0.065
					c-0.008-0.031,0.004-0.068,0.031-0.088c0.18-0.146,0.715-0.5,0.928-0.643c-0.148-0.137-0.518-0.421-1.012-0.438
					c-0.035,0-0.062-0.022-0.076-0.054s-0.006-0.065,0.016-0.091c0.162-0.18,0.375-0.561,0.461-0.73
					c-0.023-0.003-0.049-0.009-0.08-0.018c-0.301-0.051-0.5-0.113-0.521-0.119c-0.047-0.014-0.07-0.062-0.059-0.107
					c0.012-0.043,0.059-0.074,0.104-0.06c0,0,0.256,0.06,0.457,0.104c0.551,0.097,1.512,0.165,2.305-0.298
					c0.043-0.022,0.096-0.012,0.12,0.031c0.025,0.042,0.012,0.097-0.031,0.119c-0.729,0.423-1.569,0.435-2.157,0.36
					c-0.051,0.205-0.238,0.515-0.369,0.702c0.631,0.088,1.027,0.534,1.045,0.554c0.018,0.021,0.023,0.046,0.02,0.071
					c-0.002,0.022-0.018,0.046-0.037,0.06c0,0-0.543,0.355-0.852,0.577c0.738,0.201,0.965,0.795,0.975,0.823
					c0.01,0.026,0.006,0.055-0.01,0.077c-0.014,0.022-0.039,0.037-0.064,0.04l-0.836,0.057l0.395,1.287
					c0.012,0.034,0,0.074-0.031,0.097c-0.027,0.02-0.066,0.022-0.098,0.003l-1.043-0.668l-0.605,1.065
					c-0.018,0.025-0.055,0.068-0.076,0.043c-0.033,0-0.062-0.018-0.078-0.046l-0.334-0.656l-0.682,1.022
					C386.141,289.382,386.113,289.396,386.084,289.396L386.084,289.396z"/>
			</g>
			<g clip-path="url(#SVGID_4_)">
				<path fill="#010101" d="M379.287,288.449l-0.002-0.136l2.447-0.037c0.271-0.006,0.615-0.15,1.016-0.315
					c0.697-0.293,1.566-0.656,2.496-0.438l-0.031,0.134c-0.891-0.208-1.734,0.147-2.412,0.432c-0.412,0.17-0.768,0.321-1.066,0.326
					L379.287,288.449L379.287,288.449z"/>
			</g>
			<g clip-path="url(#SVGID_4_)">
				<path fill="#010101" d="M380.857,288.393l-0.199-0.366l-0.383,0.326l-0.277-0.005l-0.164-0.327
					c-0.049,0.122-0.111,0.281-0.119,0.312l-0.137-0.012c0-0.014,0-0.036,0.184-0.497c0.01-0.025,0.035-0.042,0.064-0.042l0,0
					c0.027,0,0.053,0.017,0.064,0.042l0.18,0.427l0.168-0.023l0.396-0.363c0.016-0.012,0.037-0.02,0.061-0.015
					c0.02,0.006,0.037,0.021,0.047,0.04l0.18,0.406l0.139-0.042l0.205-0.5c0.012-0.026,0.041-0.058,0.064-0.04
					c0.027,0,0.049,0.017,0.061,0.04l0.193,0.42l0.426-0.719c0.012-0.02,0.031-0.031,0.055-0.034c0.023,0,0.045,0.009,0.059,0.025
					l0.404,0.5l0.148-0.604c0.006-0.023,0.021-0.043,0.047-0.049c0.023-0.008,0.049-0.003,0.068,0.018l0.393,0.392l0.188-0.525
					c0.008-0.022,0.025-0.037,0.049-0.046c0.02-0.002,0.045,0,0.062,0.018l0.396,0.341l0.188-0.449
					c0.012-0.025,0.043-0.034,0.066-0.042c0.025,0,0.049,0.014,0.061,0.037l0.248,0.494l-0.125,0.062l-0.178-0.358l-0.168,0.397
					c-0.008,0.021-0.025,0.034-0.047,0.04c-0.023,0.006-0.045,0-0.061-0.014l-0.395-0.339l-0.189,0.531
					c-0.008,0.023-0.027,0.04-0.051,0.046c-0.025,0.006-0.047,0-0.064-0.017l-0.385-0.384l-0.15,0.619
					c-0.006,0.025-0.025,0.046-0.051,0.051c-0.025,0.003-0.053-0.005-0.07-0.022l-0.43-0.531l-0.443,0.747
					c-0.012,0.023-0.037,0.034-0.062,0.034s-0.047-0.017-0.059-0.04l-0.188-0.409l-0.203,0.409L380.857,288.393L380.857,288.393z"/>
			</g>
			<g clip-path="url(#SVGID_4_)">
				<path fill="#010101" d="M389.85,283.503c-0.037-0.003-0.906-0.036-1.162-0.352c-0.064-0.08-0.088-0.171-0.07-0.268
					c0.096-0.597,1.318-1.003,1.371-1.02c0,0,1.612-1.043,1.846-1.387l0.115,0.077c-0.25,0.369-1.836,1.392-1.903,1.435
					c-0.348,0.116-1.225,0.491-1.293,0.917c-0.01,0.058,0.004,0.108,0.041,0.156c0.18,0.222,0.824,0.293,1.061,0.302L389.85,283.503
					L389.85,283.503z"/>
			</g>
			<g clip-path="url(#SVGID_4_)">
				<path fill="#010101" d="M390.193,281.35l-0.1-0.097c0.02-0.017,0.441-0.435,1.147-0.219l-0.039,0.131
					C390.578,280.983,390.209,281.336,390.193,281.35L390.193,281.35z"/>
			</g>
			<g clip-path="url(#SVGID_4_)">
				<path fill="#010101" d="M383.018,309.857c-0.686-0.233-2.346-1.643-2.025-3.427c-1.094-1.522-0.949-2.321-0.941-2.355
					l0.135,0.026c0,0.008-0.131,0.783,0.932,2.301c-0.295,1.753,1.291,3.1,1.945,3.324L383.018,309.857L383.018,309.857z"/>
			</g>
			<g clip-path="url(#SVGID_4_)">
				<path fill="#010101" d="M381.057,306.539c-4.398-0.321-6.584-2.876-6.926-4.41c-0.133-0.591-0.008-1.042,0.34-1.238l0.068,0.122
					c-0.291,0.162-0.391,0.56-0.271,1.085c0.334,1.498,2.475,3.986,6.797,4.302L381.057,306.539L381.057,306.539z"/>
			</g>
			<g clip-path="url(#SVGID_4_)">
				<path fill="#010101" d="M379.326,306.231l-0.121-0.067c0.318-0.571-0.074-1.827-0.078-1.842l0.133-0.042
					C379.277,304.337,379.674,305.606,379.326,306.231L379.326,306.231z"/>
			</g>
			<g clip-path="url(#SVGID_4_)">
				<path fill="#010101" d="M376.977,305.252l-0.135-0.034c0.113-0.452,0.586-1.372,0.605-1.409l0.125,0.062
					C377.566,303.88,377.086,304.817,376.977,305.252L376.977,305.252z"/>
			</g>
			<g clip-path="url(#SVGID_4_)">
				<path fill="#010101" d="M374.967,303.726l-0.062-0.125c0.424-0.21,0.779-0.96,0.781-0.969l0.127,0.06
					C375.797,302.726,375.434,303.493,374.967,303.726L374.967,303.726z"/>
			</g>
			<g clip-path="url(#SVGID_4_)">
				<path fill="#010101" d="M396.514,296.87l-0.002-0.139c0.016,0,1.547-0.091,3.076-4.239c1.059-3.991,6.996-8.211,10.923-11
					c1.713-1.217,3.062-2.18,3.137-2.537l0.137,0.028c-0.086,0.412-1.322,1.29-3.191,2.619c-3.912,2.781-9.826,6.983-10.875,10.933
					C398.151,296.797,396.581,296.867,396.514,296.87L396.514,296.87z"/>
			</g>
			<g clip-path="url(#SVGID_4_)">
				<path fill="#010101" d="M400.983,289.992c-0.023,0-0.047-0.014-0.061-0.037c-0.018-0.031-0.008-0.073,0.027-0.094
					c1.634-0.906,5.673-2.478,9.582-3.997c1.615-0.628,3.205-1.247,4.594-1.807c0.037-0.012,0.076,0.003,0.09,0.039
					c0.016,0.037-0.002,0.077-0.037,0.091c-1.391,0.561-2.98,1.177-4.596,1.805c-3.902,1.52-7.939,3.088-9.564,3.991
					C401.006,289.989,400.995,289.992,400.983,289.992L400.983,289.992z"/>
			</g>
			<g clip-path="url(#SVGID_4_)">
				<path fill="#010101" d="M394.749,307.519c-0.021,0-0.041-0.008-0.055-0.025c-0.082-0.104-0.104-0.324-0.08-0.613
					c-0.205-2.324,0.045-6.137,0.564-7.211c-1.15,0.688-3.389,3.446-4.27,5.165c-0.105,0.207-0.182,0.375-0.232,0.515
					c-0.031,0.21-0.051,0.409-0.07,0.622c-0.004,0.031-0.027,0.057-0.059,0.062c-0.025,0.003-0.059-0.009-0.072-0.037
					c-0.072-0.14-0.053-0.363,0.068-0.682c0.164-1.086,0.604-2.339,2.534-6.074c-2.557,0.25-7.807,3.5-8.739,4.722
					c-0.021,0.028-0.059,0.034-0.088,0.02c-0.031-0.017-0.047-0.051-0.035-0.082c0.754-2.23,5.402-5.861,7.354-6.108l0.016,0.137
					c-1.815,0.232-6.004,3.44-7.083,5.645c1.463-1.445,6.277-4.332,8.688-4.48c0.01-0.002,0.049,0.009,0.062,0.031
					c0.016,0.021,0.016,0.049,0.004,0.068c-1.631,3.156-2.217,4.558-2.463,5.563c0.891-1.728,3.389-4.861,4.553-5.324
					c0.086-0.068,0.166-0.065,0.217-0.052c0.031,0.009,0.051,0.04,0.049,0.071c-0.004,0.034-0.027,0.06-0.061,0.065
					c-0.014,0-0.029,0.003-0.043,0.009c-0.58,0.503-0.934,4.113-0.801,6.713c0.176-0.909,0.543-2.094,0.818-2.921
					c0.648-1.951,1.725-4.704,2.061-4.792c0.303,0.255,2.338,6.213,2.58,7.619c0.004-0.014,0.008-0.028,0.01-0.045
					c0.311-1.347-0.814-7.785-1.361-8.546c-0.016-0.023,0.012-0.06,0.025-0.083c0.012-0.025,0.078-0.045,0.094-0.045
					c0.736,0.051,5.759,5.491,6.873,6.952c-0.375-1.568-3.414-6.339-5.669-7.694c-0.018-0.011-0.029-0.028-0.031-0.051
					c-0.004-0.02,0.002-0.043,0.018-0.057c0.447-0.435,9.867,3.475,11.912,4.893c-1.145-1.33-8.459-6.148-10.674-6.68
					c-0.031-0.006-0.055-0.037-0.053-0.068c0-0.031,0.021-0.06,0.055-0.065c2.951-0.645,12.49,0.711,16.258,1.525
					c-2.023-1.514-11.279-3.1-15.922-2.943c-0.029,0.012-0.055-0.014-0.066-0.039c-0.012-0.023-0.008-0.055,0.01-0.074
					c0.682-0.807,11.248-3.412,20.059-5.469c-3.129,0.347-15.613,2.46-18.908,3.454c-0.025,0.009-0.057-0.002-0.074-0.022
					c-0.018-0.022-0.02-0.054-0.006-0.079c0.318-0.543,19.908-9.705,22.141-10.748l0.057,0.125
					c-5.57,2.605-19.43,9.137-21.75,10.475c4.219-1.142,18.879-3.628,19.312-3.366c0.025,0.014,0.039,0.043,0.035,0.071
					c-0.006,0.028-0.027,0.051-0.053,0.057l-0.57,0.134c-11.742,2.741-18.768,4.619-19.979,5.338
					c4.91-0.113,14.516,1.603,16.016,3.168c0.021,0.02,0.025,0.054,0.012,0.082c-0.016,0.025-0.047,0.037-0.078,0.031
					c-3.447-0.778-12.877-2.147-16.178-1.636c2.611,0.875,10.65,6.11,10.65,6.994c0,0.028-0.018,0.052-0.043,0.062
					c-0.025,0.012-0.057,0.006-0.076-0.014c-1.279-1.219-10.479-4.941-11.835-5.111c2.349,1.551,5.609,6.637,5.609,7.98
					c0,0.031-0.02,0.057-0.051,0.065c-0.027,0.009-0.059-0.003-0.076-0.028c-0.807-1.281-6.49-7.217-6.937-7.123
					c0.584,0.711,1.719,7.148,1.395,8.566c-0.033,0.153-0.086,0.244-0.158,0.284c-0.021,0.011-0.047,0.011-0.068,0
					c-0.021-0.015-0.035-0.037-0.035-0.061c0-0.923-2.326-7.506-2.498-7.713c-0.221,0.137-1.764,3.926-2.496,6.711
					c-0.195,0.738-0.279,1.219-0.305,1.525c0.018,0.196,0.041,0.387,0.066,0.562c0.002,0.031-0.016,0.062-0.043,0.074
					C394.768,307.519,394.758,307.519,394.749,307.519L394.749,307.519z"/>
			</g>
			<g clip-path="url(#SVGID_4_)">
				<polygon fill="#010101" points="385.625,288.507 384.316,288.489 384.316,288.351 385.627,288.367 385.625,288.507 				"/>
			</g>
			<g clip-path="url(#SVGID_4_)">
				<path fill="#010101" d="M379.422,286.134c-0.186,0-0.283-0.034-0.295-0.039l0.049-0.128c0.008,0.003,0.875,0.295,2.635-1.097
					l0.086,0.107C380.643,285.973,379.826,286.134,379.422,286.134L379.422,286.134z"/>
			</g>
			<g clip-path="url(#SVGID_4_)">
				<path fill="#010101" d="M384.969,302.658c-0.611-0.79,0.441-11.163,2.32-13.779l0.125,0.048
					c-0.586,4.242,1.08,8.717,1.889,9.611c0.105,0.114,0.156,0.122,0.166,0.122h0.002l0.006,0.14c-0.055,0-0.17-0.052-0.275-0.168
					c-0.805-0.889-2.438-5.233-1.961-9.424c-1.863,3.083-2.549,12.867-2.162,13.364L384.969,302.658L384.969,302.658z"/>
			</g>
			<g clip-path="url(#SVGID_4_)">
				<path fill="#010101" d="M386.422,290.333c-0.949,0-1.719-0.829-1.756-0.869l0.104-0.094c0.01,0.012,0.908,0.972,1.893,0.804
					l0.021,0.137C386.596,290.327,386.51,290.333,386.422,290.333L386.422,290.333z"/>
			</g>
			<g clip-path="url(#SVGID_4_)">
				<path fill="#010101" d="M385.885,292.677c-1.752-0.13-2.227-0.911-2.244-0.945l0.119-0.071c0.004,0.009,0.465,0.756,2.137,0.878
					L385.885,292.677L385.885,292.677z"/>
			</g>
			<g clip-path="url(#SVGID_4_)">
				<path fill="#010101" d="M385.135,295.066c-1.438,0-2.482-1.256-2.494-1.27l0.107-0.089c0.012,0.015,1.166,1.398,2.699,1.199
					l0.021,0.137C385.354,295.058,385.244,295.066,385.135,295.066L385.135,295.066z"/>
			</g>
			<g clip-path="url(#SVGID_4_)">
				<path fill="#010101" d="M385.088,297.41c-3.141-0.065-3.504-1.134-3.518-1.179l0.133-0.04c0.004,0.009,0.367,1.018,3.387,1.08
					L385.088,297.41L385.088,297.41z"/>
			</g>
			<g clip-path="url(#SVGID_4_)">
				<path fill="#010101" d="M383.879,300.248c-2.068,0-3.188-0.977-3.201-0.991l0.094-0.103c0.014,0.012,1.465,1.273,4.135,0.875
					l0.02,0.137C384.553,300.223,384.205,300.248,383.879,300.248L383.879,300.248z"/>
			</g>
			<g clip-path="url(#SVGID_4_)">
				<path fill="#010101" d="M382.57,303.396c-1.035,0-1.717-0.366-1.729-0.375l0.068-0.119c0.02,0.008,1.861,1.003,4.098-0.367
					l0.074,0.117C384.145,303.226,383.275,303.396,382.57,303.396L382.57,303.396z"/>
			</g>
			<g clip-path="url(#SVGID_4_)">
				<path fill="#010101" d="M394.756,307.562c-0.781-1.1-1.742-1.278-2.406-1.241c-0.766,0.048-1.422,0.423-1.557,0.67l-0.027,0.049
					l-0.117,0.042c-0.164-0.042-0.219-0.917-0.164-2.597c-0.352,0.177-1.547,0.818-2.412,1.844l-0.129,0.15l0.004-0.198
					c0.018-0.605,0.01-1.491,0.006-2.091l-0.004-0.427c-1.168,0.228-2.283,0.253-3.689,0.225l0.006-0.139
					c1.426,0.028,2.553,0.002,3.74-0.239l0.082-0.014l0.002,0.591c0.006,0.54,0.012,1.315,0.002,1.906
					c1.033-1.143,2.424-1.775,2.438-1.784l0.102-0.046l-0.004,0.111c-0.041,1.176-0.023,2.463,0.074,2.582
					c0.119-0.31,0.784-0.722,1.639-0.772c0.67-0.034,1.602,0.125,2.393,1.116c0.02-0.6,0.387-1.131,1.037-1.482
					c1.068-0.577,2.896-0.634,4.385,0.607c0.441-0.165,0.703-0.415,0.978-0.676c0.609-0.585,1.301-1.247,4.865-0.989
					c0.102-1.216,2.203-3.062,6.17-3.062c0.025,0,0.051,0,0.076,0c-1.109-1.747,0.156-2.857,0.172-2.869l0.09,0.105
					c-0.051,0.045-1.238,1.091-0.074,2.795l0.074,0.111l-0.133-0.003c-3.859-0.06-6.135,1.704-6.312,3.003
					c-3.574-0.188-4.244,0.446-4.834,1.009c-0.287,0.275-0.556,0.534-1.095,0.695c-1.441-1.159-3.232-1.176-4.295-0.604
					c-0.68,0.369-1.027,0.943-0.955,1.574L394.756,307.562L394.756,307.562z"/>
			</g>
			<g clip-path="url(#SVGID_4_)">
				<path fill="#010101" d="M386.568,308.24c-1.787-0.477-2.021-1.65-1.904-2.554c0.109-0.835,0.617-1.827,0.732-1.827l0.051,0.114
					c-0.01,0.014-0.98,1.511-0.57,2.758c0.219,0.665,0.799,1.128,1.727,1.373L386.568,308.24L386.568,308.24z"/>
			</g>
			<g clip-path="url(#SVGID_4_)">
				<path fill="#010101" d="M390.016,307.769c-0.439,0-0.646-0.375-0.703-0.713c-0.07-0.415,0.064-0.903,0.449-0.991
					c0.154,0.028,0.521-0.117,0.723-0.213l0.061,0.125c-0.057,0.028-0.576,0.264-0.781,0.224c-0.273,0.068-0.373,0.48-0.316,0.833
					c0.053,0.31,0.256,0.65,0.627,0.613c0.234-0.298,0.533-0.75,0.535-0.75l0.115,0.077c0,0-0.307,0.46-0.592,0.787
					C390.094,307.766,390.053,307.769,390.016,307.769L390.016,307.769z"/>
			</g>
			<g clip-path="url(#SVGID_4_)">
				<path fill="#010101" d="M389.066,308.459c-0.459,0-0.707-0.244-0.764-0.656c-0.062-0.457,0.143-1.04,0.332-1.103l0.055-0.02
					l0.105,0.088c0.096,0.086,0.199,0.128,0.295,0.125c0.121-0.011,0.197-0.107,0.197-0.107l0.111,0.082
					c-0.004,0.006-0.109,0.147-0.295,0.165c-0.141,0.011-0.277-0.049-0.416-0.179l0,0c-0.088,0-0.297,0.448-0.25,0.895
					c0.025,0.267,0.158,0.588,0.627,0.613c0.16-0.545,0.842-0.707,0.869-0.713l0.031,0.134c-0.006,0.003-0.639,0.153-0.84,0.673
					C389.105,308.459,389.086,308.459,389.066,308.459L389.066,308.459z"/>
			</g>
			<g clip-path="url(#SVGID_4_)">
				<path fill="#010101" d="M387.766,308.766c-0.104,0-0.178-0.028-0.229-0.067c-0.141-0.108-0.168-0.321-0.074-0.568
					c0.131-0.347,0.488-0.679,0.887-0.656l-0.01,0.139c-0.346-0.025-0.633,0.268-0.746,0.565c-0.07,0.185-0.061,0.344,0.025,0.409
					c0.059,0.046,0.309,0.15,1.053-0.384l0.082,0.111C388.275,308.661,387.965,308.766,387.766,308.766L387.766,308.766z"/>
			</g>
			<g clip-path="url(#SVGID_4_)">
				<path fill="#010101" d="M387.52,309.987c-0.023,0-0.045-0.002-0.062-0.005c-0.285-0.062-0.514-0.526-0.549-0.909
					c-0.006,0.025-0.348-0.188-0.326-0.903c-0.014-0.333,0.068-0.549,0.238-0.637c0.336-0.171,0.871,0.241,0.893,0.259l-0.084,0.11
					c-0.135-0.107-0.533-0.357-0.746-0.247c-0.117,0.062-0.174,0.235-0.162,0.515c-0.02,0.661,0.275,0.823,0.287,0.832
					c0.064,0.375,0.268,0.798,0.477,0.844c0.129,0.022,0.234-0.111,0.299-0.23c0.135-0.585-0.096-0.852-0.098-0.854l0.102-0.094
					c0.014,0.014,0.283,0.317,0.125,0.997C387.775,309.923,387.631,309.987,387.52,309.987L387.52,309.987z"/>
			</g>
			<g clip-path="url(#SVGID_4_)">
				<path fill="#010101" d="M382.609,315.965c-0.068,0-0.137-0.017-0.199-0.054c-0.312-0.167-0.402-0.722-0.385-0.787l0.066,0.018
					v0.068v-0.071l0.068,0.009c-0.002,0.073,0.092,0.554,0.348,0.656c0.225,0.094,0.508-0.146,0.705-0.364
					c0.209-0.443,0.578-1.167,1-1.991c0.904-1.778,2.033-3.992,2.371-4.952l0.133,0.046c-0.342,0.969-1.473,3.188-2.383,4.969
					c-0.418,0.821-0.787,1.548-1.006,2.009C383.057,315.817,382.816,315.965,382.609,315.965L382.609,315.965z"/>
			</g>
			<g clip-path="url(#SVGID_4_)">
				<path fill="#010101" d="M385.797,310.332c-0.289,0-0.965-0.068-1.664-0.631c-0.219-0.646-0.201-1.174,0.027-1.6
					c0.316-0.591,0.928-0.771,0.953-0.775l0.037,0.133c-0.006,0-0.58,0.168-0.869,0.711c-0.211,0.392-0.223,0.88-0.039,1.457
					c0.834,0.656,1.678,0.565,1.684,0.56l0.018,0.137C385.938,310.326,385.885,310.332,385.797,310.332L385.797,310.332z"/>
			</g>
			<g clip-path="url(#SVGID_4_)">
				<path fill="#010101" d="M385.176,311.471c-0.439,0-1.111-0.287-1.199-0.326l0.055-0.128c0.281,0.125,1.066,0.42,1.328,0.284
					l0.062,0.125C385.357,311.457,385.271,311.471,385.176,311.471L385.176,311.471z"/>
			</g>
			<g clip-path="url(#SVGID_4_)">
				<path fill="#010101" d="M384.057,313.53c-0.539,0-0.902-0.619-0.906-0.628l0.121-0.068c0.018,0.029,0.439,0.759,1.029,0.506
					l0.057,0.125C384.252,313.511,384.15,313.53,384.057,313.53L384.057,313.53z"/>
			</g>
			<g clip-path="url(#SVGID_4_)">
				<path fill="#010101" d="M391.063,311.843c-0.035-0.068-0.817-1.67-0.145-2.478c0.625-0.753,0.506-2.903,0.504-2.926l0.141-0.009
					c0.004,0.091,0.121,2.23-0.537,3.022c-0.618,0.739,0.152,2.313,0.162,2.33L391.063,311.843L391.063,311.843z"/>
			</g>
			<g clip-path="url(#SVGID_4_)">
				<path fill="#010101" d="M392.739,310.846l-0.105-0.094c0.826-0.926,0.488-4.202,0.441-4.406l0.131-0.049
					C393.215,306.322,393.643,309.829,392.739,310.846L392.739,310.846z"/>
			</g>
			<g clip-path="url(#SVGID_4_)">
				<path fill="#010101" d="M396.502,309.362l-0.094-0.102c1.229-1.165,0.006-3.571-0.008-3.597l0.125-0.062
					C396.579,305.703,397.807,308.124,396.502,309.362L396.502,309.362z"/>
			</g>
			<g clip-path="url(#SVGID_4_)">
				<path fill="#010101" d="M398.37,309.377l-0.08-0.111c1.012-0.716,1.748-2.875,1.756-2.897l0.131,0.046
					C400.145,306.505,399.418,308.639,398.37,309.377L398.37,309.377z"/>
			</g>
			<g clip-path="url(#SVGID_4_)">
				<path fill="#010101" d="M406.643,312.411c-1.82,0-3.02-0.485-3.568-1.44c-1.004-1.747,0.533-4.415,0.6-4.528l0.121,0.07
					c-0.016,0.028-1.562,2.711-0.6,4.39c0.521,0.909,1.68,1.369,3.447,1.369V312.411L406.643,312.411z"/>
			</g>
			<g clip-path="url(#SVGID_4_)">
				<path fill="#010101" d="M402.754,309.246c-0.203-0.551-3.435-0.645-3.673-0.616l-0.084-0.065l0.061-0.071
					c0.035-0.014,3.566-0.006,3.826,0.705L402.754,309.246L402.754,309.246z"/>
			</g>
			<g clip-path="url(#SVGID_4_)">
				<path fill="#010101" d="M400.249,312.271l-0.08-0.11c0.023-0.022,0.041-0.025,0.262-0.065c0.578-0.094,2.339-0.387,2.701-1.091
					l0.123,0.062c-0.393,0.767-2.143,1.057-2.798,1.168C400.344,312.252,400.27,312.264,400.249,312.271L400.249,312.271z"/>
			</g>
			<g clip-path="url(#SVGID_4_)">
				<path fill="#010101" d="M403.193,313.61l-0.025-0.134c0.076-0.034,0.994-0.605,1.18-1.119c0.041-0.117,0.041-0.219-0.004-0.312
					l0.125-0.06c0.086,0.176,0.057,0.383-0.088,0.616C404.068,313.099,403.256,313.61,403.193,313.61L403.193,313.61z"/>
			</g>
			<g clip-path="url(#SVGID_4_)">
				<path fill="#010101" d="M399.594,308.266c-0.102,0-0.195-0.008-0.279-0.025l0.025-0.136c0.592,0.122,1.767-0.236,2.634-1.003
					c0.508-0.455,1.1-1.219,1.018-2.29l0.139-0.009c0.086,1.128-0.531,1.927-1.064,2.4
					C401.275,307.905,400.264,308.266,399.594,308.266L399.594,308.266z"/>
			</g>
			<g clip-path="url(#SVGID_4_)">
				<path fill="#010101" d="M404.262,306.533c-0.826,0-1.438-0.293-1.447-0.296l0.061-0.125c0.02,0.009,1.932,0.915,3.549-0.576
					l0.094,0.104C405.758,306.34,404.938,306.533,404.262,306.533L404.262,306.533z"/>
			</g>
			<g clip-path="url(#SVGID_4_)">
				<path fill="#010101" d="M409.188,306.493c-0.016-0.028-0.424-0.662-1.527-0.338c-0.938,0.085-1.678-1.213-1.709-1.271
					l0.123-0.067c0.008,0.014,0.711,1.298,1.561,1.201c1.195-0.353,1.666,0.396,1.672,0.403L409.188,306.493L409.188,306.493z"/>
			</g>
			<g clip-path="url(#SVGID_4_)">
				<path fill="#010101" d="M422.008,316.312c-0.205,0-0.43-0.073-0.676-0.219l0.072-0.119c0.357,0.216,0.654,0.256,0.898,0.131
					c0.768-0.395,0.943-2.384,1.07-3.835c-0.244-4.686-1.828-5.032-5.299-5.793c-0.766-0.171-1.637-0.361-2.594-0.625
					c-4.643-0.674-4.611-4.006-4.609-4.04l0.139,0.003c0,0.033-0.025,3.247,4.5,3.9c0.963,0.264,1.83,0.457,2.596,0.625
					c3.434,0.753,5.156,1.134,5.406,5.93c-0.16,1.866-0.373,3.562-1.146,3.957C422.254,316.283,422.135,316.312,422.008,316.312
					L422.008,316.312z"/>
			</g>
			<g clip-path="url(#SVGID_4_)">
				<path fill="#010101" d="M422.561,314.664c-0.355,0-0.645-0.241-0.658-0.253l0.09-0.104c0.002,0.002,0.326,0.264,0.668,0.21
					c0.199-0.031,0.373-0.168,0.514-0.397l0.119,0.073c-0.164,0.268-0.369,0.421-0.609,0.46
					C422.641,314.661,422.602,314.664,422.561,314.664L422.561,314.664z"/>
			</g>
			<g clip-path="url(#SVGID_4_)">
				<path fill="#010101" d="M422.221,312.732c-0.111,0-0.182-0.012-0.186-0.012l0.025-0.137c0.037,0.006,0.9,0.148,1.307-0.701
					l0.125,0.06C423.158,312.642,422.529,312.732,422.221,312.732L422.221,312.732z"/>
			</g>
			<g clip-path="url(#SVGID_4_)">
				<path fill="#010101" d="M422.221,310.559c-0.244,0-0.438-0.045-0.455-0.051l0.033-0.134c0.01,0,0.975,0.233,1.271-0.384
					l0.125,0.062C422.994,310.468,422.559,310.559,422.221,310.559L422.221,310.559z"/>
			</g>
			<g clip-path="url(#SVGID_4_)">
				<path fill="#010101" d="M420.787,309.477l-0.064-0.122c0.193-0.105,0.723-1.043,1.031-1.648l0.125,0.062
					C421.799,307.928,421.08,309.317,420.787,309.477L420.787,309.477z"/>
			</g>
			<g clip-path="url(#SVGID_4_)">
				<path fill="#010101" d="M419.193,309.09l-0.094-0.1c0.662-0.622,0.629-2.21,0.629-2.228l0.139-0.002
					C419.867,306.828,419.902,308.428,419.193,309.09L419.193,309.09z"/>
			</g>
			<g clip-path="url(#SVGID_4_)">
				<path fill="#010101" d="M416.521,308.703l-0.088-0.107c1.066-0.903,1.102-2.213,1.102-2.225h0.139
					C417.674,306.428,417.641,307.761,416.521,308.703L416.521,308.703z"/>
			</g>
			<g clip-path="url(#SVGID_4_)">
				<path fill="#010101" d="M413.572,308.286l-0.098-0.097c0.275-0.29,1.693-1.969,1.318-2.449l0.111-0.085
					C415.404,306.297,413.592,308.266,413.572,308.286L413.572,308.286z"/>
			</g>
			<g clip-path="url(#SVGID_4_)">
				<path fill="#010101" d="M410.85,307.127l-0.021-0.137c1.795-0.272,2.039-2.065,2.041-2.082l0.137,0.017
					C413.006,304.945,412.746,306.84,410.85,307.127L410.85,307.127z"/>
			</g>
			<g clip-path="url(#SVGID_4_)">
				<path fill="#010101" d="M384.916,301.356l-0.07-0.119c0.033-0.02,3.566-2.156,3.756-3.688l0.139,0.017
					C388.541,299.166,385.064,301.269,384.916,301.356L384.916,301.356z"/>
			</g>
			<g clip-path="url(#SVGID_4_)">
				<path fill="#010101" d="M385.078,299.47l-0.145-0.045l0.1-0.088c0.842-0.287,2.361-1.058,3.088-2.986l0.129,0.048
					C387.504,298.382,385.941,299.175,385.078,299.47L385.078,299.47z"/>
			</g>
			<g clip-path="url(#SVGID_4_)">
				<path fill="#010101" d="M385.082,298.132c-0.021,0-0.035-0.006-0.043-0.011l0.045-0.131l0,0c0.217,0,2.572-1.654,2.635-2.927
					l0.141,0.006c-0.055,1.091-1.676,2.446-2.404,2.896C385.23,298.101,385.133,298.132,385.082,298.132L385.082,298.132z"/>
			</g>
			<g clip-path="url(#SVGID_4_)">
				<path fill="#010101" d="M385.238,296.538l-0.037-0.134c0.699-0.19,1.994-1.77,2.246-2.588l0.131,0.04
					C387.314,294.717,385.988,296.334,385.238,296.538L385.238,296.538z"/>
			</g>
			<g clip-path="url(#SVGID_4_)">
				<path fill="#010101" d="M385.584,294.813l-0.08-0.113c0.01-0.009,1.021-0.722,1.785-1.784l0.113,0.079
					C386.623,294.078,385.594,294.805,385.584,294.813L385.584,294.813z"/>
			</g>
			<g clip-path="url(#SVGID_4_)">
				<path fill="#010101" d="M386.1,292.998c-0.025,0-0.049-0.003-0.07-0.012c-0.07-0.02-0.152-0.082-0.16-0.261l0.141-0.006
					c0.004,0.119,0.047,0.131,0.061,0.137c0.195,0.076,0.816-0.455,1.133-0.881l0.111,0.082
					C387.057,292.407,386.441,292.998,386.1,292.998L386.1,292.998z"/>
			</g>
			<g clip-path="url(#SVGID_4_)">
				<polygon fill="#010101" points="388.334,299.532 387.9,298.99 388.008,298.904 388.443,299.444 388.334,299.532 				"/>
			</g>
			<g clip-path="url(#SVGID_4_)">
				<polygon fill="#010101" points="387.266,300.285 386.977,299.831 387.094,299.754 387.383,300.212 387.266,300.285 				"/>
			</g>
			<g clip-path="url(#SVGID_4_)">
				<path fill="#010101" d="M386.334,301.158c-0.361-0.495-0.361-0.515-0.361-0.54h0.141h-0.07l0.064-0.025
					c0.027,0.06,0.34,0.482,0.34,0.482L386.334,301.158L386.334,301.158z"/>
			</g>
			<g clip-path="url(#SVGID_4_)">
				<path fill="#010101" d="M385.797,301.771c-0.402-0.049-0.43-0.772-0.432-0.804l0.139-0.003c0.006,0.176,0.074,0.642,0.309,0.67
					L385.797,301.771L385.797,301.771z"/>
			</g>
			<g clip-path="url(#SVGID_4_)">
				<path fill="#010101" d="M386.246,300.407c-0.027,0-0.055-0.005-0.082-0.014c-0.328-0.128-0.613-1.06-0.645-1.168l0.133-0.04
					c0.111,0.375,0.361,1,0.562,1.077l0.148,0.11C386.326,300.396,386.285,300.407,386.246,300.407L386.246,300.407z"/>
			</g>
			<g clip-path="url(#SVGID_4_)">
				<path fill="#010101" d="M386.953,299.837c0,0-0.4-1.165-0.432-1.23l0.125-0.06c0.023,0.045,0.342,0.963,0.438,1.244
					L386.953,299.837L386.953,299.837z"/>
			</g>
			<g clip-path="url(#SVGID_4_)">
				<polygon fill="#010101" points="387.912,298.848 387.393,297.806 387.516,297.743 388.037,298.785 387.912,298.848 				"/>
			</g>
			<g clip-path="url(#SVGID_4_)">
				<path fill="#010101" d="M387.551,297.55c-0.139,0-0.35-0.208-0.705-0.688l0.07-0.137l0.043,0.054
					c0.441,0.597,0.566,0.631,0.592,0.631l0,0l0.074,0.116C387.604,297.541,387.578,297.55,387.551,297.55L387.551,297.55z"/>
			</g>
			<g clip-path="url(#SVGID_4_)">
				<path fill="#010101" d="M386.658,298.641l-0.129-0.003c-0.242-0.116-0.467-0.96-0.51-1.128l0.135-0.034
					c0.1,0.393,0.299,0.972,0.434,1.037L386.658,298.641L386.658,298.641z"/>
			</g>
			<g clip-path="url(#SVGID_4_)">
				<polygon fill="#010101" points="385.551,299.269 384.992,298.425 385.107,298.351 385.666,299.191 385.551,299.269 				"/>
			</g>
			<g clip-path="url(#SVGID_4_)">
				<path fill="#010101" d="M386.256,297.365c-0.266-0.134-0.412-1.009-0.455-1.273l0.137-0.022
					c0.082,0.517,0.221,1.108,0.307,1.162L386.256,297.365L386.256,297.365z"/>
			</g>
			<g clip-path="url(#SVGID_4_)">
				<path fill="#010101" d="M387.193,296.498c-0.123,0-0.668-1.122-0.668-1.133h0.139h-0.068l0.066-0.023
					c0.031,0.086,0.508,0.966,0.572,1.034L387.193,296.498L387.193,296.498z"/>
			</g>
			<g clip-path="url(#SVGID_4_)">
				<path fill="#010101" d="M386.033,295.93c-0.258-0.295-0.555-0.627-0.592-0.658l0.037-0.128c0.041,0,0.055,0,0.66,0.698
					L386.033,295.93L386.033,295.93z"/>
			</g>
			<g clip-path="url(#SVGID_4_)">
				<path fill="#010101" d="M386.787,295.032c0,0-0.455-0.764-0.492-0.815l0.102-0.094c0.008,0.006,0.029,0.028,0.51,0.838
					L386.787,295.032L386.787,295.032z"/>
			</g>
			<g clip-path="url(#SVGID_4_)">
				<path fill="#010101" d="M386.775,293.742c-0.225-0.025-0.26-0.653-0.26-1.025h0.141c0,0.435,0.064,0.858,0.135,0.887
					L386.775,293.742L386.775,293.742z"/>
			</g>
			<g clip-path="url(#SVGID_4_)">
				<polygon fill="#010101" points="386.551,292.734 386.072,292.038 386.188,291.961 386.664,292.654 386.551,292.734 				"/>
			</g>
		</g>
	</g>
</g>
</svg>
