<?xml version="1.0" encoding="utf-8"?>
<!-- Generator: Adobe Illustrator 16.0.0, SVG Export Plug-In . SVG Version: 6.00 Build 0)  -->
<!DOCTYPE svg PUBLIC "-//W3C//DTD SVG 1.1//EN" "http://www.w3.org/Graphics/SVG/1.1/DTD/svg11.dtd">
<svg version="1.1" id="name" xmlns="http://www.w3.org/2000/svg" xmlns:xlink="http://www.w3.org/1999/xlink" x="0px" y="0px"
	 width="85.71px" height="50px" viewBox="358 276 85.71 50" enable-background="new 358 276 85.71 50" xml:space="preserve">
<g id="gb">
	<g>
		<defs>
			<rect id="SVGID_1_" x="358" y="276" width="85.71" height="50"/>
		</defs>
		<clipPath id="SVGID_2_">
			<use xlink:href="#SVGID_1_"  overflow="visible"/>
		</clipPath>
		<rect x="358" y="276" clip-path="url(#SVGID_2_)" fill="#FFFFFF" width="85.71" height="50"/>
		<polygon clip-path="url(#SVGID_2_)" fill="#BD1F38" points="415.393,294.078 443.711,278.225 443.711,276 441.758,276 
			409.465,294.078 		"/>
		<polygon clip-path="url(#SVGID_2_)" fill="#BD1F38" points="414.055,308.928 443.711,325.522 443.711,322.204 419.98,308.928 		
			"/>
		<polygon clip-path="url(#SVGID_2_)" fill="#BD1F38" points="358,279.81 383.372,294.078 389.297,294.078 358,276.486 		"/>
		<polygon clip-path="url(#SVGID_2_)" fill="#BD1F38" points="387.958,308.928 358,325.711 358,326 363.409,326 393.885,308.928 		
			"/>
		<polygon clip-path="url(#SVGID_2_)" fill="#2C3077" points="437.852,276 407.838,276 407.838,292.811 		"/>
		<polygon clip-path="url(#SVGID_2_)" fill="#2C3077" points="394.584,276 364.696,276 394.584,292.811 		"/>
		<polygon clip-path="url(#SVGID_2_)" fill="#2C3077" points="443.711,294.078 443.711,282.608 423.355,294.078 		"/>
		<polygon clip-path="url(#SVGID_2_)" fill="#2C3077" points="443.711,320.272 443.711,308.928 423.355,308.928 		"/>
		<polygon clip-path="url(#SVGID_2_)" fill="#2C3077" points="366.393,326 394.584,326 394.584,310.197 		"/>
		<polygon clip-path="url(#SVGID_2_)" fill="#2C3077" points="407.838,326 436.121,326 407.838,310.197 		"/>
		<polygon clip-path="url(#SVGID_2_)" fill="#2C3077" points="358,308.928 358,320.783 379.067,308.928 		"/>
		<polygon clip-path="url(#SVGID_2_)" fill="#2C3077" points="358,294.078 379.067,294.078 358,282.202 		"/>
		<polygon clip-path="url(#SVGID_2_)" fill="#BD1F38" points="397.235,276 397.235,297.049 358,297.049 358,305.959 
			397.235,305.959 397.235,326 405.188,326 405.188,305.959 443.711,305.959 443.711,297.049 405.188,297.049 405.188,276 		"/>
	</g>
</g>
</svg>
