<?xml version="1.0" encoding="utf-8"?>
<!-- Generator: Adobe Illustrator 16.0.0, SVG Export Plug-In . SVG Version: 6.00 Build 0)  -->
<!DOCTYPE svg PUBLIC "-//W3C//DTD SVG 1.1//EN" "http://www.w3.org/Graphics/SVG/1.1/DTD/svg11.dtd">
<svg version="1.1" id="name" xmlns="http://www.w3.org/2000/svg" xmlns:xlink="http://www.w3.org/1999/xlink" x="0px" y="0px"
	 width="85.716px" height="50px" viewBox="358 276 85.716 50" enable-background="new 358 276 85.716 50" xml:space="preserve">
<g id="gd">
	<g>
		<defs>
			<rect id="SVGID_1_" x="358" y="276" width="85.716" height="50"/>
		</defs>
		<clipPath id="SVGID_2_">
			<use xlink:href="#SVGID_1_"  overflow="visible"/>
		</clipPath>
		<rect x="358" y="276" clip-path="url(#SVGID_2_)" fill="#BD1F34" width="85.716" height="50"/>
		<rect x="366.188" y="283.001" clip-path="url(#SVGID_2_)" fill="#357B5F" width="69.339" height="36.001"/>
		<polygon clip-path="url(#SVGID_2_)" fill="#F4D130" points="366.188,319.002 400.858,301 435.527,319.002 		"/>
		<polygon clip-path="url(#SVGID_2_)" fill="#F4D130" points="366.188,283.001 400.858,301 435.527,283.001 		"/>
		<g clip-path="url(#SVGID_2_)">
			<defs>
				<rect id="SVGID_3_" x="358" y="276" width="85.716" height="50"/>
			</defs>
			<clipPath id="SVGID_4_">
				<use xlink:href="#SVGID_3_"  overflow="visible"/>
			</clipPath>
			<path clip-path="url(#SVGID_4_)" fill="#BD1F34" d="M406.859,301c0-3.313-2.688-6-6.001-6c-3.314,0-6,2.688-6,6
				c0,3.312,2.686,6,6,6C404.172,307,406.859,304.312,406.859,301"/>
			<polygon clip-path="url(#SVGID_4_)" fill="#F4D130" points="395.627,299.301 399.624,299.301 400.858,295.5 402.092,299.301 
				406.09,299.301 402.857,301.65 404.094,305.449 400.858,303.103 397.625,305.449 398.858,301.65 			"/>
			<polygon clip-path="url(#SVGID_4_)" fill="#F4D130" points="381.1,278.495 383.461,278.495 384.19,276.25 384.92,278.495 
				387.282,278.495 385.372,279.884 386.1,282.128 384.19,280.742 382.28,282.128 383.008,279.884 			"/>
			<polygon clip-path="url(#SVGID_4_)" fill="#F4D130" points="397.768,278.495 400.129,278.495 400.858,276.25 401.586,278.495 
				403.947,278.495 402.039,279.884 402.77,282.128 400.858,280.742 398.946,282.128 399.678,279.884 			"/>
			<polygon clip-path="url(#SVGID_4_)" fill="#F4D130" points="414.436,278.495 416.797,278.495 417.525,276.25 418.254,278.495 
				420.617,278.495 418.709,279.884 419.436,282.128 417.525,280.742 415.617,282.128 416.344,279.884 			"/>
			<polygon clip-path="url(#SVGID_4_)" fill="#F4D130" points="381.1,321.496 383.461,321.496 384.19,319.249 384.92,321.496 
				387.282,321.496 385.372,322.887 386.1,325.131 384.19,323.744 382.28,325.131 383.008,322.887 			"/>
			<polygon clip-path="url(#SVGID_4_)" fill="#F4D130" points="397.768,321.496 400.129,321.496 400.858,319.249 401.586,321.496 
				403.947,321.496 402.039,322.887 402.77,325.131 400.858,323.744 398.946,325.131 399.678,322.887 			"/>
			<polygon clip-path="url(#SVGID_4_)" fill="#F4D130" points="414.436,321.496 416.797,321.496 417.525,319.249 418.254,321.496 
				420.617,321.496 418.709,322.887 419.436,325.131 417.525,323.744 415.617,325.131 416.344,322.887 			"/>
			<path clip-path="url(#SVGID_4_)" fill="#BD1F34" d="M370.481,301.068c0.752,1.397,2.211,2.921,3.486,3.455
				c0.02-1.418-0.482-3.239-1.174-4.691L370.481,301.068z"/>
			<path clip-path="url(#SVGID_4_)" fill="#F4D130" d="M369.209,296.272c1.088,2.267-2.824,7.68,3.691,8.946
				c-0.803-1.096-1.32-2.906-1.125-4.361c1.367,0.523,2.805,2.042,3.385,3.208C376.866,297.875,370.788,298.25,369.209,296.272"/>
		</g>
	</g>
</g>
</svg>
