<?xml version="1.0" encoding="utf-8"?>
<!-- Generator: Adobe Illustrator 16.0.0, SVG Export Plug-In . SVG Version: 6.00 Build 0)  -->
<!DOCTYPE svg PUBLIC "-//W3C//DTD SVG 1.1//EN" "http://www.w3.org/Graphics/SVG/1.1/DTD/svg11.dtd">
<svg version="1.1" id="name" xmlns="http://www.w3.org/2000/svg" xmlns:xlink="http://www.w3.org/1999/xlink" x="0px" y="0px"
	 width="85.057px" height="49.615px" viewBox="358 276 85.057 49.615" enable-background="new 358 276 85.057 49.615"
	 xml:space="preserve">
<g id="ge-ab">
	<g>
		<defs>
			<rect id="SVGID_1_" x="358" y="276" width="85.057" height="49.615"/>
		</defs>
		<clipPath id="SVGID_2_">
			<use xlink:href="#SVGID_1_"  overflow="visible"/>
		</clipPath>
		<rect x="358" y="276" clip-path="url(#SVGID_2_)" fill="#398A41" width="85.057" height="49.615"/>
		<rect x="358" y="283.087" clip-path="url(#SVGID_2_)" fill="#FFFFFF" width="85.057" height="7.088"/>
		<rect x="358" y="297.263" clip-path="url(#SVGID_2_)" fill="#FFFFFF" width="85.057" height="7.088"/>
		<rect x="358" y="311.438" clip-path="url(#SVGID_2_)" fill="#FFFFFF" width="85.057" height="7.089"/>
		<rect x="358" y="276" clip-path="url(#SVGID_2_)" fill="#DA1F31" width="37.709" height="21.263"/>
		<polygon clip-path="url(#SVGID_2_)" fill="#FFFFFF" points="377.617,279.456 378.113,280.917 376.864,279.997 375.616,280.917 
			376.131,279.456 374.852,278.565 376.411,278.585 376.864,277.113 377.318,278.595 378.886,278.565 		"/>
		<polygon clip-path="url(#SVGID_2_)" fill="#FFFFFF" points="388.923,289.778 389.429,291.239 388.181,290.319 386.932,291.239 
			387.448,289.778 386.167,288.89 387.716,288.911 388.181,287.437 388.634,288.919 390.203,288.89 		"/>
		<polygon clip-path="url(#SVGID_2_)" fill="#FFFFFF" points="366.287,289.778 366.792,291.239 365.543,290.311 364.295,291.239 
			364.812,289.769 363.521,288.89 365.079,288.911 365.543,287.437 365.998,288.919 367.566,288.89 		"/>
		<polygon clip-path="url(#SVGID_2_)" fill="#FFFFFF" points="372.035,281.042 372.541,282.505 371.293,281.573 370.043,282.505 
			370.559,281.032 369.28,280.153 370.828,280.174 371.293,278.702 371.746,280.184 373.315,280.153 		"/>
		<polygon clip-path="url(#SVGID_2_)" fill="#FFFFFF" points="383.171,281.042 383.666,282.505 382.417,281.573 381.18,282.505 
			381.686,281.032 380.405,280.153 381.964,280.174 382.417,278.702 382.882,280.184 384.44,280.153 		"/>
		<polygon clip-path="url(#SVGID_2_)" fill="#FFFFFF" points="387.17,285.144 387.667,286.606 386.418,285.676 385.169,286.606 
			385.686,285.144 384.407,284.255 385.964,284.274 386.418,282.803 386.872,284.284 388.441,284.255 		"/>
		<polygon clip-path="url(#SVGID_2_)" fill="#FFFFFF" points="368.102,285.144 368.607,286.606 367.358,285.676 366.11,286.606 
			366.626,285.144 365.346,284.255 366.905,284.274 367.358,282.803 367.813,284.284 369.382,284.255 		"/>
		<g clip-path="url(#SVGID_2_)">
			<defs>
				<rect id="SVGID_3_" x="358" y="276" width="85.057" height="49.615"/>
			</defs>
			<clipPath id="SVGID_4_">
				<use xlink:href="#SVGID_3_"  overflow="visible"/>
			</clipPath>
			<path clip-path="url(#SVGID_4_)" fill="#FFFFFF" d="M374.645,288.823c0,0-0.326,0.135-0.103,2.73
				c0.182,2.136,0.942,2.832,0.942,2.832l0.333,1.32l3.15,0.015c0,0,0.059-0.82,0.18-1.078c0.301-0.638,1.489-1.363,1.998-2.46
				c0.546-0.67,0.273-2.035,1.373-3.352c0.545-0.656-0.64-0.38-0.64-0.38c-0.649,0.432-0.967,0.938-1.131,1.292
				c-0.111,0.682-0.621,1.251-0.668,0.756c0,0-0.187-0.855-0.743-2.518c-0.054-0.493-0.292-2.199-0.343-3.498
				c-0.035-0.848-0.778-0.898-0.839-0.037l-0.089,3.404l-0.178-3.933c-0.075-1.114-0.917-0.948-0.954-0.026l-0.035,4.094
				l-0.154-3.969c-0.229-0.757-0.829-0.309-0.839,0.512l-0.103,3.865c0,0-0.128-2.116-0.157-3.01
				c-0.029-0.537-0.658-0.496-0.716,0.271C374.842,286.764,374.708,287.672,374.645,288.823L374.645,288.823z"/>
			<g clip-path="url(#SVGID_4_)">
				<path fill="#DA1F31" d="M379.006,295.762l-3.188-0.015l-0.374-1.352c-0.019-0.008-0.762-0.711-0.943-2.838
					c-0.219-2.551,0.092-2.758,0.128-2.773c0.012-0.641,0.073-1.234,0.135-1.832c0.044-0.42,0.087-0.842,0.124-1.301
					c0.062-0.809,0.764-0.912,0.799-0.271c0.029,0.896,0.157,3.01,0.157,3.01l0.019-3.862c0.007-0.564,0.284-0.941,0.536-0.941
					c0.098,0,0.276,0.055,0.386,0.417l0.156,3.981l-0.048-4.094c0.021-0.521,0.28-0.793,0.527-0.793c0.209,0,0.468,0.215,0.51,0.816
					l0.177,3.934l0.006-3.404c0.066-0.934,0.882-0.907,0.922,0.037c0.041,1.035,0.204,2.352,0.291,3.059l0.052,0.438
					c0.548,1.635,0.74,2.505,0.742,2.514c0.006,0.061,0.023,0.153,0.078,0.153c0.139,0,0.428-0.415,0.508-0.909
					c0.25-0.537,0.635-0.977,1.15-1.318c0.024-0.008,0.27-0.064,0.489-0.064c0.19,0,0.303,0.043,0.344,0.129
					c0.042,0.09-0.003,0.213-0.138,0.375c-0.639,0.766-0.812,1.562-0.952,2.203c-0.101,0.463-0.188,0.865-0.421,1.15
					c-0.287,0.621-0.795,1.123-1.243,1.565c-0.334,0.331-0.623,0.616-0.75,0.884c-0.116,0.25-0.175,1.057-0.175,1.064
					L379.006,295.762L379.006,295.762z M375.357,285.065c-0.165,0-0.356,0.185-0.387,0.592c-0.036,0.459-0.081,0.883-0.124,1.305
					c-0.062,0.598-0.123,1.188-0.16,1.863c-0.034,0.042-0.314,0.27-0.103,2.726c0.178,2.089,0.921,2.797,0.929,2.804l0.346,1.342
					l3.071-0.018c0.014-0.166,0.072-0.82,0.181-1.055c0.133-0.28,0.426-0.57,0.766-0.906c0.443-0.438,0.945-0.936,1.233-1.553
					c0.224-0.277,0.31-0.669,0.409-1.123c0.141-0.65,0.317-1.457,0.97-2.238c0.107-0.13,0.152-0.231,0.126-0.287
					c-0.06-0.126-0.721-0.025-0.725-0.024c-0.489,0.327-0.865,0.755-1.104,1.267c-0.075,0.476-0.374,0.969-0.587,0.969
					c-0.052,0-0.141-0.029-0.16-0.224c0-0.005-0.192-0.87-0.741-2.509l-0.054-0.445c-0.088-0.707-0.251-2.026-0.292-3.065
					c-0.035-0.831-0.698-0.864-0.756-0.035l-0.089,3.403l-0.261-3.934c-0.08-1.174-0.837-0.888-0.871-0.026l-0.035,4.093
					l-0.237-3.967c-0.068-0.223-0.177-0.349-0.304-0.349c-0.208,0-0.446,0.354-0.452,0.86l-0.103,3.865l0,0
					c-0.083,0-0.211-2.117-0.24-3.01C375.592,285.19,375.497,285.065,375.357,285.065L375.357,285.065z"/>
			</g>
		</g>
	</g>
</g>
</svg>
