<?xml version="1.0" encoding="utf-8"?>
<!-- Generator: Adobe Illustrator 16.0.0, SVG Export Plug-In . SVG Version: 6.00 Build 0)  -->
<!DOCTYPE svg PUBLIC "-//W3C//DTD SVG 1.1//EN" "http://www.w3.org/Graphics/SVG/1.1/DTD/svg11.dtd">
<svg version="1.1" id="name" xmlns="http://www.w3.org/2000/svg" xmlns:xlink="http://www.w3.org/1999/xlink" x="0px" y="0px"
	 width="85.716px" height="50px" viewBox="358 276 85.716 50" enable-background="new 358 276 85.716 50" xml:space="preserve">
<g id="ge">
	<g>
		<defs>
			<rect id="SVGID_1_" x="358" y="276" width="85.716" height="50"/>
		</defs>
		<clipPath id="SVGID_2_">
			<use xlink:href="#SVGID_1_"  overflow="visible"/>
		</clipPath>
		<g clip-path="url(#SVGID_2_)">
			<defs>
				<rect id="SVGID_3_" x="358" y="276" width="85.716" height="50"/>
			</defs>
			<clipPath id="SVGID_4_">
				<use xlink:href="#SVGID_3_"  overflow="visible"/>
			</clipPath>
			<path clip-path="url(#SVGID_4_)" fill="#D51F3A" d="M378.327,287.283c-0.045,0.917-0.137,1.823-0.275,2.716
				c-0.043,0.286-0.094,0.573-0.148,0.854c0.561-0.068,1.129-0.104,1.705-0.104c0.578,0,1.146,0.036,1.705,0.104
				c-0.055-0.281-0.105-0.568-0.148-0.854c-0.139-0.893-0.23-1.799-0.273-2.716c1.215,0.057,2.406,0.201,3.572,0.423
				c-0.068-0.56-0.105-1.131-0.105-1.705c0-0.579,0.037-1.147,0.105-1.704c-1.166,0.219-2.357,0.363-3.572,0.42
				c0.057-1.213,0.201-2.406,0.422-3.571c-0.559,0.068-1.127,0.103-1.705,0.103c-0.576,0-1.145-0.034-1.705-0.103
				c0.223,1.165,0.365,2.358,0.424,3.571c-1.215-0.057-2.406-0.201-3.574-0.42c0.07,0.557,0.105,1.125,0.105,1.704
				c0,0.574-0.035,1.146-0.105,1.705C375.92,287.484,377.112,287.34,378.327,287.283"/>
			<path clip-path="url(#SVGID_4_)" fill="#D51F3A" d="M420.828,287.283c-0.045,0.917-0.137,1.823-0.275,2.716
				c-0.043,0.286-0.094,0.573-0.148,0.854c0.561-0.068,1.129-0.104,1.705-0.104s1.145,0.036,1.705,0.104
				c-0.055-0.281-0.104-0.568-0.148-0.854c-0.139-0.893-0.23-1.799-0.275-2.716c1.217,0.057,2.406,0.201,3.574,0.423
				c-0.068-0.56-0.105-1.131-0.105-1.705c0-0.579,0.037-1.147,0.105-1.704c-1.168,0.219-2.357,0.363-3.574,0.42
				c0.061-1.213,0.201-2.406,0.424-3.571c-0.561,0.068-1.129,0.103-1.705,0.103s-1.145-0.034-1.705-0.103
				c0.223,1.165,0.363,2.358,0.424,3.571c-1.217-0.057-2.406-0.201-3.574-0.42c0.07,0.557,0.105,1.125,0.105,1.704
				c0,0.574-0.035,1.146-0.105,1.705C418.422,287.484,419.611,287.34,420.828,287.283"/>
			<path clip-path="url(#SVGID_4_)" fill="#D51F3A" d="M380.891,314.721c0.043-0.921,0.135-1.827,0.273-2.719
				c0.043-0.287,0.094-0.572,0.148-0.855c-0.559,0.068-1.127,0.104-1.705,0.104c-0.576,0-1.145-0.036-1.705-0.104
				c0.055,0.283,0.105,0.568,0.148,0.855c0.139,0.892,0.23,1.798,0.275,2.719c-1.215-0.061-2.406-0.205-3.574-0.424
				c0.07,0.557,0.105,1.128,0.105,1.705c0,0.576-0.035,1.145-0.105,1.705c1.168-0.223,2.359-0.364,3.574-0.424
				c-0.059,1.216-0.201,2.406-0.424,3.574c0.561-0.071,1.129-0.105,1.705-0.105c0.578,0,1.146,0.034,1.705,0.105
				c-0.221-1.168-0.365-2.358-0.422-3.574c1.215,0.06,2.406,0.201,3.572,0.424c-0.068-0.561-0.105-1.129-0.105-1.705
				c0-0.577,0.037-1.148,0.105-1.705C383.297,314.516,382.106,314.66,380.891,314.721"/>
			<path clip-path="url(#SVGID_4_)" fill="#D51F3A" d="M423.391,314.721c0.045-0.921,0.137-1.827,0.275-2.719
				c0.045-0.287,0.094-0.572,0.148-0.855c-0.561,0.068-1.129,0.104-1.705,0.104s-1.145-0.036-1.705-0.104
				c0.055,0.283,0.105,0.568,0.148,0.855c0.139,0.892,0.23,1.798,0.275,2.719c-1.217-0.061-2.41-0.205-3.574-0.424
				c0.07,0.557,0.105,1.128,0.105,1.705c0,0.576-0.035,1.145-0.105,1.705c1.164-0.223,2.357-0.364,3.574-0.424
				c-0.061,1.216-0.201,2.406-0.424,3.574c0.561-0.071,1.129-0.105,1.705-0.105s1.145,0.034,1.705,0.105
				c-0.223-1.168-0.363-2.358-0.424-3.574c1.217,0.06,2.406,0.201,3.574,0.424c-0.068-0.561-0.105-1.129-0.105-1.705
				c0-0.577,0.037-1.148,0.105-1.705C425.797,314.516,424.607,314.66,423.391,314.721"/>
			<rect x="395.819" y="276" clip-path="url(#SVGID_4_)" fill="#D51F3A" width="10.078" height="50"/>
			<rect x="358" y="295.959" clip-path="url(#SVGID_4_)" fill="#D51F3A" width="85.716" height="10.082"/>
		</g>
	</g>
</g>
</svg>
