<?xml version="1.0" encoding="utf-8"?>
<!-- Generator: Adobe Illustrator 16.0.0, SVG Export Plug-In . SVG Version: 6.00 Build 0)  -->
<!DOCTYPE svg PUBLIC "-//W3C//DTD SVG 1.1//EN" "http://www.w3.org/Graphics/SVG/1.1/DTD/svg11.dtd">
<svg version="1.1" id="name" xmlns="http://www.w3.org/2000/svg" xmlns:xlink="http://www.w3.org/1999/xlink" x="0px" y="0px"
	 width="85.71px" height="50px" viewBox="357.674 276 85.71 50" enable-background="new 357.674 276 85.71 50" xml:space="preserve"
	>
<g id="gg-hm">
	<g>
		<defs>
			<rect id="SVGID_1_" x="357.674" y="276" width="85.71" height="50"/>
		</defs>
		<clipPath id="SVGID_2_">
			<use xlink:href="#SVGID_1_"  overflow="visible"/>
		</clipPath>
		<rect x="357.674" y="276" clip-path="url(#SVGID_2_)" fill="#FFFFFF" width="85.71" height="50"/>
		<rect x="357.674" y="276" clip-path="url(#SVGID_2_)" fill="#3A3F99" width="41.629" height="25.002"/>
		<polygon clip-path="url(#SVGID_2_)" fill="#BD1F32" points="394.34,276 394.34,296.001 357.674,296.001 357.674,306.002 
			394.34,306.002 394.34,326 404.34,326 404.34,306.002 443.385,306.002 443.385,296.001 404.34,296.001 404.34,276 		"/>
		<polygon clip-path="url(#SVGID_2_)" fill="#F3BE26" points="357.674,276 357.674,280.452 386.158,296.001 394.309,296.001 
			394.309,291.553 365.823,276 		"/>
		<g clip-path="url(#SVGID_2_)">
			<defs>
				<rect id="SVGID_3_" x="357.674" y="276" width="85.71" height="50"/>
			</defs>
			<clipPath id="SVGID_4_">
				<use xlink:href="#SVGID_3_"  overflow="visible"/>
			</clipPath>
			<path clip-path="url(#SVGID_4_)" fill="#010101" d="M375.521,289.342c0.041-0.201,0.079-0.506,0.032-0.705
				c-0.029-0.125-0.084-0.232-0.16-0.332c-0.053-0.068-0.152-0.219-0.244-0.156c-0.125,0.086-0.044,0.668-0.06,0.799
				c-0.019,0.152,0.01,0.133-0.11,0.227c-0.062,0.049-0.17,0.103-0.24,0.131c-0.01,0.006,0.289,0.076,0.33,0.08
				c0.15,0,0.302-0.015,0.451-0.037C375.52,289.348,375.52,289.345,375.521,289.342"/>
			<path clip-path="url(#SVGID_4_)" fill="#010101" d="M376.258,288.455c-0.006-0.21,0.004-0.607-0.216-0.725
				c-0.151,0.33-0.099,0.645-0.112,1c-0.01,0.188,0.119,0.54-0.129,0.546c-0.102-0.193-0.046-0.511-0.114-0.728
				c-0.077-0.25-0.284-0.46-0.354-0.682c-0.087-0.273-0.045-0.643-0.045-0.93c0-0.136-0.004-0.255,0.039-0.38
				c0.044-0.137,0.193-0.302,0.179-0.44c-0.116-0.049-0.25,0.028-0.353-0.003c-0.173-0.054-0.153-0.495-0.135-0.64
				c0.041-0.309,0.149-0.607,0.231-0.908c0.101-0.364,0.231-0.827,0.608-0.995c0.014,0.116,0.013,0.267,0.062,0.381
				c0.021,0.046,0.043,0.125,0.102,0.14c0.024,0.006,0.155-0.029,0.145-0.066c-0.136-0.411-0.426-0.781-0.391-1.235
				c0.02-0.275,0.4-0.653,0.724-0.594c0.371,0.071,0.29,0.656,0.294,0.927c0.002,0.207-0.002,0.395-0.11,0.579
				c-0.1,0.171-0.224,0.29-0.198,0.503c0.02,0.006,0.068,0.02,0.086,0.02c0.143-0.116,0.176-0.31,0.311-0.429
				c0.213,0.31,0.189,0.804,0.172,1.167c-0.012,0.236-0.23,0.401-0.189,0.643c0.047,0.275,0.195,0.523,0.217,0.812
				c0.043,0.571,0.123,1.148,0.115,1.723c-0.002,0.198-0.023,0.406-0.002,0.604c0.012,0.119,0.077,0.229,0.036,0.358
				c-0.044,0.139-0.007,0.042-0.131,0.125c-0.161,0.11-0.29,0.238-0.416,0.381c-0.078,0.09-0.341,0.346-0.372,0.09
				c-0.015-0.107,0.154-0.256,0.189-0.35c-0.099-0.005-0.18,0.023-0.234-0.07C376.167,289.111,376.262,288.648,376.258,288.455"/>
			<path clip-path="url(#SVGID_4_)" fill="#FFFFFF" d="M376.514,282.529c0.074,0.025,0.146-0.083,0.129-0.15
				c-0.012-0.043-0.075-0.1-0.121-0.074C376.463,282.332,376.51,282.48,376.514,282.529"/>
			<path clip-path="url(#SVGID_4_)" fill="#FFFFFF" d="M376.672,282.873c0.043-0.029,0.073-0.137,0.006-0.156
				c-0.059-0.018-0.132,0.11-0.107,0.164C376.586,282.915,376.653,282.887,376.672,282.873"/>
			<path clip-path="url(#SVGID_4_)" fill="#FFFFFF" d="M376.266,282.756c-0.014-0.045-0.037-0.182-0.1-0.179
				c-0.029,0.003-0.076,0.062-0.1,0.077c-0.03,0.02-0.062,0.033-0.099,0.033c-0.024,0-0.077-0.02-0.098-0.014
				c-0.043,0.014-0.031,0.039-0.052,0.08c0.077,0.031,0.178-0.006,0.258,0.002c0.109,0.006,0.121,0.092,0.125,0.196
				c-0.077,0.011-0.125-0.085-0.19-0.103c-0.075-0.02-0.097,0.065-0.153,0.1c0.043,0.119,0.07,0.27,0.15,0.372
				c0.055,0.071,0.144,0.043,0.207-0.003c-0.007,0.031-0.02,0.057-0.02,0.094c0.002,0.082,0.057,0.176,0.029,0.256
				c0.043,0.014,0.09,0.014,0.131,0.037c-0.033-0.1,0.023-0.242,0.023-0.347c0-0.083-0.002-0.162-0.016-0.239
				C376.342,282.998,376.307,282.873,376.266,282.756"/>
			<path clip-path="url(#SVGID_4_)" fill="#FFFFFF" d="M375.795,285.104c0.01-0.058,0.014-0.12,0.038-0.172
				c0.025-0.051,0.06-0.094,0.083-0.146c-0.046-0.057-0.102-0.043-0.155,0.006c-0.105,0.096-0.178,0.271-0.209,0.406
				c-0.041,0.161-0.081,0.317-0.071,0.484c0.006,0.092-0.014,0.214,0.051,0.276c0.006,0.006,0.018-0.006,0.027,0
				c0.015,0.015,0.018,0.042,0.024,0.057c0.022,0.04,0.056,0.125,0.11,0.134c0.124,0.02,0.076-0.205,0.071-0.264
				C375.752,285.625,375.75,285.358,375.795,285.104"/>
			<path clip-path="url(#SVGID_4_)" fill="#FFFFFF" d="M375.687,284.693c-0.095,0.134-0.167,0.268-0.235,0.415
				c-0.068,0.146-0.127,0.284-0.158,0.443c-0.021,0.114-0.028,0.219-0.035,0.329c-0.081-0.074-0.037-0.295-0.024-0.389
				c0.024-0.174,0.074-0.369,0.159-0.523c0.055-0.102,0.097-0.207,0.16-0.303c0.023-0.035,0.064-0.105,0.109-0.114
				C375.755,284.537,375.718,284.65,375.687,284.693"/>
			<path clip-path="url(#SVGID_4_)" fill="#FFFFFF" d="M375.958,284.518c0.072,0.031,0.136,0.074,0.19,0.131
				c0.152,0.164,0.038,0.475-0.041,0.647c-0.019,0.04-0.037,0.073,0.014,0.097c0.107,0.045,0.201-0.182,0.228-0.25
				c0.068-0.18,0.141-0.381,0.01-0.545c0.198,0.064,0.31,0.264,0.344,0.451c0.005,0.023-0.001,0.088,0.021,0.1
				c0.047,0.022,0.068-0.086,0.074-0.113c0.078-0.307-0.076-0.623-0.404-0.688c-0.085-0.018-0.179-0.026-0.264-0.035
				c-0.088-0.008-0.141-0.048-0.223-0.073c-0.079-0.026-0.238,0.011-0.209,0.125C375.729,284.489,375.871,284.478,375.958,284.518"
				/>
			<path clip-path="url(#SVGID_4_)" fill="#FFFFFF" d="M376.084,286.123c0.002-0.049,0.043-0.248-0.059-0.207
				c-0.049,0.014-0.096,0.133-0.096,0.182c0,0.131-0.004,0.261-0.006,0.392c0.045,0.003,0.097,0.003,0.145,0
				c0.015-0.046,0.01-0.097,0.006-0.14C376.071,286.271,376.081,286.199,376.084,286.123"/>
			<path clip-path="url(#SVGID_4_)" fill="#FFFFFF" d="M375.743,286.73c0.049,0.015,0.145,0.023,0.163-0.006
				c0.009-0.011,0.006-0.125-0.013-0.125c0.041-0.006,0.097,0.006,0.139,0.009c0.006,0.046-0.01,0.091-0.005,0.137
				c0.048,0,0.097-0.012,0.145,0.003c0.005,0.045-0.001,0.091-0.015,0.133c-0.045-0.017-0.104-0.017-0.152-0.014
				c-0.01,0-0.01,0.253-0.01,0.278c0,0.028,0.017,0.104-0.006,0.128c-0.02,0.02-0.088,0.008-0.117,0.02
				c-0.006-0.074,0-0.153,0.004-0.227c0-0.037,0.03-0.125,0.018-0.156c-0.02-0.055-0.068-0.021-0.116-0.037
				c-0.04-0.015-0.04-0.012-0.046-0.061c-0.004-0.027-0.002-0.059,0-0.088C375.735,286.729,375.739,286.729,375.743,286.73"/>
			<path clip-path="url(#SVGID_4_)" fill="#FFFFFF" d="M376.409,285.896c-0.004-0.054,0.019-0.228-0.098-0.188
				c-0.043,0.017-0.03,0.065-0.037,0.11c-0.012,0.123-0.029,0.242-0.034,0.361c-0.001,0.039-0.028,0.15-0.007,0.185
				c0.016,0.028,0.039,0.015,0.06,0.034c0.057,0.054,0.044,0.205,0.073,0.284c0.046,0.116,0.087,0.238,0.143,0.353
				c0.034-0.015,0.034-0.117,0.075-0.154c-0.116-0.193-0.131-0.439-0.155-0.656C376.417,286.117,376.415,286.006,376.409,285.896"/>
			<path clip-path="url(#SVGID_4_)" fill="#FFFFFF" d="M375.147,289.248c0.067,0.043,0.199,0.043,0.264-0.006
				c0.119-0.088-0.071-0.188-0.158-0.176C375.224,289.146,375.045,289.186,375.147,289.248"/>
			<path clip-path="url(#SVGID_4_)" fill="#FFFFFF" d="M376.717,289.492c-0.002,0.003-0.097-0.039-0.109-0.039
				c-0.034,0-0.05,0.014-0.074,0.039c-0.053,0.049-0.057,0.097,0.016,0.128C376.622,289.654,376.692,289.549,376.717,289.492"/>
			<path clip-path="url(#SVGID_4_)" fill="#010101" d="M365.217,283.717c0.041-0.202,0.078-0.506,0.031-0.705
				c-0.026-0.125-0.082-0.232-0.158-0.332c-0.055-0.068-0.152-0.219-0.244-0.156c-0.125,0.085-0.046,0.668-0.062,0.798
				c-0.019,0.153,0.013,0.134-0.11,0.228c-0.061,0.049-0.166,0.105-0.239,0.131c-0.011,0.006,0.29,0.079,0.331,0.079
				c0.148,0,0.303-0.015,0.449-0.036C365.217,283.723,365.217,283.719,365.217,283.717"/>
			<path clip-path="url(#SVGID_4_)" fill="#010101" d="M365.954,282.833c-0.004-0.214,0.004-0.61-0.213-0.725
				c-0.153,0.327-0.102,0.642-0.115,0.997c-0.007,0.188,0.121,0.54-0.128,0.549c-0.101-0.196-0.047-0.515-0.113-0.73
				c-0.078-0.25-0.286-0.457-0.355-0.682c-0.085-0.273-0.046-0.643-0.046-0.93c0-0.137-0.001-0.256,0.039-0.381
				c0.044-0.136,0.195-0.301,0.182-0.439c-0.119-0.049-0.25,0.027-0.352-0.004c-0.176-0.051-0.154-0.494-0.136-0.639
				c0.04-0.31,0.149-0.605,0.231-0.909c0.098-0.364,0.229-0.827,0.605-0.994c0.018,0.116,0.013,0.27,0.065,0.38
				c0.021,0.047,0.04,0.125,0.099,0.141c0.027,0.005,0.156-0.029,0.145-0.066c-0.135-0.412-0.426-0.778-0.389-1.235
				c0.021-0.276,0.398-0.653,0.725-0.591c0.368,0.068,0.287,0.653,0.291,0.923c0.004,0.208-0.001,0.396-0.107,0.579
				c-0.102,0.171-0.227,0.291-0.197,0.504c0.016,0.008,0.066,0.02,0.084,0.02c0.141-0.117,0.176-0.31,0.309-0.43
				c0.215,0.311,0.191,0.805,0.172,1.168c-0.01,0.236-0.23,0.4-0.188,0.643c0.048,0.275,0.194,0.522,0.218,0.812
				c0.041,0.57,0.125,1.148,0.116,1.722c-0.005,0.198-0.026,0.406-0.005,0.604c0.015,0.12,0.077,0.23,0.037,0.361
				c-0.042,0.137-0.008,0.043-0.129,0.125c-0.163,0.107-0.293,0.236-0.419,0.381c-0.078,0.088-0.338,0.344-0.372,0.088
				c-0.014-0.107,0.154-0.256,0.193-0.35c-0.102-0.002-0.181,0.023-0.237-0.07C365.863,283.486,365.958,283.025,365.954,282.833"/>
			<path clip-path="url(#SVGID_4_)" fill="#FFFFFF" d="M366.209,276.903c0.076,0.028,0.147-0.082,0.131-0.15
				c-0.012-0.042-0.074-0.097-0.123-0.073C366.161,276.707,366.208,276.855,366.209,276.903"/>
			<path clip-path="url(#SVGID_4_)" fill="#FFFFFF" d="M366.369,277.247c0.044-0.028,0.072-0.136,0.005-0.156
				c-0.058-0.017-0.13,0.11-0.105,0.165C366.285,277.29,366.348,277.262,366.369,277.247"/>
			<path clip-path="url(#SVGID_4_)" fill="#FFFFFF" d="M365.963,277.131c-0.016-0.045-0.039-0.182-0.102-0.18
				c-0.025,0.004-0.072,0.062-0.098,0.077c-0.029,0.021-0.063,0.034-0.1,0.034c-0.021,0-0.077-0.02-0.098-0.014
				c-0.043,0.014-0.031,0.042-0.053,0.079c0.077,0.031,0.178-0.003,0.26,0.003c0.107,0.008,0.12,0.091,0.125,0.195
				c-0.076,0.012-0.125-0.084-0.191-0.102c-0.074-0.02-0.098,0.065-0.154,0.1c0.043,0.119,0.072,0.27,0.153,0.372
				c0.054,0.071,0.141,0.042,0.204-0.003c-0.007,0.031-0.017,0.057-0.017,0.094c0,0.082,0.056,0.176,0.028,0.256
				c0.044,0.014,0.088,0.014,0.131,0.037c-0.034-0.1,0.023-0.242,0.023-0.348c0-0.082-0.004-0.158-0.018-0.238
				C366.04,277.372,366.002,277.25,365.963,277.131"/>
			<path clip-path="url(#SVGID_4_)" fill="#FFFFFF" d="M365.491,279.478c0.01-0.058,0.014-0.116,0.041-0.171
				c0.024-0.051,0.06-0.09,0.08-0.147c-0.046-0.057-0.1-0.042-0.152,0.009c-0.105,0.094-0.178,0.27-0.212,0.403
				c-0.04,0.162-0.078,0.318-0.071,0.485c0.008,0.092-0.014,0.213,0.052,0.275c0.007,0.01,0.019-0.005,0.028,0
				c0.014,0.015,0.018,0.043,0.025,0.058c0.02,0.04,0.055,0.125,0.109,0.134c0.123,0.02,0.074-0.205,0.072-0.265
				C365.45,280,365.447,279.733,365.491,279.478"/>
			<path clip-path="url(#SVGID_4_)" fill="#FFFFFF" d="M365.383,279.071c-0.096,0.13-0.168,0.265-0.236,0.415
				c-0.068,0.145-0.127,0.281-0.156,0.439c-0.021,0.114-0.029,0.219-0.037,0.333c-0.078-0.077-0.034-0.298-0.021-0.392
				c0.021-0.174,0.074-0.369,0.156-0.523c0.057-0.1,0.097-0.207,0.16-0.304c0.025-0.034,0.066-0.104,0.111-0.114
				C365.451,278.912,365.416,279.025,365.383,279.071"/>
			<path clip-path="url(#SVGID_4_)" fill="#FFFFFF" d="M365.657,278.893c0.07,0.033,0.137,0.074,0.189,0.131
				c0.151,0.164,0.039,0.475-0.041,0.647c-0.021,0.04-0.039,0.073,0.012,0.097c0.107,0.045,0.203-0.18,0.228-0.25
				c0.068-0.18,0.144-0.381,0.013-0.543c0.195,0.062,0.307,0.262,0.342,0.449c0.004,0.022-0.002,0.088,0.021,0.1
				c0.045,0.021,0.067-0.086,0.074-0.114c0.077-0.307-0.078-0.622-0.403-0.688c-0.085-0.017-0.182-0.022-0.266-0.034
				c-0.087-0.008-0.142-0.049-0.222-0.074s-0.24,0.015-0.211,0.125C365.425,278.863,365.566,278.853,365.657,278.893"/>
			<path clip-path="url(#SVGID_4_)" fill="#FFFFFF" d="M365.78,280.498c0.004-0.049,0.043-0.248-0.059-0.208
				c-0.049,0.017-0.096,0.134-0.096,0.182c0,0.131-0.002,0.262-0.006,0.392c0.047,0.004,0.098,0.004,0.145,0
				c0.016-0.045,0.011-0.096,0.01-0.139C365.766,280.645,365.778,280.574,365.78,280.498"/>
			<path clip-path="url(#SVGID_4_)" fill="#FFFFFF" d="M365.441,281.105c0.048,0.014,0.144,0.025,0.161-0.006
				c0.008-0.012,0.008-0.125-0.012-0.125c0.043-0.006,0.096,0.006,0.139,0.009c0.006,0.046-0.008,0.091-0.007,0.136
				c0.048,0,0.097-0.011,0.147,0.004c0.004,0.045-0.004,0.09-0.017,0.133c-0.046-0.018-0.103-0.018-0.152-0.014
				c-0.009,0.002-0.009,0.252-0.009,0.277c0,0.029,0.015,0.105-0.006,0.129c-0.018,0.02-0.09,0.012-0.115,0.02
				c-0.01-0.074-0.004-0.153,0.001-0.227c0.001-0.037,0.03-0.126,0.019-0.157c-0.02-0.054-0.066-0.02-0.115-0.036
				c-0.043-0.015-0.04-0.01-0.049-0.061c-0.001-0.028,0-0.06,0.002-0.088C365.431,281.103,365.436,281.103,365.441,281.105"/>
			<path clip-path="url(#SVGID_4_)" fill="#FFFFFF" d="M366.106,280.27c-0.003-0.053,0.02-0.227-0.1-0.184
				c-0.043,0.014-0.029,0.062-0.034,0.11c-0.015,0.119-0.032,0.239-0.037,0.358c-0.001,0.039-0.026,0.15-0.007,0.184
				c0.016,0.029,0.043,0.015,0.062,0.037c0.054,0.052,0.044,0.202,0.072,0.281c0.045,0.119,0.087,0.239,0.143,0.354
				c0.032-0.016,0.032-0.117,0.074-0.151c-0.115-0.193-0.13-0.443-0.154-0.659C366.113,280.492,366.113,280.381,366.106,280.27"/>
			<path clip-path="url(#SVGID_4_)" fill="#FFFFFF" d="M364.842,283.623c0.068,0.042,0.199,0.045,0.266-0.004
				c0.117-0.09-0.072-0.189-0.158-0.178C364.919,283.521,364.743,283.561,364.842,283.623"/>
			<path clip-path="url(#SVGID_4_)" fill="#FFFFFF" d="M366.413,283.867c0,0.002-0.097-0.04-0.107-0.04
				c-0.035,0-0.052,0.015-0.076,0.04c-0.049,0.048-0.055,0.096,0.018,0.127C366.321,284.029,366.388,283.924,366.413,283.867"/>
			<path clip-path="url(#SVGID_4_)" fill="#010101" d="M385.825,294.967c0.041-0.201,0.078-0.506,0.031-0.705
				c-0.027-0.125-0.083-0.232-0.16-0.332c-0.054-0.07-0.151-0.219-0.244-0.156c-0.125,0.086-0.043,0.668-0.059,0.799
				c-0.021,0.153,0.011,0.133-0.11,0.227c-0.062,0.046-0.169,0.104-0.241,0.131c-0.009,0.006,0.289,0.077,0.331,0.08
				c0.151,0,0.302-0.014,0.452-0.037C385.825,294.97,385.825,294.97,385.825,294.967"/>
			<path clip-path="url(#SVGID_4_)" fill="#010101" d="M386.56,294.08c-0.005-0.21,0.005-0.607-0.214-0.725
				c-0.152,0.327-0.098,0.646-0.114,1c-0.007,0.188,0.12,0.537-0.126,0.547c-0.102-0.193-0.049-0.512-0.115-0.729
				c-0.078-0.25-0.283-0.46-0.354-0.682c-0.088-0.272-0.045-0.642-0.045-0.929c0-0.136-0.004-0.256,0.035-0.381
				c0.045-0.136,0.197-0.304,0.183-0.442c-0.12-0.047-0.25,0.027-0.353,0c-0.175-0.055-0.153-0.495-0.135-0.641
				c0.039-0.309,0.148-0.607,0.231-0.908c0.099-0.363,0.229-0.827,0.604-0.998c0.018,0.12,0.014,0.271,0.066,0.385
				c0.021,0.045,0.039,0.125,0.1,0.139c0.026,0.006,0.156-0.028,0.143-0.065c-0.135-0.412-0.422-0.781-0.388-1.235
				c0.021-0.275,0.397-0.654,0.725-0.594c0.37,0.07,0.287,0.656,0.292,0.926c0.004,0.207,0,0.395-0.108,0.576
				c-0.101,0.174-0.226,0.293-0.198,0.506c0.02,0.006,0.067,0.02,0.084,0.02c0.141-0.115,0.178-0.309,0.311-0.432
				c0.214,0.312,0.189,0.807,0.173,1.171c-0.011,0.233-0.231,0.401-0.19,0.642c0.049,0.275,0.195,0.523,0.217,0.812
				c0.045,0.572,0.124,1.148,0.117,1.723c-0.004,0.199-0.027,0.406-0.004,0.605c0.014,0.119,0.078,0.229,0.038,0.357
				c-0.044,0.137-0.011,0.043-0.131,0.125c-0.163,0.111-0.29,0.238-0.419,0.381c-0.078,0.091-0.338,0.346-0.371,0.091
				c-0.013-0.108,0.154-0.256,0.191-0.35c-0.1-0.006-0.18,0.022-0.235-0.071C386.469,294.736,386.565,294.273,386.56,294.08"/>
			<path clip-path="url(#SVGID_4_)" fill="#FFFFFF" d="M386.815,288.154c0.078,0.025,0.15-0.082,0.131-0.15
				c-0.01-0.043-0.073-0.1-0.12-0.074C386.768,287.958,386.815,288.104,386.815,288.154"/>
			<path clip-path="url(#SVGID_4_)" fill="#FFFFFF" d="M386.976,288.498c0.043-0.031,0.071-0.139,0.005-0.156
				c-0.059-0.018-0.131,0.111-0.107,0.162C386.891,288.541,386.956,288.512,386.976,288.498"/>
			<path clip-path="url(#SVGID_4_)" fill="#FFFFFF" d="M386.57,288.381c-0.016-0.045-0.038-0.182-0.103-0.178
				c-0.025,0.002-0.072,0.059-0.096,0.076c-0.03,0.018-0.062,0.033-0.099,0.033c-0.024-0.002-0.077-0.02-0.1-0.014
				c-0.042,0.014-0.031,0.04-0.05,0.08c0.077,0.031,0.176-0.006,0.258,0.002c0.109,0.006,0.121,0.092,0.123,0.197
				c-0.075,0.011-0.125-0.086-0.189-0.104c-0.074-0.02-0.099,0.062-0.156,0.1c0.043,0.119,0.073,0.27,0.154,0.373
				c0.054,0.07,0.141,0.042,0.207-0.004c-0.008,0.029-0.02,0.058-0.02,0.092c0.002,0.082,0.055,0.179,0.028,0.258
				c0.044,0.015,0.088,0.015,0.132,0.037c-0.035-0.1,0.023-0.241,0.023-0.346c0-0.083-0.004-0.162-0.018-0.239
				C386.645,288.623,386.612,288.498,386.57,288.381"/>
			<path clip-path="url(#SVGID_4_)" fill="#FFFFFF" d="M386.096,290.725c0.011-0.053,0.015-0.115,0.042-0.167
				c0.024-0.052,0.06-0.094,0.079-0.147c-0.045-0.057-0.1-0.043-0.152,0.006c-0.104,0.096-0.177,0.272-0.209,0.406
				c-0.041,0.158-0.08,0.318-0.07,0.485c0.004,0.089-0.018,0.214,0.049,0.276c0.007,0.005,0.02-0.01,0.027,0
				c0.015,0.014,0.018,0.039,0.026,0.057c0.02,0.039,0.054,0.125,0.109,0.133c0.124,0.02,0.073-0.205,0.072-0.264
				C386.057,291.251,386.055,290.984,386.096,290.725"/>
			<path clip-path="url(#SVGID_4_)" fill="#FFFFFF" d="M385.991,290.318c-0.094,0.131-0.166,0.268-0.238,0.416
				c-0.067,0.145-0.126,0.283-0.156,0.443c-0.021,0.113-0.026,0.219-0.036,0.328c-0.078-0.076-0.034-0.297-0.021-0.389
				c0.021-0.174,0.073-0.369,0.157-0.522c0.056-0.103,0.096-0.208,0.16-0.304c0.023-0.035,0.064-0.105,0.11-0.114
				C386.059,290.16,386.023,290.276,385.991,290.318"/>
			<path clip-path="url(#SVGID_4_)" fill="#FFFFFF" d="M386.263,290.143c0.069,0.031,0.136,0.074,0.188,0.131
				c0.152,0.162,0.04,0.475-0.041,0.645c-0.02,0.043-0.038,0.077,0.014,0.098c0.105,0.048,0.203-0.18,0.229-0.248
				c0.066-0.179,0.142-0.381,0.01-0.545c0.195,0.064,0.311,0.262,0.342,0.451c0.004,0.023-0.001,0.088,0.023,0.1
				c0.045,0.023,0.066-0.085,0.073-0.113c0.077-0.307-0.078-0.623-0.403-0.688c-0.086-0.02-0.18-0.025-0.264-0.034
				c-0.088-0.009-0.145-0.048-0.224-0.074c-0.081-0.025-0.24,0.012-0.21,0.125C386.032,290.111,386.172,290.104,386.263,290.143"/>
			<path clip-path="url(#SVGID_4_)" fill="#FFFFFF" d="M386.387,291.748c0.004-0.049,0.045-0.247-0.061-0.207
				c-0.047,0.014-0.095,0.133-0.095,0.182c0.003,0.131-0.001,0.262-0.006,0.393c0.048,0,0.099,0,0.146,0
				c0.016-0.047,0.01-0.098,0.008-0.141C386.373,291.896,386.385,291.824,386.387,291.748"/>
			<path clip-path="url(#SVGID_4_)" fill="#FFFFFF" d="M386.047,292.355c0.048,0.012,0.143,0.023,0.16-0.005
				c0.01-0.012,0.009-0.128-0.012-0.125c0.043-0.006,0.098,0.005,0.14,0.009c0.007,0.045-0.009,0.09-0.005,0.136
				c0.049-0.003,0.094-0.011,0.146,0.003c0.005,0.043-0.003,0.091-0.017,0.134c-0.045-0.017-0.103-0.017-0.15-0.015
				c-0.01,0-0.01,0.253-0.01,0.275c0,0.031,0.014,0.108-0.006,0.131c-0.02,0.02-0.092,0.009-0.117,0.02
				c-0.008-0.076,0-0.152,0.002-0.227c0.001-0.04,0.029-0.125,0.018-0.156c-0.02-0.055-0.066-0.023-0.115-0.037
				c-0.039-0.014-0.039-0.012-0.047-0.06c-0.002-0.028-0.001-0.06,0-0.088C386.039,292.354,386.043,292.354,386.047,292.355"/>
			<path clip-path="url(#SVGID_4_)" fill="#FFFFFF" d="M386.713,291.521c-0.004-0.058,0.019-0.229-0.1-0.188
				c-0.044,0.016-0.031,0.062-0.035,0.109c-0.014,0.123-0.033,0.242-0.037,0.359c-0.002,0.042-0.027,0.152-0.008,0.188
				c0.016,0.027,0.043,0.014,0.062,0.033c0.057,0.055,0.045,0.205,0.073,0.284c0.046,0.116,0.088,0.239,0.142,0.353
				c0.035-0.014,0.033-0.119,0.076-0.153c-0.115-0.193-0.131-0.44-0.154-0.657C386.721,291.74,386.719,291.631,386.713,291.521"/>
			<path clip-path="url(#SVGID_4_)" fill="#FFFFFF" d="M385.452,294.873c0.065,0.043,0.199,0.043,0.264-0.006
				c0.115-0.09-0.073-0.188-0.16-0.176C385.526,294.771,385.348,294.811,385.452,294.873"/>
			<path clip-path="url(#SVGID_4_)" fill="#FFFFFF" d="M387.019,295.117c0,0.004-0.097-0.039-0.108-0.039
				c-0.033,0-0.051,0.014-0.075,0.037c-0.05,0.048-0.054,0.096,0.017,0.131C386.926,295.279,386.995,295.174,387.019,295.117"/>
			<path clip-path="url(#SVGID_4_)" fill="#FFFFFF" d="M365.634,291.979c-0.006,0.326,0.106,0.627,0.226,0.926
				c-0.244-0.057-0.597-0.253-0.848-0.156c-0.384,0.153-0.218,0.725-0.212,1.023c0.005,0.15-0.031,0.281-0.093,0.42
				c-0.215,0.492-0.575,0.719-1.116,0.597c-0.104-0.026-0.155-0.034-0.125-0.125c0.042-0.122,0.25-0.208,0.319-0.321
				c0.053-0.08,0.08-0.188,0.076-0.283c-0.011-0.188-0.088-0.282,0.02-0.447c0.119-0.188,0.236-0.386,0.148-0.613
				c-0.08-0.207-0.25-0.25-0.438-0.153c-0.176,0.094-0.272,0.298-0.455,0.386c-0.234,0.117-0.486,0.021-0.721,0.125
				c-0.119,0.049-0.348,0.245-0.304,0.393c-0.331-0.256-0.198-0.82,0.06-1.08c0.252-0.252,0.616-0.352,0.959-0.408
				c0.156-0.023,0.257-0.02,0.373-0.125c0.125-0.117,0.271-0.217,0.389-0.342c0.156-0.167,0.113-0.281,0.096-0.49
				c-0.01-0.131-0.012-0.266-0.033-0.396c-0.031-0.193-0.177-0.406-0.287-0.565c-0.049-0.068-0.117-0.153-0.174-0.211
				c-0.086-0.088-0.197-0.198-0.289-0.275c-0.055-0.045-0.246-0.048-0.275-0.104c0.107,0.207-0.078,0.423-0.227,0.54
				c-0.106,0.085-0.228,0.201-0.055,0.287c0.113,0.057,0.25,0.008,0.34,0.107c0.102,0.113,0.057,0.281-0.039,0.381
				c-0.077,0.082-0.228,0.137-0.34,0.122c-0.144-0.017-0.19-0.153-0.273-0.247c-0.062-0.068-0.266-0.113-0.314-0.006
				c-0.039,0.086,0.078,0.222,0.121,0.287c0.086,0.131,0.291,0.299,0.105,0.438c-0.157,0.119-0.363-0.057-0.459-0.176
				c-0.162-0.208-0.145-0.4-0.039-0.64c0.068-0.153,0.21-0.228,0.277-0.381c0.072-0.165,0.164-0.381,0.139-0.562
				c-0.023-0.162-0.158-0.159-0.236-0.037c-0.042,0.068-0.035,0.137-0.048,0.21c-0.021,0.119-0.063,0.233-0.108,0.35
				c-0.115,0.301-0.34,0.566-0.602,0.75c-0.159,0.117-0.55,0.348-0.733,0.16c-0.075-0.083-0.003-0.203,0.071-0.268
				c0.091-0.082,0.207-0.045,0.31-0.1c0.14-0.068,0.235-0.188,0.353-0.287c0.091-0.076,0.285-0.159,0.305-0.293
				c0.02-0.11-0.064-0.136-0.168-0.121c-0.219,0.027-0.393,0.255-0.566,0.371c-0.125,0.083-0.246,0.18-0.376,0.26
				c-0.165,0.099-0.4,0.182-0.595,0.13c-0.228-0.06-0.426-0.265-0.281-0.494c0.058-0.091,0.145-0.131,0.251-0.137
				c0.069,0,0.156,0.06,0.204-0.02c-0.194-0.11-0.135-0.384,0.08-0.454c0.113-0.037,0.263,0.088,0.354-0.043
				c-0.101-0.242,0.024-0.336,0.231-0.424c0.151-0.062,0.14-0.048,0.069-0.179c-0.054-0.104-0.094-0.235-0.089-0.353
				c0.003-0.145,0.017-0.289,0.069-0.424c0.065-0.161,0.174-0.295,0.307-0.406c0.051-0.045,0.365-0.203,0.368-0.258
				c0-0.049-0.183-0.139-0.213-0.195c-0.027-0.049-0.038-0.381-0.059-0.387c0.146,0.054,0.312,0.076,0.442,0.167
				c0.123,0.085,0.176,0.245,0.304,0.321c0.322,0.19,0.558-0.211,0.767-0.384c0.265-0.219,0.512-0.469,0.793-0.661
				c0.088-0.061,0.449-0.276,0.449-0.043c0,0.07-0.125,0.182-0.174,0.235c-0.104,0.11-0.232,0.233-0.297,0.375
				c-0.117,0.253,0.078,0.396,0.314,0.421c0.227,0.025,0.471-0.08,0.653-0.211c0.163-0.116,0.362-0.292,0.583-0.272
				c0.105,0.012,0.156,0.094,0.193,0.183c-0.16,0.125-0.395,0.338-0.414,0.559c-0.012,0.15,0.074,0.361,0.194,0.455
				c0.125,0.097,0.308,0.065,0.452,0.043c0.291-0.04,0.522-0.105,0.825-0.031c0.098,0.025,0.345,0.173,0.181,0.314
				c-0.045,0.035-0.233,0.012-0.306,0.052c-0.548,0.304-0.019,0.733,0.296,0.935c0.16,0.103,0.496,0.159,0.611,0.315
				c0.012,0.017-0.369,0.134-0.396,0.142c-0.162,0.049-0.283,0.1-0.386,0.236c-0.215,0.293-0.031,0.528,0.161,0.768
				C365.973,291.348,365.643,291.561,365.634,291.979 M361.254,289.141c0.223,0.24,0.555-0.285,0.227-0.354
				C361.268,288.742,361.108,288.98,361.254,289.141 M362.295,288.541c0.199,0.045,0.459-0.01,0.648-0.015
				c0.156-0.006,0.297,0.015,0.436,0.088c0.043,0.022-0.217,0.239-0.232,0.25c-0.088,0.077-0.186,0.151-0.14,0.276
				c0.075,0.198,0.294,0.209,0.462,0.27c0.215,0.079,0.396,0.232,0.57,0.372c0.143,0.116,0.229,0.272,0.339,0.409
				c0.11,0.133,0.167,0.267,0.179,0.449c0.029,0.443-0.066,0.852-0.164,1.277c-0.025,0.108-0.16,0.51-0.088,0.611
				c0.051,0.068,0.261,0.043,0.33,0.025c0.228-0.054,0.42-0.318,0.549-0.497c0.334-0.489,0.441-0.972,0.436-1.56
				c-0.008-0.701-0.289-1.256-0.871-1.656c-0.354-0.244-0.762-0.44-1.188-0.509c-0.326-0.054-0.658-0.062-0.982-0.125
				c-0.131-0.021-0.263-0.046-0.394-0.077c-0.065-0.014-0.333-0.139-0.376-0.059c-0.076,0.131,0.262,0.365,0.35,0.417
				C362.2,288.516,362.245,288.531,362.295,288.541"/>
			<path clip-path="url(#SVGID_4_)" fill="#FFFFFF" d="M362.364,288.422c0.117,0.082,0.354-0.111,0.123-0.146
				C362.393,288.26,362.233,288.333,362.364,288.422"/>
			<path clip-path="url(#SVGID_4_)" fill="#FFFFFF" d="M362.863,288.373c0.038,0.15,0.431,0.068,0.304-0.031
				C363.133,288.318,362.852,288.333,362.863,288.373"/>
			<path clip-path="url(#SVGID_4_)" fill="#FFFFFF" d="M363.441,288.541c0.035,0.156,0.456,0.167,0.3-0.01
				C363.679,288.464,363.399,288.361,363.441,288.541"/>
			<path clip-path="url(#SVGID_4_)" fill="#FFFFFF" d="M363.428,288.955c0.008-0.018,0.396,0.186,0.465,0.018
				c0.059-0.137-0.214-0.199-0.311-0.18C363.503,288.812,363.457,288.885,363.428,288.955"/>
			<path clip-path="url(#SVGID_4_)" fill="#FFFFFF" d="M363.176,289.208c0.071,0.026,0.244,0.097,0.306,0.017
				c0.062-0.079-0.036-0.17-0.116-0.173C363.32,289.049,363.123,289.188,363.176,289.208"/>
			<path clip-path="url(#SVGID_4_)" fill="#FFFFFF" d="M363.571,289.273c-0.008,0.117,0.357,0.162,0.369,0.049
				C363.959,289.137,363.586,289.066,363.571,289.273"/>
			<path clip-path="url(#SVGID_4_)" fill="#FFFFFF" d="M364.606,289.367c-0.049-0.159-0.223-0.369-0.405-0.366
				c-0.135,0-0.251,0.108-0.125,0.222c0.077,0.064,0.177,0.116,0.255,0.188c0.043,0.039,0.072,0.102,0.115,0.137
				C364.561,289.643,364.644,289.489,364.606,289.367"/>
			<path clip-path="url(#SVGID_4_)" fill="#FFFFFF" d="M364.258,288.711c0.047-0.068-0.261-0.128-0.307-0.105
				C363.769,288.691,364.131,288.898,364.258,288.711"/>
			<path clip-path="url(#SVGID_4_)" fill="#FFFFFF" d="M364.784,289.186c0.281-0.213-0.416-0.336-0.359-0.211
				C364.503,289.151,364.653,289.098,364.784,289.186"/>
			<path clip-path="url(#SVGID_4_)" fill="#FFFFFF" d="M364.336,289.72c0.016-0.199-0.367-0.321-0.326-0.142
				c0.012,0.057,0.143,0.156,0.199,0.158c0.082,0.003,0.174-0.079,0.074-0.137"/>
			<path clip-path="url(#SVGID_4_)" fill="#FFFFFF" d="M364.442,290.037c0.124,0.035,0.072-0.11,0.015-0.161
				c-0.021-0.015-0.184-0.046-0.161-0.006C364.332,289.938,364.356,290.012,364.442,290.037"/>
			<path clip-path="url(#SVGID_4_)" fill="#FFFFFF" d="M364.825,289.927c0.107-0.009,0.21,0.006,0.139-0.136
				c-0.038-0.077-0.132-0.119-0.213-0.129c-0.15-0.02-0.294,0.08-0.148,0.217C364.688,289.958,364.727,289.933,364.825,289.927"/>
			<path clip-path="url(#SVGID_4_)" fill="#FFFFFF" d="M364.862,289.443c0.032,0.072,0.197,0.248,0.293,0.18
				c0.083-0.057,0.006-0.18-0.047-0.228C365.032,289.324,364.776,289.256,364.862,289.443"/>
			<path clip-path="url(#SVGID_4_)" fill="#FFFFFF" d="M365.322,289.816c-0.016-0.015-0.031-0.029-0.052-0.034
				c-0.113-0.046-0.142,0.073-0.117,0.159c0.017,0.06,0.086,0.199,0.133,0.244c0.102,0.094,0.13-0.051,0.127-0.128
				C365.411,289.98,365.384,289.873,365.322,289.816"/>
			<path clip-path="url(#SVGID_4_)" fill="#FFFFFF" d="M364.928,290.203c0.014,0.198,0.285,0.238,0.16,0.02
				C365.044,290.143,364.915,290.037,364.928,290.203"/>
			<path clip-path="url(#SVGID_4_)" fill="#FFFFFF" d="M364.628,290.302c-0.083,0.146,0.128,0.278,0.166,0.114
				C364.817,290.313,364.702,290.168,364.628,290.302"/>
			<path clip-path="url(#SVGID_4_)" fill="#FFFFFF" d="M364.897,290.498c-0.172,0.162,0.123,0.506,0.197,0.284
				C365.127,290.686,365.042,290.361,364.897,290.498"/>
			<path clip-path="url(#SVGID_4_)" fill="#FFFFFF" d="M365.292,290.631c0.26,0.504,0.203-0.354-0.029-0.209
				C365.175,290.473,365.258,290.568,365.292,290.631"/>
			<path clip-path="url(#SVGID_4_)" fill="#FFFFFF" d="M364.857,290.904c-0.057-0.228-0.241,0.043-0.14,0.139
				c0.1,0.092,0.155-0.11,0.107-0.173"/>
			<path clip-path="url(#SVGID_4_)" fill="#FFFFFF" d="M365.329,291.248c0.16,0.034,0.123-0.232,0.065-0.307
				C365.258,290.762,365.151,291.209,365.329,291.248"/>
			<path clip-path="url(#SVGID_4_)" fill="#FFFFFF" d="M364.987,291.376c0.111-0.022,0.136-0.276-0.006-0.229
				C364.885,291.174,364.866,291.393,364.987,291.376"/>
			<path clip-path="url(#SVGID_4_)" fill="#FFFFFF" d="M365.243,291.641c0.102-0.004,0.158-0.23,0.062-0.273
				C365.185,291.311,365.077,291.643,365.243,291.641"/>
			<path clip-path="url(#SVGID_4_)" fill="#FFFFFF" d="M364.602,291.367c-0.094,0.168,0.066,0.222,0.143,0.068
				C364.819,291.285,364.691,291.209,364.602,291.367"/>
			<path clip-path="url(#SVGID_4_)" fill="#FFFFFF" d="M365.01,291.574c-0.102-0.064-0.216,0.119-0.138,0.186
				c0.095,0.076,0.172-0.145,0.114-0.207"/>
			<path clip-path="url(#SVGID_4_)" fill="#FFFFFF" d="M364.499,291.824c-0.061,0.186,0.171,0.1,0.161-0.002
				C364.649,291.709,364.524,291.748,364.499,291.824"/>
			<path clip-path="url(#SVGID_4_)" fill="#FFFFFF" d="M364.988,292.135c0.109,0.014,0.213-0.186,0.104-0.244
				C364.95,291.808,364.836,292.115,364.988,292.135"/>
			<path clip-path="url(#SVGID_4_)" fill="#FFFFFF" d="M391.244,282.613c-0.009,0.324,0.104,0.629,0.223,0.924
				c-0.243-0.057-0.595-0.252-0.847-0.153c-0.385,0.151-0.217,0.725-0.211,1.021c0.004,0.15-0.033,0.283-0.093,0.42
				c-0.216,0.494-0.575,0.722-1.116,0.597c-0.105-0.022-0.156-0.034-0.125-0.122c0.041-0.125,0.248-0.211,0.32-0.32
				c0.051-0.08,0.077-0.188,0.072-0.285c-0.01-0.188-0.084-0.281,0.021-0.445c0.118-0.188,0.238-0.387,0.148-0.617
				c-0.078-0.207-0.249-0.25-0.437-0.15c-0.178,0.094-0.274,0.299-0.458,0.387c-0.232,0.113-0.484,0.02-0.72,0.125
				c-0.116,0.048-0.348,0.244-0.304,0.392c-0.33-0.255-0.197-0.821,0.061-1.079c0.252-0.253,0.615-0.355,0.958-0.409
				c0.157-0.022,0.26-0.021,0.375-0.125c0.125-0.116,0.271-0.22,0.388-0.345c0.154-0.164,0.112-0.281,0.097-0.488
				c-0.011-0.133-0.011-0.267-0.034-0.397c-0.029-0.193-0.178-0.403-0.289-0.565c-0.048-0.068-0.115-0.15-0.172-0.207
				c-0.086-0.088-0.197-0.199-0.289-0.275c-0.056-0.049-0.246-0.052-0.274-0.105c0.106,0.205-0.078,0.424-0.228,0.539
				c-0.105,0.086-0.227,0.202-0.054,0.287c0.112,0.055,0.249,0.009,0.34,0.108c0.101,0.11,0.057,0.278-0.04,0.378
				c-0.076,0.082-0.227,0.139-0.341,0.125c-0.142-0.02-0.188-0.156-0.271-0.247c-0.062-0.068-0.266-0.116-0.315-0.006
				c-0.038,0.083,0.078,0.222,0.121,0.287c0.085,0.128,0.291,0.296,0.106,0.435c-0.157,0.122-0.365-0.055-0.459-0.174
				c-0.161-0.209-0.145-0.4-0.041-0.639c0.071-0.153,0.212-0.23,0.28-0.381c0.072-0.164,0.163-0.381,0.137-0.565
				c-0.021-0.159-0.156-0.156-0.235-0.034c-0.042,0.065-0.034,0.137-0.048,0.207c-0.02,0.123-0.065,0.236-0.109,0.35
				c-0.115,0.302-0.34,0.568-0.602,0.754c-0.158,0.115-0.549,0.346-0.731,0.156c-0.075-0.08-0.003-0.199,0.069-0.268
				c0.09-0.082,0.207-0.043,0.311-0.097c0.141-0.071,0.234-0.188,0.352-0.29c0.09-0.074,0.286-0.158,0.306-0.289
				c0.019-0.111-0.066-0.14-0.169-0.125c-0.219,0.027-0.391,0.256-0.565,0.375c-0.125,0.082-0.247,0.179-0.376,0.258
				c-0.164,0.1-0.4,0.18-0.596,0.129c-0.227-0.058-0.425-0.266-0.283-0.492c0.059-0.091,0.146-0.134,0.252-0.137
				c0.072,0,0.158,0.057,0.206-0.022c-0.196-0.11-0.135-0.384,0.078-0.452c0.115-0.037,0.265,0.088,0.354-0.045
				c-0.099-0.242,0.024-0.336,0.231-0.42c0.152-0.062,0.14-0.052,0.071-0.183c-0.054-0.104-0.095-0.233-0.091-0.353
				c0.004-0.142,0.019-0.287,0.07-0.42c0.064-0.162,0.174-0.295,0.307-0.406c0.053-0.045,0.366-0.205,0.367-0.262
				c0-0.049-0.184-0.137-0.213-0.195c-0.025-0.046-0.039-0.379-0.059-0.387c0.148,0.054,0.312,0.076,0.443,0.17
				c0.123,0.086,0.175,0.244,0.305,0.321c0.32,0.19,0.557-0.21,0.767-0.384c0.263-0.221,0.51-0.469,0.792-0.662
				c0.089-0.059,0.451-0.275,0.449-0.045c0,0.074-0.125,0.182-0.173,0.236c-0.105,0.113-0.234,0.235-0.298,0.377
				c-0.117,0.25,0.078,0.395,0.313,0.418c0.228,0.025,0.474-0.076,0.655-0.207c0.162-0.117,0.363-0.293,0.582-0.273
				c0.105,0.012,0.156,0.092,0.193,0.18c-0.16,0.125-0.394,0.338-0.414,0.562c-0.012,0.15,0.076,0.36,0.195,0.451
				c0.125,0.1,0.305,0.068,0.45,0.045c0.292-0.039,0.525-0.107,0.825-0.031c0.101,0.026,0.347,0.174,0.182,0.312
				c-0.043,0.037-0.234,0.012-0.307,0.052c-0.545,0.308-0.018,0.733,0.299,0.935c0.158,0.105,0.495,0.159,0.609,0.315
				c0.012,0.021-0.369,0.137-0.396,0.142c-0.161,0.049-0.283,0.104-0.387,0.239c-0.213,0.29-0.028,0.526,0.163,0.767
				C391.582,281.983,391.252,282.196,391.244,282.613 M386.862,279.773c0.224,0.241,0.553-0.281,0.225-0.35
				C386.877,279.378,386.715,279.613,386.862,279.773 M387.903,279.176c0.198,0.043,0.461-0.008,0.647-0.017
				c0.157-0.005,0.298,0.015,0.438,0.091c0.042,0.02-0.218,0.236-0.234,0.25c-0.089,0.074-0.185,0.148-0.138,0.273
				c0.074,0.201,0.294,0.213,0.463,0.272c0.213,0.077,0.394,0.233,0.568,0.372c0.143,0.116,0.229,0.27,0.34,0.406
				c0.109,0.137,0.168,0.27,0.18,0.449c0.029,0.443-0.068,0.852-0.168,1.281c-0.023,0.107-0.158,0.508-0.084,0.607
				c0.049,0.068,0.258,0.043,0.329,0.029c0.228-0.058,0.421-0.318,0.547-0.5c0.333-0.486,0.442-0.973,0.438-1.558
				c-0.009-0.702-0.29-1.256-0.872-1.659c-0.354-0.244-0.764-0.44-1.188-0.508c-0.326-0.055-0.656-0.062-0.982-0.123
				c-0.131-0.022-0.264-0.049-0.395-0.076c-0.064-0.015-0.332-0.14-0.377-0.061c-0.073,0.131,0.265,0.364,0.352,0.418
				C387.805,279.15,387.852,279.168,387.903,279.176"/>
			<path clip-path="url(#SVGID_4_)" fill="#FFFFFF" d="M387.971,279.057c0.117,0.082,0.354-0.11,0.125-0.147
				C387.999,278.895,387.84,278.967,387.971,279.057"/>
			<path clip-path="url(#SVGID_4_)" fill="#FFFFFF" d="M388.471,279.009c0.037,0.15,0.43,0.067,0.303-0.031
				C388.743,278.951,388.461,278.969,388.471,279.009"/>
			<path clip-path="url(#SVGID_4_)" fill="#FFFFFF" d="M389.047,279.176c0.037,0.156,0.459,0.168,0.3-0.011
				C389.288,279.097,389.007,278.994,389.047,279.176"/>
			<path clip-path="url(#SVGID_4_)" fill="#FFFFFF" d="M389.036,279.592c0.008-0.018,0.396,0.182,0.465,0.017
				c0.059-0.137-0.213-0.199-0.31-0.179C389.11,279.446,389.065,279.52,389.036,279.592"/>
			<path clip-path="url(#SVGID_4_)" fill="#FFFFFF" d="M388.785,279.844c0.069,0.025,0.243,0.097,0.306,0.018
				c0.062-0.082-0.035-0.171-0.117-0.176C388.926,279.686,388.729,279.821,388.785,279.844"/>
			<path clip-path="url(#SVGID_4_)" fill="#FFFFFF" d="M389.178,279.909c-0.008,0.116,0.359,0.159,0.369,0.046
				C389.567,279.77,389.195,279.702,389.178,279.909"/>
			<path clip-path="url(#SVGID_4_)" fill="#FFFFFF" d="M390.213,280.003c-0.048-0.161-0.225-0.369-0.404-0.369
				c-0.135,0-0.252,0.108-0.125,0.222c0.076,0.068,0.174,0.119,0.256,0.188c0.043,0.043,0.07,0.105,0.111,0.139
				C390.168,280.279,390.252,280.123,390.213,280.003"/>
			<path clip-path="url(#SVGID_4_)" fill="#FFFFFF" d="M389.868,279.347c0.047-0.067-0.262-0.128-0.309-0.104
				C389.375,279.326,389.738,279.534,389.868,279.347"/>
			<path clip-path="url(#SVGID_4_)" fill="#FFFFFF" d="M390.389,279.818c0.285-0.213-0.412-0.332-0.357-0.207
				C390.11,279.787,390.259,279.733,390.389,279.818"/>
			<path clip-path="url(#SVGID_4_)" fill="#FFFFFF" d="M389.946,280.355c0.014-0.201-0.369-0.321-0.328-0.143
				c0.012,0.055,0.143,0.154,0.199,0.156c0.082,0.006,0.176-0.076,0.074-0.133"/>
			<path clip-path="url(#SVGID_4_)" fill="#FFFFFF" d="M390.05,280.671c0.122,0.036,0.072-0.11,0.015-0.159
				c-0.021-0.018-0.184-0.049-0.162-0.006C389.94,280.574,389.963,280.648,390.05,280.671"/>
			<path clip-path="url(#SVGID_4_)" fill="#FFFFFF" d="M390.432,280.561c0.107-0.006,0.212,0.008,0.14-0.137
				c-0.038-0.077-0.134-0.117-0.214-0.125c-0.151-0.02-0.293,0.076-0.148,0.213C390.295,280.594,390.334,280.568,390.432,280.561"/>
			<path clip-path="url(#SVGID_4_)" fill="#FFFFFF" d="M390.469,280.077c0.031,0.073,0.196,0.25,0.293,0.182
				c0.082-0.057,0.007-0.179-0.046-0.229C390.639,279.961,390.384,279.89,390.469,280.077"/>
			<path clip-path="url(#SVGID_4_)" fill="#FFFFFF" d="M390.93,280.449c-0.016-0.014-0.033-0.025-0.053-0.034
				c-0.113-0.042-0.141,0.077-0.117,0.162c0.016,0.06,0.087,0.198,0.133,0.244c0.101,0.094,0.129-0.052,0.127-0.128
				S390.993,280.509,390.93,280.449"/>
			<path clip-path="url(#SVGID_4_)" fill="#FFFFFF" d="M390.535,280.838c0.017,0.199,0.288,0.236,0.163,0.021
				C390.651,280.779,390.524,280.671,390.535,280.838"/>
			<path clip-path="url(#SVGID_4_)" fill="#FFFFFF" d="M390.235,280.936c-0.082,0.145,0.129,0.281,0.168,0.115
				C390.424,280.949,390.31,280.805,390.235,280.936"/>
			<path clip-path="url(#SVGID_4_)" fill="#FFFFFF" d="M390.506,281.134c-0.175,0.162,0.121,0.503,0.195,0.284
				C390.735,281.318,390.65,280.998,390.506,281.134"/>
			<path clip-path="url(#SVGID_4_)" fill="#FFFFFF" d="M390.9,281.265c0.259,0.505,0.203-0.353-0.031-0.21
				C390.784,281.108,390.868,281.202,390.9,281.265"/>
			<path clip-path="url(#SVGID_4_)" fill="#FFFFFF" d="M390.465,281.54c-0.057-0.228-0.24,0.042-0.14,0.14
				c0.099,0.09,0.155-0.113,0.106-0.174"/>
			<path clip-path="url(#SVGID_4_)" fill="#FFFFFF" d="M390.935,281.881c0.162,0.037,0.126-0.23,0.067-0.307
				C390.866,281.395,390.759,281.844,390.935,281.881"/>
			<path clip-path="url(#SVGID_4_)" fill="#FFFFFF" d="M390.592,282.009c0.114-0.021,0.139-0.275-0.005-0.228
				C390.495,281.811,390.472,282.029,390.592,282.009"/>
			<path clip-path="url(#SVGID_4_)" fill="#FFFFFF" d="M390.848,282.273c0.104,0,0.16-0.228,0.062-0.273
				C390.793,281.946,390.684,282.279,390.848,282.273"/>
			<path clip-path="url(#SVGID_4_)" fill="#FFFFFF" d="M390.209,282c-0.096,0.171,0.066,0.223,0.143,0.068
				C390.426,281.921,390.297,281.844,390.209,282"/>
			<path clip-path="url(#SVGID_4_)" fill="#FFFFFF" d="M390.618,282.211c-0.104-0.068-0.215,0.116-0.137,0.182
				c0.095,0.08,0.17-0.143,0.111-0.205"/>
			<path clip-path="url(#SVGID_4_)" fill="#FFFFFF" d="M390.107,282.461c-0.062,0.184,0.171,0.096,0.161-0.006
				C390.259,282.344,390.133,282.384,390.107,282.461"/>
			<path clip-path="url(#SVGID_4_)" fill="#FFFFFF" d="M390.596,282.771c0.107,0.015,0.214-0.185,0.105-0.247
				C390.557,282.441,390.442,282.748,390.596,282.771"/>
		</g>
	</g>
</g>
</svg>
