<?xml version="1.0" encoding="utf-8"?>
<!-- Generator: Adobe Illustrator 16.0.0, SVG Export Plug-In . SVG Version: 6.00 Build 0)  -->
<!DOCTYPE svg PUBLIC "-//W3C//DTD SVG 1.1//EN" "http://www.w3.org/Graphics/SVG/1.1/DTD/svg11.dtd">
<svg version="1.1" id="name" xmlns="http://www.w3.org/2000/svg" xmlns:xlink="http://www.w3.org/1999/xlink" x="0px" y="0px"
	 width="85.713px" height="50px" viewBox="358 276 85.713 50" enable-background="new 358 276 85.713 50" xml:space="preserve">
<g id="gg">
	<g>
		<defs>
			<rect id="SVGID_1_" x="358" y="276" width="85.713" height="50"/>
		</defs>
		<clipPath id="SVGID_2_">
			<use xlink:href="#SVGID_1_"  overflow="visible"/>
		</clipPath>
		<rect x="358" y="276" clip-path="url(#SVGID_2_)" fill="#FFFFFF" width="85.713" height="50"/>
		<polygon clip-path="url(#SVGID_2_)" fill="#D51F3A" points="394.606,276 394.606,294.751 358,294.751 358,307.252 
			394.606,307.252 394.606,326 407.105,326 407.105,307.252 443.713,307.252 443.713,294.751 407.105,294.751 407.105,276 		"/>
		<polygon clip-path="url(#SVGID_2_)" fill="#F2DD31" points="382.106,305.17 384.19,303.087 402.939,303.087 402.939,298.919 
			384.19,298.919 382.106,296.833 		"/>
		<polygon clip-path="url(#SVGID_2_)" fill="#F2DD31" points="396.689,282.253 398.773,284.336 398.773,303.087 402.939,303.087 
			402.939,284.336 405.021,282.253 		"/>
		<polygon clip-path="url(#SVGID_2_)" fill="#F2DD31" points="405.021,319.752 402.939,317.667 402.939,298.919 398.773,298.919 
			398.773,317.667 396.689,319.752 		"/>
		<polygon clip-path="url(#SVGID_2_)" fill="#F2DD31" points="419.605,296.833 417.522,298.919 398.773,298.919 398.773,303.087 
			417.522,303.087 419.605,305.17 		"/>
	</g>
</g>
</svg>
