<?xml version="1.0" encoding="utf-8"?>
<!-- Generator: Adobe Illustrator 16.0.0, SVG Export Plug-In . SVG Version: 6.00 Build 0)  -->
<!DOCTYPE svg PUBLIC "-//W3C//DTD SVG 1.1//EN" "http://www.w3.org/Graphics/SVG/1.1/DTD/svg11.dtd">
<svg version="1.1" id="name" xmlns="http://www.w3.org/2000/svg" xmlns:xlink="http://www.w3.org/1999/xlink" x="0px" y="0px"
	 width="85.719px" height="50px" viewBox="358 276 85.719 50" enable-background="new 358 276 85.719 50" xml:space="preserve">
<g id="gi">
	<g>
		<defs>
			<rect id="SVGID_1_" x="358" y="276" width="85.719" height="50"/>
		</defs>
		<clipPath id="SVGID_2_">
			<use xlink:href="#SVGID_1_"  overflow="visible"/>
		</clipPath>
		<rect x="358" y="276" clip-path="url(#SVGID_2_)" fill="#FFFFFF" width="85.719" height="50"/>
		<rect x="358" y="309.495" clip-path="url(#SVGID_2_)" fill="#C82127" width="85.719" height="16.505"/>
		<path clip-path="url(#SVGID_2_)" fill="#F0D82F" d="M396.91,320.448v1.568h0.982v-0.79h1.336v0.79h1.057v-1.568H396.91z
			 M396.91,322.607v1.574h3.375v-1.574h-1.057v0.787h-1.336v-0.787H396.91z"/>
		<g clip-path="url(#SVGID_2_)">
			<path fill="#010101" d="M400.336,324.232h-3.426l-0.051-1.625l1.033-0.049l0.05,0.836l1.286-0.049l-0.05-0.738l1.106-0.049
				L400.336,324.232L400.336,324.232z M397.842,322.607l-0.932,0.049l0.05,1.525l3.274-0.049v-1.525l-1.006,0.049l0.05,0.738
				l-1.386,0.049L397.842,322.607L397.842,322.607z M400.336,322.064h-1.107l-0.05-0.838l-1.286,0.051l0.05,0.739l-1.033,0.048
				l-0.051-1.616l3.426-0.052L400.336,322.064L400.336,322.064z M399.229,321.179l0.05,0.838l0.956-0.048v-1.521l-3.325,0.048
				l0.05,1.521l0.932-0.052l-0.051-0.738L399.229,321.179L399.229,321.179z"/>
		</g>
		<rect x="389.252" y="298.716" clip-path="url(#SVGID_2_)" fill="#010101" width="23.214" height="8.592"/>
		<polygon clip-path="url(#SVGID_2_)" fill="#C82127" points="395.745,306.052 388.115,306.052 386.422,307.166 386.422,308.345 
			395.745,308.345 		"/>
		<g clip-path="url(#SVGID_2_)">
			<polygon fill="#010101" points="386.422,308.396 386.372,307.166 388.086,306.01 395.795,306.004 395.745,306.1 388.115,306.1 
				386.451,307.208 386.473,308.345 395.745,308.293 386.422,308.396 			"/>
		</g>
		<polygon clip-path="url(#SVGID_2_)" fill="#C82127" points="405.974,306.052 413.602,306.052 415.295,307.166 415.295,308.345 
			405.974,308.345 		"/>
		<g clip-path="url(#SVGID_2_)">
			<polygon fill="#010101" points="405.974,308.396 415.295,308.293 415.244,307.166 413.574,306.094 405.922,306.1 
				405.974,306.004 413.602,306.004 415.324,307.123 415.347,308.345 405.974,308.396 			"/>
		</g>
		<path clip-path="url(#SVGID_2_)" fill="#C82127" d="M386.422,307.166h28.873H386.422z"/>
		<g clip-path="url(#SVGID_2_)">
			<polygon fill="#010101" points="386.422,307.217 386.372,307.217 386.422,307.114 415.295,307.114 386.422,307.217 			"/>
		</g>
		<polygon clip-path="url(#SVGID_2_)" fill="#C82127" points="395.5,306.629 393.589,307.549 393.589,308.922 400.859,308.922 
			408.129,308.922 408.129,307.549 406.218,306.629 400.859,306.629 		"/>
		<g clip-path="url(#SVGID_2_)">
			<path fill="#010101" d="M408.178,308.973h-14.588l-0.05-1.424l1.938-0.966l10.74-0.006l1.933,0.927L408.178,308.973
				L408.178,308.973z M395.5,306.68l-1.888,0.915l0.028,1.327l14.439-0.049v-1.324l-1.883-0.875L395.5,306.68L395.5,306.68z"/>
		</g>
		<g clip-path="url(#SVGID_2_)">
			<defs>
				<rect id="SVGID_3_" x="358" y="276" width="85.719" height="50"/>
			</defs>
			<clipPath id="SVGID_4_">
				<use xlink:href="#SVGID_3_"  overflow="visible"/>
			</clipPath>
			<path clip-path="url(#SVGID_4_)" fill="#F0D82F" d="M404.237,305.302c-0.263,0.079-0.594,0.247-1.001,0.472
				c-0.406,0.225-0.874,0.508-1.312,0.799c-0.327,0.215-0.6,0.432-0.866,0.642c-0.094,0.073-0.224,0.15-0.307,0.219
				c-0.096,0.083-0.16,0.162-0.237,0.239c-0.05,0.051-0.119,0.102-0.159,0.152c-0.106,0.129-0.207,0.236-0.207,0.469
				c0,0.043,0,0.086,0.006,0.129c0.15-0.18,0.368-0.308,0.609-0.336c0.001,0,0.007,0,0.007,0c0.006,0,0.017,0,0.023,0h0.006
				c0.025-0.003,0.042,0,0.069,0c0.024,0,0.042-0.003,0.067,0c0.036,0.003,0.068,0.012,0.102,0.02
				c0.015-0.014,0.024-0.025,0.038-0.037c0.045-0.042,0.068-0.07,0.121-0.115c0.107-0.092,0.285-0.208,0.42-0.312
				c0.223-0.166,0.424-0.327,0.686-0.501c0.424-0.281,0.875-0.554,1.264-0.767c0.387-0.217,0.732-0.373,0.867-0.412L404.237,305.302
				z"/>
			<g clip-path="url(#SVGID_4_)">
				<path fill="#010101" d="M400.128,308.516l-0.012-0.089c-0.005-0.046-0.005-0.091-0.005-0.134c0-0.235,0.098-0.352,0.202-0.477
					c0.04-0.049,0.076-0.08,0.112-0.113l0.155-0.098l-0.029-0.027c0.053-0.058,0.107-0.114,0.176-0.174
					c0.047-0.04,0.106-0.08,0.169-0.122c0.048-0.031,0.097-0.065,0.138-0.1c0.291-0.228,0.556-0.435,0.868-0.642
					c0.439-0.291,0.906-0.574,1.314-0.802c0.416-0.228,0.745-0.396,1.01-0.475l0.244,0.688c-0.159,0.085-0.498,0.239-0.887,0.452
					c-0.387,0.216-0.838,0.488-1.262,0.77c-0.199,0.131-0.363,0.256-0.529,0.384l-0.337,0.247c-0.085,0.062-0.173,0.125-0.234,0.176
					l-0.146,0.088l0.024,0.029l-0.105,0.039l-0.083-0.051l-0.02,0.037l-0.123,0.003c-0.224,0.022-0.438,0.142-0.586,0.321
					L400.128,308.516L400.128,308.516z M404.202,305.312c-0.212,0.103-0.538,0.271-0.948,0.495
					c-0.404,0.224-0.871,0.505-1.309,0.798c-0.311,0.205-0.573,0.412-0.83,0.614c-0.077,0.06-0.128,0.094-0.178,0.128
					c-0.058,0.039-0.117,0.076-0.161,0.116c-0.067,0.057-0.119,0.11-0.17,0.167l-0.13,0.129c-0.034,0.031-0.067,0.059-0.09,0.088
					c-0.114,0.137-0.2,0.238-0.2,0.445c0,0.012,0,0.025,0,0.037c0.157-0.156,0.36-0.256,0.573-0.281l0.253,0.012l0.159-0.137
					c0.065-0.054,0.152-0.116,0.241-0.182l0.333-0.247c0.168-0.128,0.332-0.253,0.533-0.387c0.427-0.281,0.879-0.557,1.268-0.77
					c0.395-0.219,0.738-0.372,0.877-0.412L404.202,305.312L404.202,305.312z"/>
			</g>
			<g clip-path="url(#SVGID_4_)">
				<path fill="none" d="M401.717,306.742v0.762V306.742z"/>
			</g>
			<g clip-path="url(#SVGID_4_)">
				<path fill="none" d="M402.191,306.406v0.76V306.406z"/>
			</g>
			<g clip-path="url(#SVGID_4_)">
				<path fill="none" d="M402.662,306.114v0.753V306.114z"/>
			</g>
			<g clip-path="url(#SVGID_4_)">
				<path fill="none" d="M403.135,305.824v0.775V305.824z"/>
			</g>
			<path clip-path="url(#SVGID_4_)" fill="#C82127" d="M393.587,307.547h14.543H393.587z"/>
			<g clip-path="url(#SVGID_4_)">
				<polygon fill="#010101" points="393.587,307.598 393.587,307.498 408.13,307.498 393.587,307.598 				"/>
			</g>
			<path clip-path="url(#SVGID_4_)" fill="#C82127" d="M392.551,301.117c1.099,0,1.997,0.914,1.997,2.042v2.89h1.435V295.11h-7.868
				v10.938h2.441v-2.89C390.556,302.076,391.438,301.117,392.551,301.117L392.551,301.117z"/>
			<g clip-path="url(#SVGID_4_)">
				<path fill="#010101" d="M396.033,306.098h-1.485l-0.05-2.938c0-1.097-0.874-1.994-1.946-1.994c-1.055,0-1.944,0.915-1.944,1.994
					v2.89l-2.492,0.049l-0.05-10.987l7.918-0.051L396.033,306.098L396.033,306.098z M392.551,301.068
					c1.129,0,2.047,0.938,2.047,2.091v2.89l1.333-0.049v-10.89l-7.817,0.051l0.051,10.888l2.391-0.051l-0.05-2.839
					C390.506,302.025,391.442,301.068,392.551,301.068L392.551,301.068z"/>
			</g>
			<rect x="390.806" y="287.711" clip-path="url(#SVGID_4_)" fill="#010101" width="3.617" height="6.631"/>
			<path clip-path="url(#SVGID_4_)" fill="#C82127" d="M394.413,293.314h-3.166v-1.122h-2.32v1.122h-1.574v-1.122h-0.942v2.04h8.002
				V293.314z M387.352,294.224h6.829v0.887h-6.829V294.224z"/>
			<g clip-path="url(#SVGID_4_)">
				<path fill="#010101" d="M387.352,295.161l-0.047-0.889l-0.895,0.008l-0.05-2.088l0.992-0.048l0.05,1.17l1.524-0.048
					l-0.051-1.074l2.371-0.048l0.05,1.17l3.116-0.048v0.1h-3.166l-0.05-1.173l-2.27,0.051l0.05,1.071l-1.625,0.051l-0.05-1.173
					l-0.892,0.051l0.05,1.989l7.721-0.057v0.006h0.231l-0.231,0.003l0.05,0.926L387.352,295.161L387.352,295.161z M387.402,294.272
					v0.838l6.779-0.051l-0.051-0.835L387.402,294.272L387.402,294.272z"/>
			</g>
			<path clip-path="url(#SVGID_4_)" fill="#C82127" d="M390.061,285.302v6.89h1.186V290.3c0-0.708,0.501-1.287,1.202-1.324
				c0.022-0.003,0.044,0,0.066,0c0.732,0,1.324,0.591,1.324,1.324v1.893h1.129v-6.89H390.061z"/>
			<g clip-path="url(#SVGID_4_)">
				<path fill="#010101" d="M395.019,292.243h-1.18l-0.049-1.943c0-0.702-0.572-1.273-1.274-1.273
					c-0.723,0.034-1.218,0.58-1.218,1.273v1.893l-1.236,0.051l-0.05-6.941l4.957-0.051L395.019,292.243L395.019,292.243z
					 M392.446,288.925c0.826,0,1.443,0.619,1.443,1.375v1.893l1.028-0.046v-6.844l-4.856,0.048l0.051,6.842l1.135-0.048l-0.05-1.844
					C391.196,289.553,391.734,288.962,392.446,288.925L392.446,288.925z"/>
			</g>
			<rect x="397.89" y="283.489" clip-path="url(#SVGID_4_)" fill="#010101" width="5.728" height="10.402"/>
			<path clip-path="url(#SVGID_4_)" fill="#C82127" d="M397.49,283.495v8.703h1.82v-2.583c0-0.594,0.38-1.421,1.55-1.421
				c1.169,0,1.549,0.827,1.549,1.421v2.583h1.82v-8.703h-3.369H397.49z M400.577,284.473h0.282h0.278v2.978h-0.278h-0.282V284.473z
				 M398.967,285.058h0.568v2.18h-0.568V285.058z M402.184,285.058h0.568v2.18h-0.568V285.058z"/>
			<g clip-path="url(#SVGID_4_)">
				<path fill="#010101" d="M404.279,292.249h-1.871l-0.049-2.634c0-0.509-0.316-1.37-1.5-1.37c-1.184,0-1.5,0.861-1.5,1.37v2.583
					l-1.87,0.051l-0.05-8.754l6.789-0.051L404.279,292.249L404.279,292.249z M400.859,288.144c1.263,0,1.6,0.926,1.6,1.472v2.583
					l1.719-0.048v-8.654l-6.688,0.051l0.05,8.651l1.77-0.048l-0.051-2.534C399.259,289.07,399.596,288.144,400.859,288.144
					L400.859,288.144z M400.859,287.501h-0.282l-0.05-3.08h0.611l0.052,3.029L400.859,287.501L400.859,287.501z M400.628,284.521
					v2.929l0.231-0.051h0.278l-0.048-2.926L400.628,284.521L400.628,284.521z M402.184,287.288l-0.051-2.281h0.619l0.049,2.23
					L402.184,287.288L402.184,287.288z M402.234,285.104v2.134l0.518-0.051l-0.052-2.128L402.234,285.104L402.234,285.104z
					 M398.967,287.288l-0.05-2.281h0.618l0.05,2.23L398.967,287.288L398.967,287.288z M399.018,285.104v2.134l0.517-0.051
					l-0.05-2.128L399.018,285.104L399.018,285.104z"/>
			</g>
			<polygon clip-path="url(#SVGID_4_)" fill="#C82127" points="396.874,282.242 396.874,283.481 400.859,283.481 404.844,283.481 
				404.844,282.242 400.859,282.242 			"/>
			<g clip-path="url(#SVGID_4_)">
				<path fill="#010101" d="M404.895,283.532h-8.021l-0.05-1.29l8.021-0.048L404.895,283.532L404.895,283.532z M396.874,282.293
					l0.051,1.188l7.871-0.048v-1.19L396.874,282.293L396.874,282.293z"/>
			</g>
			<polygon clip-path="url(#SVGID_4_)" fill="#C82127" points="396.123,280.805 396.123,282.242 400.859,282.242 405.596,282.242 
				405.596,280.805 404.405,280.805 404.405,281.597 403.062,281.597 403.062,280.805 401.531,280.805 401.531,281.597 
				400.859,281.597 400.187,281.597 400.187,280.805 398.655,280.805 398.655,281.597 397.312,281.597 397.312,280.805 			"/>
			<g clip-path="url(#SVGID_4_)">
				<path fill="#010101" d="M405.646,282.293h-9.522l-0.05-1.489l1.239-0.051l0.051,0.844l1.292-0.051l-0.05-0.741l1.582-0.051
					l0.051,0.844l0.622-0.051h0.672l-0.05-0.741l1.581-0.051l0.05,0.844l1.293-0.051l-0.052-0.741l1.242-0.051L405.646,282.293
					L405.646,282.293z M397.262,280.805l-1.139,0.048l0.05,1.389l9.372-0.048v-1.389l-1.14,0.048l0.051,0.744l-1.394,0.048
					l-0.05-0.841l-1.481,0.048l0.05,0.744l-1.395,0.048l-0.05-0.841l-1.481,0.048l0.05,0.744l-1.393,0.048L397.262,280.805
					L397.262,280.805z"/>
			</g>
			<rect x="389.634" y="284.367" clip-path="url(#SVGID_4_)" fill="#C82127" width="5.712" height="0.935"/>
			<g clip-path="url(#SVGID_4_)">
				<path fill="#010101" d="M395.397,285.351h-5.763l-0.05-0.983l5.763-0.048L395.397,285.351L395.397,285.351z M395.296,284.367
					l-5.662,0.048l0.05,0.887l5.611-0.051V284.367L395.296,284.367z"/>
			</g>
			<polygon clip-path="url(#SVGID_4_)" fill="#C82127" points="388.902,282.58 388.902,284.367 395.757,284.367 395.757,282.58 
				394.7,282.58 394.7,283.487 393.424,283.487 393.424,282.58 391.478,282.58 391.478,283.487 390.202,283.487 390.202,282.58 			
				"/>
			<g clip-path="url(#SVGID_4_)">
				<path fill="#010101" d="M395.808,284.416h-6.906l-0.05-1.835l1.35-0.051l0.051,0.958l1.226-0.048l-0.05-0.858l1.997-0.051
					l0.051,0.958l1.225-0.048l-0.05-0.858l1.107-0.051L395.808,284.416L395.808,284.416z M390.151,282.58l-1.25,0.048l0.05,1.739
					l6.754-0.048v-1.739l-1.006,0.048l0.05,0.858l-1.326,0.051l-0.05-0.958l-1.896,0.048l0.051,0.858l-1.327,0.051L390.151,282.58
					L390.151,282.58z"/>
			</g>
			<rect x="400.283" y="313.822" clip-path="url(#SVGID_4_)" fill="#F0D82F" width="0.974" height="11.354"/>
			<g clip-path="url(#SVGID_4_)">
				<path fill="#010101" d="M401.309,325.225h-1.025l-0.05-11.402l1.024-0.048L401.309,325.225L401.309,325.225z M401.207,313.822
					l-0.924,0.051l0.05,11.303l0.874-0.048V313.822L401.207,313.822z"/>
			</g>
			<path clip-path="url(#SVGID_4_)" fill="#F0D82F" d="M400.771,311.041l2.075,1.207l-2.075,1.205l-2.075-1.205L400.771,311.041z
				 M397.993,311.816h-0.543v0.867h0.543l2.778,1.61l2.776-1.61h0.545v-0.867h-0.545l-2.776-1.611L397.993,311.816z"/>
			<g clip-path="url(#SVGID_4_)">
				<path fill="#010101" d="M400.771,314.354l-2.804-1.625l-0.517,0.006l-0.052-0.918l0.595-0.051l2.751-1.605l2.83,1.611
					l0.518-0.006l0.051,0.918l-0.596,0.051L400.771,314.354L400.771,314.354z M397.993,312.632l2.778,1.603l2.75-1.597l0.57-0.006
					l-0.052-0.815l-0.493,0.051l-2.803-1.619l-2.725,1.611l-0.57,0.008l0.051,0.816L397.993,312.632L397.993,312.632z
					 M400.797,313.496l-2.127-1.202l2.102-1.312l2.1,1.225L400.797,313.496L400.797,313.496z M400.771,311.101l-2.05,1.193
					l2.076,1.114l2.023-1.202L400.771,311.101L400.771,311.101z"/>
			</g>
			<path clip-path="url(#SVGID_4_)" fill="#F0D82F" d="M397.518,305.327l-0.234,0.647c0.751,0.271,1.815,0.799,2.669,1.312
				c0.424,0.256,0.798,0.51,1.053,0.719c0.131,0.105,0.228,0.205,0.282,0.271c0.006,0.009,0.015,0.017,0.02,0.022
				c0,0.003,0,0.006,0,0.009c0.002,0.009,0.01,0.017,0.011,0.022c-0.005,0.043-0.011,0.092-0.024,0.123
				c-0.001,0.002-0.006,0.011-0.006,0.011c0,0.003,0,0.006,0,0.006c0,0.003-0.006,0.005-0.006,0.009
				c-0.004,0.006-0.008,0.014-0.012,0.017c-0.002,0.003-0.006,0.006-0.006,0.006c-0.003,0.003-0.006,0.005-0.006,0.009
				c-0.004,0-0.012,0.002-0.013,0.006c-0.006,0-0.013,0.008-0.021,0.011c-0.026,0.011-0.072,0.017-0.145,0.017
				c-0.044,0-0.078-0.006-0.104-0.011c-0.011-0.003-0.022-0.003-0.031-0.006c-0.003,0-0.01-0.006-0.011-0.006
				c-0.006-0.005-0.014-0.009-0.019-0.011c-0.001-0.004-0.007-0.009-0.007-0.009c-0.001,0-0.006-0.006-0.006-0.006
				c-0.001-0.003-0.006-0.009-0.006-0.011h-0.005c-0.003,0-0.006,0-0.006,0h-0.006h-0.013c-0.021,0-0.038-0.004-0.057,0
				c-0.223,0.021-0.412,0.182-0.475,0.402v0.006c0,0,0.003,0.006,0.006,0.006c0.002,0.003,0.008,0.009,0.012,0.012
				c0.157,0.19,0.424,0.318,0.727,0.318c0.316,0,0.593-0.134,0.746-0.33c0.152-0.195,0.188-0.42,0.188-0.605
				c0-0.213-0.097-0.335-0.194-0.457c-0.101-0.122-0.229-0.236-0.38-0.357c-0.298-0.248-0.69-0.51-1.134-0.779
				C399.416,306.166,398.337,305.623,397.518,305.327L397.518,305.327z"/>
			<g clip-path="url(#SVGID_4_)">
				<path fill="#010101" d="M401.082,309.266c-0.302,0-0.583-0.123-0.756-0.33c0.042-0.293,0.245-0.466,0.482-0.492l0.274,0.062
					c0.082,0,0.117-0.011,0.129-0.014c0.059-0.08,0.064-0.122,0.068-0.159c-0.072-0.097-0.168-0.192-0.295-0.296
					c-0.246-0.201-0.608-0.451-1.051-0.715c-0.862-0.521-1.932-1.049-2.662-1.311l0.21-0.695c0.835,0.258,1.907,0.787,2.846,1.352
					c0.489,0.296,0.861,0.552,1.139,0.779c0.15,0.125,0.281,0.241,0.385,0.363c0.095,0.119,0.204,0.253,0.204,0.482
					c0,0.25-0.068,0.461-0.199,0.629C401.69,309.137,401.4,309.266,401.082,309.266L401.082,309.266z M400.875,308.521
					c-0.266,0.022-0.442,0.174-0.501,0.376c0.346,0.369,1.124,0.36,1.423-0.023c0.121-0.153,0.182-0.35,0.182-0.58
					c0-0.204-0.095-0.32-0.188-0.432c-0.1-0.119-0.226-0.235-0.372-0.355c-0.275-0.224-0.645-0.477-1.131-0.772
					c-0.934-0.562-2.001-1.088-2.782-1.369l-0.185,0.625c0.711,0.213,1.786,0.744,2.653,1.265c0.444,0.27,0.812,0.52,1.06,0.725
					c0.13,0.107,0.229,0.207,0.286,0.272c0.031,0.136,0.024,0.182,0.012,0.216l-0.071,0.082c-0.085,0.046-0.231,0.034-0.29,0.02
					L400.875,308.521L400.875,308.521z"/>
			</g>
			<g clip-path="url(#SVGID_4_)">
				<path fill="none" d="M400.479,306.867l-0.062,0.65L400.479,306.867z"/>
			</g>
			<g clip-path="url(#SVGID_4_)">
				<path fill="none" d="M401.021,307.199l-0.168,0.64L401.021,307.199z"/>
			</g>
			<g clip-path="url(#SVGID_4_)">
				<path fill="none" d="M401.602,307.643l-0.354,0.498L401.602,307.643z"/>
			</g>
			<g clip-path="url(#SVGID_4_)">
				<path fill="#010101" d="M401.779,308.898c-0.006,0-0.014-0.002-0.021-0.006l-0.512-0.272l0.56,0.185
					c0.022,0.012,0.032,0.043,0.02,0.068C401.816,308.887,401.8,308.898,401.779,308.898L401.779,308.898z"/>
			</g>
			<g clip-path="url(#SVGID_4_)">
				<path fill="none" d="M401.938,308.311l-0.584,0.054L401.938,308.311z"/>
			</g>
			<g clip-path="url(#SVGID_4_)">
				<path fill="#010101" d="M401.186,309.205c-0.026,0-0.048-0.017-0.051-0.045l-0.039-0.512l0.139,0.506
					c0.003,0.025-0.018,0.051-0.045,0.051C401.186,309.205,401.186,309.205,401.186,309.205L401.186,309.205z"/>
			</g>
			<g clip-path="url(#SVGID_4_)">
				<path fill="none" d="M400.97,308.568l-0.484,0.359L400.97,308.568z"/>
			</g>
			<g clip-path="url(#SVGID_4_)">
				<path fill="none" d="M398.647,305.87v0.61V305.87z"/>
			</g>
			<g clip-path="url(#SVGID_4_)">
				<path fill="none" d="M399.875,306.518v0.69V306.518z"/>
			</g>
			<g clip-path="url(#SVGID_4_)">
				<path fill="none" d="M399.261,306.193v0.648V306.193z"/>
			</g>
			<path clip-path="url(#SVGID_4_)" fill="#F0D82F" d="M400.73,308.086c-0.453,0.071-0.799,0.482-0.799,0.967v2.152
				c0,0.531,0.421,0.973,0.94,0.973c0.014,0,0.025,0,0.037,0c0.014,0,0.024,0,0.037,0c0.37,0,0.688-0.225,0.843-0.546l-0.337-0.202
				c-0.083,0.208-0.278,0.35-0.506,0.35c-0.008,0-0.017,0-0.025,0h-0.011c-0.003,0-0.009,0-0.012,0c-0.007,0-0.017,0-0.025,0
				c-0.301,0-0.549-0.25-0.549-0.574v-2.152c0-0.327,0.248-0.568,0.549-0.568c0.009,0,0.019,0,0.025,0c0.003,0,0.009,0,0.012,0
				h0.011c0.009,0,0.017,0,0.025,0c0.085,0,0.167,0.02,0.239,0.053c0,0,0.002,0,0.006,0c0.017-0.002,0.032-0.008,0.042-0.011
				c0.003-0.003,0.016-0.011,0.017-0.011c0.004-0.004,0.008-0.006,0.008-0.006h0.006c0.001-0.004,0.007-0.006,0.007-0.009
				c0.001,0,0.005-0.006,0.005-0.006c0.004-0.003,0.01-0.015,0.012-0.017c0,0,0-0.006,0-0.009l0.006-0.006
				c0.003,0,0.006-0.009,0.006-0.011c0.013-0.031,0.021-0.08,0.025-0.123c-0.003-0.006-0.006-0.014-0.013-0.022v-0.009
				c-0.005-0.006-0.013-0.017-0.019-0.022c-0.037-0.048-0.105-0.11-0.189-0.185h-0.005c-0.007,0-0.019-0.003-0.024-0.006h-0.006
				c-0.002,0-0.012,0-0.013,0s-0.005,0-0.005,0c-0.005,0-0.011,0-0.014,0c-0.006,0-0.017,0.003-0.022,0
				c-0.025-0.003-0.042,0-0.068,0c-0.014,0-0.022,0-0.037,0c-0.012,0-0.02,0-0.037,0c-0.022,0-0.042-0.003-0.065,0
				c-0.005,0.003-0.019,0-0.025,0c-0.003,0-0.009,0-0.014,0c0,0-0.003,0-0.006,0c-0.001,0-0.008,0-0.011,0h-0.006
				C400.74,308.089,400.734,308.086,400.73,308.086L400.73,308.086z M401.859,308.851c-0.01,0.015-0.019,0.034-0.031,0.048
				c-0.08,0.105-0.195,0.193-0.336,0.25v1.478l0.393,0.225v-1.798c0-0.068-0.006-0.137-0.02-0.202
				C401.865,308.851,401.862,308.851,401.859,308.851L401.859,308.851z"/>
			<g clip-path="url(#SVGID_4_)">
				<path fill="#010101" d="M400.92,312.229h-0.017c-0.579,0-1.023-0.461-1.023-1.023v-2.152c0-0.506,0.362-0.943,0.843-1.018h0.104
					h0.222c0.173,0.094,0.242,0.158,0.282,0.21c0.04,0.122,0.031,0.182,0.015,0.228l-0.186,0.11
					c-0.068-0.034-0.142-0.048-0.216-0.048c-0.353,0-0.572,0.227-0.572,0.518v2.152c0,0.293,0.219,0.523,0.498,0.523
					c0.276,0,0.456-0.125,0.532-0.315l0.412,0.177c-0.152,0.417-0.495,0.639-0.87,0.639H400.92L400.92,312.229z M400.827,308.137
					c-0.519,0.066-0.844,0.461-0.844,0.916v2.152c0,0.506,0.398,0.922,0.888,0.922l0.05,0.051l0.01-0.051
					c0.353,0,0.656-0.199,0.81-0.516l-0.315-0.136c-0.019,0.208-0.235,0.355-0.48,0.355c-0.41,0-0.674-0.276-0.674-0.626v-2.152
					c0-0.35,0.264-0.62,0.6-0.62c0.164,0,0.252,0.021,0.335,0.06c0.054-0.08,0.06-0.122,0.065-0.164
					c-0.057-0.068-0.123-0.125-0.203-0.197l-0.124,0.006H400.827L400.827,308.137z M401.936,310.941l-0.469-0.272l-0.025-1.521
					c0.162-0.102,0.271-0.182,0.348-0.281l0.076-0.068c0.065,0.105,0.07,0.177,0.07,0.254V310.941L401.936,310.941z
					 M401.814,308.861c-0.031,0.182-0.154,0.273-0.302,0.336l0.031,1.429l0.29,0.142v-1.715
					C401.834,308.984,401.828,308.918,401.814,308.861L401.814,308.861z"/>
			</g>
			<path clip-path="url(#SVGID_4_)" fill="#C82127" d="M409.167,301.117c-1.1,0-1.997,0.914-1.997,2.042v2.89h-1.436V295.11h7.867
				v10.938h-2.439v-2.89C411.162,302.076,410.281,301.117,409.167,301.117L409.167,301.117z"/>
			<g clip-path="url(#SVGID_4_)">
				<path fill="#010101" d="M413.653,306.098h-2.491l-0.052-2.938c0-1.079-0.89-1.994-1.943-1.994c-1.072,0-1.946,0.897-1.946,1.994
					v2.89l-1.486,0.049l-0.049-10.987l7.916-0.051L413.653,306.098L413.653,306.098z M409.167,301.068
					c1.108,0,2.046,0.957,2.046,2.091v2.89l2.34-0.051V295.11l-7.818,0.051l0.052,10.888l1.384-0.051l-0.049-2.839
					C407.121,302.006,408.039,301.068,409.167,301.068L409.167,301.068z"/>
			</g>
			<polygon clip-path="url(#SVGID_4_)" fill="#C82127" points="394.364,295.11 394.364,296.008 400.859,296.008 407.354,296.008 
				407.354,295.11 400.859,295.11 			"/>
			<g clip-path="url(#SVGID_4_)">
				<path fill="#010101" d="M407.404,296.059h-13.04l-0.05-0.949l13.041-0.051L407.404,296.059L407.404,296.059z M394.364,295.161
					l0.05,0.847l12.888-0.051v-0.847L394.364,295.161L394.364,295.161z"/>
			</g>
			<rect x="407.295" y="287.711" clip-path="url(#SVGID_4_)" fill="#010101" width="3.617" height="6.631"/>
			<path clip-path="url(#SVGID_4_)" fill="#C82127" d="M407.307,293.314h3.164v-1.122h2.322v1.122h1.574v-1.122h0.938v2.04h-7.999
				V293.314z M414.367,294.224h-6.831v0.887h6.831V294.224z"/>
			<g clip-path="url(#SVGID_4_)">
				<path fill="#010101" d="M407.536,295.161l-0.046-0.881h-0.184l0.184-0.002l-0.004-0.054l6.93-0.048v0.017l0.89-0.011
					l-0.05-1.989l-0.889,0.051l0.049,1.071l-1.623,0.051l-0.052-1.173l-2.271,0.051l0.052,1.071l-3.216,0.051v-0.1h3.164
					l-0.051-1.074l2.373-0.048l0.049,1.17l1.525-0.048l-0.052-1.074l0.99-0.048l0.05,2.088l-0.939,0.005v0.873L407.536,295.161
					L407.536,295.161z M407.536,294.28l0.052,0.83l6.779-0.051l-0.047-0.787L407.536,294.28L407.536,294.28z"/>
			</g>
			<path clip-path="url(#SVGID_4_)" fill="#C82127" d="M411.656,285.302v6.89h-1.186V290.3c0-0.708-0.5-1.287-1.201-1.324
				c-0.021-0.003-0.045,0-0.065,0c-0.733,0-1.324,0.591-1.324,1.324v1.893h-1.131v-6.89H411.656z"/>
			<g clip-path="url(#SVGID_4_)">
				<path fill="#010101" d="M411.707,292.243h-1.236l-0.051-1.943c0-0.693-0.494-1.239-1.152-1.273
					c-0.767,0-1.338,0.571-1.338,1.273v1.893l-1.181,0.051l-0.05-6.941l4.957-0.051L411.707,292.243L411.707,292.243z
					 M409.204,288.925c0.781,0.037,1.318,0.628,1.318,1.375v1.893l1.084-0.046v-6.844l-4.857,0.048l0.052,6.842l1.079-0.048
					l-0.052-1.844C407.828,289.544,408.445,288.925,409.204,288.925L409.204,288.925z"/>
			</g>
			<polygon clip-path="url(#SVGID_4_)" fill="#C82127" points="393.833,292.192 393.833,295.11 400.859,295.11 407.886,295.11 
				407.886,292.192 406.553,292.192 406.553,293.314 404.783,293.314 404.783,292.192 402.408,292.192 402.408,293.314 
				400.859,293.314 399.31,293.314 399.31,292.192 396.934,292.192 396.934,293.314 395.163,293.314 395.163,292.192 			"/>
			<g clip-path="url(#SVGID_4_)">
				<path fill="#010101" d="M407.936,295.161h-14.103l-0.05-2.969l1.38-0.048l0.051,1.17l1.72-0.048l-0.05-1.074l2.426-0.048
					l0.05,1.17l3.048-0.048l-0.049-1.074l2.424-0.048l0.051,1.17l1.719-0.048l-0.051-1.074l1.384-0.048L407.936,295.161
					L407.936,295.161z M395.113,292.192l-1.28,0.051l0.05,2.867l13.951-0.051v-2.867l-1.281,0.051l0.051,1.071l-1.82,0.051
					l-0.05-1.173l-2.325,0.051l0.051,1.071l-3.149,0.051l-0.051-1.173l-2.325,0.051l0.05,1.071l-1.821,0.051L395.113,292.192
					L395.113,292.192z"/>
			</g>
			<rect x="406.371" y="284.367" clip-path="url(#SVGID_4_)" fill="#C82127" width="5.713" height="0.935"/>
			<g clip-path="url(#SVGID_4_)">
				<path fill="#010101" d="M412.133,285.351h-5.762l-0.049-0.983l5.762-0.048L412.133,285.351L412.133,285.351z M412.033,284.367
					l-5.662,0.048l0.051,0.887l5.611-0.051V284.367L412.033,284.367z"/>
			</g>
			<polygon clip-path="url(#SVGID_4_)" fill="#C82127" points="412.815,282.58 412.815,284.367 405.961,284.367 405.961,282.58 
				407.018,282.58 407.018,283.487 408.293,283.487 408.293,282.58 410.24,282.58 410.24,283.487 411.517,283.487 411.517,282.58 
							"/>
			<g clip-path="url(#SVGID_4_)">
				<path fill="#010101" d="M412.866,284.416h-6.905l-0.05-1.835l1.106-0.051l0.05,0.958l1.226-0.048l-0.049-0.858l1.996-0.051
					l0.049,0.958l1.228-0.048l-0.051-0.858l1.35-0.051L412.866,284.416L412.866,284.416z M406.968,282.58l-1.007,0.048l0.049,1.739
					l6.756-0.048v-1.739l-1.249,0.048l0.05,0.858l-1.326,0.051l-0.051-0.958l-1.896,0.048l0.051,0.858l-1.326,0.051L406.968,282.58
					L406.968,282.58z"/>
			</g>
			<rect x="400.283" y="314.806" clip-path="url(#SVGID_4_)" fill="#F0D82F" width="0.974" height="9.776"/>
			<g clip-path="url(#SVGID_4_)">
				<path fill="#010101" d="M401.309,324.633h-1.025l-0.05-9.827l1.024-0.052L401.309,324.633L401.309,324.633z M401.207,314.806
					l-0.924,0.051l0.05,9.726l0.874-0.045V314.806L401.207,314.806z"/>
			</g>
			<path clip-path="url(#SVGID_4_)" fill="#C82127" d="M395.523,296.008v10.612h2.51v-3.972c0-1.873,1.25-2.754,2.826-2.754
				c1.514,0,2.826,0.881,2.826,2.754v3.972h2.51v-10.612h-5.336H395.523z"/>
			<g clip-path="url(#SVGID_4_)">
				<path fill="#010101" d="M406.195,306.671h-2.51l-0.051-4.022c0-1.995-1.496-2.706-2.775-2.706c-1.713,0-2.776,1.037-2.776,2.706
					v3.972l-2.56,0.051l-0.05-10.663l10.722-0.051l0.049,10.663C406.244,306.648,406.224,306.671,406.195,306.671L406.195,306.671z
					 M400.859,299.847c1.326,0,2.875,0.733,2.875,2.802v3.972l2.41-0.048v-10.564l-10.621,0.051l0.05,10.561l2.459-0.048
					l-0.05-3.924C397.983,300.917,399.085,299.847,400.859,299.847L400.859,299.847z"/>
			</g>
		</g>
	</g>
</g>
</svg>
