<?xml version="1.0" encoding="utf-8"?>
<!-- Generator: Adobe Illustrator 16.0.0, SVG Export Plug-In . SVG Version: 6.00 Build 0)  -->
<!DOCTYPE svg PUBLIC "-//W3C//DTD SVG 1.1//EN" "http://www.w3.org/Graphics/SVG/1.1/DTD/svg11.dtd">
<svg version="1.1" id="name" xmlns="http://www.w3.org/2000/svg" xmlns:xlink="http://www.w3.org/1999/xlink" x="0px" y="0px"
	 width="85.71px" height="50px" viewBox="358 276 85.71 50" enable-background="new 358 276 85.71 50" xml:space="preserve">
<g id="gq">
	<g>
		<defs>
			<rect id="SVGID_1_" x="358" y="276" width="85.71" height="50"/>
		</defs>
		<clipPath id="SVGID_2_">
			<use xlink:href="#SVGID_1_"  overflow="visible"/>
		</clipPath>
		<rect x="358" y="276" clip-path="url(#SVGID_2_)" fill="#559C44" width="85.71" height="16.788"/>
		<rect x="358" y="292.788" clip-path="url(#SVGID_2_)" fill="#FFFFFF" width="85.71" height="16.427"/>
		<rect x="358" y="309.215" clip-path="url(#SVGID_2_)" fill="#D1202B" width="85.71" height="16.785"/>
		<g clip-path="url(#SVGID_2_)">
			<defs>
				<rect id="SVGID_3_" x="358" y="276" width="85.71" height="50"/>
			</defs>
			<clipPath id="SVGID_4_">
				<use xlink:href="#SVGID_3_"  overflow="visible"/>
			</clipPath>
			<path clip-path="url(#SVGID_4_)" fill="#CACACA" d="M391.811,296.146v8.026c0,0.64,0.412,1.281,1.236,1.281h1.65
				c0.412,0,0.824,0.643,0.824,0.643s0.395-0.643,0.826-0.643h1.648c0.826,0,1.238-0.642,1.238-1.281v-8.026H391.811z"/>
			<g clip-path="url(#SVGID_4_)">
				<path fill="#010101" d="M395.524,306.175l-0.035-0.057c-0.006-0.006-0.406-0.622-0.791-0.622h-1.65
					c-0.877,0-1.279-0.688-1.279-1.324v-8.026l7.467-0.042l0.041,8.068c0,0.637-0.398,1.324-1.279,1.324h-1.648
					c-0.402,0-0.787,0.616-0.789,0.622L395.524,306.175L395.524,306.175z M399.192,296.146l-7.381,0.04l0.041,7.986
					c0,0.597,0.375,1.242,1.195,1.242h1.65c0.363,0,0.713,0.448,0.824,0.607c0.107-0.159,0.449-0.607,0.826-0.607h1.648
					c0.822,0,1.195-0.646,1.195-1.242V296.146L399.192,296.146z"/>
			</g>
			<path clip-path="url(#SVGID_4_)" fill="#CACACA" d="M390.086,304.812c-0.422,0-0.838-0.321-0.838-0.64v-1.607
				c0.363,0.281,2.074,1.283,1.66,1.607c-0.416,0.318-0.836,0-0.83,0C390.086,304.172,390.086,304.812,390.086,304.812
				L390.086,304.812z"/>
			<g clip-path="url(#SVGID_4_)">
				<path fill="#010101" d="M390.127,304.854h-0.041c-0.443,0-0.879-0.338-0.879-0.682v-1.607c0.141,0.025,0.266,0.11,0.418,0.213
					c0.697,0.469,1.379,0.951,1.389,1.262c0.002,0.064-0.027,0.121-0.08,0.164c-0.285,0.222-0.703,0.113-0.838,0.028
					c0.031,0.077,0.031,0.278,0.031,0.58V304.854L390.127,304.854z M389.223,302.598l0.068,1.574c0,0.284,0.373,0.577,0.754,0.597
					c0-0.136-0.002-0.551-0.006-0.591c0.09-0.02,0.26,0.094,0.469,0.094c0.133,0,0.26-0.045,0.375-0.137
					c0.033-0.025,0.047-0.054,0.047-0.094c-0.01-0.293-0.85-0.857-1.352-1.195C389.424,302.743,389.297,302.654,389.223,302.598
					L389.223,302.598z"/>
			</g>
			<path clip-path="url(#SVGID_4_)" fill="#CACACA" d="M390.079,304.172c0.414-0.324,0.414,0.318,0.83,0l-0.416,1.924
				c-0.4-0.061-0.416,0-0.648-0.321C389.844,305.453,389.844,304.428,390.079,304.172L390.079,304.172z"/>
			<path clip-path="url(#SVGID_4_)" fill="#CACACA" d="M400.915,304.812c0.419,0,0.835-0.321,0.835-0.64v-1.607
				c-0.361,0.281-2.074,1.283-1.66,1.607c0.414,0.318,0.838,0,0.83,0C400.915,304.172,400.915,304.812,400.915,304.812
				L400.915,304.812z"/>
			<g clip-path="url(#SVGID_4_)">
				<path fill="#010101" d="M400.915,304.854l-0.043-0.042c0-0.304,0.004-0.506,0.004-0.597c-0.078,0.116-0.521,0.21-0.811-0.012
					c-0.055-0.043-0.082-0.1-0.08-0.164c0.01-0.311,0.693-0.793,1.39-1.262c0.15-0.103,0.277-0.188,0.348-0.244l0.068,1.639
					C401.791,304.516,401.357,304.854,400.915,304.854L400.915,304.854z M400.891,304.141c0.055,0.071,0.062,0.492,0.062,0.628
					c0.38-0.02,0.753-0.312,0.753-0.597v-1.607c-0.006,0.09-0.131,0.179-0.287,0.281c-0.5,0.338-1.341,0.902-1.351,1.195
					c-0.002,0.04,0.014,0.068,0.047,0.094C400.409,304.362,400.852,304.178,400.891,304.141L400.891,304.141z"/>
			</g>
			<path clip-path="url(#SVGID_4_)" fill="#CACACA" d="M400.858,304.172c-0.416-0.324-0.416,0.318-0.832,0l0.416,1.924
				c0.402-0.061,0.416,0,0.648-0.321C401.09,305.453,401.09,304.428,400.858,304.172L400.858,304.172z"/>
			<path clip-path="url(#SVGID_4_)" fill="#CACACA" d="M397.125,307.059c-0.002-0.321-0.828-0.963-0.828-1.284
				s0.828,0.321,2.486,0.321s2.488-1.605,2.074-1.924c0.414,0.64,0.414,1.281,0.414,1.603c0,0.642-0.83,1.284-2.488,1.284H397.125z"
				/>
			<g clip-path="url(#SVGID_4_)">
				<path fill="#010101" d="M398.784,307.102h-1.658c-0.043-0.188-0.248-0.427-0.445-0.654c-0.219-0.256-0.426-0.496-0.426-0.673
					c0-0.085,0.104-0.167,0.553-0.037c0.396,0.12,1.064,0.318,1.977,0.318c1.01,0,1.594-0.594,1.799-0.85
					c0.24-0.304,0.375-0.647,0.328-0.863c-0.027-0.049-0.057-0.1-0.09-0.151c0.119-0.02,0.152,0.049,0.17,0.129l-0.074,0.027
					c0.396,0.562,0.396,1.125,0.396,1.427C401.312,306.414,400.522,307.102,398.784,307.102L398.784,307.102z M396.395,305.729
					c-0.057,0.193,0.15,0.43,0.35,0.662c0.217,0.253,0.422,0.492,0.422,0.668l1.617-0.043c1.68,0,2.445-0.645,2.445-1.241
					c0-0.29,0-0.823-0.294-1.39c0.097,0.217-0.037,0.562-0.287,0.873c-0.209,0.267-0.818,0.881-1.863,0.881
					c-0.924,0-1.598-0.199-2.004-0.318C396.602,305.766,396.471,305.729,396.395,305.729L396.395,305.729z"/>
			</g>
			<path clip-path="url(#SVGID_4_)" fill="#CACACA" d="M393.809,307.059c0-0.321,0.83-0.963,0.83-1.284s-0.83,0.321-2.488,0.321
				s-2.486-1.605-2.072-1.924c-0.414,0.64-0.414,1.281-0.414,1.603c0,0.642,0.828,1.284,2.486,1.284H393.809z"/>
			<g clip-path="url(#SVGID_4_)">
				<path fill="#010101" d="M393.852,307.102h-1.701c-1.736,0-2.527-0.688-2.527-1.327c0-0.302,0-0.864,0.322-1.458
					c0.016-0.076,0.053-0.139,0.107-0.182c0.027,0.111-0.004,0.162-0.031,0.217l-0.072-0.029c0.033,0.242,0.162,0.583,0.404,0.884
					c0.203,0.256,0.787,0.85,1.797,0.85c0.91,0,1.578-0.198,1.979-0.318c0.447-0.13,0.551-0.048,0.551,0.037
					c0,0.177-0.207,0.417-0.426,0.671c-0.199,0.229-0.402,0.469-0.402,0.613V307.102L393.852,307.102z M389.942,304.32
					c-0.236,0.607-0.236,1.158-0.236,1.454c0,0.597,0.766,1.241,2.445,1.241h1.621c0.027-0.17,0.219-0.392,0.42-0.625
					c0.199-0.232,0.404-0.469,0.404-0.616c-0.135-0.046-0.264-0.009-0.443,0.046c-0.404,0.119-1.08,0.318-2.002,0.318
					c-1.047,0-1.652-0.614-1.863-0.881C390.024,304.931,389.889,304.562,389.942,304.32L389.942,304.32z"/>
			</g>
			<path clip-path="url(#SVGID_4_)" fill="#CACACA" d="M393.809,306.737c0-0.321,0.83-0.642,0.83-0.963v1.605h-0.83V306.737z"/>
			<path clip-path="url(#SVGID_4_)" fill="#CACACA" d="M397.124,306.737c0-0.321-0.826-0.642-0.826-0.963v1.605h0.826V306.737z"/>
			<path clip-path="url(#SVGID_4_)" fill="#CACACA" d="M393.809,306.737c0,0.321,3.316,0.321,3.316,0v1.284
				c0,0.321-3.316,0.321-3.316,0V306.737z"/>
			<g clip-path="url(#SVGID_4_)">
				<path fill="#010101" d="M395.467,308.306c-0.4,0-1.699-0.022-1.699-0.284v-1.284c0.084,0.083,0.658,0.202,1.699,0.202
					s1.617-0.119,1.617-0.202c0.004,0.015,0.004,0.028,0.002,0.037l0.08,1.247C397.167,308.283,395.866,308.306,395.467,308.306
					L395.467,308.306z M393.768,306.749l0.084,1.272c0,0.082,0.574,0.199,1.615,0.199s1.617-0.117,1.617-0.199v-1.236
					c-0.076,0.217-1.242,0.236-1.617,0.236C395.073,307.021,393.801,306.999,393.768,306.749L393.768,306.749z"/>
			</g>
			<g clip-path="url(#SVGID_4_)">
				<path fill="#010101" d="M395.467,307.021c-0.438,0-0.844-0.022-1.146-0.062c-0.49-0.062-0.553-0.15-0.553-0.222
					c0-0.179,0.209-0.344,0.43-0.515c0.197-0.15,0.398-0.307,0.398-0.448c-0.057-0.071-0.234-0.017-0.443,0.046
					c-0.404,0.116-1.08,0.318-2.002,0.318c-1.227,0-1.979-0.864-2.164-1.41c-0.094-0.272-0.068-0.488,0.066-0.594
					c0.232-0.179,0.361-0.079,0.465,0c0.104,0.08,0.184,0.146,0.363,0l0.053,0.068c-0.232,0.18-0.363,0.08-0.467,0
					c-0.1-0.076-0.178-0.143-0.363,0c-0.102,0.08-0.117,0.268-0.039,0.5c0.18,0.523,0.902,1.353,2.086,1.353
					c0.91,0,1.578-0.198,1.979-0.318c0.275-0.082,0.43-0.125,0.506-0.067l0.018,0.014l0.027,0.091c0,0.182-0.209,0.344-0.432,0.515
					c-0.195,0.152-0.396,0.309-0.396,0.448c0,0.083,0.574,0.202,1.615,0.202s1.615-0.119,1.615-0.202
					c0-0.14-0.203-0.296-0.398-0.448c-0.221-0.171-0.43-0.333-0.43-0.515l0.047-0.104c0.076-0.058,0.229-0.012,0.506,0.067
					c0.396,0.12,1.064,0.318,1.977,0.318c1.182,0,1.906-0.829,2.086-1.353c0.078-0.232,0.064-0.42-0.037-0.5
					c-0.186-0.139-0.266-0.076-0.363,0c-0.105,0.08-0.236,0.18-0.469,0c0.232,0.071,0.314,0.012,0.416-0.068
					c0.104-0.079,0.234-0.179,0.467,0c0.132,0.105,0.158,0.321,0.064,0.594c-0.184,0.546-0.938,1.41-2.164,1.41
					c-0.924,0-1.598-0.202-2.004-0.318c-0.207-0.062-0.387-0.117-0.43-0.083c-0.012,0.179,0.191,0.335,0.387,0.485
					c0.221,0.171,0.43,0.336,0.43,0.515C397.167,306.999,395.866,307.021,395.467,307.021L395.467,307.021z"/>
			</g>
			<polygon clip-path="url(#SVGID_4_)" fill="#010101" points="400.577,306.519 400.151,305.806 400.223,305.777 400.651,306.49 			
				"/>
			<path clip-path="url(#SVGID_4_)" fill="#010101" d="M400.309,306.365l0.088-0.003c0.025,0.085,0.025,0.156,0.004,0.214
				c-0.021,0.053-0.062,0.094-0.123,0.113c-0.062,0.02-0.121,0.02-0.176,0.002c-0.057-0.02-0.107-0.057-0.16-0.11
				c-0.051-0.054-0.094-0.116-0.127-0.188c-0.037-0.077-0.061-0.145-0.064-0.21s0.008-0.122,0.035-0.162
				c0.029-0.045,0.068-0.076,0.121-0.094c0.057-0.018,0.115-0.018,0.174,0.009c0.057,0.022,0.109,0.067,0.16,0.13l-0.064,0.046
				c-0.041-0.048-0.078-0.079-0.117-0.097c-0.037-0.017-0.074-0.017-0.115-0.002c-0.043,0.014-0.074,0.039-0.092,0.076
				s-0.02,0.08-0.008,0.131c0.01,0.048,0.027,0.096,0.051,0.145c0.031,0.062,0.064,0.117,0.102,0.159
				c0.037,0.04,0.076,0.068,0.119,0.083c0.041,0.011,0.08,0.014,0.115,0c0.043-0.015,0.072-0.043,0.086-0.083
				C400.333,306.482,400.329,306.428,400.309,306.365L400.309,306.365z"/>
			<polygon clip-path="url(#SVGID_4_)" fill="#010101" points="399.79,306.854 399.51,306.096 399.59,306.076 399.87,306.834 			"/>
			<polygon clip-path="url(#SVGID_4_)" fill="#010101" points="399.264,306.939 399.19,306.24 398.983,306.254 398.973,306.164 
				399.469,306.127 399.479,306.221 399.272,306.234 399.346,306.931 			"/>
			<path clip-path="url(#SVGID_4_)" fill="#010101" d="M398.467,306.727l0.078-0.009c0.006,0.04,0.012,0.073,0.025,0.099
				c0.014,0.026,0.035,0.046,0.064,0.061c0.029,0.017,0.061,0.025,0.096,0.025c0.033,0,0.059-0.006,0.084-0.02
				c0.023-0.012,0.043-0.029,0.055-0.049c0.01-0.02,0.016-0.043,0.016-0.068c0-0.022-0.006-0.045-0.016-0.062
				c-0.012-0.02-0.029-0.033-0.057-0.048c-0.018-0.009-0.055-0.021-0.111-0.04c-0.059-0.018-0.098-0.034-0.119-0.049
				c-0.031-0.02-0.055-0.045-0.068-0.073c-0.016-0.031-0.023-0.062-0.023-0.1c0-0.04,0.008-0.077,0.029-0.11
				c0.016-0.034,0.041-0.062,0.076-0.08c0.033-0.017,0.074-0.028,0.117-0.028c0.045,0,0.086,0.012,0.121,0.028
				c0.037,0.02,0.062,0.049,0.082,0.086c0.02,0.033,0.029,0.076,0.031,0.125l-0.078,0.006c-0.006-0.049-0.021-0.089-0.047-0.114
				c-0.021-0.025-0.059-0.037-0.107-0.037s-0.088,0.012-0.109,0.034c-0.023,0.023-0.035,0.051-0.035,0.082
				c0,0.029,0.008,0.055,0.025,0.071c0.016,0.021,0.057,0.04,0.125,0.058c0.066,0.02,0.113,0.036,0.139,0.051
				c0.035,0.022,0.062,0.048,0.08,0.082c0.018,0.031,0.025,0.068,0.025,0.111c0,0.042-0.008,0.082-0.027,0.119
				c-0.018,0.039-0.047,0.068-0.084,0.088c-0.035,0.022-0.074,0.031-0.119,0.031c-0.057,0-0.105-0.012-0.143-0.031
				c-0.039-0.02-0.068-0.055-0.09-0.097C398.479,306.828,398.467,306.78,398.467,306.727L398.467,306.727z"/>
			<path clip-path="url(#SVGID_4_)" fill="#010101" d="M398.241,306.181l0.082,0.003l-0.023,0.457
				c-0.004,0.08-0.016,0.143-0.033,0.188c-0.018,0.049-0.043,0.086-0.082,0.113c-0.039,0.029-0.088,0.041-0.15,0.037
				c-0.057,0-0.105-0.014-0.141-0.042c-0.035-0.026-0.061-0.065-0.074-0.114c-0.012-0.051-0.018-0.116-0.012-0.201l0.025-0.455
				l0.082,0.004l-0.025,0.457c-0.004,0.068-0.002,0.119,0.006,0.153c0.008,0.031,0.025,0.057,0.049,0.073
				c0.023,0.021,0.053,0.029,0.088,0.031c0.061,0.004,0.107-0.014,0.135-0.048c0.029-0.034,0.043-0.1,0.051-0.198L398.241,306.181z"
				/>
			<path clip-path="url(#SVGID_4_)" fill="#010101" d="M397.217,306.712l0.074-0.015c0.004,0.061,0.012,0.103,0.027,0.125
				c0.016,0.023,0.039,0.035,0.066,0.035c0.02,0,0.041-0.006,0.055-0.018s0.025-0.028,0.031-0.051
				c0.006-0.021,0.008-0.055,0.008-0.1v-0.546h0.082v0.54c0,0.068-0.004,0.116-0.02,0.156c-0.012,0.037-0.031,0.062-0.059,0.082
				c-0.029,0.018-0.061,0.029-0.098,0.029c-0.053,0-0.096-0.021-0.125-0.061C397.229,306.848,397.215,306.791,397.217,306.712
				L397.217,306.712z"/>
			<path clip-path="url(#SVGID_4_)" fill="#010101" d="M395.807,308.036v-0.11l0.322-0.574c0.021-0.04,0.043-0.074,0.064-0.105
				h-0.352v-0.105h0.449v0.105l-0.352,0.622l-0.037,0.062h0.4v0.105H395.807z"/>
			<polygon clip-path="url(#SVGID_4_)" fill="#010101" points="391.241,306.937 391.44,306.056 391.518,306.07 391.321,306.947 			
				"/>
			<polygon clip-path="url(#SVGID_4_)" fill="#010101" points="390.352,306.59 390.868,305.8 390.942,305.834 390.829,306.581 
				391.233,305.962 391.303,305.993 390.788,306.78 390.711,306.749 390.829,305.999 390.422,306.621 			"/>
			<path clip-path="url(#SVGID_4_)" fill="#010101" d="M390.795,305.709l0.059,0.049l-0.443,0.366
				c-0.078,0.062-0.145,0.11-0.199,0.14c-0.057,0.027-0.113,0.045-0.166,0.048c-0.057,0-0.105-0.015-0.146-0.052
				c-0.041-0.033-0.062-0.073-0.064-0.116c-0.004-0.04,0.014-0.085,0.051-0.134c0.035-0.048,0.094-0.104,0.176-0.173l0.443-0.366
				l0.061,0.048l-0.443,0.366c-0.068,0.055-0.113,0.1-0.139,0.131c-0.023,0.031-0.037,0.062-0.037,0.092
				c0.002,0.027,0.014,0.051,0.039,0.073c0.043,0.034,0.092,0.046,0.143,0.034c0.053-0.014,0.127-0.06,0.225-0.139L390.795,305.709z
				"/>
			<path clip-path="url(#SVGID_4_)" fill="#010101" d="M391.68,307.004l0.031-0.895l0.217,0.006c0.049,0,0.086,0.006,0.111,0.014
				c0.035,0.015,0.064,0.037,0.088,0.066c0.031,0.042,0.057,0.094,0.07,0.156s0.02,0.133,0.018,0.213
				c-0.004,0.068-0.01,0.127-0.023,0.182c-0.014,0.051-0.027,0.094-0.049,0.128c-0.018,0.034-0.035,0.06-0.059,0.079
				c-0.021,0.02-0.045,0.034-0.076,0.043c-0.029,0.012-0.062,0.014-0.1,0.014L391.68,307.004z M391.768,306.902h0.133
				c0.041,0.003,0.076-0.003,0.098-0.012c0.025-0.012,0.043-0.028,0.059-0.045c0.02-0.029,0.037-0.065,0.051-0.113
				c0.012-0.049,0.02-0.105,0.02-0.174c0.006-0.091-0.004-0.165-0.023-0.213c-0.02-0.051-0.045-0.088-0.074-0.105
				c-0.021-0.014-0.059-0.02-0.107-0.02l-0.133-0.003L391.768,306.902z"/>
			<path clip-path="url(#SVGID_4_)" fill="#010101" d="M392.26,307.01l0.242-0.895h0.088l0.258,0.895h-0.096l-0.074-0.272h-0.262
				l-0.068,0.272H392.26z M392.44,306.641h0.213l-0.066-0.247c-0.02-0.073-0.033-0.136-0.043-0.185
				c-0.008,0.06-0.02,0.113-0.033,0.17L392.44,306.641z"/>
			<path clip-path="url(#SVGID_4_)" fill="#010101" d="M392.913,307.01v-0.895h0.217c0.049,0,0.086,0.003,0.111,0.014
				c0.037,0.01,0.064,0.031,0.092,0.062c0.033,0.041,0.059,0.092,0.074,0.154s0.023,0.133,0.023,0.213
				c0,0.068-0.004,0.128-0.016,0.179c-0.012,0.054-0.025,0.097-0.041,0.131c-0.02,0.034-0.039,0.062-0.059,0.083
				c-0.02,0.02-0.045,0.033-0.074,0.045c-0.031,0.012-0.062,0.014-0.102,0.014H392.913z M392.997,306.905h0.133
				c0.041,0,0.074-0.006,0.098-0.017c0.023-0.012,0.043-0.026,0.057-0.046c0.02-0.028,0.033-0.065,0.045-0.114
				c0.012-0.045,0.018-0.104,0.018-0.173c0-0.094-0.012-0.165-0.033-0.216s-0.047-0.086-0.078-0.1
				c-0.023-0.014-0.057-0.02-0.107-0.02h-0.131V306.905z"/>
			<path clip-path="url(#SVGID_4_)" fill="#010101" d="M394.69,308.036v-0.896h0.236c0.041,0,0.072,0.003,0.094,0.009
				c0.031,0.009,0.057,0.022,0.078,0.042c0.02,0.021,0.037,0.049,0.049,0.086c0.014,0.037,0.02,0.08,0.02,0.122
				c0,0.077-0.018,0.14-0.051,0.193s-0.096,0.079-0.186,0.079h-0.158v0.364H394.69z M394.772,307.567h0.162
				c0.055,0,0.09-0.015,0.113-0.043s0.035-0.068,0.035-0.122c0-0.037-0.006-0.068-0.021-0.094c-0.014-0.028-0.031-0.045-0.051-0.055
				c-0.014-0.005-0.041-0.008-0.08-0.008h-0.158V307.567z"/>
			<path clip-path="url(#SVGID_4_)" fill="#010101" d="M395.204,308.036l0.242-0.896h0.088l0.256,0.896h-0.094l-0.072-0.271h-0.264
				l-0.068,0.271H395.204z M395.385,307.67h0.213l-0.066-0.248c-0.02-0.076-0.033-0.139-0.043-0.188
				c-0.01,0.057-0.021,0.117-0.035,0.174L395.385,307.67z"/>
			<path clip-path="url(#SVGID_4_)" fill="#010101" d="M400.764,306.447l-0.418-0.764l0.064-0.04l0.787,0.543l-0.07,0.042
				l-0.232-0.167l-0.197,0.116l0.131,0.23L400.764,306.447z M400.653,306.098l0.156-0.096l-0.213-0.154
				c-0.064-0.045-0.117-0.082-0.156-0.113c0.031,0.046,0.062,0.094,0.088,0.14L400.653,306.098z"/>
			<path clip-path="url(#SVGID_4_)" fill="#612E12" d="M395.405,300.43c0,0.48,0.287,1.91-0.541,4.131
				c-0.061,0.161,0.102,0.238,0.236,0.272s0.203-0.137,0.203-0.17c0-0.035,0.033,0.272,0.17,0.238
				c0.135-0.034,0.27-0.238,0.27-0.238s0.068,0.307,0.24,0.307c0.168,0,0.168-0.375,0.168-0.375c0,0.033,0.119,0.324,0.252,0.324
				c0.137,0,0.344-0.129,0.225-0.336c-0.861-1.461-0.816-3.878-0.816-4.154c0-0.27,0.402-0.767,0.799-0.778l-0.154-0.242
				c-0.102,0.029-0.219,0.051-0.422,0.222c-0.205,0.171-0.324,0.358-0.324,0.358v-1.162h-0.338l0.033,1.057
				c0,0-0.115-0.136-0.289-0.29c-0.164-0.142-0.461-0.131-0.643-0.103l-0.016,0.233c0.215,0.046,0.488-0.045,0.625,0.159
				C395.252,300.058,395.405,300.194,395.405,300.43L395.405,300.43z"/>
			<g clip-path="url(#SVGID_4_)">
				<path fill="#010101" d="M395.983,305.014c-0.156,0-0.234-0.191-0.266-0.287c-0.021,0.073-0.125,0.189-0.232,0.219
					c-0.137,0.022-0.168-0.092-0.195-0.174c-0.016,0.06-0.088,0.111-0.154,0.111l0,0c-0.137-0.029-0.258-0.077-0.307-0.168
					c-0.025-0.051-0.027-0.107-0.006-0.168c0.697-1.866,0.604-3.185,0.557-3.818c-0.01-0.125-0.016-0.222-0.016-0.298
					c0-0.205-0.125-0.33-0.281-0.486c-0.117-0.156-0.262-0.159-0.412-0.162c-0.078,0-0.152,0-0.223-0.014l-0.016-0.276
					c0.334-0.165,0.572-0.051,0.713,0.074c0.176,0.154,0.291,0.293,0.291,0.293l-0.105-1.028l0.379-0.046l0.039,1.108
					c0.037-0.077,0.131-0.188,0.256-0.293c0.193-0.162,0.312-0.196,0.41-0.224l0.23,0.252c-0.4,0.077-0.791,0.554-0.791,0.801
					c-0.008,1.753,0.287,3.245,0.811,4.134c0.064,0.11,0.043,0.195,0.012,0.247c-0.057,0.099-0.18,0.15-0.273,0.15
					c-0.105,0-0.193-0.122-0.244-0.225C396.165,304.859,396.114,305.014,395.983,305.014L395.983,305.014z M395.709,304.641
					c0.092,0.092,0.162,0.29,0.273,0.29c0.094,0,0.125-0.228,0.125-0.335c0.09,0.039,0.201,0.281,0.295,0.281
					c0.068,0,0.162-0.04,0.201-0.105c0.027-0.049,0.023-0.105-0.012-0.164c-0.727-1.234-0.828-3.12-0.822-4.134
					c0-0.333,0.414-0.85,0.838-0.864l-0.188-0.179c-0.078,0.054-0.184,0.085-0.359,0.233c-0.197,0.168-0.314,0.347-0.316,0.347
					l-0.002-0.028c-0.016-0.011-0.016-0.034-0.004-0.068l-0.07-1.085l-0.297,0.042l0.074,1.014c-0.07,0.026-0.188-0.105-0.357-0.256
					c-0.174-0.153-0.449-0.119-0.605-0.094l0.016,0.193c0.031-0.028,0.104-0.028,0.172-0.028c0.168,0,0.34,0.006,0.447,0.165
					c0.18,0.179,0.328,0.324,0.328,0.565c0.002,0.077,0.008,0.173,0.016,0.29c0.047,0.639,0.143,1.971-0.559,3.858
					c0.027,0.148,0.1,0.19,0.207,0.217c0.119-0.006,0.15-0.114,0.15-0.131c0.127,0.182,0.174,0.201,0.193,0.201
					C395.561,304.84,395.674,304.695,395.709,304.641L395.709,304.641z"/>
			</g>
			<path clip-path="url(#SVGID_4_)" fill="#3D9444" d="M392.967,299.109v-0.012c0,0.029-0.002,0.015,0.018-0.04
				c0.014-0.042,0.049-0.08,0.082-0.111c0.061-0.014,0.148,0,0.215-0.011c0.045-0.048,0.115,0.062,0.115-0.011
				c0.088-0.006,0.088-0.068,0.117-0.103c0.082-0.006,0.1-0.08,0.166-0.034c0.055,0.017,0.006-0.014,0.1-0.014
				c0.053,0.009,0.082,0.034,0.131,0.014c0.014-0.042,0.029-0.097,0.035-0.15c-0.023-0.037-0.018-0.108-0.018-0.162
				c0.045-0.045,0.125,0.037,0.199,0.026c0.02-0.054,0.082-0.051,0.049-0.1c-0.006-0.06-0.021-0.097,0-0.162
				c0.025-0.054,0.064-0.051,0.133-0.085c0.021-0.048-0.002-0.091,0.018-0.151c0.078-0.003,0.076-0.017,0.082-0.074
				c0.025-0.04,0.057-0.08,0.1-0.114c0.039-0.034,0.084-0.028,0.115-0.085c0.025-0.048,0.025-0.071,0.1-0.088
				c0.055-0.017,0.098-0.02,0.133-0.048c0.033-0.045,0.064-0.082,0.117-0.139c0.051-0.025,0.301,0.029,0.379,0.029
				c0.043-0.043,0.107-0.105,0.15-0.125c0.07-0.029,0.098-0.037,0.199-0.037c0.084,0.017,0.119,0.04,0.215,0.022
				c0.037-0.04,0.078-0.057,0.166-0.037c0.068,0.034,0.105,0.031,0.131,0.088c0.041,0.068,0.031,0.094,0.133,0.1
				c0.104,0.003,0.115,0.022,0.184,0.062c0.104,0.031,0.1,0.014,0.1,0.085c0.074,0,0.08-0.005,0.082,0.051
				c0.047,0.011,0.098,0.04,0.131,0.062c0.043,0.034,0.055,0.057,0.152,0.06c0.07-0.022,0.094-0.022,0.098-0.085
				c0.055-0.014,0.062-0.054,0.084-0.1c0.041-0.045,0.068-0.051,0.164-0.051c0.086,0.029,0.082,0.054,0.068,0.114
				c0.051,0.009,0.074,0.003,0.082,0.048c0.027,0.037,0.02,0.08-0.018,0.1c0.043,0.022,0.068,0.062,0.084,0.111
				c-0.029,0.037-0.012,0.088,0,0.125c0.057,0.022,0.088,0.042,0.166,0.062c0.037,0.025,0.123,0.051,0.197,0.062
				c0.09-0.009,0.119-0.009,0.199,0.025c0.041,0.042,0.045,0.1,0.082,0.125c0.045,0.025,0.115,0.037,0.15,0.074
				c0.055,0.029,0.07,0.065,0.146,0.074c0.031,0.031,0.094,0.088,0.119,0.125c0.018,0.037,0.025,0.108,0.049,0.162v0.173
				c-0.002,0.062-0.016,0.103-0.016,0.173c-0.016,0.034-0.033,0.048-0.033,0.1c-0.033,0.051-0.059,0.097-0.102,0.136
				c-0.018,0.062-0.049,0.094-0.082,0.148c0.002,0.065,0.018,0.097,0.018,0.162c-0.037,0.04-0.078,0.068-0.15,0.1
				c-0.053,0.048-0.086,0.065-0.1,0.136c-0.031,0.04-0.027,0.037-0.098,0.037c-0.084,0-0.156,0.008-0.232,0.014
				c-0.068,0-0.094,0.006-0.133-0.025c-0.08-0.029-0.146-0.029-0.23-0.014c-0.049-0.023-0.066-0.034-0.15-0.034
				c-0.062,0.005-0.119,0.011-0.199,0.011c-0.051-0.042-0.076-0.051-0.164-0.051c-0.047,0.017-0.145,0.014-0.217,0.014
				c-0.076-0.017-0.086-0.04-0.117-0.088c-0.051-0.02-0.07-0.045-0.146-0.048c-0.074,0-0.172,0.003-0.217-0.011
				c-0.053-0.009-0.111-0.017-0.15-0.04c-0.029-0.034-0.068-0.065-0.115-0.085c-0.072,0-0.115,0.002-0.148-0.029
				c-0.055-0.031-0.098-0.082-0.166-0.108c-0.061-0.037-0.102-0.06-0.133-0.125c0-0.06,0.016-0.074-0.064-0.077
				c-0.057,0.043-0.082,0.051-0.184,0.051c-0.066,0-0.139,0-0.182-0.011c-0.072-0.031-0.102-0.045-0.182-0.051
				c-0.053,0.025-0.121,0.054-0.199,0.062c-0.066,0.031-0.109,0.037-0.133,0.088c-0.062,0.037-0.1,0.06-0.184,0.085
				c-0.047,0.034-0.09,0.04-0.115,0.1c-0.016,0.051-0.033,0.079-0.033,0.15c0.012,0.065,0.008,0.091-0.033,0.148
				c-0.033,0.037-0.096,0.054-0.148,0.088c-0.082,0.008-0.092,0-0.15-0.025c-0.057-0.014-0.123-0.029-0.197-0.037
				c-0.09-0.011-0.121-0.028-0.166-0.062l0.166,0.062c-0.09-0.011-0.121-0.028-0.166-0.062c-0.102-0.054-0.121-0.083-0.232-0.088
				c-0.104,0.003-0.148,0.006-0.166,0.077c0.059,0.011,0.012,0.037-0.016,0.048c-0.041,0.028-0.107,0.051-0.166,0.062
				c-0.025,0.02-0.021-0.017-0.066-0.026c-0.068-0.025-0.096-0.048-0.166-0.062c-0.033-0.045-0.07-0.08-0.115-0.122
				c-0.035-0.042-0.068-0.06-0.115-0.103c-0.025-0.025-0.084-0.025-0.117-0.048c-0.02-0.046-0.062-0.128-0.049-0.173
				c0.031-0.023,0.051-0.108,0.098-0.123c0.068-0.04,0.094-0.005,0.184,0c0.084,0-0.117-0.102-0.033-0.102
				c0.078-0.008,0.086-0.037,0.117-0.074H392.967z"/>
			<g clip-path="url(#SVGID_4_)">
				<path fill="#010101" d="M394.077,300.013l-0.111-0.031c-0.055-0.014-0.119-0.025-0.191-0.034l-0.098-0.037
					c-0.031,0-0.059-0.014-0.09-0.034c-0.107-0.06-0.129-0.074-0.207-0.08c-0.109,0.003-0.113,0.008-0.123,0.042
					c-0.076,0.103-0.143,0.128-0.215,0.142l-0.148-0.051c-0.033-0.017-0.059-0.025-0.1-0.034c-0.051-0.048-0.076-0.074-0.107-0.105
					l-0.279-0.21c-0.023-0.054-0.061-0.131-0.043-0.185c0.061-0.096,0.084-0.139,0.125-0.153l0.129-0.011l0.105-0.131l0.244-0.034
					c-0.002-0.079,0.047-0.127,0.072-0.15l0.012-0.011l0.406-0.068l0.125-0.077l0.252-0.014c0.049-0.014,0.062-0.06,0.068-0.114
					c-0.02-0.011-0.018-0.074-0.018-0.128v-0.04l0.076-0.042l0.15,0.037c0.012-0.13,0.006-0.173,0.025-0.23
					c0.027-0.062,0.066-0.077,0.105-0.094v-0.006l0.043-0.136l0.082-0.068c0.039-0.071,0.074-0.111,0.115-0.139l0.141-0.054
					l-0.037-0.02c0.031-0.062,0.053-0.091,0.127-0.108l0.143-0.009l-0.035-0.025c0.037-0.045,0.066-0.085,0.121-0.142
					c0.137-0.02,0.213-0.008,0.285,0c0.053,0.009,0.1,0.014,0.125,0.014c0.029-0.042,0.088-0.097,0.131-0.119
					c0.078-0.031,0.109-0.042,0.219-0.042l0.152,0.031c0.061-0.023,0.098-0.054,0.162-0.054l0.129,0.034
					c0.041,0.014,0.082,0.031,0.107,0.088l0.094,0.117l0.002-0.042c0.094,0.002,0.121,0.017,0.174,0.051
					c0.133,0.045,0.148,0.06,0.148,0.131c0.092,0.028,0.139,0.048,0.195,0.085c0.049,0.043,0.061,0.054,0.129,0.054l0.002-0.028
					l0.148-0.145c0.057-0.054,0.098-0.062,0.195-0.062c0.121,0.037,0.129,0.085,0.107,0.167l0.1,0.103
					c-0.006,0.022,0.027,0.068,0.049,0.133v0.12c0.059,0.014,0.088,0.025,0.137,0.04c0.047,0.025,0.125,0.051,0.193,0.06
					c0.115-0.003,0.15,0.006,0.209,0.028l0.016,0.006l0.051,0.159l0.078-0.014c0.037,0.014,0.076,0.031,0.104,0.057l0.014,0.003
					l0.133,0.074c0.072,0.068,0.104,0.103,0.121,0.128l0.057,0.188l-0.055,0.469c-0.033,0.057-0.062,0.103-0.107,0.145
					c-0.004,0.031-0.025,0.062-0.047,0.097v0.003l-0.004,0.179c-0.053,0.074-0.1,0.108-0.178,0.136
					c-0.047,0.049-0.064,0.063-0.072,0.108l-0.006,0.034l-0.111,0.037c0,0,0,0-0.002,0c-0.105,0-0.176,0.006-0.252,0.014
					c-0.084,0-0.119-0.003-0.16-0.034c-0.029-0.008-0.068-0.014-0.109-0.014l-0.115,0.006c-0.049-0.025-0.066-0.034-0.131-0.034
					c-0.061,0.009-0.117,0.014-0.199,0.014c-0.066-0.042-0.082-0.051-0.164-0.051c-0.023,0.011-0.078,0.014-0.135,0.014
					c-0.176-0.02-0.197-0.048-0.227-0.1l-0.119-0.08v0.042c-0.141-0.002-0.193-0.002-0.23-0.017
					c-0.061-0.003-0.117-0.017-0.156-0.037c-0.037-0.042-0.074-0.068-0.113-0.091c-0.08,0.009-0.125,0.003-0.16-0.031
					c-0.088-0.065-0.117-0.085-0.152-0.102c-0.072-0.042-0.119-0.071-0.154-0.145c-0.07-0.005-0.107,0-0.211,0
					c-0.07,0-0.145,0-0.191-0.014c-0.084-0.034-0.105-0.045-0.174-0.048c-0.041,0.026-0.109,0.051-0.193,0.06l-0.006,0.015
					l-0.109,0.068c-0.061,0.04-0.104,0.062-0.191,0.091l-0.129,0.06l0.041,0.014c-0.023,0.062-0.031,0.088-0.031,0.136
					c0.014,0.071,0.004,0.108-0.041,0.173c-0.031,0.034-0.07,0.051-0.107,0.071L394.077,300.013L394.077,300.013z M393.793,299.865
					c0.066,0.008,0.135,0.02,0.195,0.037l0.088,0.068l0.047-0.045l0.152-0.045l-0.033-0.023c0.031-0.048,0.035-0.062,0.025-0.116
					c0-0.071,0.012-0.105,0.023-0.143c0.037-0.088,0.074-0.11,0.107-0.127c0.125-0.054,0.158-0.074,0.219-0.111
					c0.012-0.037,0.053-0.054,0.1-0.074c0.123-0.028,0.186-0.054,0.236-0.077c0.104,0,0.139,0.014,0.201,0.043
					c0.049,0.014,0.119,0.014,0.182,0.014c0.096,0,0.111-0.006,0.156-0.04l0.031-0.022l0.086,0.04
					c0.037,0.125,0.066,0.139,0.119,0.173c0.051,0.02,0.086,0.048,0.119,0.077l0.135,0.06c0.117,0.028,0.162,0.062,0.197,0.099
					c0.016,0.008,0.064,0.02,0.121,0.026c0.039,0.011,0.102,0.011,0.125,0.011c0.15,0.002,0.182,0.02,0.209,0.034l0.143,0.145
					v-0.042c0.105-0.003,0.172,0,0.201-0.009c0.109,0,0.145,0.006,0.207,0.054c0.051-0.008,0.105-0.014,0.168-0.02
					c0.037,0.023,0.113,0.012,0.156,0.034c0.062-0.011,0.156-0.014,0.242,0.017l0.119,0.023c0.074-0.006,0.146-0.012,0.232-0.012
					c0.072-0.079,0.105-0.11,0.148-0.145c0.096-0.054,0.135-0.08,0.168-0.117l-0.023-0.153c0.051-0.077,0.068-0.103,0.08-0.139
					c0.049-0.054,0.07-0.094,0.102-0.142l0.072-0.083l-0.033-0.105l0.006-0.242l-0.006-0.162l-0.035,0.022
					c-0.014-0.02-0.047-0.054-0.072-0.077c-0.078-0.04-0.109-0.06-0.139-0.083l-0.25-0.179c-0.068-0.065-0.094-0.071-0.127-0.071
					c-0.162-0.008-0.25-0.037-0.295-0.065c-0.041-0.009-0.072-0.02-0.107-0.034c-0.09-0.097-0.109-0.162-0.068-0.213
					c-0.021-0.003-0.041-0.031-0.07-0.048l0.053-0.08l-0.139-0.116c-0.119-0.06-0.133-0.054-0.162-0.023
					c-0.014,0.045-0.035,0.094-0.102,0.111c0.023,0.051-0.021,0.065-0.078,0.08c-0.127,0.003-0.156-0.014-0.193-0.048
					c-0.059-0.042-0.1-0.06-0.131-0.068h-0.043l-0.182-0.162c-0.043-0.025-0.057-0.034-0.131-0.034
					c-0.1-0.006-0.123-0.034-0.152-0.091l-0.08-0.08l-0.01,0.011l-0.18,0.009c-0.113,0.005-0.145,0-0.182-0.014
					c-0.135-0.006-0.16-0.003-0.225,0.025c-0.029,0.014-0.088,0.068-0.125,0.105c-0.07,0.02-0.121,0.014-0.178,0.009
					c-0.066-0.012-0.139-0.023-0.191-0.023c-0.072,0.048-0.102,0.085-0.135,0.131l-0.01,0.011l-0.207,0.1
					c-0.037,0.065-0.07,0.082-0.1,0.097c-0.072,0.048-0.1,0.079-0.127,0.125c-0.004,0.062-0.023,0.091-0.119,0.094l-0.006,0.014
					l0.006,0.13l-0.15,0.048l0.039,0.014l0.002,0.142l-0.09,0.145l-0.115-0.022c-0.043,0.022-0.045,0.077-0.033,0.096
					c0.002,0.083-0.014,0.134-0.025,0.179l-0.439,0.028l0.031,0.031c-0.031,0.054-0.059,0.108-0.146,0.114l-0.008,0.008
					l-0.215,0.006c-0.115,0.028-0.141,0.062-0.152,0.091l-0.09,0.031l0.033,0.003l-0.197,0.045
					c-0.004,0.028-0.029,0.065-0.111,0.074l0.088,0.065l-0.145,0.023l-0.123,0.06c-0.043,0.071-0.012,0.139,0.004,0.173l0.088,0.082
					l0.025-0.031l0.09,0.134l0.031-0.031c0.062,0.062,0.092,0.094,0.117,0.128c0.029-0.003,0.057,0.008,0.094,0.025l0.107,0.054
					c0.051-0.02,0.109-0.042,0.141-0.062c0.025-0.131,0.104-0.131,0.205-0.134c0.102,0.009,0.139,0.029,0.197,0.062
					c0.098,0.062,0.121,0.077,0.205,0.088l0,0c0,0,0,0,0,0.003l0,0c0.002,0,0,0-0.004,0H393.793L393.793,299.865z"/>
			</g>
			<g clip-path="url(#SVGID_4_)">
				<path fill="#2E6B35" d="M394.84,298.197c-0.082,0-0.117-0.006-0.17-0.034c-0.037-0.08-0.043-0.094-0.104-0.102h-0.002
					c-0.072,0-0.156-0.034-0.182-0.051l0.051-0.068c0.012,0.009,0.08,0.037,0.139,0.037c0.105,0.017,0.135,0.057,0.158,0.134
					c0.012-0.006,0.033,0,0.109,0c0.078,0.014,0.102,0.034,0.137,0.068l-0.137-0.025V298.197L394.84,298.197z"/>
			</g>
			<g clip-path="url(#SVGID_4_)">
				<path fill="#2E6B35" d="M394.137,298.871c-0.092,0-0.184-0.006-0.215-0.008l0.01-0.083c0.035,0.003,0.16,0.011,0.244,0.011
					c0.025-0.017,0.053-0.034,0.082-0.054c0.15-0.034,0.184-0.029,0.236,0l0.205,0.065l-0.135,0.029
					c-0.041-0.006-0.08-0.009-0.104-0.017c-0.041-0.023-0.062-0.026-0.135-0.026c-0.055,0.04-0.084,0.06-0.131,0.083
					C394.176,298.871,394.157,298.871,394.137,298.871L394.137,298.871z"/>
			</g>
			<g clip-path="url(#SVGID_4_)">
				<path fill="#2E6B35" d="M394.592,298.615l-0.037-0.074c0.021-0.011,0.078-0.04,0.127-0.048c0.039-0.028,0.092-0.045,0.146-0.062
					l0.135-0.022l0.088,0.077l-0.086-0.034l-0.082,0.048c-0.078,0.028-0.127,0.042-0.172,0.068
					C394.667,298.581,394.624,298.601,394.592,298.615L394.592,298.615z"/>
			</g>
			<g clip-path="url(#SVGID_4_)">
				<path fill="#2E6B35" d="M396.088,299.004c-0.037-0.002-0.078-0.008-0.123-0.008c-0.092-0.034-0.15-0.062-0.191-0.1
					c-0.039-0.008-0.082-0.04-0.123-0.071c-0.109-0.065-0.146-0.103-0.199-0.176c-0.031-0.071-0.055-0.136-0.072-0.213l0.049-0.083
					v0.014c0.049,0.122,0.07,0.179,0.096,0.239c0.041,0.057,0.068,0.085,0.131,0.116c0.086,0.065,0.117,0.088,0.156,0.1
					c0.053,0.04,0.102,0.065,0.17,0.094c0.033-0.003,0.076,0,0.115,0.003l0.084,0.042L396.088,299.004L396.088,299.004z"/>
			</g>
			<g clip-path="url(#SVGID_4_)">
				<path fill="#2E6B35" d="M395.795,298.135c0.062-0.105,0.076-0.119,0.121-0.173l0.133-0.108l-0.039-0.017
					c0.025-0.06,0.062-0.125,0.156-0.159c0.008-0.025,0.035-0.068,0.061-0.114l0.057-0.105l0.039,0.062
					c-0.047,0.131-0.076,0.176-0.107,0.219c-0.08,0.037-0.102,0.071-0.127,0.131l-0.107,0.148
					C395.926,298.081,395.901,298.104,395.795,298.135L395.795,298.135z"/>
			</g>
			<g clip-path="url(#SVGID_4_)">
				<path fill="#2E6B35" d="M396.946,298.382c-0.023,0-0.041-0.005-0.053-0.011c-0.016-0.011-0.029-0.023-0.041-0.04
					c-0.004-0.006-0.008-0.015-0.01-0.02l-0.008-0.003c0.004,0.003,0.004,0.003,0.006,0.003c-0.039-0.083-0.039-0.151-0.039-0.216
					c0.01-0.079,0.021-0.156,0.059-0.204l0.125-0.068l-0.014,0.04c-0.066,0.111-0.076,0.176-0.084,0.225
					c-0.002,0.068-0.002,0.136,0.014,0.176c0.047,0.051,0.062,0.071,0.125,0.097c-0.004,0-0.006,0-0.008,0l0.018,0.005
					C396.997,298.376,396.967,298.382,396.946,298.382L396.946,298.382z"/>
			</g>
			<g clip-path="url(#SVGID_4_)">
				<path fill="#2E6B35" d="M397.778,298.609c-0.021,0-0.045,0-0.074-0.003h-0.146l0.148-0.085c0.09,0.006,0.102,0.006,0.189-0.014
					c0.023-0.02,0.059-0.051,0.098-0.085l0.146-0.068l-0.031-0.028l0.088,0.042l-0.102,0.08c-0.09,0.077-0.127,0.105-0.166,0.134
					C397.854,298.601,397.821,298.609,397.778,298.609L397.778,298.609z"/>
			</g>
			<g clip-path="url(#SVGID_4_)">
				<path fill="#2E6B35" d="M398.165,299.581c-0.035,0-0.066-0.006-0.092-0.015c-0.082-0.04-0.137-0.068-0.184-0.116
					c0.1-0.02,0.145,0.006,0.191,0.028c0.07,0.025,0.143,0.025,0.211,0.009l0.1,0.011l-0.006,0.042v-0.042l-0.016,0.042
					C398.284,299.569,398.217,299.581,398.165,299.581L398.165,299.581z"/>
			</g>
			<g clip-path="url(#SVGID_4_)">
				<path fill="#2E6B35" d="M397.764,299.967v-0.017c-0.1-0.051-0.125-0.071-0.172-0.1c-0.121-0.116-0.131-0.15-0.158-0.235
					c-0.018-0.097-0.025-0.154,0.006-0.199l0.068,0.139c0.031,0.117,0.037,0.136,0.096,0.202c0.082,0.057,0.117,0.08,0.15,0.123
					l0.092,0.071L397.764,299.967L397.764,299.967z"/>
			</g>
			<g clip-path="url(#SVGID_4_)">
				<path fill="#2E6B35" d="M396.579,299.751v-0.085c0.035,0,0.166-0.003,0.225-0.014c0.029-0.02,0.074-0.037,0.127-0.06
					c0.057-0.085,0.068-0.114,0.072-0.17c0.08,0.08,0.061,0.119,0.037,0.165l-0.078,0.085c-0.049,0.017-0.09,0.034-0.129,0.057
					C396.754,299.749,396.616,299.751,396.579,299.751L396.579,299.751z"/>
			</g>
			<g clip-path="url(#SVGID_4_)">
				<path fill="none" d="M395.567,299.257c-0.012-0.028-0.068-0.136-0.1-0.196c0-0.065-0.016-0.114-0.016-0.182L395.567,299.257z"/>
			</g>
			<g clip-path="url(#SVGID_4_)">
				<path fill="#2E6B35" d="M393.395,299.785c-0.035,0-0.061-0.002-0.068-0.002l0.01-0.083c0.016,0,0.08,0.003,0.121,0
					c0.066-0.037,0.135-0.042,0.219-0.048l0.113-0.04c0.045-0.026,0.059-0.051,0.08-0.094l0.117-0.088l-0.041,0.125
					c-0.025,0.048-0.047,0.088-0.111,0.131l-0.152,0.051c-0.076,0.003-0.137,0.011-0.199,0.04
					C393.452,299.783,393.42,299.785,393.395,299.785L393.395,299.785z"/>
			</g>
			<g clip-path="url(#SVGID_4_)">
				<path fill="none" d="M394.426,299.513c-0.037,0-0.174,0.003-0.25-0.014c-0.039-0.023-0.066-0.062-0.1-0.091
					c0.021,0,0.016,0.005,0.016-0.014L394.426,299.513z"/>
			</g>
			<g clip-path="url(#SVGID_4_)">
				<path fill="#2E6B35" d="M394.641,299.112l-0.027-0.077l0.01,0.04l-0.008-0.04c0.064-0.02,0.117-0.034,0.158-0.034
					c0.01-0.012,0.059-0.026,0.105-0.045l0.141,0.022l-0.111,0.057c-0.043,0.015-0.088,0.031-0.113,0.046
					C394.752,299.086,394.711,299.092,394.641,299.112L394.641,299.112z"/>
			</g>
			<g clip-path="url(#SVGID_4_)">
				<path fill="#2E6B35" d="M392.706,299.706l-0.09-0.028l0.002-0.04l0.002,0.04l0.016-0.04c0.137-0.02,0.189-0.037,0.244-0.057
					c0.098-0.054,0.172-0.1,0.219-0.123c-0.006,0.097-0.074,0.137-0.121,0.179C392.848,299.68,392.788,299.7,392.706,299.706
					L392.706,299.706z"/>
			</g>
			<g clip-path="url(#SVGID_4_)">
				<path fill="#2E6B35" d="M397.583,299.112c-0.078,0-0.115-0.009-0.158-0.029c-0.07-0.048-0.086-0.06-0.164-0.088
					c-0.049,0-0.084-0.008-0.119-0.02c-0.131-0.025-0.186-0.037-0.244-0.057l-0.117-0.077l0.062-0.034
					c0.137,0.051,0.188,0.06,0.236,0.068c0.119,0.028,0.143,0.037,0.197,0.037c0.102,0.037,0.121,0.048,0.189,0.097
					c0.035,0.014,0.064,0.023,0.141,0.023c0.027-0.017,0.109-0.045,0.154-0.057c-0.018,0.091-0.094,0.117-0.137,0.137
					C397.608,299.112,397.594,299.112,397.583,299.112L397.583,299.112z"/>
			</g>
			<g clip-path="url(#SVGID_4_)">
				<path fill="#010101" d="M395.366,304.649c-0.082-0.079-0.082-0.153-0.105-0.216c0-0.159,0-0.236-0.021-0.299
					c-0.027-0.062-0.02-0.11-0.012-0.162c0.057-0.133,0.105-0.229,0.139-0.295c0.023-0.074,0.033-0.148,0.045-0.222l0.023-0.202
					c0.008-0.073,0.012-0.15,0.037-0.215c-0.004-0.062,0.006-0.125,0.012-0.193l0.016-0.117c0.037-0.054,0.041-0.147,0.041-0.252
					c0.033-0.1,0.047-0.186,0.047-0.299v-0.341h0.084v0.341c0,0.122-0.016,0.219-0.049,0.312c0.002,0.107-0.004,0.21-0.053,0.287
					c-0.01,0.142-0.016,0.204-0.016,0.275c-0.023,0.068-0.029,0.139-0.033,0.21l-0.016,0.114c-0.021,0.167-0.031,0.244-0.047,0.304
					c-0.055,0.108-0.105,0.207-0.152,0.255c-0.002,0.098-0.008,0.125,0.01,0.168c0.031,0.08,0.027,0.171,0.027,0.256
					C395.368,304.481,395.368,304.566,395.366,304.649L395.366,304.649z"/>
			</g>
			<g clip-path="url(#SVGID_4_)">
				<path fill="#010101" d="M395.805,304.57c-0.096-0.006-0.102-0.043-0.102-0.108c-0.008-0.037-0.023-0.062-0.039-0.094
					c-0.018-0.031-0.039-0.071-0.055-0.134c-0.002-0.153-0.002-0.244,0.025-0.32l0.045-0.293c0.068-0.113,0.092-0.154,0.094-0.27
					c-0.014-0.104-0.023-0.205-0.023-0.322v-0.469c-0.004-0.073-0.023-0.178-0.039-0.24l0.074-0.066l-0.041,0.009l0.051,0.04
					c0.014,0.068,0.037,0.176,0.039,0.256v0.471c0,0.114,0.01,0.214,0.023,0.316c-0.004,0.145-0.035,0.201-0.1,0.304l-0.041,0.281
					c-0.027,0.073-0.025,0.156-0.025,0.238c0.014,0.1,0.029,0.125,0.047,0.159s0.035,0.068,0.047,0.125
					C395.786,304.519,395.793,304.545,395.805,304.57L395.805,304.57z"/>
			</g>
			<g clip-path="url(#SVGID_4_)">
				<path fill="#010101" d="M396.147,304.564l-0.045-0.055c-0.01-0.06-0.025-0.079-0.053-0.11l-0.061-0.091
					c-0.021-0.012-0.053-0.049-0.084-0.086s-0.062-0.073-0.088-0.09c-0.016-0.154,0.014-0.23,0.055-0.312
					c0.061-0.049,0.076-0.098,0.09-0.199c-0.002-0.043-0.006-0.088-0.012-0.134c-0.008-0.048-0.012-0.1-0.012-0.159
					c-0.021-0.051-0.023-0.193-0.023-0.289l0.082-0.01v0.01c0,0.178,0.012,0.25,0.023,0.275c0.002,0.07,0.008,0.116,0.014,0.164
					c0.006,0.046,0.012,0.094,0.012,0.148c-0.016,0.107-0.033,0.189-0.111,0.246c-0.025,0.058-0.049,0.123-0.055,0.225
					c0.021-0.017,0.055,0.031,0.09,0.071c0.027,0.034,0.057,0.068,0.082,0.085l0.062,0.092c0.031,0.037,0.057,0.07,0.07,0.15
					L396.147,304.564L396.147,304.564z"/>
			</g>
			<polygon clip-path="url(#SVGID_4_)" fill="#F5D02C" points="396.454,295.282 396.202,294.913 395.727,294.899 395.95,294.515 
				395.727,294.135 396.202,294.118 396.454,293.751 396.706,294.118 397.18,294.135 396.958,294.515 397.18,294.899 
				396.706,294.913 			"/>
			<g clip-path="url(#SVGID_4_)">
				<path fill="#010101" d="M396.454,295.356l-0.287-0.418l-0.443,0.003l0.191-0.446l-0.225-0.341l0.51-0.08l0.221-0.349l0.32,0.369
					l0.441-0.003l-0.188,0.446l0.221,0.338l-0.508,0.08L396.454,295.356L396.454,295.356z M396.202,294.87l0.25,0.338l0.219-0.318
					l0.508-0.034l-0.258-0.318l0.225-0.426l-0.441,0.048l-0.283-0.386l-0.186,0.369l-0.508,0.034l0.258,0.318l-0.223,0.424
					L396.202,294.87L396.202,294.87z"/>
			</g>
			<polygon clip-path="url(#SVGID_4_)" fill="#F5D02C" points="394.51,295.282 394.26,294.913 393.786,294.899 394.008,294.515 
				393.786,294.135 394.26,294.118 394.51,293.751 394.764,294.118 395.239,294.135 395.016,294.515 395.239,294.899 
				394.764,294.913 			"/>
			<g clip-path="url(#SVGID_4_)">
				<path fill="#010101" d="M394.51,295.356l-0.285-0.418l-0.441,0.003l0.189-0.446l-0.225-0.341l0.51-0.08l0.219-0.349l0.322,0.369
					l0.441-0.003l-0.189,0.446l0.223,0.338l-0.508,0.08L394.51,295.356L394.51,295.356z M394.26,294.87l0.25,0.338l0.219-0.318
					l0.51-0.034l-0.26-0.318l0.225-0.426l-0.439,0.048l-0.287-0.386l-0.182,0.369l-0.51,0.034l0.26,0.318l-0.225,0.424
					L394.26,294.87L394.26,294.87z"/>
			</g>
			<polygon clip-path="url(#SVGID_4_)" fill="#F5D02C" points="392.836,295.609 392.536,295.277 392.061,295.316 392.229,294.91 
				391.954,294.558 392.422,294.487 392.62,294.092 392.922,294.427 393.395,294.385 393.227,294.793 393.504,295.143 
				393.036,295.214 			"/>
			<g clip-path="url(#SVGID_4_)">
				<path fill="#010101" d="M392.848,295.683l-0.344-0.381l-0.439,0.057l0.125-0.463l-0.27-0.312l0.496-0.136l0.164-0.373
					l0.373,0.324l0.438-0.054l-0.125,0.463l0.27,0.31l-0.496,0.139L392.848,295.683L392.848,295.683z M392.532,295.234l0.295,0.304
					l0.17-0.341l0.5-0.094l-0.301-0.284l0.16-0.449l-0.43,0.097l-0.338-0.347l-0.129,0.387l-0.5,0.094l0.305,0.284l-0.162,0.446
					L392.532,295.234L392.532,295.234z"/>
			</g>
			<polygon clip-path="url(#SVGID_4_)" fill="#F5D02C" points="398.286,295.563 398.588,295.229 399.061,295.268 398.895,294.862 
				399.17,294.51 398.702,294.438 398.504,294.043 398.202,294.379 397.729,294.336 397.895,294.745 397.62,295.095 
				398.088,295.169 			"/>
			<g clip-path="url(#SVGID_4_)">
				<path fill="#010101" d="M398.276,295.635l-0.225-0.449l-0.438-0.048l0.25-0.421l-0.174-0.363l0.514-0.017l0.27-0.321
					l0.266,0.403l0.438,0.048l-0.25,0.423l0.172,0.364l-0.514,0.014L398.276,295.635L398.276,295.635z M397.725,294.379l0.209,0.35
					l-0.281,0.395l0.441,0.003l0.201,0.364l0.262-0.29l0.508,0.028l-0.211-0.35l0.281-0.395l-0.441-0.003l-0.229-0.417l-0.232,0.344
					L397.725,294.379L397.725,294.379z"/>
			</g>
			<polygon clip-path="url(#SVGID_4_)" fill="#F5D02C" points="399.848,296.291 400.219,296.021 400.672,296.149 400.602,295.72 
				400.952,295.427 400.508,295.268 400.403,294.848 400.034,295.118 399.579,294.987 399.651,295.416 399.301,295.711 
				399.745,295.871 			"/>
			<g clip-path="url(#SVGID_4_)">
				<path fill="#010101" d="M399.823,296.362l-0.119-0.483l-0.418-0.128l0.338-0.366l-0.086-0.39l0.508,0.083l0.334-0.264
					l0.168,0.446l0.418,0.128l-0.336,0.363l0.086,0.392l-0.508-0.083L399.823,296.362L399.823,296.362z M399.567,295.026
					l0.125,0.384l-0.363,0.333l0.43,0.085l0.113,0.392l0.322-0.233l0.49,0.122l-0.125-0.38l0.363-0.335l-0.428-0.083l-0.131-0.454
					l-0.307,0.295L399.567,295.026L399.567,295.026z"/>
			</g>
			<polygon clip-path="url(#SVGID_4_)" fill="#F5D02C" points="391.221,296.194 390.852,295.924 390.397,296.055 390.469,295.626 
				390.118,295.331 390.563,295.171 390.667,294.751 391.04,295.021 391.493,294.893 391.42,295.322 391.768,295.615 
				391.327,295.774 			"/>
			<g clip-path="url(#SVGID_4_)">
				<path fill="#010101" d="M391.249,296.265l-0.422-0.307l-0.418,0.136l0.02-0.477l-0.336-0.253l0.457-0.23l0.078-0.395
					l0.434,0.247l0.418-0.133l-0.018,0.474l0.336,0.256l-0.457,0.23L391.249,296.265L391.249,296.265z M390.84,295.882l0.355,0.244
					l0.09-0.363l0.469-0.188l-0.363-0.222l0.061-0.469l-0.402,0.176l-0.408-0.275l-0.037,0.398l-0.471,0.188l0.363,0.221
					l-0.059,0.469L390.84,295.882L390.84,295.882z"/>
			</g>
			<polygon clip-path="url(#SVGID_4_)" fill="#4470B6" points="358,276 358,326 383,301.002 			"/>
		</g>
	</g>
</g>
</svg>
