<?xml version="1.0" encoding="utf-8"?>
<!-- Generator: Adobe Illustrator 16.0.0, SVG Export Plug-In . SVG Version: 6.00 Build 0)  -->
<!DOCTYPE svg PUBLIC "-//W3C//DTD SVG 1.1//EN" "http://www.w3.org/Graphics/SVG/1.1/DTD/svg11.dtd">
<svg version="1.1" id="name" xmlns="http://www.w3.org/2000/svg" xmlns:xlink="http://www.w3.org/1999/xlink" x="0px" y="0px"
	 width="85.716px" height="50px" viewBox="358 276 85.716 50" enable-background="new 358 276 85.716 50" xml:space="preserve">
<g id="gu">
	<g>
		<defs>
			<rect id="SVGID_1_" x="358" y="276" width="85.716" height="50"/>
		</defs>
		<clipPath id="SVGID_2_">
			<use xlink:href="#SVGID_1_"  overflow="visible"/>
		</clipPath>
		<rect x="360.196" y="278.196" clip-path="url(#SVGID_2_)" fill="#C5334D" width="81.216" height="45.607"/>
		<rect x="358" y="276" clip-path="url(#SVGID_2_)" fill="#C5334D" width="85.716" height="50"/>
		<rect x="362.01" y="280.035" clip-path="url(#SVGID_2_)" fill="#4055A5" width="77.695" height="41.93"/>
		<g clip-path="url(#SVGID_2_)">
			<defs>
				<rect id="SVGID_3_" x="358" y="276" width="85.716" height="50"/>
			</defs>
			<clipPath id="SVGID_4_">
				<use xlink:href="#SVGID_3_"  overflow="visible"/>
			</clipPath>
			<path clip-path="url(#SVGID_4_)" fill="#C5334D" d="M400.841,288.516c0,0-7.717,5.694-7.717,12.405
				c0,6.71,7.717,12.564,7.717,12.564s7.667-5.37,7.667-12.564S400.841,288.516,400.841,288.516"/>
			<path clip-path="url(#SVGID_4_)" fill="#7CABDB" d="M407.348,303.14c0.17-0.714,0.266-1.458,0.266-2.219
				c0-6.444-6.772-11.223-6.772-11.223s-6.871,4.941-6.871,11.223c0,0.753,0.098,1.489,0.271,2.199L407.348,303.14"/>
			<path clip-path="url(#SVGID_4_)" fill="#1F3C74" d="M400.785,312.248c0,0,5.311-3.805,6.559-9.129h-13.108
				C395.503,308.339,400.785,312.248,400.785,312.248"/>
			<path clip-path="url(#SVGID_4_)" fill="#E4DCDC" d="M407.58,301.67c-1.162,0.896-7.702,0.467-7.702,0.467l-0.365,1.003h7.833
				c0.031-0.14,0.062-0.276,0.089-0.415L407.58,301.67"/>
			<path clip-path="url(#SVGID_4_)" fill="#F7EC36" d="M400.438,308.006c-0.098-0.75-3.158-1.551-4.779-1.485
				c0.507,0.86,1.08,1.647,1.658,2.347C398.14,307.91,400.471,308.254,400.438,308.006"/>
			<path clip-path="url(#SVGID_4_)" fill="#F7EC36" d="M406.629,305.219c-0.388,0.015-1.094,0.083-1.576,0.353
				c-0.698,0.396-2.258,0.824-2.955,0.611c-0.696-0.216-1.792,0.463-1.66,0.608c0.222,0.238,1.826-0.037,1.826,1.502
				c0,1.287-1.857,0.717-2.588,1.254c-0.44,0.323-0.749,0.673-0.922,0.897c1.139,1.142,2.033,1.804,2.033,1.804
				s2.118-1.517,3.993-3.975l0.883-1.264C406.016,306.443,406.345,305.848,406.629,305.219"/>
			<rect x="398.378" y="301.591" clip-path="url(#SVGID_4_)" fill="#010101" width="0.282" height="3.276"/>
			<path clip-path="url(#SVGID_4_)" fill="#734B1E" d="M399.292,305.483c0,0-0.115,0.022-0.3,0.048v-0.256h-0.186v0.276
				c-0.19,0.022-0.422,0.04-0.666,0.04c-0.257,0-0.519-0.021-0.734-0.043v-0.268h-0.205v0.242c-0.178-0.025-0.293-0.046-0.293-0.046
				s-0.055,0.335,1.215,0.335C399.39,305.812,399.292,305.483,399.292,305.483"/>
			<path clip-path="url(#SVGID_4_)" fill="#3E9270" d="M400.418,295.295c0,0-1.058-0.671-2.501-0.35
				c-1.445,0.324-1.757,1.304-1.757,1.304l0.487-0.242l0.013,0.213l0.435-0.295l0.012,0.216l0.375-0.375l0.062,0.241l0.335-0.324
				l0.024,0.173l0.548-0.375v0.241l0.436-0.213l-0.038,0.228l0.821-0.159c0,0-1.94,0.696-2.189,2.375l0.372-0.483l0.039,0.227
				l0.234-0.511l0.062,0.202l0.211-0.469l0.062,0.281l0.324-0.511l0.027,0.298l0.372-0.551v0.267l0.398-0.469l-0.012,0.35
				c0,0,0.384-0.35,0.509-0.35l-0.46,0.645l0.151,0.051c0,0-0.324,0.284-0.351,0.338c-0.024,0.051,0.214,0,0.214,0
				s-0.288,0.321-0.301,0.415c-0.012,0.094,0.188,0,0.188,0s-0.262,0.361-0.3,0.498c-0.036,0.133,0.138,0.025,0.138,0.025
				s-0.162,0.429-0.173,0.551c-0.013,0.119,0.185-0.028,0.185-0.028l0.112,0.739l0.2-0.884l0.124,0.202v-0.633l0.114,0.108
				l-0.014-0.415l0.15,0.159l-0.074-0.509l0.161,0.202l-0.024-0.429l0.161,0.173v-0.562l0.149,0.145l0.024-0.387l0.176,0.094
				c0,0,0.023-0.472,0.225-0.458c0.198,0.012,0.448,0.242,0.346,0.347l0.175-0.051l-0.035,0.455l0.16-0.108l-0.024,0.338
				l0.135-0.068l-0.048,0.429l0.161-0.105l0.012,0.523l0.188-0.147l-0.012,0.616l0.185-0.159v0.509l0.176-0.133l0.187,0.497
				l-0.039-0.739l0.139,0.119l-0.25-0.522l0.188-0.029l-0.2-0.347l0.186,0.015l-0.272-0.35l0.187-0.04L401.982,297l0.226-0.094
				l-0.423-0.295l0.16-0.065l-0.297-0.338l0.31,0.136l0.101-0.216l0.373,0.324v-0.324l0.323,0.483l0.038-0.295l0.248,0.375
				l0.051-0.173l0.172,0.375l0.09-0.281l0.173,0.403l0.05-0.281l0.16,0.443l0.152-0.176l0.074,0.458l0.148-0.176l0.135,0.403
				l0.176-0.147l0.148,0.458c0,0,0.411-2.443-3.111-2.483l-1.045-0.216"/>
			<path clip-path="url(#SVGID_4_)" fill="#3E9270" d="M398.8,293.121l0.197,0.267l-0.1,0.083l0.337,0.199l-0.074,0.148l0.335,0.136
				l-0.125,0.108l0.3,0.185l-0.199,0.068l0.361,0.188l-0.051,0.173l0.312,0.083l-0.136,0.119l0.359,0.31l0.411,0.31l0.287-0.108
				l-0.111-0.591c0,0-1.185-1.745-2.104-1.68"/>
			<path clip-path="url(#SVGID_4_)" fill="#3E9270" d="M399.883,291.431l0.138,0.347l-0.188,0.04l0.422,0.457l-0.335,0.015
				l0.411,0.346l-0.199,0.068l0.374,0.403l-0.199,0.108l0.386,0.415l-0.261,0.108l0.435,0.429l-0.249,0.014l0.26,0.361l-0.236,0.082
				c0,0,0.287,0.577,0.274,0.818l0.486,0.026c0,0,0.073-1.557,0.011-1.759l-0.125,0.097l0.039-0.565l-0.188,0.122l-0.035-0.673
				l-0.188,0.216l-0.05-0.659l-0.138,0.23l-0.137-0.645l-0.149,0.202l-0.136-0.415l-0.114,0.159l-0.31-0.35"/>
			<path clip-path="url(#SVGID_4_)" fill="#3E9270" d="M401.139,295.349c0.138-0.94,1.047-2.31,2.752-2.361l-0.387,0.213
				l0.226,0.108l-0.448,0.176l0.223,0.145l-0.535,0.04l0.273,0.202l-0.396,0.054l-0.312,0.068l0.223,0.227l-0.448,0.054l0.288,0.162
				c0,0-0.71,0.268-0.758,0.35c0,0,2.389-0.659,2.975,0.562l-0.462-0.216l0.038,0.228l-0.324-0.253l0.049,0.188l-0.334-0.188
				l0.049,0.227l-0.349-0.216l0.074,0.205l-0.448-0.23l0.076,0.216l-0.387-0.136l0.038,0.23l-0.386-0.028l0.037,0.27l-1.193-0.029
				L401.139,295.349"/>
			<path clip-path="url(#SVGID_4_)" fill="#734B1E" d="M400.775,296.159l0.25-0.017c-0.119,2.56-0.01,6.228,0.313,7.589
				c0.547,2.307,2.142,3.196,2.521,3.418c0.214,0.125,0.132,0.643-0.298,0.607c-0.432-0.036-1.938-1.235-2.458-3.383
				C400.41,301.492,400.748,296.46,400.775,296.159"/>
			<path clip-path="url(#SVGID_4_)" fill="#C5334D" d="M397.448,300.08h-0.295c-0.023-0.137-0.078-0.233-0.168-0.287
				c-0.048-0.031-0.102-0.045-0.163-0.045c-0.117,0-0.21,0.06-0.286,0.185c-0.074,0.119-0.111,0.307-0.111,0.548
				c0,0.247,0.041,0.423,0.121,0.526c0.081,0.102,0.172,0.153,0.274,0.153c0.101,0,0.183-0.04,0.247-0.122
				c0.065-0.08,0.105-0.188,0.121-0.318h-0.333v-0.335h0.598v1.078h-0.198l-0.03-0.25c-0.058,0.094-0.111,0.161-0.158,0.201
				c-0.078,0.068-0.175,0.102-0.291,0.102c-0.192,0-0.347-0.094-0.468-0.275c-0.126-0.188-0.19-0.44-0.19-0.761
				c0-0.324,0.063-0.585,0.193-0.781c0.126-0.196,0.295-0.292,0.507-0.292c0.18,0,0.327,0.065,0.438,0.193
				C397.367,299.724,397.432,299.886,397.448,300.08"/>
			<path clip-path="url(#SVGID_4_)" fill="#C5334D" d="M398.853,300.688v-1.233h0.306v1.233c0,0.136,0.013,0.239,0.037,0.301
				c0.036,0.114,0.115,0.17,0.237,0.17c0.121,0,0.199-0.057,0.236-0.17c0.024-0.062,0.034-0.165,0.034-0.301v-1.233h0.306v1.233
				c0,0.213-0.024,0.378-0.07,0.5c-0.089,0.216-0.258,0.324-0.509,0.324c-0.247,0-0.416-0.108-0.504-0.324
				C398.877,301.068,398.853,300.9,398.853,300.688"/>
			<polygon clip-path="url(#SVGID_4_)" fill="#C5334D" points="401.88,301.461 401.979,301.049 402.508,301.049 402.6,301.461 
				402.924,301.461 402.417,299.455 402.079,299.455 401.566,301.461 			"/>
			<path clip-path="url(#SVGID_4_)" fill="#C5334D" d="M404.822,301.031l0.257-1.577h0.434v2.006h-0.28v-1.359
				c0-0.037,0-0.094,0-0.162c0.002-0.071,0.002-0.125,0.002-0.165l-0.271,1.686h-0.291l-0.271-1.686c0,0.04,0,0.094,0.001,0.165
				c0,0.068,0,0.125,0,0.162v1.359h-0.279v-2.006h0.438L404.822,301.031"/>
			<path clip-path="url(#SVGID_4_)" fill="#734B1E" d="M398.085,304.855c1.029,0,1.892-0.176,1.892-0.176s0.132,0.713-1.892,0.713
				s-1.859-0.607-1.859-0.607S397.057,304.855,398.085,304.855"/>
			<path clip-path="url(#SVGID_4_)" fill="#FFFFFF" d="M397.222,301.778c0,0,1.594,0.646,2.225,2.901c0,0-1.461-0.321-2.29,0.033
				h-0.466C396.69,304.713,397.487,303.461,397.222,301.778"/>
			<path clip-path="url(#SVGID_4_)" fill="#734B1E" d="M401.177,295.3c0.155,0,0.282,0.137,0.282,0.304s-0.127,0.304-0.282,0.304
				s-0.281-0.137-0.281-0.304S401.021,295.3,401.177,295.3"/>
			<path clip-path="url(#SVGID_4_)" fill="#734B1E" d="M400.728,295.212c0.147,0,0.264,0.125,0.264,0.284
				c0,0.156-0.117,0.284-0.264,0.284c-0.145,0-0.263-0.128-0.263-0.284C400.465,295.337,400.583,295.212,400.728,295.212"/>
			<path clip-path="url(#SVGID_4_)" fill="#734B1E" d="M400.728,295.727c0.138,0,0.249,0.12,0.249,0.267
				c0,0.145-0.111,0.264-0.249,0.264c-0.135,0-0.245-0.119-0.245-0.264C400.483,295.846,400.593,295.727,400.728,295.727"/>
			<path clip-path="url(#SVGID_4_)" fill="#734B1E" d="M401.064,295.573c0.146,0,0.263,0.128,0.263,0.284
				c0,0.159-0.116,0.287-0.263,0.287c-0.145,0-0.264-0.128-0.264-0.287C400.8,295.701,400.919,295.573,401.064,295.573"/>
			<polygon clip-path="url(#SVGID_4_)" fill="#5594CF" points="402.426,300.702 402.059,300.702 402.244,299.912 			"/>
		</g>
	</g>
</g>
</svg>
