<?xml version="1.0" encoding="utf-8"?>
<!-- Generator: Adobe Illustrator 16.0.0, SVG Export Plug-In . SVG Version: 6.00 Build 0)  -->
<!DOCTYPE svg PUBLIC "-//W3C//DTD SVG 1.1//EN" "http://www.w3.org/Graphics/SVG/1.1/DTD/svg11.dtd">
<svg version="1.1" id="name" xmlns="http://www.w3.org/2000/svg" xmlns:xlink="http://www.w3.org/1999/xlink" x="0px" y="0px"
	 width="85.713px" height="50px" viewBox="358 276 85.713 50" enable-background="new 358 276 85.713 50" xml:space="preserve">
<g id="gw">
	<g>
		<defs>
			<rect id="SVGID_1_" x="358" y="276" width="85.713" height="50"/>
		</defs>
		<clipPath id="SVGID_2_">
			<use xlink:href="#SVGID_1_"  overflow="visible"/>
		</clipPath>
		<rect x="358" y="276" clip-path="url(#SVGID_2_)" fill="#BD1F34" width="29.7" height="50"/>
		<rect x="387.7" y="276" clip-path="url(#SVGID_2_)" fill="#F4D130" width="56.013" height="25.002"/>
		<rect x="387.7" y="301.002" clip-path="url(#SVGID_2_)" fill="#439E4A" width="56.013" height="24.998"/>
		<polygon clip-path="url(#SVGID_2_)" fill="#010101" points="372.85,293.578 370.555,300.638 374.086,301.785 		"/>
		<polygon clip-path="url(#SVGID_2_)" fill="#010101" points="372.85,293.578 375.144,300.638 371.613,301.785 		"/>
		<polygon clip-path="url(#SVGID_2_)" fill="#010101" points="379.911,298.706 372.486,298.706 372.486,302.419 		"/>
		<polygon clip-path="url(#SVGID_2_)" fill="#010101" points="379.911,298.706 373.904,303.072 371.722,300.067 		"/>
		<polygon clip-path="url(#SVGID_2_)" fill="#010101" points="365.788,298.706 371.795,303.072 373.978,300.067 		"/>
		<polygon clip-path="url(#SVGID_2_)" fill="#010101" points="365.788,298.706 373.212,298.706 373.212,302.419 		"/>
		<polygon clip-path="url(#SVGID_2_)" fill="#010101" points="377.213,307.008 374.919,299.947 371.389,301.092 		"/>
		<polygon clip-path="url(#SVGID_2_)" fill="#010101" points="377.213,307.008 371.208,302.644 373.389,299.641 		"/>
		<polygon clip-path="url(#SVGID_2_)" fill="#010101" points="368.485,307.008 374.492,302.644 372.31,299.641 		"/>
		<polygon clip-path="url(#SVGID_2_)" fill="#010101" points="368.485,307.008 370.779,299.947 374.311,301.092 		"/>
	</g>
</g>
</svg>
