<?xml version="1.0" encoding="utf-8"?>
<!-- Generator: Adobe Illustrator 16.0.0, SVG Export Plug-In . SVG Version: 6.00 Build 0)  -->
<!DOCTYPE svg PUBLIC "-//W3C//DTD SVG 1.1//EN" "http://www.w3.org/Graphics/SVG/1.1/DTD/svg11.dtd">
<svg version="1.1" id="name" xmlns="http://www.w3.org/2000/svg" xmlns:xlink="http://www.w3.org/1999/xlink" x="0px" y="0px"
	 width="85.712px" height="50px" viewBox="358 276 85.712 50" enable-background="new 358 276 85.712 50" xml:space="preserve">
<g id="hk">
	<g>
		<defs>
			<rect id="SVGID_1_" x="358" y="276" width="85.712" height="50"/>
		</defs>
		<clipPath id="SVGID_2_">
			<use xlink:href="#SVGID_1_"  overflow="visible"/>
		</clipPath>
		<rect x="358" y="276" clip-path="url(#SVGID_2_)" fill="#CB2127" width="85.712" height="50"/>
		<g clip-path="url(#SVGID_2_)">
			<defs>
				<rect id="SVGID_3_" x="358" y="276" width="85.712" height="50"/>
			</defs>
			<clipPath id="SVGID_4_">
				<use xlink:href="#SVGID_3_"  overflow="visible"/>
			</clipPath>
			<path clip-path="url(#SVGID_4_)" fill="#FFFFFF" d="M400.856,301.002c-3.883-1.569-5.761-5.987-4.193-9.871
				c1.248-3.091,4.369-5.006,7.69-4.719c-1.229,0.608-2.03,2.085-1.019,3.611c1.109,1.673,0.49,4.5-1.666,5.515
				C399.987,296.325,398.618,298.953,400.856,301.002"/>
			<polygon clip-path="url(#SVGID_4_)" fill="#CB2127" points="400.174,293.095 401.121,290.916 399.074,292.123 401.44,292.351 
				399.659,290.776 			"/>
			<path clip-path="url(#SVGID_4_)" fill="#CB2127" d="M400.893,300.888c-2.84-1.713-2.975-5.571-1.535-7.71l-0.184-0.117
				c-1.383,1.972-1.524,6.146,1.618,8.021L400.893,300.888z"/>
			<path clip-path="url(#SVGID_4_)" fill="#FFFFFF" d="M400.856,301.002c0.291-4.177,3.914-7.328,8.091-7.038
				c3.327,0.23,6.111,2.608,6.862,5.855c-0.955-0.983-2.606-1.29-3.747,0.145c-1.249,1.575-4.131,1.858-5.76,0.12
				C405.034,298.731,402.113,298.24,400.856,301.002"/>
			<polygon clip-path="url(#SVGID_4_)" fill="#CB2127" points="408.164,297.91 410.53,298.138 408.749,296.561 409.265,298.882 
				410.213,296.703 			"/>
			<path clip-path="url(#SVGID_4_)" fill="#CB2127" d="M400.976,301.002c0.753-3.233,4.381-4.552,6.858-3.845l0.055-0.21
				c-2.305-0.708-6.315,0.449-7.128,4.017L400.976,301.002z"/>
			<path clip-path="url(#SVGID_4_)" fill="#FFFFFF" d="M400.856,301.002c-2.69,3.207-7.473,3.627-10.682,0.938
				c-2.555-2.143-3.412-5.703-2.109-8.771c0.195,1.355,1.352,2.574,3.116,2.085c1.935-0.537,4.434,0.923,4.73,3.287
				C396.142,300.385,398.217,302.496,400.856,301.002"/>
			<polygon clip-path="url(#SVGID_4_)" fill="#CB2127" points="393.128,299.206 391.346,297.632 391.862,299.953 392.809,297.774 
				390.761,298.981 			"/>
			<path clip-path="url(#SVGID_4_)" fill="#CB2127" d="M400.76,300.931c-2.508,2.173-6.219,1.11-7.808-0.921l-0.167,0.139
				c1.449,1.926,5.373,3.347,8.128,0.941L400.76,300.931z"/>
			<path clip-path="url(#SVGID_4_)" fill="#FFFFFF" d="M400.856,301.002c4.064-1.015,8.18,1.457,9.195,5.52
				c0.808,3.236-0.592,6.617-3.449,8.336c0.639-1.211,0.42-2.878-1.295-3.518c-1.883-0.701-3.044-3.355-1.895-5.44
				C404.307,304.271,403.872,301.346,400.856,301.002"/>
			<polygon clip-path="url(#SVGID_4_)" fill="#CB2127" points="406.055,306.996 406.57,309.317 407.518,307.135 405.469,308.343 
				407.837,308.57 			"/>
			<path clip-path="url(#SVGID_4_)" fill="#CB2127" d="M400.895,301.115c3.305-0.281,5.682,2.759,5.773,5.336l0.218-0.015
				c-0.04-2.409-2.38-5.867-6.024-5.537L400.895,301.115z"/>
			<path clip-path="url(#SVGID_4_)" fill="#FFFFFF" d="M400.856,301.002c2.221,3.551,1.142,8.23-2.409,10.449
				c-2.826,1.77-6.476,1.482-8.993-0.705c1.351,0.236,2.866-0.488,2.946-2.318c0.086-2.006,2.249-3.929,4.589-3.482
				C398.812,305.295,401.463,303.973,400.856,301.002"/>
			<polygon clip-path="url(#SVGID_4_)" fill="#CB2127" points="396.761,307.797 394.714,309.005 397.081,309.232 395.3,307.658 
				395.814,309.977 			"/>
			<path clip-path="url(#SVGID_4_)" fill="#CB2127" d="M400.76,301.072c1.291,3.055-0.868,6.256-3.29,7.14l0.081,0.204
				c2.279-0.783,4.844-4.076,3.405-7.44L400.76,301.072z"/>
			<path clip-path="url(#SVGID_4_)" fill="#CB2127" d="M400.856,300.669c0.184,0,0.333,0.148,0.333,0.333
				c0,0.184-0.149,0.335-0.333,0.335c-0.184,0-0.333-0.151-0.333-0.335C400.523,300.817,400.672,300.669,400.856,300.669"/>
		</g>
	</g>
</g>
</svg>
