<?xml version="1.0" encoding="utf-8"?>
<!-- Generator: Adobe Illustrator 16.0.0, SVG Export Plug-In . SVG Version: 6.00 Build 0)  -->
<!DOCTYPE svg PUBLIC "-//W3C//DTD SVG 1.1//EN" "http://www.w3.org/Graphics/SVG/1.1/DTD/svg11.dtd">
<svg version="1.1" id="name" xmlns="http://www.w3.org/2000/svg" xmlns:xlink="http://www.w3.org/1999/xlink" x="0px" y="0px"
	 width="85.71px" height="50px" viewBox="358 276 85.71 50" enable-background="new 358 276 85.71 50" xml:space="preserve">
<g id="hn">
	<g>
		<defs>
			<rect id="SVGID_1_" x="358" y="276" width="85.71" height="50"/>
		</defs>
		<clipPath id="SVGID_2_">
			<use xlink:href="#SVGID_1_"  overflow="visible"/>
		</clipPath>
		<rect x="358" y="276" clip-path="url(#SVGID_2_)" fill="#FFFFFF" width="85.71" height="50"/>
		<polygon clip-path="url(#SVGID_2_)" fill="#3A4DA1" points="400.854,298.223 399.997,300.865 401.316,301.294 		"/>
		<polygon clip-path="url(#SVGID_2_)" fill="#3A4DA1" points="400.854,298.223 401.713,300.865 400.395,301.294 		"/>
		<polygon clip-path="url(#SVGID_2_)" fill="#3A4DA1" points="403.496,300.144 400.719,300.144 400.719,301.533 		"/>
		<polygon clip-path="url(#SVGID_2_)" fill="#3A4DA1" points="403.496,300.144 401.25,301.774 400.434,300.652 		"/>
		<polygon clip-path="url(#SVGID_2_)" fill="#3A4DA1" points="398.213,300.144 400.459,301.774 401.275,300.652 		"/>
		<polygon clip-path="url(#SVGID_2_)" fill="#3A4DA1" points="398.213,300.144 400.991,300.144 400.991,301.533 		"/>
		<polygon clip-path="url(#SVGID_2_)" fill="#3A4DA1" points="402.488,303.248 401.629,300.606 400.309,301.035 		"/>
		<polygon clip-path="url(#SVGID_2_)" fill="#3A4DA1" points="402.488,303.248 400.241,301.615 401.057,300.49 		"/>
		<polygon clip-path="url(#SVGID_2_)" fill="#3A4DA1" points="399.223,303.248 401.469,301.615 400.653,300.49 		"/>
		<polygon clip-path="url(#SVGID_2_)" fill="#3A4DA1" points="399.223,303.248 400.083,300.606 401.4,301.035 		"/>
		<polygon clip-path="url(#SVGID_2_)" fill="#3A4DA1" points="414.744,302.388 413.885,305.033 415.205,305.459 		"/>
		<polygon clip-path="url(#SVGID_2_)" fill="#3A4DA1" points="414.744,302.388 415.602,305.033 414.283,305.459 		"/>
		<polygon clip-path="url(#SVGID_2_)" fill="#3A4DA1" points="417.385,304.309 414.607,304.309 414.607,305.697 		"/>
		<polygon clip-path="url(#SVGID_2_)" fill="#3A4DA1" points="417.385,304.309 415.139,305.941 414.322,304.816 		"/>
		<polygon clip-path="url(#SVGID_2_)" fill="#3A4DA1" points="412.102,304.309 414.352,305.941 415.164,304.816 		"/>
		<polygon clip-path="url(#SVGID_2_)" fill="#3A4DA1" points="412.102,304.309 414.879,304.309 414.879,305.697 		"/>
		<polygon clip-path="url(#SVGID_2_)" fill="#3A4DA1" points="416.377,307.414 415.518,304.774 414.197,305.203 		"/>
		<polygon clip-path="url(#SVGID_2_)" fill="#3A4DA1" points="416.377,307.414 414.129,305.783 414.945,304.66 		"/>
		<polygon clip-path="url(#SVGID_2_)" fill="#3A4DA1" points="413.111,307.414 415.357,305.783 414.541,304.66 		"/>
		<polygon clip-path="url(#SVGID_2_)" fill="#3A4DA1" points="413.111,307.414 413.971,304.774 415.289,305.203 		"/>
		<polygon clip-path="url(#SVGID_2_)" fill="#3A4DA1" points="414.744,294.058 413.885,296.697 415.205,297.129 		"/>
		<polygon clip-path="url(#SVGID_2_)" fill="#3A4DA1" points="414.744,294.058 415.602,296.697 414.283,297.129 		"/>
		<polygon clip-path="url(#SVGID_2_)" fill="#3A4DA1" points="417.385,295.976 414.607,295.976 414.607,297.365 		"/>
		<polygon clip-path="url(#SVGID_2_)" fill="#3A4DA1" points="417.385,295.976 415.139,297.609 414.322,296.484 		"/>
		<polygon clip-path="url(#SVGID_2_)" fill="#3A4DA1" points="412.102,295.976 414.352,297.609 415.164,296.484 		"/>
		<polygon clip-path="url(#SVGID_2_)" fill="#3A4DA1" points="412.102,295.976 414.879,295.976 414.879,297.365 		"/>
		<polygon clip-path="url(#SVGID_2_)" fill="#3A4DA1" points="416.377,299.083 415.518,296.441 414.197,296.868 		"/>
		<polygon clip-path="url(#SVGID_2_)" fill="#3A4DA1" points="416.377,299.083 414.129,297.447 414.945,296.325 		"/>
		<polygon clip-path="url(#SVGID_2_)" fill="#3A4DA1" points="413.111,299.083 415.357,297.447 414.541,296.325 		"/>
		<polygon clip-path="url(#SVGID_2_)" fill="#3A4DA1" points="413.111,299.083 413.971,296.441 415.289,296.868 		"/>
		<polygon clip-path="url(#SVGID_2_)" fill="#3A4DA1" points="386.965,302.388 386.11,305.033 387.43,305.459 		"/>
		<polygon clip-path="url(#SVGID_2_)" fill="#3A4DA1" points="386.965,302.388 387.825,305.033 386.506,305.459 		"/>
		<polygon clip-path="url(#SVGID_2_)" fill="#3A4DA1" points="389.608,304.309 386.831,304.309 386.831,305.697 		"/>
		<polygon clip-path="url(#SVGID_2_)" fill="#3A4DA1" points="389.608,304.309 387.362,305.941 386.545,304.816 		"/>
		<polygon clip-path="url(#SVGID_2_)" fill="#3A4DA1" points="384.325,304.309 386.571,305.941 387.389,304.816 		"/>
		<polygon clip-path="url(#SVGID_2_)" fill="#3A4DA1" points="384.325,304.309 387.102,304.309 387.102,305.697 		"/>
		<polygon clip-path="url(#SVGID_2_)" fill="#3A4DA1" points="388.6,307.414 387.743,304.774 386.42,305.203 		"/>
		<polygon clip-path="url(#SVGID_2_)" fill="#3A4DA1" points="388.6,307.414 386.352,305.783 387.168,304.66 		"/>
		<polygon clip-path="url(#SVGID_2_)" fill="#3A4DA1" points="385.334,307.414 387.583,305.783 386.764,304.66 		"/>
		<polygon clip-path="url(#SVGID_2_)" fill="#3A4DA1" points="385.334,307.414 386.194,304.774 387.512,305.203 		"/>
		<polygon clip-path="url(#SVGID_2_)" fill="#3A4DA1" points="386.965,294.058 386.11,296.697 387.43,297.129 		"/>
		<polygon clip-path="url(#SVGID_2_)" fill="#3A4DA1" points="386.965,294.058 387.825,296.697 386.506,297.129 		"/>
		<polygon clip-path="url(#SVGID_2_)" fill="#3A4DA1" points="389.608,295.976 386.831,295.976 386.831,297.365 		"/>
		<polygon clip-path="url(#SVGID_2_)" fill="#3A4DA1" points="389.608,295.976 387.362,297.609 386.545,296.484 		"/>
		<polygon clip-path="url(#SVGID_2_)" fill="#3A4DA1" points="384.325,295.976 386.571,297.609 387.389,296.484 		"/>
		<polygon clip-path="url(#SVGID_2_)" fill="#3A4DA1" points="384.325,295.976 387.102,295.976 387.102,297.365 		"/>
		<polygon clip-path="url(#SVGID_2_)" fill="#3A4DA1" points="388.6,299.083 387.743,296.441 386.42,296.868 		"/>
		<polygon clip-path="url(#SVGID_2_)" fill="#3A4DA1" points="388.6,299.083 386.352,297.447 387.168,296.325 		"/>
		<polygon clip-path="url(#SVGID_2_)" fill="#3A4DA1" points="385.334,299.083 387.583,297.447 386.764,296.325 		"/>
		<polygon clip-path="url(#SVGID_2_)" fill="#3A4DA1" points="385.334,299.083 386.194,296.441 387.512,296.868 		"/>
		<rect x="358" y="276" clip-path="url(#SVGID_2_)" fill="#3A4DA1" width="85.71" height="16.668"/>
		<rect x="358" y="309.334" clip-path="url(#SVGID_2_)" fill="#3A4DA1" width="85.71" height="16.666"/>
	</g>
</g>
</svg>
