<?xml version="1.0" encoding="utf-8"?>
<!-- Generator: Adobe Illustrator 16.0.0, SVG Export Plug-In . SVG Version: 6.00 Build 0)  -->
<!DOCTYPE svg PUBLIC "-//W3C//DTD SVG 1.1//EN" "http://www.w3.org/Graphics/SVG/1.1/DTD/svg11.dtd">
<svg version="1.1" id="name" xmlns="http://www.w3.org/2000/svg" xmlns:xlink="http://www.w3.org/1999/xlink" x="0px" y="0px"
	 width="85.712px" height="50px" viewBox="358 276 85.712 50" enable-background="new 358 276 85.712 50" xml:space="preserve">
<g id="hr">
	<g>
		<defs>
			<rect id="SVGID_1_" x="358" y="276" width="85.712" height="50"/>
		</defs>
		<clipPath id="SVGID_2_">
			<use xlink:href="#SVGID_1_"  overflow="visible"/>
		</clipPath>
		<rect x="358" y="292.666" clip-path="url(#SVGID_2_)" fill="#FFFFFF" width="85.712" height="16.668"/>
		<rect x="358" y="309.334" clip-path="url(#SVGID_2_)" fill="#2C3282" width="85.712" height="16.666"/>
		<rect x="358" y="276" clip-path="url(#SVGID_2_)" fill="#CB202B" width="85.712" height="16.666"/>
		<g clip-path="url(#SVGID_2_)">
			<defs>
				<rect id="SVGID_3_" x="358" y="276" width="85.712" height="50"/>
			</defs>
			<clipPath id="SVGID_4_">
				<use xlink:href="#SVGID_3_"  overflow="visible"/>
			</clipPath>
			<path clip-path="url(#SVGID_4_)" fill="#FFFFFF" d="M390.92,292.424c3.07-1.091,6.473-1.679,9.799-1.688
				c3.328-0.009,6.718,0.511,10.07,1.713l2.494-5.031l-1.752-3.057c0,0-3.131,1.287-3.154,1.287c-0.025,0-2.207-2.401-2.207-2.401
				l-2.801,1.693l-2.628-2.012l-2.471,1.98l-2.891-1.67l-2.105,2.503l-3.156-1.35l-1.689,3.026L390.92,292.424z"/>
			<g clip-path="url(#SVGID_4_)">
				<path fill="#CB202B" d="M410.826,292.541l-0.059-0.022c-3.168-1.134-6.523-1.71-9.97-1.71c-3.395,0.009-6.775,0.591-9.852,1.688
					l-2.584-5.043l1.693-3.094l3.248,1.318l2.023-2.483l2.979,1.651l2.393-1.972l2.716,2.009l2.719-1.696
					c0.932,0.94,2.211,2.341,2.287,2.404c0.023-0.04,2.238-0.946,3.082-1.293l1.844,3.085L410.826,292.541L410.826,292.541z
					 M390.09,284.458l-1.6,2.997l2.494,4.938c3.004-1.137,6.4-1.722,9.734-1.73c3.519,0,6.869,0.571,10.035,1.696l2.465-4.975
					l-1.75-2.986c-3.055,1.321-3.072,1.321-3.092,1.321c-0.045,0-0.059,0-2.262-2.423l-2.707,1.708l-2.71-2.017l-2.383,1.98
					l-2.971-1.665l-2.012,2.489L390.09,284.458L390.09,284.458z"/>
			</g>
			<path clip-path="url(#SVGID_4_)" fill="#3B7AA2" d="M406.916,291.029l1.43-5.051l3.057-1.242l1.615,2.708l-2.316,4.733
				C409.371,291.646,408.658,291.418,406.916,291.029L406.916,291.029z"/>
			<g clip-path="url(#SVGID_4_)">
				<path fill="#5370B6" d="M410.709,292.2l-0.014-0.005c-1.309-0.523-2.002-0.75-3.783-1.148l1.414-5.074l3.07-1.253l1.635,2.716
					L410.709,292.2L410.709,292.2z M411.387,284.745l-3.035,1.25l-1.418,5.04c1.764,0.372,2.459,0.599,3.76,1.119l2.307-4.719
					L411.387,284.745L411.387,284.745z"/>
			</g>
			<path clip-path="url(#SVGID_4_)" fill="#3B7AA2" d="M398.86,290.484l-0.482-5.233l2.432-1.932l2.541,1.929l-0.449,5.239
				C401.5,290.413,400.5,290.416,398.86,290.484L398.86,290.484z"/>
			<g clip-path="url(#SVGID_4_)">
				<path fill="#5370B6" d="M402.914,290.506h-0.018c-1.396-0.077-2.396-0.074-4.037-0.005l-0.502-5.248l2.439-1.949l2.562,1.926
					L402.914,290.506L402.914,290.506z M400.797,283.333l-2.408,1.932l0.488,5.216c1.596-0.102,2.615-0.085,4.005-0.011l0.449-5.225
					L400.797,283.333L400.797,283.333z"/>
			</g>
			<path clip-path="url(#SVGID_4_)" fill="#3B7AA2" d="M391.042,292.174l-2.268-4.793l1.516-2.648l3.141,1.367l1.326,4.946
				C393.321,291.342,392.563,291.586,391.042,292.174L391.042,292.174z"/>
			<g clip-path="url(#SVGID_4_)">
				<path fill="#5370B6" d="M391.034,292.197l-2.273-4.81l1.514-2.662l3.162,1.358l1.338,4.958c-1.471,0.324-2.254,0.58-3.727,1.151
					L391.034,292.197L391.034,292.197z M390.282,284.75l-1.49,2.639l2.258,4.762c1.465-0.565,2.248-0.821,3.703-1.125l-1.34-4.921
					L390.282,284.75L390.282,284.75z"/>
			</g>
			<path clip-path="url(#SVGID_4_)" fill="#FFFFFF" d="M390.559,289.768c0.695,0.068,1.184,0.031,1.783-0.173
				c0.709-0.33,0.932-0.716,1.146-1.026c0.166,0.605,0.104,1.176-0.699,1.639C392.067,290.583,391.036,290.473,390.559,289.768
				L390.559,289.768z"/>
			<g clip-path="url(#SVGID_4_)">
				<path fill="#FFFFFF" d="M391.903,290.436c-0.58,0-1.074-0.239-1.357-0.659c0.221-0.003,0.408,0.006,0.588,0.006
					c0.422,0,0.783-0.06,1.203-0.202c0.656-0.307,0.891-0.656,1.096-0.96c0.002,0.003,0.004,0.006,0.004,0.008
					c-0.201,0.344-0.453,0.688-1.088,0.983c-0.602,0.202-1.088,0.242-1.793,0.174c0.455,0.594,1.48,0.795,2.229,0.409
					c0.652-0.38,0.789-0.827,0.76-1.236c0.07,0.401-0.062,0.87-0.744,1.265C392.53,290.362,392.217,290.436,391.903,290.436
					L391.903,290.436z"/>
			</g>
			<path clip-path="url(#SVGID_4_)" fill="#F4EB36" d="M401.471,286.063l-0.139,0.034l0.008,0.247l-0.17,0.037l-0.117,0.219
				l0.072,0.065c0.004,0.008-0.059,0.162-0.053,0.162l0.043,0.06l0.045,0.134l0.111,0.017l0.031,0.156l0.176,0.028l0.168,0.117
				l0.01,0.071l0.189,0.006l0.129,0.04l0.451-0.051l0.061-0.091l0.004-0.127l0.242-0.006l0.023-0.202h0.127l-0.018-0.228
				l0.109,0.009l-0.027-0.108l-0.066-0.088l-0.016-0.142l-0.188-0.185l-0.043-0.241c0,0-0.119-0.054-0.119-0.057
				s-0.01-0.162-0.01-0.162l0.139-0.19l-0.014-0.074l-0.125-0.002l-0.096,0.077c0,0-0.127,0.014-0.127,0.017v0.057
				c0,0,0.031,0.105,0.031,0.108s-0.145,0-0.145,0l-0.006-0.167l-0.205-0.103c0,0-0.191,0.131-0.191,0.134s-0.01,0.147-0.01,0.147
				l-0.092,0.026l-0.096-0.139l-0.164-0.062l-0.092-0.003l-0.002,0.108l0.174,0.225L401.471,286.063z"/>
			<g clip-path="url(#SVGID_4_)">
				<path fill="#C1A22E" d="M401.971,287.498l-0.35-0.046l-0.016-0.108l-0.148-0.088l-0.16-0.02l-0.064-0.19l-0.078,0.017
					l-0.102-0.31l0.072-0.088l-0.1-0.034l0.109-0.27l0.197-0.057l-0.041-0.208l0.168-0.074l-0.014-0.097l-0.164-0.193l-0.01-0.136
					l0.004-0.042l0.133,0.008l0.176,0.065l0.115,0.153l0.027-0.153c0-0.023,0-0.023,0.209-0.165l0.246,0.099l0.031,0.202
					l0.064-0.037l-0.033-0.057c-0.004-0.108,0.006-0.111,0.162-0.125l0.072-0.068l0.152-0.009h0.035l0.018,0.111l-0.143,0.219
					l0.016,0.139c-0.004-0.025,0.096,0.017,0.096,0.017l0.066,0.275l0.178,0.162l0.117,0.355l-0.15,0.042l0.062,0.182l-0.17,0.045
					l0.018,0.165l-0.283,0.045l0.037,0.088l-0.068,0.111L401.971,287.498L401.971,287.498z M401.848,287.375l0.131,0.04l0.443-0.051
					l0.031-0.074l-0.006-0.108l0.283-0.045l-0.016-0.165l0.168-0.037l-0.059-0.182l0.152-0.037l-0.129-0.131l-0.021-0.159
					l-0.178-0.162L402.594,286c-0.121-0.034-0.121-0.034-0.121-0.062l-0.008-0.162l0.145-0.213l-0.104-0.011l-0.068,0.068
					c-0.023,0.008-0.125,0.017-0.143,0.022c0.062,0.117,0.062,0.117,0.062,0.125l-0.188,0.042l-0.049-0.21l-0.174-0.062
					c0.004,0.017-0.121,0.099-0.148,0.122c0.008,0.006,0.002,0.122,0.002,0.122l-0.004,0.031l-0.121,0.031l-0.141-0.153
					l-0.145-0.048l-0.037,0.065l0.166,0.199l-0.01,0.162l-0.166,0.068l0.037,0.208l-0.203,0.077l-0.088,0.196
					c0.082,0.051,0.08,0.062,0.043,0.165c-0.039,0.006-0.035,0.009,0.018,0.08l0.051,0.148l0.078-0.014l0.064,0.19l0.143-0.006
					l0.199,0.136l0.012,0.088L401.848,287.375L401.848,287.375z"/>
			</g>
			<g clip-path="url(#SVGID_4_)">
				<path fill="none" d="M402.76,286.972l-0.039-0.136L402.76,286.972z"/>
			</g>
			<g clip-path="url(#SVGID_4_)">
				<path fill="none" d="M402.865,286.748l-0.064-0.091L402.865,286.748z"/>
			</g>
			<path clip-path="url(#SVGID_4_)" fill="#C1A22E" d="M401.129,286.646l0.199-0.011l0.037,0.176l0.066,0.06l0.012,0.321
				l0.062,0.023l0.02-0.125l0.152-0.012l0.029,0.259l-0.037,0.034l0.016,0.04l0.18-0.005c0,0,0.043-0.068,0.045-0.068
				c0.004,0,0.105-0.011,0.105-0.006c0,0.003,0.041,0.074,0.041,0.074l0.029-0.097c0,0,0.096-0.04,0.096-0.037
				s0.078,0.125,0.078,0.125l0.137-0.02l-0.084-0.077l-0.033-0.167l0.188-0.1l0.074,0.125c0,0,0.07,0.003,0.066,0
				c-0.004-0.002-0.082-0.142-0.082-0.142v-0.292l0.141-0.19l0.199-0.02v-0.079l-0.199-0.179l-0.051-0.25l-0.113-0.054l-0.027,0.034
				l-0.123,0.009l0.123,0.182v0.117l0.053,0.028l-0.008,0.321c0,0-0.139,0.017-0.139,0.02c0,0.006-0.012,0.179-0.012,0.179
				l-0.086,0.085c0,0-0.049,0.168-0.053,0.168c-0.002,0-0.08,0.102-0.08,0.102l-0.154,0.003c0,0-0.088-0.083-0.088-0.088
				c0-0.002-0.016-0.122-0.016-0.122s-0.059-0.02-0.062-0.02s-0.033-0.134-0.033-0.134l-0.105-0.06l-0.006-0.08l-0.102-0.045
				c0,0-0.012-0.071-0.014-0.074c-0.004-0.005-0.051-0.034-0.051-0.034c-0.006,0-0.006-0.202-0.006-0.202l0.09-0.015l-0.051-0.062
				l-0.018-0.057v-0.06l0.074-0.071c0,0-0.133-0.02-0.133-0.014c0,0.003-0.129,0.057-0.129,0.054l-0.004,0.236l-0.154,0.048
				l-0.123,0.193L401.129,286.646z"/>
			<g clip-path="url(#SVGID_4_)">
				<path fill="#C1A22E" d="M401.656,287.452l-0.025-0.068l0.004-0.301l-0.107,0.045l0.02,0.094l-0.006,0.051l-0.113-0.045
					l-0.037-0.358l-0.105-0.225l-0.17,0.042l-0.076-0.065l0.117-0.247l0.164-0.062c-0.018-0.014-0.014-0.179-0.014-0.196
					c0.047-0.048,0.133-0.085,0.145-0.094c0.051-0.009,0.166,0.008,0.166,0.008l-0.062,0.216l-0.061-0.042l0.059-0.108
					c-0.027,0.008-0.062,0.003-0.074,0.003c0.027,0.011-0.047,0.034-0.096,0.045c0.008,0.022,0.006,0.085,0.002,0.208l-0.182,0.085
					l-0.1,0.176l0.223-0.02l0.08,0.208l0.08,0.386l-0.004-0.105l0.193-0.048l0.074,0.295l-0.031,0.037l0.189-0.025l-0.006,0.085
					L401.656,287.452L401.656,287.452z M402.266,287.436c-0.125-0.148-0.125-0.151-0.125-0.165l-0.055,0.037l0.002,0.022
					l-0.018-0.062c0.096-0.04,0.102-0.04,0.111-0.04c0.045,0.04,0.113,0.142,0.113,0.142l0.096-0.034l-0.105-0.006l-0.047-0.19
					l0.018-0.011c-0.008,0.006-0.016,0.006-0.025,0.006l-0.047,0.085l-0.184,0.02c-0.135-0.108-0.135-0.111-0.135-0.131
					l-0.014-0.119c-0.057,0.02-0.061,0.011-0.098-0.147l-0.104-0.043l-0.006-0.102l-0.094-0.017l-0.02-0.094
					c-0.059-0.003-0.059-0.003-0.059-0.247v-0.034l0.125-0.02l-0.002-0.003l0.084,0.074l-0.143,0.023
					c0.02,0.023,0.02,0.136,0.021,0.153l0.168,0.134l0.008,0.105l0.082,0.025c0.021,0.028,0.043,0.134,0.053,0.154
					c0.064,0.031,0.082,0.156,0.082,0.159c0-0.002,0.074,0.057,0.074,0.057l0.125-0.014c0.057-0.1,0.059-0.103,0.078-0.103
					c-0.025,0,0.016-0.136,0.016-0.136l0.096-0.102l-0.002-0.151c0-0.04,0-0.04,0.176-0.062l-0.082-0.423l-0.113-0.156l0.152-0.077
					l0.162,0.025l0.076,0.279l0.197,0.167v0.099l-0.234,0.062l-0.115,0.174l0.012,0.264l0,0c0.002,0,0.062,0.108,0.072,0.122
					l-0.102,0.065l-0.107-0.145l-0.133,0.114l0.125,0.176L402.266,287.436L402.266,287.436z M402.404,286.697
					c0.014,0.02,0.008,0.145,0.008,0.145l-0.1,0.11c-0.033,0.128-0.043,0.165-0.057,0.176l0.189-0.13l0.051,0.051
					c-0.002-0.003-0.006-0.008-0.008-0.014l-0.006-0.312l0.041-0.057C402.484,286.683,402.428,286.694,402.404,286.697
					L402.404,286.697z M402.484,285.986l-0.129,0.048l0.152,0.114l0.049,0.469l0.078-0.111l0.225-0.037l-0.221-0.188l-0.062-0.27
					L402.484,285.986L402.484,285.986z"/>
			</g>
			<path clip-path="url(#SVGID_4_)" fill="#614022" d="M401.9,286.972l0.102-0.06l-0.006-0.114l-0.096-0.022l-0.037-0.034
				l0.107,0.017l0.135-0.011l0.045-0.02c-0.018,0.045-0.035,0.042-0.037,0.042c-0.006,0-0.076,0.037-0.076,0.037l0.004,0.108
				c0,0,0.232,0.031,0.229,0.031s0,0.042-0.01,0.042c-0.004,0-0.236-0.051-0.236-0.051l-0.145,0.088L401.9,286.972z"/>
			<g clip-path="url(#SVGID_4_)">
				<path fill="#C1A22E" d="M401.838,287.077l0.043-0.113l0.109-0.068l-0.029-0.111l0.055,0.014v-0.014l0.092-0.034l0.002,0.02
					l-0.062,0.054l0.016,0.091c0.229,0.011,0.229,0.011,0.227,0.031c-0.031,0.062-0.039,0.062-0.27,0.011L401.838,287.077
					L401.838,287.077z"/>
			</g>
			<path clip-path="url(#SVGID_4_)" fill="#C1A22E" d="M402.479,286.293l-0.131,0.103l-0.088,0.147l-0.043,0.009l-0.131-0.17
				l-0.148,0.003c0,0-0.08,0.199-0.08,0.205c0,0.002-0.061-0.009-0.061-0.009l-0.156-0.167c0,0-0.047-0.085-0.043-0.085
				c0.01,0,0.391,0.006,0.391,0.006v-0.182c0,0-0.062-0.02-0.092-0.037c0.023-0.009,0.211-0.009,0.211-0.009l-0.08,0.057v0.156
				l0.338,0.003L402.479,286.293z"/>
			<g clip-path="url(#SVGID_4_)">
				<path fill="#C1A22E" d="M401.854,286.631l-0.064-0.009l-0.199-0.205l-0.027-0.11l0.426-0.017l-0.041-0.131l0.043-0.023
					c-0.018,0.006-0.033,0.009-0.047,0.012c-0.037-0.083,0.035-0.083,0.164-0.083h0.137l-0.193,0.131l0.02,0.122l0.4-0.065
					l-0.197,0.315l-0.09,0.008l-0.131-0.173l-0.105,0.02c0.012,0.014-0.045,0.159-0.051,0.176L401.854,286.631L401.854,286.631z
					 M402.021,286.333l-0.424,0.037l0.229,0.182c0.012-0.028,0.031-0.08,0.072-0.182l0.127-0.02L402.021,286.333L402.021,286.333z"
					/>
			</g>
			<path clip-path="url(#SVGID_4_)" fill="#614022" d="M401.789,286.381h0.031c0.018,0,0.027,0.011,0.027,0.025v0.034
				c0,0.014-0.01,0.025-0.027,0.025h-0.031c-0.018,0-0.029-0.011-0.029-0.025v-0.034
				C401.76,286.393,401.771,286.381,401.789,286.381L401.789,286.381z"/>
			<path clip-path="url(#SVGID_4_)" fill="#614022" d="M402.211,286.361h0.033c0.016,0,0.029,0.011,0.029,0.028v0.031
				c0,0.017-0.014,0.028-0.029,0.028h-0.033c-0.014,0-0.029-0.011-0.029-0.028v-0.031
				C402.182,286.373,402.197,286.361,402.211,286.361L402.211,286.361z"/>
			<g clip-path="url(#SVGID_4_)">
				<path fill="#C1A22E" d="M401.602,286.114l-0.043-0.025l0.012-0.051c0.129-0.051,0.23-0.091,0.4-0.108
					c0.174-0.02,0.307,0.005,0.451,0.034c-0.158,0.054-0.281,0.034-0.443,0.048C401.822,286.026,401.729,286.066,401.602,286.114
					L401.602,286.114z"/>
			</g>
			<polygon clip-path="url(#SVGID_4_)" fill="#C1A22E" points="401.637,285.793 401.52,285.793 401.357,285.62 401.451,285.631 
				401.559,285.68 			"/>
			<g clip-path="url(#SVGID_4_)">
				<polygon fill="#C1A22E" points="401.719,285.833 401.52,285.833 401.246,285.566 401.574,285.643 401.719,285.833 				"/>
			</g>
			<polygon clip-path="url(#SVGID_4_)" fill="#C1A22E" points="402.332,285.728 402.594,285.529 402.506,285.518 402.41,285.605 
				402.295,285.625 			"/>
			<g clip-path="url(#SVGID_4_)">
				<polygon fill="none" points="402.332,285.728 402.594,285.529 402.506,285.518 402.41,285.605 402.295,285.625 				"/>
			</g>
			<path clip-path="url(#SVGID_4_)" fill="#C1A22E" d="M402.178,285.762l-0.408,0.017l0.006-0.045l0.146-0.014l0.02-0.057
				c0,0,0.047-0.006,0.047,0c0,0.003,0.031,0.054,0.031,0.054l0.145,0.026L402.178,285.762z"/>
			<g clip-path="url(#SVGID_4_)">
				<polygon fill="#C1A22E" points="401.723,285.822 401.732,285.73 401.922,285.68 401.838,285.733 401.971,285.728 
					401.951,285.68 402.172,285.699 402.213,285.762 402.182,285.805 401.723,285.822 				"/>
			</g>
			<polygon clip-path="url(#SVGID_4_)" fill="#C1A22E" points="402.156,285.611 402.016,285.614 402.004,285.538 			"/>
			<g clip-path="url(#SVGID_4_)">
				<polygon fill="none" points="402.156,285.611 402.016,285.614 402.004,285.538 				"/>
			</g>
			<polygon clip-path="url(#SVGID_4_)" fill="#C1A22E" points="401.92,285.541 401.908,285.617 401.77,285.64 			"/>
			<g clip-path="url(#SVGID_4_)">
				<polygon fill="none" points="401.92,285.541 401.908,285.617 401.77,285.64 				"/>
			</g>
			<polygon clip-path="url(#SVGID_4_)" fill="#C1A22E" points="401.139,286.938 401.209,286.762 401.146,286.643 401.082,286.822 
							"/>
			<g clip-path="url(#SVGID_4_)">
				<polygon fill="none" points="401.139,286.938 401.209,286.762 401.146,286.643 401.082,286.822 				"/>
			</g>
			<polygon clip-path="url(#SVGID_4_)" fill="#C1A22E" points="401.279,287.032 401.365,286.824 401.203,286.992 			"/>
			<g clip-path="url(#SVGID_4_)">
				<polygon fill="#C1A22E" points="401.301,287.092 401.182,287.029 401.328,286.811 401.232,287.021 401.279,287.032 
					401.24,287.018 401.334,286.796 401.301,287.092 				"/>
			</g>
			<path clip-path="url(#SVGID_4_)" fill="#F4EB36" d="M399.213,286.137l-0.137,0.034l0.006,0.247l-0.17,0.037l-0.117,0.219
				l0.074,0.065c0.002,0.009-0.059,0.162-0.055,0.162c0.002,0,0.043,0.06,0.043,0.06l0.045,0.133l0.113,0.014l0.029,0.159
				l0.178,0.028l0.166,0.117l0.012,0.071l0.188,0.006l0.131,0.04l0.449-0.051l0.061-0.094l0.004-0.125l0.244-0.009l0.021-0.202
				h0.127l-0.016-0.227l0.109,0.011l-0.029-0.111l-0.066-0.088l-0.014-0.139l-0.189-0.185l-0.043-0.244l-0.121-0.054
				c0-0.005-0.006-0.165-0.006-0.165l0.135-0.188l-0.01-0.074l-0.129-0.003l-0.094,0.077l-0.127,0.014v0.057l0.031,0.108
				c0,0.002-0.145,0-0.145,0l-0.006-0.165l-0.205-0.102c0,0-0.191,0.127-0.191,0.13s-0.01,0.151-0.01,0.151l-0.092,0.025
				l-0.096-0.139l-0.166-0.062l-0.09-0.003v0.105l0.172,0.228L399.213,286.137z"/>
			<g clip-path="url(#SVGID_4_)">
				<path fill="#C1A22E" d="M399.713,287.572l-0.35-0.048l-0.016-0.105l-0.146-0.088l-0.162-0.022l-0.066-0.19l-0.076,0.017
					l-0.105-0.292c0.014-0.037,0.031-0.091,0.035-0.105l-0.066-0.085l0.117-0.216l0.195-0.06l-0.039-0.205l0.17-0.074L399.188,286
					l-0.166-0.196l-0.006-0.134v-0.042l0.135,0.008l0.176,0.062l0.115,0.156l0.027-0.153c0-0.022,0-0.022,0.209-0.165l0.248,0.097
					l0.027,0.205l0.066-0.04l-0.035-0.054c-0.002-0.111-0.002-0.111,0.162-0.128l0.074-0.068l0.154-0.006h0.035l0.016,0.108
					l-0.143,0.221l0.014,0.137c0-0.023,0.098,0.02,0.098,0.02l0.066,0.273l0.178,0.165l0.119,0.355l-0.154,0.042l0.062,0.182
					l-0.168,0.046l0.018,0.165l-0.281,0.045l0.035,0.085l-0.066,0.113L399.713,287.572L399.713,287.572z M399.59,287.447l0.131,0.04
					l0.443-0.048l0.027-0.074l-0.002-0.105l0.283-0.048l-0.016-0.165l0.168-0.037l-0.059-0.185l0.154-0.034l-0.131-0.131
					l-0.023-0.159l-0.176-0.162l-0.055-0.265c-0.121-0.034-0.121-0.034-0.121-0.062l-0.008-0.162l0.145-0.216l-0.105-0.009
					l-0.068,0.065c-0.021,0.008-0.127,0.02-0.143,0.023c0.062,0.116,0.062,0.116,0.062,0.125l-0.188,0.042l-0.047-0.208
					l-0.174-0.062c0.002,0.014-0.119,0.1-0.148,0.119c0.008,0.012,0,0.125,0,0.125v0.029l-0.121,0.034l-0.143-0.156l-0.145-0.045
					l-0.035,0.065l0.162,0.199l-0.006,0.162l-0.17,0.068l0.041,0.207l-0.205,0.077l-0.088,0.199c0.084,0.048,0.08,0.057,0.037,0.176
					c-0.031-0.012-0.029-0.009,0.021,0.065l0.051,0.145l0.08-0.011l0.062,0.19l0.145-0.006l0.199,0.134l0.012,0.091L399.59,287.447
					L399.59,287.447z"/>
			</g>
			<g clip-path="url(#SVGID_4_)">
				<path fill="none" d="M400.502,287.043l-0.037-0.134L400.502,287.043z"/>
			</g>
			<g clip-path="url(#SVGID_4_)">
				<path fill="none" d="M400.608,286.822l-0.066-0.091L400.608,286.822z"/>
			</g>
			<path clip-path="url(#SVGID_4_)" fill="#C1A22E" d="M398.872,286.719l0.199-0.011l0.037,0.176l0.066,0.057l0.014,0.321
				l0.062,0.025l0.016-0.128l0.154-0.011l0.029,0.261l-0.039,0.031l0.018,0.04l0.182-0.003c0,0,0.041-0.068,0.047-0.068
				c0,0,0.102-0.011,0.102-0.008s0.043,0.077,0.043,0.077l0.027-0.097c0,0,0.098-0.042,0.098-0.037c0,0.003,0.076,0.123,0.076,0.123
				l0.137-0.017l-0.082-0.077l-0.033-0.168l0.184-0.099l0.076,0.125c0,0,0.07,0.002,0.064,0c-0.002-0.006-0.082-0.142-0.082-0.142
				v-0.293l0.145-0.19l0.197-0.022v-0.08l-0.197-0.179l-0.053-0.247l-0.113-0.054l-0.027,0.031l-0.123,0.011l0.123,0.179v0.116
				l0.053,0.028l-0.01,0.321c0,0-0.139,0.02-0.139,0.022s-0.01,0.179-0.01,0.179l-0.086,0.085c0,0-0.049,0.167-0.053,0.167
				c-0.002,0-0.08,0.102-0.08,0.102l-0.154,0.003c0,0-0.088-0.083-0.088-0.088c0-0.003-0.016-0.122-0.016-0.122
				s-0.059-0.02-0.062-0.02c-0.006,0-0.033-0.136-0.033-0.136l-0.104-0.057l-0.008-0.08l-0.102-0.045c0,0-0.012-0.074-0.014-0.077
				c-0.004-0.003-0.049-0.031-0.053-0.031s-0.004-0.202-0.004-0.202l0.09-0.014l-0.051-0.062l-0.018-0.057v-0.06l0.076-0.074
				c0,0-0.135-0.017-0.135-0.014s-0.129,0.06-0.129,0.057c0.002,0-0.006,0.236-0.006,0.236l-0.152,0.048l-0.123,0.193
				L398.872,286.719z"/>
			<g clip-path="url(#SVGID_4_)">
				<path fill="#C1A22E" d="M399.401,287.523l-0.027-0.065l0.006-0.304l-0.109,0.048l0.02,0.091l-0.006,0.054l-0.113-0.045
					l-0.039-0.361l-0.102-0.224l-0.172,0.045l-0.074-0.065l0.113-0.248l0.166-0.062c-0.018-0.014-0.014-0.176-0.016-0.196
					c0.049-0.048,0.135-0.085,0.146-0.094c0.047-0.006,0.166,0.008,0.166,0.008l-0.062,0.216l-0.061-0.043l0.059-0.111
					c-0.029,0.009-0.066,0.003-0.074,0.006c0.029,0.009-0.047,0.031-0.096,0.045c0.006,0.023,0.004,0.083,0.002,0.205l-0.182,0.088
					l-0.1,0.176l0.221-0.022l0.08,0.208l0.082,0.389l-0.004-0.108l0.191-0.046l0.074,0.296l-0.027,0.034l0.189-0.025l-0.008,0.088
					L399.401,287.523L399.401,287.523z M400.01,287.509c-0.127-0.151-0.127-0.151-0.127-0.165l-0.055,0.037l0.002,0.02l-0.018-0.06
					c0.096-0.04,0.104-0.04,0.113-0.04l0.111,0.145l0.096-0.04l-0.105-0.002l-0.045-0.19l0.205-0.145l0.051,0.054
					c-0.002-0.006-0.004-0.009-0.008-0.015l-0.008-0.312l0.043-0.06c-0.039,0.02-0.094,0.028-0.119,0.034
					c0.014,0.02,0.008,0.145,0.008,0.145l-0.1,0.111c-0.047,0.179-0.047,0.179-0.082,0.179l-0.047,0.088l-0.186,0.02
					c-0.131-0.108-0.131-0.108-0.131-0.13l-0.016-0.117c-0.061,0.014-0.062,0.006-0.096-0.15l-0.102-0.042l-0.012-0.103
					l-0.094-0.017l-0.02-0.094c-0.057-0.005-0.057-0.005-0.057-0.247v-0.034l0.123-0.023v-0.002l0.084,0.074l-0.141,0.025
					c0.018,0.02,0.018,0.134,0.02,0.151l0.166,0.133l0.01,0.105l0.082,0.028c0.02,0.025,0.045,0.133,0.051,0.153
					c0.066,0.028,0.082,0.156,0.082,0.159c0-0.009,0.076,0.057,0.076,0.057l0.123-0.014c0.059-0.1,0.061-0.102,0.08-0.102
					c-0.023,0,0.014-0.14,0.014-0.14l0.098-0.099l-0.004-0.151c0-0.04,0.012-0.04,0.176-0.062l-0.08-0.426l-0.115-0.156l0.154-0.074
					l0.162,0.023l0.074,0.278l0.201,0.17v0.097l-0.236,0.065l-0.113,0.173l0.008,0.264l0,0c0.004,0,0.066,0.105,0.074,0.119h-0.002
					l-0.1,0.068l-0.109-0.145l-0.129,0.114l0.123,0.176L400.01,287.509L400.01,287.509z M400.227,286.06l-0.129,0.048l0.152,0.114
					l0.049,0.469l0.078-0.111l0.227-0.037l-0.223-0.188l-0.064-0.27L400.227,286.06L400.227,286.06z"/>
			</g>
			<path clip-path="url(#SVGID_4_)" fill="#614022" d="M399.643,287.043l0.102-0.057l-0.006-0.113l-0.096-0.023l-0.035-0.034
				l0.105,0.017l0.135-0.011l0.045-0.023c-0.018,0.048-0.035,0.045-0.039,0.045s-0.072,0.037-0.072,0.037l0.002,0.108
				c0,0,0.232,0.028,0.227,0.028c-0.002,0,0,0.045-0.008,0.045c-0.006,0-0.236-0.051-0.236-0.051l-0.145,0.085L399.643,287.043z"/>
			<g clip-path="url(#SVGID_4_)">
				<path fill="#C1A22E" d="M399.579,287.148l0.047-0.114l0.109-0.068l-0.031-0.108l0.055,0.015v-0.015l0.092-0.034l0.004,0.02
					l-0.064,0.054l0.014,0.091c0.23,0.011,0.23,0.011,0.229,0.031c-0.029,0.062-0.035,0.062-0.271,0.011L399.579,287.148
					L399.579,287.148z"/>
			</g>
			<path clip-path="url(#SVGID_4_)" fill="#C1A22E" d="M400.223,286.367l-0.133,0.099l-0.088,0.151l-0.043,0.008l-0.131-0.173
				l-0.146,0.003c0,0-0.084,0.202-0.084,0.205c0,0.006-0.059-0.005-0.059-0.005l-0.156-0.168c0,0-0.049-0.085-0.043-0.085
				c0.008,0,0.393,0.005,0.393,0.005l-0.004-0.185c0,0-0.059-0.017-0.09-0.034c0.021-0.008,0.211-0.008,0.211-0.008l-0.08,0.054
				v0.156l0.338,0.006L400.223,286.367z"/>
			<g clip-path="url(#SVGID_4_)">
				<path fill="#C1A22E" d="M399.594,286.702l-0.062-0.008l-0.199-0.202l-0.027-0.111l0.428-0.017l-0.041-0.131l0.037-0.022
					c-0.016,0.005-0.029,0.008-0.041,0.011c-0.043-0.08,0.033-0.085,0.162-0.085h0.139l-0.197,0.131l0.021,0.122l0.4-0.065
					l-0.197,0.318l-0.09,0.006l-0.131-0.17l-0.104,0.02c0.012,0.012-0.049,0.162-0.053,0.176L399.594,286.702L399.594,286.702z
					 M399.764,286.407l-0.424,0.037l0.227,0.182c0.012-0.028,0.035-0.083,0.076-0.185l0.123-0.02L399.764,286.407L399.764,286.407z"
					/>
			</g>
			<path clip-path="url(#SVGID_4_)" fill="#614022" d="M399.532,286.452h0.031c0.016,0,0.027,0.014,0.027,0.028v0.031
				c0,0.017-0.012,0.029-0.027,0.029h-0.031c-0.018,0-0.029-0.012-0.029-0.029v-0.031
				C399.502,286.466,399.514,286.452,399.532,286.452L399.532,286.452z"/>
			<path clip-path="url(#SVGID_4_)" fill="#614022" d="M399.954,286.435h0.035c0.014,0,0.027,0.012,0.027,0.029v0.031
				c0,0.014-0.014,0.025-0.027,0.025h-0.035c-0.014,0-0.027-0.011-0.027-0.025v-0.031
				C399.926,286.447,399.94,286.435,399.954,286.435L399.954,286.435z"/>
			<g clip-path="url(#SVGID_4_)">
				<path fill="#C1A22E" d="M399.354,286.183l-0.053-0.023l0.021-0.051c0.121-0.048,0.225-0.091,0.391-0.105
					c0.172-0.02,0.297,0.006,0.445,0.031c-0.156,0.057-0.279,0.034-0.438,0.051C399.567,286.1,399.473,286.137,399.354,286.183
					L399.354,286.183z"/>
			</g>
			<polygon clip-path="url(#SVGID_4_)" fill="#C1A22E" points="399.379,285.867 399.264,285.867 399.098,285.694 399.192,285.705 
				399.301,285.75 			"/>
			<g clip-path="url(#SVGID_4_)">
				<polygon fill="#C1A22E" points="399.459,285.907 399.264,285.907 398.991,285.637 399.317,285.714 399.459,285.907 				"/>
			</g>
			<polygon clip-path="url(#SVGID_4_)" fill="#C1A22E" points="400.073,285.799 400.334,285.603 400.25,285.591 400.153,285.68 
				400.038,285.697 			"/>
			<g clip-path="url(#SVGID_4_)">
				<polygon fill="none" points="400.073,285.799 400.334,285.603 400.25,285.591 400.153,285.68 400.038,285.697 				"/>
			</g>
			<path clip-path="url(#SVGID_4_)" fill="#C1A22E" d="M399.92,285.836l-0.408,0.014l0.004-0.042l0.148-0.015l0.02-0.06
				c0,0,0.045-0.003,0.045,0c0,0.006,0.031,0.057,0.031,0.057l0.146,0.022L399.92,285.836z"/>
			<g clip-path="url(#SVGID_4_)">
				<polygon fill="#C1A22E" points="399.465,285.893 399.475,285.805 399.663,285.75 399.583,285.808 399.711,285.802 
					399.692,285.75 399.915,285.773 399.954,285.836 399.922,285.878 399.465,285.893 				"/>
			</g>
			<polygon clip-path="url(#SVGID_4_)" fill="#C1A22E" points="399.901,285.683 399.758,285.685 399.749,285.611 			"/>
			<g clip-path="url(#SVGID_4_)">
				<polygon fill="none" points="399.901,285.683 399.758,285.685 399.749,285.611 				"/>
			</g>
			<polygon clip-path="url(#SVGID_4_)" fill="#C1A22E" points="399.661,285.614 399.651,285.691 399.512,285.711 			"/>
			<g clip-path="url(#SVGID_4_)">
				<polygon fill="none" points="399.661,285.614 399.651,285.691 399.512,285.711 				"/>
			</g>
			<polygon clip-path="url(#SVGID_4_)" fill="#C1A22E" points="398.879,287.012 398.952,286.836 398.889,286.717 398.823,286.893 
							"/>
			<g clip-path="url(#SVGID_4_)">
				<polygon fill="none" points="398.879,287.012 398.952,286.836 398.889,286.717 398.823,286.893 				"/>
			</g>
			<polygon clip-path="url(#SVGID_4_)" fill="#C1A22E" points="399.022,287.106 399.108,286.898 398.946,287.066 			"/>
			<g clip-path="url(#SVGID_4_)">
				<polygon fill="#C1A22E" points="399.042,287.163 398.926,287.103 399.071,286.881 398.973,287.094 399.022,287.106 
					398.983,287.092 399.079,286.87 399.042,287.163 				"/>
			</g>
			<path clip-path="url(#SVGID_4_)" fill="#2C3282" d="M402.936,290.478l0.453-5.245l2.777-1.597l2.146,2.327l-1.432,5.054
				C405.496,290.734,404.703,290.612,402.936,290.478L402.936,290.478z"/>
			<g clip-path="url(#SVGID_4_)">
				<path fill="#2B2876" d="M406.895,291.038l-0.018-0.002c-1.379-0.281-2.182-0.406-3.943-0.537l0.436-5.268l2.787-1.611
					l2.17,2.333L406.895,291.038L406.895,291.038z M406.152,283.648l-2.756,1.602l-0.443,5.23c1.74,0.111,2.543,0.236,3.916,0.514
					l1.426-5.037L406.152,283.648L406.152,283.648z"/>
			</g>
			<path clip-path="url(#SVGID_4_)" fill="#F4EB36" d="M400.383,288.097l-0.137,0.031l0.006,0.25l-0.168,0.034l-0.117,0.219
				l0.072,0.068c0.004,0.008-0.059,0.162-0.055,0.162s0.045,0.057,0.045,0.057l0.043,0.136l0.115,0.014l0.027,0.156l0.18,0.028
				l0.166,0.117l0.01,0.074l0.189,0.006l0.129,0.04l0.449-0.051l0.062-0.094l0.002-0.125l0.242-0.009l0.021-0.202h0.131
				l-0.016-0.227l0.105,0.008l-0.027-0.108l-0.064-0.088l-0.014-0.14l-0.191-0.185l-0.041-0.244c0,0-0.121-0.054-0.121-0.057
				c0-0.002-0.008-0.162-0.008-0.162l0.137-0.188l-0.016-0.077h-0.125l-0.094,0.077c0,0-0.125,0.011-0.125,0.014v0.057l0.031,0.108
				c0,0.003-0.145,0-0.145,0l-0.006-0.167l-0.207-0.1c0,0-0.189,0.128-0.189,0.131s-0.01,0.15-0.01,0.15l-0.094,0.026l-0.094-0.139
				l-0.168-0.062l-0.088-0.006l-0.002,0.108l0.174,0.225L400.383,288.097z"/>
			<g clip-path="url(#SVGID_4_)">
				<path fill="#C1A22E" d="M400.885,289.532l-0.352-0.048l-0.014-0.105l-0.15-0.091l-0.162-0.02l-0.062-0.19l-0.078,0.017
					l-0.121-0.333l-0.014-0.151l0.115-0.219l0.197-0.057l-0.041-0.205l0.172-0.074l-0.018-0.097l-0.166-0.196l-0.004-0.133v-0.042
					l0.131,0.008l0.18,0.062l0.115,0.156l0.025-0.156c0-0.02,0-0.02,0.209-0.162l0.248,0.096l0.029,0.205l0.064-0.04l-0.033-0.054
					c-0.002-0.111-0.002-0.111,0.162-0.128l0.072-0.068l0.15-0.009l0.035,0.003l0.021,0.108l-0.145,0.222l0.018,0.136
					c-0.002-0.025,0.094,0.02,0.094,0.02l0.068,0.273l0.176,0.165l0.117,0.355l-0.15,0.042l0.062,0.182l-0.172,0.045l0.021,0.165
					l-0.281,0.045l0.035,0.085l-0.07,0.114L400.885,289.532L400.885,289.532z M400.76,289.407l0.133,0.04l0.439-0.051l0.033-0.074
					l-0.004-0.105l0.283-0.045l-0.018-0.165l0.17-0.04l-0.059-0.182l0.152-0.034l-0.131-0.131l-0.021-0.162l-0.176-0.159
					l-0.055-0.264c-0.123-0.034-0.123-0.034-0.123-0.065l-0.008-0.159l0.145-0.216l-0.105-0.011l-0.068,0.068
					c-0.02,0.008-0.125,0.02-0.141,0.022c0.062,0.117,0.062,0.117,0.062,0.125l-0.188,0.043l-0.047-0.208l-0.175-0.062
					c0.004,0.014-0.121,0.099-0.146,0.119c0.008,0.009,0,0.125,0,0.125v0.028l-0.123,0.034l-0.141-0.156l-0.146-0.045l-0.033,0.065
					l0.162,0.196l-0.006,0.165l-0.17,0.068l0.039,0.208l-0.203,0.074l-0.09,0.199c0.086,0.048,0.082,0.06,0.043,0.162
					c-0.037,0.005-0.035,0.011,0.018,0.082l0.051,0.145l0.078-0.011l0.062,0.19l0.146-0.006l0.197,0.133l0.014,0.091L400.76,289.407
					L400.76,289.407z"/>
			</g>
			<g clip-path="url(#SVGID_4_)">
				<path fill="none" d="M401.672,289.003l-0.037-0.133L401.672,289.003z"/>
			</g>
			<g clip-path="url(#SVGID_4_)">
				<path fill="none" d="M401.775,288.782l-0.062-0.091L401.775,288.782z"/>
			</g>
			<path clip-path="url(#SVGID_4_)" fill="#C1A22E" d="M400.043,288.68l0.197-0.011l0.039,0.176l0.066,0.057l0.008,0.321
				l0.066,0.026l0.018-0.128l0.152-0.011l0.031,0.258l-0.039,0.034l0.016,0.04l0.184-0.002c0,0,0.039-0.071,0.041-0.071
				c0.006,0,0.105-0.008,0.105-0.006c0,0.003,0.041,0.077,0.041,0.077l0.031-0.1c0,0,0.096-0.04,0.096-0.037
				c0,0.006,0.078,0.125,0.078,0.125l0.135-0.017l-0.082-0.077l-0.035-0.167l0.188-0.1l0.074,0.125c0,0,0.072,0.003,0.066,0
				c-0.004-0.005-0.082-0.145-0.082-0.145v-0.29l0.141-0.19l0.197-0.022v-0.08l-0.197-0.179l-0.051-0.247l-0.111-0.057l-0.031,0.034
				l-0.121,0.012l0.121,0.179v0.117l0.057,0.028l-0.01,0.321c0,0-0.139,0.02-0.139,0.022s-0.01,0.179-0.01,0.179l-0.086,0.085
				c0,0-0.049,0.165-0.053,0.165s-0.08,0.102-0.08,0.102l-0.154,0.006c0,0-0.09-0.085-0.09-0.088c0-0.002-0.014-0.125-0.014-0.125
				s-0.059-0.017-0.062-0.017c-0.006,0-0.035-0.137-0.035-0.137l-0.105-0.057l-0.006-0.083l-0.1-0.042c0,0-0.014-0.074-0.016-0.077
				c-0.004-0.003-0.049-0.031-0.053-0.031c-0.002,0-0.002-0.202-0.002-0.202l0.088-0.015l-0.051-0.065l-0.016-0.057v-0.057
				l0.076-0.074c0,0-0.137-0.017-0.137-0.014c0,0.002-0.131,0.06-0.131,0.054c0.006,0-0.002,0.239-0.002,0.239l-0.152,0.045
				l-0.123,0.196L400.043,288.68z"/>
			<g clip-path="url(#SVGID_4_)">
				<path fill="#C1A22E" d="M400.571,289.484l-0.025-0.065l0.006-0.304l-0.109,0.048l0.02,0.091l-0.008,0.054l-0.113-0.045
					l-0.037-0.361l-0.102-0.225l-0.172,0.045l-0.076-0.065l0.113-0.248l0.168-0.062c-0.018-0.014-0.014-0.17-0.016-0.193
					c0.045-0.051,0.135-0.088,0.146-0.097c0.045-0.009,0.166,0.008,0.166,0.008l-0.062,0.216l-0.061-0.046l0.057-0.108
					c-0.027,0.009-0.064,0.006-0.074,0.003c0.029,0.011-0.045,0.034-0.094,0.048c0.006,0.025,0.004,0.088,0.002,0.205l-0.184,0.085
					l-0.1,0.176l0.223-0.02l0.08,0.207l0.078,0.387v-0.105l0.191-0.045l0.072,0.295l-0.027,0.034l0.188-0.025l-0.004,0.085
					L400.571,289.484L400.571,289.484z M401.182,289.467c-0.129-0.148-0.129-0.148-0.129-0.165l-0.043,0.148l-0.125-0.088
					l-0.057,0.009l0.098-0.051l0.004,0.045l0.074,0.054l0.006-0.02l-0.027-0.097c0.099-0.04,0.105-0.04,0.113-0.04
					c0.045,0.04,0.113,0.142,0.113,0.142l0.094-0.037l-0.105-0.003l-0.045-0.193l0.207-0.142l0.051,0.054
					c-0.002-0.005-0.004-0.008-0.008-0.014l-0.008-0.312l0.043-0.057c-0.043,0.017-0.096,0.025-0.121,0.031
					c0.016,0.02,0.01,0.145,0.01,0.145l-0.1,0.11c-0.047,0.179-0.047,0.179-0.082,0.179c0.014,0.003-0.049,0.085-0.049,0.085
					l-0.185,0.022c-0.133-0.108-0.133-0.108-0.133-0.131l-0.012-0.119c-0.059,0.017-0.061,0.009-0.096-0.147l-0.105-0.043
					l-0.008-0.102l-0.094-0.017l-0.02-0.091c-0.059-0.009-0.059-0.009-0.059-0.25v-0.037l0.125-0.02l-0.002-0.002l0.086,0.074
					l-0.145,0.025c0.021,0.02,0.021,0.139,0.021,0.156c0.049,0.017,0.055,0.02,0.068,0.108l0.1,0.023l0.008,0.105l0.082,0.025
					c0.021,0.026,0.047,0.134,0.053,0.154c0.066,0.028,0.082,0.156,0.082,0.159c0-0.011,0.076,0.057,0.076,0.057l0.123-0.014
					c0.057-0.103,0.057-0.105,0.08-0.105c-0.023,0,0.014-0.136,0.014-0.136l0.098-0.102l-0.004-0.151c0-0.037,0-0.037,0.176-0.06
					l-0.082-0.426l-0.115-0.156l0.152-0.074l0.166,0.025l0.072,0.276l0.197,0.17v0.097l-0.234,0.065l-0.111,0.17l0.008,0.267l0,0
					c0.006,0,0.066,0.105,0.076,0.119l-0.104,0.068l-0.107-0.148l-0.131,0.114l0.125,0.179L401.182,289.467L401.182,289.467z
					 M401.396,288.018l-0.131,0.048l0.154,0.117l0.051,0.466l0.074-0.105l0.227-0.04l-0.221-0.188l-0.062-0.27L401.396,288.018
					L401.396,288.018z"/>
			</g>
			<path clip-path="url(#SVGID_4_)" fill="#614022" d="M400.815,289.003l0.1-0.057l-0.004-0.114l-0.096-0.022l-0.039-0.037
				l0.109,0.017l0.13-0.008l0.049-0.023c-0.021,0.048-0.035,0.042-0.039,0.042s-0.074,0.037-0.074,0.037l0.004,0.111
				c0,0,0.232,0.028,0.226,0.028c-0.004,0,0,0.045-0.008,0.045s-0.236-0.051-0.236-0.051l-0.146,0.085L400.815,289.003z"/>
			<g clip-path="url(#SVGID_4_)">
				<path fill="#C1A22E" d="M400.75,289.109l0.045-0.114l0.111-0.068l-0.031-0.108l0.055,0.011l-0.002-0.011l0.091-0.034l0.004,0.02
					l-0.062,0.054l0.014,0.088c0.228,0.011,0.228,0.011,0.228,0.031c-0.033,0.065-0.043,0.062-0.271,0.014L400.75,289.109
					L400.75,289.109z"/>
			</g>
			<path clip-path="url(#SVGID_4_)" fill="#C1A22E" d="M401.395,288.325l-0.135,0.102l-0.086,0.151l-0.045,0.008L401,288.413
				l-0.15,0.003c0,0-0.08,0.202-0.08,0.205c0,0.006-0.061-0.006-0.061-0.006l-0.156-0.167c0,0-0.049-0.085-0.041-0.085
				s0.391,0.003,0.391,0.003l-0.004-0.182c0,0-0.059-0.017-0.088-0.037c0.021-0.006,0.21-0.006,0.21-0.006l-0.08,0.054v0.156
				l0.337,0.003L401.395,288.325z"/>
			<g clip-path="url(#SVGID_4_)">
				<path fill="#C1A22E" d="M400.766,288.663l-0.064-0.008l-0.199-0.202l-0.025-0.11l0.426-0.02l-0.043-0.128l0.043-0.023
					c-0.018,0.006-0.033,0.009-0.045,0.012c-0.041-0.083,0.035-0.085,0.164-0.085h0.135l-0.191,0.131l0.018,0.122l0.4-0.065
					l-0.195,0.318l-0.092,0.006l-0.13-0.17l-0.105,0.02c0.016,0.012-0.045,0.159-0.049,0.176L400.766,288.663L400.766,288.663z
					 M400.934,288.364l-0.422,0.04l0.227,0.182c0.012-0.028,0.031-0.083,0.074-0.185l0.125-0.02L400.934,288.364L400.934,288.364z"
					/>
			</g>
			<path clip-path="url(#SVGID_4_)" fill="#614022" d="M400.702,288.413h0.033c0.016,0,0.027,0.014,0.027,0.028v0.031
				c0,0.017-0.012,0.029-0.027,0.029h-0.033c-0.016,0-0.029-0.012-0.029-0.029v-0.031
				C400.672,288.427,400.686,288.413,400.702,288.413L400.702,288.413z"/>
			<path clip-path="url(#SVGID_4_)" fill="#614022" d="M401.125,288.396h0.033c0.014,0,0.029,0.012,0.029,0.028v0.031
				c0,0.015-0.016,0.026-0.029,0.026h-0.033c-0.018,0-0.029-0.011-0.029-0.026v-0.031
				C401.096,288.407,401.107,288.396,401.125,288.396L401.125,288.396z"/>
			<g clip-path="url(#SVGID_4_)">
				<path fill="#C1A22E" d="M400.514,288.148l-0.041-0.028l0.012-0.048c0.129-0.054,0.23-0.094,0.4-0.108
					c0.171-0.02,0.306,0.005,0.449,0.034c-0.158,0.054-0.281,0.031-0.441,0.048C400.735,288.061,400.643,288.097,400.514,288.148
					L400.514,288.148z"/>
			</g>
			<polygon clip-path="url(#SVGID_4_)" fill="#C1A22E" points="400.551,287.825 400.434,287.825 400.27,287.654 400.364,287.666 
				400.473,287.711 			"/>
			<g clip-path="url(#SVGID_4_)">
				<polygon fill="#C1A22E" points="400.629,287.867 400.434,287.867 400.161,287.597 400.489,287.674 400.629,287.867 				"/>
			</g>
			<polygon clip-path="url(#SVGID_4_)" fill="#C1A22E" points="401.244,287.759 401.506,287.563 401.42,287.552 401.322,287.64 
				401.209,287.657 			"/>
			<g clip-path="url(#SVGID_4_)">
				<polygon fill="none" points="401.244,287.759 401.506,287.563 401.42,287.552 401.322,287.64 401.209,287.657 				"/>
			</g>
			<polygon clip-path="url(#SVGID_4_)" fill="#C1A22E" points="401.092,287.796 400.684,287.811 400.688,287.768 400.836,287.753 
				400.854,287.694 400.899,287.694 400.932,287.748 401.078,287.773 			"/>
			<g clip-path="url(#SVGID_4_)">
				<polygon fill="#C1A22E" points="400.637,287.853 400.647,287.765 400.833,287.711 400.752,287.768 400.883,287.762 
					400.864,287.711 401.086,287.733 401.125,287.796 401.094,287.839 400.637,287.853 				"/>
			</g>
			<polygon clip-path="url(#SVGID_4_)" fill="#C1A22E" points="401.07,287.643 400.928,287.646 400.917,287.572 			"/>
			<g clip-path="url(#SVGID_4_)">
				<polygon fill="none" points="401.07,287.643 400.928,287.646 400.917,287.572 				"/>
			</g>
			<polygon clip-path="url(#SVGID_4_)" fill="#C1A22E" points="400.833,287.575 400.821,287.648 400.684,287.671 			"/>
			<g clip-path="url(#SVGID_4_)">
				<polygon fill="none" points="400.833,287.575 400.821,287.648 400.684,287.671 				"/>
			</g>
			<polygon clip-path="url(#SVGID_4_)" fill="#C1A22E" points="400.051,288.972 400.122,288.796 400.059,288.674 399.995,288.853 
							"/>
			<g clip-path="url(#SVGID_4_)">
				<polygon fill="none" points="400.051,288.972 400.122,288.796 400.059,288.674 399.995,288.853 				"/>
			</g>
			<polygon clip-path="url(#SVGID_4_)" fill="#C1A22E" points="400.192,289.066 400.28,288.859 400.114,289.026 			"/>
			<g clip-path="url(#SVGID_4_)">
				<polygon fill="#C1A22E" points="400.213,289.123 400.096,289.063 400.241,288.842 400.145,289.055 400.192,289.066 
					400.155,289.049 400.25,288.83 400.213,289.123 				"/>
			</g>
			<path clip-path="url(#SVGID_4_)" fill="#CB202B" d="M403.625,289.541l-0.141,0.162l0.012,0.136l0.287-0.006
				c0.094-0.02,0.117-0.054,0.137-0.091c0.027-0.045,0.008-0.071,0.016-0.133L403.625,289.541z"/>
			<g clip-path="url(#SVGID_4_)">
				<path fill="#D3202B" d="M403.48,289.859l-0.014-0.156l0.143-0.173l0.33,0.062l-0.02,0.15l0.016,0.009
					c-0.02,0.037-0.045,0.077-0.146,0.102L403.48,289.859L403.48,289.859z"/>
			</g>
			<path clip-path="url(#SVGID_4_)" fill="#CB202B" d="M404.312,289.927l-0.131,0.097l-0.01,0.128l0.256,0.017
				c0.094-0.014,0.109-0.028,0.129-0.062c0.035-0.045,0.025-0.045,0.039-0.105L404.312,289.927z"/>
			<g clip-path="url(#SVGID_4_)">
				<path fill="#D3202B" d="M404.428,290.188l-0.258-0.02l-0.006-0.145l0.137-0.113l0.299,0.074l-0.043,0.122l0.016,0.008
					c-0.023,0.04-0.041,0.057-0.141,0.074H404.428L404.428,290.188z"/>
			</g>
			<path clip-path="url(#SVGID_4_)" fill="#CB202B" d="M405.451,289.597l-0.135,0.137l0.006,0.105l0.273,0.011
				c0.092-0.022,0.078-0.017,0.107-0.065c0.027-0.049,0.02-0.057,0.027-0.12L405.451,289.597z"/>
			<g clip-path="url(#SVGID_4_)">
				<path fill="#D3202B" d="M405.596,289.867l-0.273-0.008l-0.025-0.123l0.141-0.15l0.295,0.062l-0.029,0.137l0.016,0.008
					c-0.031,0.054-0.037,0.054-0.113,0.074H405.596L405.596,289.867z"/>
			</g>
			<path clip-path="url(#SVGID_4_)" fill="#CB202B" d="M406.248,289.845l-0.154,0.13v0.131l0.289,0.028
				c0.092-0.022,0.1-0.048,0.123-0.083c0.027-0.045,0.014-0.051,0.021-0.113L406.248,289.845z"/>
			<g clip-path="url(#SVGID_4_)">
				<path fill="#D3202B" d="M406.385,290.151l-0.295-0.025l-0.016-0.151l0.16-0.142l0.299,0.088l-0.012,0.142
					c-0.027,0.04-0.045,0.068-0.135,0.088H406.385L406.385,290.151z"/>
			</g>
			<path clip-path="url(#SVGID_4_)" fill="#CB202B" d="M404.303,286.41l0.549,0.361c0.102-0.085,0.314-0.031,0.4-0.009
				c0.148,0.04,0.256,0.128,0.387,0.151c0.238,0.06,0.527,0.102,0.744,0.08c0.217-0.025,0.4-0.139,0.561-0.222v-0.051h-0.105
				c-0.174,0.062-0.418,0.065-0.604,0.04c-0.188-0.023-0.238-0.108-0.516-0.188l-0.023-0.051c0.338,0.014,0.408,0.006,0.551-0.057
				c0.137-0.034,0.199-0.117,0.277-0.171l-0.002-0.062l-0.104-0.005c-0.131,0.088-0.213,0.102-0.412,0.085
				c-0.186-0.02-0.35-0.122-0.469-0.125c-0.133,0-0.125-0.06-0.254-0.068c-0.199-0.017-0.414,0.011-0.604,0.057
				C404.453,286.242,404.418,286.299,404.303,286.41L404.303,286.41z"/>
			<g clip-path="url(#SVGID_4_)">
				<path fill="#BA2025" d="M406.25,287.018c-0.18,0-0.398-0.031-0.617-0.088c-0.07-0.012-0.133-0.043-0.199-0.074
					c-0.057-0.028-0.117-0.06-0.188-0.076c-0.188-0.051-0.316-0.049-0.383,0.005l-0.57-0.361c0.127-0.156,0.18-0.208,0.383-0.267
					c0.215-0.054,0.424-0.074,0.611-0.057c0.062,0.003,0.096,0.02,0.125,0.037c0.031,0.015,0.059,0.029,0.119,0.029
					c0.064,0.002,0.137,0.028,0.211,0.057c0.082,0.028,0.17,0.06,0.264,0.068c0.189,0.017,0.27,0.008,0.402-0.08l0.006-0.006
					l0.107,0.017l-0.006,0.014l0.006-0.006v0.017c-0.006,0-0.008,0.003-0.01,0.003l-0.037,0.105c-0.057,0.046-0.119,0.1-0.225,0.125
					c-0.105,0.048-0.172,0.062-0.328,0.062h-0.088l0.088-0.037c0.152,0,0.215-0.014,0.316-0.06c0.1-0.026,0.156-0.074,0.213-0.12
					l0.055-0.074c-0.25,0.08-0.307,0.094-0.504,0.074c-0.096-0.008-0.189-0.042-0.271-0.074c-0.074-0.025-0.141-0.048-0.193-0.051
					c-0.074,0-0.109-0.017-0.141-0.034c-0.029-0.014-0.057-0.028-0.113-0.031c-0.189-0.017-0.387,0.003-0.6,0.054
					c-0.193,0.057-0.244,0.108-0.326,0.19l0.502,0.375c0.037-0.06,0.197-0.065,0.396-0.014c0.072,0.02,0.135,0.051,0.195,0.08
					c0.064,0.031,0.125,0.062,0.189,0.074c0.275,0.068,0.541,0.1,0.74,0.077c0.182-0.02,0.34-0.102,0.479-0.176l-0.021-0.06
					c-0.217,0.08-0.443,0.062-0.605,0.043c-0.102-0.015-0.164-0.043-0.242-0.083c-0.068-0.031-0.146-0.068-0.277-0.105l0.061-0.025
					c0.111,0.04,0.176,0.074,0.232,0.1c0.074,0.034,0.135,0.065,0.229,0.077c0.16,0.02,0.379,0.037,0.598-0.04l0.111-0.003
					l-0.066,0.128c-0.143,0.074-0.305,0.162-0.492,0.182C406.344,287.015,406.297,287.018,406.25,287.018L406.25,287.018z"/>
			</g>
			<path clip-path="url(#SVGID_4_)" fill="#83383C" d="M404.412,286.327c0.051,0.014,0.109,0.028,0.152,0.054
				c0.043,0.022,0.031,0.022,0.076,0.057c-0.008-0.045-0.006-0.04-0.033-0.077c-0.029-0.034-0.078-0.065-0.117-0.091
				L404.412,286.327z"/>
			<g clip-path="url(#SVGID_4_)">
				<path fill="none" d="M404.412,286.327c0.051,0.014,0.109,0.028,0.152,0.054c0.043,0.022,0.031,0.022,0.076,0.057
					c-0.008-0.045-0.006-0.04-0.033-0.077c-0.029-0.034-0.078-0.065-0.117-0.091L404.412,286.327z"/>
			</g>
			<path clip-path="url(#SVGID_4_)" fill="#83383C" d="M404.867,286.719c0-0.045-0.023-0.088-0.043-0.128
				c-0.016-0.042-0.033-0.077-0.066-0.116c0.043,0.011,0.066,0.028,0.102,0.074c0.037,0.042,0.037,0.085,0.041,0.148
				L404.867,286.719z"/>
			<g clip-path="url(#SVGID_4_)">
				<path fill="none" d="M404.867,286.719c0-0.045-0.023-0.088-0.043-0.128c-0.016-0.042-0.033-0.077-0.066-0.116
					c0.043,0.011,0.066,0.028,0.102,0.074c0.037,0.042,0.037,0.085,0.041,0.148L404.867,286.719z"/>
			</g>
			<path clip-path="url(#SVGID_4_)" fill="#83383C" d="M404.971,286.146c0.014,0.031,0.037,0.054,0.061,0.125
				c0.016,0.062,0.025,0.15,0.025,0.15c-0.006-0.045,0.006-0.099,0-0.147c-0.01-0.045-0.035-0.088-0.041-0.134L404.971,286.146z"/>
			<g clip-path="url(#SVGID_4_)">
				<path fill="none" d="M404.971,286.146c0.014,0.031,0.037,0.054,0.061,0.125c0.016,0.062,0.025,0.15,0.025,0.15
					c-0.006-0.045,0.006-0.099,0-0.147c-0.01-0.045-0.035-0.088-0.041-0.134L404.971,286.146z"/>
			</g>
			<polygon clip-path="url(#SVGID_4_)" fill="#83383C" points="405.414,286.174 405.438,286.435 405.463,286.188 			"/>
			<g clip-path="url(#SVGID_4_)">
				<polygon fill="none" points="405.414,286.174 405.438,286.435 405.463,286.188 				"/>
			</g>
			<path clip-path="url(#SVGID_4_)" fill="#83383C" d="M405.309,286.714c0.01-0.043,0.008-0.085,0-0.128
				c-0.002-0.043-0.02-0.08-0.033-0.128c0.043,0.037,0.061,0.083,0.082,0.133C405.357,286.64,405.346,286.68,405.309,286.714
				L405.309,286.714z"/>
			<g clip-path="url(#SVGID_4_)">
				<path fill="none" d="M405.309,286.714c0.01-0.043,0.008-0.085,0-0.128c-0.002-0.043-0.02-0.08-0.033-0.128
					c0.043,0.037,0.061,0.083,0.082,0.133C405.357,286.64,405.346,286.68,405.309,286.714z"/>
			</g>
			<path clip-path="url(#SVGID_4_)" fill="#83383C" d="M405.766,286.6c0.004,0,0.016,0.088-0.004,0.15
				c-0.021,0.065-0.035,0.068-0.074,0.103c0.051-0.037,0.096-0.048,0.111-0.088C405.814,286.702,405.771,286.608,405.766,286.6
				L405.766,286.6z"/>
			<g clip-path="url(#SVGID_4_)">
				<path fill="none" d="M405.766,286.6c0.004,0,0.016,0.088-0.004,0.15c-0.021,0.065-0.035,0.068-0.074,0.103
					c0.051-0.037,0.096-0.048,0.111-0.088C405.814,286.702,405.771,286.608,405.766,286.6z"/>
			</g>
			<path clip-path="url(#SVGID_4_)" fill="#83383C" d="M405.848,286.515c-0.033,0.006-0.039-0.125-0.059-0.19
				c0.014-0.005,0.029-0.002,0.043,0.026C405.846,286.367,405.84,286.461,405.848,286.515L405.848,286.515z"/>
			<g clip-path="url(#SVGID_4_)">
				<path fill="none" d="M405.848,286.515c-0.033,0.006-0.039-0.125-0.059-0.19c0.014-0.005,0.029-0.002,0.043,0.026
					C405.846,286.367,405.84,286.461,405.848,286.515z"/>
			</g>
			<path clip-path="url(#SVGID_4_)" fill="#83383C" d="M406.158,286.464l0.014-0.111l0.035-0.003v0.094
				C406.207,286.447,406.164,286.466,406.158,286.464L406.158,286.464z"/>
			<g clip-path="url(#SVGID_4_)">
				<path fill="none" d="M406.158,286.464l0.014-0.111l0.035-0.003v0.094C406.207,286.447,406.164,286.466,406.158,286.464z"/>
			</g>
			<path clip-path="url(#SVGID_4_)" fill="#83383C" d="M406.137,286.753c0.02,0.034,0.055,0.074,0.059,0.111
				s-0.008,0.054-0.037,0.108l0.055,0.003c0.025-0.042,0.033-0.074,0.027-0.111c-0.002-0.034-0.02-0.068-0.055-0.097
				L406.137,286.753z"/>
			<g clip-path="url(#SVGID_4_)">
				<path fill="#84363C" d="M406.221,286.995l-0.064-0.006l0.021-0.125l-0.059-0.103c0.012,0.003,0.023,0.006,0.033,0.009h-0.021
					l0.084,0.091c0.004,0.037-0.008,0.06-0.031,0.103l0.029,0.011l-0.018-0.008c0.023-0.04,0.031-0.068,0.029-0.1l-0.033-0.085
					c0.053,0.02,0.064,0.048,0.07,0.083c0.002,0.037-0.006,0.074-0.035,0.119L406.221,286.995L406.221,286.995z"/>
			</g>
			<polygon clip-path="url(#SVGID_4_)" fill="#83383C" points="406.512,286.782 406.523,286.936 406.564,286.913 406.557,286.782 
							"/>
			<g clip-path="url(#SVGID_4_)">
				<polygon fill="none" points="406.512,286.782 406.523,286.936 406.564,286.913 406.557,286.782 				"/>
			</g>
			<path clip-path="url(#SVGID_4_)" fill="#F4EB36" d="M404.271,286.435c-0.125,0.037-0.17,0.105-0.23,0.165l-0.348-0.179
				c-0.055,0.048-0.078,0.117-0.053,0.185c0.029,0.068,0.137,0.174,0.217,0.228c-0.02,0.097-0.049,0.167-0.082,0.25
				c-0.041,0.094-0.119,0.21-0.123,0.25c-0.006,0.042-0.02,0.134,0.047,0.159c0.064,0.025,0.271-0.017,0.342-0.011
				c-0.01,0.037-0.037,0.102-0.027,0.13c0.008,0.026,0.025,0.037,0.082,0.037c-0.016,0.037-0.049,0.08-0.033,0.1
				c0.045,0.034,0.094,0.028,0.135,0.025c-0.025,0.028-0.062,0.065-0.104,0.108c-0.068,0.068-0.148,0.142-0.182,0.182
				c-0.059,0.08-0.061,0.162,0.051,0.154c-0.043,0.045-0.082,0.088-0.076,0.128c0.008,0.048,0.033,0.079,0.111,0.051
				c-0.047,0.105-0.016,0.202,0.002,0.312c-0.041,0.083-0.023,0.159-0.035,0.256c-0.08,0.045-0.09,0.105-0.143,0.199
				c-0.047,0.1-0.135,0.125-0.184,0.341l0.316,0.08c0.014-0.042,0.055-0.074,0.064-0.116c0.012-0.043,0.012-0.1,0.006-0.148
				c0.062-0.094,0.193-0.281,0.232-0.383c0.07-0.037,0.119-0.06,0.174-0.06c0.051,0,0.084,0.031,0.139,0.06
				c-0.023,0.088-0.092,0.179-0.096,0.298v0.33c-0.014,0.079-0.105,0.082-0.146,0.327l0.285,0.074
				c0.051-0.083,0.127-0.094,0.146-0.128l0.021-0.341c0.037-0.159,0.26-0.292,0.266-0.469c0.08,0,0.111,0.008,0.143-0.009
				c0.045-0.014,0.057-0.04,0.092-0.071c0.014,0.054,0.055,0.06,0.09,0.06s0.105-0.051,0.135-0.071
				c0.02,0.028,0.031,0.057,0.072,0.065c0.043,0.011,0.162-0.009,0.211-0.02l-0.236,0.386c-0.008,0.037,0.006,0.06-0.014,0.103
				c-0.018,0.04-0.051,0.057-0.068,0.094l0.268,0.062l0.043-0.111c0.057-0.023,0.102-0.037,0.133-0.074
				c0.029-0.034,0.029-0.105,0.045-0.145c0.092-0.065,0.234-0.208,0.336-0.327c0.068,0.011,0.164,0.068,0.201,0.15
				c0.006,0.091,0.012,0.258-0.029,0.372l-0.172,0.273l-0.021,0.042l0.271,0.097l0.174-0.134l0.008-0.188
				c0.086-0.153,0.211-0.236,0.328-0.332c0-0.006,0.014-0.205,0.008-0.21c-0.027-0.023-0.049-0.011-0.057-0.051
				c-0.012-0.04-0.006-0.153,0-0.196c0.016-0.023,0.053-0.045,0.051-0.065c-0.045-0.051-0.031-0.185-0.018-0.29
				c-0.004-0.12,0.16-0.259,0.182-0.327l0.014-0.125c-0.02-0.031-0.041-0.051-0.041-0.074c-0.004-0.028,0.027-0.071,0.047-0.1
				l0.037-0.057l-0.006-0.307c-0.01-0.034-0.037-0.085-0.066-0.091c-0.025-0.005-0.066,0.026-0.096,0.057l-0.158,0.116
				c-0.074,0.023-0.139,0.031-0.27,0l-0.201,0.003c-0.105,0.028-0.162,0.034-0.262-0.008l-0.117,0.003
				c-0.037,0.02-0.09,0.051-0.131,0.06c-0.039,0.008-0.094,0.008-0.133-0.003c-0.309,0.02-0.232,0.042-0.318,0.062
				c-0.07-0.014-0.049-0.051-0.322-0.051l-0.109-0.034c-0.139-0.088-0.242-0.233-0.332-0.4c0.283-0.083,0.402-0.167,0.49-0.361
				l-0.406,0.014L404.271,286.435z"/>
			<g clip-path="url(#SVGID_4_)">
				<path fill="#E8D62B" d="M404.621,289.986l-0.299-0.076c0.014-0.182,0.062-0.242,0.098-0.287l0.037-0.389
					c0.002-0.083,0.033-0.151,0.061-0.21l-0.086-0.128c-0.047,0-0.094,0.02-0.166,0.057c-0.033,0.094-0.162,0.284-0.225,0.375
					c0.006,0.022,0.012,0.088-0.004,0.145l-0.086,0.128l-0.318-0.077c0.02-0.17,0.07-0.233,0.115-0.287l0.092-0.147
					c0.029-0.057,0.051-0.1,0.109-0.136c-0.037,0.074-0.055,0.108-0.076,0.153c-0.051,0.099-0.072,0.128-0.098,0.156
					c-0.041,0.048-0.088,0.108-0.119,0.247l0.303,0.057l0.043-0.105c0.012-0.037,0.014-0.085,0.006-0.142
					c0.064-0.102,0.193-0.29,0.232-0.389c0.129-0.077,0.213-0.083,0.299-0.031c0.039,0.074,0.025,0.105,0.012,0.139
					c-0.029,0.06-0.057,0.122-0.057,0.196v0.33c-0.078,0.125-0.125,0.179-0.148,0.329l0.26,0.051
					c0.033-0.045,0.072-0.068,0.102-0.088l0.057-0.361c0.018-0.08,0.074-0.15,0.131-0.219c0.064-0.077,0.131-0.159,0.133-0.25h0.08
					l0.027-0.017l0.062,0.025l-0.137,0.012c0.002,0.082-0.07,0.17-0.139,0.252c-0.055,0.068-0.107,0.134-0.123,0.202l-0.021,0.338
					c-0.082,0.065-0.119,0.088-0.146,0.136L404.621,289.986L404.621,289.986z M406.557,289.918l-0.289-0.094l0.184-0.341
					c0.029-0.077,0.037-0.202,0.025-0.361c-0.029-0.068-0.117-0.125-0.184-0.137c-0.078,0.105-0.225,0.256-0.322,0.324l-0.043,0.145
					c-0.027,0.031-0.066,0.048-0.113,0.065l-0.059,0.114l-0.289-0.054l0.07-0.105l-0.021,0.054l0.227,0.08l0.021-0.1
					c0.08-0.04,0.113-0.054,0.137-0.08l0.049-0.147c0.094-0.068,0.238-0.213,0.332-0.324c0.09,0.006,0.193,0.065,0.23,0.156
					c0.014,0.17,0.002,0.298-0.027,0.384l-0.176,0.275l0.244,0.114l0.154-0.128l0.002-0.176c0.078-0.142,0.182-0.227,0.285-0.307
					c0.053-0.188,0.053-0.225,0.051-0.23c-0.068-0.097-0.062-0.216-0.057-0.256c0.004-0.105,0.018-0.236,0.033-0.355
					c-0.006-0.08,0.066-0.168,0.119-0.239c0.029-0.037,0.059-0.071,0.062-0.091l0.012-0.123c-0.043-0.099-0.02-0.136,0.01-0.176
					l0.029-0.358h-0.002l-0.133-0.017l-0.156,0.113c-0.076,0.026-0.154,0.037-0.287,0.003l-0.195,0.003
					c-0.094,0.028-0.166,0.037-0.268-0.008l-0.111,0.002c-0.043,0.029-0.09,0.051-0.125,0.06l-0.139-0.02v0.017
					c-0.211,0.017-0.236,0.028-0.26,0.042l-0.111,0.003c-0.033-0.014-0.076-0.031-0.27-0.034l-0.113-0.034
					c-0.131-0.082-0.238-0.213-0.346-0.409c0.295-0.108,0.406-0.19,0.492-0.378l-0.391,0.04l-0.58-0.381
					c-0.082,0.028-0.125,0.077-0.174,0.125l-0.025-0.008c0.055-0.071,0.105-0.122,0.205-0.151l0.586,0.384l0.395-0.02
					c-0.072,0.222-0.193,0.312-0.486,0.398c0.115,0.165,0.219,0.292,0.34,0.369l0.104,0.031c0.197,0,0.242,0.02,0.277,0.037
					c0.107-0.02,0.139-0.034,0.355-0.051l0.133,0.006c0.031-0.009,0.074-0.031,0.105-0.048l0.145-0.014
					c0.109,0.042,0.16,0.037,0.256,0.008l0.207-0.005c0.131,0.034,0.193,0.022,0.264,0.002l0.154-0.113
					c0.014-0.017,0.059-0.062,0.1-0.062c0.053,0.008,0.082,0.08,0.09,0.105l0.006,0.312l-0.086,0.156l0.031,0.199
					c-0.01,0.031-0.039,0.068-0.068,0.108c-0.053,0.065-0.117,0.147-0.115,0.219c-0.01,0.077-0.029,0.23,0.014,0.278
					c-0.051,0.122-0.059,0.233-0.049,0.267c0.062,0.051,0.066,0.057,0.053,0.247c-0.162,0.153-0.26,0.233-0.33,0.361l-0.008,0.182
					L406.557,289.918L406.557,289.918z M405.537,289.47l-0.014-0.006l0.014-0.105l0.234-0.384c-0.023,0.034-0.104,0.048-0.158,0.048
					l-0.113-0.062c-0.104,0.077-0.191,0.128-0.232,0.003l0.104,0.022c0.012,0,0.043-0.008,0.125-0.065l0.088,0.062
					c0.074,0,0.164-0.012,0.201-0.02L405.537,289.47L405.537,289.47z M403.957,288.938c-0.004-0.123-0.002-0.179,0.027-0.239
					c-0.029-0.131-0.045-0.216-0.002-0.31c-0.08,0.034-0.105,0.009-0.113-0.042c-0.006-0.034,0.016-0.068,0.045-0.105
					c0.006,0.048-0.014,0.077-0.008,0.103l0.037-0.015l0.07,0.074c-0.035,0.085-0.023,0.159-0.006,0.247
					c-0.018,0.116-0.018,0.167-0.02,0.227C403.977,288.901,403.965,288.921,403.957,288.938L403.957,288.938z M403.891,288.171
					c-0.037-0.037-0.023-0.077,0.006-0.116c0.029-0.037,0.082-0.088,0.141-0.145l0.146-0.15c-0.057,0.034-0.096,0.031-0.133,0.005
					l0.037-0.096l0.008,0.02l0.094,0.068l-0.055,0.111c-0.127,0.125-0.184,0.176-0.209,0.208
					C403.9,288.111,403.887,288.148,403.891,288.171L403.891,288.171z M404.088,287.668l-0.092-0.054
					c-0.008-0.025,0.004-0.068,0.021-0.119c-0.014,0.003-0.055,0.005-0.098,0.011c-0.053,0.006-0.111,0.011-0.156,0.011
					c-0.148-0.037-0.133-0.142-0.129-0.188c0.004-0.022,0.023-0.062,0.059-0.125c0.02-0.042,0.047-0.088,0.064-0.13
					c0.033-0.08,0.061-0.151,0.08-0.245c-0.074-0.04-0.186-0.147-0.213-0.219c-0.027-0.074-0.008-0.147,0.057-0.205l0.232,0.111
					l-0.227-0.08c-0.035,0.042-0.053,0.103-0.029,0.159c0.025,0.065,0.131,0.17,0.209,0.222c-0.014,0.114-0.041,0.188-0.076,0.27
					c-0.018,0.042-0.045,0.091-0.066,0.136c-0.025,0.042-0.053,0.091-0.053,0.108c-0.01,0.065-0.01,0.125,0.035,0.142
					c0.1,0.006,0.156,0,0.209-0.006c0.047-0.002,0.088-0.008,0.115-0.008L404.088,287.668L404.088,287.668z"/>
			</g>
			<path clip-path="url(#SVGID_4_)" fill="#624F1F" d="M404.129,286.936l0.111,0.048c0.016,0.017,0.043,0.034,0.062,0.037
				c0.018,0,0.031-0.017,0.047-0.031l0.104-0.054c-0.062-0.012-0.078-0.049-0.146-0.049
				C404.24,286.887,404.195,286.921,404.129,286.936L404.129,286.936z"/>
			<g clip-path="url(#SVGID_4_)">
				<path fill="#624F1F" d="M404.303,287.038l-0.182-0.088c0.004,0,0.006-0.003,0.01-0.006l-0.002-0.008l0.014,0.002
					c0.092-0.057,0.125-0.068,0.164-0.068l0.109,0.045l-0.109-0.011l-0.143,0.04l0.139,0.077V287v0.02l0.023-0.034l0.105-0.06
					l0.031,0.023L404.303,287.038L404.303,287.038z"/>
			</g>
			<path clip-path="url(#SVGID_4_)" fill="#C1A22E" d="M404.338,288.282c0,0.011-0.016,0.017-0.023,0.005
				c-0.012-0.133-0.039-0.227-0.082-0.333C404.279,288.035,404.318,288.163,404.338,288.282L404.338,288.282z"/>
			<g clip-path="url(#SVGID_4_)">
				<path fill="none" d="M404.338,288.282c0,0.011-0.016,0.017-0.023,0.005c-0.012-0.133-0.039-0.227-0.082-0.333
					C404.279,288.035,404.318,288.163,404.338,288.282z"/>
			</g>
			<path clip-path="url(#SVGID_4_)" fill="#C1A22E" d="M405.01,288.299c0.021,0.006,0.055,0.006,0.062-0.011
				c0.01-0.028-0.02-0.06-0.031-0.094c-0.035-0.077-0.059-0.159-0.076-0.193c-0.016-0.011-0.033-0.008-0.029,0.009
				C404.957,288.075,404.996,288.271,405.01,288.299L405.01,288.299z"/>
			<g clip-path="url(#SVGID_4_)">
				<path fill="none" d="M405.01,288.299c0.021,0.006,0.055,0.006,0.062-0.011c0.01-0.028-0.02-0.06-0.031-0.094
					c-0.035-0.077-0.059-0.159-0.076-0.193c-0.016-0.011-0.033-0.008-0.029,0.009C404.957,288.075,404.996,288.271,405.01,288.299z"
					/>
			</g>
			<path clip-path="url(#SVGID_4_)" fill="#C1A22E" d="M405.379,288.256c0.002,0.017-0.055-0.005-0.062-0.025
				c-0.002-0.037-0.076-0.298-0.062-0.31c0.014-0.005,0.062,0.088,0.078,0.134C405.336,288.08,405.369,288.174,405.379,288.256
				L405.379,288.256z"/>
			<g clip-path="url(#SVGID_4_)">
				<path fill="none" d="M405.379,288.256c0.002,0.017-0.055-0.005-0.062-0.025c-0.002-0.037-0.076-0.298-0.062-0.31
					c0.014-0.005,0.062,0.088,0.078,0.134C405.336,288.08,405.369,288.174,405.379,288.256z"/>
			</g>
			<path clip-path="url(#SVGID_4_)" fill="#C1A22E" d="M405.326,288.799c-0.002,0.017,0.043,0.003,0.059-0.011
				c0.049-0.077,0.111-0.159,0.129-0.19c0.012-0.031,0.064-0.244,0.049-0.241c-0.006-0.006-0.053,0.105-0.113,0.213
				C405.385,288.683,405.324,288.788,405.326,288.799L405.326,288.799z"/>
			<g clip-path="url(#SVGID_4_)">
				<path fill="#C1A22E" d="M405.336,288.828l-0.021-0.012c-0.008-0.025-0.012-0.031,0.119-0.255l0.072-0.142
					c0.008-0.003,0.014-0.006,0.021-0.006l-0.062,0.165c-0.1,0.176-0.119,0.213-0.121,0.221l-0.008-0.008v0.017l0.111-0.142
					c0.043-0.077,0.078-0.185,0.092-0.247c0.039,0.025-0.008,0.185-0.008,0.188L405.336,288.828L405.336,288.828z"/>
			</g>
			<path clip-path="url(#SVGID_4_)" fill="#C1A22E" d="M405.693,288.686c-0.018,0.008,0.037-0.182,0.041-0.216
				c0.01-0.054,0.023-0.151,0.047-0.276C405.807,288.367,405.777,288.555,405.693,288.686L405.693,288.686z"/>
			<g clip-path="url(#SVGID_4_)">
				<path fill="#C1A22E" d="M405.695,288.717l-0.018-0.02c-0.01-0.011-0.008-0.028,0.023-0.156l0.062-0.35
					c0.062,0.182,0.029,0.375-0.055,0.503L405.695,288.717L405.695,288.717z"/>
			</g>
			<path clip-path="url(#SVGID_4_)" fill="#C1A22E" d="M405.916,288.1c-0.014,0.011-0.17-0.253-0.154-0.253
				c0.004-0.011,0.133,0.165,0.15,0.196C405.92,288.058,405.928,288.08,405.916,288.1L405.916,288.1z"/>
			<g clip-path="url(#SVGID_4_)">
				<path fill="none" d="M405.916,288.1c-0.014,0.011-0.17-0.253-0.154-0.253c0.004-0.011,0.133,0.165,0.15,0.196
					C405.92,288.058,405.928,288.08,405.916,288.1z"/>
			</g>
			<path clip-path="url(#SVGID_4_)" fill="#C1A22E" d="M406.287,288.296c-0.012-0.011-0.006-0.094-0.029-0.185
				c-0.023-0.094-0.064-0.182-0.057-0.207c0.008-0.015,0.033-0.006,0.055,0.011c0.01,0.048,0.031,0.241,0.059,0.367
				C406.314,288.293,406.303,288.302,406.287,288.296L406.287,288.296z"/>
			<g clip-path="url(#SVGID_4_)">
				<path fill="none" d="M406.287,288.296c-0.012-0.011-0.006-0.094-0.029-0.185c-0.023-0.094-0.064-0.182-0.057-0.207
					c0.008-0.015,0.033-0.006,0.055,0.011c0.01,0.048,0.031,0.241,0.059,0.367C406.314,288.293,406.303,288.302,406.287,288.296z"/>
			</g>
			<path clip-path="url(#SVGID_4_)" fill="#C1A22E" d="M406.547,288.061c-0.01-0.012,0.035,0.091,0.068,0.213
				c0.035,0.125,0.053,0.344,0.061,0.327c0.025-0.014,0.021-0.037,0.057-0.042c0.037-0.009,0.174,0.003,0.164-0.006
				c-0.084-0.074-0.162-0.136-0.219-0.219C406.621,288.251,406.578,288.143,406.547,288.061L406.547,288.061z"/>
			<g clip-path="url(#SVGID_4_)">
				<path fill="#C1A22E" d="M406.676,288.62h-0.016l-0.02-0.105c-0.01-0.068-0.021-0.168-0.041-0.236
					c-0.021-0.065-0.041-0.125-0.057-0.165c0.002,0,0.004,0.003,0.008,0.003c-0.006-0.011-0.008-0.023-0.014-0.034
					c0.025,0.028,0.045,0.057,0.059,0.085c0.035,0.045,0.062,0.105,0.098,0.153c0.045,0.068,0.105,0.119,0.174,0.179L406.676,288.62
					L406.676,288.62z"/>
			</g>
			<path clip-path="url(#SVGID_4_)" fill="#FFFFFF" d="M407.869,287.671c0.783,0.165,1.508,0.355,2.236,0.588
				c0.725,0.233,1.414,0.514,2.117,0.815l-1.174,2.378c-0.66-0.25-1.309-0.452-1.955-0.662c-0.648-0.208-1.281-0.395-1.938-0.594
				L407.869,287.671z"/>
			<g clip-path="url(#SVGID_4_)">
				<path fill="#FFFFFF" d="M411.057,291.476l-0.014-0.006c-0.562-0.213-1.115-0.392-1.666-0.568l-0.289-0.094
					c-0.445-0.142-0.881-0.275-1.324-0.409l-0.611-0.185l0.697-2.548c0.814,0.153,1.547,0.347,2.262,0.577
					c0.785,0.253,1.512,0.554,2.119,0.818L411.057,291.476L411.057,291.476z M407.863,287.688l-0.688,2.512l0.596,0.165
					c0.443,0.134,0.883,0.267,1.328,0.409l0.287,0.094c0.547,0.176,1.096,0.353,1.652,0.562l1.168-2.361
					c-0.598-0.239-1.324-0.54-2.109-0.792C409.387,288.046,408.656,287.856,407.863,287.688L407.863,287.688z"/>
			</g>
			<path clip-path="url(#SVGID_4_)" fill="#CB202B" d="M407.711,288.231c0,0,1.098,0.244,2.158,0.585
				c1.059,0.344,2.096,0.781,2.092,0.781c-0.006,0-0.668,1.358-0.668,1.358c-0.641-0.256-1.312-0.495-1.975-0.708
				c-0.666-0.213-1.33-0.42-2.01-0.58L407.711,288.231z"/>
			<g clip-path="url(#SVGID_4_)">
				<path fill="#D3202B" d="M411.303,290.978l-0.016-0.005c-0.615-0.248-1.279-0.483-1.977-0.708
					c-0.631-0.205-1.305-0.415-2.008-0.577l0.391-1.463c0.053-0.005,1.131,0.236,2.182,0.574c0.689,0.225,1.893,0.676,2.08,0.781
					c-0.094-0.008-1.064-0.415-2.092-0.747c-1.049-0.335-2.145-0.582-2.156-0.585l-0.381,1.426c0.688,0.14,1.363,0.353,1.998,0.557
					c0.689,0.222,1.35,0.458,1.959,0.699c0.582-1.193,0.65-1.333,0.672-1.35c0.016,0.009,0.025,0.017,0.025,0.02
					c-0.025,0.04-0.492,0.998-0.672,1.361L411.303,290.978L411.303,290.978z"/>
			</g>
			<path clip-path="url(#SVGID_4_)" fill="#010101" d="M407.803,288.896c0.107-0.06,0.18-0.077,0.238-0.176h0.387l0.006,0.142
				c0.098,0.046,0.15,0.097,0.248,0.142c0.094,0.045,0.229,0.085,0.324,0.131l0.836,0.074c0.111,0.017,0.271,0.065,0.371,0.122
				c0.096,0.057,0.158,0.128,0.211,0.219c0.172,0.06,0.344,0.097,0.52,0.123c0.178,0.025,0.396,0.037,0.568,0.045
				c0.084,0.028,0.084,0.071,0.045,0.116c0,0-0.094,0.128-0.352,0.128c-0.258,0.003-0.549-0.145-0.678-0.125
				c0.006,0.08,0.141,0.239,0.293,0.304l-0.004,0.369l-0.07,0.065l-0.074-0.051c0.061-0.085,0.039-0.19,0.016-0.275
				c-0.059-0.083-0.064-0.117-0.174-0.122c-0.127-0.026-0.215-0.06-0.381-0.171l-0.057,0.009c-0.033,0.062-0.07,0.105-0.15,0.142
				l-0.164-0.008c0,0-0.379-0.085-0.379-0.091c0-0.002-0.002-0.057,0.006-0.062c0.012-0.002,0.129-0.002,0.139-0.002
				c0.082,0.022,0.25,0.022,0.25,0.022l-0.006-0.142l0.254-0.014c-0.051-0.176-0.068-0.287-0.305-0.327l-0.734,0.02l0.01,0.102
				c-0.184-0.025-0.516-0.028-0.688,0.028c-0.1,0.009-0.24,0.06-0.307,0.06l-0.076-0.02c-0.049-0.014-0.049-0.029-0.029-0.074
				c0.318-0.022,0.367-0.048,0.463-0.091c0.006-0.031-0.035-0.094-0.049-0.099c-0.201-0.009-0.357,0.005-0.414-0.006
				c-0.084-0.023-0.197-0.068-0.197-0.071c0-0.005-0.016-0.079-0.012-0.079c0.006,0,0.131,0.034,0.133,0.034
				c0.137,0.026,0.369,0.014,0.426-0.014l0.004-0.105c-0.004-0.051-0.041-0.094-0.051-0.1c-0.01-0.005-0.217-0.028-0.293-0.028
				C407.785,289.015,407.803,288.955,407.803,288.896L407.803,288.896z"/>
			<g clip-path="url(#SVGID_4_)">
				<path fill="#010101" d="M410.746,290.598l-0.084-0.057c0.051-0.108,0.031-0.205,0.008-0.29
					c-0.059-0.085-0.072-0.103-0.156-0.108c-0.117-0.023-0.205-0.051-0.352-0.148c0.174,0.065,0.252,0.094,0.355,0.114
					c0.102,0.003,0.123,0.037,0.164,0.097c0.051,0.136,0.068,0.238,0.006,0.33l0.059,0.04l-0.014-0.014l0.07-0.065v-0.355
					c-0.145-0.048-0.289-0.216-0.291-0.301c0.104-0.022,0.188,0.003,0.283,0.028c0.129,0.037,0.27,0.077,0.404,0.077
					c0.25-0.002,0.342-0.122,0.344-0.122c-0.203-0.094-0.424-0.105-0.604-0.133c-0.178-0.026-0.35-0.062-0.521-0.123
					c-0.064-0.105-0.129-0.17-0.213-0.221c-0.098-0.054-0.256-0.103-0.365-0.12l-0.834-0.071c-0.055-0.026-0.113-0.048-0.17-0.068
					c-0.059-0.022-0.115-0.042-0.162-0.065c-0.049-0.022-0.088-0.048-0.125-0.074c-0.039-0.023-0.074-0.045-0.123-0.068
					l-0.014-0.156l-0.371,0.017c-0.033,0.071-0.088,0.1-0.16,0.137c-0.061,0.094-0.062,0.127,0.027,0.145
					c0.016-0.014,0.281,0.02,0.299,0.031c0.018,0.006,0.057,0.054,0.061,0.111l-0.004,0.108c-0.094,0.068-0.324,0.054-0.445,0.031
					l-0.08-0.031l0.021-0.02c0.305,0.068,0.43,0.028,0.479,0.002l-0.006-0.088c-0.055-0.088-0.252-0.111-0.326-0.111
					c-0.125-0.022-0.123-0.085-0.121-0.139v-0.011l0.078-0.06c0.07-0.037,0.119-0.062,0.162-0.134l0.402-0.008l0.023,0.159
					c0.039,0.006,0.076,0.031,0.115,0.054c0.039,0.025,0.076,0.048,0.123,0.071c0.047,0.023,0.104,0.043,0.158,0.065
					c0.059,0.023,0.117,0.043,0.168,0.068l0.828,0.068c0.109,0.02,0.273,0.065,0.377,0.127c0.092,0.051,0.16,0.123,0.219,0.225
					c0.16,0.051,0.33,0.085,0.506,0.114c0.176,0.025,0.398,0.037,0.566,0.042h0.016l0.072,0.068
					c-0.033,0.083-0.131,0.213-0.395,0.213c-0.146,0-0.291-0.04-0.418-0.074c-0.094-0.028-0.176-0.051-0.234-0.051
					c-0.002,0.051,0.125,0.208,0.273,0.27l0.008,0.395L410.746,290.598L410.746,290.598z M409.934,290.123l-0.172-0.009
					c-0.396-0.088-0.396-0.088-0.396-0.108c0.021-0.083,0.029-0.085,0.162-0.085c0.084,0.022,0.248,0.025,0.25,0.025l-0.023-0.122
					l0.17-0.023l-0.152,0.04l0.023,0.122c-0.023,0.02-0.189,0.02-0.273-0.006c-0.064,0-0.119,0-0.127,0.003
					c0.021,0.04,0.373,0.117,0.373,0.117l0.16,0.008c0.068-0.034,0.1-0.074,0.131-0.131c0.021,0.009,0.039,0.015,0.057,0.023
					C410.053,290.041,410.016,290.083,409.934,290.123L409.934,290.123z M410.02,289.779c-0.064-0.156-0.096-0.245-0.301-0.281
					l-0.732,0.02l0.029,0.083c-0.098,0.011-0.203,0.006-0.311,0.003c-0.166,0-0.305,0.017-0.391,0.045
					c-0.051,0.006-0.107,0.02-0.162,0.031c-0.059,0.017-0.115,0.028-0.15,0.028l-0.131-0.054c0.02-0.006,0.041-0.012,0.059-0.017
					l0.072,0.054v-0.02c0.031,0,0.086-0.012,0.143-0.026c0.055-0.014,0.113-0.028,0.162-0.034c0.117-0.037,0.299-0.042,0.398-0.042
					c0.109,0,0.215,0.006,0.295,0.017l-0.031-0.083l0.752-0.04c0.236,0.04,0.27,0.153,0.312,0.31L410.02,289.779L410.02,289.779z
					 M408.045,289.603c0.186-0.057,0.232-0.08,0.303-0.114l-0.191-0.068l-0.117,0.002l-0.146-0.005
					c-0.035-0.009-0.211-0.06-0.211-0.088l0.031-0.034c0.045,0.04,0.127,0.071,0.189,0.088l0.137,0.003l0.117-0.003l0.156,0.006
					c0.027,0.008,0.07,0.082,0.064,0.119C408.289,289.558,408.238,289.583,408.045,289.603L408.045,289.603z"/>
			</g>
			<path clip-path="url(#SVGID_4_)" fill="#FFFFFF" d="M409.408,289.765c0.113,0.034,0.197,0.045,0.363,0.057l0.254-0.014
				c-0.051-0.176-0.068-0.287-0.305-0.327l-0.734,0.02l0.01,0.102C409.221,289.686,409.33,289.731,409.408,289.765L409.408,289.765z
				"/>
			<g clip-path="url(#SVGID_4_)">
				<path fill="#010101" d="M409.771,289.842L409.771,289.842c-0.162-0.012-0.25-0.023-0.369-0.06
					c-0.129-0.054-0.234-0.097-0.412-0.162l-0.021-0.117l0.752-0.04c0.236,0.04,0.27,0.153,0.312,0.31l-0.014,0.006
					c-0.064-0.156-0.096-0.245-0.301-0.281l-0.732,0.02l0.029,0.083c0.166,0.051,0.271,0.097,0.348,0.125
					c0.164,0.057,0.25,0.068,0.408,0.08l0.186-0.011L409.771,289.842L409.771,289.842z"/>
			</g>
			<path clip-path="url(#SVGID_4_)" fill="#2C3282" d="M394.795,291.026l-1.33-4.958l2.027-2.458l2.846,1.625l0.484,5.253
				C397.37,290.598,396.428,290.737,394.795,291.026L394.795,291.026z"/>
			<g clip-path="url(#SVGID_4_)">
				<path fill="#2B2876" d="M394.782,291.049l-0.004-0.017l-1.332-4.958l2.033-2.475l2.869,1.62l0.492,5.268
					c-1.486,0.127-2.445,0.272-4.043,0.557L394.782,291.049L394.782,291.049z M395.485,283.628l-2.006,2.452l1.33,4.926
					c1.588-0.281,2.547-0.426,4.012-0.537l-0.5-5.23L395.485,283.628L395.485,283.628z"/>
			</g>
			<path clip-path="url(#SVGID_4_)" fill="#F4EB36" d="M390.036,286.896l0.486,0.378l-0.092,0.662l0.629-0.259l0.496,0.378
				l0.068-0.611l0.516-0.202l-0.428-0.406l0.094-0.608c0,0-0.615,0.224-0.615,0.221c0-0.008-0.447-0.377-0.453-0.372
				c-0.004,0.006-0.1,0.574-0.1,0.574L390.036,286.896z"/>
			<g clip-path="url(#SVGID_4_)">
				<path fill="#F4C627" d="M391.573,288.097l-0.527-0.403l-0.607,0.264l0.062-0.688l-0.479-0.355l0.607-0.284
					c0.082-0.557,0.086-0.562,0.092-0.565c0.029-0.003,0.477,0.361,0.482,0.364c0.014-0.012,0.594-0.222,0.594-0.222l-0.062,0.631
					l0.42,0.386l-0.523,0.242L391.573,288.097L391.573,288.097z M391.049,287.654l0.486,0.358l0.066-0.571l0.527-0.219l-0.434-0.369
					l0.088-0.628c-0.578,0.247-0.588,0.247-0.594,0.247c-0.035-0.025-0.43-0.358-0.461-0.375c0.023,0.014-0.07,0.56-0.07,0.56
					l-0.615,0.261l0.492,0.338l-0.084,0.682L391.049,287.654L391.049,287.654z"/>
			</g>
			<path clip-path="url(#SVGID_4_)" fill="#F3C427" d="M390.045,286.901l2.088,0.338l-0.521,0.21l-0.5-0.355
				c0,0,0.447,0.943,0.441,0.938c-0.004-0.002-0.473-0.346-0.492-0.361l0.047-0.577c0,0-0.668,0.838-0.668,0.833
				s0.096-0.659,0.096-0.659L390.045,286.901z"/>
			<polygon clip-path="url(#SVGID_4_)" fill="#F4C627" points="390.629,286.666 391.114,287.075 390.735,286.08 			"/>
			<path clip-path="url(#SVGID_4_)" fill="#F4C627" d="M391.18,286.469c0.006,0.003-0.072,0.605-0.068,0.605
				c0.049-0.065,0.693-0.833,0.688-0.833C391.795,286.242,391.192,286.472,391.18,286.469L391.18,286.469z"/>
			<path clip-path="url(#SVGID_4_)" fill="#F4EB36" d="M409.918,286.055l0.121,0.597l-0.506,0.449l0.65,0.199l0.131,0.605
				l0.453-0.423l0.525,0.17l-0.057-0.583l0.469-0.403c0,0-0.617-0.219-0.615-0.225c0.004-0.003-0.09-0.568-0.1-0.568
				c-0.008,0.003-0.453,0.375-0.453,0.375L409.918,286.055z"/>
			<g clip-path="url(#SVGID_4_)">
				<path fill="#F4C627" d="M410.303,287.938l-0.137-0.636l-0.637-0.185l0.498-0.478l-0.129-0.582l0.645,0.173
					c0.432-0.372,0.438-0.375,0.443-0.375c0.025,0.017,0.135,0.58,0.115,0.597c0.035,0.003,0.611,0.196,0.611,0.196l-0.463,0.435
					l0.062,0.568l-0.551-0.153L410.303,287.938L410.303,287.938z M409.912,286.072l0.145,0.577l-0.51,0.466l0.643,0.167l0.135,0.585
					l0.432-0.4l0.543,0.167l-0.08-0.562l0.475-0.42c-0.615-0.19-0.615-0.193-0.619-0.202c-0.002-0.031-0.086-0.534-0.1-0.568
					c0.002,0.022-0.426,0.38-0.426,0.38L409.912,286.072L409.912,286.072z"/>
			</g>
			<path clip-path="url(#SVGID_4_)" fill="#F4C627" d="M409.924,286.066l1.367,1.577l-0.535-0.165l-0.148-0.591
				c0,0-0.277,1.006-0.281,1c0-0.009-0.133-0.568-0.133-0.588l0.408-0.415c0,0-1.055,0.219-1.053,0.216
				c0.004-0.006,0.508-0.443,0.508-0.443L409.924,286.066z"/>
			<polygon clip-path="url(#SVGID_4_)" fill="#F4C627" points="410.531,286.245 410.631,286.867 410.996,285.864 			"/>
			<path clip-path="url(#SVGID_4_)" fill="#F4C627" d="M411.084,286.441c0,0.008-0.451,0.412-0.447,0.415
				c0.082-0.017,1.068-0.19,1.064-0.193C411.699,286.66,411.088,286.452,411.084,286.441L411.084,286.441z"/>
			<path clip-path="url(#SVGID_4_)" fill="#CB202B" d="M393.475,286.089c0.723-0.344,1.531-0.614,2.387-0.73
				c0.822-0.119,1.643-0.128,2.49-0.128c0,0,0.107,1.293,0.107,1.304c-0.662,0.006-1.156-0.006-2.326,0.145
				c-1.162,0.162-1.645,0.298-2.35,0.571L393.475,286.089z"/>
			<g clip-path="url(#SVGID_4_)">
				<path fill="#D3202B" d="M393.77,287.273l-0.312-1.179c0.801-0.4,1.604-0.645,2.402-0.755c0.73-0.105,1.459-0.125,2.324-0.125
					h0.168c0.018,0.017,0.127,1.31,0.127,1.321l-0.199,0.02c-0.582,0.003-1.084,0.005-2.145,0.142
					c-1.164,0.162-1.646,0.301-2.346,0.571L393.77,287.273L393.77,287.273z M398.333,285.233l-0.148,0.017
					c-0.863,0-1.592,0.02-2.32,0.125c-0.793,0.108-1.594,0.353-2.381,0.73l0.312,1.12c0.693-0.264,1.178-0.403,2.336-0.565
					c1.062-0.136,1.566-0.139,2.148-0.142h0.18C398.44,286.512,398.333,285.233,398.333,285.233L398.333,285.233z"/>
			</g>
			<path clip-path="url(#SVGID_4_)" fill="#CB202B" d="M394.092,288.378c-0.012,0,0.367,1.367,0.367,1.367
				c0.693-0.176,1.398-0.307,2.105-0.406c0.705-0.1,1.455-0.156,2.139-0.202l-0.121-1.335c-0.719-0.042-1.541-0.042-2.285,0.054
				C395.555,287.955,394.834,288.128,394.092,288.378L394.092,288.378z"/>
			<g clip-path="url(#SVGID_4_)">
				<path fill="#D3202B" d="M394.446,289.765l-0.004-0.014c-0.377-1.367-0.371-1.375-0.363-1.384
					c0.768-0.261,1.488-0.432,2.217-0.528c0.67-0.088,1.527-0.1,2.287-0.054l0.139,1.353c-0.67,0.06-1.432,0.116-2.154,0.219
					c-0.732,0.102-1.439,0.239-2.105,0.406L394.446,289.765L394.446,289.765z M397.682,287.793c-0.504,0-0.969,0.028-1.381,0.082
					c-0.725,0.094-1.447,0.264-2.203,0.52c0.016,0.023,0.229,0.801,0.373,1.327c0.66-0.165,1.363-0.301,2.09-0.403
					c0.723-0.099,1.488-0.159,2.141-0.199l-0.137-1.315C398.293,287.805,397.991,287.793,397.682,287.793L397.682,287.793z"/>
			</g>
			<path clip-path="url(#SVGID_4_)" fill="#FFFFFF" d="M390.776,292.601h20.162v12.927c-0.514,5.034-5.354,8.799-9.773,8.771
				c-4.773,0.207-10.05-3.699-10.431-8.813L390.776,292.601z"/>
			<g clip-path="url(#SVGID_4_)">
				<path fill="#CB202B" d="M400.797,314.377c-4.48,0-9.746-3.65-10.137-8.89l0.043-12.887l20.234-0.074l0.072,13.001
					c-0.531,5.213-5.59,8.842-9.797,8.842C401.045,314.375,400.92,314.377,400.797,314.377L400.797,314.377z M410.865,292.601
					l-20.089,0.071l0.029,12.813c0.396,5.293,5.842,8.938,10.355,8.739c4.197,0,9.18-3.573,9.705-8.705V292.601L410.865,292.601z"/>
			</g>
			<path clip-path="url(#SVGID_4_)" fill="#CB202B" d="M391.196,293.052h19.322v12.389c-0.492,4.824-5.129,8.43-9.367,8.404
				c-4.574,0.199-9.632-3.545-9.996-8.446L391.196,293.052z"/>
			<g clip-path="url(#SVGID_4_)">
				<path fill="#CB202B" d="M400.801,313.923c-4.297,0-9.344-3.497-9.717-8.521l0.043-12.35l19.39-0.071l0.066,12.46
					c-0.506,4.995-5.354,8.473-9.387,8.473C401.035,313.92,400.917,313.923,400.801,313.923L400.801,313.923z M410.447,293.052
					l-19.251,0.068l0.027,12.279c0.379,5.074,5.611,8.558,9.923,8.376c4.025,0,8.801-3.424,9.303-8.342L410.447,293.052
					L410.447,293.052z"/>
			</g>
			<rect x="395.086" y="293.117" clip-path="url(#SVGID_4_)" fill="#FFFFFF" width="3.842" height="4.131"/>
			<path clip-path="url(#SVGID_4_)" fill="#FFFFFF" d="M406.635,305.527v4.086l2.168,0.011c1.047-1.571,1.504-3.103,1.604-4.094
				C410.389,305.53,406.648,305.527,406.635,305.527L406.635,305.527z"/>
			<g clip-path="url(#SVGID_4_)">
				<path fill="#FFFFFF" d="M408.814,309.641l-2.18-0.011l-0.02-4.103l1.811-0.018l1.98,0.004c-0.029,0.485-0.281,2.162-1.586,4.119
					L408.814,309.641L408.814,309.641z M406.635,305.547l0.018,4.066l2.141-0.01c1.297-1.945,1.547-3.61,1.594-4.076l-1.961,0.02
					H406.635L406.635,305.547z"/>
			</g>
			<path clip-path="url(#SVGID_4_)" fill="#FFFFFF" d="M402.791,309.655v3.924c1.668-0.339,3.029-1.168,3.809-1.73l-0.008-2.196
				L402.791,309.655z"/>
			<g clip-path="url(#SVGID_4_)">
				<path fill="#FFFFFF" d="M402.775,313.602v-3.946l3.816-0.021l0.023,2.214c-0.852,0.628-2.199,1.421-3.818,1.747L402.775,313.602
					L402.775,313.602z M406.574,309.652l-3.783,0.023l0.02,3.881c1.604-0.327,2.939-1.117,3.777-1.723L406.574,309.652
					L406.574,309.652z"/>
			</g>
			<path clip-path="url(#SVGID_4_)" fill="#FFFFFF" d="M395.114,309.655l0.008,2.19c1.311,0.924,2.803,1.486,3.799,1.693
				l-0.012-3.881L395.114,309.655z"/>
			<g clip-path="url(#SVGID_4_)">
				<path fill="#FFFFFF" d="M398.938,313.562l-0.021-0.004c-0.963-0.201-2.469-0.752-3.807-1.695l-0.016-2.208l3.814-0.017
					L398.938,313.562L398.938,313.562z M398.889,309.658l-3.775,0.018l0.025,2.17c1.316,0.92,2.803,1.466,3.764,1.671
					L398.889,309.658L398.889,309.658z"/>
			</g>
			<path clip-path="url(#SVGID_4_)" fill="#FFFFFF" d="M391.264,305.53c0.125,1.6,0.844,3.031,1.561,4.034l2.24,0.049l0.002-4.086
				L391.264,305.53z"/>
			<g clip-path="url(#SVGID_4_)">
				<path fill="#FFFFFF" d="M395.083,309.63h-0.018l-2.24-0.046c-0.539-0.741-1.439-2.241-1.578-4.054l3.82-0.021L395.083,309.63
					L395.083,309.63z M395.047,305.527l-3.783,0.02c0.158,1.785,1.053,3.279,1.576,4.006l2.205,0.037L395.047,305.527
					L395.047,305.527z"/>
			</g>
			<rect x="391.245" y="297.249" clip-path="url(#SVGID_4_)" fill="#FFFFFF" width="3.842" height="4.13"/>
			<rect x="398.928" y="297.249" clip-path="url(#SVGID_4_)" fill="#FFFFFF" width="3.841" height="4.13"/>
			<rect x="402.77" y="293.098" clip-path="url(#SVGID_4_)" fill="#FFFFFF" width="3.842" height="4.131"/>
			<rect x="406.613" y="297.249" clip-path="url(#SVGID_4_)" fill="#FFFFFF" width="3.842" height="4.13"/>
			<rect x="395.086" y="301.379" clip-path="url(#SVGID_4_)" fill="#FFFFFF" width="3.842" height="4.129"/>
			<rect x="402.77" y="301.379" clip-path="url(#SVGID_4_)" fill="#FFFFFF" width="3.842" height="4.129"/>
			<rect x="398.928" y="305.508" clip-path="url(#SVGID_4_)" fill="#FFFFFF" width="3.841" height="4.131"/>
			<path clip-path="url(#SVGID_4_)" fill="#C1A22E" d="M404.654,288.236c-0.014,0.017-0.045-0.182-0.055-0.213
				c-0.012-0.054-0.041-0.145-0.072-0.27C404.625,287.901,404.672,288.083,404.654,288.236L404.654,288.236z"/>
			<g clip-path="url(#SVGID_4_)">
				<path fill="#C1A22E" d="M404.652,288.256c-0.021,0-0.027-0.02-0.057-0.162l-0.086-0.335c0.131,0.136,0.18,0.324,0.162,0.48
					L404.652,288.256L404.652,288.256z"/>
			</g>
		</g>
	</g>
</g>
</svg>
