<?xml version="1.0" encoding="utf-8"?>
<!-- Generator: Adobe Illustrator 16.0.0, SVG Export Plug-In . SVG Version: 6.00 Build 0)  -->
<!DOCTYPE svg PUBLIC "-//W3C//DTD SVG 1.1//EN" "http://www.w3.org/Graphics/SVG/1.1/DTD/svg11.dtd">
<svg version="1.1" id="name" xmlns="http://www.w3.org/2000/svg" xmlns:xlink="http://www.w3.org/1999/xlink" x="0px" y="0px"
	 width="85.713px" height="50px" viewBox="358 276 85.713 50" enable-background="new 358 276 85.713 50" xml:space="preserve">
<g id="il">
	<g>
		<defs>
			<rect id="SVGID_1_" x="358" y="276" width="85.713" height="50"/>
		</defs>
		<clipPath id="SVGID_2_">
			<use xlink:href="#SVGID_1_"  overflow="visible"/>
		</clipPath>
		<rect x="358" y="276" clip-path="url(#SVGID_2_)" fill="#FFFFFF" width="85.713" height="50"/>
		<rect x="358" y="279.952" clip-path="url(#SVGID_2_)" fill="#303A83" width="85.713" height="8.043"/>
		<rect x="358" y="314.002" clip-path="url(#SVGID_2_)" fill="#303A83" width="85.713" height="8.043"/>
		<path clip-path="url(#SVGID_2_)" fill="#303A83" d="M407.35,300.999l3.311-5.632h-6.569l-3.234-5.685l-3.235,5.685h-6.571
			l3.313,5.632l-3.313,5.631h6.571l3.235,5.688l3.234-5.688h6.569L407.35,300.999z M399.681,295.367l1.174-2.045l1.176,2.045
			H399.681z M406.304,302.806l1.128,1.963h-2.264L406.304,302.806z M405.168,297.229h2.264l-1.128,1.963L405.168,297.229z
			 M402.031,306.63l-1.176,2.045l-1.174-2.045H402.031z M398.613,304.769l-2.167-3.77l2.167-3.771h4.486l2.166,3.771l-2.166,3.77
			H398.613z M396.545,304.769h-2.265l1.129-1.963L396.545,304.769z M394.28,297.229h2.265l-1.136,1.963L394.28,297.229z"/>
	</g>
</g>
</svg>
