<?xml version="1.0" encoding="utf-8"?>
<!-- Generator: Adobe Illustrator 16.0.0, SVG Export Plug-In . SVG Version: 6.00 Build 0)  -->
<!DOCTYPE svg PUBLIC "-//W3C//DTD SVG 1.1//EN" "http://www.w3.org/Graphics/SVG/1.1/DTD/svg11.dtd">
<svg version="1.1" id="name" xmlns="http://www.w3.org/2000/svg" xmlns:xlink="http://www.w3.org/1999/xlink" x="0px" y="0px"
	 width="85.713px" height="50px" viewBox="358 276 85.713 50" enable-background="new 358 276 85.713 50" xml:space="preserve">
<g id="im">
	<g>
		<defs>
			<rect id="SVGID_1_" x="358" y="276" width="85.713" height="50"/>
		</defs>
		<clipPath id="SVGID_2_">
			<use xlink:href="#SVGID_1_"  overflow="visible"/>
		</clipPath>
		<g clip-path="url(#SVGID_2_)">
			<defs>
				<rect id="SVGID_3_" x="358" y="276" width="85.713" height="50"/>
			</defs>
			<clipPath id="SVGID_4_">
				<use xlink:href="#SVGID_3_"  overflow="visible"/>
			</clipPath>
			<rect x="358" y="276" clip-path="url(#SVGID_4_)" fill="#D51F3A" width="85.713" height="50"/>
			<g clip-path="url(#SVGID_4_)">
				<defs>
					<rect id="SVGID_5_" x="358" y="276" width="85.713" height="50"/>
				</defs>
				<clipPath id="SVGID_6_">
					<use xlink:href="#SVGID_5_"  overflow="visible"/>
				</clipPath>
				<g clip-path="url(#SVGID_6_)">
					<g>
						<defs>
							<rect id="SVGID_7_" x="401.619" y="309.584" width="2.443" height="2.779"/>
						</defs>
						<clipPath id="SVGID_8_">
							<use xlink:href="#SVGID_7_"  overflow="visible"/>
						</clipPath>
						<path clip-path="url(#SVGID_8_)" fill="#F2DD31" d="M402.264,311.559c0.015-0.042,0.045-0.497,0.029-0.497
							c-0.015,0-0.688-0.79-0.674-0.79c0.016,0,0.864,0.19,0.864,0.162c0-0.031,0.336-0.835,0.336-0.85
							c0-0.014,0.409,0.98,0.409,0.98l0.834,0.366l-0.586,0.483c0,0,0.133,0.935,0.133,0.949c0,0.014-0.585-0.558-0.585-0.558
							l-0.644,0.074C402.381,311.88,402.293,311.587,402.264,311.559L402.264,311.559z"/>
					</g>
				</g>
				<g clip-path="url(#SVGID_6_)">
					<path fill="#010101" d="M403.607,312.428c-0.032,0-0.047-0.011-0.627-0.576l-0.593,0.091c-0.104-0.168-0.155-0.318-0.172-0.344
						c0-0.105,0.023-0.478,0.017-0.52c-0.023,0.036-0.676-0.799-0.676-0.808c0.074-0.062,0.076-0.062,0.217-0.031
						c0.171,0.034,0.552,0.117,0.67,0.131c0.008-0.039,0.058-0.167,0.189-0.491c0.063-0.156,0.119-0.29,0.125-0.312
						c0.041-0.015,0.064-0.028,0.104,0.017h0.021c0,0.006,0,0.012-0.003,0.023c0.063,0.097,0.166,0.347,0.408,0.935l0.895,0.372
						l-0.662,0.545c0.029,0.012,0.152,0.89,0.152,0.904v0.062l-0.062,0.002H403.607L403.607,312.428z M403.018,311.743
						c0.037,0.015,0.334,0.299,0.506,0.461c-0.037-0.273-0.109-0.781-0.109-0.781l0.533-0.475l-0.744-0.327
						c-0.025-0.025-0.267-0.603-0.381-0.872c-0.018,0.046-0.041,0.103-0.072,0.176c-0.089,0.222-0.195,0.48-0.205,0.521
						c-0.146,0.054-0.453-0.009-0.77-0.077c0.177,0.214,0.519,0.611,0.557,0.646c0.047,0.06,0.006,0.445-0.006,0.542l0,0
						c0.011,0,0.045,0.074,0.115,0.308L403.018,311.743L403.018,311.743z"/>
				</g>
				<path clip-path="url(#SVGID_6_)" fill="#FFFFFF" d="M397.732,299.271c-0.556,0.284-2.688,2.722-2.98,3.103
					c-0.246,0.551-0.725,1.25-1.219,1.698c-0.526,0.401-0.819,0.943-0.747,1.461c-0.006,0.642,0.354,1.076,0.64,1.528
					c0.17,0.207,0.398,0.341,0.641,0.358c0.497,0.064,0.542,0.219,0.791,0.312c0.981,1.335,2.446,2.32,3.5,3.102
					c0.673,0.355,1.14,0.708,1.301,0.901c0.308,0.591,0.251,1.164,0.208,1.448c-0.26,0.983-0.522,1.969-0.782,2.952
					c-0.132,0.804,0.567,0.625,0.605,0.463c0.316-0.409,0.786-0.122,1.458-2.491c0.308-0.415,0.617-0.83,0.925-1.244
					c0,0,0.356-0.143,0.356-0.18c0.541-0.65,0.129-1.02-0.178-1.136c-0.227-0.086-0.451-0.168-0.676-0.25
					c0,0-0.784-0.784-0.819-0.784c-0.372-1.083-2.198-3.393-2.622-3.714c-0.294-0.307-0.434-0.438-0.712-0.607
					c-0.428-0.202-0.567-0.271-0.829-0.375c-0.22-0.089-0.063-0.327,0.075-0.438c1.446-0.787,2.593-1.662,3.981-2.552
					c0.071-0.048,0.141-0.097,0.213-0.142c-0.166-0.949-0.333-1.898-0.498-2.847c-0.771-0.273-1.542-0.546-2.313-0.818
					C397.932,299.104,397.839,299.186,397.732,299.271L397.732,299.271z"/>
				<g clip-path="url(#SVGID_6_)">
					<path fill="#010101" d="M399.402,316.801L399.402,316.801c-0.118,0-0.221-0.046-0.291-0.125
						c-0.1-0.119-0.129-0.304-0.089-0.549l0.785-2.96c0.078-0.528,0.012-0.989-0.205-1.4c-0.147-0.177-0.603-0.523-1.273-0.878
						l-0.398-0.29c-1.004-0.733-2.252-1.646-3.123-2.83c-0.059-0.011-0.124-0.051-0.189-0.094c-0.12-0.073-0.242-0.15-0.559-0.192
						c-0.251-0.018-0.495-0.154-0.682-0.378l-0.131-0.202c-0.26-0.395-0.529-0.801-0.523-1.372
						c-0.073-0.518,0.214-1.085,0.771-1.509c0.455-0.412,0.938-1.085,1.199-1.674c0.258-0.338,2.418-2.829,3.01-3.133l0.089-0.074
						c0.07-0.057,0.14-0.113,0.223-0.174l2.37,0.812l0.539,2.896l-0.24,0.204c-0.47,0.305-0.911,0.603-1.347,0.896
						c-0.864,0.585-1.68,1.14-2.639,1.662c-0.077,0.06-0.163,0.179-0.151,0.253c0.317,0.167,0.455,0.235,0.831,0.414
						c0.367,0.214,0.513,0.353,0.801,0.654c0.438,0.329,2.241,2.613,2.631,3.722l0,0c0.016,0,0.157,0.122,0.809,0.772l0.653,0.236
						c0.09,0.033,0.385,0.167,0.465,0.466c0.061,0.232-0.027,0.491-0.261,0.77c0.015,0.003,0.015,0.04-0.381,0.199l-0.897,1.225
						c-0.507,1.795-0.918,2.076-1.217,2.281c-0.092,0.065-0.172,0.119-0.242,0.21C399.725,316.727,399.55,316.801,399.402,316.801
						L399.402,316.801z M398.031,299.081c-0.023,0.045-0.091,0.103-0.158,0.156l-0.102,0.082c-0.552,0.287-2.66,2.69-2.97,3.091
						c-0.26,0.592-0.756,1.282-1.226,1.708c-0.525,0.4-0.794,0.923-0.727,1.406c-0.005,0.54,0.254,0.932,0.504,1.31l0.127,0.196
						c0.16,0.19,0.372,0.31,0.592,0.327c0.348,0.045,0.489,0.133,0.614,0.213c0.059,0.037,0.116,0.073,0.195,0.102
						c0.888,1.193,2.128,2.097,3.124,2.824l0.391,0.287c0.679,0.358,1.149,0.716,1.312,0.912c0.236,0.449,0.307,0.938,0.223,1.497
						l-0.784,2.961c-0.032,0.198-0.012,0.352,0.062,0.44c0.057,0.067,0.137,0.082,0.194,0.082l0,0c0.124,0,0.22-0.065,0.226-0.091
						c0.095-0.131,0.186-0.193,0.283-0.259c0.284-0.196,0.673-0.46,1.177-2.236l0.935-1.264c0.165-0.077,0.331-0.153,0.357-0.177
						c0.206-0.253,0.286-0.474,0.236-0.664c-0.063-0.242-0.312-0.35-0.388-0.378l-0.675-0.25c-0.303-0.296-0.767-0.75-0.823-0.787
						c-0.396-1.094-2.206-3.396-2.634-3.719c-0.308-0.321-0.442-0.443-0.706-0.605c-0.438-0.207-0.575-0.272-0.819-0.369
						c-0.107-0.043-0.14-0.117-0.147-0.171c-0.019-0.131,0.094-0.287,0.207-0.375c0.963-0.525,1.776-1.076,2.638-1.659
						c0.436-0.295,0.878-0.594,1.348-0.897l0.213-0.143l-0.525-2.781L398.031,299.081L398.031,299.081z"/>
				</g>
				<path clip-path="url(#SVGID_6_)" fill="#F2DD31" d="M399.667,314.258c0.009-0.028,1.448-0.293,1.448-0.293
					s-0.167,0.534-0.175,0.534l-1.434,0.43L399.667,314.258z"/>
				<g clip-path="url(#SVGID_6_)">
					<path fill="#010101" d="M395.973,308.857l-0.118-0.046c0.272-0.725,1.031-1.344,1.608-1.522l0.038,0.122
						C397.039,307.553,396.259,308.099,395.973,308.857L395.973,308.857z"/>
				</g>
				<g clip-path="url(#SVGID_6_)">
					<path fill="#010101" d="M399.405,315.201l-0.101-0.08c0.02-0.022,0.125-0.116,0.199-0.158l0.15-0.058
						c0.12-0.045,0.272-0.104,0.345-0.116c0.108-0.028,0.221-0.062,0.329-0.103l0.153-0.036c0.06-0.018,0.119-0.031,0.194-0.049
						c0.095-0.043,0.2-0.071,0.313-0.103l0.031,0.122c-0.108,0.029-0.207,0.058-0.307,0.103c-0.085,0.018-0.142,0.031-0.2,0.049
						l-0.151,0.036c-0.104,0.037-0.221,0.071-0.337,0.103c-0.072,0.015-0.213,0.068-0.325,0.111l-0.146,0.054
						C399.503,315.11,399.417,315.187,399.405,315.201L399.405,315.201z M399.727,314.304l-0.11-0.034l0.077-0.086
						c0.16-0.045,0.443-0.127,0.539-0.142c0.122-0.028,0.249-0.062,0.371-0.1l0.17-0.04c0.066-0.014,0.132-0.031,0.216-0.045
						c0.108-0.043,0.225-0.074,0.351-0.105l0.029,0.125c-0.121,0.028-0.233,0.057-0.346,0.1c-0.093,0.02-0.157,0.034-0.223,0.049
						l-0.167,0.039c-0.119,0.037-0.248,0.071-0.377,0.103C400.159,314.182,399.883,314.261,399.727,314.304L399.727,314.304z"/>
				</g>
				<g clip-path="url(#SVGID_6_)">
					<path fill="#010101" d="M399.02,309.499l-0.093-0.147c0.188,0.022,0.333,0.008,0.427,0.003c0.189-0.003,0.425-0.18,0.444-0.23
						c0.049-0.065,0.08-0.094,0.097-0.108l0.024,0.049v-0.085l0.06,0.128c-0.013,0.014-0.04,0.036-0.072,0.079
						c-0.033,0.097-0.324,0.293-0.547,0.293C399.27,309.487,399.118,309.499,399.02,309.499L399.02,309.499z"/>
				</g>
				<g clip-path="url(#SVGID_6_)">
					<path fill="#010101" d="M401.595,313.491c-0.067,0-0.114-0.006-0.161-0.012l-0.111-0.009l0,0c-0.068,0-0.131-0.008-0.193-0.017
						c-0.049-0.006-0.097-0.012-0.149-0.012c-0.059-0.009-0.115-0.011-0.17-0.014c-0.06-0.003-0.121-0.006-0.174-0.015
						c-0.046,0.006-0.101-0.006-0.156-0.014c-0.097-0.012-0.19-0.012-0.292-0.023c-0.054-0.006-0.109-0.011-0.164-0.011
						l-0.104-0.125h0.021c0.141,0,0.201,0.005,0.258,0.011c0.106,0.012,0.201,0.012,0.299,0.023
						c0.049,0.008,0.098,0.014,0.147,0.014c0.059,0.009,0.115,0.012,0.171,0.015c0.059,0.003,0.119,0.005,0.175,0.011
						c0.051,0.003,0.103,0.009,0.154,0.015c0.058,0.006,0.115,0.014,0.182,0.014h0.002l0,0h0.002l0.27,0.023L401.595,313.491
						L401.595,313.491z"/>
				</g>
				<g clip-path="url(#SVGID_6_)">
					<path fill="#010101" d="M399.269,315.863l-0.105-0.071c0.018-0.028,0.119-0.122,0.183-0.162l0.137-0.057
						c0.111-0.048,0.25-0.105,0.321-0.119c0.097-0.028,0.199-0.06,0.298-0.1l0.136-0.04c0.057-0.014,0.112-0.031,0.184-0.045
						c0.084-0.043,0.182-0.074,0.286-0.103l0.036,0.119c-0.098,0.028-0.19,0.057-0.281,0.103c-0.082,0.017-0.135,0.034-0.189,0.048
						l-0.132,0.037c-0.095,0.04-0.201,0.074-0.308,0.103c-0.064,0.012-0.202,0.071-0.302,0.113l-0.13,0.052
						C399.359,315.772,399.28,315.846,399.269,315.863L399.269,315.863z"/>
				</g>
				<g clip-path="url(#SVGID_6_)">
					<path fill="#010101" d="M401.984,312.948c-0.057-0.022-0.08-0.034-0.126-0.037c-0.114-0.043-0.177-0.062-0.259-0.085
						c-0.232-0.071-0.383-0.188-0.447-0.271c-0.065-0.107-0.114-0.185-0.059-0.344l0.118,0.04c-0.034,0.103-0.014,0.137,0.017,0.185
						c0.074,0.108,0.203,0.205,0.406,0.268c0.084,0.025,0.15,0.048,0.251,0.085c0.049,0.003,0.087,0.02,0.128,0.034L401.984,312.948
						L401.984,312.948z"/>
				</g>
				<g clip-path="url(#SVGID_6_)">
					<path fill="#010101" d="M392.991,306.064l-0.008-0.043L392.991,306.064l-0.092-0.046c0.062-0.094,0.092-0.113,0.135-0.147
						c0.024-0.028,0.053-0.054,0.082-0.082c0.031-0.026,0.062-0.055,0.094-0.094l0.099,0.076c-0.037,0.049-0.071,0.08-0.108,0.111
						c-0.025,0.025-0.052,0.048-0.081,0.079c-0.056,0.046-0.091,0.068-0.11,0.079l-0.019-0.014V306.064L392.991,306.064z"/>
				</g>
				<g clip-path="url(#SVGID_6_)">
					<path fill="#010101" d="M394.309,307.539l-0.021-0.122c0.059-0.023,1.193-0.6,1.306-0.714l0.114-0.091
						c0.048-0.039,0.1-0.082,0.164-0.125c0.043-0.022,0.076-0.045,0.107-0.071c0.089-0.073,0.119-0.107,0.149-0.139
						c0.031-0.031,0.058-0.06,0.075-0.091l0.053-0.094c0.008-0.034,0.019-0.077,0.055-0.122c0.04-0.117,0.073-0.205,0.086-0.259
						l0.123,0.031c-0.014,0.057-0.049,0.15-0.078,0.225l-0.063,0.156c-0.011,0.042-0.023,0.094-0.078,0.139
						c-0.011,0.031-0.046,0.068-0.08,0.103c-0.025,0.025-0.051,0.054-0.075,0.085l-0.092,0.071
						c-0.036,0.025-0.072,0.052-0.117,0.074c-0.055,0.037-0.103,0.076-0.148,0.116l-0.112,0.088
						C395.567,306.911,394.373,307.539,394.309,307.539L394.309,307.539z"/>
				</g>
				<g clip-path="url(#SVGID_6_)">
					<path fill="#010101" d="M397.652,307.527l-0.065-0.107c0.16-0.094,0.301-0.433,0.305-0.529
						c-0.001-0.054,0.005-0.116,0.011-0.17l0.131-0.114c0.004,0.029,0.001,0.065-0.006,0.128c-0.005,0.049-0.012,0.108-0.01,0.156
						C398.013,307.036,397.851,307.411,397.652,307.527L397.652,307.527z"/>
				</g>
				<g clip-path="url(#SVGID_6_)">
					<path fill="#010101" d="M400.169,312.59c-0.056,0-0.1-0.003-0.133-0.006l-0.159-0.002v-0.128h0.104
						c0.187,0.014,0.417,0.028,0.819-0.091c0.12-0.052,0.197-0.083,0.253-0.14c0.054-0.031,0.099-0.077,0.147-0.125
						c0.033-0.034,0.068-0.071,0.105-0.103c0.037-0.039,0.057-0.091,0.052-0.15c-0.011-0.159-0.177-0.324-0.24-0.375
						c-0.058-0.04-1.136-0.719-1.224-0.756c-0.041-0.028-0.07-0.045-0.102-0.065c-0.051-0.028-0.106-0.062-0.163-0.113
						c-0.047-0.022-0.107-0.071-0.162-0.116l-0.082-0.062c-0.096-0.125-0.133-0.177-0.167-0.256
						c-0.066-0.119-0.087-0.162-0.113-0.19c-0.037-0.08-0.078-0.174-0.112-0.238c-0.034-0.105-0.639-1.358-0.853-1.532
						c-0.059-0.094-0.122-0.167-0.194-0.258c-0.095-0.114-0.142-0.168-0.199-0.219c-0.035-0.046-0.096-0.08-0.151-0.111
						c-0.042-0.025-0.083-0.048-0.115-0.073c-0.065-0.058-0.81-0.531-1.178-0.665l-0.316-0.097
						c-0.096-0.031-0.154-0.049-0.167-0.051l0.012-0.125c0.014,0,0.014,0,0.192,0.054l0.318,0.1
						c0.377,0.136,1.138,0.616,1.219,0.688c0.024,0.02,0.06,0.039,0.096,0.06c0.068,0.04,0.14,0.082,0.18,0.136
						c0.054,0.046,0.105,0.105,0.156,0.168c0.126,0.15,0.193,0.233,0.24,0.312c0.237,0.188,0.859,1.506,0.876,1.568
						c0.031,0.057,0.075,0.153,0.101,0.219c0.024,0.022,0.05,0.071,0.077,0.122c0.075,0.15,0.104,0.19,0.14,0.239l0.12,0.116
						c0.048,0.04,0.102,0.082,0.154,0.11c0.061,0.052,0.11,0.08,0.154,0.108c0.038,0.02,0.072,0.04,0.103,0.065
						c0.095,0.037,1.225,0.756,1.235,0.761c0.016,0.012,0.273,0.225,0.291,0.469c0.007,0.094-0.023,0.18-0.09,0.253
						c-0.04,0.034-0.073,0.065-0.105,0.097c-0.054,0.054-0.105,0.108-0.16,0.137c-0.059,0.062-0.152,0.103-0.234,0.136
						C400.546,312.567,400.316,312.59,400.169,312.59L400.169,312.59z"/>
				</g>
				<g clip-path="url(#SVGID_6_)">
					<path fill="#010101" d="M395.373,305.033c-0.04,0-0.072,0-0.114-0.003c-0.129-0.003-0.267-0.054-0.388-0.1
						c-0.144-0.062-0.229-0.097-0.348-0.179c-0.081-0.049-0.143-0.105-0.215-0.171c-0.125-0.122-0.297-0.167-0.4-0.196l-0.146-0.107
						l-0.015,0.062c-0.042-0.012-0.084-0.02-0.135-0.046c-0.109-0.034-0.134-0.039-0.208-0.067l0.046-0.117
						c0.061,0.023,0.081,0.025,0.098,0.031c0.027,0.006,0.048,0.009,0.114,0.04c0.043,0.02,0.079,0.028,0.115,0.037l0.104,0.028
						c0.175,0.048,0.367,0.1,0.476,0.207c0.102,0.094,0.159,0.148,0.235,0.193c0.111,0.077,0.188,0.108,0.325,0.165
						c0.111,0.042,0.237,0.091,0.347,0.094c0.08,0.006,0.119,0.003,0.169,0.003l0.391-0.003v0.128h-0.29
						C395.46,305.033,395.413,305.033,395.373,305.033L395.373,305.033z"/>
				</g>
				<path clip-path="url(#SVGID_6_)" fill="#F8E627" d="M393.395,305.547c0.31-0.02,0.827,0.074,0.837,0.074l0.683-0.012
					c0.359-0.034,0.438-0.173,0.497-0.27c0.134-0.207,0.228-0.278,0.331-0.435c0.165-0.122,0.392,0.167,0.403,0.167
					c0.579,0.549,0.114,1.219,0.083,1.242c-0.29,0.264-0.352,0.281-0.527,0.113c-0.176-0.207-0.228-0.301-0.373-0.372
					c-0.28-0.137-0.858-0.031-0.87-0.031c-0.01,0-0.3,0.113-0.3,0.113c-0.141,0.052-0.23,0.177-0.475,0.216
					c-0.249,0.018-0.332-0.005-0.455-0.207C393.063,305.888,393.146,305.578,393.395,305.547L393.395,305.547z"/>
				<g clip-path="url(#SVGID_6_)">
					<path fill="#010101" d="M395.889,306.599c-0.083,0-0.15-0.049-0.232-0.125l-0.105-0.128c-0.1-0.122-0.15-0.185-0.251-0.236
						c-0.183-0.085-0.716-0.039-0.816-0.025c-0.042,0.009-0.302,0.111-0.302,0.111c-0.047,0.017-0.087,0.042-0.134,0.073
						c-0.083,0.054-0.186,0.119-0.354,0.147l-0.12,0.006c-0.191,0-0.284-0.057-0.398-0.241c-0.104-0.159-0.125-0.353-0.057-0.5
						c0.051-0.108,0.149-0.182,0.267-0.196l0.105-0.003c0.268,0,0.62,0.058,0.721,0.071l0.702-0.006
						c0.318-0.031,0.386-0.145,0.441-0.235c0.079-0.122,0.142-0.196,0.201-0.268c0.045-0.054,0.088-0.104,0.133-0.173l0.019-0.028
						l0.126-0.028c0.144,0,0.277,0.136,0.334,0.193c0.247,0.232,0.349,0.488,0.326,0.775c-0.025,0.307-0.192,0.557-0.23,0.582
						C396.089,306.524,395.991,306.599,395.889,306.599L395.889,306.599z M394.911,305.922c0.191,0,0.341,0.025,0.445,0.077
						c0.125,0.062,0.189,0.139,0.293,0.267l0.1,0.119c0.173,0.171,0.203,0.094,0.438-0.119c0.024-0.025,0.193-0.278,0.185-0.579
						c-0.005-0.216-0.096-0.403-0.268-0.568c-0.062-0.06-0.178-0.179-0.269-0.179c-0.087,0.073-0.133,0.128-0.181,0.185
						c-0.057,0.068-0.117,0.139-0.189,0.25c-0.062,0.104-0.157,0.261-0.543,0.298l-0.688,0.012c-0.14-0.022-0.481-0.077-0.742-0.077
						c-0.187,0.015-0.234,0.077-0.258,0.128c-0.05,0.108-0.032,0.253,0.049,0.378c0.097,0.159,0.155,0.185,0.292,0.185l0.105-0.006
						c0.136-0.022,0.22-0.076,0.301-0.13c0.051-0.031,0.099-0.062,0.157-0.083c0.299-0.119,0.307-0.119,0.321-0.119
						C394.521,305.95,394.71,305.922,394.911,305.922L394.911,305.922z"/>
				</g>
				<g clip-path="url(#SVGID_6_)">
					<g>
						<defs>
							<rect id="SVGID_9_" x="407.593" y="291.438" width="2.217" height="2.759"/>
						</defs>
						<clipPath id="SVGID_10_">
							<use xlink:href="#SVGID_9_"  overflow="visible"/>
						</clipPath>
						<path clip-path="url(#SVGID_10_)" fill="#F2DD31" d="M409.588,293.004c-0.047,0.009-0.457,0.204-0.449,0.219
							c0.008,0.012-0.352,0.985-0.359,0.975c-0.006-0.015-0.256-0.847-0.282-0.833c-0.024,0.015-0.892,0.117-0.903,0.122
							c-0.013,0.009,0.653-0.838,0.653-0.838l-0.089-0.903l0.706,0.272c0,0,0.751-0.573,0.765-0.579
							c0.013-0.009-0.198,0.781-0.198,0.781l0.379,0.525C409.81,292.745,409.598,292.964,409.588,293.004L409.588,293.004z"/>
					</g>
				</g>
				<g clip-path="url(#SVGID_6_)">
					<path fill="#010101" d="M408.725,294.226c-0.002-0.003-0.02-0.06-0.047-0.145c-0.048-0.154-0.169-0.54-0.215-0.651
						c-0.039,0.015-0.179,0.031-0.541,0.077c-0.157,0.02-0.291,0.037-0.312,0.04c-0.033-0.026-0.055-0.043-0.036-0.094l-0.011-0.021
						c0.005-0.003,0.008-0.006,0.022-0.009c0.052-0.102,0.217-0.312,0.612-0.812l-0.113-0.963l0.803,0.312
						c0.694-0.57,0.705-0.576,0.712-0.579c0.105,0.051,0.107,0.054-0.108,0.854l0.37,0.472c-0.095,0.174-0.2,0.29-0.214,0.318
						c-0.095,0.052-0.428,0.213-0.465,0.241c0.012-0.025-0.338,0.946-0.343,0.955L408.725,294.226L408.725,294.226z
						 M408.492,293.305c0.066,0,0.09,0.046,0.297,0.708c0.098-0.259,0.277-0.75,0.287-0.799c0.031-0.073,0.389-0.228,0.479-0.264
						c-0.006-0.009,0.041-0.074,0.209-0.247l-0.385-0.446c-0.007-0.04,0.096-0.438,0.152-0.668c-0.219,0.168-0.629,0.48-0.629,0.48
						l-0.672-0.233l0.079,0.807c-0.011,0.037-0.396,0.529-0.575,0.762c0.045-0.006,0.102-0.014,0.175-0.022
						c0.237-0.028,0.527-0.065,0.567-0.077C408.482,293.305,408.487,293.305,408.492,293.305L408.492,293.305z"/>
				</g>
				<path clip-path="url(#SVGID_6_)" fill="#FFFFFF" d="M401.096,302.976c0.521,0.344,3.691,1.009,4.166,1.077
					c0.602-0.057,1.445,0.02,2.078,0.23c0.605,0.264,1.225,0.253,1.639-0.062c0.562-0.312,0.767-0.839,1.02-1.311
					c0.097-0.25,0.102-0.514-0.004-0.732c-0.187-0.466-0.075-0.58-0.114-0.844c0.684-1.512,0.825-3.271,0.989-4.571
					c-0.021-0.759,0.059-1.338,0.148-1.574c0.362-0.557,0.893-0.79,1.158-0.892c0.986-0.256,1.973-0.509,2.959-0.765
					c0.766-0.278,0.265-0.801,0.106-0.756c-0.511-0.073-0.491-0.625-2.886-0.051c-0.513-0.065-1.026-0.131-1.539-0.196
					c0,0-0.299-0.238-0.33-0.222c-0.832-0.153-0.953,0.387-0.905,0.713c0.038,0.236,0.077,0.475,0.115,0.711
					c0,0-0.3,1.068-0.282,1.1c-0.761,0.852-1.894,3.597-1.966,4.125c-0.034,0.494-0.222,0.406-0.171,0.889
					c0.002,0.375-0.043,0.14,0.082,0.915c0.031,0.233-0.254,0.216-0.418,0.148c-1.395-0.876-2.719-1.443-4.175-2.22
					c-0.077-0.039-0.152-0.076-0.229-0.116c-0.745,0.611-1.492,1.219-2.237,1.83c0.141,0.807,0.28,1.61,0.42,2.417
					C400.853,302.885,400.971,302.925,401.096,302.976L401.096,302.976z"/>
				<g clip-path="url(#SVGID_6_)">
					<path fill="#010101" d="M408.176,304.533c-0.274,0-0.572-0.068-0.86-0.193c-0.571-0.188-1.423-0.281-2.048-0.225
						c-0.406-0.054-3.663-0.728-4.207-1.085l-0.111-0.046c-0.083-0.031-0.166-0.065-0.256-0.107l-0.455-2.464l2.26-1.889l0.299,0.11
						c0.493,0.262,0.971,0.5,1.443,0.736c0.932,0.466,1.812,0.903,2.735,1.482c0.099,0.04,0.263,0.046,0.306,0
						c-0.078-0.668-0.076-0.685-0.071-0.818l0.004-0.19c-0.028-0.272,0.02-0.38,0.071-0.491c0.041-0.094,0.086-0.188,0.1-0.403
						c0.074-0.543,1.211-3.284,1.973-4.15c-0.008-0.012,0.027-0.193,0.277-1.086l-0.116-0.682c-0.033-0.23,0.021-0.454,0.146-0.6
						c0.167-0.19,0.43-0.261,0.834-0.188c0.011-0.003,0.066,0,0.357,0.236l1.508,0.182c0.707-0.174,1.27-0.259,1.695-0.259
						c0.484,0,0.711,0.111,0.892,0.202c0.101,0.051,0.187,0.094,0.3,0.107c0.113,0,0.322,0.159,0.356,0.347
						c0.022,0.128-0.006,0.369-0.45,0.531l-2.965,0.768c-0.496,0.188-0.865,0.472-1.12,0.863c-0.082,0.216-0.161,0.781-0.14,1.54
						l-0.059,0.488c-0.146,1.233-0.33,2.771-0.936,4.108c0.019,0.057,0.016,0.134,0.011,0.21c-0.007,0.143-0.015,0.287,0.104,0.586
						c0.108,0.224,0.112,0.503,0.005,0.778l-0.108,0.207c-0.216,0.424-0.439,0.858-0.939,1.134
						C408.791,304.442,408.501,304.533,408.176,304.533L408.176,304.533z M405.68,303.974c0.58,0,1.208,0.094,1.68,0.25
						c0.598,0.255,1.2,0.235,1.581-0.055c0.474-0.261,0.688-0.682,0.896-1.085l0.106-0.205c0.091-0.232,0.09-0.474-0.005-0.673
						c-0.131-0.327-0.122-0.494-0.115-0.642c0.004-0.071,0.008-0.137-0.005-0.222c0.603-1.358,0.785-2.881,0.931-4.105l0.059-0.48
						c-0.021-0.767,0.062-1.353,0.152-1.591c0.272-0.421,0.674-0.73,1.195-0.929l2.965-0.768c0.26-0.094,0.39-0.233,0.363-0.387
						c-0.025-0.142-0.166-0.244-0.219-0.244c-0.164-0.017-0.264-0.068-0.369-0.119c-0.179-0.088-0.381-0.188-0.836-0.188
						c-0.416,0-0.969,0.082-1.688,0.256l-1.562-0.196c-0.147-0.105-0.292-0.213-0.327-0.222c-0.37-0.062-0.586-0.011-0.721,0.146
						c-0.15,0.176-0.127,0.423-0.116,0.497l0.115,0.71c-0.108,0.406-0.279,1.034-0.282,1.103c-0.766,0.889-1.893,3.605-1.966,4.14
						c-0.017,0.232-0.067,0.344-0.11,0.439c-0.049,0.105-0.086,0.188-0.061,0.433l-0.004,0.204
						c-0.005,0.122-0.006,0.137,0.086,0.711c0.011,0.076-0.004,0.139-0.045,0.185c-0.083,0.094-0.289,0.102-0.459,0.031
						c-0.928-0.583-1.806-1.021-2.734-1.483c-0.473-0.236-0.951-0.475-1.447-0.738l-0.228-0.117l-2.168,1.821l0.443,2.358
						c0.063-0.009,0.133,0.028,0.212,0.06l0.124,0.051c0.51,0.335,3.666,1.003,4.151,1.071
						C405.387,303.979,405.529,303.974,405.68,303.974L405.68,303.974z"/>
				</g>
				<path clip-path="url(#SVGID_6_)" fill="#F2DD31" d="M413.211,293.944c-0.029,0.009-0.965-1.119-0.965-1.119
					s0.549-0.114,0.551-0.108l1.079,1.037L413.211,293.944z"/>
				<g clip-path="url(#SVGID_6_)">
					<path fill="#010101" d="M410.025,299.959c-0.689,0-1.427-0.318-1.808-0.677l0.086-0.094c0.353,0.336,1.21,0.742,2.01,0.622
						l0.019,0.125C410.232,299.95,410.129,299.959,410.025,299.959L410.025,299.959z"/>
				</g>
				<g clip-path="url(#SVGID_6_)">
					<path fill="#010101" d="M413.248,293.984l-0.092-0.003c-0.113-0.111-0.345-0.341-0.41-0.424
						c-0.084-0.091-0.174-0.188-0.269-0.272l-0.114-0.125c-0.047-0.054-0.094-0.103-0.15-0.171
						c-0.088-0.073-0.172-0.161-0.261-0.255l0.093-0.089c0.084,0.094,0.165,0.177,0.258,0.256c0.062,0.074,0.107,0.122,0.154,0.174
						l0.111,0.122c0.092,0.085,0.185,0.182,0.274,0.278c0.065,0.082,0.292,0.307,0.402,0.417L413.248,293.984L413.248,293.984z
						 M414.146,293.836c-0.035-0.003-0.168-0.051-0.24-0.094l-0.121-0.102c-0.1-0.083-0.227-0.188-0.274-0.245
						c-0.077-0.079-0.16-0.161-0.247-0.238l-0.109-0.113c-0.043-0.046-0.085-0.089-0.136-0.146
						c-0.083-0.062-0.161-0.139-0.243-0.225l0.09-0.085c0.078,0.077,0.152,0.15,0.239,0.219l0.247,0.262
						c0.084,0.071,0.17,0.156,0.254,0.244c0.047,0.057,0.167,0.153,0.26,0.23l0.115,0.097c0.05,0.028,0.16,0.067,0.18,0.07
						L414.146,293.836L414.146,293.836z"/>
				</g>
				<g clip-path="url(#SVGID_6_)">
					<path fill="#010101" d="M409.3,296.995c-0.075-0.176-0.155-0.295-0.211-0.372c-0.093-0.164-0.358-0.264-0.417-0.278
						c-0.081-0.009-0.119-0.022-0.143-0.028l0.031-0.051l-0.072,0.045l0.082-0.113c0.018,0.006,0.051,0.017,0.103,0.022
						c0.087-0.02,0.413,0.14,0.522,0.335c0.055,0.074,0.137,0.202,0.186,0.287L409.3,296.995L409.3,296.995z"/>
				</g>
				<g clip-path="url(#SVGID_6_)">
					<path fill="#010101" d="M412.28,294.234l-0.081-0.015l0.057-0.028l-0.062,0.017l0.009-0.005l-0.009,0.005
						c-0.072-0.125-0.096-0.179-0.117-0.229c-0.021-0.046-0.039-0.088-0.061-0.125c-0.027-0.049-0.047-0.1-0.066-0.15
						c-0.018-0.046-0.035-0.092-0.059-0.134c-0.022-0.057-0.048-0.105-0.074-0.156c-0.026-0.054-0.053-0.108-0.074-0.159
						c-0.022-0.043-0.041-0.091-0.061-0.137c-0.023-0.054-0.047-0.11-0.08-0.17l-0.115-0.25l0.113-0.057
						c0.031,0.057,0.049,0.102,0.066,0.145l0.047,0.103c0.035,0.062,0.06,0.122,0.085,0.182c0.018,0.042,0.036,0.088,0.06,0.134
						c0.021,0.054,0.047,0.102,0.072,0.153c0.027,0.054,0.055,0.107,0.074,0.159c0.022,0.039,0.043,0.091,0.062,0.142
						c0.019,0.046,0.036,0.091,0.059,0.134c0.023,0.042,0.045,0.088,0.065,0.136c0.021,0.049,0.044,0.097,0.069,0.146l0.031,0.054
						l-0.002,0.022l0.011-0.005l-0.011,0.008L412.28,294.234L412.28,294.234z"/>
				</g>
				<g clip-path="url(#SVGID_6_)">
					<path fill="#010101" d="M414.796,293.632c-0.034-0.003-0.165-0.046-0.232-0.08l-0.12-0.094
						c-0.094-0.073-0.211-0.167-0.256-0.219c-0.072-0.07-0.152-0.145-0.233-0.213l-0.101-0.1c-0.042-0.042-0.082-0.082-0.131-0.136
						c-0.078-0.055-0.152-0.122-0.229-0.199l0.087-0.091c0.074,0.074,0.143,0.137,0.226,0.196c0.057,0.062,0.096,0.1,0.136,0.139
						l0.098,0.1c0.079,0.065,0.162,0.14,0.24,0.219c0.045,0.051,0.154,0.137,0.241,0.202l0.114,0.094
						c0.047,0.02,0.152,0.054,0.171,0.057L414.796,293.632L414.796,293.632z"/>
				</g>
				<g clip-path="url(#SVGID_6_)">
					<path fill="#010101" d="M410.729,293.705l-0.023-0.125c0.107-0.02,0.126-0.054,0.152-0.104c0.06-0.114,0.081-0.275,0.037-0.483
						c-0.021-0.088-0.035-0.156-0.051-0.261c-0.021-0.046-0.027-0.089-0.033-0.131l0.123-0.034c0.008,0.06,0.012,0.085,0.031,0.131
						c0.018,0.116,0.031,0.182,0.053,0.267c0.05,0.236,0.024,0.424-0.017,0.521C410.938,293.595,410.894,293.674,410.729,293.705
						L410.729,293.705z"/>
				</g>
				<g clip-path="url(#SVGID_6_)">
					<path fill="#010101" d="M409.346,303.883c-0.113-0.009-0.145-0.026-0.194-0.046c-0.036-0.009-0.075-0.02-0.11-0.031
						c-0.04-0.015-0.079-0.028-0.13-0.034l0.021-0.125c0.059,0.009,0.103,0.022,0.148,0.04c0.033,0.008,0.066,0.022,0.108,0.031
						c0.066,0.025,0.104,0.045,0.124,0.057l-0.004,0.022l0.01-0.006l-0.011,0.012l0.034-0.025l0.023,0.042L409.346,303.883
						L409.346,303.883z"/>
				</g>
				<g clip-path="url(#SVGID_6_)">
					<path fill="#010101" d="M409.884,301.987c-0.079-0.065-1.114-0.75-1.261-0.79l-0.135-0.057c-0.06-0.022-0.12-0.045-0.189-0.079
						c-0.043-0.028-0.079-0.043-0.115-0.062c-0.109-0.037-0.152-0.049-0.194-0.06c-0.042-0.012-0.087-0.015-0.116-0.021h-0.105
						c-0.035,0.009-0.077,0.022-0.135,0.015c-0.129,0.022-0.216,0.037-0.267,0.051l-0.034-0.122
						c0.054-0.015,0.146-0.028,0.226-0.043l0.176-0.022c0.04-0.012,0.093-0.025,0.16,0c0.028-0.009,0.08,0.009,0.128,0.02
						c0.035,0.012,0.072,0.021,0.113,0.026l0.101,0.042c0.043,0.021,0.084,0.04,0.127,0.068c0.058,0.028,0.116,0.051,0.171,0.071
						l0.133,0.054c0.117,0.031,1.282,0.768,1.315,0.832l-0.112,0.058l0.057-0.028L409.884,301.987L409.884,301.987z"/>
				</g>
				<g clip-path="url(#SVGID_6_)">
					<path fill="#010101" d="M407.511,299.175l-0.168-0.057c0.022-0.018,0.058-0.034,0.117-0.06c0.045-0.018,0.097-0.04,0.139-0.065
						c0.13-0.065,0.534-0.111,0.734,0.005l-0.062,0.108c-0.162-0.091-0.525-0.048-0.612-0.003
						C407.615,299.129,407.56,299.154,407.511,299.175L407.511,299.175z"/>
				</g>
				<g clip-path="url(#SVGID_6_)">
					<path fill="#010101" d="M408.365,301.072c-0.009-0.014-0.009-0.014-0.051-0.213l-0.066-0.312
						c-0.066-0.39-0.021-1.293,0.002-1.4c0.004-0.028,0.004-0.068,0.004-0.111c0.002-0.079,0.002-0.162,0.031-0.225
						c0.012-0.067,0.041-0.145,0.068-0.219c0.074-0.192,0.111-0.286,0.157-0.363c0.046-0.293,0.89-1.483,0.936-1.528
						c0.035-0.057,0.099-0.143,0.144-0.196c0.008-0.034,0.037-0.079,0.069-0.131c0.094-0.136,0.114-0.182,0.138-0.235l0.043-0.162
						c0.01-0.062,0.023-0.128,0.022-0.188c0.015-0.079,0.015-0.137,0.017-0.188c0-0.043,0.002-0.082,0.007-0.119
						c-0.014-0.105,0.06-1.44,0.061-1.452c0.019-0.119,0.099-0.372,0.263-0.48c0.081-0.054,0.17-0.067,0.266-0.045l0.131,0.04
						c0.077,0.02,0.149,0.042,0.203,0.076c0.085,0.021,0.164,0.08,0.234,0.137c0.365,0.344,0.475,0.576,0.527,0.688l-0.005,0.125
						l0.056-0.031l-0.086,0.108l-0.05-0.092c-0.083-0.17-0.182-0.38-0.481-0.67c-0.103-0.08-0.168-0.131-0.244-0.15
						c-0.056-0.031-0.119-0.052-0.188-0.068l-0.134-0.043c-0.054-0.014-0.108-0.003-0.159,0.031
						c-0.133,0.088-0.197,0.318-0.208,0.393c-0.007,0.065-0.071,1.344-0.061,1.438c-0.005,0.048-0.006,0.082-0.007,0.119
						c0,0.06-0.002,0.122-0.017,0.196c0.002,0.054-0.011,0.13-0.023,0.198l-0.016,0.103c-0.061,0.145-0.087,0.202-0.14,0.27
						c-0.072,0.117-0.098,0.156-0.11,0.193c-0.053,0.071-0.114,0.153-0.155,0.216c-0.074,0.08-0.871,1.225-0.916,1.492
						c-0.051,0.094-0.084,0.182-0.123,0.281c-0.058,0.153-0.084,0.222-0.1,0.295c-0.022,0.055-0.023,0.128-0.023,0.19
						c-0.001,0.046-0.002,0.094-0.008,0.131c-0.018,0.088-0.066,0.972-0.001,1.355l0.066,0.31c0.021,0.105,0.034,0.168,0.039,0.182
						L408.365,301.072L408.365,301.072z"/>
				</g>
				<g clip-path="url(#SVGID_6_)">
					<path fill="#010101" d="M407.498,304.352l-0.027-0.058l-0.031,0.009l0.027-0.014l-0.056,0.02h0.001l-0.004,0.003l0.027-0.022
						l-0.032,0.011l0.055-0.031l-0.083-0.062c-0.008-0.068-0.021-0.136-0.033-0.201l-0.021-0.111
						c-0.04-0.153-0.059-0.222-0.048-0.278c-0.028-0.054-0.019-0.131-0.01-0.204c0.031-0.165,0.042-0.245,0.046-0.353
						c0.007-0.077,0.007-0.137,0.007-0.199c0-0.051,0-0.105,0.003-0.165l-0.03-0.091c-0.015-0.06-0.03-0.116-0.062-0.179
						l-0.051-0.11c-0.027-0.061-0.055-0.12-0.091-0.186l-0.143-0.252l0.109-0.062l0.143,0.252c0.038,0.068,0.067,0.134,0.097,0.196
						l0.049,0.108c0.038,0.07,0.055,0.136,0.07,0.201l0.031,0.287c0,0.065,0,0.128-0.007,0.207
						c-0.003,0.111-0.016,0.196-0.042,0.315c-0.014,0.111-0.021,0.165,0.001,0.225c-0.003,0.06,0.013,0.117,0.027,0.168l0.045,0.207
						c0.013,0.068,0.026,0.14,0.032,0.199v0.065l0.015-0.009l-0.005,0.006l0.006-0.003l-0.016,0.018V304.352L407.498,304.352z"/>
				</g>
				<path clip-path="url(#SVGID_6_)" fill="#F2DD31" d="M408.693,303.681c-0.17-0.259-0.342-0.756-0.348-0.765l-0.344-0.591
					c-0.206-0.295-0.364-0.298-0.479-0.301c-0.244-0.015-0.354-0.062-0.539-0.077c-0.189-0.082-0.049-0.423-0.053-0.432
					c0.193-0.772,1.008-0.696,1.041-0.679c0.373,0.122,0.418,0.167,0.357,0.403c-0.095,0.256-0.15,0.347-0.143,0.509
					c0.02,0.307,0.394,0.761,0.398,0.77c0.005,0.012,0.246,0.207,0.246,0.207c0.114,0.097,0.266,0.114,0.422,0.308
					c0.137,0.207,0.156,0.292,0.044,0.5C409.152,303.803,408.842,303.883,408.693,303.681L408.693,303.681z"/>
				<g clip-path="url(#SVGID_6_)">
					<path fill="#010101" d="M408.916,303.856c-0.109,0-0.207-0.048-0.273-0.136c-0.148-0.23-0.294-0.617-0.341-0.745l-0.354-0.619
						c-0.185-0.261-0.317-0.267-0.423-0.267c-0.143-0.009-0.238-0.028-0.327-0.046c-0.07-0.014-0.137-0.025-0.219-0.034
						c-0.23-0.097-0.145-0.389-0.116-0.485c0.178-0.708,0.804-0.762,0.991-0.762c0.026,0,0.116,0.003,0.146,0.018
						c0.356,0.116,0.469,0.179,0.391,0.477l-0.059,0.151c-0.058,0.147-0.087,0.224-0.081,0.338c0.01,0.164,0.146,0.429,0.376,0.725
						c0.029,0.031,0.245,0.207,0.245,0.207c0.038,0.031,0.081,0.054,0.129,0.079c0.087,0.049,0.195,0.105,0.302,0.236
						c0.148,0.225,0.176,0.338,0.051,0.568C409.256,303.74,409.086,303.856,408.916,303.856L408.916,303.856z M407.91,300.896
						c-0.312,0-0.779,0.082-0.919,0.637c-0.062,0.216-0.054,0.326,0.019,0.357c0.066,0.003,0.137,0.015,0.213,0.031
						c0.084,0.015,0.176,0.031,0.306,0.04c0.12,0.006,0.303,0.009,0.525,0.329l0.347,0.594c0.065,0.171,0.207,0.549,0.346,0.762
						c0.111,0.15,0.38,0.074,0.496-0.145c0.097-0.177,0.092-0.233-0.041-0.436c-0.087-0.104-0.174-0.153-0.26-0.198
						c-0.053-0.028-0.103-0.054-0.15-0.094c-0.249-0.205-0.252-0.21-0.26-0.225c-0.147-0.188-0.391-0.537-0.407-0.798
						c-0.007-0.143,0.03-0.233,0.091-0.39l0.056-0.145c0.045-0.174,0.052-0.199-0.318-0.321
						C407.939,300.896,407.925,300.896,407.91,300.896L407.91,300.896z"/>
				</g>
				<g clip-path="url(#SVGID_6_)">
					<g>
						<defs>
							<rect id="SVGID_11_" x="388.156" y="296.45" width="2.831" height="1.929"/>
						</defs>
						<clipPath id="SVGID_12_">
							<use xlink:href="#SVGID_11_"  overflow="visible"/>
						</clipPath>
						<path clip-path="url(#SVGID_12_)" fill="#F2DD31" d="M389.49,296.492c0.032,0.034,0.421,0.271,0.428,0.256
							c0.007-0.014,1.017-0.247,1.011-0.232c-0.007,0.014-0.566,0.679-0.541,0.693c0.025,0.011,0.585,0.682,0.598,0.688
							c0.014,0.006-1.059-0.088-1.059-0.088l-0.708,0.57l-0.159-0.741c0,0-0.892-0.315-0.905-0.321
							c-0.012-0.006,0.763-0.264,0.763-0.264l0.232-0.603C389.151,296.45,389.451,296.507,389.49,296.492L389.49,296.492z"/>
					</g>
				</g>
				<g clip-path="url(#SVGID_6_)">
					<path fill="#010101" d="M389.179,298.493l-0.18-0.839c-0.013,0.003-0.857-0.275-0.87-0.281
						c-0.031-0.113-0.031-0.113,0.77-0.381l0.193-0.564c0.07-0.04,0.303,0.002,0.379,0.002c0.101,0.052,0.416,0.242,0.461,0.259
						c-0.034-0.028,0.987-0.235,0.996-0.235h0.105l-0.048,0.094c-0.002,0.003-0.037,0.048-0.091,0.113
						c-0.104,0.125-0.365,0.44-0.432,0.54c0.033,0.025,0.122,0.128,0.351,0.397c0.108,0.128,0.201,0.236,0.217,0.253l-0.044,0.111
						c-0.05,0-1.062-0.091-1.062-0.091L389.179,298.493L389.179,298.493z M388.338,297.313c0.258,0.094,0.743,0.265,0.743,0.265
						l0.175,0.69l0.632-0.509c0.037-0.014,0.658,0.04,0.95,0.062c-0.03-0.034-0.07-0.082-0.122-0.142
						c-0.154-0.183-0.337-0.398-0.367-0.424c-0.031-0.079-0.035-0.094,0.421-0.647c-0.267,0.057-0.779,0.179-0.827,0.195
						c-0.054,0-0.482-0.25-0.5-0.27c-0.054,0.022-0.306-0.025-0.306-0.025l-0.161,0.565
						C388.948,297.104,388.56,297.237,388.338,297.313L388.338,297.313z"/>
				</g>
				<path clip-path="url(#SVGID_6_)" fill="#FFFFFF" d="M402.484,298.135c0.002-0.625-1.179-3.643-1.381-4.077
					c-0.377-0.472-0.776-1.219-0.947-1.863c-0.111-0.65-0.459-1.162-0.951-1.336c-0.566-0.301-1.12-0.182-1.654-0.136
					c-0.26,0.057-0.484,0.196-0.61,0.406c-0.289,0.409-0.444,0.378-0.644,0.557c-1.638,0.253-3.188,1.1-4.366,1.676
					c-0.624,0.433-1.153,0.686-1.398,0.736c-0.666,0.006-1.15-0.312-1.381-0.478c-0.753-0.688-1.507-1.372-2.261-2.057
					c-0.653-0.488-0.814,0.216-0.689,0.324c0.219,0.469-0.253,0.753,1.539,2.443c0.227,0.463,0.453,0.929,0.68,1.395
					c0,0-0.038,0.381-0.006,0.395c0.327,0.781,0.847,0.589,1.093,0.37c0.177-0.162,0.355-0.324,0.532-0.486
					c0,0,1.055-0.335,1.072-0.366c1.132,0.17,4.048-0.387,4.529-0.614c0.433-0.244,0.462-0.036,0.837-0.344
					c0.313-0.207,0.141-0.042,0.721-0.573c0.179-0.153,0.319,0.097,0.353,0.27c0.032,1.646,0.281,3.065,0.43,4.708
					c0.009,0.085,0.02,0.17,0.029,0.256c0.919,0.289,1.837,0.579,2.756,0.869c0.597-0.557,1.194-1.117,1.792-1.677
					C402.54,298.388,402.509,298.269,402.484,298.135L402.484,298.135z"/>
				<g clip-path="url(#SVGID_6_)">
					<path fill="#010101" d="M400.782,300.28l-2.792-0.881l-0.072-0.308c-0.051-0.557-0.113-1.088-0.174-1.61
						c-0.121-1.037-0.236-2.012-0.256-3.105c-0.023-0.113-0.103-0.253-0.18-0.253c-0.506,0.432-0.521,0.438-0.634,0.509l-0.163,0.1
						c-0.212,0.173-0.328,0.193-0.45,0.21c-0.1,0.015-0.203,0.031-0.392,0.137c-0.499,0.235-3.403,0.789-4.554,0.625
						c-0.006,0.014-0.179,0.082-1.059,0.36l-0.509,0.472c-0.071,0.062-0.262,0.21-0.503,0.21c-0.2,0-0.481-0.102-0.689-0.599
						c-0.009,0.017-0.041-0.003,0-0.43l-0.673-1.36c-1.361-1.276-1.421-1.771-1.465-2.131c-0.013-0.111-0.025-0.208-0.074-0.312
						c-0.061-0.046-0.057-0.199-0.014-0.318c0.11-0.301,0.435-0.355,0.798-0.082l2.265,2.06c0.43,0.31,0.866,0.463,1.329,0.463
						c0.233-0.049,0.75-0.296,1.373-0.725l0.435-0.216c1.114-0.554,2.501-1.244,3.958-1.472c0.039-0.048,0.103-0.085,0.17-0.125
						c0.122-0.071,0.248-0.145,0.431-0.406c0.129-0.216,0.361-0.369,0.649-0.429l0.237-0.026c0.522-0.057,1.047-0.054,1.459,0.168
						c0.494,0.174,0.865,0.69,0.983,1.378c0.159,0.597,0.534,1.335,0.934,1.838c0.182,0.384,1.398,3.452,1.396,4.114l0.026,0.122
						c0.018,0.085,0.035,0.174,0.047,0.271L400.782,300.28L400.782,300.28z M397.309,293.995c0.171,0,0.276,0.222,0.304,0.369
						c0.022,1.095,0.136,2.071,0.257,3.103c0.062,0.523,0.124,1.055,0.175,1.611l0.028,0.256l2.676,0.804l1.766-1.65
						c-0.031-0.04-0.049-0.122-0.065-0.205l-0.027-0.136c0.001-0.62-1.163-3.6-1.377-4.061c-0.402-0.5-0.787-1.261-0.951-1.875
						c-0.111-0.647-0.452-1.131-0.911-1.292c-0.402-0.214-0.897-0.211-1.395-0.157l-0.231,0.023
						c-0.247,0.054-0.449,0.188-0.562,0.375c-0.201,0.287-0.345,0.372-0.472,0.446c-0.061,0.036-0.12,0.07-0.183,0.125
						c-1.469,0.238-2.846,0.926-3.953,1.474l-0.428,0.214c-0.628,0.435-1.164,0.688-1.413,0.741c-0.003,0-0.005,0-0.007,0
						c-0.511,0-0.969-0.162-1.424-0.488l-2.267-2.062c-0.331-0.245-0.556-0.086-0.6,0.028c-0.038,0.102-0.021,0.188-0.007,0.201
						c0.074,0.143,0.086,0.253,0.102,0.369c0.041,0.344,0.097,0.81,1.439,2.074l0.693,1.415c-0.008,0.182-0.019,0.36-0.008,0.395
						c0.146,0.347,0.345,0.528,0.577,0.528c0.198,0,0.359-0.125,0.42-0.179l0.532-0.482c0.399-0.134,1.018-0.336,1.075-0.37
						c0.191,0.009,0.363,0.018,0.555,0.018c1.313,0,3.562-0.44,3.985-0.643c0.206-0.113,0.325-0.13,0.431-0.147
						c0.114-0.017,0.204-0.031,0.394-0.185l0.173-0.11c0.104-0.061,0.117-0.068,0.545-0.461
						C397.206,294.019,397.257,293.995,397.309,293.995L397.309,293.995z"/>
				</g>
				<path clip-path="url(#SVGID_6_)" fill="#F2DD31" d="M388.292,292.947c0.022,0.02-0.408,1.417-0.408,1.417
					s-0.396-0.392-0.392-0.4l0.277-1.469L388.292,292.947z"/>
				<g clip-path="url(#SVGID_6_)">
					<path fill="#010101" d="M395.492,294.2l-0.125-0.023c0.085-0.474-0.038-1.417-0.58-2.02l0.094-0.085
						C395.399,292.648,395.598,293.606,395.492,294.2L395.492,294.2z"/>
				</g>
				<g clip-path="url(#SVGID_6_)">
					<path fill="#010101" d="M387.967,294.663l-0.122-0.031c0.03-0.122,0.056-0.233,0.07-0.353c0.027-0.094,0.043-0.156,0.06-0.219
						l0.044-0.168c0.02-0.122,0.05-0.252,0.083-0.38c0.037-0.111,0.11-0.478,0.136-0.605l0.067-0.012l0.057,0.037
						c-0.026,0.131-0.102,0.506-0.139,0.614c-0.03,0.122-0.06,0.25-0.08,0.375l-0.045,0.167c-0.016,0.068-0.033,0.134-0.058,0.213
						C388.026,294.419,388,294.538,387.967,294.663L387.967,294.663z M387.468,294.007l-0.123-0.028
						c0.025-0.108,0.044-0.211,0.053-0.318l0.084-0.353c0.014-0.107,0.038-0.228,0.064-0.344c0.022-0.073,0.038-0.225,0.052-0.344
						l0.019-0.15c-0.005-0.057-0.033-0.171-0.041-0.19l0.114-0.054c0.015,0.028,0.047,0.167,0.052,0.25l-0.019,0.159
						c-0.015,0.128-0.034,0.289-0.055,0.36c-0.025,0.108-0.048,0.225-0.062,0.338l-0.084,0.35
						C387.514,293.785,387.493,293.893,387.468,294.007L387.468,294.007z"/>
				</g>
				<g clip-path="url(#SVGID_6_)">
					<path fill="#010101" d="M392.859,295.601l-0.142-0.003c-0.005-0.02-0.014-0.054-0.035-0.103
						c-0.071-0.073-0.111-0.423-0.008-0.619c0.033-0.085,0.094-0.225,0.138-0.312l0.173-0.014c-0.104,0.156-0.163,0.289-0.197,0.378
						c-0.087,0.167-0.039,0.46-0.001,0.5c0.036,0.073,0.046,0.113,0.052,0.136h-0.068L392.859,295.601L392.859,295.601z"/>
				</g>
				<g clip-path="url(#SVGID_6_)">
					<path fill="#010101" d="M388.193,295.072l-0.109-0.062c0.031-0.06,0.057-0.097,0.083-0.137l0.062-0.097
						c0.032-0.06,0.066-0.11,0.102-0.164c0.027-0.04,0.055-0.08,0.081-0.125c0.034-0.049,0.062-0.1,0.091-0.148
						c0.029-0.051,0.059-0.102,0.091-0.147c0.021-0.04,0.052-0.085,0.085-0.131c0.028-0.04,0.058-0.079,0.081-0.122
						c0.022-0.043,0.05-0.088,0.079-0.131c0.028-0.042,0.058-0.088,0.083-0.136l0.05-0.065l-0.012-0.009l0.014,0.009l0.073-0.04
						l0.035,0.071l-0.009,0.017c-0.065,0.128-0.097,0.176-0.126,0.222c-0.026,0.04-0.053,0.082-0.073,0.119
						c-0.025,0.049-0.058,0.094-0.089,0.14c-0.028,0.04-0.058,0.079-0.081,0.122c-0.034,0.048-0.062,0.097-0.089,0.145
						c-0.03,0.055-0.061,0.105-0.093,0.151c-0.024,0.045-0.054,0.088-0.083,0.13c-0.033,0.049-0.065,0.097-0.096,0.156
						L388.193,295.072L388.193,295.072z"/>
				</g>
				<g clip-path="url(#SVGID_6_)">
					<path fill="#010101" d="M387.005,293.453l-0.124-0.026c0.021-0.102,0.036-0.192,0.041-0.295l0.071-0.327
						c0.01-0.1,0.029-0.21,0.051-0.32c0.019-0.065,0.03-0.205,0.039-0.312l0.014-0.146c-0.007-0.048-0.039-0.156-0.047-0.176
						l0.112-0.057c0.016,0.028,0.051,0.159,0.06,0.235l-0.014,0.15c-0.01,0.119-0.023,0.271-0.042,0.336
						c-0.021,0.099-0.039,0.204-0.048,0.312l-0.072,0.323C387.043,293.245,387.026,293.345,387.005,293.453L387.005,293.453z"/>
				</g>
				<g clip-path="url(#SVGID_6_)">
					<path fill="#010101" d="M388.485,295.686l-0.1-0.079c0.047-0.04,0.067-0.057,0.092-0.097c0.088-0.08,0.137-0.128,0.194-0.19
						c0.172-0.173,0.342-0.253,0.446-0.272c0.127-0.003,0.216-0.015,0.333,0.107l-0.092,0.086c-0.075-0.077-0.116-0.074-0.17-0.068
						c-0.129,0.014-0.276,0.085-0.425,0.235c-0.059,0.065-0.111,0.114-0.191,0.185C388.549,295.632,388.518,295.657,388.485,295.686
						L388.485,295.686z"/>
				</g>
				<g clip-path="url(#SVGID_6_)">
					<path fill="#010101" d="M398.75,291.211c-0.021-0.051-0.033-0.097-0.045-0.142c-0.009-0.034-0.019-0.068-0.034-0.111
						c-0.015-0.07-0.018-0.11-0.019-0.134l0.022-0.011l-0.036-0.018l0.085-0.062c0.055,0.103,0.058,0.137,0.069,0.19
						c0.014,0.034,0.025,0.074,0.035,0.114c0.011,0.039,0.021,0.079,0.041,0.125L398.75,291.211L398.75,291.211z"/>
				</g>
				<g clip-path="url(#SVGID_6_)">
					<path fill="#010101" d="M397.3,294.075c-0.041-0.034-0.103-0.103-0.155-0.162l-0.119-0.14c-0.032-0.028-0.072-0.062-0.09-0.133
						c-0.02-0.023-0.036-0.071-0.052-0.117c-0.011-0.034-0.024-0.07-0.042-0.107l-0.019-0.114c-0.006-0.045-0.013-0.088-0.013-0.139
						c-0.009-0.062-0.021-0.122-0.034-0.182l-0.027-0.143c-0.039-0.113-0.061-1.491-0.024-1.557l0.109,0.065l-0.055-0.031
						l0.062,0.009c-0.011,0.099-0.017,1.338,0.03,1.485l0.028,0.145c0.013,0.061,0.027,0.125,0.036,0.202
						c0,0.048,0.006,0.088,0.013,0.125c0.027,0.116,0.042,0.159,0.055,0.199c0.014,0.042,0.027,0.079,0.047,0.107l0.059,0.091
						c0.027,0.023,0.061,0.055,0.084,0.105c0.094,0.1,0.15,0.162,0.188,0.196L397.3,294.075L397.3,294.075z"/>
				</g>
				<g clip-path="url(#SVGID_6_)">
					<path fill="#010101" d="M395.834,295.021c-0.027-0.009-0.059-0.029-0.112-0.065c-0.041-0.026-0.089-0.058-0.133-0.08
						c-0.11-0.062-0.384-0.375-0.396-0.619l0.126-0.006c0.009,0.182,0.245,0.466,0.33,0.515c0.045,0.022,0.097,0.057,0.143,0.085
						L395.834,295.021L395.834,295.021z"/>
				</g>
				<g clip-path="url(#SVGID_6_)">
					<path fill="#010101" d="M389.794,295.709c-0.065,0-0.131-0.009-0.191-0.034c-0.088-0.04-0.148-0.105-0.182-0.196
						c-0.012-0.051-0.026-0.097-0.04-0.14c-0.023-0.073-0.044-0.142-0.047-0.204c-0.027-0.08-0.019-0.179-0.013-0.268
						c0.088-0.497,0.222-0.716,0.287-0.82l0.187-0.083l-0.079,0.148c-0.065,0.104-0.186,0.304-0.266,0.713
						c-0.009,0.134-0.016,0.216,0.008,0.29c0.004,0.06,0.023,0.122,0.044,0.185c0.015,0.048,0.03,0.097,0.041,0.142
						c0.019,0.051,0.055,0.094,0.111,0.116c0.148,0.062,0.371-0.005,0.445-0.039c0.061-0.034,1.16-0.677,1.234-0.739
						c0.045-0.022,0.075-0.042,0.106-0.06c0.048-0.031,0.102-0.065,0.171-0.094c0.044-0.031,0.115-0.062,0.18-0.088l0.114-0.048
						c0.13-0.023,0.196-0.034,0.282-0.026c0.135-0.003,0.182-0.003,0.22-0.014c0.089,0.006,0.19,0.011,0.265,0.011
						c0.108,0.018,1.498,0.061,1.751-0.051c0.104-0.009,0.191-0.028,0.292-0.048l0.117,0.039l-0.013-0.062
						c0.069-0.014,0.139-0.028,0.21-0.057c0.054-0.012,0.114-0.048,0.166-0.082c0.042-0.025,0.083-0.055,0.12-0.068
						c0.082-0.034,0.85-0.48,1.132-0.741l0.355-0.358l0.105,0.068c-0.006,0.011-0.006,0.011-0.102,0.107l-0.271,0.273
						c-0.289,0.267-1.067,0.725-1.17,0.767c-0.03,0.015-0.065,0.034-0.101,0.057c-0.066,0.043-0.134,0.086-0.201,0.097
						c-0.064,0.028-0.142,0.046-0.216,0.06l-0.105,0.026c-0.108,0.02-0.203,0.039-0.289,0.045c-0.275,0.122-1.731,0.068-1.794,0.054
						c-0.065,0.003-0.171-0.002-0.243-0.011c-0.045,0.017-0.152,0.011-0.219,0.011c-0.11,0-0.154,0.009-0.202,0.018l-0.155,0.051
						c-0.057,0.023-0.122,0.052-0.171,0.083c-0.073,0.031-0.12,0.06-0.162,0.088c-0.037,0.022-0.072,0.045-0.108,0.06
						c-0.08,0.071-1.236,0.741-1.246,0.747C390.139,295.638,389.972,295.709,389.794,295.709L389.794,295.709z"/>
				</g>
				<g clip-path="url(#SVGID_6_)">
					<path fill="#010101" d="M398.362,293.845l-0.112-0.06l0.134-0.256c0.038-0.071,0.077-0.137,0.117-0.199l0.056-0.088
						c0.039-0.07,0.085-0.122,0.128-0.17l0.223-0.182c0.055-0.034,0.108-0.071,0.177-0.108c0.095-0.06,0.174-0.094,0.288-0.14
						c0.1-0.048,0.148-0.07,0.188-0.122c0.052-0.031,0.092-0.076,0.127-0.119l0.146-0.147c0.049-0.046,0.103-0.097,0.149-0.137
						l0.054-0.034l-0.014-0.008h0.013l-0.009-0.006l0.021,0.006l0.078-0.049l-0.033,0.054l0.053,0.034l-0.014,0.026l-0.053-0.031
						l-0.007,0.096c-0.053,0.046-0.103,0.094-0.15,0.14l-0.083,0.077c-0.105,0.119-0.15,0.173-0.205,0.195
						c-0.032,0.055-0.102,0.088-0.167,0.119c-0.154,0.065-0.228,0.1-0.319,0.154c-0.069,0.039-0.12,0.07-0.172,0.104l-0.198,0.162
						c-0.041,0.046-0.08,0.088-0.114,0.147l-0.058,0.094c-0.038,0.06-0.076,0.119-0.112,0.19L398.362,293.845L398.362,293.845z"/>
				</g>
				<g clip-path="url(#SVGID_6_)">
					<path fill="#010101" d="M399.133,299.188l-0.053-0.02l0.023-0.079c0.023-0.137,0.032-0.217,0.041-0.296
						c0.008-0.068,0.016-0.137,0.017-0.193c0.021-0.134,0.042-0.27,0.043-0.395l-0.005-0.114c-0.004-0.104-0.008-0.207-0.025-0.312
						c-0.001-0.082-0.006-0.156-0.011-0.229l-0.011-0.185c-0.003-0.128-0.012-0.236-0.04-0.358c-0.004-0.105-0.009-0.23-0.031-0.344
						c0.008-0.094-0.009-0.162-0.027-0.228l-0.171-0.688c-0.009-0.076-0.036-0.162-0.061-0.235l-0.036-0.119
						c-0.037-0.077-0.069-0.177-0.081-0.256c-0.047-0.1-0.084-0.182-0.098-0.262c-0.022-0.034-0.053-0.11-0.085-0.19
						c-0.042-0.102-0.058-0.147-0.072-0.19c-0.016-0.045-0.031-0.094-0.05-0.133c-0.067-0.162-0.095-0.228-0.112-0.302l0.051-0.15
						l0.072,0.122c0.015,0.065,0.041,0.125,0.066,0.188c0.058,0.134,0.075,0.185,0.092,0.236l0.043,0.116
						c0.057,0.142,0.085,0.213,0.113,0.264c0.017,0.086,0.05,0.156,0.08,0.219c0.036,0.131,0.064,0.219,0.099,0.296l0.038,0.122
						c0.026,0.08,0.055,0.174,0.063,0.25l0.165,0.662c0.024,0.088,0.047,0.176,0.035,0.272c0.023,0.1,0.029,0.233,0.031,0.333
						c0.028,0.119,0.039,0.235,0.042,0.372l0.01,0.182c0.005,0.074,0.01,0.15,0.01,0.225c0.017,0.103,0.021,0.207,0.026,0.318
						l0.005,0.116c-0.001,0.137-0.022,0.278-0.044,0.409c0,0.051-0.007,0.122-0.017,0.196c-0.008,0.073-0.017,0.15-0.017,0.219
						l-0.017,0.094h-0.005h0.005l-0.027,0.051L399.133,299.188L399.133,299.188z"/>
				</g>
				<path clip-path="url(#SVGID_6_)" fill="#F2DD31" d="M398.912,291.393c-0.125,0.284-0.446,0.699-0.45,0.708l-0.306,0.61
					c-0.134,0.336-0.048,0.469,0.01,0.565c0.121,0.216,0.143,0.33,0.233,0.494c0.035,0.205-0.328,0.273-0.333,0.281
					c-0.752,0.262-1.135-0.46-1.139-0.497c-0.103-0.381-0.089-0.443,0.141-0.522c0.265-0.06,0.372-0.062,0.502-0.159
					c0.248-0.185,0.422-0.747,0.428-0.756c0.005-0.008,0.037-0.318,0.037-0.318c0.02-0.15-0.049-0.286,0.026-0.522
					c0.1-0.228,0.159-0.29,0.394-0.307C398.762,290.941,399,291.157,398.912,291.393L398.912,291.393z"/>
				<g clip-path="url(#SVGID_6_)">
					<path fill="#010101" d="M397.747,294.172c-0.565,0-0.874-0.537-0.882-0.611c-0.099-0.36-0.106-0.488,0.184-0.585l0.16-0.037
						c0.156-0.031,0.234-0.048,0.325-0.116c0.132-0.097,0.278-0.355,0.399-0.711c0.012-0.042,0.04-0.317,0.04-0.317
						c0.007-0.052,0.002-0.1-0.002-0.153c-0.01-0.105-0.02-0.222,0.031-0.381c0.11-0.253,0.185-0.333,0.449-0.353
						c0.229,0.003,0.395,0.071,0.48,0.193c0.065,0.097,0.08,0.207,0.039,0.315c-0.072,0.167-0.219,0.4-0.436,0.693l-0.322,0.63
						c-0.119,0.296-0.05,0.409,0.005,0.5c0.072,0.125,0.109,0.216,0.145,0.299c0.027,0.068,0.053,0.131,0.093,0.201
						c0.045,0.247-0.248,0.336-0.344,0.364C397.972,294.151,397.857,294.172,397.747,294.172L397.747,294.172z M398.509,291.029
						c-0.249,0.017-0.292,0.054-0.389,0.272c-0.042,0.131-0.033,0.23-0.024,0.327c0.005,0.06,0.01,0.116,0.002,0.179
						c-0.033,0.321-0.037,0.327-0.044,0.341c-0.078,0.228-0.236,0.619-0.445,0.775c-0.114,0.086-0.212,0.105-0.374,0.14
						l-0.152,0.031c-0.169,0.06-0.197,0.068-0.095,0.443c0.002,0.006,0.245,0.509,0.759,0.509c0.097,0,0.197-0.021,0.298-0.055
						c0.217-0.065,0.305-0.133,0.292-0.213c-0.036-0.057-0.063-0.122-0.092-0.193c-0.034-0.079-0.069-0.164-0.133-0.278
						c-0.064-0.104-0.158-0.261-0.014-0.619l0.308-0.613c0.239-0.327,0.38-0.552,0.448-0.708c0.031-0.085,0.002-0.153-0.026-0.193
						C398.767,291.083,398.645,291.029,398.509,291.029L398.509,291.029z"/>
				</g>
				<g clip-path="url(#SVGID_6_)">
					<g>
						<defs>
							<rect id="SVGID_13_" x="397.778" y="297.936" width="5.016" height="4.989"/>
						</defs>
						<clipPath id="SVGID_14_">
							<use xlink:href="#SVGID_13_"  overflow="visible"/>
						</clipPath>
						<path clip-path="url(#SVGID_14_)" fill="#F2DD31" d="M397.923,298.743c-0.114-0.103,2.141,0.817,2.451,0.829
							c0.425-0.156,2.171-1.637,2.171-1.637c0.019,0.146,0.08,0.521,0.249,0.6c-0.675,0.549-1.29,1.077-1.964,1.625
							c0.048,0.87-0.111,1.787,0.33,2.762c0,0-0.526,0.009-0.526,0c-0.466-0.466-0.632-2.71-0.632-2.71
							c-0.741-0.33-1.481-0.651-2.223-0.983C397.885,299.16,397.972,298.947,397.923,298.743L397.923,298.743z"/>
					</g>
				</g>
				<g clip-path="url(#SVGID_6_)">
					<path fill="#010101" d="M400.77,302.987c-0.157,0-0.2,0-0.2-0.065c-0.458-0.432-0.625-2.61-0.632-2.705l-2.292-0.977
						l0.098-0.062c0.079-0.052,0.161-0.236,0.118-0.421l0.062-0.085c0.053,0,0.264,0.076,0.85,0.295
						c0.606,0.225,1.436,0.534,1.602,0.54c0.386-0.145,2.112-1.603,2.129-1.619l0.089-0.074l0.014,0.117
						c0.038,0.295,0.119,0.505,0.213,0.548l0.092,0.043l-0.078,0.065c-0.332,0.267-0.648,0.534-0.966,0.798
						c-0.327,0.272-0.655,0.546-0.999,0.824c0.036,0.17,0.034,0.397,0.033,0.628c-0.003,0.665-0.008,1.347,0.316,2.057l0.039,0.088
						L400.77,302.987L400.77,302.987z M397.889,299.209l2.138,0.945c0.039,0.074,0.206,2.273,0.649,2.72
						c-0.01-0.012,0.03-0.012,0.094-0.012l0.294-0.003c-0.295-0.704-0.292-1.372-0.288-2.022c0.001-0.228,0.002-0.452-0.01-0.674
						c0.366-0.329,0.693-0.603,1.021-0.878c0.297-0.247,0.594-0.494,0.903-0.747c-0.104-0.103-0.16-0.298-0.191-0.479
						c-0.361,0.304-1.725,1.432-2.104,1.57c-0.197-0.003-0.841-0.235-1.666-0.545c-0.299-0.111-0.606-0.225-0.742-0.268
						C398.004,298.979,397.958,299.121,397.889,299.209L397.889,299.209z"/>
				</g>
				<g clip-path="url(#SVGID_6_)">
					<path fill="#010101" d="M395.85,304.914l-0.12-0.068c0.087-0.108,0.217-0.275,0.277-0.361c0.023-0.037,0.057-0.082,0.089-0.125
						l0.071-0.1c0.083-0.119,0.129-0.188,0.159-0.241l0.057,0.028l0.009-0.113c1.074-1.412,2.292-2.236,3.126-2.682l0.128-0.065
						c0.213-0.111,0.324-0.168,0.385-0.193l0.037,0.051l-0.053,0.028c0.045,0.04-0.162,0.148-0.31,0.225l-0.128,0.068
						c-0.821,0.438-2.023,1.253-3.084,2.645l-0.069,0.086c-0.018,0.039-0.067,0.113-0.119,0.19l-0.108,0.15
						c-0.03,0.04-0.061,0.079-0.085,0.116c-0.062,0.088-0.185,0.25-0.26,0.332l0.018,0.012l-0.021-0.009
						c-0.003,0.003-0.007,0.009-0.01,0.012L395.85,304.914L395.85,304.914z"/>
				</g>
				<g clip-path="url(#SVGID_6_)">
					<path fill="#010101" d="M406.834,301.865c-0.135-0.028-0.344-0.065-0.447-0.082c-0.043-0.003-0.094-0.012-0.143-0.021
						c-0.045-0.009-0.089-0.017-0.13-0.02c-0.146-0.018-0.228-0.028-0.288-0.028l-0.001-0.065l-0.106,0.045
						c-1.746-0.312-3.038-1.017-3.813-1.557l-0.121-0.085c-0.194-0.137-0.296-0.208-0.345-0.253l0.028-0.054l0.049,0.033
						c0.021-0.057,0.205,0.074,0.341,0.171l0.12,0.085c0.765,0.531,2.039,1.228,3.765,1.534l0.107,0.021
						c0.039,0,0.129,0.008,0.219,0.02c0.102,0.012,0.149,0.02,0.197,0.028c0.046,0.009,0.092,0.018,0.135,0.021
						c0.105,0.014,0.305,0.054,0.412,0.079l0.004-0.02l0.002,0.022c0.004,0.003,0.008,0.003,0.012,0.003l0.01-0.018L406.834,301.865
						L406.834,301.865z"/>
				</g>
			</g>
		</g>
	</g>
</g>
</svg>
