<?xml version="1.0" encoding="utf-8"?>
<!-- Generator: Adobe Illustrator 16.0.0, SVG Export Plug-In . SVG Version: 6.00 Build 0)  -->
<!DOCTYPE svg PUBLIC "-//W3C//DTD SVG 1.1//EN" "http://www.w3.org/Graphics/SVG/1.1/DTD/svg11.dtd">
<svg version="1.1" id="name" xmlns="http://www.w3.org/2000/svg" xmlns:xlink="http://www.w3.org/1999/xlink" x="0px" y="0px"
	 width="85.714px" height="50px" viewBox="358 276 85.714 50" enable-background="new 358 276 85.714 50" xml:space="preserve">
<g id="in">
	<g>
		<defs>
			<rect id="SVGID_1_" x="358" y="276" width="85.714" height="50"/>
		</defs>
		<clipPath id="SVGID_2_">
			<use xlink:href="#SVGID_1_"  overflow="visible"/>
		</clipPath>
		<rect x="358" y="276" clip-path="url(#SVGID_2_)" fill="#FFFFFF" width="85.714" height="50"/>
		<rect x="358" y="276" clip-path="url(#SVGID_2_)" fill="#F0953E" width="85.714" height="16.669"/>
		<rect x="358" y="309.334" clip-path="url(#SVGID_2_)" fill="#3D8A41" width="85.714" height="16.666"/>
		<g clip-path="url(#SVGID_2_)">
			<defs>
				<rect id="SVGID_3_" x="358" y="276" width="85.714" height="50"/>
			</defs>
			<clipPath id="SVGID_4_">
				<use xlink:href="#SVGID_3_"  overflow="visible"/>
			</clipPath>
			<path clip-path="url(#SVGID_4_)" fill="#2A2874" d="M400.857,293.501c-4.142,0-7.502,3.358-7.502,7.501
				c0,4.142,3.36,7.497,7.502,7.497c4.141,0,7.5-3.355,7.5-7.497C408.355,296.859,404.998,293.501,400.857,293.501 M400.849,294.231
				l-0.19,3.767l0.202,2.148l0.198-2.148l-0.189-3.767c0.193,0,0.382,0.011,0.57,0.028c-0.001,0.011-0.002,0.022-0.002,0.034
				c0,0.173,0.138,0.312,0.31,0.312c0.156,0,0.284-0.119,0.306-0.268c0.186,0.031,0.367,0.074,0.549,0.122l-1.158,3.589
				l-0.365,2.128l0.751-2.023l0.788-3.688c0.184,0.049,0.365,0.103,0.545,0.168c-0.015,0.037-0.025,0.074-0.025,0.116
				c0,0.171,0.139,0.31,0.309,0.31c0.129,0,0.239-0.076,0.285-0.188c0.173,0.08,0.34,0.168,0.505,0.262l-2.048,3.165l-0.904,1.963
				l1.25-1.762l1.717-3.357c0.162,0.097,0.319,0.195,0.475,0.304c-0.04,0.054-0.065,0.116-0.065,0.19c0,0.17,0.139,0.31,0.31,0.31
				c0.102,0,0.19-0.049,0.247-0.122c0.146,0.122,0.286,0.25,0.421,0.384l-2.797,2.525l-1.381,1.665l1.663-1.378l2.525-2.799
				c0.134,0.134,0.262,0.272,0.384,0.418c-0.071,0.057-0.115,0.142-0.115,0.241c0,0.171,0.139,0.31,0.31,0.31
				c0.069,0,0.131-0.022,0.184-0.06c0.108,0.153,0.212,0.312,0.307,0.478l-3.358,1.719l-1.763,1.25l1.962-0.903l3.168-2.052
				c0.1,0.174,0.188,0.353,0.272,0.531c-0.11,0.049-0.19,0.159-0.19,0.287c0,0.171,0.139,0.31,0.311,0.31
				c0.042,0,0.082-0.008,0.115-0.022c0.061,0.168,0.114,0.341,0.161,0.515l-3.689,0.789l-2.024,0.748l2.127-0.361l3.591-1.159
				c0.048,0.179,0.091,0.363,0.125,0.551c-0.15,0.023-0.267,0.151-0.267,0.308c0,0.17,0.139,0.31,0.31,0.31c0.013,0,0.022,0,0.034,0
				c0.014,0.185,0.025,0.375,0.025,0.565l-3.766-0.19l-2.152,0.201l2.15,0.199l3.768-0.19c0,0.19-0.012,0.381-0.025,0.568
				c-0.012-0.003-0.021-0.003-0.034-0.003c-0.171,0-0.31,0.14-0.31,0.31c0,0.156,0.116,0.284,0.264,0.307
				c-0.033,0.188-0.074,0.37-0.122,0.552l-1.281-0.415l-2.307-0.744l-2.128-0.366l0.008,0.005l-0.008-0.003l2.022,0.75l3.689,0.79
				c-0.05,0.182-0.106,0.361-0.172,0.54c-0.015-0.006-0.031-0.012-0.048-0.015h-0.002c-0.02-0.005-0.041-0.005-0.062-0.005
				c-0.172,0-0.31,0.139-0.31,0.31c0,0.042,0.007,0.082,0.024,0.119h0.002c0.018,0.048,0.049,0.088,0.086,0.119h0.002
				c0.006,0.006,0.015,0.012,0.023,0.018l0,0c0.008,0.005,0.018,0.011,0.025,0.014c0,0,0,0,0.002,0
				c0.007,0.006,0.012,0.012,0.021,0.015c-0.083,0.173-0.168,0.338-0.264,0.503l-3.163-2.049h-0.003l-1.962-0.903l0.009,0.006
				l1.023,0.725l0.729,0.52h0.001l3.355,1.716c-0.097,0.165-0.199,0.33-0.31,0.486c-0.052-0.037-0.114-0.058-0.182-0.058
				c-0.171,0-0.31,0.137-0.31,0.311c0,0.096,0.045,0.179,0.113,0.235c-0.122,0.145-0.244,0.281-0.375,0.412l-2.528-2.796
				l-1.658-1.375l1.374,1.659l2.799,2.525c-0.131,0.131-0.268,0.256-0.41,0.372c-0.053-0.042-0.121-0.067-0.193-0.067
				c-0.173,0-0.311,0.139-0.311,0.31c0,0.045,0.01,0.091,0.027,0.131c-0.162,0.113-0.33,0.222-0.5,0.317l-1.719-3.352l-1.248-1.765
				h-0.002l0.903,1.963l2.047,3.168c-0.161,0.091-0.328,0.179-0.497,0.256c-0.049-0.108-0.158-0.182-0.281-0.182
				c-0.172,0-0.312,0.139-0.312,0.31c0,0.04,0.009,0.076,0.021,0.11c-0.178,0.065-0.359,0.122-0.546,0.174l-0.788-3.69l-0.751-2.021
				l-0.002-0.003l0.367,2.128l1.158,3.589c-0.182,0.048-0.366,0.091-0.554,0.125c-0.022-0.151-0.153-0.265-0.308-0.265
				c-0.171,0-0.311,0.14-0.311,0.31c0,0.012,0.002,0.022,0.002,0.031c-0.188,0.018-0.375,0.025-0.567,0.025l0.193-3.764l-0.2-2.151
				l-0.202,2.151l0.193,3.764c-0.196,0-0.386-0.008-0.578-0.025c0.001-0.009,0.001-0.02,0.001-0.031c0-0.17-0.14-0.31-0.31-0.31
				c-0.157,0-0.286,0.113-0.307,0.265c-0.185-0.037-0.365-0.077-0.542-0.125l1.159-3.589l0.363-2.125l-0.75,2.021l-0.79,3.69
				c-0.185-0.052-0.365-0.108-0.542-0.171c0.014-0.034,0.022-0.073,0.022-0.113c0-0.171-0.136-0.31-0.307-0.31
				c-0.128,0-0.239,0.076-0.287,0.185c-0.17-0.08-0.339-0.168-0.503-0.262l2.048-3.165l0.902-1.963l-1.25,1.762l-1.717,3.354
				c-0.165-0.094-0.325-0.198-0.483-0.307c0.037-0.051,0.061-0.113,0.061-0.185c0-0.17-0.138-0.31-0.311-0.31
				c-0.097,0-0.185,0.046-0.24,0.116c-0.144-0.122-0.283-0.247-0.413-0.378l2.8-2.525l1.379-1.662v-0.003l-1.662,1.381l-2.529,2.796
				c-0.133-0.134-0.261-0.272-0.383-0.418c0.07-0.057,0.117-0.145,0.117-0.241c0-0.171-0.137-0.31-0.309-0.31
				c-0.069,0-0.132,0.025-0.186,0.062c-0.108-0.156-0.209-0.315-0.305-0.48l3.359-1.719l1.759-1.247l-1.96,0.903l-3.165,2.049
				c-0.094-0.162-0.178-0.327-0.258-0.495c0.119-0.042,0.203-0.156,0.203-0.289c0-0.171-0.138-0.312-0.31-0.312
				c-0.048,0-0.092,0.014-0.132,0.031c-0.065-0.183-0.124-0.364-0.173-0.552l3.686-0.79l2.027-0.752l-2.129,0.366l-3.59,1.159
				c-0.048-0.182-0.089-0.367-0.124-0.555c0.152-0.02,0.266-0.15,0.266-0.307c0-0.17-0.139-0.31-0.31-0.31
				c-0.011,0-0.023,0.003-0.034,0.003c-0.014-0.188-0.024-0.378-0.025-0.568l3.767,0.19l2.146-0.198l-2.146-0.202l-3.767,0.193
				c0.001-0.19,0.011-0.381,0.025-0.565c0.017,0,0.034,0.003,0.051,0.003c0.172,0,0.312-0.14,0.312-0.31
				c0-0.165-0.125-0.296-0.286-0.311c0.034-0.188,0.075-0.372,0.124-0.551l3.59,1.159l2.129,0.361l-2.026-0.748l-3.688-0.792
				c0.05-0.182,0.106-0.364,0.17-0.54c0.034,0.015,0.074,0.022,0.114,0.022c0.173,0,0.31-0.139,0.31-0.31
				c0-0.125-0.077-0.235-0.185-0.284c0.08-0.173,0.166-0.341,0.261-0.506l3.165,2.052l1.963,0.9l-1.762-1.25l-3.359-1.716
				c0.096-0.165,0.2-0.324,0.308-0.483c0.052,0.043,0.117,0.062,0.188,0.062c0.17,0,0.31-0.136,0.31-0.307
				c0-0.1-0.048-0.19-0.121-0.244c0.121-0.146,0.247-0.281,0.379-0.415l2.528,2.799l1.665,1.378l-1.379-1.662l-2.8-2.528
				c0.136-0.134,0.274-0.262,0.419-0.381c0.057,0.068,0.144,0.116,0.241,0.116c0.172,0,0.309-0.14,0.309-0.31
				c0-0.071-0.02-0.134-0.059-0.185c0.155-0.108,0.314-0.21,0.476-0.307l1.717,3.357l1.25,1.759l-0.899-1.96l-2.051-3.165
				c0.162-0.094,0.327-0.179,0.494-0.259c0.046,0.116,0.158,0.196,0.289,0.196c0.172,0,0.311-0.137,0.311-0.307
				c0-0.046-0.008-0.091-0.025-0.128c0.179-0.065,0.364-0.122,0.55-0.171l0.791,3.686l0.749,2.025l-0.362-2.128l-1.159-3.589
				c0.182-0.048,0.363-0.091,0.551-0.125c0.023,0.151,0.151,0.268,0.309,0.268c0.17,0,0.31-0.143,0.31-0.312
				c0-0.012,0-0.022-0.001-0.034C400.471,294.239,400.659,294.231,400.849,294.231"/>
			<path clip-path="url(#SVGID_4_)" fill="#FFFFFF" d="M400.863,299.882c0.619,0,1.122,0.5,1.122,1.122
				c0,0.62-0.503,1.123-1.122,1.123c-0.622,0-1.125-0.503-1.125-1.123C399.738,300.382,400.241,299.882,400.863,299.882"/>
			<path clip-path="url(#SVGID_4_)" fill="#2A2874" d="M400.86,300.135c0.479,0,0.869,0.393,0.869,0.872
				c0,0.48-0.39,0.87-0.869,0.87c-0.48,0-0.872-0.39-0.872-0.87C399.988,300.527,400.38,300.135,400.86,300.135"/>
		</g>
	</g>
</g>
</svg>
