<?xml version="1.0" encoding="utf-8"?>
<!-- Generator: Adobe Illustrator 16.0.0, SVG Export Plug-In . SVG Version: 6.00 Build 0)  -->
<!DOCTYPE svg PUBLIC "-//W3C//DTD SVG 1.1//EN" "http://www.w3.org/Graphics/SVG/1.1/DTD/svg11.dtd">
<svg version="1.1" id="name" xmlns="http://www.w3.org/2000/svg" xmlns:xlink="http://www.w3.org/1999/xlink" x="0px" y="0px"
	 width="85.715px" height="50px" viewBox="358 276 85.715 50" enable-background="new 358 276 85.715 50" xml:space="preserve">
<g id="io">
	<g>
		<defs>
			<rect id="SVGID_1_" x="358" y="276" width="85.715" height="50"/>
		</defs>
		<clipPath id="SVGID_2_">
			<use xlink:href="#SVGID_1_"  overflow="visible"/>
		</clipPath>
		<rect x="358" y="276" clip-path="url(#SVGID_2_)" fill="#FFFFFF" width="85.715" height="42.855"/>
		<g clip-path="url(#SVGID_2_)">
			<defs>
				<rect id="SVGID_3_" x="358" y="276" width="85.715" height="50"/>
			</defs>
			<clipPath id="SVGID_4_">
				<use xlink:href="#SVGID_3_"  overflow="visible"/>
			</clipPath>
			<path clip-path="url(#SVGID_4_)" fill-rule="evenodd" clip-rule="evenodd" fill="#2B3379" d="M443.715,313.269
				c-0.959,0.575-1.785,1.928-4.336,1.928c-5.104,0-6.375-2.843-10.203-2.843c-2.551,0-3.826,2.843-6.379,2.843
				c-5.102,0-6.377-2.843-10.204-2.843c-2.552,0-3.827,2.843-6.379,2.843c-5.1,0-6.375-2.843-10.202-2.843
				c-2.549,0-3.827,2.843-6.378,2.843c-5.104,0-6.376-2.843-10.206-2.843c-2.549,0-3.824,2.843-6.375,2.843
				c-5.104,0-6.379-2.843-10.206-2.843c-2.551,0-3.315,2.026-4.847,2.026v3.659c1.531,0,2.296-2.025,4.847-2.025
				c3.827,0,5.103,2.842,10.206,2.842c2.551,0,3.826-2.842,6.375-2.842c3.83,0,5.103,2.842,10.206,2.842
				c2.551,0,3.829-2.842,6.378-2.842c3.827,0,5.103,2.842,10.202,2.842c2.552,0,3.827-2.842,6.379-2.842
				c3.827,0,5.103,2.842,10.204,2.842c2.553,0,3.828-2.842,6.379-2.842c3.828,0,5.1,2.842,10.203,2.842
				c2.551,0,3.377-0.805,4.336-1.382V313.269z"/>
			<path clip-path="url(#SVGID_4_)" fill-rule="evenodd" clip-rule="evenodd" fill="#2B3379" d="M443.715,320.069
				c-0.959,0.579-1.785,1.931-4.336,1.931c-5.104,0-6.375-2.845-10.203-2.845c-2.551,0-3.826,2.845-6.379,2.845
				c-5.102,0-6.377-2.845-10.204-2.845c-2.552,0-3.827,2.845-6.379,2.845c-5.1,0-6.375-2.845-10.202-2.845
				c-2.549,0-3.827,2.845-6.378,2.845c-5.104,0-6.376-2.845-10.206-2.845c-2.549,0-3.824,2.845-6.375,2.845
				c-5.104,0-6.379-2.845-10.206-2.845c-2.551,0-3.315,2.027-4.847,2.027v3.658c1.531,0,2.296-2.024,4.847-2.024
				c3.827,0,5.103,2.843,10.206,2.843c2.551,0,3.826-2.843,6.375-2.843c3.83,0,5.103,2.843,10.206,2.843
				c2.551,0,3.829-2.843,6.378-2.843c3.827,0,5.103,2.843,10.202,2.843c2.552,0,3.827-2.843,6.379-2.843
				c3.827,0,5.103,2.843,10.204,2.843c2.553,0,3.828-2.843,6.379-2.843c3.828,0,5.1,2.843,10.203,2.843
				c2.551,0,3.377-0.806,4.336-1.384V320.069z"/>
			<path clip-path="url(#SVGID_4_)" fill-rule="evenodd" clip-rule="evenodd" fill="#2B3379" d="M443.715,306.159
				c-0.959,0.579-1.785,1.929-4.336,1.929c-5.104,0-6.375-2.843-10.203-2.843c-2.551,0-3.826,2.843-6.379,2.843
				c-5.102,0-6.377-2.843-10.204-2.843c-2.552,0-3.827,2.843-6.379,2.843c-5.1,0-6.375-2.843-10.202-2.843
				c-2.549,0-3.827,2.843-6.378,2.843c-5.104,0-6.376-2.843-10.206-2.843c-2.549,0-3.824,2.843-6.375,2.843
				c-5.104,0-6.379-2.843-10.206-2.843c-2.551,0-3.315,2.026-4.847,2.026v3.659c1.531,0,2.296-2.024,4.847-2.024
				c3.827,0,5.103,2.843,10.206,2.843c2.551,0,3.826-2.843,6.375-2.843c3.83,0,5.103,2.843,10.206,2.843
				c2.551,0,3.829-2.843,6.378-2.843c3.827,0,5.103,2.843,10.202,2.843c2.552,0,3.827-2.843,6.379-2.843
				c3.827,0,5.103,2.843,10.204,2.843c2.553,0,3.828-2.843,6.379-2.843c3.828,0,5.1,2.843,10.203,2.843
				c2.551,0,3.377-0.808,4.336-1.384V306.159z"/>
			<path clip-path="url(#SVGID_4_)" fill-rule="evenodd" clip-rule="evenodd" fill="#2B3379" d="M443.715,299.052
				c-0.959,0.578-1.785,1.931-4.336,1.931c-5.104,0-6.375-2.846-10.203-2.846c-2.551,0-3.826,2.846-6.379,2.846
				c-5.102,0-6.377-2.846-10.204-2.846c-2.552,0-3.827,2.846-6.379,2.846c-5.1,0-6.375-2.846-10.202-2.846
				c-2.549,0-3.827,2.846-6.378,2.846c-5.104,0-6.376-2.846-10.206-2.846c-2.549,0-3.824,2.846-6.375,2.846
				c-5.104,0-6.379-2.846-10.206-2.846c-2.551,0-3.315,2.025-4.847,2.025v3.661c1.531,0,2.296-2.025,4.847-2.025
				c3.827,0,5.103,2.845,10.206,2.845c2.551,0,3.826-2.845,6.375-2.845c3.83,0,5.103,2.845,10.206,2.845
				c2.551,0,3.829-2.845,6.378-2.845c3.827,0,5.103,2.845,10.202,2.845c2.552,0,3.827-2.845,6.379-2.845
				c3.827,0,5.103,2.845,10.204,2.845c2.553,0,3.828-2.845,6.379-2.845c3.828,0,5.1,2.845,10.203,2.845
				c2.551,0,3.377-0.807,4.336-1.386V299.052z"/>
			<path clip-path="url(#SVGID_4_)" fill-rule="evenodd" clip-rule="evenodd" fill="#2B3379" d="M443.715,291.946
				c-0.959,0.575-1.785,1.926-4.336,1.926c-5.104,0-6.375-2.843-10.203-2.843c-2.551,0-3.826,2.843-6.379,2.843
				c-5.102,0-6.377-2.843-10.204-2.843c-2.552,0-3.827,2.843-6.379,2.843c-5.1,0-6.375-2.843-10.202-2.843
				c-2.549,0-3.827,2.843-6.378,2.843c-5.104,0-6.376-2.843-10.206-2.843c-2.549,0-3.824,2.843-6.375,2.843
				c-5.104,0-6.379-2.843-10.206-2.843c-2.551,0-3.315,2.027-4.847,2.027v3.661c1.531,0,2.296-2.027,4.847-2.027h16.581h16.584
				c3.827,0,5.103,2.843,10.202,2.843c2.552,0,3.827-2.843,6.379-2.843c3.827,0,5.103,2.843,10.204,2.843
				c2.553,0,3.828-2.843,6.379-2.843c3.828,0,5.1,2.843,10.203,2.843c2.551,0,3.377-0.806,4.336-1.384V291.946z"/>
			<path clip-path="url(#SVGID_4_)" fill-rule="evenodd" clip-rule="evenodd" fill="#2B3379" d="M443.715,284.838
				c-0.959,0.576-1.785,1.928-4.336,1.928c-5.104,0-6.375-2.842-10.203-2.842c-2.551,0-3.826,2.842-6.379,2.842
				c-5.102,0-6.377-2.842-10.204-2.842c-2.552,0-3.827,2.842-6.379,2.842c-5.1,0-6.375-2.842-10.202-2.842
				c-2.549,0-3.827,2.842-6.378,2.842c-5.104,0-6.376-2.842-10.206-2.842c-2.549,0-3.824,2.842-6.375,2.842
				c-5.104,0-6.379-2.842-10.206-2.842c-2.551,0-3.315,2.024-4.847,2.024v3.661c1.531,0,2.296-2.027,4.847-2.027
				c3.827,0,5.103,2.844,10.206,2.844c2.551,0,3.826-2.844,6.375-2.844c3.83,0,5.103,2.844,10.206,2.844
				c2.551,0,3.829-2.844,6.378-2.844c3.827,0,5.103,2.844,10.202,2.844c2.552,0,3.827-2.844,6.379-2.844
				c3.827,0,5.103,2.844,10.204,2.844c2.553,0,3.828-2.844,6.379-2.844c3.828,0,5.1,2.844,10.203,2.844
				c2.551,0,3.377-0.807,4.336-1.382V284.838z"/>
			<path clip-path="url(#SVGID_4_)" fill-rule="evenodd" clip-rule="evenodd" fill="#2B3379" d="M443.715,277.73
				c-0.959,0.578-1.785,1.926-4.336,1.926c-5.104,0-6.375-2.841-10.203-2.841c-2.551,0-3.826,2.841-6.379,2.841
				c-5.102,0-6.377-2.841-10.204-2.841c-2.552,0-3.827,2.841-6.379,2.841c-5.1,0-6.375-2.841-10.202-2.841
				c-2.549,0-3.827,2.841-6.378,2.841c-5.104,0-6.376-2.841-10.206-2.841c-2.549,0-3.824,2.841-6.375,2.841
				c-5.104,0-6.379-2.841-10.206-2.841c-2.551,0-3.315,2.025-4.847,2.025v3.66c1.531,0,2.296-2.027,4.847-2.027
				c3.827,0,5.103,2.844,10.206,2.844c2.551,0,3.826-2.844,6.375-2.844c3.83,0,5.103,2.844,10.206,2.844
				c2.551,0,3.829-2.844,6.378-2.844c3.827,0,5.103,2.844,10.202,2.844c2.552,0,3.827-2.844,6.379-2.844
				c3.827,0,5.103,2.844,10.204,2.844c2.553,0,3.828-2.844,6.379-2.844c3.828,0,5.1,2.844,10.203,2.844
				c2.551,0,3.377-0.804,4.336-1.382V277.73z"/>
			
				<rect x="358" y="276" clip-path="url(#SVGID_4_)" fill-rule="evenodd" clip-rule="evenodd" fill="#FFFFFF" width="42.816" height="21.43"/>
			<polygon clip-path="url(#SVGID_4_)" fill-rule="evenodd" clip-rule="evenodd" fill="#2B3379" points="358.045,294.962 
				358,278.463 374.644,286.682 			"/>
			<polygon clip-path="url(#SVGID_4_)" fill-rule="evenodd" clip-rule="evenodd" fill="#2B3379" points="400.816,294.962 
				400.858,278.463 384.215,286.682 			"/>
			<polygon clip-path="url(#SVGID_4_)" fill-rule="evenodd" clip-rule="evenodd" fill="#2B3379" points="396.074,297.405 
				362.787,297.428 379.365,289.069 			"/>
			<polygon clip-path="url(#SVGID_4_)" fill-rule="evenodd" clip-rule="evenodd" fill="#2B3379" points="396.074,276.021 
				362.787,276 379.365,284.355 			"/>
			<polygon clip-path="url(#SVGID_4_)" fill-rule="evenodd" clip-rule="evenodd" fill="#BD1F34" points="383.377,283.143 
				386.573,283.143 400.858,276 397.665,276 			"/>
			<polygon clip-path="url(#SVGID_4_)" fill-rule="evenodd" clip-rule="evenodd" fill="#BD1F34" points="358,276 358,277.596 
				369.092,283.143 372.288,283.143 			"/>
			<polygon clip-path="url(#SVGID_4_)" fill-rule="evenodd" clip-rule="evenodd" fill="#BD1F34" points="400.824,295.812 
				389.767,290.285 386.573,290.285 400.811,297.404 			"/>
			<polygon clip-path="url(#SVGID_4_)" fill-rule="evenodd" clip-rule="evenodd" fill="#BD1F34" points="358,297.428 
				361.196,297.428 375.481,290.285 372.288,290.285 			"/>
			
				<rect x="358" y="283.143" clip-path="url(#SVGID_4_)" fill-rule="evenodd" clip-rule="evenodd" fill="#FFFFFF" width="42.858" height="7.143"/>
			
				<rect x="375.859" y="276" clip-path="url(#SVGID_4_)" fill-rule="evenodd" clip-rule="evenodd" fill="#FFFFFF" width="7.143" height="21.428"/>
			
				<rect x="358" y="284.572" clip-path="url(#SVGID_4_)" fill-rule="evenodd" clip-rule="evenodd" fill="#BD1F32" width="42.858" height="4.284"/>
			
				<rect x="377.286" y="276" clip-path="url(#SVGID_4_)" fill-rule="evenodd" clip-rule="evenodd" fill="#BD1F32" width="4.287" height="21.428"/>
			<path clip-path="url(#SVGID_4_)" fill-rule="evenodd" clip-rule="evenodd" fill="#964421" d="M421.775,287.359l-0.307,29.082
				c0,1.531,1.385,1.531,1.531,0l-0.307-29.082H421.775z"/>
			<g clip-path="url(#SVGID_4_)">
				<path fill="#FFFFFF" d="M422.178,317.732c-0.412,0-0.852-0.405-0.852-1.291l0.307-29.225h1.201v0.141l0.307,29.082
					C423.057,317.336,422.596,317.732,422.178,317.732L422.178,317.732z M421.914,287.501l-0.305,28.941
					c-0.002,1.394,1.115,1.374,1.248-0.016l-0.305-28.926H421.914L421.914,287.501z"/>
			</g>
			<polygon clip-path="url(#SVGID_4_)" fill-rule="evenodd" clip-rule="evenodd" fill="#2F7037" points="424.939,298.167 
				423.977,297.109 423.74,298.178 423.32,296.631 422.928,297.409 422.859,295.766 422.469,296.543 422.4,294.898 422.008,295.675 
				421.787,293.741 421.395,294.521 421.172,292.584 420.781,293.362 420.557,291.426 420.447,290.459 420.641,290.069 
				421.145,290.259 421.953,291.025 423.574,292.562 422.568,292.184 424.188,293.719 423.182,293.341 424.801,294.875 
				423.795,294.497 425.262,295.743 424.258,295.365 425.725,296.611 424.715,296.231 425.834,297.577 424.676,296.911 			"/>
			<g clip-path="url(#SVGID_4_)">
				<path fill="#FFFFFF" d="M423.746,298.498l-0.449-1.654l-0.432,0.864l-0.068-1.646l-0.391,0.777l-0.072-1.646l-0.371,0.743
					l-0.225-1.934l-0.389,0.78l-0.225-1.937l-0.391,0.778l-0.363-3.158l0.201-0.432l0.6,0.152l2.729,2.578l-1.006-0.378l1.619,1.536
					l-1.006-0.38l1.619,1.536l-0.949-0.356l1.467,1.245l-1.004-0.379l1.467,1.246l-1.148-0.431l1.205,1.449l-1.377-0.793
					l0.287,1.363l-1.055-1.154L423.746,298.498L423.746,298.498z M423.934,296.949l0.875,0.959l-0.244-1.149l0.941,0.54
					l-1.031-1.239l0.865,0.325l-1.465-1.245l1.006,0.378l-1.469-1.245l1.062,0.399l-1.617-1.535l1.002,0.378l-1.615-1.536
					l1.002,0.378l-2.152-2.041l-0.48-0.174l-0.098,0.352l0.312,2.606l0.391-0.778l0.221,1.936l0.393-0.779l0.225,1.937l0.408-0.812
					l0.068,1.644l0.389-0.777l0.072,1.643l0.346-0.693l0.393,1.441L423.934,296.949L423.934,296.949z"/>
			</g>
			<g clip-path="url(#SVGID_4_)">
				<polygon fill="#010101" points="423.75,298.18 423.855,296.144 423.553,295.578 422.943,297.414 423.547,295.565 
					423.09,294.709 422.479,296.546 423.084,294.696 422.477,293.554 422.02,295.677 422.475,293.543 421.863,292.396 
					421.406,294.521 421.857,292.385 421.25,291.24 420.791,293.363 421.244,291.229 420.629,290.075 421.246,291.225 
					423.578,292.551 423.568,292.571 421.252,291.238 421.865,292.385 424.193,293.709 424.182,293.729 421.875,292.399 
					422.484,293.543 424.807,294.865 424.795,294.887 422.49,293.557 423.102,294.7 425.268,295.733 425.258,295.753 
					423.109,294.716 423.568,295.568 425.727,296.602 425.719,296.621 423.574,295.584 423.883,296.162 425.84,297.567 
					425.83,297.586 423.889,296.174 424.951,298.161 424.932,298.171 423.857,296.152 423.75,298.18 				"/>
			</g>
			<polygon clip-path="url(#SVGID_4_)" fill-rule="evenodd" clip-rule="evenodd" fill="#2F7037" points="413.658,284.366 
				415.232,284.965 414.773,283.776 416.148,285.132 416.02,284.158 417.133,285.78 416.998,284.811 418.113,286.433 
				417.984,285.461 419.422,287.301 419.291,286.33 420.732,288.167 420.602,287.198 422.041,289.037 422.76,289.957 
				422.826,290.441 422.234,290.494 420.99,290.112 418.502,289.348 419.682,289.242 417.191,288.479 418.373,288.375 
				415.883,287.61 417.061,287.508 414.898,286.96 416.082,286.856 413.92,286.308 415.098,286.205 413.197,285.389 
				414.705,285.504 			"/>
			<g clip-path="url(#SVGID_4_)">
				<path fill="#FFFFFF" d="M422.227,290.587l-4.199-1.289l1.18-0.104l-2.49-0.764l1.184-0.104l-2.496-0.766l1.111-0.097
					l-2.158-0.547l1.178-0.104l-2.164-0.549l1.355-0.118l-2.068-0.891l1.824,0.14l-1.154-1.253l1.744,0.666l-0.533-1.393
					l1.482,1.464l-0.145-1.089l1.111,1.621l-0.131-0.97l1.113,1.625l-0.123-0.927l1.438,1.839l-0.127-0.969l1.438,1.836l-0.131-0.97
					l2.369,3.024l0.098,0.625L422.227,290.587L422.227,290.587z M418.977,289.396l3.27,1.005l0.479-0.042l-0.055-0.391l-1.932-2.449
					l0.131,0.969l-1.441-1.837l0.129,0.971l-1.438-1.84l0.135,1.019l-1.109-1.621l0.131,0.971l-1.115-1.623l0.117,0.855
					l-1.268-1.244l0.381,0.985l-1.4-0.534l0.939,1.021l-1.189-0.089l1.727,0.742l-1.002,0.089l2.158,0.545l-1.178,0.105l2.164,0.548
					l-1.252,0.109l2.49,0.764l-1.182,0.104l2.49,0.763L418.977,289.396L418.977,289.396z"/>
			</g>
			<g clip-path="url(#SVGID_4_)">
				<polygon fill="#010101" points="422.834,290.432 421.527,289.569 418.502,289.362 418.502,289.334 421.514,289.561 
					420.207,288.698 417.191,288.494 417.195,288.466 420.191,288.69 418.891,287.832 415.879,287.625 415.883,287.596 
					418.877,287.823 417.578,286.967 414.898,286.974 414.898,286.945 417.564,286.957 416.59,286.314 413.92,286.322 
					413.92,286.295 416.572,286.305 415.916,285.87 413.197,285.402 413.201,285.374 415.904,285.863 413.652,284.377 
					413.666,284.354 415.951,285.869 414.764,283.783 415.959,285.874 416.604,286.302 416.004,284.163 416.617,286.311 
					417.588,286.953 416.988,284.814 417.598,286.961 418.896,287.82 417.971,285.465 418.908,287.829 420.207,288.688 
					419.277,286.335 420.219,288.697 421.514,289.557 420.59,287.203 421.527,289.565 422.834,290.432 				"/>
			</g>
			<polygon clip-path="url(#SVGID_4_)" fill-rule="evenodd" clip-rule="evenodd" fill="#2F7037" points="431.932,286.395 
				430.625,287.354 432.068,287.517 430.051,287.991 431.127,288.312 428.943,288.47 430.02,288.789 427.836,288.948 
				428.912,289.27 426.357,289.589 427.432,289.909 424.881,290.225 425.955,290.547 423.4,290.865 422.125,291.021 
				421.588,290.863 421.789,290.384 422.727,289.585 424.607,287.986 424.207,288.947 426.088,287.351 425.682,288.31 
				427.562,286.711 427.162,287.67 428.674,286.233 428.27,287.191 429.781,285.752 429.377,286.713 431.061,285.596 
				430.287,286.713 			"/>
			<g clip-path="url(#SVGID_4_)">
				<path fill="#FFFFFF" d="M422.115,291.118l-0.656-0.195l0.242-0.575l3.145-2.687l-0.402,0.961l1.881-1.597l-0.4,0.957
					l1.877-1.597l-0.381,0.909l1.514-1.438l-0.402,0.957l1.508-1.438l-0.453,1.086l1.828-1.217l-0.92,1.33l1.83-0.353l-1.451,1.062
					l1.744,0.198l-2.203,0.518l1.23,0.367l-2.182,0.157l1.074,0.32l-2.182,0.159l1.008,0.301l-2.551,0.319l1.076,0.321l-2.555,0.315
					l1.074,0.322L422.115,291.118L422.115,291.118z M421.713,290.803l0.42,0.123l3.367-0.417l-1.074-0.321l2.551-0.317l-1.074-0.319
					l2.555-0.319l-1.139-0.34l2.184-0.157l-1.076-0.321l2.186-0.156l-0.922-0.277l1.83-0.432l-1.145-0.128l1.164-0.854l-1.463,0.282
					l0.629-0.903l-1.531,1.018l0.35-0.834l-1.516,1.44l0.404-0.959l-1.51,1.437l0.424-1.011l-1.881,1.599l0.404-0.959l-1.881,1.597
					l0.402-0.96l-2.521,2.144L421.713,290.803L421.713,290.803z"/>
			</g>
			<g clip-path="url(#SVGID_4_)">
				<polygon fill="#010101" points="421.594,290.876 423.064,290.235 424.596,287.979 424.619,287.995 423.078,290.229 
					424.547,289.589 426.074,287.344 426.1,287.359 424.562,289.585 426.027,288.945 427.551,286.703 427.576,286.719 
					426.043,288.94 427.508,288.302 428.662,286.227 428.684,286.241 427.523,288.297 428.619,287.819 429.77,285.746 
					429.793,285.76 428.637,287.812 429.381,287.488 431.049,285.588 431.07,285.604 429.393,287.484 431.926,286.382 
					431.938,286.408 429.361,287.521 432.068,287.502 429.35,287.525 428.621,287.839 431.131,288.3 428.607,287.846 
					427.514,288.317 430.023,288.775 427.496,288.325 426.039,288.956 428.912,289.256 426.025,288.961 424.557,289.595 
					427.434,289.895 424.545,289.601 423.078,290.232 425.957,290.532 423.064,290.238 421.594,290.876 				"/>
			</g>
			<polygon clip-path="url(#SVGID_4_)" fill-rule="evenodd" clip-rule="evenodd" fill="#2F7037" points="431.723,296.071 
				430.088,295.599 430.674,296.746 429.158,295.506 429.393,296.464 428.113,294.935 428.344,295.894 427.062,294.365 
				427.299,295.322 425.664,293.604 425.9,294.562 424.27,292.841 424.502,293.801 422.871,292.082 422.057,291.223 
				421.939,290.744 422.52,290.645 423.803,290.929 426.363,291.493 425.199,291.69 427.762,292.253 426.596,292.449 
				429.158,293.015 427.994,293.212 430.205,293.585 429.043,293.781 431.252,294.158 430.088,294.353 432.068,295.015 
				430.555,295.021 			"/>
			<g clip-path="url(#SVGID_4_)">
				<path fill="#FFFFFF" d="M430.957,297.097l-1.643-1.344l0.26,1.074l-1.279-1.53l0.232,0.959l-1.281-1.527l0.225,0.911
					l-1.633-1.719l0.236,0.959l-1.635-1.722l0.232,0.958l-2.684-2.829l-0.162-0.617l0.68-0.116l4.34,0.952l-1.162,0.195l2.562,0.564
					l-1.164,0.194l2.561,0.565l-1.094,0.187l2.213,0.373l-1.166,0.196l2.215,0.377l-1.34,0.224l2.16,0.724l-1.836,0.007l1.287,1.161
					l-1.812-0.526L430.957,297.097L430.957,297.097z M429.006,295.259l1.387,1.135l-0.484-0.944l1.449,0.42l-1.043-0.939
					l1.191-0.006l-1.799-0.602l0.988-0.166l-2.209-0.376l1.162-0.195l-2.209-0.373l1.234-0.209l-2.562-0.566l1.162-0.195
					l-2.561-0.563l1.164-0.197l-3.377-0.745l-0.447,0.083l0.094,0.383l2.182,2.285l-0.232-0.961l1.631,1.719l-0.232-0.957
					l1.631,1.719L426.877,294l1.285,1.531l-0.232-0.96l1.281,1.53L429.006,295.259L429.006,295.259z"/>
			</g>
			<g clip-path="url(#SVGID_4_)">
				<polygon fill="#010101" points="430.686,296.737 429.264,294.75 428.582,294.378 429.406,296.459 428.568,294.369 
					427.531,293.806 428.357,295.89 427.518,293.799 426.133,293.046 427.309,295.317 426.121,293.038 424.734,292.284 
					425.912,294.556 424.725,292.277 423.338,291.522 424.514,293.796 423.326,291.516 421.932,290.756 423.328,291.513 
					426.363,291.479 426.363,291.507 423.344,291.521 424.734,292.274 427.762,292.238 427.762,292.267 424.75,292.281 
					426.137,293.033 429.158,293 429.158,293.028 426.15,293.04 427.539,293.793 430.205,293.571 430.207,293.6 427.557,293.801 
					428.588,294.359 431.252,294.144 431.256,294.172 428.605,294.369 429.312,294.752 432.07,295 432.068,295.028 429.324,294.759 
					431.727,296.06 431.713,296.083 429.275,294.756 430.686,296.737 				"/>
			</g>
			<polygon clip-path="url(#SVGID_4_)" fill-rule="evenodd" clip-rule="evenodd" fill="#2F7037" points="414.738,296.637 
				415.555,295.493 414.309,295.674 415.848,294.797 414.865,294.753 416.635,294.125 415.652,294.081 417.422,293.453 
				416.436,293.406 418.471,292.556 417.484,292.512 419.52,291.656 418.535,291.613 420.57,290.763 421.584,290.335 
				422.078,290.357 422.045,290.826 421.49,291.747 420.379,293.585 420.441,292.644 419.332,294.481 419.395,293.54 
				418.279,295.38 418.346,294.438 417.496,296.052 417.559,295.111 416.709,296.725 416.771,295.783 415.691,297.152 
				416.02,295.986 			"/>
			<g clip-path="url(#SVGID_4_)">
				<path fill="#FFFFFF" d="M415.508,297.518l0.383-1.377l-1.408,0.717l0.9-1.258l-1.484,0.213l1.668-0.947l-1.115-0.051l1.77-0.628
					l-0.982-0.044l1.771-0.628l-0.934-0.044l2.033-0.852l-0.982-0.044l2.031-0.855l-0.986-0.042l3.381-1.417l0.611,0.021
					l-0.037,0.551l-1.85,3.077l0.062-0.941l-1.113,1.839l0.064-0.941l-1.113,1.84l0.062-0.894l-0.85,1.612l0.062-0.94l-0.85,1.615
					l0.072-1.062L415.508,297.518L415.508,297.518z M416.146,295.833l-0.27,0.954l0.994-1.257l-0.057,0.822l0.85-1.613l-0.062,0.94
					l0.852-1.617l-0.07,0.992l1.113-1.84l-0.062,0.941l1.107-1.835l-0.059,0.94l1.494-2.477l0.018-0.351l-0.412-0.019l-2.682,1.134
					l0.982,0.041l-2.037,0.855l0.988,0.045l-2.037,0.853l1.041,0.049l-1.771,0.627l0.984,0.045l-1.771,0.628l0.854,0.038
					l-1.416,0.803l1.016-0.146l-0.736,1.029L416.146,295.833L416.146,295.833z"/>
			</g>
			<g clip-path="url(#SVGID_4_)">
				<polygon fill="#010101" points="415.703,297.155 415.68,297.146 416.545,295.099 414.746,296.644 414.732,296.625 
					416.561,295.06 414.311,295.685 416.57,295.053 416.57,295.055 417.082,294.616 414.865,294.765 417.09,294.606 
					417.869,293.941 415.652,294.093 417.879,293.932 418.916,293.046 416.439,293.419 418.928,293.037 419.965,292.147 
					417.488,292.522 419.977,292.139 421.014,291.253 418.535,291.625 421.025,291.244 422.07,290.35 421.027,291.246 
					420.391,293.588 420.369,293.582 421.016,291.253 419.977,292.147 419.344,294.484 419.316,294.479 419.969,292.156 
					418.928,293.051 418.291,295.383 418.27,295.375 418.916,293.059 417.879,293.952 417.508,296.053 417.484,296.049 
					417.869,293.962 417.096,294.627 416.721,296.728 416.697,296.724 417.082,294.637 416.553,295.091 415.703,297.155 				"/>
			</g>
			<polygon clip-path="url(#SVGID_4_)" fill-rule="evenodd" clip-rule="evenodd" fill="#2F7037" points="429.57,281.562 
				427.992,282.621 427.732,281.484 426.799,283.056 426.631,282.299 425.869,283.911 425.762,283.168 425.17,284.819 
				424.832,284.023 424.238,286.03 423.9,285.235 423.307,287.244 422.969,286.45 422.375,288.454 422.078,289.459 422.25,289.856 
				422.883,289.651 423.982,288.836 426.184,287.205 424.914,287.622 427.115,285.996 425.846,286.411 428.049,284.783 
				426.777,285.199 428.977,283.927 427.477,284.289 429.846,283.061 428.406,283.437 430.145,282.056 428.639,282.774 			"/>
			<g clip-path="url(#SVGID_4_)">
				<path fill="#FFFFFF" d="M422.197,289.966l-0.201-0.474l0.957-3.306l0.34,0.795l0.594-2.009l0.338,0.794l0.594-2.006l0.344,0.815
					l0.637-1.773l0.115,0.805l0.748-1.581l0.172,0.791l0.936-1.569l0.281,1.227l1.924-1.288l-1.037,1.347l1.877-0.896l-2.021,1.606
					l1.801-0.47l-2.426,1.257l1.387-0.334l-1.992,1.152l0.98-0.322l-2.203,1.629l1.273-0.414l-2.199,1.623l1.264-0.414l-3.74,2.772
					L422.197,289.966L422.197,289.966z M422.982,286.713l-0.818,2.77l0.131,0.266l0.559-0.182l2.834-2.104l-1.27,0.417l2.203-1.628
					l-1.27,0.414l2.199-1.627l-1.557,0.512l2.406-1.393l-1.613,0.39l2.312-1.2l-1.076,0.282l1.451-1.156l-1.131,0.541l0.826-1.075
					l-1.238,0.828l-0.236-1.047l-0.938,1.574l-0.158-0.722l-0.775,1.644l-0.1-0.682l-0.549,1.526l-0.33-0.775l-0.594,2.009
					l-0.334-0.797l-0.598,2.009L422.982,286.713L422.982,286.713z"/>
			</g>
			<g clip-path="url(#SVGID_4_)">
				<polygon fill="#010101" points="422.26,289.865 423.184,288.653 422.953,286.808 423.193,288.644 424.113,287.433 
					423.887,285.596 424.121,287.423 425.045,286.211 424.838,284.387 425.053,286.2 425.975,284.995 425.688,283.515 
					425.982,284.982 426.674,284.082 426.559,282.645 426.684,284.073 427.219,283.611 427.643,281.823 427.225,283.607 
					428.949,282.123 428.969,282.143 427.215,283.651 429.545,282.434 429.557,282.458 427.207,283.66 427.209,283.655 
					426.699,284.096 429.207,283.255 429.215,283.28 426.678,284.113 425.994,285.005 428.336,284.121 428.344,284.147 
					425.98,285.022 425.064,286.216 427.576,285.018 427.59,285.042 425.051,286.231 424.133,287.429 426.668,286.235 
					426.678,286.26 424.119,287.442 423.199,288.642 425.695,287.438 425.707,287.461 423.188,288.659 422.26,289.865 				"/>
			</g>
			<polygon clip-path="url(#SVGID_4_)" fill-rule="evenodd" clip-rule="evenodd" fill="#2F7037" points="421,279.578 
				421.707,281.19 422.619,280.339 422.463,282.096 423.064,281.526 422.734,283.243 423.275,282.658 422.777,284.33 
				423.551,283.805 422.838,285.783 423.609,285.255 422.896,287.234 423.67,286.707 422.957,288.686 422.6,289.673 
				422.215,289.938 421.797,289.476 421.352,288.286 420.463,285.911 421.295,286.838 420.406,284.461 421.234,285.385 
				420.348,283.009 421.178,283.934 420.072,281.862 421.133,282.845 419.857,280.732 420.859,281.699 420.215,279.742 
				421.059,281.031 			"/>
			<g clip-path="url(#SVGID_4_)">
				<path fill="#FFFFFF" d="M422.201,290.051l-0.467-0.519l-1.508-4.01l0.83,0.925l-0.887-2.376l0.83,0.925l-0.887-2.376l0.662,0.74
					l-1.016-1.901l0.992,0.917l-1.301-2.155l1.221,1.181l-0.738-2.243l1.029,1.571l-0.066-1.596l0.842,1.913l0.982-0.92
					l-0.152,1.754l0.627-0.598l-0.32,1.685l0.584-0.635l-0.531,1.794l0.791-0.538l-0.713,1.978l0.771-0.527l-0.713,1.978
					l0.773-0.527l-1.16,3.214L422.201,290.051L422.201,290.051z M420.701,286.302l1.176,3.146l0.35,0.381l0.324-0.225l0.951-2.68
					l-0.773,0.527l0.711-1.978l-0.77,0.527l0.713-1.98l-0.752,0.513l0.459-1.551l-0.494,0.535l0.336-1.749l-0.572,0.543l0.156-1.76
					l-0.838,0.781l-0.574-1.31l0.053,1.311l-0.66-1.008l0.551,1.673l-0.781-0.756l1.25,2.07l-1.133-1.047l1.195,2.241l-0.996-1.108
					l0.889,2.374l-0.83-0.925l0.891,2.38L420.701,286.302L420.701,286.302z"/>
			</g>
			<g clip-path="url(#SVGID_4_)">
				<polygon fill="#010101" points="422.227,289.938 422.164,288.492 420.719,286.346 420.74,286.332 422.162,288.475 
					422.1,287.032 420.619,284.883 420.641,284.869 422.1,287.014 422.033,285.573 420.582,283.436 420.604,283.421 
					422.033,285.555 421.971,284.12 420.479,282.333 420.5,282.317 421.969,284.102 421.914,283.02 420.266,281.203 
					420.283,281.186 421.908,282.996 421.732,282.365 420.473,280.35 420.496,280.336 421.727,282.346 421.17,280.344 
					421.193,280.339 421.77,282.408 422.465,280.659 421.771,282.417 421.945,283.033 422.895,281.839 421.947,283.049 
					421.99,284.121 423.113,282.971 421.99,284.137 422.051,285.574 423.307,284.099 422.051,285.588 422.107,287.025 
					423.387,285.552 422.109,287.039 422.166,288.479 423.443,287.005 422.166,288.492 422.227,289.938 				"/>
			</g>
			<polygon clip-path="url(#SVGID_4_)" fill-rule="evenodd" clip-rule="evenodd" fill="#2F7037" points="411.524,291.444 
				413.59,290.014 412.556,289.479 414.365,289.789 413.742,288.969 415.502,289.625 414.879,288.808 416.639,289.464 
				416.016,288.644 418.135,289.362 417.514,288.544 419.584,289.61 418.963,288.789 421.082,289.511 422.119,290.044 
				422.428,290.454 422.014,290.74 420.877,290.9 419.045,291.659 419.379,291.004 417.104,291.325 417.932,290.754 
				415.607,291.429 416.434,290.855 414.471,291.59 415.348,290.67 413.334,291.754 414.211,290.832 412.559,291.978 
				413.484,290.71 			"/>
			<g clip-path="url(#SVGID_4_)">
				<path fill="#FFFFFF" d="M412.189,292.337l1.059-1.446l-2.337,0.875l2.511-1.742l-1.397-0.721l2.142,0.366l-0.67-0.884
					l1.758,0.656l-0.621-0.816l1.762,0.656l-0.615-0.81l2.121,0.723l-0.684-0.899l2.072,1.067l-0.562-0.743l2.383,0.811l1.047,0.537
					l0.395,0.506l-0.488,0.338l-1.172,0.175l-2.027,0.843l0.363-0.718l-2.467,0.35l0.691-0.478l-2.324,0.674l0.693-0.481
					l-1.668,0.625l0.762-0.8l-2.015,1.085l0.673-0.706L412.189,292.337L412.189,292.337z M413.723,290.529l-0.795,1.09l1.924-1.332
					l-1.086,1.138l2.018-1.087l-0.994,1.041l2.258-0.844l-0.963,0.666l2.326-0.676l-0.959,0.665l2.08-0.294l-0.309,0.595
					l1.623-0.669l1.156-0.166l0.305-0.221l-0.256-0.341l-1.01-0.509l-1.844-0.626l0.682,0.899l-2.07-1.067l0.564,0.745l-2.121-0.724
					l0.633,0.834l-1.758-0.656l0.621,0.816l-1.762-0.656l0.574,0.759l-1.475-0.251l0.668,0.344l-1.616,1.12L413.723,290.529
					L413.723,290.529z"/>
			</g>
			<g clip-path="url(#SVGID_4_)">
				<polygon fill="#010101" points="412.998,291.576 412.982,291.559 414.264,290.173 412.181,291.072 412.172,291.048 
					414.299,290.129 413.252,289.756 414.314,290.125 415.436,289.963 414.072,289.231 415.453,289.96 416.398,289.945 
					416.547,289.954 416.555,289.948 415.209,289.057 416.57,289.948 416.561,289.956 418.021,290.045 416.348,288.857 
					418.035,290.045 419.5,290.11 417.838,288.828 419.514,290.112 420.859,290.264 419.289,289.054 420.875,290.267 
					422.428,290.441 420.895,290.281 420.969,290.338 419.338,291.36 419.322,291.338 420.951,290.337 420.879,290.279 
					419.477,290.135 417.502,291.212 417.488,291.19 419.459,290.135 418.004,290.069 416.197,291.182 416.184,291.159 
					417.99,290.068 416.533,289.979 414.891,291.313 414.873,291.294 416.52,289.979 416.396,289.973 415.426,289.99 
					413.754,291.478 413.736,291.457 415.408,289.992 414.279,290.166 412.998,291.576 				"/>
			</g>
			<polygon clip-path="url(#SVGID_4_)" fill-rule="evenodd" clip-rule="evenodd" fill="#9B9B9B" points="418.758,307.778 
				422.322,307.141 426.039,307.778 424.314,308.496 421.135,308.547 			"/>
			<g clip-path="url(#SVGID_4_)">
				<path fill="#010101" d="M421.133,308.565l-2.381-0.771l3.568-0.673l3.723,0.638l-1.719,0.753L421.133,308.565L421.133,308.565z
					 M422.32,307.159l-3.561,0.638l2.379,0.732l3.176-0.052l1.719-0.716L422.32,307.159L422.32,307.159z"/>
			</g>
			<path clip-path="url(#SVGID_4_)" fill="#BA2025" d="M422.352,302.017c-0.623,0.217-1.312-0.304-2.438,0.547
				c0,0-1.961-0.841-2.107,1.097c-0.004,0.081,0.309,0.553,0.354,0.519c0.244-0.189-0.115,0.185-0.115,0.237
				c0,0.057,0.037,0.086,0.047,0.107c0.012,0.024,0.041,0.062,0.049,0.164c0.006,0.102-0.225,0.382-0.127,0.482
				c0.096,0.103,0.102,0.399,0.102,0.483c0,0.085,0.061,0.318,0.102,0.366c0.043,0.049,0.117,0.169,0.117,0.271
				s0.039,0.385,0.023,0.457c-0.018,0.072,0.107,0.164,0.221,0.199c0.113,0.034,1.592,0.062,3.662,0.025
				c2.072-0.035,2.762,0.293,3.617-0.02c0.133-0.049,0.16-0.156,0.145-0.218c-0.012-0.06,0-0.251,0.037-0.3
				c0.037-0.048,0.279-0.432,0.23-0.507c0.045-0.04,0.381,0.196,0.164-0.015c-0.053-0.055,0.031-0.623,0.062-0.744
				c0.031-0.118,0.078-0.344,0.131-0.386c0.055-0.043-0.094-0.199-0.082-0.227c0.008-0.029,0.051-0.118,0.105-0.159
				c0,0,0.105-0.488,0.039-0.729c-0.062-0.239-0.297-1.323-1.768-1.105C424.922,302.563,422.957,301.808,422.352,302.017
				L422.352,302.017z"/>
			<g clip-path="url(#SVGID_4_)">
				<path fill="#010101" d="M425.014,307.118c-0.23,0-0.482-0.019-0.781-0.043c-0.436-0.033-0.967-0.075-1.668-0.075l-0.32,0.003
					c-2.006,0.034-3.543,0.013-3.674-0.027c-0.113-0.037-0.268-0.135-0.242-0.234c0.01-0.04-0.002-0.168-0.012-0.27
					c-0.008-0.073-0.014-0.141-0.014-0.181c0-0.09-0.062-0.203-0.107-0.252c-0.049-0.057-0.107-0.301-0.107-0.386
					c0-0.084-0.006-0.369-0.094-0.463c-0.074-0.077-0.006-0.217,0.053-0.34c0.031-0.064,0.066-0.131,0.062-0.162
					c-0.006-0.079-0.025-0.115-0.037-0.138c-0.033-0.051-0.059-0.084-0.059-0.135c0-0.027,0.027-0.067,0.119-0.181
					c0.008-0.009,0.014-0.017,0.021-0.027c-0.166-0.146-0.383-0.467-0.377-0.548c0.082-1.081,0.721-1.307,1.248-1.307
					c0.469,0,0.896,0.182,0.902,0.183c0.76-0.598,1.311-0.528,1.742-0.501c0.27,0.019,0.496,0.016,0.674-0.047
					c0.568-0.19,2.52,0.521,2.59,0.548c0.896-0.165,1.557,0.236,1.779,1.103c0.074,0.268-0.029,0.747-0.035,0.768
					c-0.059,0.052-0.096,0.135-0.104,0.161c0.072,0.112,0.127,0.196,0.07,0.239c-0.033,0.028-0.074,0.19-0.1,0.288
					c-0.057,0.23-0.125,0.747-0.088,0.8c0.07,0.069,0.086,0.093,0.076,0.116l-0.125-0.013c-0.043-0.019-0.1-0.044-0.125-0.044
					c0.078,0.062-0.215,0.496-0.221,0.5c-0.029,0.037-0.041,0.216-0.031,0.277c0.014,0.06-0.004,0.191-0.162,0.25
					C425.607,307.076,425.344,307.118,425.014,307.118L425.014,307.118z M422.564,306.941c0.705,0,1.238,0.041,1.67,0.075
					c0.723,0.057,1.178,0.07,1.615-0.092c0.119-0.043,0.133-0.138,0.125-0.183c-0.012-0.062-0.004-0.266,0.043-0.323
					c0.062-0.085,0.254-0.427,0.227-0.475c0.074-0.051,0.121-0.03,0.188,0c-0.094-0.088,0.025-0.737,0.037-0.781
					c0.059-0.246,0.094-0.365,0.143-0.402c0.008-0.017-0.041-0.089-0.059-0.116l-0.035-0.097c0.008-0.028,0.053-0.125,0.115-0.172
					l0,0c-0.008,0,0.092-0.47,0.029-0.699c-0.223-0.86-0.754-1.228-1.734-1.084c-0.033-0.008-2.031-0.732-2.564-0.548
					c-0.186,0.062-0.42,0.062-0.697,0.05c-0.441-0.027-0.965-0.087-1.732,0.493h-0.002c-0.037,0-0.455-0.175-0.906-0.175
					c-0.729,0-1.125,0.42-1.191,1.25c-0.002,0.063,0.264,0.466,0.324,0.488c0.057-0.053,0.07-0.056,0.086-0.056
					c0.041,0.043,0.027,0.062-0.066,0.177c-0.037,0.047-0.1,0.126-0.105,0.146l0.047,0.092c0.02,0.037,0.045,0.08,0.051,0.175
					c0.002,0.047-0.031,0.114-0.068,0.19c-0.051,0.101-0.111,0.228-0.066,0.274c0.1,0.105,0.111,0.388,0.111,0.503
					c0,0.085,0.061,0.308,0.094,0.348c0.045,0.052,0.123,0.179,0.123,0.29c0,0.04,0.006,0.105,0.01,0.176
					c0.012,0.117,0.023,0.239,0.012,0.289c-0.012,0.045,0.092,0.129,0.203,0.163c0.098,0.031,1.525,0.059,3.652,0.025
					L422.564,306.941L422.564,306.941z"/>
			</g>
			<path clip-path="url(#SVGID_4_)" fill-rule="evenodd" clip-rule="evenodd" fill="#EFDA33" d="M419.838,303.266
				c-0.098,0.035-0.193,0.861-0.111,1.127c0.059,0.188,0.127,0.311,0.168,0.39c-0.082-0.129-0.27-0.375-0.484-0.355
				c-0.266,0.023-0.195,0.884-0.182,0.937v0.002l0,0h0.004c0.008-0.021,0.07-0.384,0.334-0.408c0.178-0.015,0.336,0.175,0.396,0.256
				c0.002,0.025,0.006,0.053,0.01,0.078c-0.027,0.085-0.031,0.278-0.121,0.529c-0.111,0.305-0.555,0.374-0.631,0.384
				c0.02-0.001,0.732-0.066,0.969-0.087h0.002l0,0c0.004,0,0.004,0,0.004-0.001c0.236-0.02,0.949-0.084,0.969-0.087
				c-0.074,0.005-0.535,0.016-0.717-0.264c-0.15-0.229-0.189-0.418-0.238-0.494c-0.002-0.029-0.006-0.055-0.012-0.083
				c0.041-0.088,0.15-0.303,0.324-0.318c0.264-0.022,0.416,0.32,0.43,0.343c0,0,0-0.003,0,0c0-0.003,0-0.003,0-0.003v-0.001
				c0-0.055-0.137-0.908-0.404-0.884c-0.213,0.019-0.338,0.292-0.387,0.433c0.021-0.085,0.055-0.254,0.062-0.407
				c0.018-0.281-0.281-1.094-0.379-1.085C419.84,303.266,419.84,303.266,419.838,303.266L419.838,303.266z M419.896,304.785
				c0.01,0.015,0.018,0.025,0.023,0.035l0.02,0.087c0,0,0.088,0.283,0.088,0.286C420.021,305.183,419.906,304.802,419.896,304.785
				L419.896,304.785z M420.158,304.763c-0.002,0.017-0.029,0.409-0.031,0.422c0,0,0.018-0.381,0.018-0.383l0.002,0.084
				C420.15,304.876,420.156,304.778,420.158,304.763L420.158,304.763z"/>
			<g clip-path="url(#SVGID_4_)">
				<path fill="#010101" d="M419.223,306.223l-0.002-0.037l0,0l0,0l0,0c0.086-0.01,0.508-0.081,0.613-0.372
					c0.057-0.159,0.08-0.295,0.094-0.395c0.01-0.057,0.018-0.103,0.029-0.134c-0.062-0.137-0.211-0.312-0.369-0.312
					c-0.123,0.011-0.262,0.084-0.336,0.383c0-0.002-0.002-0.005-0.006-0.006c0.055-0.324,0.207-0.4,0.32-0.412l0,0
					c0.197,0,0.35,0.185,0.41,0.263c0.002,0.125-0.004,0.168-0.012,0.224c-0.018,0.101-0.039,0.238-0.096,0.401
					c-0.068,0.184-0.248,0.284-0.404,0.338c0.236-0.021,0.574-0.051,0.723-0.063c0.176-0.017,0.602-0.056,0.828-0.075
					c-0.164,0.013-0.457-0.054-0.582-0.249c-0.1-0.15-0.15-0.284-0.188-0.38c-0.02-0.05-0.037-0.089-0.051-0.117
					c0.027-0.191,0.145-0.41,0.326-0.428c0.191,0.042,0.318,0.112,0.438,0.337c-0.025-0.058-0.164-0.847-0.4-0.847
					c-0.207,0.018-0.326,0.271-0.381,0.422c-0.014-0.095,0.018-0.262,0.025-0.413c0.018-0.241-0.219-0.925-0.338-1.053
					c-0.096,0.012-0.207,0.812-0.121,1.091c0.047,0.153,0.104,0.265,0.141,0.343c-0.002-0.003-0.006-0.006-0.01-0.009
					c0.014,0.019,0.025,0.035,0.033,0.05c-0.02-0.021-0.037-0.044-0.055-0.067c-0.084-0.075-0.24-0.261-0.416-0.261
					c-0.061,0.003-0.09,0.022-0.115,0.06c-0.127,0.182-0.096,0.731-0.078,0.84c-0.053-0.099-0.088-0.665,0.051-0.861
					c0.031-0.045,0.07-0.069,0.115-0.072l0,0c0.168,0,0.311,0.121,0.402,0.231c-0.041-0.069-0.074-0.149-0.104-0.243
					c-0.08-0.258,0.01-1.107,0.123-1.151c0.184,0.163,0.422,0.852,0.408,1.104c-0.006,0.109-0.021,0.227-0.043,0.315
					c0.049-0.159,0.168-0.344,0.348-0.36l0,0c0.293,0,0.426,0.848,0.426,0.902c-0.156-0.215-0.283-0.321-0.424-0.321
					c-0.184,0.016-0.293,0.22-0.332,0.308c0.025,0.094,0.043,0.136,0.066,0.189c0.033,0.095,0.084,0.225,0.182,0.371
					c0.15,0.232,0.502,0.258,0.646,0.258c0,0,0,0.002,0,0.003c0.031-0.003,0.049-0.004,0.055-0.006
					c-0.02,0.003-0.037,0.008-0.057,0.009c-0.043,0.037-0.691,0.096-0.91,0.115C419.957,306.156,419.244,306.222,419.223,306.223
					L419.223,306.223z"/>
			</g>
			<path clip-path="url(#SVGID_4_)" fill-rule="evenodd" clip-rule="evenodd" fill="#EFDA33" d="M419.922,305.207
				c0,0,0.074-0.062,0.15-0.069c0.078-0.006,0.166,0.038,0.166,0.038l0.016,0.144c0,0-0.088-0.047-0.164-0.04
				c-0.08,0.008-0.15,0.068-0.15,0.068L419.922,305.207z"/>
			<g clip-path="url(#SVGID_4_)">
				<path fill="#010101" d="M419.926,305.383l-0.02-0.174c0.008-0.019,0.084-0.081,0.166-0.089l0,0c0.094,0,0.168,0.039,0.172,0.04
					l0.027,0.156c-0.025,0.016-0.1-0.02-0.168-0.02c-0.084,0.007-0.152,0.063-0.152,0.065L419.926,305.383L419.926,305.383z"/>
			</g>
			<path clip-path="url(#SVGID_4_)" fill-rule="evenodd" clip-rule="evenodd" fill="#EFDA33" d="M424.715,303.313
				c-0.102,0.013-0.369,0.803-0.344,1.082c0.02,0.193,0.061,0.33,0.082,0.415c-0.051-0.145-0.184-0.423-0.396-0.447
				c-0.264-0.033-0.375,0.821-0.373,0.875v0.003l0,0v0.001c0.016-0.018,0.154-0.362,0.418-0.329c0.17,0.021,0.287,0.238,0.33,0.329
				c-0.004,0.029-0.006,0.053-0.006,0.083c-0.045,0.075-0.088,0.264-0.23,0.491c-0.168,0.272-0.617,0.252-0.693,0.246
				c0.02,0,0.73,0.086,0.967,0.116c0,0,0,0,0.002,0l0,0c0,0,0,0,0.004,0c0.234,0.028,0.945,0.112,0.963,0.115
				c-0.074-0.013-0.525-0.097-0.645-0.406c-0.1-0.255-0.1-0.449-0.131-0.536c0.002-0.026,0.006-0.052,0.006-0.079
				c0.057-0.079,0.209-0.266,0.383-0.246c0.264,0.031,0.342,0.401,0.35,0.424l0,0l0.002-0.002l0,0
				c0.012-0.057,0.053-0.917-0.215-0.95c-0.211-0.025-0.391,0.216-0.467,0.343c0.037-0.077,0.104-0.237,0.145-0.386
				c0.074-0.271-0.045-1.129-0.145-1.139C424.719,303.316,424.715,303.313,424.715,303.313L424.715,303.313z M424.457,304.813
				c0.008,0.018,0.012,0.028,0.014,0.041l0.004,0.084c0,0.004,0.027,0.3,0.027,0.3C424.496,305.229,424.463,304.832,424.457,304.813
				L424.457,304.813z M424.719,304.847c-0.01,0.016-0.117,0.395-0.119,0.404c0,0,0.096-0.369,0.1-0.371l-0.018,0.086
				C424.688,304.956,424.709,304.859,424.719,304.847L424.719,304.847z"/>
			<g clip-path="url(#SVGID_4_)">
				<path fill="#010101" d="M425.438,306.311l-0.967-0.113c-0.23-0.03-0.893-0.111-0.965-0.116h-0.004l0.006-0.019v0.019
					c0.248-0.034,0.543-0.065,0.674-0.273c0.09-0.145,0.139-0.272,0.174-0.366c0.021-0.056,0.039-0.098,0.057-0.125
					c-0.037-0.154-0.15-0.365-0.312-0.387c-0.16,0.015-0.287,0.102-0.391,0.305c0,0-0.002-0.003-0.006-0.006
					c0.086-0.229,0.217-0.335,0.365-0.335c0.213,0.023,0.334,0.247,0.381,0.341c-0.023,0.128-0.041,0.167-0.061,0.22
					c-0.037,0.096-0.086,0.226-0.176,0.371c-0.113,0.182-0.338,0.237-0.514,0.253c0.197,0.011,0.604,0.061,0.77,0.082l0.725,0.085
					c-0.16-0.06-0.344-0.164-0.418-0.352c-0.062-0.162-0.086-0.3-0.104-0.402c-0.01-0.057-0.016-0.104-0.027-0.134
					c0.062-0.172,0.207-0.35,0.381-0.35c0.189,0.021,0.312,0.159,0.387,0.414c-0.016-0.07,0.006-0.646-0.137-0.843
					c-0.025-0.038-0.055-0.059-0.092-0.062h-0.002c-0.211,0-0.369,0.207-0.447,0.332c0.006-0.092,0.072-0.253,0.115-0.397
					c0.064-0.24-0.023-0.966-0.117-1.103c0-0.001-0.002-0.001-0.002-0.001c-0.094,0-0.367,0.756-0.34,1.045
					c0.016,0.171,0.049,0.296,0.072,0.381c0-0.001-0.004-0.003-0.006-0.005c0.006,0.013,0.012,0.025,0.014,0.035
					c-0.012-0.019-0.021-0.038-0.031-0.059c-0.068-0.094-0.193-0.342-0.387-0.363c-0.045-0.015-0.072,0.014-0.104,0.045
					c-0.156,0.159-0.236,0.677-0.248,0.793c-0.025-0.1,0.049-0.642,0.221-0.818c0.037-0.038,0.078-0.057,0.121-0.057
					c0.17,0.019,0.285,0.166,0.357,0.3c-0.023-0.072-0.037-0.153-0.045-0.247c-0.027-0.272,0.238-1.085,0.357-1.103
					c0.146,0.178,0.24,0.913,0.17,1.166c-0.031,0.108-0.074,0.225-0.111,0.31c0.08-0.151,0.223-0.292,0.385-0.292
					c0.08,0.007,0.115,0.032,0.15,0.079c0.158,0.224,0.121,0.859,0.113,0.896c-0.111-0.26-0.225-0.391-0.373-0.408l0,0
					c-0.188,0-0.326,0.184-0.363,0.237c0.006,0.097,0.016,0.144,0.023,0.203c0.018,0.1,0.039,0.236,0.102,0.396
					c0.113,0.298,0.547,0.382,0.631,0.395L425.438,306.311L425.438,306.311z M424.527,305.332l-0.043-0.085
					c-0.002-0.007-0.004-0.021-0.027-0.26c-0.008-0.08-0.014-0.154-0.018-0.168l0.018,0.041v-0.047l0.018-0.003
					c0.002,0.006,0.008,0.054,0.014,0.115l0.006,0.015c-0.004,0.018,0.025,0.297,0.025,0.297L424.527,305.332L424.527,305.332z
					 M424.613,305.26c0-0.002,0-0.004,0.002-0.004c-0.031-0.021-0.014-0.084,0.01-0.156c0.016-0.062,0.031-0.108,0.043-0.146
					c0,0,0,0,0-0.002l0,0c0.021-0.072,0.031-0.106,0.035-0.113l-0.021,0.037c0-0.002,0-0.003,0-0.003l0.059-0.118l-0.041,0.215
					v-0.005c-0.012,0.046-0.027,0.099-0.041,0.144c-0.02,0.071-0.037,0.131-0.043,0.148l0,0l0,0
					C424.615,305.257,424.613,305.258,424.613,305.26L424.613,305.26z"/>
			</g>
			<path clip-path="url(#SVGID_4_)" fill-rule="evenodd" clip-rule="evenodd" fill="#EFDA33" d="M424.395,305.229
				c0,0,0.082-0.043,0.162-0.034c0.076,0.013,0.15,0.072,0.15,0.072l-0.012,0.144c0,0-0.074-0.062-0.152-0.072
				s-0.16,0.034-0.16,0.034L424.395,305.229z"/>
			<g clip-path="url(#SVGID_4_)">
				<path fill="#010101" d="M424.709,305.445l-0.025-0.021c-0.002-0.002-0.07-0.06-0.145-0.068h-0.002
					c-0.086,0-0.146,0.029-0.146,0.031l-0.014-0.159c0.012-0.018,0.082-0.053,0.16-0.053c0.104,0.013,0.176,0.075,0.178,0.077
					L424.709,305.445L424.709,305.445z"/>
			</g>
			<path clip-path="url(#SVGID_4_)" fill-rule="evenodd" clip-rule="evenodd" fill="#EFDA33" d="M418.064,304.688l0.381-0.468
				c0,0,0.033,0.048,0,0c-0.781-1.007-0.822-1.585-0.732-1.88c0.09-0.291,0.264-0.611,0.732-1.001
				c0.469-0.391,0.793-0.173,1.232-0.173c0.438,0,0.555,0.096,0.936,0.146c0.381,0.049,1.406,0.097,1.406,0.097v-0.267
				c0,0,0.039,0.007,0,0c-0.451-0.085-1.025,0-1.406-0.097c-0.381-0.1-0.703-0.124-1.113-0.124c-0.406,0-0.705-0.12-0.967,0.052
				c-0.264,0.17-0.586,0.464-0.82,0.707c-0.234,0.246-0.35,0.736-0.322,1.052c0.029,0.317,0.148,0.585,0.322,0.831
				c0.176,0.242,0.146,0.438,0.203,0.611C417.977,304.344,418.064,304.711,418.064,304.688L418.064,304.688z"/>
			<g clip-path="url(#SVGID_4_)">
				<path fill="#010101" d="M418.064,304.703c-0.014,0-0.014,0-0.049-0.131c-0.031-0.117-0.076-0.291-0.111-0.394
					c-0.02-0.056-0.031-0.114-0.039-0.175c-0.023-0.127-0.045-0.27-0.164-0.434c-0.191-0.269-0.297-0.542-0.324-0.838
					c-0.029-0.316,0.088-0.812,0.326-1.062c0.217-0.225,0.545-0.53,0.822-0.71c0.156-0.102,0.359-0.102,0.621-0.076
					c0.107,0.012,0.225,0.023,0.354,0.023c0.396,0,0.721,0.021,1.119,0.125c0.193,0.048,0.438,0.05,0.695,0.051
					c0.242,0.002,0.488,0.003,0.707,0.044v0.025l0.016-0.007l-0.006,0.013h0.002l-0.012-0.003l0.012,0.253
					c-0.02,0.015-1.043-0.035-1.42-0.082c-0.148-0.02-0.26-0.047-0.361-0.071c-0.158-0.04-0.307-0.075-0.574-0.075
					c-0.121,0-0.232-0.017-0.34-0.032c-0.318-0.046-0.604-0.03-0.885,0.201c-0.502,0.422-0.652,0.753-0.727,0.996
					c-0.092,0.304-0.037,0.874,0.73,1.866l-0.018,0.021l-0.006-0.003l-0.008,0.021l0,0L418.064,304.703L418.064,304.703z
					 M418.883,300.895c-0.143,0-0.248,0.026-0.344,0.089c-0.273,0.18-0.6,0.481-0.816,0.708c-0.232,0.242-0.346,0.729-0.318,1.038
					c0.027,0.291,0.131,0.562,0.318,0.825c0.123,0.168,0.148,0.315,0.172,0.443c0.008,0.06,0.016,0.118,0.037,0.172
					c0.035,0.101,0.082,0.277,0.113,0.394c0.008,0.041,0.02,0.075,0.025,0.097l0.363-0.449c-0.775-0.985-0.826-1.565-0.732-1.875
					c0.074-0.246,0.225-0.582,0.734-1.009c0.285-0.237,0.58-0.257,0.904-0.207c0.107,0.015,0.219,0.031,0.338,0.031
					c0.27,0,0.42,0.037,0.58,0.077c0.102,0.023,0.211,0.051,0.357,0.069c0.381,0.048,1.404,0.097,1.404,0.097l-0.014-0.253
					c-0.209-0.027-0.453-0.028-0.691-0.03c-0.258-0.001-0.506-0.003-0.705-0.053c-0.391-0.104-0.715-0.123-1.109-0.123
					c-0.129,0-0.246-0.012-0.355-0.022C419.051,300.904,418.965,300.895,418.883,300.895L418.883,300.895z"/>
			</g>
			<path clip-path="url(#SVGID_4_)" fill-rule="evenodd" clip-rule="evenodd" fill="#EFDA33" d="M426.512,304.688l-0.385-0.468
				c0,0-0.031,0.048,0,0c0.781-1.007,0.822-1.585,0.734-1.88c-0.09-0.291-0.262-0.611-0.734-1.001
				c-0.465-0.391-0.789-0.173-1.23-0.173c-0.439,0-0.557,0.096-0.938,0.146c-0.381,0.049-1.402,0.097-1.402,0.097v-0.267
				c0,0-0.041,0.007,0,0c0.451-0.085,1.021,0,1.402-0.097c0.381-0.1,0.705-0.124,1.115-0.124c0.408,0,0.703-0.12,0.969,0.052
				c0.264,0.17,0.584,0.464,0.818,0.707c0.234,0.246,0.352,0.736,0.322,1.052c-0.031,0.317-0.146,0.585-0.322,0.831
				c-0.178,0.242-0.146,0.438-0.205,0.611C426.6,304.344,426.512,304.711,426.512,304.688L426.512,304.688z"/>
			<g clip-path="url(#SVGID_4_)">
				<path fill="#010101" d="M426.512,304.703l-0.012-0.006l-0.381-0.468c0.768-1.011,0.82-1.581,0.73-1.885
					c-0.074-0.243-0.223-0.574-0.73-0.996c-0.279-0.231-0.562-0.244-0.881-0.201c-0.111,0.016-0.223,0.032-0.342,0.032
					c-0.266,0-0.416,0.035-0.576,0.075c-0.102,0.024-0.211,0.052-0.357,0.071c-0.381,0.048-1.406,0.097-1.406,0.097l-0.016-0.281
					c0.23-0.056,0.479-0.057,0.717-0.059c0.258-0.001,0.504-0.003,0.699-0.053c0.398-0.102,0.721-0.123,1.117-0.123
					c0.127,0,0.244-0.012,0.354-0.023c0.262-0.025,0.467-0.025,0.623,0.076c0.273,0.179,0.602,0.484,0.82,0.71
					c0.24,0.251,0.355,0.747,0.328,1.062c-0.029,0.297-0.137,0.572-0.328,0.838c-0.115,0.164-0.141,0.309-0.164,0.435
					c-0.008,0.06-0.02,0.118-0.037,0.174c-0.033,0.098-0.08,0.264-0.107,0.381C426.521,304.703,426.521,304.703,426.512,304.703
					L426.512,304.703z M425.533,301.09c0.223,0,0.41,0.074,0.605,0.237c0.512,0.427,0.662,0.765,0.736,1.009
					c0.094,0.31,0.043,0.89-0.736,1.894l0.367,0.431c0.006-0.022,0.016-0.062,0.027-0.108c0.031-0.116,0.074-0.284,0.109-0.382
					c0.02-0.054,0.027-0.11,0.035-0.17c0.023-0.13,0.049-0.277,0.172-0.445c0.188-0.263,0.293-0.531,0.32-0.825
					c0.029-0.31-0.086-0.794-0.318-1.038c-0.215-0.228-0.545-0.531-0.818-0.708c-0.15-0.098-0.352-0.095-0.602-0.07
					c-0.111,0.011-0.227,0.022-0.357,0.022c-0.396,0-0.717,0.02-1.109,0.122c-0.199,0.051-0.445,0.053-0.707,0.054
					c-0.238,0.002-0.482,0.003-0.699,0.044l0.012,0.252c0.012-0.013,1.014-0.062,1.389-0.109c0.146-0.019,0.254-0.046,0.355-0.069
					c0.16-0.04,0.312-0.077,0.582-0.077c0.119,0,0.23-0.017,0.336-0.031C425.334,301.104,425.434,301.09,425.533,301.09
					L425.533,301.09z"/>
			</g>
			
				<rect x="421.65" y="300.92" clip-path="url(#SVGID_4_)" fill-rule="evenodd" clip-rule="evenodd" fill="#EFDA33" width="1.357" height="2.785"/>
			<g clip-path="url(#SVGID_4_)">
				<path fill="#010101" d="M423.025,303.721h-1.375l-0.018-2.801l1.375-0.016L423.025,303.721L423.025,303.721z M422.99,300.92
					l-1.34,0.016l0.014,2.77l1.326-0.017V300.92L422.99,300.92z"/>
			</g>
			<path clip-path="url(#SVGID_4_)" fill-rule="evenodd" clip-rule="evenodd" fill="#EFDA33" d="M421.812,298.462
				c0,0,0.146,0.119,0.258,0.274c0.113,0.153,0.189,0.338,0.189,0.338s-0.188-0.079-0.338-0.188c-0.156-0.114-0.271-0.26-0.271-0.26
				v1.034c0,0,0.115-0.146,0.271-0.258c0.15-0.113,0.338-0.191,0.338-0.191s-0.059,0.154-0.096,0.341
				c-0.037,0.166-0.324,0.553-0.324,0.553l0.838,0.054c0,0-0.139-0.44-0.195-0.606c-0.062-0.182-0.086-0.341-0.086-0.341
				s0.188,0.078,0.342,0.191c0.15,0.112,0.27,0.258,0.27,0.258v-1.034c0,0-0.119,0.146-0.27,0.26
				c-0.154,0.109-0.342,0.188-0.342,0.188s0.08-0.185,0.191-0.338c0.113-0.155,0.258-0.274,0.258-0.274H421.812z"/>
			<g clip-path="url(#SVGID_4_)">
				<path fill="#010101" d="M422.693,300.17l-0.854-0.056c-0.006-0.02,0.279-0.402,0.312-0.565c0.035-0.165,0.086-0.306,0.098-0.335
					c-0.023,0.022-0.188,0.097-0.322,0.196c-0.15,0.11-0.27,0.255-0.271,0.255l-0.018-1.039l0,0c0.023,0,0.139,0.142,0.289,0.251
					c0.135,0.098,0.297,0.171,0.33,0.185c-0.023-0.024-0.096-0.186-0.195-0.319c-0.109-0.152-0.254-0.271-0.256-0.271l1.039-0.019
					c0.006,0.02-0.139,0.138-0.25,0.29c-0.1,0.134-0.174,0.295-0.188,0.329c0.025-0.023,0.191-0.097,0.324-0.194
					c0.148-0.11,0.268-0.257,0.268-0.257l0.02,1.04c-0.004,0-0.004,0-0.004,0c-0.021,0-0.139-0.141-0.283-0.25
					c-0.137-0.102-0.307-0.177-0.336-0.188c0.016,0.02,0.041,0.163,0.094,0.326L422.693,300.17L422.693,300.17z M422.258,299.202
					c0.012,0.013-0.049,0.166-0.086,0.351c-0.037,0.168-0.312,0.542-0.322,0.558l0.814,0.038l-0.189-0.594
					c-0.062-0.182-0.09-0.343-0.09-0.343c0.041-0.014,0.211,0.073,0.359,0.183c0.15,0.111,0.27,0.257,0.271,0.26L423,298.634
					c-0.016,0.034-0.123,0.161-0.256,0.259c-0.154,0.111-0.342,0.19-0.344,0.19c-0.012-0.015,0.068-0.202,0.178-0.353
					c0.115-0.154,0.26-0.274,0.262-0.275l-1.02,0.017c0.033,0.013,0.162,0.123,0.258,0.259c0.111,0.15,0.191,0.338,0.191,0.34
					c-0.014,0.022-0.205-0.068-0.355-0.178c-0.15-0.112-0.273-0.259-0.273-0.262l0.018,1.021c0.014-0.034,0.123-0.159,0.256-0.257
					C422.068,299.282,422.256,299.202,422.258,299.202L422.258,299.202z"/>
			</g>
			<path clip-path="url(#SVGID_4_)" fill-rule="evenodd" clip-rule="evenodd" fill="#EFDA33" d="M423.002,300.306
				c0,0.371-0.301,0.675-0.674,0.675c-0.371,0-0.672-0.304-0.672-0.675c0-0.372,0.301-0.676,0.672-0.676
				C422.701,299.63,423.002,299.934,423.002,300.306L423.002,300.306z"/>
			<g clip-path="url(#SVGID_4_)">
				<path fill="#010101" d="M422.328,300.995c-0.381,0-0.688-0.309-0.688-0.689c0-0.382,0.307-0.691,0.688-0.691
					s0.691,0.31,0.691,0.691C423.02,300.687,422.709,300.995,422.328,300.995L422.328,300.995z M422.328,299.646
					c-0.363,0-0.658,0.296-0.658,0.66s0.295,0.659,0.658,0.659c0.365,0,0.66-0.295,0.66-0.659S422.693,299.646,422.328,299.646
					L422.328,299.646z"/>
			</g>
			<path clip-path="url(#SVGID_4_)" fill-rule="evenodd" clip-rule="evenodd" fill="#EFDA33" d="M421.67,300.402h1.338
				c0,0,0.023-0.26-0.074-0.356h-0.418l-0.008-0.391h-0.15h-0.242l-0.008,0.391c0,0-0.279,0.015-0.41,0.015
				c-0.057,0.159-0.047,0.173-0.047,0.173L421.67,300.402z"/>
			<g clip-path="url(#SVGID_4_)">
				<path fill="#010101" d="M423.02,300.412h-1.35l-0.031-0.179c-0.006-0.01,0.025-0.103,0.051-0.176
					c0.139-0.007,0.418-0.021,0.418-0.021l-0.004-0.381l0.404-0.01l0.02,0.4l0.406-0.01c0.105,0.101,0.086,0.356,0.086,0.368
					V300.412L423.02,300.412z M422.115,299.665l0.004,0.381c-0.012,0.01-0.291,0.024-0.422,0.024
					c-0.041,0.137-0.039,0.16-0.039,0.16l0.023,0.171l1.318-0.009c0.002-0.047,0.008-0.257-0.074-0.34l-0.41,0.003l-0.016-0.4
					L422.115,299.665L422.115,299.665z"/>
			</g>
			<path clip-path="url(#SVGID_4_)" fill-rule="evenodd" clip-rule="evenodd" fill="#EFDA33" d="M421.465,303.611
				c0,0,0.248,0.198,0.432,0.453c0.188,0.256,0.318,0.568,0.318,0.568s-0.309-0.131-0.568-0.316
				c-0.256-0.189-0.453-0.432-0.453-0.432v1.725c0,0,0.197-0.244,0.453-0.43c0.26-0.188,0.568-0.319,0.568-0.319
				s-0.131,0.312-0.318,0.569c-0.184,0.253-0.432,0.451-0.432,0.451h1.729c0,0-0.246-0.198-0.434-0.451
				c-0.189-0.258-0.316-0.569-0.316-0.569s0.312,0.131,0.564,0.319c0.256,0.186,0.457,0.43,0.457,0.43v-1.725
				c0,0-0.201,0.242-0.457,0.432c-0.252,0.186-0.564,0.316-0.564,0.316s0.127-0.312,0.316-0.568
				c0.188-0.255,0.434-0.453,0.434-0.453H421.465z"/>
			<g clip-path="url(#SVGID_4_)">
				<path fill="#010101" d="M423.193,305.896h-1.729c-0.006-0.029,0.238-0.227,0.42-0.475c0.168-0.23,0.291-0.506,0.312-0.559
					c-0.035,0.037-0.312,0.16-0.541,0.33c-0.25,0.182-0.449,0.423-0.453,0.424l-0.025-1.732c0.018-0.005,0.223,0.231,0.479,0.42
					c0.229,0.165,0.506,0.287,0.557,0.312c-0.037-0.037-0.16-0.314-0.328-0.541c-0.184-0.252-0.426-0.449-0.428-0.452l1.736-0.025
					c0.008,0.028-0.236,0.226-0.422,0.478c-0.168,0.227-0.293,0.504-0.312,0.555c0.037-0.036,0.316-0.16,0.541-0.325
					c0.252-0.185,0.451-0.428,0.453-0.43l0.027,1.734c-0.027-0.003-0.225-0.233-0.48-0.416c-0.225-0.17-0.504-0.295-0.555-0.315
					c0.033,0.036,0.158,0.313,0.326,0.544c0.186,0.248,0.43,0.445,0.43,0.447l0.033,0.027H423.193L423.193,305.896z
					 M422.209,304.847c0.018,0.022-0.113,0.336-0.301,0.592c-0.184,0.252-0.43,0.452-0.432,0.453l1.676-0.025
					c-0.07-0.062-0.258-0.229-0.406-0.428c-0.188-0.256-0.318-0.569-0.318-0.572c0.025-0.015,0.336,0.112,0.592,0.303
					c0.252,0.183,0.455,0.429,0.455,0.432l-0.023-1.705c-0.023,0.052-0.207,0.266-0.432,0.434c-0.254,0.184-0.568,0.315-0.572,0.318
					c-0.02-0.024,0.111-0.337,0.299-0.591c0.188-0.255,0.436-0.453,0.438-0.455l-1.705,0.024c0.053,0.021,0.266,0.204,0.43,0.431
					c0.188,0.254,0.318,0.566,0.32,0.57c-0.027,0.015-0.332-0.111-0.59-0.298c-0.254-0.188-0.455-0.434-0.455-0.437l0.023,1.705
					c0.021-0.053,0.205-0.266,0.432-0.429C421.895,304.979,422.207,304.848,422.209,304.847L422.209,304.847z"/>
			</g>
			<path clip-path="url(#SVGID_4_)" fill-rule="evenodd" clip-rule="evenodd" fill="#EFDA33" d="M418.182,306.541l0.85-0.149
				c0,0-0.277-0.153-0.506-0.372c-0.229-0.217-0.412-0.506-0.412-0.506s0.328,0.075,0.613,0.216
				c0.283,0.141,0.523,0.347,0.523,0.347l-0.299-1.699c0,0-0.156,0.274-0.373,0.503c-0.219,0.23-0.502,0.411-0.502,0.411
				s0.074-0.328,0.213-0.614c0.143-0.284,0.346-0.521,0.346-0.521l-0.85,0.15L418.182,306.541z"/>
			<g clip-path="url(#SVGID_4_)">
				<path fill="#010101" d="M418.166,306.558v-0.014l-0.395-2.233l0.861-0.169c0.012,0.027-0.193,0.265-0.332,0.543
					c-0.123,0.254-0.197,0.547-0.209,0.601c0.031-0.043,0.279-0.21,0.475-0.415c0.217-0.226,0.371-0.497,0.371-0.5l0.326,1.702
					c0.012,0.044-0.264-0.19-0.543-0.33c-0.254-0.125-0.545-0.198-0.602-0.211c0.041,0.031,0.215,0.284,0.416,0.477
					c0.225,0.218,0.498,0.37,0.5,0.371L418.166,306.558L418.166,306.558z M418.623,304.146l-0.834,0.175l0.402,2.203l0.824-0.143
					c-0.057-0.014-0.299-0.156-0.5-0.35c-0.227-0.218-0.412-0.506-0.414-0.509c0.02-0.028,0.352,0.054,0.633,0.194
					c0.281,0.14,0.523,0.346,0.525,0.349l-0.322-1.674c-0.01,0.054-0.154,0.296-0.35,0.499c-0.217,0.229-0.5,0.412-0.504,0.413
					c-0.023-0.02,0.055-0.348,0.191-0.632C418.416,304.389,418.621,304.148,418.623,304.146L418.623,304.146z"/>
			</g>
			<path clip-path="url(#SVGID_4_)" fill-rule="evenodd" clip-rule="evenodd" fill="#EFDA33" d="M426.021,304.156
				c0,0,0.205,0.236,0.348,0.521c0.139,0.286,0.213,0.614,0.213,0.614s-0.283-0.181-0.502-0.411
				c-0.219-0.229-0.373-0.503-0.373-0.503l-0.301,1.699c0,0,0.238-0.206,0.521-0.347c0.287-0.141,0.617-0.216,0.617-0.216
				s-0.182,0.289-0.412,0.506c-0.23,0.219-0.506,0.372-0.506,0.372l0.854,0.149l0.391-2.234L426.021,304.156z"/>
			<g clip-path="url(#SVGID_4_)">
				<path fill="#010101" d="M426.49,306.558l-0.865-0.151c0-0.028,0.271-0.181,0.496-0.398c0.205-0.192,0.375-0.445,0.406-0.494
					c-0.045,0.03-0.338,0.104-0.594,0.229c-0.275,0.14-0.514,0.343-0.516,0.344l0.275-1.711l0,0c0.027,0,0.184,0.271,0.396,0.495
					c0.197,0.205,0.443,0.372,0.492,0.403c-0.029-0.042-0.102-0.335-0.227-0.591c-0.137-0.276-0.342-0.514-0.344-0.517l0.863,0.126
					L426.49,306.558L426.49,306.558z M426.543,305.501c0.014,0.024-0.172,0.312-0.4,0.53c-0.229,0.217-0.504,0.372-0.506,0.373
					l0.832,0.119l0.389-2.22l-0.826-0.132c0.049,0.029,0.227,0.247,0.352,0.498c0.137,0.286,0.213,0.614,0.213,0.618
					c-0.045-0.017-0.312-0.172-0.527-0.397c-0.217-0.229-0.373-0.503-0.375-0.506l-0.27,1.682c0.027-0.047,0.246-0.225,0.5-0.35
					C426.207,305.576,426.537,305.501,426.543,305.501L426.543,305.501z"/>
			</g>
			<path clip-path="url(#SVGID_4_)" fill-rule="evenodd" clip-rule="evenodd" fill="#EFDA33" d="M418.189,306.454l0.006,1.236
				c0,0,2.068-0.705,4.137-0.705s4.137,0.705,4.137,0.705v-1.236c0,0-2.072-0.704-4.141-0.704
				C420.258,305.75,418.189,306.454,418.189,306.454L418.189,306.454z"/>
			<g clip-path="url(#SVGID_4_)">
				<path fill="#010101" d="M426.482,307.71l-0.02-0.006c-0.02-0.007-2.088-0.703-4.131-0.703s-4.111,0.696-4.135,0.703l-0.025-1.25
					c0.031-0.021,2.109-0.72,4.156-0.72c2.049,0,4.123,0.698,4.146,0.706L426.482,307.71L426.482,307.71z M422.328,305.766
					c-2.043,0-4.115,0.695-4.137,0.703l0.018,1.222c0-0.021,2.074-0.721,4.123-0.721c1.939,0,3.906,0.628,4.123,0.7v-1.216l0,0
					C426.424,306.454,424.359,305.766,422.328,305.766L422.328,305.766z"/>
			</g>
			<path clip-path="url(#SVGID_4_)" fill-rule="evenodd" clip-rule="evenodd" fill="#FFFFFF" d="M417.996,304.026
				c0,0.177-0.143,0.317-0.312,0.317c-0.176,0-0.318-0.141-0.318-0.317c0-0.173,0.143-0.315,0.318-0.315
				C417.854,303.711,417.996,303.854,417.996,304.026L417.996,304.026z"/>
			<g clip-path="url(#SVGID_4_)">
				<path fill="#010101" d="M417.684,304.361c-0.186,0-0.338-0.148-0.338-0.335c0-0.185,0.152-0.335,0.338-0.335
					c0.182,0,0.33,0.15,0.33,0.335C418.014,304.213,417.865,304.361,417.684,304.361L417.684,304.361z M417.684,303.729
					c-0.164,0-0.299,0.135-0.299,0.297c0,0.163,0.135,0.297,0.299,0.297c0.158,0,0.293-0.134,0.293-0.297
					C417.977,303.864,417.842,303.729,417.684,303.729L417.684,303.729z"/>
			</g>
			<path clip-path="url(#SVGID_4_)" fill-rule="evenodd" clip-rule="evenodd" fill="#FFFFFF" d="M417.592,303.31
				c0,0.175-0.141,0.315-0.314,0.315s-0.314-0.141-0.314-0.315c0-0.174,0.141-0.317,0.314-0.317S417.592,303.136,417.592,303.31
				L417.592,303.31z"/>
			<g clip-path="url(#SVGID_4_)">
				<path fill="#010101" d="M417.277,303.643c-0.186,0-0.336-0.148-0.336-0.333c0-0.187,0.15-0.336,0.336-0.336
					s0.336,0.149,0.336,0.336C417.613,303.494,417.463,303.643,417.277,303.643L417.277,303.643z M417.277,303.013
					c-0.164,0-0.295,0.133-0.295,0.297c0,0.161,0.131,0.297,0.295,0.297c0.162,0,0.295-0.136,0.295-0.297
					C417.572,303.146,417.439,303.013,417.277,303.013L417.277,303.013z"/>
			</g>
			<path clip-path="url(#SVGID_4_)" fill-rule="evenodd" clip-rule="evenodd" fill="#FFFFFF" d="M417.508,302.467
				c0,0.173-0.143,0.313-0.316,0.313c-0.172,0-0.314-0.141-0.314-0.313c0-0.175,0.143-0.315,0.314-0.315
				C417.365,302.151,417.508,302.292,417.508,302.467L417.508,302.467z"/>
			<g clip-path="url(#SVGID_4_)">
				<path fill="#010101" d="M417.191,302.801c-0.184,0-0.334-0.149-0.334-0.334s0.15-0.335,0.334-0.335
					c0.186,0,0.336,0.15,0.336,0.335S417.377,302.801,417.191,302.801L417.191,302.801z M417.191,302.171
					c-0.162,0-0.295,0.134-0.295,0.296s0.133,0.296,0.295,0.296c0.166,0,0.299-0.134,0.299-0.296S417.357,302.171,417.191,302.171
					L417.191,302.171z"/>
			</g>
			<path clip-path="url(#SVGID_4_)" fill-rule="evenodd" clip-rule="evenodd" fill="#FFFFFF" d="M417.76,301.68
				c0,0.176-0.139,0.316-0.314,0.316c-0.174,0-0.312-0.141-0.312-0.316c0-0.172,0.139-0.315,0.312-0.315
				C417.621,301.364,417.76,301.508,417.76,301.68L417.76,301.68z"/>
			<g clip-path="url(#SVGID_4_)">
				<path fill="#010101" d="M417.445,302.015c-0.182,0-0.332-0.148-0.332-0.335c0-0.185,0.15-0.334,0.332-0.334
					c0.184,0,0.334,0.149,0.334,0.334C417.779,301.866,417.629,302.015,417.445,302.015L417.445,302.015z M417.445,301.385
					c-0.162,0-0.295,0.133-0.295,0.295c0,0.163,0.133,0.299,0.295,0.299c0.164,0,0.299-0.136,0.299-0.299
					C417.744,301.518,417.609,301.385,417.445,301.385L417.445,301.385z"/>
			</g>
			<path clip-path="url(#SVGID_4_)" fill-rule="evenodd" clip-rule="evenodd" fill="#FFFFFF" d="M418.295,301.035
				c0,0.175-0.143,0.315-0.316,0.315c-0.172,0-0.314-0.141-0.314-0.315c0-0.174,0.143-0.317,0.314-0.317
				C418.152,300.718,418.295,300.861,418.295,301.035L418.295,301.035z"/>
			<g clip-path="url(#SVGID_4_)">
				<path fill="#010101" d="M417.979,301.37c-0.184,0-0.332-0.15-0.332-0.335c0-0.187,0.148-0.336,0.332-0.336
					c0.186,0,0.332,0.149,0.332,0.336C418.311,301.22,418.164,301.37,417.979,301.37L417.979,301.37z M417.979,300.738
					c-0.162,0-0.295,0.133-0.295,0.297c0,0.162,0.133,0.297,0.295,0.297s0.297-0.135,0.297-0.297
					C418.275,300.871,418.141,300.738,417.979,300.738L417.979,300.738z"/>
			</g>
			<path clip-path="url(#SVGID_4_)" fill-rule="evenodd" clip-rule="evenodd" fill="#FFFFFF" d="M419.025,300.586
				c0,0.173-0.143,0.313-0.316,0.313s-0.314-0.141-0.314-0.313c0-0.176,0.141-0.314,0.314-0.314S419.025,300.41,419.025,300.586
				L419.025,300.586z"/>
			<g clip-path="url(#SVGID_4_)">
				<path fill="#010101" d="M418.709,300.918c-0.184,0-0.336-0.148-0.336-0.332c0-0.185,0.152-0.334,0.336-0.334
					c0.186,0,0.336,0.149,0.336,0.334C419.045,300.77,418.895,300.918,418.709,300.918L418.709,300.918z M418.709,300.29
					c-0.162,0-0.295,0.134-0.295,0.296s0.133,0.294,0.295,0.294s0.295-0.132,0.295-0.294S418.871,300.29,418.709,300.29
					L418.709,300.29z"/>
			</g>
			<path clip-path="url(#SVGID_4_)" fill-rule="evenodd" clip-rule="evenodd" fill="#FFFFFF" d="M419.84,300.643
				c0,0.172-0.145,0.312-0.318,0.312c-0.17,0-0.314-0.141-0.314-0.312c0-0.176,0.145-0.316,0.314-0.316
				C419.695,300.326,419.84,300.467,419.84,300.643L419.84,300.643z"/>
			<g clip-path="url(#SVGID_4_)">
				<path fill="#010101" d="M419.521,300.976c-0.184,0-0.332-0.149-0.332-0.333c0-0.186,0.148-0.335,0.332-0.335
					c0.186,0,0.336,0.149,0.336,0.335C419.857,300.826,419.707,300.976,419.521,300.976L419.521,300.976z M419.521,300.345
					c-0.162,0-0.295,0.135-0.295,0.298c0,0.162,0.133,0.294,0.295,0.294c0.166,0,0.299-0.132,0.299-0.294
					C419.82,300.479,419.688,300.345,419.521,300.345L419.521,300.345z"/>
			</g>
			<path clip-path="url(#SVGID_4_)" fill-rule="evenodd" clip-rule="evenodd" fill="#FFFFFF" d="M420.652,300.776
				c0,0.173-0.143,0.316-0.314,0.316c-0.178,0-0.316-0.144-0.316-0.316c0-0.174,0.139-0.315,0.316-0.315
				C420.51,300.461,420.652,300.603,420.652,300.776L420.652,300.776z"/>
			<g clip-path="url(#SVGID_4_)">
				<path fill="#010101" d="M420.338,301.111c-0.186,0-0.336-0.148-0.336-0.335c0-0.185,0.15-0.335,0.336-0.335
					c0.184,0,0.332,0.15,0.332,0.335C420.67,300.963,420.521,301.111,420.338,301.111L420.338,301.111z M420.338,300.479
					c-0.166,0-0.297,0.135-0.297,0.297c0,0.163,0.131,0.297,0.297,0.297c0.162,0,0.295-0.134,0.295-0.297
					C420.633,300.614,420.5,300.479,420.338,300.479L420.338,300.479z"/>
			</g>
			<path clip-path="url(#SVGID_4_)" fill-rule="evenodd" clip-rule="evenodd" fill="#FFFFFF" d="M421.465,300.861
				c0,0.174-0.139,0.314-0.312,0.314c-0.176,0-0.314-0.141-0.314-0.314c0-0.175,0.139-0.316,0.314-0.316
				C421.326,300.545,421.465,300.687,421.465,300.861L421.465,300.861z"/>
			<g clip-path="url(#SVGID_4_)">
				<path fill="#010101" d="M421.152,301.194c-0.184,0-0.336-0.148-0.336-0.333s0.152-0.335,0.336-0.335
					c0.182,0,0.332,0.15,0.332,0.335S421.334,301.194,421.152,301.194L421.152,301.194z M421.152,300.564
					c-0.164,0-0.299,0.134-0.299,0.297c0,0.162,0.135,0.294,0.299,0.294c0.162,0,0.295-0.132,0.295-0.294
					C421.447,300.698,421.314,300.564,421.152,300.564L421.152,300.564z"/>
			</g>
			<path clip-path="url(#SVGID_4_)" fill-rule="evenodd" clip-rule="evenodd" fill="#FFFFFF" d="M426.58,304.026
				c0,0.177,0.141,0.317,0.312,0.317c0.176,0,0.314-0.141,0.314-0.317c0-0.173-0.139-0.315-0.314-0.315
				C426.721,303.711,426.58,303.854,426.58,304.026L426.58,304.026z"/>
			<g clip-path="url(#SVGID_4_)">
				<path fill="#010101" d="M426.893,304.361c-0.184,0-0.334-0.148-0.334-0.335c0-0.185,0.15-0.335,0.334-0.335
					s0.334,0.15,0.334,0.335C427.227,304.216,427.08,304.361,426.893,304.361L426.893,304.361z M426.893,303.729
					c-0.162,0-0.293,0.135-0.293,0.297c0,0.163,0.131,0.297,0.293,0.297c0.166,0,0.295-0.131,0.295-0.297
					C427.188,303.864,427.057,303.729,426.893,303.729L426.893,303.729z"/>
			</g>
			<path clip-path="url(#SVGID_4_)" fill-rule="evenodd" clip-rule="evenodd" fill="#FFFFFF" d="M426.982,303.31
				c0,0.175,0.143,0.315,0.316,0.315c0.172,0,0.314-0.141,0.314-0.315c0-0.174-0.143-0.317-0.314-0.317
				C427.125,302.992,426.982,303.136,426.982,303.31L426.982,303.31z"/>
			<g clip-path="url(#SVGID_4_)">
				<path fill="#010101" d="M427.299,303.643c-0.186,0-0.336-0.148-0.336-0.333c0-0.187,0.15-0.336,0.336-0.336
					c0.184,0,0.334,0.149,0.334,0.336C427.633,303.494,427.482,303.643,427.299,303.643L427.299,303.643z M427.299,303.013
					c-0.166,0-0.299,0.133-0.299,0.297c0,0.161,0.133,0.297,0.299,0.297c0.162,0,0.295-0.136,0.295-0.297
					C427.594,303.146,427.461,303.013,427.299,303.013L427.299,303.013z"/>
			</g>
			<path clip-path="url(#SVGID_4_)" fill-rule="evenodd" clip-rule="evenodd" fill="#FFFFFF" d="M427.068,302.467
				c0,0.173,0.139,0.313,0.312,0.313c0.176,0,0.314-0.141,0.314-0.313c0-0.175-0.139-0.315-0.314-0.315
				C427.207,302.151,427.068,302.292,427.068,302.467L427.068,302.467z"/>
			<g clip-path="url(#SVGID_4_)">
				<path fill="#010101" d="M427.381,302.801c-0.182,0-0.332-0.149-0.332-0.334s0.15-0.335,0.332-0.335
					c0.184,0,0.334,0.15,0.334,0.335S427.564,302.801,427.381,302.801L427.381,302.801z M427.381,302.171
					c-0.162,0-0.297,0.134-0.297,0.296s0.135,0.296,0.297,0.296c0.164,0,0.295-0.134,0.295-0.296S427.545,302.171,427.381,302.171
					L427.381,302.171z"/>
			</g>
			<path clip-path="url(#SVGID_4_)" fill-rule="evenodd" clip-rule="evenodd" fill="#FFFFFF" d="M426.814,301.68
				c0,0.176,0.141,0.316,0.312,0.316c0.178,0,0.316-0.141,0.316-0.316c0-0.172-0.139-0.315-0.316-0.315
				C426.955,301.364,426.814,301.508,426.814,301.68L426.814,301.68z"/>
			<g clip-path="url(#SVGID_4_)">
				<path fill="#010101" d="M427.127,302.015c-0.182,0-0.332-0.148-0.332-0.335c0-0.185,0.15-0.334,0.332-0.334
					c0.186,0,0.336,0.149,0.336,0.334C427.463,301.866,427.312,302.015,427.127,302.015L427.127,302.015z M427.127,301.385
					c-0.162,0-0.295,0.133-0.295,0.295c0,0.163,0.133,0.299,0.295,0.299c0.166,0,0.299-0.136,0.299-0.299
					C427.426,301.518,427.293,301.385,427.127,301.385L427.127,301.385z"/>
			</g>
			<path clip-path="url(#SVGID_4_)" fill-rule="evenodd" clip-rule="evenodd" fill="#FFFFFF" d="M426.281,301.035
				c0,0.175,0.139,0.315,0.314,0.315c0.174,0,0.316-0.141,0.316-0.315c0-0.174-0.143-0.317-0.316-0.317
				C426.42,300.718,426.281,300.861,426.281,301.035L426.281,301.035z"/>
			<g clip-path="url(#SVGID_4_)">
				<path fill="#010101" d="M426.596,301.37c-0.184,0-0.334-0.15-0.334-0.335c0-0.187,0.15-0.336,0.334-0.336
					c0.186,0,0.332,0.149,0.332,0.336C426.928,301.22,426.781,301.37,426.596,301.37L426.596,301.37z M426.596,300.738
					c-0.164,0-0.295,0.133-0.295,0.297c0,0.162,0.131,0.297,0.295,0.297c0.162,0,0.297-0.135,0.297-0.297
					C426.893,300.871,426.758,300.738,426.596,300.738L426.596,300.738z"/>
			</g>
			<path clip-path="url(#SVGID_4_)" fill-rule="evenodd" clip-rule="evenodd" fill="#FFFFFF" d="M425.551,300.586
				c0,0.173,0.143,0.313,0.314,0.313c0.174,0,0.316-0.141,0.316-0.313c0-0.176-0.143-0.314-0.316-0.314
				C425.693,300.271,425.551,300.41,425.551,300.586L425.551,300.586z"/>
			<g clip-path="url(#SVGID_4_)">
				<path fill="#010101" d="M425.865,300.918c-0.184,0-0.334-0.148-0.334-0.332c0-0.185,0.15-0.334,0.334-0.334
					c0.186,0,0.336,0.149,0.336,0.334C426.201,300.77,426.051,300.918,425.865,300.918L425.865,300.918z M425.865,300.29
					c-0.16,0-0.297,0.134-0.297,0.296s0.137,0.294,0.297,0.294c0.162,0,0.297-0.132,0.297-0.294S426.027,300.29,425.865,300.29
					L425.865,300.29z"/>
			</g>
			<path clip-path="url(#SVGID_4_)" fill-rule="evenodd" clip-rule="evenodd" fill="#FFFFFF" d="M424.734,300.643
				c0,0.172,0.143,0.312,0.316,0.312s0.314-0.141,0.314-0.312c0-0.176-0.141-0.316-0.314-0.316S424.734,300.467,424.734,300.643
				L424.734,300.643z"/>
			<g clip-path="url(#SVGID_4_)">
				<path fill="#010101" d="M425.051,300.976c-0.186,0-0.336-0.149-0.336-0.333c0-0.186,0.15-0.335,0.336-0.335
					s0.336,0.149,0.336,0.335C425.387,300.826,425.236,300.976,425.051,300.976L425.051,300.976z M425.051,300.345
					c-0.162,0-0.295,0.135-0.295,0.298c0,0.162,0.133,0.294,0.295,0.294s0.295-0.132,0.295-0.294
					C425.346,300.479,425.213,300.345,425.051,300.345L425.051,300.345z"/>
			</g>
			<path clip-path="url(#SVGID_4_)" fill-rule="evenodd" clip-rule="evenodd" fill="#FFFFFF" d="M423.922,300.776
				c0,0.173,0.143,0.316,0.316,0.316s0.314-0.144,0.314-0.316c0-0.174-0.141-0.315-0.314-0.315S423.922,300.603,423.922,300.776
				L423.922,300.776z"/>
			<g clip-path="url(#SVGID_4_)">
				<path fill="#010101" d="M424.238,301.111c-0.186,0-0.336-0.148-0.336-0.335c0-0.185,0.15-0.335,0.336-0.335
					c0.184,0,0.336,0.15,0.336,0.335C424.574,300.963,424.422,301.111,424.238,301.111L424.238,301.111z M424.238,300.479
					c-0.162,0-0.295,0.135-0.295,0.297c0,0.163,0.133,0.297,0.295,0.297s0.295-0.134,0.295-0.297
					C424.533,300.614,424.4,300.479,424.238,300.479L424.238,300.479z"/>
			</g>
			<path clip-path="url(#SVGID_4_)" fill-rule="evenodd" clip-rule="evenodd" fill="#FFFFFF" d="M423.107,300.861
				c0,0.174,0.143,0.314,0.314,0.314c0.178,0,0.316-0.141,0.316-0.314c0-0.175-0.139-0.316-0.316-0.316
				C423.25,300.545,423.107,300.687,423.107,300.861L423.107,300.861z"/>
			<g clip-path="url(#SVGID_4_)">
				<path fill="#010101" d="M423.422,301.194c-0.184,0-0.332-0.148-0.332-0.333s0.148-0.335,0.332-0.335
					c0.186,0,0.336,0.15,0.336,0.335S423.607,301.194,423.422,301.194L423.422,301.194z M423.422,300.564
					c-0.16,0-0.295,0.134-0.295,0.297c0,0.162,0.135,0.294,0.295,0.294c0.162,0,0.297-0.132,0.297-0.294
					C423.719,300.698,423.584,300.564,423.422,300.564L423.422,300.564z"/>
			</g>
			<path clip-path="url(#SVGID_4_)" fill-rule="evenodd" clip-rule="evenodd" fill="#FFFFFF" d="M422.645,303.319
				c0,0.175-0.139,0.315-0.316,0.315c-0.172,0-0.314-0.141-0.314-0.315c0-0.174,0.143-0.314,0.314-0.314
				C422.506,303.005,422.645,303.146,422.645,303.319L422.645,303.319z"/>
			<g clip-path="url(#SVGID_4_)">
				<path fill="#010101" d="M422.328,303.654c-0.182,0-0.332-0.15-0.332-0.335s0.15-0.334,0.332-0.334
					c0.186,0,0.336,0.149,0.336,0.334S422.514,303.654,422.328,303.654L422.328,303.654z M422.328,303.023
					c-0.162,0-0.295,0.134-0.295,0.296s0.133,0.297,0.295,0.297c0.166,0,0.297-0.135,0.297-0.297S422.494,303.023,422.328,303.023
					L422.328,303.023z"/>
			</g>
			<path clip-path="url(#SVGID_4_)" fill-rule="evenodd" clip-rule="evenodd" fill="#FFFFFF" d="M422.645,302.76
				c0,0.175-0.139,0.313-0.316,0.313c-0.172,0-0.314-0.139-0.314-0.313c0-0.174,0.143-0.314,0.314-0.314
				C422.506,302.445,422.645,302.586,422.645,302.76L422.645,302.76z"/>
			<g clip-path="url(#SVGID_4_)">
				<path fill="#010101" d="M422.328,303.092c-0.182,0-0.332-0.147-0.332-0.332c0-0.186,0.15-0.334,0.332-0.334
					c0.186,0,0.336,0.148,0.336,0.334C422.664,302.944,422.514,303.092,422.328,303.092L422.328,303.092z M422.328,302.464
					c-0.162,0-0.295,0.134-0.295,0.296c0,0.161,0.133,0.294,0.295,0.294c0.166,0,0.297-0.133,0.297-0.294
					C422.625,302.598,422.494,302.464,422.328,302.464L422.328,302.464z"/>
			</g>
			<path clip-path="url(#SVGID_4_)" fill-rule="evenodd" clip-rule="evenodd" fill="#FFFFFF" d="M422.645,302.308
				c0,0.176-0.139,0.316-0.316,0.316c-0.172,0-0.314-0.141-0.314-0.316c0-0.172,0.143-0.312,0.314-0.312
				C422.506,301.995,422.645,302.136,422.645,302.308L422.645,302.308z"/>
			<g clip-path="url(#SVGID_4_)">
				<path fill="#010101" d="M422.328,302.643c-0.182,0-0.332-0.148-0.332-0.335c0-0.184,0.15-0.332,0.332-0.332
					c0.186,0,0.336,0.148,0.336,0.332C422.664,302.494,422.514,302.643,422.328,302.643L422.328,302.643z M422.328,302.014
					c-0.162,0-0.295,0.132-0.295,0.294c0,0.163,0.133,0.298,0.295,0.298c0.166,0,0.297-0.135,0.297-0.298
					C422.625,302.146,422.494,302.014,422.328,302.014L422.328,302.014z"/>
			</g>
			<path clip-path="url(#SVGID_4_)" fill-rule="evenodd" clip-rule="evenodd" fill="#FFFFFF" d="M422.645,301.9
				c0,0.174-0.139,0.314-0.316,0.314c-0.172,0-0.314-0.141-0.314-0.314s0.143-0.317,0.314-0.317
				C422.506,301.583,422.645,301.727,422.645,301.9L422.645,301.9z"/>
			<g clip-path="url(#SVGID_4_)">
				<path fill="#010101" d="M422.328,302.235c-0.182,0-0.332-0.15-0.332-0.335c0-0.187,0.15-0.336,0.332-0.336
					c0.186,0,0.336,0.149,0.336,0.336C422.664,302.085,422.514,302.235,422.328,302.235L422.328,302.235z M422.328,301.604
					c-0.162,0-0.295,0.133-0.295,0.297c0,0.163,0.133,0.297,0.295,0.297c0.166,0,0.297-0.134,0.297-0.297
					C422.625,301.736,422.494,301.604,422.328,301.604L422.328,301.604z"/>
			</g>
			<path clip-path="url(#SVGID_4_)" fill-rule="evenodd" clip-rule="evenodd" fill="#FFFFFF" d="M422.645,300.586
				c0,0.173-0.139,0.313-0.316,0.313c-0.172,0-0.314-0.141-0.314-0.313c0-0.176,0.143-0.314,0.314-0.314
				C422.506,300.271,422.645,300.41,422.645,300.586L422.645,300.586z"/>
			<g clip-path="url(#SVGID_4_)">
				<path fill="#010101" d="M422.328,300.918c-0.182,0-0.332-0.148-0.332-0.332c0-0.185,0.15-0.334,0.332-0.334
					c0.186,0,0.336,0.149,0.336,0.334C422.664,300.77,422.514,300.918,422.328,300.918L422.328,300.918z M422.328,300.29
					c-0.162,0-0.295,0.134-0.295,0.296s0.133,0.294,0.295,0.294c0.166,0,0.297-0.132,0.297-0.294S422.494,300.29,422.328,300.29
					L422.328,300.29z"/>
			</g>
			<path clip-path="url(#SVGID_4_)" fill-rule="evenodd" clip-rule="evenodd" fill="#FFFFFF" d="M422.645,300.643
				c0,0.172-0.139,0.312-0.316,0.312c-0.172,0-0.314-0.141-0.314-0.312c0-0.176,0.143-0.316,0.314-0.316
				C422.506,300.326,422.645,300.467,422.645,300.643L422.645,300.643z"/>
			<g clip-path="url(#SVGID_4_)">
				<path fill="#010101" d="M422.328,300.976c-0.182,0-0.332-0.149-0.332-0.333c0-0.186,0.15-0.335,0.332-0.335
					c0.186,0,0.336,0.149,0.336,0.335C422.664,300.826,422.514,300.976,422.328,300.976L422.328,300.976z M422.328,300.345
					c-0.162,0-0.295,0.135-0.295,0.298c0,0.162,0.133,0.294,0.295,0.294c0.166,0,0.297-0.132,0.297-0.294
					C422.625,300.479,422.494,300.345,422.328,300.345L422.328,300.345z"/>
			</g>
			<path clip-path="url(#SVGID_4_)" fill-rule="evenodd" clip-rule="evenodd" fill="#FFFFFF" d="M422.645,300.934
				c0,0.174-0.139,0.314-0.316,0.314c-0.172,0-0.314-0.141-0.314-0.314c0-0.173,0.143-0.313,0.314-0.313
				C422.506,300.62,422.645,300.761,422.645,300.934L422.645,300.934z"/>
			<g clip-path="url(#SVGID_4_)">
				<path fill="#010101" d="M422.328,301.267c-0.182,0-0.332-0.149-0.332-0.333c0-0.185,0.15-0.333,0.332-0.333
					c0.186,0,0.336,0.148,0.336,0.333C422.664,301.117,422.514,301.267,422.328,301.267L422.328,301.267z M422.328,300.639
					c-0.162,0-0.295,0.134-0.295,0.295c0,0.162,0.133,0.295,0.295,0.295c0.166,0,0.297-0.133,0.297-0.295
					C422.625,300.772,422.494,300.639,422.328,300.639L422.328,300.639z"/>
			</g>
			<path clip-path="url(#SVGID_4_)" fill-rule="evenodd" clip-rule="evenodd" fill="#FFFFFF" d="M422.645,301.332
				c0,0.176-0.139,0.316-0.316,0.316c-0.172,0-0.314-0.141-0.314-0.316c0-0.172,0.143-0.314,0.314-0.314
				C422.506,301.018,422.645,301.16,422.645,301.332L422.645,301.332z"/>
			<g clip-path="url(#SVGID_4_)">
				<path fill="#010101" d="M422.328,301.667c-0.182,0-0.332-0.149-0.332-0.335c0-0.184,0.15-0.333,0.332-0.333
					c0.186,0,0.336,0.149,0.336,0.333C422.664,301.518,422.514,301.667,422.328,301.667L422.328,301.667z M422.328,301.038
					c-0.162,0-0.295,0.132-0.295,0.294c0,0.163,0.133,0.297,0.295,0.297c0.166,0,0.297-0.134,0.297-0.297
					C422.625,301.17,422.494,301.038,422.328,301.038L422.328,301.038z"/>
			</g>
			<path clip-path="url(#SVGID_4_)" fill-rule="evenodd" clip-rule="evenodd" fill="#FFFFFF" d="M422.732,304.677
				c0,0.224-0.182,0.407-0.406,0.407s-0.41-0.184-0.41-0.407c0-0.227,0.186-0.409,0.41-0.409S422.732,304.45,422.732,304.677
				L422.732,304.677z"/>
			<g clip-path="url(#SVGID_4_)">
				<path fill="#010101" d="M422.326,305.104c-0.236,0-0.43-0.19-0.43-0.427c0-0.235,0.193-0.429,0.43-0.429
					s0.426,0.193,0.426,0.429C422.752,304.913,422.562,305.104,422.326,305.104L422.326,305.104z M422.326,304.289
					c-0.217,0-0.387,0.174-0.387,0.388s0.17,0.387,0.387,0.387c0.213,0,0.387-0.173,0.387-0.387S422.539,304.289,422.326,304.289
					L422.326,304.289z"/>
			</g>
			<path clip-path="url(#SVGID_4_)" fill-rule="evenodd" clip-rule="evenodd" fill="#FFFFFF" d="M418.479,305.413
				c0,0.225-0.182,0.407-0.408,0.407c-0.225,0-0.406-0.183-0.406-0.407s0.182-0.406,0.406-0.406
				C418.297,305.007,418.479,305.188,418.479,305.413L418.479,305.413z"/>
			<g clip-path="url(#SVGID_4_)">
				<path fill="#010101" d="M418.07,305.841c-0.232,0-0.426-0.192-0.426-0.428c0-0.234,0.193-0.426,0.426-0.426
					c0.238,0,0.428,0.191,0.428,0.426C418.498,305.648,418.309,305.841,418.07,305.841L418.07,305.841z M418.07,305.026
					c-0.213,0-0.387,0.174-0.387,0.387c0,0.215,0.174,0.387,0.387,0.387c0.215,0,0.389-0.172,0.389-0.387
					C418.459,305.2,418.285,305.026,418.07,305.026L418.07,305.026z"/>
			</g>
			<path clip-path="url(#SVGID_4_)" fill-rule="evenodd" clip-rule="evenodd" fill="#FFFFFF" d="M426.965,305.413
				c0,0.225-0.182,0.407-0.406,0.407s-0.406-0.183-0.406-0.407s0.182-0.406,0.406-0.406S426.965,305.188,426.965,305.413
				L426.965,305.413z"/>
			<g clip-path="url(#SVGID_4_)">
				<path fill="#010101" d="M426.559,305.841c-0.234,0-0.428-0.192-0.428-0.428c0-0.234,0.193-0.426,0.428-0.426
					c0.236,0,0.428,0.191,0.428,0.426C426.986,305.648,426.795,305.841,426.559,305.841L426.559,305.841z M426.559,305.026
					c-0.213,0-0.385,0.174-0.385,0.387c0,0.215,0.172,0.387,0.385,0.387s0.387-0.172,0.387-0.387
					C426.945,305.2,426.771,305.026,426.559,305.026L426.559,305.026z"/>
			</g>
			
				<rect x="421.738" y="306.058" clip-path="url(#SVGID_4_)" fill-rule="evenodd" clip-rule="evenodd" fill="#2B3379" width="1.256" height="0.547"/>
			<g clip-path="url(#SVGID_4_)">
				<path fill="#010101" d="M423.008,306.62h-1.27l-0.018-0.562l1.273-0.016L423.008,306.62L423.008,306.62z M422.979,306.058
					l-1.24,0.015l0.014,0.532l1.227-0.014V306.058L422.979,306.058z"/>
			</g>
			<path clip-path="url(#SVGID_4_)" fill-rule="evenodd" clip-rule="evenodd" fill="#4E833C" d="M423.74,306.463
				c0.004,0.162,0.26,0.321,0.572,0.355c0.312,0.031,0.559-0.076,0.557-0.242c-0.004-0.162-0.262-0.32-0.572-0.354
				C423.984,306.193,423.738,306.3,423.74,306.463L423.74,306.463z"/>
			<g clip-path="url(#SVGID_4_)">
				<path fill="#010101" d="M424.418,306.85L424.418,306.85l-0.109-0.005c-0.328-0.037-0.594-0.204-0.596-0.382
					c0-0.051,0.02-0.101,0.062-0.141c0.08-0.081,0.238-0.131,0.42-0.131l0.105,0.006c0.33,0.034,0.588,0.2,0.596,0.379
					c0,0.053-0.021,0.102-0.062,0.143C424.756,306.803,424.602,306.85,424.418,306.85L424.418,306.85z M424.256,306.248
					c-0.244,0-0.379,0.043-0.443,0.111c-0.031,0.031-0.049,0.065-0.047,0.104c0.004,0.146,0.254,0.297,0.549,0.329l0.104,0.005
					c0.166,0,0.309-0.043,0.379-0.114c0.031-0.031,0.047-0.067,0.047-0.106c-0.004-0.146-0.256-0.297-0.549-0.328
					C424.281,306.248,424.27,306.248,424.256,306.248L424.256,306.248z"/>
			</g>
			<polygon clip-path="url(#SVGID_4_)" fill-rule="evenodd" clip-rule="evenodd" fill="#BA2025" points="418.195,306.753 
				417.879,307.066 418.246,307.277 419.096,307.05 418.945,306.566 			"/>
			<g clip-path="url(#SVGID_4_)">
				<path fill="#010101" d="M418.244,307.298l-0.373-0.214l0.311-0.346l0.758-0.19l0.176,0.496L418.244,307.298L418.244,307.298z
					 M418.926,306.573l-0.725,0.198l-0.307,0.31l0.352,0.176l0.844-0.226L418.926,306.573L418.926,306.573z"/>
			</g>
			<polygon clip-path="url(#SVGID_4_)" fill-rule="evenodd" clip-rule="evenodd" fill="#BA2025" points="426.537,306.753 
				426.852,307.066 426.486,307.277 425.637,307.05 425.787,306.566 			"/>
			<g clip-path="url(#SVGID_4_)">
				<path fill="#010101" d="M426.49,307.298l-0.859-0.229l0.137-0.509l0.775,0.172l0.322,0.32L426.49,307.298L426.49,307.298z
					 M425.781,306.586l-0.125,0.471l0.826,0.2l0.357-0.207l-0.318-0.283L425.781,306.586L425.781,306.586z"/>
			</g>
			<path clip-path="url(#SVGID_4_)" fill-rule="evenodd" clip-rule="evenodd" fill="#4E833C" d="M420.99,306.463
				c-0.002,0.162-0.262,0.321-0.57,0.355c-0.312,0.031-0.561-0.076-0.557-0.242c0.002-0.162,0.258-0.32,0.57-0.354
				C420.746,306.193,420.996,306.3,420.99,306.463L420.99,306.463z"/>
			<g clip-path="url(#SVGID_4_)">
				<path fill="#010101" d="M420.314,306.85c-0.186,0-0.336-0.047-0.418-0.131c-0.039-0.041-0.062-0.09-0.059-0.143
					c0.002-0.179,0.264-0.345,0.594-0.379l0.107-0.006c0.182,0,0.34,0.05,0.42,0.132c0.041,0.04,0.061,0.089,0.057,0.14
					c-0.002,0.178-0.264,0.345-0.594,0.382L420.314,306.85L420.314,306.85z M420.539,306.244c-0.395,0.035-0.648,0.186-0.65,0.334
					c0,0.038,0.014,0.073,0.045,0.104c0.07,0.073,0.213,0.114,0.381,0.114l0.102-0.005c0.293-0.032,0.547-0.183,0.549-0.331
					c0-0.036-0.014-0.07-0.043-0.102C420.852,306.287,420.709,306.244,420.539,306.244L420.539,306.244z"/>
			</g>
			<path clip-path="url(#SVGID_4_)" fill-rule="evenodd" clip-rule="evenodd" fill="#FFFFFF" d="M421.465,306.097
				c0,0.088-0.068,0.156-0.152,0.156c-0.088,0-0.156-0.068-0.156-0.156c0-0.083,0.068-0.153,0.156-0.153
				C421.396,305.943,421.465,306.014,421.465,306.097L421.465,306.097z"/>
			<g clip-path="url(#SVGID_4_)">
				<path fill="#010101" d="M421.312,306.266c-0.094,0-0.172-0.075-0.172-0.169c0-0.18,0.336-0.184,0.336,0
					C421.477,306.191,421.406,306.266,421.312,306.266L421.312,306.266z M421.312,305.956c-0.08,0-0.146,0.063-0.146,0.141
					c0,0.159,0.285,0.161,0.285,0C421.451,306.019,421.389,305.956,421.312,305.956L421.312,305.956z"/>
			</g>
			<path clip-path="url(#SVGID_4_)" fill-rule="evenodd" clip-rule="evenodd" fill="#FFFFFF" d="M421.514,306.591
				c0,0.085-0.068,0.154-0.156,0.154c-0.086,0-0.154-0.069-0.154-0.154c0-0.084,0.068-0.155,0.154-0.155
				C421.445,306.436,421.514,306.507,421.514,306.591L421.514,306.591z"/>
			<g clip-path="url(#SVGID_4_)">
				<path fill="#010101" d="M421.357,306.76c-0.092,0-0.168-0.077-0.168-0.169c0-0.187,0.336-0.184,0.336,0
					C421.525,306.683,421.451,306.76,421.357,306.76L421.357,306.76z M421.357,306.45c-0.076,0-0.139,0.062-0.139,0.141
					c0,0.157,0.281,0.156,0.281,0C421.5,306.513,421.438,306.45,421.357,306.45L421.357,306.45z"/>
			</g>
			<path clip-path="url(#SVGID_4_)" fill-rule="evenodd" clip-rule="evenodd" fill="#FFFFFF" d="M419.531,306.448
				c0,0.084-0.072,0.151-0.156,0.151c-0.086,0-0.154-0.067-0.154-0.151c0-0.086,0.068-0.157,0.154-0.157
				C419.459,306.291,419.531,306.362,419.531,306.448L419.531,306.448z"/>
			<g clip-path="url(#SVGID_4_)">
				<path fill="#010101" d="M419.375,306.612c-0.094,0-0.168-0.073-0.168-0.164c0.002-0.188,0.334-0.186,0.334,0
					C419.541,306.538,419.469,306.612,419.375,306.612L419.375,306.612z M419.375,306.304c-0.078,0-0.141,0.065-0.141,0.145
					c-0.002,0.152,0.281,0.152,0.281,0C419.516,306.369,419.453,306.304,419.375,306.304L419.375,306.304z"/>
			</g>
			<path clip-path="url(#SVGID_4_)" fill-rule="evenodd" clip-rule="evenodd" fill="#FFFFFF" d="M419.723,306.912
				c0,0.083-0.066,0.154-0.156,0.154c-0.084,0-0.152-0.071-0.152-0.154c0-0.086,0.068-0.155,0.152-0.155
				C419.656,306.757,419.723,306.826,419.723,306.912L419.723,306.912z"/>
			<g clip-path="url(#SVGID_4_)">
				<path fill="#010101" d="M419.566,307.079c-0.09,0-0.166-0.075-0.166-0.167c0.002-0.186,0.338-0.187,0.334,0
					C419.734,307.004,419.66,307.079,419.566,307.079L419.566,307.079z M419.566,306.77c-0.076,0-0.139,0.062-0.139,0.143
					c0,0.154,0.281,0.157,0.281,0C419.709,306.832,419.646,306.77,419.566,306.77L419.566,306.77z"/>
			</g>
			<path clip-path="url(#SVGID_4_)" fill-rule="evenodd" clip-rule="evenodd" fill="#FFFFFF" d="M423.262,306.097
				c0,0.088,0.066,0.156,0.152,0.156c0.088,0,0.156-0.068,0.156-0.156c0-0.083-0.068-0.153-0.156-0.153
				C423.328,305.943,423.262,306.014,423.262,306.097L423.262,306.097z"/>
			<g clip-path="url(#SVGID_4_)">
				<path fill="#010101" d="M423.414,306.266c-0.094,0-0.168-0.074-0.168-0.169c0-0.184,0.338-0.184,0.338,0
					C423.584,306.191,423.508,306.266,423.414,306.266L423.414,306.266z M423.414,305.956c-0.076,0-0.143,0.062-0.143,0.141
					c0,0.161,0.285,0.159,0.285,0C423.557,306.019,423.494,305.956,423.414,305.956L423.414,305.956z"/>
			</g>
			<path clip-path="url(#SVGID_4_)" fill-rule="evenodd" clip-rule="evenodd" fill="#FFFFFF" d="M423.213,306.591
				c0,0.085,0.068,0.154,0.152,0.154c0.088,0,0.156-0.069,0.156-0.154c0-0.084-0.068-0.155-0.156-0.155
				C423.281,306.436,423.213,306.507,423.213,306.591L423.213,306.591z"/>
			<g clip-path="url(#SVGID_4_)">
				<path fill="#010101" d="M423.365,306.76c-0.09,0-0.166-0.077-0.166-0.169c0-0.185,0.334-0.185,0.334,0
					C423.533,306.683,423.459,306.76,423.365,306.76L423.365,306.76z M423.365,306.45c-0.076,0-0.141,0.062-0.141,0.141
					c0,0.157,0.283,0.157,0.283,0C423.508,306.513,423.445,306.45,423.365,306.45L423.365,306.45z"/>
			</g>
			<path clip-path="url(#SVGID_4_)" fill-rule="evenodd" clip-rule="evenodd" fill="#FFFFFF" d="M425.195,306.448
				c0,0.084,0.068,0.151,0.154,0.151c0.084,0,0.152-0.067,0.152-0.151c0-0.086-0.068-0.157-0.152-0.157
				C425.264,306.291,425.195,306.362,425.195,306.448L425.195,306.448z"/>
			<g clip-path="url(#SVGID_4_)">
				<path fill="#010101" d="M425.35,306.612c-0.094,0-0.168-0.073-0.168-0.164c0-0.188,0.336-0.188,0.336,0
					C425.518,306.539,425.443,306.612,425.35,306.612L425.35,306.612z M425.35,306.304c-0.078,0-0.141,0.065-0.141,0.145
					c0,0.155,0.281,0.155,0.281,0C425.49,306.369,425.428,306.304,425.35,306.304L425.35,306.304z"/>
			</g>
			<path clip-path="url(#SVGID_4_)" fill-rule="evenodd" clip-rule="evenodd" fill="#FFFFFF" d="M425.002,306.912
				c0,0.083,0.066,0.154,0.154,0.154c0.084,0,0.152-0.071,0.152-0.154c0-0.086-0.068-0.155-0.152-0.155
				C425.068,306.757,425.002,306.826,425.002,306.912L425.002,306.912z"/>
			<g clip-path="url(#SVGID_4_)">
				<path fill="#010101" d="M425.156,307.079c-0.092,0-0.168-0.075-0.168-0.167c0-0.186,0.336-0.187,0.336,0
					C425.324,307.004,425.246,307.079,425.156,307.079L425.156,307.079z M425.156,306.77c-0.078,0-0.143,0.062-0.143,0.143
					c0,0.154,0.285,0.157,0.285,0C425.299,306.832,425.236,306.77,425.156,306.77L425.156,306.77z"/>
			</g>
			<path clip-path="url(#SVGID_4_)" fill="#FFFFFF" d="M425.49,308.607c0.121-0.02,0.834-0.188,0.984-0.279
				c-0.098-0.175-0.27-0.312-0.137-0.253c0.074,0.03,0.131-0.21-0.08-0.395c-0.615,0.201-2.09,0.569-3.939,0.569
				c-1.893,0-3.385-0.39-4.002-0.588c-0.213,0.183-0.145,0.392-0.158,0.469c0,0,0,0.098,0.039,0.178
				c0.207,0.227,0.885,0.338,1,0.359c0.557,0.096,1.115,0.239,3.121,0.239C424.172,308.907,424.934,308.704,425.49,308.607
				L425.49,308.607z"/>
			<g clip-path="url(#SVGID_4_)">
				<path fill="#010101" d="M422.318,308.938c-1.805,0-2.441-0.116-2.953-0.208l-0.17-0.031c-0.551-0.1-0.885-0.224-1.02-0.37
					c-0.047-0.092-0.049-0.194-0.049-0.198c0-0.168-0.008-0.34,0.17-0.492c0.455,0.131,1.994,0.58,4.021,0.58
					c2.088,0,3.639-0.473,3.928-0.568c0.191,0.147,0.205,0.316,0.178,0.396h-0.006l-0.092,0.056c0.076,0.069,0.133,0.136,0.174,0.21
					c-0.166,0.135-0.881,0.306-1.004,0.325l-0.25,0.047C424.715,308.785,423.914,308.938,422.318,308.938L422.318,308.938z
					 M418.309,307.691c-0.125,0.128-0.119,0.274-0.117,0.372c-0.002,0.068-0.002,0.159,0.035,0.23
					c0.082,0.088,0.318,0.225,0.955,0.34l0.195,0.034c0.508,0.094,1.139,0.208,2.941,0.208c1.59,0,2.389-0.151,2.918-0.253
					l0.25-0.045c0.115-0.02,0.826-0.189,0.971-0.275c-0.049-0.031-0.102-0.096-0.139-0.143l-0.057-0.11l0.107-0.043
					c0.014-0.06,0-0.188-0.131-0.304c-0.262,0.103-1.82,0.578-3.92,0.578C420.283,308.281,418.734,307.829,418.309,307.691
					L418.309,307.691z"/>
			</g>
			<path clip-path="url(#SVGID_4_)" fill="#FFFFFF" d="M419.139,307.334c-0.119,0.022-0.869,0.288-1.02,0.378
				c0,0.003,0,0.003,0,0.003c0.01,0.078-0.131,0.439,0.078,0.625c0.613-0.201,2.338-0.8,4.191-0.8c1.895,0,3.463,0.599,4.076,0.8
				c0.211-0.186,0.068-0.547,0.084-0.625c0,0-0.004,0,0-0.003c-0.152-0.09-0.904-0.355-1.021-0.378
				c-0.557-0.097-1.131-0.453-3.139-0.453C420.533,306.881,419.691,307.237,419.139,307.334L419.139,307.334z"/>
			<g clip-path="url(#SVGID_4_)">
				<path fill="#010101" d="M426.475,308.375l-0.219-0.072c-0.699-0.239-2.156-0.731-3.867-0.731c-1.76,0-3.389,0.538-4.086,0.767
					l-0.125,0.025c-0.174-0.151-0.127-0.403-0.102-0.553l-0.004-0.02l0.029-0.103c0.156-0.097,0.912-0.363,1.027-0.385
					c0.131-0.024,0.277-0.06,0.447-0.103c0.551-0.141,1.387-0.352,2.812-0.352c1.514,0,2.205,0.2,2.707,0.345
					c0.162,0.046,0.301,0.085,0.436,0.109c0.115,0.021,0.871,0.286,1.031,0.382l0.027,0.13c0.023,0.149,0.066,0.397-0.104,0.548
					L426.475,308.375L426.475,308.375z M418.139,307.738c0.012,0,0.006,0.036-0.004,0.083c-0.021,0.138-0.062,0.367,0.086,0.495
					c0.762-0.269,2.398-0.808,4.168-0.808c1.721,0,3.186,0.497,3.887,0.734l0.182,0.062c0.131-0.13,0.094-0.349,0.07-0.48
					c-0.008-0.053-0.016-0.091-0.01-0.116c-0.131-0.057-0.875-0.321-0.998-0.346c-0.137-0.023-0.275-0.063-0.441-0.11
					c-0.5-0.144-1.184-0.341-2.689-0.341c-1.418,0-2.248,0.21-2.799,0.35c-0.17,0.044-0.318,0.08-0.449,0.102
					c-0.119,0.024-0.863,0.289-1.008,0.375C418.135,307.738,418.135,307.738,418.139,307.738L418.139,307.738z"/>
			</g>
			<path clip-path="url(#SVGID_4_)" fill-rule="evenodd" clip-rule="evenodd" fill="#010101" d="M418.596,307.785
				c0.002,0.025-0.018,0.049-0.045,0.052c-0.025,0.004-0.053-0.015-0.055-0.04c-0.006-0.025,0.018-0.049,0.043-0.053
				C418.57,307.74,418.592,307.76,418.596,307.785L418.596,307.785z"/>
			<g clip-path="url(#SVGID_4_)">
				<path fill="none" d="M418.596,307.785c0.002,0.025-0.018,0.049-0.045,0.052c-0.025,0.004-0.053-0.015-0.055-0.04
					c-0.006-0.025,0.018-0.049,0.043-0.053C418.57,307.74,418.592,307.76,418.596,307.785z"/>
			</g>
			<path clip-path="url(#SVGID_4_)" fill-rule="evenodd" clip-rule="evenodd" fill="#010101" d="M418.539,307.913
				c0.006,0.024-0.018,0.047-0.045,0.052c-0.029,0.002-0.055-0.015-0.055-0.042c-0.004-0.025,0.014-0.048,0.043-0.052
				C418.51,307.868,418.535,307.888,418.539,307.913L418.539,307.913z"/>
			<g clip-path="url(#SVGID_4_)">
				<path fill="none" d="M418.539,307.913c0.006,0.024-0.018,0.047-0.045,0.052c-0.029,0.002-0.055-0.015-0.055-0.042
					c-0.004-0.025,0.014-0.048,0.043-0.052C418.51,307.868,418.535,307.888,418.539,307.913z"/>
			</g>
			<path clip-path="url(#SVGID_4_)" fill-rule="evenodd" clip-rule="evenodd" fill="#010101" d="M418.65,307.981
				c0.004,0.027-0.016,0.051-0.043,0.053c-0.029,0.001-0.057-0.016-0.061-0.043c0-0.024,0.018-0.048,0.045-0.05
				C418.621,307.938,418.646,307.956,418.65,307.981L418.65,307.981z"/>
			<g clip-path="url(#SVGID_4_)">
				<path fill="none" d="M418.65,307.981c0.004,0.027-0.016,0.051-0.043,0.053c-0.029,0.001-0.057-0.016-0.061-0.043
					c0-0.024,0.018-0.048,0.045-0.05C418.621,307.938,418.646,307.956,418.65,307.981z"/>
			</g>
			<polygon clip-path="url(#SVGID_4_)" fill-rule="evenodd" clip-rule="evenodd" fill="#010101" points="418.553,307.897 
				419,307.69 418.785,307.834 418.928,307.815 418.803,307.888 419.02,307.879 			"/>
			<g clip-path="url(#SVGID_4_)">
				<polygon fill="#010101" points="418.432,307.928 418.988,307.668 418.789,307.857 418.984,307.669 418.65,307.868 
					418.852,307.86 418.926,307.79 418.859,307.86 419.02,307.854 418.814,307.909 419.016,307.855 418.803,307.912 
					418.832,307.882 418.432,307.928 				"/>
			</g>
			<path clip-path="url(#SVGID_4_)" fill-rule="evenodd" clip-rule="evenodd" fill="#010101" d="M420.232,307.318
				c0.002,0.025-0.018,0.048-0.045,0.053c-0.029,0.001-0.055-0.015-0.059-0.042c-0.002-0.025,0.018-0.05,0.047-0.052
				C420.203,307.274,420.229,307.294,420.232,307.318L420.232,307.318z"/>
			<g clip-path="url(#SVGID_4_)">
				<circle fill="none" cx="420.181" cy="307.324" r="0.052"/>
			</g>
			<path clip-path="url(#SVGID_4_)" fill-rule="evenodd" clip-rule="evenodd" fill="#010101" d="M420.176,307.446
				c0,0.023-0.018,0.048-0.049,0.051c-0.029,0.001-0.055-0.015-0.057-0.041c0-0.025,0.018-0.05,0.049-0.052
				C420.145,307.4,420.17,307.42,420.176,307.446L420.176,307.446z"/>
			<g clip-path="url(#SVGID_4_)">
				<path fill="none" d="M420.176,307.446c0,0.023-0.018,0.048-0.049,0.051c-0.029,0.001-0.055-0.015-0.057-0.041
					c0-0.025,0.018-0.05,0.049-0.052C420.145,307.4,420.17,307.42,420.176,307.446z"/>
			</g>
			<path clip-path="url(#SVGID_4_)" fill-rule="evenodd" clip-rule="evenodd" fill="#010101" d="M420.285,307.516
				c0.004,0.025-0.02,0.048-0.045,0.051c-0.027,0.003-0.053-0.016-0.057-0.041c-0.002-0.027,0.018-0.048,0.045-0.051
				C420.258,307.47,420.281,307.488,420.285,307.516L420.285,307.516z"/>
			<g clip-path="url(#SVGID_4_)">
				<circle fill="none" cx="420.234" cy="307.521" r="0.051"/>
			</g>
			<polygon clip-path="url(#SVGID_4_)" fill-rule="evenodd" clip-rule="evenodd" fill="#010101" points="420.188,307.429 
				420.629,307.223 420.42,307.366 420.564,307.347 420.438,307.419 420.656,307.41 			"/>
			<g clip-path="url(#SVGID_4_)">
				<polygon fill="#010101" points="420.062,307.459 420.621,307.2 420.422,307.391 420.615,307.201 420.283,307.399 
					420.484,307.391 420.562,307.321 420.494,307.391 420.656,307.385 420.447,307.44 420.65,307.387 420.438,307.443 
					420.465,307.412 420.062,307.459 				"/>
			</g>
			<path clip-path="url(#SVGID_4_)" fill-rule="evenodd" clip-rule="evenodd" fill="#010101" d="M422.26,307.098
				c-0.002,0.027-0.027,0.046-0.057,0.038c-0.027-0.001-0.047-0.025-0.045-0.052c0.006-0.026,0.029-0.042,0.057-0.04
				C422.244,307.048,422.264,307.072,422.26,307.098L422.26,307.098z"/>
			<g clip-path="url(#SVGID_4_)">
				<path fill="none" d="M422.26,307.098c-0.002,0.027-0.027,0.046-0.057,0.038c-0.027-0.001-0.047-0.025-0.045-0.052
					c0.006-0.026,0.029-0.042,0.057-0.04C422.244,307.048,422.264,307.072,422.26,307.098z"/>
			</g>
			<path clip-path="url(#SVGID_4_)" fill-rule="evenodd" clip-rule="evenodd" fill="#010101" d="M422.172,307.209
				c-0.002,0.023-0.027,0.042-0.053,0.038c-0.029-0.001-0.049-0.025-0.047-0.053c0.004-0.025,0.029-0.044,0.055-0.04
				C422.156,307.159,422.176,307.184,422.172,307.209L422.172,307.209z"/>
			<g clip-path="url(#SVGID_4_)">
				<path fill="none" d="M422.172,307.209c-0.002,0.023-0.027,0.042-0.053,0.038c-0.029-0.001-0.049-0.025-0.047-0.053
					c0.004-0.025,0.029-0.044,0.055-0.04C422.156,307.159,422.176,307.184,422.172,307.209z"/>
			</g>
			<path clip-path="url(#SVGID_4_)" fill-rule="evenodd" clip-rule="evenodd" fill="#010101" d="M422.266,307.304
				c-0.002,0.025-0.031,0.043-0.059,0.04c-0.025-0.006-0.045-0.03-0.043-0.056s0.029-0.042,0.057-0.038
				C422.25,307.253,422.27,307.277,422.266,307.304L422.266,307.304z"/>
			<g clip-path="url(#SVGID_4_)">
				<circle fill="none" cx="422.215" cy="307.296" r="0.051"/>
			</g>
			<polygon clip-path="url(#SVGID_4_)" fill-rule="evenodd" clip-rule="evenodd" fill="#010101" points="422.189,307.197 
				422.672,307.101 422.432,307.188 422.576,307.207 422.434,307.247 422.65,307.29 			"/>
			<g clip-path="url(#SVGID_4_)">
				<polygon fill="#010101" points="422.645,307.313 422.428,307.271 422.434,307.271 422.184,307.222 422.652,307.081 
					422.195,307.222 422.432,307.223 422.578,307.182 422.443,307.271 422.656,307.266 422.645,307.313 				"/>
			</g>
			<path clip-path="url(#SVGID_4_)" fill-rule="evenodd" clip-rule="evenodd" fill="#010101" d="M424.139,307.488
				c0.006-0.025-0.014-0.048-0.043-0.053c-0.027-0.002-0.053,0.015-0.057,0.042c-0.006,0.025,0.018,0.048,0.043,0.052
				C424.113,307.532,424.137,307.513,424.139,307.488L424.139,307.488z"/>
			<g clip-path="url(#SVGID_4_)">
				<path fill="none" d="M424.139,307.488c0.006-0.025-0.014-0.048-0.043-0.053c-0.027-0.002-0.053,0.015-0.057,0.042
					c-0.006,0.025,0.018,0.048,0.043,0.052C424.113,307.532,424.137,307.513,424.139,307.488z"/>
			</g>
			<path clip-path="url(#SVGID_4_)" fill-rule="evenodd" clip-rule="evenodd" fill="#010101" d="M424.082,307.359
				c0.002-0.025-0.018-0.049-0.045-0.051c-0.029-0.005-0.055,0.016-0.055,0.041c-0.002,0.026,0.014,0.051,0.045,0.051
				C424.053,307.404,424.078,307.387,424.082,307.359L424.082,307.359z"/>
			<g clip-path="url(#SVGID_4_)">
				<path fill="none" d="M424.082,307.359c0.002-0.025-0.018-0.049-0.045-0.051c-0.029-0.005-0.055,0.016-0.055,0.041
					c-0.002,0.026,0.014,0.051,0.045,0.051C424.053,307.404,424.078,307.387,424.082,307.359z"/>
			</g>
			<path clip-path="url(#SVGID_4_)" fill-rule="evenodd" clip-rule="evenodd" fill="#010101" d="M424.193,307.291
				c0.002-0.025-0.016-0.048-0.043-0.051c-0.029-0.003-0.055,0.016-0.061,0.041c-0.002,0.027,0.02,0.048,0.047,0.051
				C424.164,307.337,424.193,307.318,424.193,307.291L424.193,307.291z"/>
			<g clip-path="url(#SVGID_4_)">
				<path fill="none" d="M424.193,307.291c0.002-0.025-0.016-0.048-0.043-0.051c-0.029-0.003-0.055,0.016-0.061,0.041
					c-0.002,0.027,0.02,0.048,0.047,0.051C424.164,307.337,424.193,307.318,424.193,307.291z"/>
			</g>
			<polygon clip-path="url(#SVGID_4_)" fill-rule="evenodd" clip-rule="evenodd" fill="#010101" points="424.096,307.378 
				424.539,307.581 424.326,307.44 424.471,307.46 424.346,307.388 424.564,307.396 			"/>
			<g clip-path="url(#SVGID_4_)">
				<polygon fill="#010101" points="424.531,307.605 424.084,307.402 424.562,307.371 424.094,307.403 424.365,307.496 
					424.312,307.462 424.471,307.436 424.484,307.438 424.324,307.466 424.553,307.561 424.531,307.605 				"/>
			</g>
			<path clip-path="url(#SVGID_4_)" fill-rule="evenodd" clip-rule="evenodd" fill="#010101" d="M425.789,307.918
				c0.004-0.024-0.018-0.049-0.045-0.05c-0.029-0.005-0.055,0.014-0.057,0.039c-0.004,0.026,0.02,0.05,0.045,0.053
				C425.762,307.965,425.787,307.943,425.789,307.918L425.789,307.918z"/>
			<g clip-path="url(#SVGID_4_)">
				
					<ellipse transform="matrix(0.9945 0.1052 -0.1052 0.9945 34.7486 -43.0722)" fill="none" cx="425.738" cy="307.913" rx="0.051" ry="0.045"/>
			</g>
			<path clip-path="url(#SVGID_4_)" fill-rule="evenodd" clip-rule="evenodd" fill="#010101" d="M425.732,307.791
				c0.004-0.027-0.02-0.048-0.045-0.053c-0.029-0.001-0.055,0.016-0.057,0.043c-0.006,0.025,0.016,0.05,0.045,0.053
				S425.727,307.816,425.732,307.791L425.732,307.791z"/>
			<g clip-path="url(#SVGID_4_)">
				<circle fill="none" cx="425.682" cy="307.786" r="0.051"/>
			</g>
			<path clip-path="url(#SVGID_4_)" fill-rule="evenodd" clip-rule="evenodd" fill="#010101" d="M425.844,307.723
				c0.002-0.026-0.018-0.048-0.045-0.053c-0.029-0.004-0.055,0.016-0.059,0.042c-0.002,0.025,0.018,0.048,0.047,0.051
				C425.814,307.767,425.84,307.748,425.844,307.723L425.844,307.723z"/>
			<g clip-path="url(#SVGID_4_)">
				<circle fill="none" cx="425.792" cy="307.717" r="0.052"/>
			</g>
			<polygon clip-path="url(#SVGID_4_)" fill-rule="evenodd" clip-rule="evenodd" fill="#010101" points="425.744,307.809 
				426.189,308.013 425.977,307.869 426.121,307.889 425.994,307.819 426.215,307.826 			"/>
			<g clip-path="url(#SVGID_4_)">
				<polygon fill="#010101" points="426.178,308.035 425.736,307.832 426.213,307.803 425.744,307.834 426.018,307.928 
					425.963,307.891 426.121,307.865 426.133,307.868 425.975,307.895 426.205,307.991 426.178,308.035 				"/>
			</g>
		</g>
	</g>
</g>
</svg>
