<?xml version="1.0" encoding="utf-8"?>
<!-- Generator: Adobe Illustrator 16.0.0, SVG Export Plug-In . SVG Version: 6.00 Build 0)  -->
<!DOCTYPE svg PUBLIC "-//W3C//DTD SVG 1.1//EN" "http://www.w3.org/Graphics/SVG/1.1/DTD/svg11.dtd">
<svg version="1.1" id="name" xmlns="http://www.w3.org/2000/svg" xmlns:xlink="http://www.w3.org/1999/xlink" x="0px" y="0px"
	 width="85.71px" height="50px" viewBox="358 276 85.71 50" enable-background="new 358 276 85.71 50" xml:space="preserve">
<g id="iq">
	<g>
		<defs>
			<rect id="SVGID_1_" x="358" y="276" width="85.71" height="50"/>
		</defs>
		<clipPath id="SVGID_2_">
			<use xlink:href="#SVGID_1_"  overflow="visible"/>
		</clipPath>
		<rect x="358" y="276" clip-path="url(#SVGID_2_)" fill="#BD2034" width="85.71" height="16.669"/>
		<rect x="358" y="292.669" clip-path="url(#SVGID_2_)" fill="#FFFFFF" width="85.71" height="16.665"/>
		<rect x="358" y="309.334" clip-path="url(#SVGID_2_)" fill="#070707" width="85.71" height="16.666"/>
		<g clip-path="url(#SVGID_2_)">
			<defs>
				<rect id="SVGID_3_" x="358" y="276" width="85.71" height="50"/>
			</defs>
			<clipPath id="SVGID_4_">
				<use xlink:href="#SVGID_3_"  overflow="visible"/>
			</clipPath>
			<path clip-path="url(#SVGID_4_)" fill="#439B4B" d="M408.25,297.931c-0.104-0.052-0.219-0.14-0.254-0.19
				c-0.059-0.083-0.023-0.083,0.213-0.021c0.422,0.117,0.695,0.071,0.965-0.159l0.238-0.201l0.283,0.145
				c0.152,0.077,0.318,0.131,0.367,0.119c0.121-0.034,0.371-0.357,0.363-0.469c-0.008-0.136,0.109-0.102,0.164,0.049
				c0.111,0.298-0.053,0.639-0.338,0.716c-0.145,0.037-0.273,0.022-0.488-0.054c-0.262-0.088-0.305-0.088-0.439,0.011
				C409.031,298.104,408.621,298.123,408.25,297.931"/>
			<path clip-path="url(#SVGID_4_)" fill="#439B4B" d="M409.297,296.976c-0.104-0.131-0.225-0.625-0.188-0.747
				c0.037-0.105,0.072-0.125,0.168-0.097c0.166,0.054,0.207,0.171,0.182,0.56C409.438,297.01,409.393,297.095,409.297,296.976"/>
			<path clip-path="url(#SVGID_4_)" fill="#439B4B" d="M396.977,296.62c-0.035,0.239,0.424,0.833,0.631,0.94
				c-0.141,0.062-0.316,0.037-0.443,0.105c-0.721,0.722-3.352,3.284-3.832,3.898c1.422,0.028,3-0.021,4.334-0.08
				c0-0.966,0.916-1.017,1.531-1.369c0.314,0.497,1.107,0.46,1.207,1.207c0,0.898,0.002,2.247,0.002,3.222h-12.16
				c-0.213,0.943-1.064,1.665-2.252,1.37c0.367-0.387,0.986-0.518,1.207-1.049c0.188-1.162-0.371-1.878-0.734-2.537
				c0.598-0.219,0.691-0.272,1.297-0.682c-0.426,1.298,1.113,1.156,2.254,1.125c0.039-0.44,0.018-0.96-0.32-1.025
				c0.436-0.159,0.51-0.213,1.207-0.805v1.75c2.717,0,5.646-0.02,8.42-0.02c0-0.548,0.145-1.426-0.289-1.426
				c-0.412,0-0.018,1.125-0.34,1.125h-6.504c0-0.242-0.006-0.75-0.006-1.114c0.275-0.275,0.244-0.25,2.125-2.136
				C394.5,298.936,395.823,297.743,396.977,296.62"/>
			<path clip-path="url(#SVGID_4_)" fill="#439B4B" d="M413.227,296.575c0.455,0.241,0.812,0.579,1.371,0.725
				c-0.066,0.227-0.27,0.318-0.324,0.562v4.909c0.623,0.139,0.754-0.213,1.047-0.4c0.08,0.784,0.582,1.554,0.562,2.173h-2.656
				V296.575z"/>
			<path clip-path="url(#SVGID_4_)" fill="#439B4B" d="M409.686,299.206c0,0,0.967-0.818,0.967-0.85v4.284h0.695
				c0-1.634-0.02-3.29-0.02-4.807c0.281-0.281,0.836-0.69,0.973-0.975v7.674c-1.961,0-5.617,0-6.104,0
				c-0.088-1.592-0.104-3.242,1.752-2.887v-0.65c-0.059-0.111-0.158,0.028-0.182-0.117c0.295-0.295,0.395-0.369,1.193-1.068
				c0,0.842,0.014,2.83,0.014,2.83c0.195,0,0.576,0,0.703,0C409.678,302.641,409.686,299.313,409.686,299.206 M407.395,302.598
				c0.133,0.196,0.576,0.193,0.555-0.136C407.875,302.189,407.291,302.291,407.395,302.598"/>
			<path clip-path="url(#SVGID_4_)" fill="#439B4B" d="M389.729,305.075c0.207,0,0.373,0.168,0.373,0.375
				c0,0.205-0.166,0.372-0.373,0.372c-0.205,0-0.373-0.167-0.373-0.372C389.356,305.243,389.524,305.075,389.729,305.075"/>
			<path clip-path="url(#SVGID_4_)" fill="#439B4B" d="M401.229,296.584c0.455,0.241,0.812,0.579,1.369,0.724
				c-0.064,0.228-0.27,0.318-0.322,0.563v4.909c0.621,0.136,0.75-0.216,1.047-0.401c0.08,0.784,0.58,1.555,0.562,2.174h-2.656
				V296.584z"/>
		</g>
	</g>
</g>
</svg>
