<?xml version="1.0" encoding="utf-8"?>
<!-- Generator: Adobe Illustrator 16.0.0, SVG Export Plug-In . SVG Version: 6.00 Build 0)  -->
<!DOCTYPE svg PUBLIC "-//W3C//DTD SVG 1.1//EN" "http://www.w3.org/Graphics/SVG/1.1/DTD/svg11.dtd">
<svg version="1.1" id="name" xmlns="http://www.w3.org/2000/svg" xmlns:xlink="http://www.w3.org/1999/xlink" x="0px" y="0px"
	 width="85.71px" height="50px" viewBox="358 276 85.71 50" enable-background="new 358 276 85.71 50" xml:space="preserve">
<g id="ir">
	<g>
		<defs>
			<rect id="SVGID_1_" x="358" y="276" width="85.71" height="50"/>
		</defs>
		<clipPath id="SVGID_2_">
			<use xlink:href="#SVGID_1_"  overflow="visible"/>
		</clipPath>
		<rect x="358" y="276" clip-path="url(#SVGID_2_)" fill="#FFFFFF" width="85.71" height="50"/>
		<rect x="358" y="276" clip-path="url(#SVGID_2_)" fill="#49A146" width="85.71" height="16.705"/>
		<rect x="358" y="309.297" clip-path="url(#SVGID_2_)" fill="#C62127" width="85.71" height="16.703"/>
		<polygon clip-path="url(#SVGID_2_)" fill="#C62127" points="400.854,294.979 399.948,295.717 400.118,307.536 400.854,308.389 
			401.594,307.536 401.764,295.717 		"/>
		<g clip-path="url(#SVGID_2_)">
			<defs>
				<rect id="SVGID_3_" x="358" y="276" width="85.71" height="50"/>
			</defs>
			<clipPath id="SVGID_4_">
				<use xlink:href="#SVGID_3_"  overflow="visible"/>
			</clipPath>
			<path clip-path="url(#SVGID_4_)" fill="#C62127" d="M402.674,293.729c-0.361,0.588-1.133,0.77-1.72,0.406
				c-0.031-0.021-0.068-0.04-0.098-0.065c-0.551,0.418-1.336,0.307-1.752-0.244c-0.021-0.028-0.047-0.062-0.066-0.097
				c-0.148,0.579,0.199,1.168,0.775,1.315c0.375,0.097,0.771-0.018,1.043-0.293c0.414,0.427,1.099,0.435,1.525,0.021
				C402.656,294.501,402.771,294.104,402.674,293.729"/>
			<path clip-path="url(#SVGID_4_)" fill="#C62127" d="M403.129,295.376c2.412,3.29,1.701,7.912-1.588,10.324
				c-1.505,1.105-3.375,1.6-5.23,1.381c3.51,1.406,7.494-0.304,8.898-3.812C406.33,300.468,405.484,297.26,403.129,295.376"/>
			<path clip-path="url(#SVGID_4_)" fill="#C62127" d="M398.583,295.376c-2.412,3.29-1.703,7.912,1.588,10.324
				c1.505,1.105,3.375,1.6,5.23,1.381c-3.51,1.406-7.496-0.304-8.9-3.812C395.379,300.468,396.225,297.26,398.583,295.376"/>
			<path clip-path="url(#SVGID_4_)" fill="#C62127" d="M403.979,295.148c3.299,2.401,4.029,7.021,1.629,10.319
				c-0.117,0.165-0.246,0.323-0.377,0.478c2.844-1.537,3.9-5.089,2.363-7.933C406.832,296.604,405.525,295.569,403.979,295.148"/>
			<path clip-path="url(#SVGID_4_)" fill="#C62127" d="M397.731,295.148c-3.299,2.401-4.029,7.021-1.627,10.319
				c0.117,0.165,0.244,0.323,0.377,0.478c-2.844-1.537-3.902-5.089-2.363-7.933C394.879,296.604,396.186,295.569,397.731,295.148"/>
			<path clip-path="url(#SVGID_4_)" fill="#FFFFFF" d="M358.194,291.91h0.391v-0.796h1.168v0.796h1.947v-1.193h-1.168v0.397h0.777
				v0.398h-1.168v-0.796h-1.947V291.91z M358.973,291.91h0.389v-0.397h-0.389V291.91z M358.194,290.319h5.064v-0.398h-5.064V290.319
				z M363.258,291.91h-1.168v-1.193h1.559v-0.796h0.389v1.592h0.391v-1.592h0.387v1.592h0.391v-1.592h0.391v1.989h-1.947v-0.796
				h-1.17v0.398h0.779V291.91z"/>
			<path clip-path="url(#SVGID_4_)" fill="#FFFFFF" d="M365.985,291.91h0.391v-0.796h1.168v0.796h1.947v-1.193h-1.166v0.397h0.777
				v0.398h-1.168v-0.796h-1.949V291.91z M366.764,291.91h0.391v-0.397h-0.391V291.91z M365.985,290.319h5.066v-0.398h-5.066V290.319
				z M371.051,291.91h-1.17v-1.193h1.559v-0.796h0.391v1.592h0.389v-1.592h0.389v1.592h0.391v-1.592h0.389v1.989h-1.947v-0.796
				h-1.168v0.398h0.779V291.91z"/>
			<path clip-path="url(#SVGID_4_)" fill="#FFFFFF" d="M373.778,291.91h0.391v-0.796h1.168v0.796h1.947v-1.193h-1.168v0.397h0.779
				v0.398h-1.17v-0.796h-1.947V291.91z M374.557,291.91h0.391v-0.397h-0.391V291.91z M373.778,290.319h5.066v-0.398h-5.066V290.319z
				 M378.844,291.91h-1.17v-1.193h1.557v-0.796h0.391v1.592h0.389v-1.592h0.391v1.592h0.391v-1.592h0.389v1.989h-1.949v-0.796
				h-1.168v0.398h0.781V291.91z"/>
			<path clip-path="url(#SVGID_4_)" fill="#FFFFFF" d="M381.571,291.91h0.389v-0.796h1.168v0.796h1.949v-1.193h-1.17v0.397h0.781
				v0.398h-1.17v-0.796h-1.947V291.91z M382.35,291.91h0.391v-0.397h-0.391V291.91z M381.571,290.319h5.062v-0.398h-5.062V290.319z
				 M386.633,291.91h-1.168v-1.193h1.559v-0.796h0.391v1.592h0.389v-1.592h0.391v1.592h0.389v-1.592h0.389v1.989h-1.947v-0.796
				h-1.168v0.398h0.777V291.91z"/>
			<path clip-path="url(#SVGID_4_)" fill="#FFFFFF" d="M389.362,291.91h0.391v-0.796h1.168v0.796h1.947v-1.193H391.7v0.397h0.777
				v0.398h-1.166v-0.796h-1.949V291.91z M390.143,291.91h0.387v-0.397h-0.387V291.91z M389.362,290.319h5.064v-0.398h-5.064V290.319
				z M394.426,291.91h-1.168v-1.193h1.559v-0.796h0.389v1.592h0.391v-1.592h0.391v1.592h0.387v-1.592h0.391v1.989h-1.947v-0.796
				h-1.17v0.398h0.779V291.91z"/>
			<path clip-path="url(#SVGID_4_)" fill="#FFFFFF" d="M397.153,291.91h0.391v-0.796h1.17v0.796h1.947v-1.193h-1.168v0.397h0.777
				v0.398h-1.168v-0.796h-1.949V291.91z M397.934,291.91h0.389v-0.397h-0.389V291.91z M397.153,290.319h5.066v-0.398h-5.066V290.319
				z M402.219,291.91h-1.17v-1.193h1.561v-0.796h0.389v1.592h0.389v-1.592h0.389v1.592h0.391v-1.592h0.391v1.989h-1.947v-0.796
				h-1.17v0.398h0.779V291.91z"/>
			<path clip-path="url(#SVGID_4_)" fill="#FFFFFF" d="M404.945,291.91h0.391v-0.796h1.17v0.796h1.945v-1.193h-1.168v0.397h0.779
				v0.398h-1.17v-0.796h-1.947V291.91z M405.725,291.91h0.391v-0.397h-0.391V291.91z M404.945,290.319h5.066v-0.398h-5.066V290.319z
				 M410.012,291.91h-1.17v-1.193h1.557v-0.796h0.391v1.592h0.391v-1.592h0.391v1.592h0.389v-1.592h0.389v1.989h-1.949v-0.796
				h-1.166v0.398h0.779V291.91z"/>
			<path clip-path="url(#SVGID_4_)" fill="#FFFFFF" d="M412.738,291.91h0.391v-0.796h1.166v0.796h1.949v-1.193h-1.168v0.397h0.779
				v0.398h-1.17v-0.796h-1.947V291.91z M413.518,291.91h0.391v-0.397h-0.391V291.91z M412.738,290.319h5.066v-0.398h-5.066V290.319z
				 M417.805,291.91h-1.172v-1.193h1.559v-0.796h0.391v1.592h0.389v-1.592h0.391v1.592h0.391v-1.592h0.387v1.989h-1.947v-0.796
				h-1.168v0.398h0.781V291.91z"/>
			<path clip-path="url(#SVGID_4_)" fill="#FFFFFF" d="M420.529,291.91h0.391v-0.796h1.168v0.796h1.947v-1.193h-1.168v0.397h0.781
				v0.398h-1.17v-0.796h-1.949V291.91z M421.311,291.91h0.389v-0.397h-0.389V291.91z M420.529,290.319h5.064v-0.398h-5.064V290.319z
				 M425.594,291.91h-1.168v-1.193h1.559v-0.796h0.391v1.592h0.389v-1.592h0.391v1.592h0.387v-1.592h0.391v1.989h-1.947v-0.796
				h-1.17v0.398h0.779V291.91z"/>
			<path clip-path="url(#SVGID_4_)" fill="#FFFFFF" d="M428.322,291.91h0.389v-0.796h1.17v0.796h1.947v-1.193h-1.168v0.397h0.777
				v0.398h-1.166v-0.796h-1.949V291.91z M429.102,291.91h0.389v-0.397h-0.389V291.91z M428.322,290.319h5.064v-0.398h-5.064V290.319
				z M433.387,291.91h-1.17v-1.193h1.561v-0.796h0.389v1.592h0.391v-1.592h0.389v1.592h0.389v-1.592h0.391v1.989h-1.947v-0.796
				h-1.17v0.398h0.779V291.91z"/>
			<path clip-path="url(#SVGID_4_)" fill="#FFFFFF" d="M436.113,291.91h0.391v-0.796h1.17v0.796h1.947v-1.193h-1.17v0.397h0.779
				v0.398h-1.168v-0.796h-1.949V291.91z M436.895,291.91h0.389v-0.397h-0.389V291.91z M436.113,290.319h5.066v-0.398h-5.066V290.319
				z M441.18,291.91h-1.17v-1.193h1.561v-0.796h0.387v1.592h0.391v-1.592h0.391v1.592h0.389v-1.592h0.391v1.989h-1.947v-0.796h-1.17
				v0.398h0.779V291.91z"/>
			<path clip-path="url(#SVGID_4_)" fill="#FFFFFF" d="M358.194,293.104h3.506v-0.796h-3.506V293.104z M362.09,293.104h3.506v-0.796
				h-3.506V293.104z"/>
			<path clip-path="url(#SVGID_4_)" fill="#FFFFFF" d="M365.985,293.104h3.508v-0.796h-3.508V293.104z M369.881,293.104h3.506
				v-0.796h-3.506V293.104z"/>
			<path clip-path="url(#SVGID_4_)" fill="#FFFFFF" d="M373.778,293.104h3.506v-0.796h-3.506V293.104z M377.674,293.104h3.506
				v-0.796h-3.506V293.104z"/>
			<path clip-path="url(#SVGID_4_)" fill="#FFFFFF" d="M381.571,293.104h3.506v-0.796h-3.506V293.104z M385.465,293.104h3.506
				v-0.796h-3.506V293.104z"/>
			<path clip-path="url(#SVGID_4_)" fill="#FFFFFF" d="M389.362,293.104h3.506v-0.796h-3.506V293.104z M393.258,293.104h3.506
				v-0.796h-3.506V293.104z"/>
			<path clip-path="url(#SVGID_4_)" fill="#FFFFFF" d="M397.153,293.104h3.508v-0.796h-3.508V293.104z M401.049,293.104h3.508
				v-0.796h-3.508V293.104z"/>
			<path clip-path="url(#SVGID_4_)" fill="#FFFFFF" d="M404.945,293.104h3.506v-0.796h-3.506V293.104z M408.842,293.104h3.506
				v-0.796h-3.506V293.104z"/>
			<path clip-path="url(#SVGID_4_)" fill="#FFFFFF" d="M412.738,293.104h3.506v-0.796h-3.506V293.104z M416.633,293.104h3.506
				v-0.796h-3.506V293.104z"/>
			<path clip-path="url(#SVGID_4_)" fill="#FFFFFF" d="M420.529,293.104h3.506v-0.796h-3.506V293.104z M424.426,293.104h3.506
				v-0.796h-3.506V293.104z"/>
			<path clip-path="url(#SVGID_4_)" fill="#FFFFFF" d="M428.322,293.104h3.506v-0.796h-3.506V293.104z M432.217,293.104h3.508
				v-0.796h-3.508V293.104z"/>
			<path clip-path="url(#SVGID_4_)" fill="#FFFFFF" d="M436.113,293.104h3.508v-0.796h-3.508V293.104z M440.01,293.104h3.508v-0.796
				h-3.508V293.104z"/>
			<path clip-path="url(#SVGID_4_)" fill="#FFFFFF" d="M358.194,312.082h0.391v-0.796h1.168v0.796h1.947v-1.193h-1.168v0.397h0.777
				v0.397h-1.168v-0.795h-1.947V312.082z M358.973,312.082h0.389v-0.398h-0.389V312.082z M358.194,310.49h5.064v-0.397h-5.064
				V310.49z M363.258,312.082h-1.168v-1.193h1.559v-0.796h0.389v1.591h0.391v-1.591h0.387v1.591h0.391v-1.591h0.391v1.989h-1.947
				v-0.796h-1.17v0.397h0.779V312.082z"/>
			<path clip-path="url(#SVGID_4_)" fill="#FFFFFF" d="M365.985,312.082h0.391v-0.796h1.168v0.796h1.947v-1.193h-1.166v0.397h0.777
				v0.397h-1.168v-0.795h-1.949V312.082z M366.764,312.082h0.391v-0.398h-0.391V312.082z M365.985,310.49h5.066v-0.397h-5.066
				V310.49z M371.051,312.082h-1.17v-1.193h1.559v-0.796h0.391v1.591h0.389v-1.591h0.389v1.591h0.391v-1.591h0.389v1.989h-1.947
				v-0.796h-1.168v0.397h0.779V312.082z"/>
			<path clip-path="url(#SVGID_4_)" fill="#FFFFFF" d="M373.778,312.082h0.391v-0.796h1.168v0.796h1.947v-1.193h-1.168v0.397h0.779
				v0.397h-1.17v-0.795h-1.947V312.082z M374.557,312.082h0.391v-0.398h-0.391V312.082z M373.778,310.49h5.066v-0.397h-5.066V310.49
				z M378.844,312.082h-1.17v-1.193h1.557v-0.796h0.391v1.591h0.389v-1.591h0.391v1.591h0.391v-1.591h0.389v1.989h-1.949v-0.796
				h-1.168v0.397h0.781V312.082z"/>
			<path clip-path="url(#SVGID_4_)" fill="#FFFFFF" d="M381.571,312.082h0.389v-0.796h1.168v0.796h1.949v-1.193h-1.17v0.397h0.781
				v0.397h-1.17v-0.795h-1.947V312.082z M382.35,312.082h0.391v-0.398h-0.391V312.082z M381.571,310.49h5.062v-0.397h-5.062V310.49z
				 M386.633,312.082h-1.168v-1.193h1.559v-0.796h0.391v1.591h0.389v-1.591h0.391v1.591h0.389v-1.591h0.389v1.989h-1.947v-0.796
				h-1.168v0.397h0.777V312.082z"/>
			<path clip-path="url(#SVGID_4_)" fill="#FFFFFF" d="M389.362,312.082h0.391v-0.796h1.168v0.796h1.947v-1.193H391.7v0.397h0.777
				v0.397h-1.166v-0.795h-1.949V312.082z M390.143,312.082h0.387v-0.398h-0.387V312.082z M389.362,310.49h5.064v-0.397h-5.064
				V310.49z M394.426,312.082h-1.168v-1.193h1.559v-0.796h0.389v1.591h0.391v-1.591h0.391v1.591h0.387v-1.591h0.391v1.989h-1.947
				v-0.796h-1.17v0.397h0.779V312.082z"/>
			<path clip-path="url(#SVGID_4_)" fill="#FFFFFF" d="M397.153,312.082h0.391v-0.796h1.17v0.796h1.947v-1.193h-1.168v0.397h0.777
				v0.397h-1.168v-0.795h-1.949V312.082z M397.934,312.082h0.389v-0.398h-0.389V312.082z M397.153,310.49h5.066v-0.397h-5.066
				V310.49z M402.219,312.082h-1.17v-1.193h1.561v-0.796h0.389v1.591h0.389v-1.591h0.389v1.591h0.391v-1.591h0.391v1.989h-1.947
				v-0.796h-1.17v0.397h0.779V312.082z"/>
			<path clip-path="url(#SVGID_4_)" fill="#FFFFFF" d="M404.945,312.082h0.391v-0.796h1.17v0.796h1.945v-1.193h-1.168v0.397h0.779
				v0.397h-1.17v-0.795h-1.947V312.082z M405.725,312.082h0.391v-0.398h-0.391V312.082z M404.945,310.49h5.066v-0.397h-5.066V310.49
				z M410.012,312.082h-1.17v-1.193h1.557v-0.796h0.391v1.591h0.391v-1.591h0.391v1.591h0.389v-1.591h0.389v1.989h-1.949v-0.796
				h-1.166v0.397h0.779V312.082z"/>
			<path clip-path="url(#SVGID_4_)" fill="#FFFFFF" d="M412.738,312.082h0.391v-0.796h1.166v0.796h1.949v-1.193h-1.168v0.397h0.779
				v0.397h-1.17v-0.795h-1.947V312.082z M413.518,312.082h0.391v-0.398h-0.391V312.082z M412.738,310.49h5.066v-0.397h-5.066V310.49
				z M417.805,312.082h-1.172v-1.193h1.559v-0.796h0.391v1.591h0.389v-1.591h0.391v1.591h0.391v-1.591h0.387v1.989h-1.947v-0.796
				h-1.168v0.397h0.781V312.082z"/>
			<path clip-path="url(#SVGID_4_)" fill="#FFFFFF" d="M420.529,312.082h0.391v-0.796h1.168v0.796h1.947v-1.193h-1.168v0.397h0.781
				v0.397h-1.17v-0.795h-1.949V312.082z M421.311,312.082h0.389v-0.398h-0.389V312.082z M420.529,310.49h5.064v-0.397h-5.064V310.49
				z M425.594,312.082h-1.168v-1.193h1.559v-0.796h0.391v1.591h0.389v-1.591h0.391v1.591h0.387v-1.591h0.391v1.989h-1.947v-0.796
				h-1.17v0.397h0.779V312.082z"/>
			<path clip-path="url(#SVGID_4_)" fill="#FFFFFF" d="M428.322,312.082h0.389v-0.796h1.17v0.796h1.947v-1.193h-1.168v0.397h0.777
				v0.397h-1.166v-0.795h-1.949V312.082z M429.102,312.082h0.389v-0.398h-0.389V312.082z M428.322,310.49h5.064v-0.397h-5.064
				V310.49z M433.387,312.082h-1.17v-1.193h1.561v-0.796h0.389v1.591h0.391v-1.591h0.389v1.591h0.389v-1.591h0.391v1.989h-1.947
				v-0.796h-1.17v0.397h0.779V312.082z"/>
			<path clip-path="url(#SVGID_4_)" fill="#FFFFFF" d="M436.113,312.082h0.391v-0.796h1.17v0.796h1.947v-1.193h-1.17v0.397h0.779
				v0.397h-1.168v-0.795h-1.949V312.082z M436.895,312.082h0.389v-0.398h-0.389V312.082z M436.113,310.49h5.066v-0.397h-5.066
				V310.49z M441.18,312.082h-1.17v-1.193h1.561v-0.796h0.387v1.591h0.391v-1.591h0.391v1.591h0.389v-1.591h0.391v1.989h-1.947
				v-0.796h-1.17v0.397h0.779V312.082z"/>
			<path clip-path="url(#SVGID_4_)" fill="#FFFFFF" d="M358.194,309.695h3.506v-0.796h-3.506V309.695z M362.09,309.695h3.506v-0.796
				h-3.506V309.695z"/>
			<path clip-path="url(#SVGID_4_)" fill="#FFFFFF" d="M365.985,309.695h3.508v-0.796h-3.508V309.695z M369.881,309.695h3.506
				v-0.796h-3.506V309.695z"/>
			<path clip-path="url(#SVGID_4_)" fill="#FFFFFF" d="M373.778,309.695h3.506v-0.796h-3.506V309.695z M377.674,309.695h3.506
				v-0.796h-3.506V309.695z"/>
			<path clip-path="url(#SVGID_4_)" fill="#FFFFFF" d="M381.571,309.695h3.506v-0.796h-3.506V309.695z M385.465,309.695h3.506
				v-0.796h-3.506V309.695z"/>
			<path clip-path="url(#SVGID_4_)" fill="#FFFFFF" d="M389.362,309.695h3.506v-0.796h-3.506V309.695z M393.258,309.695h3.506
				v-0.796h-3.506V309.695z"/>
			<path clip-path="url(#SVGID_4_)" fill="#FFFFFF" d="M397.153,309.695h3.508v-0.796h-3.508V309.695z M401.049,309.695h3.508
				v-0.796h-3.508V309.695z"/>
			<path clip-path="url(#SVGID_4_)" fill="#FFFFFF" d="M404.945,309.695h3.506v-0.796h-3.506V309.695z M408.842,309.695h3.506
				v-0.796h-3.506V309.695z"/>
			<path clip-path="url(#SVGID_4_)" fill="#FFFFFF" d="M412.738,309.695h3.506v-0.796h-3.506V309.695z M416.633,309.695h3.506
				v-0.796h-3.506V309.695z"/>
			<path clip-path="url(#SVGID_4_)" fill="#FFFFFF" d="M420.529,309.695h3.506v-0.796h-3.506V309.695z M424.426,309.695h3.506
				v-0.796h-3.506V309.695z"/>
			<path clip-path="url(#SVGID_4_)" fill="#FFFFFF" d="M428.322,309.695h3.506v-0.796h-3.506V309.695z M432.217,309.695h3.508
				v-0.796h-3.508V309.695z"/>
			<path clip-path="url(#SVGID_4_)" fill="#FFFFFF" d="M436.113,309.695h3.508v-0.796h-3.508V309.695z M440.01,309.695h3.508v-0.796
				h-3.508V309.695z"/>
		</g>
	</g>
</g>
</svg>
