<?xml version="1.0" encoding="utf-8"?>
<!-- Generator: Adobe Illustrator 16.0.0, SVG Export Plug-In . SVG Version: 6.00 Build 0)  -->
<!DOCTYPE svg PUBLIC "-//W3C//DTD SVG 1.1//EN" "http://www.w3.org/Graphics/SVG/1.1/DTD/svg11.dtd">
<svg version="1.1" id="name" xmlns="http://www.w3.org/2000/svg" xmlns:xlink="http://www.w3.org/1999/xlink" x="0px" y="0px"
	 width="85.711px" height="50px" viewBox="358 276 85.711 50" enable-background="new 358 276 85.711 50" xml:space="preserve">
<g id="je">
	<g>
		<defs>
			<rect id="SVGID_1_" x="358" y="276" width="85.711" height="50"/>
		</defs>
		<clipPath id="SVGID_2_">
			<use xlink:href="#SVGID_1_"  overflow="visible"/>
		</clipPath>
		<rect x="358" y="276" clip-path="url(#SVGID_2_)" fill="#FFFFFF" width="85.711" height="50"/>
		<polygon clip-path="url(#SVGID_2_)" fill="#CD1F39" points="438.088,276 400.856,297.788 363.625,276 358,276 358,279.21 
			395.32,300.999 358,322.787 358,326 363.625,326 400.856,304.212 438.088,326 443.711,326 443.711,322.787 406.391,300.999 
			443.711,279.21 443.711,276 		"/>
		<g clip-path="url(#SVGID_2_)">
			<defs>
				<rect id="SVGID_3_" x="358" y="276" width="85.711" height="50"/>
			</defs>
			<clipPath id="SVGID_4_">
				<use xlink:href="#SVGID_3_"  overflow="visible"/>
			</clipPath>
			<path clip-path="url(#SVGID_4_)" fill="#D51F3A" d="M405.216,283.48c1.071,4.336,0.483,9.691-4.353,12.663
				c-4.838-2.972-5.426-8.327-4.354-12.663C397.648,282.443,402.83,281.805,405.216,283.48L405.216,283.48z"/>
			<g clip-path="url(#SVGID_4_)">
				<path fill="#010101" d="M400.863,296.148l-0.004-0.002c-6.032-3.705-4.858-10.632-4.354-12.669
					c0.648-0.591,2.576-1.034,4.486-1.034c1.78,0,3.281,0.367,4.228,1.031c0.504,2.04,1.676,8.97-4.353,12.672L400.863,296.148
					L400.863,296.148z M400.991,282.455c-1.908,0-3.834,0.443-4.479,1.028c-0.5,2.031-1.673,8.952,4.351,12.654
					c6.02-3.702,4.85-10.623,4.348-12.657C404.268,282.818,402.768,282.455,400.991,282.455L400.991,282.455z"/>
			</g>
			<path clip-path="url(#SVGID_4_)" fill="#F2DD31" d="M400.854,282.608c1.776,0,3.425,0.469,4.399,1.079
				c0.191-1.497,0.869-2.991,1.668-4.119c-0.832-0.02-1.207,0.426-1.215,0.884c-0.21-0.591-1.027-0.554-1.278-0.233
				c0.912,0.617,0.208,1.713-0.618,1.486c-0.388-0.105-0.594-0.375-0.666-0.771c0.091-0.005,0.18-0.036,0.254-0.099
				c0.191-0.156,0.223-0.438,0.066-0.631c-0.156-0.19-0.438-0.222-0.631-0.065s-0.223,0.44-0.067,0.631
				c0.053,0.065,0.116,0.11,0.188,0.136c-0.26,0.427-0.729,0.555-1.062,0.461c-0.435-0.123-0.618-0.515-0.618-0.861
				c0-0.903,0.869-1.043,1.129-0.887c-0.016-0.607-0.973-1.097-1.268-0.591c0.329-0.591,0.312-1.426-0.28-1.982
				c-0.589,0.557-0.608,1.392-0.277,1.982c-0.297-0.506-1.253-0.017-1.269,0.591c0.26-0.156,1.129-0.017,1.129,0.887
				c0,0.347-0.182,0.738-0.617,0.861c-0.335,0.094-0.804-0.034-1.064-0.461c0.07-0.025,0.135-0.07,0.186-0.136
				c0.157-0.19,0.128-0.475-0.065-0.631c-0.193-0.156-0.476-0.125-0.632,0.065c-0.155,0.193-0.126,0.475,0.067,0.631
				c0.074,0.062,0.162,0.094,0.253,0.099c-0.073,0.396-0.277,0.665-0.667,0.771c-0.825,0.227-1.53-0.869-0.618-1.486
				c-0.251-0.32-1.068-0.357-1.277,0.233c-0.008-0.458-0.383-0.903-1.216-0.884c0.798,1.128,1.478,2.622,1.667,4.119
				C397.431,283.077,399.082,282.608,400.854,282.608L400.854,282.608z"/>
			<g clip-path="url(#SVGID_4_)">
				<path fill="#010101" d="M405.271,283.722l-0.029-0.017c-1.059-0.662-2.741-1.074-4.388-1.074c-1.645,0-3.325,0.412-4.386,1.074
					c-0.206-1.378-0.812-2.875-1.696-4.125c0.914-0.034,1.247,0.454,1.254,0.872c0.065-0.304,0.338-0.483,0.689-0.483
					c0.243,0,0.47,0.094,0.584,0.236c-0.35,0.264-0.495,0.602-0.392,0.938c0.125,0.406,0.564,0.653,0.987,0.542
					c0.363-0.099,0.577-0.347,0.65-0.753c-0.074,0.018-0.17-0.017-0.246-0.079c-0.199-0.162-0.23-0.457-0.068-0.659
					c0.158-0.196,0.466-0.228,0.661-0.068c0.202,0.162,0.233,0.458,0.069,0.659c-0.054,0.065-0.121,0.114-0.196,0.143
					c0.236,0.329,0.685,0.52,1.051,0.42c0.443-0.125,0.601-0.531,0.601-0.841c0-0.73-0.561-0.92-0.858-0.92
					c-0.098,0-0.183,0.017-0.239,0.051c-0.03-0.656,0.968-1.065,1.257-0.648c-0.327-0.531-0.356-1.372,0.263-1.957
					c0.617,0.554,0.623,1.344,0.37,1.893c0.278-0.347,1.198,0.104,1.213,0.693c-0.263-0.046-0.606-0.018-0.829,0.17
					c-0.196,0.165-0.299,0.412-0.299,0.719c0,0.31,0.158,0.716,0.603,0.841c0.364,0.105,0.815-0.082,1.038-0.451
					c-0.051-0.009-0.133-0.046-0.185-0.111c-0.163-0.201-0.132-0.497,0.068-0.659c0.194-0.159,0.505-0.128,0.662,0.068
					c0.161,0.202,0.13,0.497-0.069,0.659c-0.074,0.062-0.166,0.097-0.266,0.105c0.094,0.38,0.308,0.628,0.67,0.727
					c0.425,0.111,0.863-0.139,0.987-0.542c0.103-0.336-0.041-0.674-0.386-0.906c0.107-0.174,0.336-0.268,0.579-0.268
					c0.351,0,0.624,0.18,0.729,0.478c-0.033-0.412,0.281-0.9,1.146-0.9c-0.002,0.003-0.004,0.008-0.007,0.011
					c-0.837,0.046-1.13,0.503-1.138,0.896c-0.143-0.272-0.398-0.44-0.731-0.44c-0.229,0-0.446,0.085-0.553,0.219
					c0.356,0.216,0.507,0.571,0.401,0.923c-0.131,0.427-0.595,0.696-1.041,0.571c-0.379-0.103-0.602-0.36-0.682-0.784
					c0.111-0.031,0.193-0.062,0.264-0.119c0.182-0.15,0.209-0.421,0.062-0.603c-0.146-0.176-0.424-0.207-0.604-0.062
					c-0.183,0.148-0.211,0.418-0.063,0.603c0.048,0.057,0.11,0.103,0.179,0.128c-0.22,0.42-0.689,0.61-1.076,0.5
					c-0.467-0.131-0.633-0.557-0.633-0.881c0-0.762,0.588-0.963,0.9-0.963c0.105,0,0.198,0.02,0.261,0.057
					c-0.042-0.4-0.515-0.762-0.891-0.762c-0.115,0-0.272,0.037-0.37,0.202c0-0.003,0-0.003,0-0.003
					c0.01-0.031,0.021-0.057,0.037-0.082c0.228-0.558,0.236-1.344-0.349-1.896c-0.585,0.583-0.544,1.424-0.246,1.958
					c-0.132-0.143-0.29-0.18-0.405-0.18c-0.378,0-0.848,0.361-0.859,0.781c0.118-0.222,1.129-0.136,1.129,0.887
					c0,0.324-0.167,0.75-0.632,0.881c-0.389,0.113-0.855-0.085-1.088-0.469c0.078-0.057,0.141-0.103,0.188-0.159
					c0.148-0.185,0.12-0.454-0.062-0.603c-0.18-0.142-0.458-0.113-0.604,0.062c-0.148,0.185-0.118,0.455,0.064,0.603
					c0.068,0.057,0.152,0.088,0.242,0.094c-0.059,0.449-0.283,0.707-0.662,0.81c-0.438,0.125-0.908-0.145-1.039-0.571
					c-0.108-0.352,0.042-0.707,0.403-0.951c-0.109-0.105-0.327-0.19-0.555-0.19c-0.334,0-0.591,0.168-0.69,0.449
					c-0.048-0.406-0.353-0.873-1.186-0.873c0.855,1.222,1.464,2.728,1.639,4.098c1.034-0.683,2.725-1.097,4.376-1.097
					c1.64,0,3.314,0.406,4.383,1.062c0.15-1.123,0.589-2.336,1.233-3.427c-0.611,1.116-1.052,2.335-1.195,3.466L405.271,283.722
					L405.271,283.722z"/>
			</g>
			<path clip-path="url(#SVGID_4_)" fill="#F2DD31" d="M404.533,286.861c-0.105,0.025-0.105,0.165-0.161,0.165
				c0.278-0.009,0.413-0.085,0.497-0.225c-0.062,0.054-0.008,0.162-0.027,0.188c0.203-0.071,0.301-0.244,0.229-0.36
				c0.045,0.064,0.178,0.099,0.221,0.104c-0.144-0.11-0.043-0.366-0.273-0.497c0.078-0.006,0.227,0.08,0.267,0.182
				c-0.036-0.229-0.073-0.378-0.261-0.506c0.021,0.023,0.129,0.046,0.174,0c-0.122-0.076-0.159-0.201-0.146-0.284
				c0.014-0.113-0.062-0.139-0.205-0.102c-0.129,0.031-0.423,0.051-0.596,0.051c-0.358,0-0.668,0-0.965-0.204
				c0.443,0.185,1.009-0.205,1.009-0.526c0-0.357-0.438-0.647-1.325-0.454S401,284.506,401,284.211c0-0.296,0.774-0.338,1.173-0.275
				c0.397,0.06,0.685,0.102,1.429-0.165c-0.186,0.071-0.776,0.094-1.245-0.04c-0.47-0.134-1.623-0.134-1.632,0.488
				c-0.01,0.623,1.227,0.568,2.295,0.409c0.622-0.091,0.949-0.031,0.949,0.174c0,0.193-0.572,0.275-1.01,0.225
				c-0.438-0.052-0.889-0.04-1.408,0.11c-0.435,0.128-0.734,0-1.213,0.082c-0.233,0.04-0.797,0-1.075-0.457
				c-0.17,0.122-0.686,0.378-0.772,0.628c-0.121,0.23-0.04,0.458,0.124,0.682c0.205,0.281-0.101,0.239-0.32,0.25
				c-0.303,0.015-0.705-0.031-0.915-0.27c-0.188-0.21-0.435-0.381-0.632-0.225c-0.103,0.08-0.003,0.188,0.077,0.156
				c0.081-0.028,0.173,0.031,0.26,0.068c-0.136-0.06-0.285-0.015-0.344,0.04c-0.081,0.07,0.016,0.207,0.114,0.159
				c0.077-0.037,0.234-0.062,0.335,0.031c-0.111-0.023-0.226-0.018-0.28,0.042c-0.056,0.06-0.013,0.146,0.106,0.14
				c0.19-0.009,0.238,0.125,0.43,0.097c-0.116,0.017-0.185,0.076-0.216,0.125c0.181-0.086,0.376,0.136,0.608,0.085
				c-0.089,0.037-0.234,0.125-0.234,0.193c0.138-0.156,1.06,0.122,1.083-0.225c0.024,0.071,0.02,0.179-0.053,0.27
				c0.118-0.07,0.501-0.097,0.618-0.372c0.01,0.083-0.006,0.19-0.077,0.216c0.122,0.04,0.284-0.051,0.449-0.295
				c0.064-0.097,0.081-0.162,0.071-0.236c0.162,0.006,0.281-0.034,0.408-0.142c0.133-0.113,0.275,0.091,0.499-0.051
				c0.226-0.146,0.419-0.021,0.542-0.094c0.123-0.071,0.291,0.025,0.424-0.055c0.133-0.082,0.338,0.04,0.559-0.133
				c0.344,0.125,0.748,0.36,1.736,0.179c0.567-0.105,0.745,0.085,0.745,0.347c0,0.179-0.105,0.193-0.184,0.198
				c-0.316,0.021-0.45-0.119-0.575-0.073c-0.085,0.028-0.135,0.164-0.014,0.213c-0.1,0.048-0.087,0.145-0.037,0.179
				c0.053,0.037,0.184,0.006,0.272-0.037c-0.115,0.052-0.234,0.146-0.166,0.242c0.041,0.06,0.145,0.11,0.241-0.018
				C404.244,286.952,404.42,286.845,404.533,286.861L404.533,286.861z"/>
			<g clip-path="url(#SVGID_4_)">
				<path fill="#010101" d="M404.014,287.162c-0.053,0-0.094-0.033-0.115-0.064c0-0.018,0.004-0.034,0.006-0.052
					c0.031,0.083,0.066,0.105,0.109,0.105l0,0c0.045,0,0.09-0.025,0.127-0.077c0.096-0.122,0.258-0.219,0.367-0.219
					c-0.001,0-0.004,0.003-0.006,0.003c-0.125,0.022-0.266,0.111-0.354,0.222C404.098,287.148,404.048,287.162,404.014,287.162
					L404.014,287.162z M404.375,287.029c0.048-0.074,0.075-0.122,0.109-0.148c-0.021,0.026-0.04,0.061-0.055,0.089
					c0.186,0.042,0.322-0.009,0.412-0.137C404.757,286.967,404.615,287.023,404.375,287.029L404.375,287.029z M398.636,287.015
					c0.067-0.1,0.067-0.207,0.044-0.272c0,0.165-0.219,0.188-0.408,0.188l-0.424-0.015c-0.135,0-0.21,0.018-0.242,0.052
					c-0.004-0.043,0.041-0.088,0.097-0.128c-0.045,0.04-0.095,0.088-0.095,0.125c0.024-0.043,0.101-0.057,0.24-0.057l0.424,0.011
					c0.185,0,0.398-0.02,0.408-0.179c0.034,0.065,0.033,0.179-0.042,0.272c0.027-0.025,0.08-0.042,0.142-0.062
					c0.162-0.048,0.384-0.116,0.466-0.312c0.012,0.049,0.012,0.1-0.001,0.14c0.004-0.043,0.007-0.091,0.001-0.137
					c-0.075,0.202-0.3,0.271-0.463,0.321C398.721,286.978,398.668,286.995,398.636,287.015L398.636,287.015z M404.844,286.995
					v-0.012c0.113-0.04,0.201-0.119,0.232-0.207c0.02-0.052,0.016-0.105-0.01-0.146c0.051,0.058,0.184,0.094,0.225,0.097
					c-0.066-0.039-0.084-0.116-0.102-0.198c-0.021-0.105-0.047-0.216-0.174-0.29c0.102-0.003,0.234,0.079,0.273,0.176
					c-0.045-0.219-0.079-0.363-0.254-0.488c0.186,0.119,0.219,0.265,0.254,0.491c-0.049-0.097-0.191-0.179-0.266-0.179
					c0.129,0.068,0.154,0.185,0.177,0.29c0.017,0.079,0.032,0.153,0.094,0.201c-0.034,0-0.162-0.028-0.216-0.085
					c0.025,0.037,0.025,0.085,0.008,0.137C405.053,286.873,404.963,286.952,404.844,286.995L404.844,286.995z M403.969,286.915
					c0.017-0.017,0.035-0.031,0.051-0.042c-0.054,0.025-0.113,0.039-0.158,0.039l-0.107-0.104c0.002-0.022,0.014-0.071,0.076-0.103
					c-0.064-0.017-0.074-0.065-0.073-0.091c0.001-0.051,0.04-0.105,0.088-0.122c0.103-0.009,0.146,0.006,0.198,0.022
					c0.08,0.022,0.18,0.054,0.317,0.054c0.125-0.005,0.24-0.011,0.24-0.195c0-0.31-0.235-0.435-0.739-0.341
					c-0.876,0.159-1.301-0.009-1.617-0.134l-0.121-0.046c-0.121,0.097-0.219,0.097-0.35,0.1c-0.105,0-0.158,0.003-0.203,0.031
					c-0.041,0.025-0.086,0.037-0.148,0.037l-0.152-0.009c-0.055,0-0.092,0.009-0.123,0.028c-0.031,0.018-0.067,0.026-0.119,0.026
					l-0.158-0.006c-0.071,0-0.164,0.006-0.265,0.07c-0.102,0.065-0.214,0.058-0.307,0.034l-0.196,0.015l0.002,0.003
					c-0.118,0.103-0.233,0.145-0.38,0.145c-0.014,0.071-0.034,0.14-0.097,0.233c-0.134,0.195-0.274,0.307-0.395,0.307
					c0-0.006,0.001-0.009,0.001-0.015c0.146-0.022,0.269-0.128,0.385-0.301c0.061-0.088,0.08-0.153,0.07-0.23
					c0.182-0.005,0.292-0.048,0.411-0.147c0.03-0.025,0.061-0.037,0.099-0.037l0.103,0.018c0.094,0.022,0.2,0.034,0.297-0.031
					c0.105-0.065,0.2-0.074,0.271-0.074l0.158,0.006c0.051,0,0.084-0.006,0.111-0.022c0.035-0.021,0.075-0.028,0.131-0.028
					l0.152,0.005c0.059,0,0.104-0.011,0.142-0.034c0.052-0.031,0.131-0.036,0.177-0.033c0.154,0,0.267-0.009,0.382-0.1l0.125,0.045
					c0.316,0.125,0.737,0.293,1.613,0.134c0.622-0.113,0.75,0.14,0.75,0.353c0,0.193-0.126,0.201-0.188,0.204
					c-0.167-0.009-0.302-0.028-0.384-0.054c-0.053-0.015-0.098-0.028-0.139-0.028c-0.098,0.022-0.133,0.071-0.134,0.119
					c-0.001,0.043,0.022,0.074,0.068,0.091c-0.042,0.031-0.068,0.065-0.069,0.103l0.096,0.094c0.057,0,0.135-0.021,0.201-0.052
					C404.041,286.867,404.004,286.887,403.969,286.915L403.969,286.915z M397.378,286.561c-0.077,0-0.118-0.021-0.159-0.04
					c-0.053-0.025-0.132-0.065-0.19-0.051c-0.084,0-0.128-0.023-0.144-0.06c0.008-0.023,0.017-0.04,0.027-0.055
					c0.004,0.088,0.034,0.105,0.097,0.103c0.106,0,0.162,0.028,0.216,0.054c0.051,0.023,0.1,0.049,0.17,0.049
					c-0.001,0-0.002,0-0.002,0C397.389,286.561,397.383,286.561,397.378,286.561L397.378,286.561z M398.195,286.327
					c-0.217,0-0.609-0.034-0.821-0.272c-0.155-0.174-0.432-0.375-0.624-0.222l0.044,0.15c0.132-0.014,0.186,0.015,0.243,0.043
					c-0.004,0-0.008,0-0.011,0c-0.07-0.028-0.114-0.046-0.156-0.046c-0.115,0.021-0.155-0.014-0.167-0.051
					c-0.013-0.037,0.002-0.077,0.041-0.105c0.193-0.156,0.48,0.046,0.639,0.225c0.208,0.236,0.598,0.27,0.812,0.27h0.192v-0.002
					c0.124-0.003,0.251-0.006,0.281-0.065c0.019-0.037,0-0.094-0.06-0.177c-0.192-0.264-0.23-0.482-0.124-0.688
					c0.067-0.193,0.396-0.395,0.614-0.528c0.065-0.04,0.122-0.074,0.16-0.103c0.271,0.438,0.776,0.469,0.923,0.469
					c0.06,0,0.112-0.003,0.154-0.011c0.136-0.023,0.258-0.028,0.375-0.028l0.38,0.008c0.125,0,0.277-0.008,0.457-0.06
					c0.473-0.139,0.951-0.165,1.41-0.113c0.426,0.051,1.004-0.028,1.004-0.219c0.002-0.199-0.324-0.259-0.941-0.168
					c-1.182,0.177-1.933,0.128-2.195-0.136c-0.074-0.077-0.109-0.168-0.108-0.279c0.009-0.522,0.803-0.564,1.045-0.564
					c0.215,0,0.438,0.028,0.594,0.07c0.381,0.108,1,0.125,1.229,0.046l0,0c0,0,0,0-0.001,0c-0.011,0.009-0.024,0.011-0.04,0.017
					c-0.611,0.23-0.955,0.216-1.373,0.153c-0.389-0.06-1.166-0.022-1.166,0.271c0,0.085,0.096,0.159,0.279,0.21
					c0.381,0.105,1.115,0.091,1.682-0.031c0.189-0.043,0.365-0.062,0.524-0.062c0.597,0,0.808,0.278,0.808,0.52
					c0,0.341-0.62,0.69-1.016,0.531c0.301,0.193,0.609,0.193,0.967,0.193c0.163,0,0.46-0.017,0.596-0.051
					c0.041-0.009,0.074-0.015,0.104-0.015l0.105,0.122c-0.011,0.083,0.029,0.208,0.146,0.282h-0.016
					c-0.112-0.074-0.151-0.199-0.14-0.284l-0.096-0.111c-0.027,0-0.062,0.006-0.104,0.018c-0.133,0.031-0.433,0.051-0.596,0.051
					c-0.359,0-0.671,0-0.968-0.207c0.443,0.122,1.007-0.228,1.007-0.529c0-0.409-0.553-0.616-1.32-0.448
					c-0.57,0.122-1.306,0.136-1.687,0.031c-0.188-0.052-0.288-0.128-0.288-0.219c0-0.299,0.77-0.347,1.18-0.281
					c0.411,0.062,0.749,0.07,1.35-0.137c-0.266,0.074-0.816,0.043-1.168-0.057c-0.156-0.046-0.377-0.071-0.592-0.071
					c-0.24,0-1.027,0.04-1.035,0.554c-0.001,0.108,0.034,0.199,0.105,0.271c0.26,0.261,1.01,0.307,2.186,0.134
					c0.633-0.094,0.953-0.029,0.953,0.179c0,0.198-0.58,0.278-1.016,0.229c-0.457-0.054-0.935-0.025-1.404,0.111
					c-0.183,0.054-0.334,0.062-0.461,0.062l-0.38-0.009c-0.115,0-0.237,0.006-0.373,0.028c-0.042,0.006-0.096,0.012-0.156,0.012
					c-0.149,0-0.659-0.034-0.923-0.472c-0.033,0.028-0.089,0.062-0.156,0.103c-0.216,0.133-0.541,0.332-0.608,0.525
					c-0.105,0.202-0.068,0.415,0.122,0.676c0.061,0.086,0.081,0.146,0.061,0.188c-0.034,0.065-0.165,0.065-0.291,0.068
					L398.195,286.327L398.195,286.327z M396.968,286.29c0.061-0.039,0.138-0.028,0.22-0.014c-0.124-0.088-0.25-0.062-0.333-0.021
					c-0.081,0.006-0.129-0.02-0.145-0.062c-0.016-0.039-0.006-0.079,0.025-0.107c0.047-0.043,0.165-0.08,0.28-0.06
					c-0.167,0.006-0.239,0.037-0.274,0.068c-0.006,0.133,0.031,0.161,0.07,0.161c0.162-0.062,0.257-0.091,0.379,0.021
					c-0.04,0.003-0.081,0-0.116,0C397.032,286.276,396.997,286.279,396.968,286.29L396.968,286.29z"/>
			</g>
			<path clip-path="url(#SVGID_4_)" fill="#F2DD31" d="M398.252,284.168c-0.284-0.116-0.381-0.119-0.315,0.113
				c0.028,0.1,0.097,0.239,0.166,0.305C398.106,284.489,398.142,284.219,398.252,284.168L398.252,284.168z"/>
			<g clip-path="url(#SVGID_4_)">
				<path fill="#010101" d="M398.109,284.597l-0.009-0.008c-0.071-0.065-0.141-0.208-0.169-0.308
					c-0.024-0.088-0.025-0.142-0.004-0.17c0.02-0.006,0.039-0.009,0.056-0.009c-0.065,0.046-0.062,0.097-0.041,0.177
					c0.027,0.096,0.091,0.227,0.157,0.292c0.004-0.088,0.037-0.354,0.152-0.406c-0.095-0.034-0.162-0.054-0.21-0.062
					c0.065,0.003,0.128,0.025,0.214,0.062c-0.104,0.057-0.145,0.31-0.146,0.421V284.597L398.109,284.597z"/>
			</g>
			<path clip-path="url(#SVGID_4_)" fill="#F2DD31" d="M399.146,284.168c0.285-0.116,0.382-0.119,0.316,0.113
				c-0.028,0.1-0.096,0.239-0.166,0.305C399.295,284.489,399.259,284.219,399.146,284.168L399.146,284.168z"/>
			<g clip-path="url(#SVGID_4_)">
				<path fill="#010101" d="M399.292,284.597v-0.011c-0.001-0.111-0.044-0.364-0.147-0.412c0.136-0.065,0.213-0.088,0.263-0.088
					c0.016,0.008,0.028,0.017,0.038,0.028c-0.096-0.018-0.172,0.009-0.297,0.06c0.115,0.043,0.149,0.31,0.154,0.397
					c0.064-0.065,0.127-0.196,0.155-0.292c0.014-0.049,0.021-0.089,0.02-0.117c0.01,0.034,0.004,0.071-0.01,0.119
					c-0.028,0.1-0.097,0.242-0.166,0.308L399.292,284.597L399.292,284.597z"/>
			</g>
			<path clip-path="url(#SVGID_4_)" fill="#F2DD31" d="M398.701,284.012c0.541,0,0.608,0.253,0.606,0.571
				c-0.003,0.341-0.188,0.225-0.292,0.662c-0.04,0.173-0.178,0.182-0.314,0.182c-0.139,0-0.274-0.009-0.315-0.182
				c-0.105-0.438-0.288-0.321-0.29-0.662C398.093,284.265,398.16,284.012,398.701,284.012L398.701,284.012z"/>
			<g clip-path="url(#SVGID_4_)">
				<path fill="#010101" d="M398.701,285.433c-0.15,0-0.278-0.015-0.321-0.188c-0.051-0.214-0.122-0.296-0.179-0.361
					c-0.061-0.071-0.109-0.125-0.111-0.301c-0.001-0.159,0.013-0.321,0.124-0.432c0.19-0.193,0.784-0.193,0.976,0
					c0.109,0.11,0.124,0.272,0.122,0.432c-0.001,0.176-0.05,0.229-0.111,0.301c-0.058,0.065-0.129,0.147-0.18,0.361
					C398.979,285.418,398.846,285.433,398.701,285.433L398.701,285.433z M398.701,284.018c-0.229,0-0.388,0.045-0.481,0.139
					c-0.106,0.108-0.12,0.271-0.12,0.427c0.001,0.17,0.048,0.225,0.108,0.292c0.059,0.068,0.131,0.151,0.182,0.37
					c0.04,0.162,0.165,0.176,0.311,0.176s0.271-0.014,0.31-0.176c0.051-0.219,0.124-0.302,0.182-0.37
					c0.061-0.067,0.108-0.122,0.109-0.292c0.001-0.156-0.013-0.318-0.12-0.427C399.089,284.062,398.931,284.018,398.701,284.018
					L398.701,284.018z"/>
			</g>
			<path clip-path="url(#SVGID_4_)" fill="#F2DD31" d="M397.306,285.265c-0.136-0.079-0.225-0.022-0.281-0.009
				c0.179,0.046,0.185,0.276,0.594,0.384c-0.092-0.028-0.144,0.022-0.23-0.022c0.169,0.134,0.356,0.287,0.756,0.29
				c0.22,0.003,0.068,0.119-0.077,0.051c0.151,0.156,0.449,0.028,0.638,0.312c0.034-0.219-0.353-0.565-0.173-0.815
				c-0.551-0.022-0.595-0.33-0.914-0.571c-0.257-0.198-0.283-0.397-0.395-0.772c-0.052-0.171-0.251-0.278-0.362-0.238
				c-0.096,0.036-0.13,0.119-0.048,0.182c0.082,0.062,0.188,0.07,0.211,0.229c-0.109-0.128-0.27-0.176-0.347-0.094
				c-0.048,0.049-0.028,0.162,0.073,0.174c0.165,0.017,0.047,0.176,0.236,0.335c-0.168-0.188-0.313-0.204-0.401-0.103
				c-0.054,0.062,0,0.171,0.115,0.159C396.866,284.739,397.059,285.159,397.306,285.265L397.306,285.265z"/>
			<g clip-path="url(#SVGID_4_)">
				<path fill="#010101" d="M398.708,286.285l-0.007-0.012c-0.109-0.162-0.257-0.19-0.388-0.21c-0.095-0.018-0.186-0.034-0.25-0.1
					l0.188-0.022c0-0.009-0.024-0.026-0.106-0.029c-0.392-0.002-0.581-0.15-0.748-0.281l0.115-0.003l0.062,0.006l-0.106,0.009
					c0.099,0.11,0.287,0.256,0.676,0.262c0.074,0,0.116,0.014,0.116,0.037v0.005l-0.1,0.04c-0.028,0.034,0.06,0.049,0.155,0.065
					c0.127,0.022,0.275,0.048,0.385,0.204c0.007-0.085-0.047-0.189-0.101-0.301c-0.089-0.173-0.18-0.355-0.072-0.503
					c-0.383-0.009-0.52-0.162-0.679-0.338c-0.066-0.077-0.138-0.153-0.233-0.228c-0.223-0.17-0.271-0.341-0.354-0.628l-0.042-0.147
					c-0.034-0.111-0.131-0.193-0.223-0.225c0.111,0.034,0.199,0.113,0.233,0.222l0.042,0.15c0.081,0.281,0.131,0.452,0.35,0.619
					c0.097,0.074,0.167,0.153,0.236,0.23c0.156,0.173,0.292,0.324,0.675,0.341c-0.1,0.153-0.01,0.33,0.077,0.5
					c0.06,0.119,0.115,0.23,0.101,0.321L398.708,286.285L398.708,286.285z M397.584,285.634c-0.224-0.068-0.318-0.167-0.395-0.25
					c-0.053-0.06-0.097-0.104-0.167-0.122c0.058-0.031,0.097-0.045,0.141-0.045l0.101,0.022c-0.145-0.015-0.181,0.003-0.209,0.011
					c0.042,0.021,0.088,0.068,0.141,0.126c0.08,0.085,0.178,0.189,0.417,0.255L397.584,285.634L397.584,285.634z M397.265,285.239
					c-0.108-0.052-0.202-0.162-0.286-0.259c-0.1-0.116-0.216-0.219-0.274-0.222c-0.075,0-0.118-0.025-0.136-0.065
					c0.007-0.022,0.016-0.042,0.023-0.06c0.007,0.091,0.041,0.116,0.092,0.116h0.001c0.112,0,0.199,0.103,0.302,0.222
					C397.07,285.068,397.164,285.18,397.265,285.239L397.265,285.239z M396.934,284.637c-0.115-0.085-0.216-0.119-0.292-0.079
					c0.081-0.083,0.185-0.021,0.291,0.079c-0.053-0.051-0.067-0.107-0.077-0.153c-0.016-0.065-0.026-0.108-0.105-0.113
					c-0.046-0.006-0.081-0.031-0.095-0.074c-0.014-0.04-0.006-0.082,0.018-0.11c0.077-0.08,0.246-0.031,0.355,0.096
					c-0.027-0.113-0.088-0.145-0.152-0.182c-0.102-0.068-0.121-0.1-0.115-0.133c0.007-0.043,0.042-0.077,0.098-0.097
					c0.02,0,0.042-0.003,0.064,0c-0.003,0-0.007,0-0.01,0c-0.102,0.025-0.136,0.06-0.141,0.097l0.108,0.125
					c0.064,0.036,0.131,0.07,0.148,0.192c-0.117-0.116-0.276-0.17-0.347-0.091c-0.004,0.137,0.027,0.162,0.069,0.165
					c0.087,0.009,0.098,0.06,0.114,0.122C396.876,284.526,396.889,284.58,396.934,284.637L396.934,284.637z"/>
			</g>
			<path clip-path="url(#SVGID_4_)" fill="#F2DD31" d="M401.744,286.842c-0.087,0.014-0.061,0.159-0.178,0.167
				c0.279,0,0.424-0.065,0.557-0.173c-0.062,0.037-0.086,0.128-0.094,0.179c0.149-0.128,0.502-0.136,0.686-0.103
				c0.183,0.037,0.213-0.051,0.279-0.167s-0.025-0.185-0.117-0.275s-0.111-0.219-0.092-0.435c-0.49-0.651-1.367-0.336-1.377-0.052
				c0.316,0.369,0.355,0.327,0.621,0.378s0.43,0.051,0.25,0.199c-0.06,0.051-0.314,0.028-0.516,0.037
				c-0.444,0.02-0.647-0.308-0.778-0.137c-0.108,0.139,0.004,0.199,0.224,0.193c-0.152,0-0.354-0.009-0.32,0.133
				c0.059,0.242,0.289-0.045,0.377,0.055c-0.077-0.018-0.195,0.028-0.199,0.102c-0.004,0.071,0.169,0.165,0.359,0.012
				C401.531,286.873,401.663,286.842,401.744,286.842L401.744,286.842z"/>
			<g clip-path="url(#SVGID_4_)">
				<path fill="#010101" d="M401.219,287.043c-0.056,0-0.107-0.017-0.135-0.048c-0.004-0.015-0.004-0.025-0.004-0.037
					c0.045,0.06,0.088,0.074,0.139,0.074l0,0c0.047,0,0.12-0.015,0.204-0.08c0.104-0.082,0.239-0.113,0.321-0.116l-0.066,0.085
					c-0.021,0.04-0.045,0.088-0.111,0.094c0.285-0.011,0.42-0.082,0.525-0.162c-0.031,0.049-0.051,0.114-0.057,0.162
					c0.109-0.11,0.467-0.147,0.681-0.107c0.179,0.003,0.212-0.052,0.259-0.137c0.072-0.128,0.01-0.19-0.068-0.267
					c-0.121-0.12-0.148-0.242-0.127-0.469c-0.247-0.327-0.575-0.378-0.748-0.378c-0.342,0-0.613,0.176-0.618,0.326
					c0.272,0.315,0.337,0.327,0.525,0.358l0.196,0.034c0.128,0.022,0.213,0.036,0.225,0.079c0.007,0.025-0.016,0.06-0.077,0.111
					c-0.034,0.028-0.126,0.033-0.265,0.033l-0.254,0.003c0,0-0.002,0-0.004,0c-0.238,0-0.387-0.07-0.503-0.125
					c-0.073-0.034-0.131-0.062-0.179-0.062c-0.125,0.097-0.138,0.134-0.124,0.165c0.02,0.043,0.085,0.065,0.192,0.068
					c-0.049,0.006-0.1,0.009-0.145,0.017c0.031-0.011,0.066-0.014,0.1-0.017c-0.085,0-0.138-0.025-0.156-0.062
					c-0.017-0.034-0.004-0.077,0.035-0.131c0.061-0.079,0.148-0.051,0.279,0.012c0.117,0.057,0.266,0.128,0.467,0.128l0.165-0.003
					l0.126,0.003v-0.003c0.105,0,0.223-0.003,0.26-0.034c0.053-0.046,0.078-0.077,0.072-0.1c-0.009-0.037-0.098-0.051-0.217-0.071
					l-0.104-0.02c-0.279-0.046-0.348-0.057-0.625-0.381c0.004-0.159,0.279-0.341,0.627-0.341c0.303,0,0.57,0.139,0.757,0.387
					c-0.021,0.227,0.007,0.349,0.094,0.435c0.109,0.107,0.178,0.173,0.116,0.281c-0.061,0.11-0.1,0.179-0.21,0.179
					c-0.132-0.02-0.206-0.025-0.286-0.025c-0.207,0-0.383,0.042-0.47,0.116c-0.005-0.028,0.009-0.113,0.06-0.162
					c-0.139,0.114-0.293,0.159-0.525,0.159c0.061-0.014,0.081-0.06,0.102-0.1c0.016-0.034,0.033-0.07,0.074-0.079
					c-0.079,0.012-0.21,0.043-0.313,0.125C401.344,287.029,401.267,287.043,401.219,287.043L401.219,287.043z"/>
			</g>
			<path clip-path="url(#SVGID_4_)" fill="#F2DD31" d="M404.055,290.433c-0.096,0.022-0.096,0.147-0.147,0.147
				c0.251-0.008,0.372-0.076,0.449-0.201c-0.058,0.048-0.009,0.145-0.026,0.17c0.184-0.065,0.271-0.222,0.208-0.326
				c0.04,0.06,0.161,0.091,0.196,0.097c-0.128-0.103-0.035-0.333-0.243-0.452c0.068-0.003,0.202,0.074,0.24,0.165
				c-0.032-0.205-0.065-0.338-0.235-0.452c0.018,0.021,0.114,0.037,0.156,0c-0.111-0.07-0.143-0.185-0.133-0.258
				c0.012-0.103-0.057-0.125-0.186-0.092c-0.114,0.029-0.38,0.046-0.535,0.046c-0.322,0-0.602,0-0.869-0.185
				c0.4,0.168,0.91-0.182,0.91-0.472c0-0.321-0.396-0.583-1.193-0.409c-0.801,0.173-1.773,0.103-1.773-0.165
				c0-0.267,0.697-0.304,1.057-0.247c0.358,0.054,0.615,0.091,1.286-0.147c-0.165,0.065-0.699,0.082-1.121-0.037
				c-0.423-0.119-1.459-0.119-1.469,0.44c-0.008,0.56,1.104,0.509,2.065,0.369c0.56-0.085,0.854-0.028,0.854,0.153
				c0,0.177-0.513,0.25-0.908,0.202c-0.396-0.046-0.797-0.034-1.267,0.103c-0.391,0.113-0.662,0-1.094,0.073
				c-0.208,0.034-0.716,0-0.966-0.415c-0.152,0.111-0.618,0.342-0.696,0.565c-0.108,0.208-0.036,0.415,0.11,0.614
				c0.185,0.256-0.091,0.219-0.29,0.228c-0.27,0.011-0.632-0.029-0.821-0.245c-0.167-0.19-0.391-0.341-0.568-0.201
				c-0.092,0.073-0.003,0.167,0.069,0.142c0.07-0.025,0.156,0.025,0.233,0.06c-0.122-0.051-0.257-0.011-0.31,0.034
				c-0.072,0.065,0.016,0.19,0.103,0.146c0.068-0.034,0.211-0.058,0.302,0.028c-0.099-0.021-0.202-0.015-0.253,0.037
				c-0.049,0.054-0.011,0.133,0.095,0.127c0.173-0.008,0.216,0.111,0.39,0.089c-0.108,0.014-0.167,0.067-0.195,0.11
				c0.162-0.074,0.339,0.122,0.545,0.077c-0.08,0.034-0.21,0.113-0.21,0.173c0.125-0.142,0.956,0.111,0.973-0.201
				c0.023,0.064,0.019,0.161-0.045,0.244c0.106-0.065,0.451-0.088,0.556-0.336c0.01,0.074-0.004,0.171-0.068,0.193
				c0.111,0.034,0.256-0.048,0.403-0.267c0.06-0.088,0.073-0.146,0.062-0.21c0.148,0.005,0.254-0.031,0.37-0.131
				c0.118-0.1,0.247,0.082,0.45-0.046c0.202-0.128,0.376-0.017,0.484-0.082c0.11-0.062,0.263,0.022,0.384-0.052
				c0.117-0.07,0.304,0.037,0.5-0.119c0.312,0.114,0.675,0.327,1.564,0.162c0.511-0.094,0.67,0.08,0.67,0.312
				c0,0.159-0.096,0.174-0.165,0.179c-0.284,0.018-0.406-0.104-0.517-0.067c-0.077,0.028-0.121,0.15-0.014,0.192
				c-0.09,0.046-0.078,0.131-0.031,0.162c0.045,0.031,0.162,0.003,0.244-0.034c-0.104,0.049-0.209,0.131-0.15,0.219
				c0.037,0.055,0.131,0.1,0.218-0.014C403.793,290.512,403.951,290.418,404.055,290.433L404.055,290.433z"/>
			<g clip-path="url(#SVGID_4_)">
				<path fill="#010101" d="M403.586,290.702c-0.047,0-0.084-0.028-0.104-0.057c0-0.017,0.003-0.034,0.006-0.048
					c0.057,0.147,0.145,0.113,0.212,0.025c0.085-0.111,0.229-0.196,0.331-0.196c-0.003,0-0.004,0.003-0.006,0.003
					c-0.112,0.02-0.24,0.1-0.316,0.202C403.663,290.691,403.616,290.702,403.586,290.702L403.586,290.702z M403.91,290.586
					c0.044-0.071,0.068-0.113,0.1-0.137c-0.018,0.023-0.034,0.055-0.049,0.083c0.162,0.034,0.287-0.015,0.369-0.125
					C404.256,290.526,404.127,290.577,403.91,290.586L403.91,290.586z M398.747,290.569c0.058-0.091,0.06-0.185,0.039-0.245
					c0.001,0.151-0.196,0.168-0.367,0.168l-0.381-0.012c-0.082,0-0.182,0.006-0.217,0.046c-0.005-0.04,0.037-0.082,0.09-0.116
					c-0.042,0.034-0.09,0.079-0.09,0.113c0.021-0.037,0.092-0.051,0.217-0.051l0.381,0.011c0.166,0,0.358-0.02,0.367-0.161
					c0.031,0.062,0.03,0.161-0.037,0.247c0.023-0.026,0.071-0.04,0.128-0.058c0.145-0.045,0.344-0.104,0.417-0.283
					c0.011,0.045,0.011,0.091,0,0.13c0.003-0.039,0.006-0.085,0-0.128c-0.065,0.183-0.269,0.245-0.415,0.29
					C398.823,290.538,398.776,290.552,398.747,290.569L398.747,290.569z M404.332,290.552v-0.011
					c0.104-0.037,0.182-0.105,0.211-0.186c0.017-0.048,0.014-0.094-0.01-0.13c0.047,0.051,0.164,0.082,0.203,0.088
					c-0.062-0.037-0.078-0.105-0.092-0.179c-0.02-0.097-0.041-0.196-0.156-0.262c0.09,0,0.211,0.068,0.248,0.159
					c-0.042-0.199-0.072-0.327-0.229-0.44c0.166,0.107,0.198,0.238,0.229,0.44c-0.048-0.088-0.176-0.159-0.239-0.159
					c0.116,0.06,0.138,0.165,0.157,0.259c0.015,0.07,0.029,0.139,0.084,0.182c-0.031-0.003-0.145-0.022-0.193-0.074
					c0.021,0.034,0.023,0.074,0.008,0.119C404.523,290.441,404.441,290.515,404.332,290.552L404.332,290.552z M403.544,290.483
					c0.015-0.017,0.031-0.028,0.046-0.039c-0.049,0.022-0.1,0.031-0.14,0.031l-0.099-0.094c0.002-0.021,0.014-0.062,0.07-0.091
					l0.006,0.008c-0.04,0.021-0.062,0.052-0.066,0.086l0.089,0.082c0.05,0,0.122-0.018,0.185-0.049
					C403.613,290.436,403.576,290.455,403.544,290.483L403.544,290.483z M399.282,290.436c0.001-0.003,0.001-0.009,0.003-0.012
					c0.132-0.02,0.24-0.113,0.347-0.27c0.054-0.082,0.071-0.14,0.061-0.207c0.163-0.006,0.264-0.043,0.371-0.134l0.18-0.018
					c0.081,0.021,0.181,0.026,0.27-0.028c0.094-0.06,0.179-0.068,0.243-0.068l0.142,0.006c0.13-0.039,0.167-0.048,0.216-0.048
					l0.136,0.009c0.056,0,0.095-0.012,0.13-0.031c0.048-0.031,0.117-0.034,0.158-0.031c0.139,0,0.238-0.006,0.343-0.089l0.118,0.043
					c0.287,0.113,0.669,0.262,1.447,0.119c0.557-0.103,0.676,0.125,0.676,0.315c0,0.174-0.109,0.179-0.169,0.185
					c-0.171-0.003-0.271-0.025-0.345-0.048c-0.049-0.015-0.09-0.028-0.125-0.028c-0.087,0.022-0.119,0.067-0.119,0.11l0.011,0.003
					l0.046,0.077c-0.061-0.015-0.066-0.058-0.066-0.08c0-0.048,0.033-0.097,0.079-0.11c0.091-0.012,0.129,0.003,0.177,0.017
					c0.073,0.022,0.164,0.051,0.289,0.051c0.131-0.008,0.213-0.025,0.213-0.176c0.002-0.281-0.206-0.392-0.663-0.307
					c-0.786,0.142-1.168-0.006-1.454-0.119l-0.113-0.043c-0.109,0.088-0.24,0.085-0.312,0.091c-0.095,0-0.143,0.003-0.184,0.028
					c-0.036,0.023-0.079,0.034-0.136,0.034l-0.136-0.009c-0.047,0-0.082,0.009-0.109,0.026c-0.036,0.02-0.076,0.022-0.107,0.022
					l-0.142-0.006c-0.062,0-0.146,0.006-0.237,0.065c-0.092,0.057-0.195,0.051-0.278,0.028l-0.175,0.012l0.003,0.006
					c-0.108,0.091-0.21,0.13-0.341,0.13c-0.014,0.062-0.033,0.122-0.089,0.208C399.518,290.339,399.392,290.436,399.282,290.436
					L399.282,290.436z M397.61,290.16c-0.067,0-0.104-0.018-0.139-0.034c-0.048-0.022-0.126-0.043-0.172-0.046
					c-0.076,0-0.114-0.022-0.129-0.054c0.008-0.02,0.017-0.037,0.025-0.051c0.003,0.079,0.021,0.076,0.084,0.094
					c0.099,0,0.147,0.022,0.196,0.048c0.047,0.02,0.09,0.043,0.154,0.043C397.625,290.166,397.616,290.16,397.61,290.16
					L397.61,290.16z M398.352,289.952c-0.196,0-0.551-0.031-0.741-0.247c-0.111-0.125-0.379-0.344-0.56-0.198l0.031,0.11
					l-0.077-0.025l0.039-0.094c0.185-0.147,0.463,0.074,0.575,0.201c0.188,0.211,0.54,0.245,0.733,0.245h0.17v-0.006
					c0.111,0,0.226-0.003,0.254-0.057c0.016-0.034-0.001-0.086-0.055-0.156c-0.173-0.239-0.208-0.435-0.111-0.62
					c0.06-0.173,0.341-0.347,0.547-0.472c0.061-0.039,0.115-0.07,0.15-0.096c0.245,0.392,0.696,0.423,0.83,0.423
					c0.054,0,0.101-0.006,0.139-0.012c0.121-0.02,0.232-0.025,0.334-0.025l0.347,0.006c0.113,0,0.248-0.006,0.412-0.054
					c0.426-0.125,0.852-0.148,1.269-0.1c0.386,0.043,0.903-0.025,0.903-0.199c0-0.179-0.293-0.229-0.848-0.15
					c-1.07,0.159-1.741,0.113-1.975-0.125c-0.067-0.065-0.101-0.15-0.098-0.247c0.009-0.472,0.724-0.509,0.943-0.509
					c0.192,0,0.391,0.022,0.531,0.062c0.271,0.077,0.548,0.088,0.688,0.088c0.174,0,0.327-0.017,0.412-0.045l0,0c0,0,0,0,0,0.003
					c-0.011,0.003-0.023,0.008-0.037,0.011c-0.542,0.205-0.859,0.193-1.229,0.137c-0.351-0.054-1.051-0.02-1.051,0.244
					c0,0.077,0.088,0.143,0.254,0.188c0.343,0.097,1.005,0.083,1.513-0.028c0.17-0.037,0.33-0.054,0.473-0.054
					c0.537,0,0.728,0.253,0.728,0.469c-0.001,0.312-0.556,0.622-0.917,0.478c0.272,0.173,0.549,0.173,0.871,0.173
					c0.148,0,0.416-0.017,0.535-0.045l0.054,0.003c-0.203,0.039-0.45,0.054-0.589,0.054c-0.323,0-0.604,0-0.871-0.185
					c0.398,0.102,0.906-0.205,0.906-0.478c0-0.369-0.5-0.554-1.187-0.403c-0.513,0.113-1.175,0.122-1.519,0.025
					c-0.172-0.046-0.261-0.113-0.261-0.196c0-0.267,0.693-0.31,1.062-0.253c0.365,0.057,0.676,0.06,1.208-0.119
					c-0.089,0.022-0.215,0.031-0.354,0.031c-0.142,0-0.42-0.012-0.689-0.085c-0.141-0.04-0.34-0.065-0.53-0.065
					c-0.218,0-0.925,0.037-0.933,0.5c-0.001,0.097,0.031,0.176,0.095,0.241c0.233,0.236,0.9,0.278,1.966,0.122
					c0.566-0.082,0.859-0.028,0.859,0.159c-0.002,0.18-0.521,0.253-0.916,0.208c-0.412-0.049-0.838-0.023-1.265,0.102
					c-0.161,0.049-0.3,0.055-0.413,0.055l-0.347-0.009c-0.102,0-0.211,0.006-0.333,0.025c-0.038,0.009-0.086,0.012-0.141,0.012
					c-0.135,0-0.592-0.031-0.83-0.427c-0.03,0.028-0.083,0.062-0.145,0.1c-0.205,0.125-0.483,0.296-0.543,0.466
					c-0.097,0.183-0.061,0.375,0.109,0.608c0.057,0.076,0.074,0.134,0.056,0.17c-0.03,0.061-0.144,0.061-0.263,0.062
					L398.352,289.952L398.352,289.952z M397.244,289.921c0.028-0.022,0.061-0.028,0.098-0.028c-0.108-0.034-0.159-0.022-0.199-0.006
					c-0.068,0.006-0.114-0.017-0.129-0.057c0.011-0.028,0.024-0.048,0.037-0.068l0.054,0.125c0.145-0.054,0.233-0.082,0.342,0.021
					l0.01,0.009l-0.115-0.012C397.303,289.904,397.271,289.91,397.244,289.921L397.244,289.921z"/>
			</g>
			<path clip-path="url(#SVGID_4_)" fill="#F2DD31" d="M398.401,288.009c-0.256-0.104-0.344-0.107-0.284,0.1
				c0.027,0.091,0.087,0.219,0.149,0.275C398.268,288.296,398.301,288.055,398.401,288.009L398.401,288.009z"/>
			<g clip-path="url(#SVGID_4_)">
				<path fill="#010101" d="M398.272,288.396l-0.01-0.009c-0.062-0.057-0.122-0.182-0.149-0.275
					c-0.024-0.079-0.024-0.128-0.006-0.153c0.019-0.006,0.036-0.009,0.051-0.009c-0.06,0.04-0.057,0.086-0.036,0.159
					c0.025,0.085,0.081,0.205,0.139,0.262c0.003-0.08,0.034-0.321,0.138-0.366c-0.089-0.029-0.152-0.049-0.196-0.058
					c0.061,0.003,0.119,0.026,0.199,0.058c-0.092,0.054-0.128,0.278-0.131,0.38V288.396L398.272,288.396z"/>
			</g>
			<path clip-path="url(#SVGID_4_)" fill="#F2DD31" d="M399.204,288.009c0.258-0.104,0.345-0.107,0.286,0.1
				c-0.026,0.091-0.085,0.219-0.148,0.275C399.339,288.296,399.308,288.055,399.204,288.009L399.204,288.009z"/>
			<g clip-path="url(#SVGID_4_)">
				<path fill="#010101" d="M399.336,288.396v-0.012c-0.002-0.102-0.038-0.326-0.133-0.369c0.122-0.062,0.192-0.082,0.239-0.082
					c0.014,0.009,0.024,0.017,0.034,0.028c-0.083-0.015-0.155,0.006-0.269,0.054c0.097,0.031,0.135,0.247,0.139,0.355
					c0.058-0.057,0.114-0.177,0.139-0.262c0.013-0.048,0.019-0.082,0.017-0.107c0.011,0.031,0.004,0.065-0.007,0.11
					c-0.027,0.094-0.088,0.219-0.15,0.275L399.336,288.396L399.336,288.396z"/>
			</g>
			<path clip-path="url(#SVGID_4_)" fill="#F2DD31" d="M398.803,287.867c0.487,0,0.548,0.23,0.546,0.514
				c-0.001,0.308-0.167,0.202-0.262,0.598c-0.035,0.153-0.159,0.161-0.284,0.161c-0.122,0-0.246-0.008-0.282-0.161
				c-0.094-0.396-0.259-0.29-0.26-0.598C398.256,288.098,398.319,287.867,398.803,287.867L398.803,287.867z"/>
			<g clip-path="url(#SVGID_4_)">
				<path fill="#010101" d="M398.803,289.146c-0.13,0-0.25-0.014-0.288-0.167c-0.045-0.193-0.108-0.268-0.161-0.327
					c-0.055-0.062-0.098-0.113-0.1-0.271c-0.001-0.136,0.01-0.286,0.109-0.389c0.173-0.176,0.706-0.174,0.879,0
					c0.1,0.1,0.112,0.244,0.111,0.389c-0.001,0.159-0.044,0.208-0.099,0.273c-0.051,0.06-0.117,0.131-0.162,0.324
					C399.056,289.132,398.936,289.146,398.803,289.146L398.803,289.146z M398.803,287.873c-0.206,0-0.348,0.039-0.432,0.125
					c-0.097,0.1-0.108,0.25-0.106,0.383c0.001,0.154,0.044,0.202,0.098,0.265c0.051,0.06,0.115,0.137,0.162,0.33
					c0.037,0.147,0.148,0.159,0.278,0.159c0.132,0,0.245-0.012,0.28-0.159c0.045-0.193,0.111-0.271,0.163-0.33
					c0.054-0.062,0.097-0.11,0.098-0.265c0-0.142-0.011-0.286-0.108-0.383C399.151,287.912,399.011,287.873,398.803,287.873
					L398.803,287.873z"/>
			</g>
			<path clip-path="url(#SVGID_4_)" fill="#F2DD31" d="M397.551,288.995c-0.124-0.071-0.204-0.022-0.254-0.009
				c0.162,0.043,0.167,0.247,0.534,0.344c-0.083-0.022-0.129,0.025-0.206-0.017c0.15,0.119,0.319,0.256,0.679,0.261
				c0.199,0.003,0.061,0.105-0.069,0.046c0.135,0.14,0.405,0.025,0.574,0.278c0.033-0.196-0.315-0.509-0.155-0.732
				c-0.497-0.021-0.537-0.296-0.822-0.515c-0.232-0.176-0.251-0.358-0.355-0.696c-0.048-0.153-0.227-0.247-0.325-0.213
				c-0.086,0.031-0.119,0.107-0.044,0.165c0.074,0.057,0.17,0.062,0.19,0.204c-0.097-0.113-0.243-0.156-0.311-0.082
				c-0.043,0.042-0.027,0.145,0.065,0.156c0.149,0.014,0.043,0.159,0.212,0.301c-0.15-0.168-0.28-0.185-0.361-0.091
				c-0.048,0.054,0,0.15,0.104,0.143C397.154,288.521,397.326,288.898,397.551,288.995L397.551,288.995z"/>
			<g clip-path="url(#SVGID_4_)">
				<path fill="#010101" d="M398.811,289.913l-0.007-0.009c-0.096-0.147-0.23-0.171-0.348-0.19
					c-0.085-0.017-0.168-0.031-0.225-0.091h0.013c0.056,0.051,0.132,0.065,0.215,0.079c0.116,0.021,0.247,0.043,0.345,0.185
					c0.007-0.076-0.041-0.173-0.091-0.27c-0.075-0.15-0.16-0.318-0.064-0.454c-0.345-0.006-0.469-0.143-0.611-0.302
					c-0.062-0.068-0.125-0.139-0.21-0.204c-0.199-0.153-0.243-0.308-0.315-0.56l-0.041-0.14c-0.042-0.131-0.175-0.219-0.276-0.219
					c-0.089,0.025-0.121,0.057-0.125,0.088l0.098,0.111c0.058,0.034,0.118,0.065,0.133,0.173c-0.069-0.068-0.155-0.113-0.226-0.113
					l-0.103,0.122c0.156,0.068,0.168,0.113,0.181,0.167c0.01,0.043,0.021,0.094,0.062,0.146c-0.109-0.083-0.199-0.114-0.267-0.071
					c0.075-0.082,0.166-0.022,0.267,0.071c-0.05-0.049-0.062-0.1-0.073-0.143c-0.013-0.057-0.021-0.094-0.094-0.102h-0.004
					l-0.083-0.062l0.112-0.14c0.075,0,0.161,0.046,0.224,0.122c-0.024-0.1-0.079-0.128-0.138-0.162l-0.104-0.119
					c0.006-0.04,0.04-0.071,0.088-0.091c0.159,0.006,0.292,0.082,0.334,0.216l0.041,0.143c0.073,0.253,0.115,0.403,0.311,0.554
					c0.087,0.065,0.151,0.137,0.21,0.204c0.142,0.157,0.264,0.293,0.609,0.308c-0.088,0.139-0.008,0.298,0.07,0.451
					c0.054,0.105,0.104,0.208,0.091,0.29L398.811,289.913L398.811,289.913z M398.359,289.608l0.04-0.005
					c-0.452-0.029-0.621-0.162-0.771-0.281h0.108c-0.129-0.046-0.219-0.143-0.292-0.219c-0.048-0.055-0.086-0.094-0.147-0.111
					c0.051-0.028,0.085-0.04,0.126-0.04l0.061,0.021l-0.161,0.011c0.041,0.015,0.081,0.06,0.129,0.111
					c0.071,0.076,0.159,0.173,0.374,0.229l-0.131,0.012c0.087,0.094,0.256,0.23,0.608,0.233c0.068,0,0.105,0.014,0.105,0.034
					L398.359,289.608L398.359,289.608z M397.501,288.973c-0.105-0.071-0.181-0.156-0.246-0.233
					c-0.089-0.105-0.185-0.193-0.247-0.199c-0.068,0-0.105-0.022-0.122-0.06c0.007-0.02,0.014-0.036,0.021-0.054
					c0.008,0.085,0.028,0.094,0.085,0.105c0.1,0,0.179,0.094,0.271,0.198c0.074,0.089,0.159,0.188,0.249,0.242H397.501
					L397.501,288.973z"/>
			</g>
			<path clip-path="url(#SVGID_4_)" fill="#F2DD31" d="M401.545,290.413c-0.078,0.014-0.057,0.145-0.16,0.153
				c0.252,0,0.379-0.06,0.498-0.156c-0.054,0.031-0.076,0.113-0.082,0.159c0.133-0.114,0.45-0.122,0.615-0.091
				c0.166,0.031,0.193-0.046,0.252-0.151c0.061-0.104-0.021-0.164-0.104-0.247c-0.082-0.085-0.101-0.198-0.082-0.392
				c-0.442-0.588-1.23-0.302-1.24-0.046c0.285,0.33,0.322,0.296,0.56,0.341c0.238,0.046,0.387,0.046,0.227,0.18
				c-0.057,0.045-0.285,0.022-0.464,0.031c-0.4,0.017-0.584-0.276-0.703-0.125c-0.097,0.128,0.003,0.182,0.202,0.176
				c-0.137,0-0.32-0.009-0.289,0.119c0.052,0.219,0.258-0.04,0.337,0.052c-0.068-0.018-0.174,0.025-0.179,0.091
				c-0.004,0.062,0.153,0.147,0.324,0.011C401.352,290.444,401.473,290.416,401.545,290.413L401.545,290.413z"/>
			<g clip-path="url(#SVGID_4_)">
				<path fill="#010101" d="M401.07,290.598c-0.049,0-0.096-0.018-0.123-0.046c-0.001-0.014-0.001-0.025-0.001-0.034
					c0.077,0.105,0.156,0.119,0.308-0.003c0.097-0.076,0.216-0.104,0.291-0.104c-0.081,0.113-0.101,0.156-0.16,0.162
					c0.256-0.012,0.379-0.077,0.473-0.148c-0.027,0.043-0.045,0.103-0.053,0.148c0.098-0.103,0.424-0.137,0.613-0.1
					c0.148,0.003,0.191-0.049,0.234-0.128c0.063-0.111,0.005-0.165-0.066-0.236c-0.105-0.104-0.129-0.216-0.11-0.42
					c-0.165-0.219-0.405-0.341-0.672-0.341c-0.309,0-0.553,0.159-0.558,0.295c0.246,0.284,0.303,0.293,0.473,0.321l0.176,0.031
					c0.117,0.02,0.193,0.034,0.203,0.071c0.008,0.025-0.014,0.054-0.068,0.1c-0.031,0.025-0.111,0.031-0.232,0.031h-0.124
					l-0.109,0.002c-0.001,0-0.003,0-0.005,0c-0.215,0-0.348-0.062-0.454-0.113c-0.038-0.017-0.072-0.034-0.103-0.045
					c0.04,0.005,0.071,0.02,0.107,0.036c0.105,0.052,0.236,0.111,0.418,0.111l0.146-0.003l0.124,0.009v-0.009
					c0.092,0,0.194,0,0.226-0.028c0.048-0.04,0.069-0.068,0.065-0.088c-0.009-0.031-0.087-0.046-0.195-0.065l-0.176-0.034
					l-0.002,0.003c-0.166-0.028-0.229-0.037-0.479-0.327c0.005-0.142,0.255-0.307,0.567-0.307c0.271,0,0.513,0.122,0.682,0.347
					c-0.019,0.204,0.005,0.312,0.083,0.389c0.098,0.097,0.16,0.156,0.104,0.256c-0.053,0.1-0.087,0.159-0.188,0.159
					c-0.119-0.017-0.187-0.022-0.259-0.022c-0.187,0-0.344,0.04-0.422,0.107c-0.006-0.028,0.009-0.104,0.054-0.15
					c-0.09,0.08-0.215,0.148-0.473,0.148c0.053-0.018,0.07-0.055,0.09-0.092c-0.008-0.062-0.125-0.028-0.215,0.04
					C401.184,290.583,401.115,290.598,401.07,290.598L401.07,290.598z M400.87,290.26c0.027-0.012,0.059-0.018,0.09-0.018
					c-0.073-0.003-0.12-0.025-0.135-0.06c-0.016-0.028-0.004-0.068,0.031-0.116c0.024-0.009,0.047-0.015,0.065-0.018
					c-0.092,0.071-0.099,0.105-0.088,0.131c0.019,0.037,0.083,0.057,0.182,0.06C400.963,290.245,400.912,290.248,400.87,290.26
					L400.87,290.26z"/>
			</g>
			<path clip-path="url(#SVGID_4_)" fill="#F2DD31" d="M403.223,293.436c-0.07,0.02-0.07,0.119-0.107,0.119
				c0.184-0.006,0.275-0.06,0.329-0.162c-0.04,0.04-0.003,0.12-0.017,0.137c0.136-0.051,0.199-0.179,0.151-0.264
				c0.03,0.048,0.12,0.073,0.147,0.079c-0.096-0.085-0.027-0.27-0.182-0.366c0.053-0.003,0.149,0.06,0.178,0.133
				c-0.023-0.167-0.049-0.275-0.174-0.369c0.015,0.018,0.086,0.031,0.115,0c-0.08-0.054-0.104-0.147-0.1-0.207
				c0.011-0.085-0.039-0.103-0.135-0.074c-0.085,0.023-0.281,0.037-0.397,0.037c-0.237,0-0.444,0-0.642-0.15
				c0.295,0.134,0.674-0.147,0.674-0.384c0-0.262-0.292-0.475-0.883-0.332c-0.592,0.142-1.312,0.082-1.312-0.134
				s0.517-0.244,0.783-0.202c0.264,0.046,0.454,0.074,0.949-0.119c-0.123,0.054-0.516,0.068-0.829-0.028
				c-0.312-0.097-1.078-0.097-1.087,0.358c-0.005,0.454,0.816,0.412,1.53,0.298c0.415-0.068,0.632-0.022,0.632,0.125
				c0,0.143-0.381,0.202-0.675,0.165c-0.291-0.037-0.589-0.028-0.937,0.082c-0.289,0.094-0.488,0-0.808,0.06
				c-0.155,0.029-0.53,0-0.715-0.335c-0.115,0.088-0.457,0.275-0.516,0.458c-0.081,0.17-0.025,0.335,0.083,0.5
				c0.136,0.207-0.068,0.176-0.213,0.182c-0.202,0.011-0.469-0.023-0.609-0.196c-0.124-0.156-0.289-0.278-0.421-0.165
				c-0.066,0.06-0.002,0.137,0.051,0.114c0.053-0.021,0.115,0.022,0.173,0.051c-0.092-0.043-0.19-0.012-0.229,0.028
				c-0.056,0.051,0.01,0.153,0.074,0.116c0.053-0.028,0.158-0.045,0.223,0.023c-0.073-0.018-0.148-0.015-0.185,0.031
				c-0.038,0.042-0.008,0.104,0.071,0.102c0.126-0.005,0.159,0.091,0.286,0.071c-0.078,0.012-0.121,0.057-0.144,0.088
				c0.121-0.057,0.251,0.103,0.405,0.065c-0.061,0.025-0.158,0.091-0.155,0.143c0.091-0.117,0.706,0.088,0.719-0.165
				c0.017,0.051,0.014,0.131-0.033,0.196c0.078-0.052,0.333-0.068,0.411-0.271c0.005,0.06-0.004,0.137-0.053,0.156
				c0.083,0.028,0.189-0.037,0.3-0.219c0.044-0.068,0.056-0.116,0.047-0.17c0.108,0.006,0.188-0.025,0.271-0.105
				c0.088-0.079,0.185,0.068,0.333-0.037c0.149-0.102,0.279-0.014,0.361-0.065c0.082-0.051,0.193,0.018,0.281-0.042
				c0.09-0.06,0.227,0.031,0.371-0.097c0.232,0.094,0.499,0.264,1.158,0.131c0.378-0.074,0.496,0.062,0.496,0.253
				c0,0.13-0.07,0.142-0.123,0.147c-0.211,0.014-0.299-0.088-0.382-0.054c-0.057,0.02-0.091,0.119-0.01,0.153
				c-0.067,0.036-0.058,0.107-0.024,0.133c0.034,0.026,0.121,0.003,0.181-0.028c-0.077,0.037-0.155,0.105-0.11,0.177
				c0.027,0.045,0.096,0.082,0.162-0.012C403.028,293.501,403.147,293.424,403.223,293.436L403.223,293.436z"/>
			<g clip-path="url(#SVGID_4_)">
				<path fill="#010101" d="M402.877,293.657l-0.078-0.048c0-0.021,0.004-0.037,0.006-0.055l0.072,0.091
					c0.029,0,0.058-0.017,0.083-0.054c0.063-0.091,0.172-0.162,0.247-0.162l-0.003,0.003c-0.083,0.018-0.179,0.083-0.235,0.165
					C402.934,293.646,402.898,293.657,402.877,293.657L402.877,293.657z M399.298,293.549c0.041-0.079,0.041-0.156,0.024-0.198
					c0.004,0.119-0.142,0.136-0.268,0.136l-0.282-0.008c-0.089,0-0.139,0.011-0.159,0.037c-0.007-0.037,0.028-0.074,0.069-0.105
					c-0.03,0.034-0.069,0.071-0.069,0.103c0.014-0.031,0.065-0.046,0.159-0.046l0.282,0.012c0.185,0,0.264-0.04,0.268-0.131
					c0.027,0.045,0.027,0.128-0.022,0.199c0.014-0.021,0.051-0.034,0.092-0.049c0.106-0.034,0.254-0.085,0.308-0.228
					c0.011,0.04,0.011,0.083-0.003,0.117c0.004-0.034,0.007-0.074,0.003-0.114c-0.047,0.148-0.196,0.199-0.304,0.236
					C399.354,293.523,399.319,293.535,399.298,293.549L399.298,293.549z M403.429,293.535v-0.012
					c0.073-0.028,0.13-0.082,0.151-0.145c0.016-0.04,0.012-0.08-0.005-0.111c0.038,0.04,0.125,0.065,0.151,0.071
					c-0.048-0.028-0.058-0.085-0.069-0.145c-0.016-0.08-0.03-0.159-0.114-0.213c0.067,0,0.157,0.054,0.184,0.128
					c-0.033-0.159-0.055-0.265-0.172-0.355c0.125,0.085,0.149,0.196,0.172,0.357c-0.035-0.067-0.125-0.127-0.176-0.127
					c0.086,0.045,0.103,0.13,0.117,0.207c0.011,0.06,0.021,0.113,0.062,0.147c-0.026,0.003-0.107-0.017-0.145-0.057
					c0.018,0.028,0.018,0.065,0.005,0.1C403.568,293.447,403.507,293.504,403.429,293.535L403.429,293.535z M399.693,293.441
					c0-0.006,0-0.009,0.001-0.012c0.096-0.017,0.176-0.094,0.254-0.222c0.042-0.065,0.054-0.11,0.045-0.164
					c0.124-0.009,0.196-0.037,0.273-0.111l0.053-0.006c-0.131,0.091-0.203,0.12-0.301,0.12c-0.004,0.051-0.017,0.099-0.061,0.17
					C399.866,293.361,399.775,293.441,399.693,293.441L399.693,293.441z M402.756,293.325l-0.052-0.068
					c0-0.04,0.026-0.08,0.062-0.091l0.131,0.014c0.054,0.021,0.12,0.04,0.213,0.04c0.082-0.003,0.157-0.009,0.157-0.142
					c0-0.225-0.149-0.315-0.491-0.248c-0.58,0.12-0.863-0.005-1.076-0.096c-0.167,0.036-0.26,0.036-0.312,0.039
					c-0.072,0-0.105,0.003-0.137,0.023l0,0l-0.411,0.057c-0.096-0.003-0.165,0.003-0.231,0.051c-0.038,0.025-0.075,0.04-0.116,0.04
					l-0.123-0.022l0.036-0.003c0.131,0.014,0.162,0.003,0.198-0.023c0.069-0.048,0.133-0.054,0.182-0.054l0.104,0.003l0.359-0.054
					l-0.002-0.003c0.037-0.025,0.082-0.018,0.119-0.025c0.104,0,0.176-0.006,0.252-0.071c0.336,0.139,0.579,0.244,1.158,0.128
					c0.418-0.083,0.504,0.104,0.504,0.259c0,0.142-0.083,0.147-0.129,0.15c-0.136-0.009-0.201-0.021-0.257-0.037l-0.124-0.018
					l-0.059,0.083l0.049,0.062L402.756,293.325L402.756,293.325z M399.004,293.049c-0.145,0-0.409-0.025-0.55-0.201
					c-0.075-0.094-0.247-0.256-0.374-0.19c0.165-0.142,0.308,0.091,0.38,0.185c0.139,0.171,0.399,0.196,0.543,0.196l0.126,0.003
					v-0.006c0.081-0.003,0.163-0.003,0.185-0.043c0.014-0.028,0.001-0.07-0.039-0.131c-0.128-0.192-0.155-0.352-0.083-0.502
					c0.045-0.143,0.254-0.281,0.408-0.387l0.11-0.077c0.182,0.318,0.517,0.344,0.615,0.344c0.192-0.025,0.273-0.028,0.35-0.028
					l0.256,0.006c0.084,0,0.184-0.006,0.304-0.045c0.315-0.103,0.63-0.126,0.938-0.083c0.289,0.037,0.668-0.02,0.668-0.159
					c0.002-0.142-0.216-0.188-0.626-0.122c-0.616,0.103-1.259,0.105-1.454-0.088c-0.055-0.057-0.082-0.128-0.082-0.213
					c0.007-0.387,0.537-0.415,0.701-0.415c0.142,0,0.289,0.02,0.393,0.051c0.254,0.08,0.661,0.088,0.812,0.034l0,0l0,0
					c-0.01,0.006-0.022,0.012-0.035,0.018c-0.395,0.161-0.628,0.156-0.9,0.107c-0.258-0.042-0.777-0.017-0.777,0.196
					c0,0.079,0.103,0.128,0.188,0.15c0.254,0.08,0.742,0.068,1.119-0.02c0.596-0.146,0.89,0.113,0.89,0.335
					c0,0.256-0.413,0.509-0.681,0.39c0.201,0.139,0.406,0.139,0.644,0.139c0.106,0,0.308-0.011,0.397-0.037h0.035l-0.033,0.009
					c-0.091,0.025-0.291,0.037-0.399,0.037c-0.239,0-0.447,0-0.645-0.147c0.304,0.076,0.672-0.171,0.672-0.39
					c0-0.301-0.37-0.449-0.878-0.326c-0.381,0.091-0.869,0.102-1.125,0.022c-0.126-0.04-0.193-0.094-0.193-0.162
					c0-0.219,0.516-0.253,0.789-0.207c0.266,0.048,0.492,0.051,0.877-0.092c-0.182,0.055-0.529,0.026-0.758-0.048
					c-0.104-0.031-0.25-0.051-0.391-0.051c-0.161,0-0.684,0.031-0.689,0.406c-0.001,0.079,0.025,0.15,0.08,0.204
					c0.189,0.193,0.831,0.188,1.444,0.088c0.42-0.067,0.637-0.022,0.637,0.131c0,0.148-0.386,0.205-0.68,0.171
					c-0.305-0.04-0.621-0.021-0.932,0.082c-0.123,0.04-0.225,0.043-0.309,0.043l-0.256-0.006c-0.075,0-0.156,0.006-0.247,0.022
					l-0.103,0.009c-0.099,0-0.439-0.025-0.618-0.35l-0.103,0.082c-0.152,0.1-0.358,0.242-0.402,0.378
					c-0.071,0.148-0.045,0.305,0.081,0.495c0.042,0.062,0.055,0.11,0.04,0.142c-0.024,0.046-0.111,0.046-0.194,0.049
					L399.004,293.049L399.004,293.049z"/>
			</g>
			<path clip-path="url(#SVGID_4_)" fill="#F2DD31" d="M399.041,291.47c-0.19-0.085-0.254-0.091-0.21,0.079
				c0.017,0.074,0.064,0.177,0.111,0.225C398.943,291.7,398.967,291.507,399.041,291.47L399.041,291.47z"/>
			<g clip-path="url(#SVGID_4_)">
				<path fill="#010101" d="M398.945,291.785l-0.008-0.009c-0.047-0.048-0.094-0.15-0.112-0.225
					c-0.017-0.068-0.019-0.107-0.001-0.128c0.014-0.003,0.028-0.006,0.042-0.006c-0.048,0.031-0.047,0.068-0.031,0.131
					c0.017,0.065,0.059,0.162,0.101,0.211c0.004-0.077,0.03-0.259,0.104-0.296c-0.082-0.028-0.132-0.046-0.166-0.048
					c0.067,0.005,0.101,0.017,0.17,0.048c-0.068,0.043-0.095,0.228-0.098,0.31V291.785L398.945,291.785z"/>
			</g>
			<path clip-path="url(#SVGID_4_)" fill="#F2DD31" d="M399.634,291.47c0.192-0.085,0.256-0.091,0.212,0.079
				c-0.02,0.074-0.064,0.177-0.111,0.225C399.734,291.7,399.71,291.507,399.634,291.47L399.634,291.47z"/>
			<g clip-path="url(#SVGID_4_)">
				<path fill="#010101" d="M399.731,291.785v-0.012c-0.003-0.082-0.03-0.267-0.098-0.301c0.093-0.052,0.144-0.065,0.178-0.065
					c0.011,0.006,0.021,0.014,0.028,0.02c-0.066-0.009-0.115,0.009-0.202,0.046c0.074,0.028,0.1,0.21,0.104,0.287
					c0.041-0.049,0.081-0.14,0.101-0.211c0.011-0.045,0.016-0.079,0.011-0.1c0.013,0.026,0.01,0.058-0.001,0.103
					c-0.021,0.077-0.066,0.177-0.112,0.225L399.731,291.785L399.731,291.785z"/>
			</g>
			<path clip-path="url(#SVGID_4_)" fill="#F2DD31" d="M399.339,291.354c0.361,0,0.405,0.185,0.403,0.417
				c-0.002,0.25-0.124,0.165-0.193,0.483c-0.027,0.128-0.12,0.134-0.21,0.134c-0.092,0-0.183-0.006-0.208-0.134
				c-0.071-0.318-0.193-0.233-0.196-0.483C398.934,291.538,398.979,291.354,399.339,291.354L399.339,291.354z"/>
			<g clip-path="url(#SVGID_4_)">
				<path fill="#010101" d="M399.339,292.393c-0.097,0-0.188-0.011-0.214-0.136c-0.034-0.156-0.083-0.216-0.121-0.265
					c-0.042-0.054-0.073-0.094-0.074-0.222c0-0.213,0.031-0.42,0.409-0.42c0.151,0,0.254,0.028,0.318,0.097
					c0.081,0.079,0.091,0.201,0.089,0.323c-0.001,0.128-0.033,0.171-0.074,0.222c-0.039,0.049-0.085,0.108-0.119,0.265
					C399.528,292.382,399.437,292.393,399.339,292.393L399.339,292.393z M399.339,291.358c-0.368,0-0.399,0.196-0.399,0.412
					c0.001,0.125,0.033,0.165,0.072,0.213c0.04,0.052,0.088,0.111,0.122,0.271c0.051,0.238,0.359,0.238,0.409,0
					c0.036-0.159,0.083-0.219,0.121-0.268c0.04-0.051,0.071-0.091,0.073-0.216c0.001-0.119-0.009-0.238-0.087-0.318
					C399.587,291.39,399.487,291.358,399.339,291.358L399.339,291.358z"/>
			</g>
			<path clip-path="url(#SVGID_4_)" fill="#F2DD31" d="M398.411,292.271c-0.092-0.06-0.15-0.02-0.188-0.008
				c0.119,0.034,0.125,0.201,0.396,0.281c-0.062-0.021-0.097,0.017-0.153-0.018c0.111,0.097,0.237,0.21,0.501,0.213
				c0.149,0.003,0.047,0.086-0.05,0.037c0.101,0.114,0.3,0.021,0.425,0.228c0.024-0.159-0.234-0.412-0.115-0.597
				c-0.366-0.017-0.396-0.238-0.608-0.418c-0.173-0.145-0.188-0.289-0.264-0.565c-0.034-0.122-0.166-0.201-0.241-0.17
				c-0.064,0.025-0.087,0.085-0.031,0.131c0.054,0.048,0.126,0.054,0.141,0.167c-0.071-0.094-0.179-0.128-0.23-0.068
				c-0.031,0.037-0.02,0.12,0.048,0.128c0.111,0.012,0.031,0.131,0.158,0.245c-0.112-0.137-0.208-0.148-0.269-0.074
				c-0.035,0.043,0,0.122,0.077,0.113C398.117,291.885,398.247,292.191,398.411,292.271L398.411,292.271z"/>
			<g clip-path="url(#SVGID_4_)">
				<path fill="#010101" d="M399.345,293.018l-0.007-0.011c-0.072-0.119-0.166-0.137-0.257-0.153
					c-0.064-0.015-0.125-0.023-0.168-0.074l0.057-0.006c0.013,0.049,0.061,0.06,0.114,0.068c0.085,0.018,0.182,0.037,0.254,0.145
					c0.003-0.06-0.031-0.133-0.068-0.213c-0.056-0.119-0.12-0.258-0.047-0.369c-0.254-0.003-0.347-0.116-0.452-0.244
					c-0.046-0.054-0.091-0.114-0.155-0.165c-0.147-0.125-0.18-0.247-0.234-0.452l-0.031-0.116c-0.03-0.104-0.127-0.176-0.202-0.176
					l-0.092,0.068l0.073,0.091c0.042,0.028,0.088,0.054,0.098,0.142c-0.031-0.034-0.066-0.06-0.101-0.076
					c0.044,0.014,0.075,0.039,0.101,0.073c-0.02-0.079-0.06-0.102-0.104-0.128l-0.077-0.102l0.102-0.077
					c0.078,0,0.182,0.071,0.212,0.182l0.031,0.119c0.052,0.199,0.085,0.321,0.23,0.443c0.064,0.055,0.112,0.111,0.158,0.168
					c0.104,0.125,0.193,0.236,0.447,0.247c-0.063,0.114-0.005,0.244,0.053,0.369c0.04,0.086,0.077,0.168,0.067,0.233
					L399.345,293.018L399.345,293.018z M398.967,292.757c-0.281-0.031-0.398-0.134-0.501-0.225h0.016
					c0.111,0.097,0.236,0.199,0.486,0.202C398.967,292.742,398.967,292.751,398.967,292.757L398.967,292.757z M398.617,292.535
					l-0.072-0.003h0.034c-0.128-0.034-0.195-0.113-0.249-0.176c-0.036-0.043-0.064-0.077-0.109-0.089l0.031-0.002
					c0.027,0.014,0.054,0.045,0.085,0.085C398.392,292.413,398.457,292.489,398.617,292.535L398.617,292.535z M398.386,292.251
					c-0.074-0.037-0.138-0.119-0.193-0.19c-0.065-0.082-0.126-0.159-0.179-0.159l-0.095-0.045l0.098-0.125
					c0.044,0,0.091,0.025,0.142,0.073c-0.036-0.034-0.043-0.076-0.05-0.107c-0.009-0.046-0.017-0.077-0.068-0.083l-0.011-0.031
					c0.074,0.04,0.081,0.074,0.089,0.111c0.007,0.034,0.016,0.076,0.045,0.116c-0.058-0.043-0.105-0.068-0.147-0.068l-0.088,0.108
					c0.144,0.039,0.202,0.116,0.271,0.204C398.255,292.126,398.319,292.205,398.386,292.251L398.386,292.251z"/>
			</g>
			<path clip-path="url(#SVGID_4_)" fill="#F2DD31" d="M401.366,293.422c-0.059,0.011-0.042,0.116-0.12,0.122
				c0.188,0,0.283-0.049,0.371-0.125c-0.043,0.025-0.059,0.094-0.062,0.13c0.098-0.094,0.334-0.102,0.455-0.073
				c0.123,0.025,0.144-0.04,0.188-0.125s-0.016-0.134-0.078-0.199c-0.061-0.068-0.076-0.162-0.061-0.318
				c-0.326-0.477-0.91-0.247-0.918-0.036c0.211,0.267,0.24,0.235,0.414,0.275c0.178,0.037,0.285,0.037,0.168,0.145
				c-0.041,0.037-0.212,0.02-0.342,0.025c-0.299,0.015-0.434-0.225-0.521-0.1c-0.072,0.103,0.003,0.146,0.149,0.143
				c-0.103,0-0.237-0.006-0.213,0.097c0.039,0.176,0.19-0.031,0.25,0.04c-0.052-0.012-0.13,0.022-0.134,0.073
				c-0.001,0.054,0.112,0.122,0.239,0.012C401.223,293.444,401.312,293.422,401.366,293.422L401.366,293.422z"/>
			<g clip-path="url(#SVGID_4_)">
				<path fill="#010101" d="M401.016,293.572l-0.09-0.034c-0.001-0.015-0.003-0.025-0.001-0.037l0.091,0.06
					c0.031,0,0.079-0.012,0.135-0.06c0.072-0.062,0.162-0.085,0.216-0.085l-0.011,0.011c-0.057,0.003-0.137,0.028-0.199,0.083
					C401.098,293.561,401.047,293.572,401.016,293.572L401.016,293.572z M401.559,293.552c-0.006-0.022,0.002-0.082,0.036-0.122
					c-0.089,0.088-0.192,0.119-0.349,0.119l0.011-0.008c0.183-0.003,0.27-0.055,0.338-0.111c-0.017,0.037-0.031,0.083-0.034,0.119
					c0.068-0.082,0.305-0.113,0.451-0.079c0.125-0.006,0.139-0.04,0.17-0.1c0.049-0.097,0.007-0.142-0.049-0.196
					c-0.078-0.085-0.095-0.176-0.079-0.341c-0.263-0.38-0.901-0.244-0.907-0.036c0.18,0.227,0.225,0.235,0.346,0.258l0.134,0.025
					c0.085,0.018,0.142,0.026,0.151,0.058c-0.02,0.025-0.036,0.042-0.052,0.06c0.026-0.083-0.026-0.091-0.101-0.105l-0.134-0.034
					v0.006c-0.124-0.022-0.171-0.031-0.355-0.265c0.007-0.221,0.657-0.363,0.927,0.031c-0.014,0.165,0.002,0.253,0.061,0.315
					c0.072,0.077,0.121,0.128,0.08,0.208c-0.043,0.082-0.068,0.131-0.145,0.131c-0.089-0.015-0.139-0.018-0.188-0.018
					C401.732,293.467,401.615,293.498,401.559,293.552L401.559,293.552z M400.859,293.461l-0.058-0.142
					c0.021-0.025,0.068-0.034,0.119-0.037c-0.045-0.006-0.074-0.022-0.086-0.046l0.088-0.136c0.034,0,0.073,0.02,0.122,0.045
					c0.078,0.043,0.177,0.091,0.312,0.091h0.104c0.109,0,0.174,0,0.217-0.008c-0.039,0.017-0.08,0.02-0.129,0.02l-0.166-0.006v0.006
					c-0.002,0-0.004,0-0.004,0c-0.162,0-0.264-0.054-0.338-0.091c-0.048-0.025-0.086-0.046-0.118-0.046l-0.08,0.123
					c0.014,0.028,0.061,0.042,0.132,0.045c-0.07,0.012-0.138,0.015-0.165,0.046l0.05,0.125l0.153-0.049
					c-0.011,0.006-0.022,0.015-0.033,0.021c0.014-0.006,0.029-0.009,0.044-0.009l-0.053,0.017c-0.011,0.006-0.021,0.015-0.031,0.023
					c0.007-0.009,0.016-0.018,0.025-0.023L400.859,293.461L400.859,293.461z"/>
			</g>
			<g clip-path="url(#SVGID_4_)">
				<path fill="none" d="M402.125,285.848c-0.16-0.061-0.306-0.095-0.493-0.058L402.125,285.848z"/>
			</g>
			<g clip-path="url(#SVGID_4_)">
				<path fill="none" d="M399.726,285.771c-0.131,0.281-0.053,0.421-0.031,0.551L399.726,285.771z"/>
			</g>
			<g clip-path="url(#SVGID_4_)">
				<path fill="none" d="M398.331,284.436c0.089,0.045,0.139-0.08,0.272,0.054c-0.037-0.04-0.082,0.104-0.183,0.009L398.331,284.436
					z"/>
			</g>
			<g clip-path="url(#SVGID_4_)">
				<path fill="none" d="M399.063,284.436c-0.088,0.045-0.139-0.08-0.271,0.054c0.036-0.04,0.081,0.104,0.184,0.009L399.063,284.436
					z"/>
			</g>
			<g clip-path="url(#SVGID_4_)">
				<path fill="#010101" d="M398.697,284.918c-0.06,0-0.095-0.012-0.113-0.034c-0.031-0.037-0.017-0.103,0.004-0.201l0.023-0.089
					l-0.013,0.092c-0.02,0.096-0.034,0.158-0.007,0.192c0.033,0.04,0.179,0.043,0.212,0c0.028-0.034,0.014-0.099-0.007-0.198
					l-0.025-0.128l0.007-0.021l0.028,0.146c0.023,0.103,0.037,0.17,0.006,0.207C398.791,284.906,398.755,284.918,398.697,284.918
					L398.697,284.918z"/>
			</g>
			<path clip-path="url(#SVGID_4_)" fill="#E91D2C" d="M398.7,285.339c0.145,0,0.229-0.003,0.208-0.208
				c-0.011-0.082,0.098-0.116,0.06-0.247c0.042,0.162-0.267,0.147-0.267,0.074c0,0.073-0.308,0.088-0.269-0.074
				c-0.038,0.131,0.071,0.165,0.062,0.247C398.47,285.336,398.555,285.339,398.7,285.339L398.7,285.339z"/>
			<g clip-path="url(#SVGID_4_)">
				<path fill="#010101" d="M398.7,285.342c-0.08,0-0.146,0-0.183-0.043c-0.027-0.031-0.036-0.085-0.026-0.168
					c-0.055-0.125-0.083-0.17-0.061-0.25c0.087,0.23,0.267,0.131,0.267,0.077l0,0c0.01,0.068,0.139,0.057,0.193,0.04
					c-0.057,0.031-0.185,0.031-0.193-0.034c-0.001,0.062-0.207,0.06-0.254,0l0.054,0.167c-0.01,0.083-0.001,0.134,0.024,0.165
					c0.068,0.077,0.288,0.077,0.356,0c0.027-0.031,0.035-0.082,0.025-0.165c0.006-0.011,0.01-0.02,0.013-0.028l-0.005,0.028
					c0.008,0.083,0,0.137-0.029,0.168C398.845,285.342,398.778,285.342,398.7,285.342L398.7,285.342z"/>
			</g>
			<g clip-path="url(#SVGID_4_)">
				<path fill="none" d="M398.569,284.924l-0.349-0.097L398.569,284.924z"/>
			</g>
			<g clip-path="url(#SVGID_4_)">
				<path fill="none" d="M398.569,284.943l-0.389-0.006L398.569,284.943z"/>
			</g>
			<g clip-path="url(#SVGID_4_)">
				<path fill="none" d="M398.572,284.964l-0.331,0.088L398.572,284.964z"/>
			</g>
			<g clip-path="url(#SVGID_4_)">
				<path fill="none" d="M398.831,284.924l0.348-0.097L398.831,284.924z"/>
			</g>
			<g clip-path="url(#SVGID_4_)">
				<path fill="none" d="M398.831,284.943l0.391-0.006L398.831,284.943z"/>
			</g>
			<g clip-path="url(#SVGID_4_)">
				<path fill="none" d="M398.826,284.964l0.333,0.088L398.826,284.964z"/>
			</g>
			<g clip-path="url(#SVGID_4_)">
				<path fill="none" d="M401.885,289.518c-0.143-0.051-0.273-0.085-0.441-0.048L401.885,289.518z"/>
			</g>
			<g clip-path="url(#SVGID_4_)">
				<path fill="none" d="M399.726,289.449c-0.117,0.253-0.046,0.378-0.029,0.498L399.726,289.449z"/>
			</g>
			<g clip-path="url(#SVGID_4_)">
				<path fill="none" d="M398.473,288.251c0.08,0.039,0.124-0.077,0.243,0.045c-0.033-0.034-0.072,0.097-0.163,0.009
					L398.473,288.251z"/>
			</g>
			<g clip-path="url(#SVGID_4_)">
				<path fill="none" d="M399.132,288.251c-0.08,0.039-0.126-0.077-0.246,0.045c0.033-0.034,0.073,0.097,0.167,0.009
					L399.132,288.251z"/>
			</g>
			<g clip-path="url(#SVGID_4_)">
				<path fill="#010101" d="M398.802,288.686c-0.054,0-0.087-0.012-0.105-0.031c-0.027-0.034-0.014-0.094,0.006-0.185l0.02-0.077
					l-0.009,0.08c-0.02,0.085-0.033,0.145-0.008,0.173l0.097,0.034l0.094-0.034c0.025-0.031,0.011-0.091-0.009-0.182l-0.024-0.116
					l0.01-0.015l0.024,0.128c0.021,0.094,0.036,0.156,0.007,0.193L398.802,288.686L398.802,288.686z"/>
			</g>
			<path clip-path="url(#SVGID_4_)" fill="#E91D2C" d="M398.803,289.061c0.131,0,0.208-0.003,0.187-0.185
				c-0.009-0.074,0.089-0.105,0.055-0.225c0.037,0.147-0.242,0.134-0.242,0.068c0,0.065-0.277,0.079-0.241-0.068
				c-0.034,0.119,0.065,0.15,0.055,0.225C398.596,289.058,398.673,289.061,398.803,289.061L398.803,289.061z"/>
			<g clip-path="url(#SVGID_4_)">
				<path fill="#010101" d="M398.803,289.063c-0.069,0-0.13,0-0.165-0.037c-0.025-0.028-0.033-0.077-0.025-0.15
					c-0.048-0.114-0.074-0.153-0.053-0.225c0.08,0.207,0.242,0.116,0.24,0.068c0,0,0,0,0.001,0c0.008,0.062,0.125,0.051,0.176,0.034
					c-0.051,0.031-0.167,0.028-0.176-0.031c-0.003,0.06-0.187,0.057-0.23,0.003l0.048,0.15c-0.01,0.073-0.001,0.119,0.023,0.147
					c0.062,0.068,0.26,0.068,0.322,0c0.023-0.028,0.03-0.074,0.021-0.147c0.003-0.006,0.004-0.012,0.005-0.015l-0.002,0.015h0.002
					c0.009,0.073,0,0.122-0.022,0.15C398.936,289.063,398.875,289.063,398.803,289.063L398.803,289.063z"/>
			</g>
			<g clip-path="url(#SVGID_4_)">
				<path fill="none" d="M398.687,288.688l-0.314-0.088L398.687,288.688z"/>
			</g>
			<g clip-path="url(#SVGID_4_)">
				<path fill="none" d="M398.687,288.705l-0.353-0.003L398.687,288.705z"/>
			</g>
			<g clip-path="url(#SVGID_4_)">
				<path fill="none" d="M398.69,288.723l-0.298,0.079L398.69,288.723z"/>
			</g>
			<g clip-path="url(#SVGID_4_)">
				<path fill="none" d="M398.921,288.688l0.312-0.088L398.921,288.688z"/>
			</g>
			<g clip-path="url(#SVGID_4_)">
				<path fill="none" d="M398.921,288.705l0.351-0.003L398.921,288.705z"/>
			</g>
			<g clip-path="url(#SVGID_4_)">
				<path fill="none" d="M398.918,288.723l0.298,0.079L398.918,288.723z"/>
			</g>
			<g clip-path="url(#SVGID_4_)">
				<path fill="none" d="M401.617,292.694c-0.105-0.043-0.203-0.068-0.326-0.04L401.617,292.694z"/>
			</g>
			<g clip-path="url(#SVGID_4_)">
				<path fill="none" d="M400.021,292.641c-0.088,0.204-0.036,0.307-0.021,0.4L400.021,292.641z"/>
			</g>
			<g clip-path="url(#SVGID_4_)">
				<path fill="none" d="M399.092,291.663c0.06,0.034,0.094-0.06,0.181,0.039c-0.024-0.028-0.054,0.077-0.121,0.006L399.092,291.663
					z"/>
			</g>
			<g clip-path="url(#SVGID_4_)">
				<path fill="none" d="M399.581,291.663c-0.06,0.034-0.092-0.06-0.181,0.039c0.024-0.028,0.054,0.077,0.121,0.006L399.581,291.663
					z"/>
			</g>
			<g clip-path="url(#SVGID_4_)">
				<path fill="#010101" d="M399.412,291.995h-0.152c-0.022-0.031-0.013-0.079,0.003-0.156l0.023-0.125l-0.013,0.125
					c-0.015,0.074-0.024,0.125-0.004,0.147h0.136c0.02-0.022,0.01-0.073-0.006-0.15l-0.005-0.057l0.016,0.057
					C399.424,291.913,399.436,291.967,399.412,291.995L399.412,291.995z"/>
			</g>
			<path clip-path="url(#SVGID_4_)" fill="#E91D2C" d="M399.337,292.322c0.097,0,0.152-0.003,0.138-0.15
				c-0.006-0.061,0.066-0.086,0.041-0.183c0.028,0.12-0.179,0.108-0.179,0.055c0,0.054-0.206,0.065-0.177-0.055
				c-0.026,0.097,0.047,0.122,0.04,0.183C399.186,292.319,399.241,292.322,399.337,292.322L399.337,292.322z"/>
			<g clip-path="url(#SVGID_4_)">
				<path fill="#010101" d="M399.337,292.325c-0.051,0-0.095,0-0.119-0.026c-0.016-0.02-0.023-0.045-0.023-0.088
					c0.007,0.049,0.015,0.068,0.027,0.083c0.047,0.051,0.186,0.051,0.231,0c0.019-0.021,0.025-0.06,0.019-0.122
					c0.011-0.026,0.019-0.046,0.025-0.062c-0.013,0.125-0.02,0.164-0.04,0.188C399.433,292.325,399.389,292.325,399.337,292.325
					L399.337,292.325z"/>
			</g>
			<g clip-path="url(#SVGID_4_)">
				<path fill="none" d="M399.251,292.021l-0.231-0.07L399.251,292.021z"/>
			</g>
			<g clip-path="url(#SVGID_4_)">
				<path fill="none" d="M399.251,292.032h-0.26H399.251z"/>
			</g>
			<g clip-path="url(#SVGID_4_)">
				<path fill="none" d="M399.252,292.049l-0.219,0.065L399.252,292.049z"/>
			</g>
			<g clip-path="url(#SVGID_4_)">
				<path fill="none" d="M399.426,292.021l0.231-0.07L399.426,292.021z"/>
			</g>
			<g clip-path="url(#SVGID_4_)">
				<path fill="none" d="M399.426,292.032h0.26H399.426z"/>
			</g>
			<g clip-path="url(#SVGID_4_)">
				<path fill="none" d="M399.421,292.049l0.222,0.065L399.421,292.049z"/>
			</g>
			<path clip-path="url(#SVGID_4_)" fill="#3A53A4" d="M396.892,283.881c-0.1-0.128-0.354-0.02-0.359,0.137
				c0.086-0.1,0.224,0.045,0.301,0.014C396.889,284.009,396.934,283.933,396.892,283.881L396.892,283.881z"/>
			<g clip-path="url(#SVGID_4_)">
				<path fill="none" d="M396.892,283.881c-0.1-0.128-0.354-0.02-0.359,0.137c0.086-0.1,0.224,0.045,0.301,0.014
					C396.889,284.009,396.934,283.933,396.892,283.881z"/>
			</g>
			<path clip-path="url(#SVGID_4_)" fill="#3A53A4" d="M396.761,284.18c-0.103-0.125-0.355-0.021-0.359,0.136
				c0.084-0.099,0.225,0.046,0.301,0.015C396.755,284.311,396.802,284.23,396.761,284.18L396.761,284.18z"/>
			<g clip-path="url(#SVGID_4_)">
				<path fill="none" d="M396.761,284.18c-0.103-0.125-0.355-0.021-0.359,0.136c0.084-0.099,0.225,0.046,0.301,0.015
					C396.755,284.311,396.802,284.23,396.761,284.18z"/>
			</g>
			<path clip-path="url(#SVGID_4_)" fill="#3A53A4" d="M396.695,284.583c-0.115-0.116-0.355,0.02-0.342,0.176
				c0.074-0.11,0.229,0.018,0.301-0.02C396.705,284.711,396.741,284.628,396.695,284.583L396.695,284.583z"/>
			<g clip-path="url(#SVGID_4_)">
				<path fill="#010101" d="M396.352,284.759c-0.003-0.048,0.016-0.097,0.054-0.136c0.081-0.089,0.22-0.111,0.29-0.04
					c0.001,0.014,0.003,0.028,0.003,0.04c-0.106-0.188-0.217-0.083-0.292,0c-0.037,0.039-0.056,0.088-0.053,0.133l0.088-0.045
					l0.103,0.02l-0.19,0.028l0,0H396.352L396.352,284.759z"/>
			</g>
			<path clip-path="url(#SVGID_4_)" fill="#3A53A4" d="M396.816,285.827c-0.127-0.103-0.351,0.06-0.321,0.216
				c0.061-0.119,0.23-0.008,0.298-0.057C396.84,285.955,396.867,285.867,396.816,285.827L396.816,285.827z"/>
			<g clip-path="url(#SVGID_4_)">
				<path fill="#010101" d="M396.495,286.043L396.495,286.043c-0.01-0.051,0.007-0.104,0.045-0.153
					c0.048-0.057,0.119-0.097,0.183-0.097l0.121,0.097c-0.001,0.037-0.021,0.077-0.051,0.097l-0.028,0.003
					c0.061-0.031,0.078-0.068,0.078-0.1l-0.12-0.094c-0.064,0-0.135,0.037-0.182,0.094c-0.04,0.049-0.056,0.1-0.047,0.15
					c0.02-0.039,0.054-0.057,0.105-0.057l0.083,0.009h-0.006C396.541,285.983,396.515,286.004,396.495,286.043L396.495,286.043
					L396.495,286.043z"/>
			</g>
			<path clip-path="url(#SVGID_4_)" fill="#3A53A4" d="M396.809,286.1c-0.152-0.057-0.314,0.165-0.237,0.302
				c0.02-0.131,0.216-0.077,0.266-0.143C396.872,286.214,396.872,286.123,396.809,286.1L396.809,286.1z"/>
			<g clip-path="url(#SVGID_4_)">
				<path fill="none" d="M396.809,286.1c-0.152-0.057-0.314,0.165-0.237,0.302c0.02-0.131,0.216-0.077,0.266-0.143
					C396.872,286.214,396.872,286.123,396.809,286.1z"/>
			</g>
			<path clip-path="url(#SVGID_4_)" fill="#3A53A4" d="M397.005,286.302c-0.153-0.054-0.314,0.168-0.24,0.304
				c0.022-0.131,0.217-0.076,0.269-0.142C397.067,286.415,397.067,286.324,397.005,286.302L397.005,286.302z"/>
			<g clip-path="url(#SVGID_4_)">
				<path fill="none" d="M397.005,286.302c-0.153-0.054-0.314,0.168-0.24,0.304c0.022-0.131,0.217-0.076,0.269-0.142
					C397.067,286.415,397.067,286.324,397.005,286.302z"/>
			</g>
			<path clip-path="url(#SVGID_4_)" fill="#3A53A4" d="M400.987,286.696c-0.15-0.054-0.312,0.168-0.237,0.305
				c0.021-0.131,0.216-0.08,0.266-0.146C401.049,286.811,401.049,286.72,400.987,286.696L400.987,286.696z"/>
			<g clip-path="url(#SVGID_4_)">
				<path fill="none" d="M400.987,286.696c-0.15-0.054-0.312,0.168-0.237,0.305c0.021-0.131,0.216-0.08,0.266-0.146
					C401.049,286.811,401.049,286.72,400.987,286.696z"/>
			</g>
			<path clip-path="url(#SVGID_4_)" fill="#3A53A4" d="M401.193,286.881c-0.158-0.036-0.294,0.202-0.202,0.33
				c0.007-0.134,0.206-0.103,0.249-0.174C401.267,286.986,401.257,286.898,401.193,286.881L401.193,286.881z"/>
			<g clip-path="url(#SVGID_4_)">
				<path fill="#010101" d="M400.991,287.211L400.991,287.211c-0.04-0.054-0.04-0.137-0.001-0.21
					c0.038-0.077,0.104-0.122,0.168-0.122c0.018,0.011,0.03,0.025,0.043,0.036c-0.121-0.025-0.176,0.018-0.21,0.086
					c-0.039,0.073-0.039,0.153,0,0.207c0.004-0.079,0.078-0.1,0.144-0.116c0.045-0.015,0.088-0.025,0.105-0.055
					c0.002-0.008,0.006-0.014,0.008-0.022c-0.002,0.009-0.006,0.015-0.008,0.022c-0.018,0.029-0.061,0.04-0.105,0.055
					c-0.068,0.02-0.14,0.039-0.142,0.119H400.991L400.991,287.211z"/>
			</g>
			<path clip-path="url(#SVGID_4_)" fill="#3A53A4" d="M401.048,286.436c-0.139-0.08-0.338,0.11-0.286,0.258
				c0.044-0.125,0.228-0.039,0.287-0.096C401.09,286.558,401.105,286.47,401.048,286.436L401.048,286.436z"/>
			<g clip-path="url(#SVGID_4_)">
				<path fill="none" d="M401.048,286.436c-0.139-0.08-0.338,0.11-0.286,0.258c0.044-0.125,0.228-0.039,0.287-0.096
					C401.09,286.558,401.105,286.47,401.048,286.436z"/>
			</g>
			<path clip-path="url(#SVGID_4_)" fill="#3A53A4" d="M403.883,286.754c-0.158-0.037-0.295,0.201-0.203,0.329
				c0.006-0.134,0.208-0.103,0.248-0.173C403.959,286.861,403.945,286.771,403.883,286.754L403.883,286.754z"/>
			<g clip-path="url(#SVGID_4_)">
				<path fill="#010101" d="M403.68,287.086v-0.003c-0.039-0.054-0.039-0.134-0.001-0.21c0.038-0.077,0.104-0.122,0.171-0.122
					c0.017,0.014,0.031,0.025,0.042,0.039c-0.125-0.031-0.179,0.015-0.213,0.083c-0.038,0.073-0.038,0.153,0.001,0.207
					c0.005-0.076,0.078-0.1,0.145-0.116c0.045-0.015,0.088-0.025,0.104-0.054c0.004-0.006,0.007-0.015,0.01-0.023
					c-0.002,0.009-0.006,0.018-0.01,0.023c-0.016,0.028-0.059,0.042-0.103,0.054c-0.067,0.02-0.141,0.04-0.144,0.119L403.68,287.086
					L403.68,287.086z"/>
			</g>
			<path clip-path="url(#SVGID_4_)" fill="#3A53A4" d="M403.888,286.504c-0.144-0.074-0.334,0.122-0.278,0.27
				c0.038-0.128,0.226-0.049,0.283-0.108C403.935,286.626,403.945,286.535,403.888,286.504L403.888,286.504z"/>
			<g clip-path="url(#SVGID_4_)">
				<path fill="none" d="M403.888,286.504c-0.144-0.074-0.334,0.122-0.278,0.27c0.038-0.128,0.226-0.049,0.283-0.108
					C403.935,286.626,403.945,286.535,403.888,286.504z"/>
			</g>
			<path clip-path="url(#SVGID_4_)" fill="#3A53A4" d="M403.998,286.978c-0.158-0.031-0.285,0.214-0.188,0.339
				c0.001-0.134,0.203-0.111,0.241-0.186C404.076,287.08,404.062,286.992,403.998,286.978L403.998,286.978z"/>
			<g clip-path="url(#SVGID_4_)">
				<path fill="#010101" d="M403.81,287.316L403.81,287.316c-0.043-0.055-0.046-0.14-0.007-0.217
					c0.037-0.076,0.101-0.125,0.167-0.125c0.016,0.012,0.03,0.026,0.042,0.037c-0.127-0.031-0.177,0.021-0.209,0.088
					c-0.037,0.077-0.035,0.159,0.006,0.214c0.002-0.08,0.074-0.103,0.141-0.125c0.043-0.015,0.084-0.028,0.102-0.058
					c0.003-0.005,0.006-0.014,0.008-0.022c0,0.009-0.004,0.018-0.008,0.022c-0.016,0.029-0.059,0.043-0.102,0.061
					C403.885,287.211,403.811,287.236,403.81,287.316L403.81,287.316L403.81,287.316z"/>
			</g>
			<path clip-path="url(#SVGID_4_)" fill="#3A53A4" d="M398.711,285.214c0.101,0,0.141,0.031,0.141,0.21
				c0,0.384-0.005,0.546-0.127,0.546c-0.124,0-0.115-0.156-0.115-0.436c0-0.147,0-0.222-0.028-0.207
				C398.581,285.23,398.623,285.214,398.711,285.214L398.711,285.214z"/>
			<g clip-path="url(#SVGID_4_)">
				<path fill="#010101" d="M398.724,285.973l-0.067-0.026c-0.05-0.048-0.05-0.176-0.05-0.363c0-0.125,0-0.199-0.006-0.233
					c0.009,0.031,0.009,0.091,0.009,0.185c-0.001,0.236-0.001,0.361,0.048,0.412l0.065,0.023c0.122,0,0.127-0.168,0.127-0.546
					c0-0.176-0.037-0.207-0.141-0.207c-0.055,0-0.092,0.005-0.112,0.033c0.049-0.082,0.254-0.11,0.254,0.174
					C398.853,285.805,398.848,285.973,398.724,285.973L398.724,285.973z"/>
			</g>
			<path clip-path="url(#SVGID_4_)" fill="#3A53A4" d="M397.178,287.751c-0.094-0.114-0.321-0.021-0.327,0.122
				c0.078-0.091,0.203,0.039,0.274,0.011C397.171,287.867,397.214,287.796,397.178,287.751L397.178,287.751z"/>
			<g clip-path="url(#SVGID_4_)">
				<path fill="none" d="M397.178,287.751c-0.094-0.114-0.321-0.021-0.327,0.122c0.078-0.091,0.203,0.039,0.274,0.011
					C397.171,287.867,397.214,287.796,397.178,287.751z"/>
			</g>
			<path clip-path="url(#SVGID_4_)" fill="#3A53A4" d="M397.059,288.018c-0.091-0.113-0.32-0.017-0.324,0.125
				c0.077-0.094,0.203,0.04,0.271,0.012C397.055,288.134,397.095,288.063,397.059,288.018L397.059,288.018z"/>
			<g clip-path="url(#SVGID_4_)">
				<path fill="none" d="M397.059,288.018c-0.091-0.113-0.32-0.017-0.324,0.125c0.077-0.094,0.203,0.04,0.271,0.012
					C397.055,288.134,397.095,288.063,397.059,288.018z"/>
			</g>
			<path clip-path="url(#SVGID_4_)" fill="#3A53A4" d="M396.998,288.381c-0.103-0.102-0.32,0.018-0.307,0.159
				c0.065-0.099,0.208,0.018,0.271-0.02C397.009,288.498,397.041,288.421,396.998,288.381L396.998,288.381z"/>
			<g clip-path="url(#SVGID_4_)">
				<path fill="#010101" d="M396.689,288.54c-0.002-0.042,0.013-0.085,0.047-0.122c0.073-0.079,0.201-0.1,0.262-0.037l-0.004,0.021
					c-0.094-0.14-0.189-0.054-0.256,0.017c-0.033,0.037-0.049,0.08-0.047,0.12l0.08-0.04l0.092,0.017h-0.005l0,0l-0.167,0.025l0,0
					H396.689L396.689,288.54z"/>
			</g>
			<path clip-path="url(#SVGID_4_)" fill="#3A53A4" d="M397.107,289.501c-0.115-0.091-0.314,0.054-0.289,0.193
				c0.056-0.105,0.208-0.006,0.27-0.049C397.13,289.617,397.156,289.538,397.107,289.501L397.107,289.501z"/>
			<g clip-path="url(#SVGID_4_)">
				<path fill="none" d="M397.107,289.501c-0.115-0.091-0.314,0.054-0.289,0.193c0.056-0.105,0.208-0.006,0.27-0.049
					C397.13,289.617,397.156,289.538,397.107,289.501z"/>
			</g>
			<path clip-path="url(#SVGID_4_)" fill="#3A53A4" d="M397.103,289.745c-0.136-0.048-0.284,0.15-0.214,0.272
				c0.017-0.116,0.194-0.07,0.239-0.128C397.16,289.848,397.157,289.768,397.103,289.745L397.103,289.745z"/>
			<g clip-path="url(#SVGID_4_)">
				<path fill="#010101" d="M396.889,290.021v-0.003c-0.028-0.048-0.024-0.113,0.013-0.176s0.1-0.105,0.158-0.105l0.013,0.009
					c-0.084,0.003-0.136,0.04-0.17,0.097c-0.034,0.062-0.041,0.128-0.013,0.176c0.01-0.07,0.08-0.082,0.141-0.091
					c0.01-0.003,0.019-0.003,0.028-0.006c-0.01,0.003-0.019,0.003-0.028,0.006c-0.061,0.012-0.131,0.021-0.141,0.091V290.021
					L396.889,290.021z"/>
			</g>
			<path clip-path="url(#SVGID_4_)" fill="#3A53A4" d="M397.278,289.93c-0.136-0.051-0.283,0.15-0.214,0.272
				c0.02-0.119,0.194-0.07,0.238-0.13C397.334,290.032,397.334,289.949,397.278,289.93L397.278,289.93z"/>
			<g clip-path="url(#SVGID_4_)">
				<path fill="#010101" d="M397.063,290.202L397.063,290.202c-0.029-0.051-0.023-0.116,0.013-0.176
					c0.037-0.065,0.099-0.105,0.158-0.105l0.013,0.009c-0.084,0-0.136,0.04-0.169,0.097c-0.036,0.06-0.042,0.125-0.014,0.173
					c0.011-0.067,0.08-0.079,0.141-0.091c0.01,0,0.018-0.003,0.028-0.003c-0.01,0-0.019,0.003-0.028,0.006
					c-0.061,0.009-0.129,0.021-0.139,0.091H397.063L397.063,290.202z"/>
			</g>
			<path clip-path="url(#SVGID_4_)" fill="#3A53A4" d="M400.863,290.285c-0.138-0.052-0.284,0.147-0.216,0.272
				c0.02-0.119,0.194-0.071,0.241-0.131C400.918,290.387,400.918,290.305,400.863,290.285L400.863,290.285z"/>
			<g clip-path="url(#SVGID_4_)">
				<path fill="#010101" d="M400.647,290.558L400.647,290.558c-0.028-0.051-0.023-0.116,0.013-0.179
					c0.037-0.062,0.1-0.103,0.159-0.103l0.003,0.009c-0.078,0.003-0.128,0.042-0.161,0.097c-0.036,0.06-0.042,0.125-0.014,0.173
					c0.013-0.068,0.081-0.079,0.142-0.091c0.041-0.006,0.081-0.012,0.099-0.037h-0.001h0.001c-0.019,0.025-0.058,0.031-0.099,0.04
					c-0.064,0.009-0.129,0.02-0.141,0.091H400.647L400.647,290.558z"/>
			</g>
			<path clip-path="url(#SVGID_4_)" fill="#3A53A4" d="M401.048,290.449c-0.141-0.033-0.264,0.183-0.183,0.296
				c0.005-0.119,0.188-0.091,0.223-0.156C401.115,290.546,401.105,290.464,401.048,290.449L401.048,290.449z"/>
			<g clip-path="url(#SVGID_4_)">
				<path fill="#010101" d="M400.865,290.748v-0.003c-0.036-0.048-0.036-0.122,0.001-0.19c0.035-0.068,0.092-0.107,0.151-0.107
					l0.002,0.005c-0.072,0.003-0.122,0.043-0.152,0.103c-0.036,0.068-0.037,0.14-0.003,0.19c0.004-0.071,0.071-0.091,0.129-0.108
					c0.041-0.011,0.079-0.022,0.094-0.048l0,0l0,0c-0.015,0.028-0.053,0.04-0.094,0.051c-0.059,0.015-0.125,0.034-0.128,0.105
					L400.865,290.748L400.865,290.748z"/>
			</g>
			<path clip-path="url(#SVGID_4_)" fill="#3A53A4" d="M400.917,290.049c-0.125-0.073-0.304,0.1-0.257,0.233
				c0.04-0.114,0.203-0.037,0.257-0.088C400.956,290.16,400.97,290.08,400.917,290.049L400.917,290.049z"/>
			<g clip-path="url(#SVGID_4_)">
				<path fill="#010101" d="M400.66,290.282h-0.001c-0.016-0.049-0.006-0.105,0.033-0.156c0.04-0.057,0.102-0.094,0.161-0.094
					l0.02,0.011c-0.094,0-0.145,0.031-0.18,0.083c-0.036,0.051-0.048,0.104-0.031,0.153c0.021-0.06,0.08-0.065,0.138-0.065
					l0.041-0.006l-0.008,0.006C400.723,290.199,400.683,290.22,400.66,290.282L400.66,290.282L400.66,290.282z"/>
			</g>
			<path clip-path="url(#SVGID_4_)" fill="#3A53A4" d="M403.469,290.336c-0.143-0.034-0.266,0.182-0.184,0.296
				c0.008-0.12,0.186-0.091,0.225-0.156C403.535,290.43,403.525,290.351,403.469,290.336L403.469,290.336z"/>
			<g clip-path="url(#SVGID_4_)">
				<path fill="#010101" d="M403.285,290.635v-0.003c-0.035-0.049-0.035-0.122,0-0.19c0.034-0.068,0.094-0.111,0.153-0.111
					l0.003,0.006c-0.075,0.006-0.125,0.046-0.156,0.105c-0.034,0.068-0.034,0.139,0,0.188c0.004-0.071,0.071-0.088,0.129-0.105
					c0.04-0.012,0.078-0.022,0.096-0.048l-0.002-0.003l0.002,0.003c-0.016,0.025-0.055,0.036-0.094,0.048
					c-0.062,0.018-0.127,0.037-0.129,0.108L403.285,290.635L403.285,290.635z"/>
			</g>
			<path clip-path="url(#SVGID_4_)" fill="#3A53A4" d="M403.473,290.111c-0.128-0.068-0.301,0.108-0.25,0.242
				c0.035-0.117,0.201-0.043,0.254-0.097C403.516,290.22,403.525,290.14,403.473,290.111L403.473,290.111z"/>
			<g clip-path="url(#SVGID_4_)">
				<path fill="#010101" d="M403.223,290.354L403.223,290.354c-0.02-0.049-0.01-0.108,0.027-0.159c0.039-0.06,0.104-0.1,0.162-0.1
					l0.018,0.014c-0.11,0.003-0.145,0.034-0.179,0.086c-0.036,0.051-0.046,0.107-0.028,0.156c0.021-0.068,0.091-0.068,0.15-0.071
					c0.01,0,0.02,0,0.03,0c-0.011,0-0.021,0-0.03,0c-0.063,0.003-0.129,0.006-0.148,0.074H403.223L403.223,290.354z"/>
			</g>
			<path clip-path="url(#SVGID_4_)" fill="#3A53A4" d="M403.572,290.538c-0.144-0.028-0.256,0.19-0.169,0.304
				c0-0.119,0.181-0.1,0.218-0.168C403.645,290.629,403.631,290.549,403.572,290.538L403.572,290.538z"/>
			<g clip-path="url(#SVGID_4_)">
				<path fill="#010101" d="M403.403,290.842L403.403,290.842c-0.038-0.049-0.042-0.128-0.007-0.196
					c0.033-0.068,0.09-0.11,0.148-0.11l0.003,0.003c-0.072,0.005-0.12,0.045-0.15,0.107c-0.034,0.068-0.032,0.146,0.005,0.193
					c0.001-0.071,0.066-0.094,0.125-0.11c0.039-0.015,0.078-0.029,0.094-0.055l-0.004-0.003l0.004,0.003
					c-0.015,0.028-0.053,0.04-0.094,0.055C403.466,290.748,403.403,290.771,403.403,290.842L403.403,290.842L403.403,290.842z"/>
			</g>
			<path clip-path="url(#SVGID_4_)" fill="#3A53A4" d="M398.813,288.949c0.091,0,0.128,0.026,0.128,0.19
				c0,0.341-0.004,0.492-0.115,0.492s-0.102-0.143-0.102-0.396c0-0.131,0-0.195-0.029-0.185
				C398.695,288.964,398.734,288.949,398.813,288.949L398.813,288.949z"/>
			<g clip-path="url(#SVGID_4_)">
				<path fill="#010101" d="M398.826,289.632l-0.06-0.023c-0.044-0.045-0.044-0.156-0.044-0.323c0-0.111,0-0.177-0.006-0.211
					c0.007,0.031,0.007,0.086,0.007,0.162c0,0.216,0,0.327,0.044,0.372l0.058,0.021c0.109,0,0.114-0.14,0.114-0.489
					c0-0.247-0.178-0.232-0.228-0.159c0.044-0.07,0.229-0.099,0.229,0.159C398.941,289.489,398.937,289.632,398.826,289.632
					L398.826,289.632z"/>
			</g>
			<path clip-path="url(#SVGID_4_)" fill="#3A53A4" d="M398.136,291.257c-0.068-0.091-0.237-0.015-0.241,0.102
				c0.058-0.076,0.15,0.031,0.202,0.009C398.131,291.354,398.161,291.296,398.136,291.257L398.136,291.257z"/>
			<g clip-path="url(#SVGID_4_)">
				<path fill="none" d="M398.136,291.257c-0.068-0.091-0.237-0.015-0.241,0.102c0.058-0.076,0.15,0.031,0.202,0.009
					C398.131,291.354,398.161,291.296,398.136,291.257z"/>
			</g>
			<path clip-path="url(#SVGID_4_)" fill="#3A53A4" d="M398.048,291.476c-0.07-0.091-0.239-0.015-0.24,0.102
				c0.057-0.076,0.149,0.031,0.202,0.009C398.043,291.572,398.075,291.515,398.048,291.476L398.048,291.476z"/>
			<g clip-path="url(#SVGID_4_)">
				<path fill="none" d="M398.048,291.476c-0.07-0.091-0.239-0.015-0.24,0.102c0.057-0.076,0.149,0.031,0.202,0.009
					C398.043,291.572,398.075,291.515,398.048,291.476z"/>
			</g>
			<path clip-path="url(#SVGID_4_)" fill="#3A53A4" d="M398.002,291.771c-0.076-0.082-0.234,0.015-0.228,0.128
				c0.048-0.079,0.153,0.015,0.202-0.014C398.009,291.864,398.035,291.805,398.002,291.771L398.002,291.771z"/>
			<g clip-path="url(#SVGID_4_)">
				<path fill="none" d="M398.002,291.771c-0.076-0.082-0.234,0.015-0.228,0.128c0.048-0.079,0.153,0.015,0.202-0.014
					C398.009,291.864,398.035,291.805,398.002,291.771z"/>
			</g>
			<path clip-path="url(#SVGID_4_)" fill="#3A53A4" d="M398.083,292.68c-0.083-0.073-0.233,0.046-0.213,0.156
				c0.04-0.085,0.153-0.006,0.199-0.039C398.1,292.773,398.117,292.708,398.083,292.68L398.083,292.68z"/>
			<g clip-path="url(#SVGID_4_)">
				<path fill="none" d="M398.083,292.68c-0.083-0.073-0.233,0.046-0.213,0.156c0.04-0.085,0.153-0.006,0.199-0.039
					C398.1,292.773,398.117,292.708,398.083,292.68z"/>
			</g>
			<path clip-path="url(#SVGID_4_)" fill="#3A53A4" d="M398.079,292.879c-0.101-0.04-0.209,0.122-0.159,0.222
				c0.014-0.097,0.145-0.057,0.178-0.105C398.122,292.961,398.122,292.896,398.079,292.879L398.079,292.879z"/>
			<g clip-path="url(#SVGID_4_)">
				<path fill="none" d="M398.079,292.879c-0.101-0.04-0.209,0.122-0.159,0.222c0.014-0.097,0.145-0.057,0.178-0.105
					C398.122,292.961,398.122,292.896,398.079,292.879z"/>
			</g>
			<path clip-path="url(#SVGID_4_)" fill="#3A53A4" d="M398.209,293.026c-0.102-0.04-0.208,0.122-0.159,0.222
				c0.014-0.094,0.143-0.057,0.177-0.105C398.251,293.111,398.251,293.044,398.209,293.026L398.209,293.026z"/>
			<g clip-path="url(#SVGID_4_)">
				<path fill="none" d="M398.209,293.026c-0.102-0.04-0.208,0.122-0.159,0.222c0.014-0.094,0.143-0.057,0.177-0.105
					C398.251,293.111,398.251,293.044,398.209,293.026z"/>
			</g>
			<path clip-path="url(#SVGID_4_)" fill="#3A53A4" d="M400.86,293.316c-0.101-0.043-0.209,0.119-0.156,0.222
				c0.014-0.097,0.142-0.057,0.176-0.105C400.903,293.398,400.903,293.333,400.86,293.316L400.86,293.316z"/>
			<g clip-path="url(#SVGID_4_)">
				<path fill="none" d="M400.86,293.316c-0.101-0.043-0.209,0.119-0.156,0.222c0.014-0.097,0.142-0.057,0.176-0.105
					C400.903,293.398,400.903,293.333,400.86,293.316z"/>
			</g>
			<path clip-path="url(#SVGID_4_)" fill="#3A53A4" d="M400.998,293.45c-0.105-0.028-0.196,0.147-0.135,0.241
				c0.004-0.097,0.138-0.074,0.166-0.128C401.048,293.529,401.039,293.461,400.998,293.45L400.998,293.45z"/>
			<g clip-path="url(#SVGID_4_)">
				<path fill="none" d="M400.998,293.45c-0.105-0.028-0.196,0.147-0.135,0.241c0.004-0.097,0.138-0.074,0.166-0.128
					C401.048,293.529,401.039,293.461,400.998,293.45z"/>
			</g>
			<path clip-path="url(#SVGID_4_)" fill="#3A53A4" d="M400.903,293.126c-0.095-0.06-0.226,0.079-0.191,0.188
				c0.028-0.091,0.152-0.028,0.191-0.071C400.932,293.214,400.938,293.148,400.903,293.126L400.903,293.126z"/>
			<g clip-path="url(#SVGID_4_)">
				<path fill="none" d="M400.903,293.126c-0.095-0.06-0.226,0.079-0.191,0.188c0.028-0.091,0.152-0.028,0.191-0.071
					C400.932,293.214,400.938,293.148,400.903,293.126z"/>
			</g>
			<path clip-path="url(#SVGID_4_)" fill="#3A53A4" d="M402.788,293.356c-0.104-0.026-0.194,0.147-0.134,0.241
				c0.003-0.097,0.137-0.074,0.165-0.128C402.84,293.436,402.83,293.37,402.788,293.356L402.788,293.356z"/>
			<g clip-path="url(#SVGID_4_)">
				<path fill="none" d="M402.788,293.356c-0.104-0.026-0.194,0.147-0.134,0.241c0.003-0.097,0.137-0.074,0.165-0.128
					C402.84,293.436,402.83,293.37,402.788,293.356z"/>
			</g>
			<path clip-path="url(#SVGID_4_)" fill="#3A53A4" d="M402.793,293.174c-0.094-0.054-0.224,0.092-0.186,0.196
				c0.025-0.094,0.149-0.034,0.189-0.076C402.824,293.266,402.83,293.2,402.793,293.174L402.793,293.174z"/>
			<g clip-path="url(#SVGID_4_)">
				<path fill="none" d="M402.793,293.174c-0.094-0.054-0.224,0.092-0.186,0.196c0.025-0.094,0.149-0.034,0.189-0.076
					C402.824,293.266,402.83,293.2,402.793,293.174z"/>
			</g>
			<path clip-path="url(#SVGID_4_)" fill="#3A53A4" d="M402.865,293.521c-0.104-0.022-0.189,0.156-0.125,0.247
				c0-0.096,0.135-0.082,0.162-0.133C402.92,293.598,402.91,293.529,402.865,293.521L402.865,293.521z"/>
			<g clip-path="url(#SVGID_4_)">
				<path fill="none" d="M402.865,293.521c-0.104-0.022-0.189,0.156-0.125,0.247c0-0.096,0.135-0.082,0.162-0.133
					C402.92,293.598,402.91,293.529,402.865,293.521z"/>
			</g>
			<path clip-path="url(#SVGID_4_)" fill="#3A53A4" d="M399.345,292.231c0.067,0,0.095,0.022,0.095,0.153
				c0,0.281-0.004,0.4-0.084,0.4c-0.083,0-0.077-0.113-0.077-0.318c0-0.107,0-0.162-0.02-0.15
				C399.259,292.245,399.287,292.231,399.345,292.231L399.345,292.231z"/>
			<g clip-path="url(#SVGID_4_)">
				<path fill="#010101" d="M399.356,292.785l-0.042-0.015c-0.036-0.036-0.036-0.128-0.036-0.267c0-0.091,0-0.147-0.004-0.171
					c0.006,0.021,0.006,0.068,0.006,0.134c0,0.176,0,0.268,0.034,0.301L399.356,292.785c0.08,0,0.083-0.122,0.083-0.4
					c0.001-0.205-0.134-0.185-0.169-0.122c0.031-0.065,0.172-0.089,0.172,0.122C399.441,292.663,399.437,292.785,399.356,292.785
					L399.356,292.785z"/>
			</g>
		</g>
	</g>
</g>
</svg>
