<?xml version="1.0" encoding="utf-8"?>
<!-- Generator: Adobe Illustrator 16.0.0, SVG Export Plug-In . SVG Version: 6.00 Build 0)  -->
<!DOCTYPE svg PUBLIC "-//W3C//DTD SVG 1.1//EN" "http://www.w3.org/Graphics/SVG/1.1/DTD/svg11.dtd">
<svg version="1.1" id="name" xmlns="http://www.w3.org/2000/svg" xmlns:xlink="http://www.w3.org/1999/xlink" x="0px" y="0px"
	 width="85.711px" height="50px" viewBox="358 276 85.711 50" enable-background="new 358 276 85.711 50" xml:space="preserve">
<g id="jm">
	<g>
		<defs>
			<rect id="SVGID_1_" x="358" y="276" width="85.711" height="50"/>
		</defs>
		<clipPath id="SVGID_2_">
			<use xlink:href="#SVGID_1_"  overflow="visible"/>
		</clipPath>
		<polygon clip-path="url(#SVGID_2_)" fill="#498B40" points="365.985,326 435.725,326 400.854,305.658 		"/>
		<polygon clip-path="url(#SVGID_2_)" fill="#498B40" points="435.725,276 365.985,276 400.854,296.342 		"/>
		<polygon clip-path="url(#SVGID_2_)" fill="#010101" points="358,321.341 392.869,300.999 358,280.659 		"/>
		<polygon clip-path="url(#SVGID_2_)" fill="#010101" points="443.711,321.341 443.711,280.659 408.842,300.999 		"/>
		<polygon clip-path="url(#SVGID_2_)" fill="#F1DB28" points="358,326 358,326 365.985,326 400.854,305.658 435.725,326 
			443.711,326 400.854,300.999 		"/>
		<polygon clip-path="url(#SVGID_2_)" fill="#F1DB28" points="435.725,276 400.854,296.342 365.985,276 358,276 400.856,300.999 
			443.711,276 		"/>
		<polygon clip-path="url(#SVGID_2_)" fill="#F1DB28" points="443.711,276 400.856,300.999 443.711,326 443.711,321.341 
			408.842,300.999 443.711,280.659 		"/>
		<polygon clip-path="url(#SVGID_2_)" fill="#F1DB28" points="358,280.659 392.869,300.999 358,321.341 358,326 400.854,300.999 
			358,276 		"/>
	</g>
</g>
</svg>
