<?xml version="1.0" encoding="utf-8"?>
<!-- Generator: Adobe Illustrator 16.0.0, SVG Export Plug-In . SVG Version: 6.00 Build 0)  -->
<!DOCTYPE svg PUBLIC "-//W3C//DTD SVG 1.1//EN" "http://www.w3.org/Graphics/SVG/1.1/DTD/svg11.dtd">
<svg version="1.1" id="name" xmlns="http://www.w3.org/2000/svg" xmlns:xlink="http://www.w3.org/1999/xlink" x="0px" y="0px"
	 width="85.711px" height="50px" viewBox="358 276 85.711 50" enable-background="new 358 276 85.711 50" xml:space="preserve">
<g id="ke">
	<g>
		<defs>
			<rect id="SVGID_1_" x="358" y="276" width="85.711" height="50"/>
		</defs>
		<clipPath id="SVGID_2_">
			<use xlink:href="#SVGID_1_"  overflow="visible"/>
		</clipPath>
		<rect x="358" y="276" clip-path="url(#SVGID_2_)" fill="#FFFFFF" width="85.711" height="50"/>
		<rect x="358" y="276" clip-path="url(#SVGID_2_)" fill="#010101" width="85.711" height="15.001"/>
		<rect x="358" y="311.002" clip-path="url(#SVGID_2_)" fill="#2E6934" width="85.711" height="14.998"/>
		<g clip-path="url(#SVGID_2_)">
			<defs>
				<rect id="SVGID_3_" x="358" y="276" width="85.711" height="50"/>
			</defs>
			<clipPath id="SVGID_4_">
				<use xlink:href="#SVGID_3_"  overflow="visible"/>
			</clipPath>
			<path clip-path="url(#SVGID_4_)" fill="#010101" d="M391.564,315.846l0.541,0.312l14.586-25.285
				c0.852-0.228,1.32-1.04,1.789-1.853c0.312-0.54,1.56-2.704,2.101-5.518c-2.163,1.875-3.411,4.04-3.724,4.58
				c-0.469,0.812-0.938,1.622-0.709,2.478L391.564,315.846z"/>
			<g clip-path="url(#SVGID_4_)">
				<path fill="#010101" d="M392.121,316.215l-0.578-0.332l14.57-25.342c-0.236-0.839,0.243-1.671,0.707-2.478
					c1.292-2.242,2.744-3.733,3.733-4.592c-0.18,1.327-0.747,3.333-2.038,5.569c-0.465,0.807-0.945,1.639-1.814,1.872
					L392.121,316.215L392.121,316.215z M410.54,283.495c-0.916,0.892-2.36,2.378-3.646,4.61c-0.459,0.79-0.929,1.608-0.704,2.443
					l-14.589,25.317l0.487,0.235l14.565-25.248c0.861-0.245,1.334-1.062,1.791-1.855
					C409.729,286.773,410.294,284.776,410.54,283.495L410.54,283.495z"/>
			</g>
			<path clip-path="url(#SVGID_4_)" fill="#FFFFFF" d="M391.564,315.846l0.541,0.312l14.586-25.285
				c0.852-0.228,1.32-1.04,1.789-1.853c0.312-0.54,1.56-2.704,2.101-5.518c-2.163,1.875-3.411,4.04-3.724,4.58
				c-0.469,0.812-0.938,1.622-0.709,2.478L391.564,315.846z"/>
			<path clip-path="url(#SVGID_4_)" fill="#010101" d="M409.41,315.846l-0.542,0.312l-14.582-25.285
				c-0.854-0.228-1.321-1.04-1.79-1.853c-0.311-0.54-1.561-2.704-2.102-5.518c2.164,1.875,3.414,4.04,3.725,4.58
				c0.469,0.812,0.936,1.622,0.708,2.478L409.41,315.846z"/>
			<g clip-path="url(#SVGID_4_)">
				<path fill="#010101" d="M408.854,316.215l-0.021-0.036l-14.583-25.283c-0.842-0.216-1.322-1.048-1.787-1.853
					c-1.294-2.241-1.863-4.247-2.11-5.534c1.06,0.821,2.512,2.315,3.803,4.555c0.463,0.804,0.945,1.636,0.712,2.509l14.579,25.251
					L408.854,316.215L408.854,316.215z M390.367,283.534c0.314,1.239,0.878,3.233,2.167,5.464c0.456,0.795,0.928,1.61,1.764,1.835
					l14.586,25.266l0.506-0.29l-14.599-25.226c0.22-0.872-0.251-1.688-0.708-2.478C392.799,285.876,391.354,284.39,390.367,283.534
					L390.367,283.534z"/>
			</g>
			<path clip-path="url(#SVGID_4_)" fill="#FFFFFF" d="M409.41,315.846l-0.542,0.312l-14.582-25.285
				c-0.854-0.228-1.321-1.04-1.79-1.853c-0.311-0.54-1.561-2.704-2.102-5.518c2.164,1.875,3.414,4.04,3.725,4.58
				c0.469,0.812,0.936,1.622,0.708,2.478L409.41,315.846z"/>
			<path clip-path="url(#SVGID_4_)" fill="#AA1E23" d="M358,293.501v15.001h36.556c0.938,2.5,4.058,7.5,5.932,7.5
				c1.873,0,4.996-5,5.931-7.5h37.292v-15.001h-37.292c-0.935-2.5-4.058-7.5-5.931-7.5c-1.874,0-4.995,5-5.932,7.5H358z"/>
			<path clip-path="url(#SVGID_4_)" fill="#010101" d="M406.419,308.502c0.938-2.5,1.562-5,1.562-7.501c0-2.5-0.625-5-1.562-7.5
				c-0.935,2.5-1.56,5-1.56,7.5C404.859,303.502,405.484,306.002,406.419,308.502L406.419,308.502z"/>
			<path clip-path="url(#SVGID_4_)" fill="#010101" d="M394.556,308.502c-0.936-2.5-1.56-5-1.56-7.501c0-2.5,0.624-5,1.56-7.5
				c0.938,2.5,1.561,5,1.561,7.5C396.117,303.502,395.494,306.002,394.556,308.502L394.556,308.502z"/>
			<path clip-path="url(#SVGID_4_)" fill="#FFFFFF" d="M400.488,299.126c0.689,0,1.248,0.839,1.248,1.875
				c0,1.034-0.559,1.876-1.248,1.876c-0.69,0-1.25-0.842-1.25-1.876C399.238,299.965,399.798,299.126,400.488,299.126
				L400.488,299.126z"/>
			<path clip-path="url(#SVGID_4_)" fill="#FFFFFF" d="M400.801,302.828c0,0,1.247,2.5,1.247,6.562c0,4.063-1.247,6.563-1.247,6.563
				V302.828z"/>
			<path clip-path="url(#SVGID_4_)" fill="#FFFFFF" d="M400.177,299.175c0,0-1.25-2.503-1.25-6.563c0-4.062,1.25-6.562,1.25-6.562
				V299.175z"/>
			<path clip-path="url(#SVGID_4_)" fill="#FFFFFF" d="M400.177,302.828c0,0-1.25,2.5-1.25,6.562c0,4.063,1.25,6.563,1.25,6.563
				V302.828z"/>
			<path clip-path="url(#SVGID_4_)" fill="#FFFFFF" d="M400.801,299.175c0,0,1.247-2.503,1.247-6.563
				c0-4.062-1.247-6.562-1.247-6.562V299.175z"/>
		</g>
	</g>
</g>
</svg>
