<?xml version="1.0" encoding="utf-8"?>
<!-- Generator: Adobe Illustrator 16.0.0, SVG Export Plug-In . SVG Version: 6.00 Build 0)  -->
<!DOCTYPE svg PUBLIC "-//W3C//DTD SVG 1.1//EN" "http://www.w3.org/Graphics/SVG/1.1/DTD/svg11.dtd">
<svg version="1.1" id="name" xmlns="http://www.w3.org/2000/svg" xmlns:xlink="http://www.w3.org/1999/xlink" x="0px" y="0px"
	 width="85.715px" height="50px" viewBox="358 276 85.715 50" enable-background="new 358 276 85.715 50" xml:space="preserve">
<g id="kg">
	<g>
		<defs>
			<rect id="SVGID_1_" x="358" y="276" width="85.715" height="50"/>
		</defs>
		<clipPath id="SVGID_2_">
			<use xlink:href="#SVGID_1_"  overflow="visible"/>
		</clipPath>
		<rect x="358" y="276" clip-path="url(#SVGID_2_)" fill="#D51F3A" width="85.715" height="50"/>
		<g clip-path="url(#SVGID_2_)">
			<defs>
				<rect id="SVGID_3_" x="358" y="276" width="85.715" height="50"/>
			</defs>
			<clipPath id="SVGID_4_">
				<use xlink:href="#SVGID_3_"  overflow="visible"/>
			</clipPath>
			<path clip-path="url(#SVGID_4_)" fill="#F6EC32" d="M415.916,301.051c-1.939,0.483-4.032-1.065-5.829-0.738
				c0-0.022-0.001-0.046-0.004-0.068c1.728-0.824,4.601,0.097,5.647-1.54c-1.83,0.778-4.129-0.412-5.851,0.177
				c-0.005-0.026-0.011-0.049-0.016-0.074c1.581-1.065,4.54-0.619,5.317-2.393c-1.682,1.052-4.126,0.247-5.734,1.083
				c-0.01-0.026-0.021-0.049-0.031-0.074c1.401-1.29,4.379-1.318,4.865-3.183c-1.491,1.296-4.021,0.893-5.482,1.955
				c-0.014-0.022-0.027-0.048-0.042-0.071c1.188-1.482,4.106-1.978,4.294-3.892c-1.268,1.511-3.819,1.511-5.098,2.778
				c-0.017-0.02-0.037-0.043-0.056-0.065c0.948-1.643,3.738-2.588,3.624-4.503c-1.012,1.688-3.521,2.088-4.59,3.531
				c-0.024-0.02-0.048-0.04-0.071-0.06c0.689-1.765,3.28-3.134,2.873-5.001c-0.734,1.818-3.143,2.608-3.978,4.194
				c-0.027-0.018-0.055-0.034-0.083-0.049c0.415-1.847,2.748-3.6,2.052-5.373c-0.439,1.907-2.686,3.061-3.267,4.751
				c-0.031-0.012-0.062-0.022-0.094-0.037c0.128-1.881,2.148-3.972,1.187-5.614c-0.135,1.949-2.169,3.441-2.483,5.199
				c-0.032-0.008-0.065-0.017-0.097-0.022c-0.166-1.881,1.498-4.259,0.292-5.728c0.17,1.946-1.604,3.736-1.642,5.523
				c-0.031-0.003-0.065-0.003-0.098-0.006c-0.457-1.83,0.812-4.438-0.608-5.702c0.474,1.897-1,3.943-0.754,5.714
				c-0.034,0.002-0.066,0.005-0.1,0.008c-0.738-1.735,0.106-4.512-1.493-5.537c0.765,1.801-0.372,4.055,0.149,5.765
				c-0.032,0.009-0.062,0.017-0.095,0.025c-1.005-1.6-0.6-4.478-2.343-5.239c1.038,1.659,0.264,4.068,1.053,5.677
				c-0.028,0.015-0.059,0.025-0.087,0.04c-1.249-1.421-1.296-4.336-3.141-4.816c1.289,1.48,0.895,3.992,1.938,5.456
				c-0.025,0.014-0.053,0.031-0.078,0.048c-1.464-1.199-1.965-4.089-3.867-4.276c1.51,1.268,1.51,3.819,2.777,5.098
				c-0.021,0.02-0.044,0.04-0.064,0.06c-1.642-0.949-2.589-3.739-4.502-3.628c1.695,1.017,2.089,3.551,3.552,4.611
				c-0.017,0.02-0.035,0.042-0.051,0.062c-1.78-0.671-3.152-3.293-5.03-2.884c1.838,0.744,2.625,3.193,4.244,4.006
				c-0.011,0.022-0.025,0.042-0.039,0.068c-1.867-0.375-3.64-2.768-5.435-2.066c1.938,0.446,3.099,2.76,4.833,3.296
				c-0.007,0.023-0.016,0.046-0.025,0.068c-1.906-0.065-4.039-2.168-5.709-1.19c1.991,0.14,3.503,2.256,5.312,2.503
				c-0.006,0.023-0.01,0.043-0.016,0.065c-1.896,0.25-4.346-1.512-5.847-0.278c1.996-0.176,3.83,1.693,5.659,1.64
				c0,0.02-0.003,0.04-0.003,0.06c-1.835,0.562-4.546-0.81-5.841,0.647c1.951-0.488,4.062,1.086,5.868,0.728
				c0.001,0.021,0.001,0.037,0.004,0.057c-1.722,0.858-4.631-0.088-5.688,1.563c1.859-0.79,4.2,0.445,5.927-0.208
				c0.004,0.018,0.01,0.034,0.014,0.049c-1.561,1.136-4.603,0.647-5.391,2.446c1.719-1.074,4.236-0.211,5.84-1.14
				c0.006,0.015,0.013,0.025,0.019,0.04c-1.356,1.381-4.461,1.366-4.957,3.275c1.533-1.338,4.17-0.866,5.604-2.054
				c0.009,0.011,0.015,0.022,0.021,0.034c-1.111,1.588-4.202,2.054-4.396,4.025c1.31-1.562,4.002-1.509,5.227-2.918
				c0.008,0.009,0.017,0.015,0.022,0.025c-0.837,1.757-3.839,2.699-3.72,4.683c1.051-1.756,3.729-2.116,4.714-3.713
				c0.009,0.008,0.016,0.014,0.021,0.022c-0.543,1.869-3.372,3.273-2.946,5.219c0.768-1.9,3.361-2.676,4.08-4.412
				c0.009,0.006,0.014,0.012,0.022,0.015c-0.235,1.938-2.822,3.771-2.095,5.628c0.46-2,2.906-3.174,3.341-5
				c0.007,0.003,0.016,0.006,0.021,0.008c0.076,1.952-2.198,4.172-1.188,5.894c0.141-2.049,2.376-3.592,2.516-5.467
				c0.009,0,0.017,0.003,0.024,0.006c0.382,1.918-1.519,4.466-0.252,6.009c-0.181-2.046,1.787-3.918,1.631-5.793
				c0,0,0.016,0,0.021,0c0.684,1.835-0.801,4.65,0.694,5.978c-0.498-1.991,1.151-4.148,0.705-5.978c0,0,0.016,0,0.022,0
				c0.958,1.704-0.065,4.716,1.62,5.793c-0.803-1.887,0.484-4.273-0.237-6.009c0.007,0,0.016-0.003,0.023-0.006
				c1.208,1.537,0.672,4.665,2.502,5.467c-1.087-1.736-0.191-4.291-1.172-5.894c0.009-0.002,0.017-0.008,0.024-0.011
				c1.429,1.332,1.394,4.5,3.321,5.003c-1.343-1.543-0.859-4.199-2.071-5.631c0.009-0.006,0.016-0.009,0.024-0.015
				c1.612,1.097,2.072,4.22,4.056,4.415c-1.565-1.31-1.508-4.003-2.921-5.228c0.009-0.009,0.016-0.014,0.027-0.022
				c1.754,0.838,2.7,3.839,4.682,3.722c-1.744-1.048-2.112-3.702-3.687-4.699c0.008-0.012,0.016-0.02,0.025-0.028
				c1.857,0.565,3.255,3.361,5.19,2.938c-1.881-0.758-2.661-3.307-4.36-4.057c0.009-0.012,0.016-0.025,0.024-0.037
				c1.916,0.284,3.729,2.807,5.566,2.088c-1.97-0.454-3.138-2.832-4.92-3.318c0.007-0.017,0.014-0.034,0.021-0.048
				c1.93,0,4.104,2.185,5.8,1.19c-2.008-0.14-3.529-2.287-5.356-2.506c0.005-0.018,0.009-0.037,0.015-0.055
				c1.902-0.287,4.377,1.515,5.891,0.273c-1.998,0.176-3.829-1.696-5.662-1.64c0.003-0.021,0.004-0.043,0.007-0.062
				C411.908,301.134,414.619,302.506,415.916,301.051 M409.034,301.991c-0.046,0.406-0.122,0.802-0.226,1.188
				c0.051,0.011,0.104,0.02,0.166,0.028c-0.065,0.011-0.128,0.025-0.187,0.042c-0.107,0.393-0.244,0.773-0.41,1.137
				c0.048,0.02,0.101,0.04,0.159,0.054c-0.064,0.003-0.128,0.006-0.189,0.015c-0.169,0.369-0.363,0.722-0.585,1.06
				c0.046,0.025,0.094,0.054,0.15,0.077c-0.063-0.009-0.129-0.015-0.19-0.018c-0.225,0.338-0.472,0.656-0.742,0.955
				c0.039,0.034,0.086,0.068,0.136,0.102c-0.062-0.02-0.126-0.033-0.188-0.045c-0.271,0.295-0.566,0.571-0.881,0.824
				c0.034,0.042,0.074,0.082,0.121,0.122c-0.062-0.028-0.121-0.054-0.178-0.074c-0.315,0.25-0.649,0.478-1,0.679
				c0.028,0.046,0.062,0.092,0.098,0.137c-0.054-0.037-0.107-0.071-0.161-0.1c-0.352,0.196-0.715,0.369-1.096,0.515
				c0.02,0.048,0.047,0.1,0.076,0.15c-0.048-0.045-0.096-0.088-0.145-0.125c-0.375,0.14-0.763,0.253-1.162,0.335
				c0.013,0.052,0.028,0.105,0.051,0.162c-0.041-0.051-0.08-0.102-0.123-0.147c-0.391,0.079-0.79,0.131-1.199,0.15
				c0.004,0.054,0.012,0.108,0.024,0.168c-0.033-0.057-0.064-0.114-0.099-0.165c-0.113,0.006-0.229,0.009-0.341,0.009
				c-0.294,0-0.583-0.018-0.867-0.046c-0.003,0.052-0.006,0.108-0.002,0.168c-0.022-0.062-0.047-0.122-0.072-0.176
				c-0.406-0.049-0.803-0.125-1.188-0.228c-0.012,0.051-0.021,0.104-0.028,0.165c-0.012-0.062-0.025-0.125-0.041-0.186
				c-0.394-0.107-0.773-0.247-1.14-0.409c-0.019,0.049-0.037,0.1-0.053,0.159c-0.003-0.065-0.006-0.131-0.015-0.19
				c-0.367-0.17-0.723-0.366-1.058-0.585c-0.028,0.046-0.053,0.094-0.08,0.15c0.009-0.065,0.015-0.131,0.018-0.19
				c-0.337-0.224-0.655-0.472-0.955-0.741c-0.034,0.04-0.068,0.085-0.101,0.137c0.019-0.065,0.035-0.128,0.047-0.188
				c-0.296-0.273-0.574-0.568-0.827-0.881c-0.041,0.034-0.081,0.073-0.12,0.116c0.028-0.057,0.054-0.116,0.073-0.176
				c-0.248-0.315-0.478-0.648-0.678-1.001c-0.047,0.029-0.091,0.061-0.138,0.1c0.037-0.054,0.071-0.107,0.101-0.162
				c-0.197-0.349-0.369-0.716-0.514-1.094c-0.049,0.021-0.1,0.043-0.152,0.074c0.047-0.048,0.087-0.097,0.125-0.142
				c-0.139-0.376-0.251-0.765-0.335-1.162c-0.051,0.011-0.105,0.028-0.162,0.048c0.053-0.04,0.103-0.079,0.147-0.122
				c-0.079-0.39-0.129-0.793-0.151-1.199c-0.052,0.003-0.106,0.012-0.166,0.025c0.058-0.034,0.114-0.065,0.164-0.102
				c-0.004-0.111-0.008-0.225-0.008-0.339c0-0.292,0.017-0.582,0.047-0.869c-0.053-0.003-0.109-0.003-0.17,0
				c0.062-0.022,0.123-0.045,0.178-0.074c0.046-0.403,0.122-0.801,0.228-1.188c-0.053-0.011-0.106-0.02-0.168-0.025
				c0.064-0.012,0.127-0.025,0.185-0.043c0.109-0.392,0.249-0.772,0.411-1.139c-0.049-0.021-0.1-0.037-0.159-0.052
				c0.066-0.002,0.129-0.008,0.19-0.014c0.169-0.369,0.365-0.725,0.585-1.06c-0.044-0.028-0.095-0.055-0.15-0.077
				c0.065,0.006,0.131,0.012,0.19,0.015c0.223-0.336,0.473-0.656,0.743-0.955c-0.04-0.034-0.086-0.068-0.137-0.1
				c0.064,0.018,0.127,0.034,0.187,0.046c0.273-0.299,0.568-0.574,0.882-0.827c-0.034-0.04-0.074-0.079-0.119-0.119
				c0.061,0.028,0.119,0.051,0.178,0.074c0.313-0.25,0.647-0.478,0.998-0.683c-0.026-0.042-0.058-0.088-0.097-0.136
				c0.055,0.037,0.108,0.07,0.161,0.102c0.351-0.198,0.716-0.369,1.095-0.514c-0.02-0.049-0.044-0.1-0.075-0.15
				c0.047,0.042,0.096,0.085,0.144,0.122c0.375-0.14,0.763-0.25,1.164-0.336c-0.015-0.051-0.03-0.102-0.053-0.159
				c0.04,0.052,0.082,0.1,0.122,0.146c0.391-0.08,0.794-0.128,1.202-0.15c-0.005-0.052-0.012-0.105-0.026-0.165
				c0.031,0.057,0.067,0.11,0.102,0.162c0.112-0.003,0.225-0.006,0.339-0.006c0.293,0,0.583,0.014,0.868,0.045
				c0.005-0.054,0.005-0.107,0-0.17c0.024,0.062,0.046,0.122,0.072,0.179c0.406,0.046,0.803,0.122,1.188,0.225
				c0.011-0.048,0.021-0.105,0.026-0.165c0.013,0.065,0.027,0.128,0.046,0.185c0.389,0.111,0.77,0.248,1.136,0.412
				c0.021-0.048,0.039-0.102,0.053-0.159c0.002,0.065,0.006,0.128,0.015,0.19c0.368,0.168,0.722,0.364,1.059,0.583
				c0.028-0.046,0.054-0.094,0.078-0.148c-0.008,0.065-0.015,0.128-0.016,0.19c0.336,0.225,0.656,0.472,0.953,0.742
				c0.034-0.04,0.069-0.085,0.101-0.137c-0.019,0.062-0.034,0.125-0.045,0.188c0.297,0.272,0.572,0.565,0.826,0.881
				c0.04-0.034,0.081-0.074,0.121-0.119c-0.028,0.06-0.053,0.119-0.074,0.176c0.249,0.315,0.476,0.651,0.68,1
				c0.045-0.028,0.091-0.06,0.138-0.099c-0.039,0.057-0.073,0.11-0.102,0.164c0.198,0.35,0.368,0.714,0.513,1.094
				c0.049-0.02,0.1-0.045,0.151-0.076c-0.044,0.048-0.087,0.097-0.124,0.145c0.141,0.375,0.253,0.765,0.335,1.162
				c0.053-0.011,0.105-0.028,0.162-0.051c-0.053,0.04-0.101,0.082-0.145,0.122c0.078,0.392,0.128,0.793,0.147,1.202
				c0.053-0.006,0.109-0.015,0.168-0.026c-0.059,0.031-0.112,0.065-0.165,0.1c0.006,0.114,0.007,0.228,0.007,0.341
				c0,0.293-0.016,0.583-0.045,0.867c0.053,0.003,0.107,0.006,0.169,0.003C409.15,301.94,409.091,301.966,409.034,301.991"/>
			<path clip-path="url(#SVGID_4_)" fill="#F6EC32" d="M400.123,296.352c-1.14-0.475-2.376-0.759-3.671-0.81
				c-0.103,0.094-0.202,0.19-0.299,0.29c1.233,0.057,2.411,0.329,3.496,0.781C399.805,296.522,399.962,296.435,400.123,296.352"/>
			<path clip-path="url(#SVGID_4_)" fill="#F6EC32" d="M404.828,295.093c-1.099-0.807-2.451-1.281-3.913-1.281
				c-1.463,0-2.812,0.475-3.915,1.281c1.386,0.058,2.703,0.364,3.915,0.881C402.126,295.457,403.445,295.15,404.828,295.093"/>
			<path clip-path="url(#SVGID_4_)" fill="#F6EC32" d="M399.014,297.017c-1.009-0.423-2.098-0.69-3.238-0.762
				c-0.072,0.089-0.145,0.18-0.213,0.271c1.082,0.088,2.115,0.352,3.068,0.767C398.756,297.198,398.883,297.107,399.014,297.017"/>
			<path clip-path="url(#SVGID_4_)" fill="#F6EC32" d="M401.848,298.832c-0.134,0.103-0.265,0.21-0.391,0.321
				c1.873,1.768,3.062,4.265,3.119,7.046c0.208-0.136,0.406-0.284,0.596-0.443C405.001,303.009,403.754,300.56,401.848,298.832"/>
			<path clip-path="url(#SVGID_4_)" fill="#F6EC32" d="M402.18,296.613c1.087-0.452,2.265-0.725,3.498-0.781
				c-0.097-0.1-0.198-0.196-0.3-0.29c-1.296,0.051-2.532,0.335-3.67,0.81C401.867,296.435,402.025,296.522,402.18,296.613"/>
			<path clip-path="url(#SVGID_4_)" fill="#F6EC32" d="M402.954,298.094c-0.159,0.091-0.314,0.185-0.466,0.284
				c1.875,1.631,3.174,3.921,3.541,6.515c0.189-0.225,0.362-0.466,0.521-0.719C406.05,301.756,404.755,299.631,402.954,298.094"/>
			<path clip-path="url(#SVGID_4_)" fill="#F6EC32" d="M398.114,297.701c-0.878-0.397-1.826-0.668-2.821-0.778
				c-0.665,1.052-1.053,2.296-1.053,3.637c0,0.807,0.141,1.58,0.397,2.299C395.303,300.824,396.52,299.042,398.114,297.701"/>
			<path clip-path="url(#SVGID_4_)" fill="#F6EC32" d="M403.198,297.292c0.953-0.415,1.986-0.679,3.068-0.767
				c-0.068-0.091-0.139-0.182-0.212-0.271c-1.142,0.071-2.231,0.339-3.237,0.762C402.947,297.107,403.073,297.198,403.198,297.292"
				/>
			<path clip-path="url(#SVGID_4_)" fill="#F6EC32" d="M398.15,306.407c0,0.099,0.002,0.198,0.003,0.295
				c0.842,0.387,1.776,0.605,2.762,0.605s1.918-0.219,2.759-0.605c0.003-0.097,0.005-0.196,0.005-0.295
				c0-2.634-1.058-5.021-2.764-6.748C399.206,301.387,398.15,303.773,398.15,306.407"/>
			<path clip-path="url(#SVGID_4_)" fill="#F6EC32" d="M400.915,296.721c-0.16,0.083-0.319,0.171-0.474,0.262
				c0.16,0.082,0.317,0.171,0.474,0.262c0.155-0.091,0.314-0.18,0.475-0.262C401.233,296.892,401.076,296.804,400.915,296.721"/>
			<path clip-path="url(#SVGID_4_)" fill="#F6EC32" d="M403.717,297.701c1.593,1.341,2.812,3.123,3.477,5.157
				c0.256-0.719,0.396-1.492,0.396-2.299c0-1.341-0.387-2.585-1.053-3.637C405.542,297.033,404.592,297.304,403.717,297.701"/>
			<path clip-path="url(#SVGID_4_)" fill="#F6EC32" d="M400.374,299.153c-0.129-0.111-0.26-0.219-0.392-0.321
				c-1.905,1.728-3.154,4.177-3.326,6.924c0.189,0.159,0.39,0.308,0.597,0.443C397.309,303.418,398.499,300.921,400.374,299.153"/>
			<path clip-path="url(#SVGID_4_)" fill="#F6EC32" d="M400.521,298.375c0.135,0.1,0.266,0.198,0.395,0.304
				c0.13-0.105,0.261-0.204,0.393-0.304c-0.128-0.1-0.259-0.199-0.393-0.293C400.78,298.176,400.649,298.275,400.521,298.375"/>
			<path clip-path="url(#SVGID_4_)" fill="#F6EC32" d="M399.342,298.378c-0.154-0.1-0.309-0.193-0.465-0.284
				c-1.802,1.537-3.097,3.662-3.597,6.08c0.159,0.253,0.332,0.494,0.52,0.722C396.168,302.299,397.466,300.009,399.342,298.378"/>
			<path clip-path="url(#SVGID_4_)" fill="#F6EC32" d="M401.562,297.659c0.133,0.091,0.263,0.185,0.391,0.281
				c0.155-0.094,0.312-0.186,0.471-0.271c-0.127-0.097-0.256-0.19-0.388-0.281C401.876,297.474,401.717,297.564,401.562,297.659"/>
			<path clip-path="url(#SVGID_4_)" fill="#F6EC32" d="M399.406,297.67c0.158,0.085,0.315,0.177,0.471,0.271
				c0.129-0.097,0.257-0.19,0.391-0.281c-0.154-0.095-0.312-0.186-0.473-0.271C399.664,297.479,399.533,297.573,399.406,297.67"/>
		</g>
	</g>
</g>
</svg>
