<?xml version="1.0" encoding="utf-8"?>
<!-- Generator: Adobe Illustrator 16.0.0, SVG Export Plug-In . SVG Version: 6.00 Build 0)  -->
<!DOCTYPE svg PUBLIC "-//W3C//DTD SVG 1.1//EN" "http://www.w3.org/Graphics/SVG/1.1/DTD/svg11.dtd">
<svg version="1.1" id="name" xmlns="http://www.w3.org/2000/svg" xmlns:xlink="http://www.w3.org/1999/xlink" x="0px" y="0px"
	 width="85.714px" height="50px" viewBox="358 276 85.714 50" enable-background="new 358 276 85.714 50" xml:space="preserve">
<g id="kh">
	<g>
		<defs>
			<rect id="SVGID_1_" x="358" y="276" width="85.714" height="50"/>
		</defs>
		<clipPath id="SVGID_2_">
			<use xlink:href="#SVGID_1_"  overflow="visible"/>
		</clipPath>
		<rect x="358" y="276" clip-path="url(#SVGID_2_)" fill="#2D2D87" width="85.714" height="50"/>
		<rect x="358" y="288.5" clip-path="url(#SVGID_2_)" fill="#BA2025" width="85.714" height="25"/>
		<rect x="384.965" y="300.954" clip-path="url(#SVGID_2_)" fill="#FFFFFF" width="31.787" height="5.14"/>
		<g clip-path="url(#SVGID_2_)">
			<path fill="#BA2025" d="M416.816,306.156h-31.851l-0.064-5.202l31.851-0.064L416.816,306.156L416.816,306.156z M416.688,300.954
				l-31.722,0.063l0.064,5.076l31.658-0.062V300.954L416.688,300.954z"/>
		</g>
		<polygon clip-path="url(#SVGID_2_)" fill="#FFFFFF" points="384.942,306.094 384.43,307.303 417.287,307.303 416.773,306.094 		
			"/>
		<g clip-path="url(#SVGID_2_)">
			<path fill="#BA2025" d="M417.383,307.366h-33.048l0.551-1.297l31.888-0.04L417.383,307.366L417.383,307.366z M384.52,307.238
				h32.671l-0.477-1.121l-31.773,0.039L384.52,307.238L384.52,307.238z"/>
		</g>
		<polygon clip-path="url(#SVGID_2_)" fill="#FFFFFF" points="410.053,306.094 409.43,307.303 416.904,307.303 416.279,306.094 		
			"/>
		<g clip-path="url(#SVGID_2_)">
			<path fill="#BA2025" d="M417.008,307.366h-7.682l0.67-1.303l6.283-0.034L417.008,307.366L417.008,307.366z M409.531,307.238h7.27
				l-0.576-1.116l-6.172,0.034L409.531,307.238L409.531,307.238z"/>
		</g>
		<polygon clip-path="url(#SVGID_2_)" fill="#FFFFFF" points="411.854,306.094 411.539,307.303 415.305,307.303 414.99,306.094 		
			"/>
		<g clip-path="url(#SVGID_2_)">
			<path fill="#BA2025" d="M415.387,307.366h-3.848l0.254-1.29l3.197-0.047L415.387,307.366L415.387,307.366z M414.93,306.109
				l-3.076,0.047l-0.252,1.162l3.623-0.077L414.93,306.109L414.93,306.109z"/>
		</g>
		<polygon clip-path="url(#SVGID_2_)" fill="#FFFFFF" points="412.41,306.094 412.209,307.303 414.641,307.303 414.438,306.094 		
			"/>
		<g clip-path="url(#SVGID_2_)">
			<path fill="#BA2025" d="M414.717,307.366h-2.508l0.139-1.282l2.09-0.055L414.717,307.366L414.717,307.366z M414.375,306.104
				l-1.965,0.053l-0.141,1.156l2.297-0.07L414.375,306.104L414.375,306.104z"/>
		</g>
		<polygon clip-path="url(#SVGID_2_)" fill="#FFFFFF" points="397.584,306.094 396.93,307.303 404.787,307.303 404.131,306.094 		
			"/>
		<g clip-path="url(#SVGID_2_)">
			<path fill="#BA2025" d="M404.893,307.366h-8.068l0.705-1.304l6.601-0.033L404.893,307.366L404.893,307.366z M397.034,307.238
				h7.648l-0.605-1.115l-6.492,0.033L397.034,307.238L397.034,307.238z"/>
		</g>
		<rect x="384.788" y="300.876" clip-path="url(#SVGID_2_)" fill="#FFFFFF" width="32.142" height="1.209"/>
		<g clip-path="url(#SVGID_2_)">
			<path fill="#BA2025" d="M416.994,302.148h-32.207l-0.064-1.272l32.207-0.064L416.994,302.148L416.994,302.148z M416.867,300.876
				l-32.08,0.062l0.062,1.146l32.017-0.062V300.876L416.867,300.876z"/>
		</g>
		<rect x="410.004" y="300.965" clip-path="url(#SVGID_2_)" fill="#FFFFFF" width="6.301" height="5.119"/>
		<g clip-path="url(#SVGID_2_)">
			<path fill="#BA2025" d="M416.367,306.147h-6.363l-0.062-5.183l6.363-0.063L416.367,306.147L416.367,306.147z M416.242,300.965
				l-6.238,0.062l0.064,5.057l6.174-0.062V300.965L416.242,300.965z"/>
		</g>
		<rect x="414.512" y="303.364" clip-path="url(#SVGID_2_)" fill="#FFFFFF" width="0.629" height="2.72"/>
		<g clip-path="url(#SVGID_2_)">
			<path fill="#BA2025" d="M415.205,306.147h-0.693l-0.064-2.783l0.693-0.063L415.205,306.147L415.205,306.147z M415.078,303.364
				l-0.566,0.062l0.064,2.657l0.502-0.056V303.364L415.078,303.364z"/>
		</g>
		<rect x="411.738" y="303.364" clip-path="url(#SVGID_2_)" fill="#FFFFFF" width="0.631" height="2.72"/>
		<g clip-path="url(#SVGID_2_)">
			<path fill="#BA2025" d="M412.434,306.147h-0.695l-0.062-2.783l0.693-0.063L412.434,306.147L412.434,306.147z M412.305,303.364
				l-0.566,0.062l0.064,2.657l0.502-0.056V303.364L412.305,303.364z"/>
		</g>
		<polygon clip-path="url(#SVGID_2_)" fill="#FFFFFF" points="399.192,306.094 398.864,307.303 402.811,307.303 402.48,306.094 		
			"/>
		<g clip-path="url(#SVGID_2_)">
			<path fill="#BA2025" d="M402.893,307.366h-4.029l0.268-1.29l3.349-0.047L402.893,307.366L402.893,307.366z M402.422,306.109
				l-3.23,0.047l-0.268,1.162l3.804-0.077L402.422,306.109L402.422,306.109z"/>
		</g>
		<polygon clip-path="url(#SVGID_2_)" fill="#FFFFFF" points="399.827,306.094 399.622,307.303 402.096,307.303 401.889,306.094 		
			"/>
		<g clip-path="url(#SVGID_2_)">
			<path fill="#BA2025" d="M402.172,307.366h-2.55l0.143-1.284l2.125-0.053L402.172,307.366L402.172,307.366z M401.826,306.104
				l-2,0.052l-0.143,1.157l2.337-0.071L401.826,306.104L401.826,306.104z"/>
		</g>
		<rect x="397.508" y="300.954" clip-path="url(#SVGID_2_)" fill="#FFFFFF" width="6.636" height="5.14"/>
		<g clip-path="url(#SVGID_2_)">
			<path fill="#BA2025" d="M404.209,306.156h-6.701l-0.064-5.202l6.701-0.064L404.209,306.156L404.209,306.156z M404.082,300.954
				l-6.574,0.063l0.062,5.076l6.511-0.062V300.954L404.082,300.954z"/>
		</g>
		<rect x="402.795" y="303.363" clip-path="url(#SVGID_2_)" fill="#FFFFFF" width="0.631" height="2.721"/>
		<g clip-path="url(#SVGID_2_)">
			<path fill="#BA2025" d="M403.488,306.146h-0.693l-0.062-2.783l0.693-0.064L403.488,306.146L403.488,306.146z M403.361,303.363
				l-0.566,0.062l0.064,2.658l0.502-0.058V303.363L403.361,303.363z"/>
		</g>
		<rect x="398.413" y="303.363" clip-path="url(#SVGID_2_)" fill="#FFFFFF" width="0.629" height="2.721"/>
		<g clip-path="url(#SVGID_2_)">
			<path fill="#BA2025" d="M399.106,306.146h-0.693l-0.064-2.783l0.693-0.064L399.106,306.146L399.106,306.146z M398.979,303.363
				l-0.566,0.062l0.062,2.658l0.504-0.058V303.363L398.979,303.363z"/>
		</g>
		<rect x="399.252" y="299.709" clip-path="url(#SVGID_2_)" fill="#FFFFFF" width="3.212" height="6.383"/>
		<g clip-path="url(#SVGID_2_)">
			<path fill="#BA2025" d="M402.529,306.156h-3.277l-0.064-6.447l3.277-0.062L402.529,306.156L402.529,306.156z M402.402,299.709
				l-3.15,0.064l0.062,6.318l3.087-0.061V299.709L402.402,299.709z"/>
		</g>
		<rect x="401.66" y="303.363" clip-path="url(#SVGID_2_)" fill="#FFFFFF" width="0.631" height="2.721"/>
		<g clip-path="url(#SVGID_2_)">
			<path fill="#BA2025" d="M402.354,306.146h-0.693l-0.062-2.783l0.693-0.064L402.354,306.146L402.354,306.146z M402.229,303.363
				l-0.568,0.062l0.064,2.658l0.504-0.058V303.363L402.229,303.363z"/>
		</g>
		<rect x="399.545" y="303.363" clip-path="url(#SVGID_2_)" fill="#FFFFFF" width="0.631" height="2.721"/>
		<g clip-path="url(#SVGID_2_)">
			<path fill="#BA2025" d="M400.241,306.146h-0.695l-0.062-2.783l0.693-0.064L400.241,306.146L400.241,306.146z M400.114,303.363
				l-0.568,0.062l0.064,2.658l0.504-0.058V303.363L400.114,303.363z"/>
		</g>
		<polygon clip-path="url(#SVGID_2_)" fill="#FFFFFF" points="399.461,300.735 400.819,302.695 402.256,300.735 		"/>
		<g clip-path="url(#SVGID_2_)">
			<path fill="#BA2025" d="M400.817,302.805l-1.475-2.134h3.039L400.817,302.805L400.817,302.805z M399.581,300.798l1.238,1.79
				l1.312-1.79H399.581L399.581,300.798z"/>
		</g>
		<rect x="412.506" y="300.954" clip-path="url(#SVGID_2_)" fill="#FFFFFF" width="1.783" height="6.349"/>
		<g clip-path="url(#SVGID_2_)">
			<path fill="#BA2025" d="M414.354,307.366h-1.848l-0.064-6.412l1.848-0.064L414.354,307.366L414.354,307.366z M414.227,300.954
				l-1.721,0.063l0.062,6.285l1.658-0.061V300.954L414.227,300.954z"/>
		</g>
		<rect x="412.801" y="300.954" clip-path="url(#SVGID_2_)" fill="#FFFFFF" width="1.189" height="6.349"/>
		<g clip-path="url(#SVGID_2_)">
			<path fill="#BA2025" d="M414.055,307.366h-1.254l-0.064-6.412l1.254-0.064L414.055,307.366L414.055,307.366z M413.926,300.954
				l-1.125,0.063l0.062,6.285l1.062-0.061V300.954L413.926,300.954z"/>
		</g>
		<polygon clip-path="url(#SVGID_2_)" fill="#FFFFFF" points="385.37,306.094 384.747,307.303 392.221,307.303 391.598,306.094 		
			"/>
		<g clip-path="url(#SVGID_2_)">
			<path fill="#BA2025" d="M392.325,307.366h-7.682l0.67-1.303l6.285-0.034L392.325,307.366L392.325,307.366z M384.848,307.238h7.27
				l-0.574-1.116l-6.174,0.034L384.848,307.238L384.848,307.238z"/>
		</g>
		<polygon clip-path="url(#SVGID_2_)" fill="#FFFFFF" points="386.866,306.094 386.573,307.303 390.086,307.303 389.793,306.094 		
			"/>
		<g clip-path="url(#SVGID_2_)">
			<path fill="#BA2025" d="M390.168,307.366h-3.596l0.232-1.288l2.988-0.049L390.168,307.366L390.168,307.366z M389.733,306.107
				l-2.867,0.049l-0.23,1.162l3.373-0.077L389.733,306.107L389.733,306.107z"/>
		</g>
		<polygon clip-path="url(#SVGID_2_)" fill="#FFFFFF" points="387.387,306.094 387.2,307.303 389.444,307.303 389.256,306.094 		"/>
		<g clip-path="url(#SVGID_2_)">
			<path fill="#BA2025" d="M389.516,307.366H387.2l0.125-1.282l1.932-0.055L389.516,307.366L389.516,307.366z M389.194,306.104
				l-1.807,0.053l-0.125,1.156l2.107-0.07L389.194,306.104L389.194,306.104z"/>
		</g>
		<rect x="385.323" y="300.954" clip-path="url(#SVGID_2_)" fill="#FFFFFF" width="6.25" height="5.14"/>
		<g clip-path="url(#SVGID_2_)">
			<path fill="#BA2025" d="M391.637,306.156h-6.314l-0.062-5.202l6.312-0.064L391.637,306.156L391.637,306.156z M391.508,300.954
				l-6.186,0.063l0.062,5.076l6.123-0.062V300.954L391.508,300.954z"/>
		</g>
		<rect x="386.542" y="303.364" clip-path="url(#SVGID_2_)" fill="#FFFFFF" width="0.631" height="2.72"/>
		<g clip-path="url(#SVGID_2_)">
			<path fill="#BA2025" d="M387.235,306.147h-0.693l-0.062-2.783l0.693-0.063L387.235,306.147L387.235,306.147z M387.108,303.364
				l-0.566,0.062l0.062,2.657l0.504-0.056V303.364L387.108,303.364z"/>
		</g>
		<rect x="389.438" y="303.364" clip-path="url(#SVGID_2_)" fill="#FFFFFF" width="0.631" height="2.72"/>
		<g clip-path="url(#SVGID_2_)">
			<path fill="#BA2025" d="M390.131,306.147h-0.693l-0.062-2.783l0.693-0.063L390.131,306.147L390.131,306.147z M390.006,303.364
				l-0.568,0.062l0.064,2.657l0.504-0.056V303.364L390.006,303.364z"/>
		</g>
		<rect x="387.465" y="300.954" clip-path="url(#SVGID_2_)" fill="#FFFFFF" width="1.785" height="6.349"/>
		<g clip-path="url(#SVGID_2_)">
			<path fill="#BA2025" d="M389.313,307.366h-1.848l-0.062-6.412l1.848-0.064L389.313,307.366L389.313,307.366z M389.188,300.954
				l-1.723,0.063l0.064,6.285l1.658-0.061V300.954L389.188,300.954z"/>
		</g>
		<rect x="387.76" y="300.954" clip-path="url(#SVGID_2_)" fill="#FFFFFF" width="1.191" height="6.349"/>
		<g clip-path="url(#SVGID_2_)">
			<path fill="#BA2025" d="M389.014,307.366h-1.254l-0.062-6.412l1.254-0.064L389.014,307.366L389.014,307.366z M388.887,300.954
				l-1.127,0.063l0.064,6.285l1.062-0.061V300.954L388.887,300.954z"/>
		</g>
		<rect x="384.43" y="299.743" clip-path="url(#SVGID_2_)" fill="#FFFFFF" width="32.857" height="1.209"/>
		<g clip-path="url(#SVGID_2_)">
			<path fill="#BA2025" d="M417.35,301.017H384.43l-0.064-1.273l32.921-0.062L417.35,301.017L417.35,301.017z M417.223,299.743
				l-32.792,0.064l0.064,1.145l32.728-0.062V299.743L417.223,299.743z"/>
		</g>
		<rect x="383.518" y="307" clip-path="url(#SVGID_2_)" fill="#FFFFFF" width="34.548" height="1.556"/>
		<g clip-path="url(#SVGID_2_)">
			<path fill="#BA2025" d="M418.131,308.619h-34.613L383.454,307l34.613-0.064L418.131,308.619L418.131,308.619z M418.004,307
				l-34.486,0.062l0.062,1.493l34.423-0.062V307L418.004,307z"/>
		</g>
		<rect x="382.989" y="307.332" clip-path="url(#SVGID_2_)" fill="#FFFFFF" width="35.607" height="1.557"/>
		<g clip-path="url(#SVGID_2_)">
			<path fill="#BA2025" d="M418.658,308.951h-35.669l-0.062-1.619l35.669-0.062L418.658,308.951L418.658,308.951z M418.531,307.332
				l-35.542,0.064l0.064,1.492l35.478-0.062V307.332L418.531,307.332z"/>
		</g>
		<rect x="382.067" y="308.222" clip-path="url(#SVGID_2_)" fill="#FFFFFF" width="37.583" height="1.556"/>
		<g clip-path="url(#SVGID_2_)">
			<path fill="#BA2025" d="M419.713,309.841h-37.646l-0.062-1.619l37.646-0.064L419.713,309.841L419.713,309.841z M419.586,308.222
				l-37.519,0.062l0.062,1.493l37.457-0.064V308.222L419.586,308.222z"/>
		</g>
		<rect x="380.749" y="309.332" clip-path="url(#SVGID_2_)" fill="#FFFFFF" width="40.22" height="1.555"/>
		<g clip-path="url(#SVGID_2_)">
			<path fill="#BA2025" d="M421.031,310.95h-40.283l-0.062-1.618l40.283-0.063L421.031,310.95L421.031,310.95z M420.904,309.332
				l-40.156,0.062l0.062,1.492l40.093-0.062V309.332L420.904,309.332z"/>
		</g>
		<rect x="379.44" y="310.896" clip-path="url(#SVGID_2_)" fill="#FFFFFF" width="42.837" height="1.537"/>
		<g clip-path="url(#SVGID_2_)">
			<path fill="#BA2025" d="M422.342,312.497H379.44l-0.064-1.601l42.902-0.064L422.342,312.497L422.342,312.497z M422.215,310.896
				l-42.775,0.062l0.062,1.475l42.712-0.064V310.896L422.215,310.896z"/>
		</g>
		<rect x="387.465" y="307" clip-path="url(#SVGID_2_)" fill="#FFFFFF" width="1.785" height="5.442"/>
		<g clip-path="url(#SVGID_2_)">
			<path fill="#BA2025" d="M389.313,312.505h-1.848L387.403,307l1.848-0.064L389.313,312.505L389.313,312.505z M389.188,307
				l-1.723,0.062l0.064,5.38l1.658-0.062V307L389.188,307z"/>
		</g>
		<rect x="387.762" y="307" clip-path="url(#SVGID_2_)" fill="#FFFFFF" width="1.191" height="5.442"/>
		<g clip-path="url(#SVGID_2_)">
			<path fill="#BA2025" d="M389.018,312.505h-1.256L387.7,307l1.254-0.064L389.018,312.505L389.018,312.505z M388.891,307
				l-1.129,0.062l0.064,5.38l1.064-0.06V307L388.891,307z"/>
		</g>
		<rect x="412.467" y="307" clip-path="url(#SVGID_2_)" fill="#FFFFFF" width="1.785" height="5.442"/>
		<g clip-path="url(#SVGID_2_)">
			<path fill="#BA2025" d="M414.314,312.505h-1.848L412.402,307l1.85-0.064L414.314,312.505L414.314,312.505z M414.188,307
				l-1.721,0.062l0.062,5.38l1.658-0.062V307L414.188,307z"/>
		</g>
		<rect x="412.764" y="307" clip-path="url(#SVGID_2_)" fill="#FFFFFF" width="1.191" height="5.442"/>
		<g clip-path="url(#SVGID_2_)">
			<path fill="#BA2025" d="M414.018,312.505h-1.254L412.699,307l1.256-0.064L414.018,312.505L414.018,312.505z M413.891,307
				l-1.127,0.062l0.062,5.38l1.064-0.06V307L413.891,307z"/>
		</g>
		<rect x="400.198" y="300.952" clip-path="url(#SVGID_2_)" fill="#FFFFFF" width="1.435" height="11.49"/>
		<g clip-path="url(#SVGID_2_)">
			<path fill="#BA2025" d="M401.697,312.505h-1.5l-0.062-11.553l1.498-0.062L401.697,312.505L401.697,312.505z M401.57,300.952
				l-1.373,0.064l0.064,11.426l1.308-0.062V300.952L401.57,300.952z"/>
		</g>
		<g clip-path="url(#SVGID_2_)">
			<defs>
				<rect id="SVGID_3_" x="358" y="276" width="85.714" height="50"/>
			</defs>
			<clipPath id="SVGID_4_">
				<use xlink:href="#SVGID_3_"  overflow="visible"/>
			</clipPath>
			<path clip-path="url(#SVGID_4_)" fill="#FFFFFF" d="M410.412,301.005l0.018-3.149c0,0,0.318,0.618,2.807,0.753
				c2.354-0.079,2.744-0.459,2.85-0.793l-0.096,3.202L410.412,301.005z"/>
			<g clip-path="url(#SVGID_4_)">
				<path fill="#BA2025" d="M416.051,301.08l-5.639-0.012l-0.045-3.213v-0.237l0.117,0.208c0.002,0.005,0.361,0.589,2.756,0.719
					c2.283-0.077,2.689-0.439,2.787-0.748l0.123,0.021L416.051,301.08L416.051,301.08z M410.492,298.014l-0.016,2.991l5.451-0.05
					l0.09-2.885c-0.256,0.292-0.916,0.538-2.779,0.601C411.408,298.571,410.729,298.209,410.492,298.014L410.492,298.014z"/>
			</g>
			<path clip-path="url(#SVGID_4_)" fill="#FFFFFF" d="M412.02,297.317l-0.77-0.618c0.258-0.16,0.734,0.115,0.734,0.115
				s0.256-0.711,1.357-1.009c1.1,0.298,1.354,1.009,1.354,1.009s0.479-0.275,0.734-0.115l-0.77,0.618H412.02z"/>
			<g clip-path="url(#SVGID_4_)">
				<path fill="#BA2025" d="M414.682,297.381h-2.662l-0.809-0.632c0.068-0.144,0.148-0.163,0.238-0.163
					c0.24,0,0.502,0.139,0.557,0.167c-0.039-0.066,0.258-0.722,1.318-1.007c1.039,0.272,1.359,0.881,1.42,1.02
					c0.035-0.085,0.502-0.258,0.719-0.119L414.682,297.381L414.682,297.381z M411.449,296.712c-0.066,0-0.123,0.015-0.166,0.041
					l0.775,0.515l2.58-0.013l0.678-0.544c-0.027,0.004-0.057,0-0.084,0.001c-0.229,0-0.502,0.155-0.506,0.156
					c-0.092-0.04-0.352-0.718-1.402-1.003c-1.02,0.285-1.279,0.963-1.281,0.971C411.938,296.865,411.678,296.712,411.449,296.712
					L411.449,296.712z"/>
			</g>
			<path clip-path="url(#SVGID_4_)" fill="#FFFFFF" d="M411.623,298.92l-1-0.867c0.334-0.225,0.953,0.162,0.953,0.162
				s0.334-0.994,1.766-1.41c1.428,0.416,1.762,1.41,1.762,1.41s0.619-0.387,0.953-0.162l-1.002,0.867H411.623z"/>
			<g clip-path="url(#SVGID_4_)">
				<path fill="#BA2025" d="M415.08,298.983h-3.457l-1.041-0.882c0.086-0.153,0.186-0.181,0.301-0.181
					c0.316,0,0.666,0.204,0.721,0.237c-0.049-0.069,0.32-1.007,1.719-1.415c1.371,0.391,1.77,1.268,1.832,1.428
					c0.033-0.103,0.652-0.359,0.938-0.169L415.08,298.983L415.08,298.983z M410.883,298.047c-0.09,0-0.166,0.021-0.225,0.059
					l1.006,0.768l3.369-0.016l0.957-0.828c-0.055,0.032-0.117,0.018-0.193,0.018c-0.299,0-0.656,0.219-0.66,0.221
					c-0.098-0.043-0.436-1.002-1.814-1.403c-1.342,0.401-1.684,1.36-1.686,1.37C411.537,298.271,411.18,298.047,410.883,298.047
					L410.883,298.047z"/>
			</g>
			<path clip-path="url(#SVGID_4_)" fill="#FFFFFF" d="M413.354,292.487c0.033,0,1.197,2.085,0,2.116
				S413.354,292.551,413.354,292.487L413.354,292.487z"/>
			<g clip-path="url(#SVGID_4_)">
				<path fill="#BA2025" d="M413.328,294.668c-0.227,0-0.389-0.075-0.482-0.224c-0.283-0.453,0.209-1.47,0.393-1.853
					c0.029-0.061,0.051-0.102,0.055-0.117c0.018-0.005,0.037,0.001,0.061,0.014l0.064-0.001c0,0.013-0.002,0.022-0.014,0.047
					c0.215,0.225,0.547,1.017,0.553,1.479c0.004,0.418-0.203,0.644-0.6,0.655H413.328L413.328,294.668z M413.365,292.619
					c-0.004,0.009-0.008,0.018-0.014,0.027c-0.16,0.332-0.646,1.337-0.398,1.731c0.07,0.11,0.191,0.163,0.375,0.163v0.062
					l0.023-0.062c0.219-0.006,0.359-0.082,0.428-0.235C413.979,293.865,413.533,292.918,413.365,292.619L413.365,292.619z"/>
			</g>
			<path clip-path="url(#SVGID_4_)" fill="#FFFFFF" d="M412.344,295.134l-0.592-0.325c0.197-0.086,0.562,0.06,0.562,0.06
				s0.197-0.372,1.043-0.528c0.846,0.156,1.043,0.528,1.043,0.528s0.369-0.146,0.566-0.06l-0.594,0.325H412.344z"/>
			<g clip-path="url(#SVGID_4_)">
				<path fill="#BA2025" d="M414.389,295.196h-2.045l-0.736-0.396l0.119-0.051c0.176-0.072,0.531,0.03,0.6,0.057
					c-0.021-0.045,0.223-0.382,1.02-0.529c0.787,0.144,1.043,0.46,1.1,0.542c0.02-0.055,0.375-0.139,0.545-0.069l0.119,0.051
					L414.389,295.196L414.389,295.196z M411.951,294.847l0.422,0.231l1.984-0.009l0.406-0.223c-0.164,0.012-0.338,0.081-0.34,0.081
					c-0.08-0.032-0.279-0.378-1.078-0.525c-0.775,0.147-0.973,0.493-0.975,0.497C412.297,294.927,412.117,294.858,411.951,294.847
					L411.951,294.847z"/>
			</g>
			<path clip-path="url(#SVGID_4_)" fill="#FFFFFF" d="M412.836,295.398l-0.014-0.265c0,0,0.102-0.374,0.535-0.53
				c0.436,0.156,0.535,0.53,0.535,0.53l-0.014,0.265H412.836z"/>
			<g clip-path="url(#SVGID_4_)">
				<path fill="#BA2025" d="M413.939,295.462h-1.104l-0.076-0.325c0.008-0.037,0.117-0.427,0.576-0.593
					c0.506,0.166,0.615,0.556,0.619,0.574L413.939,295.462L413.939,295.462z M413.336,294.663c-0.354,0.143-0.447,0.474-0.453,0.486
					l0.018,0.246l0.92-0.058l0.01-0.207l0,0C413.826,295.131,413.73,294.804,413.336,294.663L413.336,294.663z"/>
			</g>
			<path clip-path="url(#SVGID_4_)" fill="#FFFFFF" d="M412.314,296.19l-0.027-0.353c0,0,0.203-0.495,1.07-0.704
				c0.869,0.209,1.072,0.704,1.072,0.704l-0.029,0.353H412.314z"/>
			<g clip-path="url(#SVGID_4_)">
				<path fill="#BA2025" d="M414.459,296.255h-2.145l-0.09-0.411c0.012-0.05,0.229-0.558,1.119-0.771
					c0.92,0.214,1.135,0.722,1.145,0.742L414.459,296.255L414.459,296.255z M413.344,295.194c-0.793,0.198-0.998,0.664-0.998,0.668
					l0.031,0.324l1.965-0.057l0.025-0.296l0,0C414.357,295.834,414.143,295.387,413.344,295.194L413.344,295.194z"/>
			</g>
			<path clip-path="url(#SVGID_4_)" fill="#FFFFFF" d="M412.314,296.721l-0.027-0.353c0,0,0.203-0.497,1.07-0.706
				c0.869,0.209,1.072,0.706,1.072,0.706l-0.029,0.353H412.314z"/>
			<g clip-path="url(#SVGID_4_)">
				<path fill="#BA2025" d="M414.459,296.783h-2.145l-0.09-0.409c0.012-0.052,0.229-0.56,1.119-0.772
					c0.92,0.213,1.135,0.721,1.145,0.742L414.459,296.783L414.459,296.783z M413.344,295.725c-0.793,0.197-0.998,0.662-0.998,0.668
					l0.031,0.322l1.965-0.056l0.025-0.295l0,0C414.357,296.364,414.143,295.916,413.344,295.725L413.344,295.725z"/>
			</g>
			<path clip-path="url(#SVGID_4_)" fill="#FFFFFF" d="M412.344,298.309l-0.592-0.866c0.197-0.225,0.562,0.16,0.562,0.16
				s0.197-0.994,1.043-1.412c0.846,0.418,1.043,1.412,1.043,1.412s0.369-0.385,0.566-0.16l-0.594,0.866H412.344z"/>
			<g clip-path="url(#SVGID_4_)">
				<path fill="#BA2025" d="M414.406,298.371h-2.062l-0.645-0.894c0.16-0.382,0.441-0.107,0.58,0.007
					c0.078-0.273,0.344-1,1.051-1.35c0.754,0.35,1.027,1.077,1.105,1.35c0.139-0.114,0.432-0.253,0.578-0.083L414.406,298.371
					L414.406,298.371z M411.904,297.436c-0.043,0-0.076,0.016-0.105,0.048l0.596,0.79l1.945-0.027l0.564-0.826
					c-0.023,0.026-0.053,0.016-0.092,0.016c-0.135,0-0.309,0.151-0.367,0.211l-0.084,0.087l-0.021-0.118
					c-0.002-0.01-0.201-0.969-1.01-1.368c-0.752,0.399-0.953,1.358-0.953,1.368l-0.023,0.119l-0.084-0.088
					C412.213,297.587,412.039,297.436,411.904,297.436L411.904,297.436z"/>
			</g>
			<path clip-path="url(#SVGID_4_)" fill="#FFFFFF" d="M412.344,299.365l-0.592-0.865c0.197-0.224,0.562,0.161,0.562,0.161
				s0.197-0.994,1.043-1.412c0.846,0.418,1.043,1.412,1.043,1.412s0.369-0.385,0.566-0.161l-0.594,0.865H412.344z"/>
			<g clip-path="url(#SVGID_4_)">
				<path fill="#BA2025" d="M414.406,299.43h-2.062l-0.645-0.894c0.16-0.384,0.443-0.109,0.58,0.007
					c0.078-0.274,0.344-1.001,1.051-1.35c0.754,0.35,1.027,1.075,1.105,1.35c0.139-0.116,0.434-0.25,0.578-0.084L414.406,299.43
					L414.406,299.43z M411.904,298.493c-0.043,0-0.076,0.016-0.105,0.049l0.596,0.788l1.945-0.027l0.564-0.825
					c-0.025,0.027-0.055,0.016-0.094,0.016c-0.133,0-0.307,0.152-0.365,0.21l-0.084,0.089l-0.021-0.12
					c-0.002-0.008-0.201-0.969-1.01-1.366c-0.752,0.399-0.953,1.358-0.953,1.366l-0.023,0.12l-0.084-0.089
					C412.213,298.646,412.039,298.493,411.904,298.493L411.904,298.493z"/>
			</g>
			<path clip-path="url(#SVGID_4_)" fill="#FFFFFF" d="M412.314,300.952l-0.027-0.881c0,0,0.203-1.243,1.07-1.763
				c0.869,0.52,1.072,1.763,1.072,1.763l-0.029,0.881H412.314z"/>
			<g clip-path="url(#SVGID_4_)">
				<path fill="#BA2025" d="M414.461,301.017h-2.146l-0.092-0.943c0.01-0.064,0.221-1.29,1.104-1.818
					c0.947,0.528,1.156,1.754,1.166,1.807L414.461,301.017L414.461,301.017z M413.326,298.362c-0.768,0.499-0.975,1.706-0.977,1.72
					l0.029,0.869l1.961-0.06l0.027-0.823C414.365,300.068,414.158,298.861,413.326,298.362L413.326,298.362z"/>
			</g>
			<path clip-path="url(#SVGID_4_)" fill="#FFFFFF" d="M412.344,300.952l-0.592-0.649c0.197-0.167,0.562,0.121,0.562,0.121
				s0.197-0.746,1.043-1.059c0.846,0.312,1.043,1.059,1.043,1.059s0.369-0.288,0.566-0.121l-0.594,0.649H412.344z"/>
			<g clip-path="url(#SVGID_4_)">
				<path fill="#BA2025" d="M414.4,301.017h-2.057l-0.639-0.671c0.057-0.135,0.125-0.157,0.199-0.157
					c0.141,0,0.291,0.081,0.377,0.136c0.08-0.21,0.348-0.756,1.055-1.019c0.742,0.263,1.016,0.809,1.1,1.019
					c0.131-0.085,0.416-0.195,0.572-0.069L414.4,301.017L414.4,301.017z M411.904,300.314c-0.047,0-0.082,0.013-0.111,0.037
					l0.596,0.56l1.955-0.021l0.529-0.576c-0.016,0.004-0.039,0.001-0.061,0.001c-0.139,0-0.316,0.115-0.371,0.159l-0.076,0.06
					l-0.023-0.092c-0.004-0.008-0.203-0.719-1.006-1.016c-0.76,0.297-0.959,1.008-0.961,1.016l-0.023,0.092l-0.076-0.06
					C412.273,300.473,412.07,300.314,411.904,300.314L411.904,300.314z"/>
			</g>
			<path clip-path="url(#SVGID_4_)" fill="#FFFFFF" d="M387.057,297.091l-0.771-0.617c0.258-0.161,0.734,0.113,0.734,0.113
				s0.256-0.709,1.355-1.007c1.1,0.298,1.357,1.007,1.357,1.007s0.477-0.274,0.734-0.113l-0.77,0.617H387.057z"/>
			<g clip-path="url(#SVGID_4_)">
				<path fill="#BA2025" d="M389.719,297.155h-2.662l-0.811-0.634c0.07-0.142,0.148-0.162,0.238-0.162
					c0.238,0,0.504,0.138,0.557,0.168c-0.039-0.065,0.26-0.721,1.318-1.007c1.041,0.272,1.361,0.88,1.422,1.019
					c0.031-0.086,0.5-0.255,0.719-0.12L389.719,297.155L389.719,297.155z M386.485,296.486c-0.066,0-0.121,0.013-0.166,0.039
					l0.775,0.518l2.58-0.015l0.678-0.544c-0.027,0.003-0.055,0-0.086,0.002c-0.229,0-0.5,0.154-0.502,0.156
					c-0.092-0.04-0.352-0.718-1.404-1.002c-1.02,0.284-1.277,0.962-1.281,0.968C386.975,296.64,386.713,296.486,386.485,296.486
					L386.485,296.486z"/>
			</g>
			<path clip-path="url(#SVGID_4_)" fill="#FFFFFF" d="M386.661,298.693l-1-0.865c0.334-0.224,0.953,0.159,0.953,0.159
				s0.334-0.992,1.762-1.41c1.432,0.418,1.766,1.41,1.766,1.41s0.619-0.383,0.953-0.159l-1.002,0.865H386.661z"/>
			<g clip-path="url(#SVGID_4_)">
				<path fill="#BA2025" d="M390.116,298.758h-3.455l-1.041-0.883c0.086-0.151,0.184-0.18,0.299-0.18
					c0.318,0,0.67,0.203,0.723,0.235c-0.049-0.068,0.32-1.006,1.719-1.413c1.371,0.389,1.77,1.267,1.832,1.426
					c0.033-0.101,0.65-0.356,0.938-0.167L390.116,298.758L390.116,298.758z M385.918,297.821c-0.09,0-0.164,0.021-0.225,0.06
					l1.01,0.766l3.365-0.016l0.957-0.828c-0.051,0.033-0.117,0.018-0.191,0.019c-0.303,0-0.656,0.219-0.662,0.221
					c-0.096-0.043-0.436-1.003-1.812-1.404c-1.348,0.402-1.684,1.361-1.688,1.371C386.583,298.049,386.219,297.821,385.918,297.821
					L385.918,297.821z"/>
			</g>
			<path clip-path="url(#SVGID_4_)" fill="#FFFFFF" d="M385.661,301.005l0.02-3.149c0,0,0.32,0.618,2.805,0.753
				c2.355-0.079,2.746-0.459,2.852-0.793l-0.096,3.202L385.661,301.005z"/>
			<g clip-path="url(#SVGID_4_)">
				<path fill="#BA2025" d="M391.301,301.08l-5.641-0.012l-0.045-3.213l0.004-0.237l0.115,0.208
					c0.004,0.005,0.359,0.589,2.756,0.719c2.281-0.077,2.688-0.439,2.787-0.748l0.123,0.021L391.301,301.08L391.301,301.08z
					 M385.743,298.014l-0.018,2.991l5.453-0.05l0.088-2.885c-0.254,0.292-0.916,0.538-2.777,0.601
					C386.657,298.571,385.979,298.209,385.743,298.014L385.743,298.014z"/>
			</g>
			<path clip-path="url(#SVGID_4_)" fill="#FFFFFF" d="M388.354,292.487c0.031,0,1.199,2.085,0,2.116
				C387.157,294.635,388.354,292.551,388.354,292.487L388.354,292.487z"/>
			<g clip-path="url(#SVGID_4_)">
				<path fill="#BA2025" d="M388.329,294.668c-0.227,0-0.389-0.075-0.48-0.224c-0.285-0.453,0.205-1.47,0.391-1.853
					c0.029-0.061,0.049-0.102,0.053-0.117c0.02-0.005,0.039,0.001,0.062,0.014l0.062-0.001c0,0.013,0,0.022-0.012,0.047
					c0.215,0.225,0.545,1.017,0.553,1.479c0.006,0.418-0.201,0.644-0.602,0.655H388.329L388.329,294.668z M388.366,292.619
					c-0.004,0.009-0.01,0.018-0.014,0.027c-0.158,0.332-0.646,1.337-0.398,1.731c0.068,0.11,0.191,0.163,0.375,0.163v0.062
					l0.023-0.062c0.221-0.006,0.359-0.082,0.428-0.235C388.979,293.865,388.534,292.918,388.366,292.619L388.366,292.619z"/>
			</g>
			<path clip-path="url(#SVGID_4_)" fill="#FFFFFF" d="M387.344,295.134l-0.594-0.325c0.197-0.086,0.564,0.06,0.564,0.06
				s0.197-0.372,1.045-0.528c0.844,0.156,1.041,0.528,1.041,0.528s0.367-0.146,0.564-0.06l-0.592,0.325H387.344z"/>
			<g clip-path="url(#SVGID_4_)">
				<path fill="#BA2025" d="M389.391,295.196h-2.047l-0.736-0.396l0.119-0.051c0.174-0.072,0.531,0.03,0.6,0.057
					c-0.02-0.045,0.225-0.382,1.021-0.529c0.783,0.144,1.043,0.46,1.098,0.542c0.02-0.057,0.375-0.138,0.545-0.069l0.119,0.051
					L389.391,295.196L389.391,295.196z M386.952,294.847l0.422,0.231l1.984-0.009l0.408-0.223c-0.166,0.012-0.338,0.08-0.342,0.081
					c-0.08-0.032-0.279-0.378-1.076-0.525c-0.777,0.147-0.977,0.493-0.979,0.497C387.297,294.927,387.118,294.858,386.952,294.847
					L386.952,294.847z"/>
			</g>
			<path clip-path="url(#SVGID_4_)" fill="#FFFFFF" d="M387.838,295.398l-0.016-0.265c0,0,0.102-0.374,0.537-0.53
				c0.434,0.156,0.533,0.53,0.533,0.53l-0.014,0.265H387.838z"/>
			<g clip-path="url(#SVGID_4_)">
				<path fill="#BA2025" d="M388.938,295.462h-1.1l-0.078-0.325c0.006-0.037,0.115-0.427,0.578-0.593
					c0.502,0.166,0.611,0.556,0.615,0.574L388.938,295.462L388.938,295.462z M388.338,294.663c-0.355,0.143-0.451,0.474-0.455,0.486
					l0.018,0.246l0.918-0.058l0.012-0.207l0,0C388.829,295.131,388.729,294.804,388.338,294.663L388.338,294.663z"/>
			</g>
			<path clip-path="url(#SVGID_4_)" fill="#FFFFFF" d="M387.317,296.19l-0.031-0.353c0,0,0.203-0.495,1.074-0.704
				c0.867,0.209,1.07,0.704,1.07,0.704l-0.029,0.353H387.317z"/>
			<g clip-path="url(#SVGID_4_)">
				<path fill="#BA2025" d="M389.459,296.255h-2.143l-0.094-0.411c0.014-0.05,0.23-0.558,1.121-0.771
					c0.918,0.214,1.137,0.722,1.145,0.742L389.459,296.255L389.459,296.255z M388.344,295.194c-0.793,0.198-0.996,0.664-1,0.668
					l0.035,0.324l1.963-0.057l0.025-0.296h-0.002C389.36,295.834,389.145,295.387,388.344,295.194L388.344,295.194z"/>
			</g>
			<path clip-path="url(#SVGID_4_)" fill="#FFFFFF" d="M387.317,296.721l-0.031-0.353c0,0,0.203-0.497,1.074-0.706
				c0.867,0.209,1.07,0.706,1.07,0.706l-0.029,0.353H387.317z"/>
			<g clip-path="url(#SVGID_4_)">
				<path fill="#BA2025" d="M389.459,296.783h-2.143l-0.094-0.409c0.014-0.052,0.23-0.56,1.121-0.772
					c0.918,0.213,1.137,0.721,1.145,0.742L389.459,296.783L389.459,296.783z M388.344,295.725c-0.793,0.197-0.996,0.662-1,0.668
					l0.035,0.322l1.963-0.056l0.025-0.295h-0.002C389.36,296.364,389.145,295.916,388.344,295.725L388.344,295.725z"/>
			</g>
			<path clip-path="url(#SVGID_4_)" fill="#FFFFFF" d="M387.344,298.309l-0.594-0.866c0.197-0.225,0.564,0.16,0.564,0.16
				s0.197-0.994,1.045-1.412c0.844,0.418,1.041,1.412,1.041,1.412s0.367-0.385,0.564-0.16l-0.592,0.866H387.344z"/>
			<g clip-path="url(#SVGID_4_)">
				<path fill="#BA2025" d="M389.407,298.371h-2.062l-0.646-0.894c0.16-0.382,0.443-0.107,0.582,0.007
					c0.078-0.273,0.342-1,1.051-1.35c0.754,0.35,1.029,1.077,1.107,1.35c0.137-0.114,0.428-0.253,0.574-0.083L389.407,298.371
					L389.407,298.371z M386.905,297.436c-0.045,0-0.076,0.016-0.105,0.048l0.598,0.79l1.943-0.027l0.564-0.826
					c-0.023,0.026-0.053,0.016-0.092,0.016c-0.135,0-0.309,0.151-0.365,0.211l-0.084,0.087l-0.023-0.118
					c-0.002-0.01-0.203-0.969-1.01-1.368c-0.752,0.399-0.951,1.358-0.955,1.368l-0.021,0.119l-0.084-0.088
					C387.213,297.587,387.038,297.436,386.905,297.436L386.905,297.436z"/>
			</g>
			<path clip-path="url(#SVGID_4_)" fill="#FFFFFF" d="M387.344,299.365l-0.594-0.865c0.197-0.224,0.564,0.161,0.564,0.161
				s0.197-0.994,1.045-1.412c0.844,0.418,1.041,1.412,1.041,1.412s0.367-0.385,0.564-0.161l-0.592,0.865H387.344z"/>
			<g clip-path="url(#SVGID_4_)">
				<path fill="#BA2025" d="M389.407,299.43h-2.062l-0.646-0.894c0.162-0.384,0.443-0.109,0.582,0.007
					c0.076-0.274,0.342-1.001,1.051-1.35c0.754,0.35,1.029,1.075,1.107,1.35c0.137-0.113,0.428-0.253,0.574-0.084L389.407,299.43
					L389.407,299.43z M386.905,298.493c-0.043,0-0.076,0.016-0.105,0.049l0.598,0.788l1.943-0.027l0.564-0.825
					c-0.023,0.027-0.055,0.016-0.092,0.016c-0.135,0-0.309,0.152-0.365,0.21l-0.084,0.089l-0.023-0.12
					c-0.002-0.008-0.203-0.969-1.01-1.366c-0.752,0.399-0.951,1.358-0.955,1.366l-0.021,0.12l-0.084-0.089
					C387.213,298.646,387.038,298.493,386.905,298.493L386.905,298.493z"/>
			</g>
			<path clip-path="url(#SVGID_4_)" fill="#FFFFFF" d="M387.317,300.952l-0.031-0.881c0,0,0.203-1.243,1.074-1.763
				c0.867,0.52,1.07,1.763,1.07,1.763l-0.029,0.881H387.317z"/>
			<g clip-path="url(#SVGID_4_)">
				<path fill="#BA2025" d="M389.463,301.017h-2.146l-0.094-0.943c0.012-0.064,0.219-1.29,1.104-1.818
					c0.947,0.528,1.156,1.754,1.166,1.807L389.463,301.017L389.463,301.017z M388.327,298.362c-0.77,0.499-0.977,1.706-0.979,1.72
					l0.031,0.869l1.959-0.06l0.027-0.823C389.366,300.068,389.159,298.861,388.327,298.362L388.327,298.362z"/>
			</g>
			<path clip-path="url(#SVGID_4_)" fill="#FFFFFF" d="M387.344,300.952l-0.594-0.649c0.197-0.167,0.564,0.121,0.564,0.121
				s0.197-0.746,1.045-1.059c0.844,0.312,1.041,1.059,1.041,1.059s0.367-0.288,0.564-0.121l-0.592,0.649H387.344z"/>
			<g clip-path="url(#SVGID_4_)">
				<path fill="#BA2025" d="M389.401,301.017h-2.057l-0.639-0.671c0.059-0.135,0.123-0.157,0.199-0.157
					c0.141,0,0.291,0.081,0.377,0.136c0.08-0.21,0.35-0.756,1.055-1.019c0.742,0.263,1.018,0.809,1.098,1.019
					c0.133-0.085,0.418-0.195,0.572-0.069L389.401,301.017L389.401,301.017z M386.905,300.314c-0.047,0-0.082,0.013-0.113,0.037
					l0.598,0.56l1.955-0.021l0.527-0.576c-0.016,0.004-0.037,0.001-0.059,0.001c-0.166,0-0.369,0.158-0.371,0.159l-0.076,0.06
					l-0.023-0.092c-0.004-0.008-0.203-0.719-1.006-1.016c-0.76,0.297-0.959,1.008-0.961,1.016l-0.025,0.092l-0.074-0.06
					C387.274,300.473,387.071,300.314,386.905,300.314L386.905,300.314z"/>
			</g>
			<path clip-path="url(#SVGID_4_)" fill="#FFFFFF" d="M397.223,299.535h7.271c0.359,0,0.65,0.291,0.65,0.65
				c0,0.357-0.291,0.648-0.65,0.648h-7.271c-0.359,0-0.65-0.291-0.65-0.648C396.573,299.826,396.864,299.535,397.223,299.535
				L397.223,299.535z"/>
			<g clip-path="url(#SVGID_4_)">
				<path fill="#BA2025" d="M404.494,300.898h-7.271c-0.393,0-0.715-0.319-0.715-0.713s0.322-0.713,0.715-0.713h7.271
					c0.393,0,0.713,0.319,0.713,0.713S404.887,300.898,404.494,300.898L404.494,300.898z M397.223,299.599
					c-0.324,0-0.586,0.263-0.586,0.587c0,0.323,0.262,0.586,0.586,0.586h7.271c0.324,0,0.586-0.263,0.586-0.586
					c0-0.324-0.262-0.587-0.586-0.587H397.223L397.223,299.599z"/>
			</g>
			<path clip-path="url(#SVGID_4_)" fill="#FFFFFF" d="M405.268,300.299l0.055-4.286c0,0-0.166,1.052-0.66,1.052h-7.607
				c-0.494,0-0.66-1.052-0.66-1.052l0.055,4.286H405.268z"/>
			<g clip-path="url(#SVGID_4_)">
				<path fill="#BA2025" d="M405.33,300.363h-8.88l-0.119-4.349l0.125-0.012c0.045,0.277,0.238,0.999,0.6,0.999h7.607
					c0.361,0,0.555-0.722,0.598-0.999l0.125,0.012L405.33,300.363L405.33,300.363z M396.463,296.519l0.049,3.779l8.693-0.062
					l0.047-3.718c-0.107,0.294-0.293,0.609-0.59,0.609h-7.607C396.758,297.128,396.573,296.812,396.463,296.519L396.463,296.519z"/>
			</g>
			<path clip-path="url(#SVGID_4_)" fill="#FFFFFF" d="M403.582,298.354l0.016-1.399c0,0,0.951-0.258,0.818-0.624
				c-0.129-0.366-1.273,0.463-1.273,0.463h-4.568c0,0-1.145-0.829-1.275-0.463s0.818,0.624,0.818,0.624l0.016,1.399H403.582z"/>
			<g clip-path="url(#SVGID_4_)">
				<path fill="#BA2025" d="M403.645,298.417h-5.511l-0.078-1.458c-0.02,0.04-0.646-0.137-0.797-0.426
					c-0.039-0.074-0.045-0.149-0.018-0.224c0.018-0.05,0.07-0.135,0.217-0.135c0.365,0,1.121,0.544,1.154,0.568l4.531-0.013
					c-0.006-0.012,0.75-0.556,1.115-0.556c0.148,0,0.201,0.085,0.217,0.135c0.029,0.074,0.021,0.149-0.016,0.224
					c-0.152,0.292-0.814,0.475-0.844,0.482l0.029,1.339V298.417L403.645,298.417z M397.458,296.3c-0.07,0-0.09,0.027-0.1,0.053
					c-0.014,0.04-0.012,0.079,0.012,0.122c0.105,0.203,0.588,0.371,0.764,0.419l0.062,1.459l5.324-0.061l0.016-1.339
					c0.225-0.107,0.705-0.275,0.812-0.479c0.021-0.043,0.023-0.081,0.01-0.122c-0.008-0.025-0.029-0.053-0.1-0.053
					c-0.27,0-0.869,0.394-1.078,0.546l-4.605,0.011C398.329,296.693,397.727,296.3,397.458,296.3L397.458,296.3z"/>
			</g>
			<path clip-path="url(#SVGID_4_)" fill="#FFFFFF" d="M404.127,299.563l0.02-1.482c0,0,1.141-0.175,0.982-0.541
				s-1.531,0.462-1.531,0.462h-5.48c0,0-1.371-0.828-1.529-0.462s0.98,0.541,0.98,0.541l0.02,1.482H404.127z"/>
			<g clip-path="url(#SVGID_4_)">
				<path fill="#BA2025" d="M404.189,299.627h-6.601l-0.082-1.546c-0.029,0.042-0.811-0.076-0.967-0.36
					c-0.037-0.065-0.039-0.137-0.01-0.205c0.025-0.06,0.09-0.132,0.248-0.132c0.432,0,1.332,0.541,1.371,0.564l5.449-0.009
					c0.008-0.015,0.908-0.556,1.34-0.556c0.16,0,0.225,0.072,0.25,0.132c0.029,0.068,0.025,0.14-0.01,0.205
					c-0.156,0.282-0.934,0.409-1.021,0.423l0.035,1.421L404.189,299.627L404.189,299.627z M396.778,297.511
					c-0.107,0-0.127,0.041-0.133,0.055c0.113,0.289,0.713,0.419,0.934,0.453l0.074,1.543l6.412-0.061l0.02-1.421
					c0.275-0.096,0.875-0.226,0.982-0.421c-0.004-0.501-1.424,0.39-1.436,0.398l-5.513,0.008
					C398.077,298.05,397.174,297.511,396.778,297.511L396.778,297.511z"/>
			</g>
			<path clip-path="url(#SVGID_4_)" fill="#FFFFFF" d="M401.654,292.006l0.006-0.59c-0.669,0-0.504-0.642-0.504-0.887
				c0.197-0.244,0.254-0.726-0.296-0.973c-0.537,0.277-0.496,0.723-0.299,0.953c0.004,0.27,0.221,0.906-0.514,0.906l0.006,0.59
				H401.654z"/>
			<g clip-path="url(#SVGID_4_)">
				<path fill="#BA2025" d="M401.717,292.069h-1.664l-0.07-0.651c0.25-0.064,0.381-0.107,0.457-0.192
					c0.121-0.136,0.096-0.366,0.072-0.551c-0.008-0.062-0.014-0.12-0.014-0.165c-0.107-0.103-0.16-0.296-0.125-0.478
					c0.029-0.15,0.133-0.365,0.457-0.532c0.369,0.141,0.476,0.345,0.511,0.492c0.047,0.193-0.006,0.415-0.135,0.577
					c0-0.003,0.01,0.041,0.006,0.094c-0.016,0.182-0.035,0.431,0.096,0.571c0.072,0.078,0.189,0.119,0.352,0.119l0.059,0.653
					L401.717,292.069L401.717,292.069z M400.833,289.613c-0.166,0.113-0.301,0.268-0.334,0.443
					c-0.029,0.144,0.012,0.298,0.109,0.412c0.018,0.082,0.023,0.135,0.031,0.19c0.021,0.2,0.053,0.473-0.105,0.65
					c-0.102,0.112-0.264,0.171-0.486,0.171l0.07,0.523l1.474-0.058l0.006-0.531c-0.135,0.063-0.283,0.01-0.383-0.096
					c-0.166-0.182-0.143-0.473-0.127-0.666l0.006-0.124c0.098-0.144,0.17-0.319,0.125-0.508
					C401.178,289.851,401.045,289.71,400.833,289.613L400.833,289.613z"/>
			</g>
			<path clip-path="url(#SVGID_4_)" fill="#FFFFFF" d="M402.787,295.853l0.012-1.13c0,0,0.672-0.226,0.58-0.525
				c-0.094-0.3-0.902,0.378-0.902,0.378h-3.238c0,0-0.809-0.678-0.902-0.378c-0.092,0.3,0.58,0.525,0.58,0.525l0.012,1.13H402.787z"
				/>
			<g clip-path="url(#SVGID_4_)">
				<path fill="#BA2025" d="M402.85,295.916h-3.921l-0.076-1.193c-0.025,0.036-0.684-0.195-0.576-0.544
					c0.025-0.078,0.086-0.12,0.172-0.12c0.264,0,0.775,0.42,0.832,0.469l3.197-0.015c0.018-0.034,0.527-0.454,0.789-0.454
					c0.088,0,0.148,0.042,0.172,0.12c0.109,0.349-0.543,0.578-0.617,0.604l0.029,1.07V295.916L402.85,295.916z M398.448,294.185
					c-0.111,0.229,0.33,0.425,0.488,0.479l0.057,1.189l3.732-0.062l0.012-1.068c0.201-0.112,0.643-0.309,0.58-0.504
					c-0.232-0.052-0.654,0.284-0.801,0.406l-3.277,0.016C399.053,294.502,398.633,294.185,398.448,294.185L398.448,294.185z"/>
			</g>
			<path clip-path="url(#SVGID_4_)" fill="#FFFFFF" d="M403.174,296.843l0.014-1.213c0,0,0.807-0.143,0.695-0.443
				c-0.111-0.3-1.082,0.379-1.082,0.379h-3.884c0,0-0.971-0.679-1.082-0.379c-0.113,0.301,0.695,0.443,0.695,0.443l0.014,1.213
				H403.174z"/>
			<g clip-path="url(#SVGID_4_)">
				<path fill="#BA2025" d="M403.236,296.905h-4.693l-0.078-1.274c-0.008,0.047-0.545-0.051-0.676-0.278
					c-0.033-0.059-0.039-0.125-0.016-0.188c0.018-0.044,0.062-0.118,0.193-0.118c0.314,0,0.959,0.447,0.984,0.468l3.849-0.013
					c-0.01-0.008,0.635-0.455,0.949-0.455c0.129,0,0.176,0.074,0.191,0.118c0.023,0.063,0.02,0.129-0.016,0.188
					c-0.129,0.228-0.666,0.328-0.727,0.34l0.037,1.15V296.905L403.236,296.905z M397.967,295.174l-0.068,0.116
					c0.076,0.135,0.434,0.241,0.641,0.277l0.068,1.273l4.503-0.061l0.014-1.152c0.201-0.087,0.605-0.188,0.691-0.338l-0.066-0.116
					c-0.23,0-0.736,0.319-0.912,0.443l-3.921,0.011C398.704,295.493,398.196,295.174,397.967,295.174L397.967,295.174z"/>
			</g>
			<path clip-path="url(#SVGID_4_)" fill="#FFFFFF" d="M402.107,294.054l0.006-0.739c0,0,0.438-0.181,0.375-0.384
				c-0.059-0.205-0.584,0.257-0.584,0.257h-2.093c0,0-0.523-0.462-0.584-0.257c-0.061,0.203,0.375,0.384,0.375,0.384l0.008,0.739
				H402.107z"/>
			<g clip-path="url(#SVGID_4_)">
				<path fill="#BA2025" d="M402.17,294.116h-2.56l-0.07-0.801c-0.014,0.035-0.447-0.15-0.373-0.403l0.014-0.044l0.121-0.053
					c0.174,0,0.488,0.27,0.551,0.325l2.052-0.017c0.021-0.039,0.336-0.309,0.512-0.309h0.047l0.088,0.097
					c0.074,0.251-0.363,0.438-0.412,0.46l0.033,0.682L402.17,294.116L402.17,294.116z M399.301,292.941
					c-0.047,0.12,0.199,0.264,0.324,0.314l0.047,0.797l2.373-0.06l0.006-0.681c0.164-0.107,0.412-0.251,0.379-0.363
					c-0.062,0.013-0.344,0.163-0.482,0.285l-2.136,0.018C399.631,293.112,399.395,292.941,399.301,292.941L399.301,292.941z"/>
			</g>
			<path clip-path="url(#SVGID_4_)" fill="#FFFFFF" d="M402.357,294.726l0.008-0.741c0,0,0.523-0.179,0.451-0.382
				s-0.701,0.257-0.701,0.257h-2.513c0,0-0.629-0.46-0.701-0.257s0.451,0.382,0.451,0.382l0.008,0.741H402.357z"/>
			<g clip-path="url(#SVGID_4_)">
				<path fill="#BA2025" d="M402.42,294.788h-3.06l-0.072-0.802c0.004,0.044-0.35-0.083-0.436-0.261l-0.01-0.022v-0.122
					c0.012-0.035,0.047-0.094,0.146-0.094c0.207,0,0.604,0.288,0.65,0.322l2.476-0.014c0.008-0.021,0.406-0.309,0.613-0.309h0.045
					l0.102,0.094c0.016,0.047,0.014,0.097-0.012,0.145c-0.086,0.181-0.438,0.306-0.479,0.318l0.035,0.684V294.788L402.42,294.788z
					 M398.989,293.612c0.025,0.159,0.252,0.269,0.383,0.313l0.053,0.799l2.871-0.06l0.006-0.681
					c0.176-0.104,0.402-0.213,0.449-0.312c-0.145-0.061-0.441,0.124-0.598,0.237l-2.55,0.015
					C399.407,293.796,399.114,293.612,398.989,293.612L398.989,293.612z"/>
			</g>
			<path clip-path="url(#SVGID_4_)" fill="#FFFFFF" d="M401.742,292.747l0.006-0.673c0,0,0.309-0.162,0.266-0.328
				c-0.043-0.168-0.416,0.21-0.416,0.21h-1.482c0,0-0.371-0.378-0.414-0.21c-0.041,0.166,0.266,0.328,0.266,0.328l0.006,0.589
				L401.742,292.747z"/>
			<g clip-path="url(#SVGID_4_)">
				<path fill="#BA2025" d="M401.805,292.813l-1.835-0.086l-0.064-0.652c0,0.035-0.316-0.141-0.264-0.345l0.012-0.049l0.102-0.043
					c0.131,0,0.344,0.209,0.406,0.273l1.437-0.021c0.02-0.044,0.234-0.253,0.365-0.253h0.047l0.064,0.09
					c0.053,0.209-0.262,0.382-0.297,0.4l0.027,0.619V292.813L401.805,292.813z M399.754,291.766
					c-0.014,0.084,0.16,0.209,0.242,0.253l0.039,0.645l1.644,0.021l0.004-0.61c0.121-0.102,0.291-0.225,0.27-0.314
					c-0.043,0.006-0.199,0.128-0.309,0.24l-1.529,0.019C399.959,291.888,399.805,291.766,399.754,291.766L399.754,291.766z"/>
			</g>
			<path clip-path="url(#SVGID_4_)" fill="#FFFFFF" d="M401.92,293.215l0.006-0.592c0,0,0.371-0.161,0.318-0.329
				c-0.051-0.166-0.496,0.21-0.496,0.21h-1.781c0,0-0.443-0.376-0.494-0.21c-0.053,0.168,0.316,0.329,0.316,0.329l0.008,0.592
				H401.92z"/>
			<g clip-path="url(#SVGID_4_)">
				<path fill="#BA2025" d="M401.98,293.278h-2.183l-0.07-0.653c-0.031,0.013-0.379-0.14-0.316-0.348l0.016-0.046l0.107-0.043
					c0.152,0,0.422,0.224,0.475,0.268l1.74-0.015c0.012-0.029,0.283-0.253,0.436-0.253h0.045l0.078,0.089
					c0.062,0.208-0.285,0.373-0.355,0.403l0.031,0.535L401.98,293.278L401.98,293.278z M399.534,292.315
					c-0.025,0.072,0.148,0.193,0.283,0.251l0.043,0.646l1.998-0.06l0.006-0.531c0.172-0.115,0.344-0.234,0.32-0.31
					c-0.078,0.003-0.279,0.142-0.396,0.24l-1.82,0.016C399.811,292.454,399.612,292.315,399.534,292.315L399.534,292.315z"/>
			</g>
			<path clip-path="url(#SVGID_4_)" fill="#FFFFFF" d="M400.295,293.244l-0.328-0.37c0.109-0.097,0.312,0.069,0.312,0.069
				s0.109-0.428,0.578-0.605c0.47,0.178,0.58,0.605,0.58,0.605s0.203-0.166,0.312-0.069l-0.328,0.37H400.295z"/>
			<g clip-path="url(#SVGID_4_)">
				<path fill="#BA2025" d="M401.449,293.309h-1.154l-0.469-0.499l0.225-0.028c0.07,0,0.145,0.032,0.195,0.062
					c0.059-0.14,0.219-0.425,0.59-0.565c0.404,0.141,0.572,0.426,0.632,0.566c0.053-0.031,0.125-0.063,0.197-0.063l0.125,0.044
					L401.449,293.309L401.449,293.309z M400.051,292.906l0.291,0.297l1.05-0.021l0.311-0.351c-0.105,0.075-0.195,0.137-0.225,0.16
					l-0.078,0.062l-0.023-0.094c-0.004-0.016-0.109-0.398-0.541-0.562c-0.387,0.163-0.492,0.546-0.496,0.562l-0.025,0.094
					l-0.076-0.062C400.209,292.968,400.12,292.906,400.051,292.906L400.051,292.906z"/>
			</g>
			<path clip-path="url(#SVGID_4_)" fill="#FFFFFF" d="M400.069,293.85l-0.461-0.371c0.154-0.097,0.439,0.068,0.439,0.068
				s0.154-0.426,0.811-0.604c0.658,0.178,0.812,0.604,0.812,0.604s0.285-0.165,0.439-0.068l-0.463,0.371H400.069z"/>
			<g clip-path="url(#SVGID_4_)">
				<path fill="#BA2025" d="M401.67,293.913h-1.601l-0.5-0.386c0.049-0.128,0.1-0.143,0.158-0.143c0.137,0,0.283,0.071,0.334,0.099
					c-0.025-0.067,0.172-0.437,0.781-0.602c0.599,0.155,0.812,0.492,0.871,0.606c0.035-0.067,0.303-0.142,0.428-0.063
					L401.67,293.913L401.67,293.913z M399.752,293.513l0.355,0.287l1.517-0.013l0.34-0.274c-0.123,0.01-0.264,0.088-0.264,0.09
					c-0.098-0.05-0.244-0.432-0.859-0.6c-0.582,0.168-0.729,0.55-0.734,0.565C400.022,293.598,399.875,293.521,399.752,293.513
					L399.752,293.513z"/>
			</g>
			<path clip-path="url(#SVGID_4_)" fill="#FFFFFF" d="M399.956,294.906l-0.525-0.494c0.176-0.128,0.502,0.091,0.502,0.091
				s0.176-0.566,0.926-0.806c0.751,0.239,0.927,0.806,0.927,0.806s0.326-0.219,0.502-0.091l-0.527,0.494H399.956z"/>
			<g clip-path="url(#SVGID_4_)">
				<path fill="#BA2025" d="M401.785,294.971h-1.83l-0.568-0.512c0.053-0.132,0.111-0.149,0.18-0.149
					c0.158,0,0.328,0.097,0.381,0.131c-0.031-0.079,0.188-0.579,0.891-0.803c0.695,0.21,0.931,0.662,0.99,0.804
					c0.043-0.08,0.35-0.188,0.496-0.08L401.785,294.971L401.785,294.971z M399.567,294.435c-0.043,0-0.074,0.01-0.1,0.028
					l0.531,0.398l1.736-0.016l0.438-0.411c-0.109,0.007-0.299,0.085-0.352,0.121c-0.098-0.038-0.273-0.574-0.982-0.799
					c-0.668,0.225-0.846,0.761-0.848,0.766C399.895,294.556,399.713,294.435,399.567,294.435L399.567,294.435z"/>
			</g>
			<path clip-path="url(#SVGID_4_)" fill="#FFFFFF" d="M399.731,296.206l-0.658-0.618c0.219-0.16,0.627,0.115,0.627,0.115
				s0.219-0.71,1.158-1.009c0.939,0.299,1.16,1.009,1.16,1.009s0.406-0.275,0.627-0.115l-0.658,0.618H399.731z"/>
			<g clip-path="url(#SVGID_4_)">
				<path fill="#BA2025" d="M402.012,296.269h-2.281l-0.701-0.634c0.062-0.139,0.133-0.16,0.213-0.16
					c0.203,0,0.422,0.132,0.479,0.168c-0.039-0.08,0.221-0.724,1.117-1.008c0.88,0.269,1.166,0.855,1.226,1.012
					c0.041-0.091,0.43-0.247,0.617-0.107L402.012,296.269L402.012,296.269z M399.243,295.602c-0.053,0-0.098,0.013-0.133,0.036
					l0.664,0.521l2.187-0.016l0.578-0.544c-0.02,0.006-0.041,0.002-0.066,0.002c-0.189,0-0.418,0.151-0.42,0.154
					c-0.098-0.041-0.32-0.718-1.214-1.002c-0.855,0.284-1.076,0.961-1.08,0.968C399.661,295.749,399.43,295.602,399.243,295.602
					L399.243,295.602z"/>
			</g>
			<polygon clip-path="url(#SVGID_4_)" fill="#FFFFFF" points="399.569,297.276 400.823,298.837 402.148,297.276 			"/>
			<g clip-path="url(#SVGID_4_)">
				<path fill="#BA2025" d="M400.821,298.936l-1.385-1.724h2.849L400.821,298.936L400.821,298.936z M399.702,297.34l1.121,1.397
					l1.189-1.397H399.702L399.702,297.34z"/>
			</g>
			<path clip-path="url(#SVGID_4_)" fill="#FFFFFF" d="M399.504,297.449l-0.789-0.689c0.264-0.179,0.752,0.128,0.752,0.128
				s0.264-0.791,1.391-1.123c1.128,0.332,1.392,1.123,1.392,1.123s0.488-0.307,0.75-0.128l-0.787,0.689H399.504z"/>
			<g clip-path="url(#SVGID_4_)">
				<path fill="#BA2025" d="M402.236,297.512h-2.732l-0.83-0.705c0.07-0.143,0.152-0.166,0.246-0.166
					c0.244,0,0.516,0.153,0.572,0.188c-0.045-0.072,0.26-0.804,1.348-1.125c1.068,0.306,1.396,0.981,1.457,1.135
					c0.035-0.095,0.516-0.282,0.738-0.13L402.236,297.512L402.236,297.512z M398.92,296.766c-0.068,0-0.125,0.016-0.17,0.046
					l0.795,0.591l2.642-0.016l0.713-0.624c-0.029,0.008-0.062,0.003-0.104,0.003c-0.234,0-0.512,0.174-0.516,0.175
					c-0.094-0.041-0.361-0.798-1.441-1.115c-1.043,0.317-1.311,1.074-1.312,1.083C399.426,296.943,399.151,296.766,398.92,296.766
					L398.92,296.766z"/>
			</g>
			<polygon clip-path="url(#SVGID_4_)" fill="#FFFFFF" points="399.461,298.992 400.819,300.952 402.256,298.992 			"/>
			<g clip-path="url(#SVGID_4_)">
				<path fill="#BA2025" d="M400.817,301.062l-1.477-2.132h3.041L400.817,301.062L400.817,301.062z M399.583,299.056l1.236,1.789
					l1.312-1.789H399.583L399.583,299.056z"/>
			</g>
			<path clip-path="url(#SVGID_4_)" fill="#FFFFFF" d="M399.393,299.212l-0.855-0.866c0.283-0.225,0.814,0.16,0.814,0.16
				s0.285-0.994,1.506-1.41c1.222,0.416,1.507,1.41,1.507,1.41s0.529-0.385,0.814-0.16l-0.855,0.866H399.393z"/>
			<g clip-path="url(#SVGID_4_)">
				<path fill="#BA2025" d="M402.35,299.274h-2.957l-0.9-0.885c0.076-0.149,0.162-0.178,0.266-0.178
					c0.215,0,0.447,0.127,0.559,0.196c0.098-0.25,0.473-1.015,1.521-1.372c1.083,0.357,1.462,1.122,1.56,1.372
					c0.168-0.104,0.602-0.284,0.82-0.112L402.35,299.274L402.35,299.274z M398.758,298.339c-0.072,0-0.135,0.019-0.182,0.057
					l0.861,0.772l2.861-0.019l0.816-0.828c-0.041,0.031-0.092,0.018-0.158,0.018c-0.25,0-0.551,0.216-0.555,0.219l-0.072,0.052
					l-0.023-0.086c-0.006-0.009-0.295-0.968-1.468-1.368c-1.133,0.4-1.424,1.359-1.428,1.368l-0.023,0.086l-0.072-0.052
					C399.311,298.555,399.008,298.339,398.758,298.339L398.758,298.339z"/>
			</g>
			<path clip-path="url(#SVGID_4_)" fill="#FFFFFF" d="M399.393,300.952l-0.855-0.865c0.283-0.224,0.814,0.161,0.814,0.161
				s0.285-0.993,1.506-1.411c1.222,0.418,1.507,1.411,1.507,1.411s0.529-0.385,0.814-0.161l-0.855,0.865H399.393z"/>
			<g clip-path="url(#SVGID_4_)">
				<path fill="#BA2025" d="M402.35,301.017h-2.957l-0.9-0.886c0.076-0.148,0.164-0.176,0.266-0.176
					c0.215,0,0.447,0.124,0.559,0.194c0.098-0.25,0.473-1.014,1.521-1.372c1.083,0.358,1.462,1.122,1.56,1.372
					c0.166-0.104,0.602-0.284,0.82-0.112L402.35,301.017L402.35,301.017z M398.758,300.08c-0.072,0-0.135,0.02-0.182,0.057
					l0.861,0.771l2.861-0.019l0.816-0.828c-0.041,0.033-0.096,0.019-0.158,0.019c-0.25,0-0.551,0.218-0.555,0.219l-0.072,0.053
					l-0.023-0.087c-0.006-0.01-0.295-0.967-1.468-1.369c-1.137,0.403-1.424,1.359-1.428,1.369l-0.023,0.087l-0.072-0.053
					C399.311,300.298,399.01,300.08,398.758,300.08L398.758,300.08z"/>
			</g>
			<rect x="392.12" y="303.364" clip-path="url(#SVGID_4_)" fill="#FFFFFF" width="0.629" height="2.72"/>
			<g clip-path="url(#SVGID_4_)">
				<path fill="#BA2025" d="M392.813,306.147h-0.693l-0.064-2.783l0.693-0.063L392.813,306.147L392.813,306.147z M392.686,303.364
					l-0.566,0.062l0.062,2.657l0.504-0.056V303.364L392.686,303.364z"/>
			</g>
			<rect x="394.262" y="303.363" clip-path="url(#SVGID_4_)" fill="#FFFFFF" width="0.629" height="2.721"/>
			<g clip-path="url(#SVGID_4_)">
				<path fill="#BA2025" d="M394.956,306.146h-0.693l-0.064-2.783l0.693-0.064L394.956,306.146L394.956,306.146z M394.829,303.363
					l-0.566,0.062l0.062,2.658l0.504-0.058V303.363L394.829,303.363z"/>
			</g>
			<rect x="393.252" y="303.363" clip-path="url(#SVGID_4_)" fill="#FFFFFF" width="0.631" height="2.721"/>
			<g clip-path="url(#SVGID_4_)">
				<path fill="#BA2025" d="M393.946,306.146h-0.693l-0.062-2.783l0.693-0.064L393.946,306.146L393.946,306.146z M393.821,303.363
					l-0.568,0.062l0.064,2.658l0.504-0.058V303.363L393.821,303.363z"/>
			</g>
			<rect x="404.697" y="303.363" clip-path="url(#SVGID_4_)" fill="#FFFFFF" width="0.631" height="2.721"/>
			<g clip-path="url(#SVGID_4_)">
				<path fill="#BA2025" d="M405.391,306.147h-0.693l-0.062-2.784l0.693-0.064L405.391,306.147L405.391,306.147z M405.264,303.363
					l-0.566,0.062l0.062,2.658l0.504-0.056V303.363L405.264,303.363z"/>
			</g>
			<rect x="408.98" y="303.363" clip-path="url(#SVGID_4_)" fill="#FFFFFF" width="0.631" height="2.721"/>
			<g clip-path="url(#SVGID_4_)">
				<path fill="#BA2025" d="M409.674,306.146h-0.693l-0.062-2.783l0.693-0.064L409.674,306.146L409.674,306.146z M409.549,303.363
					l-0.568,0.062l0.062,2.658l0.506-0.058V303.363L409.549,303.363z"/>
			</g>
			<rect x="406.84" y="303.363" clip-path="url(#SVGID_4_)" fill="#FFFFFF" width="0.629" height="2.721"/>
			<g clip-path="url(#SVGID_4_)">
				<path fill="#BA2025" d="M407.533,306.146h-0.693l-0.062-2.783l0.691-0.064L407.533,306.146L407.533,306.146z M407.406,303.363
					l-0.566,0.062l0.062,2.658l0.504-0.058V303.363L407.406,303.363z"/>
			</g>
			<rect x="405.832" y="303.363" clip-path="url(#SVGID_4_)" fill="#FFFFFF" width="0.629" height="2.721"/>
			<g clip-path="url(#SVGID_4_)">
				<path fill="#BA2025" d="M406.525,306.146h-0.693l-0.064-2.783l0.693-0.064L406.525,306.146L406.525,306.146z M406.396,303.363
					l-0.564,0.062l0.062,2.658l0.502-0.058V303.363L406.396,303.363z"/>
			</g>
			<rect x="407.846" y="303.363" clip-path="url(#SVGID_4_)" fill="#FFFFFF" width="0.631" height="2.721"/>
			<g clip-path="url(#SVGID_4_)">
				<path fill="#BA2025" d="M408.541,306.146h-0.695l-0.062-2.783l0.693-0.064L408.541,306.146L408.541,306.146z M408.412,303.363
					l-0.566,0.062l0.064,2.658l0.502-0.058V303.363L408.412,303.363z"/>
			</g>
			<rect x="396.403" y="303.363" clip-path="url(#SVGID_4_)" fill="#FFFFFF" width="0.631" height="2.721"/>
			<g clip-path="url(#SVGID_4_)">
				<path fill="#BA2025" d="M397.096,306.147h-0.693l-0.062-2.784l0.693-0.064L397.096,306.147L397.096,306.147z M396.969,303.363
					l-0.566,0.062l0.064,2.658l0.502-0.056V303.363L396.969,303.363z"/>
			</g>
			<rect x="395.268" y="303.363" clip-path="url(#SVGID_4_)" fill="#FFFFFF" width="0.631" height="2.721"/>
			<g clip-path="url(#SVGID_4_)">
				<path fill="#BA2025" d="M395.961,306.146h-0.693l-0.062-2.783l0.693-0.064L395.961,306.146L395.961,306.146z M395.836,303.363
					l-0.568,0.062l0.062,2.658l0.506-0.058V303.363L395.836,303.363z"/>
			</g>
			<rect x="400.202" y="290.938" clip-path="url(#SVGID_4_)" fill="#FFFFFF" width="1.306" height="0.497"/>
			<g clip-path="url(#SVGID_4_)">
				<path fill="#BA2025" d="M401.572,291.498h-1.371l-0.064-0.56l1.371-0.062L401.572,291.498L401.572,291.498z M401.445,290.938
					l-1.244,0.064l0.062,0.433l1.181-0.06V290.938L401.445,290.938z"/>
			</g>
			<rect x="400.374" y="290.453" clip-path="url(#SVGID_4_)" fill="#FFFFFF" width="0.962" height="0.473"/>
			<g clip-path="url(#SVGID_4_)">
				<path fill="#BA2025" d="M401.4,290.99h-1.027l-0.064-0.537l1.027-0.064L401.4,290.99L401.4,290.99z M401.273,290.453l-0.9,0.062
					l0.062,0.41l0.837-0.058V290.453L401.273,290.453z"/>
			</g>
		</g>
	</g>
</g>
</svg>
