<?xml version="1.0" encoding="utf-8"?>
<!-- Generator: Adobe Illustrator 16.0.0, SVG Export Plug-In . SVG Version: 6.00 Build 0)  -->
<!DOCTYPE svg PUBLIC "-//W3C//DTD SVG 1.1//EN" "http://www.w3.org/Graphics/SVG/1.1/DTD/svg11.dtd">
<svg version="1.1" id="name" xmlns="http://www.w3.org/2000/svg" xmlns:xlink="http://www.w3.org/1999/xlink" x="0px" y="0px"
	 width="85.716px" height="50px" viewBox="358 276 85.716 50" enable-background="new 358 276 85.716 50" xml:space="preserve">
<g id="ki">
	<g>
		<defs>
			<rect id="SVGID_1_" x="358" y="276" width="85.716" height="50"/>
		</defs>
		<clipPath id="SVGID_2_">
			<use xlink:href="#SVGID_1_"  overflow="visible"/>
		</clipPath>
		<rect x="358" y="276" clip-path="url(#SVGID_2_)" fill="#BD1F34" width="85.716" height="50"/>
		<g clip-path="url(#SVGID_2_)">
			<defs>
				<rect id="SVGID_3_" x="358" y="276" width="85.716" height="50"/>
			</defs>
			<clipPath id="SVGID_4_">
				<use xlink:href="#SVGID_3_"  overflow="visible"/>
			</clipPath>
			<path clip-path="url(#SVGID_4_)" fill="#F4D130" d="M407.914,303.327c1.252,0.335,3.146,0.253,3.994,1.244
				c-1.25-0.335-2.793,1.688-3.994,1.245c1.061,0.741-15.435,0-14.111,0c-1.252-0.336-3.146-0.253-3.996-1.245
				c1.25,0.335,2.793-1.688,3.996-1.244c-1.062-0.741-2.902-1.318-3.33-2.534c1.062,0.741,3.221-0.637,4.18,0.195
				c-0.742-1.06-2.295-2.225-2.26-3.52c0.742,1.06,3.244,0.491,3.861,1.613c-0.336-1.25-1.348-2.864-0.922-4.08
				c0.336,1.25,2.855,1.561,3.076,2.836c0.113-1.29-0.344-3.157,0.531-4.151c-0.113,1.293,2.162,2.443,1.92,3.72
				c0.546-1.174,0.849-3.072,1.917-3.72c-0.549,1.177,1.238,3.029,0.531,4.151c0.916-0.915,1.801-2.611,3.074-2.836
				c-0.914,0.915,0.062,3.248-0.92,4.08c1.176-0.548,2.561-1.838,3.861-1.613c-1.174,0.545-1.057,3.076-2.26,3.52
				c1.291-0.113,3.023-0.844,4.178-0.195C409.951,300.906,409.238,303.327,407.914,303.327L407.914,303.327z"/>
			<g clip-path="url(#SVGID_4_)">
				<path fill="#B39C31" d="M404.434,306.23c-2.561,0-9.521-0.198-10.63-0.335v0.003l-0.006-0.006c-0.006,0-0.01,0-0.016,0v0.006
					c-0.018-0.006-0.037-0.012-0.053-0.015c-0.035-0.005-0.057-0.011-0.066-0.017c-0.336-0.082-0.709-0.137-1.105-0.193
					c-1.078-0.159-2.193-0.324-2.812-1.049l-0.176-0.204l0.262,0.071c0.549,0.147,1.256-0.244,1.914-0.634
					c0.561-0.33,1.137-0.671,1.674-0.679c-0.23-0.137-0.48-0.273-0.74-0.412c-0.971-0.521-1.971-1.058-2.283-1.946l-0.088-0.247
					l0.215,0.15c0.426,0.295,1.234,0.204,2.021,0.057c0.652-0.119,1.344-0.222,1.797-0.065c-0.172-0.207-0.361-0.421-0.561-0.642
					c-0.736-0.818-1.496-1.662-1.471-2.608l0.008-0.256l0.145,0.21c0.344,0.492,1.123,0.619,1.873,0.742
					c0.643,0.104,1.303,0.213,1.719,0.554c-0.086-0.25-0.188-0.512-0.295-0.781c-0.4-1.018-0.814-2.074-0.506-2.961l0.09-0.259
					l0.07,0.265c0.156,0.577,0.84,0.963,1.5,1.333c0.568,0.32,1.152,0.65,1.43,1.116c0.004-0.268-0.006-0.554-0.018-0.85
					c-0.041-1.094-0.084-2.222,0.553-2.946l0.168-0.193l-0.021,0.256c-0.053,0.597,0.459,1.188,0.953,1.762
					c0.428,0.497,0.865,1.006,0.965,1.543c0.097-0.248,0.187-0.515,0.281-0.784c0.359-1.046,0.729-2.126,1.51-2.601l0.238-0.142
					l-0.117,0.25c-0.25,0.534,0.029,1.259,0.299,1.955c0.238,0.613,0.482,1.244,0.387,1.787c0.17-0.196,0.34-0.412,0.518-0.634
					c0.678-0.861,1.381-1.75,2.312-1.912l0.262-0.049l-0.188,0.188c-0.426,0.427-0.418,1.214-0.412,1.973
					c0.006,0.653,0.014,1.323-0.252,1.795c0.234-0.131,0.477-0.281,0.729-0.438c0.922-0.571,1.889-1.173,2.83-1.003l0.264,0.046
					l-0.24,0.113c-0.547,0.253-0.811,0.997-1.064,1.714c-0.217,0.613-0.441,1.244-0.848,1.6c0.262-0.043,0.539-0.1,0.826-0.162
					c1.1-0.225,2.281-0.384,3.008,0.022l0.24,0.134l-0.273,0.022c-0.594,0.054-1.084,0.653-1.557,1.236
					c-0.416,0.508-0.844,1.034-1.363,1.225c0.26,0.051,0.535,0.091,0.826,0.133c1.08,0.159,2.195,0.324,2.816,1.049l0.178,0.207
					l-0.262-0.07c-0.553-0.148-1.258,0.244-1.916,0.63c-0.654,0.387-1.35,0.782-1.938,0.654
					C407.988,306.049,407.74,306.23,404.434,306.23L404.434,306.23z M393.823,305.745c0.74,0.057,6.549,0.318,10.611,0.318
					c2.941,0,3.395-0.146,3.453-0.205l0.057-0.122c0.543,0.199,1.266-0.193,1.943-0.597c0.596-0.353,1.221-0.704,1.785-0.688
					c-0.607-0.531-1.588-0.677-2.541-0.818c-0.445-0.065-0.865-0.125-1.24-0.225l0.023-0.165c0.639,0,1.15-0.63,1.648-1.241
					c0.43-0.528,0.871-1.068,1.418-1.241c-0.676-0.262-1.715-0.1-2.672,0.099c-0.438,0.094-0.852,0.18-1.238,0.214l-0.035-0.162
					c0.574-0.213,0.83-0.94,1.104-1.708c0.23-0.653,0.469-1.326,0.93-1.679c-0.824,0.02-1.656,0.503-2.473,1.006
					c-0.383,0.238-0.744,0.463-1.096,0.628l-0.09-0.143c0.469-0.395,0.461-1.168,0.453-1.983c-0.006-0.692-0.012-1.403,0.299-1.889
					c-0.758,0.25-1.375,1.034-1.975,1.79c-0.281,0.354-0.547,0.69-0.818,0.963l-0.131-0.105c0.342-0.542,0.059-1.275-0.242-2.051
					c-0.244-0.634-0.496-1.282-0.379-1.836c-0.598,0.503-0.922,1.446-1.236,2.364c-0.145,0.42-0.285,0.826-0.445,1.173l-0.158-0.051
					c0.117-0.613-0.393-1.202-0.93-1.824c-0.451-0.525-0.918-1.065-0.988-1.637c-0.443,0.677-0.404,1.674-0.367,2.643
					c0.016,0.455,0.033,0.887-0.002,1.273l-0.166,0.005c-0.104-0.61-0.781-0.991-1.494-1.392c-0.6-0.336-1.215-0.685-1.482-1.193
					c-0.15,0.784,0.213,1.71,0.566,2.608c0.166,0.417,0.32,0.812,0.42,1.185l-0.154,0.062c-0.295-0.534-1.062-0.662-1.871-0.796
					c-0.689-0.11-1.396-0.227-1.82-0.622c0.096,0.79,0.766,1.534,1.416,2.259c0.307,0.338,0.594,0.659,0.818,0.978l-0.125,0.113
					c-0.395-0.344-1.201-0.258-2.023-0.107c-0.705,0.134-1.455,0.235-1.926,0.037c0.371,0.704,1.252,1.176,2.107,1.636
					c0.4,0.217,0.779,0.418,1.094,0.64l-0.076,0.147c-0.541-0.198-1.264,0.193-1.943,0.597c-0.596,0.353-1.201,0.719-1.785,0.688
					c0.605,0.531,1.586,0.677,2.539,0.815c0.445,0.065,0.865,0.128,1.24,0.228L393.823,305.745L393.823,305.745z"/>
			</g>
			<polygon clip-path="url(#SVGID_4_)" fill="#F4D130" points="394.911,304.571 390.399,302.728 395.268,302.537 391.659,299.261 
				396.303,300.747 394.03,296.435 397.885,299.42 397.227,294.59 399.827,298.713 400.858,293.948 401.891,298.713 404.492,294.59 
				403.832,299.42 407.686,296.435 405.414,300.747 410.059,299.261 406.449,302.537 411.32,302.728 406.807,304.571 
				411.32,306.415 390.399,306.415 			"/>
			<g clip-path="url(#SVGID_4_)">
				<path fill="#B39C31" d="M411.32,306.501h-20.921l-0.033-0.162l4.322-1.768l-4.322-1.767l0.029-0.162l4.664-0.18l-3.457-3.14
					l0.082-0.142l4.447,1.424l-2.176-4.132l0.125-0.104l3.693,2.858l-0.631-4.626l0.154-0.057l2.49,3.949l0.988-4.563h0.164
					l0.992,4.563l2.49-3.949l0.152,0.057l-0.631,4.626l3.691-2.858l0.127,0.104l-2.178,4.132l4.447-1.424l0.082,0.142l-3.457,3.14
					l4.666,0.18l0.029,0.162l-4.324,1.767l4.324,1.768L411.32,306.501L411.32,306.501z M390.825,306.333h20.068l-4.309-1.762
					l4.346-1.775l-4.689-0.182l3.475-3.154l-4.471,1.432l2.188-4.153l-3.711,2.872l0.635-4.647l-2.502,3.969l-0.996-4.586
					l-0.992,4.586l-2.504-3.969l0.635,4.647l-3.711-2.872l2.186,4.153L392,299.46l3.477,3.154l-4.689,0.182l4.344,1.775
					L390.825,306.333L390.825,306.333z"/>
			</g>
			<path clip-path="url(#SVGID_4_)" fill="#F4D130" d="M406.766,304.571c0,3.265-2.645,5.91-5.906,5.91
				c-3.264,0-5.91-2.646-5.91-5.91c0-3.262,2.646-5.909,5.91-5.909C404.121,298.662,406.766,301.31,406.766,304.571L406.766,304.571
				z"/>
			<g clip-path="url(#SVGID_4_)">
				<path fill="#B39C31" d="M400.86,310.563c-3.305,0-5.994-2.688-5.994-5.992c0-3.304,2.689-5.992,5.994-5.992
					c3.304,0,5.992,2.688,5.992,5.992C406.852,307.876,404.164,310.563,400.86,310.563L400.86,310.563z M400.86,298.747
					c-3.213,0-5.826,2.614-5.826,5.824c0,3.211,2.613,5.825,5.826,5.825c3.21,0,5.824-2.614,5.824-5.825
					C406.684,301.361,404.07,298.747,400.86,298.747L400.86,298.747z"/>
			</g>
			<rect x="358" y="306.529" clip-path="url(#SVGID_4_)" fill="#224084" width="85.716" height="19.471"/>
			<path clip-path="url(#SVGID_4_)" fill="#FFFFFF" d="M358,307.632c2.855,0,5.713,1.838,8.572,1.838
				c2.855,0,5.713-1.838,8.572-1.838c2.855,0,5.713,1.838,8.57,1.838s5.715-1.838,8.572-1.838c2.855,0,5.715,1.838,8.57,1.838
				c2.857,0,5.716-1.838,8.57-1.838c2.859,0,5.717,1.838,8.572,1.838c2.859,0,5.717-1.838,8.572-1.838
				c2.859,0,5.717,1.838,8.572,1.838c2.859,0,5.715-1.838,8.572-1.838v-3.061c-2.857,0-5.713,1.839-8.572,1.839
				c-2.855,0-5.713-1.839-8.572-1.839c-2.855,0-5.713,1.839-8.572,1.839c-2.855,0-5.713-1.839-8.572-1.839
				c-2.854,0-5.713,1.839-8.57,1.839c-2.855,0-5.715-1.839-8.57-1.839c-2.857,0-5.715,1.839-8.572,1.839s-5.715-1.839-8.57-1.839
				c-2.859,0-5.717,1.839-8.572,1.839c-2.859,0-5.717-1.839-8.572-1.839V307.632z"/>
			<path clip-path="url(#SVGID_4_)" fill="#FFFFFF" d="M358,313.757c2.855,0,5.713,1.836,8.572,1.836
				c2.855,0,5.713-1.836,8.572-1.836c2.855,0,5.713,1.836,8.57,1.836s5.715-1.836,8.572-1.836c2.855,0,5.715,1.836,8.57,1.836
				c2.857,0,5.716-1.836,8.57-1.836c2.859,0,5.717,1.836,8.572,1.836c2.859,0,5.717-1.836,8.572-1.836
				c2.859,0,5.717,1.836,8.572,1.836c2.859,0,5.715-1.836,8.572-1.836v-3.062c-2.857,0-5.713,1.835-8.572,1.835
				c-2.855,0-5.713-1.835-8.572-1.835c-2.855,0-5.713,1.835-8.572,1.835c-2.855,0-5.713-1.835-8.572-1.835
				c-2.854,0-5.713,1.835-8.57,1.835c-2.855,0-5.715-1.835-8.57-1.835c-2.857,0-5.715,1.835-8.572,1.835s-5.715-1.835-8.57-1.835
				c-2.859,0-5.717,1.835-8.572,1.835c-2.859,0-5.717-1.835-8.572-1.835V313.757z"/>
			<path clip-path="url(#SVGID_4_)" fill="#FFFFFF" d="M358,319.877c2.855,0,5.713,1.839,8.572,1.839
				c2.855,0,5.713-1.839,8.572-1.839c2.855,0,5.713,1.839,8.57,1.839s5.715-1.839,8.572-1.839c2.855,0,5.715,1.839,8.57,1.839
				c2.857,0,5.716-1.839,8.57-1.839c2.859,0,5.717,1.839,8.572,1.839c2.859,0,5.717-1.839,8.572-1.839
				c2.859,0,5.717,1.839,8.572,1.839c2.859,0,5.715-1.839,8.572-1.839v-3.06c-2.857,0-5.713,1.835-8.572,1.835
				c-2.855,0-5.713-1.835-8.572-1.835c-2.855,0-5.713,1.835-8.572,1.835c-2.855,0-5.713-1.835-8.572-1.835
				c-2.854,0-5.713,1.835-8.57,1.835c-2.855,0-5.715-1.835-8.57-1.835c-2.857,0-5.715,1.835-8.572,1.835s-5.715-1.835-8.57-1.835
				c-2.859,0-5.717,1.835-8.572,1.835c-2.859,0-5.717-1.835-8.572-1.835V319.877z"/>
			<path clip-path="url(#SVGID_4_)" fill="#F4D130" d="M402.801,290.266l3.17,0.021c0.02-0.134-0.273-0.401-0.523-0.44
				c-0.801-0.125-1.4,0.136-2.375,0.145L402.801,290.266z"/>
			<g clip-path="url(#SVGID_4_)">
				<path fill="#B39C31" d="M406.041,290.371l-3.439-0.022l0.41-0.418c0.465-0.028,0.801-0.077,1.127-0.122
					c0.445-0.062,0.85-0.119,1.324-0.046c0.264,0.043,0.621,0.333,0.59,0.534L406.041,290.371L406.041,290.371z M402.982,290.184
					l2.871,0.017c-0.066-0.097-0.244-0.244-0.418-0.27c-0.457-0.071-0.842-0.018-1.275,0.045c-0.328,0.046-0.672,0.095-1.088,0.1
					L402.982,290.184L402.982,290.184z"/>
			</g>
			<path clip-path="url(#SVGID_4_)" fill="#F4D130" d="M396.491,289.519c0.744,0.94,2.188,1.594,3.564,1.603
				c1.859,0.012,3.917-1.492,6.408-1.952l-8.13-0.167c-1.053-0.72-1.852-0.628-2.395-0.183l-1.557,0.049
				c-0.219,0.119,0.182,0.619,0.51,0.636L396.491,289.519z"/>
			<g clip-path="url(#SVGID_4_)">
				<path fill="#B39C31" d="M400.079,291.206L400.079,291.206h-0.023c-1.402-0.009-2.863-0.665-3.629-1.634l-1.537,0.018
					c-0.281-0.018-0.594-0.318-0.646-0.546c-0.023-0.11,0.012-0.201,0.1-0.25l1.592-0.057c0.545-0.497,1.482-0.463,2.445,0.196
					l8.085,0.153l0.014,0.165c-1.137,0.21-2.17,0.633-3.166,1.042C402.17,290.763,401.092,291.206,400.079,291.206L400.079,291.206z
					 M396.897,288.556c-0.336,0-0.641,0.11-0.906,0.329l-1.605,0.065c0.059,0.219,0.318,0.46,0.508,0.472l1.6,0.015
					c0.801,0.963,2.209,1.594,3.562,1.603l0.023,0.082v-0.082c0.98,0,2.042-0.438,3.167-0.898c0.805-0.329,1.633-0.67,2.52-0.9
					l-7.435-0.153C397.786,288.729,397.321,288.556,396.897,288.556L396.897,288.556z"/>
			</g>
			<path clip-path="url(#SVGID_4_)" fill="#F4D130" d="M400.167,288.981c-0.295-1.36-1.387-1.946-2.699-2.119
				c-1.514-0.202-5.004-0.406-7.318-1.074c1.002,0.986,3.102,1.48,4.561,1.702c1.543,0.235,3.047,0.579,4.238,1.478L400.167,288.981
				z"/>
			<g clip-path="url(#SVGID_4_)">
				<path fill="#B39C31" d="M400.272,289.066l-1.326-0.014c-1.246-0.921-2.777-1.256-4.252-1.48
					c-1.26-0.193-3.533-0.671-4.605-1.725l0.082-0.139c1.729,0.494,4.104,0.735,5.838,0.908c0.582,0.058,1.09,0.108,1.471,0.159
					c1.568,0.211,2.5,0.943,2.77,2.186L400.272,289.066L400.272,289.066z M390.481,285.964c1.119,0.858,3.1,1.271,4.238,1.44
					c1.498,0.23,3.053,0.571,4.279,1.498l1.062-0.006c-0.281-1.103-1.156-1.762-2.605-1.952c-0.379-0.051-0.885-0.103-1.465-0.159
					C394.368,286.62,392.182,286.401,390.481,285.964L390.481,285.964z"/>
			</g>
			<path clip-path="url(#SVGID_4_)" fill="#F4D130" d="M399.184,289.888c0.484,0.622,1.236,0.589,2.042,0.046
				c0.807-0.543,1.682-2.065,2.105-2.092c2.955-0.17,6.531-1.417,8.236-2.381c-2.162,0.305-4.307,0.651-6.486,0.662
				c-3.723,0.015-4.162,1.708-5.679,2.898L399.184,289.888z"/>
			<g clip-path="url(#SVGID_4_)">
				<path fill="#B39C31" d="M400.09,290.431c-0.387,0-0.719-0.165-0.975-0.491c-0.027-0.037-0.02-0.089,0.016-0.117
					c0.039-0.028,0.09-0.022,0.117,0.015c0.588,0.753,1.463,0.341,1.931,0.025c0.381-0.256,0.787-0.747,1.146-1.182
					c0.416-0.506,0.746-0.906,1-0.921c2.824-0.165,6.066-1.287,7.779-2.147l-0.26,0.036c-1.881,0.271-3.824,0.549-5.764,0.558
					c-2.785,0.011-3.688,0.954-4.646,1.951c-0.297,0.312-0.609,0.637-0.98,0.93c-0.037,0.028-0.09,0.02-0.119-0.015
					c-0.027-0.037-0.021-0.088,0.016-0.119c0.361-0.284,0.668-0.603,0.965-0.912c0.937-0.98,1.908-1.991,4.765-2.003
					c1.926-0.009,3.867-0.287,5.742-0.557l0.732-0.105l0.055,0.156c-1.855,1.049-5.459,2.23-8.275,2.396
					c-0.182,0.011-0.535,0.443-0.879,0.857c-0.367,0.443-0.781,0.946-1.184,1.217C400.85,290.289,400.448,290.431,400.09,290.431
					L400.09,290.431z"/>
			</g>
			<g clip-path="url(#SVGID_4_)">
				<path fill="#B39C31" d="M399.76,289.24c-0.027,0-0.055-0.012-0.07-0.037c-0.025-0.04-0.014-0.091,0.025-0.116
					c0.465-0.296,0.887-0.653,1.294-1c0.287-0.245,0.576-0.486,0.881-0.714c1.262-0.938,2.699-0.954,4.223-0.972
					c1.297-0.017,3.523-0.536,4.852-0.849l0.137-0.031c0.047-0.018,0.092,0.017,0.102,0.062c0.01,0.045-0.018,0.091-0.062,0.099
					l-0.135,0.034c-1.338,0.312-3.576,0.836-4.891,0.853c-1.494,0.017-2.906,0.037-4.125,0.94c-0.301,0.222-0.586,0.463-0.873,0.705
					c-0.41,0.35-0.837,0.71-1.312,1.014C399.792,289.237,399.776,289.24,399.76,289.24L399.76,289.24z"/>
			</g>
			<g clip-path="url(#SVGID_4_)">
				<path fill="#B39C31" d="M398.852,288.937c-0.217-1.126-1.25-1.509-2.74-1.733c-0.412-0.062-0.83-0.119-1.246-0.174
					c-1.146-0.153-2.33-0.312-3.482-0.631c-0.264-0.07-0.514-0.182-0.764-0.289c-0.121-0.055-0.244-0.108-0.365-0.156l0.061-0.156
					c0.125,0.051,0.248,0.102,0.371,0.156c0.244,0.107,0.486,0.216,0.74,0.284c1.143,0.315,2.322,0.472,3.461,0.625
					c0.418,0.057,0.836,0.11,1.25,0.173c1.559,0.239,2.646,0.646,2.881,1.867L398.852,288.937L398.852,288.937z"/>
			</g>
			<g clip-path="url(#SVGID_4_)">
				<path fill="#B39C31" d="M399.86,290.812c-0.143,0-0.283-0.006-0.432-0.018c-0.047-0.003-0.082-0.042-0.08-0.088
					c0.006-0.048,0.043-0.082,0.092-0.079c1.5,0.11,2.593-0.364,3.767-0.949c0.043-0.02,0.092-0.003,0.111,0.037
					c0.021,0.042,0.004,0.094-0.037,0.113C402.24,290.349,401.191,290.812,399.86,290.812L399.86,290.812z"/>
			</g>
			<g clip-path="url(#SVGID_4_)">
				<path fill="#B39C31" d="M396.229,289.2h-1.854c-0.045,0-0.082-0.037-0.082-0.082c0-0.046,0.037-0.083,0.082-0.083h1.854
					c0.047,0,0.086,0.037,0.086,0.083C396.315,289.163,396.276,289.2,396.229,289.2L396.229,289.2z"/>
			</g>
			<path clip-path="url(#SVGID_4_)" fill="#B39C31" d="M397.055,288.919c0,0.128-0.105,0.23-0.232,0.23
				c-0.129,0-0.23-0.103-0.23-0.23s0.102-0.232,0.23-0.232C396.95,288.687,397.055,288.791,397.055,288.919L397.055,288.919z"/>
			<g clip-path="url(#SVGID_4_)">
				<path fill="#B39C31" d="M396.823,289.234c-0.174,0-0.316-0.142-0.316-0.315c0-0.173,0.143-0.315,0.316-0.315
					s0.314,0.143,0.314,0.315C397.137,289.093,396.997,289.234,396.823,289.234L396.823,289.234z M396.823,288.771
					c-0.082,0-0.148,0.065-0.148,0.147c0,0.162,0.297,0.162,0.297,0C396.971,288.837,396.905,288.771,396.823,288.771
					L396.823,288.771z"/>
			</g>
		</g>
	</g>
</g>
</svg>
