<?xml version="1.0" encoding="utf-8"?>
<!-- Generator: Adobe Illustrator 16.0.0, SVG Export Plug-In . SVG Version: 6.00 Build 0)  -->
<!DOCTYPE svg PUBLIC "-//W3C//DTD SVG 1.1//EN" "http://www.w3.org/Graphics/SVG/1.1/DTD/svg11.dtd">
<svg version="1.1" id="name" xmlns="http://www.w3.org/2000/svg" xmlns:xlink="http://www.w3.org/1999/xlink" x="0px" y="0px"
	 width="85.718px" height="50px" viewBox="358 276 85.718 50" enable-background="new 358 276 85.718 50" xml:space="preserve">
<g id="km">
	<g>
		<defs>
			<rect id="SVGID_1_" x="358" y="276" width="85.718" height="50"/>
		</defs>
		<clipPath id="SVGID_2_">
			<use xlink:href="#SVGID_1_"  overflow="visible"/>
		</clipPath>
		<rect x="358" y="276" clip-path="url(#SVGID_2_)" fill="#F4C532" width="85.718" height="50"/>
		<rect x="358" y="288.5" clip-path="url(#SVGID_2_)" fill="#FFFFFF" width="85.718" height="37.5"/>
		<rect x="358" y="301" clip-path="url(#SVGID_2_)" fill="#BD1F34" width="85.718" height="25"/>
		<rect x="358" y="313.502" clip-path="url(#SVGID_2_)" fill="#5172B8" width="85.718" height="12.498"/>
		<polygon clip-path="url(#SVGID_2_)" fill="#518E40" points="358,276 358,326 399.668,301 		"/>
		<g clip-path="url(#SVGID_2_)">
			<defs>
				<rect id="SVGID_3_" x="358" y="276" width="85.718" height="50"/>
			</defs>
			<clipPath id="SVGID_4_">
				<use xlink:href="#SVGID_3_"  overflow="visible"/>
			</clipPath>
			<path clip-path="url(#SVGID_4_)" fill="#FFFFFF" d="M383.418,301c0.002,6.214-5.033,11.251-11.248,11.254
				c-6.213,0.003-11.252-5.034-11.254-11.245V301c-0.002-6.214,5.033-11.251,11.248-11.253c6.215-0.003,11.252,5.033,11.254,11.247
				V301z"/>
			<path clip-path="url(#SVGID_4_)" fill="#518E40" d="M388.42,301c0,6.214-5.037,11.251-11.25,11.254s-11.25-5.034-11.252-11.245
				V301c-0.002-6.214,5.033-11.251,11.246-11.253c6.213-0.003,11.252,5.033,11.256,11.247V301z"/>
			<polygon clip-path="url(#SVGID_4_)" fill="#FFFFFF" points="372.686,308.41 374.202,308.41 374.667,306.97 375.135,308.41 
				376.651,308.41 375.424,309.299 375.893,310.74 374.667,309.848 373.444,310.74 373.911,309.299 			"/>
			<polygon clip-path="url(#SVGID_4_)" fill="#FFFFFF" points="372.686,292.306 374.202,292.306 374.667,290.865 375.135,292.306 
				376.651,292.306 375.424,293.195 375.893,294.633 374.667,293.743 373.444,294.633 373.911,293.195 			"/>
			<polygon clip-path="url(#SVGID_4_)" fill="#FFFFFF" points="372.686,297.673 374.202,297.673 374.667,296.232 375.135,297.673 
				376.651,297.673 375.424,298.562 375.893,300.003 374.667,299.113 373.444,300.003 373.911,298.562 			"/>
			<polygon clip-path="url(#SVGID_4_)" fill="#FFFFFF" points="372.686,303.04 374.202,303.04 374.667,301.603 375.135,303.04 
				376.651,303.04 375.424,303.93 375.893,305.37 374.667,304.48 373.444,305.37 373.911,303.93 			"/>
		</g>
	</g>
</g>
</svg>
