<?xml version="1.0" encoding="utf-8"?>
<!-- Generator: Adobe Illustrator 16.0.0, SVG Export Plug-In . SVG Version: 6.00 Build 0)  -->
<!DOCTYPE svg PUBLIC "-//W3C//DTD SVG 1.1//EN" "http://www.w3.org/Graphics/SVG/1.1/DTD/svg11.dtd">
<svg version="1.1" id="name" xmlns="http://www.w3.org/2000/svg" xmlns:xlink="http://www.w3.org/1999/xlink" x="0px" y="0px"
	 width="85.716px" height="50px" viewBox="358 276 85.716 50" enable-background="new 358 276 85.716 50" xml:space="preserve">
<g id="kr">
	<g>
		<defs>
			<rect id="SVGID_1_" x="358" y="276" width="85.716" height="50"/>
		</defs>
		<clipPath id="SVGID_2_">
			<use xlink:href="#SVGID_1_"  overflow="visible"/>
		</clipPath>
		<rect x="358" y="276" clip-path="url(#SVGID_2_)" fill="#FFFFFF" width="85.716" height="50"/>
		
			<rect x="412.582" y="286.162" transform="matrix(-0.5547 -0.832 0.832 -0.5547 406.9515 792.1897)" clip-path="url(#SVGID_2_)" fill="#010101" width="5.73" height="2.084"/>
		
			<rect x="416.339" y="291.796" transform="matrix(-0.5546 -0.8321 0.8321 -0.5546 408.0321 804.0718)" clip-path="url(#SVGID_2_)" fill="#010101" width="5.73" height="2.082"/>
		
			<rect x="413.676" y="287.247" transform="matrix(-0.5546 -0.8321 0.8321 -0.5546 412.933 797.601)" clip-path="url(#SVGID_2_)" fill="#010101" width="12.5" height="2.084"/>
		
			<rect x="417.784" y="282.696" transform="matrix(-0.5546 -0.8321 0.8321 -0.5546 417.8509 791.1261)" clip-path="url(#SVGID_2_)" fill="#010101" width="5.73" height="2.081"/>
		
			<rect x="421.539" y="288.33" transform="matrix(-0.5547 -0.832 0.832 -0.5547 419.0748 803.0105)" clip-path="url(#SVGID_2_)" fill="#010101" width="5.73" height="2.082"/>
		
			<rect x="378.138" y="310.937" transform="matrix(-0.5547 -0.8321 0.8321 -0.5547 338.0007 804.8613)" clip-path="url(#SVGID_2_)" fill="#010101" width="12.502" height="2.083"/>
		
			<rect x="377.047" y="309.854" transform="matrix(-0.5549 -0.8319 0.8319 -0.5549 332.0588 799.4641)" clip-path="url(#SVGID_2_)" fill="#010101" width="5.727" height="2.083"/>
		
			<rect x="380.802" y="315.487" transform="matrix(-0.5547 -0.8321 0.8321 -0.5547 333.1072 811.3362)" clip-path="url(#SVGID_2_)" fill="#010101" width="5.73" height="2.084"/>
		
			<rect x="372.937" y="314.403" transform="matrix(-0.5547 -0.8321 0.8321 -0.5547 327.052 805.9248)" clip-path="url(#SVGID_2_)" fill="#010101" width="12.501" height="2.084"/>
		
			<rect x="378.138" y="288.98" transform="matrix(-0.5547 0.8321 -0.8321 -0.5547 838.913 131.0412)" clip-path="url(#SVGID_2_)" fill="#010101" width="12.502" height="2.083"/>
		
			<rect x="375.538" y="287.247" transform="matrix(-0.5547 0.8321 -0.8321 -0.5547 833.436 130.53)" clip-path="url(#SVGID_2_)" fill="#010101" width="12.501" height="2.084"/>
		
			<rect x="372.938" y="285.513" transform="matrix(-0.5546 0.8321 -0.8321 -0.5546 827.9358 129.9549)" clip-path="url(#SVGID_2_)" fill="#010101" width="12.5" height="2.084"/>
		
			<rect x="412.583" y="313.754" transform="matrix(-0.5546 0.8321 -0.8321 -0.5546 907.8065 143.6932)" clip-path="url(#SVGID_2_)" fill="#010101" width="5.73" height="2.084"/>
		
			<rect x="416.339" y="308.119" transform="matrix(-0.5546 0.8321 -0.8321 -0.5546 908.9568 131.808)" clip-path="url(#SVGID_2_)" fill="#010101" width="5.73" height="2.084"/>
		
			<rect x="415.184" y="315.487" transform="matrix(-0.5546 0.8321 -0.8321 -0.5546 913.2917 144.2221)" clip-path="url(#SVGID_2_)" fill="#010101" width="5.73" height="2.083"/>
		
			<rect x="418.94" y="309.854" transform="matrix(-0.5549 0.8319 -0.8319 -0.5549 914.4912 132.4794)" clip-path="url(#SVGID_2_)" fill="#010101" width="5.727" height="2.082"/>
		
			<rect x="417.785" y="317.221" transform="matrix(-0.5549 0.8319 -0.8319 -0.5549 918.8247 144.8951)" clip-path="url(#SVGID_2_)" fill="#010101" width="5.727" height="2.081"/>
		
			<rect x="421.54" y="311.586" transform="matrix(-0.5546 0.8321 -0.8321 -0.5546 919.9274 132.8697)" clip-path="url(#SVGID_2_)" fill="#010101" width="5.73" height="2.084"/>
		<g clip-path="url(#SVGID_2_)">
			<defs>
				<rect id="SVGID_3_" x="358" y="276" width="85.716" height="50"/>
			</defs>
			<clipPath id="SVGID_4_">
				<use xlink:href="#SVGID_3_"  overflow="visible"/>
			</clipPath>
			<path clip-path="url(#SVGID_4_)" fill="#B51E3B" d="M390.457,294.067c-0.046,0.065-0.091,0.134-0.132,0.202
				C390.369,294.201,390.411,294.133,390.457,294.067"/>
			<path clip-path="url(#SVGID_4_)" fill="#B51E3B" d="M407.793,290.599c-5.745-3.83-13.508-2.276-17.336,3.469
				c-1.917,2.87-1.14,6.751,1.733,8.666s6.752,1.139,8.668-1.733c1.913-2.872,5.795-3.648,8.666-1.733
				c2.872,1.915,3.649,5.794,1.733,8.669C415.088,302.19,413.536,294.428,407.793,290.599"/>
			<path clip-path="url(#SVGID_4_)" fill="#273775" d="M390.457,294.067c-1.917,2.87-1.14,6.751,1.733,8.666
				s6.752,1.139,8.668-1.733c1.913-2.872,5.795-3.648,8.666-1.733c2.872,1.915,3.649,5.794,1.733,8.669
				c-3.828,5.742-11.591,7.296-17.334,3.466C388.178,307.572,386.627,299.81,390.457,294.067"/>
		</g>
	</g>
</g>
</svg>
