<?xml version="1.0" encoding="utf-8"?>
<!-- Generator: Adobe Illustrator 16.0.0, SVG Export Plug-In . SVG Version: 6.00 Build 0)  -->
<!DOCTYPE svg PUBLIC "-//W3C//DTD SVG 1.1//EN" "http://www.w3.org/Graphics/SVG/1.1/DTD/svg11.dtd">
<svg version="1.1" id="name" xmlns="http://www.w3.org/2000/svg" xmlns:xlink="http://www.w3.org/1999/xlink" x="0px" y="0px"
	 width="85.711px" height="50px" viewBox="358 276 85.711 50" enable-background="new 358 276 85.711 50" xml:space="preserve">
<g id="ky">
	<g>
		<defs>
			<rect id="SVGID_1_" x="358" y="276" width="85.711" height="50"/>
		</defs>
		<clipPath id="SVGID_2_">
			<use xlink:href="#SVGID_1_"  overflow="visible"/>
		</clipPath>
		<g clip-path="url(#SVGID_2_)">
			<defs>
				<rect id="SVGID_3_" x="358" y="276" width="85.711" height="50"/>
			</defs>
			<clipPath id="SVGID_4_">
				<use xlink:href="#SVGID_3_"  overflow="visible"/>
			</clipPath>
			<rect x="358" y="276" clip-path="url(#SVGID_4_)" fill="#231E60" width="85.711" height="50"/>
			<rect x="358" y="276" clip-path="url(#SVGID_4_)" fill="#231E60" width="43.305" height="21.653"/>
			<path clip-path="url(#SVGID_4_)" fill="#FFFFFF" d="M379.653,289.246l16.811,8.407h4.841v-2.421l-16.812-8.406L379.653,289.246z
				 M358,295.232v2.421h4.84l16.813-8.407l-4.843-2.42L358,295.232z M358,276v2.422l16.811,8.404l4.843-2.421L362.84,276H358z
				 M396.464,276l-16.811,8.405l4.84,2.421l16.812-8.404V276H396.464z"/>
			<polygon clip-path="url(#SVGID_4_)" fill="#FFFFFF" points="376.042,276 376.042,283.218 358,283.218 358,290.437 
				376.042,290.437 376.042,297.653 383.261,297.653 383.261,290.437 401.305,290.437 401.305,283.218 383.261,283.218 383.261,276 
							"/>
			<polygon clip-path="url(#SVGID_4_)" fill="#BA2025" points="377.487,276 377.487,284.661 358,284.661 358,288.992 
				377.487,288.992 377.487,297.653 381.815,297.653 381.815,288.992 401.305,288.992 401.305,284.661 381.815,284.661 381.815,276 
							"/>
			<path clip-path="url(#SVGID_4_)" fill="#BA2025" d="M372.434,290.437L358,297.653h3.226l14.436-7.217H372.434z M386.87,290.437
				l14.435,7.217v-1.614l-11.208-5.603H386.87z M358,276v1.615l11.207,5.603h3.228L358,276z M398.078,276l-14.436,7.218h3.228
				L401.305,276H398.078z"/>
			<g clip-path="url(#SVGID_4_)">
				<defs>
					<rect id="SVGID_5_" x="358" y="276" width="85.711" height="50"/>
				</defs>
				<clipPath id="SVGID_6_">
					<use xlink:href="#SVGID_5_"  overflow="visible"/>
				</clipPath>
				<path clip-path="url(#SVGID_6_)" fill="#FFFFFF" d="M419.857,290.512c-0.086,0.052-0.256,0.206-0.426,0.156
					c-0.172-0.052-0.558-0.723-0.983-0.62c-0.427,0.104-0.685,0.259-0.853,0.259c-0.172,0-0.643,0.154-0.643,0.566
					s0.043,0.723,0.129,0.723s0.213-0.258,0.213-0.258s0.042,0.519,0.342,0.519c0.299,0,0.94,0.05,0.982,0.204
					c0.042,0.155-0.299,0.518-0.214,0.825c0.085,0.31,0.469,0.827,0.469,0.827s-0.554,0.413-0.554,0.67
					c0,0.258,0.085,0.518,0.085,0.518l-2.478,0.103c0,0-0.17,7.329-0.084,7.896c0.084,0.568,0.297,1.96,0.297,1.96
					s-0.553-0.18-1.022,0.284c-0.469,0.466-2.114,1.265-2.156,1.627c-0.044,0.359-0.193,0.67-0.022,0.931
					c0.172,0.257,0.772,0.957,0.6,0.927c-0.574-0.099-0.787-0.914-1.174-1.214c-0.383-0.293-1.134-0.231-1.219,0.079
					c-0.086,0.31-0.043,0.824,0,0.928s0.514,1.754,0.639,2.116c0.131,0.361,1.475,0.904,2.072,0.852
					c1.132,0.026,1.645-0.49,1.688-0.438c0.043,0.051,2.435,2.517,7.346,2.528c3.822,0.009,6.703-2.478,6.703-2.425
					c0,0.051,1.58,0.516,2.133,0.36c0.557-0.154,1.367-0.517,1.537-0.878c0.171-0.362,0.64-2.22,0.686-2.529
					c0.043-0.307,0-0.671-0.384-0.773c-0.387-0.104-0.6-0.078-0.812,0.024c-0.216,0.105-0.277,0.39-0.597,0.903
					c-0.172,0.155-0.621,0.568-0.492,0.466c0.127-0.104,0.404-0.878,0.447-1.135c0.045-0.259,0.172-0.723-0.127-0.98
					c-0.3-0.26-0.758-0.364-1.283-0.748c-0.497-0.343-0.895-0.905-1.194-0.905c-0.297,0-0.641-0.154-0.599-0.154
					c0.043,0,0.386-0.749,0.302-1.523c-0.085-0.773,0.041-8.179,0-8.179c-0.046,0-2.137,0.154-2.137,0.052
					c0-0.104,0.171-0.826,0-1.292c-0.171-0.462-0.897-0.773-0.685-0.877c0.215-0.103,1.154-0.36,1.111-0.772
					c-0.041-0.413-0.64-0.362-0.896-0.518c-0.256-0.154-1.024-0.878-1.109-0.878c-0.087,0,2.221-1.392,2.049-1.392
					c-0.171,0-1.066-0.259-1.367-0.104c0-0.259,1.238-1.031,1.025-1.136c-0.213-0.104-1.195-0.207-0.938-0.258
					c0.256-0.052,0.34-0.671,0.297-0.671c-0.041,0-1.109,0.155-1.109,0.155s-0.257-0.362-0.341-0.362
					c-0.088,0-0.472,0.207-0.472,0.207l-0.213-0.568l-0.469,0.312l-0.213-0.26c0,0-0.385,0.104-0.385,0
					c0.016-0.003-0.045-0.259-0.104-0.259c-0.062,0-0.483,0.328-0.5,0.311c-0.015-0.018-0.483-0.676-0.483-0.658
					s-0.332,1.241-0.346,1.241c-0.016,0-0.332,0.037-0.348,0.056c-0.014,0.017-1.691-0.967-1.676-0.949
					c0.015,0.019,0.438,0.949,0.438,0.949s-0.361,0.2-0.361,0.219c0,0.018,0.061,0.419,0.061,0.419l-1.118-0.383
					c0,0,0.422,0.857,0.394,0.857c-0.031,0-0.83,0.036-0.815,0.036c0.016,0,0.378,0.712,0.378,0.712l-0.137,0.421
					C418.74,289.613,419.943,290.461,419.857,290.512L419.857,290.512z M426.988,308.474c0.105,0.154,0.684,0.876,0.597,0.876
					c-0.085,0-1.515,0.956-2.091,1.136c-0.577,0.182-2.455,0.517-2.349,0.491s1.687-0.893,2.325-1.305
					C426.113,309.261,426.988,308.524,426.988,308.474L426.988,308.474z M418.064,308.446c-0.085,0.105-0.491,0.903-0.491,0.903
					s1.175,0.825,2.048,1.136c0.875,0.31,2.371,0.413,2.285,0.389c-0.086-0.026-1.879-0.828-2.392-1.24
					C419.004,309.221,418.086,308.446,418.064,308.446L418.064,308.446z"/>
				<path clip-path="url(#SVGID_6_)" fill="#F3C426" d="M419.002,289.336c0,0,0.747,0.541,0.918,0.671
					c0.17,0.128,0.726,0.697,0.769,0.672c0.041-0.027,0.339-0.312,0.339-0.312s-0.616-0.592-1.001-0.722
					C419.641,289.517,419.002,289.389,419.002,289.336L419.002,289.336z"/>
				<g clip-path="url(#SVGID_6_)">
					<path fill="#6D6767" d="M420.684,290.732c-0.048,0-0.121-0.062-0.457-0.377c-0.137-0.129-0.27-0.252-0.341-0.305
						c-0.146-0.111-0.716-0.525-0.875-0.641l-0.037-0.03h-0.003l0.002-0.001l-0.024-0.043v-0.106l0.116,0.087
						c0.072,0.029,0.232,0.069,0.412,0.117c0.19,0.049,0.4,0.105,0.566,0.159c0.391,0.134,0.998,0.711,1.021,0.734
						c-0.07,0.148-0.304,0.37-0.348,0.396L420.684,290.732L420.684,290.732z M419.328,289.507c0.229,0.167,0.523,0.382,0.624,0.457
						c0.069,0.053,0.209,0.181,0.349,0.313c0.133,0.125,0.313,0.295,0.377,0.34c0.071-0.06,0.268-0.246,0.308-0.284h-0.001
						c-0.07,0.002-0.629-0.52-0.975-0.638c-0.164-0.054-0.374-0.107-0.559-0.156C419.408,289.526,419.367,289.517,419.328,289.507
						L419.328,289.507z"/>
				</g>
				<path clip-path="url(#SVGID_6_)" fill="#F3C426" d="M418.895,288.742c0.062,0,1.238,0.722,1.601,1.084
					c0.365,0.36,0.513,0.825,0.556,0.825s0.596-0.103,0.575-0.103s-0.256-0.929-0.788-1.213
					C420.303,289.052,418.916,288.742,418.895,288.742L418.895,288.742z"/>
				<g clip-path="url(#SVGID_6_)">
					<path fill="#6D6767" d="M421.051,290.705c-0.047,0-0.065-0.037-0.128-0.157c-0.085-0.168-0.228-0.444-0.466-0.684
						c-0.353-0.351-1.468-1.038-1.571-1.068l0.009-0.107l0.004,0.048l-0.004-0.048l0.014,0.001c0.082,0.015,1.432,0.32,1.955,0.599
						c0.457,0.244,0.701,0.936,0.782,1.163h0.054l-0.018,0.098c0,0.018-0.021,0.033-0.056,0.049l-0.013,0.006
						C421.451,290.667,421.057,290.705,421.051,290.705L421.051,290.705z M419.262,288.883c0.402,0.243,1.03,0.663,1.271,0.905
						c0.252,0.25,0.403,0.55,0.486,0.711c0.018,0.034,0.039,0.074,0.051,0.097c0.082-0.013,0.357-0.062,0.481-0.086l-0.009-0.021
						c-0.076-0.219-0.311-0.881-0.731-1.104C420.457,289.194,419.715,288.994,419.262,288.883L419.262,288.883z"/>
				</g>
				<path clip-path="url(#SVGID_6_)" fill="#F3C426" d="M424.423,286.876c-0.021,0-0.235,0.772-0.298,1.007
					c-0.062,0.231-0.171,0.723-0.171,0.723s-0.94,0.103-0.897-0.026C423.099,288.449,424.488,286.876,424.423,286.876
					L424.423,286.876z"/>
				<g clip-path="url(#SVGID_6_)">
					<path fill="#6D6767" d="M423.334,288.698c-0.224,0-0.289-0.027-0.317-0.066c0.011-0.137,0.243-0.417,0.729-0.996
						c0.271-0.322,0.532-0.632,0.612-0.746l0.065-0.068l0.034,0.111c-0.057,0.16-0.225,0.763-0.278,0.964
						c-0.065,0.23-0.171,0.72-0.171,0.72C423.96,288.658,423.602,288.698,423.334,288.698L423.334,288.698z M423.13,288.58
						c0.083,0,0.73-0.02,0.81-0.028c-0.022-0.031,0.074-0.469,0.134-0.685c0.036-0.134,0.122-0.444,0.193-0.688
						c-0.119,0.146-0.277,0.335-0.438,0.525c-0.278,0.33-0.653,0.775-0.714,0.878C423.119,288.58,423.123,288.58,423.13,288.58
						L423.13,288.58z"/>
				</g>
				<path clip-path="url(#SVGID_6_)" fill="#F3C426" d="M419.108,287.812c0,0,1.109,0.903,1.493,1.422
					c0.384,0.515,0.769,1.418,0.791,1.418c0.02,0,1.047-0.257,1.047-0.231c0,0.024-1.195-1.446-1.772-1.884
					C420.09,288.098,419.129,287.864,419.108,287.812L419.108,287.812z"/>
				<g clip-path="url(#SVGID_6_)">
					<path fill="#6D6767" d="M421.393,290.705c-0.041,0-0.041,0-0.148-0.227c-0.146-0.296-0.415-0.852-0.686-1.214
						c-0.352-0.474-1.338-1.29-1.466-1.395l-0.034-0.038l-0.074-0.189l0.158,0.128l-0.016,0.035l0.023-0.028
						c0.031,0.018,0.109,0.044,0.219,0.083c0.322,0.113,0.923,0.322,1.329,0.632c0.44,0.334,1.219,1.241,1.591,1.676
						c0.102,0.117,0.168,0.196,0.182,0.211l0.128,0.115l-0.159-0.021l-0.021,0.003l-0.001-0.003
						c-0.094,0.013-0.552,0.122-0.775,0.176C421.406,290.705,421.402,290.705,421.393,290.705L421.393,290.705z M419.398,287.985
						c0.352,0.3,0.976,0.853,1.246,1.216c0.276,0.371,0.548,0.929,0.695,1.231c0.035,0.071,0.062,0.126,0.077,0.159
						c0.04-0.01,0.112-0.027,0.198-0.049c0.333-0.079,0.566-0.135,0.699-0.161l-0.048-0.04l0.036,0.004
						c-0.027-0.026-0.059-0.063-0.096-0.106c-0.342-0.399-1.143-1.334-1.574-1.66C420.266,288.299,419.727,288.101,419.398,287.985
						L419.398,287.985z"/>
				</g>
				<path clip-path="url(#SVGID_6_)" fill="#F3C426" d="M420.261,287.573c0,0,0.554,1.032,0.662,1.392
					c0.104,0.362,0.427,1.29,0.427,1.29h0.877c0,0-0.429-1.16-0.897-1.729C420.86,287.959,420.281,287.623,420.261,287.573
					L420.261,287.573z"/>
				<g clip-path="url(#SVGID_6_)">
					<path fill="#6D6767" d="M422.303,290.309h-0.953c-0.051-0.035-0.373-0.966-0.479-1.328c-0.101-0.341-0.618-1.312-0.653-1.378
						l-0.006-0.011l0.098-0.046c0.009,0.01,0.068,0.054,0.125,0.097c0.211,0.155,0.599,0.44,0.937,0.85
						c0.47,0.568,0.888,1.696,0.906,1.744L422.303,290.309L422.303,290.309z M420.428,287.773c0.171,0.328,0.469,0.916,0.546,1.178
						c0.106,0.36,0.428,1.287,0.428,1.287l0.747-0.033c-0.101-0.258-0.471-1.169-0.862-1.644
						C420.985,288.198,420.641,287.933,420.428,287.773L420.428,287.773z"/>
				</g>
				<path clip-path="url(#SVGID_6_)" fill="#F3C426" d="M420.559,287.005c0.023,0.077,0.812,0.98,1.006,1.574
					c0.19,0.594,0.338,1.342,0.338,1.342l0.771-0.232c0,0-0.683-1.521-1.108-1.937C421.136,287.339,420.602,287.056,420.559,287.005
					L420.559,287.005z"/>
				<g clip-path="url(#SVGID_6_)">
					<path fill="#6D6767" d="M421.863,289.989l-0.014-0.058c-0.001-0.009-0.15-0.753-0.338-1.337
						c-0.137-0.422-0.589-1.015-0.834-1.331c-0.131-0.172-0.162-0.216-0.17-0.244l0.094-0.049c0.012,0.01,0.075,0.053,0.137,0.093
						c0.195,0.123,0.557,0.354,0.863,0.65c0.43,0.416,1.091,1.89,1.119,1.952L421.863,289.989L421.863,289.989z M420.78,287.218
						c0.251,0.328,0.694,0.914,0.835,1.344c0.16,0.495,0.291,1.103,0.33,1.29l0.707-0.215c-0.073-0.021-0.725-1.454-1.127-1.847
						C421.275,287.549,420.98,287.349,420.78,287.218L420.78,287.218z"/>
				</g>
				<path clip-path="url(#SVGID_6_)" fill="#F3C426" d="M426.943,289.438c0,0-1.604,0.207-2.177,0.388
					c-0.577,0.181-0.897,0.853-0.897,0.853s0.747,0.333,0.789,0.282c0.043-0.051,0.492-0.594,0.983-0.8
					S426.985,289.464,426.943,289.438L426.943,289.438z"/>
				<g clip-path="url(#SVGID_6_)">
					<path fill="#6D6767" d="M424.639,291.021c-0.131,0-0.684-0.244-0.793-0.294c-0.014-0.101,0.312-0.767,0.904-0.951
						c0.573-0.181,2.12-0.381,2.186-0.391c0.055,0.173-0.971,0.698-1.273,0.826c-0.458,0.193-0.881,0.688-0.961,0.784
						L424.639,291.021L424.639,291.021z M426.869,289.439c-0.222,0.094-1.576,0.277-2.088,0.439
						c-0.546,0.169-0.861,0.815-0.864,0.822c0.21,0.035,0.61,0.199,0.714,0.21c0.107-0.129,0.527-0.604,0.988-0.8
						C426.042,289.934,426.713,289.555,426.869,289.439L426.869,289.439z"/>
				</g>
				<path clip-path="url(#SVGID_6_)" fill="#F3C426" d="M426.879,288.174c-0.043,0.027-1.325,1.29-1.729,1.703
					c-0.406,0.412-0.791,0.852-0.832,0.877c-0.043,0.026-0.834-0.128-0.791-0.181c0.043-0.05,1.174-1.159,1.921-1.65
					C426.195,288.433,426.814,288.227,426.879,288.174L426.879,288.174z"/>
				<g clip-path="url(#SVGID_6_)">
					<path fill="#6D6767" d="M424.295,290.812c-0.057,0-0.77-0.104-0.818-0.207c0.043-0.105,1.176-1.225,1.94-1.728
						c0.548-0.359,1.019-0.562,1.272-0.672c0.08-0.034,0.133-0.057,0.154-0.071l0.008-0.005l0.061,0.088l-0.021-0.024l0.018,0.027
						l0,0c-0.078,0.063-1.301,1.267-1.72,1.696c-0.22,0.223-0.432,0.451-0.588,0.622c-0.184,0.195-0.231,0.248-0.255,0.263
						L424.295,290.812L424.295,290.812z M423.588,290.605c0.113,0,0.594,0.099,0.707,0.099v0.054l0.006-0.054
						c0.008-0.012,0.097-0.106,0.221-0.24c0.157-0.171,0.37-0.4,0.589-0.625c0.302-0.306,1.093-1.088,1.494-1.479
						c-0.265,0.116-0.669,0.307-1.128,0.606c-0.75,0.496-1.871,1.598-1.906,1.642C423.573,290.607,423.579,290.605,423.588,290.605
						L423.588,290.605z"/>
				</g>
				<path clip-path="url(#SVGID_6_)" fill="#F3C426" d="M426.559,287.271c-0.129,0.182-1.389,1.419-1.729,1.858
					c-0.341,0.438-0.897,1.213-0.897,1.213s-0.662-0.361-0.617-0.516c0.043-0.155,0.938-1.059,1.58-1.575
					C425.533,287.735,426.623,287.323,426.559,287.271L426.559,287.271z"/>
				<g clip-path="url(#SVGID_6_)">
					<path fill="#6D6767" d="M423.948,290.413l-0.042-0.023c-0.211-0.114-0.693-0.4-0.643-0.579c0.05-0.188,1.01-1.129,1.597-1.603
						c0.392-0.315,0.946-0.591,1.312-0.772c0.153-0.077,0.271-0.135,0.323-0.171l0.012,0.01l-0.012-0.01l0.01,0.01h-0.02
						l0.041,0.034l-0.002-0.014l0,0l-0.01-0.044l0.001,0.001l-0.003-0.013l0.106-0.147l-0.004,0.188l-0.058-0.003l0.011,0.069
						c-0.09,0.106-0.321,0.346-0.587,0.621c-0.409,0.42-0.914,0.944-1.111,1.196c-0.34,0.438-0.895,1.211-0.895,1.211
						L423.948,290.413L423.948,290.413z M426.273,287.506c-0.017,0.009-0.035,0.018-0.053,0.026
						c-0.361,0.179-0.908,0.451-1.292,0.761c-0.672,0.54-1.528,1.421-1.563,1.547c-0.011,0.059,0.246,0.261,0.552,0.431
						c0.116-0.162,0.574-0.794,0.87-1.175c0.198-0.256,0.707-0.782,1.115-1.206C426.042,287.748,426.17,287.614,426.273,287.506
						L426.273,287.506z"/>
				</g>
				<path clip-path="url(#SVGID_6_)" fill="#F3C426" d="M425.277,287.168c-0.021,0.025-0.767,0.98-0.918,1.237
					c-0.149,0.261-0.599,1.396-0.599,1.396s-0.662-0.696-0.662-0.724c0-0.025,0.833-1.084,1.324-1.497
					C424.914,287.168,425.298,287.245,425.277,287.168L425.277,287.168z"/>
				<g clip-path="url(#SVGID_6_)">
					<path fill="#6D6767" d="M423.781,289.898l-0.061-0.062c-0.676-0.71-0.676-0.731-0.676-0.759c0-0.085,0.929-1.188,1.344-1.537
						c0.336-0.282,0.619-0.342,0.771-0.375l0.078-0.032v0.001l0.109-0.044l-0.05,0.141c-0.153,0.196-0.759,0.977-0.892,1.203
						c-0.146,0.252-0.59,1.375-0.594,1.387L423.781,289.898L423.781,289.898z M425.117,287.285c-0.197,0.051-0.413,0.13-0.658,0.338
						c-0.477,0.4-1.271,1.404-1.311,1.476c0.025,0.002,0.356,0.353,0.594,0.604c0.105-0.266,0.441-1.101,0.57-1.322
						c0.11-0.191,0.539-0.753,0.777-1.059l-0.002,0.002L425.117,287.285L425.117,287.285z"/>
				</g>
				<path clip-path="url(#SVGID_6_)" fill="#F3C426" d="M423.427,288.579c0,0.181-0.124,0.328-0.271,0.328
					c-0.151,0-0.273-0.147-0.273-0.328c0-0.184,0.122-0.33,0.273-0.33C423.303,288.249,423.427,288.396,423.427,288.579
					L423.427,288.579z"/>
				<g clip-path="url(#SVGID_6_)">
					<path fill="#6D6767" d="M423.156,288.949c-0.174,0-0.316-0.166-0.316-0.37c0-0.206,0.143-0.372,0.316-0.372
						c0.173,0,0.314,0.166,0.314,0.372C423.471,288.783,423.329,288.949,423.156,288.949L423.156,288.949z M423.156,288.293
						c-0.125,0-0.229,0.128-0.229,0.286c0,0.313,0.456,0.313,0.456,0C423.383,288.421,423.281,288.293,423.156,288.293
						L423.156,288.293z"/>
				</g>
				<path clip-path="url(#SVGID_6_)" fill="#F3C426" d="M423.971,289.015c0,0.162-0.122,0.293-0.272,0.293s-0.271-0.131-0.271-0.293
					c0-0.16,0.121-0.291,0.271-0.291S423.971,288.854,423.971,289.015L423.971,289.015z"/>
				<g clip-path="url(#SVGID_6_)">
					<path fill="#6D6767" d="M423.698,289.352c-0.173,0-0.315-0.15-0.315-0.337c0-0.183,0.143-0.333,0.315-0.333
						s0.315,0.15,0.315,0.333C424.014,289.201,423.871,289.352,423.698,289.352L423.698,289.352z M423.698,288.768
						c-0.125,0-0.228,0.111-0.228,0.247c0,0.274,0.456,0.274,0.456,0C423.927,288.879,423.824,288.768,423.698,288.768
						L423.698,288.768z"/>
				</g>
				<path clip-path="url(#SVGID_6_)" fill="#F3C426" d="M422.764,288.688c0,0.16-0.149,0.291-0.332,0.291
					c-0.184,0-0.333-0.131-0.333-0.291c0-0.162,0.149-0.293,0.333-0.293C422.614,288.396,422.764,288.526,422.764,288.688
					L422.764,288.688z"/>
				<g clip-path="url(#SVGID_6_)">
					<path fill="#6D6767" d="M422.432,289.022c-0.208,0-0.375-0.151-0.375-0.334c0-0.187,0.167-0.337,0.375-0.337
						c0.207,0,0.375,0.15,0.375,0.337C422.807,288.871,422.639,289.022,422.432,289.022L422.432,289.022z M422.432,288.438
						c-0.16,0-0.29,0.112-0.29,0.25c0,0.272,0.578,0.272,0.578,0C422.72,288.551,422.59,288.438,422.432,288.438L422.432,288.438z"
						/>
				</g>
				<path clip-path="url(#SVGID_6_)" fill="#F3C426" d="M423.639,289.289c0,0.312-0.169,0.565-0.378,0.565
					c-0.208,0-0.378-0.253-0.378-0.565c0-0.311,0.17-0.565,0.378-0.565C423.47,288.724,423.639,288.979,423.639,289.289
					L423.639,289.289z"/>
				<g clip-path="url(#SVGID_6_)">
					<path fill="#6D6767" d="M423.261,289.898c-0.233,0-0.421-0.272-0.421-0.609c0-0.335,0.188-0.607,0.421-0.607
						c0.235,0,0.421,0.267,0.421,0.607C423.682,289.626,423.492,289.898,423.261,289.898L423.261,289.898z M423.261,288.768
						c-0.185,0-0.334,0.233-0.334,0.521c0,0.284,0.152,0.524,0.334,0.524c0.185,0,0.335-0.236,0.335-0.524
						S423.445,288.768,423.261,288.768L423.261,288.768z"/>
				</g>
				<path clip-path="url(#SVGID_6_)" fill="#F3C426" d="M422.613,289.308c0,0.241-0.171,0.438-0.379,0.438s-0.377-0.197-0.377-0.438
					s0.169-0.438,0.377-0.438S422.613,289.066,422.613,289.308L422.613,289.308z"/>
				<g clip-path="url(#SVGID_6_)">
					<path fill="#6D6767" d="M422.234,289.788c-0.232,0-0.42-0.215-0.42-0.48c0-0.265,0.188-0.481,0.42-0.481
						c0.23,0,0.422,0.217,0.422,0.481C422.656,289.573,422.465,289.788,422.234,289.788L422.234,289.788z M422.234,288.913
						c-0.184,0-0.334,0.177-0.334,0.395s0.15,0.395,0.334,0.395s0.334-0.177,0.334-0.395S422.418,288.913,422.234,288.913
						L422.234,288.913z"/>
				</g>
				<path clip-path="url(#SVGID_6_)" fill="#F3C426" d="M422.099,289.654c0,0.213-0.128,0.384-0.286,0.384s-0.287-0.171-0.287-0.383
					v-0.001c0-0.212,0.127-0.384,0.287-0.384C421.971,289.271,422.099,289.442,422.099,289.654L422.099,289.654z"/>
				<g clip-path="url(#SVGID_6_)">
					<path fill="#6D6767" d="M421.812,290.08c-0.183,0-0.33-0.19-0.33-0.425c0-0.239,0.145-0.429,0.33-0.429
						c0.182,0,0.329,0.191,0.329,0.428C422.142,289.889,421.994,290.08,421.812,290.08L421.812,290.08z M421.812,289.313
						c-0.135,0-0.244,0.153-0.244,0.341s0.109,0.34,0.244,0.34c0.133,0,0.244-0.152,0.244-0.34S421.945,289.313,421.812,289.313
						L421.812,289.313z"/>
				</g>
				<path clip-path="url(#SVGID_6_)" fill="#F3C426" d="M424.213,289.617c0,0.254-0.197,0.457-0.439,0.457
					c-0.241,0-0.436-0.203-0.436-0.457c0-0.251,0.194-0.454,0.436-0.454C424.016,289.163,424.213,289.366,424.213,289.617
					L424.213,289.617z"/>
				<g clip-path="url(#SVGID_6_)">
					<path fill="#6D6767" d="M423.773,290.116c-0.266,0-0.48-0.224-0.48-0.499c0-0.274,0.215-0.498,0.48-0.498
						s0.482,0.224,0.482,0.498C424.256,289.893,424.039,290.116,423.773,290.116L423.773,290.116z M423.773,289.205
						c-0.217,0-0.394,0.185-0.394,0.412s0.177,0.412,0.394,0.412c0.218,0,0.395-0.185,0.395-0.412S423.991,289.205,423.773,289.205
						L423.773,289.205z"/>
				</g>
				<path clip-path="url(#SVGID_6_)" fill="#F3C426" d="M423.156,288.961c0,0.15-0.155,0.274-0.349,0.274
					c-0.192,0-0.347-0.124-0.347-0.274s0.154-0.272,0.347-0.272C423.001,288.688,423.156,288.811,423.156,288.961L423.156,288.961z"
					/>
				<g clip-path="url(#SVGID_6_)">
					<path fill="#6D6767" d="M422.808,289.277c-0.214,0-0.391-0.142-0.391-0.316s0.177-0.318,0.391-0.318s0.391,0.144,0.391,0.318
						S423.021,289.277,422.808,289.277L422.808,289.277z M422.808,288.729c-0.167,0-0.303,0.105-0.303,0.231
						c0,0.256,0.608,0.254,0.608,0C423.113,288.835,422.975,288.729,422.808,288.729L422.808,288.729z"/>
				</g>
				<path clip-path="url(#SVGID_6_)" fill="#F3C426" d="M423.215,289.563c0,0.222-0.215,0.401-0.482,0.401s-0.482-0.18-0.482-0.401
					s0.215-0.4,0.482-0.4S423.215,289.342,423.215,289.563L423.215,289.563z"/>
				<g clip-path="url(#SVGID_6_)">
					<path fill="#6D6767" d="M422.732,290.008c-0.29,0-0.525-0.199-0.525-0.444c0-0.244,0.235-0.444,0.525-0.444
						c0.289,0,0.527,0.2,0.527,0.444C423.26,289.809,423.021,290.008,422.732,290.008L422.732,290.008z M422.732,289.205
						c-0.242,0-0.439,0.161-0.439,0.358s0.197,0.357,0.439,0.357s0.44-0.16,0.44-0.357S422.975,289.205,422.732,289.205
						L422.732,289.205z"/>
				</g>
				<path clip-path="url(#SVGID_6_)" fill="#F3C426" d="M424.454,290.275c0,0.272-0.204,0.492-0.453,0.492
					c-0.25,0-0.453-0.22-0.453-0.492c0-0.271,0.203-0.493,0.453-0.493C424.25,289.782,424.454,290.004,424.454,290.275
					L424.454,290.275z"/>
				<g clip-path="url(#SVGID_6_)">
					<path fill="#6D6767" d="M424.001,290.811c-0.274,0-0.496-0.238-0.496-0.535c0-0.296,0.222-0.537,0.496-0.537
						s0.495,0.241,0.495,0.537C424.496,290.572,424.275,290.811,424.001,290.811L424.001,290.811z M424.001,289.824
						c-0.226,0-0.411,0.202-0.411,0.451c0,0.248,0.186,0.448,0.411,0.448s0.409-0.2,0.409-0.448
						C424.41,290.026,424.227,289.824,424.001,289.824L424.001,289.824z"/>
				</g>
				<path clip-path="url(#SVGID_6_)" fill="#F3C426" d="M421.979,290.147c0,0.18-0.115,0.328-0.258,0.328
					c-0.142,0-0.256-0.148-0.256-0.328c0-0.183,0.114-0.328,0.256-0.328C421.863,289.819,421.979,289.965,421.979,290.147
					L421.979,290.147z"/>
				<g clip-path="url(#SVGID_6_)">
					<path fill="#6D6767" d="M421.721,290.52c-0.164,0-0.298-0.168-0.298-0.372c0-0.205,0.134-0.371,0.298-0.371
						c0.165,0,0.301,0.166,0.301,0.371C422.021,290.352,421.886,290.52,421.721,290.52L421.721,290.52z M421.721,289.863
						c-0.117,0-0.213,0.126-0.213,0.284c0,0.315,0.426,0.313,0.426,0C421.934,289.989,421.839,289.863,421.721,289.863
						L421.721,289.863z"/>
				</g>
				<path clip-path="url(#SVGID_6_)" fill="#F3C426" d="M423.789,290.092c0,0.231-0.175,0.42-0.393,0.42
					c-0.217,0-0.392-0.188-0.392-0.42c0-0.23,0.175-0.418,0.392-0.418C423.614,289.674,423.789,289.861,423.789,290.092
					L423.789,290.092z"/>
				<g clip-path="url(#SVGID_6_)">
					<path fill="#6D6767" d="M423.396,290.555c-0.24,0-0.436-0.207-0.436-0.463c0-0.254,0.195-0.462,0.436-0.462
						s0.436,0.208,0.436,0.462C423.832,290.348,423.637,290.555,423.396,290.555L423.396,290.555z M423.396,289.717
						c-0.192,0-0.349,0.168-0.349,0.375s0.156,0.376,0.349,0.376c0.193,0,0.35-0.169,0.35-0.376S423.59,289.717,423.396,289.717
						L423.396,289.717z"/>
				</g>
				<path clip-path="url(#SVGID_6_)" fill="#F3C426" d="M422.552,290.074c0,0.201-0.155,0.364-0.348,0.364s-0.347-0.163-0.347-0.364
					s0.154-0.364,0.347-0.364S422.552,289.873,422.552,290.074L422.552,290.074z"/>
				<g clip-path="url(#SVGID_6_)">
					<path fill="#6D6767" d="M422.204,290.482c-0.216,0-0.39-0.184-0.39-0.408c0-0.226,0.174-0.408,0.39-0.408
						s0.392,0.183,0.392,0.408C422.596,290.299,422.42,290.482,422.204,290.482L422.204,290.482z M422.204,289.752
						c-0.168,0-0.304,0.146-0.304,0.322s0.136,0.321,0.304,0.321c0.167,0,0.304-0.145,0.304-0.321S422.371,289.752,422.204,289.752
						L422.204,289.752z"/>
				</g>
				<path clip-path="url(#SVGID_6_)" fill="#F3C426" d="M423.156,290.183c0,0.225-0.164,0.403-0.363,0.403
					c-0.201,0-0.361-0.179-0.361-0.403c0-0.222,0.16-0.4,0.361-0.4C422.992,289.782,423.156,289.961,423.156,290.183
					L423.156,290.183z"/>
				<g clip-path="url(#SVGID_6_)">
					<path fill="#6D6767" d="M422.793,290.627c-0.223,0-0.404-0.198-0.404-0.444c0-0.244,0.182-0.444,0.404-0.444
						c0.224,0,0.405,0.2,0.405,0.444C423.198,290.429,423.017,290.627,422.793,290.627L422.793,290.627z M422.793,289.824
						c-0.176,0-0.319,0.161-0.319,0.358c0,0.199,0.144,0.358,0.319,0.358c0.177,0,0.32-0.159,0.32-0.358
						C423.113,289.985,422.97,289.824,422.793,289.824L422.793,289.824z"/>
				</g>
				<path clip-path="url(#SVGID_6_)" fill="#F3C426" d="M421.586,287.776c0.09,0,0.725,0.256,0.725,0.256s-0.785,0.363-0.664,0.328
					c0.12-0.037,0.875-0.148,0.814-0.148s-0.663,0.695-0.482,0.658c0.18-0.035,0.543-0.475,0.573-0.475s0.392,0.693,0.422,0.656
					c0.031-0.037,0-0.691,0.031-0.691c0.03,0,0.755,0.436,0.693,0.399c-0.06-0.036-0.483-0.548-0.452-0.548
					c0.03,0,0.996,0.111,0.936,0.073c-0.061-0.036-0.634-0.364-0.634-0.364s0.423-0.476,0.332-0.476s-0.784,0.476-0.724,0.438
					c0.059-0.035,0.754-0.985,0.754-0.985l-0.695,0.402c0,0,0.123-0.584,0.062-0.547c-0.062,0.036-0.544,0.767-0.573,0.767
					c-0.03,0-0.151-0.73-0.151-0.73s0.03,0.803-0.151,0.839C422.22,287.665,421.586,287.812,421.586,287.776L421.586,287.776z"/>
				<g clip-path="url(#SVGID_6_)">
					<path fill="#6D6767" d="M422.971,289.098c-0.041,0-0.068-0.034-0.283-0.405c-0.055-0.095-0.123-0.21-0.151-0.25
						c0.001,0.02-0.032,0.054-0.062,0.087c-0.177,0.181-0.36,0.357-0.487,0.384c-0.09-0.131,0.17-0.464,0.331-0.633
						c-0.034,0.01-0.072,0.016-0.113,0.023c-0.209,0.033-0.478,0.076-0.546,0.096c-0.076-0.072-0.076-0.078,0.597-0.391
						c-0.124-0.003-0.511-0.156-0.645-0.188c0.108-0.089,0.406-0.154,0.613-0.198l0.168-0.036c0.088-0.019,0.13-0.426,0.116-0.797
						c0.131,0.29,0.197,0.617,0.222,0.692c-0.003-0.05,0.108-0.209,0.198-0.337c0.217-0.306,0.293-0.41,0.327-0.431
						c0.077,0.027,0.11,0.068,0.003,0.594l0.631-0.447c0.022,0.077-0.342,0.601-0.557,0.881c0.179-0.149,0.477-0.338,0.548-0.338
						c0.062,0.054,0.087,0.11-0.292,0.537c0.035-0.009,0.56,0.273,0.616,0.308l-0.054,0.087c-0.123,0-0.525-0.041-0.75-0.065
						l-0.154-0.014c0.068,0.008,0.424,0.433,0.475,0.467l0,0c-0.014,0.013-0.039,0.002-0.074-0.02
						c-0.244-0.075-0.582-0.271-0.646-0.3c0.032,0.022,0.032,0.175,0.032,0.287c0,0.305-0.004,0.362-0.025,0.389L422.971,289.098
						L422.971,289.098z M422.552,288.352c0.036,0,0.042,0.009,0.21,0.299c0.056,0.096,0.133,0.227,0.184,0.305
						c0-0.07,0-0.178,0-0.264c0-0.34,0-0.375,0.06-0.375c0.011,0,0.036,0,0.521,0.289c-0.152-0.142-0.336-0.359-0.321-0.404
						c0.05-0.03,0.112-0.024,0.204-0.016c0.205,0.021,0.555,0.057,0.705,0.063c-0.14-0.034-0.587-0.29-0.587-0.29
						c0.144-0.241,0.315-0.457,0.322-0.502c-0.036,0.041-0.515,0.354-0.659,0.455c0-0.004,0.003-0.008,0.003-0.011
						c0-0.009,0.003-0.019,0.011-0.031c0.078-0.192,0.469-0.718,0.672-0.997l-0.637,0.466c-0.019-0.244,0.017-0.486,0.012-0.553
						c-0.005,0.06-0.146,0.26-0.25,0.407c-0.26,0.37-0.265,0.37-0.297,0.37c-0.036,0-0.058,0-0.13-0.401
						c0.005,0.233-0.04,0.484-0.165,0.509l-0.164,0.037c-0.18,0.037-0.424,0.09-0.557,0.108c0.209,0.002,0.639,0.174,0.639,0.174
						c-0.134,0.107-0.315,0.212-0.455,0.289c0.099-0.025,0.217-0.044,0.318-0.062l0.25-0.042c-0.006,0.011-0.013,0.025-0.022,0.041
						c-0.003,0.004-0.006,0.009-0.009,0.013c-0.11,0.176-0.419,0.551-0.42,0.621c0.094-0.046,0.307-0.265,0.423-0.383
						C422.511,288.366,422.525,288.352,422.552,288.352L422.552,288.352z"/>
				</g>
				<path clip-path="url(#SVGID_6_)" fill="#273B93" d="M419.619,293.674c0.014,0.076,0.496,1.387,1.235,1.352
					c0.741-0.037,1.042-0.256,1.013-0.274s-0.348-0.237-0.529-0.71c-0.181-0.475-0.211-0.677-0.211-0.677L419.619,293.674z"/>
				<path clip-path="url(#SVGID_6_)" fill="#273B93" d="M422.261,293.163c0,0,0.542,1.297,0.784,1.48
					c0.241,0.183,0.801,0.328,1.043,0.31c0.241-0.019,0.527,0,0.527,0s-0.242-0.127-0.437-0.84c-0.199-0.712-0.259-0.95-0.259-0.95
					H422.261z"/>
				<path clip-path="url(#SVGID_6_)" fill="#273B93" d="M425.58,293.639c0,0-0.104,0.949,0,1.188
					c0.107,0.234,0.635,0.674,0.635,0.674s0.635-0.09,0.65-0.674c0.014-0.587-0.213-1.134-0.213-1.134L425.58,293.639z"/>
				<path clip-path="url(#SVGID_6_)" fill="#255329" d="M419.104,291.979c0,0,0.03,0.146,0,0.256
					c-0.031,0.107-0.286,0.4-0.286,0.638s0.303,0.967,1.223,0.985c0.922,0.019,2.082-0.601,2.068-0.619
					c-0.016-0.019-2.204-1.79-2.235-1.771C419.846,291.485,419.104,292.014,419.104,291.979L419.104,291.979z"/>
				<g clip-path="url(#SVGID_6_)">
					<path fill="#010101" d="M420.078,293.901l-0.039-0.001c-0.953-0.019-1.264-0.771-1.264-1.028c0-0.169,0.117-0.359,0.204-0.497
						c0.038-0.062,0.073-0.123,0.082-0.154c0.028-0.094,0.001-0.227,0-0.232c0.091-0.068,0.517-0.366,0.677-0.479l0.115-0.08h0.001
						c0.11,0,2.271,1.762,2.287,1.778C422.115,293.325,420.977,293.901,420.078,293.901L420.078,293.901z M419.127,292.02
						c0.031,0.016,0.045,0.132,0.02,0.226c-0.012,0.043-0.048,0.101-0.094,0.174c-0.08,0.13-0.189,0.308-0.189,0.453
						c0,0.203,0.281,0.925,1.179,0.941l0.036,0.044v-0.043c0.891,0,1.941-0.561,1.998-0.604c-0.034,0.058-2.097-1.646-2.215-1.703
						l-0.08,0.078C419.296,291.926,419.172,292.002,419.127,292.02L419.127,292.02z"/>
				</g>
				<path clip-path="url(#SVGID_6_)" fill="#255329" d="M425.188,293.238c0,0,0.197,0.638,0.271,0.71
					c0.077,0.074,0.106,0.219,0.12,0.219c0.016,0,1.27,0.328,1.27,0.328s0.119-0.417-0.062-0.745
					c-0.181-0.331-0.859-1.188-0.859-1.188L425.188,293.238z"/>
				<g clip-path="url(#SVGID_6_)">
					<path fill="#010101" d="M426.877,294.55l-0.039-0.012c0,0-1.213-0.318-1.265-0.327c-0.072-0.116-0.101-0.19-0.144-0.229
						c-0.078-0.08-0.25-0.622-0.282-0.731l0.753-0.721c0.091,0.04,0.744,0.869,0.926,1.199c0.188,0.338,0.068,0.761,0.064,0.779
						L426.877,294.55L426.877,294.55z M425.895,292.589l-0.676,0.682c0.105,0.263,0.229,0.606,0.272,0.648
						c0.056,0.054,0.088,0.138,0.108,0.19c-0.012,0.017,0.002,0.017,1.219,0.333c0.021-0.109,0.07-0.423-0.068-0.673
						C426.573,293.447,425.901,292.598,425.895,292.589L425.895,292.589z"/>
				</g>
				<path clip-path="url(#SVGID_6_)" fill="#255329" d="M426.049,292.453c0.03,0,0.333,0.31,0.574,0.145
					c0.242-0.162,0.634-0.601,0.634-0.601s-0.331,0.128-0.573,0.11C426.443,292.086,426.063,292.471,426.049,292.453
					L426.049,292.453z"/>
				<g clip-path="url(#SVGID_6_)">
					<path fill="#010101" d="M426.467,292.689c-0.163,0-0.314-0.11-0.394-0.17l-0.156-0.051l0.108-0.05
						c0.006-0.005,0.012-0.008,0.018-0.009c0.195-0.156,0.484-0.346,0.633-0.348c0.287,0,0.562-0.104,0.565-0.107
						c0.031,0.089-0.35,0.515-0.594,0.68C426.594,292.67,426.532,292.689,426.467,292.689L426.467,292.689z M426.061,292.495
						L426.061,292.495c0.186,0.012,0.388,0.169,0.539,0.068c0.164-0.112,0.406-0.36,0.536-0.499
						c-0.099,0.049-0.235,0.083-0.407,0.087c-0.227,0-0.459,0.188-0.57,0.277l-0.07,0.048
						C426.082,292.486,426.07,292.494,426.061,292.495L426.061,292.495z"/>
				</g>
				<path clip-path="url(#SVGID_6_)" fill="#255329" d="M419.061,292.051c0,0-0.092-0.31-0.332-0.328
					c-0.242-0.019-0.682,0.037-0.832-0.108c-0.15-0.147-0.195-0.494-0.272-0.476c-0.073,0.019-0.271,0-0.284,0
					c-0.018,0-0.091-0.291,0.119-0.439c0.213-0.145,0.395-0.017,0.515-0.126s0.302-0.184,0.542-0.202
					c0.242-0.017,0.635,0.367,0.816,0.458s0.573,0.201,0.725,0.109c0.15-0.091,0.996-0.494,1.298-0.512
					c0.302-0.019,0.935-0.037,1.177-0.019c0.24,0.019,1.193,0.165,1.479,0.33c0.287,0.163,1.812,0.801,2.022,0.947
					c0.211,0.147,0.68,0.365,0.68,0.365s-0.83,0.985-1.236,1.15c-0.408,0.163-1.707,0.419-2.477,0.365
					c-0.771-0.054-1.374-0.147-1.964-0.512c-0.588-0.363-1.222-0.713-1.251-0.894c-0.03-0.183-0.016-0.42-0.016-0.42
					L419.061,292.051z"/>
				<g clip-path="url(#SVGID_6_)">
					<path fill="#010101" d="M423.23,293.616c-0.082,0-0.16-0.002-0.234-0.007c-0.82-0.059-1.407-0.162-1.982-0.519l-0.324-0.198
						c-0.57-0.345-0.92-0.564-0.949-0.726c-0.029-0.183-0.017-0.419-0.016-0.429l-0.647,0.353c-0.06-0.03-0.144-0.309-0.353-0.324
						c-0.047-0.004-0.104-0.004-0.163-0.004l-0.119-0.044v0.044c-0.229,0-0.463-0.011-0.577-0.118
						c-0.084-0.083-0.136-0.216-0.176-0.324c-0.021-0.056-0.051-0.129-0.066-0.141c-0.027,0.018-0.203,0.006-0.266,0.003
						c-0.098-0.137-0.119-0.381,0.078-0.517c0.115-0.08,0.226-0.08,0.319-0.087c0.1,0,0.15-0.003,0.188-0.038
						c0.135-0.121,0.332-0.193,0.57-0.211h0.001c0.198,0,0.429,0.171,0.615,0.31c0.088,0.064,0.165,0.122,0.222,0.149
						c0.185,0.094,0.57,0.181,0.682,0.112c0.156-0.095,1.009-0.499,1.318-0.517c0.305-0.019,0.94-0.034,1.184-0.019
						c0.216,0.016,1.191,0.157,1.497,0.333c0.13,0.076,0.513,0.246,0.913,0.424c0.488,0.219,0.994,0.444,1.112,0.527
						c0.209,0.146,0.675,0.362,0.675,0.362c-0.02,0.106-0.828,1.062-1.241,1.229C425.116,293.393,424.001,293.616,423.23,293.616
						L423.23,293.616z M419.752,291.701c0.06,0.046,0.045,0.277,0.075,0.452c0.021,0.129,0.472,0.401,0.908,0.666l0.323,0.198
						c0.561,0.347,1.137,0.448,1.943,0.503c0.759,0.053,2.049-0.195,2.458-0.359c0.369-0.15,1.113-1.014,1.21-1.126
						c-0.072,0.016-0.472-0.182-0.662-0.314c-0.11-0.076-0.637-0.311-1.1-0.519c-0.401-0.18-0.788-0.352-0.919-0.427
						c-0.274-0.158-1.203-0.305-1.462-0.323c-0.238-0.019-0.87,0-1.17,0.019c-0.284,0.016-1.115,0.405-1.279,0.505
						c-0.151,0.089-0.564-0.008-0.767-0.108c-0.06-0.029-0.142-0.091-0.233-0.157c-0.176-0.131-0.396-0.294-0.545-0.294
						c-0.232,0.017-0.412,0.082-0.531,0.189c-0.062,0.056-0.15,0.031-0.219,0.061c-0.121,0-0.206,0.005-0.299,0.07
						c-0.173,0.119-0.121,0.354-0.111,0.377c0.023-0.013,0.089-0.009,0.148-0.01l0.108-0.009c0.065,0,0.095,0.076,0.14,0.194
						c0.039,0.1,0.088,0.225,0.157,0.293c0.089,0.087,0.312,0.094,0.516,0.094h0.119c0.062,0,0.12,0,0.169,0.004
						c0.269,0.021,0.368,0.344,0.371,0.358L419.752,291.701L419.752,291.701z"/>
				</g>
				<path clip-path="url(#SVGID_6_)" fill="#255329" d="M418.124,290.864c-0.03,0.019-0.182,0.091-0.15,0.128
					c0.03,0.038,0.091,0.146,0.271,0.128c0.181-0.017,0.376-0.146,0.376-0.146S418.396,290.848,418.124,290.864L418.124,290.864z"/>
				<g clip-path="url(#SVGID_6_)">
					<path fill="#010101" d="M418.207,291.166c-0.156,0-0.225-0.092-0.259-0.136c-0.013-0.104,0.036-0.138,0.13-0.188
						c0.354-0.016,0.557,0.09,0.564,0.095c-0.006,0.08-0.203,0.208-0.394,0.227L418.207,291.166L418.207,291.166z M418.178,290.907
						c-0.123,0.047-0.158,0.071-0.167,0.082c0.036,0.03,0.082,0.09,0.196,0.09v0.044l0.033-0.047
						c0.119-0.012,0.249-0.077,0.314-0.112C418.486,290.96,418.343,290.907,418.178,290.907L418.178,290.907z"/>
				</g>
				<path clip-path="url(#SVGID_6_)" fill="#010101" d="M418.107,290.901v0.202c0,0,0.213,0.072,0.213,0.017
					c0-0.054,0.016-0.182-0.031-0.182C418.245,290.938,418.124,290.92,418.107,290.901L418.107,290.901z"/>
				<g clip-path="url(#SVGID_6_)">
					<path fill="none" d="M418.107,290.901v0.202c0,0,0.213,0.072,0.213,0.017c0-0.054,0.016-0.182-0.031-0.182
						C418.245,290.938,418.124,290.92,418.107,290.901z"/>
				</g>
				<path clip-path="url(#SVGID_6_)" fill="#102015" d="M420.221,291.052c0.055-0.113,0-0.27,0.31-0.45
					c0.31-0.182,0.85-0.129,0.85-0.129s-0.155,0.144-0.16,0.289c-0.007,0.149,0.01,0.214,0.01,0.214s-0.293-0.117-0.517-0.044
					C420.488,291.002,420.227,291.072,420.221,291.052L420.221,291.052z"/>
				<g clip-path="url(#SVGID_6_)">
					<path fill="#0B0C14" d="M420.233,291.101l-0.058-0.046l0.031-0.104c0.022-0.108,0.053-0.241,0.303-0.387
						c0.305-0.179,0.875-0.135,0.875-0.136c0.023,0.076-0.117,0.208-0.121,0.336c-0.006,0.138,0.008,0.2,0.008,0.2
						c-0.059,0.05-0.224-0.014-0.395-0.014c-0.057,0-0.107,0.007-0.152,0.021C420.576,291.021,420.303,291.101,420.233,291.101
						L420.233,291.101z M421.205,290.51c-0.16,0-0.459,0.016-0.652,0.13c-0.217,0.125-0.241,0.234-0.261,0.33l-0.012,0.037
						c0.083-0.018,0.246-0.062,0.418-0.117c0.155-0.047,0.381-0.007,0.485,0.026c-0.008-0.033-0.011-0.086-0.008-0.154
						c0.006-0.101,0.064-0.192,0.113-0.254C421.266,290.51,421.235,290.508,421.205,290.51L421.205,290.51z"/>
				</g>
				<path clip-path="url(#SVGID_6_)" fill="#102015" d="M421.61,290.42c-0.032,0.021-0.267,0.337-0.241,0.434
					c0.027,0.096,0.34,0.329,0.443,0.31c0.102-0.021,0.566-0.29,0.594-0.427c0.025-0.135,0.048-0.316,0.008-0.354
					C422.379,290.345,421.613,290.434,421.61,290.42L421.61,290.42z"/>
				<g clip-path="url(#SVGID_6_)">
					<path fill="#0B0C14" d="M421.798,291.207c-0.125,0-0.438-0.228-0.472-0.343c-0.034-0.123,0.222-0.457,0.262-0.479
						c0.062-0.006,0.147-0.014,0.25-0.023c0.164-0.014,0.379-0.031,0.495-0.031l0.114,0.024c0.041,0.041,0.042,0.172,0,0.391
						c-0.03,0.162-0.52,0.44-0.629,0.46L421.798,291.207L421.798,291.207z M422.383,290.413c-0.164,0.003-0.375,0.021-0.538,0.035
						c-0.106,0.01-0.194,0.017-0.224,0.017c-0.033,0.03-0.229,0.314-0.211,0.378c0.021,0.073,0.291,0.277,0.388,0.277v0.043
						l0.005-0.043c0.104-0.02,0.541-0.287,0.561-0.392C422.4,290.532,422.395,290.43,422.383,290.413L422.383,290.413z"/>
				</g>
				<path clip-path="url(#SVGID_6_)" fill="#102015" d="M422.627,290.37c-0.057,0.071-0.035,0.412-0.014,0.45s0.389,0.486,0.47,0.51
					c0.078,0.026,0.672-0.045,0.721-0.123c0.048-0.075,0.19-0.406,0.149-0.483c-0.043-0.075-0.172-0.181-0.566-0.282
					C422.992,290.338,422.758,290.351,422.627,290.37L422.627,290.37z"/>
				<g clip-path="url(#SVGID_6_)">
					<path fill="#0B0C14" d="M423.146,291.379l-0.075-0.006c-0.104-0.032-0.482-0.507-0.496-0.53
						c-0.026-0.051-0.053-0.413,0.021-0.501c0.233-0.071,0.483-0.025,0.801,0.057c0.336,0.087,0.529,0.188,0.595,0.304
						c0.06,0.109-0.116,0.475-0.151,0.529C423.777,291.332,423.264,291.379,423.146,291.379L423.146,291.379z M422.814,290.4
						c-0.075,0-0.135,0.007-0.179,0.013c-0.015,0.031-0.005,0.339,0.016,0.389c0.03,0.052,0.38,0.463,0.444,0.487l0.05,0.005
						c0.203,0,0.581-0.067,0.622-0.111c0.064-0.1,0.172-0.39,0.146-0.438c-0.035-0.065-0.158-0.163-0.538-0.263
						C423.167,290.427,422.977,290.4,422.814,290.4L422.814,290.4z"/>
				</g>
				<path clip-path="url(#SVGID_6_)" fill="#102015" d="M424.139,290.801c0.097,0.058,0.656,0.388,0.987,0.651
					c0.331,0.267,0.464,0.568,0.562,0.595c0.096,0.025,0.485-0.258,0.501-0.336c0.016-0.076-0.476-0.49-0.806-0.676
					C425.051,290.848,424.139,290.82,424.139,290.801L424.139,290.801z"/>
				<g clip-path="url(#SVGID_6_)">
					<path fill="#0B0C14" d="M425.701,292.092L425.701,292.092l-0.025-0.003c-0.057-0.016-0.105-0.081-0.182-0.182
						c-0.092-0.115-0.212-0.272-0.395-0.421c-0.302-0.241-0.791-0.532-0.949-0.629c0-0.003,0.001-0.006,0.002-0.009
						c-0.01-0.001-0.017-0.001-0.021-0.004c0.008,0.001,0.014,0.003,0.021,0.004c0.023-0.082,0.08-0.078,0.154-0.069
						c0.295,0.025,0.846,0.074,1.098,0.216c0.254,0.145,0.854,0.594,0.825,0.726C426.21,291.825,425.828,292.092,425.701,292.092
						L425.701,292.092z M424.158,290.851c0.236,0.052,0.702,0.335,0.994,0.569c0.192,0.152,0.317,0.316,0.41,0.437
						c0.057,0.072,0.107,0.142,0.136,0.148h0.003c0.1,0,0.426-0.245,0.445-0.304c-0.018-0.065-0.455-0.443-0.783-0.629
						c-0.237-0.134-0.795-0.184-1.065-0.208C424.229,290.858,424.186,290.854,424.158,290.851L424.158,290.851z"/>
				</g>
				<path clip-path="url(#SVGID_6_)" fill="#102015" d="M424.021,291.079c-0.047,0.053,0.599,1.412,0.721,1.459
					c0.122,0.044,0.859-0.266,0.849-0.369c-0.01-0.103-0.203-0.31-0.656-0.611C424.479,291.254,424.111,291.052,424.021,291.079
					L424.021,291.079z"/>
				<g clip-path="url(#SVGID_6_)">
					<path fill="#0B0C14" d="M424.775,292.585l-0.049-0.007c-0.139-0.052-0.693-1.235-0.744-1.448l0.057-0.097
						c0.171,0,0.701,0.341,0.921,0.487c0.298,0.2,0.657,0.475,0.673,0.646C425.491,292.359,424.957,292.585,424.775,292.585
						L424.775,292.585z M424.039,291.12c0.023,0.077,0.6,1.309,0.719,1.377l0.018,0.001c0.176,0,0.742-0.256,0.772-0.331
						c-0.003-0.021-0.046-0.179-0.636-0.574C424.389,291.244,424.116,291.12,424.039,291.12L424.039,291.12z"/>
				</g>
				<path clip-path="url(#SVGID_6_)" fill="#102015" d="M423.221,291.576c-0.102,0.069-0.262,1.29-0.158,1.348
					c0.099,0.059,1.35-0.148,1.397-0.283c0.048-0.136-0.515-1.214-0.679-1.214C423.615,291.427,423.316,291.479,423.221,291.576
					L423.221,291.576z"/>
				<g clip-path="url(#SVGID_6_)">
					<path fill="#0B0C14" d="M423.142,292.979l-0.103-0.016c-0.034-0.021-0.049-0.071-0.053-0.174
						c-0.012-0.295,0.098-1.172,0.212-1.248c0.104-0.111,0.432-0.156,0.583-0.156c0.039,0,0.102,0.023,0.234,0.211
						c0.194,0.273,0.532,0.924,0.484,1.061C424.441,292.822,423.363,292.979,423.142,292.979L423.142,292.979z M423.781,291.471
						c-0.161,0-0.447,0.053-0.529,0.136c-0.095,0.095-0.23,1.185-0.163,1.285h0.053c0.319,0,1.219-0.175,1.278-0.267
						c0.02-0.073-0.221-0.614-0.466-0.968C423.828,291.477,423.783,291.471,423.781,291.471L423.781,291.471z"/>
				</g>
				<path clip-path="url(#SVGID_6_)" fill="#102015" d="M421.93,291.317c-0.132,0.149-0.106,1.284-0.049,1.355
					c0.059,0.069,0.802,0.304,0.883,0.219c0.078-0.084,0.185-1.361,0.111-1.457c-0.076-0.097-0.283-0.33-0.443-0.349
					C422.271,291.066,422.005,291.273,421.93,291.317L421.93,291.317z"/>
				<g clip-path="url(#SVGID_6_)">
					<path fill="#0B0C14" d="M422.688,292.954c-0.199,0-0.773-0.173-0.839-0.254c-0.077-0.094-0.099-1.246,0.048-1.411
						c0.178-0.121,0.367-0.248,0.512-0.248c0.232,0.026,0.473,0.332,0.5,0.366c0.082,0.106-0.016,1.409-0.113,1.515l-0.013,0.014
						L422.688,292.954L422.688,292.954z M422.424,291.129c-0.135,0-0.316,0.122-0.413,0.188c-0.156,0.151-0.149,1.229-0.094,1.332
						c0.044,0.044,0.562,0.218,0.771,0.218v0.044l0.045-0.049c0.072-0.102,0.164-1.298,0.105-1.403
						c-0.082-0.104-0.274-0.313-0.412-0.329H422.424L422.424,291.129z"/>
				</g>
				<path clip-path="url(#SVGID_6_)" fill="#102015" d="M420.254,291.298c-0.124,0.116-0.13,0.421,0.006,0.472
					c0.131,0.051,0.463,0.228,0.772,0.388c0.312,0.16,0.487,0.354,0.578,0.348c0.091-0.005,0.175-1.144,0.079-1.207
					c-0.096-0.064-0.381-0.115-0.645-0.103C420.777,291.207,420.386,291.239,420.254,291.298L420.254,291.298z"/>
				<g clip-path="url(#SVGID_6_)">
					<path fill="#0B0C14" d="M421.605,292.548c-0.061,0-0.132-0.051-0.236-0.126c-0.093-0.065-0.209-0.149-0.357-0.227l-0.138-0.07
						c-0.263-0.139-0.517-0.271-0.63-0.315c-0.061-0.023-0.104-0.083-0.12-0.168c-0.022-0.113,0.005-0.285,0.1-0.375
						c0.177-0.08,0.671-0.108,0.818-0.114c0.331-0.001,0.575,0.045,0.673,0.11c0.119,0.082,0.035,0.967-0.021,1.175L421.605,292.548
						L421.605,292.548z M421.13,291.236c-0.366,0.015-0.739,0.049-0.858,0.102c-0.051,0.051-0.084,0.18-0.062,0.286
						c0.012,0.056,0.035,0.093,0.066,0.104c0.113,0.044,0.371,0.179,0.641,0.318l0.137,0.072c0.151,0.078,0.271,0.163,0.365,0.231
						c0.08,0.057,0.155,0.11,0.188,0.11v0.044l0.002-0.044c0.059-0.082,0.119-1.04,0.054-1.131
						C421.595,291.285,421.375,291.236,421.13,291.236L421.13,291.236z"/>
				</g>
				<g clip-path="url(#SVGID_6_)">
					<g>
						<defs>
							<rect id="SVGID_7_" x="414.166" y="304.983" width="3.021" height="3.319"/>
						</defs>
						<clipPath id="SVGID_8_">
							<use xlink:href="#SVGID_7_"  overflow="visible"/>
						</clipPath>
						<path clip-path="url(#SVGID_8_)" fill="#C22026" d="M414.754,305.742c0.217-0.214,0.559-0.734,1.021-0.759
							c0.462-0.022,0.949,0.404,0.949,0.404s0.487,1.987,0.463,1.987c-0.025,0-0.806,0.57-0.827,0.57
							c-0.026,0-0.344-0.783-0.633-0.711c-0.293,0.071-0.269,1.139-0.316,1.065c-0.049-0.07-1.292-1.54-1.244-1.587
							C414.218,306.665,414.777,305.812,414.754,305.742L414.754,305.742z"/>
					</g>
				</g>
				<g clip-path="url(#SVGID_6_)">
					<g>
						<defs>
							<rect id="SVGID_9_" x="427.6" y="304.983" width="2.772" height="2.89"/>
						</defs>
						<clipPath id="SVGID_10_">
							<use xlink:href="#SVGID_9_"  overflow="visible"/>
						</clipPath>
						<path clip-path="url(#SVGID_10_)" fill="#C22026" d="M427.6,305.481c0.145-0.023,0.804-0.521,1.264-0.498
							c0.463,0.024,0.73,0.237,0.975,0.45c0.243,0.213,0.534,0.759,0.534,0.759s-0.583,1.61-0.631,1.61
							c-0.052,0-0.292,0.143-0.344,0.024c-0.048-0.119-0.193-0.497-0.484-0.546c-0.294-0.047-0.365,0.521-0.365,0.521L427.6,305.481
							z"/>
					</g>
				</g>
				<g clip-path="url(#SVGID_6_)">
					<g>
						<defs>
							<rect id="SVGID_11_" x="426.748" y="305.979" width="6.396" height="5.046"/>
						</defs>
						<clipPath id="SVGID_12_">
							<use xlink:href="#SVGID_11_"  overflow="visible"/>
						</clipPath>
						<path clip-path="url(#SVGID_12_)" fill="#F5DC61" d="M427.914,305.979c0,0.144,0.9,2.37,2.361,2.796
							c1.461,0.427,1.924-0.401,2.091-0.688c0.171-0.284,0.778-0.26,0.778-0.26s-0.145,2.084-0.388,2.344
							c-0.243,0.262-0.438,0.83-1.801,0.854c-1.362,0.024-2.601-1.279-3.017-1.659c-0.414-0.378-0.949-1.373-1.167-1.822
							C426.554,307.093,427.939,306.025,427.914,305.979L427.914,305.979z"/>
					</g>
				</g>
				<g clip-path="url(#SVGID_6_)">
					<g>
						<defs>
							<rect id="SVGID_13_" x="411.865" y="305.602" width="6.098" height="5.429"/>
						</defs>
						<clipPath id="SVGID_14_">
							<use xlink:href="#SVGID_13_"  overflow="visible"/>
						</clipPath>
						<path clip-path="url(#SVGID_14_)" fill="#F5DC61" d="M412.053,310.408c0.023,0,0.656,0.688,1.58,0.616
							c0.926-0.07,2.507-0.616,3.235-1.563c0.73-0.947,1.095-1.966,1.095-1.966s-1.07-1.894-1.095-1.894s-0.12,0.614-0.315,1.018
							c-0.193,0.402-0.73,1.539-1.631,1.895c-0.9,0.356-0.9,0.498-1.264,0.45c-0.367-0.046-1.314-0.615-1.314-0.64
							s-0.461,1.112-0.461,1.112S411.785,310.171,412.053,310.408L412.053,310.408z"/>
					</g>
				</g>
				<g clip-path="url(#SVGID_6_)">
					<g>
						<defs>
							<rect id="SVGID_15_" x="413.014" y="305.274" width="18.869" height="7.908"/>
						</defs>
						<clipPath id="SVGID_16_">
							<use xlink:href="#SVGID_15_"  overflow="visible"/>
						</clipPath>
						<path clip-path="url(#SVGID_16_)" fill="#F5DC61" d="M414.734,305.675c-0.068,0-1.788,0.94-1.72,1.341
							c0.067,0.402,2.96,6.098,9.152,6.164c6.193,0.068,9.978-5.158,9.702-6.028c-0.272-0.873-2.201-1.877-2.201-1.877
							s0.48,0.4,0.413,0.938c-0.069,0.535-2.202,5.159-7.57,5.026c-5.366-0.136-7.912-4.223-7.912-4.691
							S414.874,305.81,414.734,305.675L414.734,305.675z"/>
					</g>
				</g>
				<g clip-path="url(#SVGID_6_)">
					<g>
						<defs>
							<rect id="SVGID_17_" x="431.516" y="307.303" width="1.916" height="2.893"/>
						</defs>
						<clipPath id="SVGID_18_">
							<use xlink:href="#SVGID_17_"  overflow="visible"/>
						</clipPath>
						<path clip-path="url(#SVGID_18_)" fill="#C22026" d="M431.516,309.817c0.146-0.119,1.047-2.583,1.559-2.512
							c0.512,0.069,0.339,0.804,0.291,0.994c-0.049,0.19-0.561,1.896-0.561,1.896s0.025-0.402-0.316-0.497
							C432.147,309.604,431.588,309.862,431.516,309.817L431.516,309.817z"/>
					</g>
				</g>
				<g clip-path="url(#SVGID_6_)">
					<g>
						<defs>
							<rect id="SVGID_19_" x="411.296" y="307.384" width="1.926" height="3.058"/>
						</defs>
						<clipPath id="SVGID_20_">
							<use xlink:href="#SVGID_19_"  overflow="visible"/>
						</clipPath>
						<path clip-path="url(#SVGID_20_)" fill="#C22026" d="M412.053,310.433c0-0.133-0.414-0.602,0.068-0.736
							c0.48-0.134,1.101,0.135,1.101,0.135s-0.345-1.007-0.757-1.81c-0.412-0.804-0.551-0.67-0.895-0.537
							c-0.344,0.136-0.338,0.489-0.13,1.026C411.646,309.046,412.053,310.567,412.053,310.433L412.053,310.433z"/>
					</g>
				</g>
				<polygon clip-path="url(#SVGID_6_)" fill="#F2C326" points="417.729,305.838 418.326,303.815 416.666,302.544 418.746,302.496 
					419.422,300.498 420.109,302.491 422.188,302.53 420.536,303.81 421.142,305.83 419.433,304.63 				"/>
				<path clip-path="url(#SVGID_6_)" fill="#FFFFFF" d="M428.935,295.307v7.787c0.015,3.803-3.866,7.134-6.444,7.783
					c-2.574-0.649-6.453-3.98-6.438-7.783v-7.787H428.935z"/>
				<g clip-path="url(#SVGID_6_)">
					<g>
						<defs>
							<rect id="SVGID_21_" x="416.052" y="295.307" width="12.883" height="5.968"/>
						</defs>
						<clipPath id="SVGID_22_">
							<use xlink:href="#SVGID_21_"  overflow="visible"/>
						</clipPath>
						<path clip-path="url(#SVGID_22_)" fill="#C22026" d="M416.052,295.307l0.013,4.872c0,0,0.06-0.101,0.906-0.04
							s0.922,1.074,1.841,1.074c0.921,0,0.921-1.074,1.841-1.074s0.92,1.074,1.838,1.074c0.922,0,0.922-1.074,1.842-1.074
							s0.92,1.074,1.893,1.136c0.867-0.062,0.867-1.136,1.792-1.196l0.918,0.061v-4.832H416.052z"/>
					</g>
				</g>
				<g clip-path="url(#SVGID_6_)">
					<path fill="#010101" d="M426.225,301.318h-0.004c-0.502-0.033-0.752-0.324-0.994-0.606c-0.232-0.271-0.454-0.528-0.895-0.528
						c-0.439,0-0.656,0.252-0.887,0.521c-0.232,0.271-0.473,0.552-0.955,0.552c-0.479,0-0.719-0.28-0.951-0.552
						c-0.23-0.269-0.447-0.521-0.887-0.521s-0.657,0.252-0.888,0.521c-0.231,0.271-0.473,0.552-0.953,0.552
						c-0.494,0-0.755-0.283-1.006-0.557c-0.229-0.252-0.447-0.489-0.838-0.516c-0.753-0.055-0.87,0.023-0.872,0.025l-0.088-4.902
						l12.927-0.041l0.042,4.873l-0.963-0.016c-0.444,0.027-0.662,0.303-0.892,0.596c-0.222,0.278-0.449,0.566-0.896,0.6H426.225
						L426.225,301.318z M424.332,300.097c0.48,0,0.725,0.284,0.96,0.56c0.23,0.267,0.466,0.544,0.933,0.575
						c0.406-0.029,0.61-0.291,0.829-0.568c0.231-0.292,0.472-0.595,0.96-0.628l0.924,0.062l-0.047-4.79l-12.839,0.044l0.056,4.783
						c0.054-0.065,0.323-0.077,0.866-0.037c0.426,0.029,0.665,0.291,0.896,0.544c0.249,0.272,0.484,0.528,0.941,0.528
						c0.44,0,0.657-0.253,0.888-0.521c0.232-0.271,0.473-0.551,0.953-0.551s0.719,0.279,0.952,0.551
						c0.229,0.269,0.447,0.521,0.886,0.521c0.442,0,0.66-0.253,0.89-0.521C423.613,300.376,423.854,300.097,424.332,300.097
						L424.332,300.097z"/>
				</g>
				<g clip-path="url(#SVGID_6_)">
					<g>
						<defs>
							<rect id="SVGID_23_" x="416.052" y="301.752" width="12.883" height="2.682"/>
						</defs>
						<clipPath id="SVGID_24_">
							<use xlink:href="#SVGID_23_"  overflow="visible"/>
						</clipPath>
						<path clip-path="url(#SVGID_24_)" fill="#3A61AD" d="M416.052,301.752v1.609h0.919c0.847,0.061,0.922,1.072,1.841,1.072
							c0.921,0,0.921-1.072,1.841-1.072s0.92,1.072,1.838,1.072c0.922,0,0.922-1.072,1.842-1.072s0.869,1.013,1.841,1.072
							c0.866-0.06,0.915-1.012,1.841-1.072h0.921v-1.609h-0.921c-0.922,0-0.922,1.072-1.841,1.072c-0.921,0-0.921-1.072-1.841-1.072
							s-0.92,1.072-1.842,1.072c-0.918,0-0.918-1.072-1.838-1.072s-0.92,1.072-1.841,1.072c-0.919,0-0.919-1.072-1.841-1.072
							H416.052z"/>
					</g>
				</g>
				<g clip-path="url(#SVGID_6_)">
					<g>
						<defs>
							<rect id="SVGID_25_" x="416.328" y="304.946" width="12.328" height="2.709"/>
						</defs>
						<clipPath id="SVGID_26_">
							<use xlink:href="#SVGID_25_"  overflow="visible"/>
						</clipPath>
						<path clip-path="url(#SVGID_26_)" fill="#3A61AD" d="M416.328,304.971l0.643,1.612c0.847,0.061,0.922,1.072,1.841,1.072
							c0.921,0,0.921-1.072,1.841-1.072s0.92,1.072,1.838,1.072c0.922,0,0.922-1.072,1.842-1.072s0.869,1.013,1.841,1.072
							c0.866-0.06,0.892-1.012,1.818-1.072l0.665-1.637l-0.643,0.024c-0.922,0-0.922,1.075-1.841,1.075
							c-0.921,0-0.921-1.075-1.841-1.075s-0.92,1.075-1.842,1.075c-0.918,0-0.918-1.075-1.838-1.075s-0.92,1.075-1.841,1.075
							c-0.919,0-0.919-1.075-1.841-1.075H416.328z"/>
					</g>
				</g>
				<g clip-path="url(#SVGID_6_)">
					<g>
						<defs>
							<rect id="SVGID_27_" x="419.495" y="308.193" width="6.005" height="2.684"/>
						</defs>
						<clipPath id="SVGID_28_">
							<use xlink:href="#SVGID_27_"  overflow="visible"/>
						</clipPath>
						<path clip-path="url(#SVGID_28_)" fill="#3A61AD" d="M422.49,310.877c0.922,0,3.029-1.611,3.01-1.611
							c0.02,0-0.248-1.072-1.168-1.072s-0.92,1.072-1.842,1.072c-0.918,0-0.918-1.072-1.838-1.072s-1.156,1.072-1.157,1.072
							C419.452,309.266,421.572,310.877,422.49,310.877L422.49,310.877z"/>
					</g>
				</g>
				<g clip-path="url(#SVGID_6_)">
					<g>
						<defs>
							<rect id="SVGID_29_" x="417.148" y="298.662" width="4.223" height="1.132"/>
						</defs>
						<clipPath id="SVGID_30_">
							<use xlink:href="#SVGID_29_"  overflow="visible"/>
						</clipPath>
						<path clip-path="url(#SVGID_30_)" fill="#F2C326" d="M417.734,299.024c0.105,0,1.043,0.136,1.723,0.091
							c0.679-0.046,0.939-0.273,0.939-0.318v-0.135h0.887c0,0,0.158,0.633,0.053,0.68c-0.104,0.045-0.365,0.228-0.419,0.228
							c-0.052,0,0-0.318-0.104-0.228c-0.104,0.092-0.155,0.228-0.155,0.228s-0.105-0.136-0.158-0.136
							c-0.052,0-0.157,0.136-0.157,0.136s0-0.136-0.051-0.136c-0.053,0-0.312,0.227-0.312,0.227l-0.262-0.183
							c0,0-0.156,0.227-0.21,0.227c-0.051,0-0.363-0.182-0.363-0.182l-0.521,0.271c0,0,0-0.407-0.104-0.36
							c-0.105,0.044-0.68,0.044-0.68,0.044s-0.156,0.272-0.209,0.272s-0.262-0.228-0.209-0.228c0.052,0,0.156-0.136,0.105-0.181
							c-0.054-0.047-0.312,0-0.312-0.047c0-0.044-0.105-0.317-0.053-0.317s0.26,0.047,0.26,0.047v-0.271h0.262L417.734,299.024z"/>
					</g>
				</g>
				<g clip-path="url(#SVGID_6_)">
					<path fill="#010101" d="M418.596,299.84v-0.046c0-0.19-0.033-0.338-0.062-0.338c-0.111,0.047-0.633,0.048-0.693,0.048
						c-0.051,0.118-0.153,0.273-0.209,0.273c-0.063,0-0.244-0.195-0.244-0.246c0.053-0.034,0.103-0.078,0.121-0.131
						c-0.049-0.149-0.321-0.027-0.321-0.105c-0.062-0.231-0.078-0.297-0.056-0.328c0.087-0.017,0.274,0.024,0.297,0.03l-0.033-0.244
						l0.289-0.028l0.08,0.294c-0.003-0.024,0.07-0.015,0.173-0.003c0.333,0.034,1.003,0.105,1.517,0.072
						c0.674-0.045,0.906-0.264,0.917-0.294l-0.001-0.132l0.914-0.028c0.076,0.22,0.176,0.685,0.062,0.732
						c-0.043,0.019-0.116,0.062-0.188,0.106c-0.325,0.197-0.286,0.117-0.296-0.01c-0.004-0.037-0.007-0.101-0.02-0.112
						c-0.106,0.096-0.158,0.228-0.158,0.228c-0.195-0.121-0.216-0.128-0.318,0.007c-0.048-0.073-0.064-0.126-0.073-0.126
						c-0.031,0.004-0.177,0.117-0.296,0.222l-0.294-0.183c-0.024,0.083-0.135,0.234-0.194,0.234c-0.055,0-0.303-0.142-0.377-0.186
						L418.596,299.84L418.596,299.84z M418.512,299.406c0.113,0,0.135,0.216,0.139,0.344l0.482-0.252
						c0.174,0.089,0.347,0.178,0.375,0.18c0.027-0.006,0.119-0.117,0.188-0.216l0.301,0.176c0.046-0.068,0.238-0.233,0.296-0.233
						c0.057,0,0.073,0.078,0.078,0.131c0.013-0.057,0.081-0.131,0.13-0.131c0.053,0,0.127,0.083,0.164,0.128
						c0-0.041,0.049-0.139,0.131-0.21c0.112-0.028,0.113,0.059,0.119,0.137c0.028,0.082,0.143,0.014,0.216-0.031
						c0.074-0.046,0.151-0.091,0.196-0.111c0.044-0.019,0.012-0.322-0.068-0.648l-0.861,0.02l0.025,0.109
						c0,0.078-0.295,0.301-0.963,0.347c-0.522,0.031-1.193-0.038-1.527-0.075c-0.102-0.01-0.171-0.019-0.197-0.019l-0.078-0.293
						l-0.234,0.021l0.025,0.246c-0.088,0.014-0.244-0.019-0.285-0.019c0.004,0.014,0.039,0.126,0.053,0.182
						c0.018,0.057,0.027,0.09,0.027,0.107c0.007-0.004,0.068-0.004,0.109-0.004c0.096,0,0.162,0.003,0.193,0.03
						c-0.009,0.16-0.074,0.229-0.123,0.229c0.025,0.016,0.176,0.168,0.211,0.172c0.025-0.008,0.116-0.142,0.185-0.258
						c0.182-0.015,0.608-0.021,0.69-0.058C418.508,299.407,418.511,299.406,418.512,299.406L418.512,299.406z"/>
				</g>
				<g clip-path="url(#SVGID_6_)">
					<g>
						<defs>
							<rect id="SVGID_31_" x="417.211" y="296.164" width="2.8" height="2.846"/>
						</defs>
						<clipPath id="SVGID_32_">
							<use xlink:href="#SVGID_31_"  overflow="visible"/>
						</clipPath>
						<path clip-path="url(#SVGID_32_)" fill="#F2C326" d="M418.676,296.436c-0.052,0-0.418,0.364-0.367,0.773
							c0.053,0.409,0.94,0.998,0.94,0.998s0.469-0.182,0.625,0c0.157,0.181,0.157,0.727,0.105,0.727s-0.678,0.136-0.678,0.044
							c0-0.09,0-0.181-0.053-0.181c-0.052,0-0.625,0.045-0.625,0.045l0.052-0.18l-0.523-0.093l0.209-0.182
							c0,0-0.834-0.318-0.783-0.318c0.053,0,0.367-0.181,0.367-0.181l-0.625-0.362h0.363c0,0-0.521-0.364-0.469-0.364
							c0.051,0,0.312,0.047,0.312,0.047l-0.158-0.364h0.158l-0.158-0.272l0.262-0.09l0.158,0.228l-0.055-0.546l0.365,0.046v0.453
							c0,0,0.158-0.271,0.158-0.318C418.258,296.301,418.729,296.528,418.676,296.436L418.676,296.436z"/>
					</g>
				</g>
				<g clip-path="url(#SVGID_6_)">
					<path fill="#010101" d="M419.4,299.035c-0.046,0-0.125-0.011-0.125-0.058c0-0.058,0-0.152-0.026-0.152
						c-0.052,0-0.624,0.044-0.624,0.044l0.025-0.216l-0.504-0.057l0.197-0.229c-0.803-0.262-0.799-0.273-0.793-0.302
						c0.059-0.025,0.23-0.113,0.381-0.2l-0.626-0.316l0.378-0.052c-0.513-0.295-0.506-0.319-0.498-0.342
						c0.084-0.019,0.346,0.025,0.346,0.025l-0.186-0.327l0.182-0.036l-0.182-0.232l0.275-0.13l0.189,0.237l-0.102-0.526l0.396,0.016
						l0.022,0.48c0.023-0.14,0.103-0.291,0.103-0.318c0.071-0.031,0.129-0.011,0.228,0.024c0.069,0.024,0.142,0.051,0.188,0.061
						c-0.09,0.123-0.353,0.436-0.309,0.774c0.05,0.387,0.898,0.959,0.928,0.979c-0.01-0.015,0.497-0.151,0.632,0.005
						c0.151,0.177,0.161,0.656,0.122,0.743c-0.05,0.028-0.092,0.035-0.152,0.046C419.732,299.001,419.523,299.035,419.4,299.035
						L419.4,299.035z M419.249,298.77c0.079,0,0.079,0.106,0.079,0.208l0.072,0.005c0.121,0,0.324-0.035,0.455-0.058
						c0.064-0.012,0.111-0.021,0.124-0.021c0.017-0.035,0.022-0.511-0.125-0.68c-0.114-0.134-0.594,0.007-0.597,0.007
						c-0.06-0.027-0.922-0.604-0.975-1.021c-0.045-0.342,0.193-0.656,0.324-0.766c-0.04,0.023-0.105-0.002-0.171-0.025
						s-0.145-0.053-0.167-0.053c0.014,0.026-0.098,0.225-0.146,0.311l-0.051-0.468l-0.341-0.019l0.082,0.515l-0.205-0.209
						l-0.23,0.103l0.172,0.231l-0.182,0.041l0.182,0.325c-0.026,0.037-0.27-0.004-0.33-0.007c0.051,0.007,0.272,0.172,0.478,0.313
						l-0.378,0.049l0.639,0.313c-0.07,0.084-0.292,0.215-0.366,0.23c0.091,0.001,0.513,0.166,0.778,0.267l-0.201,0.228l0.512,0.044
						l-0.031,0.209C418.686,298.811,419.201,298.77,419.249,298.77L419.249,298.77z"/>
				</g>
				<g clip-path="url(#SVGID_6_)">
					<g>
						<defs>
							<rect id="SVGID_33_" x="426.5" y="299.251" width="0.432" height="0.183"/>
						</defs>
						<clipPath id="SVGID_34_">
							<use xlink:href="#SVGID_33_"  overflow="visible"/>
						</clipPath>
						<path clip-path="url(#SVGID_34_)" fill="#010101" d="M426.761,299.251c-0.065,0.058-0.261,0.183-0.261,0.183
							s0.445-0.036,0.432-0.036C426.917,299.397,426.773,299.284,426.761,299.251L426.761,299.251z"/>
					</g>
				</g>
				<g clip-path="url(#SVGID_6_)">
					<g>
						<defs>
							<rect id="SVGID_35_" x="427.07" y="299.467" width="0.277" height="0.364"/>
						</defs>
						<clipPath id="SVGID_36_">
							<use xlink:href="#SVGID_35_"  overflow="visible"/>
						</clipPath>
						<path clip-path="url(#SVGID_36_)" fill="#010101" d="M427.141,299.467c-0.027,0.034-0.104,0.384-0.053,0.362
							c0.053-0.022,0.26-0.284,0.26-0.284L427.141,299.467z"/>
					</g>
				</g>
				<g clip-path="url(#SVGID_6_)">
					<g>
						<defs>
							<rect id="SVGID_37_" x="427.74" y="299.465" width="0.33" height="0.316"/>
						</defs>
						<clipPath id="SVGID_38_">
							<use xlink:href="#SVGID_37_"  overflow="visible"/>
						</clipPath>
						<path clip-path="url(#SVGID_38_)" fill="#010101" d="M427.74,299.512c0.063,0.055,0.365,0.317,0.324,0.261
							c-0.039-0.057-0.076-0.295-0.104-0.306C427.935,299.454,427.767,299.532,427.74,299.512L427.74,299.512z"/>
					</g>
				</g>
				<g clip-path="url(#SVGID_6_)">
					<g>
						<defs>
							<rect id="SVGID_39_" x="422.119" y="299.137" width="0.521" height="0.227"/>
						</defs>
						<clipPath id="SVGID_40_">
							<use xlink:href="#SVGID_39_"  overflow="visible"/>
						</clipPath>
						<path clip-path="url(#SVGID_40_)" fill="#010101" d="M422.482,299.137c-0.037,0.013-0.363,0.227-0.363,0.227
							s0.548-0.089,0.521-0.089S422.47,299.17,422.482,299.137L422.482,299.137z"/>
					</g>
				</g>
				<g clip-path="url(#SVGID_6_)">
					<g>
						<defs>
							<rect id="SVGID_41_" x="422.65" y="299.41" width="0.369" height="0.35"/>
						</defs>
						<clipPath id="SVGID_42_">
							<use xlink:href="#SVGID_41_"  overflow="visible"/>
						</clipPath>
						<path clip-path="url(#SVGID_42_)" fill="#010101" d="M422.82,299.41c-0.049,0.044-0.221,0.362-0.153,0.35
							c0.063-0.01,0.353-0.215,0.353-0.215L422.82,299.41z"/>
					</g>
				</g>
				<g clip-path="url(#SVGID_6_)">
					<g>
						<defs>
							<rect id="SVGID_43_" x="422.314" y="298.763" width="0.363" height="0.204"/>
						</defs>
						<clipPath id="SVGID_44_">
							<use xlink:href="#SVGID_43_"  overflow="visible"/>
						</clipPath>
						<path clip-path="url(#SVGID_44_)" fill="#010101" d="M422.614,298.967c-0.041-0.011-0.313-0.125-0.3-0.125
							c0.012,0,0.363-0.079,0.363-0.079L422.614,298.967z"/>
					</g>
				</g>
				<g clip-path="url(#SVGID_6_)">
					<g>
						<defs>
							<rect id="SVGID_45_" x="417.057" y="298.547" width="0.496" height="0.271"/>
						</defs>
						<clipPath id="SVGID_46_">
							<use xlink:href="#SVGID_45_"  overflow="visible"/>
						</clipPath>
						<polygon clip-path="url(#SVGID_46_)" fill="#010101" points="417.447,298.818 417.057,298.547 417.553,298.684 						"/>
					</g>
				</g>
				<g clip-path="url(#SVGID_6_)">
					<g>
						<defs>
							<rect id="SVGID_47_" x="416.574" y="299" width="0.678" height="0.277"/>
						</defs>
						<clipPath id="SVGID_48_">
							<use xlink:href="#SVGID_47_"  overflow="visible"/>
						</clipPath>
						<path clip-path="url(#SVGID_48_)" fill="#010101" d="M417.109,299c-0.053,0-0.548,0.274-0.535,0.274
							c0.014,0,0.691,0.01,0.678,0C417.24,299.262,417.135,299.024,417.109,299L417.109,299z"/>
					</g>
				</g>
				<g clip-path="url(#SVGID_6_)">
					<g>
						<defs>
							<rect id="SVGID_49_" x="417.004" y="299.397" width="0.589" height="0.288"/>
						</defs>
						<clipPath id="SVGID_50_">
							<use xlink:href="#SVGID_49_"  overflow="visible"/>
						</clipPath>
						<path clip-path="url(#SVGID_50_)" fill="#010101" d="M417.422,299.397c-0.053,0.022-0.443,0.284-0.417,0.284
							c0.025,0,0.588,0.01,0.588,0C417.593,299.67,417.437,299.41,417.422,299.397L417.422,299.397z"/>
					</g>
				</g>
				<g clip-path="url(#SVGID_6_)">
					<g>
						<defs>
							<rect id="SVGID_51_" x="417.238" y="296.254" width="0.366" height="0.318"/>
						</defs>
						<clipPath id="SVGID_52_">
							<use xlink:href="#SVGID_51_"  overflow="visible"/>
						</clipPath>
						<path clip-path="url(#SVGID_52_)" fill="#010101" d="M417.369,296.572c0,0-0.143-0.318-0.129-0.318
							c0.012,0,0.364,0.25,0.364,0.25L417.369,296.572z"/>
					</g>
				</g>
				<g clip-path="url(#SVGID_6_)">
					<g>
						<defs>
							<rect id="SVGID_53_" x="417.762" y="295.972" width="0.379" height="0.238"/>
						</defs>
						<clipPath id="SVGID_54_">
							<use xlink:href="#SVGID_53_"  overflow="visible"/>
						</clipPath>
						<path clip-path="url(#SVGID_54_)" fill="#010101" d="M417.762,296.176c0-0.012,0.039-0.204,0.039-0.204
							s0.352,0.238,0.34,0.238C418.127,296.21,417.789,296.21,417.762,296.176L417.762,296.176z"/>
					</g>
				</g>
				<g clip-path="url(#SVGID_6_)">
					<g>
						<defs>
							<rect id="SVGID_55_" x="418.309" y="296.026" width="0.342" height="0.399"/>
						</defs>
						<clipPath id="SVGID_56_">
							<use xlink:href="#SVGID_55_"  overflow="visible"/>
						</clipPath>
						<path clip-path="url(#SVGID_56_)" fill="#010101" d="M418.309,296.323c0-0.013,0.04-0.297,0.04-0.297s0.327,0.387,0.302,0.399
							C418.624,296.436,418.336,296.369,418.309,296.323L418.309,296.323z"/>
					</g>
				</g>
				<g clip-path="url(#SVGID_6_)">
					<g>
						<defs>
							<rect id="SVGID_57_" x="422.393" y="298.285" width="3.104" height="1.309"/>
						</defs>
						<clipPath id="SVGID_58_">
							<use xlink:href="#SVGID_57_"  overflow="visible"/>
						</clipPath>
						<path clip-path="url(#SVGID_58_)" fill="#F2C326" d="M423.539,298.31c0,0.021,0.549,0.409,0.562,0.499
							c0.012,0.091-0.991,0.113-0.991,0.113s-0.29-0.193-0.38-0.182c-0.09,0.01-0.131,0.203-0.131,0.203l0.234,0.115l-0.441,0.022
							l0.129,0.214l0.34-0.021l-0.078,0.203c0,0,0.209,0.136,0.248,0.113c0.039-0.024,0.17-0.228,0.271-0.262
							c0.105-0.034,0.327-0.034,0.327-0.034s-0.169,0.25-0.091,0.25c0.08,0,0.432-0.261,0.432-0.261s0.078,0.238,0.092,0.238
							s0.261-0.271,0.261-0.271s0,0.216,0.037,0.216c0.041,0,0.406-0.273,0.406-0.273s0.287,0.318,0.325,0.295
							c0.04-0.021,0.078-0.339,0.118-0.339s0.286-0.034,0.286-0.047c0-0.011-0.157-0.125-0.184-0.284
							c-0.025-0.158,0.026-0.533,0.014-0.533C425.312,298.285,423.566,298.342,423.539,298.31L423.539,298.31z"/>
					</g>
				</g>
				<g clip-path="url(#SVGID_6_)">
					<path fill="#010101" d="M423.02,299.621c-0.062,0-0.221-0.102-0.25-0.121l0.068-0.237l-0.314,0.062l-0.154-0.23l0.465-0.064
						l-0.246-0.062c-0.009-0.049,0.033-0.241,0.139-0.254h0.002c0.115,0,0.367,0.168,0.396,0.187
						c0.427-0.015,0.911-0.053,0.951-0.097c-0.01-0.04-0.275-0.247-0.4-0.347c-0.159-0.124-0.162-0.128-0.162-0.146
						c0.044-0.022,0.08-0.016,0.27-0.017c0.426,0,1.271-0.026,1.489-0.033c0.087,0.02,0.087,0.025,0.077,0.145
						c-0.012,0.124-0.026,0.312-0.01,0.411c0.02,0.113,0.114,0.206,0.154,0.245c0.028,0.096-0.281,0.114-0.284,0.114
						c-0.001,0.01-0.021,0.095-0.034,0.15c-0.028,0.121-0.044,0.172-0.071,0.188h-0.003c-0.076,0-0.254-0.188-0.356-0.301
						c-0.132,0.13-0.344,0.281-0.385,0.281c-0.021,0-0.065,0-0.065-0.242c-0.207,0.299-0.219,0.299-0.232,0.299
						c-0.023,0-0.033,0-0.117-0.257c-0.019,0.057-0.322,0.281-0.406,0.281c-0.062-0.07,0.003-0.192,0.055-0.273
						c-0.049,0.024-0.202,0.028-0.281,0.055c-0.061,0.02-0.14,0.114-0.191,0.177L423.02,299.621L423.02,299.621z M422.86,299.246
						l-0.052,0.241c0.061,0.014,0.174,0.078,0.209,0.079c0.123-0.141,0.203-0.238,0.277-0.263c0.107-0.034,0.326-0.034,0.335-0.034
						c-0.04,0.134-0.089,0.233-0.083,0.256c0.041-0.007,0.266-0.157,0.407-0.263c0.075,0.113,0.116,0.226,0.126,0.241
						c-0.011-0.02,0.13-0.169,0.224-0.271c0.046,0.107,0.057,0.196,0.067,0.211c0.018-0.01,0.211-0.146,0.379-0.271
						c0.156,0.137,0.307,0.284,0.338,0.291c0.001-0.01,0.021-0.095,0.033-0.152c0.035-0.133,0.049-0.189,0.089-0.189
						c0.036,0,0.247-0.03,0.272-0.04c-0.069-0.024-0.175-0.125-0.195-0.257c-0.018-0.105-0.002-0.297,0.008-0.424
						c0.003-0.048,0.009-0.098,0.008-0.106c-0.295,0.031-1.457,0.06-1.692,0.05c0.031,0.019,0.065,0.044,0.098,0.071
						c0.271,0.211,0.411,0.329,0.419,0.391c-0.08,0.116-0.798,0.138-1.017,0.145c-0.091-0.056-0.298-0.184-0.372-0.184
						c-0.059,0.006-0.1,0.127-0.111,0.184l0.221,0.084l-0.453,0.072l0.15,0.176L422.86,299.246L422.86,299.246z"/>
				</g>
				<g clip-path="url(#SVGID_6_)">
					<g>
						<defs>
							<rect id="SVGID_59_" x="420.252" y="295.847" width="7.918" height="3.816"/>
						</defs>
						<clipPath id="SVGID_60_">
							<use xlink:href="#SVGID_59_"  overflow="visible"/>
						</clipPath>
						<path clip-path="url(#SVGID_60_)" fill="#F2C326" d="M420.761,297.618h5.114c0.521,0,0.991-0.183,0.991-0.456
							c0-0.271-0.835-0.317-1.147-0.225c-0.312,0.089-1.67,0.634-2.244,0.589c-0.574-0.047-1.096-0.364-1.148-0.682
							c-0.051-0.316,0.262-0.591,0.835-0.591c0.574,0,1.304,0.182,1.46,0.138c0.158-0.047,0.523-0.409,0.68-0.454
							c0.156-0.044,0.625-0.091,0.625-0.091l-0.207,0.136l0.678-0.136c0,0-0.521,0.498-1.043,0.636
							c-0.524,0.137-1.618,0.09-2.036,0.09c-0.417,0-0.625-0.044-0.572,0.228c0.053,0.272,0.365,0.453,0.626,0.409
							c0.259-0.047,1.043-0.271,1.043-0.271l-0.21-0.138l0.94-0.046c0,0-0.053-0.135,0-0.135c0.051,0,0.52,0.044,0.52,0.044
							s-0.311-0.135-0.258-0.135c0.051,0,0.258,0,0.678,0.044c0.416,0.047,1.305,0.182,1.251,0.545
							c-0.052,0.362-0.366,0.681-0.73,0.681c-0.366,0-0.679-0.091-0.679,0.047c0,0.136,0.418,0.225,0.679,0.225
							c0.262,0,0.574-0.181,0.627-0.181c0.052,0,0.157,0.271,0.208,0.271c0.053,0,0.364-0.091,0.364-0.091l-0.208,0.5l0.365,0.093
							c0,0-0.209,0.18-0.157,0.18c0.054,0,0.366,0,0.366,0.046s-0.418,0.316-0.418,0.363c0,0.044,0.312,0.183,0.312,0.183
							s-0.207,0.271-0.261,0.227c-0.052-0.047-0.261-0.273-0.261-0.273s-0.051,0.183-0.154,0.183c-0.105,0-0.315-0.047-0.315-0.047
							s0.158-0.271,0.105-0.271s-0.312,0.183-0.312,0.136l-0.156-0.136c0,0,0.416-0.148,0.416-0.363
							c0-0.216-0.169-0.432-0.925-0.466c-0.758-0.034-0.77,0.159-1.331,0.138c-0.562-0.024-0.562-0.218-0.979-0.218
							s-1.708,0.455-2.308,0.442c-0.6-0.01-1.357-0.044-1.33-0.065C420.28,298.694,420.749,297.651,420.761,297.618L420.761,297.618
							z"/>
					</g>
				</g>
				<g clip-path="url(#SVGID_6_)">
					<path fill="#010101" d="M427.819,299.691l-0.032-0.011c-0.046-0.039-0.202-0.208-0.25-0.261
						c0.008,0.046-0.047,0.175-0.148,0.175c-0.107,0-0.312-0.044-0.32-0.045c0.039-0.138,0.096-0.26,0.094-0.284
						c0,0.013-0.074,0.054-0.123,0.081c-0.082,0.045-0.135,0.073-0.164,0.073l-0.182-0.148c0.011-0.047,0.406-0.19,0.406-0.384
						c0-0.269-0.295-0.41-0.901-0.438l-0.165-0.005c-0.295,0-0.451,0.04-0.604,0.077c-0.135,0.034-0.264,0.065-0.473,0.065
						c-0.387-0.013-0.531-0.074-0.659-0.128c-0.114-0.049-0.213-0.088-0.406-0.088c-0.183,0-0.547,0.089-0.933,0.186
						c-0.477,0.121-1.017,0.256-1.354,0.256c-0.424-0.007-1.359-0.031-1.379-0.084c0.037-0.071,0.487-1.062,0.509-1.122l5.14-0.018
						c0.541,0,0.964-0.188,0.964-0.427c0-0.225-0.807-0.29-1.114-0.199c-0.066,0.02-0.183,0.061-0.33,0.11
						c-0.513,0.183-1.372,0.482-1.847,0.482c-0.656-0.049-1.193-0.371-1.247-0.706c-0.023-0.13,0.013-0.25,0.1-0.354
						c0.273-0.32,1.09-0.263,1.693-0.176c0.193,0.028,0.357,0.053,0.457,0.053c0.138-0.028,0.269-0.131,0.395-0.229
						c0.137-0.106,0.265-0.209,0.348-0.233c0.158-0.044,0.631-0.091,0.631-0.091l-0.191,0.187l0.658-0.187
						c0.001,0.066-0.509,0.553-1.03,0.688c-0.256,0.067-0.682,0.099-1.302,0.099l-1.014-0.01c-0.134,0-0.223,0.01-0.259,0.054
						c-0.022,0.028-0.028,0.074-0.015,0.144c0.046,0.244,0.305,0.395,0.518,0.395c0.336-0.053,1.117-0.278,1.117-0.278l-0.217-0.088
						l0.952-0.096c-0.016,0.021-0.062-0.078-0.037-0.116c0.093-0.019,0.562,0.027,0.562,0.027c-0.301-0.075-0.298-0.09-0.294-0.114
						c0.084-0.023,0.294-0.023,0.715,0.023c0.457,0.05,1.043,0.156,1.222,0.388c0.046,0.058,0.062,0.12,0.052,0.188
						c-0.055,0.388-0.395,0.703-0.757,0.703c-0.118,0-0.229-0.01-0.329-0.018c-0.249-0.021-0.321,0.012-0.321,0.037
						c0,0.1,0.372,0.199,0.65,0.199c0.177,0,0.38-0.087,0.503-0.14c0.206-0.086,0.168-0.038,0.252,0.107
						c0.023,0.044,0.066,0.116,0.084,0.123c0.032,0,0.235-0.056,0.354-0.091l-0.175,0.537l0.347,0.054
						c-0.061,0.108-0.14,0.187-0.145,0.205c0.375-0.023,0.375,0.02,0.375,0.048c0,0.031-0.046,0.069-0.223,0.203
						c-0.079,0.06-0.188,0.144-0.198,0.166c0.015,0.015,0.166,0.093,0.298,0.15C428.044,299.504,427.895,299.691,427.819,299.691
						L427.819,299.691z M427.52,299.379c0.053,0,0.247,0.211,0.301,0.259c0.035-0.003,0.143-0.116,0.225-0.222
						c-0.32-0.103-0.32-0.149-0.32-0.165c0-0.032,0.045-0.07,0.221-0.203c0.08-0.061,0.188-0.144,0.199-0.167
						c-0.008,0.008-0.097-0.012-0.341-0.012c-0.038-0.037-0.048-0.063,0.14-0.229l-0.353-0.046l0.185-0.525
						c-0.029,0.047-0.284,0.119-0.336,0.119c-0.039,0-0.072-0.054-0.127-0.15c-0.025-0.042-0.066-0.115-0.086-0.122
						c-0.008,0.001-0.057,0.021-0.1,0.04c-0.125,0.053-0.336,0.142-0.522,0.142c-0.253,0-0.704-0.085-0.704-0.253
						c0-0.102,0.125-0.102,0.179-0.102c0.057,0,0.125,0.004,0.202,0.011c0.096,0.009,0.207,0.016,0.323,0.016
						c0.337,0,0.652-0.294,0.705-0.656c0.007-0.051-0.007-0.1-0.043-0.145c-0.176-0.228-0.818-0.328-1.187-0.368
						c-0.319-0.035-0.516-0.043-0.611-0.046c0.054,0.016,0.133,0.052,0.207,0.084c-0.012,0.05-0.479,0.009-0.531,0.006
						c0,0.009,0.008,0.057,0.025,0.101l-0.965,0.081l0.224,0.087c-0.009,0.05-0.793,0.275-1.054,0.321
						c-0.334,0-0.609-0.189-0.656-0.431c-0.018-0.087-0.01-0.146,0.025-0.188c0.051-0.061,0.147-0.071,0.301-0.071l1.014,0.01
						c0.615,0,1.036-0.032,1.287-0.098c0.509-0.133,1.025-0.624,1.031-0.63l-0.652,0.184l0.164-0.163
						c-0.094,0.041-0.449,0.078-0.58,0.116c-0.073,0.022-0.204,0.123-0.33,0.223c-0.135,0.106-0.265,0.208-0.348,0.231
						c-0.183,0.008-0.349-0.016-0.546-0.044c-0.583-0.085-1.384-0.146-1.643,0.158c-0.077,0.089-0.108,0.195-0.089,0.31
						c0.049,0.308,0.574,0.615,1.123,0.657c0.003,0,0.006,0,0.009,0c0.535,0,1.384-0.297,1.892-0.475
						c0.148-0.052,0.265-0.094,0.333-0.113c0.097-0.028,0.241-0.044,0.4-0.044c0.29,0,0.784,0.062,0.784,0.296
						c0,0.313-0.525,0.481-1.02,0.481h-5.114c0.015,0.008-0.454,1.062-0.489,1.095c0.043-0.023,0.723,0.008,1.312,0.021l0,0
						c0.354,0,0.89-0.136,1.361-0.255c0.406-0.101,0.758-0.188,0.946-0.188c0.204,0,0.312,0.045,0.429,0.094
						c0.123,0.051,0.262,0.11,0.551,0.122c0.291,0.001,0.412-0.03,0.546-0.062c0.155-0.039,0.315-0.079,0.616-0.079l0.168,0.003
						c0.641,0.031,0.952,0.191,0.952,0.494c0,0.231-0.418,0.382-0.435,0.39l0.164,0.089c0.01,0,0.083-0.041,0.131-0.066
						c0.082-0.047,0.137-0.077,0.165-0.077c0.048,0.052,0.015,0.146-0.074,0.302c0.04-0.013,0.199,0.019,0.284,0.017
						c0.068,0,0.115-0.116,0.128-0.16C427.517,299.379,427.52,299.379,427.52,299.379L427.52,299.379z"/>
				</g>
				<g clip-path="url(#SVGID_6_)">
					<g>
						<defs>
							<rect id="SVGID_61_" x="419.229" y="295.938" width="2.459" height="2.891"/>
						</defs>
						<clipPath id="SVGID_62_">
							<use xlink:href="#SVGID_61_"  overflow="visible"/>
						</clipPath>
						<path clip-path="url(#SVGID_62_)" fill="#F2C326" d="M419.771,297.356c-0.053,0.021-0.51,0.078-0.536,0.498
							c-0.025,0.421,0.041,0.421,0.094,0.396c0.052-0.022,0.154-0.385,0.154-0.385s-0.154,0.5,0.014,0.612
							c0.171,0.115,0.353,0.159,0.353,0.159l0.065-0.396c0,0-0.131,0.384,0.182,0.521c0.315,0.137,0.432,0.034,0.404-0.068
							c-0.025-0.101-0.115-0.363-0.115-0.363s0.248,0.238,0.26,0.263c0.014,0.021,0.131,0.203,0.444,0.125
							c0.312-0.081,0.089-0.263,0.089-0.263l-0.377-0.271c0,0,0.391,0.351,0.562,0.226c0.168-0.125-0.131-0.396-0.119-0.385
							c0.014,0.01,0.246,0.385,0.34,0.147c0.09-0.237-0.145-0.307-0.221-0.534c-0.08-0.227-0.145-0.248-0.066-0.386
							c0.078-0.136,0.092-0.396,0.092-0.396s0.326,0.068,0.3-0.171c-0.027-0.238-0.353-0.294-0.419-0.307
							c-0.064-0.01-0.051-0.248-0.078-0.237c-0.027,0.01-0.233,0.147-0.233,0.147s-0.183-0.375-0.222-0.352
							c-0.041,0.023-0.248,0.214-0.404,0.227c-0.156,0.012-0.25,0.205-0.25,0.205s-0.547-0.228-0.533,0.147
							c0.013,0.374,0.325,0.283,0.325,0.294C419.874,296.822,419.823,297.334,419.771,297.356L419.771,297.356z"/>
					</g>
				</g>
				<g clip-path="url(#SVGID_6_)">
					<path fill="#010101" d="M420.354,298.855c-0.074,0-0.164-0.023-0.268-0.067c-0.112-0.048-0.17-0.126-0.2-0.207l-0.011,0.062
						c-0.039,0.02-0.223-0.027-0.393-0.143c-0.086-0.057-0.1-0.192-0.088-0.328c-0.027,0.091-0.047,0.102-0.057,0.104
						c-0.119-0.043-0.148-0.117-0.13-0.424c0.024-0.385,0.394-0.481,0.516-0.513c0.062-0.043,0.11-0.391,0.122-0.503
						c0.04,0.144-0.003,0.516-0.065,0.541c-0.167,0.046-0.497,0.131-0.519,0.478c-0.017,0.281,0.009,0.354,0.027,0.372
						c0.045-0.014,0.097-0.128,0.16-0.344c-0.007,0.228-0.041,0.503,0.062,0.571c0.164,0.11,0.343,0.156,0.344,0.156l0.004-0.187
						c0-0.007,0-0.014,0-0.02v-0.004c0.002-0.093,0.026-0.168,0.029-0.171v0.006c0.049,0.014,0.028,0.084,0.025,0.17l-0.002,0.003
						h0.002c-0.004,0.159,0.06,0.271,0.193,0.328c0.173,0.074,0.312,0.081,0.356,0.024c-0.016-0.162-0.105-0.423-0.105-0.423
						c0.138,0.062,0.297,0.217,0.31,0.241c0.021,0.037,0.164,0.175,0.414,0.11c0.086-0.021,0.137-0.054,0.145-0.092
						c0.013-0.057-0.064-0.122-0.064-0.122l-0.127-0.091c-0.133-0.076-0.248-0.178-0.252-0.183l0.003,0.002
						c0.031-0.043,0.149,0.061,0.278,0.134l0.003,0.002c0.079,0.045,0.151,0.068,0.204,0.068c0.094-0.037,0.156-0.082,0.074-0.22
						c-0.044-0.041-0.085-0.099-0.107-0.128c0-0.002,0.001-0.003,0.001-0.003c-0.009-0.01-0.013-0.015-0.013-0.015
						c0.006,0.002,0.013,0.003,0.02,0.005c0.043-0.031,0.125,0.081,0.146,0.113c0.051,0.05,0.087,0.062,0.104,0.062
						c0.113-0.194,0.052-0.267-0.023-0.359c-0.05-0.06-0.104-0.126-0.135-0.219c-0.023-0.063-0.045-0.11-0.062-0.15
						c-0.044-0.1-0.067-0.149-0.005-0.257c0.074-0.13,0.09-0.384,0.09-0.386l0.002-0.026l0.122,0.01c0.05,0,0.116-0.007,0.15-0.049
						c0.022-0.023,0.031-0.055,0.025-0.101c-0.02-0.191-0.257-0.259-0.396-0.281c-0.059-0.011-0.07-0.104-0.082-0.188
						c-0.008-0.045-0.21,0.091-0.21,0.091c-0.113-0.16-0.21-0.334-0.238-0.35c-0.114,0.099-0.271,0.221-0.401,0.229
						c-0.141,0.011-0.227,0.188-0.227,0.19c-0.037,0.007-0.196-0.053-0.336-0.053c-0.07,0-0.123,0.017-0.154,0.05
						c-0.029,0.029-0.044,0.076-0.041,0.136c0.006,0.181,0.085,0.271,0.234,0.271c0.01,0.004,0.018,0.013,0.023,0.027
						c-0.214,0.021-0.307-0.093-0.312-0.296c-0.002-0.075,0.018-0.135,0.057-0.178c0.111-0.114,0.464-0.016,0.51,0.003
						c-0.012-0.021,0.083-0.193,0.242-0.206c0.113-0.008,0.269-0.128,0.343-0.186c0.083-0.04,0.13-0.04,0.306,0.318
						c0.011-0.033,0.179-0.143,0.203-0.152l0.031-0.013l0.025,0.113c0.006,0.031,0.017,0.131,0.037,0.137
						c0.152,0.025,0.414,0.103,0.439,0.329c0.006,0.06-0.006,0.108-0.038,0.144c-0.038,0.044-0.104,0.067-0.191,0.067l-0.097-0.012
						c0.023,0.019,0.006,0.254-0.068,0.385c-0.051,0.085-0.037,0.114,0.006,0.209c0.018,0.038,0.039,0.088,0.062,0.153
						c0.027,0.084,0.076,0.144,0.125,0.203c0.081,0.097,0.156,0.189,0.096,0.35c-0.047,0.128-0.114,0.111-0.176,0.08
						c0.023,0.095-0.021,0.146-0.055,0.17l-0.107,0.033c-0.016,0-0.032-0.002-0.051-0.005c0.031,0.031,0.072,0.09,0.061,0.152
						c-0.015,0.06-0.077,0.104-0.186,0.132c-0.284,0.071-0.445-0.091-0.475-0.137c-0.012-0.017-0.102-0.106-0.199-0.201
						c0.043,0.078,0.089,0.215,0.105,0.281l0.003,0.013l-0.024,0.094C420.484,298.822,420.442,298.855,420.354,298.855
						L420.354,298.855z"/>
				</g>
				<g clip-path="url(#SVGID_6_)">
					<g>
						<defs>
							<rect id="SVGID_63_" x="420.073" y="296.691" width="0.476" height="0.188"/>
						</defs>
						<clipPath id="SVGID_64_">
							<use xlink:href="#SVGID_63_"  overflow="visible"/>
						</clipPath>
						<path clip-path="url(#SVGID_64_)" fill="#010101" d="M420.073,296.782c0.062-0.02,0.153-0.101,0.261-0.091
							c0.105,0.01,0.277,0.093,0.193,0.137c-0.085,0.044-0.147,0.065-0.244,0.041C420.187,296.847,420.114,296.798,420.073,296.782
							L420.073,296.782z"/>
					</g>
				</g>
				<g clip-path="url(#SVGID_6_)">
					<g>
						<defs>
							<rect id="SVGID_65_" x="420.658" y="296.679" width="0.479" height="0.19"/>
						</defs>
						<clipPath id="SVGID_66_">
							<use xlink:href="#SVGID_65_"  overflow="visible"/>
						</clipPath>
						<path clip-path="url(#SVGID_66_)" fill="#010101" d="M421.137,296.77c-0.062-0.02-0.154-0.098-0.263-0.091
							c-0.104,0.01-0.278,0.094-0.192,0.138c0.085,0.046,0.147,0.064,0.244,0.043C421.02,296.836,421.095,296.788,421.137,296.77
							L421.137,296.77z"/>
					</g>
				</g>
				<g clip-path="url(#SVGID_6_)">
					<g>
						<defs>
							<rect id="SVGID_67_" x="420.309" y="297.44" width="0.289" height="0.501"/>
						</defs>
						<clipPath id="SVGID_68_">
							<use xlink:href="#SVGID_67_"  overflow="visible"/>
						</clipPath>
						<path clip-path="url(#SVGID_68_)" fill="#121139" d="M420.309,297.44c0.015,0.057,0.055,0.532,0.08,0.498
							s0.221-0.488,0.209-0.488C420.584,297.45,420.323,297.462,420.309,297.44L420.309,297.44z"/>
					</g>
				</g>
				<g clip-path="url(#SVGID_6_)">
					<path fill="#010101" d="M420.386,297.957c-0.026,0-0.034-0.016-0.071-0.351c-0.008-0.078-0.016-0.145-0.02-0.162
						c0.028-0.015,0.047-0.009,0.158-0.007l0.129-0.003c0.045,0.04-0.178,0.51-0.181,0.515L420.386,297.957L420.386,297.957z
						 M420.314,297.46c0.02,0.024,0.025,0.08,0.033,0.144c0.01,0.094,0.026,0.244,0.041,0.303c0.047-0.094,0.189-0.427,0.193-0.455
						l-0.129,0.019C420.371,297.47,420.333,297.466,420.314,297.46L420.314,297.46z"/>
				</g>
				<g clip-path="url(#SVGID_6_)">
					<path fill="#010101" d="M420.508,297.591l-0.043-0.002c-0.064-0.017-0.116-0.018-0.162-0.022
						c-0.078-0.004-0.16-0.009-0.156-0.112c0.009-0.201,0.154-0.154,0.35-0.134c0.193,0.021,0.302,0.097,0.324,0.14
						C420.795,297.547,420.629,297.591,420.508,297.591L420.508,297.591z M420.323,297.372c-0.094,0-0.108,0.025-0.112,0.085
						c-0.002,0.033,0.002,0.04,0.098,0.046c0.046,0.003,0.103,0.006,0.166,0.023h0.033c0.122,0,0.244-0.044,0.262-0.058
						c-0.018,0.006-0.102-0.062-0.28-0.083C420.422,297.378,420.365,297.372,420.323,297.372L420.323,297.372z"/>
				</g>
				<g clip-path="url(#SVGID_6_)">
					<path fill="none" d="M420.494,297.116l-0.027,0.215L420.494,297.116z"/>
				</g>
				<g clip-path="url(#SVGID_6_)">
					<path fill="#010101" d="M421.379,296.816c0.007-0.092,0.075-0.123,0.09-0.159c-0.002-0.017-0.062-0.058-0.119-0.081
						l0.033-0.081c0.034,0.015,0.207,0.09,0.168,0.193C421.517,296.773,421.393,296.812,421.379,296.816L421.379,296.816z"/>
				</g>
				<g clip-path="url(#SVGID_6_)">
					<path fill="none" d="M419.945,296.479c-0.04,0.011-0.092,0.034-0.119,0.125c-0.025,0.091,0.119,0.146,0.119,0.146V296.479z"/>
				</g>
				<g clip-path="url(#SVGID_6_)">
					<path fill="#010101" d="M420.48,297.159c-0.08,0-0.191-0.009-0.22-0.084c-0.026-0.069,0.048-0.141,0.062-0.153l0.057,0.065
						c-0.022,0.02-0.041,0.051-0.037,0.058c0,0,0.015,0.027,0.138,0.027c0.108,0,0.127-0.019,0.128-0.019l-0.011-0.119
						c0.026,0.017,0.111,0.079,0.092,0.149C420.67,297.15,420.567,297.159,420.48,297.159L420.48,297.159z"/>
				</g>
				<polygon clip-path="url(#SVGID_6_)" fill="#F2C326" points="421.042,309.511 421.584,307.73 420.078,306.609 421.964,306.567 
					422.579,304.81 423.204,306.564 425.09,306.599 423.588,307.724 424.139,309.503 422.588,308.445 				"/>
				<g clip-path="url(#SVGID_6_)">
					<g>
						<defs>
							<rect id="SVGID_69_" x="420.496" y="305.299" width="4.174" height="3.735"/>
						</defs>
						<clipPath id="SVGID_70_">
							<use xlink:href="#SVGID_69_"  overflow="visible"/>
						</clipPath>
						<polygon clip-path="url(#SVGID_70_)" fill="#17341E" points="421.301,309.034 421.751,307.62 420.496,306.728 
							422.068,306.695 422.579,305.299 423.099,306.693 424.67,306.721 423.422,307.615 423.88,309.027 422.588,308.187 						"/>
					</g>
				</g>
				<polygon clip-path="url(#SVGID_6_)" fill="#F2C326" points="417.939,305.902 418.477,304.218 416.988,303.159 418.852,303.119 
					419.459,301.457 420.076,303.118 421.942,303.147 420.459,304.215 421.002,305.896 419.468,304.894 				"/>
				<g clip-path="url(#SVGID_6_)">
					<g>
						<defs>
							<rect id="SVGID_71_" x="417.399" y="301.921" width="4.13" height="3.531"/>
						</defs>
						<clipPath id="SVGID_72_">
							<use xlink:href="#SVGID_71_"  overflow="visible"/>
						</clipPath>
						<polygon clip-path="url(#SVGID_72_)" fill="#17341E" points="418.195,305.452 418.641,304.114 417.399,303.272 
							418.953,303.24 419.459,301.921 419.974,303.238 421.529,303.265 420.292,304.109 420.746,305.446 419.468,304.65 						"/>
					</g>
				</g>
				<polygon clip-path="url(#SVGID_6_)" fill="#F2C326" points="424.193,305.902 424.732,304.218 423.227,303.159 425.116,303.119 
					425.732,301.457 426.354,303.118 428.246,303.147 426.741,304.215 427.293,305.896 425.74,304.894 				"/>
				<g clip-path="url(#SVGID_6_)">
					<g>
						<defs>
							<rect id="SVGID_73_" x="423.645" y="301.921" width="4.182" height="3.531"/>
						</defs>
						<clipPath id="SVGID_74_">
							<use xlink:href="#SVGID_73_"  overflow="visible"/>
						</clipPath>
						<polygon clip-path="url(#SVGID_74_)" fill="#17341E" points="424.449,305.452 424.9,304.114 423.645,303.272 425.219,303.24 
							425.732,301.921 426.252,303.238 427.826,303.265 426.574,304.109 427.033,305.446 425.74,304.65 						"/>
					</g>
				</g>
				<path clip-path="url(#SVGID_6_)" fill="#010101" d="M413.496,307.323l0.929-0.524l0.089,0.19l-0.367,0.207l0.122,0.265
					l0.366-0.208l0.086,0.193l-0.93,0.525l-0.088-0.191l0.422-0.238l-0.121-0.265l-0.423,0.238L413.496,307.323L413.496,307.323z
					 M413.884,308.139l0.87-0.643l0.297,0.496l-0.146,0.106l-0.188-0.318l-0.202,0.149l0.177,0.295l-0.14,0.104l-0.174-0.297
					l-0.239,0.178l0.192,0.324l-0.146,0.107L413.884,308.139L413.884,308.139z M414.49,309.073l0.766-0.787l0.133,0.156l-0.302,0.31
					l0.183,0.219l0.299-0.312l0.133,0.159l-0.768,0.787l-0.132-0.156l0.348-0.359l-0.182-0.216l-0.345,0.358L414.49,309.073
					L414.49,309.073z M415.492,309.539l0.125,0.123l0.226-0.429L415.492,309.539L415.492,309.539z M415.005,309.687l0.866-0.7
					l0.196,0.19l-0.512,1.047l-0.156-0.155l0.134-0.256l-0.168-0.164l-0.211,0.183L415.005,309.687L415.005,309.687z
					 M415.76,310.387l0.518-0.781l-0.182-0.146l0.102-0.154l0.518,0.422l-0.102,0.154l-0.18-0.148l-0.518,0.784L415.76,310.387
					L415.76,310.387z M416.184,310.725l0.544-0.99l0.165,0.112l-0.213,0.39l0.227,0.155l0.213-0.391l0.167,0.111l-0.546,0.99
					l-0.164-0.11l0.246-0.449l-0.227-0.154l-0.247,0.448L416.184,310.725L416.184,310.725z M417.207,311.373l0.438-1.053
					l0.495,0.254l-0.07,0.172l-0.321-0.162l-0.103,0.248l0.302,0.154l-0.071,0.169l-0.301-0.154l-0.193,0.463L417.207,311.373
					L417.207,311.373z M418.176,311.214c-0.062,0.178-0.09,0.294-0.088,0.348c0.005,0.054,0.031,0.093,0.08,0.114
					c0.05,0.021,0.093,0.014,0.125-0.026c0.034-0.036,0.082-0.146,0.145-0.325c0.062-0.18,0.092-0.298,0.09-0.352
					c-0.006-0.055-0.031-0.092-0.082-0.112c-0.049-0.023-0.091-0.013-0.125,0.025S418.238,311.033,418.176,311.214L418.176,311.214z
					 M417.989,311.136c0.041-0.116,0.077-0.206,0.109-0.271c0.034-0.063,0.065-0.11,0.099-0.136c0.047-0.038,0.09-0.059,0.137-0.062
					c0.049-0.005,0.103,0.006,0.166,0.034c0.064,0.025,0.113,0.058,0.146,0.097c0.032,0.038,0.054,0.086,0.067,0.148
					c0.008,0.044,0.002,0.103-0.012,0.175c-0.012,0.072-0.04,0.168-0.077,0.281c-0.04,0.114-0.075,0.203-0.109,0.269
					c-0.032,0.064-0.066,0.111-0.098,0.137c-0.046,0.038-0.091,0.058-0.138,0.062c-0.049,0.006-0.103-0.006-0.166-0.033
					c-0.066-0.028-0.114-0.06-0.146-0.098c-0.032-0.038-0.054-0.087-0.065-0.149c-0.01-0.042-0.006-0.101,0.006-0.173
					C417.922,311.345,417.949,311.251,417.989,311.136L417.989,311.136z M418.887,310.889l0.187,0.062l-0.2,0.747
					c-0.021,0.088-0.029,0.147-0.019,0.186c0.011,0.036,0.04,0.062,0.088,0.078c0.048,0.018,0.085,0.013,0.11-0.014
					c0.027-0.024,0.055-0.08,0.076-0.166l0.199-0.747l0.186,0.061l-0.206,0.769c-0.021,0.074-0.038,0.126-0.056,0.159
					c-0.018,0.031-0.037,0.059-0.061,0.078c-0.039,0.029-0.082,0.045-0.131,0.053c-0.049,0.004-0.105-0.005-0.166-0.023
					c-0.114-0.038-0.187-0.092-0.219-0.163c-0.031-0.069-0.03-0.175,0.006-0.311L418.887,310.889L418.887,310.889z M419.389,312.256
					l0.227-1.133l0.196,0.048l0.104,0.859l0.154-0.792l0.179,0.044l-0.228,1.133l-0.195-0.048l-0.105-0.862l-0.156,0.796
					L419.389,312.256L419.389,312.256z M420.408,312.314l0.086,0.015c0.042,0.008,0.073,0.01,0.09,0.005
					c0.021-0.004,0.036-0.014,0.049-0.028c0.021-0.028,0.04-0.065,0.056-0.116c0.014-0.05,0.029-0.132,0.047-0.247
					c0.016-0.11,0.021-0.191,0.02-0.244c-0.003-0.052-0.011-0.094-0.028-0.122c-0.01-0.016-0.024-0.025-0.04-0.034
					c-0.017-0.01-0.046-0.016-0.082-0.024l-0.081-0.014L420.408,312.314L420.408,312.314z M420.195,312.449l0.162-1.145l0.31,0.054
					c0.062,0.01,0.11,0.024,0.147,0.043c0.034,0.02,0.062,0.044,0.082,0.073c0.033,0.047,0.052,0.102,0.058,0.164
					c0.005,0.062,0.003,0.154-0.018,0.281c-0.022,0.163-0.042,0.278-0.062,0.342c-0.021,0.067-0.048,0.121-0.076,0.164
					c-0.031,0.042-0.068,0.07-0.114,0.082c-0.044,0.01-0.119,0.006-0.223-0.012L420.195,312.449L420.195,312.449z M421.005,312.582
					l0.1-1.155l0.534,0.059l-0.018,0.191l-0.34-0.035l-0.026,0.267l0.318,0.034l-0.015,0.184l-0.318-0.034l-0.027,0.318l0.352,0.035
					l-0.02,0.196L421.005,312.582L421.005,312.582z M421.886,312.489l0.087,0.004c0.044,0.003,0.075-0.001,0.092-0.008
					c0.019-0.006,0.031-0.018,0.043-0.034c0.02-0.027,0.034-0.07,0.043-0.121c0.008-0.053,0.016-0.137,0.02-0.253
					c0.003-0.11,0.002-0.193-0.004-0.245c-0.009-0.05-0.021-0.092-0.043-0.117c-0.013-0.014-0.027-0.023-0.044-0.029
					c-0.019-0.008-0.044-0.01-0.083-0.01l-0.085-0.005L421.886,312.489L421.886,312.489z M421.689,312.652l0.037-1.159l0.314,0.012
					c0.062,0.003,0.111,0.012,0.151,0.025c0.036,0.015,0.068,0.034,0.09,0.062c0.035,0.041,0.062,0.093,0.072,0.153
					c0.015,0.062,0.019,0.156,0.015,0.283c-0.005,0.164-0.015,0.281-0.025,0.348c-0.014,0.068-0.033,0.125-0.061,0.171
					c-0.025,0.048-0.06,0.079-0.104,0.097c-0.043,0.017-0.117,0.023-0.222,0.018L421.689,312.652L421.689,312.652z M422.854,312.668
					l-0.042-1.159l0.193-0.01l0.042,1.159L422.854,312.668L422.854,312.668z M423.373,312.637l-0.072-0.964l-0.222,0.02l-0.015-0.19
					l0.64-0.059l0.015,0.19l-0.223,0.021l0.07,0.966L423.373,312.637L423.373,312.637z M424.057,311.393l0.193-0.035l0.121,0.77
					c0.012,0.09,0.031,0.145,0.058,0.174c0.022,0.028,0.06,0.036,0.109,0.028c0.048-0.011,0.081-0.033,0.095-0.068
					c0.015-0.034,0.015-0.097,0-0.188l-0.121-0.768l0.189-0.035l0.122,0.788c0.013,0.077,0.019,0.134,0.015,0.171
					c-0.002,0.037-0.01,0.069-0.023,0.1c-0.021,0.047-0.054,0.082-0.096,0.112c-0.041,0.028-0.094,0.048-0.156,0.061
					c-0.117,0.021-0.205,0.01-0.262-0.037c-0.059-0.048-0.097-0.142-0.119-0.284L424.057,311.393L424.057,311.393z M425.098,311.687
					l0.078-0.02c0.06-0.018,0.097-0.04,0.115-0.072c0.018-0.033,0.02-0.078,0.007-0.141s-0.034-0.103-0.062-0.121
					c-0.026-0.019-0.07-0.021-0.132-0.003l-0.082,0.021L425.098,311.687L425.098,311.687z M425.054,312.371l-0.247-1.128
					l0.326-0.088c0.103-0.028,0.178-0.022,0.234,0.016c0.055,0.038,0.096,0.114,0.118,0.226c0.025,0.112,0.021,0.202-0.016,0.271
					c-0.034,0.066-0.099,0.112-0.194,0.139l-0.14,0.036l0.105,0.479L425.054,312.371L425.054,312.371z M425.801,311.553
					c0.05,0.183,0.091,0.295,0.125,0.336c0.034,0.039,0.075,0.05,0.125,0.031c0.054-0.018,0.082-0.052,0.085-0.104
					c0.006-0.056-0.017-0.172-0.067-0.357c-0.055-0.183-0.098-0.295-0.13-0.336c-0.032-0.04-0.073-0.05-0.124-0.031
					c-0.054,0.017-0.082,0.053-0.085,0.106C425.725,311.252,425.745,311.371,425.801,311.553L425.801,311.553z M425.609,311.62
					c-0.033-0.116-0.056-0.212-0.064-0.286c-0.012-0.073-0.012-0.132,0.002-0.174c0.014-0.062,0.038-0.109,0.072-0.146
					c0.033-0.034,0.082-0.063,0.148-0.087c0.064-0.023,0.121-0.032,0.166-0.023c0.047,0.008,0.092,0.029,0.137,0.069
					c0.031,0.031,0.062,0.077,0.092,0.144c0.027,0.066,0.061,0.159,0.095,0.275c0.032,0.116,0.056,0.212,0.063,0.285
					c0.012,0.073,0.012,0.131,0,0.177c-0.016,0.06-0.039,0.107-0.074,0.145c-0.033,0.036-0.082,0.064-0.148,0.088
					c-0.064,0.023-0.121,0.03-0.166,0.023c-0.047-0.008-0.092-0.031-0.137-0.071c-0.028-0.028-0.06-0.074-0.09-0.141
					C425.676,311.83,425.643,311.739,425.609,311.62L425.609,311.62z M426.564,311.886l-0.389-1.077l0.185-0.082l0.524,0.641
					l-0.275-0.752l0.172-0.076l0.388,1.076l-0.187,0.083l-0.525-0.64l0.277,0.75L426.564,311.886L426.564,311.886z M427.775,311.292
					l-0.409-0.856l-0.197,0.116l-0.081-0.169l0.568-0.334l0.079,0.169l-0.196,0.116l0.406,0.858L427.775,311.292L427.775,311.292z
					 M428.232,311.02l-0.557-0.983l0.162-0.114l0.221,0.384l0.225-0.156l-0.219-0.385l0.162-0.115l0.557,0.98l-0.161,0.115
					l-0.253-0.445l-0.225,0.159l0.252,0.445L428.232,311.02L428.232,311.02z M428.929,310.517l-0.628-0.927l0.428-0.357l0.104,0.151
					l-0.272,0.23l0.145,0.214l0.256-0.214l0.1,0.146l-0.256,0.216l0.173,0.253l0.281-0.234l0.105,0.156L428.929,310.517
					L428.929,310.517z M429.467,309.521l0.139-0.153l0.048,0.054c0.046,0.052,0.081,0.08,0.109,0.086s0.056-0.006,0.082-0.037
					c0.03-0.031,0.044-0.064,0.047-0.098c0-0.033-0.015-0.067-0.042-0.1c-0.023-0.024-0.046-0.04-0.072-0.046
					c-0.027-0.007-0.068-0.004-0.13,0.007l-0.119,0.023c-0.104,0.019-0.179,0.022-0.222,0.01c-0.043-0.015-0.088-0.043-0.128-0.091
					c-0.062-0.068-0.091-0.143-0.088-0.224c0.003-0.079,0.036-0.154,0.099-0.226c0.07-0.075,0.143-0.112,0.215-0.109
					c0.076,0.002,0.146,0.041,0.215,0.119c0.008,0.008,0.013,0.015,0.018,0.019c0.002,0.005,0.005,0.009,0.01,0.013l-0.133,0.143
					l-0.02-0.021c-0.04-0.044-0.074-0.068-0.104-0.075c-0.033-0.003-0.062,0.01-0.093,0.043c-0.022,0.023-0.032,0.051-0.032,0.08
					s0.013,0.055,0.033,0.081c0.03,0.034,0.093,0.042,0.188,0.021c0.002,0,0.002,0,0.002,0l0.129-0.025
					c0.09-0.021,0.16-0.022,0.212-0.009c0.05,0.015,0.1,0.05,0.147,0.105c0.068,0.074,0.1,0.154,0.098,0.237
					c-0.004,0.082-0.041,0.165-0.111,0.241c-0.075,0.082-0.15,0.122-0.225,0.118c-0.074-0.002-0.15-0.049-0.23-0.137
					c-0.007-0.009-0.021-0.024-0.037-0.048L429.467,309.521L429.467,309.521z M430.275,309.195l-0.801-0.747l0.344-0.456
					l0.133,0.125l-0.219,0.291l0.186,0.173l0.204-0.273l0.128,0.119l-0.205,0.271l0.219,0.206l0.225-0.299l0.139,0.125
					L430.275,309.195L430.275,309.195z M430.48,308.155l0.09-0.152l-0.408-0.194L430.48,308.155L430.48,308.155z M430.67,308.674
					l-0.734-0.865l0.146-0.241l1,0.431l-0.118,0.192l-0.247-0.116l-0.125,0.207l0.19,0.209L430.67,308.674L430.67,308.674z
					 M430.793,307.73l0.09-0.193l0.061,0.034c0.057,0.033,0.1,0.046,0.127,0.044c0.029-0.006,0.052-0.025,0.068-0.066
					c0.02-0.04,0.024-0.077,0.018-0.106c-0.012-0.031-0.034-0.059-0.068-0.08c-0.028-0.017-0.055-0.022-0.082-0.019
					c-0.029,0.005-0.068,0.021-0.123,0.053l-0.107,0.062c-0.091,0.055-0.162,0.084-0.206,0.086c-0.044,0.004-0.095-0.011-0.146-0.04
					c-0.077-0.044-0.129-0.105-0.148-0.182s-0.01-0.158,0.033-0.249c0.043-0.097,0.101-0.157,0.172-0.182
					c0.069-0.024,0.15-0.01,0.238,0.041c0.008,0.003,0.014,0.007,0.02,0.012c0.004,0.003,0.009,0.005,0.012,0.008l-0.084,0.184
					l-0.023-0.015c-0.052-0.029-0.092-0.041-0.121-0.033c-0.03,0.005-0.056,0.028-0.076,0.069c-0.012,0.032-0.017,0.061-0.008,0.089
					c0.008,0.026,0.025,0.049,0.057,0.064c0.037,0.022,0.1,0.006,0.182-0.044c0.003-0.002,0.003-0.002,0.004-0.002l0.113-0.069
					c0.08-0.05,0.147-0.075,0.198-0.079c0.054-0.005,0.109,0.01,0.172,0.045c0.084,0.049,0.138,0.112,0.157,0.192
					c0.021,0.079,0.01,0.169-0.036,0.27c-0.048,0.104-0.108,0.166-0.179,0.19c-0.072,0.022-0.156,0.006-0.259-0.05
					c-0.009-0.006-0.026-0.019-0.048-0.032L430.793,307.73L430.793,307.73z"/>
			</g>
		</g>
	</g>
</g>
</svg>
