<?xml version="1.0" encoding="utf-8"?>
<!-- Generator: Adobe Illustrator 16.0.0, SVG Export Plug-In . SVG Version: 6.00 Build 0)  -->
<!DOCTYPE svg PUBLIC "-//W3C//DTD SVG 1.1//EN" "http://www.w3.org/Graphics/SVG/1.1/DTD/svg11.dtd">
<svg version="1.1" id="name" xmlns="http://www.w3.org/2000/svg" xmlns:xlink="http://www.w3.org/1999/xlink" x="0px" y="0px"
	 width="85.711px" height="50px" viewBox="358 276 85.711 50" enable-background="new 358 276 85.711 50" xml:space="preserve">
<g id="kz">
	<g>
		<defs>
			<rect id="SVGID_1_" x="358" y="276" width="85.711" height="50"/>
		</defs>
		<clipPath id="SVGID_2_">
			<use xlink:href="#SVGID_1_"  overflow="visible"/>
		</clipPath>
		<rect x="358" y="276" clip-path="url(#SVGID_2_)" fill="#4EAEC4" width="85.711" height="50"/>
		<g clip-path="url(#SVGID_2_)">
			<defs>
				<rect id="SVGID_3_" x="358" y="276" width="85.711" height="50"/>
			</defs>
			<clipPath id="SVGID_4_">
				<use xlink:href="#SVGID_3_"  overflow="visible"/>
			</clipPath>
			<path clip-path="url(#SVGID_4_)" fill="#F5C933" d="M363.631,311.258c0-1,0.902-1.515,1.608-1.515
				c0.952,0,1.458,0.568,1.458,1.312c0,0.424-0.077,0.688-0.271,1.091c0,0-1.573,3.259-2.184,4.521
				c-0.077,0.159-0.101,0.338-0.101,0.6c0,0.406,0.394,0.735,0.807,0.747c0.376,0.009,0.787-0.353,0.787-0.762
				c0-0.497-0.259-0.719-0.524-0.719c-0.328,0-0.458,0.134-0.458,0.364c0,0.159,0.08,0.228,0.19,0.228
				c0.279,0,0.201-0.375,0.201-0.375c0.139,0.028,0.254,0.17,0.189,0.349c0.101,0.023,0.197,0.077,0.272,0.162
				c-0.075,0.071-0.162,0.128-0.272,0.147c0.065,0.217-0.021,0.321-0.213,0.367c0.039-0.086,0.042-0.162,0.028-0.233
				c-0.299,0.085-0.757-0.048-0.757-0.565c0-0.511,0.355-0.94,1.022-0.832c-0.159-0.077-0.24-0.23-0.255-0.406
				c0.121,0.048,0.255,0.054,0.255,0.054c-0.078-0.137-0.188-0.256-0.18-0.525c0.122,0.057,0.237,0.162,0.396,0.097
				c-0.25-0.489,0.055-1.159,0.832-1.318c-0.284,0.332-0.422,0.69-0.422,1.048c0,1.159,0.321,1.355,0.321,2.159
				c0,0.339-0.173,0.702-0.517,0.949v-0.014c0.227,0.062,0.372,0.173,0.458,0.326c-0.52,0.145-1.276,0.143-1.684-0.017
				c-0.466-0.052-0.79-0.409-0.886-0.591c-0.097-0.183-0.283-0.839,0-1.427c0.31-0.645,1.767-3.728,2.219-4.696
				c0.097-0.204,0.155-0.423,0.155-0.659c0-0.594-0.545-0.801-0.852-0.801c-0.371,0-0.749,0.281-0.749,0.631
				c0,0.224,0.122,0.357,0.297,0.357c0.417,0,0.393-0.354,0.308-0.576c0.261,0.116,0.413,0.323,0.371,0.542
				c0.149,0.021,0.287,0.091,0.418,0.236c-0.103,0.128-0.228,0.225-0.418,0.229c0.084,0.341-0.145,0.483-0.371,0.562
				c0.072-0.247,0.119-0.536-0.308-0.536c-0.312,0-0.557-0.055-0.701-0.256c-0.007,0.27-0.034,1.332-0.034,1.332
				c-0.018,0.4,0.537,0.39,0.888,0.271c-0.132,0.46-0.405,0.71-1.034,0.645c0.152,0.065,0.315,0.207,0.315,0.485
				c0,0.373-0.306,0.79-0.504,0.912L363.631,311.258z"/>
			<path clip-path="url(#SVGID_4_)" fill="#F5C933" d="M363.831,311.258c0-1-0.899-1.515-1.608-1.515
				c-0.952,0-1.459,0.568-1.459,1.312c0,0.424,0.077,0.688,0.273,1.091c0,0,1.571,3.259,2.184,4.521
				c0.077,0.159,0.101,0.338,0.101,0.6c0,0.406-0.395,0.735-0.808,0.747c-0.375,0.009-0.786-0.353-0.786-0.762
				c0-0.497,0.257-0.719,0.522-0.719c0.328,0,0.459,0.134,0.459,0.364c0,0.159-0.078,0.228-0.189,0.228
				c-0.28,0-0.202-0.375-0.202-0.375c-0.139,0.028-0.253,0.17-0.189,0.349c-0.101,0.023-0.197,0.077-0.271,0.162
				c0.074,0.071,0.16,0.128,0.271,0.147c-0.064,0.217,0.023,0.321,0.213,0.367c-0.039-0.086-0.04-0.162-0.029-0.233
				c0.3,0.085,0.757-0.048,0.757-0.565c0-0.511-0.354-0.94-1.023-0.832c0.159-0.077,0.24-0.23,0.256-0.406
				c-0.121,0.048-0.256,0.054-0.256,0.054c0.078-0.137,0.188-0.256,0.182-0.525c-0.124,0.057-0.237,0.162-0.396,0.097
				c0.249-0.489-0.057-1.159-0.834-1.318c0.284,0.332,0.423,0.69,0.423,1.048c0,1.159-0.322,1.355-0.322,2.159
				c0,0.339,0.173,0.702,0.517,0.949v-0.014c-0.228,0.062-0.372,0.173-0.458,0.326c0.52,0.145,1.277,0.143,1.684-0.017
				c0.467-0.052,0.791-0.409,0.888-0.591c0.097-0.183,0.281-0.839,0-1.427c-0.311-0.645-1.767-3.728-2.22-4.696
				c-0.097-0.204-0.155-0.423-0.155-0.659c0-0.594,0.545-0.801,0.854-0.801c0.37,0,0.749,0.281,0.749,0.631
				c0,0.224-0.124,0.357-0.298,0.357c-0.416,0-0.392-0.354-0.308-0.576c-0.261,0.116-0.412,0.323-0.371,0.542
				c-0.146,0.021-0.287,0.091-0.418,0.236c0.103,0.128,0.228,0.225,0.418,0.229c-0.084,0.341,0.145,0.483,0.371,0.562
				c-0.072-0.247-0.118-0.536,0.308-0.536c0.312,0,0.557-0.055,0.701-0.256c0.008,0.27,0.034,1.332,0.034,1.332
				c0.019,0.4-0.537,0.39-0.888,0.271c0.133,0.46,0.405,0.71,1.034,0.645c-0.152,0.065-0.315,0.207-0.315,0.485
				c0,0.373,0.306,0.79,0.506,0.912L363.831,311.258z"/>
			<path clip-path="url(#SVGID_4_)" fill="#F5C933" d="M363.732,322.073c0,0,0.474,0.398,0.635,0.199
				c0.26-0.324-0.797-1.923-0.797-2.488c0-0.924,0.618-1.177,1.384-1.308c0.513-0.091,1.348,0.037,1.348,0.037
				c-0.158,0.21-0.26,0.272-0.526,0.29c0.295,0.153,0.595,0.482,0.595,1c0,0.796-0.328,1.125-0.328,2.02
				c0,0.5,0.409,1.134,0.409,1.134c-0.723-0.071-1.081-0.741-0.878-1.275c-0.114-0.018-0.219,0.012-0.31,0.094
				c-0.053-0.147,0.03-0.318,0.144-0.466c-0.091-0.049-0.158-0.021-0.3,0.011c0.014-0.153,0.104-0.314,0.33-0.469
				c-0.651,0.168-1.05-0.283-1.05-0.758c0-0.355,0.251-0.614,0.494-0.614c0.081,0,0.198,0.034,0.264,0.083
				c0.046-0.1,0.021-0.23-0.027-0.327c0.179,0.046,0.294,0.153,0.213,0.375c0.138,0.012,0.249,0.06,0.322,0.147
				c-0.074,0.097-0.192,0.154-0.322,0.148c0.101,0.207-0.012,0.323-0.175,0.417c0,0,0.102-0.417-0.161-0.417
				c-0.121,0-0.23,0.039-0.23,0.213c0,0.153,0.135,0.366,0.444,0.353c0.309-0.015,0.56-0.214,0.56-0.705
				c0-0.454-0.368-0.682-0.851-0.696c-0.436-0.014-0.767,0.222-0.767,0.674c0,0.597,0.865,1.96,0.865,2.494
				c0,0.4-0.359,0.622-0.715,0.622c-0.456,0-0.842-0.451-0.842-0.451L363.732,322.073z"/>
			<path clip-path="url(#SVGID_4_)" fill="#F5C933" d="M363.732,322.073c0,0-0.476,0.398-0.636,0.199
				c-0.26-0.324,0.797-1.923,0.797-2.488c0-0.924-0.618-1.177-1.382-1.308c-0.514-0.091-1.35,0.037-1.35,0.037
				c0.158,0.21,0.26,0.272,0.526,0.29c-0.296,0.153-0.596,0.482-0.596,1c0,0.796,0.329,1.125,0.329,2.02
				c0,0.5-0.409,1.134-0.409,1.134c0.723-0.071,1.081-0.741,0.878-1.275c0.115-0.018,0.219,0.012,0.31,0.094
				c0.052-0.147-0.03-0.318-0.142-0.466c0.089-0.049,0.156-0.021,0.3,0.011c-0.014-0.153-0.105-0.314-0.331-0.469
				c0.65,0.168,1.051-0.283,1.051-0.758c0-0.355-0.25-0.614-0.496-0.614c-0.08,0-0.198,0.034-0.263,0.083
				c-0.047-0.1-0.022-0.23,0.026-0.327c-0.179,0.046-0.294,0.153-0.213,0.375c-0.136,0.012-0.247,0.06-0.322,0.147
				c0.075,0.097,0.192,0.154,0.322,0.148c-0.101,0.207,0.011,0.323,0.175,0.417c0,0-0.102-0.417,0.161-0.417
				c0.122,0,0.23,0.039,0.23,0.213c0,0.153-0.135,0.366-0.445,0.353c-0.308-0.015-0.56-0.214-0.56-0.705
				c0-0.454,0.368-0.682,0.851-0.696c0.438-0.014,0.767,0.222,0.767,0.674c0,0.597-0.865,1.96-0.865,2.494
				c0,0.4,0.361,0.622,0.715,0.622c0.456,0,0.842-0.451,0.842-0.451L363.732,322.073z"/>
			<path clip-path="url(#SVGID_4_)" fill="#F5C933" d="M363.631,293.748c0-1,0.902-1.514,1.608-1.514
				c0.952,0,1.458,0.567,1.458,1.312c0,0.42-0.077,0.688-0.271,1.091c0,0-1.573,3.259-2.184,4.52
				c-0.077,0.159-0.101,0.339-0.101,0.6c0,0.403,0.394,0.736,0.807,0.747c0.376,0.009,0.787-0.35,0.787-0.761
				c0-0.497-0.259-0.719-0.524-0.719c-0.328,0-0.458,0.133-0.458,0.363c0,0.159,0.08,0.228,0.19,0.228
				c0.279,0,0.201-0.375,0.201-0.375c0.139,0.028,0.254,0.17,0.189,0.35c0.101,0.022,0.197,0.073,0.272,0.161
				c-0.075,0.071-0.162,0.128-0.272,0.148c0.065,0.216-0.021,0.32-0.213,0.366c0.039-0.082,0.042-0.159,0.028-0.233
				c-0.299,0.086-0.757-0.051-0.757-0.565c0-0.511,0.355-0.939,1.022-0.835c-0.159-0.073-0.24-0.229-0.255-0.403
				c0.121,0.049,0.255,0.057,0.255,0.057c-0.078-0.139-0.188-0.256-0.18-0.525c0.122,0.054,0.237,0.159,0.396,0.094
				c-0.25-0.488,0.055-1.159,0.832-1.318c-0.284,0.332-0.422,0.69-0.422,1.049c0,1.159,0.321,1.354,0.321,2.159
				c0,0.338-0.173,0.701-0.517,0.948v-0.011c0.227,0.06,0.372,0.17,0.458,0.323c-0.52,0.146-1.276,0.146-1.684-0.017
				c-0.466-0.054-0.79-0.409-0.886-0.591s-0.283-0.836,0-1.427c0.31-0.645,1.767-3.728,2.219-4.696
				c0.097-0.204,0.155-0.423,0.155-0.659c0-0.594-0.545-0.801-0.852-0.801c-0.371,0-0.749,0.281-0.749,0.634
				c0,0.222,0.122,0.354,0.297,0.354c0.417,0,0.393-0.354,0.308-0.579c0.261,0.116,0.413,0.326,0.371,0.545
				c0.149,0.021,0.287,0.092,0.418,0.236c-0.103,0.128-0.228,0.225-0.418,0.23c0.084,0.341-0.145,0.482-0.371,0.565
				c0.072-0.253,0.119-0.54-0.308-0.54c-0.312,0-0.557-0.055-0.701-0.256c-0.007,0.27-0.034,1.332-0.034,1.332
				c-0.018,0.401,0.537,0.387,0.888,0.271c-0.132,0.46-0.405,0.707-1.034,0.645c0.152,0.065,0.315,0.208,0.315,0.486
				c0,0.375-0.306,0.787-0.504,0.912L363.631,293.748z"/>
			<path clip-path="url(#SVGID_4_)" fill="#F5C933" d="M363.831,293.748c0-1-0.899-1.514-1.608-1.514
				c-0.952,0-1.459,0.567-1.459,1.312c0,0.42,0.077,0.688,0.273,1.091c0,0,1.571,3.259,2.184,4.52
				c0.077,0.159,0.101,0.339,0.101,0.6c0,0.403-0.395,0.736-0.808,0.747c-0.375,0.009-0.786-0.35-0.786-0.761
				c0-0.497,0.257-0.719,0.522-0.719c0.328,0,0.459,0.133,0.459,0.363c0,0.159-0.078,0.228-0.189,0.228
				c-0.28,0-0.202-0.375-0.202-0.375c-0.139,0.028-0.253,0.17-0.189,0.35c-0.101,0.022-0.197,0.073-0.271,0.161
				c0.074,0.071,0.16,0.128,0.271,0.148c-0.064,0.216,0.023,0.32,0.213,0.366c-0.039-0.082-0.04-0.159-0.029-0.233
				c0.3,0.086,0.757-0.051,0.757-0.565c0-0.511-0.354-0.939-1.023-0.835c0.159-0.073,0.24-0.229,0.256-0.403
				c-0.121,0.049-0.256,0.057-0.256,0.057c0.078-0.139,0.188-0.256,0.182-0.525c-0.124,0.054-0.237,0.159-0.396,0.094
				c0.249-0.488-0.057-1.159-0.834-1.318c0.284,0.332,0.423,0.69,0.423,1.049c0,1.159-0.322,1.354-0.322,2.159
				c0,0.338,0.173,0.701,0.517,0.948v-0.011c-0.228,0.06-0.372,0.17-0.458,0.323c0.52,0.146,1.277,0.146,1.684-0.017
				c0.467-0.054,0.791-0.409,0.888-0.591s0.281-0.836,0-1.427c-0.311-0.645-1.767-3.728-2.22-4.696
				c-0.097-0.204-0.155-0.423-0.155-0.659c0-0.594,0.545-0.801,0.854-0.801c0.37,0,0.749,0.281,0.749,0.634
				c0,0.222-0.124,0.354-0.298,0.354c-0.416,0-0.392-0.354-0.308-0.579c-0.261,0.116-0.412,0.326-0.371,0.545
				c-0.146,0.021-0.287,0.092-0.418,0.236c0.103,0.128,0.228,0.225,0.418,0.23c-0.084,0.341,0.145,0.482,0.371,0.565
				c-0.072-0.253-0.118-0.54,0.308-0.54c0.312,0,0.557-0.055,0.701-0.256c0.008,0.27,0.034,1.332,0.034,1.332
				c0.019,0.401-0.537,0.387-0.888,0.271c0.133,0.46,0.405,0.707,1.034,0.645c-0.152,0.065-0.315,0.208-0.315,0.486
				c0,0.375,0.306,0.787,0.506,0.912L363.831,293.748z"/>
			<path clip-path="url(#SVGID_4_)" fill="#F5C933" d="M363.831,290.748c0,1-0.899,1.515-1.608,1.515
				c-0.952,0-1.459-0.568-1.459-1.313c0-0.42,0.077-0.685,0.273-1.088c0,0,1.571-3.262,2.184-4.522
				c0.077-0.156,0.101-0.336,0.101-0.6c0-0.406-0.395-0.736-0.808-0.747c-0.375-0.009-0.786,0.352-0.786,0.761
				c0,0.498,0.257,0.72,0.522,0.72c0.328,0,0.459-0.134,0.459-0.361c0-0.162-0.078-0.23-0.189-0.23c-0.28,0-0.202,0.378-0.202,0.378
				c-0.139-0.031-0.253-0.173-0.189-0.353c-0.101-0.022-0.197-0.073-0.271-0.158c0.074-0.074,0.16-0.131,0.271-0.148
				c-0.064-0.219,0.023-0.323,0.213-0.369c-0.039,0.085-0.04,0.162-0.029,0.233c0.3-0.086,0.757,0.051,0.757,0.565
				c0,0.511-0.354,0.943-1.023,0.832c0.159,0.077,0.24,0.233,0.256,0.406c-0.121-0.048-0.256-0.054-0.256-0.054
				c0.078,0.136,0.188,0.256,0.182,0.525c-0.124-0.057-0.237-0.162-0.396-0.097c0.249,0.488-0.057,1.162-0.834,1.321
				c0.284-0.335,0.423-0.693,0.423-1.052c0-1.158-0.322-1.352-0.322-2.159c0-0.338,0.173-0.701,0.517-0.948v0.014
				c-0.228-0.06-0.372-0.173-0.458-0.323c0.52-0.148,1.277-0.146,1.684,0.014c0.467,0.054,0.791,0.412,0.888,0.591
				c0.097,0.182,0.281,0.838,0,1.427c-0.311,0.647-1.767,3.728-2.22,4.699c-0.097,0.204-0.155,0.42-0.155,0.659
				c0,0.591,0.545,0.798,0.854,0.798c0.37,0,0.749-0.281,0.749-0.631c0-0.225-0.124-0.357-0.298-0.357
				c-0.416,0-0.392,0.354-0.308,0.579c-0.261-0.116-0.412-0.324-0.371-0.545c-0.146-0.021-0.287-0.092-0.418-0.236
				c0.103-0.128,0.228-0.225,0.418-0.228c-0.084-0.341,0.145-0.485,0.371-0.565c-0.072,0.25-0.118,0.537,0.308,0.537
				c0.312,0,0.557,0.055,0.701,0.256c0.008-0.267,0.034-1.332,0.034-1.332c0.019-0.398-0.537-0.387-0.888-0.268
				c0.133-0.463,0.405-0.71,1.034-0.647c-0.152-0.062-0.315-0.208-0.315-0.486c0-0.372,0.306-0.786,0.506-0.909L363.831,290.748z"/>
			<path clip-path="url(#SVGID_4_)" fill="#F5C933" d="M363.631,290.748c0,1,0.902,1.515,1.608,1.515
				c0.952,0,1.458-0.568,1.458-1.313c0-0.42-0.077-0.685-0.271-1.088c0,0-1.573-3.262-2.184-4.522
				c-0.077-0.156-0.101-0.336-0.101-0.6c0-0.406,0.394-0.736,0.807-0.747c0.376-0.009,0.787,0.352,0.787,0.761
				c0,0.498-0.259,0.72-0.524,0.72c-0.328,0-0.458-0.134-0.458-0.361c0-0.162,0.08-0.23,0.19-0.23c0.279,0,0.201,0.378,0.201,0.378
				c0.139-0.031,0.254-0.173,0.189-0.353c0.101-0.022,0.197-0.073,0.272-0.158c-0.075-0.074-0.162-0.131-0.272-0.148
				c0.065-0.219-0.021-0.323-0.213-0.369c0.039,0.085,0.042,0.162,0.028,0.233c-0.299-0.086-0.757,0.051-0.757,0.565
				c0,0.511,0.355,0.943,1.022,0.832c-0.159,0.077-0.24,0.233-0.255,0.406c0.121-0.048,0.255-0.054,0.255-0.054
				c-0.078,0.136-0.188,0.256-0.18,0.525c0.122-0.057,0.237-0.162,0.396-0.097c-0.25,0.488,0.055,1.162,0.832,1.321
				c-0.284-0.335-0.422-0.693-0.422-1.052c0-1.158,0.321-1.352,0.321-2.159c0-0.338-0.173-0.701-0.517-0.948v0.014
				c0.227-0.06,0.372-0.173,0.458-0.323c-0.52-0.148-1.276-0.146-1.684,0.014c-0.466,0.054-0.79,0.412-0.886,0.591
				c-0.097,0.182-0.283,0.838,0,1.427c0.31,0.647,1.767,3.728,2.219,4.699c0.097,0.204,0.155,0.42,0.155,0.659
				c0,0.591-0.545,0.798-0.852,0.798c-0.371,0-0.749-0.281-0.749-0.631c0-0.225,0.122-0.357,0.297-0.357
				c0.417,0,0.393,0.354,0.308,0.579c0.261-0.116,0.413-0.324,0.371-0.545c0.149-0.021,0.287-0.092,0.418-0.236
				c-0.103-0.128-0.228-0.225-0.418-0.228c0.084-0.341-0.145-0.485-0.371-0.565c0.072,0.25,0.119,0.537-0.308,0.537
				c-0.312,0-0.557,0.055-0.701,0.256c-0.007-0.267-0.034-1.332-0.034-1.332c-0.018-0.398,0.537-0.387,0.888-0.268
				c-0.132-0.463-0.405-0.71-1.034-0.647c0.152-0.062,0.315-0.208,0.315-0.486c0-0.372-0.306-0.786-0.504-0.909L363.631,290.748z"/>
			<path clip-path="url(#SVGID_4_)" fill="#F5C933" d="M363.831,308.258c0,1-0.899,1.514-1.608,1.514
				c-0.952,0-1.459-0.568-1.459-1.312c0-0.42,0.077-0.685,0.273-1.091c0,0,1.571-3.259,2.184-4.521
				c0.077-0.156,0.101-0.335,0.101-0.599c0-0.403-0.395-0.736-0.808-0.747c-0.375-0.009-0.786,0.352-0.786,0.761
				c0,0.497,0.257,0.722,0.522,0.722c0.328,0,0.459-0.137,0.459-0.366c0-0.159-0.078-0.228-0.189-0.228
				c-0.28,0-0.202,0.378-0.202,0.378c-0.139-0.031-0.253-0.173-0.189-0.35c-0.101-0.022-0.197-0.076-0.271-0.162
				c0.074-0.073,0.16-0.13,0.271-0.15c-0.064-0.216,0.023-0.321,0.213-0.363c-0.039,0.082-0.04,0.159-0.029,0.229
				c0.3-0.085,0.757,0.052,0.757,0.565c0,0.512-0.354,0.943-1.023,0.836c0.159,0.076,0.24,0.229,0.256,0.403
				c-0.121-0.049-0.256-0.054-0.256-0.054c0.078,0.136,0.188,0.255,0.182,0.525c-0.124-0.057-0.237-0.162-0.396-0.094
				c0.249,0.485-0.057,1.159-0.834,1.318c0.284-0.333,0.423-0.693,0.423-1.052c0-1.159-0.322-1.353-0.322-2.159
				c0-0.338,0.173-0.701,0.517-0.948v0.014c-0.228-0.062-0.372-0.173-0.458-0.324c0.52-0.147,1.277-0.145,1.684,0.015
				c0.467,0.054,0.791,0.412,0.888,0.591c0.097,0.182,0.281,0.838,0,1.426c-0.311,0.648-1.767,3.73-2.22,4.697
				c-0.097,0.207-0.155,0.423-0.155,0.661c0,0.594,0.545,0.799,0.854,0.799c0.37,0,0.749-0.281,0.749-0.631
				c0-0.222-0.124-0.358-0.298-0.358c-0.416,0-0.392,0.355-0.308,0.58c-0.261-0.116-0.412-0.327-0.371-0.546
				c-0.146-0.02-0.287-0.091-0.418-0.235c0.103-0.128,0.228-0.225,0.418-0.228c-0.084-0.341,0.145-0.485,0.371-0.565
				c-0.072,0.25-0.118,0.537,0.308,0.537c0.312,0,0.557,0.054,0.701,0.256c0.008-0.27,0.034-1.333,0.034-1.333
				c0.019-0.397-0.537-0.386-0.888-0.27c0.133-0.457,0.405-0.707,1.034-0.645c-0.152-0.062-0.315-0.208-0.315-0.483
				c0-0.375,0.306-0.79,0.506-0.915L363.831,308.258z"/>
			<path clip-path="url(#SVGID_4_)" fill="#F5C933" d="M363.631,308.258c0,1,0.902,1.514,1.608,1.514
				c0.952,0,1.458-0.568,1.458-1.312c0-0.42-0.077-0.685-0.271-1.091c0,0-1.573-3.259-2.184-4.521
				c-0.077-0.156-0.101-0.335-0.101-0.599c0-0.403,0.394-0.736,0.807-0.747c0.376-0.009,0.787,0.352,0.787,0.761
				c0,0.497-0.259,0.722-0.524,0.722c-0.328,0-0.458-0.137-0.458-0.366c0-0.159,0.08-0.228,0.19-0.228
				c0.279,0,0.201,0.378,0.201,0.378c0.139-0.031,0.254-0.173,0.189-0.35c0.101-0.022,0.197-0.076,0.272-0.162
				c-0.075-0.073-0.162-0.13-0.272-0.15c0.065-0.216-0.021-0.321-0.213-0.363c0.039,0.082,0.042,0.159,0.028,0.229
				c-0.299-0.085-0.757,0.052-0.757,0.565c0,0.512,0.355,0.943,1.022,0.836c-0.159,0.076-0.24,0.229-0.255,0.403
				c0.121-0.049,0.255-0.054,0.255-0.054c-0.078,0.136-0.188,0.255-0.18,0.525c0.122-0.057,0.237-0.162,0.396-0.094
				c-0.25,0.485,0.055,1.159,0.832,1.318c-0.284-0.333-0.422-0.693-0.422-1.052c0-1.159,0.321-1.353,0.321-2.159
				c0-0.338-0.173-0.701-0.517-0.948v0.014c0.227-0.062,0.372-0.173,0.458-0.324c-0.52-0.147-1.276-0.145-1.684,0.015
				c-0.466,0.054-0.79,0.412-0.886,0.591c-0.097,0.182-0.283,0.838,0,1.426c0.31,0.648,1.767,3.73,2.219,4.697
				c0.097,0.207,0.155,0.423,0.155,0.661c0,0.594-0.545,0.799-0.852,0.799c-0.371,0-0.749-0.281-0.749-0.631
				c0-0.222,0.122-0.358,0.297-0.358c0.417,0,0.393,0.355,0.308,0.58c0.261-0.116,0.413-0.327,0.371-0.546
				c0.149-0.02,0.287-0.091,0.418-0.235c-0.103-0.128-0.228-0.225-0.418-0.228c0.084-0.341-0.145-0.485-0.371-0.565
				c0.072,0.25,0.119,0.537-0.308,0.537c-0.312,0-0.557,0.054-0.701,0.256c-0.007-0.27-0.034-1.333-0.034-1.333
				c-0.018-0.397,0.537-0.386,0.888-0.27c-0.132-0.457-0.405-0.707-1.034-0.645c0.152-0.062,0.315-0.208,0.315-0.483
				c0-0.375-0.306-0.79-0.504-0.915L363.631,308.258z"/>
			<path clip-path="url(#SVGID_4_)" fill="#F5C933" d="M363.732,279.935c0,0,0.474-0.4,0.635-0.201
				c0.26,0.323-0.797,1.923-0.797,2.488c0,0.927,0.618,1.177,1.384,1.308c0.513,0.091,1.348-0.034,1.348-0.034
				c-0.158-0.214-0.26-0.276-0.526-0.29c0.295-0.153,0.595-0.486,0.595-1.003c0-0.796-0.328-1.122-0.328-2.021
				c0-0.5,0.409-1.133,0.409-1.133c-0.723,0.073-1.081,0.741-0.878,1.275c-0.114,0.017-0.219-0.009-0.31-0.094
				c-0.053,0.147,0.03,0.318,0.144,0.466c-0.091,0.048-0.158,0.02-0.3-0.009c0.014,0.15,0.104,0.312,0.33,0.466
				c-0.651-0.167-1.05,0.284-1.05,0.759c0,0.358,0.251,0.614,0.494,0.614c0.081,0,0.198-0.034,0.264-0.083
				c0.046,0.1,0.021,0.23-0.027,0.33c0.179-0.049,0.294-0.153,0.213-0.378c0.138-0.012,0.249-0.06,0.322-0.148
				c-0.074-0.096-0.192-0.153-0.322-0.147c0.101-0.207-0.012-0.324-0.175-0.418c0,0,0.102,0.418-0.161,0.418
				c-0.121,0-0.23-0.04-0.23-0.213c0-0.153,0.135-0.363,0.444-0.353c0.309,0.015,0.56,0.213,0.56,0.705
				c0,0.457-0.368,0.682-0.851,0.698c-0.436,0.012-0.767-0.224-0.767-0.673c0-0.6,0.865-1.963,0.865-2.494
				c0-0.401-0.359-0.625-0.715-0.625c-0.456,0-0.842,0.451-0.842,0.451L363.732,279.935z"/>
			<path clip-path="url(#SVGID_4_)" fill="#F5C933" d="M363.732,279.935c0,0-0.476-0.4-0.636-0.201
				c-0.26,0.323,0.797,1.923,0.797,2.488c0,0.927-0.618,1.177-1.382,1.308c-0.514,0.091-1.35-0.034-1.35-0.034
				c0.158-0.214,0.26-0.276,0.526-0.29c-0.296-0.153-0.596-0.486-0.596-1.003c0-0.796,0.329-1.122,0.329-2.021
				c0-0.5-0.409-1.133-0.409-1.133c0.723,0.073,1.081,0.741,0.878,1.275c0.115,0.017,0.219-0.009,0.31-0.094
				c0.052,0.147-0.03,0.318-0.142,0.466c0.089,0.048,0.156,0.02,0.3-0.009c-0.014,0.15-0.105,0.312-0.331,0.466
				c0.65-0.167,1.051,0.284,1.051,0.759c0,0.358-0.25,0.614-0.496,0.614c-0.08,0-0.198-0.034-0.263-0.083
				c-0.047,0.1-0.022,0.23,0.026,0.33c-0.179-0.049-0.294-0.153-0.213-0.378c-0.136-0.012-0.247-0.06-0.322-0.148
				c0.075-0.096,0.192-0.153,0.322-0.147c-0.101-0.207,0.011-0.324,0.175-0.418c0,0-0.102,0.418,0.161,0.418
				c0.122,0,0.23-0.04,0.23-0.213c0-0.153-0.135-0.363-0.445-0.353c-0.308,0.015-0.56,0.213-0.56,0.705
				c0,0.457,0.368,0.682,0.851,0.698c0.438,0.012,0.767-0.224,0.767-0.673c0-0.6-0.865-1.963-0.865-2.494
				c0-0.401,0.361-0.625,0.715-0.625c0.456,0,0.842,0.451,0.842,0.451L363.732,279.935z"/>
			<path clip-path="url(#SVGID_4_)" fill="#4EAEC4" d="M362.797,308.175c-0.006-0.082-0.181-0.034-0.311-0.003
				c-0.134,0.029-0.212,0.094-0.204,0.177c0.006,0.082,0.172,0.04,0.306,0.011C362.719,308.328,362.804,308.258,362.797,308.175
				L362.797,308.175z"/>
			<g clip-path="url(#SVGID_4_)">
				<path fill="#4EAEC4" d="M362.367,308.445L362.367,308.445h-0.047l-0.088-0.094c-0.01-0.105,0.081-0.19,0.243-0.228
					c0.105-0.025,0.185-0.043,0.246-0.043h0.045l0.082,0.091c0.007,0.108-0.089,0.199-0.249,0.236
					C362.509,308.428,362.428,308.445,362.367,308.445L362.367,308.445z"/>
			</g>
			<path clip-path="url(#SVGID_4_)" fill="#F5C933" d="M402.752,309.977c-6.713,0.022-11.433-5.355-11.858-10.739
				c0,0-0.266-0.1-0.3,0.136c-0.083,0.571,0.155,2.321,0.067,2.202c-0.164-0.222-1.39-3.503-1.612-3.15
				c-0.297,0.479,1.372,4.213,1.278,4.324c-0.338,0.4-2.254-3.646-2.409-3.347c-0.584,1.133,2.371,4.807,2.348,4.963
				c-0.065,0.488-2.246-1.978-2.429-1.713c-0.411,0.594,2.351,2.764,2.496,2.932c0.426,0.494-1.513-0.875-1.574-0.403
				c-0.048,0.39,0.942,1.171,1.531,1.509c0.59,0.338,0.781,0.232,0.951,0.522c0.126,0.219-1.11-0.142-1.076,0.134
				c0.067,0.537,1.357,0.423,1.553,0.665c0.193,0.241-0.879,0.057-0.835,0.258c0.074,0.35,1.167,0.401,1.183,0.552
				c0.019,0.156-0.689,0.048-0.642,0.335c0.038,0.247,1.109,0.193,1.371,0.369c0.262,0.174-0.96,0.022-0.008,0.497
				c0.95,0.478,2.037,1.006,3.524,1.296c1.489,0.293,2.246-0.034,2.3-0.131c0.057-0.097-0.705,0.08-1.759-0.113
				c-1.057-0.193-2.467-0.861-3.043-1.196c-0.182-0.105,0.562-0.318,0.407-0.522c-0.158-0.202-0.753,0.028-0.985-0.265
				c-0.149-0.188,0.283-0.19,0.271-0.31c-0.01-0.11-0.824-0.301-0.969-0.503c-0.147-0.204,0.368-0.173,0.386-0.31
				c0.014-0.1-0.511-0.275-0.549-0.409c-0.039-0.137,0.589-0.1,0.295-0.262c-0.314-0.179-1.164-0.395-1.323-0.698
				c-0.156-0.299,0.649,0.042,0.438-0.245c-0.141-0.192-0.922-0.525-1.085-0.979c-0.112-0.307,0.549-0.04,0.56-0.233
				c0.016-0.307-0.392-0.11-0.521-0.997c-0.042-0.29,0.52-0.097,0.52-0.097l0.075-0.153c0,0,0.661,0.366,1.514,1.358
				c0.853,0.988,1.094,1.923,1.899,2.597c0.385,0.321,0.391-0.128,1.264,0.415c0.874,0.542,1.236,0.923,2.144,1.701
				c0.126,0.111,0.72-0.107,2.478,0.256c0.942,0.196,1.136,0.693,1.136,0.693c0.006,0.02,0.527-0.321,0.777-0.699
				c0.098-0.147,0.197-0.006,0.226-0.031C402.869,310.096,402.752,309.977,402.752,309.977L402.752,309.977z"/>
			<g clip-path="url(#SVGID_4_)">
				<path fill="#F5C933" d="M397.44,311.485c-0.353,0-0.735-0.04-1.14-0.117c-1.544-0.304-2.695-0.88-3.536-1.301
					c-0.294-0.147-0.409-0.244-0.396-0.338c0.013-0.094,0.151-0.12,0.284-0.146c0.048-0.011,0.123-0.022,0.138-0.037
					c-0.128-0.051-0.394-0.085-0.651-0.116c-0.396-0.048-0.739-0.091-0.766-0.267l-0.003-0.023l0.033-0.116
					c0.073-0.097,0.246-0.125,0.399-0.147c0.074-0.012,0.199-0.031,0.213-0.054c-0.021-0.028-0.217-0.077-0.361-0.111
					c-0.344-0.085-0.771-0.193-0.822-0.435c0.075-0.153,0.231-0.162,0.483-0.17c0.13-0.006,0.349-0.015,0.376-0.049
					c-0.077-0.097-0.325-0.137-0.565-0.176c-0.453-0.077-0.965-0.165-1.01-0.531c0.125-0.256,0.385-0.168,0.686-0.137
					c0.115,0.009,0.226,0.02,0.307,0.02c0-0.147-0.089-0.179-0.267-0.241c-0.138-0.051-0.321-0.113-0.577-0.262
					c-0.553-0.315-1.611-1.125-1.556-1.557c0.006-0.054,0.04-0.145,0.19-0.145c0.237,0,0.685,0.229,1.042,0.415
					c0.181,0.094,0.388,0.198,0.432,0.198c-0.105-0.054-0.209-0.145-0.361-0.272c-1.277-1.1-2.54-2.284-2.219-2.747
					c0.246-0.052,0.626,0.289,1.227,0.835c0.452,0.409,1.013,0.918,1.176,0.918c0.007-0.057-0.175-0.318-0.365-0.597
					c-0.785-1.137-2.422-3.509-1.96-4.401c0.2-0.045,0.425,0.333,1.003,1.333c0.467,0.801,1.172,2.017,1.392,2.017
					c0.018-0.068-0.182-0.594-0.374-1.104c-0.6-1.583-1.081-2.918-0.89-3.225c0.26-0.06,0.659,0.741,1.321,2.304
					c0.142,0.338,0.269,0.64,0.337,0.775c-0.034-0.113-0.053-0.347-0.07-0.571c-0.042-0.542-0.097-1.216-0.048-1.539
					c0.017-0.128,0.101-0.202,0.229-0.202c0.073,0,0.135,0.025,0.138,0.025c0.447,5.299,4.96,10.733,11.796,10.733
					c0.086,0.023,0.152,0.094,0.15,0.18l-0.002,0.022l-0.06,0.094l-0.075-0.048l-0.08,0.025c-0.305,0.417-0.816,0.767-0.877,0.767
					c-0.068-0.079-0.29-0.517-1.148-0.696c-0.966-0.198-1.57-0.221-1.939-0.221l-0.318,0.002c-0.125,0-0.198-0.005-0.243-0.045
					l-0.522-0.455c-0.562-0.494-0.934-0.82-1.615-1.244c-0.403-0.25-0.617-0.284-0.756-0.284l-0.17,0.006
					c-0.105,0-0.203-0.022-0.342-0.139c-0.453-0.378-0.734-0.847-1.031-1.342c-0.245-0.406-0.497-0.826-0.875-1.264
					c-0.837-0.969-1.493-1.344-1.5-1.347l-0.007,0.133c-0.065,0.026-0.239-0.033-0.378-0.033c-0.06,0-0.105,0.011-0.125,0.033
					c0.064,0.589,0.234,0.717,0.358,0.811c0.083,0.06,0.159,0.119,0.152,0.264c-0.007,0.125-0.162,0.125-0.229,0.125l-0.194-0.003
					c-0.103,0-0.135,0.015-0.145,0.028c0.106,0.341,0.475,0.586,0.743,0.765c0.161,0.107,0.287,0.19,0.341,0.267l0.018,0.023
					l0.019,0.122c-0.027,0.051-0.094,0.057-0.149,0.057l-0.249-0.012c0.028,0.247,0.453,0.415,0.795,0.549
					c0.175,0.068,0.334,0.131,0.435,0.188c0.053,0.031,0.112,0.071,0.104,0.128c-0.01,0.068-0.098,0.091-0.208,0.116
					c-0.054,0.012-0.153,0.034-0.167,0.057c0.014,0.04,0.173,0.125,0.278,0.182c0.172,0.094,0.285,0.156,0.272,0.239
					c-0.011,0.091-0.126,0.125-0.238,0.156c-0.064,0.02-0.162,0.048-0.172,0.076c0.085,0.14,0.359,0.245,0.579,0.33
					c0.283,0.11,0.408,0.162,0.417,0.241c0.007,0.085-0.088,0.125-0.172,0.159c-0.048,0.02-0.124,0.051-0.131,0.079
					c0.131,0.186,0.345,0.188,0.554,0.19c0.188,0.003,0.364,0.006,0.45,0.12l0.03,0.113c-0.02,0.107-0.158,0.193-0.29,0.278
					c-0.062,0.04-0.156,0.1-0.165,0.125c0.524,0.293,1.949,0.983,3.03,1.182c0.348,0.062,0.705,0.094,1.088,0.094
					c0.15,0,0.281-0.005,0.384-0.008l0.173-0.006c0.085,0,0.129,0.006,0.151,0.042C398.601,311.306,398.188,311.485,397.44,311.485
					L397.44,311.485z M390.417,307.286c-0.149,0-0.188,0.025-0.197,0.037c0.033,0.31,0.527,0.392,0.923,0.46
					c0.294,0.048,0.527,0.088,0.614,0.196l0.02,0.025l0.007,0.097c-0.04,0.085-0.203,0.097-0.463,0.104
					c-0.128,0.006-0.364,0.015-0.39,0.055c0.039,0.179,0.449,0.278,0.749,0.354c0.287,0.071,0.426,0.108,0.436,0.199
					c0.014,0.113-0.138,0.137-0.297,0.162c-0.128,0.02-0.287,0.042-0.334,0.107c0.004,0.165,0.388,0.213,0.667,0.247
					c0.28,0.037,0.546,0.068,0.671,0.151l0.058,0.099c-0.014,0.062-0.092,0.077-0.21,0.1c-0.057,0.012-0.19,0.037-0.203,0.065
					c0,0,0.004,0.062,0.341,0.233c0.835,0.417,1.98,0.991,3.512,1.29c0.398,0.076,0.774,0.116,1.12,0.116
					c0.729,0,1.094-0.177,1.127-0.225l-0.231,0.048c-0.105,0.003-0.236,0.009-0.388,0.009c-0.389,0-0.75-0.031-1.105-0.097
					c-1.094-0.198-2.534-0.895-3.06-1.201c-0.055-0.154,0.034-0.208,0.158-0.287c0.098-0.062,0.233-0.148,0.245-0.211
					c-0.067-0.11-0.22-0.113-0.382-0.113c-0.22-0.006-0.47-0.009-0.611-0.188l-0.039-0.131c0.019-0.076,0.105-0.113,0.19-0.147
					c0.034-0.015,0.103-0.043,0.109-0.06c-0.021-0.025-0.213-0.1-0.352-0.153c-0.257-0.1-0.523-0.202-0.609-0.324l-0.03-0.134
					c0.027-0.076,0.13-0.107,0.24-0.139c0.053-0.015,0.164-0.046,0.168-0.074c-0.013-0.022-0.14-0.091-0.223-0.136
					c-0.182-0.097-0.303-0.168-0.326-0.25c0.043-0.131,0.14-0.151,0.239-0.177c0.05-0.011,0.125-0.028,0.138-0.039
					c-0.156-0.074-0.31-0.134-0.479-0.199c-0.376-0.147-0.804-0.315-0.92-0.537l-0.013-0.025l0.001-0.117
					c0.055-0.094,0.19-0.064,0.305-0.057l0.115,0.006c-0.013-0.105-0.138-0.188-0.284-0.284c-0.295-0.198-0.665-0.443-0.775-0.753
					c-0.023-0.062-0.021-0.116,0.007-0.153c0.044-0.065,0.139-0.073,0.226-0.073l0.194,0.005c0.058,0,0.128-0.005,0.129-0.031
					c0.004-0.094-0.036-0.122-0.112-0.182c-0.131-0.097-0.327-0.244-0.409-0.804c-0.008-0.06,0.003-0.111,0.036-0.147
					c0.109-0.123,0.537-0.009,0.55-0.003l0.016-0.131c0,0,0.001,0,0.003,0c0.104,0,0.751,0.369,1.594,1.347
					c0.382,0.443,0.638,0.869,0.883,1.278c0.293,0.488,0.57,0.946,1.01,1.315c0.116,0.097,0.193,0.116,0.278,0.116l0.17-0.006
					c0.164,0,0.387,0.037,0.809,0.299c0.69,0.429,1.062,0.756,1.628,1.253l0.521,0.454c0.027,0.023,0.131,0.023,0.179,0.023
					l0.318-0.003c0.375,0,0.984,0.022,1.958,0.225c0.958,0.198,1.166,0.701,1.173,0.724c0.002-0.051,0.467-0.372,0.689-0.707
					c0.039-0.062,0.088-0.094,0.143-0.094l0.104,0.031l0.006-0.15l-0.043,0.051c-6.881,0-11.43-5.466-11.862-10.756
					c-0.016-0.003-0.042-0.003-0.073-0.003c-0.078,0-0.118,0.034-0.13,0.113c-0.045,0.312,0.008,1.009,0.049,1.518
					c0.046,0.591,0.049,0.679,0.015,0.713c-0.138-0.077-0.26-0.363-0.473-0.869c-0.314-0.742-0.964-2.281-1.145-2.293
					c-0.181,0.293,0.496,2.074,0.899,3.14c0.376,0.994,0.422,1.139,0.376,1.193l-0.096,0.045c-0.259,0-0.754-0.818-1.478-2.065
					c-0.352-0.608-0.751-1.296-0.855-1.327c-0.406,0.83,1.205,3.165,1.979,4.288c0.342,0.497,0.408,0.597,0.401,0.647l-0.006,0.043
					l-0.111,0.064c-0.189,0-0.595-0.357-1.243-0.945c-0.438-0.398-0.938-0.853-1.075-0.853c-0.315,0.451,1.578,2.079,2.199,2.613
					c0.158,0.137,0.266,0.228,0.291,0.256c0.057,0.068,0.087,0.114,0.067,0.156c-0.131,0.034-0.271-0.034-0.54-0.173
					c-0.331-0.168-0.784-0.403-0.997-0.403c-0.084,0-0.089,0.039-0.092,0.06c-0.042,0.338,0.864,1.088,1.507,1.454
					c0.249,0.146,0.426,0.208,0.56,0.253c0.182,0.065,0.303,0.108,0.409,0.29c-0.048,0.301-0.266,0.15-0.492,0.128
					C390.664,307.3,390.529,307.286,390.417,307.286L390.417,307.286z"/>
			</g>
			<path clip-path="url(#SVGID_4_)" fill="#F5C933" d="M407.264,311.977c-0.242-0.046-0.211,0.147-0.211,0.147
				c0.018,0.241-0.159,0.5-0.358,0.552c-0.155,0.039-0.078,0.156-0.13,0.261l-0.651-0.034c-1.035,0.565-2.334,0.762-3.891,0.589
				c0,0-0.327,0.247-0.618,0.503c-0.294,0.258-0.494,0.314-0.554,0.522c-0.062,0.207,0.155,0.315,0.423,0.323
				c0.269,0.009,0.619-0.241,0.619-0.241s0.045,0.208,0.292,0.228c0.249,0.02,0.7-0.147,0.7-0.147s0.379,0.17,0.669,0.133
				c0.287-0.036,0.532-0.219,0.532-0.219s0.077,0.336,0.361,0.347c0.285,0.012,0.731-0.357,0.731-0.357s0.21,0.244,0.474,0.21
				c0.264-0.031,0.586-0.341,0.586-0.341s0.326,0.139,0.635,0.048c0.309-0.088,0.603-0.406,0.603-0.406s0.274,0.228,0.521,0.146
				c0.247-0.08,0.411-0.427,0.411-0.427s0.663,0.265,1.102,0.055c0.312-0.151,0.228-0.637,0.228-0.637s1.824,0.264,1.743-0.927
				C411.474,312.178,408.554,312.218,407.264,311.977L407.264,311.977z"/>
			<g clip-path="url(#SVGID_4_)">
				<path fill="#F5C933" d="M404.461,314.991h-0.017c-0.267-0.015-0.369-0.268-0.397-0.355c-0.027,0.065-0.242,0.196-0.487,0.228
					c-0.349-0.015-0.677-0.131-0.694-0.14c0.016,0.009-0.379,0.153-0.637,0.153c-0.25-0.02-0.35-0.159-0.378-0.247
					c-0.024,0.074-0.318,0.262-0.563,0.262c-0.221-0.006-0.38-0.068-0.452-0.168c-0.045-0.062-0.057-0.139-0.033-0.222
					c0.044-0.153,0.153-0.229,0.305-0.338c0.075-0.057,0.164-0.119,0.263-0.207c0.293-0.256,0.621-0.506,0.621-0.506
					c0.399,0.031,0.75,0.051,1.085,0.051c1.086,0,2.033-0.216,2.814-0.642l0.676,0.025c-0.025-0.131-0.02-0.225,0.117-0.259
					c0.183-0.048,0.335-0.287,0.319-0.5c-0.001-0.006-0.013-0.085,0.04-0.147c0.033-0.04,0.086-0.06,0.152-0.06
					c0.791,0.142,1.986,0.188,2.948,0.225c1.294,0.051,1.381,0.067,1.388,0.156c0.018,0.258-0.053,0.474-0.204,0.636
					c-0.284,0.305-0.799,0.369-1.181,0.369l0,0c-0.197,0-0.351-0.02-0.399-0.025c0.056,0.049,0.097,0.48-0.216,0.631
					c-0.356,0.171-1.045-0.017-1.133-0.048c0.021,0.037-0.141,0.344-0.386,0.423c-0.229,0.074-0.517-0.113-0.562-0.15
					c0.013,0.043-0.266,0.327-0.562,0.412c-0.267,0.076-0.632-0.037-0.666-0.049c0.017,0.021-0.294,0.31-0.562,0.344
					c-0.003,0-0.006,0-0.007,0c-0.29,0-0.477-0.19-0.508-0.224C405.156,314.664,404.748,314.991,404.461,314.991L404.461,314.991z
					 M404.057,314.554c0.081,0.042,0.15,0.326,0.393,0.335l0.012,0.051v-0.048c0.265,0,0.683-0.344,0.687-0.35
					c0.071,0.009,0.241,0.204,0.456,0.204c0.287-0.033,0.597-0.329,0.6-0.332c0.049,0,0.236,0.065,0.445,0.065
					c0.076,0,0.146-0.009,0.211-0.028c0.291-0.085,0.576-0.39,0.58-0.393c0.036,0.012,0.254,0.148,0.444,0.148
					c0.321-0.088,0.478-0.412,0.479-0.415c0.073-0.025,0.397,0.105,0.737,0.105c0.152,0,0.282-0.026,0.389-0.077
					c0.274-0.131,0.201-0.577,0.201-0.582c0.057-0.058,0.226-0.034,0.457-0.034l0,0c0.362,0,0.848-0.057,1.106-0.336
					c0.134-0.142,0.193-0.329,0.178-0.562c-0.054-0.011-0.684-0.036-1.291-0.06c-0.965-0.039-2.165-0.085-2.884-0.222l-0.139,0.021
					c0.005,0.335-0.18,0.619-0.41,0.679c-0.064,0.017-0.066,0.04-0.069,0.105c-0.003,0.036-0.006,0.082-0.028,0.13l-0.699-0.005
					c-1.006,0.56-2.326,0.756-3.893,0.588c0.005,0.012-0.304,0.247-0.58,0.491c-0.103,0.088-0.195,0.153-0.271,0.211
					c-0.145,0.104-0.233,0.167-0.267,0.286c-0.016,0.052-0.012,0.097,0.016,0.134c0.055,0.074,0.189,0.122,0.359,0.128
					c0.002,0,0.002,0,0.002,0c0.26,0,0.585-0.233,0.588-0.235c0.08,0.036,0.121,0.201,0.325,0.219c0.001,0,0.003,0,0.005,0
					c0.281,0,0.67-0.143,0.674-0.143c0.041,0.003,0.342,0.134,0.6,0.134C403.818,314.729,404.054,314.557,404.057,314.554
					L404.057,314.554z"/>
			</g>
			<path clip-path="url(#SVGID_4_)" fill="#F5C933" d="M403.395,310.715c0,0,0.521-0.201,1.463-0.395
				c1.758-0.364,2.364-0.244,2.492-0.355c1.392-1.545,2.412-1.67,3.425-2.068c0.806-0.673,1.066-1.639,1.921-2.628
				c0.852-0.988,1.354-1.068,1.354-1.068l0.115,0.222c0,0,0.456-0.344,0.435-0.054c-0.037,0.438-0.399,0.858-0.383,1.165
				c0.011,0.195,0.626-0.086,0.568,0.094c-0.142,0.46-0.635,0.741-0.775,0.932c-0.212,0.287,0.559-0.1,0.402,0.199
				c-0.159,0.304-0.938,0.607-1.242,0.801c-0.185,0.119,0.203,0.145,0.165,0.278c-0.038,0.137-0.844,0.432-0.831,0.531
				c0.021,0.14,0.219,0.153,0.122,0.259c-0.169,0.185-0.832,0.21-0.842,0.324c-0.013,0.116,0.138,0.232-0.01,0.42
				c-0.232,0.293-0.415,0-0.512,0.238c-0.054,0.137,0.382,0.412,0.087,0.467c-0.405,0.073-0.708,0.244-1.053,0.463
				c-0.131,0.082-0.724,0.193-1.065,0.281c-0.225,0.06-1.469,0.213-1.416,0.312c0.049,0.097,0.839,0.085,2.492-0.202
				c0.719-0.125,1.134-0.213,2.253-0.565c1.28-0.406-0.328-0.435-0.066-0.607c0.263-0.177,1.378-0.091,1.416-0.338
				c0.044-0.287-0.618-0.199-0.6-0.355c0.019-0.15,1.353-0.145,1.43-0.497c0.042-0.202-0.765-0.06-0.57-0.302
				c0.193-0.244,1.262-0.295,1.296-0.755c0.022-0.276-0.869,0.057-0.753-0.165c0.047-0.091,0.408-0.19,0.766-0.44
				c0.557-0.39,1.444-1.062,1.396-1.449c-0.06-0.475-1.845,1.103-1.691,0.5c0.054-0.216,2.913-2.478,2.444-3.028
				c-0.318-0.372-2.356,2.062-2.424,1.574c-0.02-0.156,3.181-3.776,2.595-4.91c-0.152-0.298-2.561,4.321-2.898,3.921
				c-0.094-0.11,2.053-4.557,1.713-5.006c-0.164-0.216-0.501,0.522-0.869,1.341c-0.368,0.821-0.769,1.725-0.851,1.836
				c-0.087,0.119,0.094-1.739,0.012-2.311c-0.034-0.235-0.3-0.136-0.3-0.136c-0.371,5.793-5.939,10.094-10.374,10.728
				c-1.154,0.165-1.521,0.708-2.777,1.418c-0.426,0.238-1.077,0.353-1.641,0.668c-0.564,0.314-0.966,0.792-1.153,1.088
				c-0.088,0.142,0.041,0.562,0.159,0.61c0.119,0.052,0.111-0.31,0.243-0.375c0.134-0.062,0.134,0.131,0.289,0.122
				c0.155-0.008,0.332-0.156,0.332-0.156s3.129-0.005,4.469-0.042c0.24-0.009,0.641-0.105,0.811-0.287
				c-0.051-0.147-0.413-0.065-0.642-0.054c-0.944-0.068-2.183-0.009-3.067-0.062c0,0-0.146-0.009-0.132-0.151
				c0.006-0.062,0.562-0.664,0.562-0.664h-0.441c0,0-0.266,0.153-0.399,0.167c-0.132,0.012-0.183-0.07-0.132-0.11
				C401.386,311.621,403.395,310.715,403.395,310.715L403.395,310.715z"/>
			<g clip-path="url(#SVGID_4_)">
				<path fill="#F5C933" d="M398.839,313.804l-0.04-0.006c-0.094-0.04-0.153-0.199-0.175-0.265
					c-0.045-0.139-0.071-0.321-0.008-0.423c0.214-0.339,0.635-0.805,1.172-1.103c0.302-0.171,0.622-0.278,0.932-0.384
					c0.264-0.091,0.511-0.176,0.709-0.287c0.401-0.227,0.714-0.438,0.989-0.625c0.588-0.395,1.012-0.682,1.805-0.795
					c4.702-0.674,9.976-5.126,10.332-10.683c0.097-0.122,0.37-0.065,0.398,0.134c0.046,0.31,0.014,0.991-0.013,1.537
					c-0.016,0.347-0.032,0.707-0.017,0.758c-0.002-0.104,0.334-0.852,0.657-1.573l0.117-0.262c0.429-0.957,0.653-1.409,0.848-1.409
					h0.024l0.082,0.06c0.223,0.293-0.415,1.878-1.209,3.762c-0.257,0.607-0.5,1.182-0.495,1.259
					c0.241-0.012,1.083-1.375,1.698-2.372c0.716-1.16,0.999-1.598,1.13-1.598c0.528,0.936-1.249,3.271-2.102,4.393
					c-0.21,0.275-0.409,0.537-0.422,0.583c0.146-0.026,0.58-0.375,0.959-0.717c0.519-0.466,1.057-0.948,1.321-0.948h0.022
					l0.109,0.057c0.336,0.395-0.728,1.443-1.845,2.486c-0.28,0.261-0.57,0.531-0.59,0.585c0.127,0.076,0.416-0.091,0.693-0.259
					c0.509-0.304,0.969-0.517,1-0.259c0.038,0.31-0.438,0.815-1.418,1.498c-0.188,0.13-0.376,0.219-0.521,0.289
					c-0.099,0.046-0.213,0.1-0.227,0.131c0.112,0.006,0.18,0.003,0.251-0.006c0.209-0.02,0.405-0.025,0.474,0.049l0.033,0.104
					c-0.023,0.315-0.447,0.446-0.82,0.565c-0.218,0.068-0.421,0.134-0.486,0.216c-0.004,0.062,0.146,0.08,0.228,0.089
					c0.152,0.017,0.282,0.034,0.334,0.102c-0.037,0.336-0.533,0.418-0.972,0.489c-0.184,0.028-0.411,0.065-0.442,0.102
					c0.015,0.015,0.131,0.037,0.202,0.052c0.184,0.037,0.434,0.085,0.4,0.298c-0.026,0.177-0.378,0.211-0.785,0.25
					c-0.269,0.023-0.549,0.052-0.653,0.119c0.008,0.009,0.13,0.043,0.211,0.068c0.193,0.057,0.377,0.108,0.38,0.228
					c0,0.077-0.064,0.171-0.537,0.318c-1.132,0.358-1.538,0.446-2.258,0.571c-1.285,0.222-1.908,0.256-2.167,0.256
					c-0.296,0-0.358-0.04-0.38-0.083c0.036-0.128,0.244-0.179,1.019-0.307c0.195-0.031,0.361-0.06,0.431-0.077
					c0.108-0.028,0.24-0.06,0.375-0.088c0.277-0.065,0.593-0.133,0.675-0.188c0.332-0.21,0.644-0.392,1.069-0.469
					c0.073-0.051,0.014-0.131-0.022-0.176c-0.065-0.088-0.132-0.18-0.101-0.262c0.037-0.094,0.094-0.134,0.184-0.134l0.116,0.058
					v-0.052c0.06,0,0.134-0.014,0.219-0.122c0.081-0.103,0.057-0.173,0.026-0.253c-0.016-0.045-0.032-0.094-0.026-0.142
					c0.007-0.088,0.141-0.119,0.36-0.171c0.187-0.042,0.415-0.094,0.494-0.182c-0.066-0.088-0.122-0.137-0.135-0.216
					c-0.01-0.08,0.093-0.137,0.408-0.296c0.151-0.076,0.406-0.207,0.425-0.258c0.007-0.023-0.055-0.058-0.096-0.077
					c-0.058-0.031-0.119-0.065-0.122-0.125l-0.001-0.028l0.075-0.077c0.089-0.057,0.222-0.125,0.367-0.198
					c0.336-0.171,0.752-0.384,0.857-0.583c-0.071-0.048-0.127-0.037-0.18-0.031c-0.055,0.012-0.109,0.021-0.15,0.021l-0.107-0.052
					c-0.024-0.048,0.008-0.1,0.038-0.142c0.048-0.065,0.128-0.134,0.22-0.216c0.203-0.18,0.456-0.4,0.55-0.702
					c-0.069,0.003-0.128,0.012-0.188,0.021c-0.237,0.039-0.379-0.021-0.385-0.097c-0.009-0.165,0.08-0.35,0.174-0.549
					c0.095-0.201,0.191-0.412,0.208-0.622c-0.109-0.062-0.271,0.034-0.354,0.097l-0.186-0.233c0.001,0.031-0.486,0.156-1.276,1.074
					c-0.376,0.438-0.635,0.863-0.883,1.275c-0.303,0.503-0.59,0.978-1.042,1.358c-0.193,0.077-0.373,0.14-0.554,0.202
					c-0.851,0.292-1.729,0.596-2.866,1.86c-0.067,0.06-0.184,0.065-0.441,0.082c-0.376,0.026-1.006,0.065-2.078,0.287
					c-0.926,0.19-1.449,0.393-1.454,0.396c-0.019,0.008-2.009,0.906-2.673,1.412c0.199,0.002,0.407-0.1,0.475-0.14l0.468-0.009
					c-0.217,0.361-0.494,0.677-0.515,0.728l0.084,0.14l0.004-0.049c0.883,0.054,2.121-0.009,3.068,0.06l0.158-0.014
					c0.195-0.023,0.459-0.094,0.527,0.104c-0.196,0.245-0.618,0.344-0.857,0.35c-1.323,0.04-4.387,0.046-4.47,0.046
					c0.01,0.003-0.166,0.145-0.331,0.153c-0.001,0-0.001,0-0.001,0c-0.103,0-0.151-0.054-0.187-0.091
					c-0.109-0.018-0.155,0.079-0.179,0.153C398.954,313.71,398.923,313.804,398.839,313.804L398.839,313.804z M414.724,299.269
					c-0.053,0-0.101,0.017-0.103,0.017c-0.327,5.561-5.644,10.052-10.385,10.729c-0.77,0.11-1.188,0.392-1.762,0.781
					c-0.277,0.188-0.592,0.4-0.998,0.631c-0.203,0.116-0.457,0.201-0.724,0.292c-0.305,0.103-0.621,0.21-0.917,0.375
					c-0.52,0.293-0.927,0.744-1.135,1.071c-0.036,0.057-0.027,0.196,0.019,0.338c0.038,0.117,0.086,0.19,0.118,0.202l0,0
					c0.017-0.015,0.04-0.083,0.053-0.128c0.031-0.097,0.067-0.208,0.149-0.247c0.135-0.018,0.169,0.022,0.199,0.057
					c0.034,0.037,0.058,0.06,0.101,0.06c0.144-0.006,0.309-0.142,0.31-0.142c0.033-0.015,3.161-0.018,4.502-0.058
					c0.216-0.005,0.612-0.097,0.775-0.27c-0.027,0.014-0.084-0.003-0.19-0.003c-0.073,0-0.16,0.009-0.243,0.017l-0.17,0.018
					c-0.956-0.071-2.189-0.009-3.072-0.062c-0.009,0-0.09-0.009-0.141-0.068c-0.031-0.037-0.045-0.085-0.039-0.139
					c0.006-0.052,0.199-0.287,0.577-0.693l-0.406,0.085l0,0c0.013,0-0.251,0.15-0.394,0.165c-0.109,0.008-0.182-0.034-0.202-0.091
					l-0.011-0.034l0.044-0.074c0.673-0.512,2.612-1.389,2.696-1.423c0.007-0.006,0.538-0.208,1.473-0.401
					c1.077-0.224,1.712-0.267,2.093-0.289c0.204-0.015,0.339-0.023,0.376-0.055c1.15-1.278,2.042-1.585,2.904-1.883
					c0.179-0.062,0.357-0.125,0.535-0.193c0.426-0.361,0.709-0.83,1.007-1.324c0.252-0.418,0.511-0.847,0.894-1.29
					c0.855-0.991,1.362-1.082,1.384-1.085l0.16,0.235c-0.01-0.048,0.188-0.188,0.315-0.188l0.097,0.04
					c0.027,0.028,0.04,0.074,0.036,0.131c-0.019,0.232-0.125,0.46-0.219,0.659c-0.089,0.185-0.172,0.36-0.164,0.5
					c0.133,0.025,0.202,0.014,0.269,0.003c0.065-0.009,0.13-0.021,0.177-0.021l0.112,0.043c-0.093,0.415-0.368,0.656-0.568,0.832
					c-0.088,0.077-0.165,0.146-0.206,0.202c0.024,0.031,0.072,0.025,0.123,0.017c0.06-0.011,0.12-0.02,0.168-0.02h0.028l0.1,0.054
					c0.034,0.052-0.001,0.119-0.013,0.14c-0.119,0.23-0.534,0.44-0.899,0.625c-0.142,0.074-0.271,0.14-0.359,0.196
					c0.11,0.094,0.215,0.15,0.187,0.25c-0.023,0.082-0.171,0.164-0.478,0.318c-0.14,0.07-0.333,0.17-0.355,0.207
					c0.009,0.028,0.041,0.054,0.077,0.082l0.075,0.108c-0.141,0.204-0.377,0.259-0.584,0.304c-0.113,0.025-0.266,0.062-0.288,0.091
					c0.057,0.177,0.098,0.293-0.019,0.44c-0.112,0.143-0.218,0.162-0.297,0.162l-0.116-0.009c-0.036,0-0.064,0.006-0.092,0.071
					c-0.01,0.031,0.049,0.11,0.09,0.162c0.065,0.088,0.128,0.173,0.097,0.247c-0.017,0.045-0.062,0.074-0.137,0.088
					c-0.409,0.077-0.71,0.253-1.034,0.458c-0.098,0.062-0.394,0.127-0.706,0.198c-0.135,0.031-0.266,0.06-0.373,0.088
					c-0.071,0.018-0.24,0.046-0.438,0.08c-0.272,0.042-0.753,0.122-0.908,0.179c0.114,0.003,0.442,0.094,2.402-0.244
					c0.713-0.125,1.118-0.21,2.244-0.565c0.462-0.147,0.466-0.222,0.466-0.225c0-0.043-0.223-0.107-0.305-0.131
					c-0.184-0.054-0.28-0.085-0.29-0.156l-0.006-0.031l0.056-0.06c0.126-0.082,0.404-0.11,0.7-0.137
					c0.271-0.028,0.679-0.064,0.694-0.167c0.019-0.108-0.122-0.146-0.32-0.185c-0.151-0.028-0.292-0.057-0.279-0.171
					c0.012-0.091,0.159-0.119,0.523-0.179c0.345-0.057,0.868-0.143,0.906-0.321c-0.025-0.042-0.169-0.06-0.265-0.071
					c-0.157-0.017-0.295-0.031-0.329-0.116l-0.012-0.025l0.046-0.108c0.085-0.107,0.292-0.173,0.534-0.247
					c0.344-0.11,0.732-0.232,0.751-0.479c-0.029-0.071-0.203-0.065-0.395-0.046c-0.155,0.018-0.302,0.052-0.356-0.037
					c0.035-0.162,0.126-0.207,0.278-0.278c0.141-0.068,0.323-0.153,0.507-0.281c1.24-0.866,1.395-1.25,1.375-1.403
					c-0.212-0.04-0.55,0.156-0.848,0.335c-0.315,0.188-0.586,0.347-0.729,0.35l-0.102-0.043c-0.026-0.036-0.031-0.088-0.013-0.158
					c0.018-0.071,0.174-0.222,0.618-0.637c0.747-0.696,2.14-1.994,1.837-2.347c-0.271,0.003-0.853,0.488-1.31,0.9
					c-0.519,0.466-0.846,0.753-1.011,0.753h-0.042l-0.072-0.107c-0.008-0.055,0.061-0.148,0.441-0.648
					c0.841-1.105,2.591-3.406,2.158-4.244c-0.086,0.045-0.583,0.852-1.023,1.565c-0.896,1.454-1.506,2.406-1.778,2.406
					c-0.135-0.094-0.103-0.199,0.399-1.387c0.534-1.267,1.428-3.39,1.222-3.662c-0.168-0.009-0.528,0.762-0.784,1.33l-0.117,0.261
					c-0.341,0.762-0.663,1.48-0.739,1.586c-0.124-0.031-0.124-0.137-0.091-0.815c0.025-0.54,0.057-1.216,0.013-1.518
					C414.843,299.303,414.803,299.269,414.724,299.269L414.724,299.269z"/>
			</g>
			<path clip-path="url(#SVGID_4_)" fill="#4EAEC4" d="M400.29,312.61c-0.004-0.068-0.152-0.026-0.262-0.003
				c-0.111,0.025-0.176,0.079-0.169,0.147c0.006,0.068,0.145,0.034,0.254,0.009C400.224,312.738,400.295,312.681,400.29,312.61
				L400.29,312.61z"/>
			<g clip-path="url(#SVGID_4_)">
				<path fill="#4EAEC4" d="M399.93,312.846h-0.047l-0.075-0.088c-0.008-0.094,0.07-0.168,0.209-0.199
					c0.097-0.022,0.159-0.037,0.208-0.037h0.048l0.066,0.086c0.009,0.094-0.077,0.173-0.214,0.204
					C400.052,312.829,399.984,312.846,399.93,312.846L399.93,312.846z"/>
			</g>
			<path clip-path="url(#SVGID_4_)" fill="#F5C933" d="M404.298,289.904c0.378,0.068,0.565-0.14,0.622-0.421
				c0.076-0.378-0.086-2.275-0.086-2.275s-0.877,1.69-0.951,2.068C403.826,289.561,403.922,289.827,404.298,289.904L404.298,289.904
				z"/>
			<path clip-path="url(#SVGID_4_)" fill="#F5C933" d="M405.676,290.322c0.357,0.142,0.582-0.026,0.693-0.29
				c0.146-0.358,0.359-2.25,0.359-2.25s-1.189,1.488-1.335,1.844C405.283,289.893,405.322,290.174,405.676,290.322L405.676,290.322z
				"/>
			<path clip-path="url(#SVGID_4_)" fill="#F5C933" d="M406.945,291.001c0.323,0.21,0.576,0.088,0.738-0.15
				c0.213-0.318,0.791-2.137,0.791-2.137s-1.457,1.23-1.671,1.548C406.645,290.504,406.627,290.788,406.945,291.001L406.945,291.001
				z"/>
			<path clip-path="url(#SVGID_4_)" fill="#F5C933" d="M408.061,291.916c0.275,0.267,0.546,0.198,0.752-0.006
				c0.271-0.271,1.193-1.94,1.193-1.94s-1.67,0.92-1.941,1.193C407.859,291.367,407.787,291.643,408.061,291.916L408.061,291.916z"
				/>
			<path clip-path="url(#SVGID_4_)" fill="#F5C933" d="M408.975,293.026c0.217,0.318,0.497,0.304,0.737,0.146
				c0.319-0.217,1.547-1.671,1.547-1.671s-1.815,0.577-2.135,0.79C408.885,292.453,408.76,292.708,408.975,293.026L408.975,293.026z
				"/>
			<path clip-path="url(#SVGID_4_)" fill="#F5C933" d="M409.653,294.299c0.15,0.353,0.429,0.393,0.696,0.284
				c0.354-0.147,1.844-1.338,1.844-1.338s-1.894,0.213-2.249,0.361C409.678,293.717,409.506,293.944,409.653,294.299
				L409.653,294.299z"/>
			<path clip-path="url(#SVGID_4_)" fill="#F5C933" d="M410.071,295.678c0.079,0.375,0.345,0.471,0.626,0.414
				c0.377-0.076,2.071-0.951,2.071-0.951s-1.9-0.162-2.275-0.086C410.209,295.109,409.997,295.3,410.071,295.678L410.071,295.678z"
				/>
			<path clip-path="url(#SVGID_4_)" fill="#F5C933" d="M410.213,297.112c0.005,0.383,0.246,0.528,0.533,0.528
				c0.385,0,2.216-0.528,2.216-0.528s-1.831-0.531-2.216-0.531C410.459,296.581,410.213,296.726,410.213,297.112L410.213,297.112z"
				/>
			<path clip-path="url(#SVGID_4_)" fill="#F5C933" d="M410.071,298.544c-0.069,0.378,0.138,0.565,0.422,0.622
				c0.375,0.077,2.275-0.085,2.275-0.085s-1.694-0.875-2.071-0.952C410.416,298.075,410.146,298.166,410.071,298.544
				L410.071,298.544z"/>
			<path clip-path="url(#SVGID_4_)" fill="#F5C933" d="M409.653,299.922c-0.144,0.357,0.024,0.582,0.291,0.693
				c0.355,0.147,2.249,0.36,2.249,0.36s-1.49-1.19-1.844-1.338C410.082,299.527,409.8,299.566,409.653,299.922L409.653,299.922z"/>
			<path clip-path="url(#SVGID_4_)" fill="#F5C933" d="M408.975,301.191c-0.21,0.324-0.09,0.577,0.149,0.736
				c0.319,0.213,2.135,0.793,2.135,0.793s-1.228-1.458-1.547-1.671C409.472,300.891,409.189,300.874,408.975,301.191
				L408.975,301.191z"/>
			<path clip-path="url(#SVGID_4_)" fill="#F5C933" d="M408.061,302.309c-0.27,0.272-0.201,0.545,0.004,0.75
				c0.271,0.27,1.941,1.193,1.941,1.193s-0.922-1.671-1.193-1.94C408.606,302.106,408.332,302.035,408.061,302.309L408.061,302.309z
				"/>
			<path clip-path="url(#SVGID_4_)" fill="#F5C933" d="M406.945,303.221c-0.314,0.219-0.301,0.497-0.142,0.735
				c0.214,0.321,1.671,1.552,1.671,1.552s-0.578-1.818-0.791-2.137C407.521,303.129,407.268,303.007,406.945,303.221
				L406.945,303.221z"/>
			<path clip-path="url(#SVGID_4_)" fill="#F5C933" d="M405.676,303.899c-0.354,0.15-0.393,0.429-0.282,0.696
				c0.146,0.354,1.335,1.844,1.335,1.844s-0.213-1.896-0.359-2.25C406.258,303.925,406.031,303.752,405.676,303.899L405.676,303.899
				z"/>
			<path clip-path="url(#SVGID_4_)" fill="#F5C933" d="M398.782,303.221c-0.322-0.208-0.577-0.092-0.737,0.15
				c-0.213,0.318-0.791,2.137-0.791,2.137s1.457-1.23,1.67-1.552C399.086,303.718,399.102,303.434,398.782,303.221L398.782,303.221z
				"/>
			<path clip-path="url(#SVGID_4_)" fill="#F5C933" d="M397.668,302.309c-0.275-0.271-0.547-0.202-0.75,0.003
				c-0.274,0.27-1.193,1.94-1.193,1.94s1.668-0.924,1.939-1.193C397.867,302.854,397.94,302.578,397.668,302.309L397.668,302.309z"
				/>
			<path clip-path="url(#SVGID_4_)" fill="#F5C933" d="M396.755,301.191c-0.22-0.315-0.499-0.301-0.738-0.142
				c-0.32,0.213-1.547,1.671-1.547,1.671s1.814-0.58,2.135-0.793C396.843,301.769,396.968,301.513,396.755,301.191L396.755,301.191z
				"/>
			<path clip-path="url(#SVGID_4_)" fill="#F5C933" d="M396.075,299.922c-0.151-0.353-0.429-0.395-0.695-0.284
				c-0.355,0.147-1.845,1.338-1.845,1.338s1.894-0.213,2.25-0.36C396.05,300.504,396.221,300.279,396.075,299.922L396.075,299.922z"
				/>
			<path clip-path="url(#SVGID_4_)" fill="#F5C933" d="M395.656,298.544c-0.078-0.378-0.341-0.469-0.625-0.415
				c-0.376,0.077-2.069,0.952-2.069,0.952s1.897,0.162,2.277,0.085C395.519,299.109,395.732,298.922,395.656,298.544
				L395.656,298.544z"/>
			<path clip-path="url(#SVGID_4_)" fill="#F5C933" d="M395.515,297.112c-0.004-0.387-0.246-0.531-0.533-0.531
				c-0.385,0-2.216,0.531-2.216,0.531s1.831,0.528,2.216,0.528C395.269,297.641,395.515,297.495,395.515,297.112L395.515,297.112z"
				/>
			<path clip-path="url(#SVGID_4_)" fill="#F5C933" d="M395.656,295.678c0.071-0.378-0.137-0.568-0.418-0.623
				c-0.379-0.076-2.277,0.086-2.277,0.086s1.693,0.875,2.069,0.951C395.314,296.148,395.582,296.055,395.656,295.678
				L395.656,295.678z"/>
			<path clip-path="url(#SVGID_4_)" fill="#F5C933" d="M396.075,294.299c0.144-0.357-0.024-0.582-0.29-0.692
				c-0.356-0.148-2.25-0.361-2.25-0.361s1.49,1.19,1.845,1.338C395.646,294.691,395.928,294.654,396.075,294.299L396.075,294.299z"
				/>
			<path clip-path="url(#SVGID_4_)" fill="#F5C933" d="M396.755,293.026c0.209-0.321,0.088-0.573-0.15-0.735
				c-0.321-0.213-2.135-0.79-2.135-0.79s1.228,1.454,1.547,1.671C396.256,293.33,396.539,293.348,396.755,293.026L396.755,293.026z"
				/>
			<path clip-path="url(#SVGID_4_)" fill="#F5C933" d="M397.668,291.916c0.269-0.276,0.199-0.549-0.004-0.753
				c-0.271-0.273-1.939-1.193-1.939-1.193s0.919,1.67,1.193,1.94C397.122,292.114,397.397,292.186,397.668,291.916L397.668,291.916z
				"/>
			<path clip-path="url(#SVGID_4_)" fill="#F5C933" d="M402.856,290.648c3.572,0,6.469,2.898,6.469,6.469
				c0,3.574-2.896,6.47-6.469,6.47c-3.574,0-6.469-2.896-6.469-6.47C396.387,293.547,399.282,290.648,402.856,290.648
				L402.856,290.648z"/>
			<path clip-path="url(#SVGID_4_)" fill="#F5C933" d="M402.865,289.762c0.385-0.005,0.526-0.244,0.526-0.533
				c0-0.384-0.526-2.217-0.526-2.217s-0.529,1.833-0.529,2.217C402.336,289.518,402.481,289.762,402.865,289.762L402.865,289.762z"
				/>
			<path clip-path="url(#SVGID_4_)" fill="#F5C933" d="M404.298,304.317c-0.376,0.082-0.472,0.344-0.415,0.628
				c0.074,0.377,0.951,2.067,0.951,2.067s0.162-1.897,0.086-2.275C404.863,304.456,404.675,304.243,404.298,304.317L404.298,304.317
				z"/>
			<path clip-path="url(#SVGID_4_)" fill="#F5C933" d="M402.865,304.459c-0.384,0.006-0.529,0.244-0.529,0.534
				c0,0.384,0.529,2.213,0.529,2.213s0.526-1.829,0.526-2.213C403.392,304.703,403.25,304.459,402.865,304.459L402.865,304.459z"/>
			<path clip-path="url(#SVGID_4_)" fill="#F5C933" d="M401.43,304.317c-0.377-0.071-0.565,0.139-0.622,0.42
				c-0.074,0.378,0.087,2.275,0.087,2.275s0.875-1.69,0.95-2.067C401.902,304.661,401.809,304.394,401.43,304.317L401.43,304.317z"
				/>
			<path clip-path="url(#SVGID_4_)" fill="#F5C933" d="M400.052,303.899c-0.357-0.143-0.583,0.025-0.693,0.29
				c-0.146,0.354-0.358,2.25-0.358,2.25s1.188-1.489,1.337-1.844C400.446,304.328,400.407,304.047,400.052,303.899L400.052,303.899z
				"/>
			<path clip-path="url(#SVGID_4_)" fill="#F5C933" d="M398.782,291.001c0.317-0.219,0.304-0.497,0.142-0.739
				c-0.213-0.317-1.67-1.548-1.67-1.548s0.578,1.818,0.791,2.137C398.206,291.089,398.461,291.214,398.782,291.001L398.782,291.001z
				"/>
			<path clip-path="url(#SVGID_4_)" fill="#F5C933" d="M400.052,290.322c0.354-0.154,0.394-0.43,0.286-0.696
				c-0.149-0.355-1.337-1.844-1.337-1.844s0.211,1.892,0.358,2.25C399.47,290.296,399.697,290.47,400.052,290.322L400.052,290.322z"
				/>
			<path clip-path="url(#SVGID_4_)" fill="#F5C933" d="M401.43,289.904c0.377-0.08,0.473-0.344,0.415-0.628
				c-0.075-0.378-0.95-2.068-0.95-2.068s-0.161,1.897-0.087,2.275C400.865,289.765,401.054,289.979,401.43,289.904L401.43,289.904z"
				/>
		</g>
	</g>
</g>
</svg>
