<?xml version="1.0" encoding="utf-8"?>
<!-- Generator: Adobe Illustrator 16.0.0, SVG Export Plug-In . SVG Version: 6.00 Build 0)  -->
<!DOCTYPE svg PUBLIC "-//W3C//DTD SVG 1.1//EN" "http://www.w3.org/Graphics/SVG/1.1/DTD/svg11.dtd">
<svg version="1.1" id="name" xmlns="http://www.w3.org/2000/svg" xmlns:xlink="http://www.w3.org/1999/xlink" x="0px" y="0px"
	 width="85.714px" height="50px" viewBox="358 276 85.714 50" enable-background="new 358 276 85.714 50" xml:space="preserve">
<g id="lb">
	<g>
		<defs>
			<rect id="SVGID_1_" x="358" y="276" width="85.714" height="50"/>
		</defs>
		<clipPath id="SVGID_2_">
			<use xlink:href="#SVGID_1_"  overflow="visible"/>
		</clipPath>
		<rect x="358" y="276" clip-path="url(#SVGID_2_)" fill="#FFFFFF" width="85.714" height="50"/>
		<rect x="358" y="313.499" clip-path="url(#SVGID_2_)" fill="#E63833" width="85.714" height="12.501"/>
		<rect x="358" y="276" clip-path="url(#SVGID_2_)" fill="#E63833" width="85.714" height="12.501"/>
		<g clip-path="url(#SVGID_2_)">
			<defs>
				<rect id="SVGID_3_" x="358" y="276" width="85.714" height="50"/>
			</defs>
			<clipPath id="SVGID_4_">
				<use xlink:href="#SVGID_3_"  overflow="visible"/>
			</clipPath>
			<path clip-path="url(#SVGID_4_)" fill="#429F46" d="M400.514,288.501l-0.408,0.682c-0.227,0.378-0.773,0.94-1.215,1.253
				c-0.439,0.312-0.969,0.778-1.18,1.034l-0.387,0.466l0.408-0.107c0.227-0.061,0.516-0.154,0.652-0.211
				c0.135-0.057,0.244-0.025,0.244,0.071c0,0.003,0,0.006,0,0.009c0,0.006,0,0.014-0.002,0.02c-0.061,0.241-0.764,0.793-1.32,1.025
				c-0.535,0.222-1.328,0.799-1.432,1.031c-0.002,0.006-0.004,0.015-0.006,0.018c0,0.003,0,0.008,0,0.011
				c-0.004,0.003,0,0.009,0,0.009c0,0.003,0,0.003,0,0.003v0.003c0,0.003,0,0.006,0,0.006v0.003c0,0.003,0,0.005,0,0.008
				s0.002,0.006,0.002,0.009c0.002,0,0.004,0.003,0.004,0.003s0.002,0,0.002,0.003c0.002,0,0.004,0.003,0.004,0.003
				c0.002,0.003,0.008,0.006,0.008,0.006c0.062,0.045,0.234,0.051,0.436,0.008c0.348-0.076,0.49-0.028,0.607,0.208
				c0.176,0.363,0.074,0.525-0.332,0.525c-0.49,0-1.188,0.494-1.283,0.909c-0.062,0.278-0.332,0.506-0.904,0.767
				c-0.938,0.43-2.148,1.248-2.232,1.498c-0.004,0.008-0.004,0.017-0.004,0.025c0,0.355,0.791,0.329,1.934-0.062
				c0.258-0.088,0.371,0,0.564,0.44c0.24,0.548,0.236,0.56-0.32,1.281c-0.391,0.5-0.732,0.759-1.105,0.838
				c-0.738,0.153-0.969,0.304-1.932,1.265c-0.459,0.46-0.922,0.838-1.025,0.844c-0.041,0-0.068,0.006-0.082,0.017
				c0,0.003-0.004,0.003-0.004,0.003s-0.002,0.006-0.004,0.006v0.003v0.003l-0.004,0.003c-0.002,0,0,0.003,0,0.003
				c0,0.002,0,0.002,0,0.005c0,0,0,0,0,0.003c0,0-0.002,0.003,0,0.006l-0.002,0.003c0.002,0.003,0.006,0.009,0.006,0.009
				c0,0.003,0,0.006,0,0.008c0,0,0.002,0.006,0.004,0.006c0.078,0.143,0.584,0.424,0.871,0.424c0.209,0,0.719-0.239,1.129-0.531
				c0.725-0.512,0.758-0.518,1.049-0.228c0.168,0.165,0.305,0.488,0.305,0.713c0,0.341-0.182,0.497-1.131,0.98
				c-0.701,0.36-1.529,0.975-2.17,1.616c-0.869,0.867-1.115,1.028-1.484,0.966c-0.232-0.036-0.359-0.051-0.402-0.028l-0.004,0.003
				c-0.002,0-0.006,0.003-0.006,0.006c0,0,0,0-0.002,0.003c0,0.003-0.004,0.009-0.004,0.012c0,0.045,0.08,0.136,0.219,0.289
				c0.131,0.148,0.441,0.268,0.684,0.268c0.664,0,2.76-0.781,3.406-1.271c0.602-0.451,1.184-0.536,1.668-0.253
				c0.75,0.44-0.5,1.33-2.859,2.035c-0.863,0.258-1.615,0.508-1.711,0.57c-0.002,0.003-0.008,0.003-0.008,0.003l-0.002,0.003
				c0,0.003-0.004,0.003-0.004,0.003c0,0.003,0,0.003,0,0.006c-0.033,0.054,0.018,0.201,0.117,0.338
				c0.248,0.327,1.486,0.341,2.539,0.028c0.424-0.125,1.477-0.551,2.342-0.943c1.564-0.71,1.57-0.71,2.119-0.423
				c1.273,0.667,1.156,1.832-0.375,3.75c-0.664,0.835-1.258,1.207-2.332,1.472c-0.398,0.097-1.217,0.866-1.217,1.142
				c0,0.029,0.008,0.052,0.016,0.068h0.271c0.061-0.042,0.123-0.104,0.184-0.188c0.338-0.448,1.021-0.75,1.715-0.756
				c0.75-0.003,1.67-0.414,2.361-1.06c0.607-0.565,1.219-0.732,1.678-0.46c0.256,0.15,0.49,0.165,0.797,0.048
				c0.549-0.207,0.82-0.107,0.82,0.305c0,0.182,0.193,0.429,0.457,0.579c0.252,0.146,0.701,0.497,1,0.784
				c0.225,0.219,0.391,0.318,0.479,0.318c0.002,0,0.01,0,0.01,0c0.004,0,0.006,0,0.006,0c0.006,0,0.01-0.003,0.012-0.003
				l0.004-0.003c0.006-0.003,0.01-0.003,0.012-0.006c0.002,0,0.004-0.003,0.004-0.003c0-0.003,0.004-0.003,0.004-0.005
				c0,0,0.002,0,0.002-0.003l0.004-0.003c0,0,0-0.006,0.002-0.006c0-0.003,0.004-0.006,0.004-0.006c0-0.003,0-0.006,0.002-0.009
				c0-0.003,0.004-0.005,0.004-0.008s0-0.009,0-0.015c0.008-0.097-0.066-0.29-0.24-0.562c-0.102-0.159-0.152-0.318-0.139-0.4
				c0.002-0.003,0.002-0.009,0.004-0.012c0-0.003,0.002-0.006,0.002-0.006c0-0.002,0-0.002,0-0.005c0,0,0.002,0,0.002-0.003
				c0.004-0.003,0.006-0.006,0.008-0.009l0.002-0.003c0.002-0.003,0.006-0.003,0.006-0.003l0.006-0.006c0,0,0.002-0.003,0.006-0.003
				c0.094-0.036,0.604-0.017,1.158,0.046c0.977,0.113,1.094,0.173,1.672,0.841c0.285,0.33,0.518,0.537,0.707,0.622h0.391
				c0.086-0.037,0.145-0.091,0.158-0.145c0-0.003,0.002-0.006,0.002-0.006c0.002-0.003,0-0.009,0-0.012c0.002,0,0-0.002,0-0.005
				s0.002-0.006,0-0.006v-0.006c0,0,0.002,0,0-0.003c-0.031-0.11-0.611-0.662-1.307-1.241c-1.578-1.315-1.818-1.799-1.824-3.623
				c-0.004-1.091,0.047-1.372,0.303-1.653c0.398-0.438,0.617-0.426,1.592,0.083c0.738,0.386,0.969,0.417,2.645,0.38
				c1.801-0.039,1.854-0.028,2.758,0.503c0.508,0.299,1.127,0.699,1.381,0.89c0.559,0.421,1.129,0.449,1.262,0.065
				c0.16-0.455-0.906-1.338-2.904-2.403c-1.99-1.06-2.197-1.355-1.283-1.839c0.525-0.275,0.559-0.267,1.387,0.193
				c0.662,0.367,0.963,0.449,1.389,0.361l0.543-0.114l-1.195-0.979c-0.656-0.537-1.293-1.108-1.412-1.273
				c-0.35-0.469-1.023-0.778-1.688-0.778c-0.312,0-0.602-0.06-0.682-0.134c-0.004-0.002-0.006-0.008-0.01-0.011l-0.002-0.003
				l-0.002-0.006c-0.188-0.332,0.375-0.491,1.943-0.554c2.113-0.083,2.402-0.33,0.945-0.802c-0.582-0.185-1.451-0.423-1.938-0.528
				c-0.59-0.128-0.918-0.264-0.998-0.426c-0.012-0.018-0.016-0.04-0.02-0.06c-0.002-0.012-0.002-0.031,0-0.043
				c0.006-0.057,0.039-0.113,0.096-0.173c0.098-0.111,0.574-0.097,1.381,0.036c0.902,0.154,1.398,0.188,1.49,0.083
				c0.09-0.122-0.324-0.424-1.248-0.932c-0.838-0.467-1.898-1.217-2.381-1.693c-0.477-0.469-1.188-1.006-1.574-1.19
				c-0.512-0.242-0.676-0.403-0.609-0.594c0.115-0.33,0.92-0.336,1.439-0.006c0.211,0.131,0.764,0.241,1.23,0.235l0.846-0.005
				l-0.561-0.228c-0.559-0.228-2.084-1.31-2.199-1.558c-0.004-0.002-0.006-0.011-0.006-0.014c-0.002-0.003,0-0.006,0-0.006v-0.003
				c0-0.003-0.002-0.003,0-0.003c0-0.003,0.002-0.006,0.002-0.006s0.002-0.002,0.004-0.002l0.002-0.003
				c0.062-0.046,0.412-0.065,0.836-0.043l0.844,0.048l-1.217-0.939c-0.895-0.688-1.445-0.983-2.074-1.12
				c-0.471-0.1-1.012-0.216-1.201-0.261c-0.504-0.12-1.354-1.003-1.697-1.773L400.514,288.501z M397.739,293.242
				c0.02,0,0.039,0,0.062,0c0.156,0,0.268,0.037,0.316,0.097c0,0.003,0.004,0.006,0.006,0.009l0.002,0.006
				c0.006,0.008,0.01,0.02,0.014,0.028c0,0.003,0,0.009,0.002,0.011c0,0.003,0,0.009,0,0.012s0,0.009,0,0.012
				c-0.002,0.003-0.002,0.011-0.002,0.014s-0.004,0.009-0.004,0.012c-0.033,0.107-0.211,0.307-0.396,0.443
				c-0.141,0.102-0.225,0.159-0.273,0.15c-0.002,0-0.008,0-0.012-0.003c-0.002,0-0.004,0-0.006-0.003s-0.006-0.006-0.008-0.009
				c-0.033-0.039-0.039-0.145-0.039-0.332C397.401,293.345,397.463,293.251,397.739,293.242 M401.848,293.666c0,0,0.004,0,0.01,0
				c0.238,0,0.402,0.11,0.434,0.298c0.041,0.233-0.057,0.296-0.434,0.296c-0.213,0-0.336-0.021-0.395-0.08
				c-0.047-0.045-0.053-0.116-0.037-0.216C401.457,293.779,401.615,293.669,401.848,293.666 M400.645,293.766
				c0.207-0.018,0.293,0.107,0.293,0.372c0,0.318-0.121,0.414-0.693,0.562c-0.361,0.091-0.691,0.134-0.762,0.1l-0.004-0.003
				l-0.006-0.003c-0.197-0.219-0.023-0.497,0.469-0.759C400.26,293.87,400.489,293.779,400.645,293.766 M403.414,293.768
				c0.307-0.008,0.344,0.137,0.195,0.563c-0.051,0.15-0.264,0.267-0.475,0.267c-0.303,0-0.365-0.074-0.328-0.381
				c0.037-0.272,0.168-0.395,0.473-0.435C403.328,293.776,403.375,293.771,403.414,293.768 M398.745,294.598c0.01,0,0.021,0,0.031,0
				c0.369,0,0.139,0.699-0.336,1.02c-0.426,0.284-0.873,0.406-1,0.296c-0.004,0-0.004-0.003-0.004-0.006
				c-0.01-0.006-0.016-0.017-0.021-0.025c0-0.003,0-0.009-0.004-0.009c0-0.003-0.002-0.006-0.002-0.008
				c0-0.003-0.002-0.006-0.002-0.009c-0.002-0.003,0-0.006,0-0.009c-0.002-0.006-0.004-0.012-0.004-0.017v-0.003
				C397.415,295.447,398.305,294.638,398.745,294.598 M402.221,296.214c0.176-0.02,0.287,0.174,0.225,0.528
				c-0.031,0.196-0.207,0.333-0.473,0.367c-0.203,0.025-0.328,0.017-0.377-0.04c0,0,0,0,0-0.003
				c-0.002-0.003-0.006-0.006-0.008-0.009c0-0.003,0-0.005,0-0.008c-0.004,0-0.006-0.003-0.006-0.003c0-0.003,0-0.009,0-0.012
				c-0.025-0.094,0.07-0.27,0.287-0.557C401.994,296.313,402.119,296.229,402.221,296.214 M400.836,296.294
				c0.01-0.003,0.016,0,0.023,0c0.355,0,0.41,0.312,0.092,0.5c-0.148,0.088-0.291,0.153-0.338,0.159c0,0-0.004,0.003-0.006,0.003
				l-0.006-0.003c-0.027-0.009-0.223-0.071-0.434-0.143l-0.385-0.131l0.434-0.195C400.44,296.385,400.708,296.303,400.836,296.294
				 M403.818,296.683c0.166-0.008,0.348,0.023,0.525,0.1c0.32,0.134,0.383,0.25,0.322,0.6c-0.082,0.478-0.344,0.531-1.234,0.247
				c-0.436-0.139-0.482-0.204-0.342-0.494C403.225,296.862,403.5,296.7,403.818,296.683 M397.217,296.8c0.012,0,0.018,0,0.029,0
				c0.648,0,0.738,0.113,0.424,0.528c-0.105,0.139-0.307,0.35-0.449,0.469c-0.219,0.179-0.285,0.159-0.422-0.125
				c-0.164-0.338-0.217-0.562-0.137-0.696C396.739,296.856,396.918,296.803,397.217,296.8 M395.514,297.086
				c0.275-0.008,0.445,0.123,0.666,0.501l0.309,0.534l-0.463,0.179c-0.422,0.162-0.496,0.131-0.842-0.361
				c-0.223-0.312-0.307-0.517-0.248-0.647c0.008-0.012,0.014-0.025,0.021-0.037c0.002,0,0.006-0.006,0.01-0.009
				s0.006-0.005,0.01-0.008c0.078-0.08,0.236-0.122,0.48-0.146C395.475,297.092,395.495,297.086,395.514,297.086 M405.713,298.684
				c0.307-0.026,0.619,0.192,0.574,0.539c-0.057,0.443-0.541,0.571-0.938,0.25c-0.236-0.19-0.248-0.261-0.062-0.539
				C405.391,298.774,405.551,298.697,405.713,298.684 M399.922,299.513c0.012,0,0.025,0,0.035,0c0.025,0,0.051,0.006,0.072,0.012
				c0.012,0.008,0.027,0.014,0.037,0.022c0.004,0,0.01,0.006,0.012,0.009l0.006,0.005c0,0.003,0.006,0.006,0.006,0.006
				c0.002,0.003,0.006,0.006,0.006,0.009c0.049,0.06,0.064,0.165,0.045,0.304c-0.062,0.458-0.363,0.591-0.49,0.219
				C399.532,299.766,399.645,299.529,399.922,299.513 M397.987,299.862c0.131-0.018,0.346,0.071,0.559,0.25
				c0.146,0.119,0.207,0.238,0.203,0.323c-0.002,0.009-0.002,0.021-0.004,0.026c0,0.005,0,0.011,0,0.017
				c-0.004,0.003-0.006,0.009-0.006,0.012c-0.004,0.006-0.006,0.014-0.012,0.017c0,0.003-0.002,0.006-0.002,0.009
				c-0.002,0-0.006,0.003-0.006,0.006c-0.006,0.006-0.012,0.014-0.018,0.02c0,0-0.004,0.006-0.006,0.006
				c-0.088,0.068-0.279,0.054-0.494-0.113c-0.176-0.137-0.324-0.318-0.338-0.409c0-0.003,0-0.006,0-0.009v-0.006
				C397.864,299.922,397.911,299.873,397.987,299.862 M401.064,299.928c0.061-0.003,0.123,0.054,0.227,0.17
				c0.131,0.146,0.285,0.424,0.342,0.62c0.135,0.469-0.078,0.664-0.494,0.451c-0.449-0.23-0.556-0.591-0.298-1
				C400.94,300.016,401,299.936,401.064,299.928 M402.139,300.566c0.111-0.014,0.268,0.156,0.305,0.443
				c0.021,0.168,0,0.31-0.053,0.355l-0.002,0.003c-0.004,0-0.006,0-0.006,0.003c-0.002,0-0.008,0.003-0.008,0.003
				s-0.004,0.003-0.006,0.003l0,0h-0.008h-0.002h-0.004c-0.221,0-0.346-0.199-0.346-0.552
				C402.01,300.657,402.068,300.575,402.139,300.566 M395.395,301.243c0.225,0,0.426,0.011,0.557,0.04
				c0.215,0.042,0.357,0.104,0.426,0.179c0.014,0.014,0.027,0.034,0.035,0.051c0.002,0.009,0.008,0.021,0.008,0.028
				c0.006,0.021,0.006,0.04,0,0.06c-0.025,0.134-0.213,0.293-0.564,0.478c-0.291,0.153-0.785,0.332-1.1,0.393
				c-0.518,0.096-0.59,0.06-0.807-0.401c-0.129-0.275-0.232-0.536-0.234-0.585v-0.003c0-0.003-0.004-0.006,0-0.009l0.002-0.002
				c0,0,0-0.006,0.004-0.006l0.002-0.003C393.833,301.348,394.733,301.243,395.395,301.243 M405.854,302.766
				c0.605-0.028,0.934,0.381,0.275,0.89c-0.426,0.326-1.047,0.341-1.432,0.031c-0.277-0.225-0.264-0.256,0.242-0.597
				C405.26,302.877,405.584,302.777,405.854,302.766 M408.062,303.243c0.008-0.003,0.021,0,0.031,0c0.088,0,0.295,0.104,0.459,0.238
				c0.293,0.236,0.291,0.25-0.072,0.68c-0.189,0.222-0.383,0.395-0.449,0.409h-0.004h-0.002h-0.004h-0.002
				c-0.049-0.015-0.316-0.058-0.592-0.094c-0.305-0.043-0.498-0.165-0.498-0.315c0-0.006,0.002-0.018,0.004-0.023
				C406.982,303.885,407.738,303.283,408.062,303.243 M396.967,303.919c0.027,0,0.061,0,0.098,0c0.418,0,0.646,0.344,0.646,0.966
				c0,0.839-0.512,0.771-0.746-0.096C396.76,304.033,396.739,303.934,396.967,303.919 M400.139,304.158
				c0.25-0.009,0.855,0.131,0.937,0.227l0.002,0.003l0.004,0.003v0.003l0.002,0.003v0.003c0,0.003,0,0.006,0,0.006v0.003
				c-0.008,0.065-0.169,0.326-0.365,0.591l-0.359,0.485l-0.189-0.625c-0.092-0.31-0.15-0.591-0.139-0.662c0-0.002,0-0.005,0-0.005
				s0.002-0.003,0.004-0.003v-0.003v-0.003l0.004-0.003c0.002,0,0.004-0.003,0.004-0.006c0,0,0.002,0.003,0.002,0l0.006-0.003
				l0.002-0.003C400.073,304.163,400.102,304.158,400.139,304.158 M398.594,304.434c0.047-0.006,0.117,0.009,0.215,0.022
				c0.199,0.031,0.381,0.196,0.412,0.372c0.035,0.211,0.016,0.361-0.037,0.438c-0.004,0.006-0.01,0.015-0.014,0.021
				c-0.004,0.005-0.012,0.011-0.018,0.014c-0.002,0.003-0.008,0.006-0.008,0.009c-0.012,0.006-0.025,0.014-0.037,0.017
				c-0.004,0-0.012,0.003-0.016,0.003c-0.01,0-0.021,0-0.029,0c-0.104-0.014-0.236-0.142-0.352-0.386
				c-0.135-0.287-0.195-0.421-0.172-0.478c0-0.003,0.006-0.009,0.008-0.012C398.559,304.442,398.575,304.437,398.594,304.434"/>
		</g>
	</g>
</g>
</svg>
