<?xml version="1.0" encoding="utf-8"?>
<!-- Generator: Adobe Illustrator 16.0.0, SVG Export Plug-In . SVG Version: 6.00 Build 0)  -->
<!DOCTYPE svg PUBLIC "-//W3C//DTD SVG 1.1//EN" "http://www.w3.org/Graphics/SVG/1.1/DTD/svg11.dtd">
<svg version="1.1" id="name" xmlns="http://www.w3.org/2000/svg" xmlns:xlink="http://www.w3.org/1999/xlink" x="0px" y="0px"
	 width="85.71px" height="50px" viewBox="358 276 85.71 50" enable-background="new 358 276 85.71 50" xml:space="preserve">
<g id="li">
	<g>
		<defs>
			<rect id="SVGID_1_" x="358" y="276" width="85.71" height="50"/>
		</defs>
		<clipPath id="SVGID_2_">
			<use xlink:href="#SVGID_1_"  overflow="visible"/>
		</clipPath>
		<rect x="358" y="276" clip-path="url(#SVGID_2_)" fill="#2B3379" width="85.71" height="50"/>
		<g clip-path="url(#SVGID_2_)">
			<defs>
				<rect id="SVGID_3_" x="358" y="276" width="85.71" height="50"/>
			</defs>
			<clipPath id="SVGID_4_">
				<use xlink:href="#SVGID_3_"  overflow="visible"/>
			</clipPath>
			<path clip-path="url(#SVGID_4_)" fill="#F7D849" d="M376.03,286.191l-0.154,5.207h-5.283c-0.65-1.262-1.188-2.335-1.188-3.79
				c0-1.216,0.957-2.182,2.336-2.182C373.2,285.427,374.803,285.918,376.03,286.191L376.03,286.191z"/>
			<path clip-path="url(#SVGID_4_)" fill="#F7D849" d="M370.036,286.43v3.009V286.43z"/>
			<g clip-path="url(#SVGID_4_)">
				<path fill="#010101" d="M370.036,289.501c-0.035,0-0.062-0.028-0.062-0.062v-3.009c0-0.068,0.127-0.068,0.127,0v3.009
					C370.1,289.473,370.071,289.501,370.036,289.501L370.036,289.501z"/>
			</g>
			<path clip-path="url(#SVGID_4_)" fill="#F7D849" d="M370.461,286.123v4.003V286.123z"/>
			<g clip-path="url(#SVGID_4_)">
				<path fill="#010101" d="M370.461,290.191c-0.035,0-0.064-0.028-0.064-0.065v-4.003c0-0.068,0.129-0.068,0.129,0v4.003
					C370.526,290.163,370.497,290.191,370.461,290.191L370.461,290.191z"/>
			</g>
			<path clip-path="url(#SVGID_4_)" fill="#F7D849" d="M370.885,285.912v4.771V285.912z"/>
			<g clip-path="url(#SVGID_4_)">
				<path fill="#010101" d="M370.885,290.745c-0.035,0-0.062-0.028-0.062-0.062v-4.771c0-0.067,0.127-0.067,0.127,0v4.771
					C370.95,290.717,370.92,290.745,370.885,290.745L370.885,290.745z"/>
			</g>
			<path clip-path="url(#SVGID_4_)" fill="#F7D849" d="M371.311,285.816v3.738V285.816z"/>
			<g clip-path="url(#SVGID_4_)">
				<path fill="#010101" d="M371.311,289.617c-0.035,0-0.064-0.025-0.064-0.062v-3.738c0-0.071,0.127-0.071,0.127,0v3.738
					C371.374,289.592,371.346,289.617,371.311,289.617L371.311,289.617z"/>
			</g>
			<path clip-path="url(#SVGID_4_)" fill="#F7D849" d="M371.735,285.796v3.778V285.796z"/>
			<g clip-path="url(#SVGID_4_)">
				<path fill="#010101" d="M371.735,289.637c-0.035,0-0.064-0.028-0.064-0.062v-3.778c0-0.068,0.127-0.068,0.127,0v3.778
					C371.797,289.608,371.77,289.637,371.735,289.637L371.735,289.637z"/>
			</g>
			<path clip-path="url(#SVGID_4_)" fill="#F7D849" d="M372.161,285.665v3.907V285.665z"/>
			<g clip-path="url(#SVGID_4_)">
				<path fill="#010101" d="M372.161,289.635c-0.037,0-0.064-0.029-0.064-0.062v-3.907c0-0.07,0.127-0.07,0.127,0v3.907
					C372.223,289.605,372.194,289.635,372.161,289.635L372.161,289.635z"/>
			</g>
			<path clip-path="url(#SVGID_4_)" fill="#F7D849" d="M372.584,285.665v3.907V285.665z"/>
			<g clip-path="url(#SVGID_4_)">
				<path fill="#010101" d="M372.584,289.635c-0.035,0-0.064-0.029-0.064-0.062v-3.907c0-0.07,0.127-0.07,0.127,0v3.907
					C372.647,289.605,372.62,289.635,372.584,289.635L372.584,289.635z"/>
			</g>
			<path clip-path="url(#SVGID_4_)" fill="#F7D849" d="M373.006,285.702v3.906V285.702z"/>
			<g clip-path="url(#SVGID_4_)">
				<path fill="#010101" d="M373.006,289.674c-0.035,0-0.062-0.028-0.062-0.065v-3.906c0-0.068,0.127-0.068,0.127,0v3.906
					C373.071,289.646,373.042,289.674,373.006,289.674L373.006,289.674z"/>
			</g>
			<path clip-path="url(#SVGID_4_)" fill="#F7D849" d="M373.432,285.742v3.906V285.742z"/>
			<g clip-path="url(#SVGID_4_)">
				<path fill="#010101" d="M373.432,289.711c-0.037,0-0.064-0.028-0.064-0.062v-3.906c0-0.071,0.127-0.071,0.127,0v3.906
					C373.495,289.683,373.467,289.711,373.432,289.711L373.432,289.711z"/>
			</g>
			<path clip-path="url(#SVGID_4_)" fill="#F7D849" d="M373.856,285.989v3.909V285.989z"/>
			<g clip-path="url(#SVGID_4_)">
				<path fill="#010101" d="M373.856,289.961c-0.035,0-0.064-0.028-0.064-0.062v-3.909c0-0.068,0.129-0.068,0.129,0v3.909
					C373.92,289.933,373.891,289.961,373.856,289.961L373.856,289.961z"/>
			</g>
			<path clip-path="url(#SVGID_4_)" fill="#F7D849" d="M374.282,286.029v4.403V286.029z"/>
			<g clip-path="url(#SVGID_4_)">
				<path fill="#010101" d="M374.282,290.495c-0.037,0-0.064-0.028-0.064-0.062v-4.403c0-0.071,0.127-0.071,0.127,0v4.403
					C374.344,290.467,374.317,290.495,374.282,290.495L374.282,290.495z"/>
			</g>
			<path clip-path="url(#SVGID_4_)" fill="#F7D849" d="M374.706,286.029v3.906V286.029z"/>
			<g clip-path="url(#SVGID_4_)">
				<path fill="#010101" d="M374.706,289.998c-0.035,0-0.064-0.028-0.064-0.062v-3.906c0-0.071,0.127-0.071,0.127,0v3.906
					C374.768,289.97,374.741,289.998,374.706,289.998L374.706,289.998z"/>
			</g>
			<path clip-path="url(#SVGID_4_)" fill="#F7D849" d="M375.129,286.029v3.906V286.029z"/>
			<g clip-path="url(#SVGID_4_)">
				<path fill="#010101" d="M375.129,289.998c-0.035,0-0.062-0.028-0.062-0.062v-3.906c0-0.071,0.125-0.071,0.125,0v3.906
					C375.192,289.97,375.167,289.998,375.129,289.998L375.129,289.998z"/>
			</g>
			<path clip-path="url(#SVGID_4_)" fill="#010101" d="M372.698,285.827c0.896,0.147,2.867,1.071,2.645,2.318
				c-0.322,1.768-1.354,1.057-2.719,0.804l-1.035,0.344c-0.371,0.378-0.916,0.725-1.285,0.268h-0.611v2.395h6.777v-5.784
				L372.698,285.827z"/>
			<g clip-path="url(#SVGID_4_)">
				<path fill="#010101" d="M376.469,292.018h-6.777l-0.062-2.457l0.674-0.062c0.482,0.482,0.99,0.006,1.238-0.25l1.061-0.358
					c0.295,0.046,0.547,0.114,0.783,0.174c0.365,0.097,0.682,0.179,0.955,0.179c0.365,0,0.764-0.131,0.939-1.108
					c0.053-0.301-0.025-0.599-0.232-0.892c-0.523-0.741-1.717-1.247-2.359-1.353c-0.033-0.006-0.055-0.037-0.053-0.071
					c0.004-0.033,0.031-0.054,0.07-0.054l3.771,0.344l0.057,5.847C376.534,291.989,376.504,292.018,376.469,292.018L376.469,292.018
					z M370.254,289.601l-0.562,0.025l0.062,2.329l6.652-0.062v-5.722l-3.064-0.229c0.643,0.232,1.41,0.661,1.809,1.227
					c0.229,0.321,0.312,0.653,0.252,0.986c-0.152,0.841-0.479,1.216-1.062,1.216c-0.289,0-0.629-0.091-0.986-0.185
					c-0.234-0.06-0.484-0.125-0.742-0.174l-1.004,0.342c-0.16,0.173-0.523,0.488-0.881,0.488
					C370.542,289.842,370.383,289.76,370.254,289.601L370.254,289.601z"/>
			</g>
			<path clip-path="url(#SVGID_4_)" fill="#F7D849" d="M376.145,285.415c0,0.228-0.184,0.412-0.41,0.412
				c-0.229,0-0.414-0.185-0.414-0.412l0,0c0-0.227,0.186-0.409,0.41-0.412C375.958,285.003,376.145,285.188,376.145,285.415
				L376.145,285.415z"/>
			<g clip-path="url(#SVGID_4_)">
				<path fill="#010101" d="M375.735,285.893c-0.264,0-0.477-0.216-0.477-0.478c0-0.261,0.211-0.475,0.473-0.475
					c0.264,0,0.477,0.214,0.477,0.475C376.208,285.677,375.995,285.893,375.735,285.893L375.735,285.893z M375.731,285.065
					c-0.189,0.003-0.346,0.159-0.346,0.35c0,0.193,0.156,0.35,0.35,0.35c0.189,0,0.346-0.156,0.346-0.35
					S375.924,285.065,375.731,285.065L375.731,285.065z"/>
			</g>
			<path clip-path="url(#SVGID_4_)" fill="#F7D849" d="M375.219,285.193c0.002,0.228-0.184,0.412-0.412,0.412
				c-0.227,0-0.412-0.185-0.412-0.412l0,0c0-0.227,0.186-0.412,0.412-0.412C375.036,284.781,375.219,284.967,375.219,285.193
				L375.219,285.193z"/>
			<g clip-path="url(#SVGID_4_)">
				<path fill="#010101" d="M374.807,285.668c-0.262,0-0.475-0.213-0.475-0.475c0-0.261,0.213-0.475,0.475-0.475
					s0.475,0.214,0.475,0.475c0,0.125-0.047,0.245-0.137,0.336S374.936,285.668,374.807,285.668L374.807,285.668z M374.807,284.844
					c-0.193,0-0.35,0.157-0.35,0.35c0,0.284,0.396,0.449,0.598,0.248c0.064-0.065,0.102-0.154,0.1-0.248
					C375.155,285.001,375,284.844,374.807,284.844L374.807,284.844z"/>
			</g>
			<path clip-path="url(#SVGID_4_)" fill="#F7D849" d="M374.282,284.958c0,0.228-0.184,0.412-0.412,0.412
				c-0.227,0-0.412-0.185-0.412-0.412l0,0c0-0.228,0.184-0.412,0.41-0.412C374.096,284.546,374.282,284.73,374.282,284.958
				L374.282,284.958z"/>
			<g clip-path="url(#SVGID_4_)">
				<path fill="#010101" d="M373.87,285.433h-0.002c-0.26,0-0.473-0.213-0.473-0.475s0.213-0.475,0.473-0.475
					c0.262,0,0.477,0.213,0.477,0.475S374.129,285.433,373.87,285.433L373.87,285.433z M373.868,284.608
					c-0.191,0-0.348,0.156-0.348,0.35s0.156,0.347,0.348,0.347c0.193,0,0.35-0.153,0.35-0.347S374.061,284.608,373.868,284.608
					L373.868,284.608z"/>
			</g>
			<path clip-path="url(#SVGID_4_)" fill="#F7D849" d="M373.338,284.802c0,0.228-0.184,0.412-0.41,0.412s-0.414-0.185-0.414-0.412
				l0,0c0-0.228,0.184-0.412,0.412-0.412s0.412,0.182,0.412,0.409V284.802z"/>
			<g clip-path="url(#SVGID_4_)">
				<path fill="#010101" d="M372.928,285.276c-0.262,0-0.477-0.213-0.477-0.475s0.215-0.478,0.475-0.478
					c0.262,0,0.475,0.216,0.475,0.475C373.401,285.063,373.188,285.276,372.928,285.276L372.928,285.276z M372.926,284.452
					c-0.191,0-0.348,0.156-0.348,0.35c0,0.19,0.156,0.347,0.35,0.347c0.191,0,0.348-0.156,0.348-0.347
					C373.276,284.608,373.12,284.452,372.926,284.452L372.926,284.452z"/>
			</g>
			<path clip-path="url(#SVGID_4_)" fill="#F7D849" d="M372.397,284.708c0,0.228-0.186,0.412-0.414,0.412
				c-0.227,0-0.41-0.185-0.41-0.412l0,0c0-0.228,0.184-0.412,0.41-0.412C372.211,284.296,372.397,284.48,372.397,284.708
				L372.397,284.708z"/>
			<g clip-path="url(#SVGID_4_)">
				<path fill="#010101" d="M371.983,285.183c-0.26,0-0.473-0.213-0.473-0.475s0.213-0.475,0.473-0.475
					c0.264,0,0.479,0.213,0.479,0.475S372.247,285.183,371.983,285.183L371.983,285.183z M371.983,284.358
					c-0.189,0.003-0.346,0.156-0.346,0.35c0,0.19,0.156,0.35,0.346,0.35c0.193,0,0.35-0.159,0.35-0.35
					C372.333,284.515,372.176,284.358,371.983,284.358L371.983,284.358z"/>
			</g>
			<path clip-path="url(#SVGID_4_)" fill="#F7D849" d="M371.473,284.759c0,0.23-0.186,0.412-0.412,0.412
				c-0.229,0-0.41-0.182-0.41-0.409v-0.003c-0.002-0.228,0.182-0.409,0.41-0.409C371.288,284.35,371.473,284.531,371.473,284.759
				L371.473,284.759z"/>
			<g clip-path="url(#SVGID_4_)">
				<path fill="#010101" d="M371.061,285.236c-0.26,0-0.475-0.213-0.475-0.475c0-0.125,0.049-0.247,0.137-0.335
					c0.273-0.278,0.812-0.057,0.812,0.332C371.536,285.023,371.323,285.236,371.061,285.236L371.061,285.236z M371.061,284.412
					c-0.094,0-0.182,0.037-0.248,0.103c-0.064,0.065-0.1,0.153-0.1,0.244c0,0.193,0.156,0.35,0.348,0.35
					c0.193,0,0.35-0.156,0.35-0.35C371.411,284.568,371.254,284.412,371.061,284.412L371.061,284.412z"/>
			</g>
			<path clip-path="url(#SVGID_4_)" fill="#F7D849" d="M370.592,285.063c0,0.224-0.184,0.411-0.412,0.411
				c-0.227,0-0.41-0.185-0.41-0.411l0,0c0-0.228,0.182-0.412,0.41-0.412c0.227,0,0.412,0.182,0.412,0.409V285.063z"/>
			<g clip-path="url(#SVGID_4_)">
				<path fill="#010101" d="M370.18,285.537c-0.262,0-0.475-0.213-0.475-0.474c0-0.39,0.537-0.608,0.809-0.339
					c0.09,0.091,0.141,0.211,0.141,0.336C370.655,285.324,370.442,285.537,370.18,285.537L370.18,285.537z M370.18,284.714
					c-0.191,0-0.348,0.156-0.348,0.35c0,0.189,0.156,0.346,0.348,0.346c0.193,0,0.348-0.156,0.348-0.346
					C370.528,284.87,370.374,284.714,370.18,284.714L370.18,284.714z"/>
			</g>
			<path clip-path="url(#SVGID_4_)" fill="#F7D849" d="M369.848,285.608c0,0.228-0.184,0.412-0.41,0.412s-0.412-0.185-0.412-0.412
				l0,0c0-0.228,0.186-0.412,0.412-0.412s0.41,0.182,0.41,0.409V285.608z"/>
			<g clip-path="url(#SVGID_4_)">
				<path fill="#010101" d="M369.438,286.083c-0.262,0-0.477-0.213-0.477-0.475s0.215-0.475,0.477-0.475s0.475,0.213,0.475,0.472
					C369.913,285.87,369.7,286.083,369.438,286.083L369.438,286.083z M369.438,285.259c-0.193,0-0.35,0.156-0.35,0.35
					c0,0.19,0.156,0.347,0.35,0.347c0.191,0,0.348-0.156,0.348-0.347C369.786,285.415,369.629,285.259,369.438,285.259
					L369.438,285.259z"/>
			</g>
			<path clip-path="url(#SVGID_4_)" fill="#F7D849" d="M369.325,286.37c0,0.228-0.186,0.412-0.414,0.412
				c-0.227,0-0.41-0.185-0.41-0.412l0,0c-0.002-0.228,0.184-0.412,0.41-0.412c0.229,0,0.414,0.182,0.414,0.409V286.37z"/>
			<g clip-path="url(#SVGID_4_)">
				<path fill="#010101" d="M368.911,286.845c-0.26,0-0.475-0.214-0.475-0.475c0-0.125,0.049-0.244,0.139-0.335
					c0.273-0.279,0.812-0.055,0.812,0.332C369.387,286.631,369.174,286.845,368.911,286.845L368.911,286.845z M368.911,286.021
					c-0.094,0-0.18,0.037-0.246,0.103s-0.102,0.153-0.1,0.244c0,0.193,0.154,0.353,0.346,0.353c0.193,0,0.35-0.159,0.35-0.35
					C369.26,286.177,369.104,286.021,368.911,286.021L368.911,286.021z"/>
			</g>
			<path clip-path="url(#SVGID_4_)" fill="#F7D849" d="M369.071,287.265c0,0.228-0.186,0.412-0.412,0.412
				c-0.229,0-0.41-0.185-0.414-0.412l0,0c0-0.228,0.186-0.412,0.414-0.412c0.227,0,0.412,0.183,0.412,0.409V287.265z"/>
			<g clip-path="url(#SVGID_4_)">
				<path fill="#010101" d="M368.659,287.739c-0.26,0-0.473-0.213-0.477-0.475c0-0.261,0.213-0.475,0.477-0.475
					c0.262,0,0.475,0.214,0.475,0.472C369.133,287.526,368.92,287.739,368.659,287.739L368.659,287.739z M368.659,286.915
					c-0.193,0-0.35,0.156-0.35,0.35c0,0.19,0.158,0.347,0.35,0.347c0.193,0,0.348-0.156,0.348-0.347
					C369.006,287.071,368.852,286.915,368.659,286.915L368.659,286.915z"/>
			</g>
			<path clip-path="url(#SVGID_4_)" fill="#F7D849" d="M369.079,288.194c0,0.227-0.184,0.409-0.41,0.409s-0.414-0.183-0.414-0.409
				l0,0c0-0.228,0.188-0.415,0.414-0.415S369.079,287.967,369.079,288.194L369.079,288.194z"/>
			<g clip-path="url(#SVGID_4_)">
				<path fill="#010101" d="M368.668,288.666c-0.264,0-0.477-0.211-0.477-0.472c0-0.265,0.213-0.478,0.477-0.478
					c0.26,0,0.473,0.213,0.473,0.478C369.141,288.455,368.928,288.666,368.668,288.666L368.668,288.666z M368.668,287.845
					c-0.193,0-0.35,0.156-0.35,0.35c0,0.189,0.156,0.349,0.35,0.349c0.189,0,0.346-0.159,0.346-0.349
					C369.014,288.001,368.858,287.845,368.668,287.845L368.668,287.845z"/>
			</g>
			<path clip-path="url(#SVGID_4_)" fill="#F7D849" d="M369.254,289.104c0,0.227-0.184,0.411-0.41,0.411s-0.412-0.185-0.412-0.411
				l0,0c0-0.228,0.186-0.412,0.412-0.412s0.41,0.182,0.41,0.409V289.104z"/>
			<g clip-path="url(#SVGID_4_)">
				<path fill="#010101" d="M368.844,289.577c-0.262,0-0.477-0.213-0.477-0.474c0-0.265,0.215-0.478,0.477-0.478
					s0.475,0.213,0.475,0.475C369.319,289.364,369.106,289.577,368.844,289.577L368.844,289.577z M368.844,288.754
					c-0.193,0-0.35,0.156-0.35,0.35c0,0.189,0.156,0.349,0.35,0.349c0.191,0,0.348-0.159,0.348-0.349
					C369.192,288.91,369.036,288.754,368.844,288.754L368.844,288.754z"/>
			</g>
			<path clip-path="url(#SVGID_4_)" fill="#F7D849" d="M375.915,285.961l-0.039,0.537c-1.023-0.156-2.475-0.728-3.83-0.728
				c-1.248,0-2.221,0.5-2.221,1.762c0,1.244,0.527,2.372,1.227,3.522l-0.727,0.344c-0.65-1.262-1.188-2.335-1.188-3.79
				c0-1.216,0.955-2.412,2.604-2.412C373.2,285.196,374.688,285.688,375.915,285.961L375.915,285.961z"/>
			<g clip-path="url(#SVGID_4_)">
				<path fill="#010101" d="M370.325,291.461c-0.023,0-0.045-0.011-0.057-0.034c-0.613-1.193-1.195-2.321-1.195-3.818
					c0-1.198,0.936-2.475,2.668-2.475c1.119,0,2.262,0.29,3.271,0.543c0.318,0.079,0.625,0.159,0.916,0.225l0.01,0.603
					c0,0-0.004,0-0.006,0c-0.438,0-0.859-0.108-1.309-0.225c-0.805-0.211-1.715-0.446-2.578-0.446c-0.805,0-2.156,0.222-2.156,1.699
					c0,1.31,0.615,2.5,1.215,3.491l-0.752,0.432C370.342,291.461,370.333,291.461,370.325,291.461L370.325,291.461z
					 M371.741,285.259c-1.65,0-2.541,1.211-2.541,2.35c0,1.443,0.555,2.549,1.152,3.708l0.672-0.318
					c-0.637-0.915-1.262-2.125-1.262-3.466c0-1.159,0.832-1.824,2.283-1.824c0.881,0,1.799,0.238,2.609,0.446
					c0.449,0.116,0.867,0.227,1.23,0.281l-0.033-0.478c0,0-0.002,0-0.004,0c-0.242,0-0.549-0.079-0.867-0.159
					C373.979,285.546,372.842,285.259,371.741,285.259L371.741,285.259z"/>
			</g>
			<path clip-path="url(#SVGID_4_)" fill="#F7D849" d="M376.961,286.191l0.154,5.207h5.283c0.65-1.262,1.188-2.335,1.188-3.79
				c0-1.216-0.955-2.182-2.336-2.182C379.792,285.427,378.188,285.918,376.961,286.191L376.961,286.191z"/>
			<path clip-path="url(#SVGID_4_)" fill="#F7D849" d="M382.956,286.43v3.009V286.43z"/>
			<g clip-path="url(#SVGID_4_)">
				<path fill="#010101" d="M382.956,289.501c-0.037,0-0.064-0.028-0.064-0.062v-3.009c0-0.068,0.127-0.068,0.127,0v3.009
					C383.018,289.473,382.991,289.501,382.956,289.501L382.956,289.501z"/>
			</g>
			<path clip-path="url(#SVGID_4_)" fill="#F7D849" d="M382.53,286.123v4.003V286.123z"/>
			<g clip-path="url(#SVGID_4_)">
				<path fill="#010101" d="M382.53,290.191c-0.035,0-0.062-0.028-0.062-0.065v-4.003c0-0.068,0.127-0.068,0.127,0v4.003
					C382.594,290.163,382.565,290.191,382.53,290.191L382.53,290.191z"/>
			</g>
			<path clip-path="url(#SVGID_4_)" fill="#F7D849" d="M382.106,285.912v4.771V285.912z"/>
			<g clip-path="url(#SVGID_4_)">
				<path fill="#010101" d="M382.106,290.745c-0.037,0-0.062-0.028-0.062-0.062v-4.771c0-0.067,0.125-0.067,0.125,0v4.771
					C382.168,290.717,382.141,290.745,382.106,290.745L382.106,290.745z"/>
			</g>
			<path clip-path="url(#SVGID_4_)" fill="#F7D849" d="M381.68,285.816v3.738V285.816z"/>
			<g clip-path="url(#SVGID_4_)">
				<path fill="#010101" d="M381.68,289.617c-0.033,0-0.062-0.025-0.062-0.062v-3.738c0-0.071,0.127-0.071,0.127,0v3.738
					C381.745,289.592,381.715,289.617,381.68,289.617L381.68,289.617z"/>
			</g>
			<path clip-path="url(#SVGID_4_)" fill="#F7D849" d="M381.258,285.796v3.778V285.796z"/>
			<g clip-path="url(#SVGID_4_)">
				<path fill="#010101" d="M381.258,289.637c-0.035,0-0.064-0.028-0.064-0.062v-3.778c0-0.068,0.127-0.068,0.127,0v3.778
					C381.321,289.608,381.293,289.637,381.258,289.637L381.258,289.637z"/>
			</g>
			<path clip-path="url(#SVGID_4_)" fill="#F7D849" d="M380.834,285.665v3.907V285.665z"/>
			<g clip-path="url(#SVGID_4_)">
				<path fill="#010101" d="M380.834,289.635c-0.037,0-0.064-0.029-0.064-0.062v-3.907c0-0.07,0.127-0.07,0.127,0v3.907
					C380.897,289.605,380.87,289.635,380.834,289.635L380.834,289.635z"/>
			</g>
			<path clip-path="url(#SVGID_4_)" fill="#F7D849" d="M380.409,285.665v3.907V285.665z"/>
			<g clip-path="url(#SVGID_4_)">
				<path fill="#010101" d="M380.409,289.635c-0.035,0-0.064-0.029-0.064-0.062v-3.907c0-0.07,0.129-0.07,0.129,0v3.907
					C380.473,289.605,380.444,289.635,380.409,289.635L380.409,289.635z"/>
			</g>
			<path clip-path="url(#SVGID_4_)" fill="#F7D849" d="M379.985,285.702v3.906V285.702z"/>
			<g clip-path="url(#SVGID_4_)">
				<path fill="#010101" d="M379.985,289.674c-0.035,0-0.064-0.028-0.064-0.065v-3.906c0-0.068,0.127-0.068,0.127,0v3.906
					C380.047,289.646,380.02,289.674,379.985,289.674L379.985,289.674z"/>
			</g>
			<path clip-path="url(#SVGID_4_)" fill="#F7D849" d="M379.559,285.742v3.906V285.742z"/>
			<g clip-path="url(#SVGID_4_)">
				<path fill="#010101" d="M379.559,289.711c-0.035,0-0.064-0.028-0.064-0.062v-3.906c0-0.071,0.129-0.071,0.129,0v3.906
					C379.624,289.683,379.594,289.711,379.559,289.711L379.559,289.711z"/>
			</g>
			<path clip-path="url(#SVGID_4_)" fill="#F7D849" d="M379.135,285.989v3.909V285.989z"/>
			<g clip-path="url(#SVGID_4_)">
				<path fill="#010101" d="M379.135,289.961c-0.035,0-0.062-0.028-0.062-0.062v-3.909c0-0.068,0.125-0.068,0.125,0v3.909
					C379.198,289.933,379.17,289.961,379.135,289.961L379.135,289.961z"/>
			</g>
			<path clip-path="url(#SVGID_4_)" fill="#F7D849" d="M378.709,286.029v4.403V286.029z"/>
			<g clip-path="url(#SVGID_4_)">
				<path fill="#010101" d="M378.709,290.495c-0.035,0-0.062-0.028-0.062-0.062v-4.403c0-0.071,0.127-0.071,0.127,0v4.403
					C378.774,290.467,378.745,290.495,378.709,290.495L378.709,290.495z"/>
			</g>
			<path clip-path="url(#SVGID_4_)" fill="#F7D849" d="M378.286,286.029v3.906V286.029z"/>
			<g clip-path="url(#SVGID_4_)">
				<path fill="#010101" d="M378.286,289.998c-0.035,0-0.062-0.028-0.062-0.062v-3.906c0-0.071,0.127-0.071,0.127,0v3.906
					C378.35,289.97,378.321,289.998,378.286,289.998L378.286,289.998z"/>
			</g>
			<path clip-path="url(#SVGID_4_)" fill="#F7D849" d="M377.86,286.029v3.906V286.029z"/>
			<g clip-path="url(#SVGID_4_)">
				<path fill="#010101" d="M377.86,289.998c-0.035,0-0.062-0.028-0.062-0.062v-3.906c0-0.071,0.127-0.071,0.127,0v3.906
					C377.924,289.97,377.897,289.998,377.86,289.998L377.86,289.998z"/>
			</g>
			<path clip-path="url(#SVGID_4_)" fill="#010101" d="M380.293,285.827c-0.896,0.147-2.867,1.071-2.643,2.318
				c0.318,1.768,1.352,1.057,2.721,0.804l1.031,0.344c0.369,0.378,0.916,0.725,1.285,0.268h0.611v2.395h-6.779v-5.784
				L380.293,285.827z"/>
			<g clip-path="url(#SVGID_4_)">
				<path fill="#010101" d="M383.299,292.018h-6.779l-0.062-5.847l3.83-0.406c0.035,0,0.064,0.021,0.068,0.054
					c0.004,0.034-0.018,0.065-0.053,0.071c-0.641,0.105-1.836,0.611-2.359,1.353c-0.207,0.293-0.283,0.591-0.23,0.892
					c0.176,0.978,0.574,1.108,0.938,1.108c0.273,0,0.59-0.082,0.955-0.179c0.238-0.06,0.488-0.128,0.754-0.177l1.062,0.347
					c0.287,0.278,0.887,0.696,1.215,0.287l0.662-0.022l0.062,2.457C383.362,291.989,383.334,292.018,383.299,292.018
					L383.299,292.018z M379.614,285.955l-3.088,0.281l0.057,5.719l6.654-0.062v-2.332l-0.549,0.065
					c-0.08,0.134-0.238,0.216-0.424,0.216c-0.357,0-0.721-0.315-0.906-0.503l-1.008-0.329c-0.229,0.051-0.479,0.116-0.711,0.176
					c-0.359,0.094-0.699,0.185-0.988,0.185c-0.582,0-0.91-0.375-1.062-1.216c-0.059-0.333,0.025-0.665,0.252-0.986
					C378.231,286.614,378.979,286.188,379.614,285.955L379.614,285.955z"/>
			</g>
			<path clip-path="url(#SVGID_4_)" fill="#F7D849" d="M376.846,285.415c0,0.228,0.186,0.412,0.414,0.412
				c0.225,0,0.41-0.185,0.41-0.412l0,0c0-0.227-0.184-0.409-0.41-0.412C377.032,285.003,376.846,285.188,376.846,285.415
				L376.846,285.415z"/>
			<g clip-path="url(#SVGID_4_)">
				<path fill="#010101" d="M377.26,285.893c-0.264,0-0.477-0.216-0.477-0.478c0-0.261,0.213-0.475,0.477-0.475
					c0.262,0,0.473,0.214,0.473,0.475C377.733,285.677,377.52,285.893,377.26,285.893L377.26,285.893z M377.26,285.065
					c-0.193,0-0.35,0.156-0.35,0.35s0.156,0.35,0.35,0.35c0.189,0,0.346-0.156,0.346-0.35
					C377.606,285.225,377.45,285.068,377.26,285.065L377.26,285.065z"/>
			</g>
			<path clip-path="url(#SVGID_4_)" fill="#F7D849" d="M377.772,285.193c0,0.228,0.184,0.412,0.41,0.412
				c0.229,0,0.412-0.185,0.412-0.412l0,0c0-0.227-0.184-0.412-0.412-0.412C377.958,284.781,377.772,284.967,377.772,285.193
				L377.772,285.193z"/>
			<g clip-path="url(#SVGID_4_)">
				<path fill="#010101" d="M378.182,285.668c-0.26,0-0.473-0.213-0.473-0.475c0-0.261,0.213-0.475,0.473-0.475
					c0.264,0,0.477,0.214,0.477,0.475C378.659,285.455,378.446,285.668,378.182,285.668L378.182,285.668z M378.182,284.844
					c-0.191,0-0.346,0.157-0.346,0.35c0,0.193,0.154,0.35,0.346,0.35c0.193,0,0.35-0.156,0.35-0.35
					C378.532,285.001,378.375,284.844,378.182,284.844L378.182,284.844z"/>
			</g>
			<path clip-path="url(#SVGID_4_)" fill="#F7D849" d="M378.709,284.958c0,0.228,0.188,0.412,0.414,0.412s0.41-0.185,0.41-0.412l0,0
				c0-0.228-0.184-0.412-0.41-0.412S378.709,284.73,378.709,284.958L378.709,284.958z"/>
			<g clip-path="url(#SVGID_4_)">
				<path fill="#010101" d="M379.125,285.433c-0.266,0-0.479-0.213-0.479-0.475s0.213-0.475,0.477-0.475
					c0.26,0,0.473,0.213,0.473,0.475c0,0.128-0.049,0.244-0.137,0.335C379.37,285.381,379.25,285.433,379.125,285.433
					L379.125,285.433z M379.124,284.608c-0.193,0-0.35,0.156-0.35,0.35s0.156,0.347,0.35,0.347h0.002c0.092,0,0.178-0.034,0.244-0.1
					c0.064-0.065,0.1-0.153,0.1-0.247C379.469,284.768,379.313,284.608,379.124,284.608L379.124,284.608z"/>
			</g>
			<path clip-path="url(#SVGID_4_)" fill="#F7D849" d="M379.651,284.802c0,0.228,0.188,0.412,0.414,0.412
				c0.229,0,0.41-0.185,0.41-0.412l0,0c0.002-0.228-0.182-0.412-0.41-0.412c-0.227,0-0.414,0.182-0.414,0.409V284.802z"/>
			<g clip-path="url(#SVGID_4_)">
				<path fill="#010101" d="M380.065,285.276c-0.262,0-0.477-0.213-0.477-0.475c0-0.39,0.539-0.614,0.814-0.335
					c0.088,0.091,0.137,0.21,0.135,0.335C380.538,285.063,380.325,285.276,380.065,285.276L380.065,285.276z M380.065,284.452
					c-0.193,0-0.35,0.156-0.35,0.347c0,0.193,0.156,0.35,0.35,0.35c0.191,0,0.348-0.153,0.348-0.347c0-0.094-0.035-0.179-0.1-0.247
					C380.247,284.489,380.157,284.452,380.065,284.452L380.065,284.452z"/>
			</g>
			<path clip-path="url(#SVGID_4_)" fill="#F7D849" d="M380.596,284.708c-0.002,0.228,0.184,0.412,0.41,0.412
				c0.229,0,0.412-0.185,0.412-0.412l0,0c0-0.228-0.184-0.412-0.412-0.412C380.78,284.296,380.596,284.48,380.596,284.708
				L380.596,284.708z"/>
			<g clip-path="url(#SVGID_4_)">
				<path fill="#010101" d="M381.006,285.183c-0.127,0-0.248-0.049-0.338-0.14c-0.088-0.091-0.137-0.21-0.137-0.338
					c0-0.259,0.215-0.472,0.475-0.472c0.264,0,0.477,0.213,0.477,0.475S381.27,285.183,381.006,285.183L381.006,285.183z
					 M381.006,284.358c-0.191,0-0.348,0.156-0.348,0.35c0,0.094,0.035,0.179,0.1,0.244c0.203,0.205,0.598,0.04,0.598-0.244
					C381.356,284.518,381.2,284.361,381.006,284.358L381.006,284.358z"/>
			</g>
			<path clip-path="url(#SVGID_4_)" fill="#F7D849" d="M381.52,284.759c0,0.23,0.184,0.412,0.41,0.412s0.412-0.182,0.412-0.409
				v-0.003c0-0.228-0.186-0.409-0.412-0.409S381.52,284.531,381.52,284.759L381.52,284.759z"/>
			<g clip-path="url(#SVGID_4_)">
				<path fill="#010101" d="M381.93,285.236c-0.262,0-0.475-0.213-0.475-0.478c0-0.261,0.213-0.475,0.475-0.475
					c0.264,0,0.477,0.214,0.477,0.475C382.407,285.023,382.194,285.236,381.93,285.236L381.93,285.236z M381.93,284.412
					c-0.191,0-0.346,0.153-0.346,0.347s0.154,0.35,0.346,0.35c0.193,0,0.35-0.156,0.35-0.347
					C382.28,284.568,382.124,284.412,381.93,284.412L381.93,284.412z"/>
			</g>
			<path clip-path="url(#SVGID_4_)" fill="#F7D849" d="M382.399,285.063c0,0.224,0.186,0.411,0.412,0.411
				c0.229,0,0.412-0.185,0.412-0.411l0,0c0-0.228-0.184-0.412-0.412-0.412c-0.227,0-0.412,0.182-0.412,0.409V285.063z"/>
			<g clip-path="url(#SVGID_4_)">
				<path fill="#010101" d="M382.811,285.537c-0.262,0-0.477-0.213-0.477-0.474c0-0.262,0.215-0.475,0.475-0.475
					c0.264,0,0.477,0.213,0.477,0.475C383.286,285.324,383.073,285.537,382.811,285.537L382.811,285.537z M382.811,284.714
					c-0.092,0-0.18,0.036-0.248,0.102c-0.064,0.065-0.1,0.151-0.1,0.245c0,0.192,0.154,0.349,0.348,0.349
					c0.191,0,0.348-0.156,0.348-0.346C383.159,284.87,383.002,284.714,382.811,284.714L382.811,284.714L382.811,284.714z"/>
			</g>
			<path clip-path="url(#SVGID_4_)" fill="#F7D849" d="M383.143,285.608c0,0.228,0.182,0.412,0.41,0.412
				c0.227,0,0.412-0.185,0.412-0.412l0,0c0-0.228-0.184-0.412-0.412-0.412c-0.227,0-0.41,0.182-0.41,0.409V285.608z"/>
			<g clip-path="url(#SVGID_4_)">
				<path fill="#010101" d="M383.553,286.083c-0.262,0-0.475-0.213-0.475-0.475s0.213-0.475,0.475-0.475s0.475,0.213,0.475,0.475
					S383.815,286.083,383.553,286.083L383.553,286.083z M383.553,285.259c-0.191,0-0.348,0.156-0.348,0.347
					c0,0.193,0.156,0.35,0.348,0.35c0.193,0,0.35-0.153,0.35-0.347S383.747,285.259,383.553,285.259L383.553,285.259z"/>
			</g>
			<path clip-path="url(#SVGID_4_)" fill="#F7D849" d="M383.668,286.37c0,0.228,0.184,0.412,0.412,0.412
				c0.227,0,0.41-0.185,0.41-0.412l0,0c0-0.228-0.184-0.412-0.41-0.412c-0.229,0-0.412,0.182-0.412,0.409V286.37z"/>
			<g clip-path="url(#SVGID_4_)">
				<path fill="#010101" d="M384.081,286.845c-0.262,0-0.475-0.214-0.475-0.475c0-0.265,0.213-0.478,0.475-0.478
					s0.475,0.213,0.475,0.478C384.555,286.631,384.342,286.845,384.081,286.845L384.081,286.845z M384.081,286.021
					c-0.193,0-0.348,0.156-0.348,0.347c0,0.193,0.154,0.353,0.348,0.353c0.191,0,0.348-0.159,0.348-0.35
					C384.428,286.177,384.272,286.021,384.081,286.021L384.081,286.021z"/>
			</g>
			<path clip-path="url(#SVGID_4_)" fill="#F7D849" d="M383.922,287.265c0,0.228,0.184,0.412,0.412,0.412
				c0.227,0,0.412-0.185,0.412-0.412l0,0c0-0.228-0.186-0.412-0.412-0.412c-0.229,0-0.412,0.183-0.412,0.409V287.265z"/>
			<g clip-path="url(#SVGID_4_)">
				<path fill="#010101" d="M384.334,287.739c-0.262,0-0.475-0.213-0.475-0.475c0-0.261,0.213-0.475,0.475-0.475
					s0.475,0.214,0.475,0.475C384.809,287.526,384.596,287.739,384.334,287.739L384.334,287.739z M384.334,286.915
					c-0.191,0-0.348,0.156-0.348,0.347c0,0.193,0.156,0.35,0.348,0.35c0.193,0,0.348-0.153,0.348-0.347
					S384.528,286.915,384.334,286.915L384.334,286.915z"/>
			</g>
			<path clip-path="url(#SVGID_4_)" fill="#F7D849" d="M383.913,288.194c0,0.227,0.184,0.409,0.41,0.409
				c0.229,0,0.414-0.183,0.414-0.409l0,0c0-0.228-0.184-0.415-0.412-0.415C384.098,287.779,383.913,287.967,383.913,288.194
				L383.913,288.194z"/>
			<g clip-path="url(#SVGID_4_)">
				<path fill="#010101" d="M384.323,288.666c-0.26,0-0.473-0.211-0.473-0.472c0-0.265,0.213-0.478,0.475-0.478
					c0.26,0,0.475,0.213,0.475,0.478C384.799,288.455,384.584,288.666,384.323,288.666L384.323,288.666z M384.325,287.845
					c-0.193,0-0.35,0.156-0.35,0.35c0,0.189,0.156,0.349,0.348,0.349c0.193,0,0.35-0.159,0.35-0.349
					C384.672,288.001,384.516,287.845,384.325,287.845L384.325,287.845z"/>
			</g>
			<path clip-path="url(#SVGID_4_)" fill="#F7D849" d="M383.737,289.104c0,0.227,0.182,0.411,0.41,0.411
				c0.227,0,0.412-0.185,0.412-0.411l0,0c0-0.228-0.184-0.412-0.412-0.412c-0.227,0-0.41,0.182-0.41,0.409V289.104z"/>
			<g clip-path="url(#SVGID_4_)">
				<path fill="#010101" d="M384.147,289.577c-0.262,0-0.475-0.213-0.475-0.474c0-0.265,0.213-0.478,0.475-0.478
					s0.475,0.213,0.475,0.478C384.622,289.364,384.409,289.577,384.147,289.577L384.147,289.577z M384.147,288.754
					c-0.191,0-0.348,0.156-0.348,0.347c0,0.192,0.156,0.352,0.348,0.352c0.193,0,0.35-0.159,0.35-0.349
					C384.497,288.91,384.34,288.754,384.147,288.754L384.147,288.754z"/>
			</g>
			<path clip-path="url(#SVGID_4_)" fill="#F7D849" d="M377.077,285.961l0.039,0.537c1.023-0.156,2.477-0.728,3.828-0.728
				c1.252,0,2.223,0.5,2.223,1.762c0,1.244-0.527,2.372-1.227,3.522l0.727,0.344c0.652-1.262,1.188-2.335,1.188-3.79
				c0-1.216-0.957-2.412-2.604-2.412C379.792,285.196,378.303,285.688,377.077,285.961L377.077,285.961z"/>
			<g clip-path="url(#SVGID_4_)">
				<path fill="#010101" d="M382.667,291.461c-0.01,0-0.018,0-0.027-0.006l-0.727-0.344c0.574-1.079,1.189-2.27,1.189-3.579
					c0-1.478-1.352-1.699-2.158-1.699c-0.861,0-1.771,0.235-2.576,0.446c-0.453,0.116-0.877,0.225-1.244,0.281l-0.109-0.594
					c0.34-0.131,0.646-0.211,0.965-0.29c1.01-0.253,2.152-0.543,3.271-0.543c1.732,0,2.668,1.276,2.668,2.475
					c0,1.506-0.582,2.631-1.195,3.818C382.711,291.45,382.69,291.461,382.667,291.461L382.667,291.461z M380.944,285.708
					c1.453,0,2.285,0.665,2.285,1.824c0,1.341-0.623,2.551-1.234,3.557l0.641,0.233c0.598-1.159,1.156-2.259,1.156-3.714
					c0-1.139-0.891-2.35-2.541-2.35c-1.104,0-2.24,0.287-3.24,0.54c-0.318,0.082-0.627,0.159-0.92,0.225l0.088,0.469
					c0.291-0.111,0.709-0.222,1.158-0.338C379.147,285.946,380.067,285.708,380.944,285.708L380.944,285.708z"/>
			</g>
			<rect x="358" y="301.001" clip-path="url(#SVGID_4_)" fill="#BD1F34" width="85.71" height="24.999"/>
			<path clip-path="url(#SVGID_4_)" fill="#F7D849" d="M376.497,280.43l-0.43,0.804l0.43,0.801l0.428-0.801L376.497,280.43z
				 M376.497,282.458l-0.43,0.804l0.43,0.804l0.428-0.804L376.497,282.458z"/>
			<g clip-path="url(#SVGID_4_)">
				<path fill="#010101" d="M376.497,284.128c-0.023,0-0.043-0.011-0.055-0.031l-0.432-0.807l0.432-0.86
					c0.012-0.021,0.031-0.034,0.055-0.034l0,0c0.023,0,0.045,0.014,0.055,0.034l0.43,0.801l-0.43,0.866
					C376.542,284.117,376.52,284.128,376.497,284.128L376.497,284.128z M376.499,282.589l-0.379,0.701l0.375,0.646l0.375-0.705
					L376.499,282.589L376.499,282.589z M376.497,282.097c-0.023,0-0.043-0.011-0.055-0.034l-0.432-0.801l0.432-0.863
					c0.012-0.021,0.031-0.034,0.055-0.034l0,0c0.023,0,0.045,0.014,0.055,0.034l0.43,0.804l-0.43,0.86
					C376.542,282.086,376.52,282.097,376.497,282.097L376.497,282.097z M376.499,280.557l-0.379,0.705l0.375,0.642l0.375-0.701
					L376.499,280.557L376.499,280.557z"/>
			</g>
			<path clip-path="url(#SVGID_4_)" fill="#F7D849" d="M374.965,282.247l0.676,0.43l0.676-0.43l-0.676-0.432L374.965,282.247z
				 M376.672,282.247l0.678,0.43l0.678-0.43l-0.678-0.432L376.672,282.247z"/>
			<g clip-path="url(#SVGID_4_)">
				<path fill="#010101" d="M377.35,282.739c-0.012,0-0.023-0.003-0.035-0.009l-0.676-0.432c-0.018-0.009-0.029-0.028-0.029-0.052
					c0-0.022,0.012-0.042,0.029-0.054l0.676-0.429l0.748,0.429c0.018,0.012,0.029,0.031,0.029,0.054
					c0,0.023-0.012,0.043-0.029,0.052l-0.678,0.432C377.374,282.736,377.362,282.739,377.35,282.739L377.35,282.739z
					 M376.788,282.245l0.562,0.357l0.561-0.355l-0.596-0.377L376.788,282.245L376.788,282.245z M375.641,282.739
					c-0.012,0-0.023-0.003-0.033-0.009l-0.678-0.432c-0.018-0.009-0.029-0.028-0.029-0.052c0-0.022,0.012-0.042,0.029-0.054
					l0.678-0.429l0.744,0.429c0.018,0.012,0.027,0.031,0.027,0.054c0,0.023-0.01,0.043-0.027,0.052l-0.676,0.432
					C375.665,282.736,375.653,282.739,375.641,282.739L375.641,282.739z M375.079,282.245l0.562,0.357l0.559-0.355l-0.592-0.377
					L375.079,282.245L375.079,282.245z"/>
			</g>
			<path clip-path="url(#SVGID_4_)" fill="#F7D849" d="M376.821,282.256c0,0.182-0.145,0.327-0.324,0.327
				c-0.182,0-0.326-0.146-0.326-0.327c0-0.179,0.145-0.323,0.326-0.323C376.676,281.933,376.821,282.077,376.821,282.256
				L376.821,282.256z"/>
			<g clip-path="url(#SVGID_4_)">
				<path fill="#010101" d="M376.497,282.646c-0.215,0-0.389-0.177-0.389-0.39s0.174-0.386,0.389-0.386
					c0.213,0,0.389,0.173,0.389,0.386S376.709,282.646,376.497,282.646L376.497,282.646z M376.497,281.995
					c-0.145,0-0.262,0.116-0.262,0.261c0,0.29,0.521,0.29,0.521,0C376.756,282.111,376.641,281.995,376.497,281.995L376.497,281.995
					z"/>
			</g>
			<path clip-path="url(#SVGID_4_)" fill="#F7D849" d="M377.368,284.336c0,0.479-0.391,0.869-0.871,0.869s-0.871-0.39-0.871-0.869
				c0-0.483,0.391-0.872,0.871-0.872S377.368,283.853,377.368,284.336L377.368,284.336z"/>
			<g clip-path="url(#SVGID_4_)">
				<path fill="#010101" d="M376.497,285.271c-0.516,0-0.934-0.421-0.934-0.935c0-0.518,0.418-0.935,0.934-0.935
					c0.514,0,0.936,0.417,0.936,0.935C377.432,284.85,377.01,285.271,376.497,285.271L376.497,285.271z M376.497,283.526
					c-0.445,0-0.809,0.363-0.809,0.81c0,0.445,0.363,0.807,0.809,0.807c0.447,0,0.809-0.361,0.809-0.807
					C377.305,283.89,376.944,283.526,376.497,283.526L376.497,283.526z"/>
			</g>
			<g clip-path="url(#SVGID_4_)">
				<path fill="#010101" d="M377.338,284.611c-0.002,0-0.006,0-0.01-0.003c-0.553-0.091-1.113-0.091-1.668,0
					c-0.035,0.012-0.066-0.017-0.072-0.048c-0.006-0.034,0.02-0.068,0.053-0.074c0.562-0.097,1.143-0.097,1.709,0
					c0.035,0.006,0.057,0.04,0.051,0.074C377.397,284.589,377.37,284.611,377.338,284.611L377.338,284.611z M377.338,284.171
					c-0.004,0-0.008,0-0.01,0c-0.203-0.034-0.406-0.057-0.615-0.065l-0.059-0.616c0-0.068,0.127-0.068,0.127,0v0.554
					c0.15-0.054,0.359-0.031,0.566,0.003c0.033,0.006,0.057,0.037,0.053,0.071C377.395,284.148,377.368,284.171,377.338,284.171
					L377.338,284.171z M375.657,284.171c-0.031,0-0.059-0.022-0.062-0.054c-0.006-0.034,0.016-0.065,0.051-0.071
					c0.203-0.034,0.414-0.057,0.627-0.065l-0.059-0.131v-0.36c0-0.068,0.127-0.068,0.127,0l-0.002,0.554
					c-0.27,0.071-0.475,0.094-0.672,0.128C375.663,284.171,375.659,284.171,375.657,284.171L375.657,284.171z"/>
			</g>
			<path clip-path="url(#SVGID_4_)" fill="#F7D849" d="M375.643,285.808c-0.082,1.423-0.25,2.875-0.803,3.929l0.898-0.366
				c0.316-1.193,0.383-2.736,0.479-3.466L375.643,285.808z M377.348,285.808l-0.574,0.097c0.096,0.729,0.162,2.272,0.477,3.466
				l0.902,0.366C377.598,288.683,377.43,287.23,377.348,285.808L377.348,285.808z"/>
			<g clip-path="url(#SVGID_4_)">
				<path fill="#010101" d="M374.84,289.799c-0.018,0-0.033-0.008-0.047-0.022c-0.018-0.02-0.021-0.048-0.008-0.071
					c0.562-1.073,0.719-2.574,0.795-3.9l0.646,0.04c0.027,0.261,0.004,0.517-0.023,0.804c-0.072,0.784-0.17,1.858-0.402,2.738
					l-0.938,0.406C374.856,289.796,374.848,289.799,374.84,289.799L374.84,289.799z M375.633,285.87
					c-0.004,1.225-0.148,2.665-0.662,3.744l0.746-0.301c0.191-0.827,0.289-1.896,0.361-2.677c0.025-0.289,0.051-0.545,0.076-0.741
					L375.633,285.87L375.633,285.87z M378.153,289.799c-0.008,0-0.018-0.003-0.023-0.006l-0.9-0.363
					c-0.27-0.915-0.367-1.98-0.439-2.759c-0.027-0.298-0.051-0.557-0.078-0.759l0.627-0.164c0.148,1.383,0.305,2.884,0.871,3.957
					c0.012,0.023,0.008,0.052-0.012,0.071C378.188,289.791,378.17,289.799,378.153,289.799L378.153,289.799z M377.286,285.811
					l-0.502,0.156c0.08,0.131,0.104,0.392,0.131,0.69c0.072,0.775,0.17,1.838,0.398,2.698l0.713,0.265
					C377.506,288.538,377.36,287.095,377.286,285.811L377.286,285.811z"/>
			</g>
			<path clip-path="url(#SVGID_4_)" fill="#F7D849" d="M376.495,288.89c-1.078,0-1.867,0.509-1.914,1.802
				c-0.264-0.463-1.377-1.918-2.414-1.725c-0.617,0.116-1.164,0.972-1.068,1.951c-0.512-1.469-2.012-1.707-3.104-0.841
				c0.971,0.799,1.4,3.154,2.219,4.177h6.281h6.281c0.816-1.022,1.252-3.378,2.221-4.177c-1.092-0.866-2.59-0.628-3.1,0.841
				c0.092-0.979-0.459-1.835-1.076-1.951c-1.035-0.193-2.146,1.262-2.41,1.725C378.366,289.398,377.571,288.89,376.495,288.89
				L376.495,288.89z"/>
			<g clip-path="url(#SVGID_4_)">
				<path fill="#010101" d="M382.776,294.316h-12.562c-0.416-0.48-0.697-1.185-0.996-1.926c-0.359-0.898-0.732-1.827-1.262-2.262
					c0.42-0.432,0.916-0.617,1.396-0.617c0.725,0,1.33,0.396,1.674,1.077c0.041-0.89,0.584-1.582,1.127-1.682
					c1.014-0.193,2.01,1.037,2.379,1.588c0.109-1.077,0.799-1.668,1.963-1.668s1.855,0.591,1.965,1.668
					c0.369-0.551,1.385-1.778,2.375-1.588c0.543,0.1,1.09,0.792,1.131,1.685c0.344-0.682,0.951-1.08,1.674-1.08
					c0.482,0,0.977,0.186,1.398,0.518c-0.529,0.534-0.904,1.463-1.266,2.363c-0.299,0.742-0.58,1.443-0.947,1.901
					C382.813,294.308,382.793,294.316,382.776,294.316L382.776,294.316z M369.352,289.64c-0.453,0-0.922,0.171-1.316,0.489
					c0.553,0.357,0.932,1.301,1.299,2.216c0.295,0.733,0.572,1.426,0.928,1.869l12.484-0.022c0.344-0.446,0.619-1.125,0.908-1.847
					c0.367-0.915,0.748-1.858,1.303-2.315c-0.396-0.219-0.865-0.39-1.318-0.39c-0.77,0-1.4,0.486-1.684,1.302
					c-0.012,0.028-0.045,0.045-0.072,0.039c-0.031-0.005-0.053-0.036-0.049-0.067c0.092-0.98-0.467-1.778-1.025-1.884
					c-0.938-0.176-2.018,1.119-2.346,1.693c-0.012,0.025-0.039,0.037-0.068,0.031c-0.027-0.009-0.047-0.031-0.049-0.06
					c-0.051-1.438-1.033-1.739-1.852-1.739c-0.816,0-1.799,0.302-1.85,1.739c-0.002,0.028-0.021,0.051-0.049,0.06
					c-0.027,0.006-0.055-0.006-0.07-0.031c-0.205-0.358-1.303-1.896-2.35-1.693c-0.557,0.105-1.111,0.903-1.016,1.884
					c0.002,0.031-0.02,0.062-0.051,0.067c-0.033,0.006-0.062-0.011-0.072-0.039C370.754,290.126,370.124,289.64,369.352,289.64
					L369.352,289.64z"/>
			</g>
			<path clip-path="url(#SVGID_4_)" fill="#010101" d="M382.756,294.254c0,0.463-2.805,0.975-6.26,0.975
				c-3.457,0-6.264-0.512-6.264-0.975c0-0.466,2.807-0.71,6.264-0.71C379.952,293.544,382.756,293.788,382.756,294.254
				L382.756,294.254z"/>
			<g clip-path="url(#SVGID_4_)">
				<path fill="#010101" d="M376.497,295.291c-3.371,0-6.326-0.483-6.326-1.037c0-0.716,4.842-0.772,6.326-0.772
					c1.482,0,6.324,0.057,6.324,0.772C382.821,294.808,379.866,295.291,376.497,295.291L376.497,295.291z M376.497,293.606
					c-4.07,0-6.201,0.326-6.201,0.647c0,0.366,2.605,0.912,6.201,0.912s6.197-0.546,6.197-0.912
					C382.694,293.933,380.565,293.606,376.497,293.606L376.497,293.606z"/>
			</g>
			<path clip-path="url(#SVGID_4_)" fill="#F7D849" d="M376.788,285.537c0,0.162-0.131,0.293-0.291,0.293
				c-0.162,0-0.293-0.131-0.293-0.293l0,0c0-0.159,0.129-0.289,0.293-0.292C376.657,285.245,376.788,285.376,376.788,285.537
				L376.788,285.537z"/>
			<g clip-path="url(#SVGID_4_)">
				<path fill="#010101" d="M376.497,285.893c-0.195,0-0.355-0.159-0.355-0.355c0-0.094,0.035-0.182,0.102-0.247
					c0.203-0.204,0.609-0.045,0.609,0.247C376.852,285.733,376.692,285.893,376.497,285.893L376.497,285.893z M376.497,285.308
					c-0.062,0.003-0.121,0.025-0.164,0.07c-0.041,0.043-0.066,0.1-0.064,0.159c0,0.256,0.457,0.253,0.457,0
					C376.725,285.412,376.622,285.308,376.497,285.308L376.497,285.308z"/>
			</g>
			<path clip-path="url(#SVGID_4_)" fill="#F7D849" d="M376.807,286.171c0,0.171-0.141,0.31-0.311,0.31
				c-0.174,0-0.312-0.139-0.312-0.31l0,0c0-0.173,0.139-0.312,0.312-0.312c0.17,0,0.311,0.14,0.311,0.31V286.171z"/>
			<g clip-path="url(#SVGID_4_)">
				<path fill="#010101" d="M376.497,286.543c-0.205,0-0.377-0.167-0.377-0.372c0-0.207,0.172-0.375,0.377-0.375
					s0.373,0.168,0.373,0.372C376.87,286.376,376.702,286.543,376.497,286.543L376.497,286.543z M376.497,285.921
					c-0.137,0-0.248,0.111-0.248,0.25c0,0.272,0.496,0.272,0.494,0C376.743,286.032,376.631,285.921,376.497,285.921
					L376.497,285.921z"/>
			</g>
			<path clip-path="url(#SVGID_4_)" fill="#F7D849" d="M376.836,286.85c0,0.188-0.154,0.339-0.34,0.339
				c-0.189,0.003-0.34-0.151-0.34-0.339l0,0c0-0.188,0.15-0.341,0.34-0.341C376.682,286.509,376.834,286.662,376.836,286.85
				L376.836,286.85z"/>
			<g clip-path="url(#SVGID_4_)">
				<path fill="#010101" d="M376.497,287.251h-0.002c-0.221,0-0.4-0.18-0.4-0.401c0-0.221,0.18-0.403,0.402-0.403
					c0.221,0,0.4,0.18,0.404,0.403C376.901,287.071,376.719,287.251,376.497,287.251L376.497,287.251z M376.497,286.571
					c-0.152,0.003-0.277,0.125-0.277,0.278c0,0.308,0.555,0.305,0.555,0C376.772,286.696,376.647,286.571,376.497,286.571
					L376.497,286.571z"/>
			</g>
			<path clip-path="url(#SVGID_4_)" fill="#F7D849" d="M376.883,287.605c0,0.216-0.174,0.387-0.387,0.387
				c-0.215,0.003-0.389-0.171-0.389-0.387l0,0c0-0.213,0.174-0.386,0.389-0.389C376.709,287.217,376.883,287.393,376.883,287.605
				L376.883,287.605z"/>
			<g clip-path="url(#SVGID_4_)">
				<path fill="#010101" d="M376.497,288.058h-0.002c-0.248,0-0.449-0.202-0.449-0.452c0-0.247,0.203-0.451,0.451-0.451
					s0.449,0.201,0.449,0.451C376.946,287.853,376.745,288.058,376.497,288.058L376.497,288.058z M376.497,287.279
					c-0.18,0.003-0.324,0.147-0.324,0.326c0,0.18,0.145,0.324,0.322,0.324s0.324-0.145,0.324-0.324
					C376.819,287.427,376.674,287.279,376.497,287.279L376.497,287.279z"/>
			</g>
			<path clip-path="url(#SVGID_4_)" fill="#F7D849" d="M376.922,288.449c0,0.233-0.191,0.427-0.426,0.427
				c-0.236,0-0.428-0.193-0.428-0.427l0,0c0-0.235,0.191-0.429,0.428-0.429C376.729,288.021,376.922,288.214,376.922,288.449
				L376.922,288.449z"/>
			<g clip-path="url(#SVGID_4_)">
				<path fill="#010101" d="M376.497,288.938c-0.27,0-0.49-0.219-0.49-0.489c0-0.27,0.221-0.491,0.49-0.491s0.488,0.219,0.488,0.491
					C376.985,288.72,376.766,288.938,376.497,288.938L376.497,288.938z M376.497,288.086c-0.199,0-0.363,0.162-0.363,0.363
					c0,0.199,0.164,0.361,0.363,0.361s0.361-0.162,0.361-0.361C376.858,288.248,376.696,288.086,376.497,288.086L376.497,288.086z"
					/>
			</g>
			<path clip-path="url(#SVGID_4_)" fill="#010101" d="M376.325,289.268c-0.043,0-0.088,0.04-0.076,0.114
				c0.012,0.085,0.031,0.247,0.047,0.357c0.018,0.125,0.09,0.094,0.109-0.003s0.012-0.159,0.016-0.338
				C376.422,289.308,376.372,289.268,376.325,289.268L376.325,289.268z M376.667,289.268c-0.047,0-0.098,0.04-0.096,0.131
				c0.004,0.179-0.002,0.241,0.016,0.338s0.092,0.128,0.109,0.003c0.016-0.11,0.033-0.272,0.049-0.357
				C376.754,289.308,376.711,289.268,376.667,289.268L376.667,289.268z M376.024,289.316c-0.043,0.006-0.086,0.048-0.082,0.091
				c0.004,0.085,0.027,0.185,0.035,0.31c0.01,0.128,0.102,0.076,0.109,0.006c0.01-0.074,0.02-0.182,0.012-0.327
				c-0.004-0.054-0.029-0.076-0.057-0.079C376.038,289.313,376.03,289.313,376.024,289.316L376.024,289.316z M376.95,289.316
				c-0.027,0.003-0.053,0.025-0.055,0.079c-0.01,0.146,0,0.253,0.01,0.327c0.008,0.07,0.102,0.122,0.109-0.006
				c0.01-0.125,0.033-0.225,0.035-0.31c0.004-0.043-0.039-0.085-0.082-0.091C376.961,289.313,376.956,289.313,376.95,289.316
				L376.95,289.316z M375.663,289.461c-0.039,0.009-0.074,0.057-0.062,0.108c0.023,0.107,0.043,0.224,0.043,0.332
				c0,0.091,0.08,0.06,0.086-0.006c0.002-0.065,0.01-0.201,0.01-0.326C375.739,289.479,375.702,289.449,375.663,289.461
				L375.663,289.461z M377.303,289.461c-0.027,0.009-0.053,0.04-0.053,0.108c0,0.125,0.01,0.261,0.012,0.326
				c0.008,0.065,0.086,0.097,0.086,0.006c0-0.108,0.02-0.225,0.043-0.332c0.01-0.052-0.023-0.1-0.062-0.108
				C377.319,289.458,377.313,289.458,377.303,289.461L377.303,289.461z M372.379,289.476c-0.047-0.003-0.078,0.06-0.047,0.13
				c0.051,0.111,0.104,0.18,0.156,0.299c0.045,0.107,0.115,0.04,0.094-0.034c-0.025-0.074-0.049-0.156-0.117-0.312
				C372.44,289.501,372.407,289.476,372.379,289.476L372.379,289.476z M380.612,289.476c-0.025,0-0.059,0.025-0.084,0.082
				c-0.07,0.156-0.094,0.238-0.119,0.312c-0.021,0.074,0.049,0.142,0.096,0.034c0.051-0.119,0.105-0.188,0.156-0.299
				C380.69,289.535,380.659,289.473,380.612,289.476L380.612,289.476z M372.711,289.48c-0.033,0.012-0.055,0.055-0.033,0.103
				c0.041,0.103,0.102,0.208,0.145,0.315c0.035,0.097,0.117,0.071,0.09-0.017c-0.027-0.089-0.037-0.14-0.09-0.305
				C372.793,289.495,372.745,289.47,372.711,289.48L372.711,289.48z M380.254,289.48c-0.029,0.006-0.062,0.034-0.086,0.097
				c-0.053,0.165-0.062,0.216-0.09,0.305c-0.027,0.088,0.055,0.113,0.09,0.017c0.043-0.107,0.104-0.213,0.145-0.315
				c0.021-0.048,0-0.091-0.033-0.103C380.272,289.479,380.264,289.479,380.254,289.48L380.254,289.48z M373.129,289.561
				c-0.045,0.009-0.076,0.074-0.047,0.153c0.037,0.103,0.088,0.199,0.135,0.312c0.045,0.116,0.121,0.094,0.104,0.02
				c-0.02-0.073-0.041-0.195-0.098-0.38C373.2,289.583,373.161,289.555,373.129,289.561L373.129,289.561z M379.864,289.561
				c-0.035-0.006-0.072,0.022-0.098,0.105c-0.057,0.185-0.078,0.307-0.096,0.38c-0.02,0.074,0.059,0.097,0.105-0.02
				c0.045-0.113,0.098-0.21,0.135-0.312C379.938,289.635,379.907,289.569,379.864,289.561L379.864,289.561z M372.098,289.617
				c-0.047,0.006-0.09,0.08-0.062,0.14c0.047,0.094,0.078,0.122,0.121,0.222c0.047,0.099,0.098,0.022,0.08-0.043
				c-0.02-0.065-0.043-0.14-0.066-0.23C372.153,289.637,372.125,289.614,372.098,289.617L372.098,289.617z M380.893,289.617
				c-0.027-0.003-0.055,0.02-0.072,0.088c-0.023,0.091-0.045,0.165-0.064,0.23s0.033,0.142,0.078,0.043
				c0.043-0.1,0.072-0.128,0.119-0.222C380.983,289.697,380.94,289.623,380.893,289.617L380.893,289.617z M375.309,289.851
				c-0.051,0-0.102,0.065-0.086,0.125c0.029,0.099,0.072,0.185,0.105,0.31c0.025,0.11,0.104,0.054,0.098-0.021
				c-0.002-0.073-0.016-0.173-0.047-0.329C375.368,289.876,375.338,289.851,375.309,289.851L375.309,289.851z M377.684,289.851
				c-0.031,0-0.059,0.025-0.07,0.085c-0.033,0.156-0.047,0.256-0.051,0.329c-0.004,0.074,0.074,0.131,0.104,0.021
				c0.029-0.125,0.072-0.211,0.1-0.31C377.784,289.916,377.733,289.851,377.684,289.851L377.684,289.851z M376.497,289.949
				c-0.061,0-0.068,0.083-0.07,0.148c-0.008,0.213-0.098,0.42-0.174,0.525c-0.074,0.103-0.186,0.076-0.291,0.02
				c-0.102-0.054-0.164-0.097-0.275-0.179s-0.193-0.034-0.062,0.153c0.383,0.549,0.803,1.018,0.803,1.912
				c0,0.116,0.02,0.15,0.07,0.15s0.072-0.034,0.072-0.15c0-0.895,0.416-1.363,0.799-1.912c0.133-0.188,0.049-0.235-0.062-0.153
				s-0.174,0.125-0.275,0.179c-0.105,0.057-0.215,0.083-0.291-0.02c-0.076-0.105-0.166-0.312-0.172-0.525
				C376.565,290.032,376.555,289.949,376.497,289.949L376.497,289.949z M373.557,289.816c0,0-0.014,0-0.016,0.003
				c-0.023,0.005-0.039,0.034-0.029,0.079c0.014,0.085,0.072,0.247,0.098,0.327c0.02,0.079,0.117,0.062,0.094-0.046
				c-0.021-0.105-0.021-0.137-0.049-0.256C373.639,289.855,373.592,289.816,373.557,289.816L373.557,289.816z M379.438,289.816
				c-0.039,0-0.086,0.039-0.102,0.107c-0.027,0.119-0.027,0.15-0.049,0.256c-0.023,0.108,0.072,0.125,0.098,0.046
				c0.021-0.08,0.078-0.242,0.094-0.327c0.01-0.045-0.006-0.074-0.029-0.079c-0.002-0.003-0.01-0.003-0.01-0.003H379.438z
				 M371.809,289.851c-0.049,0.003-0.084,0.065-0.033,0.153c0.051,0.097,0.143,0.219,0.184,0.287
				c0.041,0.067,0.113,0.022,0.062-0.065c-0.053-0.089-0.068-0.188-0.127-0.312C371.872,289.867,371.838,289.848,371.809,289.851
				L371.809,289.851z M381.184,289.851c-0.031-0.003-0.064,0.017-0.088,0.062c-0.059,0.125-0.074,0.224-0.127,0.312
				c-0.051,0.088,0.021,0.133,0.062,0.065c0.041-0.068,0.131-0.19,0.186-0.287C381.266,289.916,381.231,289.854,381.184,289.851
				L381.184,289.851z M369.167,290.129c-0.053-0.003-0.072,0.097-0.02,0.162c0.076,0.096,0.129,0.147,0.215,0.227
				c0.07,0.062,0.09-0.02,0.057-0.082c-0.035-0.06-0.084-0.122-0.154-0.228C369.225,290.151,369.192,290.129,369.167,290.129
				L369.167,290.129z M383.825,290.129c-0.025,0-0.059,0.022-0.098,0.079c-0.068,0.105-0.117,0.168-0.152,0.228
				c-0.037,0.062-0.016,0.145,0.055,0.082c0.086-0.079,0.139-0.131,0.215-0.227C383.897,290.226,383.881,290.126,383.825,290.129
				L383.825,290.129z M369.586,290.211c-0.043,0-0.072,0.034-0.039,0.108c0.051,0.11,0.115,0.232,0.156,0.315
				c0.043,0.085,0.168,0.11,0.117-0.018c-0.051-0.131-0.061-0.196-0.107-0.315C369.692,290.242,369.631,290.211,369.586,290.211
				L369.586,290.211z M383.405,290.211c-0.045,0-0.104,0.031-0.127,0.091c-0.047,0.119-0.057,0.185-0.107,0.315
				c-0.051,0.128,0.076,0.103,0.117,0.018c0.043-0.083,0.105-0.205,0.156-0.315C383.477,290.245,383.45,290.211,383.405,290.211
				L383.405,290.211z M368.774,290.239c-0.064,0-0.07,0.065-0.012,0.108c0.074,0.054,0.164,0.116,0.254,0.185
				c0.104,0.085,0.145,0.009,0.088-0.062c-0.053-0.068-0.107-0.137-0.246-0.208C368.823,290.245,368.795,290.239,368.774,290.239
				L368.774,290.239z M384.215,290.239c-0.02,0-0.047,0.006-0.082,0.022c-0.137,0.071-0.193,0.14-0.246,0.208
				c-0.057,0.071-0.016,0.147,0.088,0.062c0.09-0.068,0.178-0.131,0.256-0.185C384.288,290.305,384.282,290.239,384.215,290.239
				L384.215,290.239z M375.079,290.299c-0.035,0.006-0.068,0.046-0.051,0.1c0.027,0.097,0.059,0.199,0.078,0.301
				c0.02,0.097,0.129,0.097,0.111,0.009c-0.02-0.088-0.027-0.196-0.059-0.329c-0.014-0.052-0.039-0.077-0.064-0.08
				C375.088,290.299,375.083,290.299,375.079,290.299L375.079,290.299z M377.897,290.299c-0.027,0.003-0.051,0.028-0.062,0.08
				c-0.031,0.133-0.043,0.241-0.061,0.329s0.094,0.088,0.113-0.009c0.018-0.102,0.051-0.204,0.076-0.301
				c0.016-0.054-0.016-0.094-0.051-0.1C377.907,290.299,377.901,290.299,377.897,290.299L377.897,290.299z M372.573,290.135
				c-0.029,0.008-0.047,0.062-0.025,0.136c0.117,0.424,0.154,0.646,0.135,0.75c-0.021,0.103-0.08,0.116-0.154,0.083
				c-0.076-0.034-0.168-0.086-0.236-0.134c-0.068-0.049-0.141,0.009-0.043,0.091c0.506,0.415,0.857,0.89,0.99,1.463
				c0.029,0.119,0.104,0.131,0.082,0c-0.115-0.725-0.135-1.318,0.037-1.69c0.064-0.142,0-0.275-0.104-0.048
				c-0.07,0.15-0.182,0.213-0.271,0.079c-0.092-0.131-0.275-0.479-0.33-0.639c-0.023-0.06-0.047-0.089-0.068-0.091
				C372.581,290.132,372.577,290.132,372.573,290.135L372.573,290.135z M380.407,290.135c-0.02,0.002-0.047,0.031-0.066,0.091
				c-0.057,0.159-0.24,0.508-0.332,0.639c-0.088,0.134-0.201,0.071-0.27-0.079c-0.105-0.228-0.17-0.094-0.105,0.048
				c0.174,0.372,0.152,0.966,0.037,1.69c-0.02,0.131,0.053,0.119,0.08,0c0.137-0.573,0.484-1.048,0.99-1.463
				c0.1-0.082,0.025-0.14-0.041-0.091c-0.068,0.048-0.16,0.1-0.234,0.134c-0.076,0.033-0.133,0.02-0.154-0.083
				c-0.021-0.104,0.016-0.326,0.133-0.75c0.021-0.073,0.006-0.128-0.023-0.136C380.418,290.132,380.411,290.132,380.407,290.135
				L380.407,290.135z M370.036,290.336c-0.047,0-0.084,0.031-0.062,0.1c0.033,0.11,0.102,0.232,0.125,0.301
				c0.021,0.068,0.098,0.037,0.082-0.06c-0.014-0.097-0.02-0.153-0.039-0.261C370.133,290.364,370.081,290.336,370.036,290.336
				L370.036,290.336z M382.956,290.336c-0.045,0-0.098,0.028-0.105,0.08c-0.018,0.107-0.025,0.164-0.041,0.261
				c-0.012,0.097,0.062,0.128,0.086,0.06c0.021-0.068,0.09-0.19,0.123-0.301C383.04,290.367,383.002,290.336,382.956,290.336
				L382.956,290.336z M371.6,290.191c-0.053-0.012-0.061,0.128-0.018,0.182c0.062,0.074,0.145,0.162,0.229,0.264
				c0.068,0.083,0.109,0.009,0.07-0.06c-0.043-0.07-0.102-0.145-0.213-0.317C371.639,290.217,371.62,290.194,371.6,290.191
				L371.6,290.191z M381.391,290.191c-0.018,0.003-0.041,0.025-0.066,0.068c-0.109,0.173-0.172,0.247-0.215,0.317
				c-0.041,0.068,0,0.143,0.072,0.06c0.082-0.102,0.164-0.189,0.225-0.264C381.452,290.319,381.444,290.18,381.391,290.191
				L381.391,290.191z M370.393,290.521c-0.035-0.003-0.062,0.025-0.049,0.091c0.02,0.094,0.049,0.171,0.07,0.259
				c0.023,0.088,0.084,0.071,0.084-0.012c0-0.082-0.016-0.173-0.029-0.264C370.463,290.552,370.424,290.523,370.393,290.521
				L370.393,290.521z M382.6,290.521c-0.033,0.003-0.072,0.031-0.078,0.074c-0.014,0.091-0.027,0.182-0.027,0.264
				c0,0.083,0.059,0.1,0.082,0.012c0.021-0.088,0.049-0.165,0.07-0.259C382.661,290.546,382.631,290.518,382.6,290.521
				L382.6,290.521z M371.483,290.64c-0.051,0.006-0.096,0.058-0.035,0.134c0.096,0.125,0.201,0.213,0.238,0.259
				c0.037,0.045,0.129,0.028,0.07-0.068c-0.062-0.1-0.154-0.216-0.195-0.29C371.545,290.646,371.514,290.635,371.483,290.64
				L371.483,290.64z M381.487,290.64c-0.021,0.003-0.045,0.012-0.055,0.034c-0.043,0.074-0.135,0.19-0.197,0.29
				c-0.059,0.097,0.033,0.113,0.072,0.068c0.035-0.046,0.143-0.134,0.238-0.259c0.061-0.076,0.014-0.128-0.039-0.134
				C381.5,290.637,381.497,290.637,381.487,290.64L381.487,290.64z M369.76,290.986c-0.039-0.003-0.053,0.028,0,0.105
				c0.125,0.171,0.262,0.429,0.271,0.537c0.01,0.11-0.045,0.11-0.096,0.11c-0.15,0-0.225-0.11-0.365-0.145
				c-0.139-0.031-0.158,0.043-0.061,0.113c0.508,0.37,1.018,0.778,1.221,1.153c0.082,0.154,0.195,0.208,0.133,0.062
				c-0.191-0.445-0.238-0.82-0.195-1.048c0.039-0.23,0.096-0.384,0.092-0.515c-0.008-0.13-0.082-0.122-0.115,0
				c-0.02,0.083-0.059,0.193-0.088,0.233c-0.025,0.043-0.139,0.065-0.244-0.077c-0.105-0.142-0.373-0.417-0.461-0.485
				C369.819,291.007,369.786,290.989,369.76,290.986L369.76,290.986z M383.231,290.986c-0.025,0.003-0.059,0.021-0.092,0.046
				c-0.088,0.068-0.355,0.344-0.461,0.485c-0.105,0.143-0.217,0.12-0.244,0.077c-0.029-0.04-0.068-0.15-0.09-0.233
				c-0.029-0.122-0.104-0.13-0.113,0c-0.006,0.131,0.051,0.284,0.094,0.515c0.041,0.228-0.006,0.603-0.195,1.048
				c-0.062,0.146,0.049,0.092,0.131-0.062c0.205-0.375,0.713-0.783,1.221-1.153c0.098-0.07,0.078-0.145-0.062-0.113
				c-0.135,0.034-0.209,0.145-0.363,0.145c-0.051,0-0.105,0-0.096-0.11c0.01-0.108,0.146-0.366,0.271-0.537
				C383.284,291.015,383.272,290.983,383.231,290.986L383.231,290.986z"/>
			<path clip-path="url(#SVGID_4_)" fill="#AE519F" d="M370.51,293.72l0.162,0.517L370.51,293.72z M370.842,293.623l0.145,0.52
				L370.842,293.623z M371.204,293.566l0.102,0.528L371.204,293.566z M371.54,293.498l0.105,0.528L371.54,293.498z M371.967,293.455
				l0.088,0.531L371.967,293.455z M372.426,293.455l0.092,0.531L372.426,293.455z M372.872,293.305l0.066,0.537L372.872,293.305z
				 M373.292,293.333l0.066,0.534L373.292,293.333z M373.698,293.279l0.068,0.534L373.698,293.279z M374.106,293.236l0.035,0.537
				L374.106,293.236z M374.542,293.236l0.031,0.537L374.542,293.236z M374.938,293.208l0.025,0.54L374.938,293.208z
				 M375.372,293.183l0.021,0.537L375.372,293.183z M375.874,293.169l0.021,0.539L375.874,293.169z M382.481,293.72l-0.16,0.517
				L382.481,293.72z M382.147,293.623l-0.143,0.52L382.147,293.623z M381.788,293.566l-0.1,0.528L381.788,293.566z M381.452,293.498
				l-0.105,0.528L381.452,293.498z M381.022,293.455l-0.086,0.531L381.022,293.455z M380.565,293.455l-0.092,0.531L380.565,293.455z
				 M380.12,293.305l-0.066,0.537L380.12,293.305z M379.7,293.333l-0.068,0.534L379.7,293.333z M379.293,293.279l-0.066,0.534
				L379.293,293.279z M378.885,293.236l-0.035,0.537L378.885,293.236z M378.45,293.236l-0.031,0.537L378.45,293.236z
				 M378.053,293.208l-0.025,0.54L378.053,293.208z M377.62,293.183l-0.021,0.537L377.62,293.183z M377.118,293.169l-0.021,0.539
				L377.118,293.169z M376.497,293.132v0.594V293.132z"/>
			<g clip-path="url(#SVGID_4_)">
				<path fill="#010101" d="M382.321,294.299c-0.006,0-0.012-0.002-0.02-0.002c-0.033-0.012-0.051-0.046-0.041-0.08l0.162-0.514
					c0.01-0.034,0.039-0.052,0.078-0.043c0.033,0.012,0.053,0.045,0.043,0.079l-0.162,0.518
					C382.372,294.282,382.348,294.299,382.321,294.299L382.321,294.299z M370.672,294.299c-0.027,0-0.051-0.017-0.061-0.042
					l-0.164-0.518c-0.01-0.031,0.01-0.067,0.041-0.076c0.035-0.015,0.07,0.006,0.08,0.04l0.164,0.514
					c0.01,0.034-0.008,0.068-0.041,0.08C370.686,294.297,370.678,294.299,370.672,294.299L370.672,294.299z M382.004,294.208
					c-0.004,0-0.01-0.003-0.018-0.003c-0.033-0.011-0.053-0.045-0.043-0.079l0.143-0.52c0.008-0.031,0.037-0.055,0.078-0.043
					c0.033,0.009,0.055,0.043,0.043,0.079l-0.143,0.518C382.059,294.188,382.032,294.208,382.004,294.208L382.004,294.208z
					 M370.987,294.208c-0.029,0-0.055-0.02-0.061-0.048l-0.143-0.518c-0.01-0.036,0.01-0.07,0.043-0.079
					c0.037-0.012,0.068,0.012,0.078,0.043l0.141,0.52c0.012,0.034-0.01,0.068-0.041,0.079
					C370.999,294.205,370.991,294.208,370.987,294.208L370.987,294.208z M371.305,294.16c-0.031,0-0.057-0.022-0.062-0.054
					l-0.102-0.528c-0.006-0.034,0.016-0.068,0.051-0.074c0.033-0.009,0.068,0.014,0.074,0.048l0.102,0.531
					c0.006,0.034-0.018,0.068-0.051,0.074C371.311,294.16,371.307,294.16,371.305,294.16L371.305,294.16z M381.688,294.16
					c-0.004,0-0.008,0-0.01-0.003c-0.035-0.006-0.057-0.04-0.053-0.074l0.1-0.531c0.006-0.034,0.047-0.057,0.072-0.048
					c0.035,0.006,0.059,0.04,0.053,0.074l-0.1,0.528C381.747,294.138,381.719,294.16,381.688,294.16L381.688,294.16z
					 M381.346,294.089c-0.004,0-0.008,0-0.012,0c-0.035-0.006-0.057-0.04-0.049-0.073l0.105-0.529
					c0.006-0.033,0.039-0.054,0.072-0.051c0.033,0.006,0.057,0.04,0.049,0.074l-0.105,0.528
					C381.403,294.069,381.375,294.089,381.346,294.089L381.346,294.089z M371.645,294.089c-0.031,0-0.057-0.02-0.062-0.051
					l-0.104-0.528c-0.008-0.034,0.016-0.068,0.049-0.074c0.033-0.003,0.066,0.018,0.074,0.051l0.104,0.529
					c0.008,0.033-0.014,0.067-0.049,0.073C371.653,294.089,371.649,294.089,371.645,294.089L371.645,294.089z M380.473,294.049
					c-0.004,0-0.008,0-0.012,0c-0.033-0.005-0.057-0.036-0.051-0.07l0.094-0.534c0.006-0.034,0.025-0.062,0.072-0.052
					c0.033,0.009,0.059,0.04,0.051,0.074l-0.092,0.531C380.53,294.029,380.504,294.049,380.473,294.049L380.473,294.049z
					 M372.518,294.049c-0.029,0-0.057-0.02-0.062-0.051l-0.092-0.531c-0.008-0.034,0.016-0.065,0.051-0.074
					c0.041-0.011,0.066,0.018,0.074,0.052l0.092,0.534c0.006,0.034-0.018,0.065-0.051,0.07
					C372.526,294.049,372.52,294.049,372.518,294.049L372.518,294.049z M380.936,294.049c-0.002,0-0.008,0-0.01,0
					c-0.035-0.005-0.057-0.036-0.053-0.07l0.086-0.534c0.006-0.034,0.035-0.057,0.072-0.052c0.035,0.006,0.059,0.037,0.053,0.074
					l-0.086,0.531C380.993,294.029,380.965,294.049,380.936,294.049L380.936,294.049z M372.055,294.049
					c-0.029,0-0.057-0.02-0.062-0.051l-0.088-0.531c-0.004-0.037,0.02-0.068,0.053-0.074c0.033-0.005,0.068,0.018,0.072,0.052
					l0.088,0.534c0.006,0.034-0.02,0.065-0.053,0.07C372.061,294.049,372.057,294.049,372.055,294.049L372.055,294.049z
					 M379.631,293.933c-0.002,0-0.006,0-0.008-0.003c-0.035-0.006-0.059-0.034-0.055-0.07l0.068-0.534
					c0.006-0.034,0.041-0.06,0.072-0.055c0.033,0.006,0.057,0.034,0.053,0.071l-0.068,0.534
					C379.69,293.907,379.663,293.933,379.631,293.933L379.631,293.933z M373.358,293.933c-0.031,0-0.057-0.025-0.062-0.057
					l-0.066-0.537c-0.002-0.034,0.021-0.065,0.057-0.068c0.047-0.008,0.064,0.021,0.068,0.055l0.066,0.536
					c0.006,0.034-0.02,0.065-0.053,0.068C373.364,293.933,373.362,293.933,373.358,293.933L373.358,293.933z M380.053,293.904
					c-0.002,0-0.006,0-0.01,0c-0.033-0.006-0.059-0.037-0.053-0.071l0.066-0.536c0.004-0.034,0.016-0.061,0.07-0.055
					c0.035,0.003,0.059,0.034,0.055,0.068l-0.066,0.537C380.11,293.882,380.084,293.904,380.053,293.904L380.053,293.904z
					 M372.938,293.904c-0.031,0-0.059-0.022-0.062-0.057l-0.066-0.537c-0.004-0.034,0.02-0.065,0.055-0.068
					c0.053-0.006,0.066,0.021,0.07,0.055l0.066,0.536c0.004,0.034-0.02,0.065-0.053,0.071
					C372.944,293.904,372.94,293.904,372.938,293.904L372.938,293.904z M379.227,293.876c-0.002,0-0.004,0-0.008,0
					c-0.033-0.003-0.059-0.034-0.055-0.068l0.066-0.537c0.004-0.034,0.02-0.067,0.072-0.054c0.033,0.003,0.057,0.034,0.053,0.068
					l-0.066,0.537C379.286,293.854,379.258,293.876,379.227,293.876L379.227,293.876z M373.766,293.876
					c-0.031,0-0.059-0.022-0.062-0.054l-0.068-0.537c-0.006-0.034,0.02-0.065,0.053-0.068c0.037-0.003,0.066,0.018,0.072,0.054
					l0.068,0.534c0.004,0.037-0.021,0.065-0.055,0.071C373.77,293.876,373.768,293.876,373.766,293.876L373.766,293.876z
					 M378.418,293.836c-0.002,0-0.002,0-0.004,0c-0.033,0-0.061-0.031-0.059-0.065l0.031-0.536c0.002-0.034,0.014-0.055,0.066-0.062
					c0.035,0.002,0.062,0.033,0.059,0.067l-0.031,0.54C378.479,293.811,378.452,293.836,378.418,293.836L378.418,293.836z
					 M378.85,293.836c-0.002,0-0.004,0-0.006,0c-0.035,0-0.061-0.031-0.057-0.065l0.035-0.539c0.004-0.034,0.059-0.052,0.066-0.06
					c0.035,0.005,0.061,0.033,0.059,0.067l-0.035,0.54C378.909,293.813,378.881,293.836,378.85,293.836L378.85,293.836z
					 M374.141,293.836c-0.031,0-0.059-0.022-0.062-0.057l-0.035-0.54c-0.002-0.034,0.023-0.062,0.059-0.067
					c0.057,0.008,0.064,0.025,0.066,0.06l0.035,0.539c0.004,0.034-0.021,0.065-0.059,0.065
					C374.145,293.836,374.143,293.836,374.141,293.836L374.141,293.836z M374.573,293.836c-0.033,0-0.062-0.025-0.062-0.057
					l-0.031-0.54c0-0.034,0.025-0.065,0.059-0.067c0.066,0.008,0.066,0.028,0.068,0.062l0.029,0.536
					c0.002,0.034-0.025,0.065-0.059,0.065C374.575,293.836,374.573,293.836,374.573,293.836L374.573,293.836z M378.028,293.811
					c-0.002,0-0.002,0-0.002,0c-0.035-0.003-0.062-0.031-0.062-0.065l0.027-0.54c0.002-0.033,0.035-0.042,0.066-0.06
					c0.035,0.003,0.062,0.031,0.061,0.065l-0.025,0.54C378.088,293.785,378.061,293.811,378.028,293.811L378.028,293.811z
					 M374.963,293.811c-0.033,0-0.062-0.025-0.062-0.06l-0.027-0.54c-0.002-0.034,0.025-0.062,0.061-0.065
					c0.045,0.018,0.064,0.026,0.066,0.06l0.025,0.54c0.002,0.034-0.025,0.062-0.061,0.065H374.963L374.963,293.811z
					 M376.497,293.788c-0.035,0-0.064-0.028-0.064-0.062v-0.594c0-0.068,0.127-0.068,0.127,0v0.594
					C376.559,293.76,376.532,293.788,376.497,293.788L376.497,293.788z M377.598,293.785c-0.002,0-0.004,0-0.004,0
					c-0.033-0.003-0.062-0.031-0.061-0.068l0.023-0.537c0.002-0.034,0.023-0.051,0.064-0.062c0.035,0.003,0.062,0.031,0.061,0.068
					l-0.021,0.54C377.659,293.757,377.631,293.785,377.598,293.785L377.598,293.785z M375.393,293.785
					c-0.033,0-0.061-0.028-0.062-0.06l-0.023-0.54c0-0.037,0.027-0.065,0.062-0.068c0.055,0.012,0.062,0.028,0.064,0.062
					l0.023,0.537c0,0.037-0.025,0.065-0.062,0.068C375.395,293.785,375.395,293.785,375.393,293.785L375.393,293.785z
					 M377.096,293.771c-0.002,0-0.002,0-0.002,0c-0.035-0.003-0.062-0.031-0.062-0.067l0.023-0.537
					c0.002-0.034,0.045-0.055,0.066-0.062c0.035,0.003,0.061,0.031,0.061,0.068l-0.021,0.539
					C377.157,293.742,377.129,293.771,377.096,293.771L377.096,293.771z M375.895,293.771c-0.033,0-0.062-0.028-0.064-0.06
					l-0.021-0.539c-0.002-0.037,0.025-0.065,0.061-0.068c0.035,0.008,0.064,0.028,0.066,0.062l0.021,0.537
					c0,0.036-0.025,0.064-0.061,0.067H375.895L375.895,293.771z"/>
			</g>
		</g>
	</g>
</g>
</svg>
