<?xml version="1.0" encoding="utf-8"?>
<!-- Generator: Adobe Illustrator 16.0.0, SVG Export Plug-In . SVG Version: 6.00 Build 0)  -->
<!DOCTYPE svg PUBLIC "-//W3C//DTD SVG 1.1//EN" "http://www.w3.org/Graphics/SVG/1.1/DTD/svg11.dtd">
<svg version="1.1" id="name" xmlns="http://www.w3.org/2000/svg" xmlns:xlink="http://www.w3.org/1999/xlink" x="0px" y="0px"
	 width="85.712px" height="50px" viewBox="358 276 85.712 50" enable-background="new 358 276 85.712 50" xml:space="preserve">
<g id="lk">
	<g>
		<defs>
			<rect id="SVGID_1_" x="358" y="276" width="85.712" height="50"/>
		</defs>
		<clipPath id="SVGID_2_">
			<use xlink:href="#SVGID_1_"  overflow="visible"/>
		</clipPath>
		<rect x="358" y="276" clip-path="url(#SVGID_2_)" fill="#F6CD2A" width="85.712" height="50"/>
		<rect x="376.122" y="281.242" clip-path="url(#SVGID_2_)" fill="#ED7024" width="14.551" height="39.516"/>
		<rect x="361.793" y="281.242" clip-path="url(#SVGID_2_)" fill="#327539" width="14.34" height="39.521"/>
		<rect x="394.471" y="281.242" clip-path="url(#SVGID_2_)" fill="#8E1942" width="45.447" height="39.521"/>
		<g clip-path="url(#SVGID_2_)">
			<defs>
				<rect id="SVGID_3_" x="358" y="276" width="85.712" height="50"/>
			</defs>
			<clipPath id="SVGID_4_">
				<use xlink:href="#SVGID_3_"  overflow="visible"/>
			</clipPath>
			<path clip-path="url(#SVGID_4_)" fill="#F6CD2A" d="M411.799,299.595l0.75,0.018c0,0-0.846,0.713-0.654,1.673
				c0.885-1.307,1.211-1.057,1.211-1.057c-0.27,0.29-0.787,0.69-0.385,1.574c0.348-0.9,1.059-1.594,1.059-1.594
				s-0.193,1,0.229,1.923c0.309-0.923,0.826-1.71,0.826-1.71s-0.076,0.997,0.365,1.363c0.346-0.31,0.578-1.097,0.578-1.097
				s0.652,1.154,1.055,1.327c0.326-0.787,0.326-1.4,0.326-1.4s1.346,0.957,2.422,0.4c-0.961-0.347-1.287-1.153-1.287-1.153
				s1.748,0.77,2.496,0.423c-0.729-0.557-2.439-1.383-2.439-1.383s1.27,0.463,1.633,0.346c-0.172-0.25-0.729-0.557-0.729-0.557
				L411.799,299.595z"/>
			<g clip-path="url(#SVGID_4_)">
				<path fill="#8E1942" d="M414.051,302.146c-0.447-0.81-0.355-1.69-0.324-1.9c-0.092,0.176-0.666,0.801-0.963,1.573
					c-0.463-0.829-0.045-1.259,0.232-1.54l0.059-0.062c-0.074,0.026-0.406,0.037-1.121,1.095c-0.277-0.995,0.578-1.725,0.586-1.733
					l-0.721,0.062c-0.025,0-0.045-0.02-0.045-0.046c0.002-0.025,0.023-0.051,0.047-0.045l0.75,0.02
					c0.02,0.085-0.795,0.784-0.611,1.708c0.49-0.861,0.842-1.077,1.035-1.108c0.1-0.015,0.15,0.017,0.158,0.022l-0.072,0.15
					c-0.275,0.281-0.652,0.668-0.297,1.441c0.262-0.896,0.977-1.6,0.984-1.608c0.074,0.054-0.109,1.037,0.303,1.938
					c0.221-0.915,0.74-1.708,0.746-1.716c0.082,0.037,0.014,1.009,0.432,1.353c0.273-0.293,0.502-1.063,0.504-1.071
					c0.09,0.003,0.734,1.131,1.119,1.295c0.258-0.744,0.262-1.352,0.262-1.357c0.037-0.018,0.873,0.528,1.717,0.528
					c0.246,0,0.494-0.046,0.729-0.168c-0.963-0.267-1.295-1.062-1.307-1.097c0.057-0.031,1.223,0.452,2.037,0.452
					c0.184,0,0.35-0.025,0.48-0.085c-0.725-0.472-2.422-1.293-2.439-1.302c0.039-0.068,1.035,0.278,1.498,0.278
					c0.057,0,0.104-0.006,0.143-0.017c-0.189-0.168-0.734-0.472-0.74-0.475c0.07-0.06,0.613,0.235,0.791,0.491
					c-0.266,0.125-0.898-0.028-1.309-0.153c0.555,0.244,1.584,0.781,2.104,1.179c-0.717,0.401-2.252-0.221-2.508-0.329
					c0.115,0.113,0.467,0.759,1.287,1.054c-1.027,0.617-2.273-0.193-2.445-0.31c0.051,0.091,0.02,0.656-0.275,1.37
					c-0.443-0.146-1.031-1.134-1.125-1.299c0.02,0.131-0.197,0.798-0.52,1.085c-0.441-0.323-0.453-1.097-0.445-1.332
					C414.713,300.7,414.307,301.379,414.051,302.146L414.051,302.146z"/>
			</g>
			<path clip-path="url(#SVGID_4_)" fill="#F6CD2A" d="M422.291,290.223c2.316-0.211,5.895,1.682,7.793,2.946
				c0-0.424,0-0.844,0.42-1.055c0.42-0.21,1.055,0.211,0.842,0.841c-0.631,1.472-3.16-0.21-4-0.63l0.422,0.844
				c-1.266-0.214-1.477-0.424-2.316-1.475c-0.211,0.841-0.211,1.051-1.266,1.051c0.396-0.625,0.529-0.832,0-1.472l-0.211,1.262
				l-1.051-1.472v1.472c-0.211-0.21-1.055-0.841-1.477-0.841c-0.629-0.211-1.051,1.051-1.262,1.682
				c0.633-0.631,0.84-1.051,1.895-0.631c-0.57,0.54-0.404,1.188,0.211,1.682c0,0,0.109-0.875,0.178-1.073
				c0.334,0.25,1.045,1.193,1.928,1.284c0.633,0,1.264-0.211,1.895-0.421c2.107-0.207,6.74,0.21,5.688,3.367
				c-0.211,0.63-0.42,1.051-0.844,1.472c2.949,1.054,0.424,4.838-0.211,6.73c-0.42,1.682-0.129,3.022,1.947,2.807
				c-0.418,0.841-1.104,0.98-1.947,0.98c0,0,0.105,0.505,0.648,0.744c-0.9,0.807,0.312,2.015-0.227,2.622
				c-0.906,0.435-2.105-0.213-2.105-0.213l-0.059,0.597c0,0-1.59-0.108-1.625-0.177c0,0,0.453-0.849,0.42-0.863
				c-0.422,0.628-0.824,1-1.686,0.863c0,0,0.068-0.395,0.537-0.897c-0.639,0.637-0.707,0.915-1.377,0.897
				c0-1.051,0.631-2.312,1.895-1.892c0.211,0,0.875,0.522,1.188,0.185c0.252-0.363,0.102-1.591,0.102-2.012
				c0.133-1.857-0.236-1.747-1.289-2.801c-0.844-0.631-1.459-1.597-2.512-1.808c-1.053-0.21-2.754,0.967-3.598,1.387
				c-2.104,1.262-4,2.103-6.316,2.523c0,0,0.047-0.105,0.047-0.318c0-0.14,2.273-1.909,2.67-5.015
				c-0.621,3.062-2.832,4.685-2.916,5.256c-0.082,0.568-0.535,1.54-0.59,1.605c0.273-0.165,1.15-0.597,2.262-0.685
				c-0.238,1.315-1.473,1.051-1.682,1.682c0,0.631,0.842,1.472,0,1.892h-3.369c0,0,0.518-0.719,0.543-0.914
				c-0.455,0.272-0.742,0.997-1.734,0.92c0.037-0.27,0.512-0.695,0.432-0.86c-0.568,0.525-0.836,0.972-1.559,0.854
				c0.209-0.63,0.209-1.471,1.053-1.471c0.633-0.211,1.266,0.21,1.684-0.421c0.844-1.054-0.152-3.353-0.361-4.617
				c0-1.051,0.002-1.25-0.268-2.534l0.211,3.784c-0.844-0.63-1.686-1.048-2.318-1.892c-1.475-1.893-1.053-3.994,0.842-5.259
				c0.844-0.628,1.299-0.958,2.354-1.378c-0.211-0.631,0.299-1.1-0.447-1.293c-0.223,0.39-0.443,0.815-0.867,0.778l0.227-1.051
				c0,0-0.76,0.045-0.609,1.403c-0.873-0.418-0.445-1.403-0.445-1.403h-0.42c0,0-0.004,1.253-0.691,1.503
				c0.186-0.588,0.268-1.503,0.268-1.503s-1.127,1.344-1.781,0.909c0.385-0.438,0.684-0.509,0.631-1.037
				c-0.049-0.522-0.322-1.199-0.371-1.31c0.238,0.116,1.826,0.591,2.822,0.097c-0.064,0.332-0.035,0.71-0.035,0.71
				c1.051-0.21,1.262-0.21,2.316,0.207c-0.211-1.469-1.055-1.682-1.895-2.732v0.841c-0.844-0.208-1.055-0.421-1.477-1.262
				l-0.629,0.421c-1.111-0.656-1.932-2.211-0.354-2.12c0.939,0.12,0.143,0.858,0.143,0.858s2.412-0.759,3.367-0.841
				c0,0-0.277-0.588-1.168-0.69c0.738-0.554,1.48-0.733,2.012,0.435c0.529,0.031,1.023-0.608,0.707-1.432
				c0.783-0.015,1.17,0.479,1.525,1.003c0.291,0.051,0.584-0.253,0.514-1.299c0.738,0.628,1.1,0.824,1.15,1.353
				c0.627,0.142,1.053,0,1.998-0.421c-0.207,0.842-0.207,1.052-1.051,1.472c0.594,0.736,0.656,1.623,0.533,1.943
				c-0.207-0.06-0.258-0.073-0.406-0.113c0.047,0.327,0.113,1.219,0.084,1.744h-0.422l0.633,1.896l-0.422,0.631
				c1.475-0.631,2.949-0.421,4.422-0.842c1.684-0.21,3.371-0.844,5.266-0.844c1.262,0,1.262,0.634,2.949,0.634v-1.051
				c0-0.841-0.633-1.683-1.688-1.896c-0.631,0-1.684,0.421-2.316,0.631c-0.84,0.213-2.105,0.213-2.949,0.213
				c-2.734-0.423-2.299-0.688-3.254-1.201c-0.568,0.153-0.891,0.636-1.176,1.494c-0.527-0.775-0.41-1.768,0.221-2.185
				C418.502,291.694,420.186,290.643,422.291,290.223L422.291,290.223z"/>
			<path clip-path="url(#SVGID_4_)" fill="#F6CD2A" d="M422.924,309.152c-0.422-0.631-1.898-1.685-1.477-2.736
				c0.633-1.051,4.215-2.732,4.844-0.42c0.211,0.631-0.438,2.304-0.65,2.938c0.32-0.082,0.676-0.574,1.713-0.395
				c-0.193,0.826-1.457,1.463-1.457,1.463c0.129,0.56-0.867,3.145-0.867,3.145h-2.738l0.422-0.841l-0.633,0.841h-1.055l0.844-1.051
				c0,0-0.998,1.168-1.848,1.119c0.213-1.682,1.215-1.96,2.691-1.329C422.924,311.045,423.342,309.993,422.924,309.152
				L422.924,309.152z"/>
			<g clip-path="url(#SVGID_4_)">
				<path fill="#8E1942" d="M420.072,313.264c0,0-0.051-0.003-0.053-0.003c0.139-1.665,1.086-2.111,2.711-1.415
					c-0.027-0.105,0.012-0.247,0.051-0.392c0.209-0.745,0.445-1.589,0.102-2.282c-0.105-0.156-0.281-0.344-0.479-0.554
					c-0.59-0.631-1.322-1.412-0.998-2.219c0.428-0.713,2.059-1.611,3.285-1.611c0.863,0,1.432,0.415,1.645,1.196
					c0.186,0.56-0.273,1.878-0.547,2.665l-0.102,0.29c0.029-0.074,0.111-0.122,0.205-0.179c0.281-0.162,0.691-0.401,1.469-0.268
					c-0.16,0.893-1.391,1.522-1.443,1.552c0.154,0.514-0.807,3.011-0.848,3.119l-2.779,0.028l0.381-0.906l-0.555,0.887l-1.092,0.02
					l0.547-0.762C421.236,312.783,420.635,313.264,420.072,313.264L420.072,313.264z M421.604,312.396l-0.541,0.779l1.018-0.074
					l0.596-0.821l-0.344,0.887l2.697-0.065c-0.031-0.003,0.947-2.552,0.824-3.088c0.035-0.061,1.27-0.69,1.455-1.486
					c-0.117,0.031-0.258,0.02-0.383,0.02c-0.48,0-0.762,0.162-0.986,0.293c-0.105,0.062-0.195,0.113-0.285,0.14l0.049-0.361
					c0.252-0.725,0.723-2.074,0.545-2.605c-0.254-0.938-0.986-1.131-1.557-1.131c-1.293,0-2.836,0.943-3.205,1.558
					c-0.299,0.747,0.412,1.506,0.984,2.116c0.201,0.213,0.381,0.406,0.49,0.571c0.363,0.728,0.121,1.591-0.092,2.353
					c-0.039,0.142-0.078,0.284-0.111,0.417c-0.539-0.173-0.955-0.275-1.303-0.275c-0.787,0-1.238,0.506-1.381,1.552
					c0.809-0.003,1.75-1.097,1.76-1.105l0,0C421.844,312.102,421.754,312.232,421.604,312.396L421.604,312.396z"/>
			</g>
			<path clip-path="url(#SVGID_4_)" fill="#F6CD2A" d="M411.646,293.313c-0.285,0.173-0.053,1.329,0.383,1.134
				C412.572,294.203,411.861,293.18,411.646,293.313L411.646,293.313z"/>
			<g clip-path="url(#SVGID_4_)">
				<path fill="#8E1942" d="M411.932,294.516c-0.168,0-0.32-0.177-0.402-0.469c-0.084-0.296-0.08-0.668,0.092-0.773
					c0.283-0.011,0.566,0.367,0.639,0.705c0.053,0.244-0.023,0.426-0.211,0.511L411.932,294.516L411.932,294.516z M411.689,293.345
					c-0.133,0.074-0.156,0.384-0.072,0.679c0.055,0.193,0.166,0.4,0.314,0.4v0.046l0.08-0.062c0.186-0.085,0.189-0.27,0.158-0.409
					C412.1,293.674,411.812,293.345,411.689,293.345L411.689,293.345z"/>
			</g>
			<path clip-path="url(#SVGID_4_)" fill="#F6CD2A" d="M411.916,292.947c0.52,0.366,1.344,1.347,2.361,1.287
				c-0.768-0.634-0.613-1.094-0.613-1.094c0.402,0.479,1.748,0.923,2.188,0.729c-0.518-0.384-0.613-0.423-0.729-0.787
				c0.615,0.077,1.383,0.211,1.998-0.06L411.916,292.947z"/>
			<g clip-path="url(#SVGID_4_)">
				<path fill="#8E1942" d="M414.076,294.217c-0.729,0-1.336-0.52-1.791-0.909c-0.146-0.128-0.279-0.238-0.396-0.323
					c-0.02-0.012-0.025-0.04-0.012-0.062c0.016-0.021,0.045-0.026,0.064-0.012c0.119,0.085,0.254,0.199,0.404,0.326
					c0.49,0.421,1.156,0.998,1.93,0.952c-0.811-0.565-0.662-1.046-0.656-1.065c0.467,0.449,1.783,0.895,2.215,0.705l-0.156-0.031
					c-0.396-0.29-0.49-0.358-0.598-0.702l0.221-0.034c0.588,0.077,1.254,0.162,1.803-0.076c-0.535,0.332-1.215,0.244-1.814,0.167
					l-0.172-0.022c0.148,0.253,0.229,0.312,0.613,0.594l0.15,0.11c-0.463,0.276-1.783-0.15-2.227-0.633
					c0.031,0.104,0.041,0.494,0.652,1C414.229,294.211,414.152,294.217,414.076,294.217L414.076,294.217z"/>
			</g>
			<path clip-path="url(#SVGID_4_)" fill="#F6CD2A" d="M412.914,299.365l0.057-0.884c0,0,0.576,1.344,1,1.363
				c-0.27-0.979-0.154-1.767-0.154-1.767L412.914,299.365z"/>
			<g clip-path="url(#SVGID_4_)">
				<path fill="#8E1942" d="M413.992,299.834c-0.479,0-1.004-1.196-1.062-1.336l0.029,0.87c-0.002,0.025-0.027,0.034-0.049,0.042
					c-0.025-0.003-0.043-0.025-0.043-0.048l0.061-0.884c0.242,0.353,0.721,1.304,1.045,1.321c-0.314-0.921-0.201-1.722-0.201-1.728
					c0.09,0.02-0.02,0.801,0.242,1.762C414.006,299.834,414,299.834,413.992,299.834L413.992,299.834z"/>
			</g>
			<path clip-path="url(#SVGID_4_)" fill="#F6CD2A" d="M414.258,298.288c0,0,1.154,2.111,1.711,1.768
				c-0.846-0.75-0.75-1.728-0.75-1.728s0.385,1.307,1.52,1.707c0.074-0.729-0.443-1.92-0.443-1.92s0.941,1.653,1.422,1.69
				c0.307-0.384,0.191-0.787,0.191-0.787L414.258,298.288z"/>
			<g clip-path="url(#SVGID_4_)">
				<path fill="#8E1942" d="M415.812,300.138c-0.025,0-0.051-0.003-0.078-0.012c-0.605-0.161-1.479-1.747-1.516-1.815
					c-0.012-0.022-0.004-0.048,0.02-0.06c0.02-0.014,0.049-0.006,0.061,0.018c0.01,0.017,0.889,1.619,1.459,1.77
					c0.07,0.021,0.133,0.012,0.186-0.02c-0.857-0.685-0.771-1.685-0.77-1.696c0.092,0.006,0.48,1.281,1.578,1.671
					c0.014-0.674-0.494-1.847-0.498-1.858c0,0,0.002,0.003,0.002,0.006c0.021,0.003,0.055,0.045,0.096,0.119
					c0.371,0.486,1.027,1.475,1.369,1.503c0.248-0.347,0.145-0.73,0.145-0.733c0,0,0,0,0.002,0c0.092,0,0.199,0.412-0.115,0.805
					c-0.395-0.018-0.996-0.884-1.303-1.372c0.174,0.397,0.385,1.085,0.334,1.579c-0.982-0.301-1.432-1.235-1.564-1.577
					c0.053,0.284,0.141,0.992,0.779,1.558C415.939,300.106,415.879,300.138,415.812,300.138L415.812,300.138z"/>
			</g>
			<path clip-path="url(#SVGID_4_)" fill="#F6CD2A" d="M413.355,296.828l0.846,1.076l0.135-1.44c0,0,0.826,0.651,0.98,0.634
				c0.152-0.02-0.23-1.537-0.23-1.537s1.113,1.69,1.189,1.65c0.078-0.036,0.115-1.67,0.115-1.67s0.846,2.326,1.135,2.307
				c0.287-0.022,0.211-0.326,0.211-0.326L413.355,296.828z"/>
			<g clip-path="url(#SVGID_4_)">
				<path fill="#8E1942" d="M414.246,297.91l-0.926-1.054c-0.016-0.021-0.014-0.049,0.006-0.062
					c0.021-0.018,0.049-0.015,0.064,0.006l0.846,1.076l0.053-1.417c0.473,0.283,0.936,0.585,1.021,0.594
					c0.041-0.074-0.102-0.815-0.27-1.48c0.48,0.565,1.146,1.545,1.244,1.6c0.002-0.065,0.043-0.893,0.061-1.631
					c0.49,1.088,1.035,2.272,1.176,2.262c0.066-0.006,0.113-0.029,0.143-0.068c0.057-0.077,0.027-0.202,0.027-0.202
					c0.08-0.025,0.129,0.143,0.047,0.256c-0.045,0.062-0.117,0.097-0.211,0.103c-0.002,0-0.004,0-0.006,0
					c-0.301,0-0.975-1.784-1.174-2.333c0.051,1.646-0.023,1.683-0.053,1.696c-0.039,0.022-0.107,0.062-1.248-1.668
					c0.164,0.29,0.428,1.373,0.324,1.526c-0.213,0.048-0.867-0.455-1.064-0.614L414.246,297.91L414.246,297.91z"/>
			</g>
			<path clip-path="url(#SVGID_4_)" fill="#F6CD2A" d="M412.723,294.947c0,0,1.305,1.188,1.439,1.113
				c0.135-0.076-0.537-1.384-0.537-1.384s0.748,0.711,1.037,0.768s0.096-0.921,0.096-0.921s0.883,0.75,1.037,0.711
				c0.154-0.037,0.076-0.711,0.076-0.711s0.578,0.577,0.615,0.577c0.039,0-0.115-1.653-0.115-1.653s1.289,1.363,1.383,1.344
				L412.723,294.947z"/>
			<g clip-path="url(#SVGID_4_)">
				<path fill="#8E1942" d="M414.156,296.104c-0.189,0-0.891-0.6-1.465-1.125c-0.018-0.015-0.02-0.043-0.002-0.062
					c0.016-0.021,0.045-0.021,0.062-0.003c0.6,0.545,1.281,1.105,1.393,1.105h0.002c0.023-0.08-0.27-0.75-0.562-1.321
					c0.277,0.142,0.861,0.659,1.088,0.704c0.146-0.11,0.096-0.591,0.041-0.869c0.486,0.307,0.959,0.665,1.072,0.656
					c0.059-0.014,0.08-0.329,0.041-0.659c0.336,0.219,0.633,0.506,0.676,0.528c-0.041-0.051-0.121-1.017-0.176-1.607
					c0.547,0.463,1.33,1.264,1.434,1.295c-0.023,0.103-0.117,0.114-1.422-1.267c0.23,1.6,0.199,1.634,0.184,1.65
					c-0.059,0.017-0.094,0.015-0.682-0.574c0.102,0.177,0.141,0.68-0.033,0.725c-0.15,0.052-0.828-0.509-1.061-0.704
					c0.088,0.11,0.191,0.722,0.037,0.878c-0.012,0.008-0.117,0.036-0.129,0.036c-0.299-0.06-1.029-0.75-1.061-0.778
					c0.531,0.839,0.707,1.324,0.592,1.387C414.178,296.104,414.168,296.104,414.156,296.104L414.156,296.104z"/>
			</g>
			<path clip-path="url(#SVGID_4_)" fill="#F6CD2A" d="M407.498,295.37c0.057,0.094,0.27,1.793,2.902,1.103
				c0.248-0.137,0.139,0.475,0.127,0.65c0.117-0.017,1.371-0.463,2.236,0.171c-0.102-0.705-0.293-1.177-1.041-1.58
				c-0.365-0.076-0.631,0.111-0.631,0.111S407.92,295.848,407.498,295.37L407.498,295.37z"/>
			<g clip-path="url(#SVGID_4_)">
				<path fill="#8E1942" d="M412.764,297.339c-0.012,0-0.02-0.003-0.029-0.008c-0.297-0.219-0.678-0.33-1.131-0.33
					c-0.438,0-0.82,0.103-0.986,0.147c-0.014,0-0.068,0.009-0.078-0.002c-0.012-0.009-0.057-0.012-0.055-0.026l0.01-0.11
					c0.016-0.143,0.047-0.438-0.014-0.503c-0.488,0.119-0.875,0.176-1.213,0.176c-0.947,0-1.551-0.417-1.793-1.238
					c-0.004-0.009-0.008-0.022-0.01-0.04c0.449,1.086,1.389,1.427,2.924,1.023l0.16,0.02c0.08,0.088,0.062,0.321,0.035,0.571
					l-0.01,0.107c0.188-0.11,0.58-0.219,1.029-0.219c0.43,0,0.799,0.097,1.098,0.29c-0.104-0.645-0.311-1.071-1-1.443
					c-0.043-0.009-0.1-0.014-0.154-0.014c-0.252,0-0.428,0.119-0.43,0.122c-0.83,0.008-3.262-0.026-3.652-0.461
					c0-0.02,0.004-0.037,0.014-0.042c0.02-0.015,0.039-0.037,0.053-0.021c0.287,0.324,2.057,0.44,3.484,0.44
					c0.037-0.006,0.246-0.131,0.531-0.131c0.062,0,0.125,0.006,0.186,0.021c0.77,0.415,0.971,0.886,1.074,1.616
					c0.004,0.02-0.004,0.037-0.02,0.049C412.779,297.336,412.771,297.339,412.764,297.339L412.764,297.339z"/>
			</g>
			<path clip-path="url(#SVGID_4_)" fill="#F6CD2A" d="M406.062,306.184c-0.045,0.196-0.182,0.256-0.574,0.821
				c0.174,0.241,0.977,0.616,1.195,0.42c0.197-0.11,0.213-0.631,0.213-0.631c0.42,0.631,1.162,1.626,2.006,1.836
				c0.629,0.21,1.262-0.21,1.262-0.841s-0.953-1.648-1.373-2.068c-1.053-1.262-0.961-3.648-2.953-3.315
				c-0.01,0.017-0.09,0.289-0.279,0.338c0.158,0.307,0.248,0.565-0.133,0.662c0.297,0.292,0.344,0.505-0.039,0.653
				c0.232,0.31,0.502,0.423-0.031,0.69C405.914,305.291,406.035,306.093,406.062,306.184L406.062,306.184z"/>
			<g clip-path="url(#SVGID_4_)">
				<path fill="#8E1942" d="M409.232,308.729c-0.115,0-0.232-0.018-0.346-0.058c-0.629-0.156-1.283-0.75-1.998-1.807
					c0.039,0.131-0.002,0.5-0.184,0.597c-0.039,0.04-0.113,0.062-0.207,0.062l0,0c-0.332,0-0.9-0.29-1.047-0.491
					c0.172-0.302,0.295-0.455,0.383-0.562c0.111-0.137,0.16-0.196,0.184-0.296c-0.061-0.256-0.207-0.92-0.693-1.395
					c0.188-0.162,0.281-0.236,0.293-0.302c0.014-0.065-0.053-0.142-0.139-0.238c-0.041-0.049-0.086-0.097-0.129-0.156
					c0.166-0.125,0.248-0.19,0.264-0.268c0.018-0.091-0.053-0.216-0.221-0.377c0.141-0.108,0.213-0.154,0.242-0.219
					c0.047-0.105-0.014-0.259-0.117-0.458c0.125-0.088,0.207-0.188,0.271-0.357c0.172-0.065,0.293-0.077,0.408-0.077
					c1.076,0,1.449,0.912,1.844,1.878c0.217,0.525,0.438,1.068,0.785,1.486c0.414,0.411,1.383,1.448,1.383,2.097
					C410.209,308.317,409.781,308.729,409.232,308.729L409.232,308.729z M406.85,306.794c0.797,1.043,1.443,1.637,2.062,1.79
					c0.611,0.208,1.205-0.216,1.205-0.795c0-0.614-0.949-1.628-1.357-2.034c-0.359-0.433-0.584-0.983-0.803-1.515
					c-0.424-1.037-0.822-2.003-2.111-1.79c-0.047,0.188-0.15,0.304-0.277,0.338c0.123,0.114,0.217,0.315,0.148,0.469
					c-0.041,0.094-0.133,0.156-0.281,0.193c0.215,0.111,0.293,0.259,0.266,0.387c-0.021,0.107-0.119,0.193-0.299,0.261
					c0.061-0.008,0.105,0.037,0.145,0.083c0.102,0.116,0.182,0.207,0.16,0.315c-0.02,0.1-0.119,0.188-0.33,0.292
					c0.516,0.418,0.666,1.105,0.717,1.33c-0.014,0.196-0.072,0.27-0.189,0.409c-0.086,0.107-0.209,0.259-0.379,0.506
					c0.164,0.159,0.961,0.506,1.127,0.357C406.805,307.306,406.846,306.931,406.85,306.794L406.85,306.794z"/>
			</g>
			<path clip-path="url(#SVGID_4_)" fill="#F6CD2A" d="M405.543,288.358c-0.633,0.918-0.699,11.01-0.502,13.044
				c-0.635,0.412-1.814,0.238-2.143,0.107C403.053,300.788,403.598,289.08,405.543,288.358L405.543,288.358z"/>
			<g clip-path="url(#SVGID_4_)">
				<path fill="#8E1942" d="M403.928,301.706c-0.432,0-0.854-0.077-1.045-0.153c0-0.182,0.041-0.693,0.1-1.4
					c0.277-3.364,0.928-11.237,2.545-11.836c-0.566,0.966-0.648,10.935-0.441,13.08C404.729,301.66,404.262,301.706,403.928,301.706
					L403.928,301.706z M405.506,288.333c-1.51,0.647-2.18,8.768-2.432,11.824c-0.062,0.739-0.102,1.228-0.131,1.361
					c0.152,0.02,0.568,0.097,0.984,0.097c0.32,0,0.77-0.046,1.088-0.253C404.818,299.572,404.848,289.288,405.506,288.333
					L405.506,288.333z"/>
			</g>
			<path clip-path="url(#SVGID_4_)" fill="#F6CD2A" d="M403.752,309.047c0,0-2.796,0.393-1.617-1.267
				c1.004-0.438,0.984,0.591,0.611,0.938c0.459,0.051,0.766-0.247,0.83-0.699c-0.568-0.764,0.24-1.267,0.197-1.267
				c-1.943,0.438-2.207-0.896-1.486-1.114c0.912,0.052,0.619,0.344,0.984,0.614c0.654-0.608,1.049-0.665,1.441-0.046
				c0.393-0.61,0.961-0.545,0.982-0.479c0.635,1.07-0.764,1.133-1.332,1.002c0.48,0.526,0.283,1.029,0.131,1.401
				c0.016,0.363,0.291,0.42,0.742,0.565c-0.961-2.651,3.387,0.707-0.982,0.372c0.008,0.116,0.016,0.235,0.021,0.35
				c0.355,0.065,0.604,0.153,0.721,0.525c-0.152,0.201-0.393,0.232-0.764,0.085c0,0,0.219,0.613-0.176,0.787
				c-0.326-0.196-0.371-0.676-0.371-0.676c-0.182,0.227-0.451,0.079-0.678-0.111C403.213,309.527,403.787,309.766,403.752,309.047
				L403.752,309.047z"/>
			<path clip-path="url(#SVGID_4_)" fill="#F6CD2A" d="M401.35,300.965c0.166-0.759,1.93-0.665,1.092,0.153
				c0.561,0.895,2.279,0.764,2.928,0.261c-0.547-1.039,0.938-0.815,0.873-0.022C406.061,302.76,401.158,302.572,401.35,300.965
				L401.35,300.965z"/>
			<path clip-path="url(#SVGID_4_)" fill="#F6CD2A" d="M433.643,314.369c0.523,0.982,1.455,3.31,1.971,3.866
				c0.484,0.432,1.689,0.381,2.061-0.108c0,0,0.771,0.796,1.084,1.037c0.186-0.065,0.299-0.241,0.299-0.241
				c-0.314-0.341-0.742-0.534-0.953-1.168c0.312-0.417,0.486-1.232,0.277-1.866C437.459,314.346,434.393,314.954,433.643,314.369
				L433.643,314.369z"/>
			<g clip-path="url(#SVGID_4_)">
				<path fill="#8E1942" d="M438.748,319.216l-0.02-0.018c-0.311-0.238-1.057-1.009-1.088-1.04c-0.234,0.467-1.58,0.54-2.057,0.111
					c-0.346-0.372-0.867-1.506-1.326-2.509c-0.246-0.531-0.475-1.031-0.656-1.369c0.338,0.153,0.934,0.204,1.623,0.261
					c1.16,0.103,2.605,0.225,3.195,1.214c0.225,0.673,0.033,1.5-0.281,1.917c0.156,0.401,0.414,0.623,0.662,0.839
					c0.1,0.088,0.199,0.173,0.289,0.27c0,0.062-0.119,0.247-0.316,0.315L438.748,319.216L438.748,319.216z M437.637,318.099
					c0.076,0.006,0.811,0.759,1.129,1.015c0.154-0.065,0.252-0.216,0.252-0.216c-0.082-0.04-0.178-0.122-0.275-0.208
					c-0.26-0.221-0.525-0.454-0.682-0.917c0.305-0.44,0.488-1.233,0.275-1.87c-0.561-0.938-1.979-1.06-3.119-1.158
					c-0.705-0.061-1.311-0.111-1.604-0.339c0.25,0.284,0.48,0.784,0.727,1.318c0.457,0.994,0.975,2.122,1.307,2.48
					C436.076,318.588,437.312,318.528,437.637,318.099L437.637,318.099z"/>
			</g>
			<path clip-path="url(#SVGID_4_)" fill="#F6CD2A" d="M400.747,287.568c-0.526-0.982-1.457-3.31-1.974-3.866
				c-0.484-0.432-1.688-0.381-2.06,0.108c0,0-0.771-0.796-1.084-1.034c-0.184,0.062-0.299,0.238-0.299,0.238
				c0.314,0.341,0.742,0.534,0.953,1.168c-0.314,0.417-0.487,1.232-0.275,1.866C396.928,287.592,399.993,286.983,400.747,287.568
				L400.747,287.568z"/>
			<g clip-path="url(#SVGID_4_)">
				<path fill="#8E1942" d="M400.717,287.603c-0.271-0.207-0.866-0.261-1.555-0.32c-1.161-0.1-2.605-0.225-3.194-1.211
					c-0.226-0.673-0.034-1.5,0.278-1.917c-0.153-0.401-0.41-0.623-0.66-0.839c-0.1-0.088-0.199-0.173-0.289-0.27
					c0-0.065,0.12-0.247,0.318-0.315c0.354,0.247,1.098,1.015,1.13,1.049c0.231-0.467,1.583-0.537,2.058-0.111
					c0.345,0.372,0.865,1.503,1.324,2.503c0.246,0.534,0.477,1.037,0.659,1.375L400.717,287.603L400.717,287.603z M395.602,282.81
					c-0.125,0.065-0.232,0.228-0.233,0.23c0.083,0.04,0.18,0.122,0.278,0.208c0.258,0.221,0.524,0.451,0.68,0.92
					c-0.305,0.44-0.488,1.23-0.276,1.866c0.562,0.938,1.979,1.061,3.12,1.157c0.604,0.054,1.137,0.099,1.461,0.255
					c-0.17-0.332-0.373-0.772-0.586-1.238c-0.457-0.991-0.974-2.116-1.306-2.475c-0.43-0.384-1.665-0.324-1.99,0.103
					C396.672,283.833,395.909,283.046,395.602,282.81L395.602,282.81z"/>
			</g>
			<path clip-path="url(#SVGID_4_)" fill="#F6CD2A" d="M400.435,314.221c-0.982,0.525-3.31,1.458-3.866,1.972
				c-0.433,0.486-0.381,1.688,0.107,2.06c0,0-0.795,0.773-1.035,1.086c0.063,0.185,0.24,0.298,0.24,0.298
				c0.342-0.312,0.533-0.741,1.166-0.954c0.42,0.315,1.235,0.488,1.867,0.275C400.458,318.039,399.848,314.974,400.435,314.221
				L400.435,314.221z"/>
			<g clip-path="url(#SVGID_4_)">
				<path fill="#8E1942" d="M395.887,319.692l-0.029-0.017c-0.01-0.006-0.191-0.128-0.26-0.324c0.247-0.354,1.014-1.1,1.047-1.131
					c-0.217-0.099-0.365-0.435-0.406-0.849c-0.047-0.489,0.067-0.952,0.296-1.211c0.372-0.344,1.501-0.863,2.499-1.321
					c0.535-0.247,1.039-0.477,1.38-0.659c-0.153,0.339-0.205,0.936-0.265,1.626c-0.1,1.159-0.225,2.602-1.211,3.19
					c-0.197,0.067-0.408,0.099-0.635,0.099l0,0c-0.473,0-0.976-0.147-1.283-0.377c-0.398,0.153-0.621,0.411-0.834,0.658
					c-0.089,0.103-0.176,0.202-0.273,0.293L395.887,319.692L395.887,319.692z M400.399,314.192c-0.284,0.25-0.789,0.483-1.326,0.73
					c-0.992,0.457-2.115,0.972-2.473,1.304c-0.207,0.233-0.314,0.679-0.27,1.137c0.036,0.384,0.176,0.704,0.374,0.855
					c-0.005,0.076-0.792,0.841-1.026,1.145c0.047,0.094,0.149,0.176,0.199,0.216c0.085-0.082,0.161-0.171,0.239-0.262
					c0.222-0.258,0.452-0.522,0.917-0.679c0.492,0.332,1.31,0.463,1.866,0.275c0.938-0.56,1.06-1.978,1.159-3.116
					C400.119,315.093,400.171,314.485,400.399,314.192L400.399,314.192z"/>
			</g>
			<path clip-path="url(#SVGID_4_)" fill="#F6CD2A" d="M433.723,287.568c0.523-0.982,1.457-3.31,1.973-3.866
				c0.482-0.432,1.688-0.381,2.059,0.108c0,0,0.771-0.796,1.084-1.034c0.186,0.062,0.301,0.238,0.301,0.238
				c-0.316,0.341-0.744,0.534-0.953,1.168c0.312,0.417,0.486,1.232,0.275,1.866C437.539,287.592,434.475,286.98,433.723,287.568
				L433.723,287.568z"/>
			<g clip-path="url(#SVGID_4_)">
				<path fill="#8E1942" d="M433.75,287.603l-0.068-0.057c0.182-0.338,0.414-0.841,0.658-1.375c0.459-1,0.98-2.131,1.322-2.5
					c0.48-0.429,1.77-0.36,2.127,0.11c-0.025-0.048,0.713-0.807,1.021-1.042c0.24,0.06,0.361,0.241,0.365,0.25
					c-0.094,0.153-0.193,0.238-0.295,0.326c-0.248,0.216-0.506,0.438-0.652,0.881c0.305,0.375,0.496,1.205,0.275,1.867
					c-0.592,0.994-2.035,1.119-3.195,1.219C434.617,287.342,434.021,287.393,433.75,287.603L433.75,287.603z M436.662,283.452
					c-0.389,0-0.738,0.105-0.936,0.284c-0.33,0.355-0.848,1.48-1.303,2.472c-0.215,0.466-0.416,0.906-0.586,1.235
					c0.324-0.153,0.857-0.201,1.463-0.252c1.139-0.1,2.557-0.222,3.121-1.165c0.207-0.628,0.025-1.418-0.273-1.818
					c0.148-0.509,0.414-0.739,0.672-0.96c0.096-0.083,0.189-0.162,0.273-0.253c-0.029-0.006-0.129-0.131-0.27-0.177
					c-0.264,0.228-1.029,1.015-1.037,1.023C437.541,283.603,437.127,283.452,436.662,283.452L436.662,283.452z"/>
			</g>
			<path clip-path="url(#SVGID_4_)" fill="#F6CD2A" d="M402.137,302.691c-0.041,0.318,0.725,0.458,1.506,0.464
				c0.783,0.003,1.586-0.128,1.621-0.353c0.01-0.395-0.684-0.057-1.473-0.062C403.002,302.731,402.344,302.422,402.137,302.691
				L402.137,302.691z"/>
			<g clip-path="url(#SVGID_4_)">
				<path fill="#F6CD2A" d="M403.678,303.197h-0.035c-0.283,0-1.23-0.025-1.488-0.32c-0.049-0.058-0.07-0.123-0.062-0.193
					c0.141-0.199,0.43-0.156,0.857-0.086c0.248,0.043,0.535,0.092,0.842,0.097h0.002c0.299,0,0.564-0.042,0.789-0.079
					c0.342-0.054,0.574-0.077,0.672,0.022c0.039,0.04,0.057,0.097,0.055,0.168C405.26,303.118,404.221,303.197,403.678,303.197
					L403.678,303.197z M402.439,302.627c-0.133,0-0.217,0.028-0.266,0.091c0.004,0.022,0.018,0.06,0.049,0.099
					c0.154,0.177,0.699,0.287,1.42,0.293l0.035,0.046v-0.046c0.893,0,1.516-0.162,1.541-0.312c0.002-0.04-0.01-0.074-0.029-0.097
					c-0.068-0.068-0.299-0.04-0.592,0.006c-0.23,0.037-0.502,0.079-0.785,0.079c-0.336-0.005-0.627-0.054-0.879-0.096
					C402.742,302.655,402.574,302.627,402.439,302.627L402.439,302.627z"/>
			</g>
			<path clip-path="url(#SVGID_4_)" fill="#F6CD2A" d="M402.199,303.578c0.01,0.301,0.768,0.369,1.439,0.393
				c0.672,0.02,1.348-0.114,1.471-0.33c-0.119-0.341-0.865-0.06-1.471-0.043C403.031,303.615,402.359,303.3,402.199,303.578
				L402.199,303.578z"/>
			<g clip-path="url(#SVGID_4_)">
				<path fill="#F6CD2A" d="M403.771,304.019l-0.135-0.003c-0.684-0.022-1.473-0.094-1.482-0.438
					c0.076-0.147,0.221-0.162,0.322-0.162c0.131,0,0.291,0.028,0.467,0.06c0.205,0.037,0.43,0.077,0.648,0.077
					c0.236-0.006,0.439-0.037,0.635-0.068c0.193-0.028,0.379-0.057,0.529-0.057c0.141,0,0.334,0.02,0.396,0.199
					C405.008,303.908,404.336,304.019,403.771,304.019L403.771,304.019z M402.477,303.507c-0.125,0-0.201,0.028-0.238,0.094
					c0.012,0.177,0.482,0.296,1.402,0.324l0.131,0.003c0.627,0,1.199-0.137,1.299-0.31c-0.066-0.103-0.404-0.108-0.83-0.043
					c-0.197,0.031-0.406,0.062-0.602,0.068c-0.234,0.034-0.502-0.04-0.711-0.077C402.758,303.535,402.604,303.507,402.477,303.507
					L402.477,303.507z"/>
			</g>
			<path clip-path="url(#SVGID_4_)" fill="#F6CD2A" d="M402.416,304.374c-0.053,0.225,0.615,0.386,1.232,0.392
				c0.613,0.003,1.486-0.232,1.492-0.475c-0.037-0.193-0.898,0.065-1.479,0.083C403.084,304.396,402.416,304.166,402.416,304.374
				L402.416,304.374z"/>
			<g clip-path="url(#SVGID_4_)">
				<path fill="#F6CD2A" d="M403.664,304.812c0,0-0.016,0-0.018,0c-0.484-0.003-1.086-0.111-1.238-0.307
					c-0.035-0.043-0.049-0.094-0.037-0.143c0-0.122,0.166-0.122,0.221-0.122c0.098,0,0.23,0.017,0.381,0.037
					c0.188,0.025,0.406,0.054,0.615,0.054c0.291-0.009,0.551-0.048,0.791-0.088c0.225-0.037,0.434-0.068,0.576-0.068
					c0.057,0,0.209,0,0.23,0.108C405.18,304.587,404.258,304.812,403.664,304.812L403.664,304.812z M402.592,304.331
					c-0.086,0-0.131,0.015-0.131,0.043c0.133,0.222,0.658,0.344,1.188,0.347l0.016,0.045v-0.045c0.625,0,1.426-0.242,1.432-0.433
					c-0.006-0.014-0.326-0.014-0.703,0.046c-0.244,0.037-0.506,0.079-0.729,0.085c-0.316-0.008-0.512-0.025-0.705-0.051
					C402.814,304.348,402.688,304.331,402.592,304.331L402.592,304.331z"/>
			</g>
			<path clip-path="url(#SVGID_4_)" fill="#F6CD2A" d="M402.344,305.189c0.051,0.222,0.811,0.295,1.477,0.244
				s1.346-0.256,1.402-0.491c-0.031-0.154-0.797,0.113-1.432,0.145C403.156,305.121,402.334,305.01,402.344,305.189L402.344,305.189
				z"/>
			<g clip-path="url(#SVGID_4_)">
				<path fill="#F6CD2A" d="M403.42,305.493c-0.248,0-1.057-0.02-1.121-0.296c0.082-0.136,0.215-0.158,0.504-0.158l0.699,0.008
					c0.098,0,0.193,0,0.285-0.006c0.273-0.014,0.568-0.067,0.818-0.116c0.211-0.043,0.391-0.076,0.5-0.076
					c0.037,0,0.145,0,0.162,0.082c-0.068,0.298-0.795,0.5-1.443,0.548C403.691,305.49,403.555,305.493,403.42,305.493
					L403.42,305.493z M402.803,305.13c-0.24,0-0.379,0.017-0.412,0.051c0.023,0.108,0.387,0.222,1.029,0.222
					c0.133,0,0.266-0.003,0.398-0.015c0.689-0.051,1.312-0.261,1.359-0.457c-0.18,0.009-0.352,0.043-0.555,0.082
					c-0.256,0.049-0.555,0.105-0.83,0.12c-0.094,0.005-0.191,0.005-0.291,0.005L402.803,305.13L402.803,305.13z"/>
			</g>
		</g>
	</g>
</g>
</svg>
