<?xml version="1.0" encoding="utf-8"?>
<!-- Generator: Adobe Illustrator 16.0.0, SVG Export Plug-In . SVG Version: 6.00 Build 0)  -->
<!DOCTYPE svg PUBLIC "-//W3C//DTD SVG 1.1//EN" "http://www.w3.org/Graphics/SVG/1.1/DTD/svg11.dtd">
<svg version="1.1" id="name" xmlns="http://www.w3.org/2000/svg" xmlns:xlink="http://www.w3.org/1999/xlink" x="0px" y="0px"
	 width="85.711px" height="50px" viewBox="358 276 85.711 50" enable-background="new 358 276 85.711 50" xml:space="preserve">
<g id="ls">
	<g>
		<defs>
			<rect id="SVGID_1_" x="358" y="276" width="85.711" height="50"/>
		</defs>
		<clipPath id="SVGID_2_">
			<use xlink:href="#SVGID_1_"  overflow="visible"/>
		</clipPath>
		<rect x="358" y="276" clip-path="url(#SVGID_2_)" fill="#FFFFFF" width="85.711" height="50"/>
		<rect x="358" y="311.002" clip-path="url(#SVGID_2_)" fill="#3D9546" width="85.711" height="14.998"/>
		<rect x="358" y="276" clip-path="url(#SVGID_2_)" fill="#2D328E" width="85.711" height="15.001"/>
		<g clip-path="url(#SVGID_2_)">
			<defs>
				<rect id="SVGID_3_" x="358" y="276" width="85.711" height="50"/>
			</defs>
			<clipPath id="SVGID_4_">
				<use xlink:href="#SVGID_3_"  overflow="visible"/>
			</clipPath>
			<path clip-path="url(#SVGID_4_)" fill="#010101" d="M400.815,291.93c-0.286,0.006-0.562,0.321-0.562,0.321l0.024,3.372
				l-1.065,1.114h0.864l-0.008,1.935l-5.097,6.864l-0.755-0.259l-1.315,2.81c0,0,3.259,2.04,7.986,1.983
				c5.191-0.06,8.012-2.077,8.012-2.077l-1.363-2.775l-0.666,0.29l-5.164-6.827l-0.006-1.992h0.861l-1.174-1.103l0.008-3.36
				C401.393,292.226,401.102,291.924,400.815,291.93L400.815,291.93z"/>
			<g clip-path="url(#SVGID_4_)">
				<path fill="#010101" d="M400.691,310.107c-4.58,0-7.782-1.969-7.813-1.989l1.303-2.855l0.8,0.239l5.057-6.85l0.001-1.915
					l-0.828,0.036l1.039-1.176l-0.034-3.347c0.02-0.037,0.301-0.353,0.6-0.358c0.304,0,0.592,0.296,0.603,0.308l0.004,3.386
					l1.162,1.074l-0.887,0.065l0.043,1.955l5.156,6.807l0.622-0.301l1.411,2.79c-0.041,0.068-2.901,2.07-8.045,2.131H400.691
					L400.691,310.107z M392.933,308.102c0.061,0,3.231,1.935,7.759,1.935l0.193-0.003c5.118-0.06,7.962-2.052,7.99-2.071
					l-1.375-2.728l-0.618,0.307l-5.208-6.841l-0.014-2.012l0.898-0.037l-1.198-1.039l-0.005-3.384l0,0
					c-0.012,0-0.277-0.265-0.532-0.265c-0.274,0.009-0.541,0.307-0.544,0.312l0.033,3.347l-1.074,1.14l0.836-0.062l0.028,1.972
					l-5.105,6.887l-0.796-0.247l-1.271,2.79C392.931,308.102,392.931,308.102,392.933,308.102L392.933,308.102z"/>
			</g>
			<g clip-path="url(#SVGID_4_)">
				<path fill="#010101" d="M402.707,300.186h-3.756l-0.051-0.104c-0.051-0.111-1.297-2.765-1.086-4.68
					c0.208-1.892,1.283-2.988,2.946-3.006l0,0c1.84,0,2.801,0.93,3.085,2.924c0.274,1.938-1.031,4.647-1.087,4.762L402.707,300.186
					L402.707,300.186z M399.184,299.819h3.292c0.234-0.511,1.235-2.827,1.007-4.449c-0.258-1.804-1.08-2.607-2.666-2.607
					c-1.531,0.017-2.451,0.969-2.638,2.679C398.002,297.047,398.957,299.309,399.184,299.819L399.184,299.819z"/>
			</g>
			<path clip-path="url(#SVGID_4_)" fill="#FFFFFF" d="M394.653,306.428c-0.059,0.077-0.48,0.924-0.48,0.924l0.73-0.154
				L394.653,306.428z"/>
			<polygon clip-path="url(#SVGID_4_)" fill="#FFFFFF" points="395.076,307.524 394.308,307.774 395.229,308.139 			"/>
			<polygon clip-path="url(#SVGID_4_)" fill="#FFFFFF" points="395.422,306.447 395.806,307.581 396.747,307.312 396.497,306.774 
							"/>
			<polygon clip-path="url(#SVGID_4_)" fill="#FFFFFF" points="396.018,307.984 396.15,308.445 397.4,308.755 396.901,307.698 			
				"/>
			<polygon clip-path="url(#SVGID_4_)" fill="#FFFFFF" points="397.4,307.024 397.84,308.081 398.782,307.715 398.475,307.255 			
				"/>
			<polygon clip-path="url(#SVGID_4_)" fill="#FFFFFF" points="398.014,308.465 398.168,308.868 399.629,309.078 399.014,308.121 
							"/>
			<polygon clip-path="url(#SVGID_4_)" fill="#FFFFFF" points="399.417,307.331 399.954,308.271 401.319,307.774 401.166,307.408 
							"/>
			<polygon clip-path="url(#SVGID_4_)" fill="#FFFFFF" points="400.204,308.618 400.494,309.118 402.185,309.062 401.551,308.121 
							"/>
			<polygon clip-path="url(#SVGID_4_)" fill="#FFFFFF" points="401.991,307.371 402.451,308.158 403.528,307.638 403.241,307.218 
							"/>
			<polygon clip-path="url(#SVGID_4_)" fill="#FFFFFF" points="403.758,307.965 402.684,308.502 402.971,308.965 404.412,308.734 
							"/>
			<polygon clip-path="url(#SVGID_4_)" fill="#FFFFFF" points="404.104,307.141 404.662,307.831 405.565,307.121 405.257,306.794 
							"/>
			<polygon clip-path="url(#SVGID_4_)" fill="#FFFFFF" points="405.757,307.505 404.891,308.158 405.122,308.562 406.314,308.255 
							"/>
			<polygon clip-path="url(#SVGID_4_)" fill="#FFFFFF" points="406.947,306.141 407.159,306.447 406.564,307.331 405.947,306.544 
							"/>
			<polygon clip-path="url(#SVGID_4_)" fill="#FFFFFF" points="407.351,306.908 407.716,307.638 406.986,307.888 406.928,307.544 
							"/>
		</g>
	</g>
</g>
</svg>
