<?xml version="1.0" encoding="utf-8"?>
<!-- Generator: Adobe Illustrator 16.0.0, SVG Export Plug-In . SVG Version: 6.00 Build 0)  -->
<!DOCTYPE svg PUBLIC "-//W3C//DTD SVG 1.1//EN" "http://www.w3.org/Graphics/SVG/1.1/DTD/svg11.dtd">
<svg version="1.1" id="name" xmlns="http://www.w3.org/2000/svg" xmlns:xlink="http://www.w3.org/1999/xlink" x="0px" y="0px"
	 width="90.014px" height="50px" viewBox="355.986 276 90.014 50" enable-background="new 355.986 276 90.014 50"
	 xml:space="preserve">
<g id="ly">
	<g>
		<defs>
			<rect id="SVGID_1_" x="356" y="276" width="90" height="50"/>
		</defs>
		<clipPath id="SVGID_2_">
			<use xlink:href="#SVGID_1_"  overflow="visible"/>
		</clipPath>
		<rect x="355.986" y="276" clip-path="url(#SVGID_2_)" fill="#269D49" width="90.014" height="50"/>
		<rect x="355.986" y="276" clip-path="url(#SVGID_2_)" width="90.014" height="37.5"/>
		<rect x="355.986" y="276" clip-path="url(#SVGID_2_)" fill="#E32227" width="90.014" height="12.5"/>
	</g>
	<g>
		<path fill="#FFFFFF" d="M402.819,296.58c-0.807-0.576-1.774-0.924-2.763-0.996c-0.989-0.071-1.996,0.135-2.877,0.588
			c-0.882,0.454-1.635,1.154-2.15,2.001c-0.517,0.847-0.794,1.836-0.794,2.827s0.277,1.98,0.794,2.827
			c0.516,0.847,1.269,1.547,2.15,2.001c0.881,0.453,1.888,0.659,2.877,0.588c0.988-0.072,1.956-0.42,2.763-0.996
			c-0.868,0.867-1.997,1.471-3.2,1.71c-1.204,0.239-2.478,0.114-3.611-0.356c-1.133-0.469-2.122-1.281-2.804-2.301
			c-0.683-1.021-1.054-2.246-1.054-3.473s0.371-2.451,1.054-3.473c0.682-1.02,1.671-1.832,2.804-2.301
			c1.134-0.471,2.407-0.596,3.611-0.356C400.822,295.109,401.951,295.713,402.819,296.58 M401.439,301l8.41-2.73l-5.2,7.15v-8.84
			l5.2,7.15L401.439,301z"/>
	</g>
</g>
</svg>
