<?xml version="1.0" encoding="utf-8"?>
<!-- Generator: Adobe Illustrator 16.0.0, SVG Export Plug-In . SVG Version: 6.00 Build 0)  -->
<!DOCTYPE svg PUBLIC "-//W3C//DTD SVG 1.1//EN" "http://www.w3.org/Graphics/SVG/1.1/DTD/svg11.dtd">
<svg version="1.1" id="name" xmlns="http://www.w3.org/2000/svg" xmlns:xlink="http://www.w3.org/1999/xlink" x="0px" y="0px"
	 width="85.71px" height="50px" viewBox="358 276 85.71 50" enable-background="new 358 276 85.71 50" xml:space="preserve">
<g id="ma">
	<g>
		<defs>
			<rect id="SVGID_1_" x="358" y="276" width="85.71" height="50"/>
		</defs>
		<clipPath id="SVGID_2_">
			<use xlink:href="#SVGID_1_"  overflow="visible"/>
		</clipPath>
		<rect x="358" y="276" clip-path="url(#SVGID_2_)" fill="#B02136" width="85.71" height="50"/>
		<polygon clip-path="url(#SVGID_2_)" fill="#2B6537" points="397.446,296.995 386.411,297.007 398.973,306.596 400.858,305.158 
			393.241,299.34 396.723,299.331 		"/>
		<polygon clip-path="url(#SVGID_2_)" fill="#2B6537" points="404.271,297.001 400.852,285.97 396.059,301.493 397.942,302.931 
			400.852,293.521 401.938,296.998 		"/>
		<polygon clip-path="url(#SVGID_2_)" fill="#2B6537" points="406.377,303.825 415.301,296.998 399.776,297.004 399.057,299.331 
			408.469,299.331 405.658,301.49 		"/>
		<polygon clip-path="url(#SVGID_2_)" fill="#2B6537" points="400.854,308.042 409.787,314.854 404.984,299.331 402.658,299.331 
			405.564,308.743 402.744,306.599 		"/>
		<polygon clip-path="url(#SVGID_2_)" fill="#2B6537" points="395.333,303.819 391.934,314.857 404.488,305.26 403.77,302.931 
			396.155,308.749 397.221,305.266 		"/>
	</g>
</g>
</svg>
