<?xml version="1.0" encoding="utf-8"?>
<!-- Generator: Adobe Illustrator 16.0.0, SVG Export Plug-In . SVG Version: 6.00 Build 0)  -->
<!DOCTYPE svg PUBLIC "-//W3C//DTD SVG 1.1//EN" "http://www.w3.org/Graphics/SVG/1.1/DTD/svg11.dtd">
<svg version="1.1" id="name" xmlns="http://www.w3.org/2000/svg" xmlns:xlink="http://www.w3.org/1999/xlink" x="0px" y="0px"
	 width="85.71px" height="50px" viewBox="358 276 85.71 50" enable-background="new 358 276 85.71 50" xml:space="preserve">
<g id="md">
	<g>
		<defs>
			<rect id="SVGID_1_" x="358" y="276" width="85.71" height="50"/>
		</defs>
		<clipPath id="SVGID_2_">
			<use xlink:href="#SVGID_1_"  overflow="visible"/>
		</clipPath>
		<rect x="358" y="276" clip-path="url(#SVGID_2_)" fill="#EFD929" width="85.71" height="50"/>
		<rect x="358" y="276" clip-path="url(#SVGID_2_)" fill="#363795" width="28.57" height="50"/>
		<rect x="415.143" y="276" clip-path="url(#SVGID_2_)" fill="#D02028" width="28.568" height="50"/>
		<g clip-path="url(#SVGID_2_)">
			<defs>
				<rect id="SVGID_3_" x="358" y="276" width="85.71" height="50"/>
			</defs>
			<clipPath id="SVGID_4_">
				<use xlink:href="#SVGID_3_"  overflow="visible"/>
			</clipPath>
			<path clip-path="url(#SVGID_4_)" fill="#010101" d="M397.991,287.193c-0.176,0-0.33,0.046-0.42,0.117
				c0.143,0.039,0.246,0.173,0.246,0.332v0.406h-0.158h-0.248c-0.16,0-0.291-0.103-0.334-0.244c-0.072,0.091-0.113,0.244-0.113,0.42
				c0,0.177,0.041,0.333,0.113,0.421c0.043-0.142,0.172-0.244,0.334-0.244h0.248h0.158v0.156v1.267v0.531
				c0,0.154-0.096,0.281-0.229,0.327c0.191,0.028,0.359,0.287,0.406,0.429c0.045-0.142,0.213-0.4,0.406-0.429
				c-0.137-0.046-0.234-0.173-0.234-0.327v-0.914v-0.884v-0.156h0.156h0.25c0.162,0,0.293,0.103,0.336,0.241
				c0.068-0.088,0.113-0.241,0.113-0.42c0-0.177-0.043-0.33-0.113-0.421c-0.043,0.145-0.174,0.247-0.336,0.247h-0.25h-0.156v-0.406
				c0-0.159,0.104-0.29,0.244-0.332C398.321,287.239,398.167,287.193,397.991,287.193"/>
			<path clip-path="url(#SVGID_4_)" fill="#F3EB38" d="M397.991,287.279c-0.092,0-0.174,0.017-0.242,0.039
				c0.092,0.08,0.152,0.193,0.152,0.324v0.406c0,0.006,0,0.012-0.004,0.018v0.064h-0.062c-0.006,0-0.012,0.003-0.012,0.003h-0.043
				h-0.121h-0.248c-0.131,0-0.244-0.06-0.322-0.15c-0.023,0.071-0.043,0.147-0.043,0.241s0.016,0.174,0.039,0.242
				c0.08-0.091,0.193-0.15,0.326-0.15h0.248h0.055h0.104h0.084c0,0.008-0.004,0.017-0.004,0.025v0.042
				c0.004,0.006,0.004,0.012,0.004,0.018v0.156v1.267v0.531c0,0.128-0.064,0.228-0.152,0.305c0.062,0.039,0.115,0.088,0.162,0.142
				c0.039,0.049,0.055,0.094,0.084,0.146c0.027-0.052,0.041-0.097,0.082-0.146c0.045-0.054,0.098-0.1,0.158-0.139
				c-0.088-0.077-0.15-0.18-0.15-0.308v-0.914v-0.884v-0.022v-0.134v-0.083h0.066c0.004,0,0.01-0.002,0.016-0.002h0.156h0.25
				c0.131,0,0.244,0.06,0.324,0.147c0.023-0.068,0.043-0.147,0.043-0.241c0-0.092-0.02-0.174-0.039-0.242
				c-0.08,0.094-0.195,0.153-0.328,0.153h-0.25h-0.156c-0.006,0-0.012-0.003-0.016-0.003h-0.066v-0.064c0-0.006,0-0.012,0-0.018
				v-0.406c0-0.131,0.057-0.241,0.148-0.321C398.165,287.299,398.084,287.279,397.991,287.279"/>
			<polygon clip-path="url(#SVGID_4_)" fill="#806432" points="398.299,294.385 397.624,294.231 396.213,293.484 395.321,293.436 
				395.26,291.708 393.551,290.333 391.805,292.214 391.557,292.768 391.639,309.891 392.766,308.527 393.004,308.584 
				394.168,307.325 395.159,304.825 395.452,303.791 396.786,305.368 396.28,306.3 396.739,306.266 396.78,306.658 397.202,306.479 
				397.315,307.016 398.245,306.075 399.536,306.712 397.084,311.079 396.211,311.727 397.786,312.314 399.401,310.434 
				399.167,311.67 398.688,312.868 400.651,314.002 402.787,312.74 401.734,310.539 402.078,310.383 403.463,312.386 
				404.969,311.639 403.01,309.349 401.721,306.593 403.08,306.144 404.006,307.033 404.145,306.453 404.635,306.689 
				404.572,306.209 405.064,306.317 404.465,305.365 405.986,304.09 406.949,307.096 408.367,308.718 408.668,308.681 
				409.699,309.953 409.689,292.311 407.787,290.308 405.938,291.816 406.014,293.438 405.184,293.47 403.947,294.104 
				403.256,294.33 402.93,294.396 402.506,293.933 401.938,292.797 401.9,291.674 402.25,290.941 402.188,290.251 402.5,290.257 
				402.301,289.788 402.576,289.68 402.162,289.313 402.307,289.143 400.739,288.47 399.542,288.39 399.219,288.532 
				399.063,288.821 399.377,289.717 399.04,290.058 399.375,290.711 399.389,292.148 399.12,293.359 398.583,294.276 			"/>
			<polygon clip-path="url(#SVGID_4_)" fill="#C1202D" points="396.485,306.328 395.303,308.139 394.729,308.121 394.137,308.399 
				393.946,309.042 394.034,309.34 394.676,310.036 395.198,309.74 395.616,309.286 395.721,308.886 397.215,306.939 
				397.147,306.45 396.817,306.661 396.696,306.26 			"/>
			<polygon clip-path="url(#SVGID_4_)" fill="#C1202D" points="404.053,306.868 405.637,309.008 405.793,309.425 406.488,310.053 
				406.699,309.999 407.463,309.112 407.289,308.505 406.576,308.07 406.037,308.121 404.836,306.328 404.627,306.243 
				404.541,306.59 404.193,306.484 			"/>
			<path clip-path="url(#SVGID_4_)" fill="#010101" d="M399.909,288.296c-0.195,0-0.482,0.006-0.654,0.119
				c-0.152,0.103-0.141,0.236-0.195,0.281c-0.127,0.111-0.346,0.108-0.451,0.108c-0.682,0-0.707,0.73-0.707,0.73
				s0.176-0.265,0.482-0.265c0.512,0,0.9,0.278,0.9,0.384c0,0.043-0.053,0.051-0.053,0.051c-0.338,0-0.842-0.193-1.111-0.201v0.104
				c0.004,0.003,0.006,0.006,0.01,0.009c-0.002,0-0.006,0-0.01-0.003v0.021c0.6,0.21,1.207,0.502,1.207,1.804
				c0,0.818-0.1,1.653-0.51,2.312c-0.145,0.23-0.352,0.429-0.6,0.605c-0.109-0.031-0.629-0.193-0.994-0.398
				c-0.645-0.357-0.977-0.713-1.74-0.747v-0.582c0-0.31,0.113-0.588,0.113-0.887c-0.322-0.085-1.217-1.176-2.041-1.662
				c-1.211,0.784-2.15,2.074-2.15,2.668c0,0,0.037,12.739,0,17.177c0,0.256-0.154,0.617-0.154,0.617
				c0.441-0.188,1.254-1.299,1.426-1.719v0.201c0.668-0.304,1.156-1.105,1.377-1.52c0.002,0.06,0.014,0.21,0.014,0.21
				c0.598-0.522,1.357-3.619,1.357-3.619l-0.039-0.651c0,0-0.527,2.526-1.125,3.049v-10.881l0.473,0.44l0.719-0.671v-0.512
				l-0.637,0.594v-1.537c0.096-0.145,0.16-0.255,0.207-0.341c0.105,0.18,0.438,0.73,0.83,1.068c0.064-0.262,0.486-0.512,0.486-0.512
				s0.152,0.412,0.385,0.515c0.082-0.142,0.568-0.463,0.568-0.463s-0.418,0.065-0.584,0.222c-0.146-0.031-0.182-0.605-0.182-0.605
				s-0.615,0.299-0.723,0.515c-0.117-0.031-0.299-0.492-0.371-0.683c0.107-0.011,0.26-0.025,0.457-0.025
				c0.176,0,0.4,0.083,0.637,0.193c0.254,0.122,0.525,0.275,0.766,0.384c0.311,0.142,0.775,0.17,0.912,0.176
				c-0.156,0.108-0.326,0.208-0.514,0.302c0,0,0.736-0.006,1.252-0.265c0.184-0.116,0.375-0.235,0.537-0.375
				c-0.07,0.199-0.18,0.429-0.354,0.628c0.76-0.062,1.137-0.497,1.244-0.643c0.051,0.131,0.139,0.339,0.281,0.521
				c0.141-0.182,0.232-0.39,0.281-0.521c0.107,0.146,0.484,0.58,1.244,0.643c-0.174-0.199-0.283-0.429-0.354-0.628
				c0.162,0.14,0.354,0.259,0.537,0.375c0.518,0.259,1.252,0.265,1.252,0.265c-0.186-0.094-0.359-0.193-0.518-0.302
				c0.133-0.006,0.604-0.034,0.916-0.176c0.24-0.108,0.512-0.262,0.768-0.384c0.234-0.11,0.459-0.193,0.635-0.193
				c0.197,0,0.35,0.015,0.457,0.025c-0.072,0.19-0.254,0.651-0.369,0.683c-0.109-0.216-0.723-0.515-0.723-0.515
				s-0.037,0.574-0.182,0.605c-0.168-0.156-0.586-0.222-0.586-0.222s0.486,0.321,0.568,0.463c0.234-0.103,0.381-0.515,0.381-0.515
				s0.428,0.25,0.492,0.512c0.393-0.338,0.725-0.889,0.826-1.068c0.051,0.088,0.117,0.202,0.209,0.341v1.537l-0.637-0.594v0.512
				l0.719,0.671l0.473-0.44v10.881c-0.598-0.522-1.123-3.049-1.123-3.049l-0.041,0.651c0,0,0.762,3.097,1.357,3.619
				c0,0,0.012-0.15,0.016-0.21c0.219,0.414,0.707,1.216,1.377,1.52v-0.201c0.172,0.42,0.982,1.531,1.424,1.719
				c0,0-0.154-0.361-0.154-0.617c-0.035-4.438,0-17.177,0-17.177c0-0.594-0.939-1.884-2.15-2.668
				c-0.824,0.486-1.719,1.577-2.039,1.662c0,0.299,0.111,0.577,0.111,0.887v0.579c-0.762,0.034-1.098,0.393-1.74,0.75
				c-0.365,0.205-0.891,0.37-0.996,0.398c-0.248-0.174-0.453-0.375-0.598-0.605c-0.35-0.562-0.496-1.25-0.496-1.949
				c0-0.295,0.33-0.628,0.33-0.866c0-0.361-0.033-0.577-0.033-0.577c0.117,0.015,0.322,0.225,0.322,0.225s-0.008-0.6-0.195-0.704
				c0,0,0.076-0.08,0.352-0.088c-0.076-0.196-0.461-0.438-0.461-0.438c0.018-0.034,0.053-0.062,0.1-0.089
				c0.098-0.054,0.232-0.091,0.338-0.11c-0.113-0.022-0.24-0.057-0.381-0.103c-0.32-0.105-0.695-0.259-1.047-0.426
				C400.668,288.316,400.178,288.296,399.909,288.296 M399.922,288.473c0.061,0.002,0.115,0.002,0.164,0.002
				c0.627,0,1.07,0.287,1.664,0.552c0.154,0.068,0.297,0.125,0.426,0.168c-0.08,0.07-0.143,0.142-0.16,0.201
				c0,0,0.266,0.049,0.387,0.272c0,0-0.254,0.029-0.295,0.177c0.143,0.011,0.283,0.19,0.283,0.36l-0.359-0.11
				c0,0,0.088,0.403,0.088,0.841c0,0.225-0.322,0.488-0.322,0.866c0,1.19,0.299,1.648,0.512,2.018
				c0.086,0.145,0.15,0.31,0.293,0.435c-0.615-0.327-1.07-0.736-1.07-1.116v-1.438h-0.162v1.438c0,0.275,0.068,0.403,0.068,0.403
				c0.096,0.307,0.291,0.775,0.412,0.966c-0.566-0.307-0.851-0.688-0.851-0.83v-1.978h-0.16v2.006l0.031,0.137
				c-0.07,0.103-0.158,0.225-0.219,0.268c-0.062-0.043-0.148-0.165-0.217-0.268l0.031-0.137v-2.006h-0.162v1.978
				c0,0.143-0.285,0.523-0.852,0.83c0.121-0.19,0.316-0.659,0.412-0.966c0,0,0.068-0.128,0.068-0.403v-1.438h-0.16v1.438
				c0,0.38-0.455,0.789-1.068,1.116c0.141-0.125,0.205-0.29,0.289-0.435c0.23-0.403,0.521-0.915,0.521-2.37
				c0-0.545-0.08-0.917-0.223-1.179c-0.041-0.085-0.1-0.312,0.229-0.312c0.168,0,0.557,0.299,0.557,0.299s-0.014-0.239-0.213-0.375
				c-0.031-0.023-0.086-0.094-0.086-0.159c0-0.052,0.086-0.174,0.15-0.202c0.045-0.022-0.668-0.145-0.668-0.469
				c0-0.068,0.043-0.113,0.191-0.113c0.195,0,0.512,0.232,0.793,0.232c0.207,0,0.289-0.051,0.5-0.051
				c0.259,0,0.802,0.494,0.988,0.475c-0.207-0.131-0.543-0.622-1.048-0.622c-0.176,0-0.336,0.039-0.5,0.039
				c-0.211,0-0.418-0.192-0.645-0.192c-0.154,0-0.322,0.008-0.348-0.031c-0.045-0.068-0.004-0.111,0.035-0.165
				c0.076-0.108,0.295-0.14,0.508-0.148C399.799,288.475,399.864,288.473,399.922,288.473 M393.555,290.635v0.002
				c0,0,1.127,1.031,1.506,1.162l0.016,0.35v1.023c-0.275-0.094-0.619-0.546-0.787-0.784v-0.143c0-0.131,0.076-0.228,0.133-0.278
				l-0.164-0.06c-0.062,0.071-0.131,0.179-0.131,0.315v0.082l-0.055,0.057l-0.027,0.029l-0.412,0.445l-0.486-0.735v-0.18
				c0-0.122,0.092-0.255,0.17-0.349l-0.162-0.058c-0.082,0.105-0.166,0.247-0.166,0.384v0.146c-0.117,0.119-0.561,0.573-0.561,0.573
				s-0.223-0.478-0.285-0.607C392.485,291.538,393.036,291.012,393.555,290.635 M407.746,290.635
				c0.518,0.375,1.068,0.906,1.41,1.375c-0.061,0.13-0.283,0.607-0.283,0.607s-0.445-0.454-0.559-0.573v-0.146
				c0-0.137-0.086-0.278-0.168-0.384l-0.162,0.058c0.078,0.094,0.172,0.227,0.172,0.349v0.18l-0.486,0.735l-0.412-0.445
				l-0.027-0.029l-0.055-0.057v-0.082c0-0.137-0.068-0.244-0.131-0.315l-0.166,0.06c0.059,0.051,0.135,0.147,0.135,0.278v0.143
				c-0.168,0.238-0.514,0.69-0.789,0.784v-1.023l0.014-0.35c0.381-0.131,1.508-1.162,1.508-1.162V290.635z M391.95,292.325
				l0.256,0.469v0.844l-0.391,0.363v-1.253C391.815,292.629,391.866,292.484,391.95,292.325 M409.352,292.325
				c0.086,0.159,0.137,0.304,0.137,0.423v1.253l-0.393-0.363v-0.844L409.352,292.325z M392.977,292.433l0.453,0.685v0.523
				l-0.453,0.423V292.433z M408.324,292.433v1.631l-0.453-0.423v-0.523L408.324,292.433z M392.819,292.555v1.506l-0.451-0.42v-0.611
				L392.819,292.555z M408.482,292.555l0.451,0.475v0.611l-0.451,0.42V292.555z M394.204,292.663
				c0.068,0.113,0.381,0.619,0.676,0.764c-0.105,0.148-0.379,0.509-0.676,0.671V292.663z M407.098,292.663v1.435
				c-0.297-0.162-0.57-0.522-0.676-0.671C406.719,293.282,407.031,292.776,407.098,292.663 M394.045,292.736v1.324l-0.453-0.42
				v-0.469L394.045,292.736z M407.258,292.736l0.451,0.436v0.469l-0.451,0.42V292.736z M392.206,294.146v1.324l-0.391-0.369v-0.585
				L392.206,294.146z M409.096,294.146l0.393,0.37v0.585l-0.393,0.369V294.146z M392.368,294.151l0.256,0.241l0.193,0.18v0.472
				l-0.193,0.182l-0.256,0.238V294.151z M393.43,294.151v1.312l-0.258-0.238l-0.195-0.185v-0.466l0.195-0.183L393.43,294.151z
				 M393.592,294.151l0.451,0.424v0.466l-0.195,0.188l-0.256,0.235V294.151z M394.655,294.151v1.318l-0.258-0.241l-0.193-0.185
				v-0.438C394.36,294.51,394.516,294.336,394.655,294.151 M406.646,294.151c0.141,0.185,0.297,0.358,0.451,0.455v0.438
				l-0.193,0.185l-0.258,0.241V294.151L406.646,294.151z M407.709,294.151v1.312l-0.256-0.235l-0.195-0.188v-0.466L407.709,294.151z
				 M407.871,294.151l0.26,0.241l0.193,0.183v0.466l-0.193,0.185l-0.26,0.238V294.151z M408.934,294.151v1.312l-0.258-0.238
				l-0.193-0.182v-0.472l0.193-0.18L408.934,294.151z M393.034,295.606l0.477,0.446l0.479-0.443v10.884c0,0,0.033,0.537,0.057,0.89
				c-0.213,0.216-1.012,1.022-1.012,1.022V295.606z M408.268,295.606v12.799c0,0-0.799-0.807-1.01-1.022
				c0.023-0.353,0.055-0.89,0.055-0.89v-10.884l0.479,0.443L408.268,295.606z M392.764,295.609v12.39
				c0,0.35-0.641,1.165-0.949,1.353v-13.739l0.471,0.44L392.764,295.609z M408.539,295.609l0.477,0.443l0.473-0.44v13.739
				c-0.311-0.188-0.949-1.003-0.949-1.353V295.609z M396.692,305.343c0,0-0.457,0.929-0.635,1.097c0,0,0.119,0.014,0.254,0.014
				c-0.084,0.119-0.721,1.037-0.92,1.381c-0.188,0.324-0.32,0.182-0.607,0.182c-0.236,0-0.777,0.378-0.867,0.531
				c-0.092,0.162-0.162,0.358-0.162,0.521c0,0.176,0.188,0.42,0.188,0.42c0.02-0.085,0.057-0.116,0.057-0.116
				s0.494,0.616,0.568,0.696c0.055,0.062,0.307,0.104,0.398,0.022c0.221-0.201,0.438-0.344,0.635-0.637
				c0.104-0.15,0.111-0.323,0.227-0.485c0.395-0.54,1.174-1.577,1.354-1.815c0.012,0.068,0.021,0.122,0.033,0.19
				c0.203-0.409,1.176-1.19,1.176-1.19l-0.27-0.176c0,0-0.588,0.682-0.777,0.81c0,0-0.082-0.339-0.129-0.461
				c0,0-0.225,0.171-0.348,0.174c0,0-0.037-0.23-0.064-0.381c-0.154,0.103-0.412,0.082-0.412,0.082
				c0.225-0.107,0.494-0.764,0.494-0.764L396.692,305.343L396.692,305.343z M404.609,305.343l-0.191,0.094
				c0,0,0.27,0.656,0.494,0.764c0,0-0.256,0.021-0.412-0.082c-0.027,0.15-0.062,0.381-0.062,0.381
				c-0.125-0.003-0.35-0.174-0.35-0.174c-0.047,0.122-0.129,0.461-0.129,0.461c-0.189-0.128-0.777-0.81-0.777-0.81l-0.27,0.176
				c0,0,0.973,0.781,1.176,1.19c0.012-0.068,0.021-0.122,0.033-0.19c0.18,0.238,0.961,1.275,1.354,1.815
				c0.115,0.162,0.125,0.335,0.227,0.485c0.197,0.293,0.414,0.436,0.637,0.637c0.088,0.082,0.34,0.04,0.396-0.022
				c0.074-0.08,0.566-0.696,0.566-0.696s0.037,0.031,0.057,0.116c0,0,0.189-0.244,0.189-0.42c0-0.162-0.07-0.358-0.164-0.521
				c-0.088-0.153-0.627-0.531-0.867-0.531c-0.285,0-0.416,0.143-0.604-0.182c-0.201-0.344-0.838-1.262-0.922-1.381
				c0.137,0,0.256-0.014,0.256-0.014C405.068,306.271,404.609,305.343,404.609,305.343 M396.627,306.391
				c0,0-0.004,0.315,0.096,0.427l0.348-0.239c0,0,0.021,0.114,0.053,0.273c-0.15,0.204-1.004,1.369-1.428,1.94
				c-0.105,0.142-0.193,0.503-0.193,0.503s-0.154-0.074-0.154-0.205s0.018-0.284,0.018-0.284s-0.117,0.131-0.314,0.131
				c0-0.159,0.307-0.329,0.32-0.557c-0.236,0.173-0.441,0.085-0.711,0.167c-0.295,0.092-0.377,0.217-0.469,0.211
				c-0.053-0.003-0.102-0.094-0.082-0.15c0.037-0.1,0.404-0.37,0.66-0.418c0.059-0.012,0.541,0.105,0.637-0.046
				c0.4-0.616,1.049-1.616,1.111-1.713C396.559,306.419,396.598,306.411,396.627,306.391 M404.674,306.391
				c0.029,0.021,0.066,0.028,0.109,0.04c0.062,0.097,0.711,1.097,1.111,1.713c0.096,0.151,0.578,0.034,0.639,0.046
				c0.256,0.048,0.623,0.318,0.656,0.418c0.02,0.057-0.027,0.147-0.082,0.15c-0.09,0.006-0.172-0.119-0.467-0.211
				c-0.271-0.082-0.475,0.006-0.711-0.167c0.014,0.228,0.32,0.397,0.32,0.557c-0.199,0-0.312-0.131-0.312-0.131
				s0.016,0.153,0.016,0.284s-0.154,0.205-0.154,0.205s-0.088-0.361-0.193-0.503c-0.424-0.571-1.279-1.736-1.428-1.94
				c0.029-0.159,0.053-0.273,0.053-0.273l0.348,0.239C404.678,306.706,404.674,306.391,404.674,306.391 M399.407,306.621
				c0,0-1.902,4.366-3.586,5.04c0,0,0.732,0.312,1.633,0.781c0.135,0.068,0.268,0.142,0.404,0.216
				c0.113-0.137,0.234-0.29,0.352-0.449c0.539-0.719,1.066-1.554,1.066-1.554c0.037,0.216-0.248,0.887-0.73,1.713
				c-0.094,0.162-0.193,0.333-0.301,0.506c0.121,0.068,0.24,0.14,0.363,0.213c0.893,0.537,1.73,1.154,2.043,1.722
				c0.309-0.567,1.146-1.185,2.041-1.722c0.121-0.073,0.242-0.145,0.365-0.213c-0.109-0.173-0.209-0.344-0.305-0.506
				c-0.48-0.826-0.766-1.497-0.727-1.713c0,0,0.525,0.835,1.064,1.554c0.117,0.159,0.236,0.312,0.35,0.449
				c0.137-0.074,0.273-0.147,0.404-0.216c0.902-0.469,1.637-0.781,1.637-0.781c-1.689-0.674-3.59-5.04-3.59-5.04l-0.279,0.082
				c0,0,1.516,3.773,2.998,4.915c-0.338,0.103-0.732,0.247-1.139,0.421c-0.494-0.58-1.006-1.361-1.422-2.055
				c-0.449-0.752-0.816-2.067-0.816-2.067c-0.207,0.505,0.236,3.045,1.131,4.65c-0.742,0.387-1.398,0.801-1.712,1.145
				c-0.316-0.344-0.975-0.758-1.713-1.145c0.893-1.605,1.338-4.146,1.129-4.65c0,0-0.369,1.315-0.816,2.067
				c-0.416,0.693-0.928,1.475-1.422,2.055c-0.408-0.174-0.803-0.318-1.139-0.421c1.48-1.142,2.998-4.915,2.998-4.915
				L399.407,306.621z M394.442,308.718c0.014,0.003,0.027,0.009,0.037,0.022c0.02,0.021,0.018,0.055-0.002,0.071l-0.156,0.137
				c-0.023,0.02-0.055,0.014-0.074-0.009c-0.02-0.02-0.018-0.054,0.002-0.071l0.156-0.139
				C394.417,308.721,394.428,308.718,394.442,308.718 M406.859,308.718c0.012,0,0.027,0.003,0.037,0.012l0.156,0.139
				c0.021,0.018,0.023,0.052,0.002,0.071c-0.018,0.022-0.053,0.028-0.072,0.009l-0.156-0.137c-0.021-0.017-0.023-0.051-0.002-0.071
				C406.832,308.727,406.846,308.721,406.859,308.718 M394.608,308.857c0.039-0.003,0.078,0.014,0.109,0.048
				c0.047,0.054,0.043,0.131-0.006,0.173l-0.381,0.333c-0.051,0.042-0.129,0.037-0.178-0.021c-0.047-0.054-0.043-0.133,0.006-0.176
				l0.381-0.329C394.559,308.868,394.584,308.857,394.608,308.857 M406.662,308.857c0.01-0.003,0.021,0,0.031,0
				c0.023,0,0.049,0.011,0.068,0.028l0.381,0.329c0.051,0.043,0.053,0.122,0.004,0.176c-0.045,0.058-0.125,0.062-0.176,0.021
				l-0.381-0.333c-0.051-0.042-0.053-0.119-0.006-0.173C406.605,308.877,406.633,308.862,406.662,308.857 M394.823,309.115
				c0.041-0.003,0.084,0.015,0.113,0.046c0.047,0.054,0.043,0.131-0.006,0.176l-0.385,0.333c-0.049,0.042-0.125,0.033-0.172-0.021
				s-0.045-0.134,0.004-0.176l0.381-0.33C394.778,309.127,394.801,309.115,394.823,309.115 M406.445,309.115
				c0.012-0.003,0.023-0.003,0.031,0c0.023,0,0.047,0.012,0.066,0.028l0.381,0.33c0.049,0.042,0.053,0.122,0.004,0.176
				c-0.045,0.054-0.123,0.062-0.172,0.021l-0.385-0.333c-0.049-0.045-0.053-0.122-0.006-0.176
				C406.387,309.136,406.418,309.118,406.445,309.115 M395.067,309.368c0.041-0.006,0.08,0.009,0.111,0.043
				c0.045,0.054,0.043,0.134-0.006,0.176l-0.383,0.333c-0.049,0.042-0.125,0.033-0.174-0.021c-0.047-0.054-0.045-0.131,0.002-0.173
				l0.387-0.336C395.022,309.377,395.045,309.368,395.067,309.368 M406.203,309.368c0.01-0.003,0.021-0.003,0.031,0
				c0.023,0,0.045,0.009,0.062,0.022l0.387,0.336c0.049,0.042,0.049,0.119,0,0.173c-0.045,0.054-0.121,0.062-0.172,0.021
				l-0.381-0.333c-0.053-0.042-0.055-0.122-0.006-0.176C406.146,309.386,406.172,309.371,406.203,309.368"/>
			<polygon clip-path="url(#SVGID_4_)" fill="#010101" points="395.45,309.57 396.338,310.053 396.122,311.042 395.233,310.559 			
				"/>
			<path clip-path="url(#SVGID_4_)" fill="#010101" d="M391.317,300.098l-0.318,0.146l3.611,7.912h0.383L391.317,300.098z
				 M395.579,309.428l-0.262,0.271l0.164,0.36l0.316-0.147L395.579,309.428z"/>
			<polygon clip-path="url(#SVGID_4_)" fill="#F3EB38" points="395.577,309.852 396.127,310.149 395.995,310.764 395.442,310.462 
							"/>
			<path clip-path="url(#SVGID_4_)" fill="#010101" d="M392.44,306.334c0,0,0.303,0.631,0.537,0.716
				c-0.119-0.034-0.51,0.108-0.51,0.108s0.686,0.613,1.266,0.653c0.494,0.034,0.732-0.21,0.732-0.21l-0.1-0.523
				c0,0-0.301-0.363-0.783-0.534C393.096,306.377,392.44,306.334,392.44,306.334"/>
			<path clip-path="url(#SVGID_4_)" fill="#010101" d="M394.733,305.209c0,0-0.418,0.361-0.533,0.775
				c-0.115,0.418,0.074,0.893,0.074,0.893l0.354,0.659c0,0,0.488-0.262,0.697-0.651c0.209-0.389,0.133-0.914,0.133-0.914
				s-0.389,0.145-0.438,0.207C395.102,305.746,394.733,305.209,394.733,305.209"/>
			<path clip-path="url(#SVGID_4_)" fill="#010101" d="M393.385,305.041c0,0-0.479,0.162-0.943,0.134
				c-0.443-0.028-0.809-0.397-0.809-0.397s0.365-0.247,0.547-0.216c-0.199-0.074-0.488-0.571-0.488-0.571s0.41-0.122,0.773,0.014
				c0.363,0.137,0.682,0.534,0.682,0.534L393.385,305.041z"/>
			<path clip-path="url(#SVGID_4_)" fill="#010101" d="M393.547,302.709c0,0,0.238,0.491,0.184,0.665
				c0.074-0.114,0.355-0.293,0.355-0.293s0.168,0.801,0.006,1.296c-0.162,0.494-0.656,0.685-0.656,0.685l-0.545-1.06
				c0,0-0.08-0.393,0.09-0.705C393.151,302.987,393.547,302.709,393.547,302.709L393.547,302.709z"/>
			<path clip-path="url(#SVGID_4_)" fill="#010101" d="M390.438,301.396c0,0,0.518-0.054,0.99,0.142
				c0.395,0.165,0.516,0.464,0.516,0.464l0.195,0.52c0,0-0.562,0.213-1.006,0.051c-0.445-0.162-0.771-0.695-0.771-0.695
				s0.311-0.117,0.428-0.074C390.618,301.729,390.438,301.396,390.438,301.396"/>
			<path clip-path="url(#SVGID_4_)" fill="#010101" d="M392.063,300.428c0,0,0.227,0.292,0.234,0.628
				c0.061-0.18,0.342-0.375,0.342-0.375s0.291,0.704,0.229,1.204c-0.064,0.5-0.482,0.796-0.482,0.796l-0.523-0.992
				c0,0-0.17-0.406-0.119-0.722C391.792,300.652,392.063,300.428,392.063,300.428"/>
			<path clip-path="url(#SVGID_4_)" fill="#010101" d="M390.274,298.532c0,0-0.094,0.54,0.066,0.853
				c0.143,0.275,0.232,0.338,0.232,0.338c-0.271-0.179-0.682-0.195-0.682-0.195s0.146,0.588,0.496,0.854
				c0.35,0.271,0.887,0.208,0.887,0.208s0.354-0.472,0.33-0.98c-0.025-0.509-0.43-1.052-0.43-1.052s-0.158,0.33-0.172,0.577
				C390.899,298.879,390.274,298.532,390.274,298.532z"/>
			<path clip-path="url(#SVGID_4_)" fill="#2A6038" d="M390.434,298.862c0,0-0.014,0.395,0.115,0.616
				c0.131,0.225,0.422,0.315,0.422,0.315s0.014-0.395-0.117-0.619C390.725,298.95,390.434,298.862,390.434,298.862"/>
			<path clip-path="url(#SVGID_4_)" fill="#2A6038" d="M390.161,299.754c0,0,0.342,0.021,0.541,0.171
				c0.197,0.153,0.275,0.469,0.275,0.469s-0.229,0.022-0.428-0.128C390.352,300.112,390.161,299.754,390.161,299.754"/>
			<path clip-path="url(#SVGID_4_)" fill="#2A6038" d="M391.237,298.956c0,0-0.115,0.264-0.102,0.545s0.176,0.597,0.176,0.597
				s0.15-0.338,0.137-0.619S391.274,299.038,391.237,298.956"/>
			<path clip-path="url(#SVGID_4_)" fill="#2A6038" d="M390.659,301.496c0,0,0.168,0.235,0.428,0.363s0.646,0.134,0.646,0.134
				s-0.193-0.25-0.453-0.378C391.018,301.487,390.659,301.496,390.659,301.496"/>
			<path clip-path="url(#SVGID_4_)" fill="#2A6038" d="M390.743,302.044c0,0,0.123,0.241,0.35,0.347
				c0.227,0.103,0.689,0.094,0.689,0.094s-0.178-0.225-0.404-0.329C391.153,302.053,390.743,302.044,390.743,302.044"/>
			<path clip-path="url(#SVGID_4_)" fill="#2A6038" d="M392.045,300.751c0,0-0.137,0.225-0.123,0.475
				c0.012,0.25,0.176,0.523,0.176,0.523s0.113-0.312,0.104-0.563C392.186,300.938,392.045,300.751,392.045,300.751"/>
			<path clip-path="url(#SVGID_4_)" fill="#2A6038" d="M392.547,301.069c0,0-0.232,0.315-0.268,0.637
				c-0.031,0.324,0.135,0.656,0.135,0.656s0.281-0.284,0.316-0.608C392.764,301.434,392.547,301.069,392.547,301.069"/>
			<path clip-path="url(#SVGID_4_)" fill="#2A6038" d="M391.903,304.053c0,0,0.027,0.113,0.127,0.238
				c0.098,0.122,0.266,0.253,0.266,0.253s0.162-0.051,0.359-0.008c0.203,0.042,0.469,0.221,0.469,0.221s-0.287-0.429-0.584-0.594
				C392.239,303.996,391.903,304.053,391.903,304.053"/>
			<path clip-path="url(#SVGID_4_)" fill="#2A6038" d="M391.874,304.788c0,0,0.373-0.158,0.68-0.116
				c0.307,0.04,0.582,0.281,0.582,0.281s-0.414,0.146-0.721,0.103C392.108,305.016,391.874,304.788,391.874,304.788"/>
			<path clip-path="url(#SVGID_4_)" fill="#2A6038" d="M393.446,303.059c0,0-0.328,0.35-0.355,0.65
				c-0.029,0.304,0.268,0.585,0.268,0.585s-0.016-0.193,0.037-0.321c0.049-0.127,0.156-0.264,0.156-0.264s0.047-0.156,0.027-0.281
				C393.555,303.252,393.446,303.059,393.446,303.059"/>
			<path clip-path="url(#SVGID_4_)" fill="#2A6038" d="M393.92,303.462c0,0-0.312,0.315-0.393,0.65
				c-0.082,0.335,0.062,0.693,0.062,0.693s0.283-0.222,0.365-0.557C394.038,303.91,393.92,303.462,393.92,303.462"/>
			<path clip-path="url(#SVGID_4_)" fill="#2A6038" d="M394.696,305.487c0,0,0.141,0.296,0.176,0.54
				c0.037,0.244,0.002,0.329,0.002,0.329s-0.145,0.143-0.209,0.228c-0.082,0.108-0.098,0.307-0.098,0.307s-0.289-0.435-0.246-0.753
				C394.366,305.822,394.696,305.487,394.696,305.487"/>
			<path clip-path="url(#SVGID_4_)" fill="#2A6038" d="M395.311,306.166c0,0-0.375,0.248-0.521,0.5
				c-0.148,0.253-0.072,0.515-0.072,0.515s0.268-0.025,0.416-0.278C395.28,306.649,395.311,306.166,395.311,306.166"/>
			<path clip-path="url(#SVGID_4_)" fill="#2A6038" d="M392.858,307.209c0,0,0.537-0.014,0.865,0.068
				c0.33,0.079,0.449,0.256,0.449,0.256s-0.369,0.173-0.699,0.091C393.145,307.544,392.858,307.209,392.858,307.209"/>
			<path clip-path="url(#SVGID_4_)" fill="#2A6038" d="M392.766,306.57c0,0,0.242,0.377,0.557,0.514
				c0.432,0.188,0.932,0.097,0.932,0.097s-0.27-0.332-0.645-0.48C393.235,306.553,392.766,306.57,392.766,306.57"/>
			<path clip-path="url(#SVGID_4_)" fill="#010101" d="M394.493,307.578l0.016,0.193c0.32,0.003,0.369-0.028,0.451,0.071
				c0.055,0.068,0.186,0.128,0.318,0.068c0.131-0.06,0.189-0.219,0.129-0.35c-0.059-0.131-0.18-0.162-0.299-0.137
				c-0.072,0.015-0.119,0.071-0.182,0.103C394.811,307.587,394.493,307.578,394.493,307.578"/>
			<path clip-path="url(#SVGID_4_)" fill="#F3EB38" d="M395.297,307.609l0.004,0.003c0.031,0.071,0,0.156-0.074,0.188
				c-0.072,0.034-0.156,0.003-0.188-0.068c0-0.002,0-0.002,0-0.002c-0.033-0.071-0.002-0.156,0.07-0.188
				C395.18,307.508,395.266,307.539,395.297,307.609L395.297,307.609z"/>
			<path clip-path="url(#SVGID_4_)" fill="#010101" d="M394.465,307.428l0.156,0.116c-0.168,0.276-0.219,0.299-0.178,0.424
				c0.029,0.082,0.01,0.222-0.111,0.301c-0.121,0.083-0.285,0.049-0.365-0.073c-0.078-0.119-0.039-0.239,0.043-0.324
				c0.051-0.057,0.123-0.065,0.184-0.1C394.305,307.703,394.465,307.428,394.465,307.428"/>
			<path clip-path="url(#SVGID_4_)" fill="#F3EB38" d="M394.067,308.13c0,0,0,0,0,0.003c0.043,0.065,0.133,0.082,0.199,0.039
				c0.066-0.045,0.082-0.133,0.039-0.198l0,0l0,0c-0.043-0.065-0.133-0.086-0.197-0.043
				C394.042,307.977,394.024,308.064,394.067,308.13L394.067,308.13z"/>
			<path clip-path="url(#SVGID_4_)" fill="#010101" d="M393.375,305.13l0.014,0.192c0.322,0.003,0.369-0.031,0.453,0.071
				c0.055,0.068,0.186,0.128,0.316,0.068s0.189-0.219,0.131-0.35c-0.061-0.134-0.182-0.162-0.301-0.139
				c-0.072,0.014-0.121,0.073-0.18,0.104C393.692,305.138,393.375,305.13,393.375,305.13"/>
			<path clip-path="url(#SVGID_4_)" fill="#F3EB38" d="M394.18,305.161L394.18,305.161c0.033,0.073,0,0.159-0.07,0.19
				c-0.07,0.033-0.156,0-0.189-0.071l0,0l0,0c-0.031-0.071,0-0.156,0.07-0.188C394.061,305.059,394.149,305.09,394.18,305.161
				L394.18,305.161z"/>
			<path clip-path="url(#SVGID_4_)" fill="#010101" d="M393.442,305.197l0.137,0.137c-0.211,0.244-0.266,0.262-0.242,0.39
				c0.014,0.085-0.025,0.224-0.158,0.284c-0.133,0.06-0.289,0-0.35-0.131c-0.059-0.131-0.002-0.242,0.094-0.315
				c0.057-0.046,0.133-0.046,0.195-0.068C393.241,305.442,393.442,305.197,393.442,305.197"/>
			<path clip-path="url(#SVGID_4_)" fill="#F3EB38" d="M392.94,305.828L392.94,305.828c0.031,0.071,0.115,0.103,0.188,0.071
				c0.072-0.034,0.104-0.119,0.07-0.19l0,0l0,0c-0.033-0.071-0.115-0.103-0.189-0.071c-0.072,0.034-0.104,0.12-0.072,0.188
				C392.94,305.828,392.94,305.828,392.94,305.828L392.94,305.828z"/>
			<path clip-path="url(#SVGID_4_)" fill="#010101" d="M392.292,302.834l0.014,0.196c0.322,0.003,0.371-0.028,0.453,0.07
				c0.055,0.068,0.186,0.128,0.318,0.068c0.131-0.062,0.189-0.219,0.129-0.35c-0.059-0.133-0.182-0.159-0.301-0.139
				c-0.072,0.017-0.119,0.073-0.182,0.104C392.608,302.846,392.292,302.834,392.292,302.834"/>
			<path clip-path="url(#SVGID_4_)" fill="#F3EB38" d="M393.096,302.871L393.096,302.871c0.033,0.07,0.002,0.153-0.07,0.188
				c-0.07,0.034-0.154,0-0.189-0.071l0,0l0,0c-0.031-0.071,0-0.156,0.072-0.19c0.07-0.031,0.156,0,0.188,0.071V302.871
				L393.096,302.871z"/>
			<path clip-path="url(#SVGID_4_)" fill="#010101" d="M392.379,302.794l0.137,0.14c-0.207,0.244-0.264,0.258-0.242,0.389
				c0.018,0.086-0.025,0.222-0.156,0.281c-0.131,0.062-0.289,0.003-0.35-0.131c-0.059-0.13,0-0.241,0.094-0.314
				c0.059-0.046,0.133-0.043,0.197-0.068C392.18,303.041,392.379,302.794,392.379,302.794"/>
			<path clip-path="url(#SVGID_4_)" fill="#F3EB38" d="M391.877,303.425h0.002c0.031,0.074,0.117,0.105,0.188,0.071
				c0.072-0.031,0.104-0.117,0.072-0.188l0,0c-0.033-0.074-0.117-0.105-0.189-0.074
				C391.877,303.269,391.846,303.354,391.877,303.425L391.877,303.425L391.877,303.425z"/>
			<path clip-path="url(#SVGID_4_)" fill="#010101" d="M391.135,300.416l0.018,0.193c0.32,0.003,0.369-0.031,0.451,0.071
				c0.055,0.067,0.186,0.128,0.318,0.067c0.131-0.062,0.189-0.219,0.127-0.349c-0.059-0.134-0.182-0.162-0.297-0.14
				c-0.074,0.015-0.119,0.074-0.182,0.105C391.454,300.425,391.135,300.416,391.135,300.416"/>
			<path clip-path="url(#SVGID_4_)" fill="#F3EB38" d="M391.942,300.447v0.003c0.035,0.071,0.002,0.156-0.07,0.188
				c-0.072,0.034-0.154,0-0.188-0.071l0,0l0,0c-0.035-0.07-0.004-0.156,0.068-0.188
				C391.827,300.345,391.909,300.376,391.942,300.447L391.942,300.447z"/>
			<path clip-path="url(#SVGID_4_)" fill="#010101" d="M391.227,300.373l0.135,0.14c-0.207,0.244-0.264,0.259-0.24,0.39
				c0.014,0.085-0.025,0.221-0.156,0.281c-0.133,0.062-0.291,0.002-0.35-0.128c-0.061-0.134-0.004-0.245,0.092-0.318
				c0.059-0.046,0.133-0.043,0.197-0.068C391.028,300.621,391.227,300.373,391.227,300.373"/>
			<path clip-path="url(#SVGID_4_)" fill="#F3EB38" d="M390.723,301.004L390.723,301.004c0.035,0.071,0.119,0.105,0.191,0.071
				c0.07-0.031,0.102-0.116,0.068-0.19l0,0l0,0c-0.031-0.071-0.115-0.103-0.188-0.068
				C390.723,300.848,390.692,300.934,390.723,301.004L390.723,301.004"/>
			<path clip-path="url(#SVGID_4_)" fill="#F3EB38" d="M393.17,304.553c-0.115,0.048-0.287-0.452-0.412-0.728
				c-0.129-0.284-0.391-0.719-0.316-0.753c0.082-0.037,0.188,0.19,0.322,0.48C392.895,303.843,393.28,304.51,393.17,304.553"/>
			<path clip-path="url(#SVGID_4_)" fill="#F3EB38" d="M391.985,301.908c-0.115,0.048-0.242-0.282-0.367-0.558
				c-0.127-0.281-0.254-0.479-0.178-0.514c0.078-0.037,0.201,0.21,0.307,0.44C391.848,301.501,392.092,301.862,391.985,301.908"/>
			<path clip-path="url(#SVGID_4_)" fill="#F3EB38" d="M394.727,307.908c-0.09,0.022-0.484-0.805-0.805-1.506
				c-0.32-0.699-0.559-1.265-0.482-1.299c0.08-0.036,0.34,0.623,0.658,1.324C394.417,307.127,394.795,307.888,394.727,307.908"/>
			<polygon clip-path="url(#SVGID_4_)" fill="#2F5AA1" points="395.426,299.979 395.442,304.24 395.754,304.746 397.739,305.843 
				400.278,307.008 400.61,307.354 402.801,306.155 405.375,304.937 405.863,304.189 405.863,299.996 			"/>
			<path clip-path="url(#SVGID_4_)" fill="#C1202D" d="M395.303,294.848l0.133,0.387l-0.031,4.892l0.184,0.205l1.504,0.179
				l1.631-0.238c0,0,0.947,0.145,1.598,0.247c0,0.003,0.02,0.097,0.02,0.097s0.238-0.037,0.312-0.046
				c0.074,0.009,0.307,0.046,0.307,0.046s0.02-0.094,0.02-0.097c0.654-0.103,1.599-0.247,1.599-0.247l1.631,0.238l1.506-0.179
				l0.182-0.205l-0.031-4.892l0.135-0.387l-1.805,0.014c0,0-2.062,0.021-3.542,0.037c-1.48-0.017-3.545-0.037-3.545-0.037
				L395.303,294.848L395.303,294.848z"/>
			<polygon clip-path="url(#SVGID_4_)" fill="#F3EB38" points="395.827,300.303 396.639,299.984 397.204,299.541 397.598,299.959 
				398.385,300.279 397.747,300.646 397.178,301.141 396.686,300.771 			"/>
			<polygon clip-path="url(#SVGID_4_)" fill="#F3EB38" points="404.094,299.563 403.725,299.959 402.936,300.279 403.674,300.746 
				404.141,301.166 404.658,300.746 405.494,300.328 404.635,299.984 			"/>
			<polygon clip-path="url(#SVGID_4_)" fill="#F3EB38" points="400.649,295.529 400.403,296.269 399.688,295.925 400.008,296.638 
				399.319,296.907 400.008,297.154 399.713,297.867 400.377,297.523 400.649,298.263 400.92,297.523 401.582,297.819 
				401.287,297.154 401.977,296.907 401.312,296.615 401.607,295.898 400.92,296.242 			"/>
			<polygon clip-path="url(#SVGID_4_)" fill="#F3EB38" points="402.541,295.407 402.764,296.194 403.109,297.203 403.158,298.163 
				402.764,298.851 402.051,299.146 401.656,299.271 401.189,299.024 400.672,299.342 400.108,298.998 399.639,299.319 
				399.344,299.123 398.829,299.05 398.239,298.433 398.114,297.325 398.829,295.359 397.942,296.072 397.178,297.104 
				397.178,298.459 397.721,299.368 398.704,300.01 398.975,300.081 398.508,300.941 399.319,301.188 399.739,301.606 
				399.959,302.444 399.911,304.24 399.665,304.658 399.124,305.027 399.098,305.371 399.688,305.74 400.204,306.158 
				400.969,306.184 401.633,305.718 402.197,305.396 402.051,304.905 401.459,304.437 401.338,303.01 401.508,301.584 
				402.369,301.041 402.812,300.894 402.346,300.01 403.059,299.763 403.846,299.072 404.215,297.694 403.994,296.859 
				403.453,296.169 			"/>
			<polygon clip-path="url(#SVGID_4_)" fill="#F3EB38" points="399.172,301.569 399.516,301.913 399.198,302.234 398.864,301.902 
							"/>
			<polygon clip-path="url(#SVGID_4_)" fill="#F3EB38" points="402.135,301.532 401.791,301.891 402.1,302.223 402.469,301.902 			
				"/>
			<polygon clip-path="url(#SVGID_4_)" fill="#F3EB38" points="402.383,302.444 401.766,302.59 401.607,302.947 401.596,303.934 
				401.854,304.484 402.197,304.632 402.148,303.343 			"/>
			<polygon clip-path="url(#SVGID_4_)" fill="#F3EB38" points="398.926,302.456 399.147,303.55 399.147,304.609 399.456,304.388 
				399.665,303.908 399.702,303.072 399.542,302.566 			"/>
			<polygon clip-path="url(#SVGID_4_)" fill="#F3EB38" points="404.572,303.328 403.857,302.984 403.17,303.132 402.812,303.55 
				402.775,304.226 403.281,304.819 403.402,304.854 403.391,304.215 403.932,303.476 			"/>
			<polygon clip-path="url(#SVGID_4_)" fill="#F3EB38" points="397.782,303.096 397.708,302.8 397.327,302.578 397.008,302.703 
				396.846,303.035 396.934,303.328 396.602,303.294 396.333,303.55 396.293,303.894 396.479,304.115 396.737,304.203 
				396.885,304.191 396.76,304.499 396.86,304.806 397.167,304.979 397.51,304.891 397.696,304.547 397.991,304.743 
				398.348,304.669 398.583,304.314 398.422,303.981 398.249,303.846 398.495,303.712 398.594,303.306 398.26,302.925 
				397.942,302.973 			"/>
			<path clip-path="url(#SVGID_4_)" fill="#010101" d="M398.854,295.123c-0.051,0.361-1.865,1.111-1.865,2.619
				c0,1.936,1.809,2.393,1.809,2.393l-0.074,0.137l-0.441,0.801c0,0,0.748,0.037,1.145,0.375c0.48,0.409,0.434,1.273,0.434,1.9
				c0,0.498-0.062,1.021-0.318,1.236c-0.34,0.29-0.572,0.312-0.572,0.65c0,0.284,0.219,0.341,0.572,0.528
				c0.453,0.239,0.432,0.56,1.109,0.56c0.673,0,0.656-0.32,1.109-0.56c0.355-0.188,0.572-0.244,0.572-0.528
				c0-0.338-0.23-0.36-0.572-0.65c-0.256-0.216-0.318-0.738-0.318-1.236c0-0.627-0.045-1.491,0.434-1.9
				c0.396-0.338,1.145-0.375,1.145-0.375l-0.441-0.801l-0.074-0.137c0,0,1.809-0.457,1.809-2.393c0-1.508-1.812-2.258-1.865-2.619
				c-0.178,0.625,0.605,1.486,0.605,2.506c0,1.318-0.973,1.381-0.973,1.381c-0.229,0-0.32,0.165-0.41,0.165
				c-0.191-0.021-0.281-0.265-0.473-0.265c-0.176,0-0.312,0.275-0.546,0.275c-0.236,0-0.369-0.275-0.549-0.275
				c-0.189,0-0.279,0.244-0.471,0.265c-0.09,0-0.18-0.165-0.41-0.165c0,0-0.973-0.062-0.973-1.381
				C398.249,296.609,399.032,295.748,398.854,295.123 M402.578,300.271c0,0,1.217,0.534,1.535,0.991
				c0.691-0.522,1.602-0.932,1.602-0.932s-0.871-0.228-1.602-0.884C403.695,299.998,402.578,300.271,402.578,300.271
				 M398.723,300.271c0,0-1.117-0.273-1.535-0.824c-0.729,0.656-1.6,0.884-1.6,0.884s0.908,0.409,1.6,0.932
				C397.508,300.806,398.723,300.271,398.723,300.271 M400.651,295.257l-0.316,0.895l-0.855-0.409l0.406,0.858l-0.891,0.315
				l0.891,0.318l-0.406,0.852l0.855-0.408l0.316,0.892l0.316-0.892l0.855,0.408l-0.408-0.852l0.893-0.318l-0.893-0.315l0.408-0.858
				l-0.855,0.409L400.651,295.257z M398.59,295.672c0.076,0.159-0.605,1.147-0.605,1.957c0,0.994,0.529,1.58,1.236,1.58
				c0.137,0,0.283,0.182,0.41,0.182c0.207,0,0.346-0.23,0.471-0.23c0.162,0,0.27,0.253,0.549,0.253c0.277,0,0.388-0.253,0.546-0.253
				c0.129,0,0.266,0.23,0.473,0.23c0.127,0,0.275-0.182,0.41-0.182c0.707,0,1.238-0.586,1.238-1.58c0-0.81-0.684-1.798-0.607-1.957
				c0,0,1.326,0.948,1.326,2.07c0,1.808-1.83,2.254-1.83,2.254l0.412,0.929c0,0-0.568,0.085-0.916,0.363
				c-0.461,0.372-0.469,1.381-0.469,2.06c0,0.805,0.031,1.146,0.32,1.361c0.305,0.23,0.537,0.281,0.537,0.515
				c0,0.204-0.238,0.286-0.547,0.423c-0.354,0.156-0.387,0.424-0.894,0.424c-0.51,0-0.541-0.268-0.893-0.424
				c-0.311-0.137-0.549-0.219-0.549-0.423c0-0.233,0.23-0.284,0.537-0.515c0.289-0.216,0.32-0.557,0.32-1.361
				c0-0.679-0.008-1.688-0.469-2.06c-0.348-0.278-0.914-0.363-0.914-0.363l0.412-0.929c0,0-1.832-0.446-1.832-2.254
				C397.264,296.62,398.59,295.672,398.59,295.672 M400.653,295.859l0.201,0.568l0.542-0.262l-0.256,0.548l0.566,0.202l-0.566,0.201
				l0.256,0.546l-0.542-0.259l-0.203,0.565l-0.203-0.565l-0.543,0.259l0.256-0.546l-0.564-0.201l0.564-0.202l-0.256-0.548
				l0.543,0.262L400.653,295.859z M397.172,299.72c0.369,0.424,0.951,0.586,0.951,0.586s-0.607,0.317-0.936,0.692v0.023
				c-0.002-0.003-0.008-0.006-0.012-0.009c-0.006,0.009-0.012,0.017-0.018,0.022c0,0,0-0.037,0-0.039
				c-0.348-0.308-1.039-0.648-1.039-0.648S396.78,300.118,397.172,299.72 M404.131,299.72c0.389,0.398,1.051,0.628,1.051,0.628
				s-0.691,0.341-1.037,0.648v0.039c-0.006-0.006-0.014-0.014-0.02-0.022c-0.004,0.003-0.01,0.006-0.012,0.009v-0.023
				c-0.326-0.375-0.936-0.692-0.936-0.692S403.76,300.144,404.131,299.72 M399.182,301.459l-0.438,0.435l0.438,0.435l0.434-0.435
				L399.182,301.459z M402.121,301.459l-0.434,0.435l0.434,0.435l0.436-0.435L402.121,301.459z M399.182,301.666l0.225,0.228
				l-0.225,0.23l-0.232-0.23L399.182,301.666z M402.121,301.666l0.23,0.228l-0.23,0.23l-0.227-0.23L402.121,301.666z
				 M398.78,302.328c0.086,0.213,0.291,0.875,0.291,1.671c0,0.548-0.055,0.838-0.055,0.838s0.613-0.179,0.736-0.802
				c0.057-0.292,0.121-1.366-0.174-1.548L398.78,302.328z M402.521,302.328l-0.797,0.159c-0.297,0.182-0.23,1.256-0.174,1.548
				c0.121,0.623,0.734,0.802,0.734,0.802s-0.055-0.29-0.055-0.838C402.23,303.203,402.438,302.541,402.521,302.328 M397.29,302.504
				c-0.035,0-0.068,0.003-0.104,0.015c-0.275,0.068-0.441,0.347-0.375,0.625c0.012,0.04,0.029,0.079,0.049,0.116
				c-0.039-0.014-0.082-0.02-0.125-0.025c-0.02,0-0.037,0-0.053,0c-0.262,0.009-0.479,0.216-0.498,0.48
				c-0.02,0.284,0.195,0.528,0.48,0.545c0.043,0.006,0.082,0.003,0.123-0.003c-0.023,0.031-0.047,0.068-0.062,0.108
				c-0.105,0.265,0.023,0.568,0.287,0.674c0.264,0.104,0.564-0.026,0.67-0.287c0.016-0.043,0.025-0.083,0.031-0.122
				c0.025,0.033,0.053,0.064,0.088,0.094c0.219,0.182,0.543,0.15,0.725-0.065c0.182-0.219,0.152-0.543-0.062-0.725
				c-0.035-0.028-0.07-0.049-0.109-0.065c0.041-0.015,0.08-0.031,0.117-0.054c0.242-0.154,0.312-0.472,0.162-0.714
				c-0.104-0.164-0.285-0.25-0.469-0.238c-0.082,0.006-0.166,0.031-0.242,0.079c-0.037,0.023-0.068,0.049-0.096,0.077
				c0-0.04-0.004-0.082-0.016-0.125C397.75,302.652,397.53,302.493,397.29,302.504 M399.059,302.569l0.43,0.091
				c0.158,0.219,0.131,0.571,0.131,1.065c0,0.497-0.373,0.688-0.373,0.688C399.247,303.218,399.125,302.931,399.059,302.569
				 M402.242,302.569c-0.064,0.361-0.189,0.648-0.189,1.844c0,0-0.371-0.19-0.371-0.688c0-0.494-0.025-0.847,0.133-1.065
				L402.242,302.569z M397.321,302.721c0.184-0.009,0.355,0.113,0.402,0.301c0.012,0.045,0.014,0.088,0.01,0.134
				c-0.004,0.034-0.014,0.067-0.025,0.099c-0.062-0.022-0.129-0.033-0.199-0.033c-0.174,0-0.328,0.076-0.436,0.198
				c-0.027-0.025-0.051-0.054-0.072-0.085c-0.021-0.037-0.043-0.074-0.053-0.119c-0.053-0.213,0.078-0.432,0.291-0.483
				C397.266,302.723,397.295,302.721,397.321,302.721 M403.729,302.885c-0.658,0-1.141,0.506-1.072,1.131
				c0.053,0.522,0.482,0.966,1.008,1.091c-0.09-0.147-0.148-0.312-0.168-0.485c-0.064-0.622,0.416-1.128,1.074-1.128
				c0.104,0,0.205,0.014,0.305,0.037C404.641,303.149,404.203,302.885,403.729,302.885 M398.124,303.027
				c0.127,0.006,0.25,0.07,0.324,0.188c0.117,0.188,0.061,0.435-0.127,0.554c-0.037,0.022-0.08,0.04-0.123,0.051
				c-0.033,0.006-0.07,0.006-0.105,0.006c0-0.006,0-0.011,0-0.017c0-0.239-0.145-0.446-0.348-0.537
				c0.014-0.034,0.031-0.068,0.057-0.097c0.025-0.034,0.057-0.062,0.094-0.085C397.965,303.047,398.045,303.024,398.124,303.027
				 M403.729,303.118c0.205,0,0.404,0.062,0.574,0.167c-0.641,0.125-1.105,0.69-1.037,1.355c-0.203-0.17-0.354-0.397-0.381-0.65
				C402.834,303.499,403.189,303.118,403.729,303.118 M396.829,303.359c0.049,0.003,0.09,0.015,0.131,0.031
				c0.031,0.015,0.062,0.034,0.088,0.054c-0.076,0.1-0.121,0.228-0.121,0.364c0,0.104,0.027,0.204,0.076,0.289
				c-0.033,0.023-0.068,0.04-0.107,0.049c-0.041,0.012-0.078,0.014-0.121,0.012c-0.221-0.015-0.389-0.205-0.373-0.427
				S396.608,303.343,396.829,303.359 M397.508,303.419c0.215,0,0.387,0.174,0.387,0.39c0,0.213-0.172,0.386-0.387,0.386
				c-0.213,0-0.387-0.173-0.387-0.386C397.122,303.593,397.295,303.419,397.508,303.419 M398.088,303.862
				c0.039,0.006,0.076,0.015,0.113,0.028c0.037,0.018,0.076,0.034,0.109,0.062c0.168,0.143,0.188,0.395,0.047,0.562
				c-0.141,0.171-0.395,0.193-0.562,0.052c-0.037-0.029-0.062-0.065-0.086-0.103c-0.018-0.031-0.027-0.062-0.039-0.097
				C397.897,304.303,398.065,304.104,398.088,303.862 M397.022,304.132c0.105,0.156,0.285,0.259,0.486,0.259
				c0.043,0,0.084-0.006,0.125-0.014c0.006,0.036,0.012,0.073,0.01,0.11c-0.004,0.043-0.01,0.082-0.023,0.125
				c-0.084,0.205-0.318,0.304-0.523,0.222c-0.207-0.082-0.307-0.318-0.225-0.522c0.018-0.04,0.039-0.077,0.066-0.108
				C396.963,304.175,396.991,304.152,397.022,304.132 M399.958,305.087c-0.361,0-0.59,0.077-0.59,0.185
				c0,0.111,0.229,0.182,0.59,0.182c0.096,0,0.203-0.054,0.203-0.182S400.053,305.087,399.958,305.087 M401.344,305.087
				c-0.094,0-0.203,0.057-0.203,0.185s0.109,0.182,0.203,0.182c0.361,0,0.59-0.07,0.59-0.182
				C401.934,305.164,401.705,305.087,401.344,305.087"/>
			<path clip-path="url(#SVGID_4_)" fill="#F3EB38" d="M394.834,294.711c0,0,0.477,0.358,0.477,0.722v7.518v1.137
				c0,0.229,0.072,0.378,0.184,0.522c0.113,0.156,0.35,0.372,0.598,0.534c0.762,0.494,2.041,1.018,3.006,1.458
				c0.807,0.366,1.133,0.514,1.553,1.031c0.416-0.518,0.746-0.665,1.552-1.031c0.967-0.44,2.242-0.964,3.006-1.458
				c0.248-0.162,0.486-0.378,0.6-0.534c0.111-0.145,0.178-0.293,0.178-0.522v-1.137v-7.518c0-0.363,0.477-0.722,0.477-0.722h-0.506
				h-0.299h-5.007h-5.01h-0.299H394.834z M395.446,294.986h0.195h5.01h5.007h0.193c0,0-0.139,0.168-0.139,0.446v7.518v1.137
				c0,0.19-0.197,0.634-1.328,1.196c-1.869,0.932-3.305,1.366-3.734,1.897c-0.432-0.531-1.869-0.966-3.736-1.897
				c-1.131-0.562-1.326-1.006-1.326-1.196v-1.137v-7.518C395.588,295.154,395.446,294.986,395.446,294.986"/>
			<path clip-path="url(#SVGID_4_)" fill="#010101" d="M400.389,289.424c0,0.168-0.182,0.307-0.404,0.307s-0.402-0.139-0.402-0.307
				c0-0.17,0.18-0.307,0.402-0.307S400.389,289.254,400.389,289.424L400.389,289.424z"/>
			<path clip-path="url(#SVGID_4_)" fill="#C1202D" d="M398.047,289.245c0,0,0.135-0.25,0.469-0.25c0.141,0,0.602-0.012,0.602-0.012
				c0.061,0.162,0.342,0.43,0.342,0.708c0,0-0.285-0.515-1.08-0.515C398.178,289.177,398.047,289.245,398.047,289.245"/>
			<path clip-path="url(#SVGID_4_)" fill="#010101" d="M399.073,289.316c0,0-0.195-0.062-0.195-0.128
				c0-0.086,0.096-0.086,0.15-0.021C399.067,289.214,399.073,289.316,399.073,289.316"/>
			<path clip-path="url(#SVGID_4_)" fill="#C1202D" d="M399.342,289.788c0,0-0.17,0.179-0.207,0.275
				c-0.166-0.062-0.461-0.366-0.461-0.366S398.922,289.842,399.342,289.788"/>
			<path clip-path="url(#SVGID_4_)" fill="#010101" d="M411.82,298.723l-0.621,0.455l0.068,0.147c0,0-0.113,0.04-0.164,0.14
				c-0.053,0.102,0.033,0.244,0.033,0.244s-0.592-0.052-0.686,0.008c-0.082,0.055,0.037,0.467-0.02,0.811
				c-0.076,0.482-0.268,0.442-0.273,0.536c-0.008,0.091,0.072,0.233,0.072,0.233s-0.109,0.034-0.135,0.082
				c-0.037,0.074,0.025,0.211-0.02,0.302c-0.258,0.506-0.637,1.253-0.889,1.744c-0.035,0.068-0.129,0.097-0.176,0.19
				c-0.045,0.085-0.01,0.21-0.01,0.21s-0.168,0.009-0.225,0.122c-0.062,0.119-0.025,0.284-0.025,0.284s-0.105,0.015-0.156,0.114
				c-0.057,0.107,0.037,0.167,0.016,0.213c-0.34,0.665-0.738,1.446-0.98,1.923c-0.088,0.174-0.402,0.208-0.584,0.565
				c-0.176,0.347,0.074,0.6,0.074,0.6s-0.262,0.022-0.328,0.162c-0.072,0.137-0.016,0.35,0.172,0.443
				c0.188,0.097,0.395,0.02,0.467-0.119c0.068-0.137-0.072-0.361-0.072-0.361s0.355,0.049,0.533-0.295
				c0.182-0.355,0.027-0.628,0.115-0.802c0.244-0.478,0.643-1.259,0.98-1.923c0.023-0.046,0.123-0.006,0.18-0.114
				c0.053-0.102,0-0.193,0-0.193s0.154-0.067,0.215-0.188c0.057-0.113-0.031-0.255-0.031-0.255s0.123-0.046,0.168-0.131
				c0.045-0.091,0.012-0.182,0.045-0.253c0.254-0.491,0.635-1.239,0.891-1.744c0.047-0.091,0.195-0.12,0.232-0.193
				c0.025-0.049-0.014-0.159-0.014-0.159s0.164-0.018,0.234-0.077c0.068-0.06-0.074-0.19,0.271-0.537
				c0.246-0.25,0.646-0.395,0.641-0.494c-0.006-0.11-0.395-0.557-0.395-0.557s0.164-0.015,0.217-0.116
				c0.051-0.1,0.016-0.219,0.016-0.219l0.162-0.028V298.723z M405.969,309.831c-0.08,0.009-0.131,0.058-0.148,0.089
				c-0.023,0.048-0.027,0.113,0,0.17c0,0-0.195-0.06-0.262-0.028c-0.064,0.031,0,0.957,0,0.957s0.781-0.494,0.77-0.565
				c-0.012-0.07-0.176-0.195-0.176-0.195c0.062-0.012,0.113-0.052,0.137-0.1c0.025-0.051,0.029-0.196-0.148-0.287
				C406.074,309.837,406.014,309.828,405.969,309.831"/>
			<path clip-path="url(#SVGID_4_)" fill="#F3EB38" d="M411.705,298.95l-0.363,0.259l0.184,0.094l0.188,0.094L411.705,298.95z
				 M411.352,299.379c-0.064,0.003-0.123,0.04-0.152,0.097c-0.049,0.094-0.002,0.213,0.102,0.268
				c0.107,0.054,0.227,0.02,0.275-0.071c0.049-0.094,0.004-0.216-0.102-0.268C411.434,299.385,411.393,299.376,411.352,299.379
				 M410.666,299.809c-0.055,0-0.096,0.002-0.104,0.008c-0.041,0.025,0.014,0.358,0.002,0.643c-0.012,0.267-0.096,0.344-0.145,0.435
				c-0.043,0.085-0.199,0.185-0.199,0.185l0.131,0.128c0,0,0.082-0.131,0.217-0.39c0.154-0.304,0.15-0.857,0.195-0.889
				c0.039-0.025,0.363-0.105,0.363-0.105S410.83,299.806,410.666,299.809 M411.232,299.885c0,0-0.34,0.062-0.389,0.111
				c-0.049,0.045-0.029,0.508-0.209,0.863c-0.148,0.295-0.225,0.403-0.225,0.403l0.092,0.049l0.094,0.045
				c0,0,0.043-0.119,0.193-0.415c0.182-0.357,0.568-0.613,0.578-0.679C411.377,300.194,411.232,299.885,411.232,299.885
				 M411.342,299.928c0,0,0.123,0.312,0.127,0.36c0.002,0.054-0.447,0.375-0.604,0.679c-0.133,0.262-0.189,0.407-0.189,0.407
				l0.18,0.028c0,0-0.012-0.186,0.031-0.271c0.047-0.094,0.059-0.204,0.27-0.369c0.223-0.176,0.523-0.332,0.523-0.378
				C411.676,300.342,411.342,299.928,411.342,299.928 M410.326,301.399c-0.057,0.006-0.096,0.039-0.121,0.085
				c-0.033,0.068-0.016,0.156-0.287,0.688c-0.117,0.233-0.166,0.327-0.293,0.577c-0.131,0.255-0.32,0.628-0.32,0.628
				s-0.064,0.116,0.057,0.179c0.119,0.06,0.172-0.062,0.172-0.062s0.191-0.369,0.322-0.625c0.127-0.25,0.176-0.347,0.295-0.583
				c0.27-0.528,0.352-0.565,0.387-0.633c0.037-0.071,0.027-0.168-0.094-0.228C410.396,301.399,410.361,301.394,410.326,301.399
				 M409.162,303.612c-0.047,0.003-0.082,0.022-0.098,0.054c-0.033,0.065,0.023,0.162,0.129,0.216
				c0.105,0.055,0.219,0.046,0.252-0.022c0.035-0.065-0.027-0.162-0.133-0.213C409.262,303.618,409.207,303.606,409.162,303.612
				 M409.006,303.934c-0.076-0.003-0.143,0.022-0.17,0.076c-0.043,0.086,0.025,0.208,0.152,0.271
				c0.127,0.065,0.266,0.048,0.311-0.034c0.041-0.086-0.027-0.208-0.154-0.273C409.098,303.95,409.051,303.937,409.006,303.934
				 M408.793,304.334c-0.047,0.006-0.084,0.022-0.1,0.057c-0.033,0.065,0.025,0.162,0.129,0.216
				c0.105,0.055,0.221,0.043,0.252-0.022c0.035-0.065-0.023-0.162-0.129-0.216C408.895,304.343,408.838,304.331,408.793,304.334
				 M408.699,304.681c-0.066,0.009-0.1,0.074-0.1,0.074s-0.682,1.344-0.922,1.815c-0.076,0.15-0.4,0.244-0.527,0.494
				c-0.129,0.25-0.037,0.482,0.131,0.568c0.164,0.085,0.41,0.022,0.537-0.225c0.127-0.25,0.014-0.568,0.09-0.719
				c0.24-0.475,0.924-1.815,0.924-1.815s0.066-0.119-0.055-0.18C408.746,304.678,408.721,304.678,408.699,304.681 M407.053,307.771
				c-0.076,0-0.145,0.037-0.178,0.1c-0.051,0.103,0.008,0.233,0.133,0.299c0.125,0.062,0.27,0.031,0.32-0.068
				c0.053-0.1-0.01-0.233-0.135-0.299C407.146,307.78,407.1,307.769,407.053,307.771 M405.969,309.922
				c-0.041,0-0.072,0.015-0.086,0.04c-0.025,0.052,0.029,0.131,0.121,0.179c0.092,0.049,0.189,0.043,0.215-0.008
				c0.027-0.052-0.025-0.131-0.119-0.18C406.053,309.931,406.006,309.92,405.969,309.922 M405.646,310.175v0.662l0.539-0.386
				c0,0-0.072-0.131-0.232-0.214C405.793,310.158,405.646,310.175,405.646,310.175"/>
			<path clip-path="url(#SVGID_4_)" fill="#F3EB38" d="M400.266,289.424c0,0.153-0.127,0.278-0.281,0.278s-0.281-0.125-0.281-0.278
				c0-0.156,0.127-0.281,0.281-0.281S400.266,289.268,400.266,289.424L400.266,289.424z"/>
			<path clip-path="url(#SVGID_4_)" fill="#010101" d="M400.114,289.424c0,0.068-0.057,0.128-0.129,0.128
				c-0.07,0-0.127-0.06-0.127-0.128c0-0.07,0.057-0.131,0.127-0.131C400.057,289.293,400.114,289.354,400.114,289.424"/>
		</g>
	</g>
</g>
</svg>
