<?xml version="1.0" encoding="utf-8"?>
<!-- Generator: Adobe Illustrator 16.0.0, SVG Export Plug-In . SVG Version: 6.00 Build 0)  -->
<!DOCTYPE svg PUBLIC "-//W3C//DTD SVG 1.1//EN" "http://www.w3.org/Graphics/SVG/1.1/DTD/svg11.dtd">
<svg version="1.1" id="name" xmlns="http://www.w3.org/2000/svg" xmlns:xlink="http://www.w3.org/1999/xlink" x="0px" y="0px"
	 width="85.711px" height="50px" viewBox="358 276 85.711 50" enable-background="new 358 276 85.711 50" xml:space="preserve">
<g id="mh">
	<g>
		<defs>
			<rect id="SVGID_1_" x="358" y="276" width="85.711" height="50"/>
		</defs>
		<clipPath id="SVGID_2_">
			<use xlink:href="#SVGID_1_"  overflow="visible"/>
		</clipPath>
		<rect x="358" y="276" clip-path="url(#SVGID_2_)" fill="#273B8C" width="85.711" height="50"/>
		<polygon clip-path="url(#SVGID_2_)" fill="#FFFFFF" points="376.254,309.755 375.613,299.112 373.381,304.979 374.377,298.782 
			370.705,303.868 373.271,298.144 368.405,302.104 372.367,297.24 366.641,299.806 371.728,296.132 365.533,297.129 
			371.396,294.896 360.756,294.257 371.396,293.614 365.533,291.382 371.728,292.379 366.641,288.705 372.367,291.273 
			368.405,286.407 373.271,290.367 370.705,284.643 374.377,289.729 373.381,283.531 375.613,289.398 376.254,278.756 
			376.893,289.398 379.127,283.531 378.129,289.729 381.804,284.643 379.235,290.367 384.103,286.407 380.142,291.273 
			385.867,288.705 380.781,292.379 386.976,291.382 381.112,293.614 391.754,294.257 381.112,294.896 386.976,297.129 
			380.781,296.132 385.867,299.806 380.142,297.24 384.103,302.104 379.235,298.144 381.804,303.868 378.129,298.782 
			379.127,304.979 376.893,299.112 		"/>
		<polygon clip-path="url(#SVGID_2_)" fill="#FFFFFF" points="358,323.603 358,325.201 443.711,296.401 443.711,276.801 		"/>
		<polygon clip-path="url(#SVGID_2_)" fill="#CD7429" points="358,323.603 358,324.4 443.711,286.6 443.711,276.801 		"/>
	</g>
</g>
</svg>
