<?xml version="1.0" encoding="utf-8"?>
<!-- Generator: Adobe Illustrator 16.0.0, SVG Export Plug-In . SVG Version: 6.00 Build 0)  -->
<!DOCTYPE svg PUBLIC "-//W3C//DTD SVG 1.1//EN" "http://www.w3.org/Graphics/SVG/1.1/DTD/svg11.dtd">
<svg version="1.1" id="name" xmlns="http://www.w3.org/2000/svg" xmlns:xlink="http://www.w3.org/1999/xlink" x="0px" y="0px"
	 width="85.713px" height="50px" viewBox="358 276 85.713 50" enable-background="new 358 276 85.713 50" xml:space="preserve">
<g id="mm">
	<g>
		<defs>
			<rect id="SVGID_1_" x="358" y="276" width="85.713" height="50"/>
		</defs>
		<clipPath id="SVGID_2_">
			<use xlink:href="#SVGID_1_"  overflow="visible"/>
		</clipPath>
		<rect x="358" y="276" clip-path="url(#SVGID_2_)" fill="#C8252B" width="85.713" height="50"/>
		<rect x="358" y="276" clip-path="url(#SVGID_2_)" fill="#34439B" width="38.976" height="24.803"/>
		<g clip-path="url(#SVGID_2_)">
			<defs>
				<rect id="SVGID_3_" x="358" y="276" width="85.713" height="50"/>
			</defs>
			<clipPath id="SVGID_4_">
				<use xlink:href="#SVGID_3_"  overflow="visible"/>
			</clipPath>
			<path clip-path="url(#SVGID_4_)" fill-rule="evenodd" clip-rule="evenodd" fill="#FFFFFF" d="M380.704,288.532
				c0,1.781-1.463,3.228-3.266,3.228c-1.804,0-3.268-1.446-3.268-3.228s1.464-3.225,3.268-3.225
				C379.241,285.308,380.704,286.751,380.704,288.532L380.704,288.532z M370.52,287.811l0.385-1.494l1.057,0.435l0.575-1.205
				l-0.912-0.576l0.912-1.253l0.865,0.866l0.962-0.866l-0.577-0.964l1.394-0.725l0.336,1.208l1.298-0.387l-0.145-1.107l1.49-0.049
				l-0.097,1.156l1.345,0.432l0.335-1.204l1.348,0.676l-0.626,1.012l1.058,0.818l0.818-0.866l0.911,1.156l-0.96,0.673l0.625,1.205
				l1.056-0.387l0.337,1.494l-1.105,0.097l-0.049,1.347l1.105,0.097l-0.335,1.543l-1.105-0.483l-0.479,1.253l0.911,0.58
				l-0.911,1.201l-0.771-0.866l-1.057,0.866l0.625,1.015l-1.396,0.673l-0.383-1.156l-1.297,0.339l0.144,1.153l-1.537,0.048
				l0.145-1.153l-1.25-0.338l-0.432,1.107l-1.299-0.673l0.625-0.966l-1.104-0.818l-0.817,0.818l-0.962-1.153l1.012-0.725
				l-0.625-1.156l-1.01,0.386l-0.432-1.494l1.2-0.097v-1.347L370.52,287.811z"/>
			<polygon clip-path="url(#SVGID_4_)" fill-rule="evenodd" clip-rule="evenodd" fill="#FFFFFF" points="378.528,280.924 
				377.484,280.208 376.436,280.918 376.808,279.725 375.795,278.972 377.069,278.949 377.492,277.772 377.906,278.952 
				379.18,278.98 378.163,279.73 			"/>
			<polygon clip-path="url(#SVGID_4_)" fill-rule="evenodd" clip-rule="evenodd" fill="#FFFFFF" points="378.385,299.032 
				377.339,298.316 376.292,299.027 376.664,297.834 375.651,297.081 376.924,297.058 377.348,295.882 377.763,297.061 
				379.035,297.089 378.019,297.839 			"/>
			<polygon clip-path="url(#SVGID_4_)" fill-rule="evenodd" clip-rule="evenodd" fill="#FFFFFF" points="382.757,281.79 
				381.712,281.077 380.663,281.784 381.037,280.594 380.023,279.836 381.297,279.815 381.72,278.64 382.135,279.818 
				383.407,279.847 382.391,280.597 			"/>
			<polygon clip-path="url(#SVGID_4_)" fill-rule="evenodd" clip-rule="evenodd" fill="#FFFFFF" points="382.612,298.26 
				381.568,297.547 380.521,298.254 380.894,297.063 379.879,296.308 381.153,296.288 381.575,295.112 381.99,296.288 
				383.265,296.319 382.247,297.066 			"/>
			<polygon clip-path="url(#SVGID_4_)" fill-rule="evenodd" clip-rule="evenodd" fill="#FFFFFF" points="374.492,281.79 
				373.448,281.077 372.4,281.784 372.772,280.594 371.76,279.836 373.033,279.815 373.455,278.64 373.87,279.818 375.146,279.847 
				374.126,280.597 			"/>
			<polygon clip-path="url(#SVGID_4_)" fill-rule="evenodd" clip-rule="evenodd" fill="#FFFFFF" points="374.348,298.066 
				373.304,297.354 372.257,298.063 372.629,296.873 371.614,296.115 372.889,296.095 373.311,294.919 373.726,296.098 
				375.001,296.126 373.982,296.873 			"/>
			<polygon clip-path="url(#SVGID_4_)" fill-rule="evenodd" clip-rule="evenodd" fill="#FFFFFF" points="371.226,284.1 
				370.181,283.387 369.133,284.094 369.505,282.903 368.492,282.148 369.767,282.125 370.188,280.952 370.603,282.128 
				371.879,282.159 370.858,282.906 			"/>
			<polygon clip-path="url(#SVGID_4_)" fill-rule="evenodd" clip-rule="evenodd" fill="#FFFFFF" points="371.226,295.273 
				370.181,294.561 369.133,295.271 369.505,294.078 368.492,293.322 369.767,293.299 370.188,292.126 370.603,293.302 
				371.879,293.333 370.858,294.08 			"/>
			<polygon clip-path="url(#SVGID_4_)" fill-rule="evenodd" clip-rule="evenodd" fill="#FFFFFF" points="369.592,287.568 
				368.546,286.853 367.499,287.563 367.871,286.373 366.858,285.617 368.131,285.595 368.555,284.418 368.97,285.597 
				370.243,285.626 369.225,286.376 			"/>
			<polygon clip-path="url(#SVGID_4_)" fill-rule="evenodd" clip-rule="evenodd" fill="#FFFFFF" points="369.592,291.421 
				368.546,290.708 367.499,291.416 367.871,290.226 366.858,289.47 368.131,289.447 368.555,288.273 368.97,289.449 
				370.243,289.479 369.225,290.229 			"/>
			<polygon clip-path="url(#SVGID_4_)" fill-rule="evenodd" clip-rule="evenodd" fill="#FFFFFF" points="383.365,284.293 
				384.41,283.58 385.459,284.287 385.087,283.097 386.1,282.341 384.825,282.318 384.402,281.146 383.987,282.321 382.715,282.35 
				383.731,283.1 			"/>
			<polygon clip-path="url(#SVGID_4_)" fill-rule="evenodd" clip-rule="evenodd" fill="#FFFFFF" points="383.655,295.467 
				384.697,294.754 385.746,295.461 385.374,294.271 386.388,293.516 385.112,293.492 384.691,292.319 384.275,293.495 
				383.001,293.526 384.02,294.273 			"/>
			<polygon clip-path="url(#SVGID_4_)" fill-rule="evenodd" clip-rule="evenodd" fill="#FFFFFF" points="385.096,287.858 
				386.14,287.143 387.188,287.853 386.815,286.66 387.83,285.907 386.554,285.884 386.132,284.708 385.718,285.887 
				384.441,285.915 385.462,286.665 			"/>
			<polygon clip-path="url(#SVGID_4_)" fill-rule="evenodd" clip-rule="evenodd" fill="#FFFFFF" points="385.384,291.614 
				386.429,290.901 387.478,291.608 387.103,290.418 388.117,289.663 386.843,289.64 386.421,288.464 386.006,289.643 
				384.731,289.671 385.75,290.421 			"/>
			<path clip-path="url(#SVGID_4_)" fill-rule="evenodd" clip-rule="evenodd" fill="#FFFFFF" d="M382.044,285.321
				c0.656,2.312,0.2,3.562,0.025,3.586c-0.223-0.097-0.238-2.455-1.188-3.058c-0.896-0.551-0.362-1.088-0.118-1.295
				C381.012,284.443,381.764,284.35,382.044,285.321L382.044,285.321z"/>
			<g clip-path="url(#SVGID_4_)">
				<path fill="#34439B" d="M382.063,288.949l-0.011-0.005c-0.09-0.037-0.133-0.25-0.219-0.725c-0.143-0.773-0.355-1.94-0.977-2.336
					c-0.323-0.198-0.498-0.417-0.516-0.653c-0.02-0.232,0.109-0.466,0.394-0.71c0.059-0.025,0.189-0.074,0.372-0.074
					c0.271,0,0.761,0.111,0.977,0.861c0.537,1.886,0.347,3.179,0.1,3.551c-0.036,0.057-0.071,0.086-0.108,0.088L382.063,288.949
					L382.063,288.949z M381.107,284.529c-0.172,0-0.294,0.048-0.328,0.062c-0.251,0.219-0.37,0.429-0.354,0.633
					c0.017,0.205,0.178,0.403,0.478,0.589c0.651,0.414,0.869,1.604,1.014,2.392c0.051,0.278,0.108,0.591,0.159,0.653
					c0.01-0.008,0.025-0.022,0.046-0.057c0.154-0.25,0.463-1.423-0.117-3.469C381.803,284.634,381.356,284.529,381.107,284.529
					L381.107,284.529z"/>
			</g>
			<path clip-path="url(#SVGID_4_)" fill-rule="evenodd" clip-rule="evenodd" fill="#FFFFFF" d="M379.547,288.333
				c-1.681,3.818-1.033,6.406-1.674,6.387c-0.659,0.009-0.832-2.375,0.385-6.361c1.536-5.012,3.489-4.594,3.727-3.19
				C380.691,285.779,380.516,285.93,379.547,288.333L379.547,288.333z"/>
			<g clip-path="url(#SVGID_4_)">
				<path fill="#34439B" d="M377.881,294.763h-0.008l0,0c-0.11,0-0.207-0.055-0.287-0.162c-0.436-0.591-0.423-2.799,0.631-6.256
					c0.796-2.597,1.867-4.148,2.861-4.148c0.478,0,0.848,0.378,0.946,0.963c-1.302,0.651-1.475,0.799-2.438,3.191
					c-0.984,2.232-1.17,4.065-1.281,5.159C378.223,294.316,378.178,294.763,377.881,294.763L377.881,294.763z M381.078,284.281
					c-0.358,0-1.618,0.296-2.778,4.089c-1.002,3.275-1.083,5.588-0.646,6.18c0.063,0.085,0.138,0.13,0.217,0.13h0.011
					c0.22,0,0.266-0.442,0.341-1.179c0.112-1.1,0.298-2.938,1.288-5.185c0.975-2.421,1.15-2.568,2.455-3.188
					C381.851,284.631,381.512,284.281,381.078,284.281L381.078,284.281z"/>
			</g>
			<path clip-path="url(#SVGID_4_)" fill-rule="evenodd" clip-rule="evenodd" fill="#FFFFFF" d="M381.704,289.604
				c0.273,2.472-0.544,3.548-0.757,3.517c-0.244-0.167,0.69-1.69-0.743-3.372c-0.822-0.949,0.072-0.6,0.406-0.725
				C380.931,288.995,381.585,288.566,381.704,289.604L381.704,289.604z"/>
			<g clip-path="url(#SVGID_4_)">
				<path fill="#34439B" d="M380.956,293.16h-0.016c-0.109-0.068-0.083-0.23-0.038-0.494c0.099-0.594,0.281-1.705-0.73-2.89
					c-0.284-0.329-0.387-0.528-0.334-0.645c0.053-0.114,0.223-0.125,0.405-0.12c0.179,0,0.281-0.003,0.354-0.028
					c0.069-0.008,0.141-0.025,0.217-0.048c0.114-0.031,0.245-0.065,0.37-0.065c0.323,0,0.505,0.238,0.562,0.728
					c0.267,2.409-0.489,3.329-0.574,3.426C381.115,293.086,381.032,293.16,380.956,293.16L380.956,293.16z M380.298,289.098
					c-0.22,0-0.354,0.005-0.384,0.067c-0.023,0.055,0.011,0.196,0.323,0.555c1.037,1.219,0.848,2.353,0.747,2.96
					c-0.031,0.188-0.057,0.353-0.021,0.398c0.027-0.006,0.078-0.034,0.146-0.111c0.306-0.341,0.767-1.432,0.554-3.358
					c-0.068-0.588-0.307-0.656-0.479-0.656c-0.114,0-0.239,0.034-0.349,0.065c-0.081,0.022-0.157,0.043-0.22,0.049
					c-0.077,0.028-0.193,0.031-0.305,0.031h-0.001C380.306,289.098,380.303,289.098,380.298,289.098L380.298,289.098z"/>
			</g>
			<path clip-path="url(#SVGID_4_)" fill-rule="evenodd" clip-rule="evenodd" fill="#FFFFFF" d="M378.961,292.046
				c-0.647,1.492-0.932,3.308-1.69,3.083c-0.784-0.204-0.033-2.756,0.971-4.534c1.24-2.174,3.463-2.728,3.425-1.159
				C380.135,289.68,379.461,290.842,378.961,292.046L378.961,292.046z"/>
			<g clip-path="url(#SVGID_4_)">
				<path fill="#34439B" d="M377.396,295.188c-0.045,0-0.091-0.006-0.136-0.02c-0.125-0.031-0.222-0.119-0.281-0.262
					c-0.312-0.741,0.382-2.838,1.226-4.333c1.038-1.82,2.706-2.438,3.274-1.854c0.16,0.164,0.238,0.406,0.23,0.716
					c-1.543,0.281-2.211,1.426-2.708,2.628c-0.188,0.429-0.344,0.887-0.491,1.312C378.163,294.391,377.888,295.188,377.396,295.188
					L377.396,295.188z M380.882,288.58c-0.719,0-1.844,0.699-2.604,2.037c-0.817,1.446-1.521,3.552-1.222,4.256
					c0.05,0.119,0.123,0.188,0.226,0.216c0.516,0.146,0.799-0.719,1.147-1.738c0.148-0.429,0.306-0.89,0.493-1.321
					c0.507-1.222,1.189-2.39,2.737-2.637c-0.028-0.247-0.098-0.466-0.241-0.613C381.293,288.648,381.106,288.58,380.882,288.58
					L380.882,288.58z"/>
			</g>
			<path clip-path="url(#SVGID_4_)" fill-rule="evenodd" clip-rule="evenodd" fill="#FFFFFF" d="M373.339,288.069
				c-0.647,2.812-0.512,4.545-0.335,4.497c0.241,0.028,0.17-2.682,1.3-3.787c1.047-1.068,0.459-0.853,0.22-1.25
				C374.038,287.33,373.666,286.754,373.339,288.069L373.339,288.069z"/>
			<g clip-path="url(#SVGID_4_)">
				<path fill="#34439B" d="M372.998,292.611l-0.065-0.036c-0.182-0.228-0.218-1.983,0.366-4.515c0.233-0.94,0.57-0.946,0.978-0.711
					c0.084,0.052,0.172,0.103,0.265,0.14c0.076,0.113,0.159,0.173,0.229,0.225c0.086,0.062,0.168,0.122,0.177,0.225
					c0.011,0.136-0.09,0.335-0.614,0.869c-0.741,0.728-0.96,2.171-1.094,3.031c-0.085,0.574-0.122,0.771-0.231,0.771l0,0
					L372.998,292.611L372.998,292.611z M373.864,287.273c-0.122,0-0.304,0.085-0.484,0.807c-0.639,2.773-0.495,4.327-0.382,4.443
					c0.06-0.045,0.11-0.375,0.159-0.696c0.134-0.872,0.356-2.335,1.116-3.079c0.418-0.427,0.6-0.674,0.588-0.802
					c-0.005-0.062-0.054-0.102-0.141-0.164c-0.075-0.055-0.166-0.122-0.232-0.233c-0.075-0.02-0.166-0.074-0.255-0.125
					C374.101,287.348,373.976,287.273,373.864,287.273L373.864,287.273z"/>
			</g>
			<path clip-path="url(#SVGID_4_)" fill-rule="evenodd" clip-rule="evenodd" fill="#FFFFFF" d="M375.924,291.101
				c0.776,1.897,1.273,4.225,1.912,3.915c0.665-0.29-0.401-3.518-1.476-5.802c-0.916-1.807-1.595-2.028-2.609-1.972
				C374.933,287.714,375.317,289.566,375.924,291.101L375.924,291.101z"/>
			<g clip-path="url(#SVGID_4_)">
				<path fill="#34439B" d="M377.722,295.086L377.722,295.086c-0.437-0.003-0.783-1.011-1.224-2.289
					c-0.188-0.549-0.389-1.131-0.613-1.68c-0.125-0.318-0.242-0.647-0.356-0.98c-0.448-1.278-0.871-2.488-1.792-2.854
					c0.102-0.089,0.188-0.091,0.271-0.091c0.892,0,1.537,0.32,2.392,2.003c0.867,1.844,1.946,4.818,1.631,5.653
					c-0.039,0.103-0.098,0.171-0.176,0.204C377.811,295.075,377.766,295.086,377.722,295.086L377.722,295.086z M374.007,287.276
					c-0.083,0-0.167,0.003-0.253,0.009c0.969,0.301,1.397,1.525,1.854,2.826c0.115,0.327,0.231,0.659,0.355,0.975
					c0.226,0.549,0.426,1.134,0.615,1.682c0.395,1.148,0.77,2.233,1.144,2.233l0,0c0.032,0,0.063-0.009,0.098-0.025
					c0.057-0.022,0.103-0.077,0.131-0.156c0.275-0.73-0.631-3.469-1.628-5.589C375.489,287.589,374.864,287.276,374.007,287.276
					L374.007,287.276z"/>
			</g>
			<path clip-path="url(#SVGID_4_)" fill-rule="evenodd" clip-rule="evenodd" fill="#FFFFFF" d="M376.057,290.049
				c0.578,2.409,0.825,5.302,1.506,5.012c0.703-0.261-0.021-4.33-0.857-7.247c-0.729-2.315-1.849-2.279-2.881-2.347
				C375.476,286.29,375.611,288.103,376.057,290.049L376.057,290.049z"/>
			<g clip-path="url(#SVGID_4_)">
				<path fill="#34439B" d="M377.47,295.123c-0.46,0-0.707-1.298-1.017-2.943c-0.131-0.69-0.271-1.426-0.438-2.122
					c-0.062-0.27-0.117-0.54-0.172-0.804c-0.342-1.637-0.636-3.049-2.037-3.751l0.154-0.067c0.975,0.057,2.08,0.122,2.784,2.366
					c0.793,2.772,1.605,7.009,0.831,7.299L377.47,295.123L377.47,295.123z M373.822,285.509c1.46,0.64,1.758,2.071,2.102,3.728
					c0.058,0.265,0.111,0.531,0.174,0.802c0.168,0.698,0.307,1.438,0.438,2.128c0.279,1.477,0.544,2.872,0.935,2.872v0.043
					l0.075-0.058c0.63-0.235,0.04-3.979-0.881-7.199c-0.686-2.185-1.714-2.247-2.707-2.307L373.822,285.509L373.822,285.509z"/>
			</g>
			<path clip-path="url(#SVGID_4_)" fill-rule="evenodd" clip-rule="evenodd" fill="#FFFFFF" d="M373.651,285.577
				c-1.512,1.239-1.504,3.753-1.216,3.793c0.298,0.051,0.462-1.986,1.385-2.75c0.979-0.778,1.121-0.355,2.227-0.272
				C375.751,285.696,374.891,284.509,373.651,285.577L373.651,285.577z"/>
			<g clip-path="url(#SVGID_4_)">
				<path fill="#34439B" d="M372.447,289.413l-0.021-0.003c-0.057-0.006-0.103-0.068-0.134-0.183
					c-0.176-0.627,0.062-2.645,1.33-3.685c0.338-0.29,0.673-0.435,1-0.435c0.668,0,1.193,0.631,1.463,1.222
					c-0.357,0.034-0.597-0.017-0.798-0.06c-0.459-0.097-0.679-0.225-1.44,0.381c-0.541,0.448-0.818,1.341-1.018,1.994
					C372.683,289.123,372.592,289.413,372.447,289.413L372.447,289.413z M374.623,285.19c-0.306,0-0.624,0.143-0.946,0.418
					c-1.315,1.08-1.441,3.103-1.303,3.597c0.027,0.094,0.056,0.122,0.067,0.122h0.006c0.083,0,0.195-0.357,0.301-0.707
					c0.204-0.662,0.485-1.571,1.045-2.034c0.645-0.512,0.978-0.515,1.512-0.397c0.199,0.042,0.435,0.094,0.746,0.116
					C375.92,286.168,375.435,285.19,374.623,285.19L374.623,285.19z"/>
			</g>
			<path clip-path="url(#SVGID_4_)" fill-rule="evenodd" clip-rule="evenodd" fill="#FFFFFF" d="M376.864,283.086
				c0.206,0.4,0.177,0.818-0.065,0.929c-0.238,0.108-0.602-0.128-0.807-0.534c-0.204-0.4-0.176-0.818,0.064-0.929
				C376.298,282.443,376.66,282.68,376.864,283.086L376.864,283.086z"/>
			<g clip-path="url(#SVGID_4_)">
				<path fill="#34439B" d="M376.674,284.083c-0.25,0-0.545-0.239-0.719-0.583c-0.139-0.272-0.179-0.557-0.107-0.761
					c0.037-0.108,0.103-0.185,0.19-0.228c0.261-0.116,0.653,0.14,0.865,0.554c0.138,0.273,0.178,0.555,0.106,0.762
					c-0.037,0.108-0.103,0.185-0.192,0.225C376.773,284.071,376.726,284.083,376.674,284.083L376.674,284.083z M376.183,282.568
					c-0.04,0-0.075,0.006-0.109,0.021c-0.066,0.031-0.118,0.094-0.146,0.179c-0.062,0.179-0.023,0.446,0.103,0.693
					c0.189,0.375,0.537,0.613,0.753,0.514c0.068-0.031,0.119-0.091,0.147-0.176c0.064-0.182,0.025-0.449-0.102-0.696
					C376.669,282.787,376.403,282.568,376.183,282.568L376.183,282.568z"/>
			</g>
			<path clip-path="url(#SVGID_4_)" fill-rule="evenodd" clip-rule="evenodd" fill="#FFFFFF" d="M376.869,284.196
				c0.167,0.421,0.101,0.833-0.149,0.918c-0.249,0.091-0.588-0.179-0.757-0.6c-0.168-0.421-0.102-0.835,0.148-0.921
				C376.36,283.506,376.7,283.776,376.869,284.196L376.869,284.196z"/>
			<g clip-path="url(#SVGID_4_)">
				<path fill="#34439B" d="M376.62,285.174c-0.259,0-0.545-0.265-0.696-0.645c-0.113-0.284-0.127-0.574-0.036-0.771
					c0.045-0.103,0.119-0.173,0.21-0.204l0.113-0.021c0.259,0,0.546,0.265,0.696,0.646c0.113,0.284,0.128,0.573,0.037,0.77
					c-0.046,0.103-0.119,0.174-0.21,0.205L376.62,285.174L376.62,285.174z M376.211,283.62c-0.154,0.036-0.211,0.094-0.248,0.173
					c-0.078,0.176-0.064,0.446,0.039,0.705c0.137,0.344,0.396,0.594,0.618,0.594v0.039l0.085-0.054
					c0.071-0.025,0.127-0.079,0.164-0.162c0.078-0.173,0.063-0.443-0.04-0.704C376.692,283.867,376.433,283.62,376.211,283.62
					L376.211,283.62z"/>
			</g>
			<path clip-path="url(#SVGID_4_)" fill-rule="evenodd" clip-rule="evenodd" fill="#FFFFFF" d="M377.651,284.009
				c0.058,0.449-0.11,0.83-0.373,0.853s-0.524-0.324-0.583-0.772c-0.058-0.449,0.109-0.83,0.374-0.853
				C377.333,283.214,377.595,283.561,377.651,284.009L377.651,284.009z"/>
			<g clip-path="url(#SVGID_4_)">
				<path fill="#34439B" d="M377.254,284.904c-0.278,0-0.543-0.355-0.6-0.811c-0.04-0.304,0.02-0.585,0.156-0.752
					c0.071-0.089,0.159-0.14,0.256-0.148l0,0c0.307,0,0.568,0.355,0.628,0.81c0.037,0.305-0.02,0.586-0.157,0.753
					c-0.07,0.089-0.159,0.14-0.255,0.148H377.254L377.254,284.904z M377.092,283.276c-0.092,0.008-0.16,0.048-0.216,0.116
					c-0.122,0.147-0.175,0.415-0.14,0.69c0.053,0.406,0.284,0.738,0.518,0.738v0.04l0.02-0.043c0.074-0.005,0.143-0.045,0.199-0.113
					c0.119-0.15,0.174-0.415,0.137-0.69C377.558,283.605,377.325,283.276,377.092,283.276L377.092,283.276z"/>
			</g>
			<path clip-path="url(#SVGID_4_)" fill-rule="evenodd" clip-rule="evenodd" fill="#FFFFFF" d="M377.106,285.271
				c0.091,0.443-0.049,0.838-0.31,0.878c-0.262,0.042-0.547-0.284-0.637-0.73c-0.091-0.44,0.05-0.835,0.311-0.878
				C376.732,284.5,377.019,284.827,377.106,285.271L377.106,285.271z"/>
			<g clip-path="url(#SVGID_4_)">
				<path fill="#34439B" d="M376.751,286.193c-0.271,0-0.544-0.329-0.634-0.767c-0.06-0.296-0.02-0.588,0.103-0.765
					c0.065-0.091,0.149-0.147,0.244-0.162c0.334-0.011,0.597,0.324,0.685,0.762c0.06,0.299,0.023,0.585-0.101,0.765
					c-0.063,0.094-0.149,0.15-0.246,0.164L376.751,286.193L376.751,286.193z M376.517,284.58c-0.112,0.014-0.178,0.06-0.228,0.131
					c-0.11,0.159-0.144,0.426-0.089,0.701c0.079,0.393,0.322,0.699,0.551,0.699v0.043l0.038-0.046
					c0.072-0.012,0.138-0.057,0.189-0.131c0.11-0.159,0.144-0.426,0.088-0.698C376.987,284.887,376.745,284.58,376.517,284.58
					L376.517,284.58z"/>
			</g>
			<path clip-path="url(#SVGID_4_)" fill-rule="evenodd" clip-rule="evenodd" fill="#FFFFFF" d="M377.106,286.282
				c0.091,0.442-0.049,0.838-0.31,0.878c-0.262,0.042-0.547-0.287-0.637-0.728c-0.091-0.446,0.05-0.838,0.311-0.881
				C376.732,285.512,377.019,285.839,377.106,286.282L377.106,286.282z"/>
			<g clip-path="url(#SVGID_4_)">
				<path fill="#34439B" d="M376.751,287.205c-0.272,0-0.543-0.329-0.634-0.767c-0.06-0.299-0.022-0.583,0.103-0.762
					c0.063-0.094,0.147-0.15,0.244-0.165c0.003,0,0.005,0,0.006,0c0.321,0,0.591,0.327,0.679,0.762
					c0.06,0.295,0.021,0.588-0.102,0.764c-0.064,0.092-0.148,0.151-0.245,0.165L376.751,287.205L376.751,287.205z M376.516,285.592
					c-0.111,0.014-0.177,0.06-0.228,0.133c-0.109,0.156-0.143,0.424-0.088,0.699c0.079,0.393,0.32,0.699,0.551,0.699v0.042
					l0.038-0.045c0.072-0.012,0.138-0.057,0.189-0.131c0.11-0.156,0.144-0.426,0.088-0.699
					C376.987,285.898,376.745,285.592,376.516,285.592L376.516,285.592z"/>
			</g>
			<path clip-path="url(#SVGID_4_)" fill-rule="evenodd" clip-rule="evenodd" fill="#FFFFFF" d="M377.913,285.228
				c-0.025,0.452-0.259,0.799-0.522,0.773c-0.263-0.026-0.458-0.415-0.436-0.867c0.026-0.451,0.259-0.798,0.523-0.772
				C377.741,284.39,377.936,284.776,377.913,285.228L377.913,285.228z"/>
			<g clip-path="url(#SVGID_4_)">
				<path fill="#34439B" d="M377.419,286.043h-0.031c-0.29-0.028-0.497-0.429-0.474-0.912c0.024-0.454,0.261-0.812,0.536-0.812
					c0.321,0.031,0.528,0.43,0.503,0.912C377.93,285.688,377.694,286.043,377.419,286.043L377.419,286.043z M377.473,284.404
					c-0.251,0-0.453,0.329-0.475,0.729c-0.022,0.432,0.156,0.802,0.397,0.824l0.023,0.043v-0.04c0.228,0,0.429-0.33,0.451-0.736
					C377.892,284.796,377.714,284.427,377.473,284.404L377.473,284.404L377.473,284.404z"/>
			</g>
			<path clip-path="url(#SVGID_4_)" fill-rule="evenodd" clip-rule="evenodd" fill="#FFFFFF" d="M377.913,286.239
				c-0.025,0.452-0.259,0.798-0.522,0.772c-0.263-0.028-0.458-0.414-0.436-0.866c0.026-0.452,0.259-0.799,0.523-0.772
				C377.741,285.398,377.936,285.787,377.913,286.239L377.913,286.239z"/>
			<g clip-path="url(#SVGID_4_)">
				<path fill="#34439B" d="M377.419,287.055h-0.031c-0.29-0.031-0.497-0.429-0.474-0.912c0.024-0.454,0.261-0.812,0.536-0.812
					c0.321,0.028,0.528,0.429,0.503,0.912C377.93,286.699,377.694,287.055,377.419,287.055L377.419,287.055z M377.473,285.415
					c-0.251,0-0.453,0.327-0.475,0.733c-0.022,0.429,0.156,0.798,0.397,0.821l0.023,0.042v-0.042c0.228,0,0.429-0.327,0.451-0.73
					C377.892,285.808,377.714,285.438,377.473,285.415L377.473,285.415L377.473,285.415z"/>
			</g>
			<path clip-path="url(#SVGID_4_)" fill-rule="evenodd" clip-rule="evenodd" fill="#FFFFFF" d="M376.575,287.446
				c-0.002,0.455-0.218,0.811-0.483,0.799c-0.264-0.012-0.478-0.393-0.475-0.844c0.002-0.452,0.219-0.81,0.483-0.796
				C376.364,286.617,376.578,286.995,376.575,287.446L376.575,287.446z"/>
			<g clip-path="url(#SVGID_4_)">
				<path fill="#34439B" d="M376.106,288.288h-0.016c-0.286-0.015-0.519-0.412-0.516-0.887c0.003-0.472,0.226-0.838,0.51-0.838
					c0.304,0.011,0.535,0.409,0.532,0.883C376.614,287.918,376.391,288.288,376.106,288.288L376.106,288.288z M376.098,286.646
					c-0.246,0-0.438,0.338-0.439,0.756c-0.001,0.423,0.198,0.79,0.437,0.801l0.012,0.043v-0.043c0.232,0,0.426-0.338,0.427-0.756
					C376.535,287.023,376.336,286.657,376.098,286.646L376.098,286.646L376.098,286.646z"/>
			</g>
			<path clip-path="url(#SVGID_4_)" fill-rule="evenodd" clip-rule="evenodd" fill="#FFFFFF" d="M377.297,287.449
				c-0.003,0.452-0.219,0.812-0.483,0.799c-0.265-0.015-0.478-0.393-0.476-0.844c0.003-0.455,0.217-0.81,0.482-0.799
				C377.085,286.62,377.3,286.998,377.297,287.449L377.297,287.449z"/>
			<g clip-path="url(#SVGID_4_)">
				<path fill="#34439B" d="M376.828,288.288h-0.018c-0.29-0.012-0.517-0.401-0.514-0.884c0.002-0.472,0.227-0.841,0.511-0.841
					c0.302,0.014,0.533,0.411,0.53,0.886C377.336,287.921,377.112,288.288,376.828,288.288L376.828,288.288z M376.819,286.648
					c-0.246,0-0.438,0.338-0.44,0.756c0,0.429,0.194,0.79,0.436,0.801l0.014,0.043v-0.043c0.232,0,0.425-0.338,0.426-0.756
					C377.257,287.026,377.057,286.66,376.819,286.648L376.819,286.648L376.819,286.648z"/>
			</g>
			<path clip-path="url(#SVGID_4_)" fill-rule="evenodd" clip-rule="evenodd" fill="#FFFFFF" d="M378.092,287.571
				c-0.116,0.44-0.413,0.73-0.667,0.651c-0.253-0.08-0.364-0.5-0.248-0.936c0.114-0.439,0.412-0.729,0.665-0.65
				C378.095,286.717,378.207,287.134,378.092,287.571L378.092,287.571z"/>
			<g clip-path="url(#SVGID_4_)">
				<path fill="#34439B" d="M377.51,288.276l-0.097-0.015c-0.275-0.085-0.397-0.528-0.277-0.985
					c0.105-0.403,0.365-0.696,0.621-0.696c0.376,0.103,0.497,0.537,0.376,1.003C378.026,287.986,377.766,288.276,377.51,288.276
					L377.51,288.276z M377.812,286.677c-0.278,0-0.503,0.267-0.596,0.622c-0.107,0.406-0.007,0.812,0.222,0.884l0.071,0.012
					c0.215,0,0.447-0.273,0.543-0.634c0.107-0.415,0.008-0.812-0.222-0.884C377.825,286.677,377.819,286.677,377.812,286.677
					L377.812,286.677z"/>
			</g>
			<path clip-path="url(#SVGID_4_)" fill-rule="evenodd" clip-rule="evenodd" fill="#FFFFFF" d="M376.526,288.558
				c-0.001,0.451-0.217,0.807-0.482,0.793c-0.265-0.012-0.477-0.39-0.475-0.842c0.003-0.454,0.219-0.81,0.482-0.798
				C376.316,287.725,376.529,288.103,376.526,288.558L376.526,288.558z"/>
			<g clip-path="url(#SVGID_4_)">
				<path fill="#34439B" d="M376.061,289.393h-0.019c-0.291-0.014-0.517-0.4-0.514-0.884c0.001-0.471,0.226-0.841,0.51-0.841
					c0.307,0.018,0.534,0.406,0.531,0.89C376.566,289.026,376.344,289.393,376.061,289.393L376.061,289.393z M376.049,287.754
					c-0.244,0-0.436,0.338-0.438,0.755c-0.002,0.43,0.193,0.79,0.436,0.802l0.014,0.04v-0.04c0.231,0,0.424-0.338,0.425-0.753
					C376.486,288.126,376.291,287.768,376.049,287.754L376.049,287.754L376.049,287.754z"/>
			</g>
			<path clip-path="url(#SVGID_4_)" fill-rule="evenodd" clip-rule="evenodd" fill="#FFFFFF" d="M377.248,288.268
				c-0.003,0.455-0.219,0.81-0.482,0.799c-0.265-0.015-0.478-0.393-0.475-0.844c0.001-0.452,0.217-0.811,0.482-0.796
				C377.036,287.438,377.251,287.816,377.248,288.268L377.248,288.268z"/>
			<g clip-path="url(#SVGID_4_)">
				<path fill="#34439B" d="M376.778,289.108h-0.016c-0.29-0.017-0.518-0.406-0.515-0.886c0.003-0.472,0.226-0.839,0.51-0.839
					c0.303,0.012,0.534,0.409,0.531,0.884C377.288,288.739,377.063,289.108,376.778,289.108L376.778,289.108z M376.771,287.467
					c-0.245,0-0.438,0.338-0.438,0.756c-0.002,0.429,0.193,0.786,0.435,0.801l0.012,0.043v-0.043c0.234,0,0.426-0.338,0.428-0.756
					C377.208,287.845,377.008,287.478,376.771,287.467L376.771,287.467L376.771,287.467z"/>
			</g>
			<path clip-path="url(#SVGID_4_)" fill-rule="evenodd" clip-rule="evenodd" fill="#FFFFFF" d="M378.044,288.586
				c-0.114,0.435-0.413,0.728-0.666,0.647c-0.252-0.079-0.365-0.497-0.249-0.938c0.113-0.435,0.412-0.728,0.665-0.647
				C378.047,287.728,378.16,288.146,378.044,288.586L378.044,288.586z"/>
			<g clip-path="url(#SVGID_4_)">
				<path fill="#34439B" d="M377.464,289.288l-0.1-0.015c-0.272-0.085-0.397-0.528-0.276-0.988c0.104-0.401,0.368-0.693,0.622-0.693
					c0.376,0.104,0.499,0.54,0.375,1.006C377.979,288.995,377.717,289.288,377.464,289.288L377.464,289.288z M377.766,287.686
					c-0.278,0-0.503,0.27-0.597,0.622c-0.108,0.409-0.006,0.815,0.222,0.887l0.073,0.011c0.214,0,0.445-0.272,0.54-0.631
					c0.108-0.414,0.009-0.812-0.222-0.886C377.776,287.688,377.771,287.686,377.766,287.686L377.766,287.686z"/>
			</g>
			<path clip-path="url(#SVGID_4_)" fill-rule="evenodd" clip-rule="evenodd" fill="#FFFFFF" d="M378.154,294.242
				c0.068,0.568-0.153,1.052-0.494,1.077c-0.344,0.022-0.676-0.418-0.747-0.986c-0.068-0.567,0.153-1.051,0.494-1.076
				C377.751,293.231,378.084,293.674,378.154,294.242L378.154,294.242z"/>
			<g clip-path="url(#SVGID_4_)">
				<path fill="#34439B" d="M377.633,295.362c-0.356,0-0.691-0.449-0.76-1.026c-0.048-0.375,0.028-0.727,0.202-0.938
					c0.092-0.11,0.206-0.173,0.329-0.182h0.003c0.387,0,0.719,0.449,0.788,1.021c0.046,0.377-0.029,0.729-0.204,0.939
					c-0.093,0.111-0.206,0.177-0.328,0.186H377.633L377.633,295.362z M377.436,293.299c-0.125,0.009-0.219,0.061-0.295,0.154
					c-0.156,0.189-0.228,0.525-0.186,0.875c0.064,0.522,0.367,0.948,0.678,0.948v0.043l0.024-0.043
					c0.1-0.008,0.193-0.06,0.271-0.153c0.156-0.19,0.227-0.525,0.185-0.875C378.048,293.723,377.745,293.299,377.436,293.299
					L377.436,293.299z"/>
			</g>
			<path clip-path="url(#SVGID_4_)" fill-rule="evenodd" clip-rule="evenodd" fill="#FFFFFF" d="M376.191,289.663
				c-0.003,0.454-0.219,0.81-0.483,0.798c-0.264-0.014-0.477-0.392-0.476-0.844c0.002-0.452,0.218-0.81,0.483-0.798
				C375.981,288.833,376.194,289.211,376.191,289.663L376.191,289.663z"/>
			<g clip-path="url(#SVGID_4_)">
				<path fill="#34439B" d="M375.721,290.504h-0.016c-0.289-0.018-0.517-0.406-0.514-0.887c0.001-0.472,0.225-0.838,0.509-0.838
					c0.304,0.011,0.535,0.409,0.534,0.884C376.231,290.135,376.007,290.504,375.721,290.504L375.721,290.504z M375.713,288.861
					c-0.246,0-0.437,0.338-0.439,0.756c0,0.429,0.195,0.787,0.438,0.801l0.01,0.043v-0.043c0.234,0,0.427-0.338,0.428-0.755
					C376.151,289.239,375.953,288.873,375.713,288.861L375.713,288.861L375.713,288.861z"/>
			</g>
			<path clip-path="url(#SVGID_4_)" fill-rule="evenodd" clip-rule="evenodd" fill="#FFFFFF" d="M377.055,289.424
				c-0.001,0.452-0.217,0.81-0.482,0.799c-0.263-0.015-0.478-0.393-0.475-0.844c0.003-0.455,0.219-0.81,0.482-0.799
				C376.845,288.595,377.058,288.973,377.055,289.424L377.055,289.424z"/>
			<g clip-path="url(#SVGID_4_)">
				<path fill="#34439B" d="M376.588,290.262h-0.018c-0.285-0.011-0.517-0.408-0.514-0.883c0.001-0.472,0.226-0.841,0.51-0.841
					c0.307,0.017,0.534,0.406,0.531,0.886C377.095,289.896,376.872,290.262,376.588,290.262L376.588,290.262z M376.578,288.623
					c-0.245,0-0.437,0.338-0.438,0.756c-0.003,0.423,0.197,0.789,0.435,0.801l0.013,0.043v-0.043c0.232,0,0.425-0.338,0.426-0.756
					C377.016,288.995,376.819,288.637,376.578,288.623L376.578,288.623L376.578,288.623z"/>
			</g>
			<path clip-path="url(#SVGID_4_)" fill-rule="evenodd" clip-rule="evenodd" fill="#FFFFFF" d="M377.709,289.691
				c-0.117,0.44-0.415,0.729-0.668,0.65c-0.253-0.08-0.364-0.5-0.249-0.935c0.115-0.44,0.414-0.733,0.666-0.65
				C377.711,288.833,377.822,289.254,377.709,289.691L377.709,289.691z"/>
			<g clip-path="url(#SVGID_4_)">
				<path fill="#34439B" d="M377.126,290.396l-0.098-0.014c-0.274-0.086-0.398-0.528-0.277-0.986
					c0.105-0.403,0.366-0.696,0.622-0.696c0.375,0.103,0.497,0.537,0.375,1.003C377.644,290.104,377.38,290.396,377.126,290.396
					L377.126,290.396z M377.427,288.796c-0.278,0-0.503,0.268-0.594,0.622c-0.109,0.406-0.008,0.812,0.221,0.884l0.072,0.012
					c0.213,0,0.446-0.272,0.541-0.634c0.109-0.415,0.011-0.812-0.222-0.884C377.44,288.796,377.435,288.796,377.427,288.796
					L377.427,288.796z"/>
			</g>
			<path clip-path="url(#SVGID_4_)" fill-rule="evenodd" clip-rule="evenodd" fill="#FFFFFF" d="M376.566,290.723
				c-0.071,0.446-0.34,0.767-0.598,0.713c-0.261-0.054-0.414-0.457-0.343-0.906c0.071-0.446,0.338-0.768,0.597-0.713
				C376.484,289.87,376.636,290.276,376.566,290.723L376.566,290.723z"/>
			<g clip-path="url(#SVGID_4_)">
				<path fill="#34439B" d="M376.023,291.483l-0.063-0.005c-0.286-0.06-0.45-0.48-0.375-0.955c0.066-0.432,0.316-0.756,0.581-0.756
					c0.347,0.062,0.514,0.492,0.44,0.961C376.539,291.16,376.288,291.483,376.023,291.483L376.023,291.483z M376.208,289.858
					c-0.266,0-0.481,0.296-0.541,0.677c-0.066,0.423,0.072,0.81,0.31,0.86l0.047,0.006c0.221,0,0.44-0.301,0.5-0.688
					c0.067-0.418-0.075-0.81-0.308-0.855C376.214,289.858,376.211,289.858,376.208,289.858L376.208,289.858z"/>
			</g>
			<path clip-path="url(#SVGID_4_)" fill-rule="evenodd" clip-rule="evenodd" fill="#FFFFFF" d="M377.276,290.836
				c-0.069,0.446-0.338,0.765-0.597,0.713c-0.26-0.054-0.413-0.46-0.342-0.906c0.069-0.448,0.339-0.767,0.598-0.716
				C377.194,289.98,377.348,290.387,377.276,290.836L377.276,290.836z"/>
			<g clip-path="url(#SVGID_4_)">
				<path fill="#34439B" d="M376.736,291.598l-0.064-0.006c-0.286-0.06-0.452-0.48-0.375-0.957c0.067-0.433,0.317-0.756,0.582-0.756
					c0.347,0.065,0.515,0.494,0.44,0.963C377.251,291.273,377,291.598,376.736,291.598L376.736,291.598z M376.922,289.97
					c-0.266,0-0.483,0.298-0.543,0.679c-0.068,0.424,0.071,0.81,0.31,0.861l0.048,0.003c0.219,0,0.438-0.302,0.501-0.686
					c0.064-0.417-0.077-0.81-0.311-0.857C376.924,289.97,376.922,289.97,376.922,289.97L376.922,289.97z"/>
			</g>
			<path clip-path="url(#SVGID_4_)" fill-rule="evenodd" clip-rule="evenodd" fill="#FFFFFF" d="M378.061,290.98
				c-0.182,0.415-0.52,0.657-0.759,0.543c-0.236-0.116-0.283-0.551-0.104-0.963c0.181-0.415,0.519-0.659,0.758-0.543
				C378.194,290.135,378.24,290.566,378.061,290.98L378.061,290.98z"/>
			<g clip-path="url(#SVGID_4_)">
				<path fill="#34439B" d="M377.43,291.595c-0.051,0-0.101-0.012-0.145-0.034c-0.259-0.125-0.314-0.582-0.125-1.02
					c0.188-0.433,0.557-0.693,0.814-0.561c0.257,0.125,0.313,0.583,0.125,1.018C377.944,291.354,377.675,291.595,377.43,291.595
					L377.43,291.595z M377.828,290.032c-0.209,0-0.452,0.225-0.591,0.545c-0.168,0.387-0.131,0.805,0.083,0.909
					c0.209,0.094,0.536-0.142,0.701-0.522c0.169-0.387,0.13-0.804-0.086-0.909C377.903,290.038,377.866,290.032,377.828,290.032
					L377.828,290.032z"/>
			</g>
			<path clip-path="url(#SVGID_4_)" fill-rule="evenodd" clip-rule="evenodd" fill="#FFFFFF" d="M377.388,293.12
				c0.054,0.449-0.117,0.83-0.381,0.85c-0.265,0.02-0.522-0.327-0.577-0.778c-0.053-0.449,0.118-0.83,0.383-0.85
				C377.075,292.322,377.333,292.672,377.388,293.12L377.388,293.12z"/>
			<g clip-path="url(#SVGID_4_)">
				<path fill="#34439B" d="M376.984,294.013c-0.279,0-0.54-0.358-0.596-0.815c-0.035-0.305,0.024-0.586,0.163-0.753
					c0.071-0.088,0.159-0.137,0.258-0.146h0.001c0.304,0,0.562,0.358,0.619,0.818c0.036,0.302-0.025,0.583-0.163,0.75
					c-0.072,0.088-0.16,0.137-0.257,0.146H376.984L376.984,294.013z M376.833,292.385c-0.091,0.005-0.159,0.045-0.216,0.113
					c-0.122,0.147-0.178,0.412-0.145,0.688c0.048,0.409,0.278,0.744,0.512,0.744v0.043l0.02-0.046
					c0.072-0.003,0.141-0.042,0.199-0.113c0.122-0.147,0.176-0.412,0.144-0.688C377.297,292.717,377.066,292.385,376.833,292.385
					L376.833,292.385z"/>
			</g>
			<path clip-path="url(#SVGID_4_)" fill-rule="evenodd" clip-rule="evenodd" fill="#FFFFFF" d="M378.703,293.328
				c-0.14,0.429-0.456,0.701-0.703,0.607c-0.249-0.094-0.334-0.52-0.195-0.949c0.143-0.432,0.456-0.701,0.705-0.61
				C378.757,292.47,378.845,292.896,378.703,293.328L378.703,293.328z"/>
			<g clip-path="url(#SVGID_4_)">
				<path fill="#34439B" d="M378.101,293.995l-0.116-0.02c-0.271-0.105-0.367-0.546-0.219-1.003
					c0.126-0.387,0.392-0.656,0.644-0.656l0.114,0.02c0.273,0.105,0.37,0.546,0.219,1.003
					C378.617,293.726,378.354,293.995,378.101,293.995L378.101,293.995z M378.47,292.416c-0.287,0-0.514,0.247-0.625,0.582
					c-0.132,0.409-0.057,0.812,0.171,0.897l0.085,0.018c0.213,0,0.45-0.253,0.562-0.6c0.134-0.409,0.059-0.812-0.168-0.897
					C378.487,292.416,378.479,292.416,378.47,292.416L378.47,292.416z"/>
			</g>
			<path clip-path="url(#SVGID_4_)" fill-rule="evenodd" clip-rule="evenodd" fill="#FFFFFF" d="M378.061,293.035
				c0,0.451-0.216,0.81-0.479,0.795c-0.265-0.011-0.479-0.386-0.478-0.841c0-0.451,0.216-0.81,0.48-0.798
				C377.848,292.202,378.061,292.58,378.061,293.035L378.061,293.035z"/>
			<g clip-path="url(#SVGID_4_)">
				<path fill="#34439B" d="M377.595,293.873h-0.016c-0.291-0.014-0.519-0.4-0.519-0.884c0-0.472,0.225-0.841,0.509-0.841
					c0.307,0.015,0.534,0.403,0.534,0.887C378.104,293.507,377.879,293.873,377.595,293.873L377.595,293.873z M377.581,292.233
					c-0.245,0-0.437,0.339-0.437,0.756c0,0.43,0.196,0.79,0.439,0.799l0.011,0.042v-0.039c0.233,0,0.425-0.341,0.425-0.756
					C378.02,292.604,377.822,292.245,377.581,292.233L377.581,292.233L377.581,292.233z"/>
			</g>
			<path clip-path="url(#SVGID_4_)" fill-rule="evenodd" clip-rule="evenodd" fill="#FFFFFF" d="M377.101,291.879
				c-0.002,0.451-0.216,0.81-0.48,0.798c-0.264-0.014-0.479-0.392-0.478-0.844c0-0.451,0.215-0.81,0.479-0.798
				C376.888,291.049,377.101,291.424,377.101,291.879L377.101,291.879z"/>
			<g clip-path="url(#SVGID_4_)">
				<path fill="#34439B" d="M376.633,292.72h-0.016c-0.287-0.015-0.519-0.412-0.517-0.887c0-0.472,0.223-0.838,0.509-0.838
					c0.307,0.012,0.534,0.4,0.532,0.884C377.141,292.351,376.917,292.72,376.633,292.72L376.633,292.72z M376.62,291.077
					c-0.245,0-0.438,0.339-0.438,0.756c0,0.424,0.202,0.79,0.439,0.802l0.011,0.042v-0.042c0.234,0,0.425-0.341,0.425-0.756
					C377.058,291.447,376.861,291.089,376.62,291.077L376.62,291.077L376.62,291.077z"/>
			</g>
			<path clip-path="url(#SVGID_4_)" fill-rule="evenodd" clip-rule="evenodd" fill="#FFFFFF" d="M377.82,291.879
				c0,0.451-0.214,0.81-0.479,0.798c-0.266-0.014-0.479-0.392-0.479-0.844c0.002-0.451,0.217-0.81,0.48-0.798
				C377.606,291.049,377.822,291.424,377.82,291.879L377.82,291.879z"/>
			<g clip-path="url(#SVGID_4_)">
				<path fill="#34439B" d="M377.354,292.72h-0.015c-0.287-0.015-0.52-0.412-0.519-0.887c0.002-0.472,0.225-0.838,0.509-0.838
					c0.307,0.012,0.536,0.4,0.533,0.884C377.862,292.351,377.639,292.72,377.354,292.72L377.354,292.72z M377.341,291.077
					c-0.244,0-0.437,0.339-0.437,0.756c0,0.424,0.199,0.79,0.438,0.802l0.012,0.042v-0.042c0.235,0,0.426-0.341,0.426-0.756
					C377.779,291.447,377.584,291.089,377.341,291.077L377.341,291.077L377.341,291.077z"/>
			</g>
			<path clip-path="url(#SVGID_4_)" fill-rule="evenodd" clip-rule="evenodd" fill="#FFFFFF" d="M378.425,290.89
				c-0.114,0.438-0.412,0.73-0.665,0.651c-0.253-0.077-0.366-0.497-0.253-0.936c0.113-0.438,0.412-0.729,0.666-0.653
				C378.425,290.032,378.538,290.452,378.425,290.89L378.425,290.89z"/>
			<g clip-path="url(#SVGID_4_)">
				<path fill="#34439B" d="M377.845,291.595l-0.097-0.015c-0.278-0.085-0.401-0.52-0.281-0.985
					c0.105-0.403,0.367-0.696,0.622-0.696c0.37,0.1,0.495,0.543,0.375,1.003C378.36,291.302,378.1,291.595,377.845,291.595
					L377.845,291.595z M378.145,289.992c-0.278,0-0.504,0.27-0.595,0.625c-0.109,0.415-0.009,0.812,0.224,0.884l0.071,0.012
					c0.213,0,0.446-0.273,0.538-0.634c0.107-0.409,0.005-0.815-0.223-0.887C378.154,289.992,378.148,289.992,378.145,289.992
					L378.145,289.992z"/>
			</g>
			<path clip-path="url(#SVGID_4_)" fill-rule="evenodd" clip-rule="evenodd" fill="#FFFFFF" d="M378.616,291.901
				c-0.113,0.438-0.41,0.73-0.663,0.653c-0.253-0.079-0.367-0.497-0.253-0.938c0.113-0.438,0.412-0.73,0.665-0.65
				C378.617,291.044,378.731,291.464,378.616,291.901L378.616,291.901z"/>
			<g clip-path="url(#SVGID_4_)">
				<path fill="#34439B" d="M378.037,292.609l-0.097-0.015c-0.278-0.088-0.402-0.52-0.281-0.986c0.104-0.403,0.364-0.698,0.62-0.698
					c0.375,0.103,0.499,0.537,0.378,1.003C378.553,292.316,378.292,292.609,378.037,292.609L378.037,292.609z M378.336,291.007
					c-0.278,0-0.504,0.267-0.596,0.622c-0.108,0.415-0.006,0.812,0.224,0.884l0.073,0.011c0.214,0,0.444-0.272,0.538-0.634
					c0.107-0.414,0.009-0.812-0.222-0.883C378.348,291.007,378.342,291.007,378.336,291.007L378.336,291.007z"/>
			</g>
			<path clip-path="url(#SVGID_4_)" fill-rule="evenodd" clip-rule="evenodd" fill="#FFFFFF" d="M379.193,292.095
				c-0.114,0.438-0.411,0.728-0.664,0.653c-0.253-0.079-0.366-0.5-0.253-0.938c0.114-0.438,0.412-0.73,0.665-0.65
				C379.194,291.236,379.307,291.657,379.193,292.095L379.193,292.095z"/>
			<g clip-path="url(#SVGID_4_)">
				<path fill="#34439B" d="M378.612,292.802l-0.096-0.014c-0.274-0.085-0.4-0.528-0.281-0.989c0.105-0.4,0.365-0.695,0.621-0.695
					c0.375,0.102,0.498,0.534,0.378,1.003C379.129,292.51,378.867,292.802,378.612,292.802L378.612,292.802z M378.912,291.2
					c-0.277,0-0.503,0.267-0.596,0.622c-0.105,0.409-0.003,0.815,0.225,0.883l0.071,0.012c0.213,0,0.445-0.272,0.539-0.634
					c0.108-0.414,0.009-0.812-0.224-0.883C378.922,291.2,378.916,291.2,378.912,291.2L378.912,291.2z"/>
			</g>
			<path clip-path="url(#SVGID_4_)" fill-rule="evenodd" clip-rule="evenodd" fill="#FFFFFF" d="M378.856,289.733
				c-0.114,0.44-0.411,0.73-0.663,0.653c-0.255-0.079-0.367-0.497-0.253-0.938c0.113-0.438,0.411-0.729,0.663-0.65
				C378.857,288.876,378.97,289.296,378.856,289.733L378.856,289.733z"/>
			<g clip-path="url(#SVGID_4_)">
				<path fill="#34439B" d="M378.276,290.441l-0.097-0.015c-0.278-0.088-0.4-0.52-0.281-0.985c0.105-0.403,0.367-0.696,0.621-0.696
					c0.377,0.1,0.499,0.531,0.378,1C378.794,290.148,378.532,290.441,378.276,290.441L378.276,290.441z M378.575,288.839
					c-0.278,0-0.503,0.267-0.594,0.622c-0.108,0.415-0.009,0.812,0.225,0.884l0.07,0.011c0.215,0,0.446-0.272,0.54-0.63
					c0.108-0.418,0.007-0.815-0.225-0.887C378.586,288.839,378.581,288.839,378.575,288.839L378.575,288.839z"/>
			</g>
			<path clip-path="url(#SVGID_4_)" fill-rule="evenodd" clip-rule="evenodd" fill="#FFFFFF" d="M379.646,285.148
				c-0.012,0.451-0.236,0.804-0.5,0.784c-0.265-0.018-0.469-0.4-0.458-0.853c0.012-0.455,0.236-0.807,0.5-0.787
				C379.453,284.312,379.657,284.693,379.646,285.148L379.646,285.148z"/>
			<g clip-path="url(#SVGID_4_)">
				<path fill="#34439B" d="M379.167,285.975h-0.023c-0.292-0.02-0.509-0.414-0.496-0.897c0.013-0.463,0.241-0.827,0.521-0.827
					c0.313,0.023,0.531,0.415,0.52,0.898C379.676,285.611,379.447,285.975,379.167,285.975L379.167,285.975z M379.186,284.336
					c-0.247,0-0.443,0.332-0.454,0.744c-0.012,0.432,0.176,0.793,0.417,0.81l0.019,0.043v-0.043c0.229,0,0.425-0.332,0.437-0.744
					C379.615,284.717,379.428,284.353,379.186,284.336L379.186,284.336L379.186,284.336z"/>
			</g>
			<path clip-path="url(#SVGID_4_)" fill-rule="evenodd" clip-rule="evenodd" fill="#FFFFFF" d="M379.098,290.793
				c-0.113,0.438-0.412,0.73-0.665,0.651c-0.253-0.077-0.366-0.497-0.253-0.933c0.114-0.439,0.412-0.732,0.665-0.653
				C379.098,289.936,379.211,290.355,379.098,290.793L379.098,290.793z"/>
			<g clip-path="url(#SVGID_4_)">
				<path fill="#34439B" d="M378.519,291.498l-0.097-0.015c-0.275-0.082-0.4-0.522-0.281-0.982c0.104-0.403,0.366-0.696,0.619-0.696
					c0.372,0.097,0.498,0.54,0.378,1C379.034,291.205,378.772,291.498,378.519,291.498L378.519,291.498z M378.816,289.898
					c-0.278,0-0.503,0.27-0.595,0.622c-0.106,0.412-0.005,0.815,0.224,0.884l0.073,0.012c0.213,0,0.445-0.273,0.538-0.634
					c0.106-0.409,0.004-0.812-0.223-0.884C378.828,289.898,378.822,289.898,378.816,289.898L378.816,289.898z"/>
			</g>
			<path clip-path="url(#SVGID_4_)" fill-rule="evenodd" clip-rule="evenodd" fill="#FFFFFF" d="M379.675,290.938
				c-0.114,0.438-0.412,0.73-0.665,0.65c-0.253-0.076-0.366-0.497-0.253-0.935s0.412-0.73,0.665-0.653
				C379.675,290.08,379.788,290.498,379.675,290.938L379.675,290.938z"/>
			<g clip-path="url(#SVGID_4_)">
				<path fill="#34439B" d="M379.094,291.643l-0.099-0.014c-0.276-0.085-0.4-0.521-0.278-0.986c0.105-0.403,0.367-0.695,0.622-0.695
					c0.372,0.102,0.497,0.533,0.375,1C379.609,291.351,379.35,291.643,379.094,291.643L379.094,291.643z M379.394,290.041
					c-0.277,0-0.503,0.27-0.596,0.625c-0.107,0.414-0.007,0.812,0.224,0.883l0.072,0.012c0.214,0,0.445-0.272,0.539-0.634
					c0.108-0.415,0.008-0.812-0.224-0.886C379.404,290.041,379.398,290.041,379.394,290.041L379.394,290.041z"/>
			</g>
			<path clip-path="url(#SVGID_4_)" fill-rule="evenodd" clip-rule="evenodd" fill="#FFFFFF" d="M379.166,286.157
				c-0.012,0.454-0.236,0.807-0.502,0.786c-0.263-0.02-0.467-0.4-0.455-0.854c0.013-0.449,0.235-0.802,0.5-0.784
				C378.973,285.321,379.178,285.708,379.166,286.157L379.166,286.157z"/>
			<g clip-path="url(#SVGID_4_)">
				<path fill="#34439B" d="M378.685,286.986h-0.022c-0.292-0.022-0.508-0.418-0.495-0.897c0.013-0.463,0.242-0.827,0.521-0.827
					c0.31,0.021,0.531,0.421,0.521,0.897C379.195,286.623,378.966,286.986,378.685,286.986L378.685,286.986z M378.706,285.347
					c-0.247,0-0.443,0.333-0.455,0.745c-0.011,0.429,0.177,0.792,0.418,0.81l0.016,0.045v-0.042c0.231,0,0.429-0.336,0.438-0.747
					C379.135,285.733,378.944,285.364,378.706,285.347L378.706,285.347L378.706,285.347z"/>
			</g>
			<path clip-path="url(#SVGID_4_)" fill-rule="evenodd" clip-rule="evenodd" fill="#FFFFFF" d="M379.979,286.183
				c-0.032,0.448-0.273,0.792-0.536,0.761c-0.264-0.033-0.449-0.426-0.417-0.878c0.034-0.448,0.276-0.792,0.539-0.758
				C379.828,285.339,380.014,285.73,379.979,286.183L379.979,286.183z"/>
			<g clip-path="url(#SVGID_4_)">
				<path fill="#34439B" d="M379.477,286.986l-0.039-0.003c-0.284-0.034-0.487-0.446-0.452-0.92
					c0.036-0.455,0.269-0.802,0.546-0.802c0.323,0.037,0.526,0.452,0.49,0.924C379.988,286.634,379.75,286.986,379.477,286.986
					L379.477,286.986z M379.558,285.347c-0.255,0-0.458,0.318-0.488,0.725c-0.031,0.421,0.142,0.802,0.378,0.83h0.029
					c0.229,0,0.431-0.318,0.462-0.722c0.031-0.424-0.142-0.804-0.378-0.833C379.56,285.347,379.558,285.347,379.558,285.347
					L379.558,285.347z"/>
			</g>
			<path clip-path="url(#SVGID_4_)" fill-rule="evenodd" clip-rule="evenodd" fill="#FFFFFF" d="M379.069,287.074
				c-0.012,0.452-0.235,0.805-0.5,0.784c-0.265-0.017-0.469-0.4-0.457-0.853c0.013-0.454,0.237-0.807,0.5-0.786
				C378.876,286.239,379.081,286.62,379.069,287.074L379.069,287.074z"/>
			<g clip-path="url(#SVGID_4_)">
				<path fill="#34439B" d="M378.591,287.901h-0.024c-0.291-0.02-0.509-0.415-0.496-0.897c0.014-0.464,0.24-0.827,0.521-0.827
					c0.315,0.02,0.532,0.415,0.521,0.897C379.1,287.537,378.87,287.901,378.591,287.901L378.591,287.901z M378.609,286.262
					c-0.247,0-0.443,0.333-0.455,0.744c-0.011,0.43,0.177,0.793,0.418,0.811l0.019,0.042v-0.042c0.229,0,0.426-0.333,0.436-0.745
					C379.038,286.643,378.851,286.279,378.609,286.262L378.609,286.262L378.609,286.262z"/>
			</g>
			<path clip-path="url(#SVGID_4_)" fill-rule="evenodd" clip-rule="evenodd" fill="#FFFFFF" d="M379.885,287.191
				c-0.034,0.454-0.275,0.795-0.537,0.761c-0.264-0.028-0.45-0.423-0.416-0.872c0.034-0.454,0.274-0.793,0.537-0.762
				S379.917,286.742,379.885,287.191L379.885,287.191z"/>
			<g clip-path="url(#SVGID_4_)">
				<path fill="#34439B" d="M379.382,287.998l-0.04-0.003c-0.285-0.034-0.488-0.443-0.451-0.918
					c0.034-0.457,0.267-0.804,0.544-0.804c0.323,0.037,0.526,0.449,0.491,0.92C379.892,287.651,379.657,287.998,379.382,287.998
					L379.382,287.998z M379.461,286.361c-0.255,0-0.457,0.315-0.488,0.722c-0.031,0.421,0.143,0.801,0.379,0.83h0.03
					c0.228,0,0.431-0.318,0.46-0.725c0.031-0.421-0.142-0.802-0.378-0.827C379.464,286.361,379.463,286.361,379.461,286.361
					L379.461,286.361z"/>
			</g>
			<path clip-path="url(#SVGID_4_)" fill-rule="evenodd" clip-rule="evenodd" fill="#FFFFFF" d="M379.166,288.276
				c-0.012,0.454-0.236,0.807-0.502,0.787c-0.263-0.021-0.467-0.4-0.455-0.855c0.013-0.452,0.235-0.801,0.5-0.784
				C378.973,287.441,379.178,287.827,379.166,288.276L379.166,288.276z"/>
			<g clip-path="url(#SVGID_4_)">
				<path fill="#34439B" d="M378.685,289.105h-0.022c-0.292-0.022-0.508-0.417-0.495-0.897c0.013-0.463,0.242-0.827,0.521-0.827
					c0.31,0.021,0.531,0.421,0.521,0.898C379.195,288.742,378.966,289.105,378.685,289.105L378.685,289.105z M378.706,287.467
					c-0.247,0-0.443,0.332-0.455,0.741c-0.011,0.432,0.177,0.796,0.418,0.812l0.016,0.046v-0.043c0.231,0,0.429-0.335,0.438-0.747
					C379.135,287.853,378.944,287.48,378.706,287.467L378.706,287.467L378.706,287.467z"/>
			</g>
			<path clip-path="url(#SVGID_4_)" fill-rule="evenodd" clip-rule="evenodd" fill="#FFFFFF" d="M379.529,289.541
				c-0.113,0.439-0.412,0.729-0.664,0.653c-0.253-0.08-0.365-0.497-0.253-0.938c0.114-0.438,0.411-0.728,0.664-0.651
				C379.529,288.683,379.644,289.103,379.529,289.541L379.529,289.541z"/>
			<g clip-path="url(#SVGID_4_)">
				<path fill="#34439B" d="M378.95,290.248l-0.097-0.015c-0.278-0.088-0.4-0.52-0.281-0.985c0.105-0.403,0.366-0.696,0.622-0.696
					c0.375,0.1,0.497,0.534,0.376,1C379.467,289.955,379.206,290.248,378.95,290.248L378.95,290.248z M379.25,288.646
					c-0.277,0-0.505,0.268-0.597,0.622c-0.106,0.415-0.007,0.812,0.225,0.884l0.072,0.012c0.213,0,0.446-0.273,0.54-0.631
					c0.107-0.418,0.007-0.815-0.225-0.887C379.26,288.646,379.254,288.646,379.25,288.646L379.25,288.646z"/>
			</g>
			<path clip-path="url(#SVGID_4_)" fill-rule="evenodd" clip-rule="evenodd" fill="#FFFFFF" d="M380.154,289.733
				c-0.113,0.44-0.412,0.73-0.664,0.653c-0.253-0.079-0.367-0.497-0.253-0.938c0.113-0.438,0.411-0.729,0.664-0.65
				C380.154,288.876,380.269,289.296,380.154,289.733L380.154,289.733z"/>
			<g clip-path="url(#SVGID_4_)">
				<path fill="#34439B" d="M379.575,290.441l-0.099-0.015c-0.276-0.088-0.401-0.52-0.279-0.985
					c0.105-0.403,0.365-0.696,0.621-0.696c0.375,0.1,0.498,0.534,0.376,1C380.089,290.148,379.829,290.441,379.575,290.441
					L379.575,290.441z M379.873,288.839c-0.278,0-0.503,0.267-0.595,0.622c-0.108,0.415-0.007,0.812,0.225,0.884l0.072,0.011
					c0.213,0,0.444-0.272,0.538-0.63c0.108-0.418,0.007-0.815-0.223-0.887C379.885,288.839,379.879,288.839,379.873,288.839
					L379.873,288.839z"/>
			</g>
			<path clip-path="url(#SVGID_4_)" fill-rule="evenodd" clip-rule="evenodd" fill="#FFFFFF" d="M380.075,288.302
				c-0.033,0.449-0.272,0.793-0.537,0.759c-0.263-0.031-0.449-0.424-0.415-0.875c0.034-0.449,0.275-0.793,0.537-0.759
				C379.925,287.458,380.109,287.85,380.075,288.302L380.075,288.302z"/>
			<g clip-path="url(#SVGID_4_)">
				<path fill="#34439B" d="M379.572,289.105l-0.04-0.003c-0.284-0.033-0.485-0.448-0.45-0.92c0.035-0.458,0.269-0.802,0.544-0.802
					c0.324,0.037,0.528,0.452,0.492,0.924C380.084,288.762,379.851,289.105,379.572,289.105L379.572,289.105z M379.654,287.467
					c-0.256,0-0.459,0.318-0.488,0.722c-0.031,0.423,0.141,0.804,0.378,0.832h0.028c0.23,0,0.432-0.318,0.462-0.722
					c0.032-0.423-0.141-0.804-0.378-0.832H379.654L379.654,287.467z"/>
			</g>
		</g>
	</g>
</g>
</svg>
