<?xml version="1.0" encoding="utf-8"?>
<!-- Generator: Adobe Illustrator 16.0.0, SVG Export Plug-In . SVG Version: 6.00 Build 0)  -->
<!DOCTYPE svg PUBLIC "-//W3C//DTD SVG 1.1//EN" "http://www.w3.org/Graphics/SVG/1.1/DTD/svg11.dtd">
<svg version="1.1" id="name" xmlns="http://www.w3.org/2000/svg" xmlns:xlink="http://www.w3.org/1999/xlink" x="0px" y="0px"
	 width="85.712px" height="50px" viewBox="358 276 85.712 50" enable-background="new 358 276 85.712 50" xml:space="preserve">
<g id="mn">
	<g>
		<defs>
			<rect id="SVGID_1_" x="358" y="276" width="85.712" height="50"/>
		</defs>
		<clipPath id="SVGID_2_">
			<use xlink:href="#SVGID_1_"  overflow="visible"/>
		</clipPath>
		<rect x="358" y="276" clip-path="url(#SVGID_2_)" fill="#C9202D" width="85.712" height="50"/>
		<rect x="386.573" y="276" clip-path="url(#SVGID_2_)" fill="#64ACCC" width="28.568" height="50"/>
		<g clip-path="url(#SVGID_2_)">
			<defs>
				<rect id="SVGID_3_" x="358" y="276" width="85.712" height="50"/>
			</defs>
			<clipPath id="SVGID_4_">
				<use xlink:href="#SVGID_3_"  overflow="visible"/>
			</clipPath>
			<path clip-path="url(#SVGID_4_)" fill="#F4EB2D" d="M372.286,290.288c2.168,0,3.928,1.758,3.928,3.929
				c0,2.168-1.76,3.927-3.928,3.927c-2.172,0-3.93-1.759-3.93-3.927C368.356,292.046,370.114,290.288,372.286,290.288"/>
			<path clip-path="url(#SVGID_4_)" fill="#C9202D" d="M372.286,288.146c2.365,0,4.287,1.918,4.287,4.284
				c0,2.367-1.922,4.284-4.287,4.284c-2.367,0-4.285-1.917-4.285-4.284C368,290.063,369.918,288.146,372.286,288.146"/>
			<path clip-path="url(#SVGID_4_)" fill="#F4EB2D" d="M372.286,290.288c1.576,0,2.857,1.278,2.857,2.854
				c0,1.58-1.281,2.858-2.857,2.858c-1.578,0-2.855-1.278-2.855-2.858C369.43,291.566,370.708,290.288,372.286,290.288"/>
			<path clip-path="url(#SVGID_4_)" fill="#F4EB2D" d="M372.217,283.893c-0.545,0.395-0.137,1.028-0.178,1.366
				c-0.041,0.367-0.227,0.44-0.307,0.739c-0.104,0.378-0.053,0.77,0.023,0.926c0.07,0.14,0.123,0.265,0.148,0.372
				c0.002,0.009,0.006,0.015,0.008,0.022c0,0.003,0,0.009,0,0.009c0,0.003,0,0.006,0,0.006c0.002,0.003,0.004,0.006,0.004,0.009
				c0.002,0.006,0.004,0.008,0.004,0.014c0,0.003,0,0.003,0,0.006s0,0.003,0,0.003c0,0.003,0,0.003,0,0.006
				c0.004,0.017,0.008,0.037,0.008,0.057c0,0.196-0.164,0.36-0.359,0.36c-0.199,0-0.355-0.164-0.355-0.36c0-0.003,0-0.006,0-0.009
				s0-0.006,0-0.008c0-0.003,0.004-0.006,0.004-0.009v-0.003c0-0.003,0-0.006,0-0.009s0-0.003,0-0.003c0-0.003,0-0.003,0-0.006
				c0-0.002,0-0.005,0-0.008c0-0.006,0.002-0.012,0.002-0.018v-0.003v-0.003c0-0.002,0-0.002,0-0.005s0.006-0.003,0.006-0.003
				c0-0.003,0-0.003,0-0.006s0.004-0.009,0.004-0.012c0,0,0-0.003,0-0.006c0.002,0,0.004-0.002,0.004-0.008c0,0,0-0.009,0-0.012
				c0.059-0.185,0.227-0.35,0.225-0.594c0-0.321-0.219-0.48-0.266-0.579c-0.035-0.071-0.09-0.271-0.008-0.469
				c-0.152,0.188-0.32,0.329-0.32,0.533c0.002,0.151,0.086,0.305,0.078,0.529c-0.01,0.255-0.428,0.423-0.441,1.067
				c0,0.986,0.799,1.785,1.785,1.785c0.988,0,1.787-0.799,1.787-1.785c-0.018-0.645-0.434-0.812-0.443-1.067
				c-0.01-0.225,0.076-0.378,0.078-0.529c0-0.204-0.17-0.346-0.32-0.533c0.082,0.198,0.025,0.397-0.008,0.469
				c-0.051,0.099-0.266,0.258-0.268,0.579c0,0.244,0.168,0.409,0.227,0.594c0,0.003,0,0.003,0,0.006v0.003c0,0.003,0,0.003,0,0.003
				c0,0.006,0.004,0.008,0.004,0.008c0,0.006,0.002,0.012,0.002,0.018c0.004,0.009,0.006,0.014,0.006,0.02
				c0.002,0.006,0.004,0.012,0.006,0.015c0,0.006-0.002,0.011,0,0.02c0,0.006-0.002,0.009,0,0.012c0,0.003,0.002,0.006,0.002,0.009
				v0.005c0,0,0,0,0,0.003s0,0.006,0,0.009c0,0.196-0.158,0.36-0.357,0.36c-0.152,0-0.285-0.102-0.334-0.238v-0.003
				c-0.014-0.037-0.027-0.076-0.027-0.119c0-0.022,0.008-0.04,0.01-0.062c0.002-0.003,0-0.006,0-0.009
				c0.002-0.003,0.004-0.006,0.006-0.011c0-0.003,0.002-0.009,0.006-0.012c0-0.003-0.004-0.012,0-0.015c0-0.002,0-0.002,0.002-0.008
				c0-0.003,0.004-0.006,0.004-0.012v-0.003c0.035-0.128,0.107-0.247,0.141-0.332c0.057-0.156,0.176-0.412,0.174-0.736
				c0-0.247-0.059-0.798-0.361-1.225c-0.24-0.344-0.395-0.488-0.477-0.71C372.1,284.183,372.135,284.037,372.217,283.893"/>
			<rect x="364.428" y="298.859" clip-path="url(#SVGID_4_)" fill="#F4EB2D" width="3.572" height="17.143"/>
			<rect x="376.573" y="298.859" clip-path="url(#SVGID_4_)" fill="#F4EB2D" width="3.568" height="17.143"/>
			<polyline clip-path="url(#SVGID_4_)" fill="#F4EB2D" points="368.713,298.859 375.856,298.859 372.286,301.001 			"/>
			<rect x="368.713" y="301.715" clip-path="url(#SVGID_4_)" fill="#F4EB2D" width="7.143" height="1.429"/>
			<rect x="368.713" y="311.715" clip-path="url(#SVGID_4_)" fill="#F4EB2D" width="7.143" height="1.43"/>
			<polyline clip-path="url(#SVGID_4_)" fill="#F4EB2D" points="368.713,313.857 375.856,313.857 372.286,316.002 			"/>
			<path clip-path="url(#SVGID_4_)" fill="#F4EB2D" d="M372.286,303.859c1.971,0,3.57,1.6,3.57,3.571s-1.6,3.571-3.57,3.571
				c-1.973,0-3.572-1.6-3.572-3.571S370.313,303.859,372.286,303.859"/>
		</g>
		<g clip-path="url(#SVGID_2_)">
			<defs>
				<path id="SVGID_5_" d="M368.713,307.431c0,1.972,1.6,3.571,3.572,3.571v-7.143C370.313,303.859,368.713,305.459,368.713,307.431
					"/>
			</defs>
			<clipPath id="SVGID_6_">
				<use xlink:href="#SVGID_5_"  overflow="visible"/>
			</clipPath>
			<g clip-path="url(#SVGID_6_)">
				<defs>
					<rect id="SVGID_7_" x="372.286" y="279.574" width="14.287" height="42.854"/>
				</defs>
				<clipPath id="SVGID_8_">
					<use xlink:href="#SVGID_7_"  overflow="visible"/>
				</clipPath>
				<path clip-path="url(#SVGID_8_)" fill="#C9202D" d="M372.286,303.502c1.125,0,2.037,0.911,2.037,2.034
					c0,1.125-0.912,2.037-2.037,2.037c-1.123,0-2.035-0.912-2.035-2.037C370.25,304.413,371.163,303.502,372.286,303.502"/>
				<path clip-path="url(#SVGID_8_)" fill="#F4EB2D" d="M372.286,303.788c0.969,0,1.75,0.781,1.75,1.748
					c0,0.966-0.781,1.75-1.75,1.75c-0.967,0-1.75-0.784-1.75-1.75C370.536,304.569,371.319,303.788,372.286,303.788"/>
				<path clip-path="url(#SVGID_8_)" fill="#C9202D" d="M372.286,304.822c0.395,0,0.713,0.321,0.713,0.714
					c0,0.395-0.318,0.716-0.713,0.716c-0.396,0-0.715-0.321-0.715-0.716C371.571,305.144,371.889,304.822,372.286,304.822"/>
				<path clip-path="url(#SVGID_8_)" fill="#C9202D" d="M372.286,307.286c1.125,0,2.037,0.912,2.037,2.037s-0.912,2.034-2.037,2.034
					c-1.123,0-2.035-0.909-2.035-2.034S371.163,307.286,372.286,307.286"/>
				<path clip-path="url(#SVGID_8_)" fill="#F4EB2D" d="M372.286,307.573c0.969,0,1.75,0.784,1.75,1.75s-0.781,1.75-1.75,1.75
					c-0.967,0-1.75-0.784-1.75-1.75S371.319,307.573,372.286,307.573"/>
				<path clip-path="url(#SVGID_8_)" fill="#C9202D" d="M372.286,308.607c0.395,0,0.713,0.32,0.713,0.716
					c0,0.395-0.318,0.713-0.713,0.713c-0.396,0-0.715-0.318-0.715-0.713C371.571,308.928,371.889,308.607,372.286,308.607"/>
			</g>
		</g>
	</g>
</g>
</svg>
