<?xml version="1.0" encoding="utf-8"?>
<!-- Generator: Adobe Illustrator 16.0.0, SVG Export Plug-In . SVG Version: 6.00 Build 0)  -->
<!DOCTYPE svg PUBLIC "-//W3C//DTD SVG 1.1//EN" "http://www.w3.org/Graphics/SVG/1.1/DTD/svg11.dtd">
<svg version="1.1" id="name" xmlns="http://www.w3.org/2000/svg" xmlns:xlink="http://www.w3.org/1999/xlink" x="0px" y="0px"
	 width="85.712px" height="50px" viewBox="358 276 85.712 50" enable-background="new 358 276 85.712 50" xml:space="preserve">
<g id="mo">
	<g>
		<defs>
			<rect id="SVGID_1_" x="358" y="276" width="85.712" height="50"/>
		</defs>
		<clipPath id="SVGID_2_">
			<use xlink:href="#SVGID_1_"  overflow="visible"/>
		</clipPath>
		<rect x="358" y="276" clip-path="url(#SVGID_2_)" fill="#357A5F" width="85.712" height="50"/>
		<g clip-path="url(#SVGID_2_)">
			<defs>
				<rect id="SVGID_3_" x="358" y="276" width="85.712" height="50"/>
			</defs>
			<clipPath id="SVGID_4_">
				<use xlink:href="#SVGID_3_"  overflow="visible"/>
			</clipPath>
			<path clip-path="url(#SVGID_4_)" fill="#FFFFFF" d="M400.856,304.405c-1.268,0.872-2.6,2.764-5.682,2.764
				c-4.359,0-5.979-1.278-7.271-2.247c-0.047-0.142,1.109-0.665,1.109-0.665c1.746,1.22,3.689,2.296,7.318,2.14
				c-4.479-0.395-7.512-2.838-8.428-5.088c2.424-1.677,6.438-1.646,9.729,0.667c-1.027-1.267-4.463-2.676-7.033-2.281
				c-0.367-0.381-0.689-0.854-1.059-1.235c2.955-0.648,7.064,1.222,8.572,2.756c-1.592-2.518-2.744-5.37-0.867-8.842
				c0.369,0.353,0.787,0.699,1.156,1.049c-1.412,2.548-0.9,5.528,0.238,7.605c-1.973-4.026-0.383-8.004,2.217-9.936
				c2.601,1.932,4.191,5.909,2.216,9.936c1.139-2.077,1.652-5.058,0.24-7.605c0.369-0.35,0.785-0.696,1.154-1.049
				c1.879,3.472,0.721,6.324-0.865,8.842c1.508-1.534,5.617-3.404,8.57-2.756c-0.369,0.381-0.691,0.854-1.061,1.235
				c-2.568-0.395-6.002,1.015-7.027,2.281c3.289-2.312,7.301-2.344,9.725-0.667c-0.912,2.25-3.947,4.693-8.428,5.088
				c3.631,0.156,5.572-0.92,7.322-2.14c0,0,1.152,0.523,1.105,0.665c-1.293,0.969-2.91,2.247-7.27,2.247
				C403.457,307.169,402.125,305.277,400.856,304.405"/>
			<path clip-path="url(#SVGID_4_)" fill="#FFFFFF" d="M400.856,305.246c-1.814,1.503-2.908,2.454-5.312,2.454l-7.25-0.011
				c0.188,0.344,0.383,0.682,0.594,1.012l6.867,0.011c3.295,0,5.102-2.088,5.102-2.088s1.806,2.088,5.103,2.088l6.865-0.011
				c0.209-0.324,0.406-0.665,0.59-1.009l-7.246,0.008C403.766,307.7,402.672,306.749,400.856,305.246"/>
			<polygon clip-path="url(#SVGID_4_)" fill="#F2D031" points="400.856,284.202 401.518,286.214 403.662,286.217 401.93,287.458 
				402.592,289.476 400.856,288.228 399.12,289.476 399.784,287.458 398.045,286.217 400.192,286.214 			"/>
			<polygon clip-path="url(#SVGID_4_)" fill="#F2D031" points="387.961,293.205 389.264,293.479 389.932,292.339 390.071,293.648 
				391.377,293.922 390.159,294.458 390.295,295.769 389.405,294.788 388.184,295.325 388.852,294.186 			"/>
			<polygon clip-path="url(#SVGID_4_)" fill="#F2D031" points="392.489,287.342 393.481,288.226 394.635,287.566 394.094,288.771 
				395.084,289.651 393.758,289.512 393.215,290.717 392.94,289.427 391.612,289.29 392.766,288.632 			"/>
			<polygon clip-path="url(#SVGID_4_)" fill="#F2D031" points="413.752,293.205 412.449,293.479 411.779,292.339 411.641,293.648 
				410.334,293.922 411.555,294.458 411.416,295.769 412.309,294.788 413.527,295.325 412.859,294.186 			"/>
			<polygon clip-path="url(#SVGID_4_)" fill="#F2D031" points="409.223,287.342 408.23,288.226 407.078,287.566 407.617,288.771 
				406.629,289.651 407.953,289.512 408.496,290.717 408.773,289.427 410.102,289.29 408.947,288.632 			"/>
			<path clip-path="url(#SVGID_4_)" fill="#FFFFFF" d="M389.524,309.604c0.088,0.119,0.182,0.235,0.275,0.352h22.117
				c0.092-0.116,0.186-0.232,0.273-0.352H389.524z M390.739,311.005c0.24,0.241,0.488,0.475,0.748,0.699h18.738
				c0.26-0.225,0.51-0.458,0.748-0.699H390.739z M392.358,312.402c0.52,0.387,1.066,0.736,1.637,1.049h13.722
				c0.57-0.312,1.119-0.662,1.639-1.049H392.358z M394.674,313.801c1.818,0.872,3.852,1.372,6,1.4h0.367
				c2.146-0.028,4.182-0.528,5.996-1.4H394.674z"/>
		</g>
	</g>
</g>
</svg>
