<?xml version="1.0" encoding="utf-8"?>
<!-- Generator: Adobe Illustrator 16.0.0, SVG Export Plug-In . SVG Version: 6.00 Build 0)  -->
<!DOCTYPE svg PUBLIC "-//W3C//DTD SVG 1.1//EN" "http://www.w3.org/Graphics/SVG/1.1/DTD/svg11.dtd">
<svg version="1.1" id="name" xmlns="http://www.w3.org/2000/svg" xmlns:xlink="http://www.w3.org/1999/xlink" x="0px" y="0px"
	 width="85.711px" height="50px" viewBox="358 276 85.711 50" enable-background="new 358 276 85.711 50" xml:space="preserve">
<g id="ms">
	<g>
		<defs>
			<rect id="SVGID_1_" x="358" y="276" width="85.711" height="50"/>
		</defs>
		<clipPath id="SVGID_2_">
			<use xlink:href="#SVGID_1_"  overflow="visible"/>
		</clipPath>
		<rect x="358" y="276" clip-path="url(#SVGID_2_)" fill="#231E60" width="85.711" height="50"/>
		<g clip-path="url(#SVGID_2_)">
			<defs>
				<rect id="SVGID_3_" x="358" y="276" width="85.711" height="50"/>
			</defs>
			<clipPath id="SVGID_4_">
				<use xlink:href="#SVGID_3_"  overflow="visible"/>
			</clipPath>
			<path clip-path="url(#SVGID_4_)" fill="#FFFFFF" d="M413.84,290.239h18.641l-0.02,13.265c0.153,5.333-3.168,8.643-9.285,10.135
				c-4.344-1.08-9.35-3.311-9.357-9.983L413.84,290.239z"/>
			<path clip-path="url(#SVGID_4_)" fill="#49A0B9" d="M414.252,290.64h17.814l-0.021,12.711c0.151,5.108-3.028,8.279-8.872,9.708
				c-4.148-1.031-8.936-3.168-8.941-9.562L414.252,290.64z"/>
			<g clip-path="url(#SVGID_4_)">
				<path fill="#010101" d="M423.174,313.082l-0.006-0.003c-3.842-0.955-8.949-2.989-8.958-9.583l0.022-12.856l17.834-0.022
					l0.002,12.733c0.146,4.978-2.846,8.254-8.889,9.729L423.174,313.082L423.174,313.082z M432.046,290.64l-17.794,0.021v12.836
					c0.006,6.562,5.095,8.588,8.922,9.543c6.02-1.475,8.997-4.733,8.853-9.688L432.046,290.64L432.046,290.64z"/>
			</g>
			<path clip-path="url(#SVGID_4_)" fill="#983E21" d="M431.93,304.856c-0.648,4.876-4.404,7.009-8.756,8.14
				c-3.854-1.034-7.995-2.685-8.799-8.113L431.93,304.856z"/>
			<polygon clip-path="url(#SVGID_4_)" fill="#010101" points="418.991,292.995 422.469,293.007 422.443,291.404 423.711,291.418 
				423.725,293.007 427.188,293.007 427.202,294.248 423.725,294.263 423.696,308.908 422.461,308.917 422.443,294.248 
				418.988,294.263 			"/>
			<path clip-path="url(#SVGID_4_)" fill="#F09827" d="M419.664,305.462l3.172,3.29c1.096-1.207,0.334-5.714-1.105-6.54
				c-0.174,0.531-0.469,1.173-0.781,1.378c-0.688,0.469-2.373,1.017-1.807,1.366c0.125-0.179,0.463-0.344,0.619,0.049
				c0.188,0.625-0.702,0.664-0.702,0.664s-0.562-0.07-0.662-0.642c-0.097-0.574,0.841-1.1,0.921-1.137
				c0.079-0.031,1.304-0.357,1.512-1.443c0.258-1.068,0.522-0.909,0.573-0.929c1.6,0.156,2.647,3.022,2.708,5.04
				c0.06,2.015-0.821,3.347-0.98,3.438c-0.159,0.088-3.812-4.338-3.812-4.338L419.664,305.462z"/>
			<g clip-path="url(#SVGID_4_)">
				<path fill="#010101" d="M423.125,310.02c-0.227,0-3.455-3.904-3.824-4.348l0.037-0.028c-0.147,0.04-0.27,0.046-0.275,0.046
					c-0.012,0-0.586-0.08-0.685-0.659c-0.105-0.614,0.921-1.153,0.932-1.159c0.509-0.165,1.333-0.555,1.5-1.43
					c0.228-0.942,0.472-0.942,0.552-0.942c1.647,0.156,2.71,3.051,2.77,5.057c0.06,2.031-0.836,3.372-0.988,3.458L423.125,310.02
					L423.125,310.02z M419.613,305.513c-0.045,0.04-0.1,0.068-0.162,0.094l-0.125,0.068c1.436,1.699,3.617,4.271,3.796,4.302
					c0.159-0.1,1.026-1.418,0.966-3.418c-0.057-1.991-1.107-4.864-2.688-5.021c-0.232,0.003-0.406,0.31-0.551,0.915
					c-0.17,0.893-1.012,1.29-1.498,1.446c-0.033,0.015-1.033,0.54-0.932,1.122c0.094,0.551,0.637,0.625,0.643,0.625
					c0,0,0.19-0.009,0.375-0.079l0.195-0.114c0.129-0.107,0.166-0.256,0.108-0.44c-0.125-0.312-0.466-0.213-0.582-0.045
					c-0.114-0.046-0.156-0.108-0.151-0.177c0.01-0.229,0.537-0.491,1.098-0.77c0.309-0.15,0.619-0.304,0.832-0.449
					c0.307-0.201,0.6-0.841,0.77-1.369c0.717,0.381,1.318,1.659,1.566,3.242c0.184,1.179,0.17,2.67-0.424,3.32l-3.154-3.244
					l3.154,3.216c0.457-0.536,0.616-1.795,0.381-3.287c-0.244-1.571-0.838-2.835-1.512-3.222c-0.145,0.523-0.44,1.171-0.758,1.378
					c-0.214,0.147-0.526,0.302-0.836,0.455c-0.525,0.259-1.065,0.525-1.076,0.732c-0.004,0.052,0.031,0.1,0.104,0.146
					c0.068-0.15,0.415-0.472,0.628,0.06c0.062,0.201,0.02,0.366-0.122,0.485l-0.012-0.008l0,0l0.012,0.011c0,0,0,0-0.003,0
					L419.613,305.513L419.613,305.513z"/>
			</g>
			<g clip-path="url(#SVGID_4_)">
				<polygon fill="#010101" points="422.018,308.334 421.955,302.396 421.997,302.396 422.018,308.334 				"/>
			</g>
			<g clip-path="url(#SVGID_4_)">
				<path fill="#010101" d="M421.662,307.899c-0.043,0-0.062-5.384-0.062-5.393h0.043
					C421.643,302.521,421.662,307.899,421.662,307.899L421.662,307.899z"/>
			</g>
			<g clip-path="url(#SVGID_4_)">
				<polygon fill="#010101" points="421.275,307.576 421.213,303.288 421.256,303.288 421.275,307.576 				"/>
			</g>
			<g clip-path="url(#SVGID_4_)">
				<polygon fill="#010101" points="420.961,307.141 420.898,303.593 420.94,303.593 420.961,307.141 				"/>
			</g>
			<g clip-path="url(#SVGID_4_)">
				<polygon fill="#010101" points="420.602,306.746 420.56,303.752 420.602,303.752 420.602,306.746 				"/>
			</g>
			<g clip-path="url(#SVGID_4_)">
				<polygon fill="#010101" points="420.238,306.359 420.195,303.987 420.238,303.987 420.238,306.359 				"/>
			</g>
			<g clip-path="url(#SVGID_4_)">
				<polygon fill="#010101" points="419.924,305.993 419.881,304.178 419.924,304.178 419.924,305.993 				"/>
			</g>
			<g clip-path="url(#SVGID_4_)">
				<path fill="#F7DF27" d="M422.909,309.556l-3.321-3.696c-0.014-0.014-0.012-0.037,0.003-0.051
					c0.015-0.012,0.037-0.009,0.048,0.006L422.909,309.556L422.909,309.556z"/>
			</g>
			<g clip-path="url(#SVGID_4_)">
				<path fill="#F7DF27" d="M423.15,309.448c-0.008,0-0.02,0-0.028-0.006c-0.034-0.018-0.046-0.057-0.028-0.088
					c1.342-2.608-0.094-5.821-0.111-5.853c-0.014-0.034,0-0.071,0.035-0.086c0.033-0.014,0.07,0,0.085,0.031
					c0.015,0.034,1.478,3.302,0.108,5.967C423.199,309.437,423.176,309.448,423.15,309.448L423.15,309.448z"/>
			</g>
			<g clip-path="url(#SVGID_4_)">
				<path fill="#F7DF27" d="M419.23,305.221c-0.009,0-0.018,0-0.023-0.006c-0.033-0.012-0.051-0.049-0.039-0.082
					c0.014-0.034,0.085-0.205,0.204-0.236c0.011-0.012,0.131,0.025,0.146,0.04c0.027,0.022,0.031,0.065,0.008,0.091
					c-0.025,0.025-0.065,0.031-0.094,0.009c-0.088-0.012-0.119,0.085-0.143,0.142C419.281,305.203,419.256,305.221,419.23,305.221
					L419.23,305.221z"/>
			</g>
			<g clip-path="url(#SVGID_4_)">
				<path fill="#F7DF27" d="M418.707,305.249c-0.017,0-0.033-0.006-0.048-0.021c-0.079-0.082-0.12-0.185-0.116-0.298
					c0.011-0.321,0.371-0.642,0.386-0.656c0.026-0.02,0.068-0.02,0.091,0.006c0.025,0.028,0.023,0.071-0.006,0.094
					c-0.002,0.003-0.329,0.298-0.34,0.562c-0.004,0.076,0.021,0.145,0.079,0.201c0.025,0.026,0.025,0.068,0,0.094
					C418.738,305.243,418.722,305.249,418.707,305.249L418.707,305.249z"/>
			</g>
			<path clip-path="url(#SVGID_4_)" fill="#FFFFFF" d="M358,276v2.435l38.672,19.339h4.869v-2.435L362.868,276H358z M401.541,276
				v2.435l-38.673,19.339H358v-2.435L396.672,276H401.541z"/>
			<path clip-path="url(#SVGID_4_)" fill="#FFFFFF" d="M376.142,297.773h7.256V276h-7.256V297.773z M358,290.515h43.541v-7.256H358
				V290.515z"/>
			<path clip-path="url(#SVGID_4_)" fill="#BA2025" d="M358,289.063h43.541v-4.353H358V289.063z M377.595,297.773h4.353V276h-4.353
				V297.773z"/>
			<path clip-path="url(#SVGID_4_)" fill="#BA2025" d="M358,297.773l14.512-7.259h3.246l-14.514,7.259H358z M358,276l14.512,7.259
				h-3.245L358,277.625V276z M383.783,283.259L398.297,276h3.244l-14.515,7.259H383.783z M401.541,297.773l-14.515-7.259h3.248
				l11.267,5.634V297.773z"/>
			<path clip-path="url(#SVGID_4_)" fill="#37823E" d="M423.73,296.084c0.222-0.19,0.335-0.305,0.472-0.284
				c0.136,0.02,0.321,0.011,0.457-0.031c0.137-0.04,0.81-0.125,1.089-0.031c0.094,0.011,0.219,0.062,0.411,0.224
				c0.193,0.162,0.478,0.446,0.384,1.23s-0.065,1.119-0.105,1.56c-0.074,0.776-0.244,1.412-0.554,1.361
				c0.417,0.733,0.46,1.36,0.729,1.86c0.273,0.503,0.441,1.529,0.336,2.637c-0.102,1.111-0.395,3.6,0.482,5.276
				c-0.146,0.103-0.502,0-0.818-0.336c-0.312-0.335-0.448-0.323-0.709-0.128c-0.796,0.608-1.541,1.339-2.637,0.608
				c-0.25-0.167-0.33-0.366-0.146-0.878c0.458-1.275,0.683-3.028,0.608-3.85V296.084z"/>
			<g clip-path="url(#SVGID_4_)">
				<path fill="#010101" d="M424.165,310.357c-0.298,0-0.597-0.1-0.909-0.311c-0.244-0.161-0.35-0.363-0.153-0.903
					c0.454-1.264,0.682-3.006,0.608-3.841v-9.219c0.238-0.219,0.34-0.308,0.46-0.308c0.247,0.031,0.358,0.009,0.483-0.028
					c0.156-0.048,0.869-0.107,1.102-0.031c0.111,0.015,0.25,0.088,0.418,0.23c0.158,0.134,0.491,0.412,0.389,1.247
					c-0.057,0.485-0.068,0.802-0.076,1.071c-0.006,0.168-0.012,0.321-0.025,0.488c-0.062,0.631-0.205,1.381-0.543,1.381
					c0.219,0.381,0.338,0.765,0.443,1.103c0.079,0.262,0.153,0.509,0.272,0.728c0.298,0.551,0.435,1.616,0.339,2.647l-0.021,0.182
					c-0.116,1.222-0.333,3.498,0.497,5.08c-0.164,0.199-0.486,0.079-0.85-0.31c-0.315-0.338-0.451-0.301-0.685-0.125l-0.202,0.159
					C425.236,309.971,424.742,310.357,424.165,310.357L424.165,310.357z M424.193,295.822c-0.128,0-0.225,0.082-0.387,0.222
					l-0.054,9.259c0.073,0.835-0.153,2.586-0.61,3.855c-0.188,0.517-0.098,0.699,0.139,0.855c0.89,0.597,1.654,0.136,2.406-0.449
					l0.202-0.159c0.25-0.188,0.409-0.228,0.741,0.131c0.268,0.284,0.64,0.435,0.79,0.332c-0.844-1.568-0.625-3.85-0.509-5.077
					l0.018-0.182c0.11-1.185-0.086-2.17-0.333-2.625c-0.119-0.222-0.196-0.472-0.278-0.732c-0.102-0.339-0.219-0.719-0.455-1.131
					c0.293-0.029,0.469-0.506,0.555-1.373c0.014-0.164,0.02-0.314,0.025-0.482c0.009-0.272,0.02-0.588,0.08-1.077
					c0.096-0.812-0.223-1.082-0.375-1.21c-0.162-0.137-0.293-0.207-0.404-0.219c-0.246-0.085-0.951-0.009-1.079,0.028
					c-0.131,0.04-0.323,0.054-0.466,0.034C424.196,295.822,424.196,295.822,424.193,295.822L424.193,295.822z"/>
			</g>
			<path clip-path="url(#SVGID_4_)" fill="#F8DECE" d="M424.486,295.3c0.06,0.176,0.088,0.406-0.006,0.616
				c-0.094,0.207-0.113,0.46,0.043,0.764c0.25-0.354,0.607-0.283,0.814-0.494c0.211-0.207,0.254-0.406,0.41-0.448
				c-0.156-0.137-0.398-0.281-0.348-0.68c0.055-0.397,0.608-0.722,0.105-1.329c-0.324-0.393-0.795-0.281-1-0.131
				c-0.094,0.071-0.176,0.173-0.207,0.241s0.006,0.222-0.068,0.312c-0.051,0.062-0.117,0.125-0.19,0.179
				c-0.046,0.035-0.073,0.083-0.025,0.143c0.02,0.022,0.057,0.025,0.097,0.04c-0.023,0.048-0.049,0.094-0.074,0.128
				c-0.025,0.033-0.014,0.062,0.014,0.091c-0.036,0.125,0.037,0.136-0.014,0.232c-0.045,0.08-0.107,0.177,0.062,0.271
				C424.145,295.263,424.369,295.313,424.486,295.3L424.486,295.3z"/>
			<g clip-path="url(#SVGID_4_)">
				<path fill="#010101" d="M424.52,296.72l-0.017-0.031c-0.142-0.272-0.153-0.528-0.042-0.781c0.088-0.196,0.062-0.409,0.017-0.562
					c0.091,0.168,0.114,0.378,0.022,0.58c-0.102,0.229-0.094,0.466,0.025,0.713c0.148-0.19,0.327-0.25,0.486-0.304
					c0.119-0.04,0.23-0.077,0.312-0.162c0.088-0.086,0.145-0.171,0.193-0.244c0.054-0.08,0.1-0.146,0.162-0.183
					c-0.035,0.068-0.074,0.131-0.129,0.208c-0.048,0.073-0.107,0.159-0.195,0.25c-0.091,0.091-0.207,0.128-0.33,0.17
					c-0.17,0.057-0.344,0.117-0.485,0.318L424.52,296.72L424.52,296.72z M425.702,295.691c-0.199-0.131-0.366-0.293-0.321-0.637
					c0.018-0.127,0.082-0.244,0.15-0.366c0.145-0.265,0.299-0.537-0.039-0.946c-0.406-0.488-0.816-0.244-0.975-0.128
					c-0.097,0.074-0.174,0.174-0.199,0.233c-0.012,0.022-0.014,0.062-0.014,0.103c-0.004,0.073-0.009,0.156-0.057,0.216
					c-0.058,0.068-0.125,0.131-0.193,0.182l-0.023,0.105l-0.062-0.052c0.003-0.031,0.023-0.062,0.061-0.088
					c0.067-0.048,0.13-0.11,0.184-0.173c0.043-0.052,0.046-0.125,0.049-0.193c0.003-0.046,0.003-0.088,0.018-0.117
					c0.033-0.076,0.121-0.182,0.215-0.25c0.168-0.122,0.603-0.38,1.029,0.137c0.354,0.429,0.189,0.728,0.042,0.992
					c-0.065,0.119-0.128,0.232-0.142,0.352c-0.046,0.344,0.127,0.489,0.283,0.617C425.707,295.683,425.705,295.686,425.702,295.691
					L425.702,295.691z M424.393,295.308c-0.131,0-0.265-0.031-0.305-0.054c-0.064-0.037-0.104-0.079-0.116-0.125
					c-0.017-0.06,0.015-0.119,0.043-0.168c0.005-0.13-0.003-0.17,0.017-0.238c0.015-0.125,0.037-0.168,0.062-0.219l-0.051-0.043
					l0.088,0.062c-0.018,0.034-0.045,0.088-0.076,0.131c0,0.137,0.008,0.168,0.014,0.196c0.009,0.034,0.018,0.068-0.014,0.122
					c-0.029,0.054-0.055,0.1-0.043,0.145c0.008,0.037,0.043,0.068,0.1,0.1c0.037,0.021,0.21,0.062,0.326,0.062
					c0.009,0.009,0.015,0.018,0.018,0.025C424.436,295.308,424.415,295.308,424.393,295.308L424.393,295.308z"/>
			</g>
			<path clip-path="url(#SVGID_4_)" fill="#F8DECE" d="M422.451,297.379c-0.295,0.074-0.764-0.051-1.119-0.008
				c-0.158,0.017-0.283-0.063-0.261-0.223c0.02-0.156,0.04-0.397,0.009-0.616c-0.049-0.341,0.116-0.815,0.346-1.341
				c0.23-0.52,0.344-0.812,0.344-1.06c0-0.162,0.018-0.347,0.162-0.44c0.108-0.068,0.131-0.137,0.171-0.193
				c0.088-0.131,0.171-0.162,0.182-0.082c0.006,0.045-0.011,0.088-0.052,0.15c0.092-0.08,0.254-0.171,0.291-0.196
				c0.033-0.025,0.221-0.156,0.232-0.034c0.07-0.037,0.122-0.034,0.139,0.006c0.023,0.043,0.009,0.06-0.027,0.091
				c0.051-0.011,0.11,0.083,0.008,0.162c0.055-0.017,0.111,0.074,0.014,0.156c-0.102,0.088-0.215,0.147-0.252,0.216
				s-0.287,0.259-0.384,0.301c-0.1,0.04-0.104,0.1-0.104,0.245c0,1.61-0.193,1.479-0.193,1.869c0,0.105-0.023,0.199,0.082,0.168
				s0.258-0.08,0.414-0.08V297.379z"/>
			<g clip-path="url(#SVGID_4_)">
				<path fill="#010101" d="M422.219,297.425c-0.111,0-0.23-0.009-0.352-0.021c-0.183-0.017-0.37-0.033-0.531-0.014
					c-0.117,0.008-0.199-0.025-0.242-0.074c-0.037-0.043-0.054-0.103-0.045-0.17c0.022-0.159,0.039-0.398,0.011-0.611
					c-0.054-0.369,0.146-0.892,0.347-1.35c0.238-0.539,0.344-0.818,0.344-1.054c0-0.171,0.02-0.361,0.17-0.458
					c0.083-0.051,0.111-0.102,0.14-0.15c0.083-0.122,0.142-0.173,0.188-0.173c0.052,0.088,0.048,0.139,0.028,0.185
					c0.043-0.062,0.123-0.111,0.176-0.145c0.105-0.071,0.193-0.128,0.254-0.128l0.139,0.025c0.082,0.085,0.08,0.119,0.051,0.145
					l-0.017-0.082l-0.028,0.014l-0.117-0.025c-0.062-0.031-0.127-0.003-0.198,0.049c-0.125,0.079-0.225,0.139-0.29,0.195
					c0.012-0.094,0.023-0.13,0.02-0.164c-0.042-0.026-0.09,0.011-0.145,0.091c-0.051,0.085-0.085,0.142-0.176,0.198
					c-0.134,0.089-0.15,0.256-0.15,0.424c0,0.244-0.108,0.525-0.35,1.068c-0.199,0.454-0.395,0.969-0.341,1.329
					c0.028,0.219,0.011,0.458-0.012,0.622c-0.005,0.058,0.006,0.103,0.034,0.14c0.034,0.04,0.094,0.062,0.165,0.062
					c0.286-0.028,0.395-0.009,0.582,0.009c0.222,0.017,0.44,0.031,0.574-0.003l-0.017-0.89c-0.123,0.021-0.265,0.062-0.367,0.094
					l-0.107-0.006c-0.025-0.025-0.025-0.073-0.023-0.13c0-0.177,0.023-0.253,0.051-0.347c0.058-0.196,0.143-0.489,0.143-1.568
					c0-0.146,0.006-0.216,0.119-0.265c0.097-0.043,0.342-0.23,0.375-0.29c0.025-0.048,0.082-0.091,0.148-0.139
					c0.033-0.025,0.07-0.052,0.107-0.083c0.043-0.039,0.051-0.076,0.043-0.099c0,0,0,0,0-0.003c0.051,0.048,0.028,0.094-0.015,0.133
					c-0.04,0.031-0.077,0.061-0.11,0.086c-0.062,0.045-0.117,0.082-0.14,0.125c-0.036,0.07-0.296,0.267-0.392,0.307
					c-0.086,0.037-0.094,0.076-0.094,0.228c0,1.085-0.086,1.384-0.145,1.579c-0.029,0.097-0.049,0.165-0.049,0.29l0.012,0.145
					c0.17-0.036,0.314-0.079,0.465-0.079l0.021,0.932C422.393,297.416,422.312,297.425,422.219,297.425L422.219,297.425z"/>
			</g>
			<path clip-path="url(#SVGID_4_)" fill="#F8DECE" d="M422.514,300.854c0.473-0.235,1.015-0.324,1.299-0.397
				c0.281-0.074,0.733-0.293,0.952-0.406c0.219-0.116,0.395-0.272,0.522-0.315c0.125-0.043,0.264-0.128,0.344-0.281
				c0.409-0.796,0.628-1.435,0.628-1.988c0-0.367-0.091-0.776-0.448-0.48c-0.333,0.272-0.699,0.804-0.796,1.19
				c-0.146,0.585-0.271,0.713-0.304,0.826c-0.031,0.117-0.15,0.117-0.293,0.148c-0.619,0.136-0.765,0.229-1.225,0.573
				c-0.461,0.347-0.961,0.65-1.299,0.838c-0.332,0.188-0.395,0.211-0.469,0.361c-0.073,0.15-0.142,0.268-0.204,0.335
				c-0.062,0.068-0.079,0.148-0.068,0.23c0.012,0.068-0.02,0.381-0.025,0.485c-0.006,0.105,0.021,0.131,0.062,0.137
				s0.1-0.017,0.119-0.139c-0.02,0.122,0.153,0.082,0.165-0.012c-0.009,0.134,0.176,0.057,0.185-0.068
				c0,0.088,0.14,0.025,0.153-0.017c0.031-0.105,0.057-0.219,0.1-0.305c0.06-0.119,0.128-0.275,0.244-0.366
				C422.295,301.106,422.232,300.996,422.514,300.854L422.514,300.854z"/>
			<g clip-path="url(#SVGID_4_)">
				<path fill="#010101" d="M421.201,302.132h-0.014c-0.08-0.011-0.085-0.088-0.082-0.159l0.012-0.122
					c0.008-0.125,0.021-0.312,0.017-0.36c-0.015-0.097,0.009-0.179,0.073-0.247c0.057-0.062,0.125-0.174,0.199-0.33
					c0.068-0.142,0.128-0.173,0.378-0.315l0.103-0.054c0.213-0.119,0.767-0.443,1.295-0.838c0.463-0.347,0.608-0.44,1.233-0.577
					c0.177-0.034,0.253-0.048,0.275-0.133c0.012-0.034,0.028-0.071,0.054-0.12c0.055-0.11,0.148-0.295,0.25-0.707
					c0.098-0.375,0.455-0.918,0.805-1.202c0.377-0.312,0.482,0.265,0.482,0.498c0,0.531-0.195,1.147-0.631,1.997
					c-0.094,0.182-0.264,0.261-0.357,0.292c-0.065,0.023-0.148,0.077-0.242,0.143c-0.082,0.054-0.176,0.116-0.277,0.17
					c-0.281,0.148-0.702,0.344-0.955,0.409l-0.213,0.052c-0.301,0.068-0.711,0.162-1.082,0.346c-0.168,0.083-0.208,0.154-0.248,0.22
					c-0.025,0.045-0.048,0.088-0.105,0.128c-0.099,0.076-0.161,0.201-0.215,0.314c-0.057,0.108-0.08,0.193-0.103,0.276
					c-0.031,0.104-0.097,0.145-0.147,0.145l0,0c-0.031,0.025-0.114,0.094-0.18,0.094l-0.074-0.094
					c0.037,0.068-0.031,0.11-0.084,0.11l-0.077-0.102c0.113,0.06,0.159,0.028,0.161-0.009c0.117,0.051,0.183,0,0.188-0.068
					l0.174-0.014l-0.02-0.006c0.043-0.153,0.068-0.241,0.1-0.307c0.079-0.162,0.145-0.293,0.252-0.375
					c0.052-0.034,0.071-0.071,0.094-0.114c0.043-0.068,0.088-0.147,0.268-0.238c0.372-0.188,0.787-0.278,1.091-0.35l0.21-0.049
					c0.254-0.064,0.668-0.258,0.946-0.406c0.103-0.051,0.193-0.113,0.276-0.167c0.096-0.065,0.182-0.125,0.252-0.147
					c0.086-0.029,0.244-0.103,0.33-0.271c0.435-0.844,0.627-1.454,0.627-1.979c0-0.171-0.064-0.754-0.414-0.467
					c-0.344,0.281-0.696,0.812-0.79,1.183c-0.103,0.414-0.196,0.602-0.253,0.716c-0.022,0.045-0.039,0.079-0.051,0.113
					c-0.028,0.105-0.128,0.125-0.238,0.145c-0.686,0.151-0.83,0.245-1.285,0.586c-0.527,0.397-1.085,0.719-1.301,0.838l-0.102,0.057
					c-0.245,0.14-0.296,0.168-0.361,0.296c-0.076,0.162-0.145,0.272-0.207,0.341c-0.052,0.06-0.074,0.131-0.062,0.213
					c0.008,0.051-0.006,0.228-0.018,0.369l-0.008,0.122c-0.006,0.108,0.025,0.111,0.042,0.114h0.011c0.058,0,0.08-0.068,0.089-0.125
					C421.31,302.109,421.238,302.132,421.201,302.132L421.201,302.132z"/>
			</g>
			<path clip-path="url(#SVGID_4_)" fill="#F8DECE" d="M425.904,309.422c0.031,0.117,0.09,0.248,0.11,0.327
				c0.02,0.077-0.017,0.103-0.037,0.146c-0.11,0.229-0.228,0.599-0.244,0.795c-0.012,0.116-0.091,0.225-0.128,0.293
				c-0.04,0.076-0.025,0.133,0.068,0.204c0.045,0.034,0.189-0.011,0.204-0.082c0.054,0.051,0.146,0.031,0.188-0.049
				c0.048,0.049,0.128,0.018,0.179-0.062c0.046,0.031,0.117-0.031,0.143-0.073c0.07,0.037,0.15-0.006,0.153-0.15
				c0-0.029,0.017-0.08,0.04-0.114c0.02-0.034,0.028-0.1,0.025-0.156s0.034-0.173,0.085-0.253c0.048-0.082,0.134-0.227,0.097-0.36
				c-0.034-0.128-0.088-0.117-0.137-0.299c-0.113-0.122-0.27-0.29-0.432-0.298C426.057,309.277,425.961,309.389,425.904,309.422
				L425.904,309.422z"/>
			<g clip-path="url(#SVGID_4_)">
				<path fill="#010101" d="M425.719,311.221l-0.06-0.017c-0.097-0.077-0.119-0.146-0.071-0.23c0.061-0.105,0.114-0.196,0.123-0.284
					c0.017-0.193,0.131-0.562,0.246-0.804l0.037-0.131c-0.011-0.04-0.027-0.088-0.048-0.14c-0.022-0.06-0.046-0.125-0.062-0.188
					c0.103-0.097,0.19-0.162,0.315-0.162c0.188,0.012,0.347,0.18,0.463,0.302c0.037,0.11,0.062,0.15,0.088,0.188
					c0.02,0.034,0.043,0.062,0.057,0.125c0.041,0.142-0.045,0.287-0.1,0.375c-0.051,0.085-0.082,0.193-0.082,0.244
					c0.003,0.054-0.002,0.125-0.028,0.168c-0.02,0.031-0.034,0.079-0.036,0.103c-0.004,0.136-0.068,0.185-0.129,0.185
					c-0.051,0.014-0.104,0.07-0.158,0.07c-0.052,0.04-0.103,0.074-0.154,0.074c-0.062,0.022-0.116,0.054-0.17,0.054
					C425.884,311.178,425.784,311.221,425.719,311.221L425.719,311.221z M426.217,309.309c-0.129,0-0.205,0.06-0.26,0.1
					c-0.017,0.068,0.006,0.134,0.029,0.193c0.02,0.054,0.039,0.104,0.048,0.142c0.021,0.068-0.003,0.103-0.022,0.134
					c-0.131,0.264-0.242,0.625-0.259,0.815c-0.009,0.1-0.065,0.193-0.108,0.262c-0.051,0.097-0.051,0.145,0.043,0.216l0.031,0.008
					c0.055,0,0.128-0.036,0.137-0.079c0.137,0.015,0.17-0.012,0.193-0.051c0.105,0.014,0.147-0.021,0.179-0.065
					c0.077,0,0.122-0.043,0.14-0.071c0.158-0.006,0.15-0.054,0.15-0.142c0.002-0.037,0.022-0.092,0.043-0.125
					c0.017-0.026,0.025-0.086,0.025-0.146c-0.004-0.062,0.037-0.182,0.085-0.265c0.051-0.085,0.13-0.219,0.097-0.346
					c-0.015-0.052-0.031-0.08-0.051-0.111c-0.029-0.037-0.058-0.082-0.086-0.185c-0.111-0.113-0.262-0.272-0.412-0.284H426.217
					L426.217,309.309z"/>
			</g>
			<path clip-path="url(#SVGID_4_)" fill="#F8DECE" d="M422.926,310.323c0.148,0.147,0.478,0.153,0.708-0.094
				c-0.083-0.037-0.267-0.12-0.353-0.188C423.168,310.155,423.037,310.286,422.926,310.323L422.926,310.323z"/>
			<g clip-path="url(#SVGID_4_)">
				<path fill="#010101" d="M423.205,310.448c-0.117,0-0.225-0.04-0.293-0.108c0.113-0.07,0.241-0.199,0.355-0.312
					c0.107,0.06,0.277,0.14,0.375,0.182C423.528,310.371,423.367,310.448,423.205,310.448L423.205,310.448z M423.27,310.059
					c-0.088,0.113-0.221,0.247-0.335,0.284c0.068,0.028,0.165,0.062,0.271,0.062l0,0c0.15,0,0.301-0.068,0.412-0.19
					C423.525,310.207,423.353,310.124,423.27,310.059L423.27,310.059z"/>
			</g>
			<path clip-path="url(#SVGID_4_)" fill="#7B1316" d="M424.406,293.686c0.061-0.369,0.321-0.36,0.488-0.324
				c0.068,0.018,0.236,0.031,0.393-0.011c0.31-0.083,0.543,0.028,0.514,0.326c0.083,0.062,0.171,0.208,0.156,0.336
				c-0.017,0.125,0.01,0.176,0.125,0.192c0.114,0.015,0.361,0.156,0.199,0.355c0.156,0.094,0.279,0.336,0.193,0.497
				c-0.085,0.162-0.335,0.188-0.44,0.043c-0.116,0.051-0.301,0.062-0.417-0.06c-0.077,0.097-0.279,0.085-0.312,0
				c-0.04-0.082-0.1-0.128-0.174-0.15c-0.085-0.025-0.088-0.256,0.034-0.284c-0.015-0.065-0.009-0.146,0.022-0.183
				c0.031-0.036,0.006-0.104-0.068-0.161c-0.073-0.058-0.136-0.278-0.062-0.398c-0.125,0.043-0.402-0.079-0.46-0.161
				C424.537,293.62,424.461,293.611,424.406,293.686L424.406,293.686z"/>
			<g clip-path="url(#SVGID_4_)">
				<path fill="#010101" d="M426.233,295.217c-0.089,0-0.168-0.039-0.216-0.104c-0.065,0.07-0.268,0.102-0.415-0.058
					c-0.015,0.097-0.278,0.089-0.318-0.005c-0.034-0.071-0.082-0.117-0.159-0.14c-0.057-0.017-0.079-0.094-0.076-0.159
					c0.002-0.085,0.048-0.15,0.113-0.165c-0.031-0.039-0.031-0.127,0.009-0.176c0.005-0.06-0.022-0.097-0.062-0.131
					c-0.068-0.054-0.122-0.213-0.1-0.341c0.022,0.122,0.068,0.265,0.125,0.307c0.052,0.04,0.083,0.089,0.088,0.134
					c-0.042,0.088-0.051,0.159-0.034,0.225c-0.074,0.037-0.094,0.097-0.096,0.15c-0.004,0.057,0.017,0.108,0.045,0.116
					c0.088,0.026,0.147,0.08,0.185,0.162c0.028,0.068,0.219,0.071,0.278-0.003c0.193,0.137,0.321,0.1,0.426,0.052
					c0.148,0.139,0.358,0.104,0.432-0.034c0.077-0.15-0.039-0.378-0.188-0.469c0.043-0.088,0.055-0.146,0.035-0.196
					c-0.035-0.085-0.154-0.146-0.225-0.156c-0.143-0.021-0.159-0.097-0.145-0.216c0.014-0.114-0.066-0.256-0.148-0.315
					c0.003-0.122-0.018-0.202-0.068-0.259c-0.082-0.091-0.238-0.113-0.426-0.065c-0.148,0.04-0.372,0.021-0.403,0.012
					c-0.265-0.057-0.412,0.037-0.458,0.29l-0.045,0.011c0.045-0.287,0.216-0.412,0.514-0.341c0.031,0.006,0.239,0.025,0.381-0.012
					c0.202-0.054,0.375-0.025,0.469,0.077c0.057,0.062,0.082,0.159,0.071,0.27c0.083,0.052,0.171,0.208,0.156,0.336
					c-0.015,0.119,0.009,0.159,0.108,0.17c0.079,0.012,0.215,0.077,0.258,0.185c0.018,0.046,0.023,0.119-0.045,0.208
					c0.162,0.067,0.283,0.318,0.195,0.494C426.446,295.157,426.344,295.217,426.233,295.217L426.233,295.217z M424.946,293.861
					c-0.162,0-0.323-0.082-0.366-0.147c-0.025-0.037-0.057-0.057-0.086-0.057l-0.017,0.003c0.073-0.037,0.108-0.012,0.136,0.031
					c0.046,0.065,0.25,0.162,0.381,0.162c0,0,0,0.003,0,0.008C424.98,293.861,424.963,293.861,424.946,293.861L424.946,293.861z"/>
			</g>
			<g clip-path="url(#SVGID_4_)">
				<path fill="#010101" d="M424.488,295.319l-0.005-0.043c0.097-0.011,0.159-0.045,0.222-0.079s0.122-0.06,0.207-0.062
					c-0.074,0.037-0.128,0.068-0.188,0.1C424.662,295.269,424.594,295.305,424.488,295.319L424.488,295.319z"/>
			</g>
			<g clip-path="url(#SVGID_4_)">
				<path fill="none" d="M424.051,294.731c0.015,0.011,0.031,0.02,0.052,0.031c0.04,0.022,0.085,0.022,0.128,0.028L424.051,294.731z
					"/>
			</g>
			<g clip-path="url(#SVGID_4_)">
				<path fill="none" d="M424.111,294.513c0.031,0.011,0.062,0.025,0.088,0.054L424.111,294.513z"/>
			</g>
			<g clip-path="url(#SVGID_4_)">
				<path fill="#010101" d="M425.273,293.739c-0.057,0-0.123-0.017-0.16-0.054c-0.136-0.134-0.289-0.196-0.42-0.156
					c-0.057,0.018-0.1,0.051-0.111,0.088l-0.011,0.086l-0.028-0.097c0.012-0.052,0.065-0.097,0.139-0.117
					c0.143-0.039,0.316,0.021,0.463,0.168c0.055,0.051,0.205,0.054,0.25,0.04C425.375,293.726,425.327,293.739,425.273,293.739
					L425.273,293.739z"/>
			</g>
			<g clip-path="url(#SVGID_4_)">
				<path fill="#010101" d="M426.162,294.635c-0.008,0-0.018,0-0.022,0c-0.105-0.018-0.216-0.134-0.327-0.347
					c-0.054-0.1-0.11-0.119-0.164-0.14c-0.057-0.02-0.114-0.039-0.15-0.136c-0.077-0.196-0.381-0.14-0.438-0.128l-0.01-0.04
					c0.191-0.046,0.416-0.025,0.483,0.153c0.031,0.077,0.074,0.091,0.125,0.111c0.062,0.02,0.131,0.045,0.19,0.158
					c0.103,0.199,0.207,0.311,0.295,0.324c0.043,0.006,0.083-0.008,0.123-0.045C426.25,294.611,426.207,294.635,426.162,294.635
					L426.162,294.635z"/>
			</g>
			<g clip-path="url(#SVGID_4_)">
				<path fill="#010101" d="M425.6,295.055c-0.054-0.07-0.07-0.216-0.039-0.312c-0.068-0.064-0.035-0.229,0-0.301
					c0.002,0.091-0.021,0.23,0.033,0.293c-0.022,0.104-0.006,0.235,0.04,0.295L425.6,295.055L425.6,295.055z"/>
			</g>
			<g clip-path="url(#SVGID_4_)">
				<path fill="none" d="M425.165,294.606c0.009,0.065,0.091,0.179,0.222,0.198L425.165,294.606z"/>
			</g>
			<g clip-path="url(#SVGID_4_)">
				<path fill="none" d="M426.034,295.101c-0.073-0.094-0.062-0.179-0.048-0.296L426.034,295.101z"/>
			</g>
			<g clip-path="url(#SVGID_4_)">
				<path fill="#010101" d="M425.656,294.492c-0.15,0-0.232-0.113-0.252-0.164c-0.1-0.034-0.16-0.171-0.154-0.271h0.043
					c-0.006,0.088,0.049,0.205,0.137,0.241c0.033,0.066,0.147,0.205,0.326,0.177C425.719,294.486,425.688,294.492,425.656,294.492
					L425.656,294.492z"/>
			</g>
			<g clip-path="url(#SVGID_4_)">
				<path fill="#010101" d="M425.787,293.691c-0.122-0.094-0.272-0.196-0.466-0.222c0.219-0.017,0.366,0.091,0.491,0.19
					L425.787,293.691L425.787,293.691z"/>
			</g>
			<g clip-path="url(#SVGID_4_)">
				<path fill="#010101" d="M424.202,299.215c0.298-0.327,0.182-0.975,0.097-1.449c-0.08-0.452-0.006-0.81,0.207-1.1l0.034,0.025
					c-0.208,0.281-0.278,0.628-0.204,1.031C424.426,298.243,424.546,298.902,424.202,299.215L424.202,299.215z"/>
			</g>
			<g clip-path="url(#SVGID_4_)">
				<path fill="#010101" d="M424.717,300.328c-0.114,0-0.23-0.022-0.327-0.071c0.228,0.065,0.528,0.049,0.707-0.079
					c0.19-0.137,0.534-0.143,0.79-0.086l-0.009,0.04c-0.238-0.051-0.577-0.051-0.759,0.08
					C425.015,300.288,424.867,300.328,424.717,300.328L424.717,300.328z"/>
			</g>
			<g clip-path="url(#SVGID_4_)">
				<path fill="#010101" d="M425.077,302.169c-0.091-0.372-0.068-0.75-0.048-1.082c0.008-0.156,0.017-0.299,0.017-0.421
					c0-0.378,0.097-0.551,0.327-0.591l0.008,0.04c-0.176,0.031-0.293,0.136-0.293,0.551c0,0.125-0.008,0.268-0.017,0.421
					C425.051,301.419,425.029,301.794,425.077,302.169L425.077,302.169z"/>
			</g>
			<g clip-path="url(#SVGID_4_)">
				<path fill="#010101" d="M424.765,300.666c-0.068-0.355,0.065-0.389,0.192-0.42l0.041,0.033l-0.029,0.006
					C424.847,300.316,424.742,300.342,424.765,300.666L424.765,300.666z"/>
			</g>
			<g clip-path="url(#SVGID_4_)">
				<path fill="#010101" d="M424.307,300.678l-0.042-0.003c0.005-0.185,0.057-0.333,0.134-0.393
					c0.039-0.028,0.082-0.034,0.125-0.025l-0.1,0.06C424.358,300.368,424.312,300.507,424.307,300.678L424.307,300.678z"/>
			</g>
			<g clip-path="url(#SVGID_4_)">
				<path fill="#010101" d="M426.699,306.027c-0.119-0.268-0.134-0.753-0.15-1.318c-0.02-0.781-0.049-1.756-0.268-2.478
					c-0.039-0.125-0.074-0.232-0.11-0.335c-0.094-0.275-0.179-0.518-0.225-0.966c-0.057-0.552-0.136-0.733-0.239-0.793
					c0.08,0.097,0.114,0.287,0.108,0.579h-0.042c0.006-0.298-0.031-0.491-0.111-0.567c-0.025-0.026-0.054-0.04-0.088-0.043
					c-0.009,0-0.018,0-0.025,0c0.048-0.037,0.085-0.028,0.119-0.009c0.15,0.018,0.253,0.177,0.32,0.827
					c0.046,0.443,0.129,0.682,0.223,0.96c0.037,0.1,0.073,0.208,0.11,0.333c0.222,0.729,0.25,1.707,0.271,2.491
					C426.608,305.269,426.623,305.755,426.699,306.027L426.699,306.027z"/>
			</g>
			<g clip-path="url(#SVGID_4_)">
				<path fill="#010101" d="M426.446,307.937c-0.091-0.293-0.267-0.728-0.491-1.281c-0.156-0.378-0.332-0.815-0.512-1.304
					c0.668-2.114,0.415-3.404,0.043-4.48l0.039-0.015c0.375,1.085,0.629,2.381-0.042,4.492c0.179,0.477,0.354,0.911,0.509,1.292
					C426.219,307.195,426.398,307.633,426.446,307.937L426.446,307.937z"/>
			</g>
			<g clip-path="url(#SVGID_4_)">
				<path fill="#010101" d="M424.27,303.59l-0.039-0.012c0.025-0.085,0.008-0.145-0.012-0.23c-0.039-0.15-0.096-0.38,0.055-0.982
					c0.096-0.39,0.113-0.628,0.054-0.747c0.103,0.113,0.088,0.353-0.015,0.759c-0.147,0.591-0.091,0.814-0.054,0.963
					C424.281,303.425,424.299,303.493,424.27,303.59L424.27,303.59z"/>
			</g>
			<g clip-path="url(#SVGID_4_)">
				<path fill="#010101" d="M424.469,303.885c0.074-0.323-0.008-0.71-0.079-1.051c-0.054-0.262-0.108-0.506-0.065-0.688l0.043,0.012
					c-0.04,0.17,0.008,0.411,0.064,0.667C424.503,303.172,424.586,303.564,424.469,303.885L424.469,303.885z"/>
			</g>
			<g clip-path="url(#SVGID_4_)">
				<path fill="#010101" d="M425.131,310.027c0.139-0.128,0.131-0.403,0.125-0.625c0-0.062-0.003-0.122,0-0.168
					c0.055-1.119-0.33-1.948-0.963-3.213l-0.1-0.188c-0.122-0.228-0.21-0.392-0.193-0.679c0.012-0.199-0.012-0.429-0.031-0.656
					c-0.017-0.182-0.033-0.358-0.033-0.518h0.042c0,0.156,0.017,0.336,0.034,0.515c0.02,0.228,0.043,0.46,0.031,0.659
					c-0.018,0.278,0.068,0.438,0.188,0.659l0.102,0.19c0.635,1.267,1.021,2.103,0.967,3.229c-0.003,0.049,0,0.105,0,0.165
					C425.305,309.633,425.312,309.922,425.131,310.027L425.131,310.027z"/>
			</g>
			<g clip-path="url(#SVGID_4_)">
				<path fill="#010101" d="M423.986,310.34c-0.006,0-0.012,0-0.015,0l0.003-0.043c0.037,0.004,0.111-0.014,0.188-0.201
					c0.074-0.176,0.33-1.304,0.225-2.08c0.147,0.779-0.111,1.918-0.185,2.098C424.137,310.271,424.068,310.34,423.986,310.34
					L423.986,310.34z"/>
			</g>
			<g clip-path="url(#SVGID_4_)">
				<path fill="#010101" d="M424.426,310.02c0.123-0.415,0.114-0.918,0.086-1.126l0.043-0.005
					C424.582,309.102,424.592,309.609,424.426,310.02L424.426,310.02z"/>
			</g>
			<g clip-path="url(#SVGID_4_)">
				<path fill="#010101" d="M424.961,309.471c0.039-0.358,0.037-0.827-0.052-1.299l0.043-0.008
					C425.04,308.639,425.043,309.115,424.961,309.471L424.961,309.471z"/>
			</g>
			<g clip-path="url(#SVGID_4_)">
				<path fill="#010101" d="M424.674,310.261c0.096-0.068,0.062-0.421,0.039-0.631l-0.014-0.162l0.043-0.003l0.014,0.162
					C424.784,309.891,424.815,310.224,424.674,310.261L424.674,310.261z"/>
			</g>
			<g clip-path="url(#SVGID_4_)">
				<path fill="#010101" d="M426.537,309.439c-0.205-0.137-0.369-0.625-0.543-1.143c-0.158-0.471-0.323-0.96-0.506-1.247
					l0.037-0.022c0.186,0.293,0.35,0.781,0.509,1.256C426.207,308.797,426.369,309.28,426.537,309.439L426.537,309.439z"/>
			</g>
			<g clip-path="url(#SVGID_4_)">
				<path fill="#010101" d="M425.818,309.215v-0.02c-0.008-0.156-0.022-0.372-0.107-0.469c0.127,0.079,0.139,0.292,0.15,0.466
					L425.818,309.215L425.818,309.215z"/>
			</g>
			<g clip-path="url(#SVGID_4_)">
				<path fill="none" d="M421.659,301.891c0.009-0.116-0.011-0.225,0.11-0.403L421.659,301.891z"/>
			</g>
			<g clip-path="url(#SVGID_4_)">
				<path fill="#010101" d="M421.475,301.959l-0.02-0.074c0.014-0.341,0.017-0.383,0.131-0.491
					c-0.074,0.128-0.077,0.162-0.089,0.491L421.475,301.959L421.475,301.959z"/>
			</g>
			<g clip-path="url(#SVGID_4_)">
				<path fill="#010101" d="M421.332,301.971h-0.042v-0.177c-0.003-0.162-0.006-0.261,0.088-0.406
					c-0.052,0.156-0.048,0.247-0.048,0.406L421.332,301.971L421.332,301.971z"/>
			</g>
			<g clip-path="url(#SVGID_4_)">
				<path fill="none" d="M422.756,293.336c-0.045,0.028-0.307,0.228-0.418,0.31L422.756,293.336z"/>
			</g>
			<g clip-path="url(#SVGID_4_)">
				<path fill="#010101" d="M422.43,293.773l0.067-0.104c0.228-0.177,0.318-0.25,0.366-0.256l0.006,0.04
					c-0.037,0.008-0.168,0.107-0.346,0.25L422.43,293.773L422.43,293.773z"/>
			</g>
			<g clip-path="url(#SVGID_4_)">
				<path fill="#010101" d="M422.509,293.898c0.036-0.076,0.099-0.128,0.156-0.176c0.082-0.068,0.15-0.125,0.198-0.147l0.021,0.039
					c-0.046,0.021-0.116,0.077-0.19,0.14C422.634,293.802,422.571,293.854,422.509,293.898L422.509,293.898z"/>
			</g>
			<g clip-path="url(#SVGID_4_)">
				<path fill="none" d="M422.232,293.566c-0.042,0.028-0.115,0.113-0.152,0.142L422.232,293.566z"/>
			</g>
			<g clip-path="url(#SVGID_4_)">
				<path fill="none" d="M425.878,311.104c-0.022-0.025-0.022-0.119,0.021-0.222L425.878,311.104z"/>
			</g>
			<g clip-path="url(#SVGID_4_)">
				<path fill="none" d="M426.065,311.056c-0.028-0.028,0-0.153,0.028-0.235L426.065,311.056z"/>
			</g>
			<g clip-path="url(#SVGID_4_)">
				<path fill="none" d="M426.244,310.993c-0.033-0.014-0.045-0.088,0.006-0.188L426.244,310.993z"/>
			</g>
			<g clip-path="url(#SVGID_4_)">
				<path fill="none" d="M426.387,310.92c-0.025-0.006-0.034-0.046,0.008-0.162L426.387,310.92z"/>
			</g>
			<path clip-path="url(#SVGID_4_)" fill="#010101" d="M424.327,294.016c0.073,0.099,0.153,0.091,0.167,0.153
				c0.015,0.065,0.023,0.067,0.037,0.088c0.018,0.02-0.033,0.015-0.06,0.006c-0.022-0.012-0.085-0.009-0.122-0.009
				c-0.039,0-0.082-0.046-0.054-0.049c0.028-0.005,0.022-0.014,0.02-0.033c-0.005-0.021,0.015-0.052,0.028-0.058
				c0.009-0.005,0-0.003-0.008-0.028C424.324,294.058,424.311,293.995,424.327,294.016L424.327,294.016z"/>
			<path clip-path="url(#SVGID_4_)" fill="#010101" d="M424.373,293.924c0.084,0.012,0.232,0.058,0.309,0.146
				c0.062,0.068,0.015,0.051-0.02,0.054c-0.031,0.003-0.094-0.02-0.125-0.06c-0.028-0.04-0.122-0.088-0.17-0.103
				C424.338,293.953,424.311,293.919,424.373,293.924L424.373,293.924z"/>
		</g>
	</g>
</g>
</svg>
