<?xml version="1.0" encoding="utf-8"?>
<!-- Generator: Adobe Illustrator 16.0.0, SVG Export Plug-In . SVG Version: 6.00 Build 0)  -->
<!DOCTYPE svg PUBLIC "-//W3C//DTD SVG 1.1//EN" "http://www.w3.org/Graphics/SVG/1.1/DTD/svg11.dtd">
<svg version="1.1" id="name" xmlns="http://www.w3.org/2000/svg" xmlns:xlink="http://www.w3.org/1999/xlink" x="0px" y="0px"
	 width="85.713px" height="50px" viewBox="358 276 85.713 50" enable-background="new 358 276 85.713 50" xml:space="preserve">
<g id="mt">
	<g>
		<defs>
			<rect id="SVGID_1_" x="358" y="276" width="85.713" height="50"/>
		</defs>
		<clipPath id="SVGID_2_">
			<use xlink:href="#SVGID_1_"  overflow="visible"/>
		</clipPath>
		<rect x="400.857" y="276" clip-path="url(#SVGID_2_)" fill="#BD1F38" width="42.855" height="50"/>
		<rect x="358" y="276" clip-path="url(#SVGID_2_)" fill="#FFFFFF" width="42.857" height="50"/>
		<g clip-path="url(#SVGID_2_)">
			<defs>
				<rect id="SVGID_3_" x="358" y="276" width="85.713" height="50"/>
			</defs>
			<clipPath id="SVGID_4_">
				<use xlink:href="#SVGID_3_"  overflow="visible"/>
			</clipPath>
			<path clip-path="url(#SVGID_4_)" fill="#EFECEC" d="M367.914,283.611c0,0.079-0.091,0.145-0.203,0.145s-0.203-0.065-0.203-0.145
				c0-0.08,0.09-0.145,0.203-0.145S367.914,283.531,367.914,283.611L367.914,283.611z"/>
			<path clip-path="url(#SVGID_4_)" fill="#D31F3B" d="M361.572,282.909v3.683h3.682c0,0.613,0.613,1.227,1.227,1.227v3.683h3.682
				v-3.683c0.613,0,1.227-0.613,1.227-1.227h3.682v-3.683h-3.682c0-0.613-0.614-1.228-1.227-1.228V278h-3.682v3.682
				c-0.614,0-1.227,0.614-1.227,1.228H361.572z"/>
			<path clip-path="url(#SVGID_4_)" fill="#BD1F38" d="M361.694,283.031v3.438h3.682c0,0.613,0.614,1.227,1.228,1.227v3.683h3.436
				v-3.683c0.615,0,1.227-0.613,1.227-1.227h3.682v-3.438h-3.682c0-0.613-0.612-1.227-1.227-1.227v-3.683h-3.436v3.683
				c-0.614,0-1.228,0.613-1.228,1.227H361.694z"/>
			<path clip-path="url(#SVGID_4_)" fill="#91857C" d="M361.817,283.154v3.193h3.682c0,0.613,0.614,1.227,1.228,1.227v3.68h3.19
				v-3.68c0.613,0,1.227-0.613,1.227-1.227h3.682v-3.193h-3.682c0-0.614-0.614-1.228-1.227-1.228v-3.68h-3.19v3.68
				c-0.614,0-1.228,0.613-1.228,1.228H361.817z"/>
			<path clip-path="url(#SVGID_4_)" fill="#CACACA" d="M361.94,283.279v2.945h3.681c0,0.614,0.614,1.228,1.228,1.228v3.68h2.946
				v-3.68c0.613,0,1.227-0.613,1.227-1.228h3.682v-2.945h-3.682c0-0.617-0.613-1.23-1.227-1.23v-3.68h-2.946v3.68
				c-0.614,0-1.228,0.613-1.228,1.23H361.94z"/>
			<path clip-path="url(#SVGID_4_)" fill="#CFCFCE" d="M366.879,281.744c0.216,0.217,0.041,0.742-0.39,1.174
				c-0.432,0.432-0.956,0.608-1.171,0.39c-0.217-0.216-0.042-0.739,0.39-1.171C366.139,281.705,366.664,281.531,366.879,281.744
				L366.879,281.744z"/>
			<path clip-path="url(#SVGID_4_)" fill="#91857C" d="M366.618,282.009c0.217,0.213,0.159,0.619-0.129,0.909
				c-0.289,0.287-0.695,0.347-0.912,0.131c-0.215-0.216-0.157-0.625,0.131-0.912C365.996,281.85,366.403,281.79,366.618,282.009
				L366.618,282.009z"/>
			<polygon clip-path="url(#SVGID_4_)" fill="#CFCFCE" points="365.534,282.656 365.621,282.571 365.968,282.745 365.794,282.398 
				365.881,282.311 366.229,283.003 			"/>
			
				<rect x="366.297" y="281.985" transform="matrix(-0.7011 0.713 -0.713 -0.7011 824.552 219.1015)" clip-path="url(#SVGID_4_)" fill="#CFCFCE" width="0.123" height="0.737"/>
			<path clip-path="url(#SVGID_4_)" fill="#CFCFCE" d="M371.326,283.308c-0.217,0.219-0.741,0.042-1.171-0.39
				c-0.432-0.432-0.606-0.957-0.391-1.174c0.216-0.213,0.74-0.039,1.172,0.393C371.367,282.568,371.541,283.092,371.326,283.308
				L371.326,283.308z"/>
			<path clip-path="url(#SVGID_4_)" fill="#91857C" d="M371.065,283.049c-0.215,0.216-0.624,0.156-0.911-0.131
				c-0.288-0.287-0.347-0.696-0.131-0.909c0.216-0.219,0.624-0.159,0.912,0.128S371.281,282.833,371.065,283.049L371.065,283.049z"
				/>
			<polygon clip-path="url(#SVGID_4_)" fill="#CFCFCE" points="370.414,281.963 370.502,282.049 370.328,282.398 370.675,282.222 
				370.761,282.311 370.067,282.656 			"/>
			
				<rect x="370.657" y="282.42" transform="matrix(-0.7011 -0.713 0.713 -0.7011 429.0103 745.3925)" clip-path="url(#SVGID_4_)" fill="#CFCFCE" width="0.123" height="0.736"/>
			<path clip-path="url(#SVGID_4_)" fill="#CFCFCE" d="M369.764,287.756c-0.216-0.216-0.041-0.741,0.391-1.173
				c0.43-0.432,0.955-0.605,1.171-0.39c0.215,0.217,0.041,0.739-0.391,1.171C370.503,287.796,369.979,287.97,369.764,287.756
				L369.764,287.756z"/>
			<path clip-path="url(#SVGID_4_)" fill="#91857C" d="M370.024,287.495c-0.216-0.216-0.157-0.622,0.131-0.912
				c0.287-0.287,0.695-0.344,0.911-0.131c0.215,0.216,0.157,0.625-0.13,0.912C370.648,287.654,370.24,287.711,370.024,287.495
				L370.024,287.495z"/>
			<polygon clip-path="url(#SVGID_4_)" fill="#CFCFCE" points="371.109,286.845 371.022,286.93 370.675,286.756 370.848,287.103 
				370.761,287.191 370.414,286.498 			"/>
			
				<rect x="370.223" y="286.778" transform="matrix(0.6991 -0.715 0.715 0.6991 -93.8999 351.1533)" clip-path="url(#SVGID_4_)" fill="#CFCFCE" width="0.123" height="0.738"/>
			<path clip-path="url(#SVGID_4_)" fill="#CFCFCE" d="M365.318,286.193c0.215-0.216,0.739-0.042,1.171,0.39
				c0.43,0.432,0.605,0.957,0.39,1.173c-0.215,0.214-0.74,0.04-1.171-0.392C365.276,286.936,365.102,286.41,365.318,286.193
				L365.318,286.193z"/>
			<path clip-path="url(#SVGID_4_)" fill="#91857C" d="M365.577,286.452c0.217-0.213,0.624-0.156,0.912,0.131
				c0.288,0.29,0.346,0.696,0.129,0.912c-0.215,0.216-0.623,0.159-0.91-0.131C365.42,287.077,365.362,286.668,365.577,286.452
				L365.577,286.452z"/>
			<polygon clip-path="url(#SVGID_4_)" fill="#CFCFCE" points="366.229,287.537 366.142,287.452 366.316,287.103 365.968,287.279 
				365.881,287.191 366.575,286.845 			"/>
			
				<rect x="365.863" y="286.346" transform="matrix(0.7031 0.711 -0.711 0.7031 312.4932 -175.0771)" clip-path="url(#SVGID_4_)" fill="#CFCFCE" width="0.124" height="0.735"/>
			<g clip-path="url(#SVGID_4_)">
				<path fill="#91857C" d="M368.322,287.35c-1.433,0-2.598-1.167-2.598-2.6c0-1.432,1.166-2.596,2.598-2.596
					c0.694,0,1.347,0.267,1.837,0.758c0.491,0.492,0.761,1.146,0.76,1.838c0.001,0.693-0.269,1.348-0.76,1.839
					S369.016,287.35,368.322,287.35L368.322,287.35z M368.322,282.193c-1.41,0-2.557,1.148-2.557,2.557
					c0,1.412,1.147,2.558,2.557,2.558c0.682,0,1.325-0.265,1.808-0.747c0.483-0.486,0.749-1.125,0.749-1.811
					c0-0.682-0.266-1.323-0.749-1.807C369.646,282.461,369.004,282.193,368.322,282.193L368.322,282.193z"/>
			</g>
			<g clip-path="url(#SVGID_4_)">
				<path fill="#91857C" d="M368.322,286.736c-1.094,0-1.985-0.892-1.985-1.986c0-1.094,0.891-1.982,1.985-1.982
					s1.984,0.889,1.984,1.982C370.306,285.845,369.416,286.736,368.322,286.736L368.322,286.736z M368.322,282.808
					c-1.072,0-1.943,0.872-1.943,1.942c0,1.074,0.871,1.943,1.943,1.943c1.071,0,1.943-0.869,1.943-1.943
					C370.265,283.68,369.393,282.808,368.322,282.808L368.322,282.808z"/>
			</g>
			<path clip-path="url(#SVGID_4_)" fill="#010101" d="M367.463,286.839c0,0.042-0.024,0.082-0.061,0.104
				c-0.039,0.023-0.086,0.023-0.123,0c-0.038-0.022-0.062-0.062-0.062-0.104c0-0.046,0.023-0.085,0.062-0.108
				c0.037-0.022,0.084-0.022,0.123,0C367.438,286.754,367.463,286.793,367.463,286.839L367.463,286.839z"/>
			<path clip-path="url(#SVGID_4_)" fill="#010101" d="M369.426,286.839c0,0.042-0.023,0.082-0.061,0.104
				c-0.039,0.023-0.085,0.023-0.123,0c-0.039-0.022-0.062-0.062-0.062-0.104c0-0.046,0.023-0.085,0.062-0.108
				c0.038-0.022,0.084-0.022,0.123,0C369.403,286.754,369.426,286.793,369.426,286.839L369.426,286.839z"/>
			<path clip-path="url(#SVGID_4_)" fill="#010101" d="M368.24,286.839v0.125h-0.164c-0.163,0-0.163,0.131,0,0.131h0.164v0.125
				c0.001,0.133,0.143,0.15,0.153,0.011l0.011-0.136h0.163c0.164,0,0.164-0.131,0-0.131h-0.163v-0.125
				C368.404,286.708,368.24,286.708,368.24,286.839L368.24,286.839z"/>
			<path clip-path="url(#SVGID_4_)" fill="#91857C" d="M369.722,285.125c0.043-0.011,0.114-0.002,0.114-0.002
				s0.006,0.031-0.013,0.039c0.021,0.015,0.097,0.009,0.097,0.009s-0.031,0.022-0.045,0.031c0.028,0.003,0.061,0.037,0.061,0.037
				s-0.062,0.011-0.089-0.003c0.017,0.034,0.016,0.062,0.016,0.062s-0.101-0.025-0.137-0.091L369.722,285.125z"/>
			<g clip-path="url(#SVGID_4_)">
				<path fill="none" d="M369.722,285.125c0.043-0.011,0.114-0.002,0.114-0.002s0.006,0.031-0.013,0.039
					c0.021,0.015,0.097,0.009,0.097,0.009s-0.031,0.022-0.045,0.031c0.028,0.003,0.061,0.037,0.061,0.037s-0.062,0.011-0.089-0.003
					c0.017,0.034,0.016,0.062,0.016,0.062s-0.101-0.025-0.137-0.091L369.722,285.125z"/>
			</g>
			<path clip-path="url(#SVGID_4_)" fill="#91857C" d="M369.554,285.071c-0.024,0.058-0.203-0.054-0.203-0.054
				s0.08,0.125,0.198,0.139L369.554,285.071z"/>
			<g clip-path="url(#SVGID_4_)">
				<path fill="none" d="M369.554,285.071c-0.024,0.058-0.203-0.054-0.203-0.054s0.08,0.125,0.198,0.139L369.554,285.071z"/>
			</g>
			<polygon clip-path="url(#SVGID_4_)" fill="#91857C" points="367.319,286.217 369.416,286.217 369.577,286.089 369.308,285.943 
				368.893,285.805 368.727,285.711 368.419,285.728 368.161,285.864 367.809,285.907 367.727,286.004 367.465,286.023 
				367.053,286.015 367.738,286.12 367.174,286.095 			"/>
			<g clip-path="url(#SVGID_4_)">
				<path fill="#010101" d="M369.418,286.228h-2.1l-0.151-0.128l0.572,0.012l-0.688-0.088l0.674-0.031l0.075-0.091l0.359-0.049
					l0.254-0.133l0.312-0.021l0.171,0.094l0.685,0.287L369.418,286.228L369.418,286.228z M367.174,286.103l0.152,0.108l2.086-0.003
					l0.158-0.128l-0.849-0.36l-0.302,0.017l-0.253,0.137l-0.356,0.045l-0.075,0.091l-0.269,0.023l-0.413-0.009l0.687,0.088
					L367.174,286.103L367.174,286.103z"/>
			</g>
			<path clip-path="url(#SVGID_4_)" fill="#91857C" d="M368.448,285.617c-0.263-0.143-0.339,0.204-0.452,0.29
				c0.152,0.025,0.268-0.117,0.398-0.188c0.099,0.27,0.254,0.091,0.254,0.091s0.164,0.258,0.381,0.142
				c0.06,0.046,0.124,0.003,0.124,0.003s0.08,0.015,0.096-0.02c0.042,0.014,0.087-0.037,0.087-0.037s0.091,0.003,0.108-0.046
				c0.134,0.023,0.311-0.275,0.311-0.275l0.055-0.103l0.078-0.017c0,0,0.006-0.052-0.037-0.048c0-0.035-0.027-0.049-0.066-0.043
				c0.007-0.02-0.02-0.034-0.02-0.034c-0.075,0.02-0.08,0.207-0.08,0.207s-0.131,0.1-0.178,0.125
				c-0.001-0.107-0.182-0.255-0.145-0.323c0.038-0.068,0.154,0.107,0.257,0.076c0.102-0.034,0.153-0.168,0.158-0.27
				c-0.029-0.071-0.1-0.188-0.1-0.188l-0.067-0.006l-0.058-0.14c0,0-0.122,0.077-0.119,0.148c0.001,0.067,0.128,0.128,0.128,0.128
				s-0.073,0.048-0.142,0.025c-0.006,0.07,0.084,0.06,0.117,0.06c0.016,0.048,0.066,0.077,0.066,0.077s0.031,0.079-0.05,0.07
				c-0.08-0.006-0.176-0.193-0.29-0.107c-0.122,0.091,0.053,0.258,0.053,0.258s-0.107,0.055-0.17,0.199
				C368.887,285.455,368.736,285.558,368.448,285.617L368.448,285.617z"/>
			<g clip-path="url(#SVGID_4_)">
				<path fill="#010101" d="M368.915,285.992c-0.15,0-0.254-0.145-0.272-0.171c-0.002,0.028-0.185,0.1-0.258-0.099
					c-0.024,0.025-0.062,0.054-0.1,0.082c-0.078,0.057-0.158,0.116-0.251,0.116c-0.001-0.006-0.002-0.009-0.002-0.011
					c0.101-0.021,0.172-0.071,0.241-0.123c0.039-0.028,0.078-0.057,0.117-0.076c0.101,0.204,0.25,0.094,0.251,0.094
					c0.023,0.003,0.198,0.235,0.384,0.137h0.003l0.127,0.005l0.109-0.02c0.076-0.04,0.156-0.04,0.17-0.079
					c0.15-0.003,0.31-0.273,0.312-0.276l0.054-0.102l-0.018,0.003l-0.009-0.108c-0.058-0.012-0.078,0.128-0.079,0.176
					c-0.004,0.009-0.136,0.111-0.184,0.134c-0.016-0.057-0.057-0.116-0.096-0.17c-0.043-0.065-0.085-0.125-0.062-0.168l0.116,0.02
					c0.038,0.025,0.083,0.055,0.123,0.055c0.117-0.035,0.17-0.156,0.174-0.265c-0.023-0.054-0.072-0.14-0.091-0.171
					c0.047,0.04,0.09,0.117,0.111,0.168c-0.003,0.119-0.062,0.253-0.165,0.284c-0.08-0.003-0.123-0.028-0.164-0.054
					c-0.103,0.002-0.065,0.06-0.024,0.116c0.041,0.06,0.083,0.122,0.084,0.176c0.032-0.034,0.161-0.13,0.161-0.133
					c-0.003-0.012,0.003-0.19,0.084-0.208l0.085,0.08l-0.083,0.179c-0.007,0.012-0.167,0.281-0.304,0.281
					c-0.024,0.043-0.113,0.046-0.123,0.046l-0.147,0.06l-0.161-0.018l0.005,0.009C368.996,285.983,368.955,285.992,368.915,285.992
					L368.915,285.992z M368.031,285.887c0.003-0.034,0.027-0.07,0.05-0.107c0.082-0.128,0.196-0.268,0.372-0.174l0.138-0.034
					c0.215-0.054,0.373-0.065,0.561,0.094c0.045-0.13,0.141-0.19,0.156-0.198l0,0c-0.016,0-0.104-0.092-0.1-0.174l0.115-0.107
					c0.052,0,0.099,0.039,0.14,0.073c0.033,0.026,0.063,0.054,0.089,0.054c0.04-0.048-0.005-0.076-0.024-0.125l0.083,0.062
					l-0.061,0.086c-0.033-0.003-0.066-0.031-0.101-0.06c-0.041-0.034-0.083-0.071-0.126-0.071l-0.094,0.088
					c-0.005,0.08,0.092,0.174,0.092,0.174c-0.003,0.02-0.106,0.073-0.167,0.213c-0.21-0.147-0.348-0.143-0.558-0.088l-0.146,0.034
					c-0.192-0.091-0.273,0.042-0.351,0.164C368.077,285.827,368.054,285.861,368.031,285.887L368.031,285.887z M369.485,285.131
					l0.065-0.031c-0.028-0.014-0.126-0.07-0.128-0.136c-0.002-0.074,0.119-0.153,0.124-0.156l0.021,0.039l-0.025-0.028
					c-0.017,0.025-0.102,0.094-0.099,0.146c0.001,0.051,0.088,0.103,0.122,0.119c0,0.003-0.002,0.009-0.006,0.011l-0.003,0.009
					l-0.002-0.003C369.541,285.114,369.515,285.125,369.485,285.131L369.485,285.131z"/>
			</g>
			<path clip-path="url(#SVGID_4_)" fill="#91857C" d="M368.071,285.245c0.107,0.103,0.032,0.272,0.075,0.304
				c0.044,0.034,0.107-0.014,0.107-0.014c0.113,0.028,0.316-0.034,0.316-0.034c0.089,0.048,0.053-0.026,0.108-0.023
				c0.048,0.122,0.207,0.1,0.207,0.1s-0.146-0.147-0.236-0.19c-0.069,0.043-0.272,0.049-0.308,0.043
				c-0.039-0.009-0.013-0.055-0.032-0.082c0.074-0.074,0.015-0.256-0.026-0.321C368.117,284.915,367.919,285.105,368.071,285.245
				L368.071,285.245z"/>
			<g clip-path="url(#SVGID_4_)">
				<path fill="#010101" d="M368.855,285.589c-0.054,0-0.15-0.015-0.188-0.105c-0.101,0.028-0.23,0.068-0.342,0.068l-0.144,0.02
					l-0.061-0.107c0.002-0.068,0.005-0.151-0.057-0.21c-0.053-0.049-0.07-0.111-0.048-0.168c0.036-0.097,0.173-0.134,0.272-0.068
					c0.048,0.08,0.104,0.262,0.026,0.335c0.143,0.068,0.277,0.058,0.328,0.026c0.101,0.042,0.244,0.188,0.249,0.192L368.855,285.589
					L368.855,285.589z M368.673,285.47c0.045,0.088,0.133,0.099,0.182,0.099v0.012l0.025-0.012
					c-0.022-0.002-0.155-0.133-0.237-0.173c-0.049,0.037-0.194,0.046-0.261,0.046l-0.082-0.103c0.071-0.068,0.01-0.247-0.026-0.308
					c-0.077-0.048-0.206-0.02-0.238,0.062c-0.019,0.049-0.004,0.103,0.043,0.146c0.069,0.065,0.066,0.156,0.064,0.225l0.04,0.1
					l0.064-0.037c0.19-0.003,0.318-0.037,0.32-0.037L368.673,285.47L368.673,285.47z"/>
			</g>
			<path clip-path="url(#SVGID_4_)" fill="#91857C" d="M367.354,284.941c-0.136,0.036-0.372-0.174-0.481-0.095
				c-0.11,0.083-0.059,0.282,0.014,0.384c0.072,0.097-0.104,0.131-0.152,0.19c-0.045,0.054,0.014,0.116,0.014,0.116l0.05,0.031
				l-0.009,0.077l0.026,0.085c0,0,0.024,0.023,0.032-0.006c0.023,0.023,0.004,0.089,0.059,0.097
				c-0.019-0.039,0.015-0.156,0.015-0.156s0.099,0.006,0.124-0.036c0.024-0.043-0.024-0.137-0.024-0.137h0.029
				c-0.032-0.02-0.043-0.088-0.043-0.088s0.136-0.046,0.135-0.148c-0.002-0.102-0.221-0.213-0.141-0.267
				c0.09-0.06,0.245,0.153,0.378,0.054c0.132-0.097,0.048,0,0.048,0S367.487,284.906,367.354,284.941L367.354,284.941z"/>
			<g clip-path="url(#SVGID_4_)">
				<path fill="#010101" d="M366.924,285.836l-0.026-0.006l-0.118-0.185l0.005-0.02l0.005,0.02l0.01-0.006l0.091,0.153
					c-0.002-0.051,0.018-0.122,0.021-0.133c0.076-0.006,0.113-0.018,0.125-0.037c0.018-0.031-0.012-0.1-0.024-0.122l-0.008-0.108
					c0.001,0,0.129-0.043,0.127-0.137c-0.001-0.042-0.047-0.091-0.088-0.133c-0.039-0.043-0.073-0.077-0.07-0.111
					c0.024-0.008,0.045-0.017,0.062-0.02c-0.042,0.045-0.009,0.082,0.023,0.116c0.043,0.046,0.093,0.094,0.094,0.147
					c0.001,0.108-0.136,0.154-0.142,0.156c0.026,0.089,0.07,0.177,0.044,0.222c-0.021,0.034-0.083,0.04-0.117,0.04
					c-0.015,0.025-0.036,0.113-0.021,0.143L366.924,285.836L366.924,285.836z M366.763,285.555l-0.021-0.006
					c-0.024-0.028-0.057-0.088-0.016-0.137c0.116-0.076,0.159-0.1,0.165-0.131c-0.054-0.099-0.083-0.179-0.092-0.25
					c-0.009-0.085,0.014-0.152,0.067-0.192c0.126-0.021,0.194,0.011,0.261,0.04c0.067,0.027,0.137,0.057,0.191,0.057l0.12,0.008
					l-0.026,0.055l-0.094-0.04c-0.06,0-0.131-0.031-0.2-0.062c-0.064-0.028-0.132-0.057-0.184-0.057
					c-0.116,0.06-0.121,0.136-0.115,0.19c0.008,0.068,0.036,0.142,0.074,0.195c0.009,0.103-0.038,0.128-0.083,0.154
					c-0.108,0.094-0.058,0.15-0.055,0.153L366.763,285.555L366.763,285.555z"/>
			</g>
			<path clip-path="url(#SVGID_4_)" fill="#91857C" d="M368.054,283.489c-0.181-0.077-0.552-0.08-0.759-0.185
				c-0.091,0.008-0.131,0.076-0.136,0.107c-0.094-0.006-0.159,0.146-0.145,0.174c-0.173-0.071-0.254,0.201-0.198,0.258
				c-0.146,0.006-0.128,0.196-0.143,0.248c-0.047,0.116,0.011,0.153,0.104,0.113c0.014,0.048-0.005,0.076-0.047,0.088
				c0.256,0.29,0.399-0.182,0.624-0.182c0.281-0.082,0.391-0.219,0.391-0.219l0.109,0.014L368.054,283.489z"/>
			<g clip-path="url(#SVGID_4_)">
				<path fill="#010101" d="M366.896,284.398c-0.058,0-0.114-0.034-0.173-0.1l-0.064-0.094c-0.017-0.025-0.015-0.065,0.006-0.116
					c0.013-0.12,0.025-0.247,0.152-0.253c-0.035-0.012-0.035-0.083-0.006-0.15c0.032-0.077,0.084-0.128,0.153-0.123
					c0.033,0,0.05-0.045,0.072-0.079c0.02-0.031,0.061-0.082,0.12-0.082c-0.001-0.023,0.042-0.1,0.14-0.105
					c0.117,0.057,0.277,0.082,0.432,0.108c0.128,0.02,0.248,0.039,0.331,0.073l-0.193,0.435l-0.121-0.008
					c0.005,0.002-0.105,0.136-0.387,0.219c-0.086,0-0.16,0.07-0.231,0.139C367.054,284.327,366.98,284.398,366.896,284.398
					L366.896,284.398z M366.686,284.188l0.102,0.015l-0.055,0.1c0.147,0.11,0.258,0.057,0.378-0.057
					c0.075-0.071,0.15-0.143,0.241-0.143c0.272-0.079,0.383-0.216,0.384-0.216l0.119,0.012l0.188-0.415
					c-0.075-0.02-0.194-0.04-0.32-0.06c-0.157-0.025-0.318-0.051-0.434-0.108c-0.082,0.006-0.118,0.074-0.121,0.097
					c-0.066,0.012-0.103,0.06-0.116,0.083l0.012,0.025l-0.055,0.073c-0.104-0.008-0.153,0.031-0.181,0.1
					c-0.024,0.06-0.026,0.122-0.005,0.146c-0.116,0.022-0.126,0.136-0.133,0.21l-0.016,0.145L366.686,284.188L366.686,284.188z"/>
			</g>
			<path clip-path="url(#SVGID_4_)" fill="#91857C" d="M368.556,283.279c0,0.147-0.12,0.267-0.268,0.267
				c-0.147,0-0.268-0.119-0.268-0.267c0-0.148,0.121-0.268,0.268-0.268C368.436,283.012,368.556,283.131,368.556,283.279
				L368.556,283.279z"/>
			<g clip-path="url(#SVGID_4_)">
				<path fill="#010101" d="M368.288,283.558c-0.153,0-0.278-0.125-0.278-0.278c0-0.308,0.557-0.308,0.557,0
					C368.566,283.433,368.441,283.558,368.288,283.558L368.288,283.558z M368.288,283.023c-0.142,0-0.257,0.113-0.257,0.256
					c0,0.283,0.514,0.283,0.514,0C368.545,283.137,368.43,283.023,368.288,283.023L368.288,283.023z"/>
			</g>
			<path clip-path="url(#SVGID_4_)" fill="#91857C" d="M367.817,285.387c-0.167-0.031-0.441-0.201-0.469-0.426
				c0.155-0.608,0.952-0.29,1.021-0.747c-0.019-0.302,0.036-0.6,0.203-0.853c0.077-0.097,0.177-0.125,0.177-0.125
				s0.019,0.065-0.008,0.11c0.132-0.017,0.312,0.058,0.436,0.065c0.037,0.071,0.033,0.1,0.025,0.146
				c-0.008,0.045-0.058,0.031-0.058,0.031c-0.032,0.031-0.07,0.062-0.157,0.048c-0.066,0.049-0.204,0.062-0.204,0.062
				s0.289,0.304,0.241,0.397c0.06,0.028,0.15,0.159,0.15,0.159s0.197-0.102,0.261-0.198c0.114,0,0.301,0.122,0.395,0.133
				c0.113,0.094,0.228,0.188,0.228,0.188s-0.137,0.089-0.195-0.028c-0.073,0.006-0.226-0.164-0.44-0.113
				c-0.006,0.19-0.215,0.324-0.215,0.324s0.195-0.026,0.303,0.036c0.111,0.094,0.273,0.222,0.273,0.222l0.146,0.248
				c0,0-0.133,0.025-0.183-0.148c-0.049,0.14-0.051-0.088-0.249-0.19c-0.061,0.006-0.09,0.012-0.142-0.028
				c-0.141,0.037-0.31,0.119-0.51,0.097c-0.142,0.048-0.246,0.165-0.391,0.23c-0.144,0.065-0.187,0.031-0.187,0.031l-0.116,0.005
				c-0.017,0.071-0.007,0.177-0.07,0.196c0.04,0.043-0.029,0.228-0.1,0.262c0.033,0.119,0.131,0.156,0.233,0.216
				c0,0,0.09-0.043,0.15,0.012c0.059,0.057,0.119,0.207,0.119,0.207s-0.122,0.009-0.162-0.006c-0.038-0.02-0.042-0.06-0.086-0.048
				c-0.282-0.25-0.43-0.15-0.458-0.208C367.753,285.637,367.847,285.483,367.817,285.387L367.817,285.387z"/>
			<g clip-path="url(#SVGID_4_)">
				<path fill="#010101" d="M368.416,285.97l-0.097-0.012c-0.276-0.213-0.405-0.225-0.474-0.23
					c-0.019-0.011-0.032-0.022-0.043-0.034c0.125,0.021,0.256,0.034,0.441,0.199l0.172,0.065l0.065-0.012
					c-0.011-0.005-0.051-0.099-0.095-0.156c0.074,0.074,0.107,0.156,0.108,0.162L368.416,285.97L368.416,285.97z M368.354,285.759
					l-0.144-0.014c-0.129-0.074-0.208-0.116-0.237-0.222c0.05-0.031,0.093-0.117,0.107-0.185c0.001-0.003,0.002-0.006,0.002-0.006
					c-0.011,0.108-0.051,0.176-0.094,0.196c0.033,0.085,0.104,0.125,0.187,0.17l0.113,0.012
					C368.312,285.725,368.335,285.742,368.354,285.759L368.354,285.759L368.354,285.759z M367.785,285.668
					c-0.02-0.034-0.01-0.068,0.001-0.104c0.016-0.058,0.036-0.125,0.021-0.174c-0.173-0.025-0.442-0.207-0.47-0.429
					c0.084-0.333,0.355-0.396,0.595-0.452c0.211-0.048,0.395-0.091,0.426-0.295c-0.021-0.333,0.048-0.622,0.205-0.858
					c0.079-0.1,0.18-0.125,0.184-0.128c0.009,0.006,0.02,0.037,0.018,0.071l-0.016-0.062l0.003,0.012c0,0-0.098,0.025-0.172,0.119
					c-0.153,0.232-0.22,0.517-0.201,0.847c-0.033,0.222-0.232,0.267-0.442,0.315c-0.234,0.054-0.498,0.116-0.579,0.432
					c0.026,0.21,0.286,0.383,0.461,0.414c0.024,0.063,0.004,0.131-0.013,0.193C367.795,285.608,367.785,285.646,367.785,285.668
					L367.785,285.668z M368.308,285.077l-0.087-0.003l0.049-0.025c0.063,0.009,0.109,0.003,0.182-0.031
					c0.064-0.031,0.122-0.071,0.177-0.107c0.069-0.052,0.136-0.098,0.215-0.123c0.194,0.006,0.306-0.034,0.405-0.065l0.109-0.034
					l0.146,0.031c0.08,0.04,0.128,0.103,0.161,0.154c-0.056-0.049-0.1-0.1-0.17-0.137l-0.137-0.037l0.003,0.009l-0.104,0.034
					c-0.1,0.034-0.214,0.068-0.34,0.068c-0.141,0.02-0.206,0.068-0.274,0.116c-0.057,0.04-0.114,0.079-0.18,0.108
					C368.399,285.062,368.348,285.077,368.308,285.077L368.308,285.077z M369.897,285.066c-0.043,0-0.092-0.018-0.128-0.071
					c0.068,0.057,0.12,0.062,0.145,0.062l-0.139-0.233l0,0c-0.001,0-0.162-0.125-0.271-0.219c-0.056-0.031-0.141-0.04-0.201-0.04
					c-0.008,0-0.014-0.003-0.018-0.005c0.107-0.012,0.178,0,0.23,0.028c0.112,0.097,0.275,0.222,0.275,0.222l0.148,0.25
					C369.926,285.066,369.912,285.066,369.897,285.066L369.897,285.066z M369.286,284.518c0.03-0.057,0.123-0.156,0.127-0.281
					c0.2-0.018,0.29,0.028,0.354,0.065l0.093,0.048l0.003-0.011l0.095,0.062l-0.134-0.202c-0.036-0.003-0.094-0.028-0.156-0.057
					c-0.079-0.034-0.168-0.074-0.231-0.074c-0.056,0.091-0.249,0.196-0.256,0.199c-0.015-0.006-0.103-0.134-0.16-0.162
					c0.033-0.085-0.164-0.318-0.243-0.4c0.008-0.018,0.142-0.031,0.205-0.077c0.102,0.009,0.129-0.02,0.156-0.045
					c0.062-0.071,0.065-0.097,0.031-0.168c-0.039,0.009-0.104-0.011-0.166-0.025c-0.076-0.017-0.154-0.037-0.223-0.037l-0.002-0.006
					c0.09-0.008,0.16,0.006,0.229,0.023c0.062,0.014,0.122,0.028,0.171,0.031c0.046,0.082,0.043,0.11,0.036,0.159
					c-0.092,0.064-0.124,0.091-0.183,0.091c-0.105,0.042-0.241,0.057-0.247,0.057c0.037,0.014,0.298,0.295,0.249,0.395
					c0.055,0.012,0.141,0.137,0.148,0.147c0.001-0.008,0.185-0.107,0.245-0.198c0.071,0.006,0.163,0.034,0.249,0.073
					c0.06,0.026,0.117,0.052,0.156,0.058l0.233,0.188c-0.005,0.034-0.164,0.079-0.211-0.018c-0.02,0.009-0.055-0.011-0.098-0.034
					c-0.066-0.034-0.149-0.082-0.25-0.082C369.457,284.361,369.355,284.461,369.286,284.518L369.286,284.518z"/>
			</g>
			<path clip-path="url(#SVGID_4_)" fill="#91857C" d="M367.142,284.271c0.015-0.018,0.118,0.022,0.118,0.022l0.187,0.116
				l0.382,0.247l0.135,0.196l-0.242-0.076l-0.338-0.29l-0.183-0.119C367.2,284.367,367.127,284.293,367.142,284.271L367.142,284.271
				z"/>
			<g clip-path="url(#SVGID_4_)">
				<path fill="#010101" d="M367.989,284.873l-0.272-0.089l-0.523-0.409c-0.031-0.031-0.079-0.088-0.061-0.11
					c0.059-0.009,0.126,0.017,0.129,0.02l0.57,0.364L367.989,284.873L367.989,284.873z M367.159,284.268l-0.009,0.012l0.579,0.488
					l0.208,0.065l-0.117-0.168L367.159,284.268L367.159,284.268z"/>
			</g>
			<path clip-path="url(#SVGID_4_)" fill="#91857C" d="M369.399,284.898c-0.132-0.034-0.457,0.36-0.457,0.36l0.244,0.265
				C369.187,285.523,369.194,285.071,369.399,284.898L369.399,284.898z"/>
			<g clip-path="url(#SVGID_4_)">
				<path fill="#010101" d="M369.197,285.552l-0.262-0.287c0.011-0.028,0.303-0.381,0.447-0.381
					c-0.002,0.003-0.004,0.009-0.007,0.009c-0.15,0.04-0.421,0.369-0.424,0.372l0.227,0.236c0.004-0.086,0.026-0.361,0.147-0.534
					c-0.119,0.213-0.126,0.554-0.126,0.557L369.197,285.552L369.197,285.552z"/>
			</g>
			<path clip-path="url(#SVGID_4_)" fill="#91857C" d="M367.793,283.796c-0.072,0.094-0.079,0.278,0.015,0.355
				c0.008,0.113,0.104,0.341,0.179,0.36c0.082,0.022,0.412,0.1,0.54,0.077c-0.024,0.21,0.139,0.378,0.29,0.488
				c-0.001,0.017-0.001,0.04,0.016,0.062s0.097,0.028,0.1,0.015c0.036,0.048,0.207,0.07,0.219,0.048
				c0.012-0.02-0.251-0.204-0.311-0.259c-0.049-0.094-0.144-0.301-0.166-0.466c-0.129-0.153-0.352-0.15-0.352-0.15l0.007-0.301
				l0.012-0.341l-0.121-0.062c0,0,0.025-0.012,0.038-0.026c0.029,0.015,0.084-0.045,0.09-0.062c0.028,0.012,0.054,0.012,0.059-0.003
				c0.003-0.014,0.008-0.073,0.019-0.102c0.09-0.08-0.013-0.25-0.152-0.253c-0.138-0.003-0.169,0.162-0.166,0.176
				c0.013,0.054,0.01,0.08,0,0.091c-0.01,0.015-0.059,0.043-0.059,0.043s-0.077-0.037-0.17,0c-0.092,0.037-0.198,0.085-0.203,0.145
				c-0.042,0.006-0.111,0.06-0.125,0.108c-0.037-0.006-0.085,0.022-0.165,0.153c-0.145,0.062-0.152,0.369-0.152,0.369
				s-0.039,0.057-0.041,0.085c-0.001,0.031,0.014,0.06,0.033,0.055c0.002,0.02,0.027,0.036,0.039,0.028
				c0.004,0.02,0.032,0.034,0.049,0.028c0.002,0.014,0.057,0.011,0.062,0c0.005-0.015-0.005-0.083,0.001-0.085
				c0.006-0.006,0.052,0.028,0.064,0.02c0.012-0.012-0.002-0.04-0.009-0.051c-0.006-0.012-0.046-0.023-0.055-0.071
				c-0.009-0.049,0.025-0.116,0.025-0.116s0.155-0.123,0.173-0.228C367.697,283.94,367.759,283.836,367.793,283.796L367.793,283.796
				z"/>
			<g clip-path="url(#SVGID_4_)">
				<path fill="#010101" d="M369.115,285.225c-0.048,0-0.158-0.02-0.189-0.062v-0.002c0.061,0.025,0.142,0.042,0.189,0.042v0.012
					l0.029-0.018c-0.007-0.011-0.113-0.091-0.183-0.145c-0.054-0.043-0.104-0.079-0.126-0.1c-0.016-0.031-0.143-0.272-0.169-0.472
					c-0.119-0.139-0.331-0.142-0.339-0.142l-0.005-0.312l0.012-0.341l-0.115-0.052l0.004-0.011l0.201-0.202
					c0.03-0.025,0.038-0.068,0.022-0.113c-0.022-0.058-0.086-0.12-0.167-0.12h-0.001c-0.042,0-0.076,0.015-0.103,0.046
					c-0.042,0.046-0.054,0.11-0.052,0.119h-0.005l-0.069,0.143l-0.166-0.009l0.004,0.009c-0.083,0.034-0.192,0.082-0.197,0.139
					c-0.048,0.015-0.113,0.065-0.125,0.108c-0.058,0.008-0.105,0.057-0.167,0.156c-0.141,0.062-0.15,0.36-0.15,0.363l-0.013,0.051
					l0.002-0.051h-0.011c0.001-0.012,0.01-0.312,0.159-0.378c0.062-0.104,0.113-0.156,0.159-0.156
					c0.014-0.042,0.087-0.1,0.133-0.104c-0.003-0.058,0.106-0.111,0.201-0.146l0.174,0.009l-0.005-0.009l0.054-0.122
					c-0.003-0.012,0.009-0.076,0.049-0.128c0.032-0.04,0.074-0.06,0.124-0.06c0.094,0,0.166,0.068,0.189,0.134
					c0.02,0.051,0.01,0.103-0.028,0.134l-0.05,0.119c-0.032,0.003-0.079,0.057-0.116,0.057l0.078,0.065l-0.013,0.65
					c0.013-0.012,0.223-0.006,0.349,0.145c0.028,0.202,0.153,0.44,0.167,0.466c0.02,0.018,0.069,0.058,0.123,0.098
					c0.168,0.127,0.198,0.156,0.188,0.176L369.115,285.225L369.115,285.225z M368.451,284.592c-0.182,0-0.397-0.052-0.466-0.071
					c-0.081-0.022-0.178-0.253-0.187-0.369c-0.077-0.06-0.086-0.196-0.047-0.299c-0.035,0.049-0.084,0.088-0.153,0.088
					c-0.025,0.097-0.176,0.216-0.184,0.222c0.001,0-0.03,0.062-0.021,0.105l0.06,0.134l-0.107,0.076l-0.111-0.082l0.08,0.054
					l0.068-0.088c-0.02-0.14,0.014-0.207,0.016-0.21c0.005-0.006,0.155-0.125,0.172-0.225c0.114-0.009,0.166-0.074,0.2-0.116
					c-0.001,0.002-0.003,0.008-0.005,0.011c0.005-0.011,0.013-0.02,0.021-0.031c-0.007,0.018-0.016,0.034-0.026,0.052
					c-0.025,0.088-0.022,0.238,0.056,0.301c0.013,0.125,0.11,0.341,0.175,0.357c0.078,0.023,0.337,0.083,0.484,0.083
					c0,0.003,0.001,0.006,0.002,0.009C368.468,284.592,368.459,284.592,368.451,284.592L368.451,284.592z"/>
			</g>
			<path clip-path="url(#SVGID_4_)" fill="#91857C" d="M367.521,283.358c0.036-0.088,0.164-0.079,0.164-0.079s0.046-0.12,0.22-0.049
				c0.065-0.048,0.236,0.022,0.236,0.022s0.065-0.085,0.149-0.076c0.155,0.017,0.181,0.162,0.17,0.185
				c-0.084,0.022-0.232-0.068-0.345-0.043c-0.066,0.037-0.172,0.077-0.211,0.131C367.801,283.461,367.689,283.353,367.521,283.358
				L367.521,283.358z"/>
			<g clip-path="url(#SVGID_4_)">
				<path fill="#010101" d="M367.889,283.461c-0.045,0-0.092-0.021-0.142-0.037c-0.061-0.028-0.131-0.054-0.215-0.054
					c0-0.003,0-0.006,0.001-0.009c0.087-0.015,0.159,0.014,0.222,0.04c0.05,0.022,0.093,0.039,0.134,0.039v0.009l0.015-0.012
					c0.022-0.036,0.088-0.067,0.146-0.096l0.109-0.037c0.05,0,0.102,0.014,0.152,0.028c0.044,0.011,0.085,0.022,0.12,0.022
					c-0.022-0.116-0.062-0.159-0.142-0.168c-0.095,0.012-0.139,0.068-0.139,0.071c-0.014,0.006-0.105-0.034-0.177-0.034
					l-0.169-0.006c-0.083,0-0.108,0.065-0.108,0.065c-0.043,0.006-0.126,0.012-0.159,0.068c0.021-0.079,0.112-0.082,0.141-0.082l0,0
					c0.002,0,0.081-0.114,0.232-0.049c0.137-0.02,0.225,0.018,0.235,0.021c-0.003-0.006,0.053-0.077,0.132-0.077
					c0.104,0.012,0.148,0.06,0.171,0.1l0.023,0.103c-0.076,0.011-0.119-0.003-0.165-0.015c-0.049-0.014-0.1-0.025-0.147-0.025
					l-0.101,0.034c-0.056,0.025-0.118,0.057-0.146,0.094L367.889,283.461L367.889,283.461z"/>
			</g>
			<path clip-path="url(#SVGID_4_)" fill="#91857C" d="M367.847,283.503c0.039-0.025,0.135-0.067,0.199-0.014
				c0.069,0.071,0.172,0.139,0.172,0.139l0.119,0.052l0.054,0.034l-0.036,0.539c-0.109-0.11-0.211-0.13-0.29-0.264
				c-0.042-0.057-0.01-0.19-0.083-0.281C367.908,283.617,367.83,283.558,367.847,283.503L367.847,283.503z"/>
			<g clip-path="url(#SVGID_4_)">
				<path fill="#010101" d="M368.363,284.279l-0.016-0.018c-0.043-0.045-0.086-0.074-0.125-0.103
					c-0.061-0.042-0.118-0.082-0.167-0.164c-0.019-0.026-0.023-0.065-0.028-0.111c-0.006-0.054-0.014-0.119-0.054-0.167
					c-0.108-0.125-0.149-0.171-0.136-0.217c0.02-0.017,0.075-0.048,0.135-0.048c0.021,0.015,0.042,0.028,0.062,0.043
					c-0.108-0.021-0.152,0-0.181,0.017c-0.005,0.028,0.032,0.071,0.081,0.125c0.101,0.119,0.108,0.185,0.115,0.247
					c0.005,0.043,0.009,0.077,0.026,0.1c0.046,0.079,0.099,0.116,0.16,0.159c0.036,0.025,0.073,0.051,0.112,0.088l0.011-0.17
					l0.008,0.192L368.363,284.279L368.363,284.279z"/>
			</g>
			<path clip-path="url(#SVGID_4_)" fill="#91857C" d="M368.131,283.659c0,0,0.061-0.011,0.078,0.003
				c0.022,0.009,0.043,0.015,0.05,0.031c0.022,0.009,0.039,0.021,0.039,0.037c0.022,0.006,0.03,0.046,0.03,0.046l-0.02,0.031
				c0,0-0.023-0.023-0.026-0.046c-0.015-0.009-0.048-0.014-0.055-0.037c-0.026-0.003-0.042-0.014-0.047-0.037
				C368.155,283.69,368.131,283.659,368.131,283.659L368.131,283.659z"/>
			<g clip-path="url(#SVGID_4_)">
				<path fill="none" d="M368.131,283.659c0,0,0.061-0.011,0.078,0.003c0.022,0.009,0.043,0.015,0.05,0.031
					c0.022,0.009,0.039,0.021,0.039,0.037c0.022,0.006,0.03,0.046,0.03,0.046l-0.02,0.031c0,0-0.023-0.023-0.026-0.046
					c-0.015-0.009-0.048-0.014-0.055-0.037c-0.026-0.003-0.042-0.014-0.047-0.037C368.155,283.69,368.131,283.659,368.131,283.659z"
					/>
			</g>
			<path clip-path="url(#SVGID_4_)" fill="#91857C" d="M368.655,283.305c-0.035-0.04-0.098-0.009-0.098-0.009l-0.165,0.284
				l-0.073,0.062l-0.006,0.222l0.061,0.213l-0.021,0.159c0,0,0.084-0.077,0.094-0.122c0.009-0.043-0.031-0.179-0.031-0.179
				s-0.049-0.086,0.01-0.242C368.485,283.537,368.622,283.406,368.655,283.305L368.655,283.305z"/>
			<g clip-path="url(#SVGID_4_)">
				<path fill="#010101" d="M368.339,284.265l0.024-0.19l-0.06-0.204l0.005-0.233l0.078-0.062l0.167-0.284l0.11,0.009
					c-0.014,0.057-0.05,0.11-0.094,0.17c-0.048,0.068-0.103,0.146-0.135,0.23c-0.056,0.147-0.011,0.23-0.011,0.233
					c0.005,0.014,0.042,0.142,0.032,0.185c-0.01,0.048-0.093,0.125-0.097,0.128L368.339,284.265L368.339,284.265z M368.646,283.302
					l-0.244,0.287l-0.078,0.278l0.06,0.204l-0.017,0.137c0.028-0.025,0.064-0.068,0.07-0.097c0.006-0.031-0.02-0.137-0.031-0.171
					c-0.001-0.003-0.05-0.091,0.01-0.25c0.034-0.088,0.089-0.164,0.138-0.232C368.594,283.398,368.63,283.347,368.646,283.302
					L368.646,283.302z"/>
			</g>
			<path clip-path="url(#SVGID_4_)" fill="#91857C" d="M369.065,283.561c0,0-0.259,0.372-0.684,0.502
				c-0.117,0.029-0.074-0.275-0.074-0.275l-0.029,0.009c0,0-0.065,0.296,0.092,0.301c0.426-0.085,0.746-0.534,0.746-0.534
				L369.065,283.561z"/>
			<g clip-path="url(#SVGID_4_)">
				<path fill="#010101" d="M368.371,284.108l-0.08-0.04c-0.064-0.079-0.024-0.267-0.023-0.272c0.007,0.009,0.014,0.02,0.018,0.034
					c-0.011,0.06-0.021,0.173,0.021,0.228l0.063,0.039l-0.002-0.011c0.286-0.057,0.526-0.281,0.65-0.418
					c-0.1,0.143-0.348,0.381-0.646,0.438L368.371,284.108L368.371,284.108z M368.385,284.071c-0.014-0.009-0.026-0.02-0.036-0.034
					c0.45-0.119,0.705-0.479,0.708-0.482c0.013,0.006,0.011,0.025-0.006,0.057C368.946,283.725,368.714,283.972,368.385,284.071
					L368.385,284.071z"/>
			</g>
			<path clip-path="url(#SVGID_4_)" fill="#91857C" d="M369.241,285.691c0,0-0.039,0.028-0.092,0
				c-0.027-0.062-0.099-0.068-0.099-0.068s-0.046-0.134-0.12-0.097c-0.012-0.068-0.091-0.031-0.091-0.031s-0.002-0.1-0.096-0.085
				c0.031-0.117-0.128-0.111-0.128-0.111s-0.005-0.128-0.241-0.103c0.507-0.228,0.909,0.358,0.909,0.358L369.241,285.691z"/>
			<g clip-path="url(#SVGID_4_)">
				<path fill="#010101" d="M369.144,285.699c-0.028-0.06-0.094-0.065-0.094-0.065c-0.01-0.008-0.037-0.082-0.078-0.099
					l-0.015,0.005l-0.129-0.045l-0.016,0.003l-0.08-0.092c-0.039-0.102-0.119-0.099-0.118-0.096c-0.083-0.1-0.148-0.114-0.24-0.105
					c0.503-0.247,0.913,0.335,0.916,0.344c0.017,0.015-0.293-0.395-0.682-0.395c-0.074,0-0.151,0.014-0.231,0.051
					c0.092-0.028,0.162-0.018,0.206,0.022c0.033,0.062,0.12,0.058,0.156,0.105l0.17,0.15c0.114,0.052,0.145,0.128,0.148,0.137
					c0.002-0.006,0.071,0.003,0.1,0.065l0.088,0.014H369.144L369.144,285.699z"/>
			</g>
			<path clip-path="url(#SVGID_4_)" fill="#91857C" d="M369.481,285.742c0,0,0.118,0.131,0.179,0.131
				c0.06,0,0.066-0.128,0.066-0.128s0.02,0.054,0.049,0.04c-0.003,0.039,0.038,0.051,0.038,0.051s-0.106,0.244-0.407,0.012
				L369.481,285.742z"/>
			<g clip-path="url(#SVGID_4_)">
				<path fill="#010101" d="M369.64,285.958c-0.071,0-0.15-0.034-0.239-0.103c0.118,0.065,0.209,0.1,0.284,0.077
					c0.084-0.021,0.119-0.1,0.119-0.103l-0.067-0.074c-0.003,0.031-0.016,0.128-0.075,0.128h0c-0.064-0.003-0.175-0.122-0.187-0.136
					l0.016-0.015c0.032,0.034,0.154,0.108,0.172,0.128c0.041,0,0.054-0.085,0.056-0.116l0.017,0.006l-0.006-0.006h0.011
					c0,0,0,0.003-0.001,0.011l0.087,0.083c-0.001,0.006-0.039,0.091-0.133,0.113C369.674,285.958,369.657,285.958,369.64,285.958
					L369.64,285.958z"/>
			</g>
			<path clip-path="url(#SVGID_4_)" fill="#91857C" d="M368.564,285.79l-0.042,0.171c0,0-0.052,0.048-0.038,0.057
				c0.017,0.012,0.1-0.014,0.1-0.014s0.131-0.018,0.17-0.055c0.027,0.06,0.087,0.065,0.087,0.065s0.004-0.025-0.003-0.042
				c0.029,0.005,0.053-0.003,0.053-0.003s0.017-0.049-0.02-0.068c0.003-0.034,0.022-0.065-0.042-0.062
				c-0.047,0.051-0.162,0.107-0.191,0.088c-0.029-0.02,0.114-0.082,0.075-0.165L368.564,285.79z"/>
			<g clip-path="url(#SVGID_4_)">
				<path fill="#010101" d="M368.479,286.026l0.075-0.239l0.021,0.006l-0.042,0.171c0.085,0.022,0.185,0.006,0.215-0.022
					l0.081,0.062l0.03-0.094l0.037,0.067c-0.021,0.018-0.041,0.026-0.062,0.028l0.009,0.009l-0.017-0.006h0
					c-0.049-0.005-0.063-0.02-0.08-0.057c-0.025,0.043-0.154,0.06-0.159,0.06L368.479,286.026L368.479,286.026z"/>
			</g>
			<path clip-path="url(#SVGID_4_)" fill="#010101" d="M365.923,285.387l0.169-0.039l-0.018-0.08
				c-0.005-0.018-0.012-0.031-0.021-0.037c-0.01-0.006-0.027-0.006-0.051-0.006l-0.003-0.011l0.146-0.034l0.002,0.012
				c-0.017,0.005-0.029,0.008-0.036,0.014c-0.006,0.006-0.011,0.014-0.013,0.022c-0.002,0.009-0.002,0.021,0.002,0.034l0.018,0.08
				l0.135-0.034c0.022-0.006,0.036-0.009,0.042-0.015c0.005-0.003,0.008-0.008,0.011-0.017c0.003-0.012,0.003-0.021,0-0.031
				l-0.003-0.015l0.011-0.003l0.044,0.183l-0.012,0.005l-0.003-0.017c-0.005-0.018-0.014-0.028-0.025-0.034
				c-0.008-0.003-0.025-0.003-0.051,0.006l-0.277,0.065c-0.021,0.003-0.035,0.008-0.042,0.014c-0.004,0.003-0.008,0.009-0.01,0.018
				c-0.003,0.008-0.003,0.02-0.001,0.028l0.004,0.017l-0.012,0.003l-0.077-0.318l0.094-0.028l0.003,0.012
				c-0.019,0.008-0.032,0.02-0.039,0.031c-0.008,0.006-0.013,0.02-0.014,0.028c-0.002,0.011,0,0.031,0.005,0.054L365.923,285.387z
				 M365.814,284.623c0.004-0.055,0.028-0.103,0.074-0.146c0.046-0.037,0.101-0.054,0.167-0.051
				c0.067,0.003,0.121,0.028,0.164,0.071c0.041,0.045,0.061,0.096,0.057,0.158c-0.003,0.061-0.028,0.111-0.072,0.148
				c-0.046,0.039-0.103,0.057-0.171,0.054c-0.07-0.006-0.126-0.031-0.167-0.082C365.829,284.733,365.812,284.683,365.814,284.623
				L365.814,284.623z M365.838,284.631c-0.001,0.04,0.011,0.074,0.039,0.097c0.035,0.034,0.088,0.052,0.157,0.054
				c0.073,0.006,0.129-0.005,0.169-0.033c0.031-0.023,0.047-0.055,0.049-0.092c0.003-0.042-0.011-0.079-0.042-0.107
				s-0.082-0.043-0.15-0.049c-0.076-0.002-0.132,0.009-0.171,0.034C365.857,284.558,365.841,284.589,365.838,284.631
				L365.838,284.631z M366.478,283.827l-0.041,0.108l-0.247,0.067c-0.002,0.009-0.007,0.021-0.009,0.026
				c0,0-0.002,0.005-0.002,0.008c-0.002,0.003-0.003,0.006-0.004,0.009l0.12,0.046c0.026,0.008,0.043,0.014,0.051,0.008
				c0.012-0.003,0.021-0.014,0.027-0.028l0.006-0.014l0.011,0.003l-0.068,0.176l-0.01-0.006l0.005-0.014
				c0.007-0.018,0.005-0.031-0.002-0.043c-0.005-0.006-0.019-0.015-0.042-0.025l-0.267-0.1c-0.026-0.012-0.043-0.015-0.051-0.012
				c-0.012,0.006-0.021,0.015-0.027,0.031l-0.007,0.018l-0.01-0.009l0.057-0.147c0.017-0.046,0.033-0.074,0.047-0.094
				c0.014-0.021,0.033-0.031,0.055-0.04c0.023-0.009,0.047-0.009,0.07,0.003c0.025,0.009,0.044,0.025,0.057,0.048
				c0.013,0.023,0.016,0.055,0.011,0.094l0.151-0.042c0.034-0.006,0.058-0.018,0.072-0.028c0.014-0.012,0.027-0.026,0.038-0.049
				L366.478,283.827z M366.155,284.037c0.001-0.003,0.002-0.008,0.004-0.008c0.001-0.003,0.002-0.006,0.002-0.006
				c0.015-0.043,0.018-0.074,0.009-0.1c-0.011-0.028-0.029-0.046-0.055-0.057c-0.025-0.009-0.049-0.009-0.072,0.003
				c-0.022,0.008-0.039,0.028-0.049,0.054c-0.004,0.012-0.008,0.028-0.012,0.051L366.155,284.037z M367.094,282.574l0.086,0.113
				l-0.011,0.006c-0.028-0.022-0.056-0.037-0.08-0.042c-0.036-0.009-0.071,0-0.105,0.022c-0.048,0.031-0.072,0.071-0.072,0.128
				c0,0.042,0.013,0.088,0.041,0.131c0.023,0.034,0.051,0.062,0.084,0.082c0.033,0.022,0.064,0.031,0.095,0.031
				c0.03-0.003,0.059-0.009,0.082-0.022c0.013-0.009,0.025-0.023,0.036-0.031c0.01-0.012,0.019-0.025,0.027-0.04l-0.07-0.108
				c-0.012-0.017-0.021-0.028-0.027-0.033c-0.007-0.003-0.014-0.006-0.022-0.003c-0.007,0-0.019,0.005-0.034,0.014l-0.006-0.009
				l0.143-0.094l0.007,0.012l-0.007,0.003c-0.014,0.009-0.021,0.02-0.02,0.034c0,0.009,0.008,0.022,0.021,0.043l0.073,0.113
				c-0.014,0.022-0.029,0.045-0.045,0.065c-0.017,0.02-0.039,0.034-0.063,0.051c-0.072,0.046-0.141,0.057-0.208,0.037
				c-0.05-0.017-0.089-0.048-0.119-0.091c-0.021-0.034-0.035-0.068-0.038-0.108c-0.005-0.048,0.003-0.094,0.023-0.133
				c0.017-0.034,0.044-0.062,0.081-0.086c0.014-0.011,0.026-0.017,0.039-0.022c0.012-0.003,0.031-0.009,0.057-0.014
				c0.012-0.003,0.02-0.006,0.024-0.009c0.002,0,0.005-0.006,0.005-0.012c0-0.003-0.003-0.009-0.008-0.02L367.094,282.574z
				 M367.812,282.625l-0.166,0.046l-0.011,0.074c-0.002,0.02-0.003,0.031,0,0.039c0,0.006,0.006,0.012,0.013,0.015
				c0.007,0.003,0.022,0.003,0.043,0l0.003,0.012l-0.135,0.033l-0.003-0.008c0.017-0.009,0.027-0.018,0.031-0.023
				c0.008-0.011,0.015-0.036,0.02-0.07l0.058-0.39l0.01-0.006l0.243,0.315c0.019,0.025,0.035,0.043,0.047,0.049
				s0.028,0.008,0.045,0.003l0.002,0.011l-0.168,0.046l-0.003-0.012c0.017-0.006,0.027-0.014,0.033-0.02
				c0.005-0.006,0.005-0.012,0.003-0.021c-0.002-0.008-0.01-0.022-0.024-0.039L367.812,282.625z M367.797,282.605l-0.117-0.153
				l-0.029,0.19L367.797,282.605z M368.577,282.603l0.011,0.003l-0.043,0.119l-0.341-0.014v-0.015l0.017,0.003
				c0.018,0,0.032-0.006,0.041-0.017c0.005-0.006,0.008-0.023,0.008-0.049l0.012-0.284c0-0.028-0.001-0.045-0.007-0.051
				c-0.008-0.012-0.02-0.015-0.037-0.018h-0.018l0.001-0.011l0.199,0.005v0.015c-0.022-0.003-0.04,0-0.049,0.003
				c-0.01,0.006-0.017,0.012-0.02,0.018c-0.004,0.008-0.006,0.022-0.007,0.048l-0.012,0.278c0,0.02,0,0.031,0.004,0.037
				c0.002,0.003,0.006,0.009,0.011,0.012c0.006,0.002,0.023,0.002,0.052,0.005h0.032c0.033,0,0.057,0,0.072-0.005
				c0.013-0.003,0.025-0.012,0.038-0.023C368.552,282.648,368.564,282.628,368.577,282.603L368.577,282.603z M369.165,282.759
				l0.009,0.009l-0.073,0.1l-0.324-0.108l0.004-0.011l0.015,0.005c0.018,0.006,0.032,0.006,0.044-0.005
				c0.006-0.003,0.014-0.018,0.021-0.043l0.089-0.27c0.009-0.029,0.011-0.043,0.008-0.052c-0.005-0.011-0.016-0.022-0.031-0.025
				l-0.016-0.006l0.003-0.011l0.19,0.062l-0.004,0.011c-0.022-0.009-0.039-0.011-0.049-0.009c-0.01,0-0.018,0.003-0.024,0.009
				c-0.005,0.006-0.012,0.021-0.02,0.049l-0.087,0.261c-0.006,0.018-0.009,0.028-0.006,0.037c0,0.006,0.003,0.012,0.008,0.012
				c0.004,0.006,0.021,0.014,0.047,0.02l0.03,0.012c0.033,0.011,0.056,0.017,0.071,0.017c0.013-0.003,0.029-0.006,0.043-0.014
				C369.128,282.799,369.146,282.781,369.165,282.759L369.165,282.759z M369.639,283.009l-0.14-0.097l-0.064,0.04
				c-0.016,0.009-0.026,0.017-0.031,0.025c-0.004,0.003-0.006,0.012-0.003,0.018c0.003,0.008,0.012,0.02,0.028,0.034l-0.007,0.008
				l-0.113-0.079l0.007-0.012c0.017,0.009,0.029,0.015,0.036,0.015c0.016-0.003,0.038-0.015,0.067-0.034l0.336-0.205l0.009,0.006
				l-0.086,0.39c-0.007,0.028-0.009,0.051-0.006,0.065c0.003,0.011,0.012,0.025,0.026,0.036l-0.007,0.012l-0.142-0.103l0.007-0.008
				c0.014,0.008,0.026,0.014,0.034,0.014c0.008-0.003,0.013-0.006,0.018-0.011c0.005-0.009,0.01-0.023,0.015-0.046L369.639,283.009z
				 M369.645,282.986l0.042-0.19l-0.166,0.103L369.645,282.986z M370.167,283.083l0.072,0.097l-0.104,0.414l0.204-0.153
				c0.022-0.017,0.033-0.028,0.035-0.036c0.003-0.012-0.001-0.026-0.011-0.04l-0.01-0.012l0.01-0.006l0.092,0.122l-0.01,0.006
				l-0.009-0.011c-0.011-0.015-0.023-0.023-0.037-0.023c-0.009,0.003-0.022,0.009-0.042,0.023l-0.299,0.222l-0.007-0.009
				l0.112-0.446l-0.218,0.162c-0.022,0.017-0.034,0.028-0.036,0.037c-0.002,0.014,0.002,0.025,0.012,0.039l0.008,0.012l-0.01,0.009
				l-0.09-0.125l0.009-0.006l0.009,0.012c0.011,0.014,0.024,0.022,0.038,0.022c0.008,0,0.022-0.009,0.042-0.022l0.248-0.183
				c0.004-0.02,0.006-0.033,0.006-0.042s-0.002-0.021-0.007-0.031c-0.002-0.006-0.007-0.015-0.013-0.022L370.167,283.083z
				 M370.725,284.108l-0.097,0.04l-0.004-0.015c0.016-0.009,0.028-0.014,0.033-0.022c0.01-0.009,0.016-0.02,0.019-0.034
				c0-0.012-0.001-0.025-0.007-0.043l-0.021-0.06l-0.317,0.114c-0.026,0.008-0.041,0.017-0.045,0.022
				c-0.006,0.014-0.006,0.025,0,0.043l0.005,0.014l-0.011,0.006l-0.062-0.179l0.011-0.003l0.005,0.014
				c0.006,0.018,0.016,0.028,0.029,0.031c0.008,0.003,0.024,0,0.047-0.008l0.318-0.111l-0.017-0.051
				c-0.007-0.021-0.014-0.034-0.019-0.04c-0.009-0.012-0.02-0.017-0.033-0.02c-0.014-0.006-0.03-0.003-0.049,0.003l-0.005-0.012
				l0.1-0.031L370.725,284.108z M370.375,284.893l-0.006-0.119l0.198-0.159c-0.001-0.012-0.001-0.021-0.002-0.028
				c0-0.003,0-0.006,0-0.009s0-0.006,0-0.009l-0.128,0.006c-0.028,0-0.045,0.006-0.051,0.012c-0.009,0.008-0.013,0.022-0.013,0.037
				l0.002,0.017l-0.013,0.003l-0.009-0.19l0.012-0.003v0.02c0,0.018,0.008,0.029,0.021,0.037c0.007,0.006,0.023,0.006,0.047,0.006
				l0.286-0.014c0.027-0.003,0.044-0.006,0.05-0.012c0.009-0.009,0.014-0.022,0.014-0.04l-0.001-0.017h0.012l0.008,0.159
				c0.002,0.048,0.001,0.082-0.005,0.104c-0.005,0.023-0.017,0.043-0.036,0.06c-0.017,0.015-0.038,0.026-0.063,0.026
				c-0.027,0.002-0.051-0.006-0.073-0.023c-0.021-0.017-0.036-0.042-0.046-0.079l-0.122,0.1c-0.028,0.02-0.046,0.039-0.056,0.054
				c-0.008,0.014-0.013,0.034-0.015,0.06L370.375,284.893z M370.585,284.565c0.001,0.003,0.001,0.009,0.001,0.012s0,0.006,0,0.006
				c0.001,0.042,0.013,0.073,0.032,0.097c0.019,0.02,0.043,0.028,0.072,0.025c0.027,0,0.049-0.012,0.065-0.028
				c0.016-0.021,0.024-0.04,0.022-0.068c0-0.015-0.003-0.031-0.009-0.051L370.585,284.565z M370.708,285.473l-0.04,0.15
				l-0.012-0.003l0.002-0.009c0.002-0.006,0.001-0.014-0.001-0.025c-0.002-0.012-0.006-0.022-0.013-0.034
				c-0.007-0.012-0.019-0.025-0.035-0.043l-0.135-0.147l-0.107-0.028c-0.026-0.006-0.043-0.006-0.051-0.003
				c-0.011,0.006-0.019,0.018-0.023,0.034l-0.003,0.015l-0.011-0.004l0.047-0.179h0.011l-0.003,0.018
				c-0.005,0.017-0.003,0.031,0.006,0.042c0.005,0.006,0.02,0.012,0.044,0.018l0.101,0.025l0.209-0.068
				c0.025-0.008,0.041-0.014,0.047-0.017c0.006-0.003,0.015-0.012,0.027-0.026c0.003-0.005,0.005-0.011,0.009-0.02l0.011,0.006
				l-0.048,0.182l-0.011-0.003l0.001-0.011c0.003-0.009,0.003-0.018,0.001-0.029c-0.003-0.008-0.009-0.014-0.019-0.017
				c-0.007-0.003-0.023,0-0.046,0.009l-0.16,0.051l0.109,0.119c0.017,0.018,0.029,0.029,0.039,0.031c0.006,0,0.012,0,0.017,0
				c0.006-0.002,0.01-0.005,0.014-0.011c0.004-0.003,0.008-0.012,0.011-0.022H370.708z"/>
		</g>
	</g>
</g>
</svg>
