<?xml version="1.0" encoding="utf-8"?>
<!-- Generator: Adobe Illustrator 16.0.0, SVG Export Plug-In . SVG Version: 6.00 Build 0)  -->
<!DOCTYPE svg PUBLIC "-//W3C//DTD SVG 1.1//EN" "http://www.w3.org/Graphics/SVG/1.1/DTD/svg11.dtd">
<svg version="1.1" id="name" xmlns="http://www.w3.org/2000/svg" xmlns:xlink="http://www.w3.org/1999/xlink" x="0px" y="0px"
	 width="85.712px" height="50px" viewBox="358 276 85.712 50" enable-background="new 358 276 85.712 50" xml:space="preserve">
<g id="mv">
	<g>
		<defs>
			<rect id="SVGID_1_" x="358" y="276" width="85.712" height="50"/>
		</defs>
		<clipPath id="SVGID_2_">
			<use xlink:href="#SVGID_1_"  overflow="visible"/>
		</clipPath>
		<rect x="358" y="276" clip-path="url(#SVGID_2_)" fill="#C01F3F" width="85.712" height="50"/>
		<rect x="370.499" y="288.501" clip-path="url(#SVGID_2_)" fill="#36803E" width="60.713" height="24.998"/>
		<g clip-path="url(#SVGID_2_)">
			<defs>
				<rect id="SVGID_3_" x="358" y="276" width="85.712" height="50"/>
			</defs>
			<clipPath id="SVGID_4_">
				<use xlink:href="#SVGID_3_"  overflow="visible"/>
			</clipPath>
			<path clip-path="url(#SVGID_4_)" fill="#FFFFFF" d="M403.98,292.669c4.604,0,8.333,3.728,8.333,8.333
				c0,4.602-3.729,8.332-8.333,8.332c-4.603,0-8.333-3.73-8.333-8.332C395.648,296.396,399.378,292.669,403.98,292.669"/>
			<path clip-path="url(#SVGID_4_)" fill="#36803E" d="M407.107,292.669c4.601,0,8.333,3.728,8.333,8.333
				c0,4.602-3.732,8.332-8.333,8.332c-4.603,0-8.336-3.73-8.336-8.332C398.771,296.396,402.505,292.669,407.107,292.669"/>
		</g>
	</g>
</g>
</svg>
