<?xml version="1.0" encoding="utf-8"?>
<!-- Generator: Adobe Illustrator 16.0.0, SVG Export Plug-In . SVG Version: 6.00 Build 0)  -->
<!DOCTYPE svg PUBLIC "-//W3C//DTD SVG 1.1//EN" "http://www.w3.org/Graphics/SVG/1.1/DTD/svg11.dtd">
<svg version="1.1" id="name" xmlns="http://www.w3.org/2000/svg" xmlns:xlink="http://www.w3.org/1999/xlink" x="0px" y="0px"
	 width="85.711px" height="50px" viewBox="358 276 85.711 50" enable-background="new 358 276 85.711 50" xml:space="preserve">
<g id="mw">
	<g>
		<defs>
			<rect id="SVGID_1_" x="358" y="276" width="85.711" height="50"/>
		</defs>
		<clipPath id="SVGID_2_">
			<use xlink:href="#SVGID_1_"  overflow="visible"/>
		</clipPath>
		<rect x="358" y="276" clip-path="url(#SVGID_2_)" fill="#010101" width="85.711" height="24.998"/>
		<rect x="358" y="300.998" clip-path="url(#SVGID_2_)" fill="#4FA045" width="85.711" height="25.002"/>
		<rect x="358" y="292.669" clip-path="url(#SVGID_2_)" fill="#BD1F34" width="85.711" height="16.665"/>
		<g clip-path="url(#SVGID_2_)">
			<defs>
				<rect id="SVGID_3_" x="358" y="276" width="85.711" height="50"/>
			</defs>
			<clipPath id="SVGID_4_">
				<use xlink:href="#SVGID_3_"  overflow="visible"/>
			</clipPath>
			<path clip-path="url(#SVGID_4_)" fill="#BD1F34" d="M400.857,284.25c-4.682,0-8.659,2.992-10.137,7.168h20.273
				C409.518,287.242,405.537,284.25,400.857,284.25"/>
			<path clip-path="url(#SVGID_4_)" fill="#BD1F34" d="M400.857,278c-0.36,0-0.5,0.543-0.5,1.082c0,1.308,0.159,1.989,0.5,3.918
				c0.341-1.929,0.5-2.61,0.5-3.918C401.357,278.543,401.219,278,400.857,278 M399.38,278.062c-0.36,0.031-0.457,0.586-0.409,1.125
				c0.114,1.302,0.333,1.969,0.839,3.861c0.17-1.952,0.27-2.65,0.156-3.949C399.92,278.56,399.738,278.031,399.38,278.062
				 M402.335,278.062c-0.358-0.031-0.54,0.497-0.588,1.037c-0.114,1.299-0.015,1.997,0.159,3.949
				c0.505-1.893,0.725-2.56,0.835-3.861C402.789,278.648,402.695,278.094,402.335,278.062 M397.971,278.256
				c-0.02,0-0.045,0.003-0.068,0.003c-0.354,0.065-0.395,0.619-0.301,1.153c0.228,1.284,0.5,1.932,1.171,3.771
				c0-1.958,0.039-2.657-0.188-3.943C398.496,278.742,398.289,278.262,397.971,278.256 M403.741,278.256
				c-0.318,0.006-0.525,0.486-0.613,0.983c-0.228,1.286-0.188,1.985-0.188,3.943c0.667-1.839,0.945-2.486,1.173-3.771
				c0.094-0.534,0.054-1.088-0.304-1.153C403.789,278.259,403.764,278.256,403.741,278.256 M396.522,278.568
				c-0.021,0.003-0.043,0.003-0.065,0.009c-0.35,0.097-0.344,0.656-0.205,1.179c0.338,1.262,0.674,1.881,1.5,3.656
				c-0.17-1.949-0.193-2.656-0.531-3.918C397.09,279.006,396.84,278.546,396.522,278.568 M405.19,278.568
				c-0.318-0.022-0.565,0.438-0.699,0.926c-0.338,1.262-0.358,1.969-0.531,3.918c0.829-1.775,1.162-2.395,1.5-3.656
				c0.143-0.522,0.147-1.082-0.201-1.179C405.235,278.571,405.21,278.571,405.19,278.568 M395.17,279.006
				c-0.043,0-0.083,0.006-0.125,0.02c-0.338,0.125-0.284,0.68-0.1,1.188c0.446,1.228,0.829,1.816,1.807,3.512
				c-0.341-1.929-0.423-2.628-0.869-3.855C395.721,279.427,395.459,279.02,395.17,279.006 M406.545,279.006
				c-0.292,0.014-0.551,0.421-0.713,0.863c-0.448,1.228-0.531,1.927-0.869,3.855c0.978-1.695,1.358-2.284,1.807-3.512
				c0.185-0.508,0.239-1.062-0.1-1.188C406.628,279.012,406.585,279.006,406.545,279.006 M393.795,279.562
				c-0.04,0.003-0.08,0.015-0.119,0.031c-0.327,0.153-0.23,0.702,0,1.193c0.551,1.185,0.985,1.733,2.107,3.338
				c-0.506-1.889-0.65-2.576-1.201-3.761C394.383,279.938,394.084,279.552,393.795,279.562 M407.92,279.562
				c-0.292-0.011-0.588,0.375-0.786,0.802c-0.552,1.185-0.696,1.872-1.205,3.761c1.125-1.604,1.56-2.153,2.111-3.338
				c0.227-0.491,0.326-1.04,0-1.193C407.997,279.577,407.96,279.565,407.92,279.562 M392.479,280.233
				c-0.043,0.009-0.086,0.02-0.122,0.042c-0.312,0.183-0.162,0.719,0.107,1.188c0.653,1.131,1.134,1.648,2.393,3.146
				c-0.671-1.838-0.875-2.515-1.525-3.643C393.093,280.555,392.767,280.196,392.479,280.233 M409.174,280.233
				c-0.271,0.017-0.571,0.35-0.79,0.732c-0.653,1.128-0.858,1.805-1.526,3.643c1.259-1.497,1.736-2.015,2.39-3.146
				c0.271-0.469,0.421-1.005,0.111-1.188C409.299,280.242,409.238,280.233,409.174,280.233 M391.283,281.015
				c-0.062,0.003-0.122,0.02-0.176,0.06c-0.296,0.207-0.097,0.732,0.213,1.176c0.75,1.068,1.267,1.537,2.65,2.924
				c-0.826-1.775-1.085-2.426-1.832-3.497C391.886,281.318,391.556,281.006,391.283,281.015 M410.429,281.015
				c-0.27-0.009-0.602,0.304-0.852,0.662c-0.75,1.071-1.006,1.722-1.836,3.497c1.387-1.387,1.903-1.855,2.651-2.924
				c0.31-0.443,0.511-0.969,0.213-1.176C410.551,281.034,410.491,281.018,410.429,281.015 M390.102,281.9
				c-0.062,0.009-0.119,0.037-0.171,0.08c-0.275,0.232-0.037,0.736,0.312,1.15c0.838,1,1.4,1.418,2.901,2.677
				c-0.98-1.696-1.296-2.324-2.137-3.324C390.727,282.148,390.374,281.869,390.102,281.9 M411.552,281.9
				c-0.262,0.015-0.586,0.273-0.847,0.583c-0.839,1-1.154,1.628-2.134,3.324c1.5-1.259,2.062-1.677,2.9-2.677
				c0.35-0.414,0.588-0.918,0.312-1.15C411.716,281.921,411.637,281.898,411.552,281.9 M389.064,282.881
				c-0.086,0.003-0.165,0.034-0.228,0.1c-0.256,0.256,0.028,0.736,0.412,1.116c0.923,0.927,1.52,1.296,3.125,2.418
				c-1.125-1.603-1.494-2.202-2.418-3.122C389.669,283.105,389.325,282.87,389.064,282.881 M412.648,282.881
				c-0.262-0.011-0.603,0.225-0.89,0.512c-0.924,0.92-1.296,1.52-2.418,3.122c1.605-1.122,2.202-1.491,3.125-2.418
				c0.384-0.38,0.667-0.86,0.412-1.116C412.815,282.915,412.736,282.884,412.648,282.881 M388.124,283.952
				c-0.116,0-0.213,0.037-0.287,0.122c-0.233,0.275,0.091,0.728,0.506,1.077c1,0.838,1.625,1.156,3.321,2.136
				c-1.259-1.5-1.677-2.062-2.677-2.9C388.703,284.146,388.374,283.961,388.124,283.952 M413.59,283.952
				c-0.252,0.009-0.578,0.193-0.865,0.435c-0.997,0.838-1.415,1.4-2.676,2.9c1.695-0.979,2.323-1.298,3.322-2.136
				c0.416-0.35,0.74-0.802,0.506-1.077C413.805,283.989,413.705,283.952,413.59,283.952 M387.206,285.105
				c-0.113,0.006-0.21,0.055-0.275,0.145c-0.207,0.296,0.159,0.72,0.605,1.032c1.067,0.75,1.719,1.005,3.491,1.832
				c-1.384-1.384-1.85-1.9-2.921-2.65C387.803,285.25,387.459,285.089,387.206,285.105 M414.434,285.105
				c-0.24,0.012-0.551,0.165-0.826,0.358c-1.07,0.75-1.539,1.267-2.923,2.65c1.776-0.827,2.427-1.082,3.495-1.832
				c0.441-0.312,0.812-0.736,0.604-1.032C414.705,285.14,414.582,285.098,414.434,285.105 M386.466,286.327
				c-0.145,0.006-0.266,0.054-0.335,0.174c-0.179,0.312,0.22,0.701,0.688,0.974c1.131,0.654,1.808,0.855,3.648,1.526
				c-1.503-1.259-2.018-1.739-3.146-2.39C387.027,286.441,386.709,286.321,386.466,286.327 M415.248,286.327
				c-0.246-0.006-0.564,0.114-0.854,0.284c-1.131,0.65-1.647,1.131-3.147,2.39c1.841-0.671,2.515-0.872,3.646-1.526
				c0.469-0.272,0.869-0.661,0.689-0.974C415.514,286.381,415.393,286.333,415.248,286.327 M385.918,287.611
				c-0.218-0.014-0.393,0.043-0.469,0.207c-0.15,0.327,0.282,0.677,0.771,0.907c1.185,0.551,1.869,0.695,3.762,1.201
				c-1.603-1.122-2.157-1.557-3.339-2.108C386.397,287.702,386.138,287.623,385.918,287.611 M415.795,287.611
				c-0.221,0.012-0.48,0.091-0.725,0.207c-1.184,0.552-1.734,0.986-3.34,2.108c1.891-0.506,2.578-0.65,3.762-1.201
				c0.49-0.23,0.922-0.58,0.771-0.907C416.188,287.654,416.012,287.598,415.795,287.611 M385.331,288.938
				c-0.218,0.006-0.387,0.079-0.449,0.25c-0.123,0.341,0.336,0.653,0.846,0.838c1.226,0.446,1.925,0.531,3.854,0.869
				c-1.696-0.979-2.284-1.36-3.512-1.807C385.815,288.998,385.549,288.933,385.331,288.938 M416.383,288.938
				c-0.219-0.006-0.484,0.06-0.738,0.15c-1.23,0.446-1.814,0.827-3.514,1.807c1.932-0.338,2.631-0.423,3.855-0.869
				c0.508-0.185,0.969-0.497,0.844-0.838C416.77,289.018,416.602,288.944,416.383,288.938 M385.033,290.308
				c-0.3-0.006-0.54,0.074-0.599,0.293c-0.094,0.349,0.393,0.625,0.916,0.764c0.074,0.021,0.143,0.034,0.214,0.054h2.679
				c-1.046-0.491-1.652-0.758-2.631-1.022C385.415,290.345,385.213,290.311,385.033,290.308 M416.68,290.308
				c-0.18,0.003-0.381,0.037-0.58,0.088c-0.977,0.265-1.582,0.531-2.629,1.022h2.678c0.07-0.02,0.139-0.033,0.213-0.054
				c0.525-0.139,1.012-0.415,0.918-0.764C417.219,290.382,416.98,290.302,416.68,290.308"/>
		</g>
	</g>
</g>
</svg>
