<?xml version="1.0" encoding="utf-8"?>
<!-- Generator: Adobe Illustrator 16.0.0, SVG Export Plug-In . SVG Version: 6.00 Build 0)  -->
<!DOCTYPE svg PUBLIC "-//W3C//DTD SVG 1.1//EN" "http://www.w3.org/Graphics/SVG/1.1/DTD/svg11.dtd">
<svg version="1.1" id="name" xmlns="http://www.w3.org/2000/svg" xmlns:xlink="http://www.w3.org/1999/xlink" x="0px" y="0px"
	 width="85.708px" height="50px" viewBox="358 276 85.708 50" enable-background="new 358 276 85.708 50" xml:space="preserve">
<g id="my">
	<g>
		<defs>
			<rect id="SVGID_1_" x="358" y="276" width="85.708" height="50"/>
		</defs>
		<clipPath id="SVGID_2_">
			<use xlink:href="#SVGID_1_"  overflow="visible"/>
		</clipPath>
		<rect x="358" y="276" clip-path="url(#SVGID_2_)" fill="#D81E34" width="85.708" height="3.571"/>
		<rect x="358" y="279.571" clip-path="url(#SVGID_2_)" fill="#FFFFFF" width="85.708" height="3.571"/>
		<rect x="358" y="283.143" clip-path="url(#SVGID_2_)" fill="#D81E34" width="85.708" height="3.571"/>
		<rect x="358" y="286.714" clip-path="url(#SVGID_2_)" fill="#FFFFFF" width="85.708" height="3.574"/>
		<rect x="358" y="290.288" clip-path="url(#SVGID_2_)" fill="#D81E34" width="85.708" height="3.568"/>
		<rect x="358" y="293.856" clip-path="url(#SVGID_2_)" fill="#FFFFFF" width="85.708" height="3.573"/>
		<rect x="358" y="297.43" clip-path="url(#SVGID_2_)" fill="#D81E34" width="85.708" height="3.568"/>
		<rect x="358" y="300.998" clip-path="url(#SVGID_2_)" fill="#FFFFFF" width="85.708" height="3.574"/>
		<rect x="358" y="304.572" clip-path="url(#SVGID_2_)" fill="#D81E34" width="85.708" height="3.568"/>
		<rect x="358" y="308.141" clip-path="url(#SVGID_2_)" fill="#FFFFFF" width="85.708" height="3.574"/>
		<rect x="358" y="311.715" clip-path="url(#SVGID_2_)" fill="#D81E34" width="85.708" height="3.571"/>
		<rect x="358" y="315.286" clip-path="url(#SVGID_2_)" fill="#FFFFFF" width="85.708" height="3.571"/>
		<rect x="358" y="318.857" clip-path="url(#SVGID_2_)" fill="#D81E34" width="85.708" height="3.571"/>
		<rect x="358" y="322.429" clip-path="url(#SVGID_2_)" fill="#FFFFFF" width="85.708" height="3.571"/>
		<rect x="358" y="276" clip-path="url(#SVGID_2_)" fill="#313F99" width="49.996" height="28.572"/>
		<g clip-path="url(#SVGID_2_)">
			<defs>
				<rect id="SVGID_3_" x="358" y="276" width="85.708" height="50"/>
			</defs>
			<clipPath id="SVGID_4_">
				<use xlink:href="#SVGID_3_"  overflow="visible"/>
			</clipPath>
			<path clip-path="url(#SVGID_4_)" fill="#F5D02C" d="M371.389,290.288c0-5.177,4.201-9.379,9.377-9.379
				c1.797,0,3.475,0.509,4.902,1.387c-1.896-1.693-4.396-2.725-7.137-2.725c-5.912,0-10.711,4.802-10.711,10.717
				c0,5.912,4.799,10.71,10.711,10.71c2.74,0,5.24-1.028,7.137-2.721c-1.428,0.877-3.105,1.383-4.902,1.383
				C375.59,299.66,371.389,295.461,371.389,290.288"/>
			<polygon clip-path="url(#SVGID_4_)" fill="#F5D02C" points="392.821,290.288 397.952,288.299 392.465,288.736 396.229,284.719 
				391.473,287.492 393.122,282.242 390.042,286.805 389.247,281.358 388.678,285.259 388.516,286.384 388.454,286.805 
				385.374,282.242 387.022,287.492 382.268,284.719 386.03,288.736 380.543,288.299 385.678,290.288 380.543,292.273 
				386.03,291.836 382.268,295.854 387.022,293.078 385.374,298.331 388.454,293.768 388.516,294.188 388.678,295.313 
				389.247,299.215 390.042,293.768 393.122,298.331 391.473,293.078 396.229,295.854 392.465,291.836 397.952,292.273 			"/>
		</g>
	</g>
</g>
</svg>
