<?xml version="1.0" encoding="utf-8"?>
<!-- Generator: Adobe Illustrator 16.0.0, SVG Export Plug-In . SVG Version: 6.00 Build 0)  -->
<!DOCTYPE svg PUBLIC "-//W3C//DTD SVG 1.1//EN" "http://www.w3.org/Graphics/SVG/1.1/DTD/svg11.dtd">
<svg version="1.1" id="name" xmlns="http://www.w3.org/2000/svg" xmlns:xlink="http://www.w3.org/1999/xlink" x="0px" y="0px"
	 width="85.71px" height="50px" viewBox="358 276 85.71 50" enable-background="new 358 276 85.71 50" xml:space="preserve">
<g id="mz">
	<g>
		<defs>
			<rect id="SVGID_1_" x="358" y="276" width="85.71" height="50"/>
		</defs>
		<clipPath id="SVGID_2_">
			<use xlink:href="#SVGID_1_"  overflow="visible"/>
		</clipPath>
		<rect x="358" y="276" clip-path="url(#SVGID_2_)" fill="#010101" width="85.71" height="50"/>
		<rect x="358" y="276" clip-path="url(#SVGID_2_)" fill="#FFFFFF" width="85.71" height="17.188"/>
		<rect x="358" y="276" clip-path="url(#SVGID_2_)" fill="#337368" width="85.71" height="15.626"/>
		<rect x="358" y="308.792" clip-path="url(#SVGID_2_)" fill="#FFFFFF" width="85.71" height="17.208"/>
		<rect x="358" y="310.374" clip-path="url(#SVGID_2_)" fill="#F5E128" width="85.71" height="15.626"/>
		<polygon clip-path="url(#SVGID_2_)" fill="#C01F3F" points="358,276 358,326 390.811,301.002 		"/>
		<polygon clip-path="url(#SVGID_2_)" fill="#F5E128" points="375.03,310.374 368.934,305.911 362.846,310.377 365.206,303.197 
			359.081,298.788 366.635,298.816 368.936,291.626 371.245,298.819 378.793,298.785 372.667,303.203 		"/>
		<g clip-path="url(#SVGID_2_)">
			<defs>
				<rect id="SVGID_3_" x="358" y="276" width="85.71" height="50"/>
			</defs>
			<clipPath id="SVGID_4_">
				<use xlink:href="#SVGID_3_"  overflow="visible"/>
			</clipPath>
			<path clip-path="url(#SVGID_4_)" fill="#FFFFFF" d="M363.643,305.368h4.393c0.352,0.397,1.141,0.56,1.891-0.003
				c1.377-0.756,4.041,0.003,4.041,0.003l0.521-0.557l-1.275-4.193l-0.459-0.492c0,0-0.984-0.588-2.852-0.395
				c-1.867,0.199-2.523-0.062-2.523-0.062s-1.639,0.193-2.098,0.423c-0.051,0.043-0.525,0.526-0.525,0.526L363.643,305.368z"/>
			<g clip-path="url(#SVGID_4_)">
				<path fill="#010101" d="M368.913,305.78L368.913,305.78c-0.363,0-0.707-0.14-0.918-0.378l-4.352,0.02l1.062-4.815
					c0.014-0.025,0.49-0.512,0.543-0.554c0.471-0.239,2.057-0.43,2.125-0.435c0.039,0.003,0.695,0.255,2.523,0.062
					c1.871-0.196,2.848,0.38,2.883,0.403l0.471,0.5l1.291,4.213l-0.537,0.608c-0.053,0.037-1.242-0.324-2.424-0.324
					c-0.686,0-1.232,0.111-1.629,0.33C369.631,305.652,369.27,305.78,368.913,305.78L368.913,305.78z M368.036,305.317
					c0.229,0.229,0.541,0.36,0.877,0.36l0,0c0.336,0,0.674-0.122,0.982-0.355c0.42-0.229,0.984-0.344,1.686-0.344
					c1.191,0,2.389,0.339,2.4,0.342l0.473-0.543l-1.291-4.146l-0.447-0.469l0,0c-0.004,0-0.992-0.565-2.807-0.381
					c-1.869,0.199-2.529-0.057-2.549-0.065c0.01,0.003-1.609,0.199-2.055,0.421c-0.041,0.037-0.512,0.517-0.512,0.517l-1.1,4.729
					L368.036,305.317L368.036,305.317z"/>
			</g>
			<g clip-path="url(#SVGID_4_)">
				<path fill="#010101" d="M368.883,305.78c-0.309,0-0.609-0.114-0.91-0.335c0.078-0.174,0.391-0.492,0.967-0.776
					c-1.67-0.659-4.371-0.332-4.406-0.329c-0.033,0.02-0.055-0.018-0.059-0.046s0.018-0.054,0.045-0.057
					c0.139-0.02,2.836-0.341,4.5,0.393c0.828-0.387,2.156-0.688,4.068-0.427c0.029,0.003,0.049,0.031,0.047,0.057
					c-0.006,0.031-0.029,0.058-0.061,0.046c-1.887-0.259-3.15,0.028-3.938,0.378c0.34,0.165,0.631,0.378,0.84,0.653
					C369.592,305.638,369.233,305.78,368.883,305.78L368.883,305.78z M369.057,304.718c-0.709,0.332-1.006,0.701-1.012,0.71
					c0.594,0.375,1.172,0.369,1.859-0.103C369.7,305.07,369.405,304.871,369.057,304.718L369.057,304.718z"/>
			</g>
			<g clip-path="url(#SVGID_4_)">
				<polygon fill="#010101" points="369.026,304.712 368.975,300.092 369.059,300.092 369.026,304.712 				"/>
			</g>
			<g clip-path="url(#SVGID_4_)">
				<polygon fill="#010101" points="373.581,303.82 372.713,300.169 372.793,300.149 373.581,303.82 				"/>
			</g>
			<g clip-path="url(#SVGID_4_)">
				<path fill="#010101" d="M364.889,302.047c-0.006,0-0.008,0-0.012-0.003c-0.027-0.006-0.047-0.034-0.039-0.062l0.436-1.892
					c0.006-0.029,0.037-0.049,0.062-0.04c0.027,0.006,0.047,0.034,0.039,0.062l-0.436,1.895
					C364.934,302.03,364.913,302.047,364.889,302.047L364.889,302.047z"/>
			</g>
			<path clip-path="url(#SVGID_4_)" fill="#010101" d="M360.792,305.874l1.033,1.21c0.119,0.071,0.229,0.065,0.336,0l1.529-1.838
				l0.643-0.796c0.1-0.116,0.133-0.247,0.123-0.366l1.23-1.091c0.098,0.006,0.16,0.017,0.26,0.022
				c-0.119-0.028-0.207-0.088-0.113-0.219l0.275-0.213l0.217,0.275c0,0-0.307,0.397-0.338,0.397h-0.336l-0.643,0.583l0.279,0.247
				l0.424,1.159l0.52-0.366l-0.336-1.193l0.732-0.796l-0.275-0.429l0.186-0.247c0,0,2.543,1.602,3.523,1.173
				c0.025,0.012,0.059-1.139,0.059-1.139s-2.633-0.276-2.693-0.799c-0.062-0.52,0.58-0.582,0.58-0.582l-0.275-0.398l0.062-0.213
				l0.457,0.583l1.043-0.89l6.123,6.98c0.332-0.136,0.404-0.216,0.428-0.551c-0.01-0.009-6-6.887-6-6.887l0.459-0.492
				c0.09-0.099,0.121-0.145,0.121-0.307l0.705-0.61c0.213,0.073,0.346,0.198,0.459,0.366l1.936-1.64
				c0.051,0.052,0.207,0.103,0.312,0.043l3.199-3.071l-3.488,2.463l-0.121-0.091c0-0.102,0.125-0.128,0-0.304
				c-0.135-0.165-0.338,0.153-0.369,0.153s-0.504-0.17-0.607-0.381l-0.033,0.562l-0.891,0.827l-0.672-0.031l-0.98,0.948
				l-0.121,0.367l0.152,0.31c0,0-0.521,0.457-0.521,0.426s-0.104-0.136-0.109-0.15l0.447-0.4l0.062-0.275l-0.15-0.233
				c-0.045,0.031-0.615,0.634-0.646,0.571c-0.051-0.057-1.654-1.869-1.654-1.869l0.094-0.336l-1.043-1.133
				c-0.377-0.131-0.979-0.153-1.1,0.673c-0.096,0.193-0.889,0.031-0.889,0.031l-0.43,0.094l-2.416,3.427l1.346,1.622l2.756-3.489
				l0.082-0.988l0.578,0.645c0.191,0.025,0.375,0.028,0.551-0.06l1.631,1.821l-0.27,0.267c0.09,0.103,0.152,0.165,0.244,0.268
				c0.094-0.06,0.182-0.134,0.271-0.196c0.031,0.043,0.082,0.119,0.113,0.159c-0.137,0.074-0.234,0.176-0.369,0.25
				c-0.219-0.142-0.432-0.321-0.414-0.605l-0.92,0.768l-0.029,0.15l-2.725,2.268l-0.244,0.031l-0.062,0.704l1.775-1.472v-0.213
				l0.186,0.15l1.377-1.1c0,0,0.092,0.123,0.061,0.123s-1.225,1.102-1.225,1.102l-0.031,0.122l-0.213,0.183l-0.123-0.092
				l-1.652,1.472h-0.246l-0.918,0.918c-0.238,0.021-0.441,0.046-0.645,0.182L360.792,305.874z"/>
			<g clip-path="url(#SVGID_4_)">
				<path fill="#010101" d="M361.995,307.189c-0.064,0-0.133-0.02-0.197-0.06l-1.045-1.222l1.648-1.528
					c0.211-0.143,0.412-0.171,0.674-0.196l0.887-0.903l0.281-0.015l1.617-1.454l0.189,0.085l0.162-0.275
					c0.928-0.867,1.168-1.074,1.24-1.125h-0.002c-0.027,0-0.045-0.029-0.066-0.055l-1.303,1.111l-0.25-0.153l0.086,0.173
					l-1.795,1.512l-0.023-0.75l0.291-0.077l2.697-2.256l0.012-0.122l0.938-0.795c0.07,0.298,0.264,0.463,0.475,0.602
					c0.014-0.039,0.07-0.082,0.125-0.125c0.061-0.045,0.121-0.088,0.191-0.127l-0.082-0.015l-0.246,0.142l-0.316-0.278l0.275-0.338
					l-1.637-1.75c-0.068,0.1-0.301,0.108-0.52,0.077l-0.607-0.662l0.008,0.957l-2.768,3.518l-1.426-1.619l2.416-3.492l0.459-0.113
					c0.025,0,0.334,0.062,0.58,0.062c0.223,0,0.264-0.049,0.273-0.065c0.139-0.966,0.891-0.796,1.164-0.699l1.062,1.147l-0.08,0.384
					l0,0c0.031,0,1.592,1.765,1.641,1.821c0.025-0.034,0.318-0.324,0.443-0.449c0.07-0.067,0.123-0.122,0.135-0.131l0.16,0.177
					l0.062-0.19l0.992-0.972l0.713,0.017l0.85-0.812l0.02-0.528c0.188,0.159,0.619,0.324,0.664,0.333
					c0.072-0.1,0.166-0.202,0.273-0.202c0.014,0,0.119,0.054,0.131,0.065c0.096,0.137,0.07,0.21,0.031,0.278l0.08,0.108l3.426-2.464
					c0.021-0.017,0.053-0.011,0.07,0.012c0.018,0.02,0.018,0.051-0.002,0.068l-3.201,3.071c-0.139,0.082-0.311,0.034-0.385-0.046
					l-1.863,1.646c-0.197-0.188-0.332-0.296-0.512-0.358l-0.652,0.603c0.02,0.137-0.018,0.193-0.117,0.304l-0.461,0.489l0,0
					c0.062,0,5.949,6.759,6,6.818c-0.012,0.403-0.105,0.494-0.445,0.633l-6.182-6.991l-0.969,0.892l-0.533-0.591l0.029,0.196
					l0.268,0.355c-0.041,0.082-0.344,0.113-0.494,0.298c-0.066,0.083-0.092,0.188-0.078,0.307c0.041,0.35,1.646,0.646,2.648,0.753
					c0.012,1.244,0,1.244-0.064,1.244c-0.098,0.046-0.242,0.071-0.406,0.071c-1.141,0-3.062-1.201-3.145-1.253l-0.115,0.233
					l0.279,0.369l-0.742,0.858l0.35,1.145l-0.541,0.424l-0.502-1.183l-0.266-0.228l0.641-0.661l0.373-0.015
					c0.008-0.014,0.164-0.204,0.295-0.375l-0.213-0.213l-0.205,0.225c-0.012,0.076,0.006,0.102,0.096,0.128
					c0.025,0.005,0.041,0.031,0.039,0.057c-0.006,0.025-0.035,0.037-0.055,0.045l-0.262-0.025l-1.191,1.08
					c0.025,0.057,0.008,0.213-0.117,0.36l-2.174,2.634C362.122,307.17,362.059,307.189,361.995,307.189L361.995,307.189z
					 M365.864,301.891l-1.588,1.466l-0.279,0.015l-0.881,0.903c-0.279,0.037-0.467,0.062-0.65,0.188l-1.641,1.449l1.039,1.139
					c0.074,0.04,0.174,0.052,0.27-0.011l2.16-2.62c0.102-0.125,0.115-0.247,0.111-0.332l1.246-1.134h0.104
					c-0.002-0.003-0.004-0.009-0.004-0.012c-0.02-0.051-0.006-0.11,0.039-0.176l0.287-0.222l0.287,0.284
					c-0.32,0.48-0.35,0.48-0.377,0.48h-0.336l-0.607,0.57l0.277,0.168l0.438,1.182l0.443-0.392l-0.357-1.14l0.748-0.844
					l-0.281-0.363l0.186-0.307l0,0c0.09,0,2.049,1.227,3.158,1.227c0.15,0,0.281-0.022,0.383-0.067
					c-0.006-0.037,0.018-0.696,0.029-1.097c-0.217,0.028-2.629-0.242-2.693-0.79c-0.018-0.147,0.016-0.278,0.102-0.384
					c0.18-0.222,0.514-0.253,0.527-0.256l-0.314-0.314l0.055-0.259l0.551,0.565l0.965-0.896l6.195,6.983
					c0.264-0.145,0.316-0.213,0.338-0.517c-0.027-0.012-0.488-0.537-5.986-6.853l0.459-0.561c0.084-0.094,0.109-0.127,0.109-0.272
					l0.721-0.65c0.254,0.06,0.404,0.179,0.537,0.378l1.859-1.65c0.092,0.025,0.162,0.057,0.234,0.057l2.734-2.574l-2.881,2.034
					l-0.184-0.091c-0.021-0.015,0-0.128,0.012-0.15c0.025-0.046,0.041-0.074-0.021-0.168c-0.115-0.025-0.193,0.065-0.24,0.113
					c-0.01,0.012-0.072,0.062-0.088,0.062c-0.051,0-0.539-0.176-0.654-0.408l0.064,0.542l-0.904,0.864l-0.713-0.021l-0.939,0.935
					l-0.1,0.355l0.141,0.259c-0.514,0.506-0.541,0.506-0.564,0.506c-0.061-0.06-0.102-0.108-0.119-0.128
					c-0.008-0.023-0.043-0.1-0.029-0.114l0.447-0.4l0.021-0.145l-0.096-0.244c-0.014,0.022-0.041,0.051-0.072,0.079
					c-0.367,0.363-0.484,0.463-0.545,0.463c-0.098-0.076-1.699-1.889-1.699-1.889l0.08-0.384l-1.029-1.083
					c-0.064-0.017-0.197-0.054-0.342-0.054c-0.377,0-0.602,0.236-0.67,0.699c-0.045,0.1-0.166,0.139-0.371,0.139
					c-0.258,0-0.566-0.062-0.58-0.065l-0.406,0.094l-2.387,3.407l1.344,1.557l2.676-3.489l0.07-0.96l0.666,0.616
					c0.037-0.008,0.104-0.003,0.168-0.003c0.125,0,0.229-0.02,0.322-0.067l1.695,1.832l-0.273,0.338l0.125,0.062l0.123,0.134
					l0.07-0.108l0.135-0.096c0.02-0.015,0.104,0.06,0.119,0.082l0.062,0.088c-0.082,0.113-0.139,0.156-0.195,0.196
					c-0.061,0.045-0.121,0.091-0.191,0.131c-0.279-0.151-0.508-0.344-0.49-0.653l-0.834,0.81l-0.012,0.122l-2.742,2.295
					l-0.271,0.043l-0.018,0.656l1.691-1.514l-0.018-0.174l0.268,0.111l1.312-1.1c0.17,0.136,0.156,0.162,0.145,0.182
					c-0.088,0.065-0.785,0.701-1.24,1.119l-0.016,0.097l-0.23,0.21L365.864,301.891L365.864,301.891z M369.782,298.436l-0.012,0.058
					l-0.459,0.429c0.082,0.031,0.115,0.062,0.125,0.094c0.006-0.08,0.232-0.272,0.434-0.449L369.782,298.436L369.782,298.436z"/>
			</g>
		</g>
	</g>
</g>
</svg>
