<?xml version="1.0" encoding="utf-8"?>
<!-- Generator: Adobe Illustrator 16.0.0, SVG Export Plug-In . SVG Version: 6.00 Build 0)  -->
<!DOCTYPE svg PUBLIC "-//W3C//DTD SVG 1.1//EN" "http://www.w3.org/Graphics/SVG/1.1/DTD/svg11.dtd">
<svg version="1.1" id="name" xmlns="http://www.w3.org/2000/svg" xmlns:xlink="http://www.w3.org/1999/xlink" x="0px" y="0px"
	 width="85.714px" height="50px" viewBox="358 276 85.714 50" enable-background="new 358 276 85.714 50" xml:space="preserve">
<g id="na">
	<g>
		<defs>
			<rect id="SVGID_1_" x="358" y="276" width="85.714" height="50"/>
		</defs>
		<clipPath id="SVGID_2_">
			<use xlink:href="#SVGID_1_"  overflow="visible"/>
		</clipPath>
		<polygon clip-path="url(#SVGID_2_)" fill="#27397C" points="358,276 358,326 443.715,276 		"/>
		<polygon clip-path="url(#SVGID_2_)" fill="#3D9546" points="443.715,276 358,326 443.715,326 		"/>
		<g clip-path="url(#SVGID_2_)">
			<defs>
				<rect id="SVGID_3_" x="358" y="276" width="85.714" height="50"/>
			</defs>
			<clipPath id="SVGID_4_">
				<use xlink:href="#SVGID_3_"  overflow="visible"/>
			</clipPath>
			<g clip-path="url(#SVGID_4_)">
				<polygon fill="#FFFFFF" points="362.489,333.693 353.511,318.304 439.227,268.307 448.203,283.696 362.489,333.693 				"/>
			</g>
			<g clip-path="url(#SVGID_4_)">
				<polygon fill="#C01F3F" points="361.366,331.771 354.634,320.229 440.348,270.229 447.082,281.771 361.366,331.771 				"/>
			</g>
		</g>
		<polygon clip-path="url(#SVGID_2_)" fill="#F6CD2A" points="383.306,293.919 379.625,293.285 380.256,296.967 377.383,294.58 
			376.088,298.084 374.795,294.58 371.922,296.967 372.555,293.285 368.872,293.919 371.26,291.043 367.756,289.751 371.26,288.455 
			368.872,285.583 372.555,286.217 371.922,282.534 374.795,284.921 376.088,281.418 377.383,284.921 380.256,282.534 
			379.625,286.217 383.306,285.583 380.918,288.455 384.422,289.751 380.918,291.043 		"/>
		<g clip-path="url(#SVGID_2_)">
			<defs>
				<rect id="SVGID_5_" x="358" y="276" width="85.714" height="50"/>
			</defs>
			<clipPath id="SVGID_6_">
				<use xlink:href="#SVGID_5_"  overflow="visible"/>
			</clipPath>
			<path clip-path="url(#SVGID_6_)" fill="#27397C" d="M381.09,289.751c0,2.762-2.24,5-5.002,5c-2.761,0-4.999-2.238-4.999-5
				s2.238-5.001,4.999-5.001C378.85,284.75,381.09,286.989,381.09,289.751"/>
			<path clip-path="url(#SVGID_6_)" fill="#F6CD2A" d="M380.256,289.751c0,2.301-1.865,4.168-4.168,4.168
				c-2.3,0-4.166-1.867-4.166-4.168c0-2.302,1.866-4.168,4.166-4.168C378.391,285.583,380.256,287.449,380.256,289.751"/>
		</g>
	</g>
</g>
</svg>
