<?xml version="1.0" encoding="utf-8"?>
<!-- Generator: Adobe Illustrator 16.0.0, SVG Export Plug-In . SVG Version: 6.00 Build 0)  -->
<!DOCTYPE svg PUBLIC "-//W3C//DTD SVG 1.1//EN" "http://www.w3.org/Graphics/SVG/1.1/DTD/svg11.dtd">
<svg version="1.1" id="name" xmlns="http://www.w3.org/2000/svg" xmlns:xlink="http://www.w3.org/1999/xlink" x="0px" y="0px"
	 width="85.711px" height="50px" viewBox="358 276 85.711 50" enable-background="new 358 276 85.711 50" xml:space="preserve">
<g id="nf">
	<g>
		<defs>
			<rect id="SVGID_1_" x="358" y="276" width="85.711" height="50"/>
		</defs>
		<clipPath id="SVGID_2_">
			<use xlink:href="#SVGID_1_"  overflow="visible"/>
		</clipPath>
		<rect x="384.087" y="276" clip-path="url(#SVGID_2_)" fill="#FFFFFF" width="33.54" height="50"/>
		<g clip-path="url(#SVGID_2_)">
			<defs>
				<rect id="SVGID_3_" x="358" y="276" width="85.711" height="50"/>
			</defs>
			<clipPath id="SVGID_4_">
				<use xlink:href="#SVGID_3_"  overflow="visible"/>
			</clipPath>
			<path clip-path="url(#SVGID_4_)" fill="#347C41" d="M400.831,281.512c-0.074,0.815-0.15,1.628-0.224,2.44
				c-0.273,0.04-0.545,0.082-0.821,0.122c0,0,0.571,0.324,0.67,0.647c0.017,0.052,0.012,0.094-0.014,0.125
				c-0.008,0.012-0.017,0.023-0.028,0.031c-0.167,0.125-0.653,0.065-0.653,0.065s0.645,0.552,0.696,0.75
				c0,0.003,0.003,0.009,0.003,0.015c0,0.003,0.003,0.009,0,0.011c0,0.004-0.005,0.009-0.005,0.012
				c-0.006,0.012-0.015,0.02-0.02,0.031c-0.153,0.14-0.87,0.18-0.87,0.18s0.793,0.57,0.844,0.892c0.046,0.296,0.006,0.466,0,0.497
				c-0.057-0.048-1.338-1.131-2.165-0.815c-0.043,0.021-0.065,0.043-0.077,0.062c-0.003,0.009-0.003,0.021-0.003,0.031
				c0.06,0.179,1.227,0.364,2.042,1.074c-0.02,0.179-2.324-0.565-2.409-0.1c0.071,0.131,2.48,0.48,2.659,0.796
				c-0.886,0.033-2.722-0.196-2.659,0.096c-0.188,0.339,1.733,0.148,2.534,0.427c0.236,0.267,0.213,0.491-0.196,0.52
				c-0.776-0.372-2.512-0.645-2.514-0.173v0.003l0.002,0.003c0,0.002,0,0.002,0.003,0.006c0.003,0.002,0.009,0.005,0.014,0.008
				c0.196,0.1,1.812,0.052,2.421,0.452c-0.864,0.198-3.787-0.396-3.804-0.105c0.082,0.134,0.545,0.728,1.341,0.705
				c0.795-0.026,2.636,0.323,2.762,0.57c0.002,0.009,0.002,0.015,0.002,0.023c-0.054,0.17-2.426-0.531-3.338-0.097
				c-0.946,0.445,2.713,0.173,3.307,0.722c0.6,0.548-1.193-0.052-1.193-0.052s-2.486-0.347-2.858-0.173
				c-0.375,0.176-0.795,0.571-0.795,0.571s0.247,0.497,0.497,0.4c0.034-0.018,0.062-0.02,0.077-0.015h0.003h0.003
				c0,0,0,0.003,0.003,0.006l0.003,0.003h0.002c0,0.006,0,0.009,0.003,0.012c0.006,0.076-0.17,0.289-0.17,0.289
				s3.483,0.847,4.253,1.594c0.773,0.745-4.426-1.17-4.426-1.17s-2.088,0.772,0.125,0.821c-0.247,0.36,0.103,0.582,0.125,0.597
				c0,0,3.679,0.772,4.054,1.369c0.372,0.597-2.514-0.574-3.159-0.898c-0.625-0.31-2.361,0.165-2.46,0.311c0,0.002,0,0.006,0,0.008
				l0,0v0.006v0.003v0.003c0,0.003,0,0.003,0,0.003v0.003c0.003,0.003,0.006,0.006,0.006,0.008l0.003,0.004
				c0.111,0.121,0.886,0.289,0.909,0.502l0,0c0,0.015,0,0.029-0.009,0.037c-0.097,0.19-1.02,0.271-1.06,0.449
				c0,0.003-0.003,0.006-0.003,0.012c0,0.198,4.651,1.167,5.895,2.213c1.245,1.043-3.653-1.247-3.653-1.247s0.272,0.375,0,0.474
				c-0.273,0.1-1.248-1.392-2.838-0.474c-0.29,0.38,1.392,0.682,1.818,0.724c-0.148,0.373-0.275,0.498,0.324,0.87
				c0.062,0.042,0.1,0.065,0.114,0.079l0.006,0.003c0,0,0,0,0,0.003v0.003v0.003l0,0h-0.006c-0.091-0.015-1.162-0.568-1.275-0.588
				h-0.006h-0.003c0,0.048,0.125,0.647,0.125,0.647c-0.551-0.449-1.216-0.585-1.841-0.125c-0.003,0.025-0.006,0.457,0.619,0.719
				c-0.352,0.725,0.4,0.497,1.594,1.171c-1.775-0.464-1.915,0.397-0.647,0.596c1.267,0.199,4.753,0.324,5.574,1.396
				c0.17,0.225,0.219,0.338,0.185,0.372c-0.137,0.125-1.398-0.787-1.58-0.821c0,0.003-0.003,0-0.003,0
				c0,0.003-0.003,0.003-0.003,0.006c0,0-0.006,0.009-0.008,0.012c-0.043,0.1-0.085,0.528-0.085,0.528
				c-0.531-0.304-1.017-0.58-1.653-0.71c-0.048,0.099-0.04,0.241-0.088,0.338c-0.577-0.415-1.077-0.705-1.915-0.747
				c-0.031,0.133-0.068,0.267-0.1,0.4c0,0-0.699-0.869-2.065,0c-0.764,0.545,2.884,0.199,3.483,0.844
				c0.597,0.647,0.125,0.744,0.125,0.744c-0.497-0.179-0.994-0.36-1.491-0.545c0,0-1.767-0.324-2.265,0.076
				c-0.497,0.395,7.262,1.367,7.486,2.435c0.15,0.58-1.824-0.607-3.531-1.116c-0.068,0.19-0.134,0.378-0.199,0.571
				c-0.04-0.04-0.702-0.685-1.443-0.796l-0.003,0.003v0.006c0.003,0.082,0.15,0.662,0.15,0.662s-1.912-0.896-2.881-0.421
				c-0.972,0.469,3.381,0.719,3.779,1.168c0.042,0.048,0.06,0.085,0.06,0.107c0,0.003-0.006,0.009-0.006,0.015
				c-0.096,0.14-1.395-0.381-1.522-0.122c-0.148,0.298-2.265-0.546-2.239-0.147c0.025,0.395,0.301,0.619,0.301,0.619
				s4.401,0.423,4.552,0.946c0.15,0.52-2.438-0.299-2.438-0.299s-0.25,0.372-0.051,0.546c0.005,0.008,0.011,0.014,0.017,0.017v0.003
				c-0.003,0-0.006,0-0.006,0c-0.088-0.028-1.492-0.946-1.353-0.244c-0.551-0.219-1.966-0.896-1.767-0.372
				c0.196,0.514,3.89,1.25,3.998,1.27c-0.097,0.009-1.659,0.14-1.588,0.549c-2.094-1.276-2.085-0.512-2.04-0.452v0.003
				c-0.117-0.017-2.693-0.659-0.645,0.449c1.097,0.594,1.367,0.826,1.372,0.914c0,0,0,0.006,0,0.009s-0.003,0.006-0.003,0.006
				c0,0.003-0.002,0.003-0.002,0.006l-0.003,0.003c0,0.003-0.003,0.006-0.003,0.006h-0.003l-0.003,0.002
				c0,0.003-0.003,0.003-0.003,0.003c-0.042,0.028-0.145,0.018-0.173,0.018h-0.008v0.003v0.003c0.028,0.042,0.19,0.482,0.182,0.557
				c0,0.003,0,0.006-0.002,0.009l0,0h-0.003c0,0,0,0.002,0,0.005h-0.003h-0.003c-0.088-0.025-1.446-0.75-1.909-0.798
				c-0.475-0.051-2.713,0.619-0.324,1.665c2.386,1.045,3.853-0.247,5.17-0.1c1.318,0.15,1.943,0.372,1.818,0.798
				c-0.125,0.424-1.349-1.386-2.636,0.177c-1.463-0.29-2.455-0.458-1.702,0.619c-2.387-0.892-3.847,0.272-0.838,0.744
				c2.958,0.088,4.776-0.722,4.776-0.722s0.5,0.924,1.222,0.275c0.685-0.616,0.742,0.171,0.767,0.245c0,0.003,0,0.003,0,0.003v0.002
				h0.003c0.054-0.014,0.696-0.301,0.696-0.301h0.173v5.969c0.807,0.009,1.608,0.018,2.412,0.026c0,0-0.77-5.199-0.35-5.896
				c0.412-0.674,0.799-0.603,0.822-0.594c0,0,1.568,0.469,1.741,0.395l0.009-0.003c0.002,0,0.002,0,0.006-0.003
				c0.002-0.002,0.008-0.002,0.011-0.008v-0.003c0.131-0.116,0-0.574,0.796-0.503c0.244-0.091,0.15-0.483,0.31-0.58
				c0.005,0,0.009-0.002,0.011-0.005c0.009-0.003,0.015-0.006,0.021-0.009c0.011,0,0.022-0.003,0.034-0.003
				c0.25-0.025,5.049,1.341,6.094,0.048c-0.275-0.721-1.222-0.051-1.469-0.025c-0.225,0-1.17-0.449-1.719,0
				c-0.498-0.372-2.759-0.619-2.759-0.619c-0.298-0.299,5.397,0.147,5.722-0.076c0.671-0.671-1.244-0.598-1.539-0.373
				c-0.531-0.323-1.199-0.298-1.605-0.076c-0.196-0.463-2.046-0.262-3.074-0.396c-0.327-0.192-0.273-0.304-0.049-0.426
				c2.146,0.094,4.281,0.372,6.441,0.275c0.582-0.759-0.733-1.045-1.543-0.4c-0.475-0.778-1.44-0.022-2.092-0.097
				c-0.645-0.076-0.346-0.869,0.475-0.744c0.822,0.122,2.287-0.054,2.562-0.426c0.273-0.373-0.164-0.75-1.517-0.396
				c-0.457-0.449-1.466,0-1.94,0.147c-0.628-0.352-2.091-0.051-2.588,0.074c-0.486-0.301,2.562-0.796,2.562-0.796
				c1.18-0.02,1.841-0.224,2.213-0.323c1.781-0.952-0.025-1.057-0.957-0.361c-0.58-0.454-1.131,0.037-1.65,0.213
				c-0.492,0.162-1.398,0.281-1.509,0.233c0,0-0.003-0.003-0.006-0.003h-0.003v-0.006l0,0v-0.003c0-0.003,0-0.005,0-0.005
				c0.074-0.117,1.415-0.938,1.415-0.938s1.741-0.125,2.091-0.177c0.213-0.031,0.955-0.384,0.955-0.514
				c-0.006-0.08-0.316-0.071-1.256,0.164c-0.848,0.077-1.344,0.028-1.665,0.055c-0.521-0.055-0.741-0.108-0.781-0.156
				c-0.003-0.003-0.009-0.006-0.009-0.009c-0.003-0.009,0-0.02,0.009-0.028c0-0.003,0.005-0.006,0.005-0.009
				c0.129-0.1,0.952-0.176,0.952-0.176s2.512-0.228,2.679-0.361v-0.003c0,0,0.004-0.003,0.004-0.005l0.002-0.004
				c0.052-1.025-2.131-0.551-2.188-0.545c0.006-0.722-1.971-0.009-2.062,0h-0.006c-0.085-0.049-0.119-0.103-0.127-0.15
				c-0.004-0.018,0-0.037,0.006-0.057c0.048-0.148,0.349-0.265,0.349-0.265c0.546-0.134,1.364-0.173,1.579-0.35
				c0,0,1.543-0.011,1.725-0.42c-0.377-1.049-3.267,0.185-3.652,0.372c-0.08,0-0.125-0.021-0.148-0.055
				c-0.128-0.185,0.497-0.795,0.52-0.814l0.004-0.003c0.096-0.028,2.402-0.148,3.502-1.64c0.08-0.926-1.314,0.52-1.314,0.52
				c-0.105-1.195-1.518,0.077-2.339,0.177c-0.821,0.099-0.847-0.372-0.272-0.449c0.57-0.074,1.219-0.025,1.543-0.895
				c0.32-0.87,1.293,0.048,1.466-0.273c0.171-0.315-0.318-0.582-0.35-0.597c0,0,0.722-0.75-0.446-0.724
				c-1.156,0.025-2.653-0.146-2.685-0.148c0.073-0.028,1.253-0.475,2.36-0.448c1.146,0.025,0.523-0.818-0.573-0.818
				c-1.094,0-1.665-0.375-1.665-0.375c0.622-0.233,1.244-0.463,1.863-0.696c-0.039-0.173-0.082-0.347-0.121-0.522
				c0,0,1.094-0.873-0.449-0.671c-1.54,0.199-1.717,0.225-1.717,0.225s-3.037,0.466-3.107,0.472h-0.003
				c-0.028-0.006-0.329-0.097-0.384-0.213c-0.003-0.003-0.006-0.009-0.008-0.015c0-0.006,0-0.011,0-0.015
				c-0.004-0.005-0.004-0.014,0-0.02c0.011-0.062,0.104-0.125,0.344-0.188c0.795-0.199,3.607-0.77,4.031-0.619
				c0.054,0.02,0.094,0.014,0.119-0.006c0.156-0.145-0.369-1.057-1.665-1.19c-1.491-0.147-2.409,0.375-2.409,0.375
				s-0.972-0.35-0.076-0.65c0.895-0.296,2.314,0.103,2.314,0.103s1.589-0.475,0.273-0.674c-1.321-0.199-1.736,0.18-2.338,0.199
				c-0.242-0.299,2.068-0.372,2.213-0.619c-0.244-0.449-1.674,0-2.512,0c-0.357-0.15-0.381-0.396,0.022-0.549
				c0.855-0.031,1.657,0.018,2.512-0.017c-0.025-0.455,0-0.995-0.022-1.452c-1.082-0.199-2.355,0.145-2.963,0.116
				c0.164-0.497,2.502-0.625,2.761-0.761c0.537-0.674-2.241-0.009-2.31,0c-0.494-0.071-0.463-0.384-0.15-0.571
				c0.719-0.085,2.338,0.104,2.216-0.384c-0.094-0.46-1.122-0.216-1.546-0.113c-0.42,0.1-1.043,0.022-1.043,0.022
				c-0.272-0.363,2.438-0.213,2.412-0.497c-0.033-0.321-1.715-0.1-2.287-0.074c-0.442-0.304,2.068-0.506,2.186-0.545
				c0.003,0,0.003-0.003,0.003-0.003c0.094-0.827-1.741,0-2.091,0c-0.057,0-0.105-0.015-0.137-0.04
				c-0.009-0.006-0.018-0.014-0.023-0.022c-0.115-0.14-0.014-0.46-0.014-0.46s0.656-0.293,0.696-0.364l0.003-0.003l0,0
				c0-0.003,0-0.006,0-0.006h-0.003c-0.003-0.002-0.006-0.008-0.009-0.008c-0.076-0.06-0.528-0.211-0.585-0.213h-0.003l-0.003-0.003
				c0-0.003-0.003-0.003-0.003-0.003l-0.003-0.003c-0.034-0.071,0.009-0.565,0.009-0.565s0.518-0.39,0.551-0.543
				c0,0,0-0.003,0-0.006s0-0.003,0-0.006v-0.002c0-0.003,0-0.006,0-0.009l0,0c0-0.003-0.002-0.006-0.002-0.006v-0.003
				c0-0.003-0.004-0.003-0.004-0.003l-0.002-0.003c0-0.003,0-0.006-0.004-0.006l-0.002-0.002c0-0.003-0.006-0.003-0.009-0.006
				l-0.006-0.003c-0.13-0.062-0.671,0.125-0.671,0.125v-0.497c0,0,0.475-0.052,0.523-0.275c0.003-0.015,0.003-0.026,0-0.037
				c0-0.006-0.003-0.015-0.003-0.018c-0.003-0.011-0.009-0.02-0.015-0.031l-0.006-0.003c-0.104-0.142-0.548-0.159-0.548-0.159
				C400.996,283.253,400.917,282.384,400.831,281.512L400.831,281.512z M400.388,290.041v0.341c0,0-0.557-0.028-0.659-0.117
				c-0.003,0-0.003-0.003-0.003-0.003h-0.003c0,0-0.003-0.002-0.003-0.005h-0.005c0-0.003,0-0.006,0-0.009l0,0l-0.003-0.003
				c0-0.003,0-0.003,0-0.003v-0.006c0,0,0,0,0-0.003v-0.003c0,0,0-0.005,0.003-0.008l0,0c0.003-0.003,0.005-0.009,0.008-0.009
				c0-0.003,0-0.003,0-0.006l0.006-0.003c0.005-0.006,0.008-0.008,0.014-0.011c0.188-0.131,0.56-0.128,0.633-0.151
				c0,0,0.003,0.003,0.003,0h0.006l0,0L400.388,290.041L400.388,290.041z M401.178,290.495c0.02,0,1.113,0.009,1.207,0.153
				l0.004,0.003c0.002,0.003,0.002,0.006,0.006,0.009c0,0.003,0,0.003,0,0.006c0,0.002,0,0.005,0,0.008
				c-0.004,0.003-0.004,0.006-0.006,0.009c-0.083,0.176-1.188,0.284-1.188,0.284L401.178,290.495z M401.118,291.174h0.003h0.003
				c0.062,0.018,0.517,0.031,0.571,0.108l0.002,0.003c0,0,0,0,0,0.003l0.004,0.003l0,0v0.005v0.003l0,0c0,0,0,0.003,0,0.006h-0.004
				v0.003c0,0.003-0.002,0.003-0.002,0.006v0.003c-0.004,0.003,0,0.003-0.004,0.003c-0.094,0.116-0.511,0.145-0.531,0.145h-0.002
				l0,0c0,0-0.003-0.003-0.003-0.006C401.139,291.421,401.118,291.174,401.118,291.174L401.118,291.174z M397.789,292.074
				c0.358-0.017,1.065,0.066,2.392,0.433c0,0.028,0.025,0.372,0.017,0.429c0,0-0.003,0.003-0.003,0.006l0,0l-0.003,0.003
				c-0.02-0.012-2.415-0.699-2.636-0.688c-0.006,0-0.012,0-0.017,0c-0.006,0-0.011-0.003-0.017-0.003
				c-0.006-0.003-0.014-0.006-0.02-0.009c0-0.003-0.005-0.003-0.008-0.003v-0.003c-0.009-0.003-0.014-0.011-0.02-0.017
				c0-0.003-0.003-0.003-0.003-0.006l-0.003-0.003c0-0.003,0-0.003,0-0.006l-0.002-0.003c0-0.002,0-0.002,0-0.002v-0.006
				c0-0.003,0-0.003,0-0.006s0-0.009,0.002-0.009c0.003-0.009,0.009-0.02,0.017-0.025
				C397.521,292.12,397.612,292.086,397.789,292.074L397.789,292.074z M399.033,293.092c0.378-0.014,1.296,0.207,1.344,0.196
				c0,0.073,0.043,0.417-0.005,0.488v0.003l-0.003,0.003c-0.003,0-0.003,0-0.003,0c0,0.003-0.005,0.006-0.005,0.006h-0.003h-0.006
				h-0.003c-0.077-0.021-1.426-0.449-1.48-0.625c0-0.003,0-0.009,0-0.009c0-0.009,0.005-0.014,0.008-0.02l0.003-0.003
				c0,0,0-0.003,0.003-0.006C398.908,293.106,398.962,293.095,399.033,293.092L399.033,293.092z M402.789,294.038
				c0.363-0.006,0.622,0.022,0.525,0.136c-0.259,0.302-2.061,0.549-2.061,0.549l-0.031-0.549
				C401.26,294.169,402.176,294.049,402.789,294.038L402.789,294.038z M397.638,295.757c0.304-0.017,1.02,0.15,2.605,0.821
				l0.011,0.397c0,0-2.688-0.815-2.781-0.949C397.428,295.959,397.342,295.771,397.638,295.757L397.638,295.757z M402.902,296.348
				c0.082-0.006,0.139,0.003,0.159,0.022l0.003,0.003c0,0.003,0.003,0.006,0.003,0.009s0.003,0.006,0.003,0.009
				c0,0.011-0.009,0.025-0.025,0.042c-0.25,0.281-1.592,0.56-1.592,0.56v-0.363l0,0
				C401.516,296.626,402.502,296.367,402.902,296.348L402.902,296.348z M397.01,296.396c0.401-0.023,1.31,0.189,3.338,1.15
				c0,0.011,0.017,0.341,0.012,0.375h-0.003c-0.123-0.04-3.654-1.281-3.654-1.281C396.7,296.626,396.646,296.413,397.01,296.396
				L397.01,296.396z M403.738,297.947c0.102-0.003,0.167,0.003,0.184,0.025c0.004,0.006,0.004,0.009,0.004,0.012
				c0,0.011-0.01,0.025-0.029,0.042c-0.318,0.29-2.361,0.64-2.435,0.646l0,0c0-0.003-0.003,0-0.003,0
				c-0.003-0.003-0.006-0.003-0.006-0.003v-0.006c0-0.003,0-0.003,0-0.003l-0.002-0.006c-0.015-0.068,0.027-0.304,0.031-0.335
				v-0.003h0.002l0.003,0.003c0,0,0,0,0.003,0C401.621,298.316,403.187,297.97,403.738,297.947L403.738,297.947z M397.731,298.851
				c0.608-0.031,2.452,0.815,2.543,0.841l0,0c-0.009,0.037-0.009,0.344-0.017,0.393c-0.003,0,0,0.003,0,0.006h-0.003
				c-0.048-0.029-2.574-1.077-2.685-0.992C397.499,298.931,397.57,298.862,397.731,298.851L397.731,298.851z M403.164,299.072
				c0.125-0.003,0.219,0,0.25,0.018c0.002,0.002,0.006,0.005,0.008,0.008v0.003v0.003c0,0,0,0.003,0,0.006h-0.002
				c-0.004,0.003-0.006,0.009-0.009,0.009c-0.19,0.167-1.929,0.511-1.929,0.511s-0.006-0.32-0.006-0.352
				C401.524,299.266,402.646,299.095,403.164,299.072L403.164,299.072z M403.024,300.186c0.12-0.002,0.21,0.006,0.23,0.029l0,0
				v0.005l0.003,0.003l-0.003,0.003c0,0.003,0,0.003,0,0.006v0.003c-0.003,0-0.006,0.006-0.006,0.009
				c-0.003,0-0.009,0.005-0.009,0.005c-0.188,0.165-1.662,0.475-1.662,0.475s-0.043-0.354-0.043-0.363
				C401.578,300.359,402.564,300.203,403.024,300.186L403.024,300.186z M396.797,300.277c0.358-0.023,1.239,0.122,3.415,0.917
				l0.074,0.424c0,0-3.625-1.171-3.728-1.205c0,0,0-0.003,0-0.006c0,0,0-0.005,0-0.011c0-0.012,0.006-0.028,0.017-0.046
				C396.604,300.322,396.661,300.285,396.797,300.277L396.797,300.277z M401.572,301.203c0.046,0.009,0.654,0.031,0.765,0.125
				l0.003,0.003h0.006c0,0,0,0.003,0,0.006l0.003,0.003c0,0.002,0.003,0.002,0.003,0.006c0,0,0.002,0.005,0.002,0.008l0,0v0.003
				c0,0.003,0,0.003,0,0.006v0.003c0,0.003-0.002,0.006-0.002,0.006v0.002v0.006c-0.097,0.146-0.73,0.199-0.73,0.199
				S401.59,301.291,401.572,301.203L401.572,301.203z M403.045,302.035c0.142-0.005,0.244,0.012,0.267,0.055
				c0.011,0.028-0.015,0.068-0.079,0.125c-0.523,0.426-1.654,0.508-1.654,0.508v-0.469l0,0
				C401.644,302.246,402.576,302.047,403.045,302.035L403.045,302.035z M404.49,302.471c0.18-0.006,0.256,0.025,0.281,0.067
				c0.003,0,0.003,0.009,0.003,0.012c0.003,0.009,0.006,0.017,0.006,0.025c-0.006,0.054-0.065,0.116-0.11,0.159
				c-0.177,0.165-2.998,1.062-2.998,1.062s-0.022-0.594-0.012-0.647C403.312,302.649,404.118,302.484,404.49,302.471L404.49,302.471
				z M402.664,304.152c0.179-0.009,0.32,0.003,0.363,0.045c0,0.003,0.006,0.006,0.009,0.012c0,0,0,0.006,0,0.009
				c0.003,0,0,0.005,0,0.005c0,0.006,0.003,0.012,0,0.015c0,0.009-0.006,0.02-0.012,0.028c-0.241,0.236-1.415,0.273-1.415,0.273
				v-0.296C401.828,304.237,402.32,304.163,402.664,304.152L402.664,304.152z M403.84,304.635c0.057-0.002,0.088,0.009,0.094,0.023
				c0,0.002,0,0.006,0,0.008c-0.003,0.012-0.02,0.034-0.054,0.057c-0.469,0.336-2.23,0.677-2.23,0.677s0.022-0.233,0.034-0.29
				C401.732,305.109,403.416,304.644,403.84,304.635L403.84,304.635z M404.828,305.005c0.208,0,0.367,0.028,0.455,0.097h0.003l0,0
				v0.002c0,0.003,0,0.006,0,0.006c-0.009,0.065-0.14,0.369-0.605,0.5c-0.577-0.051-3.034,0.674-3.083,0.685h-0.002
				c0,0,0-0.003,0-0.005c-0.003-0.046,0.031-0.296,0.031-0.296C402.477,305.487,404.014,305.01,404.828,305.005L404.828,305.005z
				 M398.539,306.431c0.005,0,0.011,0,0.017,0c1.062,0.113,1.458,0.512,1.571,0.671c-0.21,0.372-1.889-0.464-1.716-0.64
				C398.431,306.445,398.473,306.431,398.539,306.431L398.539,306.431z M404.627,306.502c0.043-0.003,0.082,0.006,0.107,0.022
				c0.012,0.009,0.023,0.017,0.031,0.031c0.009,0.015,0.015,0.037,0.018,0.062c-0.111,0.173-0.685,0.097-0.719,0.094
				C404.09,306.7,404.422,306.508,404.627,306.502L404.627,306.502z M402.352,307.655c0.079-0.003,0.145,0.006,0.179,0.025
				c0.009,0.006,0.011,0.009,0.015,0.015c0,0,0.006,0.002,0.008,0.002c0,0.004,0.003,0.009,0.006,0.012c0,0,0,0.003,0,0.006
				c0.006,0.022,0.006,0.049-0.014,0.082c-0.165,0.312-0.896,0.196-0.896,0.196v-0.219h0.003
				C401.695,307.777,402.096,307.666,402.352,307.655L402.352,307.655z M398.053,308.479c0.227-0.012,0.42,0.136,0.628,0.253
				c0.458-0.092,1.397,0.073,1.397,0.073v0.415l-0.002,0.003c0,0.003,0,0,0,0c-0.088,0.017-1.19-0.031-1.438-0.188
				c-0.199,0-0.767-0.299-0.812-0.455c0,0,0-0.003,0-0.005c0,0,0-0.006,0-0.009v-0.003c0-0.003,0-0.006,0-0.006v-0.003
				c0-0.003,0-0.006,0-0.006v-0.003C397.905,308.505,397.981,308.482,398.053,308.479L398.053,308.479z M402.874,308.684
				c0.171-0.009,0.244,0.046,0.108,0.236c-0.375,0.531-1.344,0.312-1.344,0.312l-0.041-0.33
				C401.939,308.917,402.564,308.701,402.874,308.684L402.874,308.684z M399.249,309.761c0.392-0.018,0.818,0.139,0.818,0.139
				c0.011,0.021,0.21,0.415,0.034,0.549c-0.006,0.005-0.014,0.008-0.023,0.014c-0.219,0.114-1.264-0.091-1.327-0.511
				C398.876,309.82,399.059,309.771,399.249,309.761L399.249,309.761z M395.209,309.965c0.358-0.02,0.758,0.202,0.804,0.222h0.003
				c0,0.015-0.014,0.4-0.014,0.4s-0.71-0.196-0.935-0.597C395.112,309.979,395.161,309.971,395.209,309.965L395.209,309.965z
				 M402.035,310.021c0.398-0.003,0.881,0.091,0.953,0.228c0.014,0.025,0.011,0.057-0.015,0.088
				c-0.199,0.239-1.324,0.022-1.324,0.022v-0.292C401.752,310.036,401.889,310.021,402.035,310.021L402.035,310.021z"/>
			<g clip-path="url(#SVGID_4_)">
				<path fill="#3E843E" d="M402.197,318.801c0,0,0,0-0.002,0l-2.41-0.025l-0.054-6.023l-0.12,0.054l0,0
					c0.009,0-0.628,0.284-0.682,0.299l-0.08-0.094c-0.057-0.293-0.242-0.552-0.667-0.168c-0.182,0.162-0.367,0.244-0.551,0.244
					c-0.449,0-0.73-0.488-0.753-0.531c-0.006,0.058-1.847,0.841-4.733,0.747c-1.119-0.173-1.767-0.471-1.744-0.795
					c0.02-0.233,0.395-0.384,0.96-0.384c0.347,0,0.915,0.057,1.645,0.33c-0.307-0.265-0.38-0.497-0.301-0.653
					c0.151-0.287,0.878-0.188,1.992,0.033c0.315-0.426,0.719-0.65,1.151-0.65c0.44,0,0.815,0.225,1.091,0.39
					c0.133,0.079,0.247,0.147,0.307,0.147c0.051-0.11,0.043-0.185,0-0.25c-0.153-0.228-0.705-0.389-1.744-0.506
					c-0.458-0.051-0.94,0.077-1.463,0.213c-1.028,0.271-2.4,0.461-3.725-0.119c-0.804-0.352-1.176-0.701-1.105-1.043
					c0.097-0.471,1.034-0.727,1.395-0.727c0.42,0.042,1.27,0.457,1.725,0.682c0.139,0.068,0.233,0.113,0.255,0.122
					c-0.051-0.028-0.196-0.438-0.227-0.488l0.071-0.091l0,0l0.153,0.036l-0.037-0.036c-0.003-0.031-0.117-0.202-1.341-0.864
					c-0.756-0.409-0.838-0.554-0.813-0.647c0.023-0.094,0.159-0.103,0.259-0.103c0.318,0,0.892,0.125,1.136,0.179l0.023,0.021
					c0-0.037,0.008-0.08,0.028-0.12c0.04-0.073,0.128-0.164,0.344-0.164c0.353,0,0.923,0.235,1.696,0.701
					c-0.003-0.022,0.011-0.051,0.031-0.079c0.176-0.228,0.821-0.344,1.244-0.4c-0.943-0.196-3.523-0.773-3.696-1.233
					c-0.031-0.082-0.031-0.145,0.003-0.193c0.142-0.207,0.958,0.128,1.537,0.375l0.295,0.122c-0.097-0.051-0.083-0.136-0.037-0.192
					c0.188-0.222,0.946,0.185,1.273,0.372c0.034,0.02,0.06,0.034,0.083,0.045c-0.244-0.145-0.003-0.511,0.008-0.525
					c0.054,0.017,1.551,0.446,2.188,0.446c0.179,0,0.227-0.037,0.238-0.055c-0.097-0.406-2.812-0.795-4.5-0.957
					c-0.04-0.022-0.324-0.256-0.347-0.67c-0.003-0.015,0.022-0.092,0.034-0.103c0.119-0.128,0.6-0.025,1.147,0.1
					c0.506,0.113,1.034,0.179,1.06,0.122c0.085-0.165,0.554-0.077,0.983,0.025c0.205,0.048,0.4,0.094,0.503,0.094
					c-0.17-0.238-1.134-0.403-1.983-0.549c-1.193-0.201-1.926-0.338-1.957-0.562c-0.017-0.107,0.122-0.176,0.17-0.198
					c0.193-0.097,0.44-0.146,0.727-0.146c0.955,0,2.083,0.515,2.193,0.562c-0.1-0.054-0.219-0.528-0.222-0.61
					c0.835,0.054,1.509,0.719,1.537,0.747l0.111-0.549c0.747,0.171,1.458,0.475,2.085,0.745c0.616,0.264,1.15,0.494,1.372,0.494
					c0-0.003,0.074-0.091,0.074-0.094c-0.125-0.594-2.915-1.202-4.955-1.646c-1.821-0.395-2.512-0.562-2.554-0.744
					c-0.006-0.02,0.025-0.088,0.04-0.1c0.176-0.139,0.505-0.21,0.986-0.21c0.63,0,1.315,0.122,1.321,0.125l1.498,0.546
					c-0.003-0.006,0.077-0.031,0.102-0.111c0.02-0.068,0.011-0.227-0.281-0.545c-0.284-0.307-1.358-0.384-2.219-0.443
					c-0.873-0.06-1.327-0.1-1.378-0.275c-0.028-0.1,0.085-0.18,0.122-0.208c0.415-0.261,0.81-0.395,1.176-0.395
					c0.628,0,0.949,0.39,0.963,0.406l-0.045-0.179l0.048-0.199c0.917,0.003,1.435,0.312,1.966,0.69
					c-0.02-0.025-0.011-0.065-0.005-0.108c0.011-0.062,0.02-0.127,0.048-0.188c0.708,0.105,1.219,0.398,1.71,0.68
					c-0.051-0.062-0.014-0.398,0.029-0.492c0.145-0.033,0.332,0.08,0.645,0.273c0.346,0.216,0.821,0.508,0.957,0.508
					c-0.005-0.005-0.017-0.073-0.188-0.298c-0.645-0.838-2.992-1.088-4.545-1.253c-0.395-0.043-0.739-0.08-0.995-0.119
					c-0.537-0.086-0.897-0.307-0.881-0.543c0.02-0.256,0.483-0.36,1.143-0.25c-0.276-0.125-0.52-0.207-0.713-0.272
					c-0.321-0.108-0.534-0.179-0.602-0.344c-0.046-0.108-0.026-0.241,0.068-0.435c-0.653-0.213-0.625-0.696-0.625-0.702
					c0.631-0.515,1.304-0.417,1.923,0.085c-0.113-0.099-0.207-0.551-0.207-0.602c0.133-0.046,0.369,0.07,0.75,0.256
					c0.048,0.022,0.096,0.048,0.147,0.07c-0.239-0.216-0.193-0.369-0.085-0.622l0.037-0.097c-0.222,0.043-1.679-0.179-1.838-0.543
					c-0.02-0.045-0.031-0.116,0.028-0.192c0.369-0.219,0.725-0.321,1.071-0.321c0.648,0,1.137,0.353,1.458,0.588
					c0.139,0.103,0.262,0.19,0.324,0.19c0.054-0.02,0.08-0.043,0.091-0.077c0.028-0.099-0.068-0.267-0.105-0.317
					c-0.015-0.018-0.015-0.046,0-0.065c0.014-0.018,0.04-0.025,0.065-0.015c0.031,0.018,3.245,1.515,3.759,1.515
					c0.028,0.014,0.006-0.037-0.162-0.18c-0.798-0.67-3.035-1.314-4.512-1.738c-1.233-0.355-1.404-0.418-1.404-0.514
					c0.031-0.14,0.23-0.199,0.56-0.284c0.199-0.055,0.474-0.128,0.511-0.199c-0.008-0.108-0.338-0.233-0.534-0.307
					c-0.193-0.074-0.312-0.12-0.361-0.174c0-0.011-0.017-0.094-0.011-0.103c0.097-0.145,1.182-0.438,1.906-0.438
					c0.267,0,0.475,0.037,0.62,0.108c0.545,0.272,2.475,1.06,3.017,1.06l0.119-0.113l-0.045,0.028
					c-0.287-0.458-2.756-1.08-4.02-1.347c-0.062-0.034-0.213-0.143-0.247-0.318c-0.026-0.116,0.005-0.238,0.088-0.357
					c-0.864,0.064-1.003-0.077-1.023-0.196c-0.045-0.268,0.696-0.562,0.923-0.646c0.074,0.012,3.679,1.339,4.398,1.339
					c-0.738-0.81-4.182-1.651-4.219-1.659c0.057-0.19,0.131-0.307,0.131-0.338l-0.108,0.054c-0.25,0-0.455-0.396-0.478-0.44
					c0.028-0.08,0.443-0.469,0.821-0.646c0.08-0.036,0.23-0.054,0.466-0.054c0.821,0,2.406,0.222,2.423,0.222
					c0.017,0.006,0.847,0.281,1.17,0.281c0.083-0.009,0.083-0.043-0.022-0.137c-0.281-0.261-1.344-0.332-2.199-0.386
					c-0.923-0.06-1.25-0.094-1.278-0.233c-0.014-0.085,0.085-0.145,0.185-0.19c0.514-0.244,1.776-0.097,2.588,0.031
					c0.298,0.049,0.54,0.088,0.67,0.088c-0.048-0.173-1.722-0.517-2.58-0.517l-0.131,0.003c-0.881,0-1.335-0.725-1.338-0.73
					c-0.003-0.147,0.179-0.164,0.375-0.164c0.295,0,0.764,0.048,1.27,0.102c0.83,0.086,1.818,0.174,2.19,0.088
					c-0.415-0.167-1.278-0.232-1.849-0.278c-0.333-0.022-0.512-0.039-0.58-0.073c-0.048-0.205,0.065-0.373,0.608-0.373
					c0.571,0,1.438,0.193,1.932,0.43c0.131-0.015,0.233-0.06,0.262-0.125c0.031-0.071-0.017-0.185-0.128-0.312
					c-0.333-0.108-0.92-0.137-1.438-0.162c-0.656-0.034-1.031-0.06-1.108-0.196c-0.009-0.017-0.003-0.11,0.005-0.128
					c0.085-0.142,0.29-0.179,0.705-0.179c0.267,0,0.585,0.015,0.903,0.028c0.318,0.015,0.637,0.031,0.901,0.031l0.193-0.003
					c-0.142-0.094-1.128-0.31-1.782-0.451c-0.702-0.156-0.886-0.202-0.92-0.268c0.031-0.235,0.341-0.235,0.443-0.235
					c0.344,0,0.85,0.1,1.256,0.179c0.295,0.057,0.548,0.105,0.673,0.105c-0.446-0.364-1.083-0.603-1.503-0.759
					c-0.33-0.125-0.48-0.185-0.509-0.272c0.023-0.105,0.057-0.137,0.108-0.159c0.824-0.318,2.173,0.781,2.222,0.82
					c-0.06-0.099-0.06-0.267-0.088-0.445c-0.037-0.244-0.605-0.702-0.821-0.858c0.295-0.11,0.762-0.167,0.864-0.261
					c-0.025-0.148-0.426-0.529-0.67-0.736c0.04-0.094,0.15-0.082,0.287-0.082c0.179,0,0.307-0.023,0.366-0.068
					c-0.068-0.398-0.614-0.711-0.619-0.716l0.429-0.159l0.409-0.062l0.179-2.39c0.003-0.028,0.025-0.048,0.054-0.048l0,0
					c0.026,0,0.051,0.02,0.054,0.048l0.248,2.611c-0.004-0.046,0.423-0.023,0.539,0.133c0,0.003,0.034,0.131,0.031,0.134
					c-0.054,0.25-0.517,0.31-0.568,0.315l0.046,0.421c0.031-0.062,0.36-0.168,0.542-0.168c0.01,0,0.094,0.014,0.1,0.017l0.057,0.089
					c-0.033,0.189-0.479,0.531-0.57,0.6c0.003,0.188-0.006,0.457,0.008,0.5c0.041-0.021,0.495,0.133,0.583,0.201
					c-0.022,0.162-0.448,0.361-0.698,0.475c0.002,0.048-0.049,0.278,0.033,0.372c0.111,0.103,0.279,0.022,0.625-0.079
					c0.577-0.171,1.342-0.355,1.561-0.111c0.062,0.071,0.088,0.171,0.073,0.296c-0.062,0.057-0.192,0.073-0.384,0.097
					c-1.204,0.142-1.826,0.27-1.855,0.375c0.111,0.011,0.273,0,0.455-0.018c0.353-0.028,0.787-0.062,1.145-0.062
					c0.498,0,0.725,0.068,0.742,0.219c-0.122,0.19-0.537,0.225-1.205,0.27c-0.469,0.031-1.179,0.077-1.227,0.186
					c0.045,0.002,0.698,0.042,0.997-0.029c0.233-0.054,0.661-0.156,1.011-0.156c0.355,0,0.557,0.105,0.598,0.312
					c0.017,0.071,0.005,0.137-0.037,0.193c-0.171,0.222-0.818,0.225-1.446,0.228c-0.293,0-0.574,0.003-0.778,0.028
					c-0.119,0.077-0.196,0.188-0.18,0.275c0.02,0.092,0.14,0.159,0.332,0.188c1.552-0.344,2.297-0.397,2.41-0.158
					c0.033,0.067,0.012,0.15-0.065,0.247c-0.103,0.057-0.341,0.094-0.753,0.153c-0.711,0.104-1.898,0.278-2,0.591
					c0.238-0.068,0.508-0.103,0.818-0.14c0.653-0.085,1.488-0.159,2.102-0.045c0.057,0.272,0.057,0.517,0.057,0.761
					c0,0.256,0,0.509,0.012,0.739c-0.289,0.065-0.525,0.07-0.762,0.07l-1.125-0.008c-0.224,0-0.448,0.003-0.676,0.011
					c-0.147,0.06-0.244,0.14-0.244,0.22c-0.003,0.076,0.088,0.161,0.238,0.227c0.256-0.006,0.603-0.054,0.941-0.105
					c0.752-0.107,1.442-0.158,1.599,0.129c-0.077,0.179-0.478,0.246-1.122,0.344c-0.403,0.06-1.076,0.161-1.105,0.261
					c0.16-0.02,0.333-0.062,0.535-0.116c0.402-0.105,0.889-0.228,1.777-0.094c0.384,0.057,0.557,0.139,0.566,0.27
					c0.017,0.233-0.635,0.446-0.833,0.506c-0.054-0.003-1.585-0.347-2.312-0.1c-0.298,0.097-0.344,0.188-0.344,0.233
					c0,0.122,0.284,0.261,0.421,0.312c-0.018-0.015,0.908-0.525,2.397-0.375c1.034,0.104,1.603,0.698,1.716,1.048
					c0.037,0.105,0.028,0.188-0.022,0.233l-0.153-0.034l-0.02,0.048c-0.026-0.008-0.086-0.02-0.211-0.02
					c-0.787,0-3.04,0.458-3.79,0.646c-0.275,0.067-0.302,0.13-0.304,0.142c0.043,0.1,0.304,0.19,0.35,0.199
					c0.051-0.006,2.048-0.31,3.094-0.472c0,0,0.176-0.025,1.719-0.225c0.568-0.071,0.812-0.021,0.875,0.15
					c0.08,0.236-0.338,0.58-0.387,0.616l0.143,0.466l-1.861,0.748c0.145,0.014,0.693,0.283,1.608,0.283
					c0.696,0,1.239,0.336,1.239,0.623c0,0.094-0.061,0.173-0.162,0.227c-0.105,0.052-0.256,0.077-0.452,0.077l-0.14-0.003
					c-0.807,0-1.642,0.241-2.028,0.369c0.429,0.043,1.37,0.125,2.204,0.125l0.236-0.003c0.003,0,0.003,0,0.006,0
					c0.418,0,0.625,0.08,0.693,0.239c0.094,0.219-0.145,0.5-0.201,0.562c0.059-0.012,0.309,0.128,0.371,0.341
					c0.025,0.088,0.018,0.176-0.025,0.259c-0.074,0.139-0.275,0.102-0.533,0.017c-0.367-0.116-0.782-0.159-0.933,0.247
					c-0.296,0.799-0.869,0.858-1.378,0.909l-0.205,0.022c-0.232,0.031-0.352,0.128-0.346,0.202c0.002,0.091,0.201,0.188,0.605,0.14
					c0.258-0.031,0.588-0.188,0.906-0.342c0.375-0.176,0.727-0.344,1.005-0.344c0.29,0,0.452,0.188,0.485,0.557
					c-0.011-0.139,0.992-1.094,1.251-0.814c0.057,0.06,0.077,0.158,0.065,0.304c-0.469,0.647-1.441,1.44-3.461,1.676
					c-0.247,0.171-0.653,0.64-0.576,0.75c0.02,0.023,0.068,0.028,0.105,0.028c0.323-0.161,1.817-0.789,2.807-0.789
					c0.488,0,0.789,0.153,0.897,0.451c-0.193,0.472-1.614,0.494-1.776,0.494c-0.113,0.108-0.477,0.165-0.896,0.228
					c-0.23,0.034-0.469,0.071-0.671,0.119c-0.1,0.04-0.281,0.14-0.31,0.23c0.002,0.071,0.037,0.108,0.1,0.145
					c-0.018-0.008,0.027-0.022,0.094-0.042c0.423-0.128,1.625-0.435,1.908-0.148c0.061,0.061,0.092,0.14,0.092,0.236
					c0.445-0.147,0.804-0.168,1.02-0.168c0.497,0,0.838,0.097,1.02,0.287c0.108,0.113,0.156,0.259,0.148,0.43
					c-0.199,0.188-2.312,0.386-2.733,0.423c-0.307,0.028-0.818,0.094-0.917,0.162c0.025-0.028,0.167,0.048,0.74,0.107
					c0.083-0.005,0.186-0.008,0.308-0.008h0.286c0.276,0,0.62-0.006,1.061-0.043c0.551-0.142,0.932-0.213,1.125-0.213
					c0.045,0,0.182,0,0.19,0.097c0,0.195-0.827,0.545-1.003,0.57c-0.344,0.049-2.02,0.171-2.092,0.174
					c-0.485,0.307-1.314,0.832-1.375,0.915c0.327-0.055,1.041-0.159,1.455-0.296c0.122-0.043,0.247-0.1,0.372-0.159
					c0.435-0.207,0.927-0.36,1.33-0.045c0.358-0.318,0.938-0.461,1.298-0.461c0.248,0,0.398,0.065,0.43,0.185
					c0.045,0.18-0.217,0.424-0.779,0.725c-0.482,0.134-1.133,0.312-2.235,0.33c-1.378,0.225-2.554,0.534-2.563,0.676
					c0.328-0.06,2.041-0.375,2.614-0.051l0.179-0.082c0.546-0.191,1.418-0.407,1.771-0.061c0.739-0.256,1.432-0.188,1.579,0.103
					c0.057,0.11,0.035,0.239-0.057,0.364c-0.295,0.403-1.787,0.57-2.613,0.445c-0.449-0.07-0.75,0.165-0.762,0.381
					c-0.008,0.14,0.105,0.236,0.305,0.259c0.275,0.006,0.5-0.057,0.732-0.122c0.555-0.153,1.122-0.205,1.395,0.244
					c0.41-0.472,1.464-0.478,1.66-0.082c0.051,0.11,0.073,0.292-0.119,0.545c-0.354,0.034-0.662,0.04-0.975,0.04
					c-1.129,0-2.273-0.083-3.379-0.162c-0.71-0.051-1.42-0.103-2.133-0.134c-0.074,0.049-0.125,0.094-0.125,0.131
					c-0.004,0.028,0.021,0.088,0.204,0.196c0.321,0.037,0.753,0.042,1.185,0.051c0.909,0.015,1.768,0.028,1.909,0.369
					c0.287-0.304,1.091-0.25,1.583,0.052c0.088-0.108,0.52-0.168,0.869-0.168c0.27,0,0.732,0.034,0.824,0.256
					c0.045,0.105-0.004,0.23-0.14,0.369c-0.062,0.043-0.208,0.08-0.887,0.08c-0.546,0-1.286-0.023-2.025-0.049
					c-0.735-0.022-1.472-0.048-2.012-0.048c-0.661,0-0.784,0.04-0.804,0.054c0.062-0.049,2.256,0.199,2.759,0.577
					c0.216-0.29,1.003-0.183,1.426-0.068c0.114,0.031,0.21,0.06,0.259,0.06c0.045-0.006,0.143-0.049,0.256-0.097
					c0.207-0.091,0.491-0.213,0.741-0.213c0.253,0,0.429,0.122,0.521,0.366c-0.316,0.438-0.969,0.631-1.949,0.631
					c-1.287,0-2.821-0.327-3.648-0.503c-0.27-0.057-0.485-0.103-0.537-0.103c-0.096,0.04-0.113,0.128-0.133,0.222
					c-0.029,0.14-0.065,0.31-0.233,0.369c-0.077,0-0.128-0.003-0.171-0.003c-0.417,0-0.475,0.18-0.522,0.336
					c-0.02,0.062-0.04,0.125-0.082,0.162c-0.003,0.002-0.116,0.039-0.122,0.039c-0.338,0-1.643-0.392-1.696-0.406
					c-0.15,0.003-0.443,0.052-0.761,0.571c-0.407,0.671,0.349,5.808,0.357,5.858c0,0.017-0.003,0.031-0.014,0.043
					C402.227,318.795,402.212,318.801,402.197,318.801L402.197,318.801z M399.786,312.701l0.054,6.02l2.295-0.025
					c-0.088-0.613-0.738-5.199-0.332-5.872c0.344-0.565,0.682-0.625,0.812-0.625c0.086,0.011,1.412,0.409,1.736,0.409
					c0.07-0.031,0.085-0.077,0.102-0.125c0.057-0.182,0.125-0.461,0.785-0.403c0.085-0.037,0.113-0.159,0.139-0.287
					c0.023-0.114,0.049-0.23,0.137-0.284l0.102-0.025c0.062,0,0.225,0.034,0.561,0.104c0.82,0.177,2.35,0.5,3.625,0.5
					c0.945,0,1.57-0.179,1.857-0.536c-0.085-0.148-0.221-0.245-0.429-0.245c-0.228,0-0.489,0.111-0.698,0.202
					c-0.125,0.054-0.225,0.1-0.293,0.105c-0.062,0.02-0.162-0.026-0.293-0.061c-0.403-0.11-1.068-0.219-1.397,0.049
					c-0.546-0.361-2.776-0.608-2.799-0.611c-0.017,0-0.036-0.025-0.046-0.039c-0.008-0.015-0.014-0.046-0.008-0.061
					c0.025-0.062,0.111-0.113,0.897-0.113c0.54,0,1.276,0.025,2.015,0.049c0.738,0.025,1.477,0.051,2.022,0.051
					c0.642,0,0.787-0.037,0.818-0.057c0.062-0.065,0.142-0.168,0.108-0.244c-0.049-0.117-0.333-0.19-0.725-0.19
					c-0.367,0-0.756,0.065-0.863,0.147c-0.572-0.275-1.197-0.301-1.611-0.071c-0.19-0.304-1.092-0.318-1.887-0.332
					c-0.438-0.006-0.875-0.015-1.219-0.057c-0.201-0.114-0.281-0.205-0.278-0.296c0-0.105,0.108-0.176,0.21-0.23
					c0.742,0.023,1.455,0.074,2.165,0.128c1.406,0.1,2.858,0.208,4.299,0.143c0.088-0.146,0.125-0.296,0.067-0.412
					c-0.161-0.324-1.073-0.296-1.573,0.105c-0.39-0.433-0.833-0.355-1.355-0.211c-0.228,0.062-0.463,0.128-0.673,0.128
					c-0.41-0.039-0.509-0.227-0.5-0.378c0.017-0.272,0.354-0.551,0.887-0.477c0.789,0.119,2.252-0.055,2.508-0.403
					c0.049-0.065,0.097-0.162,0.049-0.254c-0.117-0.229-0.717-0.27-1.509-0.059c-0.446-0.35-1.188-0.111-1.708,0.07l-0.227,0.077
					c-0.23-0.111-0.515-0.162-0.89-0.162c-0.698,0-1.479,0.182-1.702,0.238c-0.02,0.003-0.062-0.042-0.076-0.054
					c-0.012-0.014-0.043-0.074-0.04-0.091c0.062-0.312,2.048-0.659,2.656-0.759c1.097-0.02,1.741-0.196,2.128-0.301
					c0.805-0.409,0.801-0.591,0.793-0.622c-0.043-0.18-1.003-0.128-1.622,0.335c-0.526-0.287-0.876-0.137-1.284,0.057
					c-0.128,0.062-0.259,0.122-0.384,0.165c-0.432,0.142-1.15,0.247-1.423,0.247c-0.077,0-0.108-0.009-0.123-0.018
					c0.043-0.213,1.174-0.911,1.398-1.048c0.043-0.009,1.768-0.134,2.111-0.185c0.227-0.031,0.88-0.363,0.908-0.463
					c-0.267,0.011-0.639,0.082-1.188,0.222c-0.454,0.039-0.801,0.045-1.08,0.045h-0.286c-0.12,0-0.219,0-0.308,0.009
					c-0.74-0.077-0.801-0.147-0.829-0.176c0-0.012-0.009-0.097,0-0.105c0.147-0.122,0.855-0.19,0.995-0.202
					c0.963-0.088,2.531-0.261,2.65-0.353c-0.006-0.113-0.046-0.229-0.131-0.32c-0.162-0.168-0.478-0.256-0.943-0.256
					c-0.21,0-0.562,0.02-1.04,0.111c-0.088-0.117-0.108-0.168-0.147-0.211c-0.238-0.235-1.4,0.057-1.801,0.176
					c-0.08,0.026-0.131,0.037-0.143,0.04c-0.128-0.06-0.182-0.125-0.193-0.196c0.062-0.25,0.355-0.366,0.39-0.38
					c0.21-0.052,0.452-0.089,0.688-0.122c0.369-0.058,0.753-0.117,0.878-0.217c0.451-0.017,1.574-0.094,1.71-0.403
					c-0.094-0.213-0.36-0.341-0.798-0.341c-0.969,0-2.441,0.617-2.785,0.784c-0.115-0.003-0.178-0.02-0.215-0.068
					c-0.162-0.238,0.522-0.883,0.527-0.889c0.01-0.009,0.114-0.028,0.125-0.028c1.984-0.233,2.93-1.003,3.376-1.608
					c0.003-0.11-0.022-0.171-0.046-0.196c-0.008,0-0.017,0-0.025,0c-0.347,0-0.949,0.565-1.164,0.787
					c-0.129-0.44-0.313-0.491-0.47-0.491c-0.253,0-0.613,0.17-0.957,0.335c-0.329,0.153-0.668,0.315-0.943,0.347
					c-0.525,0.068-0.716-0.091-0.725-0.235c-0.009-0.128,0.125-0.276,0.44-0.315l0.211-0.023c0.52-0.057,1.014-0.104,1.286-0.841
					c0.105-0.284,0.284-0.42,0.552-0.42c0.173,0,0.352,0.06,0.512,0.11c0.121,0.037,0.235,0.074,0.314,0.074
					c0.123-0.1,0.131-0.159,0.111-0.219c-0.049-0.156-0.248-0.296-0.344-0.35c0.059-0.162,0.241-0.395,0.176-0.546
					c-0.049-0.11-0.236-0.17-0.54-0.17l-0.296,0.003c-1.133,0-2.443-0.151-2.454-0.151c-0.025-0.002-0.042-0.025-0.048-0.048
					c-0.004-0.025,0.012-0.048,0.037-0.057c0.045-0.017,1.176-0.452,2.289-0.452h0.14c0.176,0,0.315-0.022,0.403-0.065
					c0.068-0.034,0.102-0.076,0.102-0.13c0-0.208-0.474-0.518-1.13-0.518c-1.097,0-1.671-0.366-1.693-0.381l0.568-0.304l1.307-0.488
					l-0.088-0.171l-0.068-0.29c0.177-0.179,0.412-0.426,0.369-0.548c-0.036-0.105-0.286-0.143-0.759-0.082
					c-1.533,0.198-1.716,0.224-1.716,0.227c-0.125,0.018-3.04,0.463-3.11,0.469c-0.021,0-0.369-0.088-0.441-0.244
					c0.006-0.174,0.129-0.244,0.37-0.307c0.86-0.213,3.634-0.775,4.062-0.619c0.074-0.003,0.085-0.037,0.06-0.117
					c-0.091-0.272-0.607-0.872-1.625-0.975c-1.463-0.142-2.372,0.361-2.381,0.367c-0.094-0.015-0.537-0.18-0.534-0.412
					c0-0.131,0.137-0.241,0.415-0.332c0.759-0.253,2.336,0.096,2.344,0.099c0.344-0.11,0.736-0.295,0.73-0.397
					c-0.003-0.014-0.031-0.103-0.478-0.17c-0.866-0.134-1.338-0.009-1.735,0.094c-0.196,0.051-0.387,0.099-0.594,0.104
					c0.002,0.006-0.041-0.037-0.052-0.054c-0.011-0.015-0.021-0.062-0.015-0.08c0.061-0.15,0.492-0.221,1.188-0.326
					c0.418-0.062,0.992-0.15,1.046-0.238c-0.125-0.123-0.792-0.123-1.488-0.021c-0.341,0.048-0.696,0.1-0.978,0.1
					c-0.222-0.088-0.33-0.204-0.326-0.333c0-0.088,0.059-0.219,0.332-0.32c0.244-0.012,0.472-0.015,0.695-0.015l1.125,0.009
					c0.233,0,0.469-0.003,0.708-0.015c-0.065-0.176-0.065-0.432-0.065-0.688c0-0.241,0-0.485-0.012-0.707
					c-0.198,0.006-0.451-0.012-0.701-0.012c-0.463,0-0.92,0.058-1.326,0.108c-0.313,0.037-0.589,0.071-0.799,0.071
					c-0.018,0-0.074-0.009-0.086-0.023c-0.008-0.014-0.054-0.031-0.048-0.048c0.114-0.347,1.052-0.509,2.085-0.662
					c0.338-0.048,0.631-0.091,0.702-0.131c0.031-0.045,0.052-0.091,0.037-0.119c-0.009-0.017-0.062-0.08-0.364-0.08
					c-0.383,0-1.014,0.098-1.872,0.285c-0.421-0.031-0.497-0.177-0.515-0.259c-0.025-0.137,0.068-0.287,0.25-0.396
					c0.23-0.031,0.518-0.033,0.813-0.037c0.542-0.002,1.222-0.005,1.36-0.185c0.023-0.031,0.029-0.062,0.018-0.104
					c-0.029-0.15-0.196-0.228-0.492-0.228c-0.338,0-0.758,0.1-0.985,0.153c-0.335,0.08-1.062,0.025-1.062,0.025
					c-0.017-0.003-0.04-0.048-0.048-0.062c-0.01-0.014-0.018-0.07-0.01-0.085c0.072-0.156,0.546-0.196,1.316-0.247
					c0.42-0.028,1.06-0.071,1.107-0.156c-0.006-0.022-0.06-0.119-0.637-0.119c-0.354,0-0.783,0.037-1.133,0.065
					c-0.188,0.017-0.35,0.028-0.467,0.034l0,0c-0.017,0-0.057-0.049-0.067-0.062c-0.012-0.012-0.04-0.071-0.037-0.089
					c0.052-0.195,0.753-0.315,1.949-0.457c0.176-0.02,0.298-0.034,0.323-0.043c-0.022-0.054-0.039-0.122-0.082-0.17
					c-0.176-0.193-0.912-0.018-1.449,0.142c-0.42,0.125-0.605,0.162-0.71,0.077c-0.162-0.185-0.065-0.503-0.054-0.54
					c0.332-0.165,0.664-0.332,0.701-0.375l0,0c-0.068,0-0.5-0.145-0.554-0.15c-0.088-0.113-0.062-0.478-0.052-0.631
					c0.23-0.193,0.531-0.455,0.552-0.549c-0.003,0-0.003,0-0.006,0c-0.238,0-0.619,0.131-0.622,0.134l-0.07-0.548
					c0.161-0.065,0.49-0.137,0.521-0.287c-0.079-0.134-0.357-0.176-0.52-0.182l-0.247-2.092l-0.17,1.87l-0.801,0.159
					c0.162,0.039,0.56,0.307,0.648,0.588c0.025,0.085,0.003,0.142-0.022,0.176c-0.12,0.1-0.265,0.131-0.472,0.131
					c-0.085,0-0.165-0.006-0.213-0.009c0.179,0.058,0.662,0.489,0.71,0.677c0,0.012-0.028,0.105-0.037,0.116
					c-0.156,0.146-0.747,0.188-0.886,0.196c0.165,0.02,0.824,0.517,0.875,0.835c0.028,0.19,0.028,0.369,0,0.509
					c-0.128,0-1.1-0.827-1.887-0.827c-0.113,0-0.219,0.021-0.312,0.055c-0.031,0.073,0.196,0.159,0.395,0.232
					c0.429,0.162,1.074,0.403,1.585,0.847c0.017,0.015-0.02,0.054-0.028,0.074c-0.009,0.02-0.068,0.048-0.091,0.048
					c-0.128,0-0.39-0.051-0.693-0.107c-0.4-0.08-0.903-0.177-1.236-0.177c-0.148,0-0.327,0.021-0.344,0.111
					c0.04,0.003,0.469,0.097,0.847,0.179c0.955,0.21,1.693,0.387,1.804,0.582l-0.241,0.083c-0.264,0-0.585-0.015-0.903-0.028
					c-0.318-0.015-0.637-0.028-0.901-0.028c-0.469,0-0.58,0.048-0.605,0.079c0.04,0.159,0.577,0.188,1.006,0.207
					c0.525,0.028,1.122,0.058,1.491,0.185c0.168,0.177,0.219,0.324,0.17,0.438c-0.045,0.11-0.173,0.173-0.38,0.188
					c-0.824-0.384-2.463-0.555-2.463-0.228c0.042,0.008,0.281,0.017,0.531,0.037c0.583,0.042,1.463,0.11,1.884,0.392
					c-0.142,0.125-0.31,0.137-0.531,0.137c-0.48,0-1.137-0.068-1.713-0.128c-0.5-0.051-0.966-0.1-1.258-0.1
					c-0.228,0-0.27,0.028-0.279,0.034c0.023,0.009,0.443,0.645,1.242,0.645l0.131-0.003c0.821,0,2.588,0.327,2.727,0.603
					c-0.017,0.128-0.105,0.128-0.147,0.128c-0.134,0-0.381-0.04-0.688-0.088c-0.793-0.128-2.043-0.27-2.526-0.04
					c-0.111,0.052-0.122,0.08-0.125,0.083c0.054,0.064,0.679,0.104,1.182,0.136c0.915,0.06,1.952,0.128,2.264,0.415
					c0.117,0.107,0.156,0.182,0.133,0.244c-0.031,0.08-0.147,0.08-0.185,0.08c-0.341,0-1.162-0.273-1.196-0.284
					c-0.006,0-1.583-0.219-2.398-0.219c-0.27,0-0.378,0.022-0.42,0.042c-0.361,0.171-0.779,0.561-0.784,0.562
					c0.065,0.043,0.239,0.318,0.395,0.318l0.13-0.028c0.003,0.006,0.085,0.068,0.085,0.074c0.005,0.088-0.128,0.259-0.185,0.329
					c0.13-0.07,3.477,0.771,4.25,1.518c0.057,0.054,0.117,0.125,0.088,0.193c-0.025,0.064-0.111,0.07-0.173,0.07
					c-0.735,0-4.247-1.289-4.398-1.344c-0.389,0.159-0.841,0.403-0.818,0.528c0.005,0.04,0.094,0.168,0.963,0.188
					c-0.022,0.183-0.048,0.273-0.031,0.361c0.031,0.142,0.159,0.228,0.185,0.244c0.134,0.022,3.688,0.775,4.071,1.387
					c0.043,0.068,0.051,0.128,0.028,0.173c-0.028,0.052-0.091,0.077-0.193,0.077c-0.585,0-2.548-0.812-3.065-1.071
					c-0.128-0.065-0.321-0.097-0.571-0.097c-0.773,0-1.747,0.304-1.818,0.39c0.037,0.008,0.188,0.064,0.324,0.116
					c0.287,0.108,0.582,0.222,0.602,0.384c-0.068,0.176-0.27,0.238-0.594,0.323c-0.173,0.046-0.463,0.122-0.475,0.183
					c0.048,0.042,0.668,0.221,1.321,0.408c1.489,0.43,3.736,1.077,4.551,1.762c0.21,0.176,0.239,0.25,0.216,0.307
					c-0.005,0.021-0.099,0.062-0.122,0.062c-0.477,0-2.997-1.15-3.651-1.454c0.034,0.079,0.06,0.176,0.034,0.261
					c-0.014,0.046-0.051,0.108-0.147,0.143c-0.142-0.003-0.259-0.074-0.432-0.202c-0.312-0.224-0.784-0.567-1.395-0.567
					c-0.327,0-0.665,0.099-1,0.295c0.111,0.327,1.307,0.574,1.793,0.622l0.005,0.171c-0.122,0.295-0.162,0.395,0.344,0.707
					c0.077,0.049,0.108,0.071,0.125,0.088c0,0.029-0.003,0.1-0.034,0.1c-0.06-0.008-0.242-0.094-0.64-0.287
					c-0.267-0.127-0.599-0.289-0.653-0.301c0.06,0.014,0.182,0.585,0.182,0.585c-0.742-0.378-1.313-0.474-1.861-0.073
					c0.017,0.006,0.028,0.386,0.608,0.631c-0.051,0.232-0.074,0.344-0.043,0.417c0.051,0.122,0.245,0.188,0.54,0.284
					c0.278,0.097,0.665,0.225,1.1,0.472c0.025,0.012,0.034,0.04,0.025,0.065c-0.011,0.025-0.037,0.04-0.062,0.031
					c-0.835-0.216-1.406-0.1-1.417,0.065c-0.012,0.125,0.227,0.341,0.79,0.429c0.253,0.04,0.597,0.077,0.989,0.117
					c1.571,0.167,3.949,0.42,4.617,1.295c0.196,0.253,0.244,0.378,0.185,0.443c-0.233,0.014-0.597-0.188-1.091-0.497
					c-0.236-0.146-0.48-0.296-0.54-0.307c0.017,0.054-0.017,0.329-0.034,0.497c-0.594-0.256-1.08-0.534-1.719-0.665
					c0.04,0.015,0.029,0.071,0.02,0.131c-0.011,0.06-0.02,0.125-0.048,0.179c-0.605-0.357-1.114-0.673-1.966-0.716l0.005,0.159
					l-0.048,0.199c-0.108,0.002-0.401-0.348-0.975-0.348c-0.347,0-0.722,0.129-1.114,0.381c-0.074,0.052-0.083,0.08-0.083,0.089
					c0.031,0.11,0.725,0.159,1.281,0.198c0.926,0.062,1.978,0.137,2.293,0.475c0.253,0.272,0.355,0.494,0.304,0.653
					c-0.048,0.146-0.202,0.179-0.207,0.182l-1.523-0.548l0,0c-0.003,0-0.673-0.119-1.292-0.119c-0.449,0-0.767,0.062-0.918,0.185
					c0.06,0.131,1.338,0.412,2.469,0.656c2.776,0.604,4.907,1.113,5.035,1.728c0.017,0.068,0.011,0.122-0.017,0.162
					c-0.134,0.17-0.722-0.077-1.574-0.443c-0.622-0.268-1.33-0.571-2.005-0.773l-0.137,0.537c0,0,0,0-0.002,0
					c-0.105,0-0.77-0.65-1.498-0.758c0.062,0.008,0.151,0.383,0.21,0.604c-0.1,0.057-1.27-0.494-2.23-0.494
					c-0.272,0-0.503,0.046-0.682,0.134c-0.091,0.042-0.111,0.076-0.111,0.088c0.022,0.156,1.091,0.338,1.872,0.472
					c0.952,0.162,1.85,0.315,2.034,0.522c0.054,0.062,0.077,0.111,0.074,0.15c-0.012,0.018-0.125,0.086-0.145,0.086
					c-0.117,0-0.307-0.046-0.528-0.097c-0.364-0.086-0.821-0.162-0.861-0.08c-0.043,0.085-0.162,0.097-0.248,0.097
					c-0.221,0-0.582-0.082-0.932-0.165c-0.517-0.116-1.023-0.156-1.048-0.128c0.017,0.39,0.272,0.603,0.275,0.605
					c0.423,0.031,4.412,0.429,4.568,0.972c0.003,0.015-0.011,0.131-0.022,0.145c-0.048,0.065-0.151,0.097-0.324,0.097
					c-0.634,0-2.012-0.426-2.151-0.472c0.014,0.037-0.153,0.324-0.008,0.452c0,0.028,0.011,0.113-0.017,0.113
					c-0.037-0.008-0.085-0.034-0.156-0.073c-0.27-0.156-1.023-0.543-1.134-0.398c-0.025,0.028-0.031,0.089-0.017,0.165l-0.369-0.062
					c-0.438-0.188-1.037-0.44-1.31-0.44l-0.088,0.122c0.167,0.438,3.373,1.125,3.958,1.233c0.025,0.006,0.045,0.028,0.042,0.057
					c0,0.025-0.022,0.049-0.048,0.049c-0.48,0.042-1.338,0.17-1.514,0.397c0.006,0.02-0.017,0.085-0.037,0.1
					c-0.017,0.011-0.051,0.068-0.071,0.045c-1.475-0.897-1.827-0.812-1.943-0.633c-0.031,0.048-0.028,0.099-0.022,0.11
					c-0.065,0.077-0.111,0.071-0.182,0.054c-0.236-0.051-0.792-0.173-1.088-0.173c-0.134,0-0.156,0.025-0.156,0.025
					c0,0.009,0.02,0.122,0.761,0.522c1.384,0.75,1.395,0.898,1.398,0.958c-0.009,0.011-0.051,0.088-0.065,0.088
					c-0.006,0.017-0.048,0.025-0.108,0.025c0.02,0.034,0.165,0.421,0.156,0.515c-0.102,0.048-0.205,0-0.355-0.074
					c-0.418-0.202-1.284-0.631-1.625-0.665c-0.002,0-0.002,0-0.005,0c-0.398,0-1.256,0.247-1.335,0.64
					c-0.06,0.278,0.301,0.6,1.043,0.923c1.298,0.568,2.636,0.378,3.656,0.114c0.531-0.143,1.028-0.271,1.5-0.217
					c1.103,0.123,1.648,0.29,1.821,0.552c0.062,0.094,0.077,0.199,0.042,0.312c-0.048,0.159-0.219,0.105-0.494-0.06
					c-0.262-0.156-0.623-0.375-1.034-0.375c-0.404,0-0.77,0.207-1.12,0.631c-1.077-0.165-1.815-0.284-1.929-0.068
					c-0.057,0.11,0.02,0.321,0.233,0.622c-0.779-0.188-1.333-0.241-1.671-0.241c-0.545,0-0.841,0.142-0.852,0.287
					c-0.012,0.153,0.321,0.469,1.647,0.679c0.142,0.003,0.29,0.006,0.432,0.006c2.653,0,4.295-0.716,4.312-0.725
					c0.071,0.028,0.333,0.503,0.73,0.503c0.156,0,0.318-0.074,0.477-0.219c0.188-0.165,0.341-0.247,0.475-0.247
					c0.278,0,0.347,0.344,0.372,0.474c0.006-0.005,0.634-0.286,0.634-0.286L399.786,312.701L399.786,312.701z M396.016,310.596
					c-0.176,0-0.781-0.199-0.994-0.58c0.082-0.091,0.13-0.099,0.182-0.102c0.003,0,0.051-0.003,0.051-0.003
					c0.15,0,0.406,0.037,0.767,0.219c0.048,0.065,0.034,0.46,0.034,0.46C396.047,310.593,396.033,310.596,396.016,310.596
					L396.016,310.596z M395.254,309.965l-0.043,0.054c-0.042,0.006-0.088,0.012-0.13,0.023c0.216,0.264,0.772,0.445,0.906,0.485
					c-0.037-0.062-0.025-0.324-0.025-0.341c-0.267-0.1-0.509-0.168-0.708-0.168V309.965L395.254,309.965z M399.882,310.547
					c-0.381,0-1.125-0.201-1.185-0.588c0.136-0.17,0.315-0.238,0.548-0.253c0,0,0.065,0,0.068,0c0.378,0,0.756,0.137,0.773,0.143
					c0.068,0.103,0.247,0.491,0.045,0.642C400.056,310.533,399.982,310.547,399.882,310.547L399.882,310.547z M399.314,309.761
					l-0.062,0.054c-0.205,0.012-0.361,0.068-0.46,0.173c0.071,0.321,1.094,0.515,1.261,0.427c0.125-0.094,0.034-0.358-0.031-0.486
					c-0.017,0.003-0.361-0.113-0.708-0.113V309.761L399.314,309.761z M402.505,310.502c-0.387,0-0.847-0.088-0.864-0.091
					l-0.045-0.344c0.139-0.083,0.272-0.1,0.439-0.1h0.012c0.355,0,0.896,0.079,0.989,0.256c0.009,0.02-0.009,0.131-0.022,0.147
					C402.939,310.459,402.771,310.502,402.505,310.502L402.505,310.502z M401.749,310.343c0.119,0,0.463,0.054,0.756,0.054
					c0.304,0,0.397-0.06,0.426-0.094c-0.036-0.119-0.446-0.229-0.884-0.229v-0.052l-0.012,0.052
					c-0.152,0.003-0.281,0.017-0.371,0.045l0.039,0.233C401.706,310.346,401.723,310.343,401.749,310.343L401.749,310.343z
					 M402.09,309.331c-0.256,0-0.455-0.045-0.463-0.048l-0.082-0.375c-0.004-0.015,0.002-0.028,0.014-0.04
					c0.012-0.014,0.028-0.02,0.039-0.017v0.051l0.029-0.051c0.185,0,0.445-0.062,0.699-0.119c0.207-0.049,0.408-0.094,0.545-0.103
					c0.074,0,0.182,0,0.222,0.076c0.04,0.077-0.021,0.177-0.065,0.245C402.806,309.264,402.395,309.331,402.09,309.331
					L402.09,309.331z M401.727,309.203c0.064,0,0.204,0.021,0.363,0.021l0,0c0.278,0,0.653-0.06,0.85-0.335
					c0.07-0.103,0.057-0.131,0.057-0.131l-0.091-0.074l-0.028,0.054c-0.134,0.006-0.324,0.052-0.528,0.1
					c-0.245,0.054-0.497,0.114-0.69,0.119l0.031,0.253C401.695,309.206,401.706,309.203,401.727,309.203L401.727,309.203z
					 M400.001,309.28c-0.238,0-1.153-0.048-1.389-0.199c-0.19-0.017-0.784-0.292-0.838-0.485c0.108-0.14,0.193-0.165,0.275-0.171
					c0.003,0,0.025,0,0.025,0c0.193,0,0.364,0.103,0.526,0.199l0.105,0.062c0.065-0.028,0.19-0.037,0.327-0.037
					c0.469,0,1.048,0.105,1.054,0.105l0.045,0.466C400.121,309.232,400.016,309.28,400.001,309.28L400.001,309.28z M398.075,308.479
					l-0.02,0.054c-0.065,0.003-0.134,0.025-0.205,0.062c0.06,0.091,0.602,0.387,0.787,0.387c0.219,0.127,1.051,0.189,1.364,0.189
					l0.023-0.354c-0.034,0.025-0.562-0.06-0.992-0.06c-0.128,0-0.247,0.008-0.341,0.028l-0.145-0.071
					c-0.159-0.094-0.31-0.182-0.472-0.182V308.479L398.075,308.479z M401.945,308.067c-0.171,0-0.305-0.021-0.305-0.021
					l-0.045-0.272c0.002-0.048,0.02-0.042,0.199-0.082c0.152-0.031,0.383-0.083,0.557-0.091c0.116,0.006,0.17,0.011,0.207,0.033
					c0.062,0.103,0.057,0.143,0.034,0.188C402.484,308.024,402.181,308.067,401.945,308.067L401.945,308.067z M401.703,307.822
					v0.143c0.031-0.014,0.128-0.006,0.242-0.006c0.168,0,0.466-0.022,0.554-0.188c-0.006-0.048-0.034-0.062-0.11-0.062
					c-0.199,0.006-0.424,0.057-0.572,0.088C401.766,307.809,401.729,307.817,401.703,307.822L401.703,307.822z M399.891,307.249
					c-0.474,0-1.438-0.475-1.534-0.708c-0.008-0.02,0.003-0.102,0.017-0.116c0.034-0.031,0.085-0.045,0.162-0.048
					c0.003,0,0.003,0,0.003,0h0.017c1.128,0.122,1.52,0.562,1.614,0.693C400.126,307.209,400.033,307.249,399.891,307.249
					L399.891,307.249z M398.539,306.431l0.003,0.054c-0.074,0.003-0.094,0.018-0.094,0.018c0.011,0.122,0.955,0.642,1.443,0.642
					c0.068,0,0.156-0.011,0.19-0.068c-0.085-0.065-0.455-0.474-1.531-0.591L398.539,306.431L398.539,306.431z M404.368,306.786
					c-0.142,0-0.272-0.018-0.304-0.021c-0.025-0.003-0.049-0.022-0.051-0.045c-0.004-0.023,0.006-0.049,0.027-0.057
					c0.186-0.097,0.416-0.211,0.583-0.217c0.009-0.005,0.131,0.026,0.142,0.031c0.004,0.009,0.071,0.128,0.071,0.137
					C404.77,306.74,404.618,306.786,404.368,306.786L404.368,306.786z M404.264,306.678c0.033,0,0.068,0,0.104,0
					c0.284,0,0.353-0.062,0.37-0.088l-0.004-0.065l-0.096,0.028v-0.051l-0.009,0.051c-0.11,0.006-0.265,0.068-0.378,0.125
					C404.255,306.678,404.26,306.678,404.264,306.678L404.264,306.678z M401.633,306.334c-0.015,0-0.031-0.003-0.037-0.009
					c-0.015-0.008-0.055-0.02-0.055-0.036c0-0.046,0.035-0.302,0.035-0.302c0.886-0.557,2.423-1.028,3.252-1.037h0.018
					c0.219,0,0.375,0.037,0.469,0.105c0.012,0.142-0.133,0.469-0.619,0.605l0,0c-0.475,0-1.52,0.238-3.023,0.667
					C401.664,306.331,401.649,306.334,401.633,306.334L401.633,306.334z M401.66,306.036c0.015,0.011-0.014,0.21-0.011,0.25
					c1.517-0.495,2.568-0.733,2.966-0.733c0.478-0.116,0.608-0.389,0.617-0.451c-0.055-0.015-0.196-0.043-0.387-0.043v-0.054
					l-0.018,0.054C404.033,305.064,402.496,305.539,401.66,306.036L401.66,306.036z M401.66,305.453
					c-0.064-0.06-0.042-0.295-0.031-0.352c0.072-0.049,0.191-0.08,0.364-0.123c0.534-0.136,1.528-0.389,1.847-0.397
					c0-0.009,0.137,0.037,0.145,0.06c0,0.018-0.059,0.117-0.073,0.128C403.439,305.104,401.732,305.439,401.66,305.453
					L401.66,305.453z M403.837,304.689c-0.312,0.008-1.329,0.27-1.817,0.395c-0.282,0.071-0.318,0.08-0.336,0.08
					c0.037,0.008,0.022,0.198,0.02,0.235C401.758,305.325,403.377,304.999,403.837,304.689L403.837,304.689z M401.612,304.593
					l-0.057-0.35c0.15-0.057,0.307-0.074,0.478-0.091c0.21-0.023,0.44-0.049,0.628-0.055c0.003,0,0.103-0.002,0.103-0.002
					c0.213,0,0.272,0.036,0.301,0.064c0.003,0.012,0.025,0.092,0.02,0.103C402.814,304.547,401.734,304.587,401.612,304.593
					L401.612,304.593z M402.764,304.149l-0.098,0.057c-0.188,0.006-0.414,0.031-0.621,0.051c-0.174,0.021-0.333,0.034-0.436,0.04
					l0.055,0.242c0.264-0.062,1.133-0.129,1.32-0.313l0,0c-0.008,0-0.054-0.022-0.221-0.022V304.149L402.764,304.149z
					 M401.689,303.848c-0.077-0.189-0.094-0.653-0.082-0.707c1.475-0.478,2.432-0.704,2.881-0.722l0.045-0.003
					c0.159,0,0.247,0.031,0.284,0.097c0.009,0.122-0.031,0.188-0.108,0.262C404.527,302.941,401.979,303.754,401.689,303.848
					L401.689,303.848z M404.533,302.471l-0.043,0.054c-0.439,0.017-1.387,0.244-2.815,0.676c0.028,0.021,0.052,0.594,0.052,0.594
					c1.06-0.409,2.783-0.982,2.908-1.1c0.08-0.076,0.092-0.116,0.092-0.128c-0.006-0.005-0.029-0.042-0.193-0.042V302.471
					L404.533,302.471z M401.581,302.777l-0.057-0.523c0-0.028,0.021-0.051,0.048-0.054l0.125-0.022
					c0.291-0.057,0.964-0.188,1.348-0.196c0.219-0.014,0.283,0.022,0.312,0.083c0.033,0.073-0.031,0.142-0.092,0.189
					C402.738,302.689,401.629,302.774,401.581,302.777L401.581,302.777z M401.629,302.3v0.415c0.046-0.055,1.089-0.148,1.568-0.543
					c0.066-0.057,0.041-0.085-0.11-0.085c-0.415,0.011-1.088,0.142-1.375,0.196L401.629,302.3L401.629,302.3z M400.286,301.672
					c-0.005,0-0.011-0.003-0.017-0.003c0,0-3.625-1.171-3.728-1.207c0-0.009-0.014-0.134-0.008-0.143
					c0.048-0.057,0.136-0.088,0.261-0.094c0.003,0,0.006,0,0.006,0c0.622,0,1.781,0.315,3.432,0.918l0.105,0.466
					c0.006,0.018-0.003,0.037-0.017,0.049C400.312,301.666,400.297,301.672,400.286,301.672L400.286,301.672z M396.868,300.328
					c-0.19,0.012-0.236,0.043-0.25,0.06c0.054,0.009,3.057,0.978,3.6,1.15l-0.057-0.335
					C398.118,300.487,397.24,300.328,396.868,300.328L396.868,300.328z M401.624,301.632c-0.058-0.048-0.089-0.332-0.103-0.417
					c-0.003-0.018,0.003-0.037,0.014-0.049c0.012-0.012,0.031-0.02,0.046-0.014l-0.005,0.051l0.082-0.049
					c0.318,0.026,0.622,0.058,0.713,0.134c0,0.009,0.031,0.1,0.028,0.105C402.291,301.569,401.734,301.621,401.624,301.632
					L401.624,301.632z M401.635,301.252c0.018,0.119,0.037,0.32,0.037,0.32c0.196-0.068,0.577-0.137,0.634-0.225
					c-0.054-0.022-0.272-0.057-0.656-0.085L401.635,301.252L401.635,301.252z M401.59,300.774c-0.065-0.046-0.107-0.406-0.107-0.415
					c0.067-0.057,0.139-0.065,0.244-0.08c0.32-0.045,0.951-0.133,1.295-0.145c0.003,0,0.061-0.003,0.061-0.003
					c0.15,0,0.189,0.022,0.213,0.046l-0.046,0.065l0.028,0.045C403.084,300.456,401.74,300.743,401.59,300.774L401.59,300.774z
					 M401.547,300.41c0.049,0.021,0.082,0.307,0.082,0.307c0.479-0.156,1.287-0.354,1.523-0.474
					c-0.018-0.003-0.043-0.003-0.07-0.003v-0.055l-0.055,0.055c-0.341,0.011-0.969,0.1-1.287,0.145
					C401.646,300.399,401.576,300.407,401.547,300.41L401.547,300.41z M400.312,300.092c-0.202-0.017-2.463-0.945-2.719-0.945
					v-0.055l-0.005,0.058c-0.108-0.122-0.108-0.199-0.074-0.253c0.037-0.06,0.108-0.091,0.216-0.1l0,0
					c0.577,0,1.886,0.557,2.38,0.77c0.1,0.04,0.162,0.068,0.179,0.074c0.034,0.082,0.031,0.165,0.031,0.247
					C400.317,299.976,400.314,300.066,400.312,300.092L400.312,300.092z M397.604,299.041c0.318,0.022,2.264,0.827,2.619,0.978
					c-0.014-0.028-0.014-0.071-0.011-0.119c0.003-0.097,0.003-0.153,0.008-0.19c-0.022,0.014-0.082-0.015-0.162-0.049
					c-0.486-0.207-1.781-0.758-2.293-0.758c-0.099,0.005-0.145,0.022-0.162,0.048C397.59,298.973,397.595,299.007,397.604,299.041
					L397.604,299.041z M401.493,299.684l-0.071-0.406c0.103-0.065,1.223-0.233,1.739-0.259l0.085-0.003
					c0.131,0,0.17,0.014,0.193,0.025c0,0.015,0.031,0.097,0.02,0.105C403.252,299.331,401.672,299.646,401.493,299.684
					L401.493,299.684z M403.246,299.072l-0.08,0.054c-0.511,0.023-1.621,0.19-1.682,0.202l0.051,0.301
					c0.555-0.167,1.458-0.378,1.756-0.506c-0.014,0-0.027,0-0.045,0V299.072L403.246,299.072z M401.468,298.726l-0.006-0.054
					l-0.017,0.051c-0.009-0.003-0.023-0.011-0.029-0.017c-0.031-0.097-0.011-0.23,0.009-0.361c0.021-0.022,0.077-0.079,0.1-0.065
					c0.009-0.014,0.222-0.057,0.5-0.11c0.537-0.105,1.344-0.262,1.71-0.275c0.15,0.011,0.208,0.014,0.23,0.048
					c0,0.018-0.02,0.113-0.031,0.125C403.587,298.379,401.484,298.723,401.468,298.726L401.468,298.726z M403.783,297.947
					l-0.045,0.054c-0.355,0.015-1.16,0.171-1.693,0.272c-0.291,0.058-0.51,0.1-0.552,0.1c0.009,0.117,0.006,0.202,0.009,0.244
					c0.221-0.039,2.07-0.369,2.361-0.63L403.783,297.947L403.783,297.947z M400.414,297.93c-0.199,0-3.728-1.238-3.728-1.238
					c-0.037-0.045-0.06-0.134,0-0.219c0.057-0.079,0.165-0.122,0.321-0.131c0.002,0,0.06-0.003,0.062-0.003
					c0.565,0,1.676,0.39,3.301,1.159C400.417,297.848,400.417,297.91,400.414,297.93L400.414,297.93L400.414,297.93z
					 M397.07,296.394l-0.057,0.057c-0.119,0.006-0.205,0.034-0.241,0.085c-0.048,0.054,3.247,1.213,3.58,1.327
					c-0.042-0.037-0.051-0.199-0.054-0.273c-1.977-0.942-2.849-1.142-3.227-1.142V296.394L397.07,296.394z M401.465,297.047
					l-0.065-0.418c0-0.028,0.022-0.051,0.052-0.054c0.021,0,0.115-0.022,0.25-0.054c0.34-0.08,0.912-0.214,1.198-0.228
					c0.114,0,0.173,0.011,0.202,0.042c0,0.015-0.009,0.125-0.018,0.134C402.826,296.76,401.519,297.035,401.465,297.047
					L401.465,297.047z M401.508,296.675v0.317c0.301-0.127,1.301-0.377,1.497-0.596c-0.378,0.02-0.946,0.15-1.284,0.229
					C401.627,296.646,401.553,296.663,401.508,296.675L401.508,296.675z M400.254,297.029c-0.005,0-0.011,0-0.017-0.003
					c-0.633-0.192-2.713-0.832-2.81-0.972c-0.028-0.039-0.085-0.145-0.04-0.235c0.037-0.071,0.12-0.11,0.248-0.116c0,0,0,0,0.002,0
					c0.463,0,1.333,0.278,2.625,0.826l0.042,0.443c0.003,0.02-0.006,0.034-0.02,0.046
					C400.277,297.026,400.266,297.029,400.254,297.029L400.254,297.029z M397.678,295.808c-0.122,0.006-0.176,0.026-0.193,0.058
					c-0.017,0.036,0.006,0.091,0.031,0.13c0.1,0.097,1.668,0.6,2.682,0.906l-0.009-0.32
					C398.624,295.95,397.956,295.808,397.678,295.808L397.678,295.808z M401.264,294.776l-0.094-0.6
					c0.053-0.057,0.979-0.182,1.619-0.19l0.105-0.002c0.383,0,0.459,0.051,0.485,0.107c0.009,0.02-0.012,0.103-0.026,0.116
					C403.09,294.518,401.447,294.751,401.264,294.776L401.264,294.776z M402.895,294.092h-0.105
					c-0.631,0.012-1.549,0.134-1.557,0.137l0.076,0.491c0.435-0.116,1.764-0.347,1.966-0.582
					C403.28,294.135,403.232,294.092,402.895,294.092L402.895,294.092z M400.402,293.808c-0.179,0-1.52-0.415-1.585-0.628
					c0.068-0.122,0.131-0.139,0.213-0.139l0.037-0.003c0.27,0,0.73,0.091,1.034,0.15c0.145,0.028,0.253,0.048,0.273,0.046
					c0.014,0,0.028,0.048,0.042,0.057c0.011,0.008,0.02,0.068,0.02,0.085c0.017,0.233,0.017,0.372-0.02,0.429
					C400.414,293.805,400.408,293.808,400.402,293.808L400.402,293.808z M399.067,293.092l-0.034,0.054
					c-0.065,0.003-0.105,0.015-0.119,0.023c0.062,0.11,1.239,0.511,1.449,0.567c-0.011-0.033-0.025-0.264-0.034-0.354
					c0.014-0.04-0.097-0.06-0.248-0.088c-0.301-0.06-0.755-0.148-1.014-0.148V293.092L399.067,293.092z M400.246,292.944
					c-0.216,0-2.46-0.637-2.685-0.637v-0.051l-0.002,0.051c-0.006,0-0.097-0.022-0.103-0.028c-0.008-0.018-0.045-0.088-0.037-0.105
					c0.083-0.11,0.199-0.145,0.367-0.153c0.003,0,0.008,0,0.011,0c0.574,0,1.37,0.151,2.398,0.435
					c0.023,0.006,0.042,0.103,0.042,0.125c0.014,0.202,0.02,0.327,0.012,0.364C400.249,292.944,400.249,292.944,400.246,292.944
					L400.246,292.944z M397.882,292.126c-0.295,0.015-0.353,0.06-0.361,0.068l0.04,0.009c0.264,0,2.452,0.633,2.64,0.689
					c-0.051-0.031-0.065-0.227-0.068-0.304C398.868,292.203,398.209,292.126,397.882,292.126L397.882,292.126z M401.16,291.518
					c-0.073-0.076-0.088-0.244-0.096-0.341c0-0.014,0.006-0.028,0.014-0.04c0.012-0.011,0.025-0.017,0.04-0.017h0.006
					c0.031,0.006,0.079,0.012,0.14,0.017c0.286,0.026,0.428,0.052,0.477,0.114c0,0.028-0.014,0.116-0.045,0.116
					C401.618,291.495,401.164,291.518,401.16,291.518L401.16,291.518z M401.178,291.236c0.009,0.091,0.018,0.182,0.025,0.199
					c0.023-0.025,0.378-0.065,0.449-0.147c-0.037-0.012-0.301-0.034-0.398-0.046C401.227,291.239,401.197,291.236,401.178,291.236
					L401.178,291.236z M401.206,291.018l-0.079-0.52c-0.003-0.015,0.002-0.028,0.014-0.04c0.009-0.011,0.023-0.017,0.037-0.017
					c0.049,0,1.137,0.003,1.253,0.176C402.349,290.896,401.473,290.992,401.206,291.018L401.206,291.018z M401.234,290.549
					l0.02,0.415c0.458-0.103,1.043-0.213,1.086-0.304C402.28,290.595,401.621,290.552,401.234,290.549L401.234,290.549z
					 M400.215,290.404c-0.199,0-0.446-0.034-0.523-0.1c0-0.014-0.025-0.11-0.017-0.119c0.188-0.14,0.435-0.165,0.585-0.179
					c0.048-0.006,0.085-0.009,0.102-0.015l0.014,0.051l-0.011-0.028l0.011,0.065c0.012,0.009,0.017,0.015,0.017,0.015
					c-0.002,0.003-0.008,0.003-0.011,0.003l0.06,0.284C400.394,290.398,400.309,290.404,400.215,290.404L400.215,290.404z
					 M400.345,290.104c-0.02,0.002-0.045,0.005-0.077,0.008c-0.136,0.015-0.366,0.037-0.494,0.125
					c0.051,0.04,0.392,0.083,0.617,0.091L400.345,290.104L400.345,290.104z"/>
			</g>
			<rect x="358" y="276" clip-path="url(#SVGID_4_)" fill="#347C41" width="26.087" height="50"/>
			<rect x="417.627" y="276" clip-path="url(#SVGID_4_)" fill="#347C41" width="26.084" height="50"/>
		</g>
	</g>
</g>
</svg>
