<?xml version="1.0" encoding="utf-8"?>
<!-- Generator: Adobe Illustrator 16.0.0, SVG Export Plug-In . SVG Version: 6.00 Build 0)  -->
<!DOCTYPE svg PUBLIC "-//W3C//DTD SVG 1.1//EN" "http://www.w3.org/Graphics/SVG/1.1/DTD/svg11.dtd">
<svg version="1.1" id="name" xmlns="http://www.w3.org/2000/svg" xmlns:xlink="http://www.w3.org/1999/xlink" x="0px" y="0px"
	 width="85.711px" height="50px" viewBox="358 276 85.711 50" enable-background="new 358 276 85.711 50" xml:space="preserve">
<g id="ni">
	<g>
		<defs>
			<rect id="SVGID_1_" x="358" y="276" width="85.711" height="50"/>
		</defs>
		<clipPath id="SVGID_2_">
			<use xlink:href="#SVGID_1_"  overflow="visible"/>
		</clipPath>
		<rect x="358" y="309.334" clip-path="url(#SVGID_2_)" fill="#4165B0" width="85.711" height="16.666"/>
		<rect x="358" y="276" clip-path="url(#SVGID_2_)" fill="#4165B0" width="85.711" height="16.669"/>
		<rect x="358" y="292.669" clip-path="url(#SVGID_2_)" fill="#FFFFFF" width="85.711" height="16.665"/>
		<polygon clip-path="url(#SVGID_2_)" fill="#F6CD2A" points="395.83,303.902 400.856,295.197 405.882,303.902 		"/>
		<polygon clip-path="url(#SVGID_2_)" fill="#9AD2F2" points="396.325,303.615 400.854,295.771 405.388,303.615 		"/>
		<g clip-path="url(#SVGID_2_)">
			<defs>
				<rect id="SVGID_3_" x="358" y="276" width="85.711" height="50"/>
			</defs>
			<clipPath id="SVGID_4_">
				<use xlink:href="#SVGID_3_"  overflow="visible"/>
			</clipPath>
			<g clip-path="url(#SVGID_4_)">
				<path fill="#9AD2F2" d="M397.225,302.888c-0.062,0-0.125-0.011-0.188-0.02l-0.136-0.037l-0.011-0.091l0.165,0.045
					c0.132,0.021,0.263,0.04,0.414,0.04C397.381,302.871,397.303,302.888,397.225,302.888L397.225,302.888z"/>
			</g>
			<g clip-path="url(#SVGID_4_)">
				<path fill="#9AD2F2" d="M396.802,303.447l-0.105-0.06c0.055-0.02,0.094-0.079,0.162-0.156c0.112-0.037,0.174-0.02,0.241,0
					c0.045,0.012,0.094,0.025,0.156,0.028c0.091,0.055,0.229,0.046,0.314,0.003l0.131-0.014l-0.095,0.088
					c-0.091,0.045-0.269,0.073-0.375-0.003c-0.048,0.003-0.105-0.009-0.152-0.022c-0.062-0.018-0.108-0.031-0.178-0.012
					C396.857,303.359,396.822,303.416,396.802,303.447L396.802,303.447z"/>
			</g>
			<g clip-path="url(#SVGID_4_)">
				<path fill="#9AD2F2" d="M397.68,303.533c-0.125-0.021-0.219-0.021-0.354-0.018l-0.128-0.04l0.001,0.043
					c-0.091,0.006-0.125,0.006-0.148-0.009l-0.02,0.009v-0.046c0.071-0.033,0.128-0.036,0.165-0.039l0.128-0.003
					C397.474,303.434,397.593,303.431,397.68,303.533L397.68,303.533z"/>
			</g>
			<g clip-path="url(#SVGID_4_)">
				<path fill="#9AD2F2" d="M398.941,302.854c-0.178,0-0.233-0.06-0.27-0.235c-0.062-0.012-0.192-0.012-0.276,0.028l-0.139,0.003
					l-0.031-0.083h0.152c0.089-0.048,0.243-0.048,0.352,0.003c0.059,0.193,0.092,0.211,0.225,0.216
					c0.007-0.031,0.069-0.062,0.124-0.091l0.111,0.034c-0.121,0.065-0.176,0.094-0.205,0.125
					C398.97,302.854,398.956,302.854,398.941,302.854L398.941,302.854z"/>
			</g>
			<g clip-path="url(#SVGID_4_)">
				<polygon fill="none" points="398.316,302.913 398.348,302.913 398.468,302.913 398.742,302.913 				"/>
			</g>
			<g clip-path="url(#SVGID_4_)">
				<path fill="#9AD2F2" d="M398.651,303.316l-0.105-0.06c0.057-0.02,0.097-0.079,0.165-0.156c0.134-0.097,0.213-0.147,0.405-0.099
					c0.16,0.122,0.206,0.156,0.327,0.17c0.077,0,0.132-0.012,0.188-0.022c0.042-0.006,0.085-0.015,0.138-0.021
					c-0.042,0.089-0.083,0.097-0.122,0.105c-0.06,0.009-0.12,0.02-0.208,0.02c-0.15-0.014-0.21-0.062-0.301-0.136
					c-0.199-0.077-0.25-0.04-0.362,0.037C398.708,303.229,398.671,303.285,398.651,303.316L398.651,303.316z"/>
			</g>
			<g clip-path="url(#SVGID_4_)">
				<path fill="#9AD2F2" d="M399.563,303.601c-0.136,0-0.228-0.039-0.325-0.082l-0.115-0.048c-0.031,0.033-0.078,0.057-0.105,0.067
					l-0.034-0.062h0.03c-0.004-0.025,0.04-0.045,0.103-0.079l0.155,0.045c0.094,0.04,0.174,0.074,0.29,0.077
					c0.04-0.003,0.077-0.012,0.112-0.02c0.048-0.012,0.098-0.023,0.161-0.023c-0.051,0.083-0.097,0.094-0.142,0.105
					C399.651,303.59,399.609,303.598,399.563,303.601L399.563,303.601z"/>
			</g>
			<g clip-path="url(#SVGID_4_)">
				<path fill="#9AD2F2" d="M400.651,302.691c-0.127-0.042-0.258-0.045-0.392-0.042h-0.154l-0.03-0.083h0.151
					c0.176-0.002,0.311,0,0.439,0.046l0.41-0.003L400.651,302.691L400.651,302.691z"/>
			</g>
			<g clip-path="url(#SVGID_4_)">
				<path fill="#9AD2F2" d="M400.839,303.212c-0.155-0.015-0.224-0.062-0.307-0.119l-0.091-0.062
					c-0.083-0.083-0.219-0.108-0.34-0.122c-0.041,0.033-0.089,0.057-0.116,0.067l-0.033-0.062h0.033
					c-0.01-0.025,0.036-0.045,0.101-0.082c0.161,0.012,0.313,0.04,0.414,0.137l0.081,0.057c0.078,0.054,0.133,0.094,0.258,0.104
					c0.109-0.051,0.142-0.073,0.199-0.085l-0.071,0.122C400.937,303.187,400.901,303.209,400.839,303.212L400.839,303.212z"/>
			</g>
			<g clip-path="url(#SVGID_4_)">
				<path fill="#9AD2F2" d="M401.043,303.425c-0.122,0-0.221-0.009-0.314-0.04c-0.111-0.068-0.249,0.003-0.293,0.034l-0.051-0.065
					c0.071-0.054,0.244-0.128,0.38-0.045c0.108,0.037,0.239,0.039,0.37,0.037c0.051-0.018,0.101-0.04,0.152-0.062
					c0.072-0.031,0.145-0.065,0.188-0.103l0.012-0.009h0.105l-0.091,0.082c-0.025,0.034-0.104,0.071-0.181,0.105
					c-0.048,0.02-0.095,0.043-0.132,0.062C401.136,303.425,401.089,303.425,401.043,303.425L401.043,303.425z"/>
			</g>
			<g clip-path="url(#SVGID_4_)">
				<path fill="#9AD2F2" d="M402.146,302.908c-0.13-0.055-0.33-0.049-0.421-0.043l-0.043-0.04l0.04-0.042
					c0.102-0.003,0.311-0.012,0.435,0.048c0.087-0.022,0.144-0.091,0.215-0.173l0.069-0.077c0.143-0.017,0.244-0.012,0.35,0.031
					c-0.122,0.04-0.216,0.037-0.32,0.037C402.359,302.8,402.288,302.885,402.146,302.908L402.146,302.908z"/>
			</g>
			<g clip-path="url(#SVGID_4_)">
				<path fill="#9AD2F2" d="M402.271,303.385l-0.023-0.079c0,0,0.125-0.037,0.219-0.046c0.088-0.11,0.162-0.057,0.219-0.014
					c0.029,0.025,0.061,0.048,0.1,0.06c0.121-0.049,0.191-0.147,0.256-0.281c0.013,0.167-0.071,0.301-0.253,0.36
					c-0.083-0.017-0.122-0.048-0.153-0.07c-0.055-0.043-0.068-0.055-0.134,0.014C402.388,303.351,402.271,303.385,402.271,303.385
					L402.271,303.385z"/>
			</g>
			<g clip-path="url(#SVGID_4_)">
				<path fill="#9AD2F2" d="M402.629,303.053l-0.034-0.054h0.028c-0.016-0.034,0.031-0.065,0.094-0.12l0.08-0.067
					c0.051-0.052,0.096-0.1,0.216-0.114c0.077-0.1,0.166-0.017,0.222,0.031c-0.124,0.003-0.144-0.006-0.186,0.04
					c-0.115,0.022-0.146,0.054-0.192,0.1c-0.024,0.025-0.052,0.051-0.089,0.079C402.704,303.002,402.656,303.033,402.629,303.053
					L402.629,303.053z"/>
			</g>
			<g clip-path="url(#SVGID_4_)">
				<path fill="#9AD2F2" d="M403.271,303.394l-0.083-0.015c0.006-0.033,0.062-0.227,0.093-0.31c0.095-0.065,0.157-0.102,0.229-0.082
					c0.054,0.017,0.1,0.065,0.152,0.165c0.032,0.003,0.086,0.034,0.141,0.065c0.054,0.034,0.11,0.065,0.17,0.088
					c-0.094,0.057-0.153,0.02-0.213-0.018c-0.05-0.028-0.1-0.06-0.15-0.076c-0.061-0.097-0.094-0.137-0.124-0.146
					c-0.035-0.005-0.075,0.015-0.144,0.055C403.33,303.178,403.277,303.362,403.271,303.394L403.271,303.394z"/>
			</g>
			<g clip-path="url(#SVGID_4_)">
				<path fill="#9AD2F2" d="M404.018,302.908c-0.109-0.188-0.146-0.276-0.254-0.305c-0.004,0.074-0.032,0.143-0.049,0.18
					l-0.104-0.043c0.043-0.028,0.074-0.1,0.129-0.196c0.193,0.021,0.244,0.137,0.298,0.265c0.135,0.017,0.216,0.011,0.287-0.057
					C404.285,302.902,404.176,302.908,404.018,302.908L404.018,302.908z"/>
			</g>
			<g clip-path="url(#SVGID_4_)">
				<path fill="#9AD2F2" d="M404.967,303.316c-0.133-0.017-0.178-0.06-0.217-0.096c-0.041-0.04-0.078-0.071-0.141-0.097
					c-0.062-0.04-0.108-0.023-0.186,0.145l-0.076-0.034c0.045-0.097,0.113-0.225,0.205-0.232l0.106,0.06
					c0.058,0.017,0.104,0.057,0.146,0.097c0.039,0.036,0.077,0.07,0.143,0.104c-0.025-0.06,0.018-0.076,0.097-0.091
					C404.998,303.263,404.986,303.269,404.967,303.316L404.967,303.316z"/>
			</g>
			<g clip-path="url(#SVGID_4_)">
				<path fill="#9AD2F2" d="M401.75,303.45l-0.036-0.06h0.031c-0.005-0.028,0.04-0.048,0.1-0.082
					c0.132-0.108,0.185-0.15,0.257-0.287c0.104-0.018,0.161-0.009,0.218,0c0.068,0.012,0.134,0.022,0.213,0.022
					c-0.085,0.083-0.155,0.071-0.228,0.06c-0.054-0.008-0.107-0.017-0.167-0.022c-0.043,0.131-0.106,0.182-0.214,0.27
					C401.822,303.416,401.777,303.439,401.75,303.45L401.75,303.45z"/>
			</g>
			<g clip-path="url(#SVGID_4_)">
				<path fill="#9AD2F2" d="M397.872,302.919l-0.081-0.006c0-0.048,0.045-0.085,0.203-0.17c0.053-0.06,0.117-0.04,0.173-0.022
					l0.088,0.102c-0.044,0-0.081-0.014-0.112-0.022l-0.004,0.006l-0.106,0.014C397.911,302.882,397.879,302.908,397.872,302.919
					L397.872,302.919z"/>
			</g>
			<g clip-path="url(#SVGID_4_)">
				<path fill="#9AD2F2" d="M398.342,303.343c-0.036,0-0.065-0.018-0.091-0.031c-0.042-0.026-0.077-0.046-0.125-0.058
					c-0.037,0.034-0.085,0.058-0.111,0.068l-0.031-0.062h0.028c-0.008-0.025,0.037-0.045,0.101-0.082
					c0.092,0.009,0.136,0.034,0.18,0.062c0.045,0.025,0.088,0.051,0.152,0.062C398.404,303.334,398.37,303.343,398.342,303.343
					L398.342,303.343z"/>
			</g>
			<g clip-path="url(#SVGID_4_)">
				<polygon fill="#FFFFFF" points="400.876,301.834 400.833,295.848 400.876,295.848 400.876,301.834 				"/>
			</g>
			<g clip-path="url(#SVGID_4_)">
				<polygon fill="#FFFFFF" points="398.694,299.556 398.694,299.513 403.018,299.513 398.694,299.556 				"/>
			</g>
			<g clip-path="url(#SVGID_4_)">
				<polygon fill="#FFFFFF" points="404.106,301.394 399.257,298.644 399.278,298.606 404.106,301.394 				"/>
			</g>
			<g clip-path="url(#SVGID_4_)">
				<polygon fill="#FFFFFF" points="397.622,301.441 402.486,298.586 402.507,298.623 397.622,301.441 				"/>
			</g>
			<g clip-path="url(#SVGID_4_)">
				<polygon fill="#FFFFFF" points="399.898,301.257 399.862,301.237 401.691,298.072 399.898,301.257 				"/>
			</g>
			<g clip-path="url(#SVGID_4_)">
				<polygon fill="#FFFFFF" points="402.018,301.498 399.938,297.979 399.976,297.959 402.018,301.498 				"/>
			</g>
			<path clip-path="url(#SVGID_4_)" fill="#9AD2F2" d="M401.523,299.535c0,0.367-0.301,0.665-0.669,0.665
				c-0.365,0-0.666-0.298-0.666-0.665c0-0.369,0.301-0.667,0.666-0.667C401.223,298.868,401.523,299.166,401.523,299.535
				L401.523,299.535z"/>
			<path clip-path="url(#SVGID_4_)" fill="#497BA2" d="M404.568,302.197l-2.243,0.037c0,0,0.011,0.33,0.159,0.341
				c0.145,0.012,2.001-0.022,2.079,0.128c0.08,0.147-1.81,0.228-1.81,0.228s1.664-0.012,1.753,0.113
				c0.091,0.128-0.915,0.15-0.837,0.174c0.078,0.022,1.175-0.023,1.279,0.102c0.102,0.125-0.498,0.208-0.498,0.208
				s0.905,0.088,0.931,0.082C405.163,303.229,404.568,302.197,404.568,302.197L404.568,302.197z"/>
			<path clip-path="url(#SVGID_4_)" fill="#C01F3F" d="M400.524,299.098c-0.074,0.049,0.167,0.08,0.146,0.239
				c-0.016,0.11-0.146,0.264-0.203,0.366c-0.057,0.103,0.259,0.478,0.555,0.272c0.295-0.204,0.258-0.573,0.158-0.639
				C400.944,299.181,400.793,298.944,400.524,299.098L400.524,299.098z"/>
			<g clip-path="url(#SVGID_4_)">
				<path fill="#010101" d="M400.947,299.959c-0.017-0.043-0.111-0.137-0.193-0.19c-0.072-0.046-0.189-0.074-0.222-0.052
					c0.003,0.006-0.003,0.037-0.008,0.043c-0.009,0-0.016,0.022-0.02,0.015c0-0.006,0.008-0.074,0.011-0.077
					c0.051-0.043,0.192,0.015,0.251,0.051C400.819,299.782,400.961,299.894,400.947,299.959L400.947,299.959z"/>
			</g>
			<path clip-path="url(#SVGID_4_)" fill="#5C7233" d="M398.931,300.456c0.263-0.062,0.338,0.247,0.425,0.301
				c0.084,0.052,0.312,0.077,0.372,0.111c0.059,0.034,0.287,0.188,0.287,0.188s0.102-0.273,0.222-0.299
				c0.119-0.025,0.628,0.327,0.628,0.327s0.06-0.327,0.196-0.284c0.134,0.042,0.815,0.557,0.815,0.557s0.031-0.179,0.177-0.23
				c0.145-0.051,0.646,0.256,0.646,0.256s0.058-0.25,0.16-0.25c0.294,0,1.258,1.049,1.471,1.068c0.1,0.012-0.352,0.146-0.352,0.146
				s0.076,0.067,0.034,0.127c-0.043,0.061-1.375,0.009-1.375,0.009s0.04,0.091,0.017,0.119c-0.038,0.055-5.795,0.091-5.795,0.091
				C397.396,301.766,398.456,300.566,398.931,300.456L398.931,300.456z"/>
			<path clip-path="url(#SVGID_4_)" fill="#273833" d="M401.203,302.646c0.204-0.051,0.061-0.611-1.043-1.461
				c1.747,1.208,0.639,1.376,2.424,1.424C402.264,302.632,401.203,302.646,401.203,302.646L401.203,302.646z"/>
			<path clip-path="url(#SVGID_4_)" fill="#273833" d="M400.924,301.144c0,0,1.651,1.275,1.718,1.338
				c0.083,0.003,0.354,0.012,0.354,0.012S402.768,302.479,400.924,301.144L400.924,301.144z"/>
			<path clip-path="url(#SVGID_4_)" fill="#273833" d="M401.907,301.394c0,0,1.387,1.091,1.163,1.097
				c-0.229,0.006,0.759,0.028,0.932-0.012C403.105,302.428,403.291,302.391,401.907,301.394L401.907,301.394z"/>
			<path clip-path="url(#SVGID_4_)" fill="#273833" d="M402.748,301.436l1.23,0.91c0,0,0.189-0.055,0.289-0.097
				C403.902,302.303,403.838,302.138,402.748,301.436L402.748,301.436z"/>
			<path clip-path="url(#SVGID_4_)" fill="#94C43E" d="M399.148,300.578c0.094,0.065,0.12,0.188,0.179,0.222
				c0.06,0.037,0.628,0.301,0.942,0.628c0.314,0.326,0.788,0.738,0.621,0.79c-0.172,0.051-0.333-0.128-0.333-0.128
				s0.236,0.386-0.077,0.409c-0.315,0.028-1.085-1.14-1.085-1.14s0.372,1.057-0.103,1.012c-0.474-0.043-0.425-0.799-0.425-0.799
				s-0.126,0.361-0.22,0.353s0-0.472,0-0.472s-0.542,0.909-0.755,0.807C397.681,302.158,398.729,300.501,399.148,300.578
				L399.148,300.578z"/>
			<path clip-path="url(#SVGID_4_)" fill="#94C43E" d="M400.279,300.888c-0.014-0.088,0.068-0.06,0.237,0.025
				c0.169,0.083,1.536,1.143,1.501,1.253C401.984,302.274,400.356,301.394,400.279,300.888L400.279,300.888z"/>
			<path clip-path="url(#SVGID_4_)" fill="#94C43E" d="M401.289,301.063c-0.102-0.022,1.086,1.186,1.365,1.111
				C402.936,302.096,401.366,301.084,401.289,301.063L401.289,301.063z"/>
			<path clip-path="url(#SVGID_4_)" fill="#94C43E" d="M402.111,301.169c-0.13-0.012,1.154,1.15,1.436,1.088
				C403.825,302.2,402.316,301.186,402.111,301.169L402.111,301.169z"/>
			<path clip-path="url(#SVGID_4_)" fill="#94C43E" d="M402.867,301.234c-0.142,0.025,0.961,0.872,1.094,0.863
				C404.1,302.093,403.195,301.178,402.867,301.234L402.867,301.234z"/>
			<path clip-path="url(#SVGID_4_)" fill="#AE208A" d="M399.066,298.873c0,0,0.677-0.795,1.788-0.795
				c1.111,0,1.792,0.793,1.792,0.793l-0.271-0.475c0,0-0.554-0.558-1.52-0.558c-0.967,0-1.513,0.549-1.513,0.549L399.066,298.873z"
				/>
			<path clip-path="url(#SVGID_4_)" fill="#C01F3F" d="M402.205,298.104c0,0-0.485-0.415-1.351-0.415
				c-0.865,0-1.348,0.421-1.348,0.421l-0.225,0.381c0,0,0.522-0.594,1.572-0.594c1.053,0,1.579,0.596,1.579,0.596L402.205,298.104z"
				/>
			<path clip-path="url(#SVGID_4_)" fill="#F4CD2E" d="M402.037,297.769c0,0-0.443-0.333-1.183-0.333
				c-0.738,0-1.135,0.302-1.135,0.302l-0.237,0.409c0,0,0.44-0.438,1.374-0.438c0.935,0,1.378,0.438,1.378,0.438L402.037,297.769z"
				/>
			<path clip-path="url(#SVGID_4_)" fill="#94C43E" d="M401.829,297.453l0.212,0.366c0,0-0.439-0.324-1.187-0.324
				c-0.746,0-1.194,0.344-1.194,0.344l0.216-0.372c0,0,0.301-0.222,0.979-0.222C401.535,297.245,401.829,297.453,401.829,297.453
				L401.829,297.453z"/>
			<path clip-path="url(#SVGID_4_)" fill="#6192BF" d="M401.68,297.2l0.182,0.31c0,0-0.429-0.219-1.007-0.219
				c-0.575,0-1.034,0.272-1.034,0.272l0.174-0.298c0,0,0.302-0.185,0.86-0.185C401.416,297.081,401.68,297.2,401.68,297.2
				L401.68,297.2z"/>
			<path clip-path="url(#SVGID_4_)" fill="#304891" d="M401.588,297.035l0.144,0.253c0,0-0.272-0.179-0.875-0.179
				c-0.602,0-0.875,0.179-0.875,0.179l0.148-0.262c0,0,0.264-0.097,0.726-0.097C401.328,296.93,401.588,297.035,401.588,297.035
				L401.588,297.035z"/>
			<path clip-path="url(#SVGID_4_)" fill="#FFFFFF" d="M399.757,302.771l2.261,0.022c0,0-0.395,0.046-0.383,0.091
				c0.012,0.046,0.801,0.068,0.801,0.068s-0.482,0.034-0.496,0.082c-0.012,0.043,0.227,0.068,0.227,0.068s-0.441,0.043-0.441,0.091
				c0,0.046,0.566,0.068,0.521,0.068c-0.046,0-0.748,0.012-0.748,0.068s0.503,0.176,0.503,0.176l-2.969,0.055
				c0,0,0.464-0.068,0.464-0.159c0-0.094-0.328-0.117-0.328-0.117s1.21,0.023,1.266-0.033c0.057-0.058-0.254-0.097-0.254-0.097
				s0.482,0.025,0.518-0.028c0.031-0.058-0.648-0.151-0.648-0.151s0.398,0.012,0.455-0.057
				C400.559,302.851,399.757,302.771,399.757,302.771L399.757,302.771z"/>
			<path clip-path="url(#SVGID_4_)" fill="#497BA2" d="M399.325,302.828c0,0-2.227,0.068-2.417,0.196
				c-0.193,0.122,1.243,0.25,1.243,0.25s-1.483,0.011-1.595,0.147c-0.114,0.14,0.884,0.116,0.884,0.116l-1.114,0.077l0.534-0.918
				L399.325,302.828z"/>
			<path clip-path="url(#SVGID_4_)" fill="#F4CD2E" d="M394.37,302.976c0.025,0.074-0.017,0.156-0.097,0.185
				c-0.074,0.023-0.156-0.02-0.181-0.096c-0.024-0.077,0.019-0.162,0.095-0.186C394.265,302.854,394.344,302.896,394.37,302.976
				L394.37,302.976z"/>
			<g clip-path="url(#SVGID_4_)">
				<path fill="none" d="M394.37,302.976c0.025,0.074-0.017,0.156-0.097,0.185c-0.074,0.023-0.156-0.02-0.181-0.096
					c-0.024-0.077,0.019-0.162,0.095-0.186C394.265,302.854,394.344,302.896,394.37,302.976z"/>
			</g>
			<path clip-path="url(#SVGID_4_)" fill="#F4CD2E" d="M394.603,304.394c-0.089,0.083-0.156,0.134-0.097,0.265l-0.048,0.022
				l-0.24-0.509l0.048-0.022c0.047,0.091,0.074,0.103,0.117,0.082c0.028-0.011,0.054-0.037,0.077-0.057l0.144-0.134l-0.173-0.369
				l-0.108,0.012c-0.042,0.006-0.091,0.008-0.132,0.028c-0.072,0.037-0.069,0.116-0.044,0.182l-0.048,0.022l-0.182-0.383
				l0.048-0.026c0.101,0.12,0.185,0.114,0.324,0.103l0.878-0.076l0.167,0.179L394.603,304.394z M395.052,303.618l-0.542,0.051
				l0.149,0.315L395.052,303.618z"/>
			<g clip-path="url(#SVGID_4_)">
				<path fill="#010101" d="M394.45,304.684l-0.239-0.509c0.028,0.012,0.05,0.02,0.068,0.028l0.182,0.469l0.041-0.022
					c-0.061-0.119-0.001-0.173,0.08-0.247l0.746-0.696l-0.167-0.171l-0.974,0.089c-0.054,0-0.103-0.012-0.152-0.043
					c0.059,0.02,0.104,0.025,0.152,0.025l0.98-0.082l0.173,0.182l-0.731,0.693c-0.095,0.088-0.148,0.136-0.095,0.256l-0.048,0.022
					l0,0L394.45,304.684L394.45,304.684z M394.352,304.249c-0.021,0-0.039-0.012-0.06-0.04c0.03,0.014,0.044,0.025,0.06,0.025
					l0.246-0.199l-0.176-0.36l-0.098,0.015c-0.056,0.008-0.098,0.014-0.129,0.031c-0.085,0.039-0.054,0.142-0.042,0.17l-0.043-0.062
					c0.009-0.06,0.031-0.1,0.078-0.122c0.036-0.017,0.078-0.022,0.115-0.028l0.126-0.012l0.18,0.372L394.352,304.249
					L394.352,304.249z"/>
			</g>
			<path clip-path="url(#SVGID_4_)" fill="#F4CD2E" d="M395.393,305.652c-0.088,0.068-0.092,0.119-0.025,0.213l-0.042,0.031
				l-0.335-0.463l0.041-0.031c0.07,0.094,0.118,0.105,0.209,0.037l0.67-0.497h-0.001l-1.041,0.323l-0.034-0.048l0.591-0.89v-0.003
				l-0.522,0.387c-0.205,0.153-0.222,0.182-0.148,0.307l-0.042,0.031l-0.239-0.329l0.042-0.029c0.104,0.098,0.132,0.105,0.339-0.048
				l0.492-0.363c0.096-0.071,0.091-0.128,0.028-0.216l0.04-0.029l0.276,0.379l-0.437,0.645l0.74-0.228l0.269,0.372l-0.042,0.028
				c-0.073-0.088-0.111-0.11-0.208-0.036L395.393,305.652z"/>
			<g clip-path="url(#SVGID_4_)">
				<path fill="#010101" d="M395.319,305.899l-0.336-0.46c0.03,0.003,0.052,0.008,0.072,0.014l0.272,0.432l0.034-0.025
					c-0.071-0.088-0.063-0.145,0.027-0.213l0.618-0.457c0.08-0.062,0.122-0.057,0.173-0.009c-0.034-0.012-0.051-0.022-0.074-0.022
					l-0.708,0.5c-0.085,0.065-0.091,0.11-0.025,0.201L395.319,305.899L395.319,305.899z M395.143,305.49
					c-0.025,0-0.051-0.012-0.074-0.034c0.031,0.009,0.053,0.021,0.074,0.021l0.722-0.509l-0.619,0.478
					C395.202,305.477,395.171,305.49,395.143,305.49L395.143,305.49z M394.87,305.271l0.04-0.068l0.998-0.27l-0.009,0.006
					L394.87,305.271L394.87,305.271z M396.267,305.197c-0.027-0.002-0.05-0.008-0.068-0.014l-0.212-0.347l-0.733,0.228l0.429-0.654
					l-0.042-0.057l0.054,0.057l-0.436,0.651l0.733-0.236L396.267,305.197L396.267,305.197z M394.759,305.016l-0.062-0.062
					c-0.006-0.085,0.045-0.133,0.202-0.247l0.52-0.386l-0.003,0.002l-0.509,0.396C394.702,304.868,394.689,304.894,394.759,305.016
					L394.759,305.016z M394.634,304.769c-0.028,0-0.054-0.011-0.08-0.031c0.1,0.022,0.111,0.037,0.295-0.1l0.49-0.366
					c0.095-0.068,0.083-0.122,0.027-0.202l0.062,0.065c0.006,0.055-0.011,0.1-0.08,0.15l-0.492,0.367
					C394.75,304.729,394.688,304.769,394.634,304.769L394.634,304.769z"/>
			</g>
			<path clip-path="url(#SVGID_4_)" fill="#F4CD2E" d="M395.583,306.072c0.084,0.077,0.137,0.077,0.21-0.005l0.508-0.58
				c0.075-0.082,0.068-0.136-0.017-0.213l0.034-0.04l0.714,0.646l-0.123,0.289l-0.05-0.014c0.013-0.179-0.033-0.378-0.167-0.497
				c-0.105-0.097-0.138-0.06-0.216,0.028l-0.205,0.232l0.021,0.023c0.118,0.104,0.189,0.13,0.336,0.048l0.045,0.043l-0.307,0.344
				l-0.045-0.043c0.074-0.147,0.038-0.23-0.077-0.335l-0.026-0.022l-0.224,0.252c-0.06,0.068-0.094,0.123-0.009,0.196
				c0.146,0.134,0.353,0.171,0.539,0.146l0.019,0.042l-0.286,0.146l-0.714-0.646L395.583,306.072z"/>
			<g clip-path="url(#SVGID_4_)">
				<path fill="#010101" d="M396.259,306.766l-0.004-0.003l-0.714-0.645c0.031-0.006,0.057-0.006,0.074-0.006l0.648,0.634
					l0.065-0.031L396.259,306.766L396.259,306.766z M396.492,306.59c-0.028-0.006-0.054-0.006-0.077-0.006
					c-0.121,0-0.292-0.025-0.432-0.153c-0.051-0.046-0.037-0.153,0.008-0.207l0.225-0.253c0.098,0.082,0.15,0.147,0.153,0.227
					c-0.019-0.079-0.06-0.13-0.128-0.192l-0.239,0.229c-0.04,0.046-0.057,0.146-0.01,0.185c0.18,0.165,0.382,0.162,0.533,0.143
					L396.492,306.59L396.492,306.59z M395.689,306.138c-0.021,0-0.042-0.008-0.066-0.022c0.085,0.006,0.105,0.015,0.165-0.054
					l0.509-0.58c0.037-0.036,0.051-0.07,0.051-0.099c-0.002-0.031-0.022-0.062-0.068-0.103l0.071,0.057
					c0.006,0.015,0.011,0.031,0.011,0.046c0.003,0.033-0.014,0.067-0.054,0.11l-0.509,0.577
					C395.759,306.118,395.725,306.138,395.689,306.138L395.689,306.138z M396.854,305.945c-0.041-0.117-0.092-0.217-0.166-0.281
					c-0.1-0.094-0.129-0.061-0.205,0.025l-0.083,0.094l0.071-0.103c0.08-0.091,0.12-0.128,0.226-0.028
					C396.776,305.721,396.83,305.825,396.854,305.945L396.854,305.945z"/>
			</g>
			<path clip-path="url(#SVGID_4_)" fill="#F4CD2E" d="M397.41,307.203c-0.009,0.125-0.015,0.236,0.096,0.318l-0.028,0.046
				l-0.333-0.211c0-0.048,0.009-0.102,0.015-0.15l0.024-0.222c0.028-0.225-0.014-0.272-0.07-0.31l-0.19,0.304
				c-0.058,0.097-0.044,0.148,0.053,0.211l-0.027,0.042l-0.483-0.304l0.028-0.045c0.097,0.06,0.15,0.054,0.208-0.043l0.406-0.656
				c0.06-0.094,0.045-0.145-0.051-0.207l0.025-0.043l0.58,0.363c0.199,0.128,0.253,0.315,0.165,0.458
				c-0.092,0.15-0.267,0.139-0.409,0.079c0.021,0.057,0.014,0.116,0.008,0.176L397.41,307.203z M397.178,306.627
				c0.22,0.142,0.334,0.11,0.425-0.034c0.084-0.137,0.036-0.236-0.108-0.327c-0.088-0.054-0.114-0.025-0.162,0.055l-0.182,0.292
				L397.178,306.627z"/>
			<g clip-path="url(#SVGID_4_)">
				<path fill="#010101" d="M397.474,307.572l-0.331-0.21c-0.004-0.048,0-0.091,0.005-0.134l0.028-0.244
					c0.027-0.222-0.014-0.27-0.068-0.304l-0.178,0.304c-0.055,0.091-0.044,0.137,0.05,0.199l-0.085-0.043
					c-0.025-0.054-0.017-0.1,0.023-0.164l0.189-0.305c0.067,0.034,0.112,0.083,0.084,0.315l-0.023,0.222
					c-0.008,0.062-0.014,0.105-0.014,0.147l0.321,0.199l0.024-0.037c-0.112-0.076-0.106-0.193-0.098-0.315l0.019-0.193
					c0.006-0.073,0.01-0.125-0.01-0.173c0.202,0.046,0.336,0.037,0.412-0.088c0.091-0.146,0.026-0.324-0.162-0.446l-0.132-0.082
					l0.139,0.07c0.193,0.123,0.261,0.315,0.167,0.467c-0.078,0.127-0.24,0.156-0.419,0.085c0.028,0.04,0.026,0.097,0.021,0.147
					l-0.02,0.213c-0.007,0.119-0.016,0.233,0.094,0.312L397.474,307.572L397.474,307.572z M396.597,306.928
					c-0.017,0-0.038-0.003-0.062-0.014c0.029-0.003,0.047,0,0.062,0c0.037,0,0.065-0.023,0.1-0.077l0.406-0.656
					c0.057-0.091,0.044-0.14-0.05-0.196l0.087,0.043c0.022,0.051,0.016,0.097-0.024,0.162l-0.406,0.656
					C396.674,306.902,396.64,306.928,396.597,306.928L396.597,306.928z M397.416,306.727L397.416,306.727
					c-0.065,0-0.144-0.031-0.241-0.094l0.002-0.006c0.108,0.057,0.181,0.085,0.239,0.085l0,0c0.073,0,0.128-0.04,0.181-0.122
					c0.078-0.125,0.047-0.222-0.104-0.318l-0.069-0.025c-0.033,0-0.053,0.028-0.084,0.076l-0.072,0.12l0.061-0.128
					c0.031-0.052,0.054-0.086,0.095-0.086l0.078,0.031c0.156,0.1,0.19,0.205,0.108,0.339
					C397.555,306.687,397.492,306.727,397.416,306.727L397.416,306.727z"/>
			</g>
			<path clip-path="url(#SVGID_4_)" fill="#F4CD2E" d="M398.078,306.752c0.045-0.103,0.024-0.15-0.08-0.199l0.021-0.048l0.517,0.238
				l-0.02,0.048c-0.104-0.048-0.155-0.033-0.2,0.068L398,307.564c-0.047,0.102-0.024,0.15,0.078,0.199l-0.02,0.048l-0.517-0.239
				l0.02-0.048c0.105,0.048,0.155,0.031,0.202-0.068L398.078,306.752z"/>
			<g clip-path="url(#SVGID_4_)">
				<path fill="#010101" d="M398.055,307.817l-0.517-0.236l0.021-0.009l0.494,0.228l0.017-0.04
					c-0.105-0.039-0.126-0.094-0.078-0.198l0.315-0.705c0.033-0.067,0.067-0.099,0.117-0.099l0.081-0.012l-0.081,0.025
					c-0.042,0-0.073,0.025-0.103,0.091l-0.315,0.705c-0.045,0.099-0.027,0.142,0.074,0.19L398.055,307.817L398.055,307.817z
					 M397.572,307.57l0.083-0.025c0.042,0,0.071-0.026,0.1-0.092l0.316-0.704c0.044-0.097,0.027-0.143-0.075-0.19l0.091,0.031
					c0.031,0.048,0.031,0.094-0.001,0.165l-0.316,0.704c-0.031,0.071-0.065,0.1-0.114,0.1l0,0L397.572,307.57L397.572,307.57z"/>
			</g>
			<path clip-path="url(#SVGID_4_)" fill="#F4CD2E" d="M399.343,307.362h-0.074c-0.019-0.17-0.095-0.369-0.266-0.426
				c-0.23-0.074-0.375,0.204-0.434,0.384c-0.116,0.369,0.016,0.582,0.187,0.636c0.147,0.049,0.277-0.025,0.392-0.113l0.03,0.042
				c-0.161,0.151-0.343,0.228-0.562,0.157c-0.301-0.1-0.432-0.421-0.338-0.714c0.1-0.318,0.409-0.56,0.722-0.457
				c0.054,0.017,0.095,0.043,0.128,0.068c0.034,0.022,0.062,0.048,0.092,0.06c0.04,0.011,0.083,0.006,0.121,0l0.02-0.003
				L399.343,307.362z"/>
			<g clip-path="url(#SVGID_4_)">
				<path fill="#010101" d="M398.778,308.076c-0.052,0-0.108-0.009-0.164-0.026c-0.29-0.097-0.44-0.415-0.342-0.725
					c0.108-0.341,0.435-0.56,0.732-0.463c0.058,0.021,0.099,0.049,0.129,0.071l0.088,0.065l0.001-0.009l0.119,0.006l-0.124,0.009
					l-0.095-0.06c-0.028-0.021-0.068-0.049-0.125-0.068c-0.29-0.094-0.606,0.116-0.713,0.451c-0.094,0.305,0.052,0.614,0.335,0.708
					c0.139,0.042,0.27,0.031,0.399-0.04C398.947,308.053,398.865,308.076,398.778,308.076L398.778,308.076z M398.589,307.806
					c-0.077-0.113-0.092-0.275-0.025-0.488c0.031-0.094,0.147-0.401,0.365-0.401c0.027,0.009,0.052,0.018,0.075,0.029
					c-0.009,0-0.014,0-0.02,0c-0.267,0-0.378,0.286-0.406,0.377C398.509,307.536,398.526,307.697,398.589,307.806L398.589,307.806z"
					/>
			</g>
			<path clip-path="url(#SVGID_4_)" fill="#F4CD2E" d="M400.14,308.081c0.019,0.12,0.02,0.205,0.162,0.23l-0.009,0.054l-0.551-0.091
				l0.01-0.051c0.101,0.011,0.126-0.003,0.135-0.052c0.003-0.031,0-0.064-0.004-0.096l-0.028-0.193l-0.399-0.065l-0.05,0.091
				c-0.021,0.043-0.047,0.085-0.053,0.131c-0.014,0.079,0.054,0.125,0.123,0.139l-0.009,0.055l-0.417-0.068l0.008-0.055
				c0.153-0.017,0.198-0.091,0.266-0.213l0.436-0.775l0.24-0.037L400.14,308.081z M399.765,307.266l-0.267,0.48l0.344,0.057
				L399.765,307.266z"/>
			<g clip-path="url(#SVGID_4_)">
				<path fill="#010101" d="M400.292,308.371l-0.551-0.088l0.139-0.108c-0.013,0.052-0.036,0.06-0.074,0.06l0.482,0.12l0.005-0.043
					c-0.13-0.017-0.142-0.097-0.156-0.207l-0.145-1.021l-0.231,0.046l-0.43,0.772c-0.048,0.085-0.085,0.147-0.153,0.182
					c0.06-0.051,0.094-0.11,0.139-0.19l0.438-0.775l0.244-0.04l0.15,1c0.018,0.131,0.029,0.202,0.154,0.228L400.292,308.371
					L400.292,308.371z M399.478,308.172h-0.072c-0.04-0.036-0.07-0.079-0.06-0.136c0.007-0.046,0.031-0.091,0.052-0.131l0.051-0.094
					l0.406,0.062l0.034,0.202c0,0.039-0.003,0.07-0.008,0.094h-0.003l-0.031-0.287l-0.392-0.061l-0.042,0.092
					c-0.021,0.037-0.046,0.082-0.051,0.125C399.345,308.133,399.447,308.164,399.478,308.172L399.478,308.172z"/>
			</g>
			<path clip-path="url(#SVGID_4_)" fill="#F4CD2E" d="M401.773,307.471l-0.069,0.025c-0.078-0.147-0.22-0.307-0.4-0.296
				c-0.241,0.015-0.276,0.327-0.266,0.515c0.024,0.387,0.224,0.537,0.4,0.525c0.156-0.008,0.25-0.125,0.324-0.25l0.046,0.028
				c-0.098,0.202-0.239,0.339-0.47,0.353c-0.315,0.02-0.552-0.235-0.571-0.543c-0.02-0.332,0.182-0.67,0.508-0.69
				c0.058-0.003,0.104,0.006,0.146,0.018c0.041,0.011,0.073,0.022,0.104,0.02c0.043-0.003,0.08-0.025,0.115-0.045l0.016-0.009
				L401.773,307.471z"/>
			<g clip-path="url(#SVGID_4_)">
				<path fill="#010101" d="M401.305,308.38c-0.293,0-0.525-0.236-0.544-0.552c-0.018-0.318,0.172-0.676,0.516-0.695
					c0.077-0.026,0.115,0.008,0.147,0.017l0.103,0.017c0.037,0,0.071-0.02,0.103-0.036l0.006,0.008
					c-0.04,0.028-0.071,0.043-0.108,0.046l-0.104-0.02c-0.035-0.009-0.074-0.018-0.119-0.018c-0.358,0.02-0.546,0.369-0.526,0.682
					c0.017,0.305,0.245,0.537,0.528,0.537v0.006l0.034-0.009c0.122-0.008,0.225-0.051,0.31-0.13
					c-0.076,0.094-0.182,0.139-0.309,0.145L401.305,308.38L401.305,308.38z M401.438,308.246c-0.185,0-0.384-0.139-0.407-0.531
					c-0.014-0.244,0.053-0.509,0.272-0.52h0.001c0.128,0,0.225,0.064,0.295,0.139c-0.078-0.065-0.167-0.125-0.276-0.125
					c-0.291,0.015-0.282,0.424-0.276,0.506c0.022,0.381,0.215,0.518,0.371,0.518c0.176-0.009,0.265-0.123,0.339-0.248
					c-0.009,0.037-0.017,0.071-0.027,0.1C401.65,308.164,401.563,308.24,401.438,308.246L401.438,308.246L401.438,308.246z"/>
			</g>
			<path clip-path="url(#SVGID_4_)" fill="#F4CD2E" d="M401.994,308.232c0.111-0.026,0.144-0.068,0.116-0.18l-0.172-0.753
				c-0.025-0.107-0.071-0.134-0.185-0.107l-0.009-0.052l0.933-0.219l0.162,0.271l-0.043,0.031c-0.134-0.114-0.321-0.19-0.499-0.151
				c-0.138,0.034-0.126,0.08-0.101,0.196l0.07,0.304l0.031-0.005c0.154-0.037,0.217-0.08,0.233-0.25l0.06-0.015l0.105,0.455
				l-0.061,0.014c-0.078-0.15-0.166-0.168-0.318-0.131l-0.033,0.006l0.075,0.332c0.021,0.089,0.044,0.148,0.155,0.123
				c0.189-0.046,0.338-0.193,0.424-0.364l0.047,0.012l-0.048,0.318l-0.932,0.219L401.994,308.232z"/>
			<g clip-path="url(#SVGID_4_)">
				<path fill="#010101" d="M402.001,308.295l-0.015-0.061c0.062-0.022,0.098-0.039,0.113-0.067c0.016-0.023,0.017-0.06,0.004-0.111
					l-0.174-0.753c-0.017-0.082-0.045-0.11-0.104-0.11l0.032-0.012c0.056,0.022,0.076,0.06,0.087,0.119l0.173,0.753
					c0.015,0.055,0.012,0.094-0.006,0.122c-0.018,0.031-0.053,0.052-0.115,0.065l0.008,0.037l0.939-0.27l0.002,0.06L402.001,308.295
					L402.001,308.295z M402.498,308.109c-0.11,0-0.131-0.06-0.145-0.131l-0.075-0.329c0.244-0.082,0.239-0.037,0.302,0.028
					c-0.083-0.048-0.136-0.057-0.261-0.031l0.048,0.33c0.02,0.082,0.039,0.122,0.1,0.122c0.218-0.046,0.369-0.177,0.467-0.366
					l0.002,0.073c-0.122,0.153-0.263,0.265-0.419,0.302C402.512,308.109,402.504,308.109,402.498,308.109L402.498,308.109z
					 M402.231,307.385l-0.042-0.113c-0.026-0.119-0.037-0.17,0.107-0.204c0.142-0.012,0.252,0.011,0.345,0.051
					c-0.089-0.028-0.169-0.048-0.245-0.048c-0.228,0.042-0.218,0.082-0.191,0.195L402.231,307.385L402.231,307.385z"/>
			</g>
			<path clip-path="url(#SVGID_4_)" fill="#F4CD2E" d="M403.986,307.26l-0.213-0.491c-0.055-0.122-0.096-0.19-0.246-0.136
				l-0.021-0.052l0.382-0.17l0.022,0.048c-0.129,0.085-0.116,0.147-0.06,0.275l0.353,0.821l-0.133,0.057l-0.944-0.576l0.241,0.565
				c0.071,0.158,0.103,0.185,0.27,0.147l0.021,0.048l-0.411,0.182l-0.023-0.048c0.133-0.085,0.138-0.14,0.08-0.275l-0.293-0.677
				c-0.062-0.031-0.139-0.042-0.209-0.028l-0.021-0.048l0.369-0.162L403.986,307.26z"/>
			<g clip-path="url(#SVGID_4_)">
				<path fill="#010101" d="M403.242,307.99l-0.025-0.057c0.131-0.091,0.134-0.143,0.078-0.275l-0.291-0.677
					c-0.039-0.017-0.09-0.028-0.141-0.028l-0.054-0.039c0.114,0.025,0.163,0.036,0.204,0.06l0.296,0.679
					c0.058,0.137,0.056,0.199-0.081,0.284l0.014,0.037l0.092-0.04L403.242,307.99L403.242,307.99z M403.586,307.771
					c-0.025-0.006-0.041-0.003-0.055,0c-0.087,0-0.118-0.051-0.17-0.168l-0.244-0.564l0.958,0.568l0.125-0.061l-0.358-0.807
					c-0.039-0.091-0.057-0.15-0.021-0.207c-0.018,0.065-0.001,0.116,0.036,0.198l0.354,0.821l-0.136,0.068l-0.954-0.58l0.255,0.558
					c0.071,0.161,0.077,0.185,0.259,0.142L403.586,307.771L403.586,307.771z M403.992,307.258l-0.846-0.512l-0.354,0.159
					l-0.016-0.009l0.369-0.165l0.844,0.523l-0.225-0.48c-0.04-0.094-0.071-0.153-0.149-0.153l-0.047-0.022l0.047,0.008
					c0.087,0,0.124,0.065,0.163,0.159L403.992,307.258L403.992,307.258z"/>
			</g>
			<path clip-path="url(#SVGID_4_)" fill="#F4CD2E" d="M404.734,305.82l0.25,0.219l-0.037,0.045c-0.131-0.057-0.332-0.1-0.461-0.017
				l0.511,0.753c0.062,0.094,0.115,0.102,0.209,0.033l0.028,0.046l-0.469,0.324l-0.028-0.046c0.094-0.062,0.106-0.116,0.044-0.207
				l-0.509-0.753c-0.12,0.104-0.153,0.278-0.149,0.435l-0.059,0.02l-0.114-0.31L404.734,305.82z"/>
			<g clip-path="url(#SVGID_4_)">
				<path fill="#010101" d="M404.763,307.234l-0.031-0.051c0.094-0.074,0.104-0.122,0.044-0.21l-0.51-0.753
					c-0.117,0.113-0.139,0.298-0.134,0.432l-0.04-0.06c0.031-0.137,0.065-0.284,0.176-0.381l0.521,0.753
					c0.063,0.094,0.052,0.153-0.047,0.219l0.021,0.034l0.104-0.074L404.763,307.234L404.763,307.234z M405.102,306.905
					c-0.039,0-0.073-0.025-0.111-0.08l-0.509-0.753c0.085-0.073,0.216-0.07,0.36-0.033c-0.162-0.003-0.271-0.018-0.351,0.033
					l0.512,0.745c0.062,0.091,0.106,0.097,0.198,0.031l-0.059,0.054C405.128,306.905,405.115,306.905,405.102,306.905
					L405.102,306.905z M403.967,306.405l-0.023-0.04l0.788-0.551l0.259,0.219c-0.025,0.003-0.051,0.006-0.074,0.006l-0.186-0.214
					l-0.775,0.546L403.967,306.405L403.967,306.405z"/>
			</g>
			<path clip-path="url(#SVGID_4_)" fill="#F4CD2E" d="M406.094,305.758c0.117,0.036,0.226,0.067,0.331-0.021l0.035,0.04
				l-0.28,0.275c-0.048-0.012-0.094-0.031-0.142-0.048l-0.206-0.077c-0.211-0.079-0.268-0.048-0.313,0l0.247,0.256
				c0.08,0.079,0.131,0.076,0.213-0.006l0.037,0.04l-0.406,0.4l-0.037-0.037c0.082-0.079,0.086-0.134,0.009-0.213l-0.536-0.554
				c-0.078-0.08-0.132-0.077-0.214,0.003l-0.036-0.037l0.488-0.483c0.168-0.167,0.36-0.176,0.479-0.057
				c0.12,0.128,0.069,0.296-0.021,0.426c0.059-0.014,0.116,0.009,0.172,0.029L406.094,305.758z M405.486,305.852
				c0.188-0.186,0.186-0.305,0.066-0.427c-0.113-0.116-0.218-0.091-0.338,0.028c-0.077,0.074-0.052,0.108,0.011,0.171l0.24,0.25
				L405.486,305.852z"/>
			<g clip-path="url(#SVGID_4_)">
				<path fill="#010101" d="M405.609,306.63l-0.043-0.043c0.08-0.088,0.082-0.137,0.009-0.213l-0.536-0.554
					c-0.076-0.077-0.117-0.077-0.203,0.002l0.055-0.062c0.064-0.02,0.1-0.011,0.159,0.049l0.536,0.554
					c0.08,0.083,0.077,0.14-0.008,0.225l0.025,0.028l0.091-0.091L405.609,306.63L405.609,306.63z M405.867,306.249
					c-0.032,0-0.064-0.021-0.107-0.062l-0.247-0.256c0.056-0.074,0.134-0.082,0.321-0.009l0.346,0.131l-0.005-0.003l0.062-0.062
					l-0.054,0.074l-0.354-0.125c-0.182-0.068-0.255-0.06-0.307-0.006l0.248,0.247c0.078,0.08,0.119,0.08,0.201-0.006l-0.051,0.065
					C405.902,306.246,405.885,306.249,405.867,306.249L405.867,306.249z M405.491,305.856l-0.005-0.005
					c0.191-0.208,0.162-0.315,0.061-0.421c-0.103-0.105-0.199-0.097-0.326,0.028c-0.072,0.068-0.052,0.094,0.011,0.162l0.1,0.1
					l-0.11-0.091c-0.062-0.065-0.092-0.103-0.012-0.183c0.135-0.133,0.238-0.142,0.35-0.025
					C405.689,305.553,405.669,305.681,405.491,305.856L405.491,305.856z M406.271,305.803c-0.057,0-0.117-0.02-0.18-0.037
					l-0.182-0.062c-0.045-0.017-0.091-0.034-0.133-0.034c0-0.011,0.017-0.005,0.026-0.005c0.044,0,0.077,0.011,0.109,0.022
					l0.183,0.065c0.123,0.034,0.234,0.057,0.323-0.021l-0.038,0.055C406.342,305.794,406.309,305.803,406.271,305.803
					L406.271,305.803z M405.801,305.575c0.027-0.097,0.056-0.224-0.044-0.329c-0.119-0.119-0.315-0.097-0.469,0.057l-0.109,0.108
					l0.099-0.12c0.162-0.158,0.366-0.182,0.49-0.057C405.872,305.346,405.846,305.479,405.801,305.575L405.801,305.575z"/>
			</g>
			<path clip-path="url(#SVGID_4_)" fill="#F4CD2E" d="M406.904,304.712c0.113,0.037,0.189,0.071,0.273-0.043l0.043,0.031
				l-0.322,0.458l-0.042-0.031c0.057-0.086,0.052-0.117,0.015-0.146c-0.024-0.017-0.057-0.028-0.087-0.036l-0.187-0.062
				l-0.234,0.332l0.062,0.088c0.025,0.037,0.056,0.08,0.091,0.105c0.065,0.045,0.133,0.003,0.178-0.052l0.043,0.034l-0.244,0.344
				l-0.042-0.028c0.05-0.145,0.006-0.219-0.073-0.338l-0.492-0.739l0.074-0.232L406.904,304.712z M406.018,304.691l0.303,0.455
				l0.201-0.287L406.018,304.691z"/>
			<g clip-path="url(#SVGID_4_)">
				<path fill="#010101" d="M406.494,305.746l-0.05-0.034c0.046-0.147,0.007-0.216-0.073-0.338l-0.492-0.739l0.072-0.238
					l0.957,0.307c0.145,0.051,0.195,0.055,0.264-0.037l-0.037,0.068c-0.069,0.028-0.132,0.018-0.216-0.012l-0.963-0.317
					l-0.065,0.228l0.492,0.732c0.084,0.125,0.124,0.196,0.073,0.341l0.03,0.025l0.055-0.076L406.494,305.746L406.494,305.746z
					 M406.575,305.434c-0.1-0.046-0.13-0.085-0.156-0.125l-0.062-0.091l0.235-0.339l0.193,0.061c0.035,0.017,0.062,0.034,0.08,0.048
					l-0.269-0.097l-0.228,0.327l0.062,0.082c0.027,0.037,0.056,0.077,0.09,0.103c0.088,0.014,0.131-0.006,0.166-0.051l-0.027,0.057
					C406.632,305.422,406.605,305.434,406.575,305.434L406.575,305.434z M406.328,305.149l-0.33-0.472l0.525,0.174L406.328,305.149
					L406.328,305.149z"/>
			</g>
			<path clip-path="url(#SVGID_4_)" fill="#F4CD2E" d="M407.203,304.604c0.05-0.104,0.035-0.156-0.062-0.207l-0.685-0.344
				c-0.101-0.051-0.149-0.028-0.199,0.074l-0.048-0.023l0.252-0.514l0.047,0.022c-0.049,0.105-0.035,0.156,0.062,0.204l0.688,0.344
				c0.085,0.043,0.122,0.062,0.173-0.045c0.089-0.176,0.046-0.384-0.025-0.557l0.029-0.028l0.24,0.229l-0.426,0.867L407.203,304.604
				z"/>
			<g clip-path="url(#SVGID_4_)">
				<path fill="#010101" d="M407.252,304.638l-0.053-0.028c0.047-0.11,0.032-0.159-0.062-0.204l-0.684-0.344
					c-0.122-0.026-0.156,0.003-0.19,0.067l0.03-0.082c0.026-0.017,0.049-0.028,0.074-0.028l0.776,0.372
					c0.103,0.051,0.119,0.105,0.065,0.216l0.033,0.018l0.424-0.867l-0.043-0.039l0.055,0.036L407.252,304.638L407.252,304.638z
					 M407.348,304.203l-0.781-0.378c-0.068-0.037-0.098-0.071-0.094-0.125c0.015,0.052,0.043,0.08,0.102,0.111l0.686,0.344
					c0.118,0.034,0.138,0.011,0.162-0.043c0.075-0.147,0.066-0.332-0.025-0.551l0.049,0.034c0.059,0.213,0.062,0.383-0.01,0.522
					C407.409,304.178,407.382,304.203,407.348,304.203L407.348,304.203z"/>
			</g>
			<path clip-path="url(#SVGID_4_)" fill="#F4CD2E" d="M407.319,302.976c0.022-0.076,0.106-0.119,0.183-0.094
				c0.076,0.023,0.119,0.105,0.096,0.183c-0.025,0.079-0.107,0.122-0.185,0.096C407.336,303.138,407.294,303.053,407.319,302.976
				L407.319,302.976z"/>
			<g clip-path="url(#SVGID_4_)">
				<path fill="#010101" d="M407.457,303.175l-0.047-0.006c-0.078-0.025-0.125-0.113-0.098-0.193
					c0.019-0.065,0.08-0.107,0.145-0.107c0.128,0.031,0.172,0.119,0.146,0.198C407.584,303.132,407.525,303.175,407.457,303.175
					L407.457,303.175z"/>
			</g>
			<path clip-path="url(#SVGID_4_)" fill="#F4CD2E" d="M394.375,301.533c0.1-0.077,0.188-0.146,0.176-0.285l0.053-0.005l0.061,0.392
				c-0.037,0.034-0.083,0.06-0.122,0.088l-0.181,0.125c-0.189,0.125-0.194,0.19-0.186,0.256l0.351-0.054
				c0.111-0.017,0.138-0.062,0.121-0.176l0.053-0.009l0.086,0.568l-0.051,0.008c-0.017-0.116-0.058-0.147-0.167-0.13l-0.756,0.119
				c-0.111,0.017-0.139,0.062-0.121,0.176l-0.053,0.009l-0.105-0.682c-0.036-0.236,0.068-0.4,0.233-0.427
				c0.173-0.025,0.277,0.114,0.33,0.262c0.026-0.054,0.077-0.088,0.125-0.122L394.375,301.533z M394.099,302.087
				c-0.04-0.262-0.138-0.327-0.303-0.299c-0.159,0.023-0.202,0.122-0.176,0.296c0.017,0.103,0.057,0.103,0.147,0.088l0.335-0.054
				L394.099,302.087z"/>
			<g clip-path="url(#SVGID_4_)">
				<path fill="#010101" d="M393.633,302.615l-0.105-0.679c-0.035-0.233,0.062-0.407,0.237-0.435
					c0.193-0.026,0.303,0.164,0.338,0.264c0.013-0.054,0.062-0.088,0.109-0.122l0.161-0.116c0.098-0.077,0.183-0.143,0.17-0.275
					l0.028,0.079c-0.042,0.094-0.114,0.15-0.19,0.207l-0.155,0.114c-0.053,0.037-0.098,0.07-0.124,0.119
					c-0.048-0.097-0.131-0.259-0.295-0.259c-0.209,0.028-0.298,0.196-0.265,0.421l0.104,0.673l0.044-0.009
					c-0.017-0.054-0.011-0.094,0.008-0.122c0.021-0.028,0.056-0.042,0.114-0.051l0.753-0.122c0.074-0.015,0.125,0.014,0.151,0.051
					c-0.033-0.028-0.06-0.039-0.103-0.039l-0.801,0.125c-0.051,0.008-0.083,0.022-0.101,0.045c-0.019,0.025-0.021,0.062-0.013,0.122
					L393.633,302.615L393.633,302.615z M393.736,302.181c-0.092,0-0.114-0.028-0.125-0.097c-0.014-0.103-0.006-0.176,0.031-0.228
					c0.031-0.04,0.08-0.065,0.15-0.076l0.065-0.006c0.14,0,0.215,0.094,0.248,0.312h-0.009c-0.042-0.213-0.112-0.299-0.239-0.299
					v-0.005l-0.062,0.011c-0.066,0.012-0.112,0.034-0.141,0.074c-0.034,0.045-0.044,0.116-0.027,0.213
					c0.011,0.077,0.034,0.091,0.075,0.091l0.214-0.034l-0.15,0.04C393.756,302.181,393.746,302.181,393.736,302.181L393.736,302.181
					z M394.178,302.112c-0.019-0.074-0.013-0.142,0.18-0.27l0.181-0.126c0.064-0.042,0.094-0.064,0.121-0.088l-0.011-0.064
					l0.022,0.067c-0.028,0.034-0.06,0.054-0.091,0.077l-0.213,0.145c-0.185,0.125-0.192,0.188-0.182,0.25l0.341-0.06
					c0.105-0.017,0.132-0.057,0.113-0.17l0.027,0.097c-0.023,0.051-0.062,0.076-0.138,0.088L394.178,302.112L394.178,302.112z"/>
			</g>
			<path clip-path="url(#SVGID_4_)" fill="#F4CD2E" d="M394.561,301.186c0.002-0.116-0.031-0.156-0.142-0.161l-0.764-0.031
				c-0.111-0.003-0.148,0.036-0.151,0.153l-0.053-0.003l0.036-0.969l0.301-0.091l0.02,0.051c-0.144,0.103-0.267,0.265-0.274,0.449
				c-0.004,0.142,0.042,0.145,0.159,0.147l0.31,0.015l0.001-0.034c0.007-0.159-0.017-0.23-0.176-0.293l0.003-0.062l0.458,0.017
				l-0.001,0.062c-0.163,0.04-0.2,0.12-0.208,0.276l-0.001,0.034l0.334,0.014c0.092,0.003,0.155-0.003,0.158-0.116
				c0.008-0.202-0.097-0.381-0.234-0.512l0.024-0.042l0.29,0.13l-0.037,0.966H394.561z"/>
			<g clip-path="url(#SVGID_4_)">
				<path fill="#010101" d="M394.62,301.194h-0.06c-0.004-0.122-0.036-0.159-0.142-0.162l-0.764-0.031
					c-0.07,0.003-0.14,0.034-0.144,0.146l-0.004-0.105c0.031-0.04,0.069-0.054,0.133-0.054l0.78,0.028
					c0.115,0.006,0.152,0.048,0.147,0.17h0.037l0.035-0.966l-0.045-0.02l0.057,0.012L394.62,301.194L394.62,301.194z
					 M394.433,300.769l-0.355-0.015c0-0.128,0.015-0.213,0.076-0.264c-0.05,0.065-0.062,0.131-0.067,0.222l0.325,0.039
					c0.001,0,0.001,0,0.003,0c0.104,0,0.145-0.017,0.149-0.107c0.009-0.241-0.142-0.421-0.233-0.509l0.062,0.018
					c0.083,0.116,0.193,0.281,0.185,0.491C394.573,300.76,394.506,300.769,394.433,300.769L394.433,300.769z M393.691,300.74
					c-0.117-0.006-0.169-0.006-0.165-0.156c0.004-0.108,0.049-0.216,0.125-0.312c-0.064,0.107-0.105,0.213-0.111,0.312
					c-0.003,0.136,0.035,0.136,0.153,0.142l0.119,0.003L393.691,300.74L393.691,300.74z"/>
			</g>
			<path clip-path="url(#SVGID_4_)" fill="#F4CD2E" d="M394.231,299.521l0.327,0.073c0.108,0.026,0.15-0.005,0.176-0.119l0.05,0.012
				l-0.124,0.562l-0.051-0.015c0.026-0.11,0-0.159-0.109-0.182l-0.746-0.17c-0.108-0.023-0.15,0.005-0.176,0.119l-0.05-0.009
				l0.124-0.565c0.077-0.353,0.253-0.451,0.406-0.415c0.284,0.062,0.25,0.35,0.202,0.571L394.231,299.521z M394.17,299.51
				l0.02-0.094c0.042-0.188-0.007-0.29-0.189-0.332c-0.169-0.037-0.264,0.039-0.295,0.185c-0.028,0.128,0.02,0.139,0.126,0.165
				L394.17,299.51z"/>
			<g clip-path="url(#SVGID_4_)">
				<path fill="#010101" d="M394.666,300.059l-0.06-0.015c0.008-0.068,0.007-0.105-0.009-0.131c-0.017-0.025-0.047-0.04-0.099-0.054
					l-0.748-0.168c-0.119,0-0.147,0.025-0.165,0.114l0.008-0.091c0.028-0.031,0.058-0.046,0.1-0.046l0.807,0.176
					c0.057,0.015,0.091,0.031,0.108,0.06c0.02,0.031,0.021,0.071,0.007,0.134l0.037,0.009l0.028-0.128L394.666,300.059
					L394.666,300.059z M394.617,299.609L394.617,299.609l-0.389-0.082l0.024-0.143c0.054-0.244,0.071-0.506-0.197-0.565
					c-0.215-0.009-0.338,0.146-0.398,0.412l-0.028,0.128l0.014-0.131c0.061-0.272,0.19-0.429,0.355-0.429
					c0.342,0.068,0.324,0.335,0.27,0.588l-0.031,0.137l0.324,0.065c0.119-0.006,0.145-0.026,0.165-0.114l-0.008,0.091
					C394.687,299.598,394.657,299.609,394.617,299.609L394.617,299.609z M393.83,299.438c-0.105-0.022-0.162-0.036-0.133-0.17
					c0.028-0.131,0.105-0.202,0.221-0.202l0.084,0.012c0.181,0.043,0.24,0.142,0.195,0.341h-0.011
					c0.027-0.213-0.031-0.293-0.188-0.327l-0.08-0.008c-0.109,0-0.179,0.062-0.206,0.188c-0.027,0.119,0.016,0.131,0.121,0.153
					l0.051,0.011L393.83,299.438L393.83,299.438z"/>
			</g>
			<path clip-path="url(#SVGID_4_)" fill="#F4CD2E" d="M394.64,298.541c0.267,0.113,0.376,0.06,0.443-0.1
				c0.087-0.216-0.019-0.335-0.231-0.426l-0.516-0.211c-0.103-0.042-0.15-0.02-0.193,0.086l-0.05-0.018l0.149-0.366l0.048,0.02
				c-0.045,0.105-0.026,0.156,0.077,0.199l0.527,0.219c0.254,0.105,0.345,0.275,0.228,0.565c-0.118,0.296-0.311,0.387-0.539,0.293
				l-0.558-0.23c-0.104-0.043-0.149-0.02-0.193,0.088l-0.048-0.02l0.215-0.531l0.048,0.02c-0.042,0.105-0.025,0.156,0.077,0.199
				L394.64,298.541z"/>
			<g clip-path="url(#SVGID_4_)">
				<path fill="#010101" d="M394.748,298.845c-0.054,0-0.109-0.011-0.168-0.034l-0.56-0.232c-0.121-0.02-0.15,0.012-0.182,0.085
					l0.022-0.085c0.028-0.023,0.053-0.034,0.083-0.034l0.642,0.253c0.229,0.094,0.415-0.009,0.528-0.29
					c0.057-0.142,0.065-0.256,0.025-0.347c-0.037-0.085-0.118-0.153-0.25-0.207l-0.525-0.219c-0.054-0.023-0.085-0.049-0.097-0.08
					c-0.008-0.02-0.01-0.045-0.003-0.073c0.009,0.031,0.009,0.051,0.017,0.07c0.012,0.026,0.037,0.049,0.088,0.068l0.527,0.219
					c0.135,0.054,0.219,0.125,0.257,0.216c0.042,0.097,0.034,0.213-0.026,0.358C395.041,298.731,394.91,298.845,394.748,298.845
					L394.748,298.845z M394.874,298.609L394.874,298.609c-0.063,0-0.141-0.02-0.237-0.062l-0.517-0.213
					c-0.07-0.029-0.103-0.062-0.103-0.114c0.017,0.049,0.048,0.077,0.108,0.1l0.517,0.213c0.094,0.043,0.17,0.062,0.231,0.062l0,0
					c0.095,0,0.158-0.048,0.202-0.156c0.077-0.19,0.01-0.315-0.228-0.415l-0.516-0.213c-0.125-0.02-0.153,0.009-0.182,0.083
					l0.017-0.08c0.028-0.025,0.054-0.037,0.085-0.037l0.601,0.233c0.243,0.103,0.316,0.236,0.236,0.435
					C395.043,298.559,394.975,298.609,394.874,298.609L394.874,298.609z"/>
			</g>
			<path clip-path="url(#SVGID_4_)" fill="#F4CD2E" d="M395.288,298.016l-0.042-0.028c0.06-0.097,0.051-0.151-0.043-0.211
				l-0.645-0.414c-0.094-0.06-0.145-0.046-0.208,0.051l-0.044-0.028l0.311-0.488c0.216-0.347,0.369-0.355,0.489-0.279
				c0.139,0.089,0.112,0.273,0.062,0.406l0.002,0.003c0.123-0.133,0.276-0.253,0.458-0.136c0.156,0.102,0.188,0.284,0.023,0.548
				L395.288,298.016z M395.003,297.229c0.105-0.171,0.097-0.284-0.041-0.372c-0.141-0.091-0.237-0.037-0.32,0.094
				c-0.019,0.031-0.042,0.076-0.034,0.11c0.009,0.031,0.037,0.049,0.062,0.062l0.284,0.182L395.003,297.229z M395.299,297.526
				c0.117,0.074,0.165,0.111,0.253-0.031c0.083-0.13,0.08-0.27-0.092-0.38c-0.118-0.077-0.237-0.097-0.395,0.153l-0.048,0.076
				L395.299,297.526z"/>
			<g clip-path="url(#SVGID_4_)">
				<path fill="#010101" d="M395.291,298.026l-0.051-0.034c0.057-0.104,0.048-0.153-0.042-0.21l-0.642-0.415
					c-0.129-0.033-0.159-0.008-0.197,0.052l0.035-0.08c0.027-0.014,0.048-0.02,0.071-0.02l0.098,0.037l0.644,0.415
					c0.097,0.06,0.108,0.119,0.046,0.221l0.031,0.021l0.362-0.58c0.154-0.244,0.146-0.429-0.02-0.536
					c-0.169-0.105-0.34,0.017-0.448,0.133c0-0.003,0.001-0.006,0.003-0.008c0.1-0.128,0.278-0.248,0.452-0.137
					c0.173,0.11,0.182,0.307,0.026,0.557L395.291,298.026L395.291,298.026z M395.438,297.601c-0.04,0-0.08-0.025-0.135-0.062
					l-0.291-0.188c0.203-0.344,0.284-0.35,0.452-0.241c0.2,0.128,0.162,0.281,0.094,0.392
					C395.515,297.569,395.478,297.601,395.438,297.601L395.438,297.601z M395.319,297.069c-0.083,0-0.162,0.065-0.247,0.202
					l0.23,0.25c0.128,0.079,0.164,0.096,0.245-0.029c0.091-0.147,0.06-0.275-0.091-0.372
					C395.403,297.086,395.36,297.069,395.319,297.069L395.319,297.069z M395.009,297.234l-0.011-0.006
					c0.099-0.196,0.079-0.29-0.04-0.366c-0.125-0.08-0.217-0.055-0.31,0.091c-0.01,0.017-0.024,0.045-0.031,0.068
					c-0.004-0.034,0.008-0.058,0.019-0.077c0.098-0.15,0.2-0.179,0.331-0.094C395.107,296.938,395.12,297.055,395.009,297.234
					L395.009,297.234z M394.553,297.01l0.055-0.119c0.185-0.293,0.341-0.384,0.5-0.278c0.154,0.097,0.108,0.295,0.073,0.395
					c0.02-0.103,0.061-0.293-0.081-0.384c-0.153-0.097-0.298-0.008-0.477,0.275L394.553,297.01L394.553,297.01z"/>
			</g>
			<path clip-path="url(#SVGID_4_)" fill="#F4CD2E" d="M395.887,296.987c0.075-0.086,0.077-0.14-0.006-0.214l-0.567-0.52
				c-0.082-0.076-0.135-0.071-0.211,0.018l-0.039-0.037l0.381-0.427l0.038,0.037c-0.076,0.083-0.076,0.14,0.006,0.216l0.568,0.518
				c0.068,0.065,0.1,0.091,0.179,0.003c0.134-0.146,0.146-0.355,0.123-0.543l0.04-0.02l0.167,0.289l-0.642,0.716L395.887,296.987z"
				/>
			<g clip-path="url(#SVGID_4_)">
				<path fill="#010101" d="M395.924,297.035l-0.042-0.043c0.04-0.054,0.057-0.088,0.054-0.119c0-0.028-0.02-0.06-0.059-0.094
					l-0.566-0.52c-0.083-0.074-0.125-0.071-0.202,0.017l0.048-0.067c0.063-0.026,0.1-0.018,0.162,0.036l0.568,0.523
					c0.042,0.039,0.062,0.07,0.064,0.104s-0.016,0.071-0.06,0.119l0.027,0.026l0.642-0.716l-0.028-0.049l0.04,0.049L395.924,297.035
					L395.924,297.035z M396.15,296.646c-0.031,0-0.058-0.023-0.098-0.062l-0.568-0.518c-0.057-0.054-0.075-0.097-0.058-0.147
					c0.001,0.054,0.02,0.088,0.07,0.134l0.567,0.52c0.038,0.037,0.062,0.057,0.088,0.057c0.192-0.173,0.231-0.355,0.202-0.591
					l0.041,0.048c-0.002,0.222-0.048,0.387-0.15,0.5C396.205,296.626,396.177,296.646,396.15,296.646L396.15,296.646z"/>
			</g>
			<path clip-path="url(#SVGID_4_)" fill="#F4CD2E" d="M396.157,295.393c-0.07-0.085-0.123-0.088-0.21-0.014l-0.034-0.043
				l0.436-0.366l0.034,0.04c-0.088,0.076-0.097,0.128-0.024,0.216l0.487,0.594c0.073,0.088,0.125,0.088,0.213,0.015l0.033,0.039
				l-0.438,0.367l-0.031-0.04c0.085-0.074,0.094-0.125,0.024-0.213L396.157,295.393z"/>
			<g clip-path="url(#SVGID_4_)">
				<path fill="#010101" d="M396.654,296.251l-0.037-0.045c0.085-0.083,0.091-0.131,0.023-0.214l-0.489-0.594
					c-0.068-0.088-0.112-0.091-0.199-0.014l0.054-0.06c0.064-0.015,0.101-0.006,0.158,0.062l0.489,0.594
					c0.072,0.091,0.067,0.147-0.024,0.225l0.023,0.028l0.098-0.083L396.654,296.251L396.654,296.251z M396.951,295.894
					c-0.037,0-0.071-0.021-0.111-0.068l-0.487-0.597c-0.05-0.06-0.062-0.103-0.04-0.15c-0.006,0.051,0.008,0.091,0.051,0.142
					l0.489,0.594c0.068,0.085,0.109,0.088,0.202,0.015l-0.054,0.06C396.981,295.891,396.967,295.894,396.951,295.894
					L396.951,295.894z"/>
			</g>
			<path clip-path="url(#SVGID_4_)" fill="#F4CD2E" d="M397.522,294.583l-0.048,0.058c-0.138-0.092-0.339-0.162-0.493-0.065
				c-0.203,0.133-0.085,0.423,0.014,0.579c0.205,0.33,0.452,0.361,0.603,0.265c0.132-0.083,0.159-0.23,0.165-0.375l0.051,0.003
				c0.011,0.221-0.045,0.412-0.242,0.537c-0.264,0.17-0.595,0.064-0.758-0.196c-0.176-0.281-0.161-0.674,0.116-0.853
				c0.048-0.031,0.094-0.046,0.134-0.057c0.04-0.012,0.077-0.018,0.102-0.034c0.034-0.022,0.057-0.06,0.08-0.094l0.009-0.018
				L397.522,294.583z"/>
			<g clip-path="url(#SVGID_4_)">
				<path fill="#010101" d="M397.293,295.675c-0.19,0-0.378-0.108-0.486-0.284c-0.169-0.271-0.172-0.677,0.119-0.864
					c0.051-0.031,0.097-0.045,0.134-0.054l0.102-0.034c0.03-0.02,0.051-0.054,0.071-0.085l0.008,0.006
					c-0.022,0.042-0.042,0.07-0.072,0.091l-0.104,0.036c-0.037,0.009-0.083,0.023-0.131,0.055c-0.284,0.182-0.281,0.579-0.115,0.844
					c0.161,0.256,0.504,0.35,0.749,0.193c0.105-0.068,0.175-0.159,0.21-0.273c-0.02,0.119-0.092,0.214-0.202,0.284
					C397.489,295.644,397.393,295.675,397.293,295.675L397.293,295.675z M397.433,295.476c-0.092,0-0.272-0.043-0.443-0.315
					c-0.128-0.207-0.199-0.472-0.013-0.591c0.111-0.074,0.274-0.049,0.388,0.003c-0.126-0.028-0.275-0.055-0.379,0.011
					c-0.229,0.148-0.027,0.501,0.016,0.568c0.277,0.44,0.474,0.339,0.591,0.262c0.133-0.085,0.156-0.233,0.162-0.369
					c0.011,0.034,0.02,0.067,0.024,0.099c-0.033,0.108-0.071,0.217-0.178,0.281C397.552,295.459,397.494,295.476,397.433,295.476
					L397.433,295.476z"/>
			</g>
			<path clip-path="url(#SVGID_4_)" fill="#F4CD2E" d="M398.812,294.666c0.077,0.094,0.121,0.164,0.256,0.113l0.021,0.051
				l-0.519,0.211l-0.02-0.049c0.092-0.042,0.109-0.07,0.091-0.113c-0.013-0.028-0.036-0.057-0.053-0.082l-0.125-0.151l-0.375,0.153
				l0.007,0.108c0.001,0.043,0.004,0.094,0.02,0.137c0.03,0.076,0.111,0.076,0.178,0.054l0.02,0.051l-0.392,0.159l-0.019-0.048
				c0.121-0.097,0.121-0.182,0.117-0.324l-0.024-0.889l0.185-0.159L398.812,294.666z M398.075,294.169l0.017,0.548l0.321-0.134
				L398.075,294.169z"/>
			<g clip-path="url(#SVGID_4_)">
				<path fill="#010101" d="M397.916,295.319l-0.02-0.057c0.123-0.103,0.12-0.193,0.117-0.327l-0.025-0.889l0.189-0.165l0.644,0.781
					c0.066,0.082,0.102,0.128,0.167,0.128l0.054,0.025c-0.133-0.02-0.17-0.068-0.217-0.125l-0.649-0.799l-0.173,0.159l0.025,0.884
					c0.004,0.14,0.007,0.23-0.119,0.33l0.011,0.037l0.392-0.162c-0.128-0.023-0.179-0.034-0.202-0.094
					c-0.017-0.043-0.019-0.094-0.02-0.137l-0.006-0.111l0.378-0.161l0.134,0.156c0.02,0.034,0.033,0.062,0.04,0.088l-0.176-0.233
					l-0.366,0.159l0.011,0.1c0.003,0.046,0.006,0.094,0.02,0.134c0.02,0.051,0.065,0.062,0.098,0.062l0.007-0.003l0.092,0.046
					L397.916,295.319L397.916,295.319z M398.095,294.726l-0.028-0.58l0.354,0.435L398.095,294.726L398.095,294.726z"/>
			</g>
			<path clip-path="url(#SVGID_4_)" fill="#F4CD2E" d="M399.552,294.66c0.116-0.015,0.15-0.051,0.138-0.165l-0.084-0.767
				c-0.013-0.111-0.055-0.146-0.17-0.131l-0.006-0.051l0.55-0.062c0.098-0.012,0.187-0.012,0.274,0.011
				c0.21,0.06,0.381,0.233,0.412,0.515c0.028,0.261-0.105,0.472-0.286,0.568c-0.081,0.045-0.172,0.062-0.271,0.073l-0.55,0.062
				L399.552,294.66z M399.947,294.45c0.011,0.119,0.017,0.153,0.156,0.139c0.196-0.022,0.331-0.15,0.282-0.588
				c-0.044-0.392-0.2-0.478-0.415-0.454c-0.122,0.014-0.117,0.062-0.106,0.161L399.947,294.45z"/>
			<g clip-path="url(#SVGID_4_)">
				<path fill="#010101" d="M399.552,294.72l-0.007-0.057c0.119-0.022,0.149-0.06,0.138-0.168l-0.085-0.767
					c-0.01-0.094-0.04-0.125-0.117-0.125l0.051-0.015c0.054,0.031,0.074,0.068,0.08,0.137l0.085,0.77
					c0.012,0.114-0.024,0.159-0.142,0.174l0.004,0.045l-0.001-0.009l0.55-0.062c0.12-0.011,0.199-0.033,0.269-0.07
					c0.197-0.105,0.308-0.324,0.281-0.56c-0.028-0.259-0.176-0.443-0.406-0.509c-0.078-0.022-0.17-0.025-0.27-0.015l-0.111,0.015
					l0.108-0.028c0.105-0.012,0.196-0.009,0.277,0.014c0.236,0.065,0.388,0.256,0.419,0.521c0.025,0.241-0.088,0.466-0.29,0.576
					c-0.073,0.037-0.154,0.06-0.276,0.071L399.552,294.72L399.552,294.72z M400.086,294.598c-0.132,0-0.136-0.049-0.146-0.147
					l-0.083-0.739c-0.01-0.102-0.016-0.156,0.112-0.17l0.065-0.003c0.211,0,0.322,0.142,0.358,0.463
					c0.042,0.384-0.047,0.568-0.29,0.594C400.098,294.598,400.092,294.598,400.086,294.598L400.086,294.598z M400.035,293.544
					l-0.062,0.011c-0.114,0.015-0.111,0.052-0.101,0.15l0.084,0.742c0.008,0.102,0.013,0.136,0.092,0.136
					c0.21-0.02,0.384-0.102,0.331-0.582c-0.036-0.31-0.142-0.449-0.344-0.449V293.544L400.035,293.544z"/>
			</g>
			<path clip-path="url(#SVGID_4_)" fill="#F4CD2E" d="M400.745,294.535c0.117,0.006,0.158-0.028,0.165-0.14l0.051-0.772
				c0.005-0.11-0.03-0.147-0.145-0.156l0.004-0.051l0.953,0.062l0.083,0.307l-0.052,0.017c-0.096-0.145-0.252-0.275-0.435-0.289
				c-0.142-0.006-0.142,0.039-0.15,0.159l-0.021,0.312l0.029,0.002c0.158,0.009,0.23-0.011,0.295-0.17l0.062,0.003l-0.031,0.463
				l-0.062-0.003c-0.031-0.165-0.11-0.207-0.264-0.219l-0.035-0.003l-0.021,0.338c-0.006,0.094-0.004,0.156,0.11,0.165
				c0.196,0.015,0.381-0.088,0.513-0.225l0.041,0.025l-0.138,0.29l-0.956-0.065L400.745,294.535z"/>
			<g clip-path="url(#SVGID_4_)">
				<path fill="#010101" d="M401.703,294.66l-0.006-0.003l-0.955-0.065c0.031-0.014,0.057-0.028,0.077-0.045l0.875,0.096
					l0.031-0.064L401.703,294.66L401.703,294.66z M401.319,294.569c-0.157-0.012-0.162-0.077-0.156-0.174l0.022-0.338
					c0.127,0.003,0.207,0.022,0.259,0.083c-0.062-0.052-0.128-0.065-0.218-0.071l-0.048,0.326c-0.007,0.094-0.001,0.148,0.104,0.156
					c0.001,0,0.003,0,0.006,0c0.198,0,0.363-0.079,0.501-0.222l-0.018,0.068C401.619,294.507,401.467,294.569,401.319,294.569
					L401.319,294.569z M400.836,294.535c0.045-0.037,0.062-0.074,0.065-0.14l0.053-0.772c0.006-0.105-0.024-0.142-0.138-0.147h0.102
					c0.04,0.034,0.054,0.076,0.051,0.147l-0.054,0.775C400.913,294.476,400.889,294.521,400.836,294.535L400.836,294.535z
					 M401.225,293.723l-0.014-0.051c0.009-0.114,0.012-0.165,0.131-0.165c0.122,0.006,0.233,0.054,0.327,0.131
					c-0.103-0.065-0.202-0.111-0.299-0.117c-0.003,0-0.003,0-0.003,0c-0.131,0-0.133,0.04-0.141,0.148L401.225,293.723
					L401.225,293.723z"/>
			</g>
			<path clip-path="url(#SVGID_4_)" fill="#F4CD2E" d="M403.282,294.711l0.169-0.508c0.045-0.131,0.056-0.208-0.09-0.271
				l0.018-0.051l0.396,0.136l-0.019,0.049c-0.15-0.022-0.183,0.028-0.228,0.165l-0.281,0.847l-0.137-0.046l-0.316-1.074
				l-0.194,0.586c-0.056,0.164-0.048,0.204,0.099,0.289l-0.016,0.052l-0.427-0.146l0.017-0.051c0.15,0.025,0.193-0.009,0.239-0.147
				l0.234-0.702c-0.024-0.068-0.075-0.125-0.138-0.162l0.02-0.051l0.381,0.131L403.282,294.711z"/>
			<g clip-path="url(#SVGID_4_)">
				<path fill="#010101" d="M403.252,295.086l-0.143-0.048l-0.321-1.077l-0.182,0.586c-0.052,0.158-0.05,0.195,0.097,0.281
					l-0.086-0.018c-0.074-0.082-0.068-0.137-0.025-0.27l0.196-0.586l0.329,1.074l0.125,0.04l0.28-0.841
					c0.032-0.1,0.06-0.162,0.146-0.174c-0.082,0.046-0.104,0.094-0.131,0.177L403.252,295.086L403.252,295.086z M402.528,294.797
					l-0.272-0.052l0.001-0.003l0.094-0.054c0.083,0,0.116-0.034,0.156-0.15l0.233-0.699c-0.023-0.062-0.071-0.119-0.134-0.156
					l0.062,0.012c0.036,0.048,0.067,0.094,0.085,0.145l-0.232,0.702c-0.037,0.11-0.071,0.162-0.171,0.162L402.528,294.797
					L402.528,294.797z M403.288,294.714l-0.284-0.954l-0.065-0.023l0.074,0.015l0.275,0.957l0.156-0.505
					c0.046-0.137,0.052-0.202-0.085-0.265l0.088,0.017c0.062,0.077,0.045,0.148,0.012,0.25L403.288,294.714L403.288,294.714z"/>
			</g>
			<path clip-path="url(#SVGID_4_)" fill="#F4CD2E" d="M403.954,294.348c0.05-0.103,0.03-0.15-0.069-0.202l0.021-0.048l0.507,0.259
				l-0.022,0.048c-0.103-0.054-0.154-0.04-0.202,0.062l-0.345,0.688c-0.05,0.103-0.03,0.153,0.072,0.205l-0.024,0.045l-0.507-0.256
				l0.023-0.048c0.102,0.051,0.152,0.037,0.201-0.062L403.954,294.348z"/>
			<g clip-path="url(#SVGID_4_)">
				<path fill="#010101" d="M403.888,295.413l-0.506-0.259l0.072-0.02l0.435,0.258l0.021-0.036c-0.105-0.046-0.125-0.1-0.074-0.205
					l0.344-0.69c0.035-0.065,0.068-0.097,0.115-0.097l0.027,0.009l-0.027,0.009c-0.039,0-0.069,0.025-0.101,0.088l-0.344,0.69
					c-0.048,0.094-0.031,0.143,0.068,0.193L403.888,295.413L403.888,295.413z M403.504,295.138l-0.027-0.009l0.027-0.009l0,0
					c0.04,0,0.07-0.022,0.1-0.085l0.344-0.69c0.049-0.097,0.031-0.142-0.066-0.193l0.089,0.034c0.028,0.049,0.026,0.097-0.009,0.165
					l-0.344,0.69C403.585,295.106,403.549,295.138,403.504,295.138L403.504,295.138z"/>
			</g>
			<path clip-path="url(#SVGID_4_)" fill="#F4CD2E" d="M405.237,295.291l-0.074-0.023c0.028-0.167,0.013-0.38-0.14-0.482
				c-0.198-0.137-0.414,0.088-0.518,0.247c-0.215,0.318-0.146,0.56,0,0.662c0.129,0.088,0.273,0.054,0.407,0.003l0.017,0.048
				c-0.197,0.1-0.391,0.122-0.582-0.011c-0.262-0.18-0.297-0.523-0.125-0.779c0.185-0.275,0.546-0.42,0.818-0.235
				c0.049,0.034,0.08,0.071,0.105,0.105s0.045,0.062,0.07,0.079c0.036,0.023,0.077,0.031,0.118,0.037h0.019L405.237,295.291z"/>
			<g clip-path="url(#SVGID_4_)">
				<path fill="#010101" d="M404.629,295.834c-0.1,0-0.193-0.029-0.284-0.092c-0.253-0.173-0.31-0.52-0.129-0.792
					c0.194-0.29,0.578-0.406,0.829-0.236c0.047,0.031,0.078,0.068,0.104,0.103l0.074,0.082c0.031,0.023,0.072,0.029,0.111,0.034
					l-0.002,0.009c-0.027-0.02-0.086-0.009-0.117-0.031l-0.068-0.085l-0.006,0.003c-0.028-0.034-0.059-0.071-0.104-0.1
					c-0.243-0.165-0.618-0.052-0.809,0.23c-0.176,0.264-0.122,0.602,0.125,0.77c0.139,0.097,0.284,0.113,0.451,0.062
					C404.747,295.825,404.688,295.834,404.629,295.834L404.629,295.834z M404.685,295.757c-0.069,0-0.13-0.02-0.184-0.057
					c-0.155-0.105-0.216-0.355-0.001-0.674c0.121-0.185,0.354-0.369,0.529-0.247c0.108,0.074,0.143,0.196,0.15,0.305
					c-0.023-0.108-0.059-0.225-0.158-0.293c-0.171-0.117-0.393,0.065-0.509,0.244c-0.209,0.31-0.151,0.551-0.003,0.65
					c0.115,0.083,0.277,0.052,0.402,0.006c-0.014,0.018-0.027,0.031-0.041,0.046C404.81,295.74,404.747,295.757,404.685,295.757
					L404.685,295.757z"/>
			</g>
			<path clip-path="url(#SVGID_4_)" fill="#F4CD2E" d="M405.675,296.519c-0.058,0.107-0.103,0.179-0.001,0.281l-0.036,0.039
				l-0.399-0.392l0.035-0.04c0.076,0.068,0.108,0.071,0.14,0.037c0.022-0.022,0.038-0.054,0.052-0.079l0.09-0.177l-0.289-0.287
				l-0.097,0.049c-0.037,0.02-0.084,0.042-0.114,0.076c-0.058,0.058-0.027,0.131,0.021,0.185l-0.038,0.037l-0.303-0.298l0.037-0.037
				c0.135,0.074,0.213,0.037,0.341-0.02l0.796-0.381l0.219,0.11L405.675,296.519z M405.831,295.635l-0.491,0.235l0.25,0.245
				L405.831,295.635z"/>
			<g clip-path="url(#SVGID_4_)">
				<path fill="#010101" d="M405.632,296.842l-0.399-0.392c0.029-0.003,0.051-0.003,0.068-0.003l0.337,0.381l0.03-0.034
					c-0.099-0.088-0.062-0.162-0.009-0.262l0.46-0.912l-0.215-0.102l-0.789,0.38c-0.111,0.052-0.19,0.086-0.296,0.046
					c0.037-0.009,0.068,0.003,0.094,0.003c0.062,0,0.121-0.028,0.194-0.062l0.797-0.381l0.225,0.111l-0.447,0.906
					c-0.061,0.116-0.096,0.182-0.003,0.272l-0.036,0.04h0.001L405.632,296.842L405.632,296.842z M405.371,296.473
					c-0.016,0-0.035-0.006-0.057-0.022c0.027,0.003,0.045,0.009,0.057,0.009l0.176-0.273l-0.287-0.278l-0.086,0.052
					c-0.047,0.022-0.088,0.042-0.113,0.07c-0.068,0.068-0.002,0.15,0.021,0.177l-0.06-0.043c-0.012-0.054-0.012-0.103,0.028-0.142
					c0.028-0.031,0.067-0.052,0.104-0.071l0.107-0.054l0.298,0.286L405.371,296.473L405.371,296.473z"/>
			</g>
			<path clip-path="url(#SVGID_4_)" fill="#F4CD2E" d="M406.422,297.523c-0.057,0.108-0.106,0.211-0.039,0.33l-0.042,0.028
				l-0.22-0.324c0.017-0.048,0.045-0.091,0.069-0.136l0.11-0.19c0.117-0.196,0.096-0.259,0.059-0.315l-0.294,0.204
				c-0.093,0.065-0.099,0.117-0.034,0.214l-0.041,0.028l-0.321-0.475l0.042-0.028c0.064,0.094,0.114,0.107,0.208,0.042l0.631-0.435
				c0.091-0.062,0.099-0.116,0.032-0.213l0.045-0.028l0.385,0.568c0.132,0.198,0.11,0.392-0.029,0.485
				c-0.145,0.1-0.299,0.018-0.407-0.094c0,0.06-0.032,0.114-0.062,0.168L406.422,297.523z M406.438,296.901
				c0.146,0.216,0.264,0.236,0.402,0.14c0.131-0.091,0.127-0.202,0.031-0.344c-0.061-0.085-0.096-0.068-0.17-0.018l-0.282,0.193
				L406.438,296.901z"/>
			<g clip-path="url(#SVGID_4_)">
				<path fill="#010101" d="M406.335,297.888l-0.222-0.327c0.014-0.042,0.031-0.073,0.05-0.107l0.131-0.228
					c0.114-0.19,0.094-0.25,0.06-0.304l-0.284,0.204c-0.088,0.062-0.095,0.108-0.031,0.205l-0.063-0.074
					c-0.002-0.06,0.023-0.1,0.086-0.142l0.295-0.205c0.048,0.062,0.069,0.125-0.047,0.324l-0.111,0.193
					c-0.039,0.064-0.057,0.099-0.07,0.133l0.215,0.31l0.037-0.022c-0.074-0.113-0.02-0.219,0.037-0.329l0.091-0.168
					c0.037-0.068,0.06-0.113,0.06-0.165c0.156,0.131,0.299,0.168,0.412,0.088c0.143-0.096,0.153-0.289,0.025-0.474l-0.084-0.125
					l0.098,0.116c0.131,0.193,0.119,0.392-0.03,0.494c-0.122,0.085-0.278,0.049-0.418-0.094c0.013,0.051-0.013,0.1-0.038,0.145
					l-0.104,0.19c-0.055,0.105-0.105,0.208-0.037,0.321L406.335,297.888L406.335,297.888z M406.691,297.104
					c-0.085,0-0.169-0.062-0.26-0.199l0.006-0.006c0.158,0.208,0.252,0.233,0.398,0.134c0.12-0.082,0.129-0.185,0.029-0.329
					l-0.072-0.065l-0.197,0.125l0.201-0.134l0.08,0.065c0.104,0.153,0.094,0.265-0.031,0.353
					C406.789,297.084,406.74,297.104,406.691,297.104L406.691,297.104z M405.822,296.95c-0.025,0-0.051-0.012-0.075-0.034
					c0.032,0.009,0.054,0.02,0.075,0.02l0.725-0.475c0.043-0.031,0.065-0.06,0.07-0.088c0.006-0.031-0.008-0.065-0.041-0.113
					l0.056,0.065c0.003,0.02,0.003,0.034,0,0.051c-0.005,0.034-0.03,0.062-0.077,0.097l-0.631,0.435
					C405.882,296.936,405.851,296.95,405.822,296.95L405.822,296.95z"/>
			</g>
			<path clip-path="url(#SVGID_4_)" fill="#F4CD2E" d="M407.002,298.828c-0.094,0.076-0.164,0.122-0.114,0.259l-0.048,0.02
				l-0.211-0.521l0.049-0.022c0.043,0.094,0.07,0.108,0.113,0.091c0.028-0.011,0.056-0.033,0.076-0.054l0.154-0.125l-0.154-0.378
				l-0.104,0.006c-0.046,0.003-0.097,0.006-0.136,0.02c-0.074,0.031-0.077,0.111-0.055,0.18l-0.049,0.02l-0.16-0.395l0.049-0.021
				c0.095,0.122,0.18,0.122,0.319,0.119l0.88-0.028l0.157,0.188L407.002,298.828z M407.492,298.081l-0.543,0.017l0.131,0.327
				L407.492,298.081z"/>
			<g clip-path="url(#SVGID_4_)">
				<path fill="#010101" d="M406.834,299.109l-0.212-0.52c0.026,0.011,0.048,0.02,0.063,0.027l0.16,0.478l0.039-0.017
					c-0.053-0.119,0.009-0.171,0.096-0.241l0.782-0.657l-0.157-0.176l-0.874,0.028c-0.131,0-0.185-0.009-0.244-0.042
					c0.063,0.022,0.116,0.028,0.185,0.028l0.939-0.026l0.163,0.191l-0.768,0.65c-0.103,0.082-0.156,0.128-0.11,0.25L406.834,299.109
					L406.834,299.109z M406.763,298.669c-0.022,0-0.041-0.015-0.062-0.043c0.03,0.018,0.045,0.026,0.062,0.026l0.253-0.183
					l-0.153-0.369l-0.1,0.009c-0.06,0.006-0.1,0.008-0.134,0.022c-0.085,0.034-0.06,0.14-0.049,0.171l-0.039-0.065
					c0.012-0.06,0.037-0.1,0.082-0.12c0.037-0.014,0.078-0.02,0.118-0.022l0.126-0.005l0.161,0.383L406.763,298.669L406.763,298.669
					z"/>
			</g>
			<path clip-path="url(#SVGID_4_)" fill="#F4CD2E" d="M407.871,299.944l-0.031-0.048c0.158-0.182,0.241-0.299,0.213-0.44
				c-0.031-0.153-0.202-0.281-0.6-0.199c-0.389,0.08-0.51,0.23-0.477,0.406c0.035,0.171,0.166,0.171,0.311,0.146
				c0.129-0.029,0.132-0.062,0.117-0.188l0.061-0.012l0.105,0.534l-0.061,0.011c-0.039-0.125-0.078-0.133-0.195-0.107l-0.23,0.048
				c-0.024-0.11-0.031-0.119-0.08-0.213c-0.041-0.073-0.075-0.142-0.091-0.228c-0.067-0.338,0.114-0.596,0.446-0.661
				c0.315-0.065,0.682,0.094,0.75,0.438c0.012,0.045,0.008,0.088,0.006,0.128c-0.008,0.036-0.012,0.07-0.006,0.099
				c0.009,0.04,0.043,0.094,0.071,0.122L407.871,299.944z"/>
			<g clip-path="url(#SVGID_4_)">
				<path fill="#010101" d="M407.504,300.157c-0.028-0.088-0.054-0.113-0.109-0.113l-0.31,0.057
					c-0.032-0.107-0.038-0.122-0.079-0.201c-0.05-0.091-0.084-0.156-0.102-0.245c-0.032-0.161-0.008-0.312,0.071-0.432
					c0.081-0.122,0.214-0.204,0.382-0.238c0.295-0.062,0.686,0.071,0.761,0.446c0.009,0.039,0.005,0.079,0.004,0.113l-0.004,0.113
					c0.007,0.037,0.04,0.089,0.067,0.12l-0.312,0.173c0.015-0.025,0.027-0.051,0.04-0.077l0.265-0.099
					c-0.031-0.021-0.066-0.074-0.075-0.117l0.004-0.102c0.003-0.046,0.006-0.083-0.004-0.122c-0.073-0.367-0.45-0.492-0.741-0.436
					c-0.164,0.034-0.295,0.114-0.373,0.233c-0.078,0.116-0.101,0.262-0.068,0.421c0.016,0.085,0.051,0.15,0.093,0.227
					c0.048,0.097,0.056,0.108,0.079,0.213l0.219-0.054c0.146-0.014,0.177,0.021,0.205,0.108l0.054-0.012l-0.011-0.048l0.02,0.054
					L407.504,300.157L407.504,300.157z M407.168,299.828c-0.113,0-0.177-0.051-0.197-0.165c-0.041-0.201,0.121-0.341,0.482-0.412
					c0.446-0.094,0.588,0.117,0.606,0.202c0.019,0.091-0.01,0.173-0.063,0.259c0.045-0.1,0.064-0.174,0.048-0.256
					c-0.016-0.08-0.155-0.281-0.588-0.19c-0.351,0.068-0.509,0.204-0.472,0.395c0.028,0.143,0.144,0.171,0.301,0.14
					c0.125-0.025,0.127-0.057,0.111-0.177l0.033,0.094c-0.02,0.055-0.051,0.08-0.142,0.097
					C407.246,299.822,407.206,299.828,407.168,299.828L407.168,299.828z"/>
			</g>
			<path clip-path="url(#SVGID_4_)" fill="#F4CD2E" d="M407.461,300.575c-0.285,0.003-0.367,0.097-0.365,0.27
				c0.005,0.233,0.146,0.302,0.379,0.299l0.559-0.012c0.109-0.003,0.145-0.042,0.142-0.159h0.052l0.008,0.396h-0.051
				c-0.003-0.116-0.04-0.153-0.15-0.153l-0.568,0.011c-0.275,0.006-0.426-0.113-0.432-0.426c-0.006-0.321,0.136-0.483,0.38-0.486
				l0.603-0.011c0.111-0.003,0.145-0.046,0.143-0.159h0.054l0.011,0.573h-0.053c-0.001-0.116-0.037-0.153-0.148-0.15
				L407.461,300.575z"/>
			<g clip-path="url(#SVGID_4_)">
				<path fill="#010101" d="M408.175,301.368c-0.001-0.108-0.034-0.146-0.134-0.146l-0.576,0.012l0,0
					c-0.302,0-0.434-0.14-0.438-0.435c-0.005-0.174,0.035-0.304,0.116-0.39c0.065-0.068,0.156-0.102,0.27-0.104l0.603-0.012
					c0.105,0,0.137-0.04,0.135-0.15l0.014,0.097c-0.03,0.048-0.073,0.068-0.148,0.07l-0.603,0.012c-0.109,0-0.197,0.034-0.26,0.1
					c-0.078,0.079-0.115,0.207-0.112,0.378c0.006,0.29,0.131,0.417,0.403,0.417l0.589-0.008l0,0c0.113,0,0.152,0.039,0.157,0.15
					h0.044l-0.002-0.043l0.011,0.052h-0.053l0,0H408.175L408.175,301.368z M407.473,301.152c-0.266,0-0.379-0.097-0.385-0.308
					c-0.002-0.085,0.019-0.145,0.061-0.19c0.059-0.057,0.158-0.085,0.312-0.088l0.561-0.008l0,0c0.076,0,0.119,0.017,0.139,0.064
					c-0.033-0.036-0.069-0.051-0.131-0.051l-0.568,0.012c-0.15,0-0.246,0.028-0.301,0.082c-0.039,0.04-0.059,0.097-0.057,0.179
					c0.006,0.202,0.113,0.29,0.353,0.29l0.577-0.012c0.104-0.002,0.136-0.036,0.133-0.15l0.018,0.091
					c-0.029,0.052-0.072,0.074-0.15,0.074l-0.559,0.015H407.473L407.473,301.152z"/>
			</g>
			<path clip-path="url(#SVGID_4_)" fill="#F4CD2E" d="M407.162,302.391c-0.118,0.018-0.203,0.02-0.229,0.162l-0.053-0.009
				l0.09-0.557l0.051,0.009c-0.012,0.102,0.004,0.131,0.051,0.136c0.028,0.006,0.064,0,0.094-0.003l0.193-0.025l0.066-0.406
				l-0.095-0.051c-0.037-0.02-0.083-0.046-0.125-0.051c-0.079-0.015-0.122,0.054-0.14,0.121l-0.051-0.008l0.068-0.421l0.051,0.009
				c0.018,0.153,0.09,0.199,0.211,0.268l0.764,0.442l0.037,0.242L407.162,302.391z M407.967,302.013l-0.473-0.27l-0.055,0.347
				L407.967,302.013z"/>
			<g clip-path="url(#SVGID_4_)">
				<path fill="#010101" d="M406.939,302.562l-0.061-0.012l0.086-0.562c0.014,0.028,0.025,0.051,0.033,0.071l-0.11,0.485
					l0.046,0.009l-0.009-0.003c0.026-0.14,0.108-0.147,0.219-0.165l1.003-0.142l-0.044-0.233l-0.761-0.44
					c-0.088-0.048-0.147-0.085-0.184-0.156c0.053,0.062,0.11,0.1,0.189,0.143l0.768,0.446l0.039,0.247l-0.991,0.15
					c-0.128,0.017-0.198,0.025-0.223,0.153L406.939,302.562L406.939,302.562z M407.168,302.135c-0.04,0-0.07-0.003-0.093-0.008
					l0.284-0.031l0.06-0.398l-0.091-0.045c-0.043-0.023-0.084-0.043-0.122-0.052c-0.095,0.022-0.122,0.083-0.131,0.116v-0.064
					c0.026-0.034,0.06-0.068,0.11-0.068c0.062,0.012,0.105,0.034,0.143,0.051l0.102,0.057l-0.062,0.412L407.168,302.135
					L407.168,302.135z"/>
			</g>
		</g>
	</g>
</g>
</svg>
