<?xml version="1.0" encoding="utf-8"?>
<!-- Generator: Adobe Illustrator 16.0.0, SVG Export Plug-In . SVG Version: 6.00 Build 0)  -->
<!DOCTYPE svg PUBLIC "-//W3C//DTD SVG 1.1//EN" "http://www.w3.org/Graphics/SVG/1.1/DTD/svg11.dtd">
<svg version="1.1" id="name" xmlns="http://www.w3.org/2000/svg" xmlns:xlink="http://www.w3.org/1999/xlink" x="0px" y="0px"
	 width="40.164px" height="50px" viewBox="381 276 40.164 50" enable-background="new 381 276 40.164 50" xml:space="preserve">
<g id="np">
	<g>
		<defs>
			<rect id="SVGID_1_" x="381" y="276" width="40.164" height="50"/>
		</defs>
		<clipPath id="SVGID_2_">
			<use xlink:href="#SVGID_1_"  overflow="visible"/>
		</clipPath>
		<path clip-path="url(#SVGID_2_)" fill="#273B8C" d="M382.893,279.421l31.265,19.577h-24.097l25.105,25.107h-32.273V279.421z
			 M381,276v50h38.74l-25.109-25.106h26.117L381,276z"/>
		<polygon clip-path="url(#SVGID_2_)" fill="#BD1F34" points="381.946,277.71 381.946,325.054 417.453,325.054 392.348,299.944 
			417.453,299.944 		"/>
		<g clip-path="url(#SVGID_2_)">
			<defs>
				<rect id="SVGID_3_" x="381" y="276" width="40.164" height="50"/>
			</defs>
			<clipPath id="SVGID_4_">
				<use xlink:href="#SVGID_3_"  overflow="visible"/>
			</clipPath>
			<path clip-path="url(#SVGID_4_)" fill="#FFFFFF" d="M390.825,298.681c3.904,0,7.068-3.162,7.07-7.066
				c-0.619,1.568-1.744,2.881-3.176,3.739l-0.605-0.455l1.191-0.892l-1.441-0.366c0,0,0,0,0-0.003l0.76-1.276l-1.473,0.211
				l0.211-1.475l-1.279,0.762l0,0l-0.365-1.443l-0.893,1.192l-0.893-1.192l-0.369,1.443l0,0l-1.279-0.762l0.215,1.475l-1.475-0.211
				l0.758,1.276c0,0.003,0,0.003,0,0.003l-1.441,0.366l1.193,0.892l-0.607,0.455c-1.432-0.858-2.557-2.171-3.174-3.739
				C383.752,295.519,386.92,298.681,390.825,298.681"/>
			<polygon clip-path="url(#SVGID_4_)" fill="#FFFFFF" points="395.479,313.746 395.479,313.746 398.422,312.499 395.479,311.252 
				395.479,311.252 397.405,308.701 394.231,309.093 394.624,305.919 392.071,307.846 392.069,307.846 390.825,304.899 
				389.577,307.846 389.577,307.846 387.024,305.919 387.418,309.093 384.241,308.701 386.168,311.252 386.168,311.252 
				383.223,312.499 386.168,313.746 386.168,313.746 384.241,316.301 387.418,315.905 387.418,315.905 387.418,315.905 
				387.024,319.082 389.577,317.156 389.577,317.156 390.825,320.1 392.069,317.156 392.071,317.156 394.624,319.082 
				394.231,315.905 397.405,316.301 			"/>
		</g>
	</g>
</g>
</svg>
