<?xml version="1.0" encoding="utf-8"?>
<!-- Generator: Adobe Illustrator 16.0.0, SVG Export Plug-In . SVG Version: 6.00 Build 0)  -->
<!DOCTYPE svg PUBLIC "-//W3C//DTD SVG 1.1//EN" "http://www.w3.org/Graphics/SVG/1.1/DTD/svg11.dtd">
<svg version="1.1" id="name" xmlns="http://www.w3.org/2000/svg" xmlns:xlink="http://www.w3.org/1999/xlink" x="0px" y="0px"
	 width="85.71px" height="50px" viewBox="358 276 85.71 50" enable-background="new 358 276 85.71 50" xml:space="preserve">
<g id="nr">
	<g>
		<defs>
			<rect id="SVGID_1_" x="358" y="276" width="85.71" height="50"/>
		</defs>
		<clipPath id="SVGID_2_">
			<use xlink:href="#SVGID_1_"  overflow="visible"/>
		</clipPath>
		<rect x="358" y="276" clip-path="url(#SVGID_2_)" fill="#2B3379" width="85.71" height="50"/>
		<polygon clip-path="url(#SVGID_2_)" fill="#FFFFFF" points="379.85,319.75 378.772,315.442 375.682,318.633 376.903,314.363 
			372.633,315.582 375.825,312.496 371.516,311.417 375.825,310.337 372.633,307.252 376.903,308.471 375.682,304.2 
			378.772,307.391 379.85,303.084 380.928,307.391 384.016,304.2 382.797,308.471 387.067,307.252 383.874,310.337 388.184,311.417 
			383.874,312.496 387.067,315.582 382.797,314.363 384.016,318.633 380.928,315.442 		"/>
		<rect x="358" y="298.916" clip-path="url(#SVGID_2_)" fill="#F4C532" width="85.71" height="4.168"/>
	</g>
</g>
</svg>
