<?xml version="1.0" encoding="utf-8"?>
<!-- Generator: Adobe Illustrator 16.0.0, SVG Export Plug-In . SVG Version: 6.00 Build 0)  -->
<!DOCTYPE svg PUBLIC "-//W3C//DTD SVG 1.1//EN" "http://www.w3.org/Graphics/SVG/1.1/DTD/svg11.dtd">
<svg version="1.1" id="name" xmlns="http://www.w3.org/2000/svg" xmlns:xlink="http://www.w3.org/1999/xlink" x="0px" y="0px"
	 width="85.711px" height="50px" viewBox="358 276 85.711 50" enable-background="new 358 276 85.711 50" xml:space="preserve">
<g id="nz">
	<g>
		<defs>
			<rect id="SVGID_1_" x="358" y="276" width="85.711" height="50"/>
		</defs>
		<clipPath id="SVGID_2_">
			<use xlink:href="#SVGID_1_"  overflow="visible"/>
		</clipPath>
		<polygon clip-path="url(#SVGID_2_)" fill="#2C3077" points="400.874,276 400.874,277.588 400.874,278.134 400.874,278.387 
			391.362,283.143 400.874,283.143 400.874,284.571 400.874,286.717 400.874,288.858 400.874,290.285 391.362,290.285 
			400.874,295.044 400.874,295.842 400.874,297.438 400.874,297.572 397.945,297.572 396.854,297.572 396.348,297.572 383,290.898 
			383,297.572 381.57,297.572 379.427,297.572 377.284,297.572 375.854,297.572 375.854,290.898 362.506,297.572 360.91,297.572 
			358,297.572 358,326 443.711,326 443.711,276 		"/>
		<polygon clip-path="url(#SVGID_2_)" fill="#2C3077" points="358,290.285 358,295.032 367.493,290.285 		"/>
		<polygon clip-path="url(#SVGID_2_)" fill="#2C3077" points="383,276 383,282.534 396.064,276 		"/>
		<polygon clip-path="url(#SVGID_2_)" fill="#2C3077" points="375.854,276 362.79,276 375.854,282.534 		"/>
		<polygon clip-path="url(#SVGID_2_)" fill="#2C3077" points="358,283.143 367.493,283.143 358,278.398 		"/>
		<polygon clip-path="url(#SVGID_2_)" fill="#FFFFFF" points="400.854,276 386.57,283.143 383.376,283.143 397.661,276 396.064,276 
			383,282.534 383,276 381.57,276 381.57,283.248 381.57,284.046 381.57,284.571 383.712,284.571 386.907,284.571 387.998,284.571 
			388.504,284.571 400.874,284.571 400.874,283.143 391.362,283.143 400.874,278.387 400.874,278.134 400.874,277.588 400.874,276 
					"/>
		<polygon clip-path="url(#SVGID_2_)" fill="#FFFFFF" points="375.854,276 375.854,282.534 362.79,276 358,276 372.285,283.143 
			369.091,283.143 358,277.6 358,278.398 367.493,283.143 358,283.143 358,284.571 370.351,284.571 371.947,284.571 375.14,284.571 
			377.284,284.571 377.284,284.046 377.284,283.5 377.284,283.248 377.284,276 		"/>
		<polygon clip-path="url(#SVGID_2_)" fill="#FFFFFF" points="386.907,288.858 383.712,288.858 381.57,288.858 381.57,289.385 
			381.57,289.93 381.57,290.183 381.57,297.572 383,297.572 383,290.898 396.348,297.572 396.854,297.572 397.945,297.572 
			400.874,297.572 400.874,297.438 386.57,290.285 389.763,290.285 400.874,295.842 400.874,295.044 391.362,290.285 
			400.874,290.285 400.874,288.858 388.504,288.858 		"/>
		<polygon clip-path="url(#SVGID_2_)" fill="#FFFFFF" points="375.14,288.858 371.947,288.858 370.856,288.858 370.351,288.858 
			358,288.858 358,290.288 367.493,290.288 358,295.032 358,297.431 372.285,290.288 375.478,290.288 360.91,297.572 
			362.506,297.572 375.854,290.898 375.854,297.572 377.284,297.572 377.284,290.183 377.284,289.385 377.284,288.858 		"/>
		<polygon clip-path="url(#SVGID_2_)" fill="#BD1F38" points="372.285,290.285 358,297.431 358,297.572 360.91,297.572 
			375.478,290.285 		"/>
		<polygon clip-path="url(#SVGID_2_)" fill="#BD1F38" points="358,277.6 369.091,283.143 372.285,283.143 358,276 		"/>
		<polygon clip-path="url(#SVGID_2_)" fill="#BD1F38" points="400.854,276 397.661,276 383.376,283.143 386.57,283.143 		"/>
		<polygon clip-path="url(#SVGID_2_)" fill="#BD1F38" points="386.57,290.285 400.874,297.438 400.874,295.842 389.763,290.285 		
			"/>
		<polygon clip-path="url(#SVGID_2_)" fill="#BD1F38" points="377.284,276 377.284,283.248 377.284,283.5 377.284,284.046 
			377.284,284.571 375.14,284.571 371.947,284.571 370.351,284.571 358,284.571 358,288.858 370.351,288.858 370.856,288.858 
			371.947,288.858 375.14,288.858 377.284,288.858 377.284,289.385 377.284,290.183 377.284,297.572 379.427,297.572 
			381.57,297.572 381.57,290.183 381.57,289.93 381.57,289.385 381.57,288.858 383.712,288.858 386.907,288.858 388.504,288.858 
			400.874,288.858 400.874,286.717 400.874,284.571 388.504,284.571 387.998,284.571 386.907,284.571 383.712,284.571 
			381.57,284.571 381.57,284.046 381.57,283.248 381.57,276 		"/>
		<polygon clip-path="url(#SVGID_2_)" fill="#FFFFFF" points="417.497,290.592 419.824,290.592 420.545,288.376 421.264,290.592 
			423.594,290.592 421.711,291.961 422.43,294.178 420.545,292.808 418.659,294.178 419.381,291.961 		"/>
		<polygon clip-path="url(#SVGID_2_)" fill="#BD1F38" points="418.528,290.93 420.068,290.93 420.545,289.464 421.02,290.93 
			422.56,290.93 421.314,291.836 421.79,293.299 420.545,292.396 419.299,293.299 419.773,291.836 		"/>
		<polygon clip-path="url(#SVGID_2_)" fill="#FFFFFF" points="408.18,299.965 410.508,299.965 411.229,297.748 411.948,299.965 
			414.277,299.965 412.395,301.331 413.113,303.547 411.229,302.181 409.346,303.547 410.064,301.331 		"/>
		<polygon clip-path="url(#SVGID_2_)" fill="#BD1F38" points="409.213,300.303 410.752,300.303 411.229,298.837 411.704,300.303 
			413.245,300.303 412,301.209 412.475,302.672 411.229,301.766 409.982,302.672 410.458,301.209 		"/>
		<polygon clip-path="url(#SVGID_2_)" fill="#FFFFFF" points="425.818,297.641 427.891,297.641 428.531,295.669 429.172,297.641 
			431.245,297.641 429.567,298.856 430.209,300.828 428.531,299.609 426.854,300.828 427.494,298.856 		"/>
		<polygon clip-path="url(#SVGID_2_)" fill="#BD1F38" points="426.738,297.938 428.108,297.938 428.531,296.638 428.955,297.938 
			430.326,297.938 429.217,298.746 429.64,300.05 428.531,299.243 427.424,300.05 427.848,298.746 		"/>
		<polygon clip-path="url(#SVGID_2_)" fill="#FFFFFF" points="417.158,314.676 419.746,314.676 420.545,312.212 421.344,314.676 
			423.932,314.676 421.838,316.198 422.638,318.662 420.545,317.139 418.455,318.662 419.253,316.198 		"/>
		<polygon clip-path="url(#SVGID_2_)" fill="#BD1F38" points="418.307,315.051 420.018,315.051 420.545,313.423 421.074,315.051 
			422.783,315.051 421.4,316.06 421.93,317.688 420.545,316.679 419.162,317.688 419.691,316.06 		"/>
	</g>
</g>
</svg>
