<?xml version="1.0" encoding="utf-8"?>
<!-- Generator: Adobe Illustrator 16.0.0, SVG Export Plug-In . SVG Version: 6.00 Build 0)  -->
<!DOCTYPE svg PUBLIC "-//W3C//DTD SVG 1.1//EN" "http://www.w3.org/Graphics/SVG/1.1/DTD/svg11.dtd">
<svg version="1.1" id="name" xmlns="http://www.w3.org/2000/svg" xmlns:xlink="http://www.w3.org/1999/xlink" x="0px" y="0px"
	 width="85.71px" height="50px" viewBox="358 276.001 85.71 50" enable-background="new 358 276.001 85.71 50" xml:space="preserve"
	>
<g id="pa">
	<g>
		<defs>
			<rect id="SVGID_1_" x="358" y="276.001" width="85.71" height="50"/>
		</defs>
		<clipPath id="SVGID_2_">
			<use xlink:href="#SVGID_1_"  overflow="visible"/>
		</clipPath>
		<rect x="358" y="276.001" clip-path="url(#SVGID_2_)" fill="#FFFFFF" width="85.71" height="50"/>
		<polygon clip-path="url(#SVGID_2_)" fill="#4165B0" points="382.105,282.251 380.173,288.195 383.146,289.161 		"/>
		<polygon clip-path="url(#SVGID_2_)" fill="#4165B0" points="382.105,282.251 384.037,288.195 381.065,289.161 		"/>
		<polygon clip-path="url(#SVGID_2_)" fill="#4165B0" points="388.048,286.57 381.8,286.57 381.8,289.695 		"/>
		<polygon clip-path="url(#SVGID_2_)" fill="#4165B0" points="388.048,286.57 382.993,290.243 381.156,287.715 		"/>
		<polygon clip-path="url(#SVGID_2_)" fill="#4165B0" points="376.16,286.57 381.219,290.243 383.054,287.715 		"/>
		<polygon clip-path="url(#SVGID_2_)" fill="#4165B0" points="376.16,286.57 382.412,286.57 382.412,289.695 		"/>
		<polygon clip-path="url(#SVGID_2_)" fill="#4165B0" points="385.778,293.559 383.848,287.612 380.876,288.578 		"/>
		<polygon clip-path="url(#SVGID_2_)" fill="#4165B0" points="385.778,293.559 380.723,289.883 382.561,287.356 		"/>
		<polygon clip-path="url(#SVGID_2_)" fill="#4165B0" points="378.433,293.559 383.489,289.883 381.65,287.356 		"/>
		<polygon clip-path="url(#SVGID_2_)" fill="#4165B0" points="378.433,293.559 380.362,287.612 383.335,288.578 		"/>
		<rect x="358" y="301" clip-path="url(#SVGID_2_)" fill="#4165B0" width="42.855" height="25.001"/>
		<rect x="400.855" y="276.001" clip-path="url(#SVGID_2_)" fill="#C01F3F" width="42.854" height="24.999"/>
		<polygon clip-path="url(#SVGID_2_)" fill="#C01F3F" points="419.604,307.25 417.672,313.193 420.646,314.159 		"/>
		<polygon clip-path="url(#SVGID_2_)" fill="#C01F3F" points="419.604,307.25 421.539,313.193 418.564,314.159 		"/>
		<polygon clip-path="url(#SVGID_2_)" fill="#C01F3F" points="425.547,311.568 419.3,311.568 419.3,314.693 		"/>
		<polygon clip-path="url(#SVGID_2_)" fill="#C01F3F" points="425.547,311.568 420.492,315.245 418.654,312.713 		"/>
		<polygon clip-path="url(#SVGID_2_)" fill="#C01F3F" points="413.663,311.568 418.717,315.245 420.553,312.713 		"/>
		<polygon clip-path="url(#SVGID_2_)" fill="#C01F3F" points="413.663,311.568 419.91,311.568 419.91,314.693 		"/>
		<polygon clip-path="url(#SVGID_2_)" fill="#C01F3F" points="423.277,318.558 421.348,312.614 418.377,313.58 		"/>
		<polygon clip-path="url(#SVGID_2_)" fill="#C01F3F" points="423.277,318.558 418.223,314.884 420.061,312.355 		"/>
		<polygon clip-path="url(#SVGID_2_)" fill="#C01F3F" points="415.934,318.558 420.987,314.884 419.148,312.355 		"/>
		<polygon clip-path="url(#SVGID_2_)" fill="#C01F3F" points="415.934,318.558 417.862,312.614 420.834,313.58 		"/>
	</g>
</g>
</svg>
