<?xml version="1.0" encoding="utf-8"?>
<!-- Generator: Adobe Illustrator 16.0.0, SVG Export Plug-In . SVG Version: 6.00 Build 0)  -->
<!DOCTYPE svg PUBLIC "-//W3C//DTD SVG 1.1//EN" "http://www.w3.org/Graphics/SVG/1.1/DTD/svg11.dtd">
<svg version="1.1" id="name" xmlns="http://www.w3.org/2000/svg" xmlns:xlink="http://www.w3.org/1999/xlink" x="0px" y="0px"
	 width="85.717px" height="50px" viewBox="358 276.002 85.717 50" enable-background="new 358 276.002 85.717 50"
	 xml:space="preserve">
<g id="pf">
	<g>
		<defs>
			<rect id="SVGID_1_" x="358" y="276.002" width="85.717" height="50"/>
		</defs>
		<clipPath id="SVGID_2_">
			<use xlink:href="#SVGID_1_"  overflow="visible"/>
		</clipPath>
		<rect x="358" y="276.002" clip-path="url(#SVGID_2_)" fill="#BD1F34" width="85.717" height="50"/>
		<rect x="358" y="288.5" clip-path="url(#SVGID_2_)" fill="#FFFFFF" width="85.717" height="25.004"/>
		<g clip-path="url(#SVGID_2_)">
			<defs>
				<rect id="SVGID_3_" x="358" y="276.002" width="85.717" height="50"/>
			</defs>
			<clipPath id="SVGID_4_">
				<use xlink:href="#SVGID_3_"  overflow="visible"/>
			</clipPath>
			<path clip-path="url(#SVGID_4_)" fill="#273F96" d="M398.344,310.43c-0.773,0.042-1.542,0.562-1.904,0.844
				c0.648,0.283,1.34,0.505,2.076,0.656c1.17,0.195,2.342,0.193,3.516,0.193c0.19-0.023,0.379-0.049,0.565-0.083l2.469-0.829
				c0,0-1.188-0.787-2.129-0.75c-0.942,0.033-1.576,0.954-2.337,0.886c-0.759-0.068-1.062-0.917-2.155-0.917
				C398.411,310.43,398.378,310.426,398.344,310.43L398.344,310.43z"/>
			<g clip-path="url(#SVGID_4_)">
				<path fill="#273F96" d="M401.995,312.225c-1.142,0-2.323,0-3.496-0.193c-0.731-0.153-1.437-0.375-2.1-0.664l-0.159-0.068
					l0.138-0.108c0.394-0.304,1.172-0.821,1.96-0.863h0.106c0.646,0,1.034,0.284,1.375,0.531c0.26,0.193,0.486,0.357,0.79,0.386
					c0.003,0,0.007,0,0.01,0c0.386,0,0.696-0.189,1.022-0.389c0.373-0.225,0.791-0.48,1.29-0.5c0.001,0,0.003,0,0.003,0
					c1.014,0,2.14,0.738,2.188,0.77l0.176,0.114l-2.669,0.9c-0.202,0.034-0.394,0.062-0.585,0.085H401.995L401.995,312.225z
					 M396.645,311.247c0.601,0.25,1.237,0.446,1.891,0.58c1.153,0.193,2.325,0.193,3.459,0.193v0.103l0.019-0.103
					c0.194-0.022,0.382-0.049,0.566-0.08l2.245-0.756c-0.355-0.207-1.155-0.622-1.827-0.622c-0.503,0.015-0.883,0.247-1.247,0.469
					c-0.356,0.216-0.692,0.421-1.068,0.421c-0.452-0.034-0.71-0.225-0.983-0.427c-0.331-0.241-0.675-0.494-1.254-0.494
					C397.71,310.568,397.047,310.958,396.645,311.247L396.645,311.247z"/>
			</g>
			<path clip-path="url(#SVGID_4_)" fill="#273F96" d="M393.86,309.79l14.027,0.062c0,0-1.213-1.29-2.64-1.321
				c-1.428-0.031-1.033,0.6-2.125,0.69c-1.096,0.091-1.369-0.659-2.37-0.631c-1.003,0.031-1.58,0.631-2.338,0.662
				c-0.759,0.028-1.731-0.753-2.309-0.722c-0.575,0.031-2.641,0.9-2.641,0.9L393.86,309.79z"/>
			<g clip-path="url(#SVGID_4_)">
				<path fill="#273F96" d="M408.112,309.949l-14.252-0.062l-0.571-0.486l0.139-0.06c0.084-0.034,2.087-0.875,2.672-0.906
					c0.001,0,0.002,0,0.002,0c0.324,0,0.678,0.162,1.053,0.333c0.414,0.189,0.843,0.389,1.215,0.389c0.372-0.014,0.678-0.147,1-0.29
					c0.387-0.167,0.821-0.354,1.379-0.372c0.001,0,0.003,0,0.004,0c0.528,0,0.843,0.165,1.147,0.324
					c0.344,0.182,0.666,0.35,1.212,0.307c0.464-0.04,0.637-0.176,0.821-0.321c0.232-0.182,0.475-0.372,1.219-0.372
					c1.546,0.034,2.754,1.302,2.805,1.353L408.112,309.949L408.112,309.949z M393.643,309.463l0.283,0.259l13.722,0.034
					c-0.378-0.344-1.337-1.105-2.401-1.128c-0.002,0-0.005,0-0.008,0c-0.763,0-0.967,0.159-1.184,0.329
					c-0.199,0.156-0.404,0.315-0.925,0.361c-0.608,0.043-0.968-0.143-1.316-0.33c-0.299-0.153-0.581-0.304-1.002-0.304
					c-0.575,0.021-0.976,0.193-1.362,0.361c-0.339,0.147-0.662,0.286-1.03,0.304c-0.001,0-0.003,0-0.004,0
					c-0.46,0-0.906-0.207-1.339-0.406c-0.355-0.162-0.692-0.318-0.938-0.318C395.648,308.65,394.115,309.268,393.643,309.463
					L393.643,309.463z"/>
			</g>
			<path clip-path="url(#SVGID_4_)" fill="#273F96" d="M392.069,308.139l17.309,0.062c0.271-0.392-0.853-1.32-1.884-1.412
				c-0.85,0.031-1.457,0.87-2.156,0.901c-0.697,0.028-1.487-0.87-2.277-0.841c-0.79,0.031-1.608,0.841-2.399,0.841
				c-0.79,0-1.365-0.87-2.367-0.87c-1.003,0-1.459,0.961-2.218,0.898c-0.76-0.06-1.428-0.958-2.156-0.958
				c-0.729,0-1.943,1.08-2.185,1.021C391.491,307.719,392.04,308.23,392.069,308.139L392.069,308.139z"/>
			<g clip-path="url(#SVGID_4_)">
				<path fill="#273F96" d="M409.428,308.298h-0.05l-17.242-0.062l-0.083,0.015c-0.125,0-0.476-0.31-0.476-0.455v-0.096l0.125-0.021
					c0.162,0.006,0.414-0.167,0.656-0.318c0.49-0.31,1.101-0.696,1.563-0.696c0.402,0,0.778,0.248,1.144,0.489
					c0.331,0.219,0.675,0.443,1.02,0.469c0.003,0,0.004,0,0.007,0c0.358,0,0.612-0.173,0.905-0.378
					c0.349-0.244,0.746-0.52,1.298-0.52c0.557,0,0.993,0.258,1.378,0.485c0.331,0.199,0.645,0.384,0.989,0.384
					c0.381,0,0.787-0.207,1.181-0.412c0.396-0.202,0.807-0.412,1.215-0.429c0,0,0.001,0,0.002,0c0.461,0,0.865,0.229,1.256,0.451
					c0.353,0.202,0.686,0.393,0.989,0.393c0.335-0.015,0.635-0.205,0.948-0.403c0.377-0.239,0.767-0.483,1.239-0.5
					c0.846,0.073,1.749,0.679,1.971,1.15c0.092,0.201,0.048,0.335-0.004,0.412L409.428,308.298L409.428,308.298z M391.785,307.878
					c0.068,0.022,0.226,0.162,0.278,0.179l17.253,0.049c0.014-0.049,0.003-0.108-0.031-0.18c-0.194-0.414-1.041-0.972-1.799-1.04
					c-0.41,0.015-0.775,0.247-1.13,0.47c-0.339,0.213-0.657,0.417-1.015,0.432c-0.001,0-0.001,0-0.001,0
					c-0.394,0-0.747-0.202-1.121-0.412c-0.369-0.213-0.753-0.43-1.121-0.43c-0.4,0.015-0.791,0.217-1.169,0.41
					c-0.415,0.213-0.842,0.432-1.269,0.432c-0.398,0-0.733-0.199-1.087-0.409c-0.382-0.228-0.775-0.461-1.28-0.461
					c-0.493,0-0.845,0.245-1.188,0.486c-0.309,0.213-0.6,0.418-0.962,0.418c-0.473-0.037-0.835-0.276-1.188-0.509
					c-0.357-0.236-0.693-0.455-1.037-0.455c-0.405,0-1.016,0.384-1.46,0.665C392.115,307.741,391.917,307.863,391.785,307.878
					L391.785,307.878z"/>
			</g>
			<path clip-path="url(#SVGID_4_)" fill="#BD1F34" d="M398.719,298.627l3.976,1.051v-5.611c-1.821,0.091-3.338-3.421-0.121-3.662
				c-3.158-0.449-3.521,0.36-3.886,1.23L398.719,298.627z"/>
			<g clip-path="url(#SVGID_4_)">
				<path fill="#590A1E" d="M402.695,299.797c-0.01,0-0.021,0-0.031-0.002l-3.976-1.052c-0.053-0.015-0.089-0.06-0.089-0.113
					l-0.031-6.993c0.304-0.752,0.609-1.482,2.446-1.482c0.443,0,0.975,0.045,1.578,0.131c0.061,0.008,0.106,0.062,0.104,0.125
					c-0.002,0.06-0.05,0.11-0.111,0.116c-1.152,0.085-1.796,0.625-1.764,1.483c0.031,0.878,0.846,1.938,1.806,1.938
					c0.032,0,0.098,0.012,0.12,0.034c0.023,0.022,0.07,0.054,0.07,0.085v5.611c0,0.037-0.018,0.071-0.047,0.097
					C402.748,299.789,402.723,299.797,402.695,299.797L402.695,299.797z M398.838,298.533l3.736,0.988v-5.339
					c-1.119-0.079-1.96-1.198-1.996-2.165c-0.03-0.764,0.408-1.323,1.198-1.585c-0.278-0.022-0.532-0.037-0.763-0.037
					c-1.677,0-1.938,0.625-2.213,1.284L398.838,298.533L398.838,298.533z"/>
			</g>
			<path clip-path="url(#SVGID_4_)" fill="#590A1E" d="M396.199,302.709l8.988,0.029L396.199,302.709z"/>
			<g clip-path="url(#SVGID_4_)">
				<path fill="#590A1E" d="M405.188,302.914c0,0,0,0-0.002,0l-8.988-0.031c-0.095,0-0.173-0.076-0.173-0.174
					c0-0.096,0.079-0.173,0.175-0.173c0,0,0,0,0.001,0l8.988,0.028c0.095,0,0.173,0.08,0.173,0.176
					C405.361,302.835,405.282,302.914,405.188,302.914L405.188,302.914z"/>
			</g>
			<path clip-path="url(#SVGID_4_)" fill="#590A1E" d="M396.624,300.578l1.063,1.41L396.624,300.578z"/>
			<g clip-path="url(#SVGID_4_)">
				<path fill="#590A1E" d="M397.687,302.102c-0.034,0-0.068-0.015-0.091-0.046l-1.062-1.409c-0.037-0.048-0.027-0.119,0.023-0.159
					c0.05-0.036,0.121-0.028,0.159,0.023l1.062,1.409c0.037,0.051,0.027,0.119-0.023,0.159
					C397.733,302.096,397.71,302.102,397.687,302.102L397.687,302.102z"/>
			</g>
			<path clip-path="url(#SVGID_4_)" fill="#590A1E" d="M396.624,301.988l1.154-1.381L396.624,301.988z"/>
			<g clip-path="url(#SVGID_4_)">
				<path fill="#590A1E" d="M396.624,302.102c-0.025,0-0.051-0.009-0.072-0.028c-0.047-0.04-0.054-0.111-0.014-0.159l1.153-1.378
					c0.04-0.049,0.111-0.057,0.159-0.015c0.047,0.04,0.054,0.111,0.014,0.159l-1.153,1.378
					C396.688,302.087,396.656,302.102,396.624,302.102L396.624,302.102z"/>
			</g>
			<path clip-path="url(#SVGID_4_)" fill="#590A1E" d="M397.229,300.487l-0.03,0.87L397.229,300.487z"/>
			<g clip-path="url(#SVGID_4_)">
				<path fill="#590A1E" d="M397.199,301.471c-0.001,0-0.003,0-0.004,0c-0.062-0.003-0.111-0.054-0.108-0.116l0.03-0.87
					c0.001-0.062,0.054-0.136,0.117-0.107c0.062,0,0.11,0.054,0.109,0.116l-0.031,0.87
					C397.31,301.423,397.26,301.471,397.199,301.471L397.199,301.471z"/>
			</g>
			<path clip-path="url(#SVGID_4_)" fill="#590A1E" d="M398.324,300.578l1.062,1.41L398.324,300.578z"/>
			<g clip-path="url(#SVGID_4_)">
				<path fill="#590A1E" d="M399.387,302.102c-0.034,0-0.068-0.015-0.091-0.046l-1.062-1.409c-0.037-0.048-0.027-0.119,0.022-0.159
					c0.05-0.036,0.121-0.028,0.159,0.023l1.062,1.409c0.037,0.051,0.027,0.119-0.022,0.159
					C399.434,302.096,399.411,302.102,399.387,302.102L399.387,302.102z"/>
			</g>
			<path clip-path="url(#SVGID_4_)" fill="#590A1E" d="M398.324,301.988l1.153-1.381L398.324,301.988z"/>
			<g clip-path="url(#SVGID_4_)">
				<path fill="#590A1E" d="M398.324,302.102c-0.025,0-0.051-0.009-0.072-0.028c-0.047-0.04-0.054-0.111-0.015-0.159l1.154-1.378
					c0.039-0.049,0.112-0.057,0.159-0.015c0.047,0.04,0.054,0.111,0.014,0.159l-1.154,1.378
					C398.388,302.087,398.357,302.102,398.324,302.102L398.324,302.102z"/>
			</g>
			<path clip-path="url(#SVGID_4_)" fill="#590A1E" d="M398.929,300.487l-0.03,0.87L398.929,300.487z"/>
			<g clip-path="url(#SVGID_4_)">
				<path fill="#590A1E" d="M398.899,301.471c-0.001,0-0.003,0-0.003,0c-0.063-0.003-0.112-0.054-0.109-0.116l0.03-0.87
					c0.002-0.062,0.042-0.136,0.116-0.107c0.062,0,0.111,0.054,0.109,0.116l-0.03,0.87
					C399.01,301.423,398.96,301.471,398.899,301.471L398.899,301.471z"/>
			</g>
			<path clip-path="url(#SVGID_4_)" fill="#590A1E" d="M400.055,300.578l1.062,1.41L400.055,300.578z"/>
			<g clip-path="url(#SVGID_4_)">
				<path fill="#590A1E" d="M401.117,302.102c-0.034,0-0.068-0.015-0.09-0.046l-1.062-1.409c-0.038-0.048-0.027-0.119,0.021-0.159
					c0.051-0.036,0.121-0.028,0.159,0.023l1.062,1.409c0.037,0.051,0.026,0.119-0.021,0.159
					C401.166,302.096,401.141,302.102,401.117,302.102L401.117,302.102z"/>
			</g>
			<path clip-path="url(#SVGID_4_)" fill="#590A1E" d="M400.055,301.988l1.153-1.381L400.055,301.988z"/>
			<g clip-path="url(#SVGID_4_)">
				<path fill="#590A1E" d="M400.055,302.102c-0.024,0-0.051-0.009-0.073-0.028c-0.047-0.04-0.054-0.111-0.014-0.159l1.153-1.378
					c0.04-0.049,0.111-0.057,0.159-0.015c0.047,0.04,0.054,0.111,0.015,0.159l-1.154,1.378
					C400.12,302.087,400.087,302.102,400.055,302.102L400.055,302.102z"/>
			</g>
			<path clip-path="url(#SVGID_4_)" fill="#590A1E" d="M400.661,300.487l-0.03,0.87L400.661,300.487z"/>
			<g clip-path="url(#SVGID_4_)">
				<path fill="#590A1E" d="M400.631,301.471c-0.001,0-0.004,0-0.004,0c-0.062-0.003-0.111-0.054-0.109-0.116l0.031-0.87
					c0.001-0.062,0.06-0.136,0.117-0.107c0.062,0,0.111,0.054,0.108,0.116l-0.03,0.87
					C400.742,301.423,400.691,301.471,400.631,301.471L400.631,301.471z"/>
			</g>
			<path clip-path="url(#SVGID_4_)" fill="#590A1E" d="M401.846,300.578l1.062,1.41L401.846,300.578z"/>
			<g clip-path="url(#SVGID_4_)">
				<path fill="#590A1E" d="M402.908,302.102c-0.033,0-0.068-0.015-0.09-0.046l-1.062-1.409c-0.038-0.048-0.027-0.119,0.021-0.159
					c0.052-0.036,0.123-0.028,0.16,0.023L403,301.92c0.036,0.051,0.026,0.119-0.021,0.159
					C402.957,302.096,402.933,302.102,402.908,302.102L402.908,302.102z"/>
			</g>
			<path clip-path="url(#SVGID_4_)" fill="#590A1E" d="M401.846,301.988l1.154-1.381L401.846,301.988z"/>
			<g clip-path="url(#SVGID_4_)">
				<path fill="#590A1E" d="M401.846,302.102c-0.023,0-0.051-0.009-0.072-0.028c-0.047-0.04-0.054-0.111-0.014-0.159l1.152-1.378
					c0.041-0.049,0.111-0.057,0.16-0.015c0.047,0.04,0.054,0.111,0.014,0.159l-1.153,1.378
					C401.911,302.087,401.879,302.102,401.846,302.102L401.846,302.102z"/>
			</g>
			<path clip-path="url(#SVGID_4_)" fill="#590A1E" d="M402.454,300.487l-0.03,0.87L402.454,300.487z"/>
			<g clip-path="url(#SVGID_4_)">
				<path fill="#590A1E" d="M402.424,301.471c-0.001,0-0.002,0-0.004,0c-0.062-0.003-0.111-0.054-0.107-0.116l0.029-0.87
					c0.002-0.062,0.047-0.136,0.116-0.107c0.062,0,0.11,0.054,0.108,0.116l-0.03,0.87
					C402.535,301.423,402.484,301.471,402.424,301.471L402.424,301.471z"/>
			</g>
			<path clip-path="url(#SVGID_4_)" fill="#590A1E" d="M403.578,300.578l1.062,1.41L403.578,300.578z"/>
			<g clip-path="url(#SVGID_4_)">
				<path fill="#590A1E" d="M404.641,302.102c-0.035,0-0.068-0.015-0.092-0.046l-1.062-1.409c-0.037-0.048-0.026-0.119,0.023-0.159
					c0.049-0.036,0.121-0.028,0.157,0.023l1.062,1.409c0.038,0.051,0.028,0.119-0.021,0.159
					C404.688,302.096,404.664,302.102,404.641,302.102L404.641,302.102z"/>
			</g>
			<path clip-path="url(#SVGID_4_)" fill="#590A1E" d="M403.578,301.988l1.151-1.381L403.578,301.988z"/>
			<g clip-path="url(#SVGID_4_)">
				<path fill="#590A1E" d="M403.578,302.102c-0.025,0-0.052-0.009-0.072-0.028c-0.049-0.04-0.057-0.111-0.015-0.159l1.153-1.378
					c0.038-0.049,0.111-0.057,0.158-0.015c0.048,0.04,0.055,0.111,0.014,0.159l-1.152,1.378
					C403.642,302.087,403.609,302.102,403.578,302.102L403.578,302.102z"/>
			</g>
			<path clip-path="url(#SVGID_4_)" fill="#590A1E" d="M404.186,300.487l-0.033,0.87L404.186,300.487z"/>
			<g clip-path="url(#SVGID_4_)">
				<path fill="#590A1E" d="M404.152,301.471c-0.001,0-0.002,0-0.004,0c-0.062-0.003-0.11-0.054-0.107-0.116l0.031-0.87
					c0.002-0.062,0.035-0.136,0.116-0.107c0.062,0,0.11,0.054,0.109,0.116l-0.032,0.87
					C404.264,301.426,404.213,301.471,404.152,301.471L404.152,301.471z"/>
			</g>
			<polygon clip-path="url(#SVGID_4_)" fill="#F09A2B" points="390.154,302.798 393.981,302.829 393.981,300.459 389.61,300.249 			
				"/>
			<polygon clip-path="url(#SVGID_4_)" fill="#F09A2B" points="389.974,299.527 394.041,299.92 394.011,298.237 390.034,296.678 			
				"/>
			<path clip-path="url(#SVGID_4_)" fill="#F09A2B" d="M390.793,296.166l3.127,1.5l0.447-0.46c0,0-0.288-0.196-0.274-0.378
				c0.005-0.179,0.29-0.207,0.295-0.406c0.004-0.182-0.321-0.205-0.325-0.387c-0.023-0.198,0.251-0.409,0.251-0.409l-2.824-2.432
				L390.793,296.166z"/>
			<polygon clip-path="url(#SVGID_4_)" fill="#F09A2B" points="411.32,302.829 407.279,302.829 407.25,300.519 411.684,300.189 			
				"/>
			<path clip-path="url(#SVGID_4_)" fill="#F09A2B" d="M411.418,299.49c-0.05-0.375-0.104-0.75-0.19-1.116
				c-0.116-0.495-0.266-0.978-0.447-1.449c-0.012-0.034-0.031-0.068-0.046-0.103l-3.455,1.446l0.033,1.711L411.418,299.49z"/>
			<path clip-path="url(#SVGID_4_)" fill="#F09A2B" d="M409.06,293.936l-2.067,1.562c-0.002,0-0.004,0.006-0.004,0.006
				c0,0.003,0,0.006,0,0.006v0.003v0.006v0.003c0,0.003,0,0.006,0,0.008c0.019,0.092,0.199,0.311,0.227,0.472
				c-0.014,0.247-0.227,0.358-0.262,0.466c0,0.004-0.003,0.009-0.004,0.012c0,0.003,0.001,0.006,0,0.009c0,0.003,0,0.009,0,0.012
				v0.005c0.001,0.003,0,0.009,0,0.009c0.001,0.003,0.004,0.006,0.004,0.009c0.002,0.006,0.006,0.014,0.007,0.02
				c0.058,0.088,0.259,0.137,0.259,0.315c0,0.199-0.184,0.315-0.206,0.33c0.237,0.156,0.28,0.347,0.333,0.542l3.092-1.61
				C410.068,295.342,409.609,294.606,409.06,293.936L409.06,293.936z"/>
			<polygon clip-path="url(#SVGID_4_)" fill="#F09A2B" points="403.304,299.934 405.033,299.859 405.064,299.169 			"/>
			<polygon clip-path="url(#SVGID_4_)" fill="#F09A2B" points="398.02,299.88 396.199,299.828 396.199,299.106 			"/>
			<path clip-path="url(#SVGID_4_)" fill="#F09A2B" d="M398.012,299.67l-1.812-0.921v-1.202c0,0-0.213,0.028-0.184-0.21
				c0.01-0.5,1.334,0.915,2.013,1.372L398.012,299.67z"/>
			<path clip-path="url(#SVGID_4_)" fill="#F09A2B" d="M403.304,299.559l-0.009-0.781c0,0,1.641-1.463,1.99-1.733
				c0,0.302-0.19,0.531-0.19,0.531v1.143L403.304,299.559z"/>
			<path clip-path="url(#SVGID_4_)" fill="#F09A2B" d="M392.674,292.984c0.033,0.031,1.843,2.02,1.843,2.02
				c0.049-0.19,0.466-0.219,0.891-0.188c0.428,0.031,0.766-0.028,0.766,0.273c0,0.298-0.216,0.255-0.216,0.466
				c0,0.21,0.322,0.192,0.322,0.463c0,0.27-0.234,0.216-0.236,0.423c0,0.174,0.246,0.183,0.246,0.183l1.722,1.65l0.008-1.762
				l-3.551-5.509L392.674,292.984z"/>
			<path clip-path="url(#SVGID_4_)" fill="#F09A2B" d="M395.519,290.901c0.025,0.079,2.405,4.861,2.405,4.861
				s0.028-4.489,0.433-4.73l-0.675-1.228L395.519,290.901z"/>
			<path clip-path="url(#SVGID_4_)" fill="#F09A2B" d="M403.285,290.385l-0.899,3.105c0,0,0.435,0.054,0.787,0.025
				c0.087-0.006,0.14,0.014,0.166,0.042c0.007,0.006,0.013,0.015,0.017,0.023c0.002,0.005,0.006,0.011,0.01,0.02
				c0.001,0.012,0.002,0.031,0.002,0.048c-0.007,0.083-0.064,0.18-0.064,0.18l-0.005,2l2.537-4.486
				c-0.517-0.265-1.068-0.491-1.656-0.676C403.875,290.549,403.579,290.458,403.285,290.385L403.285,290.385z"/>
			<path clip-path="url(#SVGID_4_)" fill="#F09A2B" d="M406.445,291.68l-3.141,4.83l-0.002,1.858l2.063-1.96
				c0.026-0.023,0.044-0.046,0.057-0.062c0.001-0.006,0.005-0.015,0.006-0.021c0.001,0,0.005-0.006,0.005-0.011
				c0.001-0.004,0-0.006,0-0.009c0,0,0.001-0.006,0-0.009c0,0,0.001-0.006,0-0.006c0,0-0.004-0.008-0.005-0.008
				c-0.001-0.004-0.005-0.006-0.006-0.012c-0.051-0.057-0.216-0.091-0.231-0.271c0.004-0.034,0.012-0.062,0.024-0.085
				c0.044-0.079,0.136-0.094,0.194-0.165c0.031-0.036,0.051-0.094,0.051-0.185c0-0.068-0.008-0.11-0.02-0.139
				c-0.003-0.003-0.003-0.009-0.004-0.012c-0.003-0.006-0.009-0.012-0.014-0.014l-0.001-0.006c-0.003,0-0.004-0.003-0.004-0.003
				c-0.028-0.022-0.063-0.028-0.099-0.052c-0.002-0.002-0.007-0.002-0.008-0.002c-0.002-0.003-0.009-0.009-0.014-0.015
				c-0.002-0.003-0.01-0.012-0.014-0.02c-0.02-0.028-0.039-0.077-0.051-0.153c-0.008-0.031-0.009-0.062,0-0.097
				c0.001-0.003,0.006-0.015,0.007-0.018c0.003-0.006,0.007-0.011,0.009-0.017c0.006-0.012,0.016-0.028,0.028-0.04
				c0.001-0.003,0.007-0.009,0.011-0.009c0.072-0.068,0.223-0.119,0.505-0.119c0.509,0,1.044-0.097,1.132,0.111
				c0.009-0.012,1.13-1.131,1.607-1.623C407.926,292.711,407.229,292.151,406.445,291.68L406.445,291.68z"/>
			<path clip-path="url(#SVGID_4_)" fill="#BD1F34" d="M399.6,303.701c-0.864,1.418-3.178,0.994-3.716,0.009
				c-0.164-0.049-0.067-6.101-0.067-6.101s-0.26-0.116-0.273-0.304c-0.011-0.188,0.353-0.208,0.353-0.446
				c0-0.241-0.37-0.147-0.378-0.389c0.001-0.23,0.396-0.199,0.378-0.415c-0.021-0.239-0.442-0.205-0.459-0.427
				c-0.014-0.176,0.301-0.329,0.389-0.409c-0.057,0.003-0.294-0.003-0.294-0.005c-0.222,0.005-0.443,0.011-0.665,0.014
				c-0.47,0,0.009,0.103,0.003,0.372c-0.004,0.174-0.24,0.29-0.26,0.44c-0.009,0.159,0.336,0.27,0.341,0.458
				c0.003,0.164-0.338,0.179-0.327,0.335c0.022,0.262,0.303,0.318,0.298,0.48c-0.004,0.158-0.376,0.219-0.379,0.346
				c0.014,0.245,0.056,6.229,0.056,6.229C395.194,306.932,398.628,307.707,399.6,303.701L399.6,303.701z"/>
			<g clip-path="url(#SVGID_4_)">
				<path fill="#590A1E" d="M397.09,306.565L397.09,306.565c-1.232,0-2.304-1.092-2.61-2.657c-0.001-0.082-0.042-6-0.057-6.239
					c0.002-0.142,0.127-0.207,0.237-0.267c0.046-0.025,0.131-0.071,0.143-0.097c0-0.012-0.046-0.054-0.08-0.085
					c-0.085-0.08-0.204-0.186-0.219-0.378c-0.011-0.159,0.129-0.23,0.223-0.278c0.033-0.018,0.095-0.052,0.104-0.065
					c-0.001-0.04-0.081-0.105-0.139-0.153c-0.098-0.08-0.209-0.171-0.202-0.311c0.016-0.116,0.088-0.198,0.155-0.27
					c0.051-0.06,0.104-0.119,0.105-0.171c0.001-0.062-0.062-0.122-0.114-0.17c-0.037-0.034-0.105-0.162-0.086-0.21
					c0.042-0.105,0.176-0.105,0.318-0.105l0.664-0.015c0.003,0,0.009,0,0.013,0.003c0.042,0,0.324-0.039,0.37,0.08
					c0.018,0.045,0.031,0.1-0.007,0.133c-0.003,0.003-0.104,0.077-0.108,0.08c-0.074,0.051-0.244,0.168-0.24,0.23
					c0.003,0.033,0.064,0.062,0.149,0.104c0.124,0.054,0.292,0.128,0.31,0.321c0.016,0.188-0.141,0.264-0.246,0.318
					c-0.1,0.048-0.132,0.07-0.132,0.105c0.001,0.028,0.013,0.042,0.115,0.082c0.098,0.04,0.263,0.105,0.263,0.307
					c0,0.19-0.149,0.287-0.249,0.353c-0.04,0.025-0.104,0.065-0.104,0.085c0.005,0.085,0.139,0.174,0.202,0.202
					c0.044,0.02,0.071,0.062,0.071,0.11c-0.036,2.193-0.054,5.773,0.044,6.038c0.274,0.491,1.04,0.844,1.829,0.844
					c0.742,0,1.356-0.312,1.688-0.853c0.03-0.054,0.092-0.074,0.149-0.051c0.055,0.025,0.085,0.082,0.071,0.142
					C399.287,305.505,398.304,306.565,397.09,306.565L397.09,306.565z M394.896,295.348c0.055,0.071,0.096,0.153,0.095,0.253
					c-0.002,0.14-0.094,0.241-0.167,0.324c-0.041,0.048-0.089,0.1-0.094,0.134c0.007,0.011,0.075,0.067,0.115,0.102
					c0.099,0.083,0.223,0.182,0.227,0.336c0.003,0.159-0.139,0.232-0.234,0.281c-0.031,0.017-0.085,0.045-0.097,0.06
					c0.013,0.082,0.074,0.139,0.145,0.207c0.071,0.065,0.161,0.146,0.158,0.272c-0.004,0.154-0.152,0.233-0.269,0.299
					c-0.038,0.02-0.104,0.054-0.118,0.071c0.021,0.213,0.06,5.955,0.062,6.199c0.28,1.427,1.256,2.438,2.37,2.438l0,0
					c0.972,0,1.786-0.781,2.239-2.116c-0.388,0.338-0.917,0.525-1.519,0.525c-0.885,0-1.722-0.395-2.033-0.969
					c-0.052,0.028-0.179,0.014-0.082-6.086c-0.098-0.057-0.259-0.179-0.271-0.366c-0.01-0.159,0.119-0.242,0.214-0.305
					c0.094-0.06,0.138-0.094,0.138-0.147c0-0.031-0.004-0.04-0.109-0.082c-0.098-0.037-0.261-0.103-0.269-0.302
					c0.002-0.198,0.161-0.275,0.268-0.329c0.078-0.037,0.113-0.057,0.11-0.08c-0.002-0.042-0.051-0.073-0.165-0.122
					c-0.118-0.054-0.28-0.125-0.294-0.304c-0.009-0.122,0.062-0.219,0.152-0.301L394.896,295.348L394.896,295.348z"/>
			</g>
			<path clip-path="url(#SVGID_4_)" fill="#BD1F34" d="M401.864,303.701c0.865,1.418,3.18,0.994,3.72,0.009
				c0.163-0.049,0.066-6.101,0.066-6.101s0.26-0.116,0.27-0.304c0.012-0.188-0.328-0.208-0.328-0.446
				c0-0.241,0.348-0.147,0.357-0.389c-0.004-0.23-0.367-0.214-0.349-0.43c0.021-0.241,0.306-0.213,0.321-0.435
				c0.014-0.19-0.18-0.307-0.266-0.387c0.057,0.003,0.275-0.003,0.278-0.005c0.222,0.005,0.441,0.011,0.662,0.014
				c0.47,0-0.009,0.103,0,0.372c0.004,0.174,0.237,0.29,0.26,0.44c0.007,0.159-0.337,0.27-0.341,0.458
				c-0.004,0.164,0.336,0.179,0.324,0.335c-0.021,0.262-0.302,0.318-0.297,0.48c0.006,0.158,0.377,0.219,0.377,0.346
				c-0.012,0.245-0.053,6.229-0.053,6.229C406.272,306.932,402.839,307.707,401.864,303.701L401.864,303.701z"/>
			<g clip-path="url(#SVGID_4_)">
				<path fill="#590A1E" d="M404.377,306.565c-1.216,0-2.199-1.061-2.631-2.836c-0.014-0.06,0.016-0.116,0.071-0.142
					c0.056-0.023,0.12-0.003,0.149,0.048c0.332,0.543,0.949,0.855,1.689,0.855c0.789,0,1.555-0.353,1.822-0.841
					c0.104-0.268,0.086-3.848,0.051-6.041c-0.001-0.048,0.027-0.091,0.071-0.11c0.062-0.028,0.194-0.117,0.198-0.202
					c0.002-0.02-0.049-0.057-0.095-0.088c-0.093-0.062-0.233-0.159-0.233-0.35c0-0.201,0.156-0.264,0.25-0.307
					c0.098-0.04,0.105-0.049,0.107-0.086c0-0.036-0.03-0.059-0.124-0.113c-0.095-0.057-0.239-0.139-0.226-0.321
					c0.016-0.182,0.135-0.258,0.222-0.317c0.073-0.052,0.098-0.068,0.101-0.117c0.008-0.088-0.069-0.159-0.169-0.238
					c-0.041-0.034-0.081-0.111-0.062-0.162c0.019-0.048,0.047-0.122,0.093-0.1c0.131,0.003,0.245,0,0.262-0.003l0.674,0.015
					c0.141,0,0.275,0,0.316,0.105c0.02,0.048-0.049,0.176-0.084,0.21c-0.052,0.045-0.115,0.107-0.113,0.17
					c0,0.052,0.055,0.111,0.107,0.171c0.063,0.071,0.136,0.153,0.151,0.262c0.009,0.147-0.103,0.238-0.2,0.318
					c-0.059,0.048-0.138,0.113-0.139,0.156c0.008,0.014,0.069,0.045,0.102,0.062c0.094,0.048,0.234,0.122,0.222,0.278
					c-0.015,0.192-0.132,0.298-0.218,0.378c-0.032,0.028-0.079,0.073-0.079,0.091c0.011,0.017,0.097,0.062,0.141,0.091
					c0.11,0.06,0.237,0.125,0.237,0.258c-0.013,0.248-0.053,6.166-0.053,6.229C406.68,305.474,405.607,306.565,404.377,306.565
					L404.377,306.565z M402.137,304.207c0.453,1.335,1.268,2.116,2.24,2.116c1.113,0,2.089-1.011,2.371-2.46
					c0-0.222,0.039-5.964,0.052-6.208c-0.005,0.011-0.071-0.021-0.109-0.043c-0.118-0.062-0.263-0.142-0.269-0.293
					c-0.004-0.13,0.085-0.21,0.158-0.275c0.07-0.068,0.131-0.125,0.139-0.222c-0.008,0-0.06-0.028-0.091-0.045
					c-0.094-0.049-0.237-0.122-0.233-0.281c0.003-0.154,0.127-0.253,0.227-0.336c0.041-0.034,0.107-0.091,0.115-0.113
					c-0.005-0.02-0.053-0.074-0.094-0.122c-0.073-0.083-0.164-0.185-0.167-0.324c-0.003-0.103,0.042-0.188,0.091-0.253l-0.615-0.011
					c0.061,0.076,0.1,0.167,0.092,0.278c-0.012,0.17-0.125,0.244-0.209,0.301c-0.08,0.051-0.109,0.077-0.113,0.137
					c-0.002,0.025,0.018,0.042,0.104,0.094c0.097,0.054,0.241,0.137,0.244,0.324c-0.007,0.201-0.162,0.27-0.256,0.307
					c-0.097,0.039-0.101,0.051-0.101,0.082c0,0.057,0.038,0.088,0.129,0.15c0.088,0.06,0.209,0.146,0.199,0.302
					c-0.01,0.185-0.17,0.31-0.269,0.366c0.095,6.077-0.044,6.114-0.156,6.148c-0.237,0.509-1.074,0.906-1.96,0.906
					C403.055,304.732,402.525,304.545,402.137,304.207L402.137,304.207z"/>
			</g>
			<path clip-path="url(#SVGID_4_)" fill="#273F96" d="M398.76,306.485l3.866-0.003c0.03-0.028-0.866-1.318-1.932-1.228
				C399.506,305.286,398.699,306.485,398.76,306.485L398.76,306.485z"/>
			<g clip-path="url(#SVGID_4_)">
				<path fill="#273F96" d="M398.76,306.582h-0.095l-0.004-0.1c-0.001-0.153,0.838-1.293,2.028-1.324l0.111-0.005
					c1.06,0,1.868,1.173,1.913,1.281l0.023,0.06l-0.044,0.06L398.76,306.582L398.76,306.582z M400.8,305.346l-0.104,0.006
					c-0.898,0.023-1.56,0.745-1.773,1.037l3.531-0.003C402.232,306.085,401.568,305.346,400.8,305.346L400.8,305.346z"/>
			</g>
			<path clip-path="url(#SVGID_4_)" fill="#273F96" d="M411.08,306.392h-5.286c0,0,0.683-0.397,0.87-0.767
				c0.343,0.182,0.248,0.369,0.934,0.397c0.684,0.031,1.337-0.768,1.989-0.736C410.24,305.317,411.08,306.423,411.08,306.392
				L411.08,306.392z"/>
			<g clip-path="url(#SVGID_4_)">
				<path fill="#273F96" d="M411.078,306.488h-5.643l0.311-0.179c0.005-0.006,0.66-0.393,0.832-0.73l0.045-0.088l0.087,0.048
					c0.118,0.062,0.188,0.125,0.25,0.182c0.121,0.108,0.206,0.186,0.642,0.205c0.002,0,0.004,0,0.004,0
					c0.338,0,0.654-0.182,0.96-0.361c0.318-0.185,0.647-0.377,0.984-0.377c0.624,0.028,1.309,0.81,1.533,1.068l0.266,0.176
					L411.078,306.488L411.078,306.488z M406.117,306.295h4.745c-0.532-0.591-0.963-0.897-1.279-0.912c0,0-0.002,0-0.003,0
					c-0.315,0-0.608,0.171-0.918,0.35c-0.328,0.19-0.668,0.39-1.025,0.39c-0.547-0.025-0.666-0.134-0.805-0.259
					c-0.041-0.034-0.08-0.068-0.135-0.105C406.56,305.96,406.311,306.159,406.117,306.295L406.117,306.295z"/>
			</g>
			<path clip-path="url(#SVGID_4_)" fill="#273F96" d="M390.245,306.392h5.288c0,0-0.685-0.397-0.87-0.767
				c-0.342,0.182-0.25,0.369-0.933,0.397c-0.685,0.031-1.337-0.768-1.992-0.736C391.086,305.317,390.245,306.423,390.245,306.392
				L390.245,306.392z"/>
			<g clip-path="url(#SVGID_4_)">
				<path fill="#273F96" d="M395.533,306.488h-5.606l0.267-0.176c0.274-0.315,0.96-1.097,1.542-1.123h0.001
					c0.378,0,0.708,0.19,1.024,0.375c0.307,0.18,0.624,0.364,0.93,0.364c0.469-0.022,0.556-0.1,0.676-0.208
					c0.062-0.057,0.132-0.119,0.25-0.182l0.087-0.048l0.045,0.088c0.17,0.338,0.825,0.725,0.831,0.73l0.308,0.179H395.533
					L395.533,306.488z M390.465,306.295h4.742c-0.193-0.136-0.439-0.335-0.577-0.537c-0.056,0.037-0.096,0.071-0.135,0.105
					c-0.138,0.125-0.258,0.233-0.763,0.256c0,0-0.001,0-0.003,0c-0.399,0-0.737-0.196-1.065-0.387
					c-0.31-0.179-0.603-0.353-0.888-0.353C391.429,305.397,390.998,305.704,390.465,306.295L390.465,306.295z"/>
			</g>
			<path clip-path="url(#SVGID_4_)" fill="#273F96" d="M390.642,304.75l3.765,0.031c0,0-0.242-0.512-0.273-1.143
				c-0.972-0.33-1.76,0.719-2.459,0.75s-1.429-0.75-1.429-0.75L390.642,304.75z"/>
			<g clip-path="url(#SVGID_4_)">
				<path fill="#273F96" d="M394.558,304.877l-3.985-0.031l-0.419-1.176l0.162-0.1c0.007,0.009,0.683,0.725,1.318,0.725
					c0.287-0.012,0.566-0.179,0.863-0.353c0.483-0.287,1.087-0.591,1.667-0.395l0.062,0.02l0.003,0.065
					c0.03,0.605,0.26,1.1,0.263,1.105L394.558,304.877L394.558,304.877z M390.71,304.656l3.551,0.028
					c-0.072-0.19-0.19-0.549-0.22-0.975c-0.489-0.14-0.989,0.13-1.445,0.4c-0.318,0.185-0.619,0.363-0.917,0.375h-0.001
					c-0.475,0-0.929-0.29-1.212-0.518L390.71,304.656L390.71,304.656z"/>
			</g>
			<path clip-path="url(#SVGID_4_)" fill="#273F96" d="M410.742,304.75l-3.764,0.031c0,0,0.242-0.512,0.271-1.143
				c0.973-0.33,1.763,0.719,2.462,0.75c0.696,0.031,1.426-0.75,1.426-0.75L410.742,304.75z"/>
			<g clip-path="url(#SVGID_4_)">
				<path fill="#273F96" d="M406.825,304.877l0.065-0.139c0.003-0.006,0.234-0.503,0.263-1.105l0.003-0.065l0.062-0.02
					c0.582-0.196,1.185,0.107,1.669,0.395c0.297,0.174,0.577,0.341,0.828,0.35l0,0c0.671,0,1.346-0.713,1.353-0.722l0.161,0.1
					l-0.42,1.176L406.825,304.877L406.825,304.877z M407.342,303.71c-0.029,0.426-0.146,0.784-0.219,0.975l3.551-0.028l0.244-0.686
					c-0.28,0.228-0.722,0.518-1.166,0.518c-0.343-0.015-0.644-0.193-0.964-0.378C408.332,303.84,407.83,303.57,407.342,303.71
					L407.342,303.71z"/>
			</g>
			<path clip-path="url(#SVGID_4_)" fill="#273F96" d="M399.721,304.781l1.912-0.062c0,0,0.029-0.568-0.972-0.568
				C399.661,304.15,399.75,304.81,399.721,304.781L399.721,304.781z"/>
			<g clip-path="url(#SVGID_4_)">
				<path fill="#273F96" d="M399.53,304.883l0.104-0.145c0.09-0.568,0.607-0.685,1.027-0.685c0.421,0,0.726,0.097,0.907,0.287
					c0.171,0.179,0.161,0.378,0.161,0.383l-0.005,0.091L399.53,304.883L399.53,304.883z M400.661,304.246
					c-0.634,0-0.778,0.271-0.82,0.433l0.264-0.009c-0.005-0.012-0.01-0.025-0.01-0.04c0-0.104,0.193-0.104,0.193,0
					c0,0.012-0.003,0.026-0.007,0.034l1.239-0.037c-0.015-0.045-0.042-0.102-0.097-0.158
					C401.281,304.323,401.018,304.246,400.661,304.246L400.661,304.246z"/>
			</g>
			<path clip-path="url(#SVGID_4_)" fill="#590A1E" d="M398.565,303.968c0.334-0.179,0.638-0.357,0.851-0.778l-1.305,0.031
				c0,0-0.608,0.358-0.912,0.747H398.565z"/>
			<g clip-path="url(#SVGID_4_)">
				<path fill="#590A1E" d="M398.61,304.145h-1.768l0.219-0.284c0.321-0.409,0.935-0.775,0.961-0.793l1.682-0.06l-0.132,0.262
					c-0.23,0.451-0.555,0.653-0.925,0.855L398.61,304.145L398.61,304.145z M397.611,303.795h0.911
					c0.228-0.125,0.415-0.241,0.57-0.424l-0.969,0.021C398.129,303.405,397.861,303.576,397.611,303.795L397.611,303.795z"/>
			</g>
			<path clip-path="url(#SVGID_4_)" fill="#590A1E" d="M402.787,303.968c-0.333-0.179-0.637-0.357-0.85-0.778l1.305,0.031
				c0,0,0.608,0.358,0.91,0.747H402.787z"/>
			<g clip-path="url(#SVGID_4_)">
				<path fill="#590A1E" d="M404.51,304.145h-1.723c-0.451-0.222-0.776-0.424-1.006-0.875l-0.133-0.262l1.598,0.037
					c0.111,0.04,0.725,0.406,1.045,0.815L404.51,304.145L404.51,304.145z M402.258,303.366c0.164,0.195,0.365,0.315,0.612,0.448
					l0.878-0.014c-0.275-0.242-0.59-0.43-0.594-0.432L402.258,303.366L402.258,303.366z"/>
			</g>
			<path clip-path="url(#SVGID_4_)" fill="#FFFFFF" d="M358,313.504h85.717V288.5H358V313.504z M399.687,290.077
				c1.563,0,2.931,0,4.492,0.589c8.789,2.759,9.963,15.16,2.149,19.883c-1.368,0.985-2.734,1.381-4.296,1.576
				c-1.174,0-2.346,0-3.516-0.195c-8.595-1.773-11.33-13.192-4.883-19.097C395.389,291.26,397.344,290.47,399.687,290.077
				L399.687,290.077z"/>
		</g>
	</g>
</g>
</svg>
