<?xml version="1.0" encoding="utf-8"?>
<!-- Generator: Adobe Illustrator 16.0.0, SVG Export Plug-In . SVG Version: 6.00 Build 0)  -->
<!DOCTYPE svg PUBLIC "-//W3C//DTD SVG 1.1//EN" "http://www.w3.org/Graphics/SVG/1.1/DTD/svg11.dtd">
<svg version="1.1" id="name" xmlns="http://www.w3.org/2000/svg" xmlns:xlink="http://www.w3.org/1999/xlink" x="0px" y="0px"
	 width="85.711px" height="50px" viewBox="358 276.003 85.711 50" enable-background="new 358 276.003 85.711 50"
	 xml:space="preserve">
<g id="pg">
	<g>
		<defs>
			<rect id="SVGID_1_" x="358" y="276.003" width="85.711" height="50"/>
		</defs>
		<clipPath id="SVGID_2_">
			<use xlink:href="#SVGID_1_"  overflow="visible"/>
		</clipPath>
		<rect x="358" y="276.003" clip-path="url(#SVGID_2_)" fill="#010101" width="85.711" height="50"/>
		<polygon clip-path="url(#SVGID_2_)" fill="#BD1F34" points="358,276.003 443.711,326.003 443.711,276.003 		"/>
		<g clip-path="url(#SVGID_2_)">
			<defs>
				<rect id="SVGID_3_" x="358" y="276.003" width="85.711" height="50"/>
			</defs>
			<clipPath id="SVGID_4_">
				<use xlink:href="#SVGID_3_"  overflow="visible"/>
			</clipPath>
			<path clip-path="url(#SVGID_4_)" fill="#F4D130" d="M413.582,290.529c-0.488,0.637-1.655-0.639-3.051-0.668
				c-1.397-0.028-2.387,1.339-2.793,1.805c-0.406,0.463-1.716,2.906-1.685,3.168c0.028,0.261,0.812-0.728,1.105-0.901
				c0.028,0.347-0.321,0.756-0.236,0.872c0.091,0.117,1.021-0.698,1.342-0.727c0.085,0.232-0.177,0.466-0.089,0.815
				c0.114,0.116,0.64-0.583,0.989-0.728c0.057,0.262-0.321,0.756-0.116,1.074c0.145,0.031,1.017-0.986,1.307-1.105
				c0.292-0.116-0.146,0.96,0,1.048c0.261-0.173,1.076-1.104,1.338-1.222c0.262-0.116-0.028,1.193,0.088,1.193
				c0.318-0.232,1.134-1.338,1.221-1.511c0.086-0.177-0.087,1.685,0.816,2.673c0.9,0.989,2.268,2.123,2.412,2.123
				c0.176-0.318-0.061-0.989,0.084-0.958c0.41,0.435,1.166,1.074,1.342,1.074c0.174,0-0.119-0.696,0.117-0.696
				c0.463,0.435,1.801,2.15,4.418,2.935c-0.174-0.494-0.553-0.929-0.584-1.162c0.178,0.028,0.787,0.321,0.904,0.29
				c0.117-0.028-1.281-1.744-1.193-1.978c0.32-0.028,0.467,0.177,0.582,0.031c-0.146-0.232-1.369-1.6-1.369-1.92
				c0-0.318,0.381,0.057,0.498,0c0.115-0.058-0.467-1.279-0.35-1.424c0.115-0.147,1.395,0.784,1.715,0.784
				c0.318,0,0.088-1.137,0.234-1.193c0.145-0.057,1.221,0.611,1.451,0.611c0.236,0,0.205-0.495,0.293-0.436
				c0.088,0.058,2.615,2.589,1.744,5.555c-0.873,2.122-2.617,3.256-5.176,2.327c0.145,0.229,1.51,1.366,2.994,0.957
				c1.482-0.406,3.287-1.568,3.084-4.478s-1.164-3.315-1.312-3.75c-0.145-0.438,0.236,0.116,0.555,0.23
				c0.32,0.116-0.057-0.608-0.145-0.93c-0.088-0.32,0.961,0.668,1.221,0.756c0.262,0.088-0.609-2.384-0.871-2.56
				c-0.262-0.173,0.262,0.06,0.434,0.116c0.178,0.06-1.6-2.704-1.977-2.704c-0.375,0,0.32-0.146,0.523-0.146
				c0.207,0-2.035-1.801-2.412-1.801c-0.379,0,0.814-0.466,0.932-0.497c0.203,0.031-2.588-1.483-5.092,0.031
				c-0.145-0.117,1.18-1.034,1.223-1.427c0.014-0.102-0.436-0.318-0.465-0.435c-0.031-0.116,0.697-0.466,0.729-0.728
				c-0.176-0.232-0.498-0.145-0.67-0.204c-0.043-0.219,0.609-0.756,0.551-0.989c-0.043-0.13-0.523-0.173-0.641-0.085
				c-0.115,0.085,0.309-0.61,0.234-0.815c-0.057-0.088-0.291-0.028-0.523,0.028c-0.145-0.028,0.756-1.278,0.582-1.451
				c-0.176-0.177-2.619,1.278-3.52,2.906s-0.205,2.938-0.32,3.488c-0.115,0.555-0.262,1.105-0.641,1.105
				c-0.375,0-1.25-0.582-1.539-0.872c-0.293-0.29-0.35-0.494-0.756-0.611c-0.406-0.116-1.338,0.233-1.688,0.262
				c-0.347,0.031-1.716-0.262-1.801-0.173c-0.088,0.088,1.338,0.61,1.656,0.784c0.321,0.176,0.35,0.406,0.582,0.551
				C412.1,288.989,414.281,289.629,413.582,290.529"/>
			<path clip-path="url(#SVGID_4_)" fill="#F4D130" d="M422.105,294.632c0.699,0.696,5.406,3.839,5.406,7.674
				c0,3.841-3.432,3.725-4.418,3.608c1.104,0.929,5.293,0.756,5.293-3.608c0-3.835-5.412-7.674-6.107-8.026
				C421.582,293.933,421.406,293.933,422.105,294.632"/>
			<polygon clip-path="url(#SVGID_4_)" fill="#FFFFFF" points="380.066,291.498 380.797,294.001 383.316,294.001 381.328,295.529 
				382.056,297.965 380.066,296.434 378.078,297.896 378.811,295.529 376.819,294.001 379.271,294.001 			"/>
			<polygon clip-path="url(#SVGID_4_)" fill="#FFFFFF" points="372.43,301.263 373.157,303.766 375.677,303.766 373.688,305.297 
				374.419,307.732 372.43,306.201 370.441,307.661 371.171,305.297 369.183,303.766 371.635,303.766 			"/>
			<polygon clip-path="url(#SVGID_4_)" fill="#FFFFFF" points="387.672,300.569 388.399,303.072 390.92,303.072 388.931,304.602 
				389.658,307.036 387.672,305.508 385.684,306.968 386.411,304.602 384.422,303.072 386.877,303.072 			"/>
			<polygon clip-path="url(#SVGID_4_)" fill="#FFFFFF" points="380.066,314.457 380.797,316.96 383.316,316.96 381.328,318.491 
				382.056,320.926 380.066,319.395 378.078,320.855 378.811,318.491 376.819,316.96 379.271,316.96 			"/>
			<polygon clip-path="url(#SVGID_4_)" fill="#FFFFFF" points="383.479,309.142 383.843,310.392 385.104,310.392 384.109,311.158 
				384.473,312.374 383.479,311.61 382.484,312.34 382.848,311.158 381.854,310.392 383.081,310.392 			"/>
		</g>
	</g>
</g>
</svg>
