<?xml version="1.0" encoding="utf-8"?>
<!-- Generator: Adobe Illustrator 16.0.0, SVG Export Plug-In . SVG Version: 6.00 Build 0)  -->
<!DOCTYPE svg PUBLIC "-//W3C//DTD SVG 1.1//EN" "http://www.w3.org/Graphics/SVG/1.1/DTD/svg11.dtd">
<svg version="1.1" id="name" xmlns="http://www.w3.org/2000/svg" xmlns:xlink="http://www.w3.org/1999/xlink" x="0px" y="0px"
	 width="85.716px" height="50px" viewBox="358 276.004 85.716 50" enable-background="new 358 276.004 85.716 50"
	 xml:space="preserve">
<g id="ph">
	<g>
		<defs>
			<rect id="SVGID_1_" x="358" y="276.004" width="85.716" height="50"/>
		</defs>
		<clipPath id="SVGID_2_">
			<use xlink:href="#SVGID_1_"  overflow="visible"/>
		</clipPath>
		<rect x="358" y="276.004" clip-path="url(#SVGID_2_)" fill="#303E99" width="85.716" height="25"/>
		<rect x="358" y="301.004" clip-path="url(#SVGID_2_)" fill="#BD1F34" width="85.716" height="25"/>
		<polygon clip-path="url(#SVGID_2_)" fill="#FFFFFF" points="358,276.004 358,326.004 401.52,301.004 		"/>
		<polygon clip-path="url(#SVGID_2_)" fill="#F4D130" points="363.879,321.193 361.944,320.065 360.29,321.574 360.764,319.387 
			358.819,318.281 361.045,318.055 361.499,315.86 362.399,317.912 364.625,317.662 362.956,319.153 		"/>
		<path clip-path="url(#SVGID_2_)" fill="#F4D130" d="M369.743,296.48l-1.631-2.799l-0.936-0.107l2.23,3.168L369.743,296.48z
			 M368.477,297.76l-3.422-2.635l-0.123-1.534l1.385-0.048l2.83,3.463L368.477,297.76z M367.959,298.364l-2.82-1.594l-0.119-0.932
			l3.197,2.188L367.959,298.364z"/>
		<path clip-path="url(#SVGID_2_)" fill="#F4D130" d="M373.772,295.904l0.852-3.123l-0.582-0.744l-0.691,3.812L373.772,295.904z
			 M371.973,295.901l-0.525-4.288l1.006-1.164l1.008,0.951l-0.482,4.449L371.973,295.901z M371.178,295.955l-0.844-3.125
			l0.584-0.742l0.686,3.813L371.178,295.955z"/>
		<path clip-path="url(#SVGID_2_)" fill="#F4D130" d="M377.04,298.421l2.84-1.554l0.131-0.932l-3.227,2.145L377.04,298.421z
			 M375.792,297.123l2.725-3.353l1.535-0.083l0.014,1.384l-3.537,2.742L375.792,297.123z M375.204,296.589l1.664-2.776l0.939-0.094
			l-2.271,3.14L375.204,296.589z"/>
		<path clip-path="url(#SVGID_2_)" fill="#F4D130" d="M377.545,302.336l3.121,0.853l0.744-0.582l-3.812-0.696L377.545,302.336z
			 M377.547,300.535l4.291-0.522l1.162,1.009l-0.953,1.002l-4.449-0.482L377.547,300.535z M377.497,299.742l3.125-0.844l0.74,0.583
			l-3.814,0.685L377.497,299.742z"/>
		<path clip-path="url(#SVGID_2_)" fill="#F4D130" d="M375.167,305.519l1.641,2.79l0.939,0.103l-2.244-3.159L375.167,305.519z
			 M376.426,304.231l3.438,2.62l0.127,1.534l-1.383,0.054l-2.848-3.452L376.426,304.231z M376.942,303.626l2.826,1.577l0.123,0.938
			l-3.207-2.174L376.942,303.626z"/>
		<path clip-path="url(#SVGID_2_)" fill="#F4D130" d="M371.149,306.115l-0.826,3.128l0.586,0.739l0.666-3.818L371.149,306.115z
			 M372.95,306.104l0.555,4.285l-0.996,1.17l-1.014-0.945l0.449-4.449L372.95,306.104z M373.745,306.044l0.865,3.12l-0.576,0.747
			l-0.711-3.81L373.745,306.044z"/>
		<path clip-path="url(#SVGID_2_)" fill="#F4D130" d="M367.891,303.66l-2.814,1.6l-0.113,0.938l3.189-2.199L367.891,303.66z
			 M369.161,304.939l-2.67,3.397l-1.535,0.105l-0.033-1.384l3.49-2.796L369.161,304.939z M369.756,305.465l-1.619,2.804
			l-0.936,0.108l2.221-3.177L369.756,305.465z"/>
		<path clip-path="url(#SVGID_2_)" fill="#F4D130" d="M367.333,299.711l-3.125-0.829l-0.74,0.585l3.816,0.665L367.333,299.711z
			 M367.344,301.51l-4.283,0.554l-1.172-1l0.947-1.012l4.449,0.452L367.344,301.51z M367.401,302.305l-3.119,0.861l-0.744-0.576
			l3.809-0.711L367.401,302.305z"/>
		<g clip-path="url(#SVGID_2_)">
			<defs>
				<rect id="SVGID_3_" x="358" y="276.004" width="85.716" height="50"/>
			</defs>
			<clipPath id="SVGID_4_">
				<use xlink:href="#SVGID_3_"  overflow="visible"/>
			</clipPath>
			<path clip-path="url(#SVGID_4_)" fill="#F4D130" d="M372.446,295.73c2.912,0,5.273,2.361,5.273,5.273s-2.361,5.276-5.273,5.276
				c-2.914,0-5.273-2.364-5.273-5.276S369.532,295.73,372.446,295.73"/>
			<polygon clip-path="url(#SVGID_4_)" fill="#F4D130" points="390.592,302.813 391.917,301.007 390.588,299.203 392.713,299.904 
				394.02,298.083 394.01,300.325 396.143,301.001 394.01,301.683 394.026,303.925 392.717,302.106 			"/>
			<polygon clip-path="url(#SVGID_4_)" fill="#F4D130" points="363.879,280.266 361.944,281.394 360.29,279.885 360.764,282.076 
				358.819,283.181 361.045,283.405 361.499,285.599 362.399,283.547 364.625,283.798 362.956,282.306 			"/>
		</g>
	</g>
</g>
</svg>
