<?xml version="1.0" encoding="utf-8"?>
<!-- Generator: Adobe Illustrator 16.0.0, SVG Export Plug-In . SVG Version: 6.00 Build 0)  -->
<!DOCTYPE svg PUBLIC "-//W3C//DTD SVG 1.1//EN" "http://www.w3.org/Graphics/SVG/1.1/DTD/svg11.dtd">
<svg version="1.1" id="name" xmlns="http://www.w3.org/2000/svg" xmlns:xlink="http://www.w3.org/1999/xlink" x="0px" y="0px"
	 width="85.714px" height="50px" viewBox="358 276.004 85.714 50" enable-background="new 358 276.004 85.714 50"
	 xml:space="preserve">
<g id="pk">
	<g>
		<defs>
			<rect id="SVGID_1_" x="358" y="276.004" width="85.714" height="50"/>
		</defs>
		<clipPath id="SVGID_2_">
			<use xlink:href="#SVGID_1_"  overflow="visible"/>
		</clipPath>
		<rect x="358" y="276.004" clip-path="url(#SVGID_2_)" fill="#FFFFFF" width="85.714" height="50"/>
		<rect x="379.426" y="276.004" clip-path="url(#SVGID_2_)" fill="#2E6934" width="64.289" height="50"/>
		<g clip-path="url(#SVGID_2_)">
			<defs>
				<rect id="SVGID_3_" x="358" y="276.004" width="85.714" height="50"/>
			</defs>
			<clipPath id="SVGID_4_">
				<use xlink:href="#SVGID_3_"  overflow="visible"/>
			</clipPath>
			<path clip-path="url(#SVGID_4_)" fill="#FFFFFF" d="M410.221,286.005c8.268,0,14.971,6.716,14.971,14.998
				c0,8.284-6.703,15.001-14.971,15.001s-14.97-6.717-14.97-15.001C395.25,292.721,401.953,286.005,410.221,286.005"/>
			<path clip-path="url(#SVGID_4_)" fill="#2E6934" d="M404.932,287.32c5.664-5.046,14.338-4.534,19.373,1.143
				c5.035,5.673,4.525,14.364-1.141,19.41c-5.664,5.045-14.338,4.534-19.373-1.143C398.756,301.054,399.266,292.363,404.932,287.32"
				/>
			<polygon clip-path="url(#SVGID_4_)" fill="#FFFFFF" points="421.41,291.039 416.838,293.042 417.838,295.335 			"/>
			<polygon clip-path="url(#SVGID_4_)" fill="#FFFFFF" points="421.41,291.039 418.887,295.352 416.736,294.088 			"/>
			<polygon clip-path="url(#SVGID_4_)" fill="#FFFFFF" points="421.986,296.889 418.672,293.15 416.807,294.812 			"/>
			<polygon clip-path="url(#SVGID_4_)" fill="#FFFFFF" points="421.986,296.889 417.111,295.818 417.645,293.375 			"/>
			<polygon clip-path="url(#SVGID_4_)" fill="#FFFFFF" points="415.682,289.781 416.17,294.756 418.654,294.511 			"/>
			<polygon clip-path="url(#SVGID_4_)" fill="#FFFFFF" points="415.682,289.781 418.996,293.517 417.131,295.179 			"/>
			<polygon clip-path="url(#SVGID_4_)" fill="#FFFFFF" points="416.613,299.244 419.135,294.932 416.98,293.667 			"/>
			<polygon clip-path="url(#SVGID_4_)" fill="#FFFFFF" points="416.613,299.244 416.121,294.27 418.605,294.022 			"/>
			<polygon clip-path="url(#SVGID_4_)" fill="#FFFFFF" points="412.715,294.852 417.588,295.923 418.125,293.479 			"/>
			<polygon clip-path="url(#SVGID_4_)" fill="#FFFFFF" points="412.715,294.852 417.287,292.846 418.287,295.139 			"/>
		</g>
	</g>
</g>
</svg>
