<?xml version="1.0" encoding="utf-8"?>
<!-- Generator: Adobe Illustrator 16.0.0, SVG Export Plug-In . SVG Version: 6.00 Build 0)  -->
<!DOCTYPE svg PUBLIC "-//W3C//DTD SVG 1.1//EN" "http://www.w3.org/Graphics/SVG/1.1/DTD/svg11.dtd">
<svg version="1.1" id="name" xmlns="http://www.w3.org/2000/svg" xmlns:xlink="http://www.w3.org/1999/xlink" x="0px" y="0px"
	 width="85.719px" height="50px" viewBox="358 276 85.719 50" enable-background="new 358 276 85.719 50" xml:space="preserve">
<g id="pn">
	<g>
		<defs>
			<rect id="SVGID_1_" x="358" y="276" width="85.719" height="50"/>
		</defs>
		<clipPath id="SVGID_2_">
			<use xlink:href="#SVGID_1_"  overflow="visible"/>
		</clipPath>
		<path clip-path="url(#SVGID_2_)" fill="#FFFFFF" d="M408.002,303.665L408.002,303.665L408.002,303.665z"/>
		<g clip-path="url(#SVGID_2_)">
			<defs>
				<rect id="SVGID_3_" x="358" y="276" width="85.719" height="50"/>
			</defs>
			<clipPath id="SVGID_4_">
				<use xlink:href="#SVGID_3_"  overflow="visible"/>
			</clipPath>
		</g>
		<polygon clip-path="url(#SVGID_2_)" fill="#2C3077" points="400.859,276 400.859,277.597 400.859,278.143 400.859,278.396 
			391.364,283.143 400.859,283.143 400.859,284.572 400.859,286.715 400.859,288.856 400.859,290.286 391.364,290.286 
			400.859,295.033 400.859,295.832 400.859,297.429 400.859,297.966 398.737,297.966 397.646,297.966 397.137,297.966 
			383.001,290.896 383.001,297.966 381.572,297.966 379.428,297.966 377.287,297.966 375.858,297.966 375.858,290.896 
			361.721,297.966 360.123,297.966 358,297.966 358,326 443.719,326 443.719,276 		"/>
		<polygon clip-path="url(#SVGID_2_)" fill="#2C3077" points="358,290.286 358,295.033 367.496,290.286 		"/>
		<polygon clip-path="url(#SVGID_2_)" fill="#2C3077" points="358,283.143 367.494,283.143 358,278.396 		"/>
		<polygon clip-path="url(#SVGID_2_)" fill="#2C3077" points="375.858,276 362.792,276 375.858,282.532 		"/>
		<polygon clip-path="url(#SVGID_2_)" fill="#2C3077" points="383.001,276 383.001,282.532 396.066,276 		"/>
		<polygon clip-path="url(#SVGID_2_)" fill="#FFFFFF" points="367.496,290.286 358,295.033 358,295.286 368.001,290.286 		"/>
		<polygon clip-path="url(#SVGID_2_)" fill="#FFFFFF" points="389.767,290.286 400.859,295.832 400.859,295.033 391.364,290.286 		
			"/>
		<polygon clip-path="url(#SVGID_2_)" fill="#FFFFFF" points="358,278.396 367.494,283.143 369.091,283.143 358,277.597 		"/>
		<polygon clip-path="url(#SVGID_2_)" fill="#FFFFFF" points="375.858,290.286 375.482,290.286 360.123,297.966 361.719,297.966 
			375.858,290.896 		"/>
		<polygon clip-path="url(#SVGID_2_)" fill="#FFFFFF" points="375.858,282.532 362.792,276 362.287,276 375.858,282.785 		"/>
		<polygon clip-path="url(#SVGID_2_)" fill="#FFFFFF" points="390.858,283.143 391.364,283.143 400.859,278.396 400.859,278.143 		
			"/>
		<polygon clip-path="url(#SVGID_2_)" fill="#FFFFFF" points="383.001,290.644 383.001,290.896 397.137,297.966 397.646,297.966 		
			"/>
		<polygon clip-path="url(#SVGID_2_)" fill="#FFFFFF" points="383.001,283.143 383.377,283.143 397.666,276 396.066,276 
			383.001,282.532 		"/>
		<polygon clip-path="url(#SVGID_2_)" fill="#BD1F38" points="372.286,290.286 358,297.429 358,297.966 360.123,297.966 
			375.482,290.286 		"/>
		<polygon clip-path="url(#SVGID_2_)" fill="#BD1F38" points="386.574,290.286 400.859,297.429 400.859,295.832 389.767,290.286 		
			"/>
		<polygon clip-path="url(#SVGID_2_)" fill="#BD1F38" points="358,277.597 369.091,283.143 372.286,283.143 358,276 		"/>
		<polygon clip-path="url(#SVGID_2_)" fill="#BD1F38" points="386.574,283.143 400.859,276 397.666,276 383.377,283.143 		"/>
		<polygon clip-path="url(#SVGID_2_)" fill="#FFFFFF" points="383.377,290.286 383.001,290.286 383.001,290.644 397.646,297.966 
			398.737,297.966 		"/>
		<polygon clip-path="url(#SVGID_2_)" fill="#FFFFFF" points="375.482,283.143 375.858,283.143 375.858,282.785 362.287,276 
			361.194,276 		"/>
		<polygon clip-path="url(#SVGID_2_)" fill="#FFFFFF" points="390.858,283.143 400.859,278.143 400.859,277.597 389.767,283.143 		
			"/>
		<polygon clip-path="url(#SVGID_2_)" fill="#FFFFFF" points="368.001,290.286 358,295.286 358,295.832 369.091,290.286 		"/>
		<polygon clip-path="url(#SVGID_2_)" fill="#FFFFFF" points="358,276 358,276 372.286,283.143 375.482,283.143 361.194,276 		"/>
		<polygon clip-path="url(#SVGID_2_)" fill="#FFFFFF" points="400.859,277.597 400.859,276 386.574,283.143 389.767,283.143 		"/>
		<polygon clip-path="url(#SVGID_2_)" fill="#FFFFFF" points="369.091,290.286 358,295.832 358,297.429 372.286,290.286 		"/>
		<polygon clip-path="url(#SVGID_2_)" fill="#FFFFFF" points="398.737,297.966 400.859,297.966 400.859,297.429 386.574,290.286 
			383.377,290.286 		"/>
		<polygon clip-path="url(#SVGID_2_)" fill="#FFFFFF" points="388.508,284.572 400.859,284.572 400.859,283.143 391.364,283.143 		
			"/>
		<polygon clip-path="url(#SVGID_2_)" fill="#FFFFFF" points="377.287,283.245 377.287,276 375.858,276 375.858,282.532 		"/>
		<polygon clip-path="url(#SVGID_2_)" fill="#FFFFFF" points="377.287,290.184 375.858,290.896 375.858,297.966 377.287,297.966 		
			"/>
		<polygon clip-path="url(#SVGID_2_)" fill="#FFFFFF" points="381.572,290.184 381.572,297.966 383.001,297.966 383.001,290.896 		
			"/>
		<polygon clip-path="url(#SVGID_2_)" fill="#FFFFFF" points="358,283.143 358,284.572 370.352,284.572 367.494,283.143 		"/>
		<polygon clip-path="url(#SVGID_2_)" fill="#FFFFFF" points="358,288.856 358,290.286 367.496,290.286 370.352,288.856 		"/>
		<polygon clip-path="url(#SVGID_2_)" fill="#FFFFFF" points="381.572,283.245 383.001,282.532 383.001,276 381.572,276 		"/>
		<polygon clip-path="url(#SVGID_2_)" fill="#FFFFFF" points="391.364,290.286 400.859,290.286 400.859,288.856 388.508,288.856 		
			"/>
		<polygon clip-path="url(#SVGID_2_)" fill="#FFFFFF" points="377.287,283.245 375.858,282.532 375.858,282.785 377.287,283.501 		
			"/>
		<polygon clip-path="url(#SVGID_2_)" fill="#FFFFFF" points="383.377,283.143 383.001,283.143 383.001,282.532 381.572,283.245 
			381.572,284.047 		"/>
		<polygon clip-path="url(#SVGID_2_)" fill="#FFFFFF" points="389.767,290.286 391.364,290.286 388.508,288.856 386.909,288.856 		
			"/>
		<polygon clip-path="url(#SVGID_2_)" fill="#FFFFFF" points="388.508,284.572 391.364,283.143 390.858,283.143 388,284.572 		"/>
		<polygon clip-path="url(#SVGID_2_)" fill="#FFFFFF" points="369.091,283.143 367.494,283.143 370.352,284.572 371.95,284.572 		
			"/>
		<polygon clip-path="url(#SVGID_2_)" fill="#FFFFFF" points="370.352,288.856 367.494,290.286 368.001,290.286 370.856,288.856 		
			"/>
		<polygon clip-path="url(#SVGID_2_)" fill="#FFFFFF" points="375.482,290.286 375.858,290.286 375.858,290.896 377.287,290.184 
			377.287,289.383 		"/>
		<polygon clip-path="url(#SVGID_2_)" fill="#FFFFFF" points="381.572,290.184 383.001,290.896 383.001,290.644 381.572,289.928 		
			"/>
		<polygon clip-path="url(#SVGID_2_)" fill="#FFFFFF" points="383.715,288.856 386.574,290.286 389.767,290.286 386.909,288.856 		
			"/>
		<polygon clip-path="url(#SVGID_2_)" fill="#FFFFFF" points="375.144,284.572 372.286,283.143 369.091,283.143 371.95,284.572 		
			"/>
		<polygon clip-path="url(#SVGID_2_)" fill="#FFFFFF" points="377.287,288.856 375.144,288.856 372.286,290.286 375.482,290.286 
			377.287,289.383 		"/>
		<polygon clip-path="url(#SVGID_2_)" fill="#FFFFFF" points="381.572,284.572 383.715,284.572 386.574,283.143 383.377,283.143 
			381.572,284.047 		"/>
		<polygon clip-path="url(#SVGID_2_)" fill="#FFFFFF" points="377.287,283.501 375.858,282.785 375.858,283.143 375.482,283.143 
			377.287,284.047 		"/>
		<polygon clip-path="url(#SVGID_2_)" fill="#FFFFFF" points="370.856,288.856 368.001,290.286 369.091,290.286 371.95,288.856 		
			"/>
		<polygon clip-path="url(#SVGID_2_)" fill="#FFFFFF" points="383.377,290.286 381.572,289.383 381.572,289.928 383.001,290.644 
			383.001,290.286 		"/>
		<polygon clip-path="url(#SVGID_2_)" fill="#FFFFFF" points="386.909,284.572 388,284.572 390.858,283.143 389.767,283.143 		"/>
		<polygon clip-path="url(#SVGID_2_)" fill="#FFFFFF" points="381.572,288.856 381.572,289.383 383.377,290.286 386.574,290.286 
			383.715,288.856 		"/>
		<polygon clip-path="url(#SVGID_2_)" fill="#FFFFFF" points="377.287,284.572 377.287,284.047 375.482,283.143 372.286,283.143 
			375.144,284.572 		"/>
		<polygon clip-path="url(#SVGID_2_)" fill="#FFFFFF" points="375.144,288.856 371.95,288.856 369.091,290.286 372.286,290.286 		
			"/>
		<polygon clip-path="url(#SVGID_2_)" fill="#FFFFFF" points="386.909,284.572 389.767,283.143 386.574,283.143 383.715,284.572 		
			"/>
		<polygon clip-path="url(#SVGID_2_)" fill="#BD1F38" points="381.572,283.245 381.572,276 379.428,276 379.428,284.319 		"/>
		<polygon clip-path="url(#SVGID_2_)" fill="#BD1F38" points="358,286.715 358,288.856 370.352,288.856 374.638,286.715 		"/>
		<polygon clip-path="url(#SVGID_2_)" fill="#BD1F38" points="388.508,288.856 400.859,288.856 400.859,286.715 384.221,286.715 		
			"/>
		<polygon clip-path="url(#SVGID_2_)" fill="#BD1F38" points="358,284.572 358,286.715 374.638,286.715 370.352,284.572 		"/>
		<polygon clip-path="url(#SVGID_2_)" fill="#BD1F38" points="379.428,289.109 377.287,290.184 377.287,297.966 379.428,297.966 		
			"/>
		<polygon clip-path="url(#SVGID_2_)" fill="#BD1F38" points="379.428,284.319 379.428,276 377.287,276 377.287,283.245 		"/>
		<polygon clip-path="url(#SVGID_2_)" fill="#BD1F38" points="379.428,297.966 381.572,297.966 381.572,290.184 379.428,289.109 		
			"/>
		<polygon clip-path="url(#SVGID_2_)" fill="#BD1F38" points="384.221,286.715 400.859,286.715 400.859,284.572 388.508,284.572 		
			"/>
		<polygon clip-path="url(#SVGID_2_)" fill="#BD1F38" points="379.428,288.856 379.428,289.109 381.572,290.184 381.572,289.928 		
			"/>
		<polygon clip-path="url(#SVGID_2_)" fill="#BD1F38" points="379.428,289.109 379.428,288.856 378.883,288.584 377.287,289.383 
			377.287,290.184 		"/>
		<polygon clip-path="url(#SVGID_2_)" fill="#BD1F38" points="376.234,286.715 371.95,284.572 370.352,284.572 374.638,286.715 
			375.144,286.715 		"/>
		<polygon clip-path="url(#SVGID_2_)" fill="#BD1F38" points="379.428,284.572 379.428,284.319 377.287,283.245 377.287,283.501 		
			"/>
		<polygon clip-path="url(#SVGID_2_)" fill="#BD1F38" points="382.625,286.715 386.909,288.856 388.508,288.856 384.221,286.715 
			383.715,286.715 		"/>
		<polygon clip-path="url(#SVGID_2_)" fill="#BD1F38" points="375.144,286.715 374.638,286.715 370.352,288.856 370.859,288.856 		
			"/>
		<polygon clip-path="url(#SVGID_2_)" fill="#BD1F38" points="379.428,284.572 379.976,284.845 381.572,284.047 381.572,283.245 
			379.428,284.319 		"/>
		<polygon clip-path="url(#SVGID_2_)" fill="#BD1F38" points="383.715,286.715 384.221,286.715 388.508,284.572 388,284.572 		"/>
		<polygon clip-path="url(#SVGID_2_)" fill="#BD1F38" points="383.715,288.856 386.909,288.856 382.625,286.715 379.428,286.715 		
			"/>
		<polygon clip-path="url(#SVGID_2_)" fill="#BD1F38" points="383.715,284.572 381.572,284.572 381.572,284.047 379.976,284.845 
			381.572,285.644 		"/>
		<polygon clip-path="url(#SVGID_2_)" fill="#BD1F38" points="375.144,288.856 377.287,288.856 377.287,289.383 378.883,288.584 
			377.287,287.785 		"/>
		<polygon clip-path="url(#SVGID_2_)" fill="#BD1F38" points="375.144,284.572 371.95,284.572 376.234,286.715 379.428,286.715 		
			"/>
		<polygon clip-path="url(#SVGID_2_)" fill="#BD1F38" points="379.428,288.312 378.883,288.584 379.428,288.856 		"/>
		<polygon clip-path="url(#SVGID_2_)" fill="#BD1F38" points="379.428,288.856 381.572,289.928 381.572,289.383 379.428,288.312 		
			"/>
		<polygon clip-path="url(#SVGID_2_)" fill="#BD1F38" points="376.234,286.715 375.144,286.715 375.689,286.987 		"/>
		<polygon clip-path="url(#SVGID_2_)" fill="#BD1F38" points="379.428,285.118 379.428,284.572 377.287,283.501 377.287,284.047 		
			"/>
		<polygon clip-path="url(#SVGID_2_)" fill="#BD1F38" points="379.976,284.845 379.428,284.572 379.428,285.118 		"/>
		<polygon clip-path="url(#SVGID_2_)" fill="#BD1F38" points="375.144,286.715 370.859,288.856 371.95,288.856 375.689,286.987 		
			"/>
		<polygon clip-path="url(#SVGID_2_)" fill="#BD1F38" points="382.625,286.715 383.715,286.715 383.17,286.441 		"/>
		<polygon clip-path="url(#SVGID_2_)" fill="#BD1F38" points="383.715,286.715 388,284.572 386.909,284.572 383.17,286.441 		"/>
		<polygon clip-path="url(#SVGID_2_)" fill="#BD1F38" points="383.17,286.441 386.909,284.572 383.715,284.572 381.572,285.644 		
			"/>
		<polygon clip-path="url(#SVGID_2_)" fill="#BD1F38" points="379.428,288.312 379.428,286.715 377.287,287.785 378.883,288.584 		
			"/>
		<polygon clip-path="url(#SVGID_2_)" fill="#BD1F38" points="375.689,286.987 371.95,288.856 375.144,288.856 377.287,287.785 		
			"/>
		<polygon clip-path="url(#SVGID_2_)" fill="#BD1F38" points="383.715,288.856 379.428,286.715 379.428,288.312 381.572,289.383 
			381.572,288.856 		"/>
		<polygon clip-path="url(#SVGID_2_)" fill="#BD1F38" points="377.287,287.785 379.428,286.715 376.234,286.715 375.689,286.987 		
			"/>
		<polygon clip-path="url(#SVGID_2_)" fill="#BD1F38" points="381.572,285.644 379.428,286.715 382.625,286.715 383.17,286.441 		
			"/>
		<polygon clip-path="url(#SVGID_2_)" fill="#BD1F38" points="379.428,286.715 381.572,285.644 379.976,284.845 379.428,285.118 		
			"/>
		<polygon clip-path="url(#SVGID_2_)" fill="#BD1F38" points="379.428,285.118 379.428,285.118 377.287,284.047 377.287,284.572 
			375.144,284.572 379.428,286.715 		"/>
		<g clip-path="url(#SVGID_2_)">
			<defs>
				<rect id="SVGID_5_" x="358" y="276" width="85.719" height="50"/>
			</defs>
			<clipPath id="SVGID_6_">
				<use xlink:href="#SVGID_5_"  overflow="visible"/>
			</clipPath>
			<path clip-path="url(#SVGID_6_)" fill="#F0E030" d="M415.195,301.39c-0.914,0.778-1.785,1.906-2,2.929
				c-0.6,2.876-1.402,3.518-2.637,2.898c0,1.546,1.354,1.665,1.947,0.762c0,1.449,0.525,2.705,1.711,3.778
				c0.5,0.452,0.594,0.143,0.357-0.357c-0.238-0.5-0.238-2.114-0.713-3.04c0.762,0.545,1.877,0.235,1.783-1.262
				c-0.975,0.574-1.943,0.551-2.045-0.807C413.48,304.699,414.102,302.39,415.195,301.39"/>
			<path clip-path="url(#SVGID_6_)" fill="#010101" d="M414.59,311.999c-0.092,0-0.223-0.077-0.387-0.228
				c-1.139-1.028-1.701-2.25-1.717-3.725c-0.236,0.326-0.586,0.52-0.943,0.52c-0.463,0-1.006-0.353-1.006-1.35v-0.034l0.031,0.018
				c0.287,0.142,0.535,0.213,0.764,0.213l0,0c0.826,0,1.395-0.958,1.842-3.097c0.234-1.111,1.189-2.248,2.008-2.941l0.029,0.031
				c-1.094,0.998-1.705,3.33-1.588,4.885c0.055,0.744,0.379,1.139,0.939,1.139c0.311,0,0.68-0.119,1.07-0.35l0.029-0.017
				l0.002,0.034c0.035,0.531-0.082,0.957-0.338,1.228c-0.186,0.198-0.441,0.307-0.723,0.307c-0.23,0-0.477-0.074-0.689-0.21
				c0.26,0.545,0.369,1.304,0.461,1.92c0.064,0.455,0.123,0.847,0.219,1.049c0.121,0.253,0.156,0.46,0.098,0.551
				C414.67,311.976,414.633,311.999,414.59,311.999 M412.527,307.907v0.071c0,1.494,0.559,2.725,1.705,3.762
				c0.193,0.176,0.301,0.216,0.357,0.216c0.029,0,0.053-0.015,0.066-0.034c0.049-0.082,0.012-0.275-0.102-0.512
				c-0.098-0.21-0.156-0.604-0.223-1.062c-0.096-0.639-0.211-1.435-0.488-1.98l-0.041-0.076l0.07,0.051
				c0.223,0.159,0.482,0.247,0.73,0.247c0.275,0,0.514-0.102,0.691-0.292c0.242-0.256,0.355-0.659,0.328-1.162
				c-0.385,0.222-0.75,0.338-1.061,0.338c-0.408,0-0.91-0.205-0.982-1.18c-0.105-1.4,0.381-3.435,1.277-4.565
				c-0.717,0.69-1.443,1.653-1.641,2.597c-0.453,2.165-1.035,3.131-1.885,3.131l0,0c-0.227,0-0.471-0.067-0.752-0.204
				c0.014,0.94,0.523,1.275,0.963,1.275c0.361,0,0.715-0.21,0.949-0.56L412.527,307.907z"/>
			<path clip-path="url(#SVGID_6_)" fill="#F0E030" d="M414.039,289.948c0.066-0.571-0.057-1.157-0.475-1.526
				c-0.807-0.707-1.596-0.475-2.184,0.097c-0.877-0.475-1.346,1.211-2.342,0.927c0.164,0.545,0.426,0.784,0.926,0.594
				c-0.523,0.475,0,1.045-0.619,1.616c1.117,0.355,1.711-0.261,1.666-1.329c0.426,0.377,1.094,0.354,1.449-0.074
				c-0.598-0.188-0.598-0.705-0.355-1.188C412.461,288.354,414.135,288.38,414.039,289.948"/>
			<path clip-path="url(#SVGID_6_)" fill="#010101" d="M409.934,291.777c-0.182,0-0.381-0.034-0.594-0.102l-0.033-0.012l0.025-0.025
				c0.316-0.29,0.33-0.58,0.338-0.864c0.014-0.241,0.02-0.472,0.217-0.688c-0.43,0.131-0.697-0.068-0.867-0.636l-0.014-0.037
				l0.039,0.011c0.072,0.021,0.148,0.034,0.219,0.034l0,0c0.373,0,0.67-0.278,0.961-0.545c0.271-0.256,0.535-0.498,0.844-0.498
				c0.105,0,0.207,0.026,0.312,0.077c0.361-0.347,0.76-0.531,1.152-0.531c0.359,0,0.709,0.15,1.047,0.446
				c0.377,0.332,0.553,0.897,0.48,1.543l-0.043-0.003c0.027-0.418-0.076-0.762-0.297-0.995c-0.189-0.204-0.463-0.318-0.766-0.318
				c-0.373,0-0.699,0.174-0.834,0.44c-0.152,0.305-0.188,0.586-0.1,0.796c0.072,0.168,0.221,0.29,0.443,0.361l0.031,0.011
				l-0.02,0.022c-0.186,0.222-0.461,0.347-0.762,0.347l0,0c-0.25,0-0.488-0.085-0.682-0.241c0.012,0.48-0.105,0.861-0.338,1.108
				C410.504,291.678,410.248,291.777,409.934,291.777 M409.387,291.645c0.551,0.167,0.994,0.099,1.275-0.196
				c0.234-0.245,0.35-0.634,0.326-1.122l-0.002-0.052l0.035,0.034c0.193,0.171,0.438,0.262,0.693,0.262
				c0.277,0,0.531-0.111,0.707-0.307c-0.217-0.077-0.365-0.205-0.439-0.378c-0.092-0.219-0.057-0.515,0.102-0.83
				c0.141-0.281,0.482-0.46,0.871-0.46c0.314,0,0.6,0.116,0.797,0.329c0.133,0.14,0.225,0.318,0.271,0.526
				c-0.041-0.421-0.205-0.776-0.473-1.012c-0.328-0.287-0.67-0.436-1.018-0.436c-0.387,0-0.779,0.186-1.137,0.532l-0.01,0.011
				l-0.016-0.008c-0.102-0.055-0.201-0.083-0.303-0.083c-0.293,0-0.547,0.236-0.816,0.486c-0.293,0.272-0.6,0.557-0.988,0.557l0,0
				c-0.064,0-0.127-0.006-0.195-0.022c0.135,0.417,0.318,0.607,0.588,0.607c0.09,0,0.191-0.022,0.301-0.065l0.105-0.039
				l-0.084,0.076c-0.244,0.222-0.254,0.466-0.266,0.722C409.703,291.059,409.689,291.352,409.387,291.645"/>
			<path clip-path="url(#SVGID_6_)" fill="#457537" d="M416.619,298.213c-1.262,0.665-3.564,0.381-3.779-1.262
				c-0.215-1.637,1.377-2.372,1.805-2.585c0.668-0.336,1.188,0.259,0.975,0.948c0.738-0.261,0.904-1.116,0.545-1.616
				c0.979,0.071,1.879-0.665,2.26-1.71c-0.342,0.326-1.273,0.104-2.039,0.057c0.234-0.262,0.234-0.771,0.16-1.031
				c-0.807,0.832-1.971,0.451-3.516,2.853c0.238-0.833,0.689-2.498,0.951-3.589c0.025-0.107,0.045-0.219,0.059-0.329
				c0.096-1.568-1.576-1.595-1.934-0.884c0.391,0.443,0.186,0.954,0.045,1.735c-0.164,0.927-0.521,3.066-0.832,3.779
				c-0.094-1.119-0.83-1.188-0.973-1.736c-0.215,0.143-0.332,0.523-0.287,0.784c-0.262-0.284-1.162,0.071-1.494-0.354
				c-0.359,0.713,0.213,1.423,0.807,1.732c-0.344,0.023-0.428,0.44-0.807,0.44c0.51,0.594,1.031,0.83,1.637,0.878
				c0.607,0.049,1.061,0.273,1.428,1.009C412.223,298.522,414.486,299.293,416.619,298.213"/>
			<path clip-path="url(#SVGID_6_)" fill="#010101" d="M414.498,298.75L414.498,298.75c-1.287,0-2.475-0.577-2.889-1.406
				c-0.328-0.656-0.738-0.946-1.41-0.997c-0.66-0.055-1.172-0.327-1.652-0.887l-0.031-0.037h0.049c0.188,0,0.299-0.105,0.416-0.219
				c0.094-0.088,0.188-0.179,0.322-0.21c-0.625-0.353-1.094-1.065-0.76-1.733l0.016-0.028l0.02,0.025
				c0.16,0.207,0.465,0.225,0.76,0.225h0.178c0.203,0,0.396,0.006,0.516,0.091c-0.023-0.256,0.086-0.603,0.301-0.747l0.025-0.018
				l0.008,0.029c0.055,0.207,0.193,0.341,0.354,0.5c0.254,0.244,0.537,0.522,0.613,1.153c0.268-0.693,0.561-2.358,0.738-3.37
				l0.061-0.324c0.021-0.133,0.049-0.261,0.074-0.38c0.115-0.568,0.201-0.98-0.115-1.339l-0.01-0.011l0.006-0.012
				c0.141-0.281,0.48-0.46,0.871-0.46c0.314,0,0.598,0.116,0.795,0.329c0.229,0.241,0.334,0.594,0.309,1.023
				c-0.012,0.107-0.031,0.213-0.061,0.332c-0.25,1.054-0.668,2.597-0.912,3.455c0.982-1.48,1.816-1.85,2.488-2.151
				c0.365-0.161,0.68-0.304,0.955-0.585l0.025-0.028l0.01,0.037c0.072,0.264,0.072,0.744-0.141,1.017
				c0.174,0.015,0.355,0.034,0.531,0.055c0.275,0.028,0.562,0.062,0.807,0.062c0.318,0,0.525-0.055,0.646-0.171l0.064-0.06
				l-0.031,0.085c-0.389,1.065-1.293,1.776-2.236,1.728c0.164,0.253,0.205,0.594,0.109,0.903c-0.105,0.336-0.35,0.586-0.691,0.708
				l-0.037,0.014l0.012-0.039c0.086-0.284,0.051-0.571-0.096-0.773c-0.188-0.255-0.521-0.317-0.848-0.153l-0.043,0.021
				c-0.482,0.238-1.957,0.972-1.752,2.548c0.15,1.162,1.328,1.574,2.293,1.574c0.469,0,0.939-0.097,1.318-0.267
				c0.045-0.021,0.092-0.043,0.135-0.062l0.021,0.034c-0.045,0.025-0.092,0.048-0.137,0.067
				C415.852,298.6,415.182,298.75,414.498,298.75 M408.607,295.463c0.467,0.531,0.961,0.79,1.598,0.841
				c0.688,0.054,1.105,0.35,1.441,1.022c0.408,0.812,1.58,1.381,2.852,1.381c0.465,0,0.928-0.07,1.375-0.213
				c-0.23,0.049-0.475,0.074-0.719,0.074c-0.98,0-2.18-0.421-2.336-1.611c-0.209-1.605,1.287-2.35,1.777-2.591l0.041-0.022
				c0.346-0.171,0.701-0.103,0.9,0.167c0.148,0.202,0.191,0.486,0.115,0.771c0.305-0.123,0.525-0.358,0.623-0.668
				s0.049-0.656-0.127-0.903l-0.025-0.034l0.045,0.003c0.92,0.067,1.807-0.6,2.211-1.626c-0.135,0.089-0.332,0.131-0.615,0.131
				c-0.246,0-0.533-0.034-0.812-0.062c-0.188-0.022-0.385-0.045-0.566-0.057l-0.047-0.003l0.029-0.031
				c0.219-0.238,0.23-0.71,0.168-0.975c-0.275,0.271-0.586,0.409-0.941,0.568c-0.684,0.304-1.537,0.685-2.545,2.25l-0.08,0.122
				l0.041-0.136c0.234-0.824,0.684-2.48,0.951-3.589c0.027-0.119,0.045-0.222,0.057-0.323c0.025-0.421-0.076-0.762-0.297-0.995
				c-0.189-0.204-0.463-0.318-0.764-0.318c-0.369,0-0.689,0.168-0.826,0.427c0.318,0.369,0.232,0.79,0.113,1.363
				c-0.023,0.12-0.049,0.245-0.07,0.378l-0.061,0.327c-0.188,1.054-0.498,2.815-0.773,3.455l-0.035,0.076l-0.006-0.082
				c-0.059-0.677-0.35-0.96-0.609-1.213c-0.152-0.148-0.295-0.287-0.357-0.489c-0.195,0.153-0.295,0.512-0.25,0.747l0.012,0.071
				l-0.049-0.054c-0.102-0.111-0.309-0.119-0.529-0.119h-0.178c-0.293,0-0.594-0.015-0.77-0.214
				c-0.305,0.656,0.188,1.353,0.812,1.677l0.066,0.034l-0.074,0.009c-0.158,0.008-0.258,0.104-0.365,0.207
				C408.9,295.341,408.787,295.448,408.607,295.463"/>
			<path clip-path="url(#SVGID_6_)" fill="#F0E030" d="M419.754,296.764c-0.713,1.972-2.66,3.373-3.541,3.589
				c-1.494,0.36-4.545,1.844-5.367,2.605c-0.129-0.028-0.246-0.074-0.334-0.137c-0.404-0.284-0.736-1.21-0.023-1.994
				c2.232-2.092,4.633-1.19,6.131-2.614c-1.262,0.665-3.564,0.381-3.779-1.262c1.355,0.358,3.799,0.381,5.752-1.71
				C418.85,295.528,419.611,296.432,419.754,296.764"/>
			<path clip-path="url(#SVGID_6_)" fill="#010101" d="M410.855,302.983l-0.014-0.006c-0.135-0.028-0.258-0.076-0.342-0.139
				c-0.232-0.162-0.404-0.492-0.443-0.841c-0.031-0.296,0.014-0.745,0.414-1.186c1.229-1.15,2.518-1.4,3.654-1.622
				c0.879-0.171,1.707-0.333,2.367-0.893c-0.387,0.174-0.855,0.271-1.338,0.271c-0.98,0-2.18-0.421-2.336-1.611l-0.004-0.031
				l0.029,0.006c0.316,0.085,0.826,0.185,1.455,0.185c1.146,0,2.822-0.329,4.275-1.89l0.018-0.014l0.014,0.014
				c0.275,0.302,1.025,1.196,1.168,1.529l0.002,0.008l-0.002,0.006c-0.723,1.998-2.668,3.387-3.557,3.603
				c-1.49,0.361-4.543,1.847-5.355,2.603L410.855,302.983z M416.744,298.122l-0.111,0.108c-0.684,0.647-1.566,0.82-2.5,1
				c-1.131,0.222-2.414,0.472-3.631,1.61c-0.391,0.43-0.434,0.864-0.402,1.151c0.037,0.338,0.203,0.656,0.424,0.812
				c0.078,0.057,0.191,0.102,0.316,0.131c0.83-0.762,3.879-2.242,5.367-2.605c0.881-0.214,2.805-1.586,3.523-3.566
				c-0.145-0.326-0.857-1.179-1.139-1.488c-1.463,1.554-3.141,1.884-4.293,1.884c-0.613,0-1.115-0.097-1.434-0.18
				c0.168,1.14,1.336,1.546,2.289,1.546c0.533,0,1.049-0.116,1.453-0.329L416.744,298.122z"/>
			<path clip-path="url(#SVGID_6_)" fill="#457537" d="M415.195,301.39c-1.131,0.96-1.715,3.31-1.596,4.901
				c0.033,0.443,0.158,0.744,0.346,0.929c0.084-0.903,0.711-3.236,2.316-4.279c1.355-0.878,3.469-2.85,4.254-5.108
				c-0.143-0.403-0.381-0.688-0.834-0.975C418.906,298.988,416.824,300.009,415.195,301.39"/>
			<path clip-path="url(#SVGID_6_)" fill="#010101" d="M413.963,307.266l-0.031-0.031c-0.201-0.199-0.32-0.515-0.352-0.941
				c-0.121-1.61,0.459-3.946,1.602-4.918c0.41-0.347,0.855-0.676,1.285-0.997c1.287-0.952,2.615-1.938,3.195-3.526l0.01-0.025
				l0.021,0.015c0.451,0.284,0.693,0.568,0.842,0.985l0.002,0.006l-0.002,0.009c-0.832,2.397-3.072,4.345-4.262,5.117
				c-1.662,1.079-2.236,3.5-2.307,4.265L413.963,307.266z M419.693,296.892c-0.588,1.586-1.916,2.568-3.199,3.521
				c-0.432,0.318-0.877,0.647-1.283,0.994c-1.1,0.933-1.711,3.276-1.588,4.885c0.027,0.392,0.131,0.69,0.307,0.881
				c0.088-0.816,0.676-3.18,2.32-4.248c1.186-0.77,3.412-2.708,4.242-5.092C420.352,297.438,420.117,297.162,419.693,296.892"/>
			<path clip-path="url(#SVGID_6_)" fill="#416F3E" d="M419.029,295.85c-0.404,0.604-1.318,1.438-2.197,1.77
				c0.188-0.213,0.25-0.486,0.262-0.713c-1.117,0.426-3.352,0.381-4.254,0.045c1.355,0.358,3.799,0.381,5.752-1.71
				C418.779,295.457,418.947,295.647,419.029,295.85"/>
			<path clip-path="url(#SVGID_6_)" fill="#010101" d="M416.76,297.67l0.057-0.064c0.146-0.168,0.234-0.393,0.252-0.668
				c-0.514,0.19-1.307,0.298-2.184,0.298c-0.84,0-1.605-0.097-2.053-0.261l0.012-0.043c0.316,0.085,0.826,0.185,1.455,0.185
				c1.146,0,2.822-0.329,4.275-1.89l0.018-0.014l0.014,0.014c0.174,0.199,0.355,0.404,0.443,0.614l0.006,0.011l-0.008,0.009
				c-0.406,0.611-1.318,1.443-2.207,1.778L416.76,297.67z M417.115,296.875l-0.002,0.031c-0.014,0.267-0.088,0.488-0.215,0.665
				c0.852-0.35,1.713-1.137,2.107-1.726c-0.084-0.192-0.252-0.386-0.418-0.57c-1.459,1.554-3.137,1.884-4.289,1.884
				c-0.141,0-0.275-0.006-0.404-0.015c0.309,0.031,0.646,0.049,0.99,0.049c0.889,0,1.689-0.111,2.201-0.308L417.115,296.875z"/>
			<path clip-path="url(#SVGID_6_)" fill="#457537" d="M410.488,300.827c-1.816,1.699-0.619,3.185,0.094,3.518
				c-0.189,1.188,0.93,1.042,0.904,2.042c0.451-0.261,0.57-0.951,0.5-1.497c0.568,0.617,2.016-0.071,2.326,1.068
				c0.189-1.259-0.783-2.517-1.994-2.4c0.498-0.449,0.213-1.188-0.262-1.375c-0.096,0.926-1.143,0.926-1.545,0.639
				C410.107,302.537,409.775,301.611,410.488,300.827"/>
			<path clip-path="url(#SVGID_6_)" fill="#010101" d="M411.465,306.424v-0.037c0.012-0.454-0.215-0.661-0.451-0.883
				c-0.273-0.253-0.553-0.512-0.455-1.148c-0.354-0.173-0.91-0.685-1.027-1.42c-0.078-0.495,0.021-1.262,0.943-2.126l0.029,0.031
				c-0.393,0.43-0.436,0.864-0.404,1.151c0.037,0.338,0.203,0.656,0.424,0.812c0.145,0.104,0.367,0.164,0.592,0.164
				c0.197,0,0.846-0.057,0.92-0.789l0.002-0.029l0.027,0.012c0.26,0.103,0.469,0.372,0.523,0.671
				c0.045,0.264-0.029,0.511-0.215,0.702c0.541-0.035,1.059,0.198,1.445,0.647c0.418,0.485,0.611,1.15,0.516,1.778l-0.016,0.103
				l-0.025-0.1c-0.176-0.647-0.738-0.693-1.283-0.735c-0.367-0.029-0.752-0.058-0.998-0.282c0.059,0.555-0.078,1.205-0.516,1.458
				L411.465,306.424z M410.277,301.068c-0.561,0.605-0.803,1.244-0.705,1.861c0.115,0.727,0.674,1.232,1.018,1.395l0.018,0.006
				l-0.006,0.018c-0.098,0.625,0.162,0.866,0.441,1.125c0.227,0.21,0.461,0.432,0.463,0.875c0.412-0.265,0.527-0.918,0.457-1.455
				l-0.008-0.065l0.045,0.049c0.232,0.25,0.611,0.281,1.014,0.31c0.531,0.043,1.08,0.085,1.291,0.676
				c0.059-0.591-0.131-1.199-0.518-1.65c-0.393-0.455-0.922-0.685-1.467-0.631l-0.064,0.006l0.049-0.043
				c0.201-0.185,0.289-0.435,0.24-0.704c-0.049-0.273-0.238-0.523-0.471-0.628c-0.074,0.588-0.541,0.801-0.959,0.801
				c-0.232,0-0.465-0.065-0.615-0.173c-0.232-0.162-0.404-0.492-0.443-0.841C410.031,301.756,410.055,301.421,410.277,301.068"/>
			<path clip-path="url(#SVGID_6_)" fill="#F0E030" d="M414.42,311.638c-0.199,0.114-0.184,0.366-0.059,0.534
				c0.248,0.332-0.176,1.088,0.629,1.247c0.236,0.049,0.42-0.097,0.51-0.366c0.25-0.75-0.545-0.835-0.617-1.19
				S414.586,311.541,414.42,311.638"/>
			<path clip-path="url(#SVGID_6_)" fill="#010101" d="M415.076,313.45L415.076,313.45c-0.027,0-0.059-0.003-0.09-0.011
				c-0.537-0.105-0.543-0.475-0.551-0.799c-0.006-0.176-0.006-0.344-0.092-0.457c-0.078-0.103-0.111-0.239-0.088-0.353
				c0.018-0.091,0.072-0.165,0.152-0.213c0.078-0.043,0.152-0.065,0.217-0.065c0.1,0,0.227,0.051,0.279,0.307
				c0.023,0.119,0.141,0.213,0.27,0.31c0.227,0.177,0.512,0.396,0.348,0.89C415.439,313.309,415.275,313.45,415.076,313.45
				 M414.625,311.596c-0.057,0-0.125,0.02-0.195,0.06c-0.072,0.042-0.117,0.104-0.135,0.185c-0.02,0.102,0.01,0.225,0.082,0.32
				c0.092,0.123,0.096,0.296,0.1,0.48c0.01,0.324,0.016,0.656,0.518,0.759c0.219,0.043,0.396-0.085,0.486-0.355
				c0.156-0.463-0.104-0.665-0.332-0.841c-0.135-0.103-0.26-0.199-0.285-0.335C414.826,311.687,414.748,311.596,414.625,311.596"/>
			<path clip-path="url(#SVGID_6_)" fill="#F0E030" d="M415.098,313.039c-0.266,0.125-0.502,0.298-0.393,1.153
				c0.043,0.353,0.021,1.21-0.285,1.222c0.189,0.097,0.594,0.198,0.76-0.023c0.162,0.268,0.521,0.19,0.666-0.142
				c0.189,0.153,0.449-0.105,0.449-0.332c0.168,0.104,0.5-0.049,0.418-0.561c0.203,0.071,0.463-0.067,0.557-0.198
				c-0.295-0.062-1.043-0.466-1.225-0.787C415.869,313.053,415.406,312.896,415.098,313.039"/>
			<path clip-path="url(#SVGID_6_)" fill="#010101" d="M415.449,315.573c-0.107,0-0.205-0.052-0.273-0.146
				c-0.178,0.193-0.559,0.111-0.766,0.006l-0.074-0.037l0.082-0.003c0.045,0,0.082-0.022,0.115-0.062
				c0.18-0.207,0.186-0.854,0.152-1.136c-0.109-0.864,0.127-1.049,0.402-1.177c0.322-0.147,0.799,0.021,0.979,0.344
				c0.176,0.315,0.928,0.716,1.209,0.772l0.031,0.009l-0.018,0.025c-0.096,0.131-0.346,0.271-0.551,0.22
				c0.047,0.349-0.104,0.488-0.172,0.533c-0.078,0.052-0.174,0.062-0.25,0.029c-0.016,0.136-0.113,0.281-0.234,0.338
				c-0.082,0.039-0.16,0.034-0.23-0.006c-0.078,0.168-0.223,0.278-0.379,0.29C415.473,315.573,415.457,315.573,415.449,315.573
				 M415.188,315.362l0.012,0.018c0.059,0.103,0.158,0.159,0.273,0.15c0.139-0.009,0.271-0.113,0.346-0.275
				c-0.131-0.111-0.373-0.446-0.414-0.753l0.041-0.006c0.041,0.296,0.273,0.616,0.4,0.725l0.014,0.014
				c0.076,0.061,0.15,0.04,0.203,0.018c0.113-0.054,0.207-0.196,0.213-0.321c-0.174-0.097-0.568-0.6-0.658-0.946l0.043-0.014
				c0.082,0.318,0.441,0.795,0.615,0.909v-0.003l0.033,0.022c0.066,0.043,0.158,0.037,0.234-0.014
				c0.062-0.04,0.201-0.174,0.152-0.509c-0.223-0.06-0.803-0.455-1.047-0.858l0.037-0.02c0.229,0.384,0.775,0.759,1,0.832v-0.006
				l0.033,0.012c0.18,0.062,0.41-0.051,0.514-0.168c-0.314-0.079-1.027-0.469-1.203-0.786c-0.172-0.308-0.619-0.467-0.922-0.324
				h-0.002c-0.27,0.125-0.482,0.295-0.379,1.131c0.037,0.298,0.027,0.949-0.158,1.17c-0.025,0.029-0.055,0.049-0.082,0.061
				c0.186,0.079,0.52,0.145,0.668-0.029c-0.082-0.145-0.109-0.622-0.047-0.923l0.041,0.009
				C415.092,314.755,415.113,315.224,415.188,315.362 M415.512,292.173l-0.02-0.037c0.184-0.105,0.459-0.143,0.893-0.114v0.043
				C415.957,292.039,415.691,292.07,415.512,292.173 M410.996,289.021l-0.033-0.025c0.127-0.188,0.264-0.353,0.404-0.491
				l0.029,0.031C411.258,288.672,411.125,288.834,410.996,289.021"/>
			<path clip-path="url(#SVGID_6_)" fill="#F0E030" d="M427.666,300.85c2.922,2.446,3.113,4.398,2.66,5.537
				c-0.236-1.07-1.449-2.732-2.707-3.162L427.666,300.85z"/>
			<path clip-path="url(#SVGID_6_)" fill="#010101" d="M430.322,306.458l-0.016-0.068c-0.248-1.113-1.48-2.729-2.693-3.142
				l-0.016-0.009v-0.015l0.049-2.42l0.033,0.028c3.184,2.665,3.039,4.628,2.666,5.56L430.322,306.458z M427.639,303.214
				c1.201,0.415,2.412,1.983,2.693,3.103c0.344-0.943,0.408-2.85-2.646-5.421L427.639,303.214z"/>
			<path clip-path="url(#SVGID_6_)" fill="#457537" d="M422.438,299.472h5.42v6.415c0,5.467-3.041,8.697-6.133,10.408
				c-3.088-1.711-6.127-4.941-6.127-10.408v-6.415h3.801c0.006,0.332,0.035,0.832,0.426,1.333
				C420.723,300.713,421.738,300.043,422.438,299.472"/>
			<path clip-path="url(#SVGID_6_)" fill="#010101" d="M421.725,316.317l-0.008-0.006c-1.771-0.98-3.193-2.259-4.23-3.802
				c-1.27-1.887-1.912-4.113-1.912-6.623v-6.435h3.844v0.02c0.008,0.412,0.064,0.855,0.416,1.31c0.963-0.102,2.037-0.875,2.59-1.324
				l0.006-0.005h5.447v6.435c0,2.51-0.643,4.736-1.91,6.623c-1.037,1.543-2.461,2.821-4.23,3.802L421.725,316.317z M415.617,299.491
				v6.396c0,6.084,3.824,9.115,6.107,10.383c2.287-1.268,6.109-4.299,6.109-10.383v-6.396h-5.387
				c-0.564,0.461-1.648,1.236-2.619,1.333h-0.012l-0.01-0.009c-0.406-0.517-0.426-1.051-0.428-1.324H415.617z"/>
			<path clip-path="url(#SVGID_6_)" fill="#406CB4" d="M427.857,299.472v6.415c0,1.651-0.279,3.098-0.75,4.359l-5.383-9.871
				l-5.381,9.871c-0.471-1.262-0.746-2.708-0.746-4.359v-6.415H427.857z"/>
			<path clip-path="url(#SVGID_6_)" fill="#010101" d="M427.109,310.297l-5.385-9.879l-5.383,9.879l-0.018-0.046
				c-0.498-1.329-0.75-2.798-0.75-4.364v-6.435h12.303v6.435c0,1.566-0.252,3.032-0.75,4.364L427.109,310.297z M415.617,299.491
				v6.396c0,1.543,0.246,2.992,0.73,4.308l5.377-9.864l0.021,0.033l5.357,9.831c0.486-1.315,0.73-2.765,0.73-4.308v-6.396H415.617z"
				/>
			<path clip-path="url(#SVGID_6_)" fill="#F0E030" d="M427.271,309.771c-0.094,0.292-0.268,0.764-0.4,1.054l-5.146-9.558
				l-5.143,9.558c-0.133-0.29-0.307-0.762-0.4-1.054l5.543-10.28L427.271,309.771z"/>
			<path clip-path="url(#SVGID_6_)" fill="#010101" d="M426.871,310.873l-0.02-0.036l-5.127-9.527l-5.145,9.563l-0.018-0.036
				c-0.131-0.281-0.301-0.745-0.4-1.058l-0.006-0.011l0.008-0.006l5.561-10.316l5.57,10.322l-0.004,0.011
				c-0.102,0.312-0.273,0.776-0.402,1.058L426.871,310.873z M416.203,309.773c0.098,0.299,0.256,0.728,0.381,1.006l5.141-9.558
				l5.143,9.558c0.125-0.278,0.283-0.707,0.381-1.006l-5.523-10.239L416.203,309.773z"/>
			<path clip-path="url(#SVGID_6_)" fill="#F0E030" d="M424.172,313.289c0.143,0.07,0.404,0.201,0.525,0.25
				c0.283-0.571,0.332-1.379,0.236-2.092c-0.309,0.784-1.354,0.762-1.641,1.236c0.178,0.088,0.338,0.201,0.48,0.304
				c-0.355,0.355-1.191,0.955-1.668,1.097v-5.094c0-0.358-0.117-0.656-0.117-0.952v-1.054c0-0.239-0.049-0.583-0.264-0.583
				c-0.213,0-0.26,0.344-0.26,0.583v1.054c0,0.296-0.119,0.64-0.119,0.952v5.094c-0.262-0.762-1.283-0.5-1.76-1.259
				c0.186-0.048,0.381-0.06,0.572-0.022c-0.355-1.213-1.33-1.31-1.521-1.665c0,0.5-0.213,1.665,0.119,2.165
				c0.074-0.091,0.188-0.182,0.322-0.264c0.404,0.877,2.219,0.88,2.646,2.329C422.068,314.834,423.307,314.218,424.172,313.289"/>
			<path clip-path="url(#SVGID_6_)" fill="#010101" d="M421.719,315.42l-0.014-0.046c-0.242-0.824-0.949-1.179-1.57-1.491
				c-0.455-0.23-0.885-0.449-1.066-0.816c-0.123,0.08-0.227,0.165-0.297,0.248l-0.018,0.022l-0.016-0.025
				c-0.254-0.381-0.193-1.148-0.15-1.705c0.016-0.188,0.029-0.347,0.029-0.469v-0.085l0.039,0.076
				c0.061,0.111,0.205,0.199,0.385,0.311c0.379,0.227,0.896,0.536,1.139,1.357l0.008,0.031l-0.033-0.006
				c-0.164-0.031-0.348-0.025-0.535,0.018c0.229,0.341,0.568,0.463,0.902,0.585c0.332,0.119,0.646,0.23,0.805,0.554v-4.988
				c0-0.159,0.029-0.327,0.061-0.492c0.029-0.162,0.057-0.315,0.057-0.46v-1.054c0-0.183,0.027-0.605,0.281-0.605
				c0.256,0,0.283,0.423,0.283,0.605v1.054c0,0.14,0.027,0.281,0.055,0.426c0.031,0.165,0.062,0.336,0.062,0.526v5.065
				c0.484-0.156,1.271-0.73,1.615-1.065c-0.143-0.103-0.293-0.205-0.455-0.29l-0.021-0.009l0.014-0.02
				c0.125-0.207,0.387-0.324,0.666-0.443c0.373-0.162,0.797-0.347,0.971-0.789l0.031-0.077l0.01,0.082
				c0.109,0.815,0.021,1.583-0.24,2.103l-0.008,0.018l-0.018-0.006c-0.115-0.046-0.355-0.168-0.5-0.238l-0.012-0.006
				c-0.438,0.466-0.963,0.852-1.43,1.193c-0.449,0.326-0.836,0.613-1.002,0.872L421.719,315.42z M419.088,313.004l0.01,0.023
				c0.168,0.369,0.6,0.585,1.057,0.815c0.617,0.312,1.32,0.667,1.58,1.478c0.182-0.256,0.559-0.531,0.988-0.847
				c0.467-0.344,0.998-0.73,1.432-1.199l0.014-0.015l0.037,0.021c0.137,0.071,0.363,0.182,0.48,0.229
				c0.244-0.497,0.326-1.216,0.236-1.982c-0.195,0.409-0.602,0.585-0.961,0.738c-0.264,0.116-0.514,0.225-0.637,0.409
				c0.166,0.085,0.318,0.193,0.461,0.296l0.02,0.014l-0.018,0.018c-0.344,0.341-1.184,0.954-1.676,1.102l-0.027,0.009v-5.122
				c0-0.188-0.031-0.353-0.062-0.518c-0.027-0.147-0.055-0.293-0.055-0.435v-1.054c0-0.131-0.02-0.563-0.242-0.563
				c-0.221,0-0.238,0.433-0.238,0.563v1.054c0,0.15-0.029,0.312-0.059,0.469c-0.029,0.162-0.061,0.327-0.061,0.483v5.222
				l-0.041-0.119c-0.133-0.384-0.465-0.503-0.82-0.631c-0.346-0.122-0.703-0.25-0.938-0.628l-0.016-0.022l0.027-0.006
				c0.191-0.049,0.379-0.057,0.549-0.031c-0.242-0.778-0.742-1.08-1.109-1.302c-0.158-0.094-0.285-0.173-0.363-0.267
				c-0.002,0.113-0.014,0.25-0.025,0.403c-0.043,0.54-0.1,1.278,0.129,1.656c0.074-0.085,0.182-0.17,0.307-0.247L419.088,313.004z"
				/>
			<path clip-path="url(#SVGID_6_)" fill="#F0E030" d="M421.725,309.047c0.406,0,1.688-0.131,2.152-0.131
				c0.119,0,0.219-0.182,0.219-0.403s-0.1-0.403-0.219-0.403c-0.465,0-1.746-0.131-2.152-0.131c-0.402,0-1.684,0.131-2.146,0.131
				c-0.123,0-0.221,0.182-0.221,0.403s0.098,0.403,0.221,0.403C420.041,308.916,421.322,309.047,421.725,309.047"/>
			<path clip-path="url(#SVGID_6_)" fill="#010101" d="M421.725,309.069c-0.193,0-0.59-0.031-1.008-0.062
				c-0.443-0.034-0.902-0.068-1.139-0.068c-0.137,0-0.242-0.188-0.242-0.426c0-0.236,0.105-0.424,0.242-0.424
				c0.236,0,0.695-0.034,1.139-0.068c0.418-0.034,0.814-0.062,1.008-0.062c0.197,0,0.594,0.028,1.012,0.062
				c0.443,0.034,0.9,0.068,1.141,0.068c0.133,0,0.238,0.188,0.238,0.424c0,0.238-0.105,0.426-0.238,0.426
				c-0.24,0-0.697,0.034-1.141,0.068C422.318,309.038,421.922,309.069,421.725,309.069 M421.725,308.001
				c-0.193,0-0.588,0.028-1.006,0.062c-0.443,0.031-0.902,0.068-1.141,0.068c-0.109,0-0.199,0.173-0.199,0.381
				c0,0.207,0.09,0.384,0.199,0.384c0.238,0,0.697,0.033,1.141,0.067c0.418,0.031,0.812,0.062,1.006,0.062s0.592-0.031,1.008-0.062
				c0.445-0.034,0.904-0.067,1.145-0.067c0.105,0,0.195-0.177,0.195-0.384c0-0.208-0.09-0.381-0.195-0.381
				c-0.24,0-0.699-0.037-1.145-0.068C422.316,308.029,421.918,308.001,421.725,308.001"/>
			<path clip-path="url(#SVGID_6_)" fill="#F0E030" d="M421.467,306.958c-0.086-0.067-0.199-0.107-0.32-0.107
				c-0.271,0-0.49,0.198-0.49,0.443c0,0.244,0.219,0.445,0.49,0.445c0.266,0,0.484-0.201,0.484-0.445c0-0.19,0.275-0.19,0.275,0
				c0,0.383-0.34,0.695-0.76,0.695c-0.424,0-0.766-0.312-0.766-0.695c0-0.387,0.342-0.699,0.766-0.699
				c0.125,0,0.244,0.028,0.35,0.079C421.484,306.739,421.467,306.856,421.467,306.958"/>
			<path clip-path="url(#SVGID_6_)" fill="#010101" d="M421.146,308.013c-0.436,0-0.787-0.324-0.787-0.719
				c0-0.396,0.352-0.72,0.787-0.72c0.123,0,0.248,0.029,0.359,0.08l0.014,0.009l-0.008,0.034c-0.008,0.068-0.025,0.173-0.025,0.261
				v0.046l-0.033-0.028c-0.086-0.068-0.197-0.105-0.307-0.105c-0.26,0-0.469,0.19-0.469,0.424c0,0.232,0.209,0.423,0.469,0.423
				c0.254,0,0.463-0.19,0.463-0.423c0-0.216,0.32-0.216,0.32,0C421.93,307.688,421.578,308.013,421.146,308.013 M421.146,306.617
				c-0.412,0-0.746,0.302-0.746,0.677c0,0.372,0.334,0.676,0.746,0.676c0.406,0,0.74-0.304,0.74-0.676c0-0.168-0.234-0.168-0.234,0
				c0,0.255-0.229,0.466-0.506,0.466c-0.283,0-0.512-0.211-0.512-0.466c0-0.259,0.229-0.466,0.512-0.466
				c0.107,0,0.213,0.031,0.301,0.091c0.002-0.083,0.016-0.168,0.023-0.228v-0.006C421.371,306.643,421.256,306.617,421.146,306.617"
				/>
			<path clip-path="url(#SVGID_6_)" fill="#F0E030" d="M419.578,308.916c0.119,0,0.215-0.182,0.215-0.403s-0.096-0.403-0.215-0.403"
				/>
			<path clip-path="url(#SVGID_6_)" fill="#010101" d="M419.578,308.938v-0.042c0.104,0,0.195-0.177,0.195-0.384
				c0-0.208-0.092-0.381-0.195-0.381v-0.043c0.131,0,0.238,0.188,0.238,0.424C419.816,308.751,419.709,308.938,419.578,308.938"/>
			<path clip-path="url(#SVGID_6_)" fill="#F0E030" d="M419.756,308.916c0.119,0,0.217-0.182,0.217-0.403s-0.098-0.403-0.217-0.403"
				/>
			<path clip-path="url(#SVGID_6_)" fill="#010101" d="M419.756,308.938v-0.042c0.107,0,0.197-0.177,0.197-0.384
				c0-0.208-0.09-0.381-0.197-0.381v-0.043c0.135,0,0.238,0.188,0.238,0.424C419.994,308.751,419.891,308.938,419.756,308.938"/>
			<path clip-path="url(#SVGID_6_)" fill="#F0E030" d="M420.93,308.998c0.145,0,0.262-0.216,0.262-0.485
				c0-0.271-0.117-0.486-0.262-0.486"/>
			<path clip-path="url(#SVGID_6_)" fill="#010101" d="M420.93,309.021v-0.043c0.131,0,0.242-0.213,0.242-0.466
				c0-0.25-0.111-0.464-0.242-0.464v-0.042c0.16,0,0.285,0.222,0.285,0.506S421.09,309.021,420.93,309.021"/>
			<path clip-path="url(#SVGID_6_)" fill="#F0E030" d="M421.201,309.021c0.152,0,0.275-0.228,0.275-0.509s-0.123-0.509-0.275-0.509"
				/>
			<path clip-path="url(#SVGID_6_)" fill="#010101" d="M421.201,309.044v-0.043c0.139,0,0.256-0.225,0.256-0.488
				c0-0.271-0.115-0.486-0.256-0.486v-0.042c0.166,0,0.295,0.232,0.295,0.528C421.496,308.808,421.367,309.044,421.201,309.044"/>
			<path clip-path="url(#SVGID_6_)" fill="#F0E030" d="M422.111,309.026c0.156,0,0.279-0.229,0.279-0.514s-0.123-0.515-0.279-0.515"
				/>
			<path clip-path="url(#SVGID_6_)" fill="#010101" d="M422.111,309.05v-0.043c0.145,0,0.26-0.222,0.26-0.494
				c0-0.271-0.115-0.492-0.26-0.492v-0.042c0.17,0,0.301,0.235,0.301,0.534C422.412,308.813,422.281,309.05,422.111,309.05"/>
			<path clip-path="url(#SVGID_6_)" fill="#F0E030" d="M422.402,309.01c0.15,0,0.275-0.222,0.275-0.497
				c0-0.276-0.125-0.497-0.275-0.497"/>
			<path clip-path="url(#SVGID_6_)" fill="#010101" d="M422.402,309.029v-0.039c0.139,0,0.252-0.217,0.252-0.478
				c0-0.262-0.113-0.478-0.252-0.478v-0.04c0.166,0,0.295,0.228,0.295,0.518S422.568,309.029,422.402,309.029"/>
			<path clip-path="url(#SVGID_6_)" fill="#F0E030" d="M423.678,308.925c0.121,0,0.223-0.185,0.223-0.412s-0.102-0.412-0.223-0.412"
				/>
			<path clip-path="url(#SVGID_6_)" fill="#010101" d="M423.678,308.947v-0.043c0.109,0,0.201-0.179,0.201-0.392
				c0-0.21-0.092-0.39-0.201-0.39v-0.043c0.137,0,0.244,0.191,0.244,0.433S423.814,308.947,423.678,308.947"/>
			<path clip-path="url(#SVGID_6_)" fill="#F0E030" d="M419.078,313.039c0.146-0.092,0.322-0.171,0.508-0.214"/>
			<path clip-path="url(#SVGID_6_)" fill="#010101" d="M419.09,313.056l-0.023-0.037c0.16-0.097,0.338-0.173,0.514-0.213l0.012,0.04
				C419.418,312.888,419.244,312.959,419.09,313.056"/>
			<path clip-path="url(#SVGID_6_)" fill="#F0E030" d="M423.912,313.087c-0.045-0.031-0.09-0.062-0.139-0.1"/>
			<path clip-path="url(#SVGID_6_)" fill="#010101" d="M423.9,313.104l-0.029-0.02c-0.035-0.025-0.072-0.051-0.109-0.08l0.023-0.033
				c0.039,0.028,0.074,0.054,0.111,0.079l0.027,0.021L423.9,313.104z"/>
			<path clip-path="url(#SVGID_6_)" fill="#F0E030" d="M424.172,313.289c0.336-0.358,0.611-0.762,0.762-1.223"/>
			<path clip-path="url(#SVGID_6_)" fill="#010101" d="M424.189,313.303l-0.035-0.028c0.373-0.4,0.621-0.799,0.76-1.216l0.041,0.014
				C424.814,312.496,424.564,312.899,424.189,313.303"/>
			<path clip-path="url(#SVGID_6_)" fill="#FFFFFF" d="M420.637,304.006c0-0.113,0.098-0.164,0.207-0.25
				c0.135-0.1,0.188-0.147,0.309-0.147h1.561c0.115,0,0.143,0.031,0.143,0.137v2.122c0,0.105-0.027,0.137-0.143,0.137h-2.076v-2.018
				"/>
			<path clip-path="url(#SVGID_6_)" fill="#010101" d="M422.713,306.023h-2.096v-2.037c0.01-0.097,0.082-0.15,0.168-0.21
				c0.016-0.012,0.029-0.022,0.045-0.034l0.029-0.02c0.115-0.089,0.172-0.134,0.293-0.134h1.561c0.125,0,0.164,0.036,0.164,0.156
				v2.122C422.877,305.986,422.838,306.023,422.713,306.023 M420.66,305.98h2.053c0.105,0,0.121-0.022,0.121-0.113v-2.122
				c0-0.091-0.016-0.114-0.121-0.114h-1.561c-0.105,0-0.158,0.037-0.27,0.123l-0.027,0.022c-0.014,0.011-0.031,0.022-0.049,0.034
				c-0.084,0.062-0.146,0.107-0.146,0.195V305.98z"/>
			<path clip-path="url(#SVGID_6_)" fill="#E3E3E3" d="M422.326,306.186c0.205,0,0.17-0.003,0.311-0.145
				c0.152-0.151,0.139-0.137,0.139-0.276v-1.938c0-0.103-0.027-0.131-0.133-0.131h-1.443c-0.113,0-0.162,0.046-0.287,0.14
				c-0.102,0.079-0.188,0.125-0.188,0.232v2.117H422.326z"/>
			<path clip-path="url(#SVGID_6_)" fill="#010101" d="M422.326,306.208h-1.623v-2.14c0-0.102,0.07-0.156,0.156-0.219
				c0.014-0.008,0.025-0.02,0.039-0.031l0.027-0.02c0.109-0.082,0.16-0.122,0.273-0.122h1.443c0.117,0,0.152,0.034,0.152,0.15v1.969
				c0.002,0.114-0.004,0.122-0.143,0.259c-0.021,0.022-0.043,0.043-0.059,0.06C422.51,306.205,422.5,306.208,422.326,306.208
				 M420.744,306.166h1.582c0.16,0,0.16,0,0.236-0.08c0.018-0.017,0.035-0.037,0.061-0.062c0.131-0.131,0.131-0.131,0.131-0.228
				v-0.031v-1.938c0-0.088-0.014-0.108-0.111-0.108h-1.443c-0.1,0-0.145,0.037-0.246,0.114l-0.027,0.02
				c-0.014,0.012-0.029,0.023-0.043,0.031c-0.08,0.06-0.139,0.103-0.139,0.185V306.166z"/>
			<path clip-path="url(#SVGID_6_)" fill="#FFFFFF" d="M422.48,306.143c0,0.105-0.025,0.137-0.141,0.137h-1.561
				c-0.117,0-0.143-0.031-0.143-0.137v-2.119c0-0.108,0.025-0.137,0.143-0.137h1.561c0.115,0,0.141,0.028,0.141,0.137V306.143z"/>
			<path clip-path="url(#SVGID_6_)" fill="#010101" d="M422.34,306.302h-1.561c-0.123,0-0.162-0.04-0.162-0.159v-2.119
				c0-0.122,0.039-0.159,0.162-0.159h1.561c0.125,0,0.16,0.037,0.16,0.159v2.119C422.5,306.262,422.465,306.302,422.34,306.302
				 M420.779,303.907c-0.102,0-0.119,0.017-0.119,0.116v2.119c0,0.1,0.018,0.117,0.119,0.117h1.561c0.104,0,0.119-0.026,0.119-0.117
				v-2.119c0-0.094-0.016-0.116-0.119-0.116H420.779z"/>
			<path clip-path="url(#SVGID_6_)" fill="#91857C" d="M425.504,298.23c0.305,0.338,0.404,0.792,0.238,1.241h-0.451
				c0.189-0.574,0.07-1.116-0.736-1.188c-1.209-0.108-2.615,2.233-4.73,2.521c-0.617-0.739-0.584-2.14,0.199-2.808
				c-0.404-1.168-1.258-2.452-1.852-3.009c-0.387-0.065-0.836-0.094-1.127-0.08c0.311-0.662,1.189-1.363,1.902-1.647
				c0.115-0.171,0.24-0.332,0.355-0.478c0.07-0.915,4.42-0.488,5.346,0.083C424.648,293.889,425.051,297.304,425.504,298.23"/>
			<path clip-path="url(#SVGID_6_)" fill="#010101" d="M419.816,300.824l-0.01-0.006c-0.652-0.784-0.559-2.177,0.193-2.827
				c-0.408-1.168-1.252-2.432-1.838-2.983c-0.385-0.062-0.826-0.094-1.115-0.076l-0.035,0.003l0.014-0.031
				c0.318-0.69,1.219-1.384,1.906-1.662c0.1-0.14,0.211-0.29,0.35-0.466c0.049-0.475,1.146-0.543,1.799-0.543
				c1.373,0,3.047,0.287,3.578,0.616l0.01,0.006v0.012c0,1.008,0.406,4.435,0.854,5.355c0.312,0.347,0.402,0.815,0.242,1.256
				l-0.008,0.014h-0.496l0.012-0.028c0.078-0.235,0.137-0.57-0.031-0.826c-0.125-0.19-0.355-0.302-0.688-0.333
				c-0.557-0.048-1.156,0.429-1.855,0.989c-0.814,0.645-1.736,1.378-2.869,1.531H419.816z M417.217,294.883
				c0.283,0,0.639,0.034,0.957,0.083l0.012,0.005c0.592,0.558,1.449,1.839,1.857,3.021l0.006,0.015l-0.012,0.008
				c-0.74,0.631-0.84,1.995-0.203,2.768c1.119-0.156,2.029-0.881,2.834-1.522c0.709-0.562,1.316-1.046,1.887-0.995
				c0.348,0.029,0.588,0.148,0.723,0.35c0.135,0.208,0.15,0.495,0.043,0.836h0.406c0.152-0.421,0.062-0.87-0.24-1.205
				c-0.447-0.926-0.855-4.339-0.859-5.364c-0.541-0.323-2.189-0.605-3.547-0.605c-1.09,0-1.73,0.185-1.758,0.509l-0.004,0.015
				c-0.143,0.179-0.256,0.329-0.354,0.475l-0.01,0.008c-0.67,0.268-1.549,0.938-1.875,1.608
				C417.123,294.886,417.168,294.883,417.217,294.883"/>
			<path clip-path="url(#SVGID_6_)" fill="#010101" d="M420.234,298.853c-0.104-1.583-0.744-2.887-1.643-3.776
				c0.426,0.119,1.305,0.119,1.898-0.31c0.787-0.521,2.828-1.438,3.576-1.043c0.061,0.131,0.096,0.427,0.047,0.616
				c-0.178-0.474-2.148,0.262-2.707,0.486c-0.537,0.25-0.771,0.582-0.584,1.333c-0.307-0.262-0.201-0.512-0.52-0.702
				c0.127,0.31,0.236,0.866,0.27,1.318c-0.117-0.321-0.332-1.009-0.793-1.415c0.402,0.784,0.752,2.668,0.586,3.665
				c0.32,0,1.029-0.312,1.312-0.54c-0.25,0.358-0.967,0.605-1.43,0.702c-0.207,0.25-0.352,0.893-0.338,1.247
				C419.873,299.994,420.012,298.924,420.234,298.853"/>
			<path clip-path="url(#SVGID_6_)" fill="#010101" d="M425.504,298.23c-0.395-0.438-1.127-0.677-2.066-0.421
				c0.143-0.071,0.449-0.19,0.725-0.238c-0.035-0.251-0.262-1.318-0.297-1.58l0.262-0.108c0.131,0.643,0.297,1.381,0.402,1.677
				c0.082,0.022,0.275,0.06,0.439,0.142c-0.07-0.25-0.477-2.043-0.461-2.232l0.354-0.19
				C425.004,296.253,425.23,297.668,425.504,298.23"/>
			<path clip-path="url(#SVGID_6_)" fill="#91857C" d="M425.291,299.472c0.189-0.574,0.07-1.116-0.736-1.188
				c-0.627-0.054-1.307,0.554-2.111,1.188H425.291z"/>
			<path clip-path="url(#SVGID_6_)" fill="#010101" d="M425.305,299.491h-2.924l0.049-0.039c0.088-0.065,0.174-0.134,0.256-0.202
				c0.701-0.557,1.303-1.037,1.869-0.986c0.348,0.029,0.588,0.148,0.723,0.35c0.139,0.213,0.15,0.512,0.033,0.864L425.305,299.491z
				 M422.506,299.449h2.768c0.078-0.236,0.131-0.562-0.033-0.812c-0.125-0.19-0.355-0.302-0.688-0.333
				c-0.551-0.048-1.145,0.427-1.84,0.98C422.645,299.338,422.574,299.395,422.506,299.449"/>
			<path clip-path="url(#SVGID_6_)" fill="#91857C" d="M420.041,294.352c-0.359,0.049-1.154-0.022-1.559-0.153
				c0.023-0.108,0.066-0.219,0.117-0.338c-0.248,0.167-0.725,0.491-0.9,0.719C418.27,294.695,419.447,294.755,420.041,294.352"/>
			<path clip-path="url(#SVGID_6_)" fill="#010101" d="M420.23,299.068c-0.01-0.301-0.086-0.659-0.225-1.062l0.037-0.015
				c0.145,0.406,0.221,0.771,0.23,1.077H420.23z M419.172,295.164c-0.234,0-0.441-0.025-0.588-0.068
				c-0.117-0.031-0.256-0.062-0.416-0.088l0.006-0.042c0.162,0.028,0.301,0.057,0.42,0.091c0.439,0.122,1.311,0.107,1.885-0.305
				c0.057-0.042,0.125-0.091,0.199-0.147c0.713-0.528,2.193-1.628,3.85-1.759l0.006,0.043c-1.646,0.128-3.123,1.222-3.83,1.747
				c-0.076,0.06-0.143,0.108-0.199,0.15C420.104,295.07,419.594,295.164,419.172,295.164 M418.633,294.688
				c-0.145,0-0.283-0.006-0.416-0.018c-0.176-0.014-0.336-0.037-0.473-0.062c-0.006,0-0.008,0-0.008,0
				c-0.012-0.003-0.018-0.006-0.018-0.006c-0.012-0.003-0.018-0.003-0.023-0.003l-0.035-0.005l0.021-0.029
				c0.129-0.164,0.424-0.397,0.898-0.716c0.08-0.179,0.197-0.381,0.352-0.603l0.033,0.026c-0.133,0.192-0.24,0.369-0.316,0.534
				l0.002-0.003l-0.031,0.065c-0.055,0.122-0.088,0.221-0.109,0.314c0.385,0.12,1.158,0.193,1.521,0.148
				c1.439-0.98,2.762-1.489,4.047-1.557l0.002,0.042c-1.277,0.068-2.594,0.574-4.025,1.549l-0.002,0.003l0,0
				c-0.006,0.003-0.006,0.003-0.012,0.006C419.693,294.607,419.145,294.688,418.633,294.688 M417.736,294.564
				c0.576,0.111,1.627,0.151,2.215-0.182c-0.4,0.028-1.117-0.051-1.477-0.164l-0.018-0.006l0.006-0.021l0,0
				c0.018-0.082,0.047-0.173,0.088-0.27C418.344,294.062,417.922,294.352,417.736,294.564"/>
			<path clip-path="url(#SVGID_6_)" fill="#457537" d="M427.666,300.85c1.996,1.378,3.469,2.708,3.896,4.848
				c0.428,2.139,1.234,2.71,2.234,2.139c-0.238,1.236-1.475,1.378-2.52,0.43c0.096,1.423-0.475,3.134-1.947,3.753
				c-0.096-0.855,0.471-1.531,0.309-2.236c-0.072-0.307-0.094-1.02,0.309-1.353c-0.783,0.262-2.02-0.238-2.139-1.4
				c0.902,0.426,2.066,0.497,2.518-0.643C430.779,305.248,430.588,303.296,427.666,300.85"/>
			<path clip-path="url(#SVGID_6_)" fill="#010101" d="M429.311,312.047l-0.002-0.028c-0.047-0.423,0.064-0.802,0.174-1.168
				c0.111-0.363,0.215-0.71,0.137-1.062c-0.059-0.247-0.115-0.935,0.25-1.312c-0.115,0.028-0.236,0.043-0.365,0.043
				c-0.758,0-1.615-0.523-1.715-1.489l-0.004-0.037l0.033,0.015c0.395,0.188,0.791,0.287,1.148,0.287
				c0.447,0,1.041-0.159,1.342-0.915c0.363-0.924,0.506-2.864-2.654-5.512l0.023-0.034c2.102,1.451,3.488,2.77,3.906,4.861
				c0.307,1.545,0.824,2.329,1.531,2.329c0.207,0,0.432-0.07,0.672-0.207l0.039-0.022l-0.01,0.045
				c-0.127,0.668-0.564,1.065-1.166,1.065l0,0c-0.438,0-0.916-0.21-1.348-0.591c0.078,1.421-0.496,3.108-1.965,3.725
				L429.311,312.047z M430.049,308.373l-0.09,0.074c-0.371,0.307-0.381,0.98-0.301,1.332c0.086,0.361-0.023,0.714-0.133,1.086
				c-0.105,0.352-0.215,0.716-0.178,1.122c1.447-0.625,2.004-2.315,1.908-3.722l-0.002-0.052l0.037,0.034
				c0.436,0.396,0.918,0.614,1.359,0.614l0,0c0.568,0,0.98-0.367,1.115-0.983c-0.229,0.122-0.447,0.185-0.65,0.185
				c-0.73,0-1.26-0.793-1.574-2.361c-0.391-1.957-1.641-3.238-3.539-4.591c2.848,2.522,2.701,4.384,2.344,5.281
				c-0.307,0.781-0.92,0.943-1.379,0.943c-0.354,0-0.744-0.094-1.133-0.272c0.117,0.918,0.939,1.415,1.67,1.415
				c0.158,0,0.303-0.025,0.436-0.068L430.049,308.373z"/>
			<path clip-path="url(#SVGID_6_)" fill="#457537" d="M430.186,289.729c0.617-1.614,2.23-1.449,2.779-0.759
				c1.592-0.904,1.805,1.139,3.16,0.735c-0.025,0.381-0.475,0.739-0.975,0.714c0.523,0.474-0.213,1.188,0.902,1.616
				c-0.951,0.475-2.281-0.025-2.637-1.333c-0.309,0.617-1.426,0.617-1.877,0.12c0.975-0.262,0.904-1.165,0.357-1.521
				C431.346,288.945,430.373,289.09,430.186,289.729"/>
			<path clip-path="url(#SVGID_6_)" fill="#010101" d="M435.293,292.232c-0.725,0-1.584-0.455-1.883-1.472
				c-0.166,0.275-0.518,0.442-0.939,0.442c-0.387,0-0.738-0.136-0.945-0.366l-0.025-0.025l0.033-0.009
				c0.564-0.15,0.699-0.488,0.73-0.679c0.049-0.301-0.105-0.625-0.379-0.804c-0.188-0.123-0.428-0.188-0.684-0.188
				c-0.422,0-0.781,0.176-0.938,0.463c-0.021,0.045-0.041,0.094-0.061,0.142l-0.037-0.014c0.014-0.052,0.033-0.1,0.061-0.146
				c0.32-0.719,0.902-1.128,1.596-1.128c0.461,0,0.896,0.188,1.148,0.492c0.273-0.153,0.518-0.225,0.748-0.225
				c0.434,0,0.746,0.261,1.045,0.514c0.295,0.251,0.6,0.509,1.014,0.509c0.109,0,0.225-0.02,0.342-0.054l0.027-0.009v0.028
				c-0.025,0.393-0.465,0.733-0.943,0.736c0.18,0.19,0.186,0.417,0.191,0.636c0.008,0.339,0.016,0.688,0.664,0.938l0.049,0.017
				l-0.045,0.02C435.83,292.17,435.564,292.232,435.293,292.232 M433.422,290.644l0.016,0.058c0.281,1.028,1.133,1.488,1.855,1.488
				c0.248,0,0.49-0.054,0.707-0.15c-0.631-0.262-0.639-0.613-0.648-0.961c-0.006-0.232-0.01-0.457-0.215-0.642l-0.043-0.04h0.059
				c0.465,0.023,0.904-0.292,0.947-0.662c-0.109,0.031-0.219,0.049-0.322,0.049c-0.428,0-0.74-0.265-1.039-0.521
				c-0.295-0.247-0.602-0.503-1.02-0.503c-0.227,0-0.469,0.074-0.744,0.228l-0.016,0.009l-0.012-0.015
				c-0.24-0.301-0.67-0.491-1.125-0.491c-0.609,0-1.127,0.327-1.455,0.9c0.195-0.188,0.496-0.301,0.834-0.301
				c0.262,0,0.512,0.071,0.705,0.196c0.289,0.188,0.447,0.528,0.398,0.847c-0.053,0.326-0.316,0.582-0.727,0.701
				c0.203,0.205,0.541,0.327,0.893,0.327c0.428,0,0.781-0.179,0.926-0.466L433.422,290.644z"/>
			<path clip-path="url(#SVGID_6_)" fill="#457537" d="M425.365,293.289c0.443,1.43,1.361,2.759,2.35,3.662
				c1.141,1.049,2.861,0.787,3.824-0.213c0.023,1.992-2.037,2.148-3.182,1.523c-0.506-0.276-0.916-0.131-0.43,0.307
				c0.736,0.668,2.348,1.159,4.254,1.568c3.324,0.713,2.139,3.353,1.164,3.327c0.279-0.006,0.506-0.299,0.105-0.659
				c-2.885-2.595-8.754-1.574-8.66-7.37c-0.617,1.517-3.16,0.926-1.973-0.881c0.381,0.307,1.047,0.332,1.236-0.143
				c0.148-0.372,0.051-1.014-0.613-1.565c0.107-0.008,0.344,0,0.32-0.272c0.027,0.159,0.174,0.397,0.549,0.318
				c0.107,0.167,0.219,0.278,0.369,0.219c0.031-0.012,0.119-0.057,0.086-0.225C424.793,293.198,425.168,293.312,425.365,293.289"/>
			<path clip-path="url(#SVGID_6_)" fill="#010101" d="M433.357,303.486h-0.012v-0.043c0.133-0.002,0.248-0.076,0.287-0.179
				c0.049-0.131-0.023-0.287-0.195-0.446c-0.988-0.887-2.348-1.357-3.66-1.812c-2.469-0.853-5.023-1.736-5.008-5.473
				c-0.279,0.58-0.822,0.787-1.254,0.787c-0.412,0-0.77-0.185-0.93-0.485c-0.184-0.341-0.109-0.802,0.217-1.293l0.012-0.02
				l0.016,0.014c0.172,0.14,0.404,0.222,0.623,0.222c0.279,0,0.49-0.131,0.582-0.354c0.154-0.387,0.025-1.015-0.607-1.543
				l-0.041-0.031l0.08-0.006c0.074-0.006,0.176-0.012,0.232-0.077c0.033-0.037,0.047-0.096,0.041-0.17l0.041-0.006
				c0.01,0.051,0.074,0.315,0.387,0.315c0.043,0,0.09-0.006,0.137-0.017l0.016-0.003l0.006,0.014
				c0.127,0.199,0.229,0.259,0.348,0.21c0.057-0.022,0.084-0.076,0.078-0.156c-0.004-0.014-0.006-0.031-0.01-0.045l0.043-0.009
				c0.004,0.018,0.006,0.034,0.006,0.049c0.055,0.25,0.35,0.341,0.52,0.341l0,0c0.018,0,0.037,0,0.053-0.003h0.016l0.006,0.014
				c0.414,1.342,1.27,2.674,2.344,3.66c0.473,0.432,1.07,0.662,1.727,0.662c0.766,0,1.539-0.327,2.07-0.878l0.035-0.037v0.051
				c0.006,0.568-0.152,1.023-0.477,1.347c-0.33,0.338-0.832,0.522-1.412,0.522c-0.459,0-0.943-0.122-1.326-0.329
				c-0.16-0.088-0.324-0.137-0.447-0.137c-0.088,0-0.145,0.026-0.162,0.068c-0.027,0.074,0.047,0.199,0.205,0.344
				c0.648,0.586,1.996,1.083,4.242,1.562c2.205,0.472,2.244,1.742,2.205,2.123C434.318,302.901,433.838,303.486,433.357,303.486
				 M424.814,295.32l-0.004,0.114c-0.062,3.79,2.389,4.637,4.979,5.531c1.318,0.458,2.682,0.93,3.676,1.824
				c0.254,0.228,0.238,0.403,0.207,0.489c-0.016,0.042-0.045,0.082-0.082,0.113c0.369-0.15,0.703-0.637,0.756-1.159
				c0.051-0.472-0.061-1.622-2.17-2.074c-2.254-0.485-3.609-0.983-4.262-1.574c-0.225-0.204-0.242-0.323-0.217-0.389
				c0.023-0.062,0.096-0.097,0.201-0.097c0.131,0,0.301,0.051,0.467,0.142c0.377,0.205,0.855,0.324,1.307,0.324
				c0.568,0,1.061-0.182,1.385-0.509c0.303-0.307,0.459-0.732,0.461-1.265c-0.535,0.534-1.303,0.853-2.062,0.853
				c-0.666,0-1.275-0.232-1.754-0.676c-1.076-0.983-1.932-2.315-2.352-3.657c-0.014,0-0.025,0-0.039,0
				c-0.162,0-0.424-0.079-0.527-0.284c-0.021,0.062-0.062,0.089-0.094,0.103c-0.031,0.015-0.061,0.021-0.092,0.021
				c-0.127,0-0.223-0.117-0.299-0.236c-0.045,0.009-0.088,0.015-0.131,0.015c-0.209,0-0.334-0.117-0.393-0.242
				c-0.008,0.034-0.023,0.062-0.045,0.089c-0.059,0.07-0.162,0.082-0.238,0.088c0.617,0.534,0.738,1.164,0.582,1.557
				c-0.1,0.241-0.322,0.381-0.621,0.381c-0.223,0-0.455-0.082-0.629-0.216c-0.305,0.472-0.377,0.906-0.203,1.229
				c0.156,0.287,0.498,0.467,0.895,0.467c0.439-0.003,1-0.225,1.256-0.855L424.814,295.32z"/>
			<path clip-path="url(#SVGID_6_)" fill="#F0E030" d="M428.357,298.262c1.375,0.9,2.934,0.9,4.369-0.762
				c0.451-0.523,1.164-0.975,1.664-1.023c0.498-0.045,0.475-0.522,0.855-0.616c-0.238-0.071-0.334-0.358-0.689-0.321
				c0.893-0.31,0.631-1.022,1.068-1.366c-0.355,0.131-0.912-0.403-1.424,0.275c0.131-0.312-0.049-0.679-0.18-0.821
				c0.049,0.358-0.701,0.427-0.844,1.33c-0.078,0.506-0.355,0.478-0.404-0.31c-0.033-0.571-0.309-2.159-0.641-2.967
				c-0.332-0.81-0.408-1.92,0.043-2.085c-0.068-0.117-0.162-0.216-0.279-0.293c-0.551-0.357-1.523-0.213-1.711,0.427
				c-0.619,1.616,1.117,2.545,0.975,4.301c-0.262-1.307-2.377-1.639-2.354-2.923c-0.689,0.31-0.594,0.881-0.332,1.332
				c-0.428-0.665-1.402,0.427-2.234-0.478c-0.094,1.188,0.949,1.643,1.807,1.688c-0.428,0.761,0.143,1.403,0.711,1.616
				c0.025-1.33,2.754-0.784,2.781,1.497C431.562,298.713,429.473,298.878,428.357,298.262"/>
			<path clip-path="url(#SVGID_6_)" fill="#010101" d="M430.184,298.887c-0.605,0-1.227-0.205-1.84-0.608l0.021-0.037
				c0.365,0.202,0.834,0.318,1.287,0.318c0.582,0,1.082-0.185,1.41-0.517c0.309-0.312,0.463-0.742,0.455-1.279
				c-0.018-1.494-1.164-2.19-1.936-2.19c-0.486,0-0.793,0.268-0.803,0.693v0.028l-0.029-0.009c-0.297-0.113-0.668-0.375-0.814-0.775
				c-0.1-0.27-0.072-0.56,0.076-0.841c-0.316-0.022-1.027-0.128-1.467-0.631c-0.25-0.284-0.359-0.647-0.326-1.077l0.004-0.048
				l0.035,0.034c0.229,0.253,0.492,0.372,0.818,0.372c0.184,0,0.363-0.037,0.533-0.071c0.15-0.031,0.295-0.06,0.426-0.06
				c0.141,0,0.25,0.034,0.342,0.105c-0.096-0.208-0.164-0.463-0.086-0.705c0.068-0.213,0.238-0.381,0.508-0.5l0.029-0.014
				l-0.002,0.031c-0.012,0.656,0.543,1.057,1.125,1.482c0.502,0.367,1.02,0.742,1.193,1.302c0.021-0.736-0.289-1.327-0.586-1.898
				c-0.377-0.713-0.732-1.389-0.393-2.27c0.111-0.384,0.518-0.634,1.035-0.634c0.262,0,0.512,0.071,0.705,0.196
				c0.117,0.076,0.219,0.179,0.287,0.298l0.014,0.023l-0.023,0.008c-0.092,0.034-0.162,0.111-0.215,0.228
				c-0.168,0.381-0.09,1.168,0.184,1.83c0.332,0.801,0.607,2.406,0.645,2.975c0.025,0.432,0.121,0.628,0.203,0.628
				c0.053,0,0.125-0.1,0.158-0.321c0.086-0.534,0.381-0.784,0.598-0.966c0.152-0.128,0.264-0.222,0.246-0.358l-0.008-0.065
				l0.043,0.049c0.107,0.116,0.283,0.435,0.215,0.735c0.168-0.188,0.355-0.272,0.582-0.272c0.129,0,0.252,0.025,0.373,0.054
				c0.158,0.034,0.309,0.062,0.412,0.022l0.125-0.045l-0.105,0.082c-0.166,0.131-0.23,0.318-0.297,0.518
				c-0.098,0.287-0.209,0.613-0.67,0.81c0.156,0.017,0.256,0.103,0.355,0.182c0.072,0.06,0.137,0.116,0.225,0.143l0.074,0.022
				l-0.074,0.02c-0.164,0.04-0.25,0.154-0.34,0.276c-0.115,0.153-0.236,0.312-0.521,0.341c-0.479,0.045-1.188,0.479-1.646,1.014
				C431.959,298.423,431.098,298.887,430.184,298.887 M428.68,298.429c0.504,0.275,1.01,0.415,1.504,0.415
				c0.898,0,1.75-0.457,2.529-1.358c0.465-0.54,1.186-0.979,1.676-1.028c0.264-0.025,0.377-0.176,0.488-0.324
				c0.08-0.107,0.162-0.219,0.307-0.275c-0.068-0.031-0.127-0.079-0.184-0.128c-0.113-0.094-0.23-0.19-0.441-0.17l-0.178,0.02
				l0.17-0.06c0.531-0.185,0.645-0.512,0.75-0.827c0.061-0.176,0.119-0.349,0.25-0.479c-0.102,0.014-0.225-0.015-0.354-0.04
				c-0.117-0.028-0.238-0.057-0.363-0.057c-0.244,0-0.439,0.11-0.617,0.344l-0.102,0.136l0.066-0.156
				c0.107-0.258-0.01-0.579-0.139-0.753c-0.012,0.125-0.123,0.219-0.26,0.333c-0.213,0.179-0.502,0.42-0.582,0.94
				c-0.037,0.225-0.111,0.357-0.201,0.357c-0.129,0-0.223-0.255-0.246-0.667c-0.035-0.568-0.311-2.162-0.641-2.964
				c-0.275-0.671-0.354-1.469-0.182-1.863c0.051-0.117,0.121-0.196,0.215-0.239c-0.068-0.105-0.158-0.195-0.262-0.264
				c-0.188-0.123-0.428-0.188-0.684-0.188c-0.379,0-0.863,0.158-0.994,0.602c-0.334,0.867,0.016,1.532,0.387,2.239
				c0.32,0.61,0.652,1.244,0.586,2.06l-0.014,0.15l-0.027-0.15c-0.123-0.619-0.676-1.022-1.211-1.409
				c-0.584-0.426-1.135-0.826-1.143-1.483c-0.24,0.114-0.391,0.271-0.453,0.464c-0.094,0.29,0.035,0.607,0.16,0.823l-0.035,0.023
				c-0.098-0.15-0.229-0.219-0.422-0.219c-0.125,0-0.266,0.028-0.418,0.057c-0.172,0.037-0.354,0.074-0.541,0.074
				c-0.324,0-0.586-0.111-0.818-0.35c-0.021,0.397,0.084,0.732,0.318,0.997c0.441,0.512,1.176,0.603,1.471,0.619l0.035,0.003
				l-0.018,0.028c-0.16,0.281-0.189,0.565-0.092,0.836c0.137,0.375,0.482,0.625,0.766,0.738c0.021-0.435,0.344-0.704,0.844-0.704
				c0.787,0,1.959,0.71,1.979,2.232c0.006,0.549-0.152,0.989-0.467,1.308c-0.336,0.344-0.85,0.531-1.441,0.531
				C429.322,298.603,428.982,298.54,428.68,298.429"/>
			<path clip-path="url(#SVGID_6_)" fill="#F0E030" d="M432.182,300.137c3.324,0.713,2.139,3.353,1.164,3.327
				c-0.621-0.015-1.213-0.534-1.248-0.986c-0.713,0.381-0.523,1.128,0.023,1.427c-1.496-0.18-2.127,0.807-2.164,1.889
				c0.275-0.5,1.107-0.537,1.416-0.429s1.105,0.168,1.424-0.19c-0.26,0.225,0.168,0.75-0.201,1.153
				c1.248-0.048,1.795-1.21,1.58-1.722C435.793,303.131,435.482,300.73,432.182,300.137"/>
			<path clip-path="url(#SVGID_6_)" fill="#010101" d="M432.547,306.351l0.033-0.037c0.195-0.213,0.16-0.463,0.129-0.685
				c-0.018-0.125-0.037-0.244-0.006-0.344c-0.232,0.156-0.557,0.185-0.746,0.185c-0.217,0-0.443-0.034-0.59-0.085
				c-0.09-0.031-0.221-0.046-0.359-0.046c-0.375,0-0.842,0.119-1.029,0.463l-0.045,0.08l0.004-0.089
				c0.029-0.935,0.531-1.932,1.844-1.932c0.082,0,0.164,0.003,0.248,0.012c-0.256-0.171-0.416-0.446-0.416-0.722
				c0-0.284,0.168-0.528,0.475-0.69l0.027-0.018l0.004,0.031c0.033,0.424,0.605,0.952,1.227,0.969h0.012
				c0.451,0,0.922-0.576,0.988-1.21c0.051-0.472-0.061-1.622-2.17-2.074l0.008-0.043c1.57,0.282,2.594,0.992,2.885,2.001
				c0.244,0.841-0.08,1.772-0.867,2.494c0.096,0.247,0.023,0.619-0.186,0.949c-0.307,0.478-0.822,0.764-1.42,0.787L432.547,306.351z
				 M432.787,305.157l0.027,0.031c-0.012,0.011-0.02,0.022-0.033,0.031c-0.074,0.097-0.055,0.238-0.031,0.403
				c0.031,0.219,0.066,0.46-0.105,0.682c0.559-0.037,1.045-0.312,1.336-0.767c0.203-0.321,0.275-0.69,0.176-0.924l-0.004-0.015
				l0.01-0.011c0.781-0.713,1.105-1.631,0.865-2.461c-0.23-0.804-0.943-1.417-2.033-1.77c1.402,0.571,1.428,1.557,1.395,1.881
				c-0.07,0.662-0.551,1.247-1.031,1.247h-0.012c-0.645-0.018-1.205-0.537-1.268-0.975c-0.271,0.156-0.422,0.381-0.422,0.64
				c-0.004,0.29,0.188,0.576,0.477,0.732l0.096,0.055l-0.109-0.015c-0.117-0.014-0.229-0.02-0.338-0.02
				c-1.244,0-1.74,0.92-1.797,1.81c0.217-0.307,0.662-0.418,1.023-0.418c0.145,0,0.277,0.015,0.371,0.049
				c0.115,0.04,0.326,0.082,0.578,0.082c0.205,0,0.582-0.031,0.797-0.235C432.76,305.18,432.771,305.168,432.787,305.157"/>
			<path clip-path="url(#SVGID_6_)" fill="#F0E030" d="M429.648,311.425c0.217,0.14,0.189,0.421,0.043,0.6
				c-0.291,0.36,0.148,1.222-0.758,1.366c-0.268,0.043-0.465-0.128-0.555-0.435c-0.244-0.844,0.648-0.903,0.742-1.296
				C429.215,311.266,429.467,311.314,429.648,311.425"/>
			<path clip-path="url(#SVGID_6_)" fill="#010101" d="M428.854,313.419c-0.23,0-0.412-0.164-0.494-0.454
				c-0.16-0.557,0.164-0.787,0.426-0.975c0.146-0.103,0.283-0.202,0.316-0.338c0.064-0.271,0.201-0.327,0.307-0.327
				c0.076,0,0.164,0.028,0.252,0.085c0.088,0.055,0.146,0.14,0.162,0.242c0.02,0.125-0.021,0.275-0.113,0.386
				c-0.102,0.125-0.113,0.31-0.123,0.506c-0.021,0.364-0.049,0.773-0.648,0.87C428.91,313.416,428.881,313.419,428.854,313.419
				 M429.408,311.368c-0.129,0-0.219,0.099-0.268,0.295c-0.037,0.151-0.178,0.253-0.332,0.361c-0.264,0.188-0.561,0.4-0.41,0.926
				c0.09,0.308,0.283,0.461,0.533,0.421c0.566-0.091,0.59-0.466,0.613-0.827c0.012-0.204,0.021-0.397,0.131-0.531
				c0.084-0.104,0.125-0.238,0.104-0.354c-0.016-0.092-0.062-0.165-0.141-0.214C429.58,311.41,429.496,311.368,429.408,311.368"/>
			<path clip-path="url(#SVGID_6_)" fill="#F0E030" d="M428.832,312.962c0.291,0.147,0.541,0.355,0.389,1.304
				c-0.068,0.393-0.082,1.35,0.262,1.378c-0.213,0.097-0.672,0.19-0.848-0.06c-0.189,0.293-0.59,0.188-0.736-0.188
				c-0.219,0.162-0.5-0.139-0.488-0.392c-0.191,0.113-0.557-0.074-0.439-0.64c-0.229,0.068-0.516-0.103-0.615-0.253
				c0.334-0.051,1.188-0.472,1.402-0.821C427.971,312.941,428.492,312.788,428.832,312.962"/>
			<path clip-path="url(#SVGID_6_)" fill="#010101" d="M428.342,315.771c-0.014,0-0.027,0-0.041,0
				c-0.172-0.02-0.328-0.15-0.412-0.344c-0.076,0.049-0.166,0.049-0.254,0c-0.133-0.068-0.236-0.235-0.244-0.389
				c-0.088,0.034-0.193,0.02-0.281-0.043c-0.074-0.051-0.236-0.216-0.166-0.605c-0.232,0.049-0.504-0.116-0.607-0.267l-0.016-0.025
				l0.031-0.006c0.326-0.052,1.172-0.46,1.387-0.812s0.75-0.518,1.104-0.339c0.299,0.154,0.555,0.37,0.398,1.327
				c-0.055,0.315-0.074,1.034,0.117,1.276c0.035,0.048,0.078,0.073,0.127,0.076l0.082,0.006l-0.072,0.034
				c-0.236,0.107-0.668,0.185-0.859-0.04C428.561,315.718,428.457,315.771,428.342,315.771 M427.926,315.402
				c0.072,0.185,0.219,0.31,0.379,0.327c0.125,0.014,0.238-0.043,0.312-0.156l0.012-0.021c0.088-0.153,0.135-0.676,0.086-0.991
				l0.043-0.006c0.051,0.333,0,0.872-0.096,1.028c0.154,0.202,0.521,0.153,0.754,0.065c-0.033-0.017-0.064-0.042-0.094-0.076
				c-0.199-0.256-0.178-0.98-0.125-1.313c0.154-0.929-0.078-1.127-0.377-1.278c-0.332-0.17-0.844-0.014-1.047,0.321
				c-0.213,0.35-1.027,0.75-1.381,0.827c0.109,0.133,0.367,0.275,0.57,0.213l0.035-0.012v0.006c0.25-0.068,0.883-0.466,1.158-0.887
				l0.035,0.023c-0.289,0.44-0.957,0.854-1.205,0.906c-0.072,0.378,0.08,0.534,0.148,0.582c0.084,0.06,0.188,0.071,0.264,0.022
				l0.033-0.02v0.006c0.201-0.119,0.629-0.64,0.734-0.992l0.041,0.015c-0.117,0.381-0.578,0.929-0.777,1.025
				c0.002,0.143,0.1,0.308,0.225,0.375c0.061,0.028,0.146,0.052,0.234-0.014l0.014-0.015c0.148-0.113,0.422-0.463,0.48-0.789
				l0.043,0.008C428.363,314.925,428.074,315.289,427.926,315.402"/>
			<path clip-path="url(#SVGID_6_)" fill="#F0E030" d="M424.791,295.435c-0.039,2.435,0.973,3.665,2.375,4.469
				c-0.52-0.312-0.295-1.381-0.996-1.728c0.166-0.011,0.426,0.228,0.844,0.131c-0.203-0.449-0.535-1.14-1.309-1.236
				c0.203-0.022,0.643,0.049,0.928-0.057C426.229,296.395,425.16,296.69,424.791,295.435"/>
			<path clip-path="url(#SVGID_6_)" fill="#010101" d="M427.154,299.921c-1.684-0.964-2.42-2.347-2.385-4.486l0.002-0.143
				l0.039,0.137c0.223,0.756,0.705,0.943,1.133,1.11c0.281,0.111,0.543,0.214,0.709,0.461l0.014,0.022l-0.027,0.012
				c-0.148,0.057-0.338,0.062-0.469,0.062c-0.066,0-0.131-0.003-0.193-0.006c-0.027,0-0.053,0-0.074,0
				c0.67,0.182,0.965,0.841,1.131,1.207l0.008,0.026l-0.023,0.005c-0.066,0.015-0.135,0.023-0.201,0.023
				c-0.178,0-0.324-0.055-0.439-0.103c-0.035-0.012-0.066-0.022-0.096-0.034c0.305,0.207,0.402,0.568,0.496,0.918
				c0.088,0.315,0.168,0.613,0.4,0.753L427.154,299.921z M424.811,295.562c-0.002,1.972,0.676,3.281,2.182,4.213
				c-0.127-0.164-0.189-0.395-0.256-0.631c-0.102-0.377-0.207-0.767-0.576-0.948l-0.07-0.034l0.08-0.006
				c0.062-0.003,0.135,0.025,0.221,0.057c0.113,0.043,0.256,0.097,0.426,0.097c0.055,0,0.111-0.006,0.168-0.017
				c-0.18-0.398-0.51-1.105-1.281-1.199l-0.176-0.023l0.176-0.02c0.061-0.006,0.158-0.006,0.273-0.003
				c0.062,0.003,0.127,0.006,0.193,0.006c0.121,0,0.291-0.006,0.428-0.054c-0.152-0.219-0.406-0.315-0.668-0.421
				C425.516,296.42,425.053,296.235,424.811,295.562"/>
			<path clip-path="url(#SVGID_6_)" fill="#F0E030" d="M424.539,293.116c-0.086-0.028-0.156-0.114-0.229-0.225
				c-0.375,0.079-0.521-0.159-0.549-0.318c0.023,0.272-0.213,0.262-0.322,0.272c0.666,0.552,0.764,1.193,0.615,1.565
				c-0.189,0.475-0.855,0.449-1.236,0.143c-0.047,1.011,1.262,1.344,1.736,0.071c0,0.216,0.273,0.189,0.344,0.477
				C425.236,294.554,424.98,293.77,424.539,293.116"/>
			<path clip-path="url(#SVGID_6_)" fill="#010101" d="M423.59,295.474c-0.213,0-0.412-0.088-0.559-0.238
				c-0.164-0.173-0.246-0.415-0.234-0.682l0.002-0.043l0.031,0.025c0.172,0.14,0.404,0.222,0.623,0.222
				c0.279,0,0.49-0.131,0.582-0.354c0.154-0.39,0.025-1.018-0.611-1.543l-0.039-0.034l0.08-0.006
				c0.074-0.003,0.178-0.009,0.234-0.074c0.033-0.039,0.047-0.096,0.041-0.17l0.041-0.006c0.01,0.051,0.074,0.315,0.387,0.315
				c0.043,0,0.09-0.006,0.137-0.017l0.016-0.003l0.006,0.014c0.084,0.125,0.15,0.193,0.221,0.216l0.008,0.009
				c0.525,0.775,0.662,1.525,0.361,2.006l-0.025,0.043l-0.012-0.049c-0.033-0.139-0.121-0.201-0.199-0.256
				c-0.055-0.042-0.109-0.082-0.133-0.145C424.342,295.188,423.99,295.474,423.59,295.474 M422.84,294.596
				c-0.002,0.239,0.076,0.455,0.221,0.608c0.141,0.147,0.328,0.225,0.529,0.225c0.4,0,0.752-0.302,0.943-0.81l0.041-0.111v0.117
				c0,0.094,0.059,0.136,0.133,0.189c0.072,0.055,0.152,0.114,0.197,0.233c0.258-0.469,0.119-1.179-0.377-1.912
				c-0.076-0.028-0.145-0.097-0.229-0.222c-0.045,0.009-0.088,0.015-0.131,0.015c-0.209,0-0.334-0.117-0.393-0.242
				c-0.008,0.034-0.023,0.062-0.045,0.085c-0.062,0.074-0.162,0.086-0.24,0.089c0.621,0.534,0.74,1.165,0.584,1.56
				c-0.096,0.241-0.322,0.381-0.621,0.381C423.236,294.801,423.012,294.724,422.84,294.596"/>
			<path clip-path="url(#SVGID_6_)" fill="#457537" d="M422.451,288.291c-0.594-0.545-0.867-1.46-0.844-1.982
				c0.023-0.523,0.236-1.094,0.998-0.855c-0.238,0-0.072,0.478-0.322,0.522c0.203,0.074,0.479-0.094,0.512-0.201
				c0.049,0.164,0.357,0.119,0.381,0.31c0.117-0.097-0.014-0.56-0.189-0.653c0.129-0.071,0.203-0.44,0.141-0.617
				c-0.119,0.022-0.297,0.188-0.332,0.427c0.061-0.19-0.012-0.665-0.344-0.739c-0.096,0.134-0.119,0.455,0.014,0.631
				c-0.311-0.071-0.762,0.131-0.871,0.393c0.027-0.315,0.068-0.762,0.264-1.046c0.064-0.094-0.096-0.259-0.221-0.034
				c-0.23-0.452-0.85-0.69-1.121-0.463c-0.275,0.225-0.643-0.108-0.869,0.247c-0.225,0.357-0.99,0.395-0.949,0.772
				c0.021,0.228-0.031,0.577-0.143,0.702c-0.273,0.31,0.131,0.534,0.201,0.807c-0.047-0.903,1.391-2.659,2.828-1.972
				c-0.131,0.228-0.244,0.677-0.287,1.225c-0.057,0.807,0.062,1.949,0.844,2.614L422.451,288.291z"/>
			<path clip-path="url(#SVGID_6_)" fill="#010101" d="M422.137,288.399l-0.008-0.006c-0.855-0.728-0.9-1.96-0.852-2.634
				c0.035-0.506,0.145-0.966,0.275-1.21c-0.207-0.097-0.422-0.146-0.643-0.146c-0.686,0-1.217,0.452-1.475,0.722
				c-0.416,0.438-0.68,0.995-0.658,1.384l0.01,0.208l-0.051-0.202c-0.023-0.088-0.082-0.17-0.143-0.253
				c-0.121-0.173-0.25-0.355-0.057-0.574c0.107-0.122,0.162-0.46,0.139-0.685c-0.025-0.225,0.213-0.335,0.463-0.449
				c0.193-0.091,0.393-0.185,0.49-0.335c0.105-0.165,0.238-0.188,0.355-0.188c0.041,0,0.084,0.003,0.127,0.006
				c0.045,0.003,0.088,0.009,0.129,0.009c0.076,0,0.174-0.012,0.26-0.083c0.072-0.06,0.172-0.091,0.287-0.091
				c0.318,0,0.68,0.225,0.85,0.528c0.055-0.079,0.109-0.094,0.141-0.094c0.041,0,0.08,0.026,0.102,0.065
				c0.02,0.04,0.018,0.086-0.006,0.117c-0.176,0.261-0.227,0.67-0.25,0.94c0.137-0.188,0.432-0.336,0.705-0.336
				c0.031,0,0.062,0.003,0.09,0.009c-0.102-0.188-0.082-0.48,0.018-0.613l0.008-0.009h0.012c0.266,0.057,0.367,0.353,0.379,0.571
				c0.074-0.143,0.193-0.242,0.289-0.262l0.018-0.003l0.006,0.017c0.059,0.171,0,0.515-0.125,0.623
				c0.113,0.085,0.203,0.301,0.219,0.466c0.006,0.071,0.002,0.162-0.051,0.207l-0.029,0.022l-0.006-0.036
				c-0.012-0.089-0.094-0.12-0.18-0.151c-0.07-0.028-0.145-0.054-0.182-0.113c-0.064,0.094-0.244,0.19-0.402,0.19
				c-0.041,0-0.078-0.006-0.113-0.017l-0.074-0.026l0.076-0.014c0.111-0.022,0.129-0.14,0.148-0.265
				c0.016-0.097,0.031-0.195,0.098-0.238c-0.088-0.022-0.17-0.034-0.246-0.034c-0.531,0-0.637,0.56-0.65,0.892
				c-0.023,0.475,0.225,1.401,0.836,1.967l0.027,0.025L422.137,288.399z M420.91,284.362c0.236,0,0.465,0.051,0.684,0.156
				l0.021,0.011l-0.014,0.021c-0.137,0.235-0.246,0.698-0.283,1.216c-0.047,0.659-0.006,1.872,0.828,2.588l0.262-0.07
				c-0.6-0.577-0.842-1.498-0.822-1.975c0.016-0.35,0.129-0.933,0.693-0.933c0.102,0,0.211,0.021,0.332,0.058l0.135,0.042h-0.141
				c-0.094,0-0.115,0.083-0.135,0.222c-0.016,0.105-0.033,0.219-0.115,0.272c0.176,0.021,0.391-0.119,0.42-0.201l0.021-0.065
				l0.018,0.065c0.021,0.068,0.096,0.097,0.174,0.128c0.078,0.028,0.164,0.062,0.197,0.139c0.012-0.031,0.018-0.079,0.012-0.139
				c-0.014-0.165-0.111-0.387-0.223-0.449l-0.033-0.017l0.033-0.021c0.111-0.06,0.188-0.389,0.139-0.574
				c-0.104,0.031-0.236,0.168-0.283,0.345c-0.002,0.022-0.008,0.045-0.016,0.065l-0.039-0.009c0.002-0.022,0.008-0.046,0.014-0.068
				c0.025-0.19-0.047-0.571-0.328-0.643c-0.08,0.125-0.107,0.424,0.018,0.595l0.033,0.045l-0.053-0.014
				c-0.041-0.009-0.084-0.015-0.131-0.015c-0.293,0-0.629,0.188-0.713,0.395l-0.053,0.122l0.012-0.13
				c0.02-0.265,0.057-0.753,0.266-1.058c0.014-0.02,0.016-0.048,0.002-0.073c-0.014-0.026-0.039-0.043-0.064-0.043
				c-0.043,0-0.086,0.037-0.121,0.103l-0.02,0.037l-0.02-0.037c-0.174-0.338-0.557-0.537-0.83-0.537
				c-0.105,0-0.193,0.028-0.262,0.082c-0.096,0.08-0.201,0.091-0.285,0.091c-0.043,0-0.088-0.005-0.131-0.008
				s-0.086-0.006-0.125-0.006c-0.111,0-0.227,0.02-0.318,0.165c-0.105,0.164-0.311,0.261-0.512,0.352
				c-0.236,0.111-0.457,0.213-0.438,0.406c0.025,0.236-0.029,0.586-0.145,0.719c-0.172,0.193-0.062,0.353,0.057,0.521
				c0.039,0.054,0.076,0.108,0.107,0.167c0.025-0.392,0.283-0.9,0.67-1.307C419.668,284.822,420.209,284.362,420.91,284.362"/>
			<path clip-path="url(#SVGID_6_)" fill="#BD1F38" d="M422.877,285.465c-0.006-0.214,0.363-0.492,0.863-0.486
				c0.6,0.006,1.064,0.551,1.545,0.497c0.48-0.051,0.242,0.216,0.143,0.287c-0.104,0.071-0.16,0.176-0.125,0.307
				c0.033,0.131-0.025,0.219-0.223,0.097c-0.426-0.267-0.854,0.108-1.418-0.103C423.174,285.885,422.891,285.785,422.877,285.465"/>
			<path clip-path="url(#SVGID_6_)" fill="#010101" d="M425.234,286.246c-0.043,0-0.1-0.021-0.162-0.061
				c-0.107-0.067-0.221-0.099-0.361-0.099c-0.1,0-0.199,0.017-0.307,0.031c-0.113,0.017-0.236,0.034-0.359,0.034
				c-0.139,0-0.268-0.021-0.391-0.068l-0.023-0.009c-0.477-0.173-0.76-0.278-0.773-0.608c-0.002-0.076,0.035-0.156,0.109-0.232
				c0.129-0.134,0.395-0.275,0.76-0.275h0.014c0.305,0,0.57,0.139,0.828,0.272c0.248,0.131,0.48,0.25,0.715,0.225
				c0.182-0.021,0.287,0.006,0.309,0.073c0.029,0.089-0.092,0.208-0.152,0.25c-0.062,0.043-0.156,0.137-0.117,0.287
				c0.018,0.062,0.014,0.114-0.012,0.146C425.299,286.229,425.277,286.246,425.234,286.246 M424.711,286.044
				c0.146,0,0.27,0.034,0.383,0.105c0.072,0.045,0.117,0.054,0.141,0.054c0.02,0,0.033-0.006,0.043-0.018
				c0.016-0.02,0.016-0.062,0.006-0.11c-0.037-0.125,0.01-0.247,0.133-0.329c0.057-0.043,0.154-0.146,0.137-0.202
				c-0.014-0.048-0.111-0.062-0.266-0.046c-0.246,0.029-0.484-0.096-0.738-0.229c-0.252-0.131-0.514-0.268-0.809-0.271h-0.014
				c-0.35,0-0.605,0.14-0.73,0.265c-0.062,0.068-0.098,0.14-0.098,0.202c0.012,0.301,0.273,0.397,0.748,0.57l0.025,0.012
				c0.115,0.043,0.238,0.062,0.373,0.062c0.123,0,0.24-0.018,0.354-0.034C424.508,286.061,424.609,286.044,424.711,286.044"/>
			<path clip-path="url(#SVGID_6_)" fill="#91857C" d="M420.43,291.073c-0.236-0.747-1.139-1.568-1.58-1.759l-0.021-0.403
				c0.238-0.094,0.807-0.546,1.068-0.796c1.781,0.855,4.203-0.355,5.322-1.617l0.428,0.262l-0.213,0.284l-0.229-0.119
				c-0.271,0.335-1.293,1.296-1.602,1.497c0.418,0.105,0.986,0.177,1.139,0.168c1-0.713,1.785-1.355,2.162-1.403l0.322,0.429
				l-0.285,0.201l-0.225-0.13c-1.07,0.881-2.281,2.804-2.756,4.088C423.293,291.633,420.918,291.727,420.43,291.073"/>
			<path clip-path="url(#SVGID_6_)" fill="#010101" d="M423.973,291.798l-0.018-0.003c-0.188-0.04-0.52-0.062-0.902-0.088
				c-0.963-0.062-2.285-0.146-2.639-0.62l-0.004-0.009c-0.244-0.767-1.154-1.564-1.568-1.744l-0.012-0.006l-0.023-0.432l0.014-0.006
				c0.23-0.094,0.795-0.537,1.062-0.793l0.01-0.008l0.012,0.006c1.852,0.889,4.258-0.436,5.299-1.611l0.012-0.014l0.463,0.283
				l-0.238,0.318l-0.229-0.119c-0.27,0.324-1.205,1.208-1.557,1.458c0.404,0.099,0.928,0.164,1.082,0.156
				c0.219-0.156,0.432-0.31,0.629-0.455c0.693-0.509,1.238-0.906,1.537-0.946h0.012l0.344,0.455l-0.314,0.222l-0.227-0.131
				c-0.844,0.702-1.781,2.062-2.363,3.222c-0.002,0.009-0.006,0.012-0.006,0.018h-0.002c-0.148,0.295-0.273,0.576-0.367,0.829
				L423.973,291.798z M420.449,291.064c0.346,0.455,1.654,0.54,2.607,0.603c0.373,0.022,0.697,0.042,0.891,0.082
				c0.094-0.256,0.219-0.534,0.367-0.829c0.006-0.018,0-0.034-0.008-0.052c-0.076-0.136-0.545-0.27-0.967-0.335
				c-0.393-0.054-2.057-0.188-2.814-0.165v-0.04c0.773-0.025,2.416,0.105,2.82,0.165c0.326,0.049,0.902,0.177,0.996,0.355
				c0.004,0.003,0.004,0.003,0.006,0.006c0.588-1.156,1.52-2.495,2.354-3.186l0.014-0.009l0.227,0.134l0.256-0.185l-0.301-0.397
				c-0.293,0.045-0.83,0.438-1.506,0.935c-0.199,0.145-0.412,0.301-0.635,0.46l-0.004,0.003c-0.984,0.699-2.662,0.73-3.68,0.065
				c-0.441,0.304-0.68,1.273-0.525,2.134l-0.041,0.006c-0.16-0.881,0.094-1.881,0.555-2.182l0.012-0.009l0.012,0.009
				c0.984,0.65,2.609,0.639,3.594-0.023c-0.213-0.008-0.697-0.07-1.078-0.167l-0.047-0.012l0,0c-0.135-0.037-0.24-0.077-0.316-0.11
				c-0.215,0.192-0.711,0.329-1.271,0.352v-0.042c0.559-0.023,1.053-0.162,1.256-0.353l0.01-0.012l0.016,0.009
				c0.074,0.04,0.197,0.085,0.354,0.125c0.326-0.219,1.328-1.165,1.59-1.486l0.014-0.014l0.225,0.119l0.189-0.253l-0.395-0.241
				c-1.055,1.182-3.461,2.497-5.322,1.616c-0.266,0.253-0.809,0.68-1.051,0.784l0.02,0.375
				C419.297,289.493,420.205,290.292,420.449,291.064 M420.877,290.252l-0.248-0.25l0.248-0.247l0.248,0.247L420.877,290.252z
				 M420.689,290.002l0.188,0.19l0.189-0.19l-0.189-0.185L420.689,290.002z"/>
			<path clip-path="url(#SVGID_6_)" fill="#457537" d="M421.395,285.8c-0.273-0.381-1.027-0.503-1.189,0.011
				c-0.07,0.225-0.178,0.464-0.355,0.568c-0.178,0.108-0.137,0.433-0.059,0.571c0.188,0.344,0.023,0.679,0.391,0.903
				c0-0.272,0.404-0.56,0.748-0.631c0.348-0.07,0.867-0.38,0.941-0.725C421.939,286.154,422.059,285.868,421.395,285.8"/>
			<path clip-path="url(#SVGID_6_)" fill="#010101" d="M420.203,287.891l-0.031-0.02c-0.234-0.143-0.26-0.327-0.291-0.525
				c-0.018-0.123-0.037-0.253-0.109-0.387c-0.078-0.143-0.125-0.483,0.066-0.597c0.141-0.085,0.256-0.268,0.348-0.56
				c0.07-0.225,0.264-0.355,0.527-0.355c0.268,0,0.543,0.131,0.691,0.332c0.258,0.029,0.412,0.089,0.486,0.193
				c0.09,0.119,0.053,0.281,0.016,0.455c-0.008,0.022-0.01,0.048-0.016,0.076c-0.074,0.353-0.607,0.668-0.955,0.739
				c-0.342,0.071-0.732,0.353-0.732,0.61V287.891z M420.713,285.49c-0.244,0-0.422,0.116-0.488,0.326
				c-0.094,0.302-0.213,0.492-0.363,0.583c-0.164,0.097-0.127,0.406-0.055,0.54c0.078,0.139,0.098,0.272,0.117,0.4
				c0.027,0.185,0.051,0.347,0.238,0.475c0.035-0.268,0.418-0.54,0.764-0.611c0.338-0.071,0.854-0.375,0.922-0.707
				c0.006-0.025,0.012-0.055,0.018-0.08c0.037-0.168,0.068-0.312-0.008-0.418c-0.066-0.094-0.221-0.153-0.465-0.179h-0.012
				l-0.006-0.009C421.242,285.621,420.967,285.49,420.713,285.49"/>
			<path clip-path="url(#SVGID_6_)" fill="#91857C" d="M419.682,289.221h0.098v0.65c0.02,0.006,0.041,0.015,0.057,0.028l0.561-0.323
				l0.047,0.082l-0.562,0.326c0.004,0.021,0.01,0.043,0.004,0.065l0.559,0.321l-0.047,0.082l-0.562-0.32
				c-0.018,0.011-0.035,0.025-0.055,0.031v0.647h-0.098v-0.65c-0.02-0.006-0.041-0.015-0.057-0.028l-0.559,0.32l-0.049-0.082
				l0.561-0.326c-0.004-0.021-0.006-0.043,0-0.062l-0.561-0.324l0.049-0.082l0.562,0.323c0.014-0.014,0.033-0.028,0.053-0.034
				V289.221z"/>
			<path clip-path="url(#SVGID_6_)" fill="#010101" d="M419.799,290.831h-0.137l-0.002-0.656c-0.012-0.003-0.025-0.008-0.037-0.017
				l-0.566,0.326l-0.068-0.119l0.566-0.329c0-0.015-0.002-0.028,0-0.043l-0.566-0.326l0.068-0.12l0.568,0.327
				c0.01-0.009,0.021-0.017,0.037-0.022v-0.654h0.137l0.002,0.657c0.012,0.005,0.027,0.011,0.037,0.02l0.566-0.327l0.068,0.12
				l-0.568,0.329c0.002,0.015,0.002,0.028,0.002,0.043l0.566,0.326l-0.068,0.119l-0.57-0.329c-0.01,0.009-0.021,0.017-0.035,0.025
				V290.831z M419.703,290.789h0.053l0.002-0.64l0.014-0.006c0.016-0.003,0.035-0.017,0.047-0.028l0.012-0.008l0.557,0.317
				l0.027-0.045l-0.553-0.321l0.002-0.014c0.004-0.018,0-0.04-0.002-0.055l-0.002-0.017l0.555-0.321l-0.027-0.049l-0.553,0.321
				l-0.012-0.011c-0.016-0.012-0.035-0.021-0.051-0.025l-0.014-0.003l-0.002-0.646h-0.053v0.64l-0.014,0.006
				c-0.018,0.008-0.035,0.02-0.049,0.031l-0.01,0.011l-0.559-0.324l-0.025,0.049l0.553,0.318l-0.002,0.017
				c-0.004,0.015,0,0.037,0.002,0.055l0.004,0.017l-0.557,0.321l0.025,0.045l0.555-0.317l0.014,0.008
				c0.014,0.012,0.033,0.021,0.047,0.025l0.016,0.006V290.789z"/>
			<path clip-path="url(#SVGID_6_)" fill="#91857C" d="M420.529,290.809c-0.205,0.205-0.488,0.332-0.799,0.332
				c-0.621,0-1.125-0.502-1.125-1.125c0-0.622,0.504-1.125,1.125-1.125c0.365,0,0.691,0.174,0.895,0.443
				c-0.059,0.143-0.125,0.461-0.131,0.603c-0.037-0.39-0.365-0.69-0.764-0.69c-0.426,0-0.77,0.344-0.77,0.77
				c0,0.424,0.344,0.768,0.77,0.768c0.355,0,0.664-0.247,0.752-0.574C420.48,290.349,420.484,290.689,420.529,290.809"/>
			<path clip-path="url(#SVGID_6_)" fill="#010101" d="M419.73,291.161c-0.633,0-1.148-0.515-1.148-1.146
				c0-0.633,0.516-1.147,1.148-1.147c0.359,0,0.693,0.165,0.91,0.452l0.01,0.011l-0.004,0.009c-0.059,0.137-0.125,0.455-0.129,0.597
				l-0.043,0.003c-0.039-0.384-0.357-0.674-0.744-0.674c-0.414,0-0.75,0.338-0.75,0.75s0.336,0.748,0.75,0.748
				c0.336,0,0.643-0.236,0.73-0.561l0.043-0.156v0.162c0,0.296,0.014,0.512,0.045,0.591l0.004,0.015l-0.008,0.009
				C420.328,291.042,420.037,291.161,419.73,291.161 M419.73,288.911c-0.607,0-1.105,0.497-1.105,1.104
				c0,0.608,0.498,1.105,1.105,1.105c0.291,0,0.566-0.113,0.775-0.318c-0.031-0.1-0.043-0.307-0.045-0.475
				c-0.127,0.281-0.418,0.478-0.73,0.478c-0.434,0-0.793-0.354-0.793-0.79c0-0.435,0.359-0.792,0.793-0.792
				c0.357,0,0.664,0.238,0.76,0.571c0.021-0.154,0.068-0.35,0.111-0.458C420.391,289.064,420.074,288.911,419.73,288.911"/>
			<path clip-path="url(#SVGID_6_)" fill="#457537" d="M419.254,291.88c-0.068-0.082-0.199-0.31-0.188-0.475
				c0.105-0.011,0.307,0.06,0.402,0.156c-0.014-0.122-0.059-0.381-0.035-0.5c0.131,0.046,0.402,0.202,0.498,0.378
				c-0.021-0.119-0.07-0.426-0.021-0.616c0.143,0.085,0.379,0.31,0.426,0.463c0.012-0.235,0.094-0.628,0.168-0.725
				c0.105,0.108,0.271,0.202,0.379,0.347c0.023-0.193,0.117-0.418,0.264-0.478c0.104,0.119,0.27,0.393,0.307,0.702
				c0.105-0.037,0.25-0.213,0.309-0.31c0.061,0.097,0.119,0.261,0.082,0.463c0.131-0.116,0.287-0.284,0.322-0.427
				c0.094,0.071,0.271,0.248,0.32,0.441c-0.021-0.156-0.012-0.43-0.059-0.586c0.178,0.097,0.318,0.262,0.355,0.44
				c0.047-0.165,0.156-0.463,0.25-0.534c0.094,0.19,0.191,0.418,0.178,0.605c0.061-0.119,0.154-0.333,0.25-0.381
				c0.082,0.131,0.072,0.418,0.045,0.571c0.086-0.116,0.24-0.262,0.336-0.31c0.012,0.073,0.023,0.213,0,0.32
				c0.107-0.06,0.285-0.377,0.344-0.545c0.168,0.082,0.332,0.369,0.344,0.512c0.119-0.049,0.357-0.262,0.426-0.381
				c0,0.082,0.037,0.307-0.01,0.485c0.072-0.071,0.141-0.213,0.178-0.272c0.049,0.119,0.012,0.406-0.037,0.56
				c0.109-0.097,0.264-0.153,0.359-0.153c0.01,0.199-0.131,0.557-0.262,0.818C424.043,292.13,421.654,292.011,419.254,291.88"/>
			<path clip-path="url(#SVGID_6_)" fill="#010101" d="M425.195,292.477l-0.018-0.006c-1.094-0.307-3.299-0.426-5.633-0.554
				l-0.301-0.018l-0.006-0.005c-0.066-0.077-0.207-0.311-0.195-0.492l0.004-0.017l0.016-0.003c0.096-0.009,0.268,0.043,0.379,0.125
				c0-0.015-0.004-0.034-0.008-0.051c-0.018-0.137-0.041-0.308-0.021-0.398l0.006-0.025l0.023,0.009
				c0.104,0.036,0.326,0.156,0.455,0.307c-0.023-0.137-0.047-0.369-0.006-0.531l0.006-0.028l0.021,0.014
				c0.123,0.074,0.316,0.25,0.404,0.4c0.023-0.241,0.096-0.564,0.162-0.656l0.016-0.017l0.018,0.017
				c0.039,0.04,0.09,0.077,0.139,0.12c0.076,0.057,0.15,0.116,0.213,0.19c0.031-0.183,0.125-0.387,0.268-0.446l0.012-0.006
				l0.01,0.012c0.098,0.107,0.27,0.366,0.312,0.685c0.092-0.049,0.215-0.193,0.275-0.29l0.016-0.028l0.018,0.028
				c0.037,0.06,0.113,0.21,0.094,0.421c0.15-0.146,0.248-0.275,0.273-0.378l0.006-0.031l0.027,0.02
				c0.07,0.051,0.195,0.173,0.273,0.315c-0.002-0.025-0.004-0.051-0.004-0.076c-0.006-0.125-0.014-0.268-0.043-0.361l-0.014-0.049
				l0.045,0.026c0.164,0.088,0.293,0.229,0.348,0.38c0.053-0.17,0.148-0.406,0.236-0.474l0.02-0.015l0.012,0.02
				c0.076,0.159,0.162,0.353,0.178,0.529c0.061-0.123,0.139-0.271,0.221-0.311l0.016-0.008l0.012,0.017
				c0.074,0.12,0.074,0.353,0.059,0.506c0.09-0.104,0.211-0.213,0.293-0.253l0.027-0.014l0.004,0.028
				c0.01,0.06,0.02,0.173,0.01,0.275c0.1-0.1,0.242-0.358,0.295-0.503l0.008-0.025l0.021,0.014c0.166,0.083,0.322,0.344,0.352,0.498
				c0.119-0.062,0.326-0.25,0.393-0.358l0.039-0.068v0.077c0,0.02,0.002,0.045,0.004,0.079c0.008,0.088,0.016,0.213,0,0.33
				c0.035-0.052,0.07-0.111,0.096-0.156c0.008-0.021,0.02-0.037,0.027-0.049l0.021-0.037l0.016,0.037
				c0.047,0.114,0.021,0.353-0.016,0.512c0.107-0.077,0.238-0.119,0.318-0.119h0.02v0.02c0.016,0.25-0.197,0.699-0.262,0.829
				L425.195,292.477z M419.266,291.86l0.281,0.014c2.326,0.128,4.521,0.247,5.625,0.552c0.07-0.14,0.252-0.537,0.252-0.773
				c-0.088,0.009-0.225,0.062-0.322,0.148l-0.057,0.051l0.021-0.071c0.041-0.131,0.074-0.366,0.051-0.5
				c-0.002,0.003-0.002,0.006-0.004,0.006c-0.039,0.074-0.096,0.173-0.152,0.228l-0.057,0.057l0.02-0.077
				c0.037-0.13,0.025-0.29,0.018-0.395c0-0.009,0-0.017-0.002-0.022c-0.1,0.127-0.297,0.295-0.4,0.338l-0.027,0.012l-0.002-0.029
				c-0.012-0.127-0.156-0.389-0.314-0.482c-0.062,0.162-0.23,0.472-0.344,0.534l-0.043,0.022l0.01-0.045
				c0.021-0.092,0.016-0.211,0.006-0.285c-0.094,0.058-0.227,0.186-0.297,0.29l-0.055,0.074l0.014-0.091
				c0.02-0.128,0.037-0.4-0.033-0.537c-0.072,0.051-0.148,0.21-0.201,0.315l-0.068,0.137l0.006-0.103
				c0.012-0.182-0.078-0.398-0.162-0.571c-0.084,0.088-0.178,0.344-0.225,0.506l-0.023,0.085l-0.018-0.085
				c-0.029-0.153-0.145-0.304-0.303-0.4c0.02,0.091,0.025,0.207,0.031,0.317c0.006,0.083,0.008,0.16,0.016,0.217l-0.041,0.008
				c-0.043-0.17-0.193-0.332-0.287-0.409c-0.053,0.146-0.199,0.299-0.318,0.407l-0.047,0.042l0.012-0.06
				c0.035-0.196-0.023-0.344-0.062-0.418c-0.072,0.103-0.201,0.253-0.303,0.287l-0.023,0.009l-0.002-0.025
				c-0.037-0.31-0.203-0.571-0.295-0.677c-0.125,0.062-0.213,0.271-0.234,0.449l-0.008,0.054l-0.031-0.042
				c-0.064-0.086-0.148-0.154-0.234-0.219c-0.043-0.034-0.086-0.071-0.125-0.105c-0.064,0.119-0.139,0.478-0.146,0.69l-0.008,0.122
				l-0.035-0.113c-0.045-0.146-0.256-0.347-0.393-0.438c-0.041,0.21,0.021,0.539,0.029,0.579l0.027,0.14l-0.068-0.125
				c-0.088-0.168-0.338-0.311-0.463-0.361c-0.008,0.094,0.014,0.244,0.027,0.361c0.006,0.042,0.01,0.076,0.014,0.104l0.006,0.062
				l-0.043-0.042c-0.086-0.088-0.262-0.15-0.363-0.15h-0.004C419.082,291.576,419.197,291.777,419.266,291.86"/>
			<path clip-path="url(#SVGID_6_)" fill="#F0E030" d="M423.23,285.587c-0.006-0.089,0.193-0.284,0.541-0.284
				c0.42,0.003,0.807,0.312,1.145,0.289c0.336-0.022,0.17,0.089,0.102,0.117c-0.072,0.028-0.113,0.07-0.088,0.125
				c0.025,0.054-0.02,0.091-0.154,0.039c-0.299-0.107-0.6,0.043-0.994-0.039C423.439,285.76,423.24,285.717,423.23,285.587"/>
			<path clip-path="url(#SVGID_6_)" fill="#F0E030" d="M419.623,292.593c-0.355,0.43-0.713,0.358-0.783,0.083
				c-0.072-0.271,0.189-0.401,0.096-0.64c-0.096-0.238,0.152-0.347,0.271-0.238c0.117,0.107,0.498-0.239,0.666,0.119
				c0.168,0.357,0.299,0.604,0.201,0.747C419.979,292.807,419.693,292.735,419.623,292.593"/>
			<path clip-path="url(#SVGID_6_)" fill="#010101" d="M419.119,292.92c-0.146,0-0.264-0.091-0.301-0.238
				c-0.037-0.143,0.014-0.251,0.057-0.348c0.047-0.096,0.082-0.179,0.041-0.292c-0.035-0.083-0.031-0.162,0.008-0.219
				c0.037-0.054,0.104-0.088,0.172-0.088c0.047,0,0.092,0.017,0.127,0.048c0.031,0.028,0.109,0.009,0.195-0.014
				c0.066-0.021,0.141-0.04,0.213-0.04c0.119,0,0.205,0.06,0.262,0.179l0.037,0.08c0.15,0.317,0.258,0.548,0.162,0.688
				c-0.037,0.057-0.105,0.088-0.188,0.088c-0.111,0-0.229-0.055-0.283-0.134C419.457,292.817,419.281,292.92,419.119,292.92
				 M419.096,291.777c-0.055,0-0.107,0.025-0.135,0.068c-0.023,0.034-0.043,0.091-0.008,0.182c0.053,0.128,0.004,0.23-0.041,0.327
				c-0.043,0.091-0.086,0.188-0.051,0.318c0.031,0.128,0.131,0.204,0.258,0.204c0.156,0,0.328-0.107,0.488-0.298l0.02-0.022
				l0.014,0.027c0.041,0.077,0.156,0.137,0.264,0.137c0.068,0,0.123-0.025,0.152-0.068c0.082-0.122-0.021-0.341-0.166-0.647
				l-0.037-0.079c-0.049-0.105-0.119-0.154-0.223-0.154c-0.066,0-0.135,0.021-0.201,0.037c-0.1,0.028-0.191,0.046-0.236,0.003
				C419.168,291.792,419.131,291.777,419.096,291.777"/>
			<path clip-path="url(#SVGID_6_)" fill="#F0E030" d="M421.154,291.951c-0.064-0.153,0.305-0.458,0.494-0.244
				c0.191,0.216,0.488-0.23,0.654,0.107c0.166,0.341,0.219,0.518,0.303,0.707c0.084,0.191-0.451,0.29-0.617,0.125
				c0.023,0.114-0.463,0.202-0.594-0.119C421.322,292.357,421.246,292.161,421.154,291.951"/>
			<path clip-path="url(#SVGID_6_)" fill="#010101" d="M421.762,292.77c-0.182,0-0.326-0.086-0.387-0.233
				c-0.025-0.06-0.051-0.119-0.076-0.185c-0.049-0.122-0.105-0.256-0.162-0.393c-0.02-0.045-0.012-0.104,0.031-0.161
				c0.061-0.091,0.188-0.185,0.316-0.185c0.07,0,0.133,0.028,0.18,0.082c0.033,0.037,0.07,0.054,0.117,0.054
				c0.053,0,0.109-0.022,0.164-0.042c0.061-0.023,0.121-0.046,0.18-0.046c0.084,0,0.148,0.048,0.193,0.145
				c0.111,0.225,0.172,0.378,0.229,0.515c0.025,0.065,0.049,0.131,0.076,0.193c0.02,0.037,0.014,0.076-0.008,0.11
				c-0.057,0.089-0.225,0.128-0.359,0.128c-0.104,0-0.195-0.022-0.256-0.065c-0.002,0.003-0.004,0.009-0.008,0.012
				C421.959,292.744,421.865,292.77,421.762,292.77 M421.484,291.655c-0.113,0-0.23,0.085-0.283,0.162
				c-0.029,0.048-0.041,0.094-0.027,0.125c0.061,0.14,0.113,0.27,0.166,0.392c0.025,0.065,0.047,0.125,0.072,0.188
				c0.08,0.193,0.291,0.208,0.35,0.208c0.1,0,0.176-0.028,0.197-0.057c0.008-0.012,0.008-0.021,0.008-0.021l-0.014-0.07l0.049,0.051
				c0.051,0.049,0.145,0.076,0.254,0.076c0.146,0,0.283-0.048,0.324-0.11c0.016-0.022,0.018-0.042,0.006-0.068
				c-0.027-0.062-0.053-0.128-0.08-0.196c-0.053-0.133-0.113-0.286-0.223-0.508c-0.053-0.111-0.115-0.122-0.158-0.122
				c-0.051,0-0.104,0.02-0.164,0.042c-0.059,0.023-0.119,0.046-0.18,0.046c-0.059,0-0.107-0.022-0.146-0.071
				C421.594,291.678,421.543,291.655,421.484,291.655"/>
			<path clip-path="url(#SVGID_6_)" fill="#F0E030" d="M423.627,292.149c-0.09-0.167,0.346-0.406,0.57-0.102
				c0.061-0.125,0.488-0.148,0.516,0.213c0.029,0.363,0.043,0.577,0.055,0.719s-0.26,0.272-0.457-0.088
				c-0.35,0.071-0.512-0.125-0.555-0.335C423.717,292.349,423.674,292.249,423.627,292.149"/>
			<path clip-path="url(#SVGID_6_)" fill="#010101" d="M424.605,293.145c-0.064,0-0.191-0.028-0.307-0.23
				c-0.295,0.054-0.508-0.082-0.562-0.353c-0.043-0.21-0.082-0.307-0.127-0.406c-0.023-0.037-0.02-0.082,0.006-0.131
				c0.051-0.082,0.178-0.145,0.301-0.145c0.107,0,0.207,0.048,0.279,0.131c0.039-0.04,0.113-0.068,0.197-0.068
				c0.148,0,0.322,0.082,0.342,0.318c0.02,0.216,0.027,0.381,0.039,0.509c0.006,0.085,0.01,0.153,0.016,0.207
				c0.002,0.04-0.012,0.077-0.041,0.111C424.715,293.124,424.66,293.145,424.605,293.145 M424.32,292.866l0.008,0.014
				c0.076,0.143,0.18,0.222,0.277,0.222c0.047,0,0.086-0.014,0.111-0.043c0.023-0.025,0.031-0.051,0.029-0.076
				c-0.004-0.057-0.01-0.125-0.016-0.211c-0.008-0.125-0.02-0.292-0.037-0.508c-0.016-0.205-0.166-0.278-0.301-0.278
				c-0.082,0-0.156,0.031-0.178,0.07l-0.012,0.031l-0.023-0.028c-0.084-0.113-0.189-0.136-0.264-0.136
				c-0.123,0-0.225,0.062-0.264,0.125c-0.016,0.022-0.025,0.057-0.006,0.091c0.045,0.097,0.088,0.201,0.133,0.414
				c0.018,0.1,0.098,0.333,0.393,0.333c0.043,0,0.086-0.006,0.135-0.017L424.32,292.866z"/>
			<path clip-path="url(#SVGID_6_)" fill="#457537" d="M419.854,291.911c-0.051-0.119,0.305-0.355,0.547-0.179
				c0.246,0.179,0.58-0.153,0.725,0.167c0.291,0.646,0.311,0.693,0.221,0.818s-0.469,0.077-0.564-0.094
				c-0.016,0.12-0.346,0.097-0.516,0.006C420.068,292.521,419.932,292.124,419.854,291.911"/>
			<path clip-path="url(#SVGID_6_)" fill="#010101" d="M421.148,292.809c-0.127,0-0.287-0.048-0.363-0.142
				c-0.031,0.04-0.098,0.06-0.193,0.06c-0.117,0-0.248-0.031-0.336-0.08c-0.195-0.104-0.332-0.479-0.412-0.704l-0.01-0.025
				c-0.012-0.028-0.006-0.065,0.02-0.103c0.051-0.082,0.195-0.168,0.348-0.168c0.08,0,0.15,0.023,0.213,0.068
				c0.049,0.034,0.104,0.055,0.174,0.055c0.055,0,0.109-0.012,0.164-0.021s0.104-0.02,0.154-0.02c0.115,0,0.191,0.054,0.24,0.159
				c0.291,0.653,0.312,0.707,0.219,0.841C421.328,292.78,421.25,292.809,421.148,292.809 M420.771,292.559l0.029,0.055
				c0.055,0.102,0.217,0.153,0.348,0.153c0.086,0,0.154-0.022,0.18-0.06c0.08-0.114,0.07-0.15-0.223-0.799
				c-0.043-0.097-0.1-0.137-0.199-0.137c-0.045,0-0.094,0.012-0.146,0.021c-0.057,0.009-0.113,0.02-0.172,0.02
				c-0.078,0-0.145-0.02-0.197-0.062c-0.057-0.04-0.119-0.06-0.189-0.06c-0.139,0-0.266,0.074-0.314,0.147
				c-0.012,0.018-0.021,0.043-0.012,0.062l0.008,0.028c0.078,0.219,0.211,0.583,0.393,0.686c0.08,0.042,0.207,0.07,0.316,0.07
				c0.098,0,0.162-0.022,0.168-0.064L420.771,292.559z"/>
			<path clip-path="url(#SVGID_6_)" fill="#457537" d="M422.355,291.939c-0.084-0.185,0.475-0.344,0.719-0.022
				c0.125-0.114,0.398-0.119,0.553,0.232c0.154,0.35,0.178,0.546,0.066,0.634c-0.082,0.062-0.369,0.114-0.463-0.048
				c-0.131,0.082-0.537,0.014-0.625-0.214C422.516,292.295,422.438,292.102,422.355,291.939"/>
			<path clip-path="url(#SVGID_6_)" fill="#010101" d="M423.465,292.866c-0.109,0-0.193-0.037-0.242-0.103
				c-0.037,0.017-0.088,0.028-0.148,0.028c-0.188,0-0.422-0.091-0.488-0.262c-0.09-0.229-0.168-0.423-0.25-0.582
				c-0.018-0.034-0.012-0.074,0.01-0.108c0.049-0.076,0.186-0.128,0.332-0.128c0.162,0,0.307,0.062,0.4,0.177
				c0.049-0.04,0.115-0.062,0.182-0.062c0.158,0,0.299,0.116,0.387,0.312c0.162,0.369,0.178,0.565,0.059,0.662
				C423.658,292.838,423.555,292.866,423.465,292.866 M423.236,292.707l0.012,0.02c0.049,0.082,0.156,0.097,0.217,0.097
				c0.094,0,0.18-0.028,0.213-0.057c0.104-0.08,0.082-0.268-0.068-0.611c-0.082-0.182-0.207-0.287-0.35-0.287
				c-0.064,0-0.127,0.023-0.17,0.062l-0.02,0.018l-0.014-0.021c-0.084-0.11-0.221-0.173-0.379-0.173
				c-0.131,0-0.256,0.046-0.297,0.108c-0.014,0.022-0.016,0.045-0.006,0.067c0.082,0.159,0.16,0.355,0.248,0.58
				c0.061,0.156,0.279,0.238,0.451,0.238c0.062,0,0.115-0.011,0.143-0.031L423.236,292.707z"/>
			<path clip-path="url(#SVGID_6_)" fill="#457537" d="M424.721,292.289c-0.014-0.165,0.291-0.241,0.402,0
				c0.113,0.244,0.475,0.025,0.506,0.429c0.006,0.077-0.043,0.375-0.156,0.518c-0.111,0.142-0.664,0-0.699-0.304
				C424.736,292.63,424.727,292.457,424.721,292.289"/>
			<path clip-path="url(#SVGID_6_)" fill="#010101" d="M425.309,293.312c-0.051,0-0.111-0.008-0.174-0.025
				c-0.162-0.045-0.361-0.165-0.381-0.353c-0.006-0.025-0.006-0.048-0.012-0.073l-0.002,0.003c-0.006-0.105-0.104-0.165-0.207-0.239
				c-0.135-0.085-0.285-0.185-0.291-0.386h0.043c0.006,0.179,0.139,0.267,0.27,0.352c0.068,0.046,0.131,0.088,0.174,0.143
				c-0.018-0.19-0.025-0.318-0.029-0.44c-0.006-0.08,0.049-0.147,0.139-0.171c0.104-0.025,0.236,0.015,0.305,0.159
				c0.004,0.006,0.006,0.012,0.01,0.018c0.043,0.079,0.127,0.097,0.211,0.113c0.123,0.028,0.268,0.057,0.285,0.304
				c0.006,0.08-0.037,0.384-0.156,0.531C425.459,293.289,425.391,293.312,425.309,293.312 M424.9,292.155
				c-0.018,0-0.035,0.003-0.049,0.009c-0.061,0.014-0.117,0.06-0.109,0.125l0,0c0.006,0.165,0.016,0.332,0.051,0.64
				c0.021,0.167,0.203,0.275,0.354,0.317c0.143,0.04,0.27,0.029,0.312-0.025c0.111-0.139,0.152-0.429,0.146-0.5
				c-0.016-0.216-0.125-0.241-0.25-0.267c-0.059-0.012-0.117-0.023-0.166-0.058c0.016,0.061,0.021,0.129,0.027,0.219l-0.043,0.004
				c-0.006-0.143-0.021-0.223-0.061-0.302c-0.002-0.006-0.006-0.012-0.008-0.017C425.059,292.198,424.977,292.155,424.9,292.155
				 M424.291,292.902c-0.096-0.185-0.244-0.346-0.357-0.403l0.016-0.04c0.125,0.062,0.277,0.228,0.379,0.421L424.291,292.902z
				 M423.211,292.746l-0.031-0.051c-0.062-0.094-0.115-0.179-0.131-0.253l0.041-0.009c0.014,0.068,0.068,0.15,0.125,0.239
				l0.031,0.051L423.211,292.746z M421.975,292.664c-0.094-0.065-0.215-0.188-0.277-0.31l0.035-0.021
				c0.061,0.117,0.18,0.23,0.268,0.296L421.975,292.664z M420.766,292.636c-0.084-0.108-0.182-0.275-0.219-0.403l0.041-0.015
				c0.033,0.125,0.131,0.287,0.211,0.393L420.766,292.636z M422.602,292.619c-0.127-0.021-0.279-0.214-0.322-0.276
				c-0.064-0.091-0.201-0.275-0.402-0.298l0.006-0.043c0.217,0.025,0.361,0.225,0.43,0.318c0.086,0.113,0.209,0.244,0.297,0.259
				L422.602,292.619z M419.607,292.604l-0.023-0.031c-0.082-0.111-0.184-0.25-0.293-0.25l0,0c-0.061,0-0.123,0.042-0.186,0.128
				l-0.033-0.025c0.072-0.097,0.141-0.146,0.219-0.146l0,0c0.133,0,0.24,0.15,0.326,0.271l0.023,0.031L419.607,292.604z
				 M423.223,292.204c-0.043-0.094-0.096-0.174-0.166-0.276l0.035-0.022c0.07,0.103,0.125,0.185,0.168,0.281L423.223,292.204z"/>
		</g>
	</g>
</g>
</svg>
