<?xml version="1.0" encoding="utf-8"?>
<!-- Generator: Adobe Illustrator 16.0.0, SVG Export Plug-In . SVG Version: 6.00 Build 0)  -->
<!DOCTYPE svg PUBLIC "-//W3C//DTD SVG 1.1//EN" "http://www.w3.org/Graphics/SVG/1.1/DTD/svg11.dtd">
<svg version="1.1" id="name" xmlns="http://www.w3.org/2000/svg" xmlns:xlink="http://www.w3.org/1999/xlink" x="0px" y="0px"
	 width="85.715px" height="50px" viewBox="358 276 85.715 50" enable-background="new 358 276 85.715 50" xml:space="preserve">
<g id="pr">
	<g>
		<defs>
			<rect id="SVGID_1_" x="358" y="276" width="85.715" height="50"/>
		</defs>
		<clipPath id="SVGID_2_">
			<use xlink:href="#SVGID_1_"  overflow="visible"/>
		</clipPath>
		<rect x="358" y="276" clip-path="url(#SVGID_2_)" fill="#D81E34" width="85.715" height="50"/>
		<path clip-path="url(#SVGID_2_)" fill="#2A2D2F" d="M358,311.024h85.715H358z M358,290.977h85.715H358z"/>
		<path clip-path="url(#SVGID_2_)" fill="#FFFFFF" d="M358,316.02h85.715v-9.984H358V316.02z M358,295.969h85.715v-9.984H358
			V295.969z"/>
		<polygon clip-path="url(#SVGID_2_)" fill="#2E3D85" points="358,276 358,326 401.227,301.04 		"/>
		<polygon clip-path="url(#SVGID_2_)" fill-rule="evenodd" clip-rule="evenodd" fill="#FFFFFF" points="372.434,292.667 
			369.854,300.557 373.807,301.847 		"/>
		<polygon clip-path="url(#SVGID_2_)" fill-rule="evenodd" clip-rule="evenodd" fill="#FFFFFF" points="372.434,292.667 
			374.937,300.557 370.983,301.847 		"/>
		<polygon clip-path="url(#SVGID_2_)" fill-rule="evenodd" clip-rule="evenodd" fill="#FFFFFF" points="380.337,298.463 
			372.031,298.463 372.031,302.571 		"/>
		<polygon clip-path="url(#SVGID_2_)" fill-rule="evenodd" clip-rule="evenodd" fill="#FFFFFF" points="380.337,298.463 
			373.566,303.296 371.144,299.994 		"/>
		<polygon clip-path="url(#SVGID_2_)" fill-rule="evenodd" clip-rule="evenodd" fill="#FFFFFF" points="364.45,298.463 
			371.225,303.296 373.645,299.994 		"/>
		<polygon clip-path="url(#SVGID_2_)" fill-rule="evenodd" clip-rule="evenodd" fill="#FFFFFF" points="364.45,298.463 
			372.838,298.463 372.838,302.571 		"/>
		<polygon clip-path="url(#SVGID_2_)" fill-rule="evenodd" clip-rule="evenodd" fill="#FFFFFF" points="377.275,307.726 
			374.692,299.832 370.742,301.122 		"/>
		<polygon clip-path="url(#SVGID_2_)" fill-rule="evenodd" clip-rule="evenodd" fill="#FFFFFF" points="377.275,307.726 
			370.581,302.812 373,299.512 		"/>
		<polygon clip-path="url(#SVGID_2_)" fill-rule="evenodd" clip-rule="evenodd" fill="#FFFFFF" points="367.515,307.726 
			374.209,302.812 371.79,299.512 		"/>
		<polygon clip-path="url(#SVGID_2_)" fill-rule="evenodd" clip-rule="evenodd" fill="#FFFFFF" points="367.515,307.726 
			370.095,299.832 374.049,301.122 		"/>
	</g>
</g>
</svg>
