<?xml version="1.0" encoding="utf-8"?>
<!-- Generator: Adobe Illustrator 16.0.0, SVG Export Plug-In . SVG Version: 6.00 Build 0)  -->
<!DOCTYPE svg PUBLIC "-//W3C//DTD SVG 1.1//EN" "http://www.w3.org/Graphics/SVG/1.1/DTD/svg11.dtd">
<svg version="1.1" id="name" xmlns="http://www.w3.org/2000/svg" xmlns:xlink="http://www.w3.org/1999/xlink" x="0px" y="0px"
	 width="85.716px" height="50px" viewBox="358 276 85.716 50" enable-background="new 358 276 85.716 50" xml:space="preserve">
<g id="qa">
	<g>
		<defs>
			<rect id="SVGID_1_" x="358" y="276" width="85.716" height="50"/>
		</defs>
		<clipPath id="SVGID_2_">
			<use xlink:href="#SVGID_1_"  overflow="visible"/>
		</clipPath>
		<polygon clip-path="url(#SVGID_2_)" fill="#691941" points="383.555,276 392.663,278.779 383.555,281.555 392.663,284.334 
			383.555,287.112 392.663,289.891 383.555,292.667 392.663,295.445 383.555,298.222 392.663,301 383.555,303.779 392.663,306.558 
			383.555,309.334 392.663,312.112 383.555,314.889 392.663,317.667 383.555,320.445 392.663,323.225 383.555,326 443.717,326 
			443.717,276 		"/>
		<polygon clip-path="url(#SVGID_2_)" fill="#FFFFFF" points="358,276 358,326 383.555,326 392.663,323.225 383.555,320.445 
			392.663,317.667 383.555,314.889 392.663,312.112 383.555,309.334 392.663,306.558 383.555,303.779 392.663,301 383.555,298.222 
			392.663,295.445 383.555,292.667 392.663,289.891 383.555,287.112 392.663,284.334 383.555,281.555 392.663,278.779 383.555,276 
					"/>
	</g>
</g>
</svg>
