<?xml version="1.0" encoding="utf-8"?>
<!-- Generator: Adobe Illustrator 16.0.0, SVG Export Plug-In . SVG Version: 6.00 Build 0)  -->
<!DOCTYPE svg PUBLIC "-//W3C//DTD SVG 1.1//EN" "http://www.w3.org/Graphics/SVG/1.1/DTD/svg11.dtd">
<svg version="1.1" id="name" xmlns="http://www.w3.org/2000/svg" xmlns:xlink="http://www.w3.org/1999/xlink" x="0px" y="0px"
	 width="85.055px" height="49.615px" viewBox="358 276 85.055 49.615" enable-background="new 358 276 85.055 49.615"
	 xml:space="preserve">
<g id="ru-ad">
	<g>
		<defs>
			<rect id="SVGID_1_" x="358" y="276" width="85.055" height="49.615"/>
		</defs>
		<clipPath id="SVGID_2_">
			<use xlink:href="#SVGID_1_"  overflow="visible"/>
		</clipPath>
		<rect x="358" y="276" clip-path="url(#SVGID_2_)" fill="#3D6E35" width="85.055" height="49.615"/>
		<polygon clip-path="url(#SVGID_2_)" fill="#F4EB33" points="364.502,309.257 360.781,312.19 362.203,307.59 363.623,312.19 
			359.902,309.257 		"/>
		<polygon clip-path="url(#SVGID_2_)" fill="#F4EB33" points="373.699,295.46 369.98,298.396 371.4,293.792 372.82,298.396 
			369.102,295.46 		"/>
		<polygon clip-path="url(#SVGID_2_)" fill="#F4EB33" points="382.898,287.794 379.176,290.728 380.598,286.127 382.021,290.728 
			378.299,287.794 		"/>
		<polygon clip-path="url(#SVGID_2_)" fill="#F4EB33" points="392.861,283.194 389.141,286.131 390.562,281.526 391.984,286.131 
			388.264,283.194 		"/>
		<polygon clip-path="url(#SVGID_2_)" fill="#F4EB33" points="402.828,281.663 399.105,284.597 400.529,279.995 401.949,284.597 
			398.229,281.663 		"/>
		<polygon clip-path="url(#SVGID_2_)" fill="#F4EB33" points="412.791,283.194 409.072,286.131 410.492,281.526 411.912,286.131 
			408.193,283.194 		"/>
		<polygon clip-path="url(#SVGID_2_)" fill="#F4EB33" points="422.756,287.794 419.035,290.728 420.457,286.127 421.877,290.728 
			418.156,287.794 		"/>
		<polygon clip-path="url(#SVGID_2_)" fill="#F4EB33" points="431.955,295.46 428.232,298.396 429.654,293.792 431.076,298.396 
			427.355,295.46 		"/>
		<polygon clip-path="url(#SVGID_2_)" fill="#F4EB33" points="441.152,309.257 437.434,312.19 438.852,307.59 440.273,312.19 
			436.555,309.257 		"/>
		<polygon clip-path="url(#SVGID_2_)" fill="#F4EB33" points="391.328,291.627 387.609,294.561 389.029,289.96 390.449,294.561 
			386.73,291.627 		"/>
		<polygon clip-path="url(#SVGID_2_)" fill="#F4EB33" points="402.828,291.627 399.105,294.561 400.529,289.96 401.949,294.561 
			398.229,291.627 		"/>
		<polygon clip-path="url(#SVGID_2_)" fill="#F4EB33" points="414.324,291.627 410.605,294.561 412.025,289.96 413.445,294.561 
			409.727,291.627 		"/>
		<polygon clip-path="url(#SVGID_2_)" fill="#F4EB33" points="399.607,300.807 400.529,295.441 401.447,300.807 400.986,300.807 
			400.986,316.138 401.447,317.058 401.447,320.89 400.529,319.356 399.607,320.89 399.607,317.058 400.066,316.138 
			400.066,300.807 		"/>
		<polygon clip-path="url(#SVGID_2_)" fill="#F4EB33" points="405.297,302.401 409.74,299.257 406.598,303.702 406.273,303.376 
			395.432,314.218 395.107,315.193 392.396,317.901 392.832,316.169 391.096,316.602 393.807,313.892 394.781,313.567 
			405.623,302.727 		"/>
		<polygon clip-path="url(#SVGID_2_)" fill="#F4EB33" points="394.457,303.702 391.314,299.257 395.758,302.401 395.432,302.727 
			406.273,313.567 407.248,313.892 409.959,316.602 408.225,316.169 408.658,317.901 405.947,315.193 405.623,314.218 
			394.781,303.376 		"/>
	</g>
</g>
</svg>
