<?xml version="1.0" encoding="utf-8"?>
<!-- Generator: Adobe Illustrator 16.0.0, SVG Export Plug-In . SVG Version: 6.00 Build 0)  -->
<!DOCTYPE svg PUBLIC "-//W3C//DTD SVG 1.1//EN" "http://www.w3.org/Graphics/SVG/1.1/DTD/svg11.dtd">
<svg version="1.1" id="name" xmlns="http://www.w3.org/2000/svg" xmlns:xlink="http://www.w3.org/1999/xlink" x="0px" y="0px"
	 width="85.054px" height="49.615px" viewBox="358 276 85.054 49.615" enable-background="new 358 276 85.054 49.615"
	 xml:space="preserve">
<g id="ru-bu">
	<g>
		<defs>
			<rect id="SVGID_1_" x="358" y="276" width="85.054" height="49.615"/>
		</defs>
		<clipPath id="SVGID_2_">
			<use xlink:href="#SVGID_1_"  overflow="visible"/>
		</clipPath>
		<g clip-path="url(#SVGID_2_)">
			<defs>
				<rect id="SVGID_3_" x="358" y="276" width="85.054" height="49.615"/>
			</defs>
			<clipPath id="SVGID_4_">
				<use xlink:href="#SVGID_3_"  overflow="visible"/>
			</clipPath>
			<g clip-path="url(#SVGID_4_)">
				<defs>
					<rect id="SVGID_5_" x="358" y="276" width="85.054" height="49.615"/>
				</defs>
				<clipPath id="SVGID_6_">
					<use xlink:href="#SVGID_5_"  overflow="visible"/>
				</clipPath>
				<g clip-path="url(#SVGID_6_)">
					<g>
						<defs>
							<rect id="SVGID_7_" x="358" y="276" width="85.054" height="49.615"/>
						</defs>
						<clipPath id="SVGID_8_">
							<use xlink:href="#SVGID_7_"  overflow="visible"/>
						</clipPath>
						<rect x="358" y="276" clip-path="url(#SVGID_8_)" fill="#FFFFFF" width="85.054" height="49.615"/>
					</g>
				</g>
			</g>
			<rect x="358" y="276" clip-path="url(#SVGID_4_)" fill="#4452A4" width="85.054" height="25.048"/>
			<g clip-path="url(#SVGID_4_)">
				<defs>
					<rect id="SVGID_9_" x="358" y="276" width="85.054" height="49.615"/>
				</defs>
				<clipPath id="SVGID_10_">
					<use xlink:href="#SVGID_9_"  overflow="visible"/>
				</clipPath>
				<path clip-path="url(#SVGID_10_)" fill="#F4EB33" d="M376.225,289.307c-0.096,0.441-0.156,0.895-0.156,1.363
					c0,3.604,3,6.533,6.688,6.533c3.691,0,6.68-2.929,6.68-6.533c0-0.469-0.061-0.922-0.156-1.363
					c-0.014,0.074-0.006,0.154-0.021,0.228c-0.088,0.42-0.215,0.824-0.383,1.21c-0.168,0.385-0.371,0.752-0.609,1.095
					c-0.24,0.343-0.516,0.659-0.814,0.95c-0.303,0.291-0.629,0.555-0.984,0.787c-0.354,0.23-0.729,0.436-1.125,0.598
					c-0.398,0.164-0.818,0.287-1.252,0.373s-0.875,0.135-1.334,0.135s-0.91-0.049-1.342-0.135c-0.434-0.086-0.854-0.209-1.252-0.373
					c-0.396-0.162-0.771-0.367-1.127-0.598c-0.354-0.232-0.68-0.496-0.982-0.787c-0.301-0.291-0.566-0.607-0.805-0.95
					c-0.24-0.343-0.455-0.71-0.621-1.095c-0.17-0.386-0.293-0.79-0.383-1.21C376.231,289.461,376.239,289.381,376.225,289.307"/>
				<path clip-path="url(#SVGID_10_)" fill="#F4EB33" d="M387.735,289.051c0.004,2.676-2.232,4.844-4.992,4.844
					c-2.758,0-4.992-2.168-4.992-4.844c0-2.674,2.234-4.842,4.992-4.842C385.502,284.209,387.739,286.377,387.735,289.051"/>
				<path clip-path="url(#SVGID_10_)" fill="#F4EB33" d="M382.674,277.614c0.018,0.12,0.041,0.166,0.068,0.241
					c0.072,0.204,0.203,0.34,0.24,0.398c0.059,0.089,0.107,0.193,0.135,0.277c0.031,0.095,0.051,0.172,0.033,0.293
					c-0.012,0.057-0.035,0.197-0.053,0.27c-0.018,0.07-0.023,0.158-0.031,0.225c-0.008,0.086-0.012,0.143-0.012,0.217
					c0,0.086,0.029,0.137,0.068,0.211c0.051,0.098,0.084,0.148,0.139,0.221c0.025,0.033,0.154,0.266,0.182,0.369
					c0.035,0.123,0.025,0.207,0.016,0.365c-0.01,0.088-0.061,0.261-0.082,0.354c-0.02,0.078-0.051,0.14-0.07,0.209
					c-0.02,0.076-0.051,0.119-0.051,0.209s0.041,0.162,0.098,0.23c0.074,0.09,0.115,0.146,0.186,0.197
					c0.08-0.036,0.125-0.096,0.188-0.176c0.053-0.064,0.09-0.159,0.084-0.236c-0.002-0.078-0.012-0.146-0.027-0.213
					c-0.02-0.07-0.051-0.15-0.051-0.228c0-0.075,0-0.131,0.025-0.22c0.025-0.094,0.041-0.134,0.092-0.225
					c0.039-0.067,0.105-0.203,0.131-0.316c0.025-0.109,0.02-0.288-0.012-0.406c-0.029-0.104-0.184-0.191-0.186-0.4
					c-0.004-0.066,0.07-0.18,0.111-0.23c0.035-0.037,0.223-0.244,0.223-0.221c0,0.068,0.02,0.17,0.057,0.207
					c0.061,0.06,0.137,0.141,0.188,0.209c0.035,0.053,0.08,0.139,0.104,0.197c0.025,0.067,0.039,0.114,0.053,0.256
					c0.006,0.078-0.021,0.313-0.041,0.416c-0.012,0.064-0.016,0.156,0.021,0.231c0.043,0.082,0.1,0.168,0.158,0.228
					c0.062,0.059,0.09,0.088,0.145,0.144c0.045,0.044,0.096,0.124,0.141,0.196c0.078,0.138,0.184,0.338,0.205,0.488
					c0.023,0.154,0.037,0.244,0.037,0.399c0,0.073-0.006,0.213-0.018,0.269c-0.031,0.168-0.057,0.217-0.084,0.283
					c-0.043,0.098-0.082,0.18-0.178,0.297c-0.047,0.061-0.291,0.25-0.393,0.312c-0.086,0.053-0.268,0.176-0.395,0.222
					c-0.174,0.061-0.396,0.096-0.477,0.116c-0.084,0.021-0.242,0.036-0.32,0.078c-0.08,0.039-0.271,0.238-0.318,0.271
					c-0.105,0.074-0.287,0.098-0.404,0.039c-0.064-0.031-0.166-0.196-0.23-0.244c-0.102-0.079-0.285-0.098-0.578-0.134
					c-0.115-0.016-0.215-0.031-0.324-0.06c-0.045-0.012-0.26-0.077-0.332-0.113c-0.07-0.036-0.254-0.126-0.373-0.223
					c-0.121-0.094-0.203-0.236-0.238-0.295s-0.152-0.329-0.178-0.444c-0.025-0.116-0.068-0.392-0.068-0.476
					c0-0.158-0.006-0.295,0.02-0.457c0.014-0.08,0.027-0.203,0.064-0.275c0.025-0.051,0.096-0.206,0.133-0.258
					c0.045-0.059,0.059-0.088,0.109-0.152c0.043-0.051,0.168-0.164,0.213-0.25c0.033-0.061,0.045-0.254,0.045-0.321
					c0-0.083-0.006-0.232-0.006-0.31c0-0.062,0.092-0.211,0.148-0.266c0.049-0.048,0.127-0.129,0.182-0.186
					c0.066-0.066,0.158-0.152,0.211-0.225c0.064-0.083,0.146-0.178,0.152-0.149c0.008,0.031,0.039,0.179,0.045,0.278
					c0.025,0.318-0.023,0.422-0.068,0.498c-0.047,0.08-0.096,0.116-0.104,0.207c-0.008,0.104-0.012,0.145,0,0.209
					c0.014,0.085,0.074,0.181,0.123,0.246c0.051,0.068,0.125,0.131,0.162,0.24c0.008,0.025,0.064,0.184,0.066,0.342
					c0.004,0.078-0.021,0.189-0.039,0.26c-0.012,0.046-0.031,0.174-0.012,0.221c0.047,0.118,0.1,0.17,0.139,0.209
					c0.068,0.068,0.172,0.176,0.197,0.139c0.031-0.049,0.061-0.128,0.158-0.369c0.037-0.092,0.025-0.25,0-0.342
					c-0.018-0.072-0.133-0.373-0.158-0.481c-0.02-0.075-0.051-0.146-0.092-0.255c-0.062-0.158,0.008-0.343,0.045-0.416
					c0.035-0.07,0.121-0.168,0.172-0.219c0.057-0.055,0.158-0.188,0.193-0.271c0.055-0.125,0.049-0.197,0.049-0.282
					c0-0.093-0.033-0.162-0.055-0.235c-0.027-0.092-0.059-0.164-0.08-0.256c-0.021-0.074-0.037-0.143-0.057-0.228
					c-0.037-0.155,0.031-0.349,0.066-0.442c0.029-0.075,0.107-0.23,0.17-0.302C382.522,277.74,382.598,277.664,382.674,277.614"/>
				<rect x="358" y="313.012" clip-path="url(#SVGID_10_)" fill="#F2EA32" width="85.054" height="12.604"/>
			</g>
		</g>
	</g>
</g>
</svg>
