<?xml version="1.0" encoding="utf-8"?>
<!-- Generator: Adobe Illustrator 16.0.0, SVG Export Plug-In . SVG Version: 6.00 Build 0)  -->
<!DOCTYPE svg PUBLIC "-//W3C//DTD SVG 1.1//EN" "http://www.w3.org/Graphics/SVG/1.1/DTD/svg11.dtd">
<svg version="1.1" id="name" xmlns="http://www.w3.org/2000/svg" xmlns:xlink="http://www.w3.org/1999/xlink" x="0px" y="0px"
	 width="85.714px" height="49.998px" viewBox="358 276 85.714 49.998" enable-background="new 358 276 85.714 49.998"
	 xml:space="preserve">
<g id="ru-cu">
	<g>
		<defs>
			<rect id="SVGID_1_" x="358" y="276" width="85.714" height="49.998"/>
		</defs>
		<clipPath id="SVGID_2_">
			<use xlink:href="#SVGID_1_"  overflow="visible"/>
		</clipPath>
		<rect x="358" y="276" clip-path="url(#SVGID_2_)" fill="#F3EB32" width="85.714" height="49.998"/>
		<rect x="358" y="315.199" clip-path="url(#SVGID_2_)" fill="#F3EB32" width="85.714" height="0.801"/>
		<path clip-path="url(#SVGID_2_)" fill="#B92025" d="M409.818,283.148l0.035,2.299l-2.242-0.037l2.227,2.283l-2.225,2.279
			l2.242-0.034l-0.035,2.302l2.23-2.283l2.229,2.279l-0.037-2.299l2.246,0.035l-2.229-2.279l2.229-2.283l-2.246,0.037l0.039-2.301
			l-2.23,2.285L409.818,283.148z M410.633,285.111l1.418,1.451l1.416-1.451l-0.018,1.149l1.125-0.019l-1.42,1.451l1.416,1.449
			l-1.125-0.018l0.02,1.146l-1.414-1.447l-1.418,1.452l0.018-1.151l-1.119,0.018l1.412-1.449l-1.416-1.451l1.123,0.02
			L410.633,285.111z"/>
		<path clip-path="url(#SVGID_2_)" fill="#B92025" d="M391.369,292.248l-3.312,3.438l2.783,2.808l2.212-0.018l1.918-1.992
			l-2.229-2.248l-1.369,1.422l0.836,0.844l0.551-0.568l0.557,0.56l-1.098,1.142l-1.952-1.969l2.47-2.562l6.715,6.778v-1.69
			l-5.893-5.944H391.369z M408.15,292.248l-5.893,5.944v1.69l6.711-6.778l2.469,2.562l-1.949,1.969l-1.098-1.142l0.557-0.56
			l0.549,0.568l0.838-0.844l-1.371-1.422l-2.227,2.248l1.92,1.992l2.209,0.018l2.781-2.808l-3.309-3.438H408.15z M395.527,297.047
			l-2.742,2.844l0.014,2.262l1.672,1.688l2.469-2.562l-1.393-1.406l-0.82,0.855l0.557,0.565l-0.551,0.568l-1.111-1.126l1.918-1.994
			l2.738,2.765v12.2l1.18,0.094l-0.006-12.791L395.527,297.047z M406.182,297.047l-3.924,3.961v12.781l1.174-0.016l-0.002-12.269
			l2.736-2.765l1.92,1.994l-1.113,1.126l-0.547-0.568l0.557-0.565l-0.822-0.855l-1.391,1.406l2.469,2.562l1.668-1.688l0.016-2.262
			L406.182,297.047z M400.853,296.801l5.918-5.977l-2.465-2.561l-1.949,1.965l1.096,1.142l0.561-0.562l-0.551-0.572l0.836-0.842
			l1.369,1.423l-2.227,2.246l-1.92-1.993l0.018-2.263l2.783-2.808l3.275,3.404v2.275l-6.121,6.178v0.225h-0.002l-0.01,17.952
			l-1.217,0.017l-0.016-17.969h-0.002v-0.225l-6.123-6.178v-2.275l3.277-3.404l2.785,2.808l0.014,2.263l-1.918,1.993l-2.227-2.246
			l1.369-1.423l0.834,0.842l-0.547,0.572l0.557,0.562l1.096-1.142l-1.945-1.965l-2.469,2.561L400.853,296.801z"/>
		<path clip-path="url(#SVGID_2_)" fill="#B92025" d="M391.886,283.148l-0.035,2.299l2.244-0.037l-2.229,2.283l2.227,2.279
			l-2.244-0.034l0.037,2.302l-2.229-2.283l-2.23,2.279l0.037-2.299l-2.246,0.035l2.229-2.279l-2.23-2.283l2.248,0.037l-0.039-2.301
			l2.232,2.285L391.886,283.148z M391.074,285.111l-1.417,1.451l-1.418-1.451l0.02,1.149l-1.125-0.019l1.418,1.451l-1.416,1.449
			l1.123-0.018l-0.02,1.146l1.418-1.447l1.417,1.452l-0.016-1.151l1.119,0.018l-1.417-1.449l1.417-1.451l-1.119,0.02
			L391.074,285.111z"/>
		<path clip-path="url(#SVGID_2_)" fill="#B92025" d="M398.623,278.143l0.035,2.299l-2.244-0.037l2.229,2.283l-2.227,2.277
			l2.242-0.033l-0.035,2.301l2.23-2.281l2.229,2.279l-0.037-2.299l2.246,0.035l-2.227-2.279l2.227-2.282l-2.246,0.036l0.039-2.303
			l-2.231,2.286L398.623,278.143z M399.435,280.105l1.418,1.45l1.417-1.45l-0.018,1.148l1.123-0.018l-1.418,1.451l1.416,1.449
			l-1.125-0.018l0.021,1.146l-1.417-1.447l-1.418,1.452l0.018-1.151l-1.121,0.018l1.416-1.449l-1.418-1.451l1.123,0.02
			L399.435,280.105z"/>
		<rect x="358" y="316" clip-path="url(#SVGID_2_)" fill="#B92025" width="85.714" height="9.998"/>
		<path clip-path="url(#SVGID_2_)" fill="#B92025" d="M402.258,313.6v1.201l41.457-0.002V313.6H402.258z M358,313.6v1.199h41.456
			V313.6H358z"/>
	</g>
</g>
</svg>
