<?xml version="1.0" encoding="utf-8"?>
<!-- Generator: Adobe Illustrator 16.0.0, SVG Export Plug-In . SVG Version: 6.00 Build 0)  -->
<!DOCTYPE svg PUBLIC "-//W3C//DTD SVG 1.1//EN" "http://www.w3.org/Graphics/SVG/1.1/DTD/svg11.dtd">
<svg version="1.1" id="name" xmlns="http://www.w3.org/2000/svg" xmlns:xlink="http://www.w3.org/1999/xlink" x="0px" y="0px"
	 width="85.714px" height="50px" viewBox="357.674 276 85.714 50" enable-background="new 357.674 276 85.714 50"
	 xml:space="preserve">
<g id="ru-ce">
	<g>
		<defs>
			<rect id="SVGID_1_" x="357.674" y="276" width="85.714" height="50"/>
		</defs>
		<clipPath id="SVGID_2_">
			<use xlink:href="#SVGID_1_"  overflow="visible"/>
		</clipPath>
		<rect x="357.674" y="276" clip-path="url(#SVGID_2_)" fill="#FFFFFF" width="85.714" height="50"/>
		<rect x="357.674" y="276" clip-path="url(#SVGID_2_)" fill="#3F9A46" width="85.714" height="29.54"/>
		<rect x="357.674" y="310.036" clip-path="url(#SVGID_2_)" fill="#E81E26" width="85.714" height="15.964"/>
		<rect x="357.674" y="276" clip-path="url(#SVGID_2_)" fill="#FFFFFF" width="6.939" height="50"/>
		<g clip-path="url(#SVGID_2_)">
			<defs>
				<rect id="SVGID_3_" x="357.674" y="276" width="85.714" height="50"/>
			</defs>
			<clipPath id="SVGID_4_">
				<use xlink:href="#SVGID_3_"  overflow="visible"/>
			</clipPath>
			<g clip-path="url(#SVGID_4_)">
				<path fill="#F5CD2B" d="M361.217,301.029c-0.109,0-0.217-0.006-0.322-0.021c-0.672-0.098-1.264-0.495-1.621-1.092
					c-0.775-1.294-0.475-2.899,0.83-4.402l1.797-1.73c0.674-0.779,1.691-2.344,0.771-3.877c-0.291-0.486-0.771-0.809-1.314-0.887
					c-0.521-0.072-1.033,0.08-1.402,0.423c-0.607,0.562-0.943,1.516-0.412,2.251c0.248,0.344,0.65,0.555,1.018,0.531
					c0.332-0.008,0.613-0.162,0.789-0.434c0.164-0.254,0.205-0.543,0.105-0.793c-0.088-0.217-0.262-0.372-0.477-0.425
					c-0.117-0.028-0.188-0.146-0.16-0.261c0.029-0.117,0.148-0.187,0.262-0.161c0.35,0.085,0.643,0.344,0.779,0.688
					c0.15,0.382,0.098,0.815-0.146,1.188c-0.252,0.391-0.668,0.621-1.141,0.633c-0.012,0-0.027,0-0.037,0
					c-0.521,0-1.021-0.264-1.344-0.712c-0.6-0.829-0.404-2.019,0.469-2.823c0.465-0.434,1.107-0.63,1.758-0.533
					c0.676,0.094,1.268,0.492,1.625,1.09c0.775,1.292,0.475,2.896-0.826,4.402l-1.801,1.729c-0.674,0.778-1.693,2.343-0.771,3.878
					c0.291,0.486,0.768,0.807,1.312,0.887c0.523,0.076,1.035-0.08,1.406-0.424c0.605-0.562,0.943-1.517,0.412-2.25
					c-0.25-0.344-0.631-0.548-1.02-0.532c-0.332,0.007-0.613,0.163-0.789,0.435c-0.166,0.253-0.203,0.543-0.104,0.794
					c0.086,0.216,0.26,0.371,0.475,0.423c0.117,0.029,0.188,0.146,0.16,0.262c-0.029,0.117-0.145,0.189-0.262,0.16
					c-0.35-0.086-0.639-0.34-0.775-0.686c-0.154-0.383-0.1-0.816,0.143-1.19c0.252-0.39,0.67-0.619,1.141-0.631
					c0.553,0.013,1.053,0.251,1.381,0.71c0.6,0.83,0.404,2.018-0.469,2.824C362.268,300.836,361.754,301.029,361.217,301.029
					L361.217,301.029z"/>
			</g>
			<g clip-path="url(#SVGID_4_)">
				<path fill="#F5CD2B" d="M361.217,325.904c-0.109,0-0.217-0.006-0.322-0.021c-0.672-0.098-1.264-0.495-1.621-1.094
					c-0.775-1.292-0.475-2.897,0.83-4.398l1.801-1.655c0.674-0.776,1.689-2.339,0.768-3.876c-0.291-0.486-0.771-0.809-1.314-0.886
					c-0.514-0.075-1.033,0.079-1.402,0.422c-0.607,0.562-0.943,1.516-0.412,2.251c0.248,0.344,0.607,0.535,1.018,0.533
					c0.326-0.008,0.615-0.166,0.789-0.435c0.164-0.255,0.205-0.544,0.105-0.794c-0.088-0.217-0.262-0.372-0.477-0.425
					c-0.117-0.028-0.188-0.146-0.16-0.261c0.029-0.117,0.148-0.186,0.262-0.161c0.35,0.087,0.643,0.343,0.779,0.688
					c0.15,0.382,0.098,0.817-0.146,1.19c-0.252,0.389-0.67,0.619-1.141,0.631c-0.492,0.014-1.049-0.253-1.381-0.712
					c-0.6-0.829-0.4-2.017,0.469-2.823c0.465-0.434,1.107-0.627,1.758-0.533c0.674,0.094,1.268,0.492,1.625,1.091
					c0.779,1.294,0.477,2.897-0.826,4.401l-1.805,1.656c-0.67,0.775-1.689,2.338-0.768,3.873c0.291,0.486,0.768,0.807,1.312,0.885
					c0.523,0.08,1.035-0.078,1.406-0.422c0.605-0.562,0.943-1.517,0.412-2.251c-0.25-0.343-0.631-0.563-1.02-0.531
					c-0.332,0.007-0.613,0.161-0.789,0.435c-0.166,0.253-0.203,0.543-0.104,0.794c0.086,0.216,0.26,0.371,0.475,0.423
					c0.117,0.029,0.188,0.146,0.16,0.262c-0.029,0.118-0.145,0.188-0.262,0.16c-0.35-0.086-0.639-0.34-0.775-0.686
					c-0.154-0.383-0.1-0.816,0.143-1.19c0.252-0.39,0.67-0.619,1.141-0.632c0.553,0,1.053,0.252,1.381,0.711
					c0.6,0.83,0.404,2.018-0.469,2.824C362.268,325.711,361.754,325.904,361.217,325.904L361.217,325.904z"/>
			</g>
			<g clip-path="url(#SVGID_4_)">
				<path fill="#F5CD2B" d="M361.1,288.578c-0.537,0-1.051-0.197-1.439-0.557c-0.873-0.808-1.068-1.994-0.469-2.824
					c0.322-0.448,0.822-0.713,1.344-0.713c0.01,0,0.025,0,0.037,0c0.473,0.012,0.889,0.242,1.141,0.633
					c0.244,0.372,0.297,0.807,0.146,1.19c-0.137,0.344-0.43,0.599-0.779,0.687c-0.113,0.026-0.232-0.043-0.262-0.16
					c-0.027-0.117,0.043-0.234,0.16-0.262c0.215-0.055,0.389-0.209,0.477-0.426c0.1-0.251,0.059-0.538-0.105-0.793
					c-0.176-0.271-0.457-0.427-0.789-0.434c-0.367-0.021-0.77,0.189-1.018,0.531c-0.531,0.734-0.195,1.688,0.412,2.252
					c0.369,0.344,0.881,0.498,1.402,0.422c0.543-0.078,1.023-0.4,1.314-0.886c0.922-1.534-0.098-3.099-0.785-3.892l-1.773-1.738
					c-1.314-1.516-1.615-3.119-0.84-4.413c0.357-0.597,0.949-0.995,1.621-1.091c0.656-0.094,1.297,0.101,1.762,0.532
					c0.873,0.809,1.068,1.996,0.469,2.824c-0.328,0.459-0.828,0.731-1.383,0.712c-0.469-0.012-0.887-0.243-1.139-0.633
					c-0.242-0.373-0.297-0.805-0.143-1.188c0.133-0.344,0.424-0.601,0.775-0.687c0.117-0.027,0.232,0.043,0.262,0.159
					c0.027,0.116-0.043,0.234-0.16,0.263c-0.215,0.051-0.389,0.207-0.475,0.424c-0.1,0.25-0.062,0.539,0.104,0.794
					c0.176,0.271,0.457,0.427,0.787,0.435c0.357,0.02,0.771-0.189,1.021-0.533c0.531-0.732,0.193-1.688-0.414-2.251
					c-0.369-0.343-0.879-0.497-1.404-0.422c-0.541,0.078-1.021,0.4-1.312,0.885c-0.922,1.537,0.098,3.1,0.785,3.896l1.773,1.734
					c1.314,1.519,1.619,3.122,0.84,4.414c-0.357,0.598-0.949,0.995-1.625,1.092C361.313,288.57,361.206,288.578,361.1,288.578
					L361.1,288.578z"/>
			</g>
			<g clip-path="url(#SVGID_4_)">
				<path fill="#F5CD2B" d="M361.104,313.443c-0.541,0-1.055-0.195-1.443-0.558c-0.869-0.806-1.068-1.991-0.469-2.821
					c0.328-0.459,0.832-0.74,1.381-0.712c0.471,0.011,0.889,0.24,1.141,0.631c0.244,0.374,0.297,0.808,0.146,1.19
					c-0.137,0.344-0.43,0.602-0.779,0.686c-0.113,0.029-0.232-0.043-0.262-0.158c-0.027-0.117,0.043-0.233,0.16-0.264
					c0.215-0.052,0.389-0.208,0.477-0.424c0.1-0.25,0.059-0.54-0.105-0.795c-0.174-0.267-0.463-0.426-0.789-0.434
					c-0.443-0.025-0.77,0.191-1.018,0.533c-0.531,0.734-0.195,1.688,0.412,2.25c0.369,0.344,0.889,0.5,1.402,0.422
					c0.543-0.076,1.023-0.398,1.314-0.885c0.92-1.533-0.098-3.098-0.785-3.893l-1.768-1.636c-1.32-1.519-1.621-3.122-0.846-4.418
					c0.357-0.597,0.949-0.995,1.621-1.091c0.646-0.094,1.297,0.101,1.762,0.533c0.873,0.809,1.068,1.996,0.469,2.824
					c-0.328,0.461-0.828,0.709-1.381,0.713c-0.471-0.012-0.889-0.242-1.141-0.633c-0.242-0.373-0.297-0.807-0.143-1.191
					c0.137-0.343,0.426-0.6,0.775-0.684c0.117-0.024,0.232,0.044,0.262,0.159c0.027,0.116-0.043,0.234-0.16,0.263
					c-0.215,0.051-0.389,0.206-0.475,0.424c-0.1,0.248-0.062,0.537,0.104,0.793c0.176,0.271,0.457,0.426,0.789,0.434
					c0.389,0.029,0.77-0.188,1.02-0.531c0.531-0.734,0.193-1.689-0.414-2.252c-0.369-0.342-0.881-0.496-1.404-0.423
					c-0.541,0.078-1.021,0.401-1.312,0.886c-0.922,1.537,0.098,3.1,0.785,3.893l1.77,1.635c1.318,1.523,1.619,3.127,0.844,4.418
					c-0.357,0.6-0.951,0.996-1.625,1.094C361.313,313.436,361.208,313.443,361.104,313.443L361.104,313.443z"/>
			</g>
			<polygon clip-path="url(#SVGID_4_)" fill="#F5CD2B" points="359.295,288.57 361.143,288.41 362.995,288.566 361.145,288.732 			
				"/>
			<g clip-path="url(#SVGID_4_)">
				<path fill="#F5CD2B" d="M361.145,288.875c-0.002,0-0.008,0-0.01,0l-1.85-0.161c-0.078-0.006-0.135-0.068-0.135-0.144
					s0.057-0.138,0.135-0.145l1.846-0.16l1.875,0.156c0.076,0.006,0.135,0.068,0.135,0.145c0,0.074-0.059,0.137-0.131,0.143
					l-1.85,0.166C361.155,288.875,361.151,288.875,361.145,288.875L361.145,288.875z"/>
			</g>
			<polygon clip-path="url(#SVGID_4_)" fill="#F5CD2B" points="359.295,301.037 361.143,300.875 362.995,301.033 361.145,301.197 
							"/>
			<g clip-path="url(#SVGID_4_)">
				<path fill="#F5CD2B" d="M361.145,301.341c-0.002,0-0.008,0-0.01,0l-1.85-0.161c-0.078-0.006-0.135-0.068-0.135-0.143
					c0-0.076,0.057-0.139,0.135-0.145l1.846-0.16l1.875,0.156c0.076,0.008,0.135,0.068,0.135,0.145c0,0.074-0.059,0.137-0.131,0.145
					l-1.85,0.163C361.155,301.341,361.151,301.341,361.145,301.341L361.145,301.341z"/>
			</g>
			<polygon clip-path="url(#SVGID_4_)" fill="#F5CD2B" points="359.295,313.479 361.143,313.318 362.995,313.477 361.145,313.639 
							"/>
			<g clip-path="url(#SVGID_4_)">
				<path fill="#F5CD2B" d="M361.145,313.783c-0.002,0-0.008,0-0.01,0l-1.85-0.16c-0.078-0.008-0.135-0.07-0.135-0.145
					c0-0.076,0.057-0.137,0.135-0.145l1.846-0.16l1.875,0.158c0.076,0.006,0.135,0.068,0.135,0.143c0,0.076-0.059,0.139-0.131,0.145
					l-1.85,0.164C361.155,313.783,361.151,313.783,361.145,313.783L361.145,313.783z"/>
			</g>
		</g>
	</g>
</g>
</svg>
