<?xml version="1.0" encoding="utf-8"?>
<!-- Generator: Adobe Illustrator 16.0.0, SVG Export Plug-In . SVG Version: 6.00 Build 0)  -->
<!DOCTYPE svg PUBLIC "-//W3C//DTD SVG 1.1//EN" "http://www.w3.org/Graphics/SVG/1.1/DTD/svg11.dtd">
<svg version="1.1" id="name" xmlns="http://www.w3.org/2000/svg" xmlns:xlink="http://www.w3.org/1999/xlink" x="0px" y="0px"
	 width="85.711px" height="50px" viewBox="358 276 85.711 50" enable-background="new 358 276 85.711 50" xml:space="preserve">
<g id="ru-kb">
	<g>
		<defs>
			<rect id="SVGID_1_" x="358" y="276" width="85.711" height="50"/>
		</defs>
		<clipPath id="SVGID_2_">
			<use xlink:href="#SVGID_1_"  overflow="visible"/>
		</clipPath>
		<polygon clip-path="url(#SVGID_2_)" fill="#688CC8" points="358,276 358,292.668 400.858,292.668 443.711,292.668 443.711,276 		
			"/>
		<g clip-path="url(#SVGID_2_)">
			<defs>
				<rect id="SVGID_3_" x="358" y="276" width="85.711" height="50"/>
			</defs>
			<clipPath id="SVGID_4_">
				<use xlink:href="#SVGID_3_"  overflow="visible"/>
			</clipPath>
			<path clip-path="url(#SVGID_4_)" fill="#FFFFFF" d="M400.858,309.334c-4.537,0-8.229-3.625-8.332-8.134
				c-0.002-0.011-0.002-0.022-0.002-0.031c0-0.011,0-0.022,0-0.031c0-0.034,0-0.067,0-0.099c0-0.016,0-0.026,0-0.037
				c0-0.004,0-0.006,0-0.012c0-0.014,0-0.029,0-0.045c0.031-4.578,3.748-8.277,8.334-8.277H358v16.666h34.524H400.858z"/>
			<path clip-path="url(#SVGID_4_)" fill="#FFFFFF" d="M409.189,300.928c0,0.018,0,0.033,0,0.051c0,0.009,0,0.014,0,0.023
				c0,0.008,0,0.017,0,0.021c0,0.037,0,0.078-0.002,0.114c0,0.009,0,0.021,0,0.031c0,0.009,0,0.021,0,0.031
				c-0.105,4.509-3.797,8.134-8.33,8.134h8.332h34.521v-16.666h-42.853C405.434,292.668,409.148,296.359,409.189,300.928"/>
			<polygon clip-path="url(#SVGID_4_)" fill="#3D9244" points="400.858,309.334 392.524,309.334 358,309.334 358,326 443.711,326 
				443.711,309.334 409.189,309.334 			"/>
			<path clip-path="url(#SVGID_4_)" fill="#688CC8" d="M392.524,300.945c0.848-0.887,4.229-4.308,6-4.308
				c1.033,0,1.773,0.696,2.43,1.312c0.014,0.011,0.025,0.025,0.041,0.036l0,0c0.009-0.016,0.859-1.682,2.361-1.682
				c1.625,0,4.986,3.671,5.834,4.625c-0.041-4.57-3.756-8.262-8.332-8.262C396.272,292.668,392.555,296.367,392.524,300.945"/>
			<path clip-path="url(#SVGID_4_)" fill="#FFFFFF" d="M403.355,296.365c-1.375,0-2.193,1.443-2.293,1.631l0.482,0.482
				c0.012,0.014,0.012,0.031,0.002,0.043c-0.012,0.014-0.031,0.014-0.045,0.006c-0.195-0.16-0.387-0.338-0.591-0.531
				c-0.646-0.608-1.379-1.296-2.387-1.296c-1.732,0-5.15,3.448-5.967,4.302h16.611C408.377,300.112,404.949,296.365,403.355,296.365
				"/>
			<path clip-path="url(#SVGID_4_)" fill="#688CC8" d="M403.355,296.305c-1.502,0-2.352,1.666-2.361,1.682l0,0
				c-0.016-0.011-0.027-0.025-0.041-0.036c-0.656-0.616-1.396-1.312-2.43-1.312c-1.771,0-5.152,3.421-6,4.308
				c0,0.016,0,0.031,0,0.045c0.793-0.83,4.236-4.321,6-4.321c1.334,0,2.166,1.167,2.998,1.833l-0.5-0.5c0,0,0.834-1.668,2.334-1.668
				c1.615,0,5.039,3.75,5.834,4.645c0-0.018,0-0.033,0-0.051C408.342,299.976,404.98,296.305,403.355,296.305"/>
			<path clip-path="url(#SVGID_4_)" fill="#688CC8" d="M403.355,296.334c-1.5,0-2.334,1.668-2.334,1.668l0.5,0.5
				c-0.832-0.666-1.664-1.833-2.998-1.833c-1.764,0-5.207,3.491-6,4.321c0,0.006,0,0.008,0,0.012h0.033
				c0.816-0.854,4.234-4.302,5.967-4.302c1.008,0,1.74,0.688,2.387,1.296c0.205,0.193,0.396,0.371,0.591,0.531
				c0.014,0.008,0.033,0.008,0.045-0.006c0.01-0.012,0.01-0.029-0.002-0.043l-0.482-0.482c0.1-0.188,0.918-1.631,2.293-1.631
				c1.594,0,5.021,3.747,5.812,4.637h0.021c0-0.01,0-0.015,0-0.023C408.395,300.084,404.971,296.334,403.355,296.334"/>
			<path clip-path="url(#SVGID_4_)" fill="#3D9244" d="M400.858,309.334c4.533,0,8.224-3.625,8.33-8.134h-16.662
				C392.629,305.709,396.321,309.334,400.858,309.334"/>
			<path clip-path="url(#SVGID_4_)" fill="#3D9244" d="M392.557,301.002c-0.012,0.011-0.023,0.021-0.033,0.037
				c0,0.031,0,0.064,0,0.099h16.664c0.002-0.036,0.002-0.077,0.002-0.114c-0.008-0.005-0.014-0.014-0.021-0.021H392.557z"/>
			<path clip-path="url(#SVGID_4_)" fill="#3D9244" d="M392.526,301.2h16.662c0-0.011,0-0.022,0-0.031h-16.664
				C392.524,301.178,392.524,301.189,392.526,301.2"/>
			<path clip-path="url(#SVGID_4_)" fill="#3D9244" d="M392.524,301.169h16.664c0-0.011,0-0.022,0-0.031h-16.664
				C392.524,301.146,392.524,301.158,392.524,301.169"/>
			<path clip-path="url(#SVGID_4_)" fill="#3D9244" d="M392.524,301.002c0,0.011,0,0.021,0,0.037
				c0.01-0.016,0.021-0.026,0.033-0.037H392.524z"/>
			<path clip-path="url(#SVGID_4_)" fill="#3D9244" d="M409.189,301.023c0-0.005,0-0.014,0-0.021h-0.021
				C409.176,301.01,409.182,301.019,409.189,301.023"/>
		</g>
	</g>
</g>
</svg>
