<?xml version="1.0" encoding="utf-8"?>
<!-- Generator: Adobe Illustrator 16.0.0, SVG Export Plug-In . SVG Version: 6.00 Build 0)  -->
<!DOCTYPE svg PUBLIC "-//W3C//DTD SVG 1.1//EN" "http://www.w3.org/Graphics/SVG/1.1/DTD/svg11.dtd">
<svg version="1.1" id="name" xmlns="http://www.w3.org/2000/svg" xmlns:xlink="http://www.w3.org/1999/xlink" x="0px" y="0px"
	 width="85.715px" height="50px" viewBox="358 276 85.715 50" enable-background="new 358 276 85.715 50" xml:space="preserve">
<g id="ru-kc">
	<g>
		<defs>
			<rect id="SVGID_1_" x="358" y="276" width="85.715" height="50"/>
		</defs>
		<clipPath id="SVGID_2_">
			<use xlink:href="#SVGID_1_"  overflow="visible"/>
		</clipPath>
		<rect x="358" y="276" clip-path="url(#SVGID_2_)" fill="#438DCB" width="85.715" height="16.668"/>
		<rect x="358" y="292.668" clip-path="url(#SVGID_2_)" fill="#317339" width="85.715" height="16.666"/>
		<rect x="358" y="309.334" clip-path="url(#SVGID_2_)" fill="#CD2027" width="85.715" height="16.666"/>
		<g clip-path="url(#SVGID_2_)">
			<defs>
				<rect id="SVGID_3_" x="358" y="276" width="85.715" height="50"/>
			</defs>
			<clipPath id="SVGID_4_">
				<use xlink:href="#SVGID_3_"  overflow="visible"/>
			</clipPath>
			<path clip-path="url(#SVGID_4_)" fill="#F2AE24" d="M400.857,297.669c1.842,0,3.334,1.491,3.334,3.333
				c0,1.84-1.492,3.332-3.334,3.332s-3.334-1.492-3.334-3.332C397.523,299.16,399.016,297.669,400.857,297.669"/>
		</g>
		<g clip-path="url(#SVGID_2_)">
			<defs>
				<path id="SVGID_5_" d="M392.689,301.002c0,4.508,3.656,8.164,8.168,8.164c4.51,0,8.166-3.656,8.166-8.164
					c0-4.512-3.656-8.168-8.166-8.168C396.346,292.834,392.689,296.49,392.689,301.002"/>
			</defs>
			<clipPath id="SVGID_6_">
				<use xlink:href="#SVGID_5_"  overflow="visible"/>
			</clipPath>
			<path clip-path="url(#SVGID_6_)" fill="#FFFFFF" d="M400.857,300.169c-2.5-2.5-13,6.665-13,6.665l28.166,0.668
				c0,0-11.332-10.333-15-7.333H400.857z"/>
			<path clip-path="url(#SVGID_6_)" fill="#317339" d="M401.023,303.002c-3.334-3-6.334,2.668-10,0.664
				c1.834,8.336,20.834,9.168,19.168-0.332C407.191,303.666,404.357,299.169,401.023,303.002"/>
		</g>
		<g clip-path="url(#SVGID_2_)">
			<defs>
				<rect id="SVGID_7_" x="358" y="276" width="85.715" height="50"/>
			</defs>
			<clipPath id="SVGID_8_">
				<use xlink:href="#SVGID_7_"  overflow="visible"/>
			</clipPath>
			<g clip-path="url(#SVGID_8_)">
				<path fill="#F2AE24" d="M400.857,309.334c-4.596,0-8.336-3.738-8.336-8.332c0-4.595,3.74-8.334,8.336-8.334
					c4.594,0,8.334,3.739,8.334,8.334C409.191,305.596,405.451,309.334,400.857,309.334L400.857,309.334z M400.857,293.334
					c-4.227,0-7.666,3.439-7.666,7.668c0,4.227,3.439,7.664,7.666,7.664s7.666-3.438,7.666-7.664
					C408.523,296.773,405.084,293.334,400.857,293.334L400.857,293.334z"/>
			</g>
			<path clip-path="url(#SVGID_8_)" fill="#F2AE24" d="M397.412,299.319c-1.951-1.321-2.926-1.983-3.145-1.531
				C394.047,298.236,395.168,298.598,397.412,299.319L397.412,299.319z"/>
			<path clip-path="url(#SVGID_8_)" fill="#F2AE24" d="M397.68,298.856c-1.75-1.579-2.623-2.37-2.902-1.954
				C394.496,297.314,395.559,297.828,397.68,298.856L397.68,298.856z"/>
			<path clip-path="url(#SVGID_8_)" fill="#F2AE24" d="M398.713,297.822c-1.029-2.119-1.543-3.18-1.957-2.9
				C396.34,295.2,397.133,296.075,398.713,297.822L398.713,297.822z"/>
			<path clip-path="url(#SVGID_8_)" fill="#F2AE24" d="M399.176,297.555c-0.721-2.241-1.086-3.363-1.533-3.145
				C397.193,294.629,397.855,295.606,399.176,297.555L399.176,297.555z"/>
			<path clip-path="url(#SVGID_8_)" fill="#F2AE24" d="M400.59,297.178c0.168-2.35,0.256-3.526-0.244-3.492
				S400.094,294.873,400.59,297.178L400.59,297.178z"/>
			<path clip-path="url(#SVGID_8_)" fill="#F2AE24" d="M401.125,297.178c0.494-2.305,0.742-3.458,0.242-3.492
				C400.869,293.651,400.955,294.828,401.125,297.178L401.125,297.178z"/>
			<path clip-path="url(#SVGID_8_)" fill="#F2AE24" d="M402.537,297.555c1.322-1.948,1.984-2.926,1.533-3.145
				C403.623,294.191,403.26,295.313,402.537,297.555L402.537,297.555z"/>
			<path clip-path="url(#SVGID_8_)" fill="#F2AE24" d="M403,297.822c1.582-1.747,2.373-2.622,1.957-2.9
				C404.545,294.643,404.029,295.703,403,297.822L403,297.822z"/>
			<path clip-path="url(#SVGID_8_)" fill="#F2AE24" d="M404.035,298.856c2.121-1.028,3.182-1.542,2.902-1.954
				C406.656,296.486,405.785,297.277,404.035,298.856L404.035,298.856z"/>
			<path clip-path="url(#SVGID_8_)" fill="#F2AE24" d="M404.303,299.319c2.242-0.722,3.365-1.083,3.145-1.531
				C407.229,297.336,406.254,297.998,404.303,299.319L404.303,299.319z"/>
			<path clip-path="url(#SVGID_8_)" fill="#F2AE24" d="M397.152,300.01c-1.564-0.594-2.188-0.847-2.252-0.605
				C394.834,299.646,395.502,299.74,397.152,300.01L397.152,300.01z"/>
			<path clip-path="url(#SVGID_8_)" fill="#F2AE24" d="M398.146,298.291c-1.061-1.299-1.473-1.826-1.65-1.65
				S396.85,297.229,398.146,298.291L398.146,298.291z"/>
			<path clip-path="url(#SVGID_8_)" fill="#F2AE24" d="M399.865,297.297c-0.27-1.65-0.363-2.318-0.604-2.254
				C399.02,295.109,399.273,295.731,399.865,297.297L399.865,297.297z"/>
			<path clip-path="url(#SVGID_8_)" fill="#F2AE24" d="M401.85,297.297c0.592-1.565,0.846-2.188,0.604-2.254
				C402.211,294.979,402.119,295.646,401.85,297.297L401.85,297.297z"/>
			<path clip-path="url(#SVGID_8_)" fill="#F2AE24" d="M403.568,298.291c1.295-1.062,1.824-1.475,1.65-1.65
				C405.041,296.465,404.629,296.992,403.568,298.291L403.568,298.291z"/>
			<path clip-path="url(#SVGID_8_)" fill="#F2AE24" d="M404.561,300.01c1.652-0.27,2.318-0.363,2.254-0.605
				C406.748,299.163,406.125,299.416,404.561,300.01L404.561,300.01z"/>
		</g>
	</g>
</g>
</svg>
