<?xml version="1.0" encoding="utf-8"?>
<!-- Generator: Adobe Illustrator 16.0.0, SVG Export Plug-In . SVG Version: 6.00 Build 0)  -->
<!DOCTYPE svg PUBLIC "-//W3C//DTD SVG 1.1//EN" "http://www.w3.org/Graphics/SVG/1.1/DTD/svg11.dtd">
<svg version="1.1" id="name" xmlns="http://www.w3.org/2000/svg" xmlns:xlink="http://www.w3.org/1999/xlink" x="0px" y="0px"
	 width="85.713px" height="49.997px" viewBox="358 276 85.713 49.997" enable-background="new 358 276 85.713 49.997"
	 xml:space="preserve">
<g id="ru-kk">
	<g>
		<defs>
			<rect id="SVGID_1_" x="358" y="276" width="85.713" height="49.997"/>
		</defs>
		<clipPath id="SVGID_2_">
			<use xlink:href="#SVGID_1_"  overflow="visible"/>
		</clipPath>
		<rect x="358" y="276" clip-path="url(#SVGID_2_)" fill="#4452A4" width="85.713" height="16.666"/>
		<rect x="358" y="292.666" clip-path="url(#SVGID_2_)" fill="#FFFFFF" width="85.713" height="16.666"/>
		<rect x="358" y="309.332" clip-path="url(#SVGID_2_)" fill="#E91E26" width="85.713" height="16.665"/>
		<rect x="358" y="276" clip-path="url(#SVGID_2_)" fill="#36823E" width="16.666" height="49.997"/>
		<g clip-path="url(#SVGID_2_)">
			<defs>
				<rect id="SVGID_3_" x="358" y="276" width="85.713" height="49.997"/>
			</defs>
			<clipPath id="SVGID_4_">
				<use xlink:href="#SVGID_3_"  overflow="visible"/>
			</clipPath>
			<path clip-path="url(#SVGID_4_)" fill="#F5D729" d="M366.333,294.518c3.58,0,6.483,2.901,6.483,6.48
				c0,3.58-2.903,6.48-6.483,6.48c-3.578,0-6.48-2.9-6.48-6.48C359.853,297.419,362.755,294.518,366.333,294.518L366.333,294.518z"
				/>
			<polygon clip-path="url(#SVGID_4_)" fill="#F5D729" points="359.853,294.518 361.705,300.998 359.853,307.479 366.333,305.627 
				372.816,307.479 370.964,300.998 372.816,294.518 366.333,296.371 			"/>
			<g clip-path="url(#SVGID_4_)">
				<path fill="#36823E" d="M366.333,306.785c-3.19,0-5.786-2.596-5.786-5.787c0-3.189,2.596-5.787,5.786-5.787
					c3.192,0,5.787,2.598,5.787,5.787C372.12,304.189,369.525,306.785,366.333,306.785L366.333,306.785z M366.333,296.601
					c-2.424,0-4.397,1.972-4.397,4.397c0,2.424,1.974,4.398,4.397,4.398c2.427,0,4.399-1.975,4.399-4.398
					C370.732,298.572,368.76,296.601,366.333,296.601L366.333,296.601z"/>
			</g>
			<g clip-path="url(#SVGID_4_)">
				<path fill="#36823E" d="M366.333,304.471c-1.913,0-3.471-1.557-3.471-3.473c0-1.914,1.558-3.471,3.471-3.471
					c1.915,0,3.475,1.557,3.475,3.471C369.808,302.914,368.248,304.471,366.333,304.471L366.333,304.471z M366.333,298.916
					c-1.147,0-2.082,0.935-2.082,2.082c0,1.148,0.935,2.083,2.082,2.083c1.15,0,2.086-0.935,2.086-2.083
					C368.419,299.851,367.483,298.916,366.333,298.916L366.333,298.916z"/>
			</g>
		</g>
	</g>
</g>
</svg>
