<?xml version="1.0" encoding="utf-8"?>
<!-- Generator: Adobe Illustrator 16.0.0, SVG Export Plug-In . SVG Version: 6.00 Build 0)  -->
<!DOCTYPE svg PUBLIC "-//W3C//DTD SVG 1.1//EN" "http://www.w3.org/Graphics/SVG/1.1/DTD/svg11.dtd">
<svg version="1.1" id="name" xmlns="http://www.w3.org/2000/svg" xmlns:xlink="http://www.w3.org/1999/xlink" x="0px" y="0px"
	 width="85.712px" height="50px" viewBox="358 276 85.712 50" enable-background="new 358 276 85.712 50" xml:space="preserve">
<g id="ru-kl">
	<g>
		<defs>
			<rect id="SVGID_1_" x="358" y="276" width="85.712" height="50"/>
		</defs>
		<clipPath id="SVGID_2_">
			<use xlink:href="#SVGID_1_"  overflow="visible"/>
		</clipPath>
		<rect x="358" y="276" clip-path="url(#SVGID_2_)" fill="#F6CF2B" width="85.712" height="50"/>
		<g clip-path="url(#SVGID_2_)">
			<defs>
				<rect id="SVGID_3_" x="358" y="276" width="85.712" height="50"/>
			</defs>
			<clipPath id="SVGID_4_">
				<use xlink:href="#SVGID_3_"  overflow="visible"/>
			</clipPath>
			<path clip-path="url(#SVGID_4_)" fill="#51ADDB" d="M400.858,284.336c9.205,0,16.664,7.461,16.664,16.666
				s-7.459,16.665-16.664,16.665c-9.205,0-16.666-7.46-16.666-16.665S391.653,284.336,400.858,284.336L400.858,284.336z"/>
			<path clip-path="url(#SVGID_4_)" fill="#FFFFFF" d="M391.858,309.002c2.666,0.332,5.166-0.5,6.832-1.5
				c2.333-1.168,2.667-4.336,2.667-4.336s-4.167-0.332-6.333,2.004C394.524,305.502,392.856,306.834,391.858,309.002
				L391.858,309.002z"/>
			<g clip-path="url(#SVGID_4_)">
				<path fill="#010101" d="M393.069,309.158L393.069,309.158c-0.41,0-0.822-0.025-1.221-0.074l-0.113-0.014l0.049-0.105
					c1.141-2.477,3.109-3.81,3.193-3.867c1.697-1.832,4.645-2.031,5.832-2.031c0.345,0,0.554,0.018,0.554,0.018l0.084,0.006
					l-0.008,0.088c-0.004,0.031-0.365,3.225-2.712,4.398C397.053,308.582,394.989,309.158,393.069,309.158L393.069,309.158z
					 M391.981,308.931c2.219,0.25,4.693-0.315,6.666-1.5c2.057-1.031,2.539-3.673,2.615-4.185c-0.597-0.029-4.212-0.14-6.177,1.977
					C394.989,305.291,393.112,306.562,391.981,308.931L391.981,308.931z"/>
			</g>
			<path clip-path="url(#SVGID_4_)" fill="#FFFFFF" d="M409.857,309.002c-2.668,0.332-5.168-0.5-6.834-1.5
				c-2.333-1.168-2.666-4.336-2.666-4.336s4.166-0.332,6.332,2.004C407.189,305.502,408.857,306.834,409.857,309.002
				L409.857,309.002z"/>
			<g clip-path="url(#SVGID_4_)">
				<path fill="#010101" d="M408.645,309.158c-1.92,0-3.984-0.576-5.662-1.586c-2.343-1.17-2.705-4.363-2.708-4.395l-0.008-0.088
					l0.086-0.006c0,0,0.207-0.018,0.555-0.018c1.185,0,4.132,0.199,5.843,2.046c0.068,0.043,2.037,1.372,3.182,3.853l0.047,0.105
					l-0.111,0.014C409.467,309.133,409.057,309.158,408.645,309.158L408.645,309.158z M400.452,303.246
					c0.076,0.512,0.558,3.153,2.609,4.182c1.98,1.188,4.455,1.75,6.672,1.503c-1.131-2.372-3.01-3.64-3.088-3.693
					C404.66,303.104,401.045,303.217,400.452,303.246L400.452,303.246z"/>
			</g>
			<path clip-path="url(#SVGID_4_)" fill="#FFFFFF" d="M392.19,301.334c-0.5,0-1.5-0.165-2.998,1c1.164,1.5,2.332,2.332,4.332,2.332
				c2.666,0,5.334-0.664,5.334-0.664s-3.668-2.668-5.002-2.668H392.19z"/>
			<g clip-path="url(#SVGID_4_)">
				<path fill="#010101" d="M393.524,304.752c-2.125,0-3.295-0.946-4.398-2.367l-0.051-0.064l0.066-0.052
					c1.18-0.917,2.074-1.026,2.643-1.026l2.072,0.01c1.346,0,4.898,2.574,5.049,2.682l0.145,0.105l-0.172,0.042
					C398.852,304.09,396.17,304.752,393.524,304.752L393.524,304.752z M389.309,302.348c1.059,1.348,2.191,2.236,4.215,2.236
					c2.234,0,4.496-0.475,5.135-0.622c-0.697-0.495-3.66-2.543-4.803-2.543l-2.072-0.009
					C391.249,301.41,390.417,301.51,389.309,302.348L389.309,302.348z"/>
			</g>
			<path clip-path="url(#SVGID_4_)" fill="#FFFFFF" d="M409.523,301.334c0.5,0,1.5-0.165,3,1c-1.166,1.5-2.334,2.332-4.334,2.332
				c-2.666,0-5.332-0.664-5.332-0.664S406.523,301.334,409.523,301.334L409.523,301.334z"/>
			<g clip-path="url(#SVGID_4_)">
				<path fill="#010101" d="M408.189,304.752c-2.645,0-5.326-0.662-5.354-0.671l-0.172-0.042l0.145-0.105
					c0.037-0.025,3.721-2.682,6.715-2.682l0.408-0.01c0.568,0,1.461,0.109,2.645,1.026l0.064,0.052l-0.051,0.064
					C411.484,303.806,410.314,304.752,408.189,304.752L408.189,304.752z M403.057,303.965c0.645,0.145,2.9,0.619,5.133,0.619
					c2.023,0,3.156-0.889,4.217-2.236c-1.109-0.838-1.941-0.938-2.475-0.938l-0.408,0.009
					C406.926,301.419,403.777,303.471,403.057,303.965L403.057,303.965z"/>
			</g>
			<path clip-path="url(#SVGID_4_)" fill="#FFFFFF" d="M397.69,292.501c-1.5,0-2.834,8.001-2.834,8.001h5.502
				C400.358,300.502,399.858,292.501,397.69,292.501L397.69,292.501z"/>
			<g clip-path="url(#SVGID_4_)">
				<path fill="#010101" d="M400.446,300.584h-5.688l0.016-0.097c0.141-0.827,1.391-8.069,2.916-8.069
					c2.221,0,2.73,7.748,2.75,8.078L400.446,300.584L400.446,300.584z M394.956,300.416h5.312c-0.064-0.869-0.633-7.832-2.578-7.832
					C396.536,292.584,395.342,298.146,394.956,300.416L394.956,300.416z"/>
			</g>
			<path clip-path="url(#SVGID_4_)" fill="#FFFFFF" d="M404.023,292.501c1.5,0,2.834,8.001,2.834,8.001h-5.5
				C401.357,300.502,401.857,292.501,404.023,292.501L404.023,292.501z"/>
			<g clip-path="url(#SVGID_4_)">
				<path fill="#010101" d="M406.955,300.584h-5.686l0.004-0.088c0.021-0.33,0.529-8.078,2.75-8.078
					c1.527,0,2.777,7.242,2.916,8.069L406.955,300.584L406.955,300.584z M401.445,300.416h5.312
					c-0.387-2.27-1.578-7.832-2.734-7.832C402.078,292.584,401.51,299.547,401.445,300.416L401.445,300.416z"/>
			</g>
			<path clip-path="url(#SVGID_4_)" fill="#FFFFFF" d="M394.524,294.001c-0.5,0-1,1.833-1,3.668c0,2.165,2.332,7.501,6.834,6.665
				C399.19,301.834,396.356,294.001,394.524,294.001L394.524,294.001z"/>
			<g clip-path="url(#SVGID_4_)">
				<path fill="#010101" d="M399.428,304.504h-0.002c-3.949,0-5.986-4.793-5.986-6.835c0-1.733,0.473-3.751,1.084-3.751
					c1.52,0,3.631,5.018,5.025,8.34c0.348,0.823,0.65,1.539,0.885,2.042l0.045,0.097l-0.105,0.02
					C400.055,304.477,399.735,304.504,399.428,304.504L399.428,304.504z M394.524,294.086c-0.4,0-0.918,1.736-0.918,3.583
					c0,1.994,1.98,6.671,5.82,6.671h0.002c0.264,0,0.533-0.023,0.809-0.068c-0.229-0.497-0.514-1.176-0.84-1.949
					C398.102,299.24,395.934,294.086,394.524,294.086L394.524,294.086z"/>
			</g>
			<path clip-path="url(#SVGID_4_)" fill="#FFFFFF" d="M407.189,294.001c0.5,0,1,1.833,1,3.668c0,2.165-2.332,7.501-6.832,6.665
				C402.523,301.834,405.357,294.001,407.189,294.001L407.189,294.001z"/>
			<g clip-path="url(#SVGID_4_)">
				<path fill="#010101" d="M402.287,304.504c-0.309,0-0.627-0.027-0.945-0.088l-0.107-0.02l0.045-0.097
					c0.236-0.503,0.537-1.219,0.885-2.042c1.395-3.322,3.506-8.34,5.025-8.34c0.611,0,1.084,2.018,1.084,3.751
					C408.273,299.711,406.238,304.504,402.287,304.504L402.287,304.504z M401.477,304.271c0.275,0.045,0.545,0.068,0.811,0.068
					c3.84,0,5.82-4.677,5.82-6.671c0-1.847-0.518-3.583-0.918-3.583c-1.41,0-3.576,5.154-4.873,8.236
					C401.99,303.096,401.707,303.774,401.477,304.271L401.477,304.271z"/>
			</g>
			<path clip-path="url(#SVGID_4_)" fill="#FFFFFF" d="M400.858,304.666c2.166,0,2.5-2.332,2.5-5.332c0-2-1.334-6.833-2.5-6.833
				c-1.168,0-2.5,4.833-2.5,6.833C398.358,302.334,398.69,304.666,400.858,304.666L400.858,304.666z"/>
			<g clip-path="url(#SVGID_4_)">
				<path fill="#010101" d="M400.858,304.752c-2.385,0-2.584-2.796-2.584-5.418c0-1.83,1.285-6.916,2.584-6.916
					c1.296,0,2.583,5.086,2.583,6.916C403.441,301.956,403.24,304.752,400.858,304.752L400.858,304.752z M400.858,292.584
					c-1.037,0-2.418,4.633-2.418,6.75c0,3.153,0.412,5.25,2.418,5.25c2.005,0,2.416-2.097,2.416-5.25
					C403.273,297.217,401.895,292.584,400.858,292.584L400.858,292.584z"/>
			</g>
		</g>
	</g>
</g>
</svg>
