<?xml version="1.0" encoding="utf-8"?>
<!-- Generator: Adobe Illustrator 16.0.0, SVG Export Plug-In . SVG Version: 6.00 Build 0)  -->
<!DOCTYPE svg PUBLIC "-//W3C//DTD SVG 1.1//EN" "http://www.w3.org/Graphics/SVG/1.1/DTD/svg11.dtd">
<svg version="1.1" id="name" xmlns="http://www.w3.org/2000/svg" xmlns:xlink="http://www.w3.org/1999/xlink" x="0px" y="0px"
	 width="85.715px" height="50px" viewBox="358 276 85.715 50" enable-background="new 358 276 85.715 50" xml:space="preserve">
<g id="ru-me">
	<g>
		<defs>
			<rect id="SVGID_1_" x="358" y="276" width="85.715" height="50"/>
		</defs>
		<clipPath id="SVGID_2_">
			<use xlink:href="#SVGID_1_"  overflow="visible"/>
		</clipPath>
		<rect x="358" y="311.002" clip-path="url(#SVGID_2_)" fill="#A41D31" width="85.715" height="14.998"/>
		<rect x="358" y="291.001" clip-path="url(#SVGID_2_)" fill="#FFFFFF" width="85.715" height="20.001"/>
		<rect x="358" y="276" clip-path="url(#SVGID_2_)" fill="#3A74B8" width="85.715" height="15.001"/>
		<path clip-path="url(#SVGID_2_)" fill="#A41D31" d="M392.524,297.313l0.639,0.64l3.236,3.235l-3.236,3.236l-0.639,0.636
			l0.639,0.641l0.635,0.635l0.639,0.637l0.635-0.637l2.602-2.602l-0.635-0.634l-2.602,2.601l-0.639-0.641l3.24-3.235l3.182,3.185
			l-3.236,3.238l-0.635-0.639l2.598-2.6l-0.635-0.637l-2.602,2.6l-0.639,0.637l0.639,0.639l0.639,0.635l0.635,0.639l0.639-0.639
			l3.236-3.236l3.873,3.872l0.637-0.636l1.275-1.275l-0.641-0.637l-2.596-2.598l-0.637,0.637l2.598,2.598l-0.637,0.639l-3.234-3.236
			l3.184-3.185l3.234,3.235l-0.637,0.637l-2.598-2.597l-0.637,0.634l2.6,2.6l0.635,0.637l1.912-1.91l-0.637-0.636l-3.234-3.236
			l3.873-3.875l-0.637-0.636l-1.275-1.276l-0.637,0.64l-2.344,2.341l-0.256,0.259l0.637,0.637l2.6-2.6l0.639,0.636l-3.238,3.239
			l-3.184-3.188l3.236-3.236l0.635,0.639l-2.598,2.598l0.637,0.639l0.258-0.258l2.342-2.345l0.637-0.634l-1.91-1.912l-3.875,3.873
			l-3.875-3.873l-1.912,1.912l0.639,0.634l2.189,2.19l0.412,0.412l0.635-0.639l-2.598-2.598l0.635-0.639l3.236,3.236l-3.182,3.188
			l-3.24-3.239l0.639-0.636l2.602,2.6l0.635-0.637l-0.41-0.412l-2.191-2.188l-0.635-0.64L392.524,297.313z M397.672,301.188
			l3.186-3.185l3.185,3.185l-3.185,3.185L397.672,301.188z M398.946,301.188l1.912,1.912l1.912-1.912l-1.912-1.911L398.946,301.188z
			"/>
	</g>
</g>
</svg>
