<?xml version="1.0" encoding="utf-8"?>
<!-- Generator: Adobe Illustrator 16.0.0, SVG Export Plug-In . SVG Version: 6.00 Build 0)  -->
<!DOCTYPE svg PUBLIC "-//W3C//DTD SVG 1.1//EN" "http://www.w3.org/Graphics/SVG/1.1/DTD/svg11.dtd">
<svg version="1.1" id="name" xmlns="http://www.w3.org/2000/svg" xmlns:xlink="http://www.w3.org/1999/xlink" x="0px" y="0px"
	 width="85.713px" height="50px" viewBox="358 276 85.713 50" enable-background="new 358 276 85.713 50" xml:space="preserve">
<g id="ru-mo">
	<g>
		<defs>
			<rect id="SVGID_1_" x="358" y="276" width="85.713" height="50"/>
		</defs>
		<clipPath id="SVGID_2_">
			<use xlink:href="#SVGID_1_"  overflow="visible"/>
		</clipPath>
		<rect x="358" y="276" clip-path="url(#SVGID_2_)" fill="#C02026" width="85.713" height="12.5"/>
		<rect x="358" y="288.5" clip-path="url(#SVGID_2_)" fill="#FFFFFF" width="85.713" height="25.002"/>
		<rect x="358" y="313.502" clip-path="url(#SVGID_2_)" fill="#4452A4" width="85.713" height="12.498"/>
		<polygon clip-path="url(#SVGID_2_)" fill="#C02026" points="397.856,292 409.855,304.002 391.858,304.002 403.857,292 
			403.857,310.002 391.858,298.002 409.855,298.002 397.856,310.002 		"/>
		<path clip-path="url(#SVGID_2_)" fill="#010101" d="M397.106,297.252l7.501,7.5L397.106,297.252z M397.106,304.752l7.501-7.5
			L397.106,304.752z"/>
		<g clip-path="url(#SVGID_2_)">
			<polygon fill="#FFFFFF" points="404.342,305.016 400.858,301.529 397.372,305.016 396.842,304.484 400.327,301.002 
				396.842,297.518 397.372,296.986 400.858,300.473 404.342,296.986 404.871,297.518 401.387,301.002 404.871,304.484 
				404.342,305.016 			"/>
		</g>
	</g>
</g>
</svg>
