<?xml version="1.0" encoding="utf-8"?>
<!-- Generator: Adobe Illustrator 16.0.0, SVG Export Plug-In . SVG Version: 6.00 Build 0)  -->
<!DOCTYPE svg PUBLIC "-//W3C//DTD SVG 1.1//EN" "http://www.w3.org/Graphics/SVG/1.1/DTD/svg11.dtd">
<svg version="1.1" id="name" xmlns="http://www.w3.org/2000/svg" xmlns:xlink="http://www.w3.org/1999/xlink" x="0px" y="0px"
	 width="85.715px" height="50px" viewBox="358 276 85.715 50" enable-background="new 358 276 85.715 50" xml:space="preserve">
<g id="rw">
	<g>
		<defs>
			<rect id="SVGID_1_" x="358" y="276" width="85.715" height="50"/>
		</defs>
		<clipPath id="SVGID_2_">
			<use xlink:href="#SVGID_1_"  overflow="visible"/>
		</clipPath>
		<rect x="358" y="276" clip-path="url(#SVGID_2_)" fill="#4081C3" width="85.715" height="24.999"/>
		<rect x="358" y="300.999" clip-path="url(#SVGID_2_)" fill="#F1D631" width="85.715" height="12.501"/>
		<rect x="358" y="313.5" clip-path="url(#SVGID_2_)" fill="#347E5A" width="85.715" height="12.5"/>
		<polygon clip-path="url(#SVGID_2_)" fill="#DFAE29" points="438.637,294.203 434.758,291.231 436.627,295.746 433.65,291.871 
			434.287,296.715 432.416,292.2 431.775,297.047 431.137,292.2 429.266,296.715 429.9,291.871 426.926,295.746 428.793,291.231 
			424.914,294.203 427.889,290.325 423.373,292.194 427.248,289.217 422.404,289.856 426.918,287.981 422.074,287.345 
			426.918,286.706 422.404,284.833 427.248,285.47 423.373,282.492 427.889,284.361 424.914,280.483 428.793,283.458 
			426.926,278.941 429.9,282.816 429.266,277.973 431.137,282.486 431.775,277.643 432.416,282.486 434.287,277.973 433.65,282.816 
			436.627,278.941 434.758,283.458 438.637,280.483 435.662,284.361 440.178,282.492 436.303,285.47 441.148,284.833 
			436.635,286.706 441.479,287.345 436.635,287.981 441.148,289.856 436.303,289.217 440.178,292.194 435.662,290.325 		"/>
		<g clip-path="url(#SVGID_2_)">
			<defs>
				<rect id="SVGID_3_" x="358" y="276" width="85.715" height="50"/>
			</defs>
			<clipPath id="SVGID_4_">
				<use xlink:href="#SVGID_3_"  overflow="visible"/>
			</clipPath>
			<path clip-path="url(#SVGID_4_)" fill="#DFAE29" d="M435.309,287.345c0,1.949-1.584,3.528-3.533,3.528
				c-1.951,0-3.531-1.579-3.531-3.528c0-1.952,1.58-3.531,3.531-3.531C433.725,283.813,435.309,285.393,435.309,287.345
				L435.309,287.345z"/>
			<g clip-path="url(#SVGID_4_)">
				<path fill="#4081C3" d="M431.775,291.05c-2.041,0-3.705-1.662-3.705-3.705c0-2.046,1.664-3.707,3.705-3.707
					c2.043,0,3.707,1.661,3.707,3.707C435.482,289.388,433.818,291.05,431.775,291.05L431.775,291.05z M431.775,283.986
					c-1.85,0-3.354,1.506-3.354,3.358c0,1.85,1.504,3.355,3.354,3.355s3.355-1.506,3.355-3.355
					C435.131,285.492,433.625,283.986,431.775,283.986L431.775,283.986z"/>
			</g>
		</g>
	</g>
</g>
</svg>
