<?xml version="1.0" encoding="utf-8"?>
<!-- Generator: Adobe Illustrator 16.0.0, SVG Export Plug-In . SVG Version: 6.00 Build 0)  -->
<!DOCTYPE svg PUBLIC "-//W3C//DTD SVG 1.1//EN" "http://www.w3.org/Graphics/SVG/1.1/DTD/svg11.dtd">
<svg version="1.1" id="name" xmlns="http://www.w3.org/2000/svg" xmlns:xlink="http://www.w3.org/1999/xlink" x="0px" y="0px"
	 width="85.714px" height="50px" viewBox="358 276 85.714 50" enable-background="new 358 276 85.714 50" xml:space="preserve">
<g id="sa">
	<g>
		<defs>
			<rect id="SVGID_1_" x="358" y="276" width="85.714" height="50"/>
		</defs>
		<clipPath id="SVGID_2_">
			<use xlink:href="#SVGID_1_"  overflow="visible"/>
		</clipPath>
		<rect x="358" y="276" clip-path="url(#SVGID_2_)" fill="#3F9645" width="85.714" height="50"/>
		<g clip-path="url(#SVGID_2_)">
			<defs>
				<rect id="SVGID_3_" x="358" y="276" width="85.714" height="50"/>
			</defs>
			<clipPath id="SVGID_4_">
				<use xlink:href="#SVGID_3_"  overflow="visible"/>
			</clipPath>
			<path clip-path="url(#SVGID_4_)" fill="#FFFFFF" d="M382.257,290.175c-0.086,1.167-0.191,3.225,0.803,3.435
				c1.2,0.116,0.538-2.031,0.973-2.421c0.082-0.192,0.232-0.192,0.245,0.049v1.823c-0.01,0.592,0.378,0.765,0.683,0.887
				c0.313-0.025,0.524-0.011,0.647,0.293c0.048,1.051,0.099,2.1,0.147,3.15c0,0,0.73,0.211,0.765-1.77
				c0.036-1.165-0.231-2.14-0.075-2.364c0.005-0.224,0.289-0.238,0.484-0.128c0.315,0.222,0.455,0.495,0.943,0.387
				c0.742-0.207,1.188-0.565,1.199-1.137c-0.045-0.539-0.105-1.082-0.338-1.625c0.031-0.097-0.145-0.352-0.111-0.451
				c0.134,0.21,0.336,0.19,0.383,0c-0.127-0.418-0.322-0.815-0.641-0.989c-0.263-0.229-0.648-0.182-0.789,0.302
				c-0.063,0.554,0.202,1.216,0.607,1.753c0.085,0.21,0.207,0.56,0.153,0.875c-0.216,0.122-0.433,0.07-0.611-0.12
				c0,0-0.591-0.442-0.591-0.539c0.156-1.006,0.035-1.119-0.054-1.398c-0.06-0.383-0.243-0.508-0.39-0.77
				c-0.146-0.156-0.349-0.156-0.443,0c-0.261,0.455-0.139,1.424,0.049,1.858c0.137,0.4,0.344,0.653,0.248,0.653
				c-0.083,0.227-0.25,0.173-0.371-0.088c-0.175-0.54-0.209-1.344-0.209-1.705c-0.053-0.451-0.11-1.409-0.407-1.653
				c-0.179-0.244-0.446-0.128-0.541,0.1c-0.018,0.442-0.02,0.892,0.03,1.301c0.203,0.722,0.266,1.355,0.364,2.094
				c0.028,0.989-0.571,0.429-0.544-0.062c0.138-0.634,0.102-1.636-0.021-1.892c-0.097-0.253-0.211-0.315-0.449-0.273
				c-0.187-0.014-0.672,0.515-0.807,1.393c0,0-0.116,0.449-0.165,0.85c-0.066,0.454-0.364,0.772-0.573-0.062
				C382.669,291.319,382.559,289.825,382.257,290.175"/>
			<path clip-path="url(#SVGID_4_)" fill="#FFFFFF" d="M385.52,294.968c-1.06,0.517-2.083,1-3.126,1.503
				c0.038-0.711,1.485-1.989,2.473-2.009C385.509,294.481,385.349,294.712,385.52,294.968"/>
			<path clip-path="url(#SVGID_4_)" fill="#FFFFFF" d="M389.509,288.354c-0.06,0.006-0.123,0.043-0.2,0.06
				c-0.256,0.079-0.496,0.298-0.421,0.73c0.303,1.832,0.499,3.229,0.8,5.062c0.049,0.216-0.132,0.5-0.364,0.472
				c-0.396-0.268-0.492-0.81-1.167-0.784c-0.485,0.006-1.042,0.534-1.113,1.046c-0.081,0.406-0.111,0.846,0,1.198
				c0.341,0.412,0.756,0.372,1.113,0.278c0.297-0.122,0.54-0.417,0.646-0.346h0.003v0.002c0.062,0.114-0.009,1.068-1.396,1.805
				c-0.854,0.383-1.532,0.475-1.896-0.222c-0.227-0.438,0.018-2.091-0.539-1.71c-1.648,4.247,3.857,4.838,4.473,0.173
				c0.04-0.131,0.162-0.262,0.249-0.23c0.038,0.018,0.069,0.068,0.082,0.162c-0.129,4.225-4.258,4.512-4.96,3.185
				c-0.176-0.312-0.227-1.008-0.244-1.426c-0.032-0.253-0.097-0.4-0.169-0.457c-0.167-0.125-0.393,0.201-0.441,0.772
				c-0.07,0.457-0.05,0.585-0.05,1.025c0.219,3.339,5.539,1.9,6.402-0.853c0.428-1.426-0.007-2.503,0.137-2.637c0,0,0.003,0,0.006,0
				c0-0.002,0.004-0.002,0.006-0.005h0.005c0.006-0.003,0.015-0.006,0.015-0.006c0.534,0.571,1.272,0.073,1.435-0.122
				c0.071-0.1,0.244-0.162,0.366-0.034c0.412,0.296,1.134,0.156,1.284-0.366c0.087-0.509,0.159-1.034,0.178-1.58
				c-0.27,0.082-0.482,0.143-0.572,0.236c-0.02,0.022-0.035,0.048-0.04,0.076c-0.022,0.15-0.045,0.301-0.068,0.452
				c-0.002,0.011-0.008,0.025-0.014,0.034c-0.01,0.02-0.03,0.036-0.051,0.048c-0.094,0.051-0.256,0.02-0.268-0.116
				c-0.126-0.58-0.653-0.659-0.972,0.241c-0.216,0.176-0.604,0.207-0.646-0.051c0.053-0.605-0.191-0.685-0.678-0.401
				c-0.156-1.195-0.312-2.338-0.469-3.531c0.202-0.006,0.389,0.146,0.574-0.088c-0.201-0.625-0.625-1.897-0.863-2.018
				c0,0-0.005,0-0.006,0c-0.012-0.014-0.025-0.028-0.034-0.036c-0.006-0.006-0.013-0.009-0.018-0.012
				c-0.004-0.003-0.011-0.009-0.017-0.012c-0.009-0.003-0.021-0.008-0.028-0.011C389.555,288.354,389.531,288.348,389.509,288.354
				 M388.026,294.91c0.107-0.014,0.229,0.026,0.292,0.183c0.049,0.125,0.003,0.253-0.057,0.317v0.003
				c0,0.003-0.001,0.006-0.003,0.006c-0.041,0.057-0.186,0.034-0.29,0.034c-0.125-0.006-0.186-0.028-0.261-0.131
				c-0.036-0.113,0.07-0.225,0.119-0.31c0,0,0.003,0,0.004,0c0.005-0.009,0.013-0.02,0.021-0.028
				C387.89,294.95,387.956,294.919,388.026,294.91"/>
			<path clip-path="url(#SVGID_4_)" fill="#FFFFFF" d="M393.215,288.257c-0.141,0.006-0.269,0.046-0.373,0.103
				c-0.273,0.261-0.339,0.679-0.122,0.94c0.207,0.097,0.417,0.31,0.278,0.423c-0.591,0.631-2.13,1.688-2.208,1.881
				c0,0-0.003,0.003-0.003,0.006c0,0,0,0.003,0,0.006v0.003l0.003,0.005c0.002,0,0.003,0.003,0.003,0.003s0.003,0,0.006,0
				c0,0,0.001,0.003,0.001,0.006c0,0,0.002-0.003,0.005,0h0.001c0.078,0.054,1.041,0.054,1.146,0.006
				c0.003-0.003,0.003-0.006,0.003-0.006h0.004l0,0c0.331-0.125,1.899-1.917,1.899-1.917c-0.079-0.071-0.154-0.12-0.237-0.191
				c-0.086-0.073-0.078-0.147,0-0.224c0.388-0.228,0.266-0.725,0.062-0.952C393.518,288.273,393.358,288.248,393.215,288.257
				 M393.14,288.811c0.097-0.008,0.212,0.08,0.271,0.205c0.061,0.131,0.031,0.258-0.068,0.284c-0.1,0.022-0.228-0.065-0.287-0.199
				c-0.062-0.134-0.031-0.262,0.068-0.284C393.128,288.813,393.134,288.811,393.14,288.811"/>
			<path clip-path="url(#SVGID_4_)" fill="#FFFFFF" d="M382.5,297.974c-0.587,0.938-0.638,2.335-0.313,2.753
				c0.173,0.195,0.455,0.284,0.664,0.222c0.37-0.162,0.531-0.909,0.442-1.183c-0.122-0.192-0.219-0.224-0.342-0.06
				c-0.26,0.526-0.369,0.165-0.391-0.13c-0.04-0.561,0.012-1.071,0.072-1.48C382.697,297.678,382.633,297.806,382.5,297.974"/>
			<path clip-path="url(#SVGID_4_)" fill="#FFFFFF" d="M407.606,296.477c-0.568-1.223-1.355-2.433-1.604-2.896
				c-0.252-0.466-2.14-3.205-2.419-3.518c-0.612-0.728,0.997,0.305-0.203-1.142c-0.458-0.393-0.483-0.418-0.864-0.736
				c-0.191-0.136-0.66-0.383-0.743,0.025c-0.042,0.364-0.017,0.562,0.043,0.864c0.046,0.201,0.341,0.54,0.485,0.735
				c1.915,2.574,3.614,5.174,5.254,8.447C407.813,298.135,407.757,296.681,407.606,296.477"/>
			<path clip-path="url(#SVGID_4_)" fill="#FFFFFF" d="M405.112,300.567c-0.111,0.125,0.275,0.662,0.779,0.659
				c0.843-0.097,1.584-0.568,2.271-1.815c0.183-0.29,0.507-0.912,0.516-1.393c0.063-2.827-0.143-5.022-0.564-7.062
				c-0.028-0.202-0.01-0.435,0.021-0.494c0.056-0.065,0.24,0,0.338-0.162c0.144-0.146-0.38-1.364-0.682-1.833
				c-0.106-0.21-0.142-0.35-0.319,0.025c-0.187,0.305-0.31,0.836-0.296,1.33c0.402,2.781,0.524,5.213,0.789,7.995
				c0.02,0.27-0.018,0.659-0.196,0.817C407.105,299.326,406.152,300.175,405.112,300.567"/>
			<path clip-path="url(#SVGID_4_)" fill="#FFFFFF" d="M416.49,300.55c-0.606,0.35-0.606,0.753-0.116,0.768
				c0.841-0.1,1.837-0.168,2.523-1.205c0.183-0.289,0.4-1.076,0.41-1.557c0.063-2.824-0.035-5.589-0.462-7.628
				c-0.025-0.199-0.113-0.656-0.079-0.719c0.054-0.137,0.326,0.017,0.426-0.146c0.145-0.145-0.71-1.244-1.01-1.713
				c-0.106-0.21-0.144-0.35-0.32,0.025c-0.185,0.302-0.25,0.847-0.176,1.33c0.446,3.02,0.778,5.94,0.849,8.619
				c-0.039,0.256-0.049,0.393-0.167,0.711c-0.264,0.338-0.557,0.761-0.829,0.966C417.265,300.203,416.678,300.399,416.49,300.55"/>
			<path clip-path="url(#SVGID_4_)" fill="#FFFFFF" d="M416.942,297.843c-0.009-0.705,0.012-1.315-0.015-1.844
				c-0.022-0.523-0.264-2.503-0.344-2.93c-0.082-0.426-0.161-1.065-0.284-1.573c-0.033-0.196-0.136-0.83-0.104-0.893
				c0.051-0.142,0.24,0.006,0.332-0.159c0.14-0.15-0.479-1.759-0.795-2.216c-0.114-0.207-0.321-0.137-0.573,0.199
				c-0.235,0.219-0.148,0.719-0.058,1.198c0.604,3.153,1.054,6.458,0.956,9.461C416.027,299.343,416.948,298.325,416.942,297.843"/>
			<path clip-path="url(#SVGID_4_)" fill="#FFFFFF" d="M412.477,293.934c-0.381-0.009-1.175-0.742-1.408-1.171
				c-0.087-0.247-0.03-0.485,0.047-0.628c0.14-0.088,0.358-0.193,0.519-0.094c0,0,0.166,0.233,0.135,0.265
				c0.207,0.099,0.296,0.042,0.318-0.043c0.015-0.147-0.062-0.235-0.062-0.397c0.085-0.44,0.591-0.509,0.783-0.23
				c0.138,0.174,0.188,0.537,0.211,0.784c-0.006,0.125-0.207-0.022-0.322,0.006c-0.118,0.034-0.145,0.165-0.153,0.287
				C412.521,293.033,412.481,293.544,412.477,293.934"/>
			<path clip-path="url(#SVGID_4_)" fill="#FFFFFF" d="M405.463,298.627c0.105-0.961-0.038-2.918-0.048-3.486
				c-0.039-1.335-0.258-3.921-0.359-4.353c-0.12-0.812,0.332,0.088,0.271-0.386c-0.146-0.811-0.598-1.361-1.126-2.105
				c-0.172-0.242-0.165-0.293-0.429,0.06c-0.293,0.662-0.04,1.116,0.034,1.634c0.382,1.679,0.604,3.225,0.71,4.753
				c0.103,1.528,0.135,3.429,0.04,5.04C404.842,299.795,405.303,299.32,405.463,298.627"/>
			<path clip-path="url(#SVGID_4_)" fill="#FFFFFF" d="M418.235,297.09c-0.671-1.125-1.681-2.443-1.951-2.896
				c-0.271-0.451-2.555-3.804-2.848-4.103c-0.835-0.875,0.385-0.142-0.159-0.82c-0.46-0.503-0.594-0.662-0.988-0.967
				c-0.196-0.125-0.315-0.369-0.38,0.046c-0.027,0.363-0.056,0.787-0.028,1.094c-0.001,0.171,0.175,0.489,0.328,0.679
				c2.025,2.492,4.239,5.537,6.018,8.734C418.479,298.724,418.396,297.289,418.235,297.09"/>
			<path clip-path="url(#SVGID_4_)" fill="#FFFFFF" d="M410.118,310.36l-0.003,0.003c-0.594,0.153-0.574,0.77-0.193,1.04
				c-6.26,0-15.866-0.108-17.924-0.108c-1.153,0-4.799-0.137-4.87-0.137c0.781,1.143,1.915,1.376,3.396,1.398
				c2.781,0,15.664-0.034,19.329-0.034c-0.26,0.463,0.024,1.207,0.229,1.344c0.006,0.003,0.012,0.009,0.015,0.012
				c0.008,0.003,0.019,0.005,0.026,0.008c0.002,0,0.006,0,0.006,0c0.246,0.058,0.353-0.119,0.435-0.247
				c0.394,0.034,2.608,0.068,2.812-0.003l0.004-0.003c0.138,0.202,0.274,0.393,0.533,0.358c0.457-0.097,0.818-0.145,0.829-1.074
				c0,0-0.045-1.579-1.085-1.479c-0.244,0.033-0.932,0.104-0.932,0.104c-0.799-0.094-1.384-0.104-2.279-0.139
				c0.083-0.105,0.228-0.528,0.05-0.685c-0.048-0.037-0.116-0.061-0.213-0.052h-0.004c0,0-0.005,0-0.006,0l-0.003-0.003
				c0,0-0.009,0-0.01-0.003c-0.004-0.003-0.01-0.011-0.016-0.017c0,0-0.004-0.003-0.006-0.006c-0.045-0.065-0.071-0.228-0.1-0.27
				c-0.001,0-0.003,0-0.003,0l-0.003-0.006l-0.008-0.003h-0.002H410.118 M410.543,312.619c0,0,0.001,0.003,0.004,0
				c0.913,0.045,1.771,0.012,2.685,0.054c0.146,0.125,0.071,0.406-0.022,0.458c-0.003,0.002-0.011,0.005-0.016,0.005h-0.013
				c-0.003,0-0.01,0-0.01,0c-0.3-0.008-0.471-0.014-0.769-0.022c0-0.014-0.003-0.028-0.006-0.043c-0.071-0.21-0.579-0.195-0.7-0.031
				c0,0.003-0.004,0.006-0.007,0.009c-0.002,0.003-0.003,0.012-0.006,0.012c-0.002,0.006-0.003,0.014-0.006,0.017
				c-0.003,0.006-0.003,0.018-0.003,0.023c-0.001,0.008-0.003,0.017-0.003,0.022c-0.4,0.048-0.761-0.012-1.163-0.028
				C410.391,312.948,410.405,312.685,410.543,312.619"/>
			<path clip-path="url(#SVGID_4_)" fill="#FFFFFF" d="M394.277,289.211c-0.609,1.745,0.352,3.654,1.016,3.47
				c0.48,0.196,0.786-0.716,0.983-1.719c0.134-0.278,0.235-0.31,0.304-0.165c-0.017,1.332,0.097,1.625,0.438,2.028
				c0.765,0.588,1.396,0.077,1.443,0.028c0.052-0.051,0.597-0.597,0.597-0.597c0.131-0.139,0.307-0.147,0.494-0.025
				c0.183,0.165,0.156,0.452,0.543,0.647c0.33,0.134,1.027,0.031,1.19-0.25c0.218-0.375,0.27-0.5,0.369-0.645
				c0.158-0.207,0.422-0.113,0.422-0.049c-0.024,0.117-0.181,0.23-0.075,0.44c0.185,0.14,0.23,0.049,0.338,0.018
				c0.387-0.185,0.68-1.025,0.68-1.025c0.016-0.315-0.159-0.29-0.274-0.225c-0.146,0.091-0.158,0.119-0.306,0.213
				c-0.19,0.025-0.556,0.15-0.738-0.131c-0.185-0.338-0.188-0.81-0.328-1.147c0-0.025-0.249-0.537-0.019-0.571
				c0.115,0.021,0.362,0.088,0.4-0.119c0.122-0.205-0.259-0.778-0.52-1.065c-0.225-0.25-0.539-0.278-0.841-0.025
				c-0.211,0.195-0.181,0.412-0.224,0.619c-0.054,0.238-0.041,0.528,0.2,0.841c0.211,0.418,0.594,0.955,0.469,1.708
				c0,0-0.226,0.357-0.619,0.312c-0.162-0.037-0.428-0.105-0.568-1.154c-0.107-0.792,0.022-1.9-0.312-2.42
				c-0.121-0.312-0.21-0.617-0.506-0.08c-0.079,0.211-0.42,0.531-0.173,1.19c0.201,0.415,0.284,1.094,0.193,1.85
				c-0.14,0.213-0.174,0.287-0.355,0.503c-0.259,0.275-0.54,0.205-0.753,0.103c-0.201-0.137-0.357-0.205-0.451-0.634
				c0.017-0.688,0.055-1.807-0.07-2.046c-0.183-0.369-0.49-0.235-0.618-0.125c-0.625,0.571-0.935,1.534-1.122,2.302
				c-0.173,0.56-0.357,0.4-0.488,0.176C394.68,291.146,394.66,288.834,394.277,289.211"/>
			<path clip-path="url(#SVGID_4_)" fill="#FFFFFF" d="M396.335,292.816c-0.005,0.003-0.011,0.006-0.016,0.009
				c-0.003,0-0.008,0.006-0.008,0.006c-0.041,0.028-0.092,0.097-0.197,0.173c-0.179,0.205-0.209,0.347-0.199,0.753
				c0.011,0.043,0.339,0.961,0.618,1.603c0.188,0.671,0.365,1.438,0.236,2.162c-0.442,0.955-1.328,1.812-2.183,2.281
				c-0.436,0.137-0.811,0.091-0.91-0.006l-0.003-0.002c-0.251-0.168-0.259-0.469-0.244-0.518v-0.006h0.006
				c0.719-0.506,1.547-0.912,2.19-2.267c0.19-0.518,0.25-0.83,0.06-1.634c-0.074-0.296-0.168-0.543-0.372-0.753
				c0,0,0.006-0.003,0.006-0.006c0.122-0.057,0.439,0.179,0.489,0.028c-0.076-0.381-0.333-0.895-0.628-1.159
				c-0.255-0.232-0.535-0.259-0.771-0.045c-0.265,0.147-0.321,0.676-0.195,1.142c0.141,0.347,0.524,0.406,0.797,1.111v0.002
				c0.006,0.043,0.093,0.526-0.044,0.723c-0.11,0.346-1.544,1.474-1.644,1.542c-0.003,0-0.007,0.003-0.007,0.006
				c0,0-0.001,0.003-0.004,0.006h-0.002l-0.004,0.006h-0.003h-0.003c0-0.003-0.003-0.006-0.003-0.006h-0.001
				c0-0.003-0.002-0.009-0.002-0.009c-0.006-0.028,0.003-0.103,0-0.219c-0.012-0.21,0.077-0.688,0.068-0.77v-0.006h-0.003v-0.006
				h-0.003c-0.475,0.307-0.628,1.241-0.716,1.52c-1.196,0.827-2.556,1.446-3.338,2.282c-0.409,0.639,2.81-0.73,3.185-0.896
				c0.003,0,0.007,0.006,0.009,0.009c0.07,0.079,0.076,0.35,0.289,0.597c0.336,0.451,1.046,0.732,1.736,0.56
				c1.16-0.421,1.831-1.21,2.512-2.088c0.097-0.143,0.25-0.25,0.389-0.143c0.469,1.049,1.815,1.79,3.561,1.867
				c0.403-0.489,0.21-0.73,0.048-0.833c-0.051-0.034-0.866-0.352-0.993-0.668c-0.081-0.295,0.111-0.557,0.502-0.752
				c1.119-0.137,2.219-0.29,3.284-0.631c0.01-0.358,0.222-0.893,0.362-1.125c0.098-0.162,0.163-0.18,0.186-0.202
				c0,0,0.003,0,0.003-0.003l0.003-0.003c0.002-0.003,0.003-0.003,0.003-0.003v-0.005c0-0.009,0-0.018-0.003-0.028l-0.182-0.108
				l-3.571-0.017c-0.045-0.015-0.079-0.035-0.1-0.049c0-0.003-0.004-0.006-0.004-0.006c-0.002-0.003-0.004-0.006-0.004-0.006h-0.003
				c0-0.002-0.003-0.008-0.003-0.008l-0.005-0.003v-0.003l-0.004-0.003v-0.006l0,0V296.2l0,0v-0.005v-0.004v-0.002v-0.003
				l0.004-0.003c0-0.003,0.002-0.006,0.002-0.006c0.02-0.025,0.062-0.049,0.116-0.068c0.853-0.116,2.368-0.363,2.469-1.821
				c-0.017-0.758-0.326-1.255-1.259-1.395c-0.685,0.054-1.17,0.719-1.092,1.446c-0.033,0.195,0.066,0.579-0.135,0.625
				c-1.313,0.119-2.745,0.94-2.793,1.531h-0.006l0,0c0,0-0.007,0.003-0.007,0.006h-0.008c-0.002,0-0.007,0.003-0.007,0.003
				s-0.004,0-0.006,0h-0.007h-0.003h-0.006l-0.013-0.003c-0.084-0.025-0.193-0.165-0.178-0.364c-0.048-1.017-0.38-2.167-0.898-3.054
				c-0.187-0.185-0.266-0.259-0.318-0.268h-0.006h-0.01c0,0-0.003,0-0.005,0h-0.001H396.335 M401.557,294.121
				c0.078-0.009,0.181,0.017,0.278,0.073c0.144,0.083,0.228,0.205,0.217,0.296c0,0.003,0,0.009,0,0.012c0,0-0.002,0.008-0.004,0.008
				c0,0.003-0.001,0.006-0.001,0.009c-0.003,0.003-0.006,0.006-0.006,0.006c0,0.003,0,0.006,0,0.009
				c-0.007,0.005-0.015,0.014-0.021,0.022c-0.068,0.062-0.226,0.054-0.374-0.031c-0.142-0.085-0.229-0.208-0.221-0.299
				c0.001,0,0.002-0.005,0.002-0.008c0.003-0.012,0.008-0.023,0.014-0.031c0.001-0.003,0.004-0.009,0.007-0.015h0.003
				c0.004-0.009,0.01-0.014,0.017-0.017C401.488,294.138,401.521,294.124,401.557,294.121 M398.233,297.138
				c0.012-0.003,0.023,0,0.034,0h0.006c0.399,0.108,0.986,0.117,1.494,0.168c0.415,0.028,0.623,0.353,0.233,0.488
				c-0.382,0.131-0.75,0.233-0.753,0.787c0.051,0.276,0.04,0.421-0.003,0.486c-0.003,0.005-0.009,0.011-0.013,0.017
				c0,0-0.001,0-0.001,0.003l-0.006,0.003c0,0.003-0.002,0.003-0.002,0.003l-0.004,0.003c-0.002,0.003-0.006,0.003-0.006,0.003
				c-0.006,0.005-0.014,0.009-0.02,0.011c-0.005,0.003-0.012,0.003-0.012,0.003c-0.097,0.015-0.23-0.076-0.329-0.125
				c-0.234-0.173-0.898-0.579-0.995-1.463C397.846,297.325,397.995,297.152,398.233,297.138"/>
			<path clip-path="url(#SVGID_4_)" fill="#FFFFFF" d="M386.759,289.231c0.412,0.196,1.185,0.113,1.153-0.552
				c0-0.057-0.017-0.258-0.022-0.31c-0.082-0.195-0.312-0.147-0.364,0.055c-0.017,0.067,0.029,0.173-0.031,0.207
				c-0.033,0.034-0.166,0.015-0.16-0.168c0-0.06-0.041-0.122-0.068-0.159c-0.026-0.017-0.042-0.022-0.091-0.022
				c-0.056,0.003-0.056,0.018-0.087,0.065c-0.014,0.049-0.031,0.097-0.031,0.153c-0.008,0.065-0.032,0.088-0.081,0.1
				c-0.052,0-0.041,0.006-0.083-0.022c-0.027-0.028-0.06-0.04-0.06-0.088c0-0.049-0.009-0.131-0.026-0.165
				c-0.022-0.028-0.058-0.043-0.101-0.054c-0.225,0-0.239,0.258-0.228,0.354C386.463,288.644,386.452,289.106,386.759,289.231"/>
			<path clip-path="url(#SVGID_4_)" fill="#FFFFFF" d="M398.816,294.337c0.412,0.193,1.39,0.082,1.153-0.552
				c0-0.06-0.017-0.258-0.022-0.312c-0.083-0.192-0.312-0.147-0.364,0.058c-0.017,0.065,0.028,0.17-0.031,0.207
				c-0.034,0.034-0.167,0.012-0.16-0.171c0-0.06-0.043-0.119-0.069-0.158c-0.026-0.018-0.042-0.023-0.09-0.023
				c-0.057,0.003-0.057,0.021-0.087,0.068c-0.014,0.049-0.031,0.097-0.031,0.15c-0.008,0.065-0.034,0.091-0.082,0.097
				c-0.051,0-0.04,0.009-0.084-0.02c-0.027-0.028-0.059-0.04-0.059-0.088c0-0.049-0.01-0.131-0.025-0.162
				c-0.022-0.031-0.06-0.046-0.101-0.054c-0.226,0-0.24,0.255-0.229,0.352C398.521,293.749,398.51,294.206,398.816,294.337"/>
			<path clip-path="url(#SVGID_4_)" fill="#FFFFFF" d="M405.848,292.223c0.409,0.196,1.184,0.114,1.151-0.551
				c0-0.06-0.015-0.256-0.021-0.31c-0.085-0.196-0.313-0.147-0.363,0.054c-0.018,0.065,0.028,0.174-0.033,0.207
				c-0.034,0.034-0.166,0.015-0.159-0.17c0-0.057-0.044-0.119-0.069-0.156c-0.025-0.018-0.042-0.022-0.09-0.022
				c-0.058,0.003-0.055,0.017-0.089,0.065c-0.012,0.051-0.031,0.099-0.031,0.153c-0.006,0.065-0.031,0.088-0.08,0.097
				c-0.054,0-0.041,0.008-0.083-0.021c-0.026-0.028-0.059-0.04-0.059-0.088c0-0.051-0.012-0.131-0.025-0.165
				c-0.025-0.028-0.062-0.042-0.102-0.054c-0.226,0.003-0.241,0.259-0.227,0.355C405.55,291.638,405.541,292.095,405.848,292.223"/>
			<path clip-path="url(#SVGID_4_)" fill="#FFFFFF" d="M409.487,297.527c-0.716,0.807-0.4,2.145-0.235,2.435
				c0.234,0.469,0.426,0.772,0.885,1.006c0.419,0.312,0.744,0.119,0.925-0.1c0.42-0.438,0.428-1.551,0.625-1.772
				c0.139-0.403,0.488-0.336,0.657-0.156c0.165,0.235,0.358,0.389,0.6,0.517c0.394,0.347,0.862,0.409,1.325,0.094
				c0.315-0.176,0.523-0.406,0.705-0.857c0.207-0.555,0.094-3.546,0.051-5.052c-0.017-0.119-0.409-2.071-0.409-2.091
				c0-0.022-0.05-0.997-0.094-1.23c-0.009-0.094-0.031-0.122,0.068-0.11c0.105,0.091,0.119,0.097,0.184,0.125
				c0.106,0.02,0.2-0.162,0.138-0.327c-0.327-0.605-0.655-1.207-0.98-1.81c-0.079-0.08-0.182-0.162-0.307,0.022
				c-0.119,0.105-0.246,0.293-0.244,0.537c0.031,0.429,0.104,0.866,0.136,1.296c0.131,0.729,0.262,1.466,0.393,2.198
				c0.122,1.571,0.154,3.006,0.278,4.577c-0.02,0.662-0.225,1.546-0.421,1.628c0,0-0.292,0.174-0.489-0.017
				c-0.146-0.057-0.721-0.958-0.721-0.958c-0.294-0.272-0.488-0.192-0.699,0c-0.576,0.558-0.836,1.6-1.229,2.321
				c-0.103,0.159-0.388,0.296-0.705-0.014C409.118,298.692,409.59,297.124,409.487,297.527"/>
			<path clip-path="url(#SVGID_4_)" fill="#FFFFFF" d="M406.032,288.373c0.37,0.153,0.628,0.898,0.543,1.265
				c-0.074,0.449-0.27,0.938-0.409,0.875c-0.153-0.06,0.104-0.449-0.043-0.86c-0.08-0.268-0.583-0.756-0.531-0.898
				C405.487,288.45,405.806,288.319,406.032,288.373"/>
			<path clip-path="url(#SVGID_4_)" fill="#FFFFFF" d="M410.675,297.971c0.077-0.896-0.054-1.443-0.076-1.972
				c-0.023-0.523-0.594-4.796-0.712-5.196c-0.141-0.753,0.558-0.1,0.481-0.537c-0.241-0.555-0.841-1.361-1.031-1.838
				c-0.112-0.205-0.064-0.39-0.319-0.055c-0.233,0.768-0.317,1.396-0.227,1.875c0.605,3.154,1.225,6.029,1.125,9.029
				C410.203,299.277,410.536,298.621,410.675,297.971"/>
			<path clip-path="url(#SVGID_4_)" fill="#FFFFFF" d="M416.971,289.441c0.335,0.168,0.534,1.1,0.497,1.369
				c-0.068,0.489-0.246,1.015-0.375,0.946c-0.139-0.062,0.028-0.725-0.037-0.929c-0.075-0.29-0.534-0.818-0.485-0.978
				C416.477,289.527,416.767,289.382,416.971,289.441"/>
			<path clip-path="url(#SVGID_4_)" fill="#FFFFFF" d="M392.003,296.277c0.321,0.122,0.512,0.807,0.475,1.006
				c-0.063,0.357-0.235,0.744-0.354,0.695c-0.137-0.048,0.025-0.533-0.04-0.685c-0.025-0.366-0.472-0.557-0.462-0.716
				C391.537,296.285,391.806,296.234,392.003,296.277"/>
			<path clip-path="url(#SVGID_4_)" fill="#FFFFFF" d="M383.416,288.148c0.473,0.143,0.501,0.839,0.467,1.046
				c-0.064,0.369-0.231,0.772-0.353,0.719c-0.131-0.046-0.006-0.551-0.068-0.707c-0.07-0.222-0.471-0.625-0.424-0.742
				C382.946,288.214,383.221,288.106,383.416,288.148"/>
			<path clip-path="url(#SVGID_4_)" fill="#FFFFFF" d="M392.779,291.436c-0.365,0.196-0.506,0.781-0.278,1.125
				c0.21,0.299,0.545,0.188,0.589,0.188c0.356,0.046,0.567-0.667,0.567-0.667s0.013-0.202-0.412,0.179
				c-0.177,0.034-0.199-0.034-0.244-0.134c-0.037-0.185-0.029-0.372,0.055-0.557C393.12,291.391,392.98,291.313,392.779,291.436"/>
			<path clip-path="url(#SVGID_4_)" fill="#FFFFFF" d="M395.507,287.879c-0.183,0.122-0.547,0.5-0.558,0.935
				c-0.011,0.244-0.058,0.244,0.103,0.4c0.116,0.168,0.233,0.153,0.468,0.028c0.135-0.096,0.179-0.164,0.226-0.329
				c0.057-0.278-0.294,0.131-0.338-0.179c-0.08-0.287,0.146-0.403,0.357-0.685C395.771,287.862,395.768,287.726,395.507,287.879"/>
			<path clip-path="url(#SVGID_4_)" fill="#FFFFFF" d="M397.705,288.271c-0.079,0.173-0.173,1.082-0.157,1.082
				c-0.064,0.27,0.284,0.387,0.441,0.04c0.234-0.64,0.234-0.909,0.25-1.183C398.169,287.8,397.888,287.813,397.705,288.271"/>
			<path clip-path="url(#SVGID_4_)" fill="#FFFFFF" d="M411.564,295.322c0.048-0.048,1.953-1.4,1.953-1.4
				c0.193-0.068,0.15,0.699,0.062,0.69c0.035,0.153-1.88,1.458-2.016,1.403C411.471,296.084,411.374,295.49,411.564,295.322"/>
			<path clip-path="url(#SVGID_4_)" fill="#FFFFFF" d="M413.303,295.312c0.335,0.167,0.469,1.15,0.432,1.417
				c0.012,0.521-0.323,0.936-0.453,0.867c-0.138-0.06,0.015-0.643-0.054-0.85c-0.075-0.29-0.359-0.836-0.311-0.992
				C412.82,295.428,413.097,295.254,413.303,295.312"/>
			<path clip-path="url(#SVGID_4_)" fill="#FFFFFF" d="M401.967,299.545c0.131-0.196,0.543-0.475,0.55-0.475
				c0.189-0.094,0.374,0.076,0.362,0.062c0.031,0.189-0.119,0.366-0.071,0.619c0.042,0.1,0.071,0.213,0.259,0.17
				c0.302-0.238,0.581-0.252,0.885-0.27c0.231,0.015,0.24,0.406,0.093,0.412c-0.557,0.119-0.809,0.27-1.208,0.42
				c-0.188,0.111-0.349-0.028-0.349-0.042c0-0.018-0.111-0.108-0.034-0.358c0.014-0.201-0.067-0.31-0.233-0.289
				c-0.128,0.07-0.238,0.113-0.301-0.031C401.894,299.658,401.885,299.604,401.967,299.545"/>
			<path clip-path="url(#SVGID_4_)" fill="#FFFFFF" d="M415.306,300.073c0.083,0.102,0.137,0.198-0.006,0.372
				c-0.133,0.122-0.227,0.188-0.362,0.31c-0.062,0.11-0.102,0.272,0.091,0.323c0.357,0.1,1.18-0.435,1.18-0.445
				c0.135-0.1,0.091-0.29,0.078-0.29c-0.078-0.088-0.253-0.037-0.372-0.051c-0.057,0-0.239-0.028-0.15-0.19
				c0.072-0.1,0.099-0.162,0.148-0.287c0.055-0.122,0.008-0.205-0.192-0.272c-0.206-0.037-0.286-0.018-0.514,0
				c-0.122,0.025-0.163,0.082-0.186,0.229C415.028,299.996,415.165,299.982,415.306,300.073"/>
		</g>
	</g>
</g>
</svg>
