<?xml version="1.0" encoding="utf-8"?>
<!-- Generator: Adobe Illustrator 16.0.0, SVG Export Plug-In . SVG Version: 6.00 Build 0)  -->
<!DOCTYPE svg PUBLIC "-//W3C//DTD SVG 1.1//EN" "http://www.w3.org/Graphics/SVG/1.1/DTD/svg11.dtd">
<svg version="1.1" id="name" xmlns="http://www.w3.org/2000/svg" xmlns:xlink="http://www.w3.org/1999/xlink" x="0px" y="0px"
	 width="85.715px" height="50px" viewBox="358 276 85.715 50" enable-background="new 358 276 85.715 50" xml:space="preserve">
<g id="sb">
	<g>
		<defs>
			<rect id="SVGID_1_" x="358" y="276" width="85.715" height="50"/>
		</defs>
		<clipPath id="SVGID_2_">
			<use xlink:href="#SVGID_1_"  overflow="visible"/>
		</clipPath>
		<polygon clip-path="url(#SVGID_2_)" fill="#345E38" points="443.715,276 443.715,276 443.715,276 		"/>
		<polygon clip-path="url(#SVGID_2_)" fill="#345E38" points="362.313,326 443.715,326 443.715,278.515 		"/>
		<polygon clip-path="url(#SVGID_2_)" fill="#3A53A4" points="358,276 358,323.483 439.402,276 		"/>
		<polygon clip-path="url(#SVGID_2_)" fill="#3A53A4" points="443.715,276 443.715,276 443.715,276 		"/>
		<polygon clip-path="url(#SVGID_2_)" fill="#F4D130" points="358,326 358,326 362.313,326 443.715,278.515 443.715,276 
			443.715,276 		"/>
		<polygon clip-path="url(#SVGID_2_)" fill="#F4D130" points="439.402,276 358,323.483 358,326 443.715,276 443.715,276 		"/>
		<polygon clip-path="url(#SVGID_2_)" fill="#FFFFFF" points="373,287.135 371.675,291.212 373.714,291.873 		"/>
		<polygon clip-path="url(#SVGID_2_)" fill="#FFFFFF" points="373,287.135 374.323,291.212 372.287,291.873 		"/>
		<polygon clip-path="url(#SVGID_2_)" fill="#FFFFFF" points="377.075,290.095 372.79,290.095 372.79,292.24 		"/>
		<polygon clip-path="url(#SVGID_2_)" fill="#FFFFFF" points="377.075,290.095 373.609,292.615 372.35,290.882 		"/>
		<polygon clip-path="url(#SVGID_2_)" fill="#FFFFFF" points="368.924,290.095 372.392,292.615 373.651,290.882 		"/>
		<polygon clip-path="url(#SVGID_2_)" fill="#FFFFFF" points="368.924,290.095 373.209,290.095 373.209,292.24 		"/>
		<polygon clip-path="url(#SVGID_2_)" fill="#FFFFFF" points="375.519,294.888 374.195,290.813 372.156,291.476 		"/>
		<polygon clip-path="url(#SVGID_2_)" fill="#FFFFFF" points="375.519,294.888 372.051,292.368 373.311,290.635 		"/>
		<polygon clip-path="url(#SVGID_2_)" fill="#FFFFFF" points="370.481,294.888 373.947,292.368 372.69,290.635 		"/>
		<polygon clip-path="url(#SVGID_2_)" fill="#FFFFFF" points="370.481,294.888 371.806,290.813 373.842,291.476 		"/>
		<polygon clip-path="url(#SVGID_2_)" fill="#FFFFFF" points="380.878,295.016 379.554,299.09 381.593,299.752 		"/>
		<polygon clip-path="url(#SVGID_2_)" fill="#FFFFFF" points="380.878,295.016 382.203,299.09 380.166,299.752 		"/>
		<polygon clip-path="url(#SVGID_2_)" fill="#FFFFFF" points="384.957,297.977 380.668,297.977 380.668,300.118 		"/>
		<polygon clip-path="url(#SVGID_2_)" fill="#FFFFFF" points="384.957,297.977 381.489,300.496 380.228,298.76 		"/>
		<polygon clip-path="url(#SVGID_2_)" fill="#FFFFFF" points="376.803,297.977 380.27,300.496 381.531,298.76 		"/>
		<polygon clip-path="url(#SVGID_2_)" fill="#FFFFFF" points="376.803,297.977 381.088,297.977 381.088,300.118 		"/>
		<polygon clip-path="url(#SVGID_2_)" fill="#FFFFFF" points="383.398,302.766 382.074,298.692 380.036,299.354 		"/>
		<polygon clip-path="url(#SVGID_2_)" fill="#FFFFFF" points="383.398,302.766 379.93,300.246 381.19,298.513 		"/>
		<polygon clip-path="url(#SVGID_2_)" fill="#FFFFFF" points="378.361,302.766 381.827,300.246 380.567,298.513 		"/>
		<polygon clip-path="url(#SVGID_2_)" fill="#FFFFFF" points="378.361,302.766 379.685,298.692 381.721,299.354 		"/>
		<polygon clip-path="url(#SVGID_2_)" fill="#FFFFFF" points="365.121,295.016 363.796,299.09 365.835,299.752 		"/>
		<polygon clip-path="url(#SVGID_2_)" fill="#FFFFFF" points="365.121,295.016 366.444,299.09 364.408,299.752 		"/>
		<polygon clip-path="url(#SVGID_2_)" fill="#FFFFFF" points="369.196,297.977 364.911,297.977 364.911,300.118 		"/>
		<polygon clip-path="url(#SVGID_2_)" fill="#FFFFFF" points="369.196,297.977 365.73,300.496 364.471,298.76 		"/>
		<polygon clip-path="url(#SVGID_2_)" fill="#FFFFFF" points="361.045,297.977 364.512,300.496 365.772,298.76 		"/>
		<polygon clip-path="url(#SVGID_2_)" fill="#FFFFFF" points="361.045,297.977 365.33,297.977 365.33,300.118 		"/>
		<polygon clip-path="url(#SVGID_2_)" fill="#FFFFFF" points="367.64,302.766 366.316,298.692 364.277,299.354 		"/>
		<polygon clip-path="url(#SVGID_2_)" fill="#FFFFFF" points="367.64,302.766 364.172,300.246 365.432,298.513 		"/>
		<polygon clip-path="url(#SVGID_2_)" fill="#FFFFFF" points="362.603,302.766 366.068,300.246 364.809,298.513 		"/>
		<polygon clip-path="url(#SVGID_2_)" fill="#FFFFFF" points="362.603,302.766 363.927,298.692 365.963,299.354 		"/>
		<polygon clip-path="url(#SVGID_2_)" fill="#FFFFFF" points="365.121,279.256 363.796,283.333 365.835,283.995 		"/>
		<polygon clip-path="url(#SVGID_2_)" fill="#FFFFFF" points="365.121,279.256 366.444,283.333 364.408,283.995 		"/>
		<polygon clip-path="url(#SVGID_2_)" fill="#FFFFFF" points="369.196,282.217 364.911,282.217 364.911,284.361 		"/>
		<polygon clip-path="url(#SVGID_2_)" fill="#FFFFFF" points="369.196,282.217 365.73,284.736 364.471,283.001 		"/>
		<polygon clip-path="url(#SVGID_2_)" fill="#FFFFFF" points="361.045,282.217 364.512,284.736 365.772,283.001 		"/>
		<polygon clip-path="url(#SVGID_2_)" fill="#FFFFFF" points="361.045,282.217 365.33,282.217 365.33,284.361 		"/>
		<polygon clip-path="url(#SVGID_2_)" fill="#FFFFFF" points="367.64,287.01 366.316,282.933 364.277,283.595 		"/>
		<polygon clip-path="url(#SVGID_2_)" fill="#FFFFFF" points="367.64,287.01 364.172,284.489 365.432,282.757 		"/>
		<polygon clip-path="url(#SVGID_2_)" fill="#FFFFFF" points="362.603,287.01 366.068,284.489 364.809,282.757 		"/>
		<polygon clip-path="url(#SVGID_2_)" fill="#FFFFFF" points="362.603,287.01 363.927,282.933 365.963,283.595 		"/>
		<polygon clip-path="url(#SVGID_2_)" fill="#FFFFFF" points="380.878,279.256 379.554,283.333 381.593,283.995 		"/>
		<polygon clip-path="url(#SVGID_2_)" fill="#FFFFFF" points="380.878,279.256 382.203,283.333 380.166,283.995 		"/>
		<polygon clip-path="url(#SVGID_2_)" fill="#FFFFFF" points="384.957,282.217 380.668,282.217 380.668,284.361 		"/>
		<polygon clip-path="url(#SVGID_2_)" fill="#FFFFFF" points="384.957,282.217 381.489,284.736 380.228,283.001 		"/>
		<polygon clip-path="url(#SVGID_2_)" fill="#FFFFFF" points="376.803,282.217 380.27,284.736 381.531,283.001 		"/>
		<polygon clip-path="url(#SVGID_2_)" fill="#FFFFFF" points="376.803,282.217 381.088,282.217 381.088,284.361 		"/>
		<polygon clip-path="url(#SVGID_2_)" fill="#FFFFFF" points="383.398,287.01 382.074,282.933 380.036,283.595 		"/>
		<polygon clip-path="url(#SVGID_2_)" fill="#FFFFFF" points="383.398,287.01 379.93,284.489 381.19,282.757 		"/>
		<polygon clip-path="url(#SVGID_2_)" fill="#FFFFFF" points="378.361,287.01 381.827,284.489 380.567,282.757 		"/>
		<polygon clip-path="url(#SVGID_2_)" fill="#FFFFFF" points="378.361,287.01 379.685,282.933 381.721,283.595 		"/>
	</g>
</g>
</svg>
