<?xml version="1.0" encoding="utf-8"?>
<!-- Generator: Adobe Illustrator 16.0.0, SVG Export Plug-In . SVG Version: 6.00 Build 0)  -->
<!DOCTYPE svg PUBLIC "-//W3C//DTD SVG 1.1//EN" "http://www.w3.org/Graphics/SVG/1.1/DTD/svg11.dtd">
<svg version="1.1" id="name" xmlns="http://www.w3.org/2000/svg" xmlns:xlink="http://www.w3.org/1999/xlink" x="0px" y="0px"
	 width="85.712px" height="50px" viewBox="358 276 85.712 50" enable-background="new 358 276 85.712 50" xml:space="preserve">
<g id="se-lad">
	<g>
		<defs>
			<rect id="SVGID_1_" x="358" y="276" width="85.712" height="50"/>
		</defs>
		<clipPath id="SVGID_2_">
			<use xlink:href="#SVGID_1_"  overflow="visible"/>
		</clipPath>
		<rect x="358" y="276" clip-path="url(#SVGID_2_)" fill="#3D9243" width="85.712" height="50"/>
		<polygon clip-path="url(#SVGID_2_)" fill="#3D9243" points="378.409,276 358,294.879 378.409,294.879 		"/>
		<polygon clip-path="url(#SVGID_2_)" fill="#FFFFFF" points="378.204,276 378.204,294.674 358,294.674 358,295.084 
			378.614,295.084 378.614,276 		"/>
		<polygon clip-path="url(#SVGID_2_)" fill="#3D9243" points="358,307.124 378.409,326 378.409,307.124 		"/>
		<polygon clip-path="url(#SVGID_2_)" fill="#FFFFFF" points="358,306.919 358,307.325 378.204,307.325 378.204,326 378.614,326 
			378.614,306.919 		"/>
		<polygon clip-path="url(#SVGID_2_)" fill="#3D9243" points="390.653,307.124 390.653,326 443.713,307.124 		"/>
		<polygon clip-path="url(#SVGID_2_)" fill="#FFFFFF" points="390.45,306.919 390.45,326 390.858,326 390.858,307.325 
			443.713,307.325 443.713,306.919 		"/>
		<polyline clip-path="url(#SVGID_2_)" fill="#3D9243" points="390.653,276 390.653,294.879 443.713,294.879 		"/>
		<polygon clip-path="url(#SVGID_2_)" fill="#FFFFFF" points="443.713,295.084 390.45,295.084 390.45,276 390.858,276 
			390.858,294.674 443.713,294.674 		"/>
	</g>
</g>
</svg>
