<?xml version="1.0" encoding="utf-8"?>
<!-- Generator: Adobe Illustrator 16.0.0, SVG Export Plug-In . SVG Version: 6.00 Build 0)  -->
<!DOCTYPE svg PUBLIC "-//W3C//DTD SVG 1.1//EN" "http://www.w3.org/Graphics/SVG/1.1/DTD/svg11.dtd">
<svg version="1.1" id="name" xmlns="http://www.w3.org/2000/svg" xmlns:xlink="http://www.w3.org/1999/xlink" x="0px" y="0px"
	 width="85.712px" height="50px" viewBox="358 276 85.712 50" enable-background="new 358 276 85.712 50" xml:space="preserve">
<g id="sl">
	<g>
		<defs>
			<rect id="SVGID_1_" x="358" y="276" width="85.712" height="50"/>
		</defs>
		<clipPath id="SVGID_2_">
			<use xlink:href="#SVGID_1_"  overflow="visible"/>
		</clipPath>
		<rect x="358" y="276" clip-path="url(#SVGID_2_)" fill="#FFFFFF" width="85.712" height="50"/>
		<rect x="358" y="309.335" clip-path="url(#SVGID_2_)" fill="#E91E26" width="85.712" height="16.665"/>
		<rect x="358" y="292.666" clip-path="url(#SVGID_2_)" fill="#495FAB" width="85.712" height="16.669"/>
		<g clip-path="url(#SVGID_2_)">
			<defs>
				<rect id="SVGID_3_" x="358" y="276" width="85.712" height="50"/>
			</defs>
			<clipPath id="SVGID_4_">
				<use xlink:href="#SVGID_3_"  overflow="visible"/>
			</clipPath>
			<path clip-path="url(#SVGID_4_)" fill="#E91E26" d="M376.952,285.611c-0.154,0.068-0.307,0.137-0.459,0.214l0.479,7.56
				c0.13,2.06,1.005,4.012,2.475,5.48c1.007,1.006,2.236,1.733,3.572,2.134l0,0c1.336-0.4,2.565-1.128,3.572-2.134
				c1.469-1.469,2.344-3.421,2.475-5.48l0.478-7.56c-0.15-0.077-0.304-0.146-0.459-0.214l0,0l-0.488,7.742
				c-0.121,1.946-0.951,3.79-2.339,5.18c-0.916,0.914-2.029,1.588-3.238,1.975l0,0c-1.21-0.387-2.323-1.061-3.238-1.975
				c-1.389-1.39-2.218-3.233-2.338-5.18L376.952,285.611L376.952,285.611"/>
			<path clip-path="url(#SVGID_4_)" fill="#495FAB" d="M389.083,285.611c-1.891-0.835-3.956-1.278-6.065-1.278
				s-4.174,0.443-6.068,1.278l0.492,7.742c0.12,1.946,0.949,3.79,2.338,5.18c0.915,0.914,2.028,1.588,3.238,1.975l0,0
				c1.209-0.387,2.322-1.061,3.238-1.975c1.388-1.39,2.218-3.233,2.339-5.18"/>
			<polyline clip-path="url(#SVGID_4_)" fill="#F8E625" points="383.384,287.956 383.654,287.586 383.201,287.638 383.018,287.22 
				382.834,287.638 382.382,287.586 382.652,287.956 382.382,288.322 382.834,288.273 383.018,288.688 383.201,288.273 
				383.654,288.322 			"/>
			<polyline clip-path="url(#SVGID_4_)" fill="#F8E625" points="381.671,285.672 381.941,285.305 381.489,285.354 381.305,284.936 
				381.122,285.354 380.669,285.305 380.939,285.672 380.669,286.038 381.122,285.989 381.305,286.404 381.489,285.989 
				381.941,286.038 			"/>
			<polyline clip-path="url(#SVGID_4_)" fill="#F8E625" points="385.096,285.672 385.367,285.305 384.914,285.354 384.731,284.936 
				384.547,285.354 384.094,285.305 384.365,285.672 384.094,286.038 384.547,285.989 384.731,286.404 384.914,285.989 
				385.367,286.038 			"/>
			<path clip-path="url(#SVGID_4_)" fill="#FFFFFF" d="M387.912,294.479l-2.446-3.262l-0.98,1.305l-1.467-2.938l-1.469,2.938
				l-0.979-1.305l-2.447,3.262c0,0.435,0.173,0.847,0.479,1.153c0.305,0.308,0.72,0.48,1.152,0.48c0.288,0,0.569-0.077,0.815-0.222
				c0.002,0-0.002,0.003,0,0c0.123-0.068,0.256-0.122,0.395-0.162c0.417-0.113,0.861-0.051,1.237,0.162
				c0.25,0.145,0.532,0.222,0.815,0.222l0,0c0.284,0,0.565-0.077,0.815-0.222c0.374-0.213,0.82-0.275,1.237-0.162
				c0.139,0.04,0.271,0.094,0.395,0.162c0.002,0.003-0.002,0-0.002,0c0.247,0.145,0.529,0.222,0.816,0.222
				c0.434,0,0.848-0.173,1.154-0.48C387.74,295.325,387.912,294.913,387.912,294.479"/>
			<path clip-path="url(#SVGID_4_)" fill="#FFFFFF" d="M378.703,296.252c0.113,0.221,0.236,0.439,0.371,0.65l0,0
				c0.344,0.159,0.734,0.193,1.104,0.094c0.139-0.034,0.27-0.091,0.393-0.162c0,0-0.002,0.003,0,0
				c0.245-0.143,0.527-0.219,0.814-0.219l0,0c0.284,0,0.566,0.074,0.817,0.219c0.375,0.219,0.819,0.275,1.237,0.162
				c0.14-0.034,0.272-0.091,0.394-0.162c0,0-0.003,0.003,0,0c0.245-0.143,0.526-0.219,0.816-0.219h-0.002
				c0.286,0,0.567,0.074,0.817,0.219c0.374,0.219,0.819,0.275,1.237,0.162c0.091-0.022,0.178-0.054,0.26-0.094
				c0.135-0.211,0.259-0.43,0.369-0.65l0,0c-0.082,0.031-0.159,0.068-0.235,0.11c0,0.003,0.001,0,0.001,0
				c-0.122,0.071-0.255,0.128-0.395,0.165c-0.418,0.11-0.863,0.054-1.237-0.165c-0.25-0.145-0.531-0.219-0.817-0.219h0.002
				c-0.29,0-0.571,0.079-0.816,0.219c0,0.003,0.002,0,0.002,0c-0.123,0.071-0.256,0.128-0.396,0.165
				c-0.418,0.11-0.862,0.054-1.237-0.165c-0.251-0.145-0.533-0.219-0.817-0.219l0,0c-0.287,0-0.569,0.079-0.814,0.219
				c-0.002,0.003,0.002,0,0.002,0c-0.125,0.071-0.256,0.128-0.395,0.165c-0.418,0.11-0.863,0.054-1.237-0.165
				C378.864,296.32,378.786,296.283,378.703,296.252L378.703,296.252"/>
			<path clip-path="url(#SVGID_4_)" fill="#FFFFFF" d="M386.54,297.502c-0.189,0.244-0.396,0.477-0.617,0.698
				c-0.823,0.824-1.82,1.44-2.904,1.813l0,0c-1.085-0.373-2.081-0.989-2.906-1.813c-0.219-0.222-0.427-0.454-0.615-0.698l0,0
				c0.225,0.037,0.456,0.025,0.682-0.034c0.139-0.037,0.27-0.091,0.393-0.162c0.002-0.003-0.002,0,0,0
				c0.245-0.142,0.527-0.219,0.814-0.219l0,0c0.284,0,0.566,0.074,0.817,0.219c0.375,0.216,0.819,0.275,1.237,0.162
				c0.14-0.037,0.272-0.091,0.394-0.162c0.002-0.003-0.003,0,0,0c0.245-0.142,0.526-0.219,0.816-0.219h-0.002
				c0.286,0,0.567,0.074,0.817,0.219C385.792,297.493,386.171,297.562,386.54,297.502L386.54,297.502"/>
		</g>
	</g>
</g>
</svg>
