<?xml version="1.0" encoding="utf-8"?>
<!-- Generator: Adobe Illustrator 16.0.0, SVG Export Plug-In . SVG Version: 6.00 Build 0)  -->
<!DOCTYPE svg PUBLIC "-//W3C//DTD SVG 1.1//EN" "http://www.w3.org/Graphics/SVG/1.1/DTD/svg11.dtd">
<svg version="1.1" id="name" xmlns="http://www.w3.org/2000/svg" xmlns:xlink="http://www.w3.org/1999/xlink" x="0px" y="0px"
	 width="85.714px" height="50px" viewBox="358 276 85.714 50" enable-background="new 358 276 85.714 50" xml:space="preserve">
<g id="sk">
	<g>
		<defs>
			<rect id="SVGID_1_" x="358" y="276" width="85.714" height="50"/>
		</defs>
		<clipPath id="SVGID_2_">
			<use xlink:href="#SVGID_1_"  overflow="visible"/>
		</clipPath>
		<rect x="358" y="276" clip-path="url(#SVGID_2_)" fill="#FFFFFF" width="85.714" height="50"/>
		<rect x="358" y="292.666" clip-path="url(#SVGID_2_)" fill="#303E99" width="85.714" height="33.334"/>
		<rect x="358" y="309.335" clip-path="url(#SVGID_2_)" fill="#BD1F34" width="85.714" height="16.665"/>
		<g clip-path="url(#SVGID_2_)">
			<defs>
				<rect id="SVGID_3_" x="358" y="276" width="85.714" height="50"/>
			</defs>
			<clipPath id="SVGID_4_">
				<use xlink:href="#SVGID_3_"  overflow="visible"/>
			</clipPath>
			<path clip-path="url(#SVGID_4_)" fill="#FFFFFF" d="M370.967,287.754c-1.007,0.077-0.723,1.299-0.848,1.991
				c-0.356,4.779-0.847,9.714,0.614,14.37c1.151,3.756,3.902,6.855,7.239,8.856c0.819,0.457,1.62,1.031,2.528,1.278
				c0.949-0.268,1.789-0.864,2.648-1.353c3.282-1.994,5.979-5.074,7.119-8.782c1.483-4.732,0.953-9.747,0.594-14.605
				c-0.051-0.671,0.048-1.83-0.939-1.756H370.967z"/>
			<path clip-path="url(#SVGID_4_)" fill="#BD1F34" d="M380.5,288.501v24.996c-11.561-5.6-10.296-14.876-9.533-24.996H380.5z
				 M380.5,288.501v24.996c11.561-5.6,10.296-14.876,9.533-24.996H380.5z"/>
			<path clip-path="url(#SVGID_4_)" fill="#FFFFFF" d="M381.851,295.356c1.215,0,2.455,0.222,3.648,0.46
				c-0.353-1.158-0.353-1.869,0-3.028c-1.193,0.239-2.434,0.46-3.648,0.46h-2.701c-1.216,0-2.457-0.221-3.649-0.46
				c0.352,1.159,0.352,1.87,0,3.028c1.192-0.238,2.433-0.46,3.649-0.46H381.851z"/>
			<path clip-path="url(#SVGID_4_)" fill="#FFFFFF" d="M382.898,299.908c1.218,0,2.458,0.222,3.65,0.46
				c-0.354-1.159-0.354-1.866,0-3.025c-1.192,0.235-2.433,0.457-3.65,0.457h-4.8c-1.215,0-2.455-0.222-3.649-0.457
				c0.353,1.159,0.353,1.866,0,3.025c1.194-0.238,2.434-0.46,3.649-0.46H382.898z"/>
			<path clip-path="url(#SVGID_4_)" fill="#FFFFFF" d="M378.979,289.459c0.237,1.188,0.461,2.42,0.461,3.631v15.483h2.119V293.09
				c0-1.211,0.224-2.443,0.461-3.631C380.854,289.811,380.144,289.811,378.979,289.459"/>
			<path clip-path="url(#SVGID_4_)" fill="#303E99" d="M375.7,304.814c-1.371,0-2.479,1.105-2.479,2.469
				c0,0.105,0.017,0.202,0.029,0.305c0.479,0.704,1.036,1.381,1.68,2.037c0.244,0.076,0.499,0.13,0.771,0.13
				c1.371,0,2.483-1.107,2.483-2.472C378.183,305.92,377.071,304.814,375.7,304.814"/>
			<path clip-path="url(#SVGID_4_)" fill="#303E99" d="M380.5,303.357c-1.743,0-3.156,1.412-3.156,3.145
				c0,1.736,1.413,3.143,3.156,3.143c1.741,0,3.153-1.406,3.153-3.143C383.653,304.77,382.241,303.357,380.5,303.357"/>
			<path clip-path="url(#SVGID_4_)" fill="#303E99" d="M385.3,304.814c-1.371,0-2.481,1.105-2.481,2.469
				c0,1.364,1.11,2.472,2.481,2.472c0.27,0,0.525-0.054,0.769-0.13c0.646-0.656,1.207-1.336,1.685-2.043
				c0.015-0.097,0.03-0.196,0.03-0.299C387.783,305.92,386.668,304.814,385.3,304.814"/>
			<path clip-path="url(#SVGID_4_)" fill="#303E99" d="M373.639,308.124c1.516,2.026,3.698,3.842,6.861,5.376
				c3.163-1.534,5.343-3.35,6.858-5.376H373.639z"/>
		</g>
	</g>
</g>
</svg>
