<?xml version="1.0" encoding="utf-8"?>
<!-- Generator: Adobe Illustrator 16.0.0, SVG Export Plug-In . SVG Version: 6.00 Build 0)  -->
<!DOCTYPE svg PUBLIC "-//W3C//DTD SVG 1.1//EN" "http://www.w3.org/Graphics/SVG/1.1/DTD/svg11.dtd">
<svg version="1.1" id="name" xmlns="http://www.w3.org/2000/svg" xmlns:xlink="http://www.w3.org/1999/xlink" x="0px" y="0px"
	 width="85.711px" height="50px" viewBox="358 276 85.711 50" enable-background="new 358 276 85.711 50" xml:space="preserve">
<g id="so-so">
	<g>
		<defs>
			<rect id="SVGID_1_" x="358" y="276" width="85.711" height="50"/>
		</defs>
		<clipPath id="SVGID_2_">
			<use xlink:href="#SVGID_1_"  overflow="visible"/>
		</clipPath>
		<rect x="358" y="309.334" clip-path="url(#SVGID_2_)" fill="#E91E26" width="85.711" height="16.666"/>
		<rect x="358" y="292.666" clip-path="url(#SVGID_2_)" fill="#FFFFFF" width="85.711" height="16.668"/>
		<rect x="358" y="276" clip-path="url(#SVGID_2_)" fill="#469F46" width="85.711" height="16.666"/>
		<g clip-path="url(#SVGID_2_)">
			<defs>
				<rect id="SVGID_3_" x="358" y="276" width="85.711" height="50"/>
			</defs>
			<clipPath id="SVGID_4_">
				<use xlink:href="#SVGID_3_"  overflow="visible"/>
			</clipPath>
			<path clip-path="url(#SVGID_4_)" fill="#FFFFFF" d="M382.601,279.978c-0.085,1.159-0.188,3.199,0.796,3.409
				c1.191,0.111,0.535-2.018,0.966-2.403c0.082-0.19,0.231-0.19,0.244,0.048v1.808c-0.011,0.588,0.375,0.761,0.677,0.88
				c0.311-0.022,0.52-0.011,0.644,0.293c0.048,1.04,0.096,2.083,0.145,3.125c0,0,0.725,0.208,0.76-1.758
				c0.034-1.154-0.231-2.12-0.075-2.345c0.006-0.222,0.287-0.232,0.483-0.128c0.311,0.222,0.45,0.492,0.933,0.384
				c0.736-0.201,1.18-0.56,1.189-1.125c-0.041-0.537-0.103-1.077-0.335-1.613c0.031-0.097-0.143-0.35-0.109-0.449
				c0.13,0.207,0.332,0.193,0.377,0c-0.123-0.412-0.319-0.807-0.633-0.98c-0.262-0.227-0.643-0.179-0.783,0.296
				c-0.063,0.554,0.199,1.207,0.603,1.741c0.084,0.21,0.204,0.557,0.15,0.869c-0.213,0.123-0.426,0.071-0.605-0.119
				c0,0-0.586-0.438-0.586-0.537c0.154-0.994,0.034-1.107-0.053-1.383c-0.06-0.381-0.241-0.503-0.387-0.765
				c-0.146-0.156-0.345-0.156-0.44,0c-0.26,0.449-0.136,1.412,0.049,1.844c0.136,0.397,0.342,0.647,0.245,0.647
				c-0.081,0.225-0.247,0.174-0.367-0.088c-0.174-0.534-0.208-1.332-0.208-1.69c-0.051-0.448-0.109-1.4-0.403-1.642
				c-0.179-0.245-0.441-0.125-0.534,0.099c-0.021,0.443-0.022,0.887,0.027,1.293c0.201,0.716,0.264,1.344,0.362,2.077
				c0.026,0.98-0.567,0.426-0.541-0.062c0.138-0.631,0.104-1.625-0.021-1.875c-0.097-0.256-0.212-0.318-0.444-0.275
				c-0.188-0.012-0.666,0.514-0.801,1.383c0,0-0.115,0.446-0.165,0.844c-0.064,0.449-0.361,0.768-0.567-0.062
				C383.012,281.114,382.902,279.631,382.601,279.978"/>
			<path clip-path="url(#SVGID_4_)" fill="#FFFFFF" d="M385.838,284.733c-1.051,0.512-2.066,0.991-3.103,1.489
				c0.039-0.702,1.477-1.973,2.456-1.992C385.83,284.25,385.669,284.478,385.838,284.733"/>
			<path clip-path="url(#SVGID_4_)" fill="#FFFFFF" d="M385.296,285.705c-1.634,4.211,3.828,4.799,4.438,0.171
				c0.059-0.19,0.288-0.378,0.328-0.068c-0.126,4.19-4.224,4.478-4.921,3.159c-0.173-0.31-0.225-1-0.241-1.415
				c-0.104-0.824-0.536-0.509-0.605,0.31c-0.068,0.455-0.051,0.583-0.051,1.021c0.217,3.31,5.497,1.886,6.354-0.847
				c0.455-1.515-0.073-2.631,0.174-2.625c0.523,0.564,1.253,0.076,1.416-0.12c0.068-0.1,0.242-0.162,0.363-0.034
				c0.408,0.29,1.127,0.154,1.277-0.363c0.084-0.506,0.156-1.031,0.172-1.571c-0.334,0.103-0.582,0.171-0.604,0.31
				c-0.021,0.15-0.047,0.302-0.068,0.449c-0.031,0.145-0.318,0.147-0.328-0.034c-0.127-0.577-0.65-0.65-0.969,0.241
				c-0.213,0.174-0.598,0.208-0.637-0.051c0.049-0.6-0.191-0.679-0.675-0.397c-0.155-1.185-0.31-2.321-0.468-3.506
				c0.205-0.006,0.387,0.145,0.573-0.086c-0.203-0.628-0.628-1.912-0.864-2.003c-0.116-0.136-0.213-0.054-0.363-0.017
				c-0.253,0.079-0.49,0.298-0.415,0.725c0.3,1.821,0.494,3.207,0.794,5.025c0.047,0.213-0.132,0.494-0.362,0.466
				c-0.392-0.264-0.488-0.801-1.156-0.778c-0.482,0.006-1.037,0.528-1.104,1.037c-0.081,0.403-0.109,0.841,0,1.19
				c0.339,0.409,0.748,0.369,1.104,0.275c0.294-0.119,0.536-0.414,0.64-0.344c0.068,0.088,0.017,1.055-1.383,1.796
				c-0.845,0.381-1.52,0.466-1.882-0.225C385.608,286.964,385.85,285.324,385.296,285.705"/>
			<path clip-path="url(#SVGID_4_)" fill="#FFFFFF" d="M392.229,281.421c0.328-0.119,1.883-1.897,1.883-1.897
				c-0.082-0.068-0.154-0.123-0.234-0.19c-0.088-0.077-0.076-0.151,0-0.225c0.387-0.228,0.262-0.719,0.061-0.943
				c-0.334-0.147-0.623-0.1-0.836,0.011c-0.271,0.256-0.336,0.671-0.121,0.933c0.205,0.097,0.414,0.307,0.275,0.42
				c-0.637,0.683-2.378,1.853-2.176,1.893C391.124,281.478,392.196,281.475,392.229,281.421"/>
			<path clip-path="url(#SVGID_4_)" fill="#FFFFFF" d="M382.843,287.714c-0.581,0.929-0.634,2.318-0.312,2.73
				c0.171,0.195,0.453,0.281,0.66,0.222c0.365-0.159,0.524-0.904,0.438-1.174c-0.12-0.19-0.217-0.222-0.339-0.06
				c-0.258,0.525-0.365,0.165-0.387-0.128c-0.04-0.554,0.012-1.065,0.072-1.469C383.04,287.421,382.973,287.549,382.843,287.714"/>
			<path clip-path="url(#SVGID_4_)" fill="#FFFFFF" d="M407.75,286.228c-0.562-1.213-1.344-2.412-1.59-2.872
				c-0.25-0.46-2.123-3.179-2.4-3.486c-0.609-0.724,0.99,0.302-0.201-1.133c-0.455-0.393-0.48-0.415-0.855-0.733
				c-0.193-0.137-0.656-0.381-0.738,0.028c-0.041,0.358-0.02,0.554,0.041,0.855c0.045,0.199,0.338,0.531,0.48,0.728
				c1.902,2.557,3.588,5.136,5.215,8.384C407.957,287.873,407.9,286.43,407.75,286.228"/>
			<path clip-path="url(#SVGID_4_)" fill="#FFFFFF" d="M405.275,290.288c-0.109,0.125,0.275,0.656,0.775,0.656
				c0.836-0.097,1.57-0.565,2.252-1.802c0.182-0.289,0.5-0.906,0.512-1.384c0.062-2.804-0.143-4.982-0.562-7.009
				c-0.025-0.198-0.01-0.429,0.025-0.488c0.053-0.062,0.236,0,0.332-0.159c0.145-0.145-0.377-1.353-0.676-1.818
				c-0.105-0.207-0.141-0.347-0.318,0.022c-0.182,0.305-0.307,0.83-0.291,1.318c0.4,2.762,0.521,5.177,0.781,7.936
				c0.02,0.267-0.018,0.653-0.195,0.81C407.254,289.055,406.307,289.898,405.275,290.288"/>
			<path clip-path="url(#SVGID_4_)" fill="#FFFFFF" d="M416.564,290.273c-0.6,0.347-0.602,0.744-0.117,0.759
				c0.836-0.097,1.824-0.168,2.504-1.193c0.182-0.29,0.398-1.068,0.408-1.546c0.064-2.804-0.035-4.895-0.455-6.921
				c-0.027-0.198-0.115-0.65-0.082-0.71c0.055-0.139,0.326,0.015,0.426-0.145c0.141-0.146-0.707-1.236-1.006-1.699
				c-0.104-0.207-0.141-0.347-0.316,0.022c-0.184,0.302-0.248,0.841-0.174,1.318c0.443,2.997,0.771,5.251,0.84,7.904
				c-0.037,0.253-0.047,0.389-0.166,0.707c-0.262,0.333-0.551,0.753-0.824,0.955C417.33,289.93,416.752,290.123,416.564,290.273"/>
			<path clip-path="url(#SVGID_4_)" fill="#FFFFFF" d="M417.014,287.586c-0.008-0.699,0.01-1.307-0.016-1.83
				c-0.021-0.52-0.113-0.948-0.295-1.318c-0.17-0.397-0.064-0.719-0.145-1.139c-0.082-0.426-0.061-1.06-0.182-1.562
				c-0.035-0.196-0.137-0.827-0.104-0.887c0.049-0.139,0.236,0.006,0.328-0.156c0.139-0.15-0.479-1.744-0.791-2.199
				c-0.111-0.207-0.314-0.136-0.566,0.196c-0.232,0.219-0.148,0.716-0.059,1.19c0.6,3.128,1.047,5.961,0.951,8.938
				C416.105,289.072,417.02,288.063,417.014,287.586"/>
			<path clip-path="url(#SVGID_4_)" fill="#FFFFFF" d="M412.584,283.705c-0.379-0.009-1.168-0.733-1.4-1.159
				c-0.086-0.244-0.029-0.483,0.047-0.622c0.141-0.091,0.354-0.193,0.516-0.097c0,0,0.168,0.235,0.137,0.262
				c0.203,0.099,0.291,0.042,0.312-0.04c0.014-0.146-0.061-0.236-0.062-0.396c0.088-0.44,0.588-0.505,0.775-0.227
				c0.139,0.17,0.191,0.531,0.211,0.775c-0.002,0.125-0.205-0.022-0.32,0.009s-0.141,0.162-0.15,0.284
				C412.627,282.812,412.59,283.321,412.584,283.705"/>
			<path clip-path="url(#SVGID_4_)" fill="#FFFFFF" d="M405.625,288.361c0.105-0.951-0.039-2.647-0.049-3.207
				c-0.039-1.33-0.254-3.893-0.357-4.321c-0.115-0.808,0.332,0.091,0.271-0.381c-0.146-0.804-0.594-1.353-1.121-2.091
				c-0.168-0.239-0.164-0.287-0.426,0.06c-0.287,0.656-0.037,1.107,0.035,1.619c0.381,1.668,0.602,3.202,0.703,4.719
				c0.105,1.515,0.137,3.156,0.041,4.751C405.008,289.521,405.465,289.052,405.625,288.361"/>
			<path clip-path="url(#SVGID_4_)" fill="#FFFFFF" d="M418.297,286.839c-0.666-1.116-1.668-2.327-1.938-2.776
				c-0.268-0.448-2.535-3.375-2.824-3.667c-0.83-0.872,0.381-0.143-0.158-0.812c-0.455-0.503-0.588-0.659-0.979-0.961
				c-0.197-0.128-0.316-0.369-0.379,0.046c-0.025,0.357-0.053,0.778-0.027,1.082c-0.002,0.171,0.176,0.489,0.326,0.677
				c2.01,2.472,4.205,4.991,5.969,8.165C418.539,288.458,418.457,287.035,418.297,286.839"/>
			<path clip-path="url(#SVGID_4_)" fill="#4AA647" d="M388.13,284.779c-0.049,0.085-0.155,0.192-0.118,0.307
				c0.074,0.1,0.132,0.119,0.257,0.125c0.108,0,0.26,0.025,0.291-0.037c0.059-0.065,0.104-0.196,0.056-0.318
				C388.502,284.574,388.188,284.68,388.13,284.779"/>
			<path clip-path="url(#SVGID_4_)" fill="#FFFFFF" d="M394.528,279.022c-0.605,1.73,0.346,3.623,1.008,3.441
				c0.475,0.192,0.779-0.714,0.975-1.705c0.133-0.278,0.234-0.307,0.301-0.165c-0.018,1.321,0.096,1.614,0.436,2.015
				c0.758,0.585,1.383,0.074,1.434,0.025c0.049-0.048,0.59-0.591,0.59-0.591c0.131-0.137,0.305-0.147,0.49-0.022
				c0.18,0.162,0.156,0.446,0.539,0.642c0.324,0.131,1.017,0.028,1.179-0.25c0.217-0.372,0.268-0.497,0.369-0.639
				c0.154-0.205,0.418-0.114,0.418-0.049c-0.027,0.114-0.18,0.228-0.074,0.435c0.184,0.137,0.225,0.049,0.334,0.021
				c0.385-0.185,0.672-1.021,0.672-1.021c0.018-0.312-0.156-0.284-0.27-0.222c-0.146,0.091-0.156,0.119-0.303,0.211
				c-0.188,0.028-0.553,0.15-0.734-0.128c-0.184-0.336-0.184-0.802-0.326-1.14c0-0.028-0.244-0.534-0.018-0.565
				c0.113,0.021,0.359,0.085,0.398-0.122c0.121-0.199-0.258-0.768-0.516-1.054c-0.225-0.247-0.535-0.278-0.835-0.026
				c-0.209,0.193-0.18,0.409-0.219,0.614c-0.057,0.235-0.043,0.525,0.195,0.835c0.211,0.415,0.591,0.946,0.464,1.693
				c0,0-0.222,0.355-0.611,0.31c-0.164-0.034-0.426-0.104-0.564-1.142c-0.107-0.787,0.023-1.887-0.311-2.404
				c-0.121-0.31-0.207-0.61-0.502-0.076c-0.078,0.207-0.418,0.522-0.174,1.179c0.203,0.412,0.285,1.086,0.193,1.836
				c-0.141,0.213-0.17,0.284-0.354,0.497c-0.256,0.275-0.533,0.207-0.746,0.102c-0.199-0.133-0.357-0.204-0.447-0.63
				c0.016-0.68,0.055-1.79-0.068-2.026c-0.182-0.366-0.484-0.232-0.615-0.122c-0.619,0.565-0.926,1.523-1.113,2.284
				c-0.172,0.555-0.355,0.396-0.482,0.171C394.928,280.94,394.905,278.646,394.528,279.022"/>
			<path clip-path="url(#SVGID_4_)" fill="#FFFFFF" d="M396.352,282.784c0.271-0.195,0.146-0.329,0.557,0.08
				c0.516,0.881,0.846,2.02,0.895,3.028c-0.021,0.25,0.154,0.406,0.234,0.353c0.049-0.583,1.467-1.398,2.771-1.518
				c0.199-0.042,0.1-0.423,0.135-0.619c-0.08-0.722,0.404-1.381,1.083-1.432c0.924,0.136,1.232,0.628,1.248,1.381
				c-0.1,1.446-1.605,1.69-2.453,1.807c-0.129,0.048-0.182,0.11,0,0.179l3.546,0.018l0.18,0.104
				c0.023,0.086-0.051,0.015-0.189,0.245c-0.141,0.229-0.348,0.761-0.359,1.116c-1.057,0.341-2.148,0.488-3.257,0.622
				c-0.387,0.196-0.578,0.455-0.498,0.747c0.131,0.324,0.982,0.65,0.982,0.665c0.164,0.103,0.355,0.341-0.045,0.826
				c-1.728-0.076-3.07-0.812-3.533-1.852c-0.141-0.108-0.291,0-0.389,0.139c-0.674,0.872-1.338,1.656-2.49,2.071
				c-0.686,0.171-1.387-0.105-1.721-0.554c-0.223-0.256-0.213-0.537-0.295-0.6c-0.371,0.165-3.564,1.52-3.159,0.889
				c0.775-0.832,2.122-1.442,3.309-2.264c0.088-0.275,0.242-1.208,0.711-1.509c0.029,0.003-0.074,0.546-0.064,0.775
				c0.006,0.19-0.014,0.265,0.029,0.216c0.08-0.054,1.521-1.188,1.631-1.531c0.141-0.198,0.043-0.704,0.043-0.722
				c-0.27-0.696-0.648-0.756-0.789-1.1c-0.127-0.463-0.07-0.988,0.193-1.133c0.232-0.214,0.51-0.185,0.764,0.045
				c0.293,0.262,0.551,0.771,0.625,1.15c-0.049,0.151-0.381-0.099-0.496-0.025c0.203,0.21,0.299,0.455,0.373,0.75
				c0.188,0.796,0.129,1.105-0.059,1.62c-0.639,1.347-1.459,1.747-2.174,2.247c-0.02,0.006-0.031,0.341,0.236,0.52
				c0.094,0.1,0.467,0.147,0.904,0.009c0.85-0.463,1.729-1.315,2.166-2.265c0.127-0.716-0.047-1.479-0.234-2.142
				c-0.281-0.651-0.613-1.577-0.613-1.592C396.139,283.125,396.174,282.986,396.352,282.784"/>
			<path clip-path="url(#SVGID_4_)" fill="#FFFFFF" d="M387.07,279.04c0.406,0.196,1.174,0.113,1.141-0.546
				c0-0.057-0.015-0.256-0.021-0.307c-0.082-0.196-0.31-0.147-0.362,0.054c-0.017,0.065,0.03,0.171-0.031,0.205
				c-0.034,0.034-0.164,0.014-0.159-0.168c0-0.06-0.041-0.119-0.067-0.156c-0.026-0.017-0.042-0.022-0.089-0.022
				c-0.057,0.003-0.057,0.017-0.086,0.065c-0.015,0.048-0.033,0.097-0.033,0.15c-0.007,0.065-0.031,0.088-0.078,0.097
				c-0.054,0-0.042,0.006-0.084-0.02c-0.026-0.029-0.058-0.04-0.058-0.086c0-0.051-0.01-0.131-0.027-0.164
				c-0.021-0.029-0.059-0.043-0.098-0.055c-0.225,0.003-0.24,0.256-0.228,0.353C386.772,278.46,386.766,278.915,387.07,279.04"/>
			<path clip-path="url(#SVGID_4_)" fill="#FFFFFF" d="M399.03,284.105c0.408,0.193,1.381,0.082,1.143-0.545
				c0-0.061-0.014-0.256-0.02-0.311c-0.082-0.192-0.309-0.145-0.361,0.055c-0.018,0.065,0.029,0.173-0.031,0.204
				c-0.035,0.037-0.166,0.018-0.158-0.167c0-0.058-0.043-0.12-0.07-0.156c-0.025-0.018-0.041-0.023-0.088-0.023
				c-0.057,0.003-0.057,0.018-0.088,0.065c-0.012,0.049-0.029,0.097-0.029,0.153c-0.01,0.062-0.033,0.088-0.08,0.097
				c-0.055,0-0.043,0.006-0.084-0.022c-0.027-0.025-0.059-0.04-0.059-0.085c0-0.052-0.012-0.131-0.027-0.162
				c-0.02-0.031-0.057-0.046-0.1-0.054c-0.221,0-0.238,0.252-0.225,0.349C398.735,283.523,398.725,283.978,399.03,284.105"/>
			<path clip-path="url(#SVGID_4_)" fill="#FFFFFF" d="M406.006,282.009c0.406,0.193,1.174,0.111,1.141-0.548
				c0-0.058-0.014-0.253-0.02-0.308c-0.082-0.192-0.309-0.145-0.361,0.055c-0.016,0.067,0.029,0.173-0.031,0.204
				c-0.033,0.037-0.164,0.015-0.158-0.165c0-0.06-0.043-0.122-0.068-0.159c-0.027-0.017-0.043-0.02-0.088-0.02
				c-0.057,0-0.057,0.018-0.086,0.062c-0.016,0.051-0.033,0.097-0.033,0.153c-0.008,0.065-0.033,0.088-0.078,0.097
				c-0.055,0-0.043,0.006-0.086-0.022c-0.025-0.028-0.059-0.037-0.059-0.085c0-0.049-0.01-0.128-0.025-0.162
				c-0.021-0.028-0.057-0.043-0.1-0.055c-0.223,0-0.238,0.256-0.227,0.353C405.711,281.427,405.701,281.884,406.006,282.009"/>
			<path clip-path="url(#SVGID_4_)" fill="#FFFFFF" d="M409.619,287.273c-0.711,0.798-0.398,2.125-0.238,2.412
				c0.234,0.469,0.422,0.767,0.881,1.003c0.416,0.304,0.738,0.113,0.916-0.103c0.42-0.432,0.424-1.54,0.621-1.759
				c0.137-0.403,0.484-0.332,0.652-0.153c0.162,0.233,0.355,0.387,0.596,0.512c0.391,0.344,0.855,0.406,1.314,0.094
				c0.312-0.176,0.516-0.403,0.699-0.855c0.207-0.545,0.092-3.065,0.051-4.56c-0.016-0.116-0.404-2.055-0.404-2.077
				c0-0.02-0.053-0.988-0.096-1.216c-0.008-0.097-0.031-0.122,0.068-0.11c0.104,0.088,0.117,0.094,0.182,0.122
				c0.105,0.02,0.199-0.159,0.137-0.324c-0.324-0.6-0.65-1.196-0.975-1.796c-0.078-0.076-0.178-0.162-0.303,0.023
				c-0.119,0.104-0.244,0.292-0.24,0.534c0.029,0.423,0.104,0.857,0.131,1.281c0.131,0.729,0.26,1.457,0.391,2.188
				c0.123,1.557,0.152,2.829,0.275,4.39c-0.018,0.658-0.221,1.232-0.414,1.317c0,0-0.291,0.168-0.488-0.02
				c-0.145-0.057-0.715-0.952-0.715-0.952c-0.293-0.267-0.482-0.189-0.693,0c-0.57,0.555-0.83,1.589-1.221,2.305
				c-0.1,0.159-0.385,0.295-0.697-0.015C409.248,288.424,409.719,286.873,409.619,287.273"/>
			<path clip-path="url(#SVGID_4_)" fill="#FFFFFF" d="M406.188,278.188c0.365,0.153,0.625,0.893,0.539,1.256
				c-0.072,0.446-0.266,0.929-0.402,0.866c-0.154-0.057,0.102-0.442-0.043-0.849c-0.082-0.268-0.58-0.753-0.527-0.896
				C405.65,278.268,405.965,278.137,406.188,278.188"/>
			<path clip-path="url(#SVGID_4_)" fill="#FFFFFF" d="M410.797,287.711c0.076-0.89-0.055-1.432-0.076-1.955
				c-0.025-0.52-0.592-4.509-0.707-4.906c-0.139-0.747,0.551-0.1,0.477-0.534c-0.238-0.548-0.834-1.347-1.021-1.821
				c-0.113-0.207-0.064-0.386-0.316-0.054c-0.234,0.762-0.314,1.387-0.225,1.858c0.6,3.131,1.213,5.73,1.115,8.708
				C410.328,289.01,410.656,288.355,410.797,287.711"/>
			<path clip-path="url(#SVGID_4_)" fill="#FFFFFF" d="M417.041,279.449c0.334,0.165,0.529,1.094,0.492,1.357
				c-0.066,0.483-0.242,1.006-0.369,0.94c-0.139-0.062,0.027-0.719-0.037-0.923c-0.076-0.287-0.531-0.812-0.482-0.966
				C416.549,279.534,416.838,279.393,417.041,279.449"/>
			<path clip-path="url(#SVGID_4_)" fill="#FFFFFF" d="M392.272,286.029c0.32,0.122,0.504,0.804,0.471,1
				c-0.064,0.354-0.234,0.741-0.354,0.69c-0.135-0.046,0.025-0.531-0.037-0.68c-0.027-0.363-0.471-0.554-0.461-0.71
				C391.809,286.04,392.077,285.989,392.272,286.029"/>
			<path clip-path="url(#SVGID_4_)" fill="#469F46" d="M399.975,287.052c0.41,0.028,0.617,0.353,0.232,0.485
				c-0.381,0.131-0.748,0.233-0.75,0.782c0.141,0.767-0.191,0.503-0.391,0.397c-0.234-0.168-0.893-0.574-0.984-1.446
				c-0.016-0.21,0.148-0.384,0.41-0.384C398.887,286.995,399.471,287.001,399.975,287.052"/>
			<path clip-path="url(#SVGID_4_)" fill="#FFFFFF" d="M383.75,277.969c0.472,0.14,0.5,0.833,0.463,1.034
				c-0.062,0.366-0.229,0.768-0.348,0.716c-0.131-0.045-0.006-0.548-0.068-0.704c-0.068-0.216-0.468-0.617-0.423-0.736
				C383.288,278.031,383.557,277.924,383.75,277.969"/>
			<path clip-path="url(#SVGID_4_)" fill="#FFFFFF" d="M393.04,281.228c-0.359,0.193-0.5,0.778-0.275,1.116
				c0.209,0.299,0.541,0.188,0.586,0.188c0.352,0.043,0.561-0.661,0.561-0.661s0.014-0.202-0.406,0.176
				c-0.176,0.031-0.199-0.034-0.242-0.134c-0.039-0.185-0.029-0.366,0.055-0.554C393.379,281.185,393.243,281.105,393.04,281.228"/>
			<path clip-path="url(#SVGID_4_)" fill="#FFFFFF" d="M395.749,277.702c-0.182,0.119-0.545,0.494-0.555,0.923
				c-0.014,0.244-0.057,0.244,0.102,0.4c0.115,0.165,0.232,0.151,0.463,0.029c0.135-0.1,0.18-0.165,0.225-0.33
				c0.057-0.275-0.291,0.131-0.336-0.176c-0.076-0.284,0.145-0.401,0.355-0.68C396.008,277.679,396.004,277.549,395.749,277.702"/>
			<path clip-path="url(#SVGID_4_)" fill="#FFFFFF" d="M397.928,278.088c-0.078,0.171-0.174,1.074-0.156,1.074
				c-0.062,0.27,0.281,0.384,0.436,0.037c0.236-0.631,0.236-0.9,0.252-1.168C398.385,277.619,398.11,277.634,397.928,278.088"/>
			<path clip-path="url(#SVGID_4_)" fill="#FFFFFF" d="M411.678,285.086c0.047-0.049,1.936-1.393,1.936-1.393
				c0.193-0.068,0.152,0.693,0.062,0.688c0.039,0.15-1.863,1.443-1.998,1.393C411.584,285.839,411.49,285.251,411.678,285.086"/>
			<path clip-path="url(#SVGID_4_)" fill="#FFFFFF" d="M413.4,285.074c0.334,0.165,0.467,1.14,0.43,1.403
				c0.014,0.518-0.32,0.933-0.447,0.864c-0.139-0.062,0.012-0.643-0.055-0.847c-0.074-0.284-0.357-0.827-0.311-0.983
				C412.926,285.188,413.197,285.015,413.4,285.074"/>
			<path clip-path="url(#SVGID_4_)" fill="#FFFFFF" d="M402.154,289.273c0.133-0.193,0.539-0.469,0.549-0.469
				c0.188-0.097,0.369,0.071,0.359,0.062c0.031,0.185-0.119,0.361-0.072,0.611c0.041,0.099,0.07,0.213,0.254,0.167
				c0.301-0.232,0.578-0.247,0.881-0.264c0.229,0.014,0.238,0.403,0.094,0.406c-0.555,0.119-0.805,0.27-1.197,0.42
				c-0.191,0.108-0.352-0.031-0.352-0.045c0-0.015-0.107-0.108-0.033-0.355c0.014-0.199-0.064-0.307-0.23-0.287
				c-0.127,0.071-0.234,0.114-0.297-0.031C402.082,289.385,402.074,289.333,402.154,289.273"/>
			<path clip-path="url(#SVGID_4_)" fill="#FFFFFF" d="M415.391,289.799c0.08,0.103,0.133,0.196-0.006,0.364
				c-0.133,0.125-0.227,0.19-0.359,0.312c-0.062,0.104-0.104,0.267,0.09,0.32c0.352,0.1,1.172-0.432,1.172-0.442
				c0.131-0.1,0.086-0.287,0.076-0.287c-0.076-0.088-0.252-0.037-0.369-0.052c-0.055,0-0.238-0.025-0.152-0.19
				c0.072-0.099,0.098-0.161,0.15-0.283c0.053-0.123,0.006-0.205-0.193-0.271c-0.203-0.037-0.283-0.017-0.51,0
				c-0.119,0.025-0.162,0.08-0.184,0.228C415.115,289.723,415.25,289.708,415.391,289.799"/>
			<path clip-path="url(#SVGID_4_)" fill="#4AA146" d="M402.227,284.299c-0.051,0.088-0.227,0.085-0.389-0.009
				c-0.166-0.097-0.256-0.247-0.203-0.335c0.049-0.091,0.225-0.085,0.389,0.012C402.189,284.061,402.279,284.208,402.227,284.299"/>
			<path clip-path="url(#SVGID_4_)" fill="#4AA146" d="M393.598,279.108c-0.1,0.022-0.225-0.065-0.287-0.196
				c-0.059-0.134-0.029-0.259,0.068-0.284c0.1-0.022,0.229,0.065,0.289,0.196C393.727,278.958,393.696,279.083,393.598,279.108"/>
			<polygon clip-path="url(#SVGID_4_)" fill="#010101" points="403.977,305.968 400.875,303.746 397.797,305.999 398.95,302.365 
				395.856,300.132 399.67,300.104 400.838,296.473 402.041,300.092 405.855,300.078 402.787,302.346 			"/>
		</g>
	</g>
</g>
</svg>
