<?xml version="1.0" encoding="utf-8"?>
<!-- Generator: Adobe Illustrator 16.0.0, SVG Export Plug-In . SVG Version: 6.00 Build 0)  -->
<!DOCTYPE svg PUBLIC "-//W3C//DTD SVG 1.1//EN" "http://www.w3.org/Graphics/SVG/1.1/DTD/svg11.dtd">
<svg version="1.1" id="name" xmlns="http://www.w3.org/2000/svg" xmlns:xlink="http://www.w3.org/1999/xlink" x="0px" y="0px"
	 width="85.714px" height="50px" viewBox="358 276 85.714 50" enable-background="new 358 276 85.714 50" xml:space="preserve">
<g id="sx">
	<g>
		<defs>
			<rect id="SVGID_1_" x="358" y="276" width="85.714" height="50"/>
		</defs>
		<clipPath id="SVGID_2_">
			<use xlink:href="#SVGID_1_"  overflow="visible"/>
		</clipPath>
		<rect x="358" y="276" clip-path="url(#SVGID_2_)" fill="#FFFFFF" width="85.714" height="50"/>
		<g clip-path="url(#SVGID_2_)">
			<defs>
				<rect id="SVGID_3_" x="358" y="276" width="85.714" height="50"/>
			</defs>
			<clipPath id="SVGID_4_">
				<use xlink:href="#SVGID_3_"  overflow="visible"/>
			</clipPath>
			<path clip-path="url(#SVGID_4_)" fill="#F4EB33" d="M373.718,294.931l0.008-0.344c0,0-0.185-0.299,0.03-0.614
				c0,0-0.457-0.241-0.352-0.622c0,0-0.413-0.104-0.382-0.562c0,0-0.447-0.031-0.494-0.409c0,0-0.447,0.071-0.644-0.298
				c0,0-0.435,0.085-0.558-0.222c0,0-0.425,0.147-0.676-0.21c0,0-0.446,0.179-0.634-0.159c-0.185,0.338-0.634,0.159-0.634,0.159
				c-0.248,0.354-0.675,0.207-0.675,0.207c-0.119,0.307-0.553,0.222-0.553,0.222c-0.195,0.369-0.642,0.295-0.642,0.295
				c-0.044,0.381-0.489,0.412-0.489,0.412c0.034,0.455-0.378,0.561-0.378,0.561c0.108,0.377-0.348,0.619-0.348,0.619
				c0.219,0.32,0.036,0.613,0.036,0.613l-0.01,0.318L373.718,294.931L373.718,294.931z"/>
			<g clip-path="url(#SVGID_4_)">
				<path fill="#010101" d="M373.722,294.937l-7.398-0.034l0.005-0.324c0.002-0.006,0.179-0.298-0.035-0.61
					c0.005-0.009,0.454-0.25,0.347-0.622c0.007-0.006,0.412-0.114,0.378-0.561c0.008-0.005,0.446-0.042,0.489-0.412
					c0.242,0.035,0.504-0.036,0.643-0.298c0.011,0.003,0.063,0.009,0.14,0.009c0.148,0,0.34-0.04,0.414-0.228
					c0.005,0.003,0.094,0.028,0.21,0.028c0.137,0,0.328-0.043,0.465-0.238l0,0c0.008,0,0.126,0.045,0.263,0.045
					c0.171,0,0.295-0.068,0.37-0.204c0.083,0.136,0.207,0.204,0.378,0.204c0.139,0,0.257-0.048,0.259-0.048
					c0.265,0.369,0.674,0.213,0.676,0.213c0.123,0.29,0.558,0.219,0.558,0.222c0.114,0.205,0.3,0.272,0.445,0.293
					c-0.175-0.021-0.345-0.094-0.447-0.287c-0.006,0.008-0.442,0.065-0.559-0.222c-0.004,0.011-0.419,0.153-0.675-0.21
					c0,0.002-0.119,0.048-0.256,0.048c-0.172,0-0.303-0.071-0.378-0.207c-0.067,0.136-0.197,0.207-0.37,0.207
					c-0.141,0-0.261-0.048-0.261-0.048c-0.249,0.366-0.674,0.213-0.675,0.21c-0.105,0.292-0.553,0.219-0.553,0.219
					c-0.134,0.265-0.4,0.304-0.547,0.304c-0.134,0.369-0.578,0.403-0.582,0.403c0.038,0.452-0.374,0.56-0.377,0.56
					c0.111,0.375-0.343,0.62-0.348,0.623c0.22,0.31,0.04,0.607,0.039,0.61l-0.01,0.315l7.385,0.031l0.008-0.341
					c-0.001-0.003-0.184-0.302,0.031-0.619c-0.001,0.003-0.001,0.003-0.001,0.003c-0.01,0-0.456-0.245-0.352-0.62
					c-0.002-0.008-0.414-0.102-0.383-0.562c-0.002,0.003-0.148-0.005-0.282-0.091c0.146,0.077,0.285,0.088,0.287,0.088
					c-0.025,0.452,0.379,0.561,0.383,0.562c-0.099,0.375,0.349,0.617,0.354,0.62c-0.209,0.317-0.03,0.613-0.028,0.616
					L373.722,294.937L373.722,294.937z"/>
			</g>
			<path clip-path="url(#SVGID_4_)" fill="#E91E26" d="M373.544,294.499c-1.162-0.117-2.5-0.393-3.532,0.19
				c-0.692-0.406-1.655-0.384-2.476-0.305c-0.447,0.08-0.969,0.08-1.435,0.156l-0.075,0.012c-0.845,0.054-1.61-0.193-2.345-0.522
				c0.234,1.323,0.492,2.682,0.618,4.065c0.278,2.051-0.97,3.775-0.459,5.801c0.306,0.973,1.376,1.537,2.354,1.651
				c0.948,0.057,1.929,0.21,2.806,0.4c0.167,0.037,0.364,0.113,0.479,0.162c0.243,0.103,0.42,0.25,0.575,0.409
				c0.529-0.552,1.306-0.705,2.071-0.784c1.38-0.162,3.081-0.074,3.926-1.327v-0.068c0.459-0.693,0.398-1.747,0.199-2.531
				c-0.014-0.272-0.086-0.514-0.126-0.772c-0.844-2.228-0.121-4.733,0.241-6.978c-0.443,0.244-0.936,0.357-1.431,0.479
				c-0.392,0.052-0.831,0.028-1.227,0.006L373.544,294.499L373.544,294.499z"/>
			<path clip-path="url(#SVGID_4_)" fill="#8FCDDD" d="M375.279,300.891c-0.006,0.146,0.075,0.262,0.103,0.396
				c0.161,0.975,0.316,2.265-0.687,2.869c-1.106,0.705-2.562,0.403-3.844,0.776c-0.256,0.07-0.609,0.307-0.789,0.471
				c-0.117-0.073-0.233-0.192-0.382-0.261c-1.055-0.56-2.427-0.372-3.619-0.677c-0.597-0.188-1.221-0.653-1.372-1.267
				c-0.391-1.608,0.543-2.978,0.433-4.571c-0.07-1.219-0.276-2.387-0.558-3.525c0.932,0.432,2.011,0.505,3.057,0.295
				c0.775-0.105,1.679-0.111,2.405,0.219c0.4-0.174,0.869-0.25,1.3-0.299c0.821,0.08,1.703,0.23,2.548,0.225
				c0.565-0.031,1.077-0.193,1.567-0.408C375.15,297.016,374.593,298.993,375.279,300.891L375.279,300.891z"/>
			<polygon clip-path="url(#SVGID_4_)" fill="#FFFFFF" points="373.604,301.266 373.595,299.493 373.814,299.493 371.101,297.74 
				371.097,296.831 371.359,296.831 370.002,295.859 368.654,296.831 368.916,296.831 368.92,297.74 366.223,299.49 366.438,299.49 
				366.448,301.264 373.603,301.266 			"/>
			<g clip-path="url(#SVGID_4_)">
				<path fill="#010101" d="M373.625,301.286l-7.177-0.003l-0.029-1.793l-0.196,0.018l2.687-1.784l-0.013-0.893l-0.242,0.021
					l1.336-1.006l1.379,0.969l-0.273,0.037l0.023,0.889l2.704,1.736l-0.23,0.034L373.625,301.286L373.625,301.286z M366.438,299.471
					l0.03,1.793l7.118-0.015l-0.01-1.756l0.238-0.02l-2.723-1.716l-0.013-0.927l0.281-0.02l-1.368-0.935l-1.325,0.969l0.25-0.034
					l0.024,0.929l-2.706,1.765L366.438,299.471L366.438,299.471z"/>
			</g>
			<polygon clip-path="url(#SVGID_4_)" fill="#C9202E" points="443.714,300.999 443.714,276 358,276 395.499,300.999 			"/>
			<polygon clip-path="url(#SVGID_4_)" fill="#29266F" points="443.714,326 443.714,300.999 395.499,300.999 358,326 			"/>
			<polygon clip-path="url(#SVGID_4_)" fill="#FFFFFF" points="374.438,303.596 374.438,304.152 365.704,304.142 365.699,303.59 
				374.438,303.596 			"/>
			<g clip-path="url(#SVGID_4_)">
				<path fill="#010101" d="M374.458,304.173l-8.754-0.012l-0.023-0.571l8.757-0.011L374.458,304.173L374.458,304.173z
					 M374.418,303.596l-8.719,0.015l0.024,0.531l8.695-0.009V303.596L374.418,303.596z"/>
			</g>
			<polygon clip-path="url(#SVGID_4_)" fill="#FFFFFF" points="366.283,303.564 366.275,301.684 366.629,301.684 366.609,303.584 
				366.631,301.701 366.122,301.684 366.122,301.28 373.929,301.292 373.931,301.689 373.45,301.689 373.46,303.593 
				373.442,301.689 373.8,301.689 373.808,303.57 			"/>
			<g clip-path="url(#SVGID_4_)">
				<polygon fill="#010101" points="373.479,303.593 373.422,301.689 373.8,301.67 373.8,301.676 373.931,301.67 373.909,301.292 
					366.122,301.301 366.142,301.684 366.629,301.664 366.629,303.584 366.61,301.701 366.275,301.703 366.303,303.564 
					366.263,303.564 366.255,301.703 366.122,301.703 366.103,301.28 373.929,301.271 373.951,301.689 373.801,301.695 
					373.828,303.57 373.781,301.698 373.45,301.709 373.479,303.593 				"/>
			</g>
			<g clip-path="url(#SVGID_4_)">
				<path fill="#010101" d="M367.981,303.118h-1.068l-0.025-1.326l1.068-0.021L367.981,303.118L367.981,303.118z M367.936,301.792
					l-1.029,0.017l0.026,1.29l1.009-0.017L367.936,301.792L367.936,301.792z"/>
			</g>
			<g clip-path="url(#SVGID_4_)">
				<path fill="#010101" d="M367.696,302.843h-0.499l-0.024-0.778l0.5-0.02L367.696,302.843L367.696,302.843z M367.654,302.064
					l-0.461,0.02l0.023,0.742l0.44-0.021L367.654,302.064L367.654,302.064z"/>
			</g>
			<g clip-path="url(#SVGID_4_)">
				<path fill="#010101" d="M373.105,303.124h-1.066l-0.023-1.329l1.064-0.018L373.105,303.124L373.105,303.124z M373.06,301.795
					l-1.024,0.02l0.023,1.29l1.008-0.021L373.06,301.795L373.06,301.795z"/>
			</g>
			<g clip-path="url(#SVGID_4_)">
				<path fill="#010101" d="M372.821,302.846h-0.499l-0.026-0.778l0.501-0.017L372.821,302.846L372.821,302.846z M372.778,302.067
					l-0.461,0.02l0.025,0.739l0.44-0.018L372.778,302.067L372.778,302.067z"/>
			</g>
			<g clip-path="url(#SVGID_4_)">
				<path fill="#010101" d="M373.098,300.99h-1.068l-0.022-1.329l1.064-0.021L373.098,300.99L373.098,300.99z M373.052,299.661
					l-1.024,0.02l0.021,1.29l1.009-0.018L373.052,299.661L373.052,299.661z"/>
			</g>
			<g clip-path="url(#SVGID_4_)">
				<path fill="#010101" d="M372.811,300.715h-0.499l-0.023-0.778l0.503-0.02L372.811,300.715L372.811,300.715z M372.772,299.937
					l-0.463,0.02l0.023,0.742l0.439-0.021V299.937L372.772,299.937z"/>
			</g>
			<g clip-path="url(#SVGID_4_)">
				<path fill="#010101" d="M367.974,300.984h-1.068l-0.025-1.326l1.066-0.018L367.974,300.984L367.974,300.984z M367.926,299.658
					l-1.027,0.017l0.026,1.29l1.009-0.02L367.926,299.658L367.926,299.658z"/>
			</g>
			<g clip-path="url(#SVGID_4_)">
				<path fill="#010101" d="M367.688,300.712l-0.501-0.003l-0.021-0.778l0.499-0.017L367.688,300.712L367.688,300.712z
					 M367.644,299.931l-0.459,0.021l0.021,0.738l0.442-0.018L367.644,299.931L367.644,299.931z"/>
			</g>
			<g clip-path="url(#SVGID_4_)">
				<path fill="#010101" d="M369.869,300.987h-1.066l-0.026-1.326l1.068-0.021L369.869,300.987L369.869,300.987z M369.826,299.661
					l-1.029,0.017l0.025,1.293l1.007-0.02L369.826,299.661L369.826,299.661z"/>
			</g>
			<g clip-path="url(#SVGID_4_)">
				<path fill="#010101" d="M369.583,300.715l-0.499-0.003l-0.021-0.778l0.499-0.02L369.583,300.715L369.583,300.715z
					 M369.542,299.934l-0.459,0.018l0.022,0.741l0.439-0.018L369.542,299.934L369.542,299.934z"/>
			</g>
			<g clip-path="url(#SVGID_4_)">
				<path fill="#010101" d="M371.333,300.99l-1.068-0.003l-0.025-1.326l1.066-0.021L371.333,300.99L371.333,300.99z
					 M371.285,299.661l-1.027,0.017l0.025,1.293l1.009-0.018L371.285,299.661L371.285,299.661z"/>
			</g>
			<g clip-path="url(#SVGID_4_)">
				<path fill="#010101" d="M371.046,300.715h-0.501l-0.021-0.781l0.5-0.017L371.046,300.715L371.046,300.715z M371.005,299.934
					l-0.461,0.02l0.021,0.742l0.442-0.021L371.005,299.934L371.005,299.934z"/>
			</g>
			<polygon clip-path="url(#SVGID_4_)" fill="#FFFFFF" points="371.572,300.57 371.583,303.59 368.55,303.584 368.539,300.567 
				371.57,300.57 			"/>
			<g clip-path="url(#SVGID_4_)">
				<path fill="#010101" d="M371.602,303.61l-3.052-0.006l-0.03-3.037l3.051-0.018L371.602,303.61L371.602,303.61z M371.553,300.57
					l-3.014,0.017l0.03,2.997l2.994-0.014L371.553,300.57L371.553,300.57z"/>
			</g>
			<g clip-path="url(#SVGID_4_)">
				<polygon fill="#010101" points="368.521,301.451 368.521,301.411 371.574,301.414 368.521,301.451 				"/>
			</g>
			<g clip-path="url(#SVGID_4_)">
				<polygon fill="#010101" points="368.882,303.587 368.872,301.453 368.921,303.587 368.882,303.587 				"/>
			</g>
			<g clip-path="url(#SVGID_4_)">
				<polygon fill="#010101" points="371.195,303.59 371.184,301.457 371.234,303.59 371.195,303.59 				"/>
			</g>
			<g clip-path="url(#SVGID_4_)">
				<path fill="#010101" d="M372.739,299.303l-5.383-0.006l1.684-1.281h1.931L372.739,299.303L372.739,299.303z M370.959,298.053
					h-1.909l-1.683,1.242l5.252-0.031L370.959,298.053L370.959,298.053z"/>
			</g>
			<g clip-path="url(#SVGID_4_)">
				<path fill="#010101" d="M370.835,297.78h-1.634l-0.022-0.778l1.634-0.021L370.835,297.78L370.835,297.78z M370.794,297.002
					l-1.594,0.017l0.021,0.741l1.575-0.017L370.794,297.002L370.794,297.002z"/>
			</g>
			<g clip-path="url(#SVGID_4_)">
				<path fill="#010101" d="M370.4,297.587h-0.762l-0.022-0.397l0.762-0.021L370.4,297.587L370.4,297.587z M370.359,297.189
					l-0.723,0.02l0.021,0.358l0.703-0.018L370.359,297.189L370.359,297.189z"/>
			</g>
			<g clip-path="url(#SVGID_4_)">
				<path fill="#010101" d="M370.964,296.791l-1.851-0.005l0.878-0.668L370.964,296.791L370.964,296.791z M369.991,296.152
					l-0.867,0.631l1.718-0.031L369.991,296.152L369.991,296.152z"/>
			</g>
			<path clip-path="url(#SVGID_4_)" fill="#FFFFFF" d="M373.633,295.703c0.256-0.006,0.322,1.052,0.322,1.574
				c0.22,0.062,0.705,0.369,0.92,0.645l-2.463-0.003c0.212-0.272,0.693-0.579,0.91-0.642
				C373.321,296.755,373.375,295.697,373.633,295.703L373.633,295.703z"/>
			<g clip-path="url(#SVGID_4_)">
				<path fill="#010101" d="M372.411,297.937c0.205-0.312,0.694-0.619,0.904-0.679c-0.014-0.114-0.007-1.305,0.225-1.531
					c-0.152,0.201-0.2,1.067-0.2,1.551c-0.219,0.076-0.699,0.375-0.914,0.653l2.448-0.028c-0.232-0.247-0.717-0.546-0.925-0.605
					c-0.014-0.466-0.064-1.36-0.252-1.542l-0.065-0.068l0.093,0.04c0.246,0.241,0.249,1.5,0.249,1.551
					c0.199,0.043,0.694,0.35,0.916,0.634L372.411,297.937L372.411,297.937z"/>
			</g>
			<g clip-path="url(#SVGID_4_)">
				<path fill="#010101" d="M368.928,301.195h-0.244l0.04-0.134h0c-0.01,0-0.111-0.179,0.009-0.301l-0.069-0.097l0.238-0.028
					l-0.046,0.145l0,0c0.011,0,0.105,0.142,0,0.298L368.928,301.195L368.928,301.195z M368.884,300.644l-0.204,0.028l0.083,0.092
					c-0.105,0.127-0.007,0.295-0.007,0.298l-0.055,0.122l0.164-0.022l-0.043-0.085c0.096-0.162,0.003-0.287,0-0.29L368.884,300.644
					L368.884,300.644z"/>
			</g>
			<g clip-path="url(#SVGID_4_)">
				<path fill="#010101" d="M369.379,301.195h-0.247l0.041-0.134l0,0c-0.01,0-0.108-0.179,0.007-0.301l-0.067-0.097l0.238-0.028
					l-0.047,0.145h0.001c0.011,0,0.104,0.137-0.002,0.298L369.379,301.195L369.379,301.195z M369.335,300.644l-0.204,0.028
					l0.082,0.092c-0.103,0.127-0.005,0.295-0.004,0.298l-0.058,0.125l0.166-0.025l-0.045-0.085c0.099-0.165,0.006-0.287,0.002-0.29
					L369.335,300.644L369.335,300.644z"/>
			</g>
			<g clip-path="url(#SVGID_4_)">
				<path fill="#010101" d="M369.87,301.198l-0.245-0.003l0.04-0.134h-0.001c-0.01,0-0.111-0.179,0.008-0.301l-0.067-0.097
					l0.237-0.028l-0.047,0.145h0c0.011,0,0.104,0.142,0,0.298L369.87,301.198L369.87,301.198z M369.825,300.644l-0.203,0.028
					l0.082,0.092c-0.104,0.13-0.005,0.295-0.005,0.298l-0.055,0.122l0.164-0.02l-0.045-0.088c0.096-0.162,0.003-0.287-0.001-0.29
					L369.825,300.644L369.825,300.644z"/>
			</g>
			<g clip-path="url(#SVGID_4_)">
				<path fill="#010101" d="M370.428,301.198h-0.248l0.041-0.134c-0.001,0.02-0.115-0.176,0.009-0.304l-0.069-0.097l0.239-0.028
					l-0.047,0.147l0,0c0.012,0,0.105,0.139-0.001,0.295L370.428,301.198L370.428,301.198z M370.381,300.646l-0.204,0.028
					l0.083,0.091c-0.104,0.128-0.006,0.299-0.006,0.299l-0.058,0.125l0.167-0.025l-0.047-0.088c0.098-0.162,0.006-0.284,0.001-0.29
					L370.381,300.646L370.381,300.646z"/>
			</g>
			<g clip-path="url(#SVGID_4_)">
				<path fill="#010101" d="M370.916,301.198h-0.243l0.037-0.131c-0.009,0-0.116-0.177,0.014-0.307l-0.07-0.097l0.237-0.028
					l-0.047,0.147h0c0.011,0,0.104,0.139-0.002,0.295L370.916,301.198L370.916,301.198z M370.873,300.646l-0.203,0.028l0.084,0.091
					c-0.109,0.128-0.011,0.299-0.011,0.299l-0.054,0.122l0.164-0.022l-0.045-0.088c0.098-0.162,0.006-0.284,0.001-0.29
					L370.873,300.646L370.873,300.646z"/>
			</g>
			<g clip-path="url(#SVGID_4_)">
				<path fill="#010101" d="M371.404,301.198h-0.245l0.042-0.134c0,0.003-0.001,0.003-0.001,0.003c-0.01,0-0.108-0.182,0.009-0.304
					l-0.067-0.097l0.238-0.031l-0.048,0.147l0,0c0.012,0,0.106,0.139,0.002,0.295L371.404,301.198L371.404,301.198z
					 M371.364,300.646l-0.204,0.028l0.081,0.091c-0.104,0.128-0.007,0.299-0.005,0.299l-0.059,0.125l0.167-0.025l-0.042-0.088
					c0.097-0.162-0.001-0.287-0.001-0.29L371.364,300.646L371.364,300.646z"/>
			</g>
			<path clip-path="url(#SVGID_4_)" fill="#F4EB33" d="M370.069,307.46c1.137,0.003,2.534-0.228,3.188-0.565l1.437-0.128
				l0.028,1.753c-1.216,0.673-4.027,0.815-4.647,0.812c-0.617,0.003-3.463-0.143-4.687-0.815l0.016-1.756l1.441,0.131
				c0.654,0.335,2.093,0.568,3.229,0.568H370.069L370.069,307.46z"/>
			<g clip-path="url(#SVGID_4_)">
				<path fill="#010101" d="M370.101,309.338h-0.026c-0.656,0-3.469-0.148-4.689-0.818l0.014-1.759l1.446,0.125
					c0.623,0.318,2.04,0.568,3.229,0.568l0,0c1.202,0,2.558-0.241,3.181-0.562l1.439-0.128l0.033,1.756
					C373.516,309.192,370.727,309.338,370.101,309.338L370.101,309.338z M365.403,306.764l-0.011,1.753
					c1.216,0.665,4.026,0.81,4.656,0.81l0.052,0.006v-0.006c0.625,0,3.413-0.145,4.619-0.81l-0.03-1.75l-1.432,0.131
					c-0.623,0.323-1.982,0.567-3.159,0.567c-1.215,0-2.634-0.25-3.255-0.57L365.403,306.764L365.403,306.764z"/>
			</g>
			<path clip-path="url(#SVGID_4_)" fill="#F4EB33" d="M361.688,299.979l1.267,0.403l-0.383,2.051l-1.2,0.185
				C361.373,302.618,361.171,301.542,361.688,299.979L361.688,299.979z"/>
			<g clip-path="url(#SVGID_4_)">
				<path fill="#010101" d="M361.369,302.624l0-0.003c-0.002-0.011-0.196-1.1,0.316-2.645l1.272,0.403l-0.379,2.054L361.369,302.624
					L361.369,302.624z M361.687,299.982c-0.489,1.491-0.323,2.557-0.311,2.633l1.195-0.188l0.378-2.045L361.687,299.982
					L361.687,299.982z"/>
			</g>
			<polygon clip-path="url(#SVGID_4_)" fill="#7E7E7E" points="362.57,302.411 361.373,302.618 362.132,301.542 			"/>
			<g clip-path="url(#SVGID_4_)">
				<path fill="#010101" d="M361.362,302.627l0.766-1.088l0.446,0.869L361.362,302.627L361.362,302.627z M362.127,301.542
					l-0.745,1.071l1.187-0.208L362.127,301.542L362.127,301.542z"/>
			</g>
			<path clip-path="url(#SVGID_4_)" fill="#F4EB33" d="M360.93,301.457l1.222,0.088c0.026,1.034,0.153,4.98,4.866,5.196
				l-0.147,1.435C361.133,308.235,360.698,303.334,360.93,301.457L360.93,301.457z"/>
			<g clip-path="url(#SVGID_4_)">
				<path fill="#010101" d="M366.768,308.182c-1.955,0-3.461-0.583-4.476-1.73c-1.284-1.452-1.539-3.597-1.366-4.994l1.227,0.085
					c0.108,4.116,2.705,5.097,4.865,5.193l-0.143,1.446H366.768L366.768,308.182z M360.929,301.459
					c-0.167,1.393,0.087,3.537,1.369,4.986c1.014,1.145,2.519,1.728,4.47,1.728v0.006l0.103-0.009l0.143-1.429
					c-2.16-0.094-4.762-1.077-4.866-5.196L360.929,301.459L360.929,301.459z"/>
			</g>
			<g clip-path="url(#SVGID_4_)">
				<polygon fill="#010101" points="365.411,308.474 365.409,308.466 366.848,308.153 365.411,308.474 				"/>
			</g>
			<path clip-path="url(#SVGID_4_)" fill="#F4EB33" d="M378.351,299.993l-1.26,0.4l0.398,2.046l1.201,0.193
				C378.69,302.633,378.884,301.556,378.351,299.993L378.351,299.993z"/>
			<g clip-path="url(#SVGID_4_)">
				<path fill="#010101" d="M378.693,302.639h-0.003l-1.202-0.193l-0.402-2.052l1.263-0.403c0.532,1.549,0.348,2.634,0.346,2.646
					L378.693,302.639L378.693,302.639z M378.346,299.993l-1.254,0.403l0.401,2.043l1.194,0.19
					C378.699,302.551,378.856,301.488,378.346,299.993L378.346,299.993z"/>
			</g>
			<polygon clip-path="url(#SVGID_4_)" fill="#7E7E7E" points="377.489,302.42 378.69,302.636 377.922,301.556 			"/>
			<g clip-path="url(#SVGID_4_)">
				<path fill="#010101" d="M378.701,302.642l-1.213-0.219l0.429-0.87L378.701,302.642L378.701,302.642z M377.918,301.559
					l-0.425,0.864l1.188,0.207L377.918,301.559L377.918,301.559z"/>
			</g>
			<path clip-path="url(#SVGID_4_)" fill="#F4EB33" d="M379.123,301.474l-1.224,0.082c-0.017,1.034-0.106,4.983-4.82,5.19
				l0.161,1.436C378.977,308.25,379.368,303.352,379.123,301.474L379.123,301.474z"/>
			<g clip-path="url(#SVGID_4_)">
				<path fill="#010101" d="M373.356,308.188L373.356,308.188h-0.116l-0.166-1.441c2.167-0.099,4.756-1.076,4.821-5.19l1.228-0.088
					c0.188,1.403-0.05,3.549-1.321,4.997C376.798,307.607,375.302,308.188,373.356,308.188L373.356,308.188z M379.118,301.474
					l-1.218,0.085c-0.061,4.117-2.655,5.097-4.821,5.193l0.166,1.43l0.111-0.003c1.943,0,3.437-0.58,4.439-1.719
					C379.064,305.014,379.301,302.868,379.118,301.474L379.118,301.474z"/>
			</g>
			<g clip-path="url(#SVGID_4_)">
				<polygon fill="#010101" points="374.703,308.482 373.259,308.167 374.705,308.474 374.703,308.482 				"/>
			</g>
			<path clip-path="url(#SVGID_4_)" fill="#469DC1" d="M369.306,308.326c-0.032,0.02-0.075,0.025-0.127,0.022l-0.227-0.011
				l0.021-0.284l0.225,0.011c0.044,0.003,0.081,0.012,0.103,0.025c0.044,0.023,0.064,0.066,0.06,0.129
				C369.358,308.272,369.34,308.307,369.306,308.326L369.306,308.326z M368.924,308.772l0.022-0.347l0.266,0.017
				c0.087,0.009,0.151-0.014,0.193-0.057c0.044-0.045,0.068-0.1,0.07-0.162c0.006-0.073-0.012-0.136-0.056-0.182
				c-0.042-0.04-0.101-0.062-0.178-0.071l-0.377-0.022l-0.053,0.815L368.924,308.772L368.924,308.772z"/>
			<path clip-path="url(#SVGID_4_)" fill="#469DC1" d="M369.749,308.09l0.278,0.004c0.041,0.002,0.072,0.008,0.095,0.02
				c0.044,0.02,0.064,0.06,0.064,0.116s-0.016,0.094-0.048,0.114c-0.03,0.02-0.073,0.031-0.125,0.031l-0.266-0.003L369.749,308.09
				L369.749,308.09z M369.745,308.812l0.002-0.347l0.262,0.003c0.046,0,0.078,0.002,0.102,0.014c0.039,0.018,0.059,0.054,0.06,0.105
				l0.007,0.139c0.002,0.031,0.002,0.052,0.004,0.065c0.004,0.012,0.006,0.021,0.01,0.028h0.141l-0.002-0.017
				c-0.016-0.009-0.03-0.025-0.034-0.052c-0.006-0.017-0.008-0.039-0.01-0.07l-0.002-0.108c-0.002-0.048-0.01-0.082-0.028-0.103
				c-0.018-0.02-0.04-0.039-0.074-0.051c0.038-0.022,0.068-0.045,0.09-0.074c0.019-0.033,0.031-0.073,0.031-0.122
				c0-0.094-0.039-0.159-0.117-0.192c-0.042-0.021-0.097-0.029-0.159-0.031l-0.392-0.004l-0.002,0.818h0.113V308.812z"/>
			<path clip-path="url(#SVGID_4_)" fill="#469DC1" d="M370.612,308.642c-0.048-0.06-0.077-0.137-0.083-0.228
				c-0.004-0.113,0.018-0.198,0.068-0.258c0.052-0.062,0.121-0.094,0.209-0.1c0.088-0.003,0.161,0.025,0.215,0.079
				c0.056,0.057,0.086,0.131,0.092,0.228c0.004,0.091-0.012,0.173-0.054,0.244c-0.042,0.071-0.111,0.111-0.214,0.113
				C370.743,308.727,370.665,308.701,370.612,308.642L370.612,308.642z M370.479,308.127c-0.053,0.08-0.075,0.174-0.068,0.287
				c0.008,0.122,0.046,0.222,0.117,0.299c0.078,0.076,0.185,0.116,0.314,0.107c0.137-0.006,0.241-0.06,0.312-0.153
				c0.059-0.088,0.084-0.19,0.079-0.312c-0.009-0.113-0.041-0.204-0.101-0.27c-0.077-0.091-0.188-0.131-0.338-0.125
				C370.65,307.969,370.545,308.02,370.479,308.127L370.479,308.127z"/>
			<path clip-path="url(#SVGID_4_)" fill="#469DC1" d="M374.323,306.948c0.078-0.012,0.147-0.009,0.209,0.012
				c0.09,0.031,0.153,0.097,0.191,0.201l-0.113,0.018c-0.024-0.058-0.06-0.097-0.106-0.117c-0.044-0.02-0.103-0.025-0.169-0.017
				c-0.077,0.012-0.137,0.051-0.181,0.11c-0.042,0.068-0.055,0.156-0.036,0.268c0.016,0.094,0.05,0.171,0.106,0.225
				c0.05,0.051,0.127,0.071,0.228,0.057c0.072-0.012,0.133-0.04,0.175-0.094c0.044-0.048,0.056-0.122,0.042-0.216l-0.262,0.039
				l-0.014-0.091l0.364-0.057l0.073,0.435l-0.073,0.012l-0.046-0.1c-0.03,0.046-0.061,0.08-0.087,0.1
				c-0.046,0.034-0.106,0.057-0.183,0.068c-0.099,0.014-0.189-0.003-0.27-0.055c-0.088-0.067-0.146-0.164-0.169-0.304
				c-0.024-0.134-0.002-0.247,0.061-0.338C374.123,307.017,374.208,306.965,374.323,306.948L374.323,306.948z"/>
			<path clip-path="url(#SVGID_4_)" fill="#469DC1" d="M375.149,306.886l0.261-0.094c0.036-0.015,0.068-0.02,0.094-0.015
				c0.048,0.003,0.084,0.031,0.104,0.089c0.019,0.048,0.019,0.091-0.003,0.122s-0.057,0.054-0.109,0.07l-0.246,0.089
				L375.149,306.886L375.149,306.886z M375.41,307.562l-0.127-0.327l0.243-0.088c0.046-0.015,0.077-0.023,0.101-0.021
				c0.044,0.006,0.077,0.031,0.099,0.08l0.054,0.125c0.012,0.031,0.022,0.051,0.03,0.06c0.004,0.011,0.012,0.017,0.018,0.025
				l0.133-0.048l-0.008-0.021c-0.02,0-0.039-0.009-0.053-0.031c-0.01-0.014-0.02-0.037-0.034-0.062l-0.042-0.103
				c-0.021-0.045-0.041-0.07-0.064-0.088c-0.022-0.014-0.053-0.022-0.086-0.022c0.028-0.031,0.046-0.062,0.055-0.1
				c0.008-0.037,0.003-0.079-0.015-0.125c-0.032-0.088-0.094-0.134-0.181-0.142c-0.046-0.003-0.099,0.008-0.159,0.028l-0.367,0.131
				l0.296,0.77l0.108-0.04L375.41,307.562z"/>
			<polygon clip-path="url(#SVGID_4_)" fill="#469DC1" points="376.368,307.155 375.901,306.477 376.415,306.15 376.471,306.232 
				376.05,306.499 376.195,306.707 376.583,306.46 376.636,306.539 376.248,306.786 376.407,307.017 376.833,306.744 
				376.89,306.823 376.368,307.155 			"/>
			<path clip-path="url(#SVGID_4_)" fill="#469DC1" d="M376.777,305.954l0.135-0.147c0.062-0.065,0.126-0.097,0.199-0.089
				c0.073,0.006,0.145,0.046,0.224,0.114c0.02,0.017,0.04,0.037,0.059,0.06c0.034,0.045,0.054,0.085,0.068,0.122
				c0.01,0.048,0.009,0.094-0.01,0.137c-0.01,0.022-0.028,0.048-0.054,0.076l-0.135,0.147l-0.485-0.423V305.954z M377.485,306.272
				c0.094-0.105,0.115-0.216,0.06-0.344c-0.032-0.068-0.082-0.137-0.15-0.193c-0.084-0.077-0.175-0.116-0.27-0.125
				c-0.104-0.006-0.193,0.031-0.27,0.116l-0.229,0.244l0.63,0.549l0.227-0.244L377.485,306.272z"/>
			<polygon clip-path="url(#SVGID_4_)" fill="#469DC1" points="377.972,305.639 377.248,305.213 377.306,305.119 378.032,305.542 
				377.972,305.639 			"/>
			<polygon clip-path="url(#SVGID_4_)" fill="#469DC1" points="378.256,305.145 377.475,304.832 377.704,304.28 377.799,304.317 
				377.612,304.77 377.847,304.863 378.022,304.445 378.112,304.482 377.94,304.9 378.204,305.008 378.395,304.548 378.491,304.584 
				378.256,305.145 			"/>
			<polygon clip-path="url(#SVGID_4_)" fill="#469DC1" points="378.616,304.184 377.793,304.002 377.819,303.874 378.58,303.615 
				377.912,303.468 377.936,303.368 378.759,303.548 378.732,303.67 377.972,303.934 378.641,304.076 378.616,304.184 			"/>
			<path clip-path="url(#SVGID_4_)" fill="#469DC1" d="M378.55,303.139l0.01-0.105c0.048,0.003,0.089-0.006,0.119-0.02
				c0.061-0.034,0.095-0.097,0.104-0.188c0.002-0.043,0.002-0.08-0.008-0.114c-0.019-0.067-0.057-0.104-0.119-0.11
				c-0.044-0.006-0.078,0.006-0.103,0.031c-0.021,0.028-0.043,0.068-0.061,0.128l-0.038,0.107c-0.024,0.068-0.046,0.12-0.07,0.146
				c-0.038,0.051-0.095,0.068-0.163,0.065c-0.075-0.009-0.137-0.04-0.18-0.097c-0.044-0.052-0.062-0.125-0.052-0.219
				c0.008-0.086,0.036-0.156,0.084-0.213c0.047-0.052,0.119-0.077,0.212-0.068l-0.008,0.104c-0.047,0-0.083,0.006-0.108,0.026
				c-0.047,0.025-0.073,0.082-0.081,0.161c-0.008,0.068,0.002,0.114,0.028,0.148c0.023,0.028,0.056,0.045,0.095,0.048
				c0.04,0.003,0.072-0.009,0.094-0.04c0.017-0.022,0.034-0.067,0.061-0.142l0.036-0.113c0.019-0.055,0.041-0.094,0.067-0.123
				c0.046-0.045,0.104-0.064,0.179-0.062c0.092,0.012,0.157,0.049,0.19,0.12c0.033,0.067,0.045,0.147,0.039,0.232
				c-0.013,0.1-0.044,0.179-0.103,0.23C378.715,303.127,378.641,303.145,378.55,303.139L378.55,303.139z"/>
			<path clip-path="url(#SVGID_4_)" fill="#469DC1" d="M361.49,303.087l0.018,0.103c-0.044,0.009-0.08,0.028-0.109,0.051
				c-0.048,0.046-0.063,0.114-0.048,0.205c0.008,0.04,0.022,0.076,0.04,0.107c0.037,0.062,0.085,0.089,0.143,0.077
				c0.046-0.006,0.075-0.022,0.089-0.054s0.024-0.08,0.026-0.143l0.006-0.113c0.004-0.071,0.01-0.128,0.026-0.159
				c0.026-0.057,0.072-0.091,0.143-0.103c0.075-0.011,0.141,0.003,0.198,0.046c0.056,0.04,0.094,0.107,0.108,0.201
				c0.018,0.083,0.01,0.156-0.024,0.225c-0.031,0.065-0.093,0.105-0.186,0.125l-0.018-0.104c0.044-0.018,0.076-0.031,0.097-0.052
				c0.036-0.042,0.048-0.1,0.034-0.182c-0.012-0.065-0.034-0.108-0.069-0.131c-0.032-0.022-0.066-0.034-0.102-0.028
				c-0.041,0.006-0.068,0.028-0.081,0.065c-0.008,0.025-0.014,0.074-0.021,0.153l-0.003,0.119c-0.004,0.055-0.012,0.103-0.033,0.134
				c-0.028,0.06-0.078,0.094-0.153,0.105c-0.092,0.017-0.165-0.006-0.215-0.065c-0.053-0.057-0.087-0.128-0.103-0.216
				c-0.018-0.103-0.004-0.183,0.038-0.247C361.333,303.142,361.398,303.102,361.49,303.087L361.49,303.087z"/>
			<polygon clip-path="url(#SVGID_4_)" fill="#469DC1" points="361.437,304.167 362.242,303.926 362.429,304.49 362.333,304.521 
				362.178,304.056 361.934,304.13 362.075,304.562 361.982,304.59 361.842,304.158 361.568,304.24 361.725,304.718 
				361.628,304.744 			"/>
			<path clip-path="url(#SVGID_4_)" fill="#469DC1" d="M361.795,305.15l0.739-0.393l0.081,0.137l-0.509,0.539l0.742-0.127
				l0.077,0.136l-0.739,0.393l-0.053-0.094l0.437-0.228c0.017-0.012,0.041-0.022,0.075-0.043c0.036-0.017,0.075-0.037,0.113-0.057
				l-0.739,0.125l-0.055-0.094l0.506-0.537l-0.024,0.012c-0.017,0.008-0.045,0.022-0.081,0.045
				c-0.037,0.021-0.064,0.034-0.083,0.043l-0.435,0.233l-0.053-0.094V305.15z"/>
			<path clip-path="url(#SVGID_4_)" fill="#469DC1" d="M363.174,306.241c-0.037-0.009-0.074-0.031-0.109-0.068l-0.157-0.162
				l0.209-0.193l0.159,0.162c0.03,0.028,0.051,0.06,0.061,0.082c0.014,0.049,0,0.094-0.044,0.137
				C363.252,306.235,363.212,306.249,363.174,306.241L363.174,306.241z M362.581,306.314l0.257-0.235l0.183,0.185
				c0.058,0.06,0.119,0.088,0.183,0.085s0.119-0.025,0.167-0.071c0.056-0.048,0.083-0.107,0.083-0.167
				c-0.002-0.062-0.028-0.116-0.081-0.168l-0.261-0.27l-0.612,0.562l0.079,0.079H362.581z"/>
			<polygon clip-path="url(#SVGID_4_)" fill="#469DC1" points="363.317,306.971 363.762,306.277 364.287,306.596 364.23,306.679 
				363.8,306.42 363.667,306.63 364.063,306.871 364.011,306.951 363.615,306.713 363.463,306.945 363.9,307.21 363.849,307.292 			
				"/>
			<path clip-path="url(#SVGID_4_)" fill="#469DC1" d="M364.631,306.838l0.268,0.085c0.036,0.011,0.064,0.025,0.083,0.042
				c0.034,0.031,0.042,0.077,0.024,0.134c-0.019,0.049-0.042,0.083-0.08,0.094c-0.037,0.006-0.079,0.006-0.131-0.009l-0.251-0.079
				L364.631,306.838L364.631,306.838z M364.402,307.522l0.111-0.333l0.247,0.08c0.044,0.011,0.077,0.028,0.093,0.045
				c0.03,0.025,0.04,0.068,0.024,0.119l-0.036,0.131c-0.009,0.031-0.013,0.055-0.017,0.065c0,0.009,0,0.021,0.002,0.026l0.131,0.042
				l0.008-0.017c-0.014-0.012-0.022-0.031-0.022-0.057c0.002-0.015,0.008-0.04,0.016-0.068l0.032-0.105
				c0.012-0.046,0.016-0.08,0.006-0.105c-0.011-0.028-0.026-0.051-0.055-0.073c0.042-0.006,0.077-0.021,0.109-0.043
				c0.028-0.025,0.052-0.06,0.066-0.108c0.03-0.088,0.014-0.161-0.052-0.216c-0.032-0.031-0.081-0.057-0.141-0.079l-0.373-0.113
				l-0.261,0.775l0.108,0.034H364.402z"/>
			<path clip-path="url(#SVGID_4_)" fill="#B17062" d="M365.53,293.396c0.097-0.233,0.989-0.863,3.913-0.588
				c0,0,0.495,0.304,0.785,0.264c0.165-0.022-0.097,0.009-0.314-0.17c-0.22-0.18-0.268-0.546,0.237-0.537
				c0.499,0.014,2.375,0.119,2.411,0.287c0.032,0.17-0.992,0.241-1.373,0.232c-0.382-0.011-0.338,0.182,0.043,0.168
				c1.191-0.043,2.489-0.46,3.864,0.509c0.163,0.119-0.415,0.139-0.862-0.052c0,0-1.211,0.062-1.734-0.025
				c0,0-0.402,0.33-0.926,0.296c0.068,0.17-0.193,0.804-1.841,0.326c-0.272,0.085-1.264,0.25-1.156-0.045
				c-0.261,0-0.72,0.085-0.787-0.062c-0.066-0.148,0.805-0.367,0.958-0.526c0,0-1.843,0.018-2.193-0.107
				C366.555,293.365,365.469,293.606,365.53,293.396L365.53,293.396z"/>
			<path clip-path="url(#SVGID_4_)" fill="#3A8841" d="M366.122,295.979c0.041-0.054,0.057-0.15,0.139-0.147
				c0.183,0.049,0.308,0.384,0.531,0.168c0.08-0.021,0.111,0.091,0.177,0.103c0.042,0.188,0.192-0.037,0.302-0.026
				c0.24-0.104,0.534-0.13,0.815-0.076c0.008,0.182-0.135,0.381-0.314,0.485c0.004,0.182,0.171,0.302,0.167,0.486
				c-0.028,0.068-0.004,0.176-0.108,0.198c-0.131-0.022-0.262-0.036-0.373-0.11c-0.012-0.015-0.024-0.04-0.052-0.031
				c-0.012,0.06,0.082,0.122,0.121,0.185c-0.066,0.113-0.175,0.012-0.268,0.012c-0.028,0.065-0.001,0.147-0.068,0.188
				c-0.117-0.003-0.141-0.131-0.213-0.193c-0.072,0.079,0.052,0.128,0.07,0.19c-0.046,0.241-0.04,0.475-0.28,0.631l-0.161,0.079
				c-0.044-0.119-0.016-0.301-0.046-0.429c-0.095,0.156-0.169,0.289-0.308,0.42c-0.164-0.051-0.258-0.244-0.294-0.403
				c-0.068-0.188-0.029-0.409,0.116-0.542c-0.048-0.097-0.219-0.077-0.244-0.214c-0.257-0.167-0.398,0.293-0.565,0.052
				c-0.052-0.222,0.012-0.497,0.173-0.665c-0.036-0.091-0.155-0.068-0.225-0.119c-0.163-0.137-0.395-0.281-0.383-0.528
				C365.273,295.521,365.8,295.644,366.122,295.979L366.122,295.979z"/>
			<path clip-path="url(#SVGID_4_)" fill="#F4EB33" d="M366.352,295.953c-0.01,0.202,0.137,0.055,0.246,0.18
				c-0.087-0.034-0.147,0.145-0.231,0.042l-0.052,0.052c0.03,0.067,0.09,0.076,0.028,0.153c-0.09,0.034-0.108-0.08-0.153-0.125
				c-0.006-0.021,0.015-0.058-0.018-0.071c-0.052,0.045-0.107,0.06-0.177,0.051c-0.02-0.037-0.058-0.088-0.02-0.119
				c0.07-0.094,0.179,0.034,0.231-0.031c0.01-0.06-0.042-0.131,0.024-0.17C366.275,295.922,366.333,295.896,366.352,295.953
				L366.352,295.953z"/>
			<path clip-path="url(#SVGID_4_)" fill="#F4EB33" d="M366.897,296.118c0.006,0.04-0.02,0.097,0.033,0.122
				c0.066-0.037,0.136-0.009,0.175,0.057c-0.002,0.037,0.01,0.083-0.037,0.1l-0.104-0.02c0.008-0.021-0.024-0.031-0.039-0.052
				c-0.044-0.014-0.073,0.023-0.104,0.046c0.024,0.037,0.084,0.06,0.07,0.11c-0.062,0.06-0.091-0.054-0.159-0.025
				c-0.044-0.017,0.017-0.11-0.055-0.139c-0.086,0-0.03,0.139-0.138,0.085c-0.039-0.046-0.077-0.105-0.034-0.153
				c0.044-0.031,0.123-0.022,0.16,0.017c0.067-0.073,0.073-0.357,0.234-0.147H366.897z"/>
			<path clip-path="url(#SVGID_4_)" fill="#F4EB33" d="M366.217,296.414c0.044,0.062-0.011,0.15,0.048,0.221
				c0.088-0.164,0.172,0.034,0.279,0.021c0.033,0.04,0.012,0.094,0.019,0.139c-0.133,0.034-0.29,0.077-0.405-0.028l-0.032,0.037
				c0.068,0.065,0.133,0.137,0.079,0.244c-0.099,0.021-0.25,0.023-0.298-0.076c-0.026-0.086,0.058-0.146-0.032-0.211
				c-0.065,0.08-0.062,0.188-0.198,0.114c-0.084-0.046-0.108-0.143-0.066-0.222c0.086-0.14,0.241,0.006,0.336-0.062
				c0.012-0.119-0.031-0.225,0.078-0.29c0.093-0.017,0.137,0.054,0.193,0.114H366.217z"/>
			<path clip-path="url(#SVGID_4_)" fill="#FFFFFF" d="M366.589,296.484c-0.045,0.202-0.198-0.008-0.268-0.017
				C366.416,296.297,366.477,296.521,366.589,296.484L366.589,296.484z"/>
			<path clip-path="url(#SVGID_4_)" fill="#FFFFFF" d="M367.062,296.706c-0.105,0.028-0.089-0.103-0.142-0.153l0.041-0.04
				C367,296.559,367.03,296.644,367.062,296.706L367.062,296.706z"/>
			<path clip-path="url(#SVGID_4_)" fill="#F4EB33" d="M366.919,296.664c0.03,0.07-0.068,0.127,0.016,0.179
				c0.026-0.022,0.061-0.054,0.073-0.065c0.074,0.02,0.157,0.031,0.207,0.105c0.055,0.147-0.094,0.145-0.181,0.185l-0.085-0.003
				c0.02-0.043-0.036-0.06-0.05-0.088c-0.039-0.009-0.07,0.002-0.092,0.036c0.018,0.094,0.133,0.168,0.014,0.25
				c-0.099-0.005-0.256,0.034-0.246-0.104c-0.039-0.08,0.101-0.199-0.048-0.205c-0.05,0.105-0.103,0.208-0.231,0.108l0.016-0.15
				c0.123,0.003,0.268,0.022,0.322-0.114c0.036-0.1-0.061-0.19,0.026-0.27C366.785,296.499,366.855,296.581,366.919,296.664
				L366.919,296.664z"/>
			<path clip-path="url(#SVGID_4_)" fill="#010101" d="M366.829,296.891c0.032,0.077-0.053,0.083-0.092,0.117
				c-0.055,0.005-0.093-0.015-0.125-0.052c-0.024-0.091,0.042-0.1,0.094-0.136C366.766,296.794,366.79,296.865,366.829,296.891
				L366.829,296.891z"/>
			<path clip-path="url(#SVGID_4_)" fill="#FFFFFF" d="M366.756,296.942c-0.014,0.017-0.032,0.011-0.053,0.017l-0.02-0.091
				C366.724,296.871,366.776,296.885,366.756,296.942L366.756,296.942z"/>
		</g>
	</g>
</g>
</svg>
