<?xml version="1.0" encoding="utf-8"?>
<!-- Generator: Adobe Illustrator 16.0.0, SVG Export Plug-In . SVG Version: 6.00 Build 0)  -->
<!DOCTYPE svg PUBLIC "-//W3C//DTD SVG 1.1//EN" "http://www.w3.org/Graphics/SVG/1.1/DTD/svg11.dtd">
<svg version="1.1" id="name" xmlns="http://www.w3.org/2000/svg" xmlns:xlink="http://www.w3.org/1999/xlink" x="0px" y="0px"
	 width="85.713px" height="50px" viewBox="358 276 85.713 50" enable-background="new 358 276 85.713 50" xml:space="preserve">
<g id="sy">
	<g>
		<defs>
			<rect id="SVGID_1_" x="358" y="276" width="85.713" height="50"/>
		</defs>
		<clipPath id="SVGID_2_">
			<use xlink:href="#SVGID_1_"  overflow="visible"/>
		</clipPath>
		<rect x="358" y="276" clip-path="url(#SVGID_2_)" fill="#FFFFFF" width="85.713" height="50"/>
		<rect x="358" y="276" clip-path="url(#SVGID_2_)" fill="#BD1F34" width="85.713" height="16.666"/>
		<polygon clip-path="url(#SVGID_2_)" fill="#419E61" points="415.855,295.584 417.072,299.328 421.008,299.326 417.824,301.641 
			419.039,305.38 415.855,303.067 412.674,305.38 413.889,301.641 410.703,299.326 414.639,299.326 		"/>
		<polygon clip-path="url(#SVGID_2_)" fill="#419E61" points="385.857,295.584 387.074,299.328 391.007,299.326 387.825,301.641 
			389.041,305.38 385.857,303.067 382.672,305.38 383.889,301.641 380.706,299.326 384.64,299.326 		"/>
		<rect x="358" y="309.335" clip-path="url(#SVGID_2_)" fill="#010101" width="85.713" height="16.665"/>
	</g>
</g>
</svg>
