<?xml version="1.0" encoding="utf-8"?>
<!-- Generator: Adobe Illustrator 16.0.0, SVG Export Plug-In . SVG Version: 6.00 Build 0)  -->
<!DOCTYPE svg PUBLIC "-//W3C//DTD SVG 1.1//EN" "http://www.w3.org/Graphics/SVG/1.1/DTD/svg11.dtd">
<svg version="1.1" id="name" xmlns="http://www.w3.org/2000/svg" xmlns:xlink="http://www.w3.org/1999/xlink" x="0px" y="0px"
	 width="85.711px" height="50px" viewBox="358 276 85.711 50" enable-background="new 358 276 85.711 50" xml:space="preserve">
<g id="sz">
	<g>
		<defs>
			<rect id="SVGID_1_" x="358" y="276" width="85.711" height="50"/>
		</defs>
		<clipPath id="SVGID_2_">
			<use xlink:href="#SVGID_1_"  overflow="visible"/>
		</clipPath>
		<rect x="358" y="276" clip-path="url(#SVGID_2_)" fill="#4D5DAA" width="85.711" height="50"/>
		<rect x="358" y="284.93" clip-path="url(#SVGID_2_)" fill="#F6D929" width="85.711" height="32.145"/>
		<rect x="358" y="288.501" clip-path="url(#SVGID_2_)" fill="#A11D21" width="85.711" height="24.999"/>
		<g clip-path="url(#SVGID_2_)">
			<defs>
				<rect id="SVGID_3_" x="358" y="276" width="85.711" height="50"/>
			</defs>
			<clipPath id="SVGID_4_">
				<use xlink:href="#SVGID_3_"  overflow="visible"/>
			</clipPath>
			<path clip-path="url(#SVGID_4_)" fill-rule="evenodd" clip-rule="evenodd" fill="#F6D929" d="M371.36,300.465h59.659
				c0.289,0,0.525,0.238,0.525,0.537c0,0.295-0.236,0.534-0.525,0.534H371.36c-0.294,0-0.529-0.239-0.529-0.534
				C370.832,300.703,371.066,300.465,371.36,300.465L371.36,300.465z"/>
			<g clip-path="url(#SVGID_4_)">
				<path fill="#010101" d="M431.02,301.604H371.36c-0.329,0-0.597-0.271-0.597-0.603c0-0.335,0.268-0.605,0.597-0.605h59.659
					c0.326,0,0.594,0.271,0.594,0.605C431.613,301.334,431.346,301.604,431.02,301.604L431.02,301.604z M371.36,300.533
					c-0.254,0-0.462,0.21-0.462,0.469s0.208,0.466,0.462,0.466h59.659c0.252,0,0.457-0.207,0.457-0.466s-0.205-0.469-0.457-0.469
					H371.36L371.36,300.533z"/>
			</g>
			<polygon clip-path="url(#SVGID_4_)" fill-rule="evenodd" clip-rule="evenodd" fill="#FFFFFF" points="424.961,295.285 
				421.928,296.356 424.961,297.428 427.996,296.356 			"/>
			<g clip-path="url(#SVGID_4_)">
				<path fill="#010101" d="M424.961,297.493l-3.213-1.137l3.193-1.125l3.234,1.125L424.961,297.493L424.961,297.493z
					 M422.104,296.356l2.857,1.009l2.859-1.009l-2.879-1.014L422.104,296.356L422.104,296.356z"/>
			</g>
			<path clip-path="url(#SVGID_4_)" fill-rule="evenodd" clip-rule="evenodd" fill="#F6D929" d="M379.101,296.002h43.864
				c0.215,0,0.389,0.159,0.389,0.354c0,0.199-0.174,0.358-0.389,0.358h-43.864c-0.217,0-0.389-0.159-0.389-0.358
				C378.712,296.161,378.884,296.002,379.101,296.002L379.101,296.002z"/>
			<g clip-path="url(#SVGID_4_)">
				<path fill="#010101" d="M422.965,296.777h-43.864c-0.249,0-0.452-0.19-0.452-0.421c0-0.229,0.203-0.417,0.452-0.417h43.864
					c0.25,0,0.451,0.188,0.451,0.417C423.416,296.587,423.215,296.777,422.965,296.777L422.965,296.777z M379.101,296.064
					c-0.18,0-0.326,0.131-0.326,0.292c0,0.162,0.146,0.293,0.326,0.293h43.864c0.18,0,0.326-0.131,0.326-0.293
					c0-0.161-0.146-0.292-0.326-0.292H379.101L379.101,296.064z"/>
			</g>
			<g clip-path="url(#SVGID_4_)">
				<path fill="#010101" d="M421.57,296.78v-0.128c0.141,0,0.295-0.15,0.295-0.296c0-0.142-0.154-0.292-0.295-0.292v-0.125
					c0.213,0,0.42,0.207,0.42,0.417C421.99,296.57,421.783,296.78,421.57,296.78L421.57,296.78z M422.283,296.777v-0.128
					c0.145,0,0.295-0.15,0.295-0.293c0-0.142-0.15-0.292-0.295-0.292v-0.125c0.213,0,0.424,0.207,0.424,0.417
					C422.707,296.57,422.496,296.777,422.283,296.777L422.283,296.777z M421.928,296.777v-0.128c0.143,0,0.293-0.15,0.293-0.293
					c0-0.142-0.15-0.292-0.293-0.292v-0.125c0.211,0,0.42,0.207,0.42,0.417C422.348,296.57,422.139,296.777,421.928,296.777
					L421.928,296.777z"/>
			</g>
			<polygon clip-path="url(#SVGID_4_)" fill-rule="evenodd" clip-rule="evenodd" fill="#FFFFFF" points="422.104,297.428 
				419.07,298.502 422.104,299.573 425.141,298.502 			"/>
			<g clip-path="url(#SVGID_4_)">
				<path fill="#010101" d="M422.104,299.636l-3.213-1.134l3.193-1.128l3.236,1.128L422.104,299.636L422.104,299.636z
					 M419.246,298.499l2.857,1.009l2.857-1.006l-2.877-1.018L419.246,298.499L419.246,298.499z"/>
			</g>
			<path clip-path="url(#SVGID_4_)" fill-rule="evenodd" clip-rule="evenodd" fill="#F6D929" d="M376.243,298.144h43.867
				c0.217,0,0.389,0.159,0.389,0.358c0,0.195-0.172,0.355-0.389,0.355h-43.867c-0.215,0-0.387-0.16-0.387-0.355
				C375.856,298.303,376.028,298.144,376.243,298.144L376.243,298.144z"/>
			<g clip-path="url(#SVGID_4_)">
				<path fill="#010101" d="M420.109,298.92h-43.867c-0.247,0-0.449-0.188-0.449-0.418c0-0.236,0.198-0.424,0.449-0.424h43.867
					c0.25,0,0.451,0.19,0.451,0.424C420.561,298.732,420.359,298.92,420.109,298.92L420.109,298.92z M376.243,298.206
					c-0.181,0-0.323,0.128-0.323,0.296c0,0.162,0.145,0.293,0.323,0.293h43.867c0.18,0,0.326-0.131,0.326-0.293
					c0-0.165-0.146-0.296-0.326-0.296H376.243L376.243,298.206z"/>
			</g>
			<g clip-path="url(#SVGID_4_)">
				<path fill="#010101" d="M419.424,298.92v-0.125c0.146,0,0.297-0.151,0.297-0.293c0-0.145-0.15-0.296-0.297-0.296v-0.128
					c0.215,0,0.424,0.211,0.424,0.424C419.848,298.712,419.639,298.92,419.424,298.92L419.424,298.92z M419.07,298.92v-0.125
					c0.141,0,0.291-0.151,0.291-0.293c0-0.145-0.15-0.296-0.291-0.296v-0.128c0.209,0,0.42,0.211,0.42,0.424
					C419.49,298.712,419.279,298.92,419.07,298.92L419.07,298.92z M418.711,298.92v-0.125c0.145,0,0.297-0.151,0.297-0.293
					c0-0.145-0.152-0.296-0.297-0.296v-0.128c0.213,0,0.422,0.211,0.422,0.424C419.133,298.712,418.924,298.92,418.711,298.92
					L418.711,298.92z"/>
			</g>
			<path clip-path="url(#SVGID_4_)" fill-rule="evenodd" clip-rule="evenodd" fill="#495CA4" d="M427.275,300.576
				c-0.543,0.935,0.416-0.312,2.75,1.256c0.432,0.292,0.807,1.06,0.807,1.596c-0.109-0.073-0.191-0.238-0.311-0.344
				c-0.17,0.171,0.16,0.946,0.211,1.312c-0.367-0.201-0.33-0.298-0.451-0.551c0.025,0.304-0.062,1.14,0.082,1.461
				c-0.287-0.083-0.27-0.312-0.418-0.358c0.1,0.363-0.092,0.759-0.039,1.168c-0.168-0.168-0.348-0.296-0.428-0.364
				c-0.01,0.196-0.32,0.708-0.328,0.893c-0.143-0.088-0.182-0.219-0.205-0.31c-0.176,0.222-0.805,1.042-0.848,1.292
				c-0.484-0.426-1.727-1.472-1.889-2.022c-0.145,0.312-0.35,0.421-0.758,0.647c-0.162-0.875-0.768-1.863-0.443-2.613
				c-0.23,0.133-0.418,0.27-0.648,0.438C424.578,302.803,425.684,301.312,427.275,300.576L427.275,300.576z"/>
			<g clip-path="url(#SVGID_4_)">
				<path fill="#010101" d="M428.133,307.719l-0.193-0.168c-0.566-0.494-1.623-1.412-1.775-1.935
					c-0.057,0.323-0.27,0.442-0.65,0.656l-0.061,0.031l-0.051-0.04c-0.051-0.284-0.15-0.577-0.248-0.869
					c-0.203-0.614-0.414-1.25-0.193-1.776c-0.156,0.19-0.338,0.324-0.562,0.486c0.154-1.427,1.361-2.878,2.855-3.571
					c0.018,0.142-0.1,0.341-0.078,0.375c0.002,0.003,0.016,0.017,0.119,0.017l0.266-0.005c0.297,0,1.191,0,2.49,0.872
					c0.434,0.295,0.828,1.073,0.828,1.636c-0.135-0.005-0.189-0.073-0.246-0.145c-0.043-0.057-0.092-0.116-0.143-0.165
					c-0.031,0.094,0.088,0.503,0.174,0.802c0.051,0.179,0.096,0.35,0.113,0.472c-0.314-0.103-0.395-0.193-0.449-0.315
					c0.004,0.054,0.004,0.113,0,0.176c-0.008,0.347-0.02,0.824,0.08,1.037c-0.238,0.009-0.312-0.1-0.369-0.185
					c-0.039-0.062-0.066-0.1-0.107-0.11c0.115,0.147,0.084,0.354,0.053,0.576c-0.027,0.176-0.057,0.361-0.033,0.54
					c-0.197-0.077-0.318-0.177-0.41-0.247l-0.094-0.077c0.074,0.077-0.008,0.253-0.09,0.438c-0.076,0.168-0.156,0.341-0.16,0.424
					c-0.234-0.062-0.275-0.219-0.297-0.302c-0.178,0.338-0.719,1.074-0.754,1.29L428.133,307.719L428.133,307.719z M426.166,305.585
					c0.234,0.503,1.316,1.442,1.836,1.895l0.074,0.065c0.139-0.366,0.824-1.23,0.832-1.241c0.105,0.099,0.137,0.222,0.268,0.301
					c-0.068-0.062,0.012-0.235,0.094-0.418c0.078-0.173,0.158-0.349,0.164-0.438l0.168,0.04c0.094,0.074,0.215,0.174,0.338,0.296
					c-0.105-0.156-0.076-0.347-0.049-0.528c0.031-0.211,0.061-0.409,0.01-0.598c0.135-0.033,0.178,0.031,0.219,0.092
					c0.051,0.082,0.107,0.167,0.258,0.213c-0.162-0.168-0.15-0.637-0.143-1.015c0.004-0.162,0.01-0.307,0-0.4l0.15,0.119
					c0.061,0.153,0.094,0.236,0.369,0.39c-0.084-0.074-0.133-0.239-0.182-0.412c-0.113-0.393-0.219-0.762-0.084-0.895
					c0.121,0.048,0.172,0.113,0.221,0.176c0.051,0.065,0.1,0.128,0.15,0.162c-0.074-0.497-0.449-1.239-0.863-1.518
					c-1.273-0.857-2.148-0.857-2.436-0.857l-0.266,0.005c-0.086,0-0.168-0.005-0.199-0.062c-0.043-0.067,0-0.164,0.139-0.403
					c-1.408,0.744-2.596,2.171-2.826,3.531c0.162-0.219,0.35-0.354,0.574-0.488c-0.143,0.551,0.062,1.171,0.26,1.768
					c0.1,0.298,0.199,0.597,0.254,0.881C425.842,305.979,426.033,305.874,426.166,305.585L426.166,305.585z"/>
			</g>
			<path clip-path="url(#SVGID_4_)" fill-rule="evenodd" clip-rule="evenodd" fill="#991B1F" d="M425.258,305.215
				c0.225-0.448,0.432-0.591,0.576-0.881c0.256-0.505,0.293-0.911,0.518-0.852s0.221,0.267-0.066,0.767
				C425.996,304.749,425.857,304.854,425.258,305.215L425.258,305.215z"/>
			<path clip-path="url(#SVGID_4_)" fill-rule="evenodd" clip-rule="evenodd" fill="#991B1F" d="M426.775,306.286
				c-0.029-0.344,0.07-0.485,0.053-0.704c-0.031-0.39-0.189-0.654,0.014-0.674c0.209-0.02,0.305,0.114,0.305,0.503
				C427.146,305.804,427.088,305.905,426.775,306.286L426.775,306.286z"/>
			<path clip-path="url(#SVGID_4_)" fill-rule="evenodd" clip-rule="evenodd" fill="#991B1F" d="M427.928,306.957
				c-0.09-0.478-0.023-0.69-0.08-0.997c-0.1-0.543-0.297-0.898-0.107-0.949c0.191-0.048,0.307,0.128,0.381,0.676
				C428.191,306.235,428.154,306.386,427.928,306.957L427.928,306.957z"/>
			<path clip-path="url(#SVGID_4_)" fill-rule="evenodd" clip-rule="evenodd" fill="#991B1F" d="M429.127,303.61
				c-0.281-0.214-0.445-0.228-0.629-0.364c-0.316-0.241-0.479-0.5-0.582-0.369c-0.105,0.125-0.031,0.268,0.305,0.488
				C428.557,303.59,428.67,303.604,429.127,303.61L429.127,303.61z"/>
			<path clip-path="url(#SVGID_4_)" fill-rule="evenodd" clip-rule="evenodd" fill="#991B1F" d="M428.928,305.198
				c-0.146-0.31-0.303-0.39-0.4-0.588c-0.168-0.347-0.168-0.648-0.352-0.571c-0.186,0.076-0.199,0.235-0.004,0.571
				C428.369,304.948,428.473,305.011,428.928,305.198L428.928,305.198z"/>
			<path clip-path="url(#SVGID_4_)" fill-rule="evenodd" clip-rule="evenodd" fill="#495CA4" d="M373.454,301.477
				c-0.031-0.271,0.028-0.305-0.141-0.509c0.244,0.103,0.253,0.372,0.551,0.179c0.108-0.057,0.156-0.057,0.024-0.36
				c0.31,0.014,1.324,0.363,1.487,0.372c0.426,0.017,1.205-0.449,1.746,0.125c0.519,0.525,0.346,1.071,0.346,1.796
				c-0.208-0.1-0.107-0.148-0.328-0.406c0.165,0.633-0.01,1.778-0.01,2.451c-0.085-0.161-0.072-0.094-0.155-0.261
				c-0.222,0.616-0.487,0.741-0.487,1.469c-0.081-0.287-0.003-0.225-0.091-0.375c-0.216,0.466-1.658,0.866-1.103,1.335
				c-0.501-0.296-0.722-0.265-0.95-0.528c-0.097,0.062-0.175,0.185-0.266,0.347c-0.882-0.403-0.568-1.278-1.259-1.864
				c-0.121,0.245-0.063,0.208-0.194,0.608c-0.139-0.554-0.178-0.906-0.334-1.312c-0.136,0.225-0.125,0.136-0.371,0.48
				c-0.103-0.677-0.27-0.836-0.203-1.282c-0.261,0.186-0.091,0.111-0.353,0.339C371.612,302.346,372.686,301.07,373.454,301.477
				L373.454,301.477z"/>
			<g clip-path="url(#SVGID_4_)">
				<path fill="#010101" d="M375.261,307.346c-0.206-0.119-0.363-0.185-0.494-0.238c-0.19-0.08-0.328-0.137-0.472-0.301
					c-0.001,0.064-0.075,0.182-0.161,0.335c-0.595-0.208-0.727-0.603-0.854-0.983c-0.103-0.301-0.206-0.613-0.503-0.863
					c0.034,0.11,0.024,0.153,0.003,0.241c-0.016,0.071-0.037,0.162-0.095,0.338l-0.07,0.214l-0.054-0.219
					c-0.048-0.193-0.084-0.361-0.118-0.518c-0.052-0.241-0.097-0.451-0.17-0.668c-0.03,0.04-0.052,0.068-0.083,0.1
					c-0.042,0.046-0.099,0.111-0.219,0.275l-0.091,0.128l-0.024-0.156c-0.042-0.264-0.091-0.448-0.134-0.603
					c-0.052-0.195-0.094-0.346-0.085-0.548c-0.028,0.022-0.037,0.037-0.048,0.054c-0.024,0.037-0.054,0.08-0.183,0.193l-0.129,0.111
					l0.024-0.171c0.232-1.628,1.264-2.975,2.08-2.69c-0.001-0.028-0.002-0.051-0.002-0.071c-0.004-0.122-0.006-0.165-0.115-0.298
					l-0.162-0.199l0.236,0.1c0.097,0.04,0.162,0.103,0.213,0.156c0.101,0.1,0.146,0.113,0.278,0.028
					c0.088-0.043,0.101-0.051,0.001-0.281l-0.043-0.094l0.104,0.006c0.188,0.009,0.601,0.128,0.963,0.232
					c0.229,0.065,0.463,0.134,0.524,0.137c0.099-0.009,0.277-0.034,0.429-0.068c0.456-0.103,1.028-0.139,1.36,0.216
					c0.428,0.436,0.405,0.884,0.377,1.409c-0.007,0.137-0.015,0.278-0.015,0.43v0.102l-0.092-0.045
					c-0.114-0.054-0.15-0.1-0.185-0.165c0.042,0.415,0.007,0.932-0.024,1.4c-0.02,0.275-0.037,0.54-0.037,0.753v0.262l-0.122-0.233
					c-0.037-0.07-0.054-0.094-0.07-0.116c-0.005-0.006-0.011-0.014-0.017-0.022c-0.062,0.15-0.125,0.27-0.183,0.384
					c-0.141,0.264-0.25,0.472-0.25,0.935v0.463l-0.125-0.446c-0.041-0.145-0.044-0.207-0.045-0.247c0-0.003,0-0.003,0-0.006
					c-0.126,0.153-0.348,0.296-0.565,0.435c-0.281,0.18-0.572,0.367-0.584,0.531c-0.004,0.06,0.03,0.12,0.104,0.183L375.261,307.346
					L375.261,307.346z M374.308,306.713c0.208,0.15,0.327,0.201,0.509,0.275c0.083,0.034,0.179,0.076,0.291,0.131
					c-0.004-0.021-0.005-0.043-0.004-0.065c0.016-0.23,0.321-0.424,0.643-0.631c0.254-0.162,0.517-0.33,0.592-0.494l0.051-0.111
					l0.062,0.105c0.001,0.003,0.003,0.006,0.004,0.009c0.045-0.245,0.135-0.412,0.231-0.594c0.073-0.14,0.152-0.29,0.226-0.498
					l0.051-0.142l0.066,0.136c0.016,0.035,0.028,0.055,0.039,0.074c0.007-0.168,0.019-0.352,0.033-0.545
					c0.04-0.589,0.084-1.253-0.025-1.677l-0.07-0.27l0.18,0.213c0.103,0.119,0.141,0.199,0.168,0.256
					c0.017,0.034,0.028,0.057,0.05,0.079c0.001-0.11,0.007-0.219,0.013-0.323c0.027-0.512,0.048-0.918-0.34-1.313
					c-0.3-0.317-0.815-0.275-1.243-0.179c-0.158,0.037-0.307,0.071-0.435,0.071c-0.099-0.003-0.284-0.057-0.579-0.14
					c-0.284-0.085-0.625-0.182-0.831-0.219c0.075,0.199,0.054,0.268-0.078,0.333c-0.213,0.133-0.32,0.082-0.412-0.003
					c0.004,0.034,0.006,0.068,0.007,0.108c0.001,0.045,0.003,0.099,0.01,0.17l0.014,0.119l-0.108-0.057
					c-0.638-0.335-1.661,0.696-1.963,2.363c0.012-0.014,0.017-0.025,0.024-0.033c0.031-0.046,0.055-0.077,0.196-0.177l0.122-0.085
					l-0.021,0.147c-0.039,0.256,0.004,0.409,0.066,0.646c0.036,0.125,0.076,0.275,0.111,0.469c0.067-0.088,0.105-0.131,0.139-0.168
					c0.043-0.049,0.073-0.08,0.14-0.188l0.066-0.111l0.047,0.12c0.104,0.27,0.156,0.514,0.219,0.807
					c0.02,0.091,0.04,0.185,0.062,0.284c0.012-0.04,0.019-0.071,0.026-0.1c0.021-0.091,0.034-0.145,0.105-0.29
					c0.423,0.253,0.533,0.583,0.639,0.901c0.125,0.372,0.243,0.721,0.703,0.935C374.12,306.902,374.203,306.78,374.308,306.713
					L374.308,306.713z"/>
			</g>
			<path clip-path="url(#SVGID_4_)" fill-rule="evenodd" clip-rule="evenodd" fill="#991B1F" d="M372.369,304.301
				c0.228-0.558,0.431-0.73,0.578-1.092c0.259-0.627,0.301-1.13,0.521-1.057c0.217,0.077,0.213,0.338-0.08,0.958
				C373.098,303.729,372.962,303.86,372.369,304.301L372.369,304.301z"/>
			<path clip-path="url(#SVGID_4_)" fill-rule="evenodd" clip-rule="evenodd" fill="#991B1F" d="M373.228,305.695
				c0.092-0.497,0.236-0.682,0.294-1.003c0.105-0.565,0.046-0.985,0.25-0.966c0.203,0.022,0.248,0.235,0.114,0.801
				C373.751,305.088,373.657,305.224,373.228,305.695L373.228,305.695z"/>
			<path clip-path="url(#SVGID_4_)" fill-rule="evenodd" clip-rule="evenodd" fill="#991B1F" d="M374.258,306.664
				c0.027-0.482,0.139-0.673,0.155-0.982c0.033-0.552-0.074-0.943,0.119-0.946c0.193,0,0.261,0.196,0.203,0.744
				C374.676,306.027,374.604,306.167,374.258,306.664L374.258,306.664z"/>
			<path clip-path="url(#SVGID_4_)" fill-rule="evenodd" clip-rule="evenodd" fill="#991B1F" d="M376.468,303.499
				c-0.423-0.42-0.678-0.5-0.95-0.772c-0.48-0.475-0.712-0.921-0.884-0.762c-0.17,0.156-0.068,0.396,0.438,0.847
				C375.576,303.264,375.754,303.332,376.468,303.499L376.468,303.499z"/>
			<path clip-path="url(#SVGID_4_)" fill-rule="evenodd" clip-rule="evenodd" fill="#991B1F" d="M376.211,305.127
				c-0.274-0.423-0.478-0.534-0.655-0.807c-0.313-0.478-0.42-0.89-0.599-0.787c-0.178,0.103-0.136,0.318,0.202,0.781
				C375.498,304.777,375.634,304.863,376.211,305.127L376.211,305.127z"/>
			<path clip-path="url(#SVGID_4_)" fill-rule="evenodd" clip-rule="evenodd" fill="#FFFFFF" d="M418.711,301.002
				c-3.57,3.568-8.332,10.714-17.856,10.714c-8.332,0-14.285-7.146-17.856-10.714c3.571-3.574,9.524-10.717,17.856-10.717
				C410.379,290.285,415.141,297.428,418.711,301.002L418.711,301.002z"/>
			<g clip-path="url(#SVGID_4_)">
				<path fill="#010101" d="M400.855,311.775c-7.491,0-13.037-5.725-16.707-9.515c-0.424-0.438-0.819-0.847-1.19-1.219
					c0.369-0.452,0.764-0.861,1.185-1.296c3.67-3.793,9.219-9.521,16.713-9.521c8.081,0,12.743,5.122,16.147,8.861
					c0.621,0.682,1.201,1.321,1.752,1.872c-0.551,0.637-1.133,1.273-1.756,1.958C413.596,306.655,408.932,311.775,400.855,311.775
					L400.855,311.775z M400.855,290.345c-7.443,0-12.972,5.708-16.626,9.483c-0.422,0.436-0.817,0.844-1.188,1.214
					c0.37,0.286,0.769,0.698,1.191,1.136c3.656,3.773,9.182,9.479,16.622,9.479c8.024,0,12.667-5.1,16.055-8.822
					c0.625-0.685,1.205-1.323,1.758-1.875c-0.551-0.469-1.133-1.107-1.754-1.789C413.523,295.445,408.881,290.345,400.855,290.345
					L400.855,290.345z"/>
			</g>
			<path clip-path="url(#SVGID_4_)" fill-rule="evenodd" clip-rule="evenodd" fill="#010101" d="M399.608,294.013
				c0.949,1.068,0.156,1.5,1.165,1.571c1.059,0.077,0.458,1.128,1.35,1.165c0.621,0.028-0.062,2.52,0.539,3.341
				c0.611,0.855,1.123,0.25,1.135,0.869c0.01,0.643-1.666,0.577-1.693,2.549c-0.053,1.137-1.416,1.21-1.481,1.943
				c-0.08,0.688,2.688,1.074,2.653,1.69c-0.039,0.613-2.991,0.517-3.119,1.216c-0.068,0.631,4.054,1.145,4.386,2.966
				c-0.617,0.202-2.363,0.39-3.688,0.393c-8.332,0.006-14.285-7.146-17.856-10.714c3.571-3.574,9.524-10.717,17.856-10.717
				C400.855,290.285,398.381,292.547,399.608,294.013L399.608,294.013z"/>
			
				<rect x="389.665" y="297.192" clip-path="url(#SVGID_4_)" fill-rule="evenodd" clip-rule="evenodd" fill="#FFFFFF" width="0.866" height="2.854"/>
			
				<rect x="389.665" y="301.954" clip-path="url(#SVGID_4_)" fill-rule="evenodd" clip-rule="evenodd" fill="#FFFFFF" width="0.866" height="2.854"/>
			
				<rect x="391.398" y="297.192" clip-path="url(#SVGID_4_)" fill-rule="evenodd" clip-rule="evenodd" fill="#FFFFFF" width="0.866" height="2.854"/>
			
				<rect x="391.398" y="301.954" clip-path="url(#SVGID_4_)" fill-rule="evenodd" clip-rule="evenodd" fill="#FFFFFF" width="0.866" height="2.854"/>
			
				<rect x="393.127" y="297.192" clip-path="url(#SVGID_4_)" fill-rule="evenodd" clip-rule="evenodd" fill="#FFFFFF" width="0.867" height="2.854"/>
			
				<rect x="393.127" y="301.954" clip-path="url(#SVGID_4_)" fill-rule="evenodd" clip-rule="evenodd" fill="#FFFFFF" width="0.867" height="2.854"/>
			
				<rect x="394.858" y="297.192" clip-path="url(#SVGID_4_)" fill-rule="evenodd" clip-rule="evenodd" fill="#FFFFFF" width="0.869" height="2.854"/>
			
				<rect x="394.858" y="301.954" clip-path="url(#SVGID_4_)" fill-rule="evenodd" clip-rule="evenodd" fill="#FFFFFF" width="0.869" height="2.854"/>
			
				<rect x="396.591" y="297.192" clip-path="url(#SVGID_4_)" fill-rule="evenodd" clip-rule="evenodd" fill="#FFFFFF" width="0.866" height="2.854"/>
			
				<rect x="396.591" y="301.954" clip-path="url(#SVGID_4_)" fill-rule="evenodd" clip-rule="evenodd" fill="#FFFFFF" width="0.866" height="2.854"/>
			
				<rect x="398.321" y="297.192" clip-path="url(#SVGID_4_)" fill-rule="evenodd" clip-rule="evenodd" fill="#FFFFFF" width="0.867" height="2.854"/>
			
				<rect x="398.321" y="301.954" clip-path="url(#SVGID_4_)" fill-rule="evenodd" clip-rule="evenodd" fill="#FFFFFF" width="0.867" height="2.854"/>
			
				<rect x="402.76" y="297.192" clip-path="url(#SVGID_4_)" fill-rule="evenodd" clip-rule="evenodd" fill="#010101" width="0.865" height="2.854"/>
			
				<rect x="402.76" y="301.954" clip-path="url(#SVGID_4_)" fill-rule="evenodd" clip-rule="evenodd" fill="#010101" width="0.865" height="2.854"/>
			
				<rect x="404.492" y="297.192" clip-path="url(#SVGID_4_)" fill-rule="evenodd" clip-rule="evenodd" fill="#010101" width="0.867" height="2.854"/>
			
				<rect x="404.492" y="301.954" clip-path="url(#SVGID_4_)" fill-rule="evenodd" clip-rule="evenodd" fill="#010101" width="0.867" height="2.854"/>
			
				<rect x="406.225" y="297.192" clip-path="url(#SVGID_4_)" fill-rule="evenodd" clip-rule="evenodd" fill="#010101" width="0.863" height="2.854"/>
			
				<rect x="406.225" y="301.954" clip-path="url(#SVGID_4_)" fill-rule="evenodd" clip-rule="evenodd" fill="#010101" width="0.863" height="2.854"/>
			
				<rect x="407.955" y="297.192" clip-path="url(#SVGID_4_)" fill-rule="evenodd" clip-rule="evenodd" fill="#010101" width="0.863" height="2.854"/>
			
				<rect x="407.955" y="301.954" clip-path="url(#SVGID_4_)" fill-rule="evenodd" clip-rule="evenodd" fill="#010101" width="0.863" height="2.854"/>
			
				<rect x="409.688" y="297.192" clip-path="url(#SVGID_4_)" fill-rule="evenodd" clip-rule="evenodd" fill="#010101" width="0.865" height="2.854"/>
			
				<rect x="409.688" y="301.954" clip-path="url(#SVGID_4_)" fill-rule="evenodd" clip-rule="evenodd" fill="#010101" width="0.865" height="2.854"/>
			
				<rect x="411.418" y="297.192" clip-path="url(#SVGID_4_)" fill-rule="evenodd" clip-rule="evenodd" fill="#010101" width="0.863" height="2.854"/>
			
				<rect x="411.418" y="301.954" clip-path="url(#SVGID_4_)" fill-rule="evenodd" clip-rule="evenodd" fill="#010101" width="0.863" height="2.854"/>
			<path clip-path="url(#SVGID_4_)" fill-rule="evenodd" clip-rule="evenodd" fill="#495CA4" d="M395.08,292.189
				c-0.494,0.957,0.866-0.318,3,1.283c0.396,0.296,0.963,1.472,0.963,2.018c-0.454-0.097-1.258-0.546-1.258-0.546
				s0.942,0.946,0.942,2.037c-0.332-0.21-0.5-0.176-0.61-0.435c0,0.355,0.296,0.577,0.296,1.122
				c-0.242-0.19-0.443-0.317-0.648-0.432c0.315,0.546-0.574,1.603-0.128,1.955c-0.778-0.111-1.573-0.608-1.889-1.153
				c-0.165,0.113-0.185,0.289-0.19,0.477c0.025,0.021-1.183-0.897-1.071-1.247c-0.162,0.228-0.188,0.35-0.222,0.605
				c-0.446-0.435-0.853-0.875-1-1.44c-0.196,0.259-0.207,0.259-0.406,0.514c-0.147-0.895-0.147-0.866,0.147-1.633
				c-0.21,0.139-0.381,0.275-0.591,0.448C392.614,294.465,393.625,292.941,395.08,292.189L395.08,292.189z"/>
			<g clip-path="url(#SVGID_4_)">
				<path fill="#010101" d="M397.804,299.266l-0.176-0.025c-0.784-0.113-1.595-0.61-1.921-1.179
					c-0.08,0.116-0.097,0.272-0.103,0.454c-0.085,0.061-0.676-0.46-0.857-0.659c-0.242-0.261-0.344-0.454-0.312-0.588
					c-0.068,0.25-0.092,0.369-0.125,0.614c-0.526-0.412-0.94-0.853-1.092-1.436c-0.017,0.151-0.07,0.214-0.125,0.281l-0.264,0.336
					l-0.022-0.14c-0.143-0.85-0.14-0.863,0.133-1.577c-0.116,0.146-0.287,0.282-0.494,0.452c0.14-1.46,1.244-2.946,2.611-3.656
					c-0.018,0.225-0.046,0.323-0.023,0.358c0.023,0.036,0.125,0.042,0.222,0.042l0.327-0.003c0.574,0,1.46,0.094,2.528,0.893
					c0.412,0.312,0.98,1.503,0.98,2.057c-0.409-0.04-0.986-0.321-1.225-0.446c0.267,0.219,0.909,1.021,0.909,1.938
					c-0.188-0.031-0.278-0.073-0.358-0.107c-0.102-0.049-0.185-0.085-0.25-0.159c0.043,0.079,0.08,0.162,0.117,0.25
					c0.082,0.182,0.176,0.392,0.176,0.704c-0.315-0.15-0.517-0.278-0.719-0.389c0.228,0.216,0.097,0.607-0.034,0.985
					c-0.125,0.375-0.244,0.728-0.04,0.89L397.804,299.266L397.804,299.266z M395.721,297.999c0.355,0.52,1.083,0.983,1.793,1.125
					c-0.125-0.219-0.014-0.543,0.105-0.887c0.119-0.357,0.244-0.732,0.104-0.978c0.271,0.049,0.475,0.18,0.72,0.373
					c-0.08-0.256-0.168-0.455-0.245-0.631c-0.067-0.148-0.13-0.287-0.13-0.455c0.158,0.134,0.238,0.171,0.389,0.239
					c0.082,0.036,0.179,0.082,0.296,0.153c-0.074-1.015-0.995-1.952-1.003-1.961c0.068-0.076,0.86,0.369,1.304,0.463
					c-0.06-0.474-0.613-1.639-1.003-1.932c-1.043-0.784-1.909-0.875-2.469-0.875l-0.327,0.006c-0.133,0-0.255-0.006-0.304-0.088
					c-0.045-0.071-0.02-0.182,0.085-0.387c-1.278,0.762-2.363,2.216-2.573,3.603c0.133-0.216,0.304-0.354,0.517-0.494l0.125-0.083
					l-0.074,0.193c-0.267,0.693-0.267,0.693-0.13,1.523l0.119-0.242c0.054-0.064,0.104-0.127,0.207-0.261
					c0.23,0.576,0.634,1.009,1.068,1.435c-0.043-0.228-0.017-0.361,0.15-0.6c0,0.307,0.9,1.065,1.14,1.236
					C395.517,298.314,395.537,298.124,395.721,297.999L395.721,297.999z"/>
			</g>
			<path clip-path="url(#SVGID_4_)" fill-rule="evenodd" clip-rule="evenodd" fill="#991B1F" d="M393.861,296.862
				c0.079-0.656,0.253-0.906,0.301-1.332c0.094-0.747-0.014-1.293,0.25-1.278c0.265,0.014,0.341,0.289,0.211,1.033
				C394.492,296.033,394.38,296.212,393.861,296.862L393.861,296.862z"/>
			<path clip-path="url(#SVGID_4_)" fill-rule="evenodd" clip-rule="evenodd" fill="#991B1F" d="M395.245,298.07
				c-0.055-0.555,0.048-0.793,0.014-1.151c-0.06-0.63-0.256-1.057-0.022-1.097c0.23-0.039,0.347,0.174,0.372,0.811
				C395.63,297.269,395.568,297.439,395.245,298.07L395.245,298.07z"/>
			<path clip-path="url(#SVGID_4_)" fill-rule="evenodd" clip-rule="evenodd" fill="#991B1F" d="M397.398,299.056
				c-0.236-0.483-0.435-0.625-0.588-0.935c-0.268-0.543-0.324-0.988-0.528-0.909c-0.208,0.082-0.196,0.31,0.102,0.844
				C396.682,298.59,396.818,298.697,397.398,299.056L397.398,299.056z"/>
			<path clip-path="url(#SVGID_4_)" fill-rule="evenodd" clip-rule="evenodd" fill="#991B1F" d="M398.142,294.746
				c-0.594-0.315-0.903-0.321-1.287-0.523c-0.679-0.352-1.073-0.752-1.21-0.531c-0.143,0.219,0.045,0.438,0.744,0.762
				C397.088,294.774,397.301,294.788,398.142,294.746L398.142,294.746z"/>
			<path clip-path="url(#SVGID_4_)" fill-rule="evenodd" clip-rule="evenodd" fill="#991B1F" d="M398.364,296.544
				c-0.435-0.36-0.693-0.414-0.975-0.647c-0.494-0.409-0.738-0.81-0.903-0.645c-0.165,0.162-0.054,0.375,0.463,0.761
				C397.466,296.399,397.645,296.447,398.364,296.544L398.364,296.544z"/>
		</g>
	</g>
</g>
</svg>
