<?xml version="1.0" encoding="utf-8"?>
<!-- Generator: Adobe Illustrator 16.0.0, SVG Export Plug-In . SVG Version: 6.00 Build 0)  -->
<!DOCTYPE svg PUBLIC "-//W3C//DTD SVG 1.1//EN" "http://www.w3.org/Graphics/SVG/1.1/DTD/svg11.dtd">
<svg version="1.1" id="name" xmlns="http://www.w3.org/2000/svg" xmlns:xlink="http://www.w3.org/1999/xlink" x="0px" y="0px"
	 width="85.713px" height="50px" viewBox="358 276 85.713 50" enable-background="new 358 276 85.713 50" xml:space="preserve">
<g id="tc">
	<g>
		<defs>
			<rect id="SVGID_1_" x="358" y="276" width="85.713" height="50"/>
		</defs>
		<clipPath id="SVGID_2_">
			<use xlink:href="#SVGID_1_"  overflow="visible"/>
		</clipPath>
		<rect x="358" y="276" clip-path="url(#SVGID_2_)" fill="#231E60" width="85.713" height="50"/>
		<g clip-path="url(#SVGID_2_)">
			<defs>
				<rect id="SVGID_3_" x="358" y="276" width="85.713" height="50"/>
			</defs>
			<clipPath id="SVGID_4_">
				<use xlink:href="#SVGID_3_"  overflow="visible"/>
			</clipPath>
			<path clip-path="url(#SVGID_4_)" fill="#FFFFFF" d="M430.066,292.908v6.082c0,4.995-1.963,9.569-7.783,12.348
				c-5.82-2.778-7.781-7.353-7.781-12.348v-6.082H430.066z"/>
			<g clip-path="url(#SVGID_4_)">
				<path fill="#010101" d="M422.283,311.36l-0.01-0.006c-5.17-2.469-7.793-6.628-7.793-12.364v-6.082l15.586-0.021l0.02,6.103
					c0,5.736-2.623,9.896-7.795,12.364L422.283,311.36L422.283,311.36z M430.045,292.908l-15.543,0.02l0.02,6.062
					c0,5.717,2.611,9.861,7.762,12.324c5.15-2.463,7.762-6.607,7.762-12.324V292.908L430.045,292.908z"/>
			</g>
			<path clip-path="url(#SVGID_4_)" fill="#F1C226" d="M429.541,293.527v5.674c0,4.659-1.828,8.924-7.258,11.518
				c-5.43-2.594-7.258-6.858-7.258-11.518v-5.674H429.541z"/>
			<g clip-path="url(#SVGID_4_)">
				<path fill="#010101" d="M422.283,310.738l-0.01-0.003c-4.82-2.304-7.268-6.185-7.268-11.534v-5.674l14.535-0.021l0.021,5.694
					c0,5.35-2.447,9.23-7.271,11.534L422.283,310.738L422.283,310.738z M429.525,293.527l-14.5,0.017l0.018,5.657
					c0,5.332,2.436,9.199,7.24,11.497c4.805-2.298,7.242-6.165,7.242-11.497V293.527L429.525,293.527z"/>
			</g>
			<path clip-path="url(#SVGID_4_)" fill="#F09C49" d="M418.902,296.013c-0.104-0.076-0.219-0.125-0.375-0.13
				c0.035-0.387-0.244-0.552-0.447-0.623c-0.201-0.068-0.271-0.147-0.307-0.307c-0.033-0.156-0.139-0.253-0.324-0.307
				c-0.184-0.051-0.34-0.233-0.41-0.324c-0.068-0.085-0.098-0.068-0.148,0.08c-0.055,0.147-0.264,0.429-0.07,0.438
				c-0.141,0.113-0.219,0.247-0.131,0.42c-0.098,0.08-0.166,0.193-0.037,0.236c0.133,0.045,0.168,0.079,0.176,0.116
				c-0.117,0-0.148,0.236,0.131,0.287c-0.061,0.012-0.086,0.202,0.027,0.202c-0.158,0-0.289,0.235-0.49,0.235
				s-0.307,0.046-0.316,0.131c-0.008,0.091-0.113,0.193-0.166,0.238c0.148,0.018,0.246,0,0.326-0.062
				c0.076-0.06,0.209-0.079,0.297-0.009c0.086,0.071,0.271,0.105,0.359,0.089c-0.193,0.13-0.332,0.307-0.35,0.472
				c-0.02,0.167-0.135,0.36-0.264,0.411c-0.131,0.055-0.309,0.193-0.369,0.358c0.166,0.415,0.402,0.514,0.639,0.622
				c0.422,0.193,0.684,0.335,0.859,0.525c0.174,0.193,0.246,0.055,0.508,0.387c0.264,0.332,0.508,0.963,0.771,1.068
				c0.262,0.104,0.594,0.034,0.787-0.299C419.771,299.937,419.893,296.575,418.902,296.013L418.902,296.013z"/>
			<g clip-path="url(#SVGID_4_)">
				<path fill="#010101" d="M419.023,300.621c-0.082,0-0.162-0.014-0.236-0.045c-0.17-0.068-0.324-0.336-0.488-0.62
					c-0.094-0.164-0.189-0.326-0.287-0.451c-0.15-0.19-0.234-0.222-0.314-0.256c-0.061-0.022-0.117-0.046-0.193-0.131
					c-0.17-0.188-0.432-0.327-0.855-0.522c-0.244-0.111-0.48-0.219-0.643-0.625c0.061-0.174,0.234-0.315,0.373-0.372
					c0.119-0.046,0.238-0.233,0.258-0.403c0.012-0.114,0.08-0.236,0.191-0.347c-0.092,0.116-0.162,0.238-0.174,0.349
					c-0.02,0.18-0.141,0.37-0.27,0.421c-0.135,0.051-0.303,0.19-0.363,0.353c0.162,0.392,0.383,0.494,0.619,0.602
					c0.441,0.202,0.705,0.344,0.877,0.535c0.072,0.079,0.129,0.102,0.186,0.125c0.08,0.031,0.17,0.067,0.324,0.261
					c0.098,0.125,0.193,0.29,0.287,0.455c0.156,0.267,0.318,0.545,0.479,0.61c0.281,0.113,0.607-0.003,0.777-0.295
					c0.143-0.248,0.229-2.092-0.086-3.256c-0.139-0.512-0.336-0.844-0.586-0.986c-0.115-0.085-0.23-0.125-0.371-0.131
					c0.025-0.378-0.23-0.545-0.449-0.619c-0.199-0.071-0.275-0.147-0.312-0.315c-0.035-0.153-0.135-0.247-0.318-0.298
					c-0.133-0.04-0.273-0.148-0.414-0.33c-0.088-0.051-0.111,0.012-0.135,0.077c-0.014,0.036-0.037,0.085-0.062,0.133
					c-0.033,0.068-0.07,0.14-0.082,0.193c-0.006-0.062,0.031-0.131,0.066-0.198c0.025-0.049,0.047-0.097,0.062-0.134
					c0.031-0.091,0.053-0.14,0.088-0.14c0.215,0.233,0.352,0.341,0.482,0.378c0.189,0.054,0.295,0.153,0.33,0.315
					c0.037,0.159,0.109,0.233,0.301,0.299c0.184,0.064,0.488,0.229,0.451,0.631c0.129,0,0.256,0.033,0.373,0.125
					c0.254,0.142,0.453,0.477,0.594,0.994c0.324,1.195,0.232,3.014,0.084,3.272C419.457,300.496,419.252,300.621,419.023,300.621
					L419.023,300.621z M416.902,296.724c-0.109,0-0.213-0.031-0.273-0.08c-0.074-0.062-0.205-0.054-0.285,0.009
					c-0.061,0.048-0.133,0.068-0.232,0.068l-0.053-0.009c0.156-0.012,0.219-0.034,0.275-0.074c0.084-0.067,0.227-0.076,0.309-0.008
					c0.072,0.057,0.209,0.088,0.299,0.088C416.938,296.727,416.916,296.724,416.902,296.724L416.902,296.724z M416.029,296.703
					l-0.021-0.003c0.072-0.062,0.154-0.159,0.164-0.232c0.008-0.091,0.119-0.14,0.324-0.14c0.105,0,0.188-0.062,0.27-0.125
					c0.062-0.048,0.121-0.094,0.184-0.107c-0.029-0.006-0.047-0.037-0.051-0.08c-0.004-0.054,0.02-0.119,0.061-0.125
					c-0.166-0.011-0.232-0.11-0.225-0.193c0.004-0.057,0.043-0.094,0.094-0.094c-0.016-0.02-0.041-0.054-0.178-0.096l-0.078-0.074
					c-0.008-0.049,0.033-0.117,0.111-0.18c-0.051-0.091-0.055-0.179-0.006-0.267c-0.029,0.094-0.025,0.179,0.02,0.27
					c-0.074,0.068-0.113,0.131-0.105,0.174c0.201,0.103,0.236,0.14,0.244,0.179c-0.047,0.012-0.078,0.046-0.084,0.091
					c-0.006,0.074,0.055,0.162,0.209,0.19c-0.025,0.023-0.047,0.074-0.043,0.125c0,0.023,0.012,0.077,0.068,0.077
					c-0.002,0-0.008,0.003-0.01,0.003c-0.068,0.02-0.131,0.068-0.199,0.122c-0.084,0.062-0.172,0.131-0.281,0.131
					c-0.195,0-0.299,0.039-0.307,0.122C416.18,296.564,416.07,296.669,416.029,296.703L416.029,296.703z"/>
			</g>
			<path clip-path="url(#SVGID_4_)" fill="#F08E81" d="M419.352,294.612c-0.246,0.262-0.561,0.525-0.51,1
				c0.055,0.472,0.105,1.241-0.332,1.506c-0.438,0.262-0.648,0.926-0.123,1.312c0.527,0.384,0.543,0.858,0.631,1.296
				s0.316,0.789,0.666,0.491c0.35,0.051,0.543-0.088,0.543-0.366c0-0.281,0.016-0.44,0.281-0.525c0.26-0.092,0.33-0.177,0.453-0.415
				c0.123-0.233,0.193-0.341,0.123-0.48s-0.098-0.429-0.043-0.64c0.051-0.21-0.07-0.323-0.143-0.454
				c-0.068-0.131-0.094-0.247-0.061-0.421c0.035-0.176-0.053-0.289-0.174-0.377c-0.123-0.089-0.178-0.174-0.148-0.315
				c0.025-0.14-0.088-0.228-0.219-0.333c-0.133-0.105-0.229-0.244-0.229-0.454C420.068,295.226,419.666,294.737,419.352,294.612
				L419.352,294.612z"/>
			<g clip-path="url(#SVGID_4_)">
				<path fill="#010101" d="M419.436,300.337c-0.189,0-0.35-0.228-0.428-0.607l-0.031-0.168c-0.068-0.39-0.141-0.79-0.594-1.122
					c-0.215-0.156-0.326-0.378-0.314-0.619c0.012-0.281,0.184-0.561,0.436-0.711c0.416-0.25,0.389-0.975,0.33-1.497
					c-0.047-0.426,0.205-0.69,0.428-0.921l0.082-0.085c0.338,0.125,0.734,0.616,0.734,0.83c0,0.182,0.074,0.326,0.225,0.448
					c0.137,0.108,0.248,0.199,0.221,0.342c-0.025,0.127,0.016,0.213,0.146,0.307c0.152,0.107,0.209,0.229,0.178,0.383
					c-0.037,0.186-0.004,0.296,0.061,0.415c0.115,0.185,0.184,0.293,0.141,0.463c-0.053,0.216-0.021,0.5,0.043,0.634
					c0.066,0.131,0.014,0.23-0.092,0.43c-0.148,0.289-0.221,0.386-0.49,0.477c-0.262,0.086-0.275,0.244-0.275,0.518
					c0,0.122-0.035,0.219-0.107,0.284c-0.094,0.091-0.242,0.119-0.445,0.091C419.602,300.3,419.516,300.337,419.436,300.337
					L419.436,300.337z M419.346,294.624l-0.068,0.082c-0.234,0.238-0.473,0.485-0.426,0.903c0.059,0.528,0.088,1.262-0.338,1.515
					c-0.246,0.15-0.414,0.423-0.428,0.696c-0.006,0.167,0.041,0.408,0.307,0.604c0.461,0.335,0.531,0.742,0.604,1.131l0.031,0.171
					c0.105,0.525,0.361,0.729,0.65,0.482c0.225,0.023,0.346-0.003,0.438-0.085c0.068-0.065,0.102-0.156,0.102-0.272
					c0-0.273,0.014-0.446,0.285-0.537c0.266-0.088,0.332-0.176,0.451-0.406c0.133-0.253,0.184-0.35,0.123-0.472
					c-0.066-0.137-0.1-0.429-0.045-0.647c0.041-0.162-0.027-0.265-0.09-0.367c-0.113-0.201-0.148-0.32-0.113-0.508
					c0.031-0.146-0.023-0.262-0.17-0.367c-0.135-0.097-0.178-0.19-0.15-0.326c0.021-0.131-0.086-0.216-0.211-0.315
					c-0.162-0.131-0.236-0.281-0.236-0.469C420.061,295.231,419.66,294.743,419.346,294.624L419.346,294.624z"/>
			</g>
			<path clip-path="url(#SVGID_4_)" fill="#E09AC4" d="M419.447,300.331c0.586-0.15,0.535-1.113,0.445-1.517
				c-0.088-0.4-0.312-0.978-0.141-1.435c0.246-0.648-0.297-1.262-0.156-1.506c0.139-0.245,0.121-0.378,0.105-0.455
				c-0.018-0.079-0.15-0.142-0.156,0.026c-0.012,0.167-0.055,0.227-0.16,0.332s-0.078,0.332,0,0.588
				c0.08,0.253,0.244,0.64-0.018,1.145c-0.262,0.509-0.154,0.736-0.051,0.975C419.473,298.852,419.85,300.13,419.447,300.331
				L419.447,300.331z"/>
			<g clip-path="url(#SVGID_4_)">
				<path fill="#010101" d="M419.365,300.359l0.076-0.036c0.4-0.199,0.008-1.503-0.133-1.836c-0.105-0.241-0.207-0.479,0.051-0.979
					c0.238-0.461,0.123-0.812,0.039-1.071c-0.115-0.369-0.115-0.571-0.02-0.665c0.104-0.105,0.145-0.165,0.154-0.326
					c0.006-0.1,0.053-0.114,0.072-0.114c0.045,0.003,0.094,0.037,0.104,0.085c0.021,0.092,0.027,0.228-0.105,0.464
					c-0.055,0.097,0,0.253,0.07,0.454c0.105,0.296,0.234,0.665,0.088,1.049c-0.137,0.363-0.02,0.81,0.074,1.17
					c0.025,0.091,0.049,0.18,0.066,0.262c0.08,0.372,0.156,1.369-0.453,1.525L419.365,300.359L419.365,300.359z M419.611,295.348
					c-0.002,0-0.004,0-0.004,0c-0.031,0.004-0.053,0.037-0.055,0.098c-0.008,0.17-0.055,0.229-0.16,0.338
					c-0.09,0.091-0.09,0.284,0,0.579c0.104,0.315,0.225,0.688-0.016,1.153c-0.256,0.494-0.16,0.716-0.059,0.952
					c0.148,0.344,0.512,1.546,0.186,1.835c0.531-0.198,0.457-1.131,0.381-1.485c-0.018-0.08-0.041-0.168-0.064-0.262
					c-0.098-0.36-0.215-0.812-0.076-1.179c0.145-0.381,0.016-0.744-0.088-1.037c-0.072-0.205-0.129-0.366-0.07-0.472
					c0.148-0.259,0.119-0.39,0.105-0.449C419.684,295.383,419.645,295.348,419.611,295.348L419.611,295.348z M416.691,298.422
					c-0.012,0-0.023-0.002-0.035-0.002l0.002-0.021c0.078,0.015,0.133-0.017,0.17-0.091c0.033-0.068,0.055-0.111,0.145-0.113
					c0.1-0.006,0.227-0.034,0.254-0.097c0.119-0.062,0.178-0.08,0.234-0.188c0.115-0.253,0.191-0.421,0.4-0.486
					c-0.195,0.083-0.27,0.244-0.344,0.403c-0.1,0.208-0.166,0.228-0.215,0.242c-0.098,0.125-0.291,0.142-0.33,0.142
					c-0.078,0.006-0.094,0.037-0.119,0.088C416.811,298.385,416.76,298.422,416.691,298.422L416.691,298.422z M417.002,296.731
					l-0.012-0.014c0.057-0.057,0.152-0.103,0.242-0.147c0.113-0.058,0.229-0.117,0.266-0.186c-0.023,0.083-0.137,0.14-0.256,0.202
					C417.152,296.63,417.059,296.678,417.002,296.731L417.002,296.731z M417.355,296.135c-0.039,0-0.086-0.005-0.139-0.011
					c-0.074-0.009-0.156-0.015-0.23-0.015v-0.017c0.072-0.006,0.156,0.006,0.232,0.014c0.109,0.009,0.213,0.021,0.23-0.014
					C417.445,296.124,417.41,296.135,417.355,296.135L417.355,296.135z M418.08,296.127c0.037-0.119,0.16-0.253,0.447-0.253v0.02
					C418.25,295.894,418.133,296.019,418.08,296.127L418.08,296.127z M417.939,296.019c0.014-0.068-0.01-0.1-0.043-0.142
					c-0.035-0.046-0.08-0.105-0.053-0.217c0.041-0.167,0.045-0.189-0.107-0.232c-0.082-0.022-0.082-0.076-0.082-0.139
					c0-0.068,0.002-0.146-0.096-0.223c-0.047-0.033-0.057-0.079-0.068-0.119c-0.02-0.065-0.037-0.128-0.166-0.167l0.006-0.021
					c0.139,0.046,0.158,0.117,0.178,0.182c0.01,0.04,0.021,0.08,0.062,0.111c0.104,0.079,0.104,0.168,0.104,0.236
					c0,0.062,0,0.102,0.068,0.119c0.166,0.048,0.162,0.079,0.119,0.258c-0.023,0.103,0.016,0.154,0.051,0.199
					C417.945,295.908,417.977,295.947,417.939,296.019L417.939,296.019z"/>
			</g>
			<path clip-path="url(#SVGID_4_)" fill="#45A847" d="M423.604,302.235c0.1,0.145-0.002,0.298,0.166,0.36
				c0.195,0.074,0.025,0.332,0.256,0.426c0.207,0.08,0.002,0.327,0.225,0.438c0.201,0.103-0.033,0.333,0.232,0.467
				c0.266,0.133-0.049,0.432,0.15,0.548s-0.066,0.415,0.164,0.531c0.232,0.116-0.1,0.35,0.117,0.515
				c0.215,0.164-0.049,0.414,0.166,0.565c0.215,0.147-0.133,0.349,0.084,0.562c0.164,0.167-0.061,0.329,0.066,0.582
				c0.082,0.165-0.084,0.829-0.551,0.765c-0.164,0.281-0.812,0.531-1.043,0.448c-0.234,0.165-0.98,0.398-1.363,0.031
				c-0.381,0.367-1.129,0.134-1.359-0.031c-0.234,0.083-0.881-0.167-1.047-0.448c-0.465,0.064-0.631-0.6-0.547-0.765
				c0.125-0.253-0.1-0.415,0.066-0.582c0.215-0.214-0.133-0.415,0.082-0.562c0.217-0.151-0.049-0.401,0.166-0.565
				c0.217-0.165-0.117-0.398,0.117-0.515c0.232-0.116-0.035-0.415,0.166-0.531c0.199-0.116-0.117-0.415,0.148-0.548
				c0.266-0.134,0.033-0.364,0.232-0.467c0.223-0.11,0.018-0.357,0.225-0.438c0.232-0.094,0.061-0.352,0.256-0.426
				c0.172-0.062,0.062-0.222,0.172-0.366C421.445,302.423,422.975,302.562,423.604,302.235L423.604,302.235z"/>
			<g clip-path="url(#SVGID_4_)">
				<path fill="#010101" d="M422.836,308.679c-0.24,0-0.432-0.068-0.568-0.196c-0.285,0.299-1.088,0.162-1.359-0.034
					c-0.133,0.077-0.635-0.079-0.893-0.284c0.291,0.193,0.727,0.333,0.895,0.268c0.238,0.164,1.041,0.344,1.357,0.037
					c0.34,0.295,1.094,0.156,1.363-0.034c0.287,0.073,0.883-0.174,1.041-0.446l0,0c0.264,0,0.383-0.128,0.449-0.236
					c0.111-0.182,0.146-0.429,0.102-0.517c-0.062-0.128-0.043-0.233-0.021-0.324c0.02-0.094,0.037-0.173-0.045-0.256
					c-0.113-0.116-0.074-0.224-0.041-0.32c0.031-0.094,0.061-0.174-0.041-0.242c-0.113-0.079-0.098-0.185-0.086-0.286
					c0.014-0.103,0.025-0.199-0.078-0.281c-0.115-0.086-0.084-0.19-0.057-0.284c0.025-0.095,0.049-0.174-0.059-0.228
					c-0.127-0.062-0.115-0.176-0.1-0.287c0.012-0.1,0.021-0.193-0.068-0.247c-0.098-0.054-0.078-0.156-0.059-0.253
					c0.021-0.111,0.045-0.225-0.09-0.293c-0.146-0.073-0.146-0.179-0.146-0.272c0.002-0.079,0.002-0.147-0.086-0.193
					c-0.117-0.057-0.123-0.156-0.123-0.244c-0.002-0.082-0.006-0.156-0.102-0.193c-0.125-0.051-0.137-0.15-0.148-0.238
					c-0.01-0.083-0.02-0.153-0.107-0.185c-0.104-0.04-0.111-0.114-0.117-0.19c-0.004-0.06-0.012-0.116-0.051-0.177
					c-0.303,0.165-0.801,0.202-1.162,0.202l0,0c-0.562,0-1.189-0.088-1.488-0.204c-0.033,0.057-0.039,0.119-0.045,0.179
					c-0.01,0.076-0.016,0.15-0.119,0.19c-0.088,0.031-0.098,0.102-0.109,0.185c-0.008,0.088-0.021,0.188-0.146,0.238
					c-0.098,0.037-0.098,0.111-0.1,0.193c-0.004,0.088-0.006,0.188-0.125,0.244c-0.086,0.046-0.086,0.114-0.086,0.193
					c0,0.094,0,0.199-0.146,0.272c-0.135,0.068-0.111,0.182-0.09,0.293c0.021,0.097,0.041,0.199-0.059,0.253
					c-0.092,0.054-0.08,0.147-0.068,0.247c0.014,0.111,0.029,0.225-0.098,0.287c-0.109,0.054-0.086,0.133-0.061,0.228
					c0.027,0.094,0.059,0.198-0.055,0.284c-0.104,0.082-0.092,0.179-0.08,0.281c0.014,0.102,0.025,0.207-0.086,0.286
					c-0.102,0.068-0.072,0.148-0.041,0.239c0.033,0.1,0.074,0.207-0.041,0.323c-0.082,0.083-0.064,0.162-0.045,0.256
					c0.02,0.091,0.043,0.196-0.02,0.324c-0.045,0.088-0.012,0.335,0.1,0.517c0.066,0.108,0.184,0.236,0.375,0.236
					c0.002,0.003,0.006,0.006,0.008,0.008c-0.221-0.005-0.334-0.13-0.396-0.235c-0.119-0.19-0.152-0.44-0.104-0.534
					c0.061-0.122,0.039-0.222,0.02-0.31c-0.02-0.097-0.039-0.188,0.049-0.275c0.105-0.105,0.072-0.205,0.037-0.304
					c-0.033-0.094-0.064-0.186,0.047-0.262c0.104-0.071,0.092-0.168,0.082-0.268c-0.016-0.102-0.027-0.21,0.084-0.295
					c0.104-0.08,0.076-0.176,0.049-0.268c-0.025-0.094-0.055-0.188,0.07-0.25c0.113-0.057,0.102-0.158,0.088-0.267
					c-0.012-0.103-0.025-0.205,0.078-0.265c0.086-0.051,0.068-0.136,0.047-0.235c-0.021-0.111-0.047-0.239,0.102-0.312
					c0.139-0.068,0.137-0.165,0.135-0.253c0-0.08,0-0.162,0.098-0.213c0.107-0.055,0.109-0.14,0.113-0.228
					c0.002-0.082,0.006-0.171,0.111-0.213c0.115-0.046,0.127-0.134,0.139-0.222c0.008-0.08,0.02-0.165,0.119-0.202
					c0.09-0.031,0.098-0.094,0.105-0.173c0.006-0.06,0.012-0.125,0.059-0.19c0.311,0.113,0.932,0.199,1.494,0.199
					c0.359,0,0.854-0.034,1.164-0.196c0.055,0.065,0.061,0.131,0.066,0.188c0.01,0.079,0.014,0.139,0.105,0.173
					c0.1,0.037,0.111,0.122,0.121,0.202c0.01,0.088,0.021,0.176,0.137,0.222c0.107,0.042,0.109,0.131,0.111,0.213
					c0.004,0.085,0.006,0.173,0.113,0.228c0.098,0.051,0.098,0.133,0.098,0.213c0,0.088,0,0.185,0.137,0.253
					c0.146,0.073,0.121,0.201,0.098,0.312c-0.02,0.1-0.035,0.185,0.051,0.235c0.102,0.06,0.09,0.162,0.074,0.265
					c-0.01,0.108-0.023,0.21,0.092,0.267c0.123,0.062,0.096,0.156,0.068,0.25c-0.025,0.092-0.055,0.188,0.049,0.268
					c0.113,0.085,0.1,0.193,0.086,0.295c-0.014,0.1-0.023,0.196,0.08,0.268c0.111,0.076,0.08,0.168,0.047,0.264
					c-0.035,0.097-0.068,0.196,0.037,0.302c0.088,0.088,0.068,0.179,0.049,0.275c-0.018,0.088-0.041,0.188,0.02,0.31
					c0.049,0.097,0.016,0.347-0.102,0.534c-0.07,0.114-0.193,0.247-0.391,0.247c-0.227,0.268-0.883,0.525-1.113,0.443
					C423.486,308.56,423.15,308.679,422.836,308.679L422.836,308.679z"/>
			</g>
			<path clip-path="url(#SVGID_4_)" fill="#F1C226" d="M421.148,303.104c0,0.073,0,0.147-0.07,0.241
				c-0.148,0.196,0.066,0.299-0.098,0.515c-0.166,0.213,0.033,0.347-0.15,0.531c-0.182,0.182,0.033,0.349-0.15,0.548
				c-0.182,0.199,0.035,0.33-0.148,0.515c-0.182,0.182,0.033,0.381-0.148,0.562s0.033,0.417-0.166,0.631
				c-0.199,0.216,0.031,0.383-0.133,0.548c-0.166,0.168-0.018,0.332-0.133,0.449c0.197-0.148,0.197-0.384,0.348-0.497
				c0.15-0.117-0.051-0.284,0.033-0.367c0.084-0.082,0.018-0.432,0.166-0.597c0.15-0.167,0.018-0.5,0.15-0.613
				c0.131-0.116,0.031-0.466,0.199-0.582c0.166-0.117,0-0.398,0.133-0.549c0.131-0.147,0-0.381,0.131-0.562
				c0.135-0.185,0.008-0.35,0.1-0.5C421.254,303.312,421.254,302.832,421.148,303.104L421.148,303.104z"/>
			<g clip-path="url(#SVGID_4_)">
				<path fill="#010101" d="M419.955,307.652l-0.01-0.014c0.049-0.051,0.047-0.111,0.045-0.179
					c-0.004-0.083-0.006-0.177,0.086-0.271c0.076-0.076,0.066-0.147,0.055-0.235c-0.014-0.091-0.029-0.196,0.078-0.312
					c0.1-0.108,0.094-0.219,0.088-0.33c-0.008-0.104-0.014-0.21,0.08-0.301c0.088-0.088,0.078-0.179,0.07-0.275
					s-0.018-0.193,0.076-0.29c0.09-0.088,0.082-0.162,0.072-0.241c-0.008-0.083-0.016-0.168,0.078-0.271
					c0.09-0.1,0.08-0.188,0.072-0.275c-0.01-0.088-0.018-0.182,0.078-0.275c0.09-0.088,0.084-0.168,0.078-0.25
					s-0.014-0.171,0.07-0.281c0.082-0.105,0.068-0.182,0.053-0.262c-0.016-0.073-0.029-0.15,0.045-0.253
					c0.07-0.091,0.07-0.164,0.07-0.232v-0.009l0.062-0.085c0.057,0.076,0.049,0.323,0.018,0.372
					c-0.041,0.065-0.037,0.137-0.035,0.21c0.004,0.091,0.01,0.188-0.064,0.287c-0.066,0.091-0.066,0.193-0.066,0.29
					c0,0.104,0,0.201-0.068,0.275c-0.059,0.071-0.057,0.168-0.051,0.264c0.004,0.108,0.01,0.223-0.082,0.287
					c-0.086,0.061-0.1,0.186-0.111,0.305c-0.012,0.113-0.023,0.219-0.088,0.275c-0.062,0.054-0.062,0.159-0.064,0.27
					c-0.004,0.125-0.006,0.256-0.086,0.344c-0.082,0.091-0.096,0.242-0.109,0.375c-0.01,0.1-0.018,0.185-0.055,0.225
					c-0.033,0.031-0.018,0.077,0.002,0.134c0.025,0.073,0.053,0.162-0.037,0.229c-0.068,0.055-0.104,0.131-0.143,0.214
					C420.117,307.463,420.064,307.57,419.955,307.652L419.955,307.652z M421.211,303.036c-0.053,0.14-0.053,0.216-0.125,0.315
					c-0.07,0.091-0.057,0.162-0.041,0.235c0.014,0.08,0.031,0.165-0.059,0.278c-0.078,0.103-0.072,0.186-0.066,0.268
					c0.008,0.085,0.014,0.168-0.084,0.264c-0.088,0.089-0.078,0.171-0.07,0.259c0.008,0.091,0.018,0.188-0.078,0.29
					c-0.09,0.097-0.08,0.176-0.072,0.256c0.008,0.079,0.018,0.162-0.076,0.259c-0.088,0.088-0.08,0.179-0.072,0.275
					c0.008,0.094,0.016,0.196-0.078,0.29c-0.086,0.085-0.08,0.185-0.074,0.286c0.006,0.114,0.014,0.23-0.092,0.344
					c-0.1,0.108-0.088,0.205-0.074,0.296c0.012,0.088,0.023,0.17-0.059,0.253c-0.088,0.085-0.084,0.17-0.082,0.256
					c0.002,0.048,0.004,0.094-0.014,0.133c0.072-0.067,0.113-0.153,0.152-0.235c0.039-0.085,0.076-0.165,0.148-0.219
					c0.078-0.062,0.053-0.137,0.029-0.21c-0.02-0.06-0.039-0.114,0.002-0.153c0.033-0.034,0.041-0.117,0.051-0.214
					c0.012-0.136,0.027-0.286,0.113-0.383c0.076-0.086,0.078-0.211,0.08-0.333c0.002-0.116,0.006-0.225,0.072-0.284
					c0.059-0.051,0.068-0.153,0.08-0.261c0.014-0.125,0.027-0.256,0.119-0.321c0.082-0.057,0.078-0.162,0.074-0.271
					c-0.004-0.099-0.008-0.201,0.057-0.275c0.066-0.07,0.066-0.164,0.066-0.264s0-0.208,0.066-0.299
					c0.07-0.1,0.066-0.19,0.062-0.278c-0.004-0.076-0.008-0.15,0.037-0.219C421.232,303.329,421.24,303.09,421.211,303.036
					L421.211,303.036z"/>
			</g>
			<path clip-path="url(#SVGID_4_)" fill="#F1C226" d="M421.627,303.312c-0.115,0.216,0.084,0.265-0.066,0.48
				c-0.148,0.216,0.082,0.384-0.082,0.6c-0.166,0.216,0.082,0.329-0.066,0.548c-0.148,0.216,0.066,0.33-0.066,0.497
				c-0.135,0.165,0.1,0.333-0.066,0.531c-0.168,0.199,0.066,0.35-0.068,0.531c-0.131,0.183,0.053,0.381-0.064,0.531
				c-0.117,0.148,0.082,0.364-0.084,0.562c-0.166,0.199,0.033,0.333-0.066,0.466c0.199-0.064,0.125-0.341,0.199-0.397
				s-0.025-0.44,0.092-0.54c0.115-0.099-0.076-0.406,0.033-0.539c0.184-0.225,0.025-0.372,0.133-0.549
				c0.107-0.173-0.041-0.397,0.043-0.514c0.139-0.199-0.064-0.378,0.039-0.523c0.15-0.207-0.027-0.378,0.076-0.514
				c0.156-0.208-0.018-0.415,0.049-0.523C421.727,303.852,421.834,303.386,421.627,303.312L421.627,303.312z"/>
			<g clip-path="url(#SVGID_4_)">
				<path fill="#010101" d="M420.971,308.076l0.018-0.022c0.041-0.054,0.029-0.111,0.014-0.174c-0.02-0.082-0.043-0.176,0.053-0.292
					c0.088-0.105,0.072-0.214,0.055-0.318c-0.014-0.088-0.025-0.174,0.029-0.244c0.053-0.068,0.041-0.151,0.027-0.236
					c-0.018-0.097-0.031-0.196,0.039-0.295c0.061-0.086,0.043-0.159,0.021-0.239c-0.021-0.091-0.045-0.185,0.045-0.292
					c0.086-0.103,0.062-0.196,0.041-0.284c-0.02-0.083-0.039-0.165,0.025-0.247c0.061-0.077,0.045-0.14,0.027-0.214
					c-0.02-0.079-0.041-0.167,0.039-0.284c0.07-0.102,0.049-0.182,0.025-0.261c-0.021-0.086-0.047-0.174,0.041-0.29
					c0.082-0.105,0.064-0.199,0.045-0.296c-0.018-0.094-0.037-0.19,0.037-0.301c0.076-0.108,0.059-0.173,0.043-0.241
					c-0.018-0.065-0.033-0.131,0.023-0.239c0.061,0.015,0.096,0.055,0.115,0.111c0.062,0.173-0.016,0.466-0.064,0.548
					c-0.027,0.04-0.016,0.097,0,0.162c0.02,0.105,0.045,0.233-0.053,0.361c-0.043,0.057-0.033,0.122-0.021,0.198
					c0.016,0.094,0.031,0.199-0.051,0.315c-0.047,0.062-0.031,0.134-0.012,0.213c0.021,0.094,0.047,0.199-0.031,0.311
					c-0.035,0.051-0.025,0.125-0.012,0.21c0.014,0.097,0.031,0.207-0.029,0.304c-0.045,0.074-0.041,0.143-0.039,0.216
					c0.006,0.097,0.012,0.205-0.094,0.333c-0.051,0.062-0.031,0.17-0.014,0.272c0.021,0.11,0.041,0.216-0.02,0.267
					c-0.062,0.055-0.062,0.193-0.061,0.318c0.002,0.105,0.002,0.193-0.033,0.222c-0.025,0.02-0.031,0.071-0.039,0.128
					c-0.014,0.103-0.033,0.23-0.164,0.272L420.971,308.076L420.971,308.076z M421.623,303.32c-0.043,0.094-0.025,0.159-0.01,0.222
					c0.02,0.068,0.035,0.139-0.045,0.256c-0.07,0.102-0.053,0.19-0.035,0.286c0.02,0.097,0.039,0.199-0.047,0.312
					c-0.082,0.105-0.061,0.186-0.037,0.271c0.021,0.082,0.047,0.167-0.029,0.275c-0.076,0.11-0.057,0.19-0.037,0.271
					c0.02,0.076,0.037,0.145-0.031,0.229c-0.059,0.074-0.041,0.15-0.021,0.23c0.021,0.091,0.047,0.193-0.045,0.301
					c-0.084,0.103-0.062,0.185-0.039,0.275c0.02,0.08,0.039,0.165-0.025,0.256c-0.066,0.091-0.051,0.188-0.037,0.281
					c0.014,0.088,0.027,0.177-0.029,0.25c-0.053,0.065-0.039,0.146-0.027,0.23c0.016,0.104,0.037,0.222-0.057,0.332
					c-0.092,0.108-0.07,0.193-0.051,0.276c0.014,0.057,0.027,0.11-0.002,0.164c0.098-0.048,0.115-0.156,0.125-0.247
					c0.01-0.062,0.016-0.113,0.047-0.14c0.029-0.022,0.027-0.11,0.027-0.207c-0.002-0.128-0.006-0.272,0.064-0.332
					c0.053-0.046,0.035-0.146,0.016-0.247c-0.02-0.108-0.039-0.222,0.018-0.29c0.1-0.122,0.094-0.222,0.09-0.318
					c-0.006-0.076-0.008-0.15,0.041-0.228c0.057-0.091,0.039-0.198,0.025-0.295c-0.012-0.083-0.023-0.165,0.016-0.222
					c0.074-0.103,0.053-0.202,0.029-0.296c-0.02-0.079-0.037-0.156,0.012-0.228c0.08-0.11,0.064-0.213,0.051-0.301
					c-0.012-0.076-0.023-0.147,0.025-0.213c0.092-0.122,0.068-0.241,0.047-0.344c-0.014-0.071-0.027-0.131,0.002-0.179
					c0.049-0.077,0.123-0.364,0.064-0.528C421.699,303.371,421.668,303.334,421.623,303.32L421.623,303.32z"/>
			</g>
			<path clip-path="url(#SVGID_4_)" fill="#F1C226" d="M422.273,303.493c-0.115,0.29,0.084,0.403,0.018,0.637
				c-0.064,0.23,0.084,0.403-0.018,0.653c-0.1,0.253,0.135,0.443,0,0.773c-0.133,0.326,0.088,0.408,0,0.732
				c-0.1,0.375,0.168,0.574,0,0.841c-0.166,0.265,0.191,0.353,0.018,0.631c-0.084,0.134,0.008,0.475,0.141,0.065
				c0.133-0.406-0.1-0.455,0.018-0.622c0.115-0.165-0.041-0.605,0.008-0.838c0.051-0.233-0.117-0.549-0.008-0.796
				c0.107-0.25-0.166-0.518-0.059-0.73c0.107-0.216-0.051-0.482,0.051-0.656c0.098-0.176-0.076-0.406-0.033-0.508
				C422.449,303.576,422.365,303.209,422.273,303.493L422.273,303.493z"/>
			<g clip-path="url(#SVGID_4_)">
				<path fill="#010101" d="M422.314,308.031L422.271,308c-0.029-0.055-0.031-0.177,0.012-0.245
					c0.084-0.134,0.039-0.222-0.008-0.312s-0.094-0.182-0.01-0.318c0.086-0.136,0.055-0.253,0.02-0.389
					c-0.031-0.125-0.068-0.268-0.02-0.449c0.039-0.15,0.014-0.247-0.014-0.341c-0.029-0.11-0.057-0.216,0.014-0.392
					c0.07-0.174,0.037-0.308,0.006-0.435c-0.027-0.114-0.053-0.219-0.006-0.339c0.055-0.13,0.033-0.244,0.018-0.354
					c-0.016-0.094-0.031-0.19,0-0.302c0.027-0.1,0.006-0.179-0.02-0.261c-0.031-0.103-0.062-0.211,0.002-0.373
					c0.023-0.076,0.049-0.113,0.078-0.113c0.08,0.088,0.098,0.241,0.072,0.304c-0.018,0.037,0.004,0.097,0.023,0.168
					c0.031,0.105,0.07,0.233,0.008,0.338c-0.045,0.083-0.033,0.188-0.02,0.299c0.014,0.122,0.029,0.244-0.029,0.357
					c-0.051,0.103-0.012,0.216,0.029,0.341c0.043,0.128,0.086,0.259,0.029,0.39c-0.061,0.14-0.033,0.298-0.008,0.454
					c0.021,0.123,0.039,0.236,0.018,0.342c-0.021,0.099-0.006,0.238,0.012,0.375c0.023,0.182,0.045,0.369-0.021,0.466
					c-0.049,0.07-0.033,0.116-0.01,0.188c0.029,0.085,0.068,0.204-0.006,0.435C422.396,307.963,422.354,308.031,422.314,308.031
					L422.314,308.031z M422.344,303.408c-0.021,0-0.039,0.022-0.061,0.088c-0.062,0.156-0.031,0.262-0.002,0.361
					c0.025,0.085,0.049,0.167,0.018,0.275c-0.027,0.103-0.014,0.193,0.002,0.29c0.02,0.113,0.037,0.228-0.018,0.366
					c-0.047,0.113-0.02,0.216,0.006,0.324c0.031,0.125,0.066,0.267-0.006,0.445c-0.07,0.171-0.041,0.273-0.012,0.381
					c0.025,0.097,0.055,0.196,0.012,0.353c-0.047,0.176-0.012,0.315,0.021,0.438c0.035,0.142,0.066,0.262-0.021,0.403
					c-0.08,0.128-0.037,0.21,0.008,0.301c0.049,0.092,0.098,0.188,0.008,0.333c-0.039,0.06-0.039,0.176-0.01,0.225l0.025,0.02
					c0.012,0,0.053-0.011,0.109-0.188c0.072-0.222,0.033-0.338,0.006-0.421c-0.025-0.07-0.041-0.125,0.012-0.204
					c0.062-0.091,0.041-0.275,0.02-0.452c-0.016-0.139-0.035-0.281-0.014-0.38c0.023-0.103,0.004-0.216-0.018-0.336
					c-0.025-0.159-0.051-0.32,0.012-0.466c0.051-0.122,0.01-0.253-0.033-0.378c-0.041-0.122-0.08-0.241-0.025-0.353
					c0.053-0.107,0.039-0.229,0.025-0.346c-0.014-0.114-0.025-0.222,0.023-0.311c0.057-0.099,0.021-0.219-0.01-0.323
					c-0.023-0.074-0.043-0.14-0.023-0.182c0.023-0.055,0.006-0.202-0.031-0.259C422.359,303.411,422.352,303.408,422.344,303.408
					L422.344,303.408z"/>
			</g>
			<path clip-path="url(#SVGID_4_)" fill="#DA1E3A" d="M423.52,302.431c0-1.875-0.266-2.522-1.246-2.522
				c-0.979,0-1.244,0.647-1.244,2.522H423.52z"/>
			<g clip-path="url(#SVGID_4_)">
				<path fill="#010101" d="M422.283,308.477c0.027-0.145,0.006-0.244-0.02-0.344c-0.025-0.105-0.053-0.216,0.02-0.375
					c0.062-0.145,0.021-0.232-0.02-0.318c-0.043-0.091-0.084-0.176,0.002-0.315c0.086-0.136,0.055-0.253,0.02-0.389
					c-0.031-0.125-0.068-0.268-0.02-0.449c0.039-0.15,0.014-0.247-0.014-0.341c-0.029-0.11-0.057-0.216,0.014-0.392
					c0.07-0.174,0.037-0.308,0.006-0.435c-0.027-0.114-0.053-0.219-0.006-0.339c0.053-0.13,0.033-0.244,0.018-0.354
					c-0.016-0.094-0.031-0.19,0-0.302c0.027-0.1,0.006-0.179-0.02-0.261c-0.031-0.103-0.062-0.211,0.002-0.373
					c0.061-0.15,0.033-0.304,0.008-0.466c-0.021-0.153-0.047-0.31-0.008-0.479l0.018,0.006c-0.041,0.164-0.016,0.317,0.01,0.471
					c0.027,0.165,0.053,0.321-0.01,0.475c-0.062,0.156-0.031,0.262-0.002,0.361c0.025,0.085,0.049,0.167,0.018,0.275
					c-0.027,0.103-0.014,0.193,0,0.293c0.021,0.11,0.037,0.225-0.016,0.363c-0.047,0.113-0.02,0.216,0.006,0.324
					c0.031,0.125,0.066,0.267-0.006,0.445c-0.07,0.171-0.043,0.273-0.012,0.381c0.025,0.097,0.053,0.196,0.012,0.353
					c-0.047,0.176-0.012,0.315,0.021,0.438c0.035,0.142,0.066,0.262-0.021,0.403c-0.082,0.134-0.047,0.21-0.004,0.299
					c0.041,0.085,0.088,0.182,0.02,0.335c-0.066,0.15-0.041,0.253-0.016,0.363C422.305,308.229,422.33,308.332,422.283,308.477
					L422.283,308.477z M423.686,308.386c-0.002-0.088-0.068-0.228-0.141-0.321c-0.047-0.062-0.031-0.122-0.016-0.189
					c0.021-0.083,0.041-0.168-0.051-0.276c-0.092-0.11-0.074-0.228-0.057-0.332c0.012-0.085,0.025-0.165-0.025-0.23
					c-0.061-0.073-0.045-0.162-0.031-0.25c0.016-0.094,0.031-0.19-0.037-0.281c-0.064-0.091-0.043-0.176-0.023-0.256
					c0.021-0.091,0.043-0.173-0.041-0.275c-0.092-0.107-0.066-0.21-0.045-0.301c0.02-0.08,0.039-0.156-0.021-0.23
					c-0.068-0.085-0.049-0.153-0.031-0.229c0.02-0.08,0.041-0.16-0.037-0.271c-0.074-0.108-0.051-0.193-0.027-0.275
					c0.021-0.085,0.045-0.165-0.037-0.271c-0.088-0.113-0.068-0.216-0.049-0.312c0.02-0.096,0.035-0.185-0.033-0.286
					c-0.084-0.117-0.062-0.188-0.047-0.256c0.016-0.062,0.031-0.128-0.021-0.228c-0.059-0.107-0.035-0.179-0.016-0.244
					c0.021-0.068,0.041-0.128-0.033-0.219c-0.076-0.091-0.055-0.165-0.031-0.238c0.018-0.052,0.033-0.108,0.012-0.174h-1.143
					c-0.021,0.065-0.004,0.119,0.012,0.174c0.021,0.073,0.045,0.147-0.031,0.238c-0.074,0.091-0.055,0.15-0.033,0.219
					c0.02,0.065,0.043,0.137-0.016,0.244c-0.055,0.1-0.037,0.165-0.021,0.228c0.02,0.068,0.035,0.139-0.045,0.256
					c-0.07,0.102-0.053,0.19-0.035,0.286c0.02,0.097,0.039,0.199-0.047,0.312c-0.082,0.105-0.061,0.186-0.037,0.271
					c0.021,0.082,0.047,0.167-0.029,0.275c-0.076,0.11-0.057,0.19-0.037,0.271c0.02,0.076,0.037,0.145-0.031,0.229
					c-0.059,0.074-0.041,0.15-0.021,0.23c0.021,0.091,0.047,0.193-0.045,0.301c-0.084,0.103-0.062,0.185-0.039,0.275
					c0.02,0.08,0.039,0.165-0.025,0.256c-0.066,0.091-0.051,0.188-0.037,0.281c0.014,0.088,0.027,0.177-0.031,0.25
					c-0.051,0.065-0.037,0.146-0.025,0.23c0.016,0.104,0.037,0.222-0.057,0.332c-0.092,0.108-0.07,0.193-0.051,0.276
					c0.016,0.067,0.029,0.127-0.016,0.189c-0.07,0.094-0.139,0.233-0.121,0.315c-0.037-0.085,0.031-0.228,0.105-0.326
					c0.041-0.054,0.029-0.108,0.014-0.174c-0.02-0.082-0.043-0.176,0.053-0.292c0.088-0.105,0.072-0.214,0.055-0.318
					c-0.014-0.088-0.025-0.174,0.029-0.244c0.053-0.068,0.041-0.151,0.025-0.236c-0.016-0.097-0.031-0.199,0.041-0.295
					c0.061-0.086,0.043-0.159,0.021-0.239c-0.021-0.091-0.045-0.185,0.045-0.292c0.086-0.103,0.062-0.196,0.041-0.284
					c-0.02-0.083-0.039-0.165,0.025-0.247c0.061-0.077,0.045-0.14,0.027-0.214c-0.02-0.079-0.041-0.167,0.039-0.284
					c0.07-0.102,0.049-0.182,0.025-0.261c-0.021-0.086-0.047-0.174,0.041-0.29c0.082-0.105,0.064-0.199,0.045-0.296
					c-0.018-0.094-0.037-0.19,0.037-0.301c0.076-0.108,0.059-0.173,0.043-0.241c-0.018-0.065-0.033-0.131,0.023-0.239
					c0.055-0.099,0.033-0.167,0.014-0.229c-0.023-0.071-0.043-0.137,0.037-0.236c0.068-0.085,0.049-0.15,0.027-0.222
					c-0.018-0.054-0.033-0.11-0.014-0.179h-0.357c-0.004,0.031,0,0.062,0.004,0.094c0.008,0.085,0.016,0.174-0.078,0.284
					c-0.094,0.113-0.094,0.193-0.094,0.278c0,0.077,0,0.156-0.072,0.256c-0.07,0.091-0.057,0.162-0.041,0.235
					c0.014,0.08,0.031,0.165-0.059,0.278c-0.078,0.103-0.072,0.186-0.066,0.268c0.008,0.085,0.014,0.168-0.084,0.264
					c-0.088,0.089-0.078,0.171-0.07,0.259c0.008,0.091,0.018,0.188-0.078,0.29c-0.09,0.097-0.08,0.176-0.072,0.256
					c0.008,0.079,0.018,0.162-0.076,0.259c-0.088,0.088-0.08,0.179-0.072,0.275c0.008,0.094,0.016,0.196-0.078,0.29
					c-0.086,0.085-0.08,0.185-0.074,0.286c0.006,0.114,0.014,0.23-0.092,0.344c-0.1,0.108-0.088,0.205-0.074,0.296
					c0.012,0.088,0.023,0.17-0.059,0.253c-0.088,0.085-0.084,0.17-0.082,0.256c0.002,0.067,0.006,0.136-0.051,0.19
					c-0.109,0.11-0.131,0.267-0.082,0.338c-0.07-0.068-0.047-0.233,0.07-0.35c0.049-0.051,0.047-0.111,0.045-0.179
					c-0.004-0.083-0.006-0.177,0.086-0.271c0.076-0.076,0.066-0.147,0.055-0.235c-0.014-0.091-0.029-0.196,0.078-0.312
					c0.1-0.108,0.094-0.219,0.088-0.327c-0.008-0.107-0.014-0.213,0.08-0.304c0.088-0.088,0.078-0.179,0.07-0.275
					s-0.018-0.193,0.076-0.29c0.09-0.088,0.082-0.162,0.072-0.241c-0.008-0.083-0.016-0.168,0.078-0.271
					c0.09-0.1,0.08-0.188,0.072-0.275c-0.01-0.088-0.018-0.182,0.078-0.275c0.09-0.088,0.084-0.168,0.078-0.25
					s-0.014-0.171,0.07-0.281c0.082-0.105,0.068-0.182,0.053-0.262c-0.016-0.073-0.029-0.15,0.045-0.253
					c0.07-0.091,0.07-0.164,0.07-0.241c0-0.085,0-0.173,0.098-0.29c0.09-0.104,0.082-0.19,0.072-0.272
					c-0.002-0.028-0.006-0.06-0.004-0.094h-0.277c-0.008-1.949,0.285-2.54,1.244-2.54c0.963,0,1.256,0.591,1.256,2.531l-0.01,0.009
					h-0.277c0.002,0.034,0,0.065-0.004,0.094c-0.008,0.082-0.016,0.168,0.072,0.272c0.1,0.117,0.098,0.205,0.098,0.29
					c0,0.08,0,0.15,0.068,0.244c0.076,0.1,0.062,0.177,0.047,0.25c-0.016,0.08-0.029,0.156,0.055,0.262
					c0.082,0.11,0.076,0.196,0.07,0.281c-0.008,0.082-0.014,0.162,0.078,0.25c0.094,0.094,0.084,0.188,0.076,0.275
					s-0.018,0.18,0.072,0.275c0.096,0.103,0.086,0.188,0.076,0.271c-0.006,0.079-0.016,0.153,0.072,0.241
					c0.094,0.097,0.086,0.193,0.078,0.29c-0.01,0.097-0.016,0.188,0.072,0.275c0.092,0.091,0.086,0.196,0.08,0.304
					c-0.006,0.108-0.014,0.219,0.086,0.327c0.107,0.116,0.092,0.222,0.08,0.312c-0.012,0.088-0.023,0.159,0.053,0.235
					c0.094,0.094,0.09,0.188,0.088,0.271c-0.002,0.067-0.006,0.128,0.045,0.179c0.117,0.116,0.137,0.284,0.084,0.357
					c0.033-0.079,0.014-0.235-0.098-0.344c-0.057-0.057-0.053-0.125-0.051-0.192c0.004-0.086,0.006-0.171-0.082-0.256
					c-0.082-0.083-0.07-0.165-0.059-0.253c0.014-0.091,0.027-0.188-0.074-0.296c-0.104-0.113-0.098-0.229-0.092-0.344
					c0.008-0.102,0.012-0.201-0.074-0.286c-0.094-0.094-0.084-0.196-0.076-0.29c0.008-0.097,0.016-0.188-0.072-0.275
					c-0.096-0.094-0.086-0.18-0.078-0.259c0.008-0.082,0.018-0.159-0.072-0.256c-0.094-0.103-0.086-0.196-0.076-0.29
					c0.008-0.088,0.016-0.17-0.074-0.259c-0.096-0.096-0.088-0.179-0.082-0.264c0.006-0.082,0.012-0.165-0.066-0.268
					c-0.088-0.113-0.072-0.198-0.059-0.278c0.016-0.073,0.029-0.145-0.043-0.235c-0.072-0.1-0.07-0.179-0.07-0.256
					c0-0.085,0-0.165-0.094-0.278c-0.094-0.11-0.086-0.199-0.076-0.284c0.002-0.031,0.006-0.062,0.002-0.094h-0.357
					c0.02,0.071,0.002,0.128-0.014,0.179c-0.02,0.071-0.041,0.137,0.027,0.222c0.08,0.1,0.061,0.165,0.037,0.236
					c-0.02,0.062-0.041,0.131,0.014,0.229c0.059,0.108,0.041,0.174,0.025,0.239c-0.02,0.068-0.035,0.133,0.041,0.241
					c0.074,0.11,0.057,0.207,0.039,0.301c-0.021,0.097-0.039,0.19,0.043,0.296c0.088,0.116,0.062,0.204,0.039,0.29
					c-0.021,0.079-0.041,0.159,0.027,0.261c0.082,0.117,0.059,0.205,0.039,0.284c-0.018,0.074-0.035,0.137,0.027,0.214
					c0.066,0.082,0.047,0.164,0.027,0.247c-0.023,0.088-0.047,0.182,0.039,0.284c0.09,0.107,0.068,0.201,0.045,0.292
					c-0.02,0.08-0.039,0.153,0.023,0.239c0.07,0.099,0.053,0.198,0.039,0.295c-0.014,0.085-0.027,0.168,0.025,0.236
					c0.057,0.07,0.043,0.156,0.029,0.244c-0.016,0.104-0.033,0.213,0.053,0.318c0.098,0.116,0.074,0.21,0.055,0.292
					c-0.014,0.065-0.027,0.12,0.014,0.174C423.635,308.152,423.703,308.295,423.686,308.386L423.686,308.386z M422.273,299.917
					c-0.945,0-1.234,0.588-1.234,2.514h0.27c0.006-0.051,0.025-0.102,0.08-0.156l0.014,0.015c-0.051,0.048-0.07,0.097-0.076,0.142
					l0.359-0.003c0.012-0.025,0.025-0.057,0.049-0.088l0.018,0.015c-0.023,0.025-0.035,0.051-0.045,0.073l1.133-0.002
					c-0.008-0.023-0.023-0.046-0.043-0.071l0.018-0.015c0.021,0.031,0.037,0.06,0.045,0.086l0.363-0.003
					c-0.008-0.043-0.027-0.089-0.074-0.134l0.012-0.015c0.053,0.055,0.074,0.103,0.08,0.148h0.27
					C423.51,300.502,423.221,299.917,422.273,299.917L422.273,299.917z"/>
			</g>
			<path clip-path="url(#SVGID_4_)" fill="#010101" d="M421.029,302.431c0-1.875,0.266-2.522,1.244-2.522
				c-0.447,0-0.721,0.35-0.795,0.579c-0.076,0.233-0.033,0.219,0.066,0.125c0.098-0.091,0.049,0.108-0.033,0.216
				c-0.084,0.108-0.166,0.415-0.051,0.315c0.117-0.099,0.209,0.018,0.084,0.19c-0.125,0.177-0.232,0.583-0.109,0.44
				c0.125-0.139,0.15,0.091,0.076,0.208c-0.076,0.116-0.066,0.216,0,0.167c0.066-0.051,0.059,0.19-0.008,0.281H421.029z"/>
			<g clip-path="url(#SVGID_4_)">
				<path fill="#010101" d="M421.508,302.439h-0.479c-0.008-1.949,0.285-2.54,1.244-2.54c-0.443,0.018-0.713,0.361-0.787,0.591
					c-0.041,0.128-0.041,0.168-0.035,0.177l0,0c0.021,0,0.066-0.043,0.086-0.06c0.012,0.002,0.02,0.005,0.027,0.011
					c-0.072,0.054-0.094,0.065-0.111,0.065c-0.027-0.022-0.031-0.054,0.018-0.199c0.07-0.224,0.328-0.557,0.748-0.582
					c-0.902,0.04-1.18,0.643-1.18,2.528l0.459-0.008c0.029-0.043,0.047-0.114,0.049-0.171c0.014,0.065-0.006,0.143-0.037,0.185
					L421.508,302.439L421.508,302.439z M421.396,301.814c-0.049-0.068,0.049-0.355,0.139-0.483c0.049-0.07,0.062-0.125,0.057-0.161
					c0.02,0.054,0.004,0.107-0.041,0.17c-0.098,0.14-0.178,0.412-0.158,0.452l0.111-0.068c0.01,0.011,0.02,0.022,0.025,0.037
					l-0.002,0.003L421.396,301.814L421.396,301.814z"/>
			</g>
			<path clip-path="url(#SVGID_4_)" fill="#010101" d="M423.328,302.323c0-1.469-0.182-1.909-0.547-2.06
				c-0.207-0.083-0.213-0.065-0.113,0.067c0.098,0.134,0.084,0.324-0.008,0.19c-0.092-0.133-0.121-0.156-0.158-0.1
				c-0.041,0.058,0.105,0.333,0.211,0.58c0.086,0.201,0.029,0.301-0.098,0.103c-0.131-0.202-0.131-0.021-0.018,0.147
				c0.146,0.216,0.141,0.872,0.141,1.145L423.328,302.323z"/>
			<g clip-path="url(#SVGID_4_)">
				<path fill="#010101" d="M422.73,302.408v-0.037c0-0.295,0-0.906-0.141-1.113c-0.068-0.103-0.098-0.208-0.08-0.239
					c0.041-0.014,0.072,0.018,0.111,0.08c0.064,0.097,0.096,0.104,0.105,0.104c0.025-0.028,0.021-0.096-0.021-0.195l-0.078-0.177
					c-0.104-0.227-0.166-0.366-0.135-0.414c0.016-0.006,0.029-0.012,0.043-0.012c-0.051,0.068,0.031,0.247,0.109,0.421l0.078,0.173
					c0.041,0.097,0.051,0.176,0.031,0.207c-0.064,0.021-0.113-0.045-0.146-0.097c-0.053-0.079-0.074-0.085-0.078-0.085
					c-0.014,0.025,0.01,0.125,0.078,0.222c0.141,0.213,0.141,0.83,0.141,1.125l-0.006,0.018l0.586-0.074
					c-0.008-1.522-0.207-1.9-0.551-2.04c-0.086-0.037-0.133-0.051-0.154-0.051c-0.016,0.014,0.035,0.079,0.053,0.103
					c0.059,0.079,0.082,0.189,0.062,0.232c-0.021-0.014-0.039-0.031-0.055-0.043c0.049-0.014,0.031-0.104-0.023-0.179
					c-0.057-0.076-0.07-0.104-0.062-0.122c0.049-0.014,0.096,0.006,0.188,0.04c0.35,0.145,0.551,0.528,0.551,2.068L422.73,302.408
					L422.73,302.408z"/>
			</g>
			<path clip-path="url(#SVGID_4_)" fill="#DA1E3A" d="M422.273,302.707c0.391,0,0.818-0.071,1.105-0.183
				c0.34-0.133,0.359-0.25,0.24-0.397c-0.084-0.103-0.266-0.04-0.439,0.034c-0.176,0.077-0.656,0.125-0.906,0.125
				c-0.248,0-0.729-0.048-0.904-0.125c-0.174-0.074-0.355-0.137-0.439-0.034c-0.119,0.147-0.1,0.265,0.24,0.397
				C421.457,302.636,421.885,302.707,422.273,302.707L422.273,302.707z"/>
			<g clip-path="url(#SVGID_4_)">
				<path fill="#010101" d="M422.273,302.715c-0.391,0-0.816-0.07-1.107-0.182c-0.188-0.074-0.285-0.145-0.307-0.225
					c-0.014-0.054,0.006-0.113,0.062-0.188c0.08-0.097,0.283-0.043,0.451,0.034c0.172,0.074,0.648,0.122,0.9,0.122
					c0.254,0,0.73-0.048,0.902-0.122c0.17-0.077,0.373-0.131,0.451-0.034c0.057,0.074,0.078,0.134,0.062,0.188
					c-0.02,0.08-0.119,0.15-0.307,0.225C423.092,302.645,422.666,302.715,422.273,302.715L422.273,302.715z M421.061,302.082
					c-0.055,0-0.096,0.017-0.125,0.054c-0.053,0.065-0.07,0.119-0.059,0.167c0.02,0.074,0.115,0.143,0.297,0.214
					c0.574,0.222,1.623,0.222,2.203,0c0.182-0.071,0.275-0.14,0.295-0.214c0.014-0.048-0.006-0.102-0.059-0.167
					c-0.074-0.094-0.268-0.037-0.43,0.034c-0.176,0.079-0.656,0.128-0.91,0.128s-0.734-0.049-0.908-0.128
					C421.266,302.127,421.152,302.082,421.061,302.082L421.061,302.082z"/>
			</g>
			<path clip-path="url(#SVGID_4_)" fill-rule="evenodd" clip-rule="evenodd" fill="#AC5929" d="M426.061,300.221
				c0,0,0.256,0.443,0.441,0.764c0.188,0.321,0.34,0.396,0.477,0.299c0.135-0.094,0.02-0.358-0.088-0.48
				c-0.111-0.125-0.707-0.71-0.707-0.71L426.061,300.221z"/>
			<g clip-path="url(#SVGID_4_)">
				<path fill="#010101" d="M426.865,301.334c-0.115,0-0.236-0.113-0.371-0.347l-0.443-0.761l0.125-0.14l0,0
					c0.014,0,0.613,0.583,0.723,0.708c0.084,0.096,0.164,0.264,0.15,0.383c-0.008,0.049-0.029,0.088-0.066,0.114
					C426.945,301.32,426.904,301.334,426.865,301.334L426.865,301.334z M426.176,300.102l-0.109,0.128l0.445,0.75
					c0.133,0.224,0.248,0.332,0.354,0.332l0,0c0.035,0,0.07-0.012,0.105-0.037c0.031-0.022,0.051-0.057,0.057-0.1
					c0.014-0.113-0.064-0.272-0.145-0.366C426.771,300.684,426.176,300.102,426.176,300.102L426.176,300.102z"/>
			</g>
			<path clip-path="url(#SVGID_4_)" fill-rule="evenodd" clip-rule="evenodd" fill="#AC5929" d="M425.998,300.255
				c0,0,0.102,0.506,0.178,0.875c0.072,0.369,0.193,0.491,0.354,0.448c0.156-0.042,0.131-0.329,0.068-0.482
				c-0.062-0.156-0.443-0.918-0.443-0.918L425.998,300.255z"/>
			<g clip-path="url(#SVGID_4_)">
				<path fill="#010101" d="M426.471,301.599c-0.143,0-0.242-0.153-0.305-0.466l-0.178-0.875l0.162-0.091
					c0.016,0.005,0.395,0.767,0.457,0.923c0.051,0.122,0.074,0.31,0.02,0.418c-0.021,0.043-0.055,0.07-0.096,0.082L426.471,301.599
					L426.471,301.599z M426.146,300.184l-0.143,0.082l0.182,0.861c0.061,0.304,0.154,0.449,0.285,0.449v0.011l0.055-0.017
					c0.035-0.012,0.064-0.034,0.082-0.071c0.049-0.1,0.027-0.281-0.02-0.4C426.525,300.942,426.146,300.184,426.146,300.184
					L426.146,300.184z"/>
			</g>
			<path clip-path="url(#SVGID_4_)" fill-rule="evenodd" clip-rule="evenodd" fill="#AC5929" d="M425.891,300.271
				c0,0,0,0.518,0,0.896c0,0.375,0.094,0.522,0.258,0.517c0.162-0.008,0.193-0.295,0.162-0.46s-0.25-0.994-0.25-0.994
				L425.891,300.271z"/>
			<g clip-path="url(#SVGID_4_)">
				<path fill="#010101" d="M426.139,301.695c-0.174,0-0.258-0.174-0.258-0.528v-0.896l0.176-0.051c0.014,0.006,0.234,0.835,0.266,1
					c0.023,0.131,0.01,0.321-0.064,0.415c-0.029,0.036-0.066,0.057-0.107,0.06H426.139L426.139,301.695z M426.051,300.232
					l-0.156,0.048l0.008,0.887c0,0.341,0.076,0.505,0.236,0.505v0.012l0.01-0.012c0.035,0,0.066-0.017,0.092-0.051
					c0.068-0.085,0.084-0.267,0.061-0.397C426.271,301.059,426.051,300.232,426.051,300.232L426.051,300.232z"/>
			</g>
			<path clip-path="url(#SVGID_4_)" fill-rule="evenodd" clip-rule="evenodd" fill="#AC5929" d="M425.891,300.261
				c0.469-0.006,0.521-0.177,0.521-0.177s0.104-0.352,0.053-0.44c-0.053-0.091-0.574-0.091-0.574-0.091V300.261z"/>
			<g clip-path="url(#SVGID_4_)">
				<path fill="#010101" d="M425.877,300.274v-0.722c0.07-0.014,0.545-0.011,0.6,0.083c0.053,0.091-0.041,0.417-0.051,0.454
					c-0.004,0.006-0.061,0.179-0.535,0.185H425.877L425.877,300.274z M425.891,299.567l0.014,0.679
					c0.438-0.009,0.494-0.165,0.494-0.165c0.029-0.097,0.096-0.363,0.053-0.432C426.416,299.59,426.09,299.567,425.891,299.567
					L425.891,299.567z"/>
			</g>
			<path clip-path="url(#SVGID_4_)" fill-rule="evenodd" clip-rule="evenodd" fill="#AC5929" d="M425.891,299.908
				c0.504,0,0.588-0.176,0.588-0.176s0.168-0.355,0.084-0.443s-0.672-0.088-0.672-0.088V299.908z"/>
			<g clip-path="url(#SVGID_4_)">
				<path fill="#010101" d="M425.891,299.92l-0.01-0.012v-0.707c0.035-0.015,0.604-0.012,0.689,0.079
					c0.09,0.094-0.074,0.44-0.08,0.454C426.484,299.743,426.396,299.92,425.891,299.92L425.891,299.92z M425.891,299.212
					l0.012,0.685c0.479-0.003,0.566-0.167,0.566-0.17c0.047-0.097,0.152-0.364,0.088-0.432
					C426.488,299.227,426.053,299.212,425.891,299.212L425.891,299.212z"/>
			</g>
			<path clip-path="url(#SVGID_4_)" fill-rule="evenodd" clip-rule="evenodd" fill="#AC5929" d="M425.891,299.553
				c0.42,0,0.672-0.176,0.672-0.176s0.166-0.353,0.084-0.44c-0.084-0.091-0.756-0.088-0.756-0.088V299.553z"/>
			<g clip-path="url(#SVGID_4_)">
				<path fill="#010101" d="M425.891,299.564l-0.01-0.012v-0.704c0.082-0.015,0.689-0.009,0.773,0.079
					c0.088,0.094-0.076,0.44-0.082,0.455C426.566,299.389,426.311,299.564,425.891,299.564L425.891,299.564z M425.895,298.859
					l0.008,0.683c0.404-0.003,0.652-0.171,0.654-0.174c0.041-0.091,0.146-0.357,0.082-0.426
					C426.576,298.877,426.123,298.859,425.895,298.859L425.895,298.859z"/>
			</g>
			<path clip-path="url(#SVGID_4_)" fill-rule="evenodd" clip-rule="evenodd" fill="#AC5929" d="M426.176,296.294
				c0,0,0.416-0.442,1.145-0.886c0.727-0.44,1.254-0.781,1.352-0.705c0,0.088-0.625,0.531-1.145,0.884s-1.145,0.884-1.145,0.884
				L426.176,296.294z"/>
			<g clip-path="url(#SVGID_4_)">
				<path fill="#010101" d="M426.383,296.484l-0.215-0.185c0.004-0.017,0.424-0.463,1.146-0.897l0.252-0.156
					c0.537-0.327,0.928-0.565,1.068-0.565c0.002,0.009,0.004,0.014,0.004,0.022c-0.176,0.02-0.551,0.25-1.062,0.56l-0.25,0.153
					c-0.721,0.438-1.141,0.881-1.145,0.884l0.201,0.159c0.064-0.057,0.65-0.548,1.139-0.881c0.66-0.449,0.943-0.67,1.061-0.778
					c-0.131,0.15-0.488,0.412-1.049,0.796c-0.514,0.35-1.139,0.878-1.145,0.883L426.383,296.484L426.383,296.484z"/>
			</g>
			<path clip-path="url(#SVGID_4_)" fill-rule="evenodd" clip-rule="evenodd" fill="#AC5929" d="M426.223,296.646
				c0,0,0.412-0.259,1.199-0.619c0.779-0.318,1.875-0.265,1.875-0.176c-0.105,0.088-1.043,0.088-1.664,0.354
				c-0.598,0.253-1.201,0.616-1.201,0.616L426.223,296.646z"/>
			<g clip-path="url(#SVGID_4_)">
				<path fill="#010101" d="M426.432,296.837l-0.215-0.182c0.006-0.021,0.422-0.281,1.203-0.637
					c0.555-0.228,1.215-0.244,1.402-0.244c0.051,0,0.484,0,0.484,0.077c-0.047,0.042-0.211,0.064-0.441,0.094
					c-0.357,0.045-0.85,0.107-1.23,0.27c-0.588,0.25-1.193,0.613-1.199,0.616L426.432,296.837L426.432,296.837z M428.822,295.791
					c-0.188,0-0.844,0.021-1.396,0.248c-0.777,0.352-1.193,0.613-1.197,0.616l0.203,0.156c0.062-0.037,0.639-0.378,1.195-0.616
					c0.383-0.162,0.877-0.225,1.236-0.271c0.217-0.028,0.389-0.048,0.426-0.079C429.285,295.831,429.146,295.791,428.822,295.791
					L428.822,295.791z"/>
			</g>
			<path clip-path="url(#SVGID_4_)" fill-rule="evenodd" clip-rule="evenodd" fill="#AC5929" d="M426.229,297.255
				c0,0,0.361-0.174,1.199-0.44c0.832-0.265,1.938-0.088,1.938,0c-0.105,0.088-1.002,0.034-1.625,0.176
				c-0.646,0.14-1.305,0.443-1.305,0.443L426.229,297.255z"/>
			<g clip-path="url(#SVGID_4_)">
				<path fill="#010101" d="M426.434,297.445l-0.213-0.183c0.008-0.017,0.375-0.192,1.205-0.457
					c0.363-0.116,0.758-0.142,1.025-0.142c0.457,0,0.924,0.076,0.924,0.15c-0.055,0.051-0.266,0.062-0.561,0.076
					c-0.33,0.015-0.738,0.034-1.07,0.108c-0.641,0.139-1.297,0.44-1.305,0.443L426.434,297.445L426.434,297.445z M428.451,296.684
					c-0.266,0-0.66,0.025-1.02,0.139c-0.828,0.265-1.195,0.44-1.199,0.443l0.205,0.156c0.064-0.028,0.691-0.31,1.301-0.443
					c0.334-0.073,0.744-0.094,1.074-0.11c0.27-0.012,0.5-0.022,0.547-0.062C429.355,296.774,428.973,296.684,428.451,296.684
					L428.451,296.684z"/>
			</g>
			<path clip-path="url(#SVGID_4_)" fill-rule="evenodd" clip-rule="evenodd" fill="#AC5929" d="M426.268,297.874
				c0,0,0.416-0.353,1.305-0.44c0.895-0.088,1.625,0.44,1.625,0.528c-0.104,0.088-0.938-0.39-1.562-0.321
				c-0.66,0.071-1.158,0.409-1.158,0.409L426.268,297.874z"/>
			<g clip-path="url(#SVGID_4_)">
				<path fill="#010101" d="M426.475,298.062l-0.215-0.179c0.006-0.021,0.432-0.373,1.312-0.461c0.9-0.079,1.635,0.446,1.635,0.54
					c-0.123,0.017-0.256-0.025-0.424-0.082c-0.32-0.114-0.773-0.276-1.146-0.228c-0.652,0.068-1.15,0.403-1.154,0.406
					L426.475,298.062L426.475,298.062z M427.775,297.434c-0.066,0-0.133,0.003-0.201,0.009c-0.875,0.085-1.297,0.438-1.299,0.44
					l0.201,0.156c0.059-0.037,0.541-0.342,1.158-0.406c0.377-0.034,0.832,0.116,1.154,0.227c0.166,0.057,0.299,0.103,0.367,0.103
					C429.188,297.899,428.596,297.434,427.775,297.434L427.775,297.434z"/>
			</g>
			<path clip-path="url(#SVGID_4_)" fill-rule="evenodd" clip-rule="evenodd" fill="#AC5929" d="M425.891,299.112
				c0.756-0.008,0.756-0.228,0.756-0.228s0.168-0.352,0.082-0.442c-0.082-0.089-0.838-0.037-0.838-0.037V299.112z"/>
			<g clip-path="url(#SVGID_4_)">
				<path fill="#010101" d="M425.881,299.124v-0.719c0.01-0.012,0.223-0.025,0.436-0.025c0.369,0,0.408,0.042,0.422,0.057
					c0.088,0.091-0.074,0.438-0.08,0.454c0,0.003-0.008,0.225-0.768,0.233H425.881L425.881,299.124z M426.316,298.402
					c-0.209,0-0.422,0.014-0.424,0.014l0.01,0.686c0.721-0.009,0.732-0.213,0.732-0.217c0.049-0.102,0.152-0.366,0.088-0.434
					C426.705,298.431,426.629,298.402,426.316,298.402L426.316,298.402z"/>
			</g>
			<path clip-path="url(#SVGID_4_)" fill-rule="evenodd" clip-rule="evenodd" fill="#AC5929" d="M425.891,298.76
				c0.756-0.008,0.838-0.179,0.838-0.179s0.17-0.353,0.086-0.443c-0.086-0.088-0.924-0.088-0.924-0.088V298.76z"/>
			<g clip-path="url(#SVGID_4_)">
				<path fill="#010101" d="M425.881,298.769v-0.719c0.047-0.011,0.855-0.009,0.941,0.083c0.088,0.094-0.076,0.439-0.082,0.454
					c-0.004,0.006-0.096,0.177-0.85,0.182H425.881L425.881,298.769z M425.891,298.062l0.012,0.688
					c0.725-0.012,0.816-0.171,0.818-0.173c0.045-0.098,0.15-0.361,0.086-0.43C426.74,298.075,426.123,298.062,425.891,298.062
					L425.891,298.062z"/>
			</g>
			<path clip-path="url(#SVGID_4_)" fill-rule="evenodd" clip-rule="evenodd" fill="#AC5929" d="M425.891,298.317
				c0.756-0.009,0.924-0.18,0.924-0.18s0.168-0.352,0.084-0.44c-0.084-0.088-1.008-0.088-1.008-0.088V298.317z"/>
			<g clip-path="url(#SVGID_4_)">
				<path fill="#010101" d="M425.881,298.328v-0.719c0.107-0.011,0.941-0.008,1.023,0.08c0.09,0.094-0.072,0.44-0.08,0.454
					c-0.008,0.012-0.18,0.177-0.934,0.185H425.881L425.881,298.328z M425.891,297.621l0.012,0.685
					c0.73-0.009,0.904-0.173,0.904-0.173c0.045-0.094,0.146-0.361,0.084-0.43C426.824,297.635,426.146,297.621,425.891,297.621
					L425.891,297.621z"/>
			</g>
			<path clip-path="url(#SVGID_4_)" fill-rule="evenodd" clip-rule="evenodd" fill="#AC5929" d="M425.891,297.874
				c0.756-0.006,1.008-0.177,1.008-0.177s0.084-0.352,0-0.442c-0.084-0.089-1.008-0.089-1.008-0.089V297.874z"/>
			<g clip-path="url(#SVGID_4_)">
				<path fill="#010101" d="M425.881,297.885v-0.719c0.104-0.011,0.941-0.008,1.023,0.083c0.09,0.091,0.008,0.438,0.004,0.451
					c-0.014,0.015-0.266,0.18-1.018,0.185H425.881L425.881,297.885z M425.891,297.178l0.012,0.685
					c0.732-0.006,0.986-0.173,0.988-0.173l0,0c-0.002,0,0.076-0.344,0-0.427C426.824,297.192,426.146,297.178,425.891,297.178
					L425.891,297.178z"/>
			</g>
			<path clip-path="url(#SVGID_4_)" fill-rule="evenodd" clip-rule="evenodd" fill="#AC5929" d="M426.061,295.931
				c0,0,0.668-0.443,0.668-0.799c0-0.352-0.293-0.707-0.377-0.883c0.168,0,0.547,0.531,0.547,0.883c0,0.39-0.629,0.975-0.629,0.975
				L426.061,295.931z"/>
			<g clip-path="url(#SVGID_4_)">
				<path fill="#010101" d="M426.27,296.121l-0.217-0.185c0.008-0.021,0.668-0.458,0.668-0.805c0-0.258-0.162-0.52-0.281-0.71
					c-0.041-0.065-0.076-0.125-0.098-0.168c0.18-0.008,0.566,0.537,0.566,0.878c0,0.39-0.607,0.958-0.633,0.98L426.27,296.121
					L426.27,296.121z M426.352,294.26c0.029,0.028,0.064,0.086,0.105,0.15c0.119,0.193,0.283,0.458,0.283,0.722
					c0,0.355-0.648,0.787-0.676,0.805l0.203,0.156c0.064-0.06,0.621-0.6,0.621-0.961C426.889,294.777,426.51,294.26,426.352,294.26
					L426.352,294.26z"/>
			</g>
			<path clip-path="url(#SVGID_4_)" fill-rule="evenodd" clip-rule="evenodd" fill="#AC5929" d="M426.061,295.931
				c0,0-0.084-0.267-0.084-0.799c0-0.616,0.369-1.011,0.502-1.147c0.035,0.137-0.334,0.619-0.334,1.147
				c0,0.39,0.125,0.975,0.125,0.975L426.061,295.931z"/>
			<g clip-path="url(#SVGID_4_)">
				<path fill="#010101" d="M426.283,296.133l-0.23-0.196c-0.002-0.006-0.086-0.278-0.086-0.805c0-0.423,0.17-0.812,0.506-1.156
					c0.031,0.062-0.016,0.168-0.082,0.31c-0.1,0.222-0.238,0.526-0.238,0.847c0,0.384,0.125,0.967,0.125,0.972L426.283,296.133
					L426.283,296.133z M426.471,293.987c-0.316,0.344-0.484,0.728-0.484,1.145c0,0.523,0.082,0.79,0.084,0.796l0.184,0.153
					c-0.025-0.122-0.119-0.61-0.119-0.949c0-0.326,0.137-0.63,0.238-0.854C426.434,294.144,426.482,294.035,426.471,293.987
					L426.471,293.987z"/>
			</g>
			<path clip-path="url(#SVGID_4_)" fill-rule="evenodd" clip-rule="evenodd" fill="#AC5929" d="M425.891,297.434
				c0.756-0.009,1.008-0.179,1.008-0.179s0-0.353-0.084-0.44c-0.086-0.091-0.924-0.091-0.924-0.091V297.434z"/>
			<g clip-path="url(#SVGID_4_)">
				<path fill="#010101" d="M425.881,297.445v-0.722c0.047-0.009,0.855-0.009,0.941,0.082s0.086,0.435,0.086,0.449
					c-0.014,0.017-0.266,0.182-1.018,0.19H425.881L425.881,297.445z M425.891,296.734l0.012,0.688
					c0.729-0.008,0.982-0.17,0.988-0.176l0,0c-0.004,0-0.006-0.341-0.084-0.426C426.74,296.752,426.123,296.734,425.891,296.734
					L425.891,296.734z"/>
			</g>
			<path clip-path="url(#SVGID_4_)" fill-rule="evenodd" clip-rule="evenodd" fill="#AC5929" d="M425.891,296.99
				c0.756-0.006,0.924-0.176,0.924-0.176s0-0.355-0.086-0.443c-0.082-0.088-0.838-0.088-0.838-0.088V296.99z"/>
			<g clip-path="url(#SVGID_4_)">
				<path fill="#010101" d="M425.881,297.002v-0.719c0.041-0.012,0.773-0.009,0.857,0.082c0.086,0.088,0.088,0.432,0.088,0.449
					c-0.01,0.014-0.182,0.182-0.936,0.188H425.881L425.881,297.002z M425.891,296.294l0.012,0.685c0.727-0.005,0.9-0.17,0.904-0.173
					l0,0c-0.004,0-0.004-0.344-0.084-0.426C426.658,296.309,426.102,296.294,425.891,296.294L425.891,296.294z"/>
			</g>
			<path clip-path="url(#SVGID_4_)" fill-rule="evenodd" clip-rule="evenodd" fill="#AC5929" d="M428.072,302.295
				c-0.262-0.611-0.336-1.68-0.336-1.858c0-0.497,0.158-2.918,0.168-3.89c0.012-0.969-0.588-1.5-1.176-1.5
				c-0.5,0-0.838,0.353-0.838,0.884h0.254c0-0.355,0.25-0.619,0.584-0.619c0.504,0,0.891,0.417,0.924,1.235
				c0.037,0.949-0.1,3.409-0.082,4.068S427.811,301.863,428.072,302.295L428.072,302.295z"/>
			<g clip-path="url(#SVGID_4_)">
				<path fill="#F1C226" d="M428.049,302.309c-0.311-0.52-0.492-1.119-0.508-1.693c-0.006-0.284,0.016-0.906,0.037-1.597
					c0.031-0.906,0.066-1.932,0.045-2.469c-0.027-0.747-0.371-1.213-0.895-1.213c-0.318,0-0.559,0.256-0.559,0.594l-0.279,0.025
					c-0.027-0.571,0.322-0.938,0.838-0.938c0.287,0,0.566,0.119,0.781,0.338c0.279,0.284,0.428,0.705,0.422,1.19
					c-0.006,0.537-0.059,1.518-0.1,2.369c-0.037,0.691-0.068,1.299-0.068,1.521c0,0.134,0.066,1.222,0.334,1.847L428.049,302.309
					L428.049,302.309z M426.729,295.283c0.557,0,0.922,0.485,0.953,1.264c0.02,0.54-0.016,1.568-0.047,2.475
					c-0.025,0.688-0.045,1.307-0.037,1.591c0.01,0.458,0.129,0.933,0.336,1.37c-0.176-0.631-0.225-1.433-0.225-1.546
					c0-0.222,0.031-0.832,0.066-1.522c0.045-0.853,0.096-1.83,0.102-2.367c0.006-0.472-0.139-0.878-0.406-1.15
					c-0.207-0.207-0.469-0.324-0.742-0.324c-0.484,0-0.809,0.344-0.809,0.858l0.225-0.028
					C426.115,295.562,426.379,295.283,426.729,295.283L426.729,295.283z"/>
			</g>
			<path clip-path="url(#SVGID_4_)" fill-rule="evenodd" clip-rule="evenodd" fill="#AC5929" d="M425.723,300.221
				c0,0-0.256,0.443-0.443,0.764c-0.188,0.321-0.338,0.396-0.475,0.299c-0.135-0.094-0.02-0.358,0.09-0.48
				c0.107-0.125,0.707-0.71,0.707-0.71L425.723,300.221z"/>
			<g clip-path="url(#SVGID_4_)">
				<path fill="#010101" d="M424.918,301.334c-0.039,0-0.08-0.014-0.117-0.042c-0.037-0.026-0.061-0.065-0.066-0.114
					c-0.014-0.119,0.066-0.287,0.15-0.383c0.107-0.125,0.707-0.711,0.707-0.711l0.141,0.131l-0.443,0.772
					C425.154,301.221,425.033,301.334,424.918,301.334L424.918,301.334z M425.592,300.102c0.002,0.014-0.584,0.585-0.689,0.707
					c-0.082,0.094-0.16,0.253-0.145,0.366c0.004,0.043,0.021,0.077,0.053,0.1c0.143,0.1,0.287,0.003,0.461-0.295l0.443-0.765
					L425.592,300.102L425.592,300.102z"/>
			</g>
			<path clip-path="url(#SVGID_4_)" fill-rule="evenodd" clip-rule="evenodd" fill="#AC5929" d="M425.891,295.883
				c0.588,0,0.842,0.511,0.842,0.5l-0.17,0.164c-0.09,0.091-0.672,0.091-0.662,0.088L425.891,295.883z"/>
			<g clip-path="url(#SVGID_4_)">
				<path fill="#010101" d="M425.914,296.646l-0.025-0.009l-0.008-0.755c0.506-0.021,0.764,0.338,0.855,0.485l-0.166,0.188
					C426.479,296.646,425.936,296.646,425.914,296.646L425.914,296.646z M425.891,295.894l0.02,0.741l0.004-0.011
					c0.152,0,0.57-0.015,0.643-0.083l0.166-0.167C426.629,296.234,426.371,295.894,425.891,295.894L425.891,295.894z"/>
			</g>
			<path clip-path="url(#SVGID_4_)" fill-rule="evenodd" clip-rule="evenodd" fill="#AC5929" d="M425.783,300.255
				c0,0-0.1,0.506-0.176,0.875c-0.074,0.369-0.193,0.491-0.354,0.448c-0.156-0.042-0.131-0.329-0.068-0.482
				c0.062-0.156,0.443-0.918,0.443-0.918L425.783,300.255z"/>
			<g clip-path="url(#SVGID_4_)">
				<path fill="#010101" d="M425.311,301.599l-0.059-0.009c-0.043-0.012-0.074-0.039-0.098-0.082
					c-0.053-0.108-0.027-0.296,0.021-0.418c0.062-0.156,0.443-0.918,0.443-0.918l0.17,0.074l-0.17,0.887
					C425.557,301.445,425.455,301.599,425.311,301.599L425.311,301.599z M425.623,300.189c0.006,0.012-0.365,0.756-0.428,0.909
					c-0.049,0.119-0.068,0.301-0.02,0.4c0.02,0.037,0.047,0.06,0.082,0.071l0.053,0.006c0.131,0,0.225-0.146,0.287-0.449
					l0.178-0.872L425.623,300.189L425.623,300.189z"/>
			</g>
			<path clip-path="url(#SVGID_4_)" fill-rule="evenodd" clip-rule="evenodd" fill="#AC5929" d="M425.891,300.271
				c0,0,0.004,0.518,0,0.896c0,0.375-0.094,0.522-0.256,0.517c-0.162-0.008-0.193-0.295-0.162-0.46
				c0.029-0.165,0.25-0.994,0.25-0.994L425.891,300.271z"/>
			<g clip-path="url(#SVGID_4_)">
				<path fill="#010101" d="M425.645,301.695h-0.01c-0.043-0.003-0.078-0.023-0.111-0.06c-0.072-0.094-0.088-0.284-0.062-0.415
					c0.031-0.165,0.252-0.994,0.252-0.994l0.182,0.034l0.008,0.906C425.902,301.521,425.818,301.695,425.645,301.695
					L425.645,301.695z M425.723,300.24c0.006,0.012-0.209,0.821-0.24,0.983c-0.023,0.131-0.008,0.312,0.059,0.397
					c0.025,0.034,0.059,0.051,0.094,0.051l0.01,0.012v-0.012c0.158,0,0.236-0.164,0.236-0.505v-0.896L425.723,300.24L425.723,300.24
					z"/>
			</g>
			<path clip-path="url(#SVGID_4_)" fill-rule="evenodd" clip-rule="evenodd" fill="#AC5929" d="M425.891,300.261
				c-0.469-0.006-0.52-0.177-0.52-0.177s-0.105-0.352-0.051-0.44c0.051-0.091,0.57-0.091,0.57-0.091V300.261z"/>
			<g clip-path="url(#SVGID_4_)">
				<path fill="#010101" d="M425.904,300.274h-0.014c-0.473-0.006-0.531-0.179-0.533-0.185c-0.01-0.037-0.104-0.363-0.051-0.454
					c0.057-0.094,0.531-0.097,0.584-0.097L425.904,300.274L425.904,300.274z M425.877,299.553c-0.184,0.015-0.51,0.037-0.545,0.097
					c-0.041,0.068,0.025,0.335,0.053,0.432c0,0,0.057,0.156,0.492,0.165V299.553L425.877,299.553z"/>
			</g>
			<path clip-path="url(#SVGID_4_)" fill-rule="evenodd" clip-rule="evenodd" fill="#AC5929" d="M425.891,299.908
				c-0.502,0-0.586-0.176-0.586-0.176s-0.166-0.355-0.084-0.443c0.084-0.088,0.67-0.088,0.67-0.088V299.908z"/>
			<g clip-path="url(#SVGID_4_)">
				<path fill="#010101" d="M425.902,299.92h-0.012c-0.502,0-0.594-0.177-0.596-0.186c-0.008-0.014-0.17-0.36-0.084-0.454
					c0.088-0.091,0.658-0.091,0.68-0.091L425.902,299.92L425.902,299.92z M425.881,299.201c-0.152,0.011-0.586,0.025-0.652,0.094
					c-0.064,0.067,0.041,0.335,0.086,0.432c0,0.003,0.088,0.167,0.566,0.17V299.201L425.881,299.201z"/>
			</g>
			<path clip-path="url(#SVGID_4_)" fill-rule="evenodd" clip-rule="evenodd" fill="#AC5929" d="M425.891,299.553
				c-0.418,0-0.67-0.176-0.67-0.176s-0.168-0.353-0.082-0.44c0.082-0.091,0.752-0.088,0.752-0.088V299.553z"/>
			<g clip-path="url(#SVGID_4_)">
				<path fill="#010101" d="M425.902,299.564h-0.012c-0.418,0-0.674-0.176-0.676-0.179c-0.012-0.018-0.174-0.364-0.086-0.458
					c0.082-0.088,0.693-0.091,0.762-0.091L425.902,299.564L425.902,299.564z M425.23,299.371c0.002,0,0.248,0.168,0.65,0.171v-0.693
					c-0.221,0.011-0.674,0.028-0.736,0.094C425.082,299.011,425.186,299.277,425.23,299.371L425.23,299.371L425.23,299.371z"/>
			</g>
			<path clip-path="url(#SVGID_4_)" fill-rule="evenodd" clip-rule="evenodd" fill="#AC5929" d="M425.609,296.294
				c0,0-0.418-0.442-1.145-0.886c-0.73-0.44-1.256-0.781-1.352-0.705c0,0.088,0.621,0.531,1.145,0.884
				c0.52,0.353,1.143,0.884,1.143,0.884L425.609,296.294z"/>
			<g clip-path="url(#SVGID_4_)">
				<path fill="#010101" d="M425.4,296.484l-0.006-0.006c-0.006-0.005-0.631-0.533-1.143-0.883c-0.764-0.518-1.15-0.818-1.15-0.893
					c0.014-0.003,0.031-0.003,0.047,0c-0.025,0.031,0.088,0.179,1.115,0.875c0.484,0.33,1.07,0.824,1.137,0.881l0.203-0.173l0,0
					c-0.016,0-0.434-0.438-1.145-0.87l-0.264-0.159c-0.459-0.278-0.807-0.494-0.98-0.545c0.211,0.054,0.551,0.261,0.992,0.528
					l0.262,0.162c0.723,0.435,1.145,0.881,1.146,0.884L425.4,296.484L425.4,296.484z"/>
			</g>
			<path clip-path="url(#SVGID_4_)" fill-rule="evenodd" clip-rule="evenodd" fill="#AC5929" d="M425.561,296.646
				c0,0-0.412-0.259-1.201-0.619c-0.775-0.318-1.871-0.265-1.871-0.176c0.104,0.088,1.039,0.088,1.664,0.354
				c0.596,0.253,1.199,0.616,1.199,0.616L425.561,296.646z"/>
			<g clip-path="url(#SVGID_4_)">
				<path fill="#010101" d="M425.354,296.837l-0.006-0.006c-0.006-0.003-0.609-0.366-1.199-0.616
					c-0.379-0.162-0.871-0.225-1.232-0.27c-0.227-0.029-0.393-0.052-0.434-0.089c-0.004-0.082,0.428-0.082,0.477-0.082
					c0.189,0,0.85,0.017,1.404,0.244c0.781,0.355,1.197,0.616,1.203,0.619L425.354,296.837L425.354,296.837z M422.959,295.791
					c-0.32,0-0.461,0.04-0.461,0.061c0.035,0.025,0.205,0.045,0.422,0.073c0.359,0.046,0.854,0.108,1.234,0.271
					c0.561,0.238,1.131,0.579,1.197,0.616l0.201-0.171l0,0c-0.023,0-0.438-0.258-1.195-0.602
					C423.805,295.812,423.148,295.791,422.959,295.791L422.959,295.791z"/>
			</g>
			<path clip-path="url(#SVGID_4_)" fill-rule="evenodd" clip-rule="evenodd" fill="#AC5929" d="M425.557,297.255
				c0,0-0.363-0.174-1.201-0.44c-0.832-0.265-1.936-0.088-1.936,0c0.104,0.088,1,0.034,1.625,0.176
				c0.645,0.14,1.303,0.443,1.303,0.443L425.557,297.255z"/>
			<g clip-path="url(#SVGID_4_)">
				<path fill="#010101" d="M425.348,297.445l-0.006-0.003c-0.006-0.003-0.664-0.305-1.301-0.443
					c-0.334-0.074-0.742-0.094-1.07-0.108c-0.295-0.014-0.508-0.025-0.561-0.07c-0.002-0.08,0.465-0.156,0.922-0.156
					c0.268,0,0.66,0.025,1.025,0.142c0.828,0.265,1.199,0.44,1.203,0.44L425.348,297.445L425.348,297.445z M423.332,296.684
					c-0.521,0-0.904,0.091-0.904,0.131c0.043,0.031,0.275,0.042,0.543,0.054c0.33,0.017,0.74,0.037,1.074,0.113
					c0.609,0.128,1.234,0.409,1.301,0.44l0.203-0.173c-0.029-0.018-0.389-0.168-1.197-0.427
					C423.99,296.709,423.598,296.684,423.332,296.684L423.332,296.684z"/>
			</g>
			<path clip-path="url(#SVGID_4_)" fill-rule="evenodd" clip-rule="evenodd" fill="#AC5929" d="M425.516,297.874
				c0,0-0.418-0.353-1.305-0.44c-0.896-0.088-1.625,0.44-1.625,0.528c0.105,0.088,0.938-0.39,1.562-0.321
				c0.66,0.071,1.16,0.409,1.16,0.409L425.516,297.874z"/>
			<g clip-path="url(#SVGID_4_)">
				<path fill="#010101" d="M425.309,298.062l-0.006-0.003c-0.006-0.003-0.506-0.338-1.156-0.406
					c-0.377-0.049-0.826,0.113-1.145,0.228c-0.17,0.057-0.301,0.104-0.373,0.104c-0.002-0.008-0.004-0.014-0.002-0.022
					c0.096-0.009,0.219-0.051,0.367-0.103c0.322-0.11,0.779-0.261,1.154-0.227c0.617,0.064,1.1,0.366,1.16,0.406l0.201-0.171
					c0,0-0.414-0.338-1.301-0.426c-0.674-0.065-1.236,0.213-1.48,0.389c0.23-0.193,0.811-0.469,1.482-0.409
					c0.881,0.088,1.309,0.44,1.312,0.446L425.309,298.062L425.309,298.062z"/>
			</g>
			<path clip-path="url(#SVGID_4_)" fill-rule="evenodd" clip-rule="evenodd" fill="#AC5929" d="M425.891,299.112
				c-0.756-0.008-0.752-0.228-0.752-0.228s-0.17-0.352-0.086-0.442c0.086-0.089,0.838-0.037,0.838-0.037V299.112z"/>
			<g clip-path="url(#SVGID_4_)">
				<path fill="#010101" d="M425.902,299.124h-0.012c-0.758-0.009-0.764-0.23-0.764-0.239c-0.008-0.011-0.17-0.357-0.082-0.448
					c0.014-0.015,0.053-0.057,0.42-0.057c0.213,0,0.428,0.014,0.428,0.014L425.902,299.124L425.902,299.124z M425.465,298.402
					c-0.311,0-0.387,0.028-0.404,0.049c-0.064,0.067,0.041,0.332,0.086,0.429c0.002,0.009,0.014,0.213,0.734,0.222v-0.696
					C425.873,298.414,425.67,298.402,425.465,298.402L425.465,298.402z"/>
			</g>
			<path clip-path="url(#SVGID_4_)" fill-rule="evenodd" clip-rule="evenodd" fill="#AC5929" d="M425.891,298.76
				c-0.756-0.008-0.838-0.179-0.838-0.179s-0.168-0.353-0.084-0.443c0.084-0.088,0.922-0.088,0.922-0.088V298.76z"/>
			<g clip-path="url(#SVGID_4_)">
				<path fill="#010101" d="M425.902,298.769h-0.012c-0.752-0.005-0.844-0.176-0.846-0.182c-0.01-0.015-0.172-0.36-0.084-0.454
					c0.086-0.092,0.896-0.094,0.93-0.094L425.902,298.769L425.902,298.769z M425.881,298.05c-0.221,0.012-0.836,0.025-0.904,0.097
					c-0.062,0.068,0.041,0.332,0.088,0.43c0,0.002,0.092,0.161,0.816,0.173V298.05L425.881,298.05z"/>
			</g>
			<path clip-path="url(#SVGID_4_)" fill-rule="evenodd" clip-rule="evenodd" fill="#AC5929" d="M425.891,298.317
				c-0.756-0.009-0.922-0.18-0.922-0.18s-0.166-0.352-0.084-0.44c0.084-0.088,1.006-0.088,1.006-0.088V298.317z"/>
			<g clip-path="url(#SVGID_4_)">
				<path fill="#010101" d="M425.902,298.328h-0.012c-0.75-0.008-0.924-0.173-0.93-0.182c-0.008-0.017-0.172-0.363-0.084-0.457
					c0.084-0.088,0.92-0.091,1.014-0.091L425.902,298.328L425.902,298.328z M424.979,298.135c0.002,0,0.176,0.162,0.902,0.171
					v-0.696c-0.246,0.012-0.922,0.025-0.986,0.094C424.828,297.771,424.934,298.039,424.979,298.135L424.979,298.135
					L424.979,298.135z"/>
			</g>
			<path clip-path="url(#SVGID_4_)" fill-rule="evenodd" clip-rule="evenodd" fill="#AC5929" d="M425.891,297.874
				c-0.756-0.006-1.006-0.177-1.006-0.177s-0.082-0.352,0-0.442c0.084-0.089,1.006-0.089,1.006-0.089V297.874z"/>
			<g clip-path="url(#SVGID_4_)">
				<path fill="#010101" d="M425.902,297.885h-0.012c-0.75-0.005-1.002-0.17-1.012-0.179c-0.008-0.02-0.088-0.366-0.002-0.457
					c0.084-0.091,0.92-0.094,1.014-0.094L425.902,297.885L425.902,297.885z M424.896,297.695c0.006,0,0.262,0.161,0.984,0.167
					v-0.696c-0.246,0.012-0.922,0.026-0.986,0.097C424.814,297.346,424.895,297.689,424.896,297.695L424.896,297.695
					L424.896,297.695z"/>
			</g>
			<path clip-path="url(#SVGID_4_)" fill-rule="evenodd" clip-rule="evenodd" fill="#AC5929" d="M425.723,295.931
				c0,0-0.67-0.443-0.67-0.799c0-0.352,0.295-0.707,0.379-0.883c-0.168,0-0.547,0.531-0.547,0.883c0,0.39,0.631,0.975,0.631,0.975
				L425.723,295.931z"/>
			<g clip-path="url(#SVGID_4_)">
				<path fill="#010101" d="M425.516,296.121l-0.008-0.009c-0.025-0.022-0.631-0.591-0.631-0.98c0-0.341,0.373-0.892,0.555-0.892
					c-0.012,0.06-0.049,0.116-0.09,0.182c-0.117,0.19-0.279,0.452-0.279,0.71c0,0.347,0.66,0.784,0.666,0.79L425.516,296.121
					L425.516,296.121z M425.422,294.246c-0.15,0.014-0.527,0.531-0.527,0.886c0,0.361,0.557,0.898,0.621,0.961l0.201-0.171
					c-0.025-0.003-0.672-0.435-0.672-0.79c0-0.264,0.162-0.525,0.281-0.719C425.367,294.346,425.402,294.291,425.422,294.246
					L425.422,294.246z"/>
			</g>
			<path clip-path="url(#SVGID_4_)" fill-rule="evenodd" clip-rule="evenodd" fill="#AC5929" d="M425.723,295.931
				c0,0,0.084-0.267,0.084-0.799c0-0.616-0.369-1.011-0.502-1.147c-0.035,0.137,0.334,0.619,0.334,1.147
				c0,0.39-0.123,0.975-0.123,0.975L425.723,295.931z"/>
			<g clip-path="url(#SVGID_4_)">
				<path fill="#010101" d="M425.498,296.133l0.008-0.029c0.002-0.005,0.123-0.588,0.123-0.972c0-0.32-0.137-0.625-0.236-0.847
					c-0.066-0.142-0.113-0.247-0.098-0.304c0.352,0.338,0.521,0.728,0.521,1.15c0,0.526-0.082,0.799-0.084,0.802L425.498,296.133
					L425.498,296.133z M425.297,293.99c0.004,0.045,0.051,0.153,0.113,0.287c0.1,0.225,0.24,0.528,0.24,0.854
					c0,0.339-0.094,0.827-0.121,0.949l0.188-0.159l0,0c-0.002,0,0.08-0.267,0.08-0.79
					C425.797,294.715,425.629,294.331,425.297,293.99L425.297,293.99z"/>
			</g>
			<path clip-path="url(#SVGID_4_)" fill-rule="evenodd" clip-rule="evenodd" fill="#AC5929" d="M425.891,297.434
				c-0.756-0.009-1.006-0.179-1.006-0.179s0-0.353,0.084-0.44c0.084-0.091,0.922-0.091,0.922-0.091V297.434z"/>
			<g clip-path="url(#SVGID_4_)">
				<path fill="#010101" d="M425.902,297.445h-0.012c-0.75-0.009-1.002-0.174-1.012-0.18c-0.006-0.025-0.004-0.369,0.082-0.46
					s0.896-0.091,0.93-0.091L425.902,297.445L425.902,297.445z M424.896,297.255c0.008,0,0.268,0.159,0.984,0.167v-0.698
					c-0.221,0.011-0.836,0.028-0.904,0.097C424.898,296.905,424.896,297.246,424.896,297.255L424.896,297.255L424.896,297.255z"/>
			</g>
			<path clip-path="url(#SVGID_4_)" fill-rule="evenodd" clip-rule="evenodd" fill="#AC5929" d="M425.891,296.99
				c-0.756-0.006-0.922-0.176-0.922-0.176s0-0.355,0.084-0.443c0.086-0.088,0.838-0.088,0.838-0.088V296.99z"/>
			<g clip-path="url(#SVGID_4_)">
				<path fill="#010101" d="M425.902,297.002h-0.012c-0.75-0.006-0.924-0.174-0.93-0.182c-0.004-0.023-0.002-0.367,0.084-0.455
					c0.088-0.091,0.814-0.094,0.846-0.094L425.902,297.002L425.902,297.002z M424.98,296.814c0.004,0,0.184,0.159,0.9,0.164v-0.695
					c-0.197,0.011-0.754,0.025-0.82,0.097C424.982,296.462,424.98,296.806,424.98,296.814L424.98,296.814L424.98,296.814z"/>
			</g>
			<path clip-path="url(#SVGID_4_)" fill-rule="evenodd" clip-rule="evenodd" fill="#AC5929" d="M423.711,302.295
				c0.262-0.611,0.336-1.68,0.336-1.858c0-0.497-0.156-2.918-0.168-3.89c-0.012-0.969,0.588-1.5,1.174-1.5
				c0.504,0,0.838,0.353,0.838,0.884h-0.252c0-0.355-0.25-0.619-0.586-0.619c-0.502,0-0.889,0.417-0.922,1.235
				c-0.035,0.949,0.102,3.409,0.084,4.068S423.973,301.863,423.711,302.295L423.711,302.295z"/>
			<g clip-path="url(#SVGID_4_)">
				<path fill="#F1C226" d="M423.734,302.309l-0.049-0.025c0.268-0.625,0.334-1.713,0.334-1.847c0-0.225-0.031-0.838-0.068-1.534
					c-0.043-0.85-0.092-1.821-0.1-2.355c-0.006-0.485,0.145-0.906,0.422-1.19c0.217-0.219,0.492-0.338,0.779-0.338
					c0.52,0,0.867,0.366,0.867,0.912l-0.281,0.025c-0.025-0.363-0.268-0.619-0.586-0.619c-0.523,0-0.865,0.466-0.895,1.213
					c-0.02,0.537,0.014,1.562,0.045,2.469c0.025,0.69,0.045,1.312,0.039,1.597C424.227,301.189,424.047,301.792,423.734,302.309
					L423.734,302.309z M425.053,295.072c-0.271,0-0.533,0.117-0.738,0.324c-0.27,0.272-0.414,0.679-0.406,1.15
					c0.006,0.534,0.055,1.503,0.1,2.35c0.037,0.699,0.068,1.315,0.068,1.54c0,0.113-0.049,0.918-0.229,1.546
					c0.207-0.436,0.328-0.912,0.338-1.37c0.01-0.284-0.014-0.903-0.037-1.591c-0.031-0.906-0.066-1.935-0.045-2.475
					c0.029-0.778,0.395-1.264,0.949-1.264c0.35,0,0.613,0.278,0.613,0.647l0.225-0.028
					C425.863,295.416,425.539,295.072,425.053,295.072L425.053,295.072z"/>
			</g>
			<path clip-path="url(#SVGID_4_)" fill-rule="evenodd" clip-rule="evenodd" fill="#AC5929" d="M425.891,295.883
				c-0.586,0-0.84,0.511-0.84,0.5l0.17,0.164c0.09,0.091,0.67,0.091,0.664,0.088L425.891,295.883z"/>
			<g clip-path="url(#SVGID_4_)">
				<path fill="#010101" d="M425.871,296.646c-0.023,0-0.568,0-0.66-0.091l-0.166-0.165c0.094-0.17,0.355-0.52,0.846-0.52
					l0.004,0.764L425.871,296.646L425.871,296.646z M425.881,295.883c-0.469,0.011-0.727,0.352-0.814,0.497l0.162,0.161
					c0.07,0.068,0.486,0.083,0.643,0.083v0.011l0.012-0.011L425.881,295.883L425.881,295.883z"/>
			</g>
			
				<rect x="358" y="276" clip-path="url(#SVGID_4_)" fill-rule="evenodd" clip-rule="evenodd" fill="#231E60" width="42.855" height="21.431"/>
			<path clip-path="url(#SVGID_4_)" fill="#FFFFFF" d="M358,276v2.396l38.065,19.035h4.79v-2.397L362.791,276H358z M400.855,276
				v2.396l-38.064,19.035H358v-2.397L396.065,276H400.855z"/>
			<path clip-path="url(#SVGID_4_)" fill="#FFFFFF" d="M375.857,297.428H383V276h-7.143V297.428z M358,290.285h42.855v-7.143H358
				V290.285z"/>
			<path clip-path="url(#SVGID_4_)" fill="#BA2025" d="M358,288.859h42.855v-4.287H358V288.859z M377.285,297.428h4.286V276h-4.286
				V297.428z"/>
			<path clip-path="url(#SVGID_4_)" fill="#BA2025" d="M358,297.428l14.285-7.143h3.194l-14.285,7.143H358z M358,276l14.285,7.143
				h-3.194L358,277.598V276z M383.375,283.143L397.662,276h3.193l-14.284,7.143H383.375z M400.855,297.428l-14.284-7.143h3.193
				l11.091,5.549V297.428z"/>
		</g>
	</g>
</g>
</svg>
