<?xml version="1.0" encoding="utf-8"?>
<!-- Generator: Adobe Illustrator 16.0.0, SVG Export Plug-In . SVG Version: 6.00 Build 0)  -->
<!DOCTYPE svg PUBLIC "-//W3C//DTD SVG 1.1//EN" "http://www.w3.org/Graphics/SVG/1.1/DTD/svg11.dtd">
<svg version="1.1" id="name" xmlns="http://www.w3.org/2000/svg" xmlns:xlink="http://www.w3.org/1999/xlink" x="0px" y="0px"
	 width="85.708px" height="50px" viewBox="358 276 85.708 50" enable-background="new 358 276 85.708 50" xml:space="preserve">
<g id="tg">
	<g>
		<defs>
			<rect id="SVGID_1_" x="358" y="276" width="85.708" height="50"/>
		</defs>
		<clipPath id="SVGID_2_">
			<use xlink:href="#SVGID_1_"  overflow="visible"/>
		</clipPath>
		<rect x="358" y="276" clip-path="url(#SVGID_2_)" fill="#2F6C50" width="85.708" height="50"/>
		<rect x="358" y="286.001" clip-path="url(#SVGID_2_)" fill="#F6CD2A" width="85.708" height="9.998"/>
		<rect x="358" y="305.999" clip-path="url(#SVGID_2_)" fill="#F6CD2A" width="85.708" height="10.001"/>
		<rect x="358" y="276" clip-path="url(#SVGID_2_)" fill="#C01F3F" width="29.998" height="29.999"/>
		<polygon clip-path="url(#SVGID_2_)" fill="#FFFFFF" points="372.999,281.501 370.063,290.535 374.581,292.002 		"/>
		<polygon clip-path="url(#SVGID_2_)" fill="#FFFFFF" points="372.999,281.501 375.936,290.535 371.417,292.002 		"/>
		<polygon clip-path="url(#SVGID_2_)" fill="#FFFFFF" points="382.034,288.063 372.534,288.063 372.534,292.814 		"/>
		<polygon clip-path="url(#SVGID_2_)" fill="#FFFFFF" points="382.034,288.063 374.348,293.649 371.555,289.806 		"/>
		<polygon clip-path="url(#SVGID_2_)" fill="#FFFFFF" points="363.963,288.063 371.649,293.649 374.442,289.806 		"/>
		<polygon clip-path="url(#SVGID_2_)" fill="#FFFFFF" points="363.963,288.063 373.463,288.063 373.463,292.814 		"/>
		<polygon clip-path="url(#SVGID_2_)" fill="#FFFFFF" points="378.583,298.687 375.647,289.652 371.129,291.118 		"/>
		<polygon clip-path="url(#SVGID_2_)" fill="#FFFFFF" points="378.583,298.687 370.899,293.101 373.69,289.26 		"/>
		<polygon clip-path="url(#SVGID_2_)" fill="#FFFFFF" points="367.415,298.687 375.1,293.101 372.309,289.26 		"/>
		<polygon clip-path="url(#SVGID_2_)" fill="#FFFFFF" points="367.415,298.687 370.35,289.652 374.868,291.118 		"/>
	</g>
</g>
</svg>
