<?xml version="1.0" encoding="utf-8"?>
<!-- Generator: Adobe Illustrator 16.0.0, SVG Export Plug-In . SVG Version: 6.00 Build 0)  -->
<!DOCTYPE svg PUBLIC "-//W3C//DTD SVG 1.1//EN" "http://www.w3.org/Graphics/SVG/1.1/DTD/svg11.dtd">
<svg version="1.1" id="name" xmlns="http://www.w3.org/2000/svg" xmlns:xlink="http://www.w3.org/1999/xlink" x="0px" y="0px"
	 width="85.71px" height="50px" viewBox="358 276 85.71 50" enable-background="new 358 276 85.71 50" xml:space="preserve">
<g id="tj">
	<g>
		<defs>
			<rect id="SVGID_1_" x="358" y="276" width="85.71" height="50"/>
		</defs>
		<clipPath id="SVGID_2_">
			<use xlink:href="#SVGID_1_"  overflow="visible"/>
		</clipPath>
		<rect x="358" y="311.722" clip-path="url(#SVGID_2_)" fill="#59B44B" width="85.71" height="14.278"/>
		<rect x="358" y="290.277" clip-path="url(#SVGID_2_)" fill="#FFFFFF" width="85.71" height="21.444"/>
		<rect x="358" y="276" clip-path="url(#SVGID_2_)" fill="#E91A45" width="85.71" height="14.277"/>
		<g clip-path="url(#SVGID_2_)">
			<defs>
				<rect id="SVGID_3_" x="358" y="276" width="85.71" height="50"/>
			</defs>
			<clipPath id="SVGID_4_">
				<use xlink:href="#SVGID_3_"  overflow="visible"/>
			</clipPath>
			<path clip-path="url(#SVGID_4_)" fill="#D0B52C" d="M400.792,306.076c0.416,0.503,1.927,1.025,3.222,0.378
				c0.199,0.603,1.814,1.591,3.258,0.537c-1.574-0.225-2.426-0.742-3.295-1.906c-0.871,0.701-2.295,0.073-2.611-0.262l0.02-4.055
				l2.072-2.036c0-0.441-1.33-1.683-2.662-1.686c-1.336,0-2.672,1.244-2.672,1.686l2.074,2.036l0.018,4.055
				c-0.314,0.335-1.74,0.963-2.611,0.262c-0.869,1.164-1.721,1.682-3.295,1.906c1.443,1.054,3.059,0.065,3.26-0.537
				c1.297,0.647,2.805,0.125,3.219-0.378H400.792z M400.788,300.067c-0.521-0.893-1.57-1.225-1.57-1.225s0.543-0.872,1.578-0.872
				c1.033,0,1.57,0.872,1.57,0.872S401.309,299.175,400.788,300.067"/>
			<path clip-path="url(#SVGID_4_)" fill="#D0B52C" d="M400.792,308.176c-1.902,0-3.111,0.668-3.74,1.369l-0.537-0.574
				c0.48-0.591,1.131-0.795,1.297-1.537c0.166-0.517-0.203-0.926-0.203-0.926s0.537,0.741,1.869,0.741
				c0.814,0,1.314-0.909,1.314-0.909 M400.792,306.34c0,0,0.5,0.909,1.316,0.909c1.332,0,1.869-0.741,1.869-0.741
				s-0.371,0.409-0.203,0.926c0.166,0.742,0.814,0.946,1.295,1.537l-0.537,0.574c-0.629-0.701-1.84-1.369-3.74-1.369"/>
			<polygon clip-path="url(#SVGID_4_)" fill="#D0B52C" points="409.969,301.556 410.332,302.667 411.5,302.667 410.553,303.354 
				410.916,304.465 409.969,303.78 409.025,304.465 409.387,303.354 408.443,302.667 409.609,302.667 			"/>
			<polygon clip-path="url(#SVGID_4_)" fill="#D0B52C" points="408.75,297.002 409.109,298.112 410.277,298.112 409.332,298.797 
				409.693,299.908 408.75,299.224 407.803,299.908 408.164,298.797 407.219,298.112 408.389,298.112 			"/>
			<polygon clip-path="url(#SVGID_4_)" fill="#D0B52C" points="405.414,293.663 405.775,294.774 406.943,294.774 405.996,295.465 
				406.357,296.575 405.414,295.885 404.469,296.575 404.828,295.465 403.883,294.774 405.051,294.774 			"/>
			<polygon clip-path="url(#SVGID_4_)" fill="#D0B52C" points="400.858,292.444 401.217,293.556 402.385,293.556 401.439,294.243 
				401.801,295.354 400.858,294.666 399.911,295.354 400.272,294.243 399.327,293.556 400.497,293.556 			"/>
			<polygon clip-path="url(#SVGID_4_)" fill="#D0B52C" points="396.301,293.663 396.661,294.774 397.829,294.774 396.883,295.465 
				397.245,296.575 396.301,295.885 395.354,296.575 395.715,295.465 394.77,294.774 395.94,294.774 			"/>
			<polygon clip-path="url(#SVGID_4_)" fill="#D0B52C" points="392.965,297.002 393.327,298.112 394.493,298.112 393.547,298.797 
				393.909,299.908 392.965,299.224 392.018,299.908 392.379,298.797 391.434,298.112 392.602,298.112 			"/>
			<polygon clip-path="url(#SVGID_4_)" fill="#D0B52C" points="391.743,301.556 392.104,302.667 393.272,302.667 392.327,303.354 
				392.69,304.465 391.743,303.78 390.797,304.465 391.159,303.354 390.215,302.667 391.383,302.667 			"/>
		</g>
	</g>
</g>
</svg>
