<?xml version="1.0" encoding="utf-8"?>
<!-- Generator: Adobe Illustrator 16.0.0, SVG Export Plug-In . SVG Version: 6.00 Build 0)  -->
<!DOCTYPE svg PUBLIC "-//W3C//DTD SVG 1.1//EN" "http://www.w3.org/Graphics/SVG/1.1/DTD/svg11.dtd">
<svg version="1.1" id="name" xmlns="http://www.w3.org/2000/svg" xmlns:xlink="http://www.w3.org/1999/xlink" x="0px" y="0px"
	 width="85.713px" height="50px" viewBox="358 276 85.713 50" enable-background="new 358 276 85.713 50" xml:space="preserve">
<g id="tm">
	<g>
		<defs>
			<rect id="SVGID_1_" x="358" y="276" width="85.713" height="50"/>
		</defs>
		<clipPath id="SVGID_2_">
			<use xlink:href="#SVGID_1_"  overflow="visible"/>
		</clipPath>
		<rect x="358" y="276" clip-path="url(#SVGID_2_)" fill="#32745A" width="85.713" height="50"/>
		<rect x="367" y="276" clip-path="url(#SVGID_2_)" fill="#BF1F3A" width="13.5" height="50"/>
		<polygon clip-path="url(#SVGID_2_)" fill-rule="evenodd" clip-rule="evenodd" fill="#E08529" points="367,289.961 367,289.575 
			367.581,288.609 367.435,288.416 367.774,287.885 367.677,287.691 367.435,288.078 367.338,287.885 368.114,286.532 
			368.258,286.726 368.114,286.918 368.355,287.305 368.935,286.339 368.355,285.421 368.114,285.76 368.258,285.952 
			368.114,286.146 367.338,284.793 367.435,284.6 367.677,284.986 367.774,284.793 367.435,284.262 367.581,284.068 367,283.103 
			367,282.717 367.774,284.068 367.677,284.262 368.017,284.793 367.774,285.18 368.017,285.566 368.355,284.986 369.129,286.339 
			368.355,287.691 368.017,287.111 367.774,287.498 368.017,287.885 367.677,288.416 367.774,288.609 		"/>
		<polygon clip-path="url(#SVGID_2_)" fill-rule="evenodd" clip-rule="evenodd" fill="#E08529" points="367,285.18 367.146,285.566 
			367.146,286.146 367.483,286.146 367.677,286.339 367.483,286.532 367.146,286.532 367.146,287.111 367,287.498 		"/>
		<polygon clip-path="url(#SVGID_2_)" fill-rule="evenodd" clip-rule="evenodd" fill="#E08529" points="367,299.141 367,298.754 
			367.581,297.788 367.435,297.596 367.774,297.016 367.677,296.822 367.435,297.209 367.338,297.016 368.114,295.711 
			368.258,295.904 368.114,296.098 368.355,296.484 368.935,295.519 368.355,294.601 368.114,294.938 368.258,295.132 
			368.114,295.325 367.338,293.97 367.435,293.777 367.677,294.163 367.774,293.97 367.435,293.391 367.581,293.197 367,292.279 
			367,291.893 367.774,293.197 367.677,293.391 368.017,293.97 367.774,294.359 368.017,294.746 368.355,294.163 369.129,295.519 
			368.355,296.822 368.017,296.291 367.774,296.678 368.017,297.016 367.677,297.596 367.774,297.788 		"/>
		<polygon clip-path="url(#SVGID_2_)" fill-rule="evenodd" clip-rule="evenodd" fill="#E08529" points="367,294.359 
			367.146,294.746 367.146,295.325 367.483,295.325 367.677,295.519 367.483,295.711 367.146,295.711 367.146,296.291 367,296.678 
					"/>
		<polygon clip-path="url(#SVGID_2_)" fill-rule="evenodd" clip-rule="evenodd" fill="#E08529" points="367,308.32 367,307.934 
			367.581,306.968 367.435,306.774 367.774,306.192 367.677,305.999 367.435,306.389 367.338,306.192 368.114,304.889 
			368.258,305.033 368.114,305.227 368.355,305.613 368.935,304.695 368.355,303.729 368.114,304.115 368.258,304.309 
			368.114,304.502 367.338,303.149 367.435,302.956 367.677,303.343 367.774,303.149 367.435,302.57 367.581,302.377 367,301.41 
			367,301.024 367.774,302.377 367.677,302.57 368.017,303.149 367.774,303.536 368.017,303.922 368.355,303.343 369.129,304.695 
			368.355,305.999 368.017,305.42 367.774,305.806 368.017,306.192 367.677,306.774 367.774,306.968 		"/>
		<polygon clip-path="url(#SVGID_2_)" fill-rule="evenodd" clip-rule="evenodd" fill="#E08529" points="367,303.536 
			367.146,303.922 367.146,304.502 367.483,304.502 367.677,304.695 367.483,304.889 367.146,304.889 367.146,305.42 367,305.806 		
			"/>
		<polygon clip-path="url(#SVGID_2_)" fill-rule="evenodd" clip-rule="evenodd" fill="#E08529" points="367,316.917 367,316.531 
			367.581,315.564 367.435,315.372 367.774,314.792 367.677,314.599 367.435,314.985 367.338,314.792 368.114,313.439 
			368.258,313.633 368.114,313.826 368.355,314.213 368.935,313.246 368.355,312.329 368.114,312.715 368.258,312.908 
			368.114,313.102 367.338,311.75 367.435,311.557 367.677,311.942 367.774,311.75 367.435,311.17 367.581,310.977 367,310.011 
			367,309.624 367.774,310.977 367.677,311.17 368.017,311.75 367.774,312.136 368.017,312.522 368.355,311.942 369.129,313.295 
			368.355,314.599 368.017,314.02 367.774,314.406 368.017,314.792 367.677,315.372 367.774,315.564 		"/>
		<polygon clip-path="url(#SVGID_2_)" fill-rule="evenodd" clip-rule="evenodd" fill="#E08529" points="367,312.136 
			367.146,312.522 367.146,313.102 367.483,313.102 367.677,313.246 367.483,313.439 367.146,313.439 367.146,314.02 367,314.406 		
			"/>
		<polygon clip-path="url(#SVGID_2_)" fill-rule="evenodd" clip-rule="evenodd" fill="#E08529" points="380.5,289.961 
			380.5,289.575 379.919,288.609 380.066,288.416 379.726,287.885 379.822,287.691 380.066,288.078 380.161,287.885 
			379.387,286.532 379.243,286.726 379.387,286.918 379.145,287.305 378.613,286.339 379.145,285.421 379.387,285.76 
			379.243,285.952 379.387,286.146 380.161,284.793 380.066,284.6 379.822,284.986 379.726,284.793 380.066,284.262 
			379.919,284.068 380.5,283.103 380.5,282.717 379.726,284.068 379.822,284.262 379.484,284.793 379.726,285.18 379.484,285.566 
			379.145,284.986 378.372,286.339 379.145,287.691 379.484,287.111 379.726,287.498 379.484,287.885 379.822,288.416 
			379.726,288.609 		"/>
		<polygon clip-path="url(#SVGID_2_)" fill-rule="evenodd" clip-rule="evenodd" fill="#E08529" points="380.5,285.18 
			380.404,285.566 380.404,286.146 380.066,286.146 379.822,286.339 380.066,286.532 380.404,286.532 380.404,287.111 
			380.5,287.498 		"/>
		<polygon clip-path="url(#SVGID_2_)" fill-rule="evenodd" clip-rule="evenodd" fill="#E08529" points="380.5,299.141 
			380.5,298.754 379.919,297.788 380.066,297.596 379.726,297.016 379.822,296.822 380.066,297.209 380.161,297.016 
			379.387,295.711 379.243,295.904 379.387,296.098 379.145,296.484 378.613,295.519 379.145,294.601 379.387,294.938 
			379.243,295.132 379.387,295.325 380.161,293.97 380.066,293.777 379.822,294.163 379.726,293.97 380.066,293.391 
			379.919,293.197 380.5,292.279 380.5,291.893 379.726,293.197 379.822,293.391 379.484,293.97 379.726,294.359 379.484,294.746 
			379.145,294.163 378.372,295.519 379.145,296.822 379.484,296.291 379.726,296.678 379.484,297.016 379.822,297.596 
			379.726,297.788 		"/>
		<polygon clip-path="url(#SVGID_2_)" fill-rule="evenodd" clip-rule="evenodd" fill="#E08529" points="380.5,294.359 
			380.404,294.746 380.404,295.325 380.066,295.325 379.822,295.519 380.066,295.711 380.404,295.711 380.404,296.291 
			380.5,296.678 		"/>
		<polygon clip-path="url(#SVGID_2_)" fill-rule="evenodd" clip-rule="evenodd" fill="#E08529" points="380.5,308.32 380.5,307.934 
			379.919,306.968 380.066,306.774 379.726,306.192 379.822,305.999 380.066,306.389 380.161,306.192 379.387,304.889 
			379.243,305.033 379.387,305.227 379.145,305.613 378.613,304.695 379.145,303.729 379.387,304.115 379.243,304.309 
			379.387,304.502 380.161,303.149 380.066,302.956 379.822,303.343 379.726,303.149 380.066,302.57 379.919,302.377 380.5,301.41 
			380.5,301.024 379.726,302.377 379.822,302.57 379.484,303.149 379.726,303.536 379.484,303.922 379.145,303.343 378.372,304.695 
			379.145,305.999 379.484,305.42 379.726,305.806 379.484,306.192 379.822,306.774 379.726,306.968 		"/>
		<polygon clip-path="url(#SVGID_2_)" fill-rule="evenodd" clip-rule="evenodd" fill="#E08529" points="380.5,303.536 
			380.404,303.922 380.404,304.502 380.066,304.502 379.822,304.695 380.066,304.889 380.404,304.889 380.404,305.42 380.5,305.806 
					"/>
		<polygon clip-path="url(#SVGID_2_)" fill-rule="evenodd" clip-rule="evenodd" fill="#E08529" points="380.5,316.917 
			380.5,316.531 379.919,315.564 380.066,315.372 379.726,314.792 379.822,314.599 380.066,314.985 380.161,314.792 
			379.387,313.439 379.243,313.633 379.387,313.826 379.145,314.213 378.613,313.246 379.145,312.329 379.387,312.715 
			379.243,312.908 379.387,313.102 380.161,311.75 380.066,311.557 379.822,311.942 379.726,311.75 380.066,311.17 379.919,310.977 
			380.5,310.011 380.5,309.624 379.726,310.977 379.822,311.17 379.484,311.75 379.726,312.136 379.484,312.522 379.145,311.942 
			378.372,313.295 379.145,314.599 379.484,314.02 379.726,314.406 379.484,314.792 379.822,315.372 379.726,315.564 		"/>
		<polygon clip-path="url(#SVGID_2_)" fill-rule="evenodd" clip-rule="evenodd" fill="#E08529" points="380.5,312.136 
			380.404,312.522 380.404,313.102 380.066,313.102 379.822,313.246 380.066,313.439 380.404,313.439 380.404,314.02 380.5,314.406 
					"/>
		<polygon clip-path="url(#SVGID_2_)" fill-rule="evenodd" clip-rule="evenodd" fill="#E08529" points="367,279.671 367,279.284 
			367.581,278.318 367.435,278.125 367.774,277.546 367.677,277.353 367.435,277.739 367.338,277.546 368.114,276.193 
			368.258,276.387 368.114,276.58 368.355,276.966 368.935,276 369.129,276 368.355,277.353 368.017,276.773 367.774,277.159 
			368.017,277.546 367.677,278.125 367.774,278.318 		"/>
		<polygon clip-path="url(#SVGID_2_)" fill-rule="evenodd" clip-rule="evenodd" fill="#E08529" points="367,276 367.677,276 
			367.483,276.193 367.146,276.193 367.146,276.773 367,277.159 		"/>
		<polygon clip-path="url(#SVGID_2_)" fill-rule="evenodd" clip-rule="evenodd" fill="#E08529" points="380.5,279.671 
			380.5,279.284 379.919,278.318 380.066,278.125 379.726,277.546 379.822,277.353 380.066,277.739 380.161,277.546 
			379.387,276.193 379.243,276.387 379.387,276.58 379.145,276.966 378.613,276 378.372,276 379.145,277.353 379.484,276.773 
			379.726,277.159 379.484,277.546 379.822,278.125 379.726,278.318 		"/>
		<polygon clip-path="url(#SVGID_2_)" fill-rule="evenodd" clip-rule="evenodd" fill="#E08529" points="380.5,276 379.822,276 
			380.066,276.193 380.404,276.193 380.404,276.773 380.5,277.159 		"/>
		<g clip-path="url(#SVGID_2_)">
			<defs>
				<rect id="SVGID_3_" x="358" y="276" width="85.713" height="50"/>
			</defs>
			<clipPath id="SVGID_4_">
				<use xlink:href="#SVGID_3_"  overflow="visible"/>
			</clipPath>
			<path clip-path="url(#SVGID_4_)" fill-rule="evenodd" clip-rule="evenodd" fill="#E08529" d="M372.613,325.565
				c0,0,0.483-0.725,1.743-0.966c1.209-0.193,1.402,0.531,2.127,0.531c0.678,0,1.792-0.531,1.792-0.531s-1.113,0.966-1.985,0.918
				c-0.822,0-1.113-0.483-1.983-0.387C373.436,325.18,372.613,325.613,372.613,325.565L372.613,325.565z"/>
			<path clip-path="url(#SVGID_4_)" fill-rule="evenodd" clip-rule="evenodd" fill="#E08529" d="M374.984,325.565
				c0,0-0.483-0.725-1.693-0.966c-1.209-0.193-1.452,0.531-2.129,0.531c-0.726,0-1.79-0.531-1.79-0.531s1.064,0.966,1.936,0.918
				c0.871,0,1.16-0.483,2.032-0.387C374.209,325.18,374.984,325.613,374.984,325.565L374.984,325.565z"/>
			<path clip-path="url(#SVGID_4_)" fill-rule="evenodd" clip-rule="evenodd" fill="#E08529" d="M371.016,324.358
				c-0.145-0.193-0.388-1.063-0.243-1.159c0.195-0.049,0.775,0.82,0.727,1.594c-0.387,0.145-1.645-0.097-1.645-0.29
				C369.952,324.165,370.677,324.262,371.016,324.358L371.016,324.358z"/>
			<path clip-path="url(#SVGID_4_)" fill-rule="evenodd" clip-rule="evenodd" fill="#E08529" d="M370.242,323.634
				c-0.097-0.241-0.193-1.159-0.048-1.208c0.242,0,0.628,0.967,0.435,1.739c-0.387,0.048-1.597-0.483-1.5-0.725
				C369.275,323.15,369.952,323.44,370.242,323.634L370.242,323.634z"/>
			<path clip-path="url(#SVGID_4_)" fill-rule="evenodd" clip-rule="evenodd" fill="#E08529" d="M369.613,322.764
				c-0.048-0.192-0.048-1.11,0.097-1.158c0.242,0,0.533,1.062,0.242,1.738c-0.387,0.049-1.548-0.676-1.452-0.869
				C368.694,322.185,369.323,322.571,369.613,322.764L369.613,322.764z"/>
			<path clip-path="url(#SVGID_4_)" fill-rule="evenodd" clip-rule="evenodd" fill="#E08529" d="M369.129,321.895
				c-0.049-0.241,0.097-1.159,0.242-1.159c0.241,0.049,0.387,1.159,0,1.787c-0.388-0.048-1.404-0.917-1.307-1.11
				C368.258,321.17,368.887,321.653,369.129,321.895L369.129,321.895z"/>
			<path clip-path="url(#SVGID_4_)" fill-rule="evenodd" clip-rule="evenodd" fill="#E08529" d="M368.791,320.978
				c0-0.242,0.193-1.111,0.388-1.111c0.193,0.097,0.241,1.159-0.195,1.787c-0.435-0.145-1.306-1.208-1.209-1.353
				C368.017,320.107,368.548,320.688,368.791,320.978L368.791,320.978z"/>
			<path clip-path="url(#SVGID_4_)" fill-rule="evenodd" clip-rule="evenodd" fill="#E08529" d="M368.887,319.914
				c-0.048,0.918-0.242,0.918-0.581,0.242c-0.193-0.242-0.193-1.355-0.048-1.355C368.452,318.753,368.887,319.528,368.887,319.914
				L368.887,319.914z"/>
			<path clip-path="url(#SVGID_4_)" fill-rule="evenodd" clip-rule="evenodd" fill="#E08529" d="M376.581,324.455
				c0.097-0.193,0.338-1.062,0.193-1.16c-0.193-0.048-0.773,0.821-0.726,1.595c0.387,0.145,1.646-0.097,1.646-0.29
				C377.596,324.262,376.871,324.358,376.581,324.455L376.581,324.455z"/>
			<path clip-path="url(#SVGID_4_)" fill-rule="evenodd" clip-rule="evenodd" fill="#E08529" d="M377.306,323.73
				c0.097-0.242,0.193-1.159,0.049-1.208c-0.242,0-0.629,0.966-0.437,1.739c0.388,0.048,1.598-0.483,1.55-0.725
				C378.323,323.247,377.645,323.537,377.306,323.73L377.306,323.73z"/>
			<path clip-path="url(#SVGID_4_)" fill-rule="evenodd" clip-rule="evenodd" fill="#E08529" d="M377.935,322.861
				c0.049-0.193,0.097-1.111-0.097-1.16c-0.193,0-0.532,1.062-0.242,1.739c0.388,0.048,1.549-0.677,1.452-0.869
				C378.855,322.281,378.226,322.668,377.935,322.861L377.935,322.861z"/>
			<path clip-path="url(#SVGID_4_)" fill-rule="evenodd" clip-rule="evenodd" fill="#E08529" d="M378.419,321.991
				c0.049-0.241-0.048-1.159-0.241-1.159c-0.194,0.049-0.388,1.159,0,1.787c0.386-0.048,1.402-0.918,1.306-1.11
				C379.291,321.268,378.709,321.75,378.419,321.991L378.419,321.991z"/>
			<path clip-path="url(#SVGID_4_)" fill-rule="evenodd" clip-rule="evenodd" fill="#E08529" d="M378.757,321.074
				c0-0.242-0.193-1.111-0.386-1.111c-0.193,0.097-0.242,1.159,0.241,1.787c0.387-0.097,1.258-1.207,1.161-1.353
				C379.533,320.204,379,320.784,378.757,321.074L378.757,321.074z"/>
			<path clip-path="url(#SVGID_4_)" fill-rule="evenodd" clip-rule="evenodd" fill="#E08529" d="M378.709,320.012
				c0,0.917,0.193,0.917,0.533,0.241c0.193-0.241,0.193-1.353,0.048-1.353C379.096,318.85,378.709,319.625,378.709,320.012
				L378.709,320.012z"/>
			<polygon clip-path="url(#SVGID_4_)" fill-rule="evenodd" clip-rule="evenodd" fill="#C1402A" points="378.419,310.396 
				377.742,310.396 377.742,310.977 377.113,310.977 377.113,311.557 374.5,311.557 374.064,312.136 374.307,312.426 
				375.37,312.426 375.613,312.136 374.5,312.136 374.742,311.846 376.242,311.846 375.613,312.715 374.064,312.715 
				373.629,312.426 373.194,312.715 371.693,312.715 371.064,311.846 372.565,311.846 372.758,312.136 371.693,312.136 
				371.935,312.426 373,312.426 373.194,312.136 372.758,311.557 370.387,311.557 370.387,310.977 369.758,310.977 369.758,310.396 
				369.129,310.396 369.129,307.74 369.758,307.74 369.758,307.161 370.387,307.161 370.387,306.582 372.758,306.582 
				373.194,305.999 373,305.709 371.935,305.709 371.693,305.999 372.758,305.999 372.565,306.292 371.064,306.292 371.693,305.42 
				373.194,305.42 373.629,305.709 374.064,305.42 375.613,305.42 376.242,306.292 374.742,306.292 374.5,305.999 375.613,305.999 
				375.37,305.709 374.307,305.709 374.064,305.999 374.5,306.582 377.113,306.582 377.113,307.161 377.742,307.161 377.742,307.74 
				378.419,307.74 			"/>
			<g clip-path="url(#SVGID_4_)">
				<polygon fill="none" stroke="#2A2D2F" stroke-width="0" stroke-linecap="square" stroke-miterlimit="10" points="
					378.419,310.396 377.742,310.396 377.742,310.977 377.113,310.977 377.113,311.557 374.5,311.557 374.064,312.136 
					374.307,312.426 375.37,312.426 375.613,312.136 374.5,312.136 374.742,311.846 376.242,311.846 375.613,312.715 
					374.064,312.715 373.629,312.426 373.194,312.715 371.693,312.715 371.064,311.846 372.565,311.846 372.758,312.136 
					371.693,312.136 371.935,312.426 373,312.426 373.194,312.136 372.758,311.557 370.387,311.557 370.387,310.977 
					369.758,310.977 369.758,310.396 369.129,310.396 369.129,307.74 369.758,307.74 369.758,307.161 370.387,307.161 
					370.387,306.582 372.758,306.582 373.194,305.999 373,305.709 371.935,305.709 371.693,305.999 372.758,305.999 
					372.565,306.292 371.064,306.292 371.693,305.42 373.194,305.42 373.629,305.709 374.064,305.42 375.613,305.42 
					376.242,306.292 374.742,306.292 374.5,305.999 375.613,305.999 375.37,305.709 374.307,305.709 374.064,305.999 374.5,306.582 
					377.113,306.582 377.113,307.161 377.742,307.161 377.742,307.74 378.419,307.74 				"/>
			</g>
			<polygon clip-path="url(#SVGID_4_)" fill-rule="evenodd" clip-rule="evenodd" fill="#32745A" points="369.323,308.078 
				369.323,310.107 369.952,310.107 369.952,310.687 370.628,310.687 370.628,311.267 372.758,311.267 373.629,312.136 
				374.5,311.267 376.871,311.267 376.871,310.687 377.548,310.687 377.548,310.107 378.178,310.107 378.178,308.03 377.548,308.03 
				377.548,307.451 376.871,307.499 376.871,306.868 374.5,306.868 373.629,305.999 372.758,306.868 370.628,306.868 
				370.628,307.499 369.952,307.499 369.952,308.078 			"/>
			<path clip-path="url(#SVGID_4_)" fill="#E08529" d="M369.468,310.107h-0.29v-2.029h0.29V310.107z M369.323,310.252h-0.145v-0.145
				h0.145V310.252z M369.323,309.963h0.628v0.289h-0.628V309.963z M369.952,309.963h0.145v0.145h-0.145V309.963z M370.097,310.687
				h-0.29v-0.579h0.29V310.687z M369.952,310.832h-0.146v-0.146h0.146V310.832z M369.952,310.542h0.677v0.29h-0.677V310.542z
				 M370.628,310.542h0.145v0.145h-0.145V310.542z M370.773,311.267h-0.29v-0.58h0.29V311.267z M370.628,311.411h-0.145v-0.145
				h0.145V311.411z M370.628,311.121h2.129v0.29h-2.129V311.121z M372.758,311.121h0.097h0.048l-0.145,0.146V311.121z
				 M372.903,311.121l0.823,0.87l-0.194,0.241l-0.871-0.869L372.903,311.121z M373.726,312.232l-0.097,0.097l-0.097-0.097
				l0.097-0.097L373.726,312.232z M373.532,311.991l0.872-0.87l0.193,0.242l-0.871,0.869L373.532,311.991z M374.404,311.121h0.048
				h0.049v0.146L374.404,311.121z M374.5,311.121h2.37v0.29h-2.37V311.121z M377.017,311.411h-0.146v-0.145h0.146V311.411z
				 M376.726,310.687h0.291v0.58h-0.291V310.687z M376.726,310.542h0.145v0.145h-0.145V310.542z M376.871,310.542h0.678v0.29h-0.678
				V310.542z M377.694,310.832h-0.146v-0.146h0.146V310.832z M377.403,310.107h0.291v0.579h-0.291V310.107z M377.403,309.963h0.146
				v0.145h-0.146V309.963z M377.548,309.963h0.63v0.289h-0.63V309.963z M378.323,310.252h-0.145v-0.145h0.145V310.252z
				 M378.032,308.03h0.291v2.077h-0.291V308.03z M378.178,307.886h0.145v0.145h-0.145V307.886z M378.178,308.176h-0.63v-0.29h0.63
				V308.176z M377.548,308.176h-0.146v-0.146h0.146V308.176z M377.403,307.451h0.291v0.579h-0.291V307.451z M377.548,307.306h0.146
				v0.146h-0.146V307.306z M377.548,307.596l-0.678,0.049v-0.29l0.678-0.049V307.596z M376.871,307.645h-0.145v-0.146h0.145V307.645
				z M376.726,306.868h0.291v0.631h-0.291V306.868z M376.871,306.727h0.146v0.145h-0.146V306.727z M376.871,307.016h-2.37v-0.289
				h2.37V307.016z M374.5,307.016h-0.049h-0.048l0.097-0.147V307.016z M374.404,307.016l-0.872-0.871l0.194-0.242l0.871,0.872
				L374.404,307.016z M373.532,305.902l0.097-0.097l0.097,0.097l-0.097,0.097L373.532,305.902z M373.726,306.145l-0.823,0.871
				l-0.241-0.241l0.871-0.872L373.726,306.145z M372.903,307.016h-0.048h-0.097v-0.147L372.903,307.016z M372.758,307.016h-2.129
				v-0.289h2.129V307.016z M370.484,306.727h0.145v0.145h-0.145V306.727z M370.773,307.499h-0.29v-0.631h0.29V307.499z
				 M370.773,307.645h-0.145v-0.146h0.145V307.645z M370.628,307.645h-0.677v-0.29h0.677V307.645z M369.806,307.354h0.146v0.145
				h-0.146V307.354z M370.097,308.078h-0.29v-0.579h0.29V308.078z M370.097,308.224h-0.145v-0.146h0.145V308.224z M369.952,308.224
				h-0.628v-0.29h0.628V308.224z M369.178,307.934h0.145v0.145h-0.145V307.934z"/>
			<polygon clip-path="url(#SVGID_4_)" fill-rule="evenodd" clip-rule="evenodd" fill="#C1402A" points="372.371,307.161 
				371.064,308.61 371.064,307.161 			"/>
			<polygon clip-path="url(#SVGID_4_)" fill-rule="evenodd" clip-rule="evenodd" fill="#C1402A" points="374.936,307.161 
				376.242,308.61 376.242,307.161 			"/>
			<polygon clip-path="url(#SVGID_4_)" fill-rule="evenodd" clip-rule="evenodd" fill="#C1402A" points="372.371,310.977 
				371.064,309.527 371.064,310.977 			"/>
			<polygon clip-path="url(#SVGID_4_)" fill-rule="evenodd" clip-rule="evenodd" fill="#C1402A" points="374.936,310.977 
				376.242,309.527 376.242,310.977 			"/>
			<polygon clip-path="url(#SVGID_4_)" fill-rule="evenodd" clip-rule="evenodd" fill="#C1402A" points="375.37,308.03 
				374.936,308.61 375.806,308.61 			"/>
			<polygon clip-path="url(#SVGID_4_)" fill-rule="evenodd" clip-rule="evenodd" fill="#C1402A" points="371.935,308.03 
				371.5,308.61 372.371,308.61 			"/>
			<polygon clip-path="url(#SVGID_4_)" fill-rule="evenodd" clip-rule="evenodd" fill="#C1402A" points="371.935,310.107 
				371.5,309.527 372.371,309.527 			"/>
			<polygon clip-path="url(#SVGID_4_)" fill-rule="evenodd" clip-rule="evenodd" fill="#C1402A" points="375.37,310.107 
				374.936,309.527 375.806,309.527 			"/>
			<polygon clip-path="url(#SVGID_4_)" fill-rule="evenodd" clip-rule="evenodd" fill="#E08529" points="373.629,311.557 
				373.194,310.977 374.064,310.977 			"/>
			<polygon clip-path="url(#SVGID_4_)" fill-rule="evenodd" clip-rule="evenodd" fill="#E08529" points="373.629,308.61 
				373.194,308.03 374.064,308.03 			"/>
			<polygon clip-path="url(#SVGID_4_)" fill-rule="evenodd" clip-rule="evenodd" fill="#E08529" points="373.629,306.582 
				373.194,307.161 374.064,307.161 			"/>
			<polygon clip-path="url(#SVGID_4_)" fill-rule="evenodd" clip-rule="evenodd" fill="#E08529" points="373.629,309.527 
				373.194,310.107 374.064,310.107 			"/>
			
				<rect x="374.936" y="308.61" clip-path="url(#SVGID_4_)" fill-rule="evenodd" clip-rule="evenodd" fill="#E08529" width="0.871" height="0.29"/>
			<g clip-path="url(#SVGID_4_)">
				
					<rect x="374.936" y="308.61" fill="none" stroke="#2A2D2F" stroke-width="0" stroke-linecap="square" stroke-miterlimit="10" width="0.871" height="0.29"/>
			</g>
			
				<rect x="371.693" y="308.9" clip-path="url(#SVGID_4_)" fill-rule="evenodd" clip-rule="evenodd" fill="#CF3E27" width="0.436" height="0.338"/>
			<g clip-path="url(#SVGID_4_)">
				
					<rect x="371.693" y="308.9" fill="none" stroke="#2A2D2F" stroke-width="0" stroke-linecap="square" stroke-miterlimit="10" width="0.436" height="0.338"/>
			</g>
			
				<rect x="375.177" y="308.9" clip-path="url(#SVGID_4_)" fill-rule="evenodd" clip-rule="evenodd" fill="#CF3E27" width="0.436" height="0.338"/>
			<g clip-path="url(#SVGID_4_)">
				
					<rect x="375.177" y="308.9" fill="none" stroke="#2A2D2F" stroke-width="0" stroke-linecap="square" stroke-miterlimit="10" width="0.436" height="0.338"/>
			</g>
			
				<rect x="373.194" y="307.161" clip-path="url(#SVGID_4_)" fill-rule="evenodd" clip-rule="evenodd" fill="#AE3D2C" width="0.87" height="0.29"/>
			<g clip-path="url(#SVGID_4_)">
				
					<rect x="373.194" y="307.161" fill="none" stroke="#2A2D2F" stroke-width="0" stroke-linecap="square" stroke-miterlimit="10" width="0.87" height="0.29"/>
			</g>
			
				<rect x="373.194" y="307.74" clip-path="url(#SVGID_4_)" fill-rule="evenodd" clip-rule="evenodd" fill="#AE3D2C" width="0.87" height="0.29"/>
			<g clip-path="url(#SVGID_4_)">
				
					<rect x="373.194" y="307.74" fill="none" stroke="#2A2D2F" stroke-width="0" stroke-linecap="square" stroke-miterlimit="10" width="0.87" height="0.29"/>
			</g>
			
				<rect x="373" y="307.451" clip-path="url(#SVGID_4_)" fill-rule="evenodd" clip-rule="evenodd" fill="#AE3D2C" width="1.308" height="0.289"/>
			<g clip-path="url(#SVGID_4_)">
				
					<rect x="373" y="307.451" fill="none" stroke="#2A2D2F" stroke-width="0" stroke-linecap="square" stroke-miterlimit="10" width="1.308" height="0.289"/>
			</g>
			
				<rect x="373.194" y="310.107" clip-path="url(#SVGID_4_)" fill-rule="evenodd" clip-rule="evenodd" fill="#AE3D2C" width="0.87" height="0.289"/>
			<g clip-path="url(#SVGID_4_)">
				
					<rect x="373.194" y="310.107" fill="none" stroke="#2A2D2F" stroke-width="0" stroke-linecap="square" stroke-miterlimit="10" width="0.87" height="0.289"/>
			</g>
			
				<rect x="373.194" y="310.687" clip-path="url(#SVGID_4_)" fill-rule="evenodd" clip-rule="evenodd" fill="#AE3D2C" width="0.87" height="0.29"/>
			<g clip-path="url(#SVGID_4_)">
				
					<rect x="373.194" y="310.687" fill="none" stroke="#2A2D2F" stroke-width="0" stroke-linecap="square" stroke-miterlimit="10" width="0.87" height="0.29"/>
			</g>
			
				<rect x="373" y="310.396" clip-path="url(#SVGID_4_)" fill-rule="evenodd" clip-rule="evenodd" fill="#AE3D2C" width="1.308" height="0.29"/>
			<g clip-path="url(#SVGID_4_)">
				
					<rect x="373" y="310.396" fill="none" stroke="#2A2D2F" stroke-width="0" stroke-linecap="square" stroke-miterlimit="10" width="1.308" height="0.29"/>
			</g>
			
				<rect x="374.936" y="309.238" clip-path="url(#SVGID_4_)" fill-rule="evenodd" clip-rule="evenodd" fill="#E08529" width="0.871" height="0.289"/>
			<g clip-path="url(#SVGID_4_)">
				
					<rect x="374.936" y="309.238" fill="none" stroke="#2A2D2F" stroke-width="0" stroke-linecap="square" stroke-miterlimit="10" width="0.871" height="0.289"/>
			</g>
			
				<rect x="371.5" y="308.61" clip-path="url(#SVGID_4_)" fill-rule="evenodd" clip-rule="evenodd" fill="#E08529" width="0.871" height="0.29"/>
			<g clip-path="url(#SVGID_4_)">
				
					<rect x="371.5" y="308.61" fill="none" stroke="#2A2D2F" stroke-width="0" stroke-linecap="square" stroke-miterlimit="10" width="0.871" height="0.29"/>
			</g>
			
				<rect x="371.5" y="309.238" clip-path="url(#SVGID_4_)" fill-rule="evenodd" clip-rule="evenodd" fill="#E08529" width="0.871" height="0.289"/>
			<g clip-path="url(#SVGID_4_)">
				
					<rect x="371.5" y="309.238" fill="none" stroke="#2A2D2F" stroke-width="0" stroke-linecap="square" stroke-miterlimit="10" width="0.871" height="0.289"/>
			</g>
			
				<rect x="371.258" y="308.9" clip-path="url(#SVGID_4_)" fill-rule="evenodd" clip-rule="evenodd" fill="#E08529" width="0.436" height="0.338"/>
			<g clip-path="url(#SVGID_4_)">
				
					<rect x="371.258" y="308.9" fill="none" stroke="#2A2D2F" stroke-width="0" stroke-linecap="square" stroke-miterlimit="10" width="0.436" height="0.338"/>
			</g>
			
				<rect x="372.129" y="308.9" clip-path="url(#SVGID_4_)" fill-rule="evenodd" clip-rule="evenodd" fill="#E08529" width="0.436" height="0.338"/>
			<g clip-path="url(#SVGID_4_)">
				
					<rect x="372.129" y="308.9" fill="none" stroke="#2A2D2F" stroke-width="0" stroke-linecap="square" stroke-miterlimit="10" width="0.436" height="0.338"/>
			</g>
			
				<rect x="374.742" y="308.9" clip-path="url(#SVGID_4_)" fill-rule="evenodd" clip-rule="evenodd" fill="#E08529" width="0.436" height="0.338"/>
			<g clip-path="url(#SVGID_4_)">
				
					<rect x="374.742" y="308.9" fill="none" stroke="#2A2D2F" stroke-width="0" stroke-linecap="square" stroke-miterlimit="10" width="0.436" height="0.338"/>
			</g>
			
				<rect x="375.613" y="308.9" clip-path="url(#SVGID_4_)" fill-rule="evenodd" clip-rule="evenodd" fill="#E08529" width="0.387" height="0.338"/>
			<g clip-path="url(#SVGID_4_)">
				
					<rect x="375.613" y="308.9" fill="none" stroke="#2A2D2F" stroke-width="0" stroke-linecap="square" stroke-miterlimit="10" width="0.387" height="0.338"/>
			</g>
			<path clip-path="url(#SVGID_4_)" fill-rule="evenodd" clip-rule="evenodd" fill="#FFFFFF" d="M373.146,310.542
				c0,0,0,0.048-0.05,0.048l-0.048-0.048c0-0.048,0.048-0.097,0.048-0.097C373.146,310.445,373.146,310.494,373.146,310.542
				L373.146,310.542z"/>
			<path clip-path="url(#SVGID_4_)" fill-rule="evenodd" clip-rule="evenodd" fill="#FFFFFF" d="M373.726,310.542
				c0,0-0.048,0.048-0.097,0.048l-0.048-0.048c0-0.048,0.048-0.097,0.048-0.097C373.678,310.445,373.726,310.494,373.726,310.542
				L373.726,310.542z"/>
			<path clip-path="url(#SVGID_4_)" fill-rule="evenodd" clip-rule="evenodd" fill="#FFFFFF" d="M374.257,310.494
				c0,0.048-0.048,0.096-0.048,0.096c-0.048,0-0.097-0.048-0.097-0.096c0,0,0.048-0.049,0.097-0.049L374.257,310.494z"/>
			<path clip-path="url(#SVGID_4_)" fill-rule="evenodd" clip-rule="evenodd" fill="#FFFFFF" d="M373.387,310.252l-0.048,0.049
				c-0.048,0-0.048-0.049-0.048-0.049c0-0.048,0-0.097,0.048-0.097C373.339,310.155,373.387,310.204,373.387,310.252
				L373.387,310.252z"/>
			<path clip-path="url(#SVGID_4_)" fill-rule="evenodd" clip-rule="evenodd" fill="#FFFFFF" d="M374.016,310.204
				c0,0.048,0,0.097-0.048,0.097c-0.048,0-0.048-0.049-0.048-0.097c0,0,0-0.049,0.048-0.049
				C374.016,310.155,374.016,310.204,374.016,310.204L374.016,310.204z"/>
			<path clip-path="url(#SVGID_4_)" fill-rule="evenodd" clip-rule="evenodd" fill="#FFFFFF" d="M373.387,310.783
				c0,0.049-0.048,0.097-0.048,0.097c-0.048,0-0.048-0.048-0.048-0.097c0,0,0-0.048,0.048-0.048L373.387,310.783z"/>
			<path clip-path="url(#SVGID_4_)" fill-rule="evenodd" clip-rule="evenodd" fill="#FFFFFF" d="M374.016,310.832
				c0,0.048,0,0.048-0.048,0.048c-0.048,0-0.048,0-0.048-0.048c0-0.049,0-0.097,0.048-0.097
				C374.016,310.735,374.016,310.783,374.016,310.832L374.016,310.832z"/>
			<path clip-path="url(#SVGID_4_)" fill-rule="evenodd" clip-rule="evenodd" fill="#FFFFFF" d="M374.887,309.045
				c0,0.048-0.048,0.097-0.048,0.097c-0.048,0-0.048-0.049-0.048-0.097c0-0.049,0-0.049,0.048-0.049
				C374.839,308.996,374.887,308.996,374.887,309.045L374.887,309.045z"/>
			<path clip-path="url(#SVGID_4_)" fill-rule="evenodd" clip-rule="evenodd" fill="#FFFFFF" d="M375.42,309.045
				c0,0.048,0,0.097-0.05,0.097c-0.048,0-0.048-0.049-0.048-0.097c0-0.049,0-0.049,0.048-0.049
				C375.42,308.996,375.42,308.996,375.42,309.045L375.42,309.045z"/>
			<path clip-path="url(#SVGID_4_)" fill-rule="evenodd" clip-rule="evenodd" fill="#FFFFFF" d="M375.952,309.045
				c0,0.048,0,0.097-0.048,0.097c-0.049,0-0.049-0.049-0.049-0.097c0-0.049,0-0.049,0.049-0.049
				C375.952,308.996,375.952,308.996,375.952,309.045L375.952,309.045z"/>
			<path clip-path="url(#SVGID_4_)" fill-rule="evenodd" clip-rule="evenodd" fill="#FFFFFF" d="M375.081,308.755
				c0,0.048,0,0.097-0.048,0.097c0,0-0.048-0.049-0.048-0.097s0.048-0.048,0.048-0.048
				C375.081,308.707,375.081,308.707,375.081,308.755L375.081,308.755z"/>
			<path clip-path="url(#SVGID_4_)" fill-rule="evenodd" clip-rule="evenodd" fill="#FFFFFF" d="M375.758,308.755
				c0,0.048-0.048,0.097-0.048,0.097c-0.048,0-0.097-0.049-0.097-0.097s0.048-0.048,0.097-0.048
				C375.71,308.707,375.758,308.707,375.758,308.755L375.758,308.755z"/>
			<path clip-path="url(#SVGID_4_)" fill-rule="evenodd" clip-rule="evenodd" fill="#FFFFFF" d="M375.081,309.334
				c0,0.049,0,0.098-0.048,0.098c0,0-0.048-0.049-0.048-0.098c0-0.048,0.048-0.048,0.048-0.048
				C375.081,309.286,375.081,309.286,375.081,309.334L375.081,309.334z"/>
			<path clip-path="url(#SVGID_4_)" fill-rule="evenodd" clip-rule="evenodd" fill="#FFFFFF" d="M375.758,309.334
				c0,0.049-0.048,0.098-0.048,0.098c-0.048,0-0.097-0.049-0.097-0.098c0,0,0.048-0.048,0.097-0.048L375.758,309.334z"/>
			<path clip-path="url(#SVGID_4_)" fill-rule="evenodd" clip-rule="evenodd" fill="#FFFFFF" d="M373.146,307.596
				c0,0.049,0,0.097-0.05,0.097c0,0-0.048-0.048-0.048-0.097l0.048-0.049C373.146,307.547,373.146,307.596,373.146,307.596
				L373.146,307.596z"/>
			<path clip-path="url(#SVGID_4_)" fill-rule="evenodd" clip-rule="evenodd" fill="#FFFFFF" d="M373.678,307.596
				c0,0.049,0,0.097-0.049,0.097c0,0-0.048-0.048-0.048-0.097l0.048-0.049C373.678,307.547,373.678,307.596,373.678,307.596
				L373.678,307.596z"/>
			<path clip-path="url(#SVGID_4_)" fill-rule="evenodd" clip-rule="evenodd" fill="#FFFFFF" d="M374.257,307.596
				c0,0.049-0.048,0.097-0.097,0.097c0,0-0.048-0.048-0.048-0.097s0.048-0.049,0.048-0.049
				C374.209,307.547,374.257,307.547,374.257,307.596L374.257,307.596z"/>
			<path clip-path="url(#SVGID_4_)" fill-rule="evenodd" clip-rule="evenodd" fill="#FFFFFF" d="M373.387,307.306
				c0,0.049-0.048,0.097-0.048,0.097c-0.048,0-0.048-0.048-0.048-0.097c0,0,0-0.048,0.048-0.048L373.387,307.306z"/>
			<path clip-path="url(#SVGID_4_)" fill-rule="evenodd" clip-rule="evenodd" fill="#FFFFFF" d="M374.016,307.306
				c0,0.049,0,0.097-0.048,0.097c-0.048,0-0.048-0.048-0.048-0.097c0-0.048,0-0.048,0.048-0.048
				C374.016,307.258,374.016,307.258,374.016,307.306L374.016,307.306z"/>
			<path clip-path="url(#SVGID_4_)" fill-rule="evenodd" clip-rule="evenodd" fill="#FFFFFF" d="M373.387,307.886
				c0,0.048-0.048,0.097-0.048,0.097c-0.048,0-0.097-0.049-0.097-0.097c0-0.049,0.048-0.049,0.097-0.049
				C373.339,307.837,373.387,307.837,373.387,307.886L373.387,307.886z"/>
			<path clip-path="url(#SVGID_4_)" fill-rule="evenodd" clip-rule="evenodd" fill="#FFFFFF" d="M374.016,307.934
				c0,0,0,0.049-0.048,0.049c-0.048,0-0.048-0.049-0.048-0.049c0-0.048,0-0.097,0.048-0.097
				C374.016,307.837,374.016,307.886,374.016,307.934L374.016,307.934z"/>
			<path clip-path="url(#SVGID_4_)" fill-rule="evenodd" clip-rule="evenodd" fill="#FFFFFF" d="M371.452,309.093
				c0,0.049-0.048,0.049-0.048,0.049c-0.049,0-0.096,0-0.096-0.049c0-0.048,0.047-0.097,0.096-0.097
				C371.403,308.996,371.452,309.045,371.452,309.093L371.452,309.093z"/>
			<path clip-path="url(#SVGID_4_)" fill-rule="evenodd" clip-rule="evenodd" fill="#FFFFFF" d="M371.983,309.093
				c0,0.049-0.048,0.049-0.048,0.049c-0.048,0-0.048,0-0.048-0.049c0-0.048,0-0.097,0.048-0.097
				C371.935,308.996,371.983,309.045,371.983,309.093L371.983,309.093z"/>
			<path clip-path="url(#SVGID_4_)" fill-rule="evenodd" clip-rule="evenodd" fill="#FFFFFF" d="M372.516,309.093l-0.048,0.049
				c-0.048,0-0.048-0.049-0.048-0.049c0-0.048,0-0.097,0.048-0.097C372.467,308.996,372.516,309.045,372.516,309.093
				L372.516,309.093z"/>
			<path clip-path="url(#SVGID_4_)" fill-rule="evenodd" clip-rule="evenodd" fill="#FFFFFF" d="M371.645,308.803
				c0,0.049,0,0.049-0.048,0.049s-0.048,0-0.048-0.049c0-0.048,0-0.096,0.048-0.096S371.645,308.755,371.645,308.803
				L371.645,308.803z"/>
			<path clip-path="url(#SVGID_4_)" fill-rule="evenodd" clip-rule="evenodd" fill="#FFFFFF" d="M372.274,308.803
				c0,0,0,0.049-0.048,0.049l-0.048-0.049c0-0.048,0.048-0.096,0.048-0.096C372.274,308.707,372.274,308.755,372.274,308.803
				L372.274,308.803z"/>
			<path clip-path="url(#SVGID_4_)" fill-rule="evenodd" clip-rule="evenodd" fill="#FFFFFF" d="M371.645,309.383
				c0,0,0,0.049-0.048,0.049s-0.048-0.049-0.048-0.049c0-0.049,0-0.097,0.048-0.097S371.645,309.334,371.645,309.383
				L371.645,309.383z"/>
			<path clip-path="url(#SVGID_4_)" fill-rule="evenodd" clip-rule="evenodd" fill="#FFFFFF" d="M372.274,309.383
				c0,0.049,0,0.049-0.048,0.049c0,0-0.048,0-0.048-0.049s0.048-0.097,0.048-0.097C372.274,309.286,372.274,309.334,372.274,309.383
				L372.274,309.383z"/>
			<polygon clip-path="url(#SVGID_4_)" fill-rule="evenodd" clip-rule="evenodd" fill="#FFFFFF" points="374.5,302.715 
				374.887,302.521 375.226,302.715 			"/>
			<polygon clip-path="url(#SVGID_4_)" fill-rule="evenodd" clip-rule="evenodd" fill="#FFFFFF" points="373.387,302.715 
				373.774,302.521 374.112,302.715 			"/>
			<polygon clip-path="url(#SVGID_4_)" fill-rule="evenodd" clip-rule="evenodd" fill="#FFFFFF" points="372.274,302.715 
				372.662,302.521 373,302.715 			"/>
			<polygon clip-path="url(#SVGID_4_)" fill-rule="evenodd" clip-rule="evenodd" fill="#FFFFFF" points="374.5,297.644 
				374.887,297.837 375.226,297.644 			"/>
			<polygon clip-path="url(#SVGID_4_)" fill-rule="evenodd" clip-rule="evenodd" fill="#FFFFFF" points="373.387,297.644 
				373.774,297.837 374.112,297.644 			"/>
			<polygon clip-path="url(#SVGID_4_)" fill-rule="evenodd" clip-rule="evenodd" fill="#FFFFFF" points="372.274,297.644 
				372.662,297.837 373,297.644 			"/>
			<polygon clip-path="url(#SVGID_4_)" fill-rule="evenodd" clip-rule="evenodd" fill="#32745A" points="374.209,302.618 
				373.774,303.005 373.339,302.618 372.903,303.005 372.467,302.618 372.467,302.812 372.758,303.005 372.613,303.149 
				372.613,303.343 372.758,303.343 372.903,303.149 373.048,303.343 373.194,303.343 373.194,303.149 373.048,303.005 
				373.339,302.812 373.629,303.005 373.484,303.149 373.484,303.343 373.629,303.343 373.774,303.149 373.919,303.343 
				374.064,303.343 374.064,303.149 373.919,303.005 374.209,302.812 374.5,303.005 374.356,303.149 374.356,303.343 374.5,303.343 
				374.597,303.149 374.742,303.343 374.887,303.343 374.887,303.149 374.742,303.005 375.032,302.812 375.032,302.618 
				374.597,303.005 			"/>
			<polygon clip-path="url(#SVGID_4_)" fill-rule="evenodd" clip-rule="evenodd" fill="#32745A" points="374.209,297.596 
				373.774,297.257 373.339,297.596 372.903,297.257 372.467,297.596 372.467,297.45 372.758,297.257 372.613,297.112 
				372.613,296.919 372.758,296.919 372.903,297.112 373.048,296.919 373.194,296.919 373.194,297.112 373.048,297.257 
				373.339,297.45 373.629,297.257 373.484,297.112 373.484,296.919 373.629,296.919 373.774,297.112 373.919,296.919 
				374.064,296.919 374.064,297.112 373.919,297.257 374.209,297.45 374.5,297.257 374.356,297.112 374.356,296.919 374.5,296.919 
				374.597,297.112 374.742,296.919 374.887,296.919 374.887,297.112 374.742,297.257 375.032,297.45 375.032,297.596 
				374.597,297.257 			"/>
			<polygon clip-path="url(#SVGID_4_)" fill-rule="evenodd" clip-rule="evenodd" fill="#32745A" points="377.452,300.493 
				377.935,300.106 377.452,299.769 377.935,299.383 377.452,298.996 377.694,298.996 377.935,299.237 378.178,299.141 
				378.419,299.141 378.419,299.237 378.178,299.383 378.419,299.479 378.419,299.624 378.178,299.624 377.935,299.479 
				377.694,299.769 377.935,300.01 378.178,299.865 378.419,299.865 378.419,300.01 378.178,300.106 378.419,300.252 
				378.419,300.396 378.178,300.396 377.935,300.252 377.694,300.493 377.935,300.734 378.178,300.638 378.419,300.638 
				378.419,300.734 378.178,300.879 378.419,301.024 378.419,301.121 378.178,301.121 377.935,301.024 377.694,301.266 
				377.452,301.266 377.935,300.879 			"/>
			<polygon clip-path="url(#SVGID_4_)" fill-rule="evenodd" clip-rule="evenodd" fill="#32745A" points="370.048,300.493 
				369.564,300.106 370.048,299.769 369.564,299.383 370.048,298.996 369.807,298.996 369.564,299.237 369.323,299.141 
				369.129,299.141 369.129,299.237 369.323,299.383 369.129,299.479 369.129,299.624 369.323,299.624 369.564,299.479 
				369.807,299.769 369.564,300.01 369.323,299.865 369.129,299.865 369.129,300.01 369.323,300.106 369.129,300.252 
				369.129,300.396 369.323,300.396 369.564,300.252 369.807,300.493 369.564,300.734 369.323,300.638 369.129,300.638 
				369.129,300.734 369.323,300.879 369.129,301.024 369.129,301.121 369.323,301.121 369.564,301.024 369.807,301.266 
				370.048,301.266 369.564,300.879 			"/>
			
				<rect x="377.645" y="301.749" clip-path="url(#SVGID_4_)" fill-rule="evenodd" clip-rule="evenodd" fill="#32745A" width="0.193" height="0.192"/>
			<g clip-path="url(#SVGID_4_)">
				
					<rect x="377.645" y="301.749" fill="none" stroke="#2A2D2F" stroke-width="0" stroke-linecap="square" stroke-miterlimit="10" width="0.193" height="0.192"/>
			</g>
			
				<rect x="377.452" y="301.941" clip-path="url(#SVGID_4_)" fill-rule="evenodd" clip-rule="evenodd" fill="#32745A" width="0.193" height="0.193"/>
			<g clip-path="url(#SVGID_4_)">
				
					<rect x="377.452" y="301.941" fill="none" stroke="#2A2D2F" stroke-width="0" stroke-linecap="square" stroke-miterlimit="10" width="0.193" height="0.193"/>
			</g>
			
				<rect x="376.532" y="302.812" clip-path="url(#SVGID_4_)" fill-rule="evenodd" clip-rule="evenodd" fill="#32745A" width="0.194" height="0.193"/>
			<g clip-path="url(#SVGID_4_)">
				
					<rect x="376.532" y="302.812" fill="none" stroke="#2A2D2F" stroke-width="0" stroke-linecap="square" stroke-miterlimit="10" width="0.194" height="0.193"/>
			</g>
			
				<rect x="376.726" y="302.618" clip-path="url(#SVGID_4_)" fill-rule="evenodd" clip-rule="evenodd" fill="#32745A" width="0.193" height="0.193"/>
			<g clip-path="url(#SVGID_4_)">
				
					<rect x="376.726" y="302.618" fill="none" stroke="#2A2D2F" stroke-width="0" stroke-linecap="square" stroke-miterlimit="10" width="0.193" height="0.193"/>
			</g>
			
				<rect x="370.58" y="302.618" clip-path="url(#SVGID_4_)" fill-rule="evenodd" clip-rule="evenodd" fill="#32745A" width="0.193" height="0.193"/>
			<g clip-path="url(#SVGID_4_)">
				
					<rect x="370.58" y="302.618" fill="none" stroke="#2A2D2F" stroke-width="0" stroke-linecap="square" stroke-miterlimit="10" width="0.193" height="0.193"/>
			</g>
			
				<rect x="369.661" y="301.749" clip-path="url(#SVGID_4_)" fill-rule="evenodd" clip-rule="evenodd" fill="#32745A" width="0.194" height="0.192"/>
			<g clip-path="url(#SVGID_4_)">
				
					<rect x="369.661" y="301.749" fill="none" stroke="#2A2D2F" stroke-width="0" stroke-linecap="square" stroke-miterlimit="10" width="0.194" height="0.192"/>
			</g>
			
				<rect x="369.855" y="301.941" clip-path="url(#SVGID_4_)" fill-rule="evenodd" clip-rule="evenodd" fill="#32745A" width="0.193" height="0.193"/>
			<g clip-path="url(#SVGID_4_)">
				
					<rect x="369.855" y="301.941" fill="none" stroke="#2A2D2F" stroke-width="0" stroke-linecap="square" stroke-miterlimit="10" width="0.193" height="0.193"/>
			</g>
			
				<rect x="369.855" y="298.127" clip-path="url(#SVGID_4_)" fill-rule="evenodd" clip-rule="evenodd" fill="#32745A" width="0.193" height="0.192"/>
			<g clip-path="url(#SVGID_4_)">
				
					<rect x="369.855" y="298.127" fill="none" stroke="#2A2D2F" stroke-width="0" stroke-linecap="square" stroke-miterlimit="10" width="0.193" height="0.192"/>
			</g>
			
				<rect x="369.661" y="298.319" clip-path="url(#SVGID_4_)" fill-rule="evenodd" clip-rule="evenodd" fill="#32745A" width="0.194" height="0.146"/>
			<g clip-path="url(#SVGID_4_)">
				
					<rect x="369.661" y="298.319" fill="none" stroke="#2A2D2F" stroke-width="0" stroke-linecap="square" stroke-miterlimit="10" width="0.194" height="0.146"/>
			</g>
			
				<rect x="370.773" y="297.257" clip-path="url(#SVGID_4_)" fill-rule="evenodd" clip-rule="evenodd" fill="#32745A" width="0.195" height="0.193"/>
			<g clip-path="url(#SVGID_4_)">
				
					<rect x="370.773" y="297.257" fill="none" stroke="#2A2D2F" stroke-width="0" stroke-linecap="square" stroke-miterlimit="10" width="0.195" height="0.193"/>
			</g>
			
				<rect x="370.58" y="297.45" clip-path="url(#SVGID_4_)" fill-rule="evenodd" clip-rule="evenodd" fill="#32745A" width="0.193" height="0.146"/>
			<g clip-path="url(#SVGID_4_)">
				
					<rect x="370.58" y="297.45" fill="none" stroke="#2A2D2F" stroke-width="0" stroke-linecap="square" stroke-miterlimit="10" width="0.193" height="0.146"/>
			</g>
			
				<rect x="376.532" y="297.257" clip-path="url(#SVGID_4_)" fill-rule="evenodd" clip-rule="evenodd" fill="#32745A" width="0.194" height="0.193"/>
			<g clip-path="url(#SVGID_4_)">
				
					<rect x="376.532" y="297.257" fill="none" stroke="#2A2D2F" stroke-width="0" stroke-linecap="square" stroke-miterlimit="10" width="0.194" height="0.193"/>
			</g>
			
				<rect x="376.726" y="297.45" clip-path="url(#SVGID_4_)" fill-rule="evenodd" clip-rule="evenodd" fill="#32745A" width="0.193" height="0.146"/>
			<g clip-path="url(#SVGID_4_)">
				
					<rect x="376.726" y="297.45" fill="none" stroke="#2A2D2F" stroke-width="0" stroke-linecap="square" stroke-miterlimit="10" width="0.193" height="0.146"/>
			</g>
			
				<rect x="377.452" y="298.127" clip-path="url(#SVGID_4_)" fill-rule="evenodd" clip-rule="evenodd" fill="#32745A" width="0.193" height="0.192"/>
			<g clip-path="url(#SVGID_4_)">
				
					<rect x="377.452" y="298.127" fill="none" stroke="#2A2D2F" stroke-width="0" stroke-linecap="square" stroke-miterlimit="10" width="0.193" height="0.192"/>
			</g>
			
				<rect x="377.645" y="298.319" clip-path="url(#SVGID_4_)" fill-rule="evenodd" clip-rule="evenodd" fill="#32745A" width="0.193" height="0.146"/>
			<g clip-path="url(#SVGID_4_)">
				
					<rect x="377.645" y="298.319" fill="none" stroke="#2A2D2F" stroke-width="0" stroke-linecap="square" stroke-miterlimit="10" width="0.193" height="0.146"/>
			</g>
			
				<rect x="370.773" y="302.812" clip-path="url(#SVGID_4_)" fill-rule="evenodd" clip-rule="evenodd" fill="#32745A" width="0.195" height="0.193"/>
			<g clip-path="url(#SVGID_4_)">
				
					<rect x="370.773" y="302.812" fill="none" stroke="#2A2D2F" stroke-width="0" stroke-linecap="square" stroke-miterlimit="10" width="0.195" height="0.193"/>
			</g>
			<path clip-path="url(#SVGID_4_)" fill-rule="evenodd" clip-rule="evenodd" fill="#FFFFFF" d="M373.194,300.106h-0.532v-0.338H373
				v-0.29h0.388v-0.289h0.339v0.338C373.436,299.527,373.194,299.769,373.194,300.106L373.194,300.106z"/>
			<path clip-path="url(#SVGID_4_)" fill-rule="evenodd" clip-rule="evenodd" fill="#E08529" d="M374.257,300.106h0.582v-0.338
				h-0.387v-0.29h-0.339v-0.289h-0.386v0.338C374.016,299.527,374.257,299.769,374.257,300.106L374.257,300.106z"/>
			<path clip-path="url(#SVGID_4_)" fill-rule="evenodd" clip-rule="evenodd" fill="#FFFFFF" d="M374.257,300.106h0.582v0.339
				h-0.387v0.338h-0.339v0.289h-0.386v-0.338C374.016,300.734,374.257,300.445,374.257,300.106L374.257,300.106z"/>
			<path clip-path="url(#SVGID_4_)" fill-rule="evenodd" clip-rule="evenodd" fill="#E08529" d="M373.194,300.106h-0.532v0.339H373
				v0.338h0.388v0.289h0.339v-0.338C373.436,300.734,373.194,300.445,373.194,300.106L373.194,300.106z"/>
			<path clip-path="url(#SVGID_4_)" fill-rule="evenodd" clip-rule="evenodd" fill="#32745A" d="M374.257,300.106h-0.531v-0.579
				C374.016,299.527,374.257,299.816,374.257,300.106L374.257,300.106z"/>
			<path clip-path="url(#SVGID_4_)" fill-rule="evenodd" clip-rule="evenodd" fill="#C1402A" d="M374.257,300.106h-0.531v0.628
				C374.016,300.734,374.257,300.445,374.257,300.106L374.257,300.106z"/>
			<path clip-path="url(#SVGID_4_)" fill-rule="evenodd" clip-rule="evenodd" fill="#32745A" d="M373.194,300.106h0.532v0.628
				C373.436,300.734,373.194,300.445,373.194,300.106L373.194,300.106z"/>
			<path clip-path="url(#SVGID_4_)" fill-rule="evenodd" clip-rule="evenodd" fill="#C1402A" d="M373.194,300.106h0.532v-0.579
				C373.436,299.527,373.194,299.816,373.194,300.106L373.194,300.106z"/>
			<polygon clip-path="url(#SVGID_4_)" fill-rule="evenodd" clip-rule="evenodd" fill="#32745A" points="374.307,302.28 
				373.774,301.941 373.194,302.28 372.662,301.941 372.081,302.28 372.081,302.135 372.467,301.941 372.274,301.749 
				372.274,301.604 372.467,301.604 372.662,301.749 372.806,301.604 373,301.604 373,301.749 372.806,301.941 373.194,302.135 
				373.581,301.941 373.387,301.749 373.387,301.604 373.581,301.604 373.774,301.749 373.919,301.604 374.112,301.604 
				374.112,301.749 373.919,301.941 374.307,302.135 374.693,301.941 374.5,301.749 374.5,301.604 374.693,301.604 374.887,301.749 
				375.032,301.604 375.226,301.604 375.226,301.749 375.032,301.941 375.418,302.135 375.418,302.28 374.887,301.941 			"/>
			<polygon clip-path="url(#SVGID_4_)" fill-rule="evenodd" clip-rule="evenodd" fill="#32745A" points="374.307,297.981 
				373.774,298.319 373.194,297.981 372.662,298.319 372.081,297.981 372.081,298.127 372.467,298.319 372.274,298.465 
				372.274,298.658 372.467,298.658 372.662,298.465 372.806,298.658 373,298.658 373,298.465 372.806,298.319 373.194,298.127 
				373.581,298.319 373.387,298.465 373.387,298.658 373.581,298.658 373.774,298.465 373.919,298.658 374.112,298.658 
				374.112,298.465 373.919,298.319 374.307,298.127 374.693,298.319 374.5,298.465 374.5,298.658 374.693,298.658 374.887,298.465 
				375.032,298.658 375.226,298.658 375.226,298.465 375.032,298.319 375.418,298.127 375.418,297.981 374.887,298.319 			"/>
			<polygon clip-path="url(#SVGID_4_)" fill-rule="evenodd" clip-rule="evenodd" fill="#32745A" points="376.338,300.541 
				376.097,300.106 376.338,299.672 376.097,299.237 376.338,298.851 376.193,298.851 376.097,299.141 375.952,298.996 
				375.806,298.996 375.806,299.141 375.952,299.237 375.806,299.383 375.806,299.527 375.952,299.527 376.097,299.383 
				376.193,299.672 376.097,299.962 375.952,299.816 375.806,299.816 375.806,299.962 375.952,300.106 375.806,300.252 
				375.806,300.396 375.952,300.396 376.097,300.252 376.193,300.541 376.097,300.831 375.952,300.687 375.806,300.687 
				375.806,300.831 375.952,300.977 375.806,301.121 375.806,301.266 375.952,301.266 376.097,301.121 376.193,301.41 
				376.338,301.41 376.097,300.977 			"/>
			<path clip-path="url(#SVGID_4_)" fill-rule="evenodd" clip-rule="evenodd" fill="#32745A" d="M372.081,298.127l-0.727,0.724v2.56
				l0.727,0.725h3.339l0.725-0.725v-2.56l-0.725-0.724H372.081z M371.886,297.596l-1.838,1.738v1.594l1.838,1.69h3.727l1.838-1.69
				v-1.594l-1.838-1.738H371.886z"/>
			<g clip-path="url(#SVGID_4_)">
				<path fill="none" stroke="#2A2D2F" stroke-width="0" stroke-linecap="square" stroke-miterlimit="10" d="M372.081,298.127
					l-0.727,0.724v2.56l0.727,0.725h3.339l0.725-0.725v-2.56l-0.725-0.724H372.081z M371.886,297.596l-1.838,1.738v1.594l1.838,1.69
					h3.727l1.838-1.69v-1.594l-1.838-1.738H371.886z"/>
			</g>
			<polygon clip-path="url(#SVGID_4_)" fill-rule="evenodd" clip-rule="evenodd" fill="#E08529" points="372.854,302.28 
				373.146,302.618 373.436,302.28 			"/>
			<g clip-path="url(#SVGID_4_)">
				<polygon fill="none" stroke="#2A2D2F" stroke-width="0" stroke-linecap="square" stroke-miterlimit="10" points="
					372.854,302.28 373.146,302.618 373.436,302.28 				"/>
			</g>
			<polygon clip-path="url(#SVGID_4_)" fill-rule="evenodd" clip-rule="evenodd" fill="#E08529" points="372.854,297.981 
				373.146,297.596 373.436,297.981 			"/>
			<g clip-path="url(#SVGID_4_)">
				<polygon fill="none" stroke="#2A2D2F" stroke-width="0" stroke-linecap="square" stroke-miterlimit="10" points="
					372.854,297.981 373.146,297.596 373.436,297.981 				"/>
			</g>
			<polygon clip-path="url(#SVGID_4_)" fill-rule="evenodd" clip-rule="evenodd" fill="#E08529" points="374.064,297.981 
				374.356,297.596 374.645,297.981 			"/>
			<g clip-path="url(#SVGID_4_)">
				<polygon fill="none" stroke="#2A2D2F" stroke-width="0" stroke-linecap="square" stroke-miterlimit="10" points="
					374.064,297.981 374.356,297.596 374.645,297.981 				"/>
			</g>
			<polygon clip-path="url(#SVGID_4_)" fill-rule="evenodd" clip-rule="evenodd" fill="#E08529" points="374.064,302.28 
				374.356,302.618 374.645,302.28 			"/>
			<g clip-path="url(#SVGID_4_)">
				<polygon fill="none" stroke="#2A2D2F" stroke-width="0" stroke-linecap="square" stroke-miterlimit="10" points="
					374.064,302.28 374.356,302.618 374.645,302.28 				"/>
			</g>
			<polygon clip-path="url(#SVGID_4_)" fill-rule="evenodd" clip-rule="evenodd" fill="#C1402A" points="372.274,297.981 
				372.565,297.596 372.854,297.981 			"/>
			<g clip-path="url(#SVGID_4_)">
				<polygon fill="none" stroke="#2A2D2F" stroke-width="0" stroke-linecap="square" stroke-miterlimit="10" points="
					372.274,297.981 372.565,297.596 372.854,297.981 				"/>
			</g>
			<polygon clip-path="url(#SVGID_4_)" fill-rule="evenodd" clip-rule="evenodd" fill="#C1402A" points="373.436,297.981 
				373.774,297.596 374.064,297.981 			"/>
			<g clip-path="url(#SVGID_4_)">
				<polygon fill="none" stroke="#2A2D2F" stroke-width="0" stroke-linecap="square" stroke-miterlimit="10" points="
					373.436,297.981 373.774,297.596 374.064,297.981 				"/>
			</g>
			<polygon clip-path="url(#SVGID_4_)" fill-rule="evenodd" clip-rule="evenodd" fill="#C1402A" points="374.645,297.981 
				374.936,297.596 375.226,297.981 			"/>
			<g clip-path="url(#SVGID_4_)">
				<polygon fill="none" stroke="#2A2D2F" stroke-width="0" stroke-linecap="square" stroke-miterlimit="10" points="
					374.645,297.981 374.936,297.596 375.226,297.981 				"/>
			</g>
			<polygon clip-path="url(#SVGID_4_)" fill-rule="evenodd" clip-rule="evenodd" fill="#C1402A" points="371.548,301.749 
				372.081,302.28 371.548,302.28 			"/>
			<g clip-path="url(#SVGID_4_)">
				<polygon fill="none" stroke="#2A2D2F" stroke-width="0" stroke-linecap="square" stroke-miterlimit="10" points="
					371.548,301.749 372.081,302.28 371.548,302.28 				"/>
			</g>
			<polygon clip-path="url(#SVGID_4_)" fill-rule="evenodd" clip-rule="evenodd" fill="#32745A" points="371.161,300.541 
				371.452,300.106 371.161,299.672 371.452,299.237 371.161,298.851 371.307,298.851 371.452,299.141 371.548,298.996 
				371.693,298.996 371.693,299.141 371.548,299.237 371.693,299.383 371.693,299.527 371.548,299.527 371.452,299.383 
				371.307,299.672 371.452,299.962 371.548,299.816 371.693,299.816 371.693,299.962 371.548,300.106 371.693,300.252 
				371.693,300.396 371.548,300.396 371.452,300.252 371.307,300.541 371.452,300.831 371.548,300.687 371.693,300.687 
				371.693,300.831 371.548,300.977 371.693,301.121 371.693,301.266 371.548,301.266 371.452,301.121 371.307,301.41 
				371.161,301.41 371.452,300.977 			"/>
			<polygon clip-path="url(#SVGID_4_)" fill-rule="evenodd" clip-rule="evenodd" fill="#C1402A" points="376.532,299.672 
				377.306,299.672 377.452,299.816 377.306,299.962 376.532,299.962 			"/>
			<g clip-path="url(#SVGID_4_)">
				<polygon fill="none" stroke="#2A2D2F" stroke-width="0" stroke-linecap="square" stroke-miterlimit="10" points="
					376.532,299.672 377.306,299.672 377.452,299.816 377.306,299.962 376.532,299.962 				"/>
			</g>
			<polygon clip-path="url(#SVGID_4_)" fill-rule="evenodd" clip-rule="evenodd" fill="#C1402A" points="371.548,298.465 
				371.161,298.851 371.161,301.41 371.548,301.749 370.968,301.749 370.968,298.465 			"/>
			<g clip-path="url(#SVGID_4_)">
				<polygon fill="none" stroke="#2A2D2F" stroke-width="0" stroke-linecap="square" stroke-miterlimit="10" points="
					371.548,298.465 371.161,298.851 371.161,301.41 371.548,301.749 370.968,301.749 370.968,298.465 				"/>
			</g>
			<polygon clip-path="url(#SVGID_4_)" fill-rule="evenodd" clip-rule="evenodd" fill="#C1402A" points="372.274,302.28 
				372.565,302.618 372.854,302.28 			"/>
			<g clip-path="url(#SVGID_4_)">
				<polygon fill="none" stroke="#2A2D2F" stroke-width="0" stroke-linecap="square" stroke-miterlimit="10" points="
					372.274,302.28 372.565,302.618 372.854,302.28 				"/>
			</g>
			<polygon clip-path="url(#SVGID_4_)" fill-rule="evenodd" clip-rule="evenodd" fill="#C1402A" points="373.436,302.28 
				373.774,302.618 374.064,302.28 			"/>
			<g clip-path="url(#SVGID_4_)">
				<polygon fill="none" stroke="#2A2D2F" stroke-width="0" stroke-linecap="square" stroke-miterlimit="10" points="
					373.436,302.28 373.774,302.618 374.064,302.28 				"/>
			</g>
			<polygon clip-path="url(#SVGID_4_)" fill-rule="evenodd" clip-rule="evenodd" fill="#C1402A" points="374.645,302.28 
				374.936,302.618 375.226,302.28 			"/>
			<g clip-path="url(#SVGID_4_)">
				<polygon fill="none" stroke="#2A2D2F" stroke-width="0" stroke-linecap="square" stroke-miterlimit="10" points="
					374.645,302.28 374.936,302.618 375.226,302.28 				"/>
			</g>
			<polygon clip-path="url(#SVGID_4_)" fill-rule="evenodd" clip-rule="evenodd" fill="#C1402A" points="376,298.465 
				376.338,298.851 376.338,301.41 376,301.749 376.532,301.749 376.532,298.465 			"/>
			<g clip-path="url(#SVGID_4_)">
				<polygon fill="none" stroke="#2A2D2F" stroke-width="0" stroke-linecap="square" stroke-miterlimit="10" points="376,298.465 
					376.338,298.851 376.338,301.41 376,301.749 376.532,301.749 376.532,298.465 				"/>
			</g>
			<polygon clip-path="url(#SVGID_4_)" fill-rule="evenodd" clip-rule="evenodd" fill="#C1402A" points="376,301.749 
				375.418,302.28 376,302.28 			"/>
			<g clip-path="url(#SVGID_4_)">
				<polygon fill="none" stroke="#2A2D2F" stroke-width="0" stroke-linecap="square" stroke-miterlimit="10" points="376,301.749 
					375.418,302.28 376,302.28 				"/>
			</g>
			<polygon clip-path="url(#SVGID_4_)" fill-rule="evenodd" clip-rule="evenodd" fill="#C1402A" points="376,298.465 
				375.418,297.981 376,297.981 			"/>
			<g clip-path="url(#SVGID_4_)">
				<polygon fill="none" stroke="#2A2D2F" stroke-width="0" stroke-linecap="square" stroke-miterlimit="10" points="376,298.465 
					375.418,297.981 376,297.981 				"/>
			</g>
			<polygon clip-path="url(#SVGID_4_)" fill-rule="evenodd" clip-rule="evenodd" fill="#C1402A" points="371.548,298.465 
				372.081,297.981 371.548,297.981 			"/>
			<g clip-path="url(#SVGID_4_)">
				<polygon fill="none" stroke="#2A2D2F" stroke-width="0" stroke-linecap="square" stroke-miterlimit="10" points="
					371.548,298.465 372.081,297.981 371.548,297.981 				"/>
			</g>
			<path clip-path="url(#SVGID_4_)" fill-rule="evenodd" clip-rule="evenodd" fill="#32745A" d="M372.081,298.127l-0.727,0.724v2.56
				l0.727,0.725h3.339l0.725-0.725v-2.56l-0.725-0.724H372.081z M372.081,297.981l-0.92,0.869v2.56l0.92,0.87h3.339l0.918-0.87
				v-2.56l-0.918-0.869H372.081z"/>
			<g clip-path="url(#SVGID_4_)">
				<path fill="none" stroke="#2A2D2F" stroke-width="0" stroke-linecap="square" stroke-miterlimit="10" d="M372.081,298.127
					l-0.727,0.724v2.56l0.727,0.725h3.339l0.725-0.725v-2.56l-0.725-0.724H372.081z M372.081,297.981l-0.92,0.869v2.56l0.92,0.87
					h3.339l0.918-0.87v-2.56l-0.918-0.869H372.081z"/>
			</g>
			<polygon clip-path="url(#SVGID_4_)" fill-rule="evenodd" clip-rule="evenodd" fill="#E08529" points="376.532,299.962 
				377.306,299.962 377.452,300.106 377.306,300.3 376.532,300.3 			"/>
			<g clip-path="url(#SVGID_4_)">
				<polygon fill="none" stroke="#2A2D2F" stroke-width="0" stroke-linecap="square" stroke-miterlimit="10" points="
					376.532,299.962 377.306,299.962 377.452,300.106 377.306,300.3 376.532,300.3 				"/>
			</g>
			<polygon clip-path="url(#SVGID_4_)" fill-rule="evenodd" clip-rule="evenodd" fill="#C1402A" points="376.532,300.3 
				377.306,300.3 377.452,300.445 377.306,300.59 376.532,300.59 			"/>
			<g clip-path="url(#SVGID_4_)">
				<polygon fill="none" stroke="#2A2D2F" stroke-width="0" stroke-linecap="square" stroke-miterlimit="10" points="376.532,300.3 
					377.306,300.3 377.452,300.445 377.306,300.59 376.532,300.59 				"/>
			</g>
			<polygon clip-path="url(#SVGID_4_)" fill-rule="evenodd" clip-rule="evenodd" fill="#E08529" points="376.532,300.59 
				377.306,300.59 377.452,300.734 377.306,300.928 376.532,300.928 			"/>
			<g clip-path="url(#SVGID_4_)">
				<polygon fill="none" stroke="#2A2D2F" stroke-width="0" stroke-linecap="square" stroke-miterlimit="10" points="
					376.532,300.59 377.306,300.59 377.452,300.734 377.306,300.928 376.532,300.928 				"/>
			</g>
			<polygon clip-path="url(#SVGID_4_)" fill-rule="evenodd" clip-rule="evenodd" fill="#E08529" points="376.532,299.334 
				377.306,299.334 377.452,299.527 377.306,299.672 376.532,299.672 			"/>
			<g clip-path="url(#SVGID_4_)">
				<polygon fill="none" stroke="#2A2D2F" stroke-width="0" stroke-linecap="square" stroke-miterlimit="10" points="
					376.532,299.334 377.306,299.334 377.452,299.527 377.306,299.672 376.532,299.672 				"/>
			</g>
			<polygon clip-path="url(#SVGID_4_)" fill-rule="evenodd" clip-rule="evenodd" fill="#C1402A" points="370.968,299.672 
				370.242,299.672 370.048,299.816 370.242,299.962 370.968,299.962 			"/>
			<g clip-path="url(#SVGID_4_)">
				<polygon fill="none" stroke="#2A2D2F" stroke-width="0" stroke-linecap="square" stroke-miterlimit="10" points="
					370.968,299.672 370.242,299.672 370.048,299.816 370.242,299.962 370.968,299.962 				"/>
			</g>
			<polygon clip-path="url(#SVGID_4_)" fill-rule="evenodd" clip-rule="evenodd" fill="#E08529" points="370.968,299.962 
				370.242,299.962 370.048,300.106 370.242,300.3 370.968,300.3 			"/>
			<g clip-path="url(#SVGID_4_)">
				<polygon fill="none" stroke="#2A2D2F" stroke-width="0" stroke-linecap="square" stroke-miterlimit="10" points="
					370.968,299.962 370.242,299.962 370.048,300.106 370.242,300.3 370.968,300.3 				"/>
			</g>
			<polygon clip-path="url(#SVGID_4_)" fill-rule="evenodd" clip-rule="evenodd" fill="#C1402A" points="370.968,300.3 
				370.242,300.3 370.048,300.445 370.242,300.59 370.968,300.59 			"/>
			<g clip-path="url(#SVGID_4_)">
				<polygon fill="none" stroke="#2A2D2F" stroke-width="0" stroke-linecap="square" stroke-miterlimit="10" points="370.968,300.3 
					370.242,300.3 370.048,300.445 370.242,300.59 370.968,300.59 				"/>
			</g>
			<polygon clip-path="url(#SVGID_4_)" fill-rule="evenodd" clip-rule="evenodd" fill="#E08529" points="370.968,300.59 
				370.242,300.59 370.048,300.734 370.242,300.928 370.968,300.928 			"/>
			<g clip-path="url(#SVGID_4_)">
				<polygon fill="none" stroke="#2A2D2F" stroke-width="0" stroke-linecap="square" stroke-miterlimit="10" points="
					370.968,300.59 370.242,300.59 370.048,300.734 370.242,300.928 370.968,300.928 				"/>
			</g>
			<polygon clip-path="url(#SVGID_4_)" fill-rule="evenodd" clip-rule="evenodd" fill="#E08529" points="370.968,299.334 
				370.242,299.334 370.048,299.527 370.242,299.672 370.968,299.672 			"/>
			<g clip-path="url(#SVGID_4_)">
				<polygon fill="none" stroke="#2A2D2F" stroke-width="0" stroke-linecap="square" stroke-miterlimit="10" points="
					370.968,299.334 370.242,299.334 370.048,299.527 370.242,299.672 370.968,299.672 				"/>
			</g>
			<path clip-path="url(#SVGID_4_)" fill-rule="evenodd" clip-rule="evenodd" fill="#AB3C2D" d="M369.855,298.319v3.622h0.918v0.87
				h5.952v-0.87h0.919v-3.622h-0.919v-0.869h-5.952v0.869H369.855z M370.048,298.465v3.284h0.92v0.869h5.563v-0.869h0.92v-3.284
				h-0.92v-0.869h-5.563v0.869H370.048z"/>
			<g clip-path="url(#SVGID_4_)">
				<path fill="none" stroke="#2A2D2F" stroke-width="0" stroke-linecap="square" stroke-miterlimit="10" d="M369.855,298.319v3.622
					h0.918v0.87h5.952v-0.87h0.919v-3.622h-0.919v-0.869h-5.952v0.869H369.855z M370.048,298.465v3.284h0.92v0.869h5.563v-0.869
					h0.92v-3.284h-0.92v-0.869h-5.563v0.869H370.048z"/>
			</g>
			<polygon clip-path="url(#SVGID_4_)" fill-rule="evenodd" clip-rule="evenodd" fill="#C1402A" points="378.419,280.54 
				377.838,279.671 377.838,279.043 377.306,278.367 376.145,278.367 375.226,277.739 372.274,277.739 371.354,278.367 
				370.242,278.367 369.661,279.043 369.661,279.671 369.129,280.54 369.129,282.233 369.661,283.103 369.661,283.73 
				370.242,284.358 371.354,284.358 372.274,284.986 375.226,284.986 376.145,284.358 377.306,284.358 377.838,283.73 
				377.838,283.103 378.419,282.233 			"/>
			<g clip-path="url(#SVGID_4_)">
				<polygon fill="none" stroke="#2A2D2F" stroke-width="0" stroke-linecap="square" stroke-miterlimit="10" points="
					378.419,280.54 377.838,279.671 377.838,279.043 377.306,278.367 376.145,278.367 375.226,277.739 372.274,277.739 
					371.354,278.367 370.242,278.367 369.661,279.043 369.661,279.671 369.129,280.54 369.129,282.233 369.661,283.103 
					369.661,283.73 370.242,284.358 371.354,284.358 372.274,284.986 375.226,284.986 376.145,284.358 377.306,284.358 
					377.838,283.73 377.838,283.103 378.419,282.233 				"/>
			</g>
			<polygon clip-path="url(#SVGID_4_)" fill-rule="evenodd" clip-rule="evenodd" fill="#E08529" points="369.275,281.361 
				369.275,281.992 369.855,282.861 369.855,283.489 370.387,284.166 371.548,284.166 372.467,284.793 373.774,284.793 
				373.774,281.361 			"/>
			<polygon clip-path="url(#SVGID_4_)" fill-rule="evenodd" clip-rule="evenodd" fill="#C1402A" points="372.178,282.861 
				371.5,283.393 371.113,283.393 371.258,283.586 370.968,283.973 371.113,284.166 371.5,283.973 371.645,284.166 371.693,283.683 
				372.467,283.103 			"/>
			<polygon clip-path="url(#SVGID_4_)" fill-rule="evenodd" clip-rule="evenodd" fill="#C1402A" points="371.452,282.427 
				370.773,283.006 370.339,283.006 370.484,283.151 370.242,283.537 370.339,283.73 370.773,283.537 370.92,283.73 
				370.968,283.248 371.693,282.668 			"/>
			<polygon clip-path="url(#SVGID_4_)" fill-rule="evenodd" clip-rule="evenodd" fill="#C1402A" points="371.064,281.603 
				370.387,282.137 370,282.137 370.145,282.33 369.855,282.668 370,282.861 370.387,282.668 370.532,282.861 370.58,282.379 
				371.354,281.796 			"/>
			<polygon clip-path="url(#SVGID_4_)" fill-rule="evenodd" clip-rule="evenodd" fill="#E08529" points="378.226,281.361 
				378.226,280.733 377.645,279.864 377.645,279.236 377.113,278.608 376,278.608 375.032,277.932 373.774,277.932 373.774,281.361 
							"/>
			<polygon clip-path="url(#SVGID_4_)" fill-rule="evenodd" clip-rule="evenodd" fill="#C1402A" points="373.774,284.793 
				373.387,284.793 373,284.358 372.371,284.358 372.031,284.166 372.226,283.924 372.565,284.166 372.903,284.166 373.242,283.489 
				373.774,283.73 373.774,284.166 373.242,284.166 			"/>
			<polygon clip-path="url(#SVGID_4_)" fill-rule="evenodd" clip-rule="evenodd" fill="#FFFFFF" points="369.275,281.361 
				369.275,280.733 369.855,279.864 369.855,279.236 370.387,278.608 371.548,278.608 372.467,277.932 373.774,277.932 
				373.774,281.361 			"/>
			<polygon clip-path="url(#SVGID_4_)" fill-rule="evenodd" clip-rule="evenodd" fill="#C1402A" points="373.774,277.932 
				373.387,277.932 373,278.367 372.371,278.367 372.031,278.608 372.226,278.802 372.565,278.608 372.903,278.608 373.242,279.236 
				373.774,279.043 373.774,278.608 373.242,278.608 			"/>
			<polygon clip-path="url(#SVGID_4_)" fill-rule="evenodd" clip-rule="evenodd" fill="#C1402A" points="373.774,277.932 
				374.112,277.932 374.5,278.367 375.129,278.367 375.468,278.608 375.322,278.802 374.936,278.608 374.597,278.608 
				374.257,279.236 373.774,279.043 373.774,278.608 374.257,278.608 			"/>
			<polygon clip-path="url(#SVGID_4_)" fill-rule="evenodd" clip-rule="evenodd" fill="#FFFFFF" points="378.226,281.361 
				378.226,281.992 377.645,282.861 377.645,283.489 377.113,284.166 376,284.166 375.032,284.793 373.774,284.793 373.774,281.361 
							"/>
			<polygon clip-path="url(#SVGID_4_)" fill-rule="evenodd" clip-rule="evenodd" fill="#C1402A" points="373.774,284.793 
				374.112,284.793 374.5,284.358 375.129,284.358 375.468,284.166 375.322,283.924 374.936,284.166 374.597,284.166 
				374.257,283.489 373.774,283.73 373.774,284.166 374.257,284.166 			"/>
			<polygon clip-path="url(#SVGID_4_)" fill-rule="evenodd" clip-rule="evenodd" fill="#C1402A" points="371.452,280.299 
				370.773,279.768 370.339,279.768 370.484,279.574 370.242,279.188 370.339,279.043 370.773,279.188 370.92,279.043 
				370.968,279.525 371.693,280.105 			"/>
			<polygon clip-path="url(#SVGID_4_)" fill-rule="evenodd" clip-rule="evenodd" fill="#C1402A" points="375.322,279.864 
				376,279.333 376.387,279.333 376.29,279.14 376.532,278.802 376.387,278.608 376,278.802 375.855,278.608 375.806,279.092 
				375.032,279.671 			"/>
			<polygon clip-path="url(#SVGID_4_)" fill-rule="evenodd" clip-rule="evenodd" fill="#C1402A" points="372.178,279.864 
				371.5,279.333 371.113,279.333 371.258,279.14 370.968,278.802 371.113,278.608 371.5,278.802 371.645,278.608 371.693,279.092 
				372.467,279.671 			"/>
			<polygon clip-path="url(#SVGID_4_)" fill-rule="evenodd" clip-rule="evenodd" fill="#C1402A" points="371.064,281.168 
				370.387,280.589 370,280.589 370.145,280.443 369.855,280.057 370,279.864 370.387,280.057 370.532,279.864 370.58,280.347 
				371.354,280.927 			"/>
			<polygon clip-path="url(#SVGID_4_)" fill-rule="evenodd" clip-rule="evenodd" fill="#FFFFFF" points="369.613,281.361 
				369.807,281.361 369.952,281.603 370.145,281.361 373.774,281.361 373.774,284.358 373.581,284.358 373.774,284.552 
				373.774,284.793 373.242,284.166 373.242,283.924 373.387,283.924 373.387,284.166 373.581,284.166 373.581,283.924 
				372.178,283.006 371.016,283.006 371.016,282.089 370.484,281.603 370.145,281.603 369.952,281.796 370.145,281.992 
				369.952,281.992 			"/>
			<polygon clip-path="url(#SVGID_4_)" fill-rule="evenodd" clip-rule="evenodd" fill="#E08529" points="369.613,281.361 
				369.807,281.361 369.952,281.168 370.145,281.361 373.774,281.361 373.774,278.367 373.581,278.367 373.774,278.174 
				373.774,277.932 373.242,278.608 373.242,278.802 373.387,278.802 373.387,278.608 373.581,278.608 373.581,278.802 
				372.178,279.768 371.016,279.768 371.016,280.686 370.484,281.168 370.145,281.168 369.952,280.927 370.145,280.733 
				369.952,280.733 			"/>
			<polygon clip-path="url(#SVGID_4_)" fill-rule="evenodd" clip-rule="evenodd" fill="#32745A" points="370.387,281.361 
				373.774,281.361 373.774,283.924 372.274,282.861 371.161,282.861 371.161,281.992 			"/>
			<polygon clip-path="url(#SVGID_4_)" fill-rule="evenodd" clip-rule="evenodd" fill="#C1402A" points="376.048,280.299 
				376.726,279.768 377.162,279.768 377.015,279.574 377.306,279.188 377.162,279.043 376.726,279.188 376.629,279.043 
				376.532,279.525 375.806,280.105 			"/>
			<polygon clip-path="url(#SVGID_4_)" fill-rule="evenodd" clip-rule="evenodd" fill="#C1402A" points="376.435,281.168 
				377.113,280.589 377.5,280.589 377.403,280.443 377.645,280.057 377.5,279.864 377.113,280.057 376.967,279.864 376.918,280.347 
				376.145,280.927 			"/>
			<polygon clip-path="url(#SVGID_4_)" fill-rule="evenodd" clip-rule="evenodd" fill="#FFFFFF" points="377.887,281.361 
				377.694,281.361 377.548,281.168 377.355,281.361 373.774,281.361 373.774,278.367 373.919,278.367 373.774,278.174 
				373.774,277.932 374.257,278.608 374.257,278.802 374.112,278.802 374.112,278.608 373.919,278.608 373.919,278.802 
				375.322,279.768 376.483,279.768 376.483,280.686 377.015,281.168 377.355,281.168 377.548,280.927 377.355,280.733 
				377.548,280.733 			"/>
			<polygon clip-path="url(#SVGID_4_)" fill-rule="evenodd" clip-rule="evenodd" fill="#32745A" points="377.113,281.361 
				373.774,281.361 373.774,278.802 375.226,279.864 376.338,279.864 376.338,280.733 			"/>
			<polygon clip-path="url(#SVGID_4_)" fill-rule="evenodd" clip-rule="evenodd" fill="#C1402A" points="375.322,282.861 
				376,283.393 376.387,283.393 376.29,283.586 376.532,283.973 376.387,284.166 376,283.973 375.855,284.166 375.806,283.683 
				375.032,283.103 			"/>
			<polygon clip-path="url(#SVGID_4_)" fill-rule="evenodd" clip-rule="evenodd" fill="#C1402A" points="376.048,282.427 
				376.726,283.006 377.162,283.006 377.015,283.151 377.306,283.537 377.162,283.73 376.726,283.537 376.629,283.73 
				376.532,283.248 375.806,282.668 			"/>
			<polygon clip-path="url(#SVGID_4_)" fill-rule="evenodd" clip-rule="evenodd" fill="#C1402A" points="376.435,281.603 
				377.113,282.137 377.5,282.137 377.403,282.33 377.645,282.668 377.5,282.861 377.113,282.668 376.967,282.861 376.918,282.379 
				376.145,281.796 			"/>
			<polygon clip-path="url(#SVGID_4_)" fill-rule="evenodd" clip-rule="evenodd" fill="#E08529" points="377.887,281.361 
				377.694,281.361 377.548,281.603 377.355,281.361 373.774,281.361 373.774,284.358 373.919,284.358 373.774,284.552 
				373.774,284.793 374.257,284.166 374.257,283.924 374.112,283.924 374.112,284.166 373.919,284.166 373.919,283.924 
				375.322,283.006 376.483,283.006 376.483,282.089 377.015,281.603 377.355,281.603 377.548,281.796 377.355,281.992 
				377.548,281.992 			"/>
			<polygon clip-path="url(#SVGID_4_)" fill-rule="evenodd" clip-rule="evenodd" fill="#C1402A" points="377.113,281.361 
				373.774,281.361 373.774,283.924 375.226,282.861 376.338,282.861 376.338,281.992 			"/>
			<polygon clip-path="url(#SVGID_4_)" fill-rule="evenodd" clip-rule="evenodd" fill="#C1402A" points="370.387,281.361 
				373.774,281.361 373.774,278.802 372.274,279.864 371.161,279.864 371.161,280.733 			"/>
			<polygon clip-path="url(#SVGID_4_)" fill-rule="evenodd" clip-rule="evenodd" fill="#C1402A" points="374.112,281.361 
				375.032,280.733 375.613,280.733 375.418,280.54 375.806,280.105 375.613,279.864 375.032,280.105 374.887,279.864 
				374.79,280.443 373.774,281.12 			"/>
			<polygon clip-path="url(#SVGID_4_)" fill-rule="evenodd" clip-rule="evenodd" fill="#C1402A" points="373.387,281.361 
				372.467,281.992 371.886,281.992 372.081,282.233 371.693,282.668 371.886,282.861 372.467,282.668 372.662,282.861 
				372.709,282.281 373.774,281.603 			"/>
			<polygon clip-path="url(#SVGID_4_)" fill-rule="evenodd" clip-rule="evenodd" fill="#32745A" points="373.387,281.361 
				372.467,280.733 371.886,280.733 372.081,280.54 371.693,280.105 371.886,279.864 372.467,280.105 372.662,279.864 
				372.709,280.443 373.774,281.12 			"/>
			<polygon clip-path="url(#SVGID_4_)" fill-rule="evenodd" clip-rule="evenodd" fill="#32745A" points="374.112,281.361 
				375.032,281.992 375.613,281.992 375.418,282.233 375.806,282.668 375.613,282.861 375.032,282.668 374.887,282.861 
				374.79,282.281 373.774,281.603 			"/>
			<polygon clip-path="url(#SVGID_4_)" fill-rule="evenodd" clip-rule="evenodd" fill="#FFFFFF" points="372.662,281.361 
				373.774,280.299 374.887,281.361 373.774,282.427 			"/>
			<polygon clip-path="url(#SVGID_4_)" fill-rule="evenodd" clip-rule="evenodd" fill="#C1402A" points="370.145,281.796 
				370.291,281.992 370.145,282.233 369.952,282.233 369.468,281.361 369.613,281.361 369.952,281.992 370.145,281.992 
				369.952,281.796 370.145,281.603 370.484,281.603 370.484,281.796 			"/>
			<polygon clip-path="url(#SVGID_4_)" fill-rule="evenodd" clip-rule="evenodd" fill="#C1402A" points="370.145,280.927 
				370.291,280.733 370.145,280.54 369.952,280.54 369.468,281.361 369.613,281.361 369.952,280.733 370.145,280.733 
				369.952,280.927 370.145,281.168 370.484,281.168 370.484,280.927 			"/>
			<polygon clip-path="url(#SVGID_4_)" fill-rule="evenodd" clip-rule="evenodd" fill="#C1402A" points="377.355,281.796 
				377.21,281.992 377.355,282.233 377.548,282.233 378.032,281.361 377.887,281.361 377.548,281.992 377.355,281.992 
				377.548,281.796 377.355,281.603 377.015,281.603 377.015,281.796 			"/>
			<polygon clip-path="url(#SVGID_4_)" fill-rule="evenodd" clip-rule="evenodd" fill="#C1402A" points="377.355,280.927 
				377.21,280.733 377.355,280.54 377.548,280.54 378.032,281.361 377.887,281.361 377.548,280.733 377.355,280.733 
				377.548,280.927 377.355,281.168 377.015,281.168 377.015,280.927 			"/>
			
				<rect x="373.581" y="280.54" clip-path="url(#SVGID_4_)" fill-rule="evenodd" clip-rule="evenodd" fill="#C1402A" width="0.339" height="1.693"/>
			
				<rect x="373.048" y="280.927" clip-path="url(#SVGID_4_)" fill-rule="evenodd" clip-rule="evenodd" fill="#C1402A" width="1.404" height="0.869"/>
			<polygon clip-path="url(#SVGID_4_)" fill-rule="evenodd" clip-rule="evenodd" fill="#32745A" points="372.226,314.792 
				369.129,316.579 369.129,319.625 372.226,321.412 375.322,321.412 378.419,319.625 378.419,316.579 375.322,314.792 			"/>
			<g clip-path="url(#SVGID_4_)">
				<polygon fill="none" stroke="#2A2D2F" stroke-width="0" stroke-linecap="square" stroke-miterlimit="10" points="
					372.226,314.792 369.129,316.579 369.129,319.625 372.226,321.412 375.322,321.412 378.419,319.625 378.419,316.579 
					375.322,314.792 				"/>
			</g>
			<polygon clip-path="url(#SVGID_4_)" fill-rule="evenodd" clip-rule="evenodd" fill="#CF3E27" points="370.242,317.4 
				370.436,317.4 370.436,316.966 370.822,316.966 370.822,317.4 371.016,317.4 371.016,316.386 370.822,316.386 370.822,316.82 
				370.436,316.82 370.436,316.386 370.242,316.386 			"/>
			<polygon clip-path="url(#SVGID_4_)" fill-rule="evenodd" clip-rule="evenodd" fill="#CF3E27" points="374.984,320.832 
				375.177,320.832 375.177,320.397 375.565,320.397 375.565,320.832 375.758,320.832 375.758,319.818 375.565,319.818 
				375.565,320.253 375.177,320.253 375.177,319.818 374.984,319.818 			"/>
			<polygon clip-path="url(#SVGID_4_)" fill-rule="evenodd" clip-rule="evenodd" fill="#CF3E27" points="376.483,317.4 
				376.677,317.4 376.677,316.966 377.065,316.966 377.065,317.4 377.258,317.4 377.258,316.386 377.065,316.386 377.065,316.82 
				376.677,316.82 376.677,316.386 376.483,316.386 			"/>
			<polygon clip-path="url(#SVGID_4_)" fill-rule="evenodd" clip-rule="evenodd" fill="#CF3E27" points="376.483,319.142 
				376.677,319.142 376.677,318.707 377.065,318.707 377.065,319.142 377.258,319.142 377.258,318.076 377.065,318.076 
				377.065,318.56 376.677,318.56 376.677,318.076 376.483,318.076 			"/>
			<polygon clip-path="url(#SVGID_4_)" fill-rule="evenodd" clip-rule="evenodd" fill="#E08529" points="373.774,321.268 
				373.774,318.076 378.226,318.076 378.226,319.528 375.274,321.268 			"/>
			<polygon clip-path="url(#SVGID_4_)" fill-rule="evenodd" clip-rule="evenodd" fill="#E08529" points="373.774,314.938 
				373.774,318.076 369.275,318.076 369.275,316.676 372.274,314.938 			"/>
			<polygon clip-path="url(#SVGID_4_)" fill-rule="evenodd" clip-rule="evenodd" fill="#FFFFFF" points="373.774,314.938 
				373.774,318.076 378.226,318.076 378.226,316.676 375.274,314.938 			"/>
			<polygon clip-path="url(#SVGID_4_)" fill-rule="evenodd" clip-rule="evenodd" fill="#FFFFFF" points="373.774,321.268 
				373.774,318.076 369.275,318.076 369.275,319.528 372.274,321.268 			"/>
			<path clip-path="url(#SVGID_4_)" fill-rule="evenodd" clip-rule="evenodd" fill="#E08529" d="M376.145,316.82h1.79l-1.79-0.869
				V316.82z M378.226,316.676v1.4h-2.808v-1.11h-0.628l-0.727-0.435v-1.015l0.437-0.435h-0.581v1.449h-0.145v-1.594h1.5
				L378.226,316.676z"/>
			<g clip-path="url(#SVGID_4_)">
				<path fill="none" stroke="#2A2D2F" stroke-width="0" stroke-linecap="square" stroke-miterlimit="10" d="M376.145,316.82h1.79
					l-1.79-0.869V316.82z M378.226,316.676v1.4h-2.808v-1.11h-0.628l-0.727-0.435v-1.015l0.437-0.435h-0.581v1.449h-0.145v-1.594
					h1.5L378.226,316.676z"/>
			</g>
			<polygon clip-path="url(#SVGID_4_)" fill-rule="evenodd" clip-rule="evenodd" fill="#C1402A" points="372.274,317.11 
				372.274,319.094 372.709,319.094 373.774,319.673 374.791,319.094 375.274,319.094 375.274,317.11 374.791,317.11 
				373.774,316.531 372.709,317.11 			"/>
			<path clip-path="url(#SVGID_4_)" fill-rule="evenodd" clip-rule="evenodd" fill="#E08529" d="M371.354,319.383h-1.79l1.79,0.87
				V319.383z M369.275,319.528v-1.452h2.854v1.162h0.58l0.726,0.435v1.015L373,321.122h0.581v-1.449h0.194v1.595h-1.5
				L369.275,319.528z"/>
			<g clip-path="url(#SVGID_4_)">
				<path fill="none" stroke="#2A2D2F" stroke-width="0" stroke-linecap="square" stroke-miterlimit="10" d="M371.354,319.383h-1.79
					l1.79,0.87V319.383z M369.275,319.528v-1.452h2.854v1.162h0.58l0.726,0.435v1.015L373,321.122h0.581v-1.449h0.194v1.595h-1.5
					L369.275,319.528z"/>
			</g>
			<path clip-path="url(#SVGID_4_)" fill-rule="evenodd" clip-rule="evenodd" fill="#FFFFFF" d="M371.354,316.82h-1.79l1.79-0.869
				V316.82z M369.275,316.676v1.4h2.854v-1.11h0.58l0.726-0.435v-1.015L373,315.082h0.581v1.449h0.194v-1.594h-1.5L369.275,316.676z
				"/>
			<g clip-path="url(#SVGID_4_)">
				<path fill="none" stroke="#2A2D2F" stroke-width="0" stroke-linecap="square" stroke-miterlimit="10" d="M371.354,316.82h-1.79
					l1.79-0.869V316.82z M369.275,316.676v1.4h2.854v-1.11h0.58l0.726-0.435v-1.015L373,315.082h0.581v1.449h0.194v-1.594h-1.5
					L369.275,316.676z"/>
			</g>
			<path clip-path="url(#SVGID_4_)" fill-rule="evenodd" clip-rule="evenodd" fill="#FFFFFF" d="M376.145,319.383h1.79l-1.79,0.87
				V319.383z M378.226,319.528v-1.452h-2.808v1.162h-0.628l-0.727,0.435v1.015l0.437,0.435h-0.581v-1.449h-0.145v1.595h1.5
				L378.226,319.528z"/>
			<g clip-path="url(#SVGID_4_)">
				<path fill="none" stroke="#2A2D2F" stroke-width="0" stroke-linecap="square" stroke-miterlimit="10" d="M376.145,319.383h1.79
					l-1.79,0.87V319.383z M378.226,319.528v-1.452h-2.808v1.162h-0.628l-0.727,0.435v1.015l0.437,0.435h-0.581v-1.449h-0.145v1.595
					h1.5L378.226,319.528z"/>
			</g>
			<polygon clip-path="url(#SVGID_4_)" fill-rule="evenodd" clip-rule="evenodd" fill="#C1402A" points="370.145,319.238 
				370.339,319.238 370.339,318.804 370.725,318.804 370.725,319.238 370.92,319.238 370.92,318.222 370.725,318.222 
				370.725,318.656 370.339,318.656 370.339,318.222 370.145,318.222 			"/>
			<polygon clip-path="url(#SVGID_4_)" fill-rule="evenodd" clip-rule="evenodd" fill="#C1402A" points="371.935,320.688 
				372.129,320.688 372.129,320.253 372.516,320.253 372.516,320.688 372.709,320.688 372.709,319.673 372.516,319.673 
				372.516,320.107 372.129,320.107 372.129,319.673 371.935,319.673 			"/>
			<polygon clip-path="url(#SVGID_4_)" fill-rule="evenodd" clip-rule="evenodd" fill="#C1402A" points="370.145,316.966 
				370.339,316.966 370.339,317.4 370.725,317.4 370.725,316.966 370.92,316.966 370.92,317.98 370.725,317.98 370.725,317.545 
				370.339,317.545 370.339,317.98 370.145,317.98 			"/>
			<polygon clip-path="url(#SVGID_4_)" fill-rule="evenodd" clip-rule="evenodd" fill="#C1402A" points="371.935,315.517 
				372.129,315.517 372.129,315.951 372.516,315.951 372.516,315.517 372.709,315.517 372.709,316.531 372.516,316.531 
				372.516,316.096 372.129,316.096 372.129,316.531 371.935,316.531 			"/>
			<polygon clip-path="url(#SVGID_4_)" fill-rule="evenodd" clip-rule="evenodd" fill="#C1402A" points="376.581,317.98 
				376.774,317.98 376.774,317.545 377.162,317.545 377.162,317.98 377.355,317.98 377.355,316.966 377.162,316.966 377.162,317.4 
				376.774,317.4 376.774,316.966 376.581,316.966 			"/>
			<polygon clip-path="url(#SVGID_4_)" fill-rule="evenodd" clip-rule="evenodd" fill="#C1402A" points="374.791,320.688 
				374.984,320.688 374.984,320.253 375.372,320.253 375.372,320.688 375.565,320.688 375.565,319.673 375.372,319.673 
				375.372,320.107 374.984,320.107 374.984,319.673 374.791,319.673 			"/>
			<polygon clip-path="url(#SVGID_4_)" fill-rule="evenodd" clip-rule="evenodd" fill="#C1402A" points="376.581,319.238 
				376.774,319.238 376.774,318.804 377.162,318.804 377.162,319.238 377.355,319.238 377.355,318.222 377.162,318.222 
				377.162,318.656 376.774,318.656 376.774,318.222 376.581,318.222 			"/>
			<polygon clip-path="url(#SVGID_4_)" fill-rule="evenodd" clip-rule="evenodd" fill="#C1402A" points="374.791,316.531 
				374.984,316.531 374.984,316.096 375.372,316.096 375.372,316.531 375.565,316.531 375.565,315.517 375.372,315.517 
				375.372,315.951 374.984,315.951 374.984,315.517 374.791,315.517 			"/>
			<polygon clip-path="url(#SVGID_4_)" fill-rule="evenodd" clip-rule="evenodd" fill="#32745A" points="373.919,318.076 
				374.5,317.594 374.791,317.594 374.791,317.835 374.5,317.835 374.5,317.98 374.936,317.98 374.936,317.448 374.5,317.448 
				374.5,317.062 373.919,317.062 373.919,317.448 374.064,317.448 374.064,317.158 374.356,317.158 374.356,317.448 
				373.774,317.98 373.146,317.448 373.146,317.158 373.436,317.158 373.436,317.448 373.581,317.448 373.581,317.062 373,317.062 
				373,317.448 372.565,317.448 372.565,317.98 373,317.98 373,317.835 372.709,317.835 372.709,317.594 373,317.594 
				373.581,318.076 373,318.61 372.709,318.61 372.709,318.366 373,318.366 373,318.222 372.565,318.222 372.565,318.753 
				373,318.753 373,319.142 373.581,319.142 373.581,318.753 373.436,318.753 373.436,319.045 373.146,319.045 373.146,318.753 
				373.774,318.222 374.356,318.753 374.356,319.045 374.064,319.045 374.064,318.753 373.919,318.753 373.919,319.142 
				374.5,319.142 374.5,318.753 374.936,318.753 374.936,318.222 374.5,318.222 374.5,318.366 374.791,318.366 374.791,318.61 
				374.5,318.61 			"/>
			<polygon clip-path="url(#SVGID_4_)" fill-rule="evenodd" clip-rule="evenodd" fill="#C1402A" points="369.564,291.361 
				369.855,290.976 371.597,290.976 372.903,289.333 374.645,289.333 375.952,290.976 377.645,290.976 377.935,291.361 
				377.645,291.748 375.952,291.748 374.645,293.438 372.903,293.438 371.597,291.748 369.855,291.748 			"/>
			<polygon clip-path="url(#SVGID_4_)" fill-rule="evenodd" clip-rule="evenodd" fill="#C1402A" points="369.709,290.928 
				369.855,290.782 371.645,290.782 373,289.188 374.5,289.188 375.855,290.782 377.645,290.782 377.791,290.928 377.645,291.072 
				375.855,291.072 374.645,292.473 372.854,292.473 371.645,291.072 369.855,291.072 			"/>
			<g clip-path="url(#SVGID_4_)">
				<polygon fill="none" stroke="#2A2D2F" stroke-width="0" stroke-linecap="square" stroke-miterlimit="10" points="
					369.709,290.928 369.855,290.782 371.645,290.782 373,289.188 374.5,289.188 375.855,290.782 377.645,290.782 377.791,290.928 
					377.645,291.072 375.855,291.072 374.645,292.473 372.854,292.473 371.645,291.072 369.855,291.072 				"/>
			</g>
			<path clip-path="url(#SVGID_4_)" fill-rule="evenodd" clip-rule="evenodd" fill="#E08529" d="M374.5,291.072l0.58,0.628
				l-0.29,0.338l-0.146-0.146H374.5v0.146l0.145,0.193h0.291l0.29-0.339v-0.338l-0.581-0.676l0.581-0.676v-0.29l-0.29-0.338h-0.291
				l-0.145,0.145v0.193h0.145l0.146-0.193l0.29,0.338l-0.58,0.677l-0.581-0.677l0.581-0.676v-0.146h-0.145l-0.582,0.677
				l-0.581-0.677h-0.146v0.146l0.581,0.676l-0.581,0.677l-0.581-0.677l0.291-0.338l0.145,0.193h0.145v-0.193l-0.145-0.145h-0.29
				l-0.29,0.338v0.29l0.58,0.676l-0.58,0.676v0.338l0.29,0.339h0.29l0.145-0.193v-0.146h-0.145l-0.145,0.146l-0.291-0.338
				l0.581-0.628l0.581,0.628l-0.581,0.676v0.193h0.146l0.581-0.677l0.582,0.677h0.145v-0.193l-0.581-0.676L374.5,291.072z
				 M373.774,290.203l-0.581,0.676l0.581,0.676l0.582-0.676L373.774,290.203z"/>
			<g clip-path="url(#SVGID_4_)">
				<path fill="none" stroke="#2A2D2F" stroke-width="0" stroke-linecap="square" stroke-miterlimit="10" d="M374.5,291.072
					l0.58,0.628l-0.29,0.338l-0.146-0.146H374.5v0.146l0.145,0.193h0.291l0.29-0.339v-0.338l-0.581-0.676l0.581-0.676v-0.29
					l-0.29-0.338h-0.291l-0.145,0.145v0.193h0.145l0.146-0.193l0.29,0.338l-0.58,0.677l-0.581-0.677l0.581-0.676v-0.146h-0.145
					l-0.582,0.677l-0.581-0.677h-0.146v0.146l0.581,0.676l-0.581,0.677l-0.581-0.677l0.291-0.338l0.145,0.193h0.145v-0.193
					l-0.145-0.145h-0.29l-0.29,0.338v0.29l0.58,0.676l-0.58,0.676v0.338l0.29,0.339h0.29l0.145-0.193v-0.146h-0.145l-0.145,0.146
					l-0.291-0.338l0.581-0.628l0.581,0.628l-0.581,0.676v0.193h0.146l0.581-0.677l0.582,0.677h0.145v-0.193l-0.581-0.676
					L374.5,291.072z M373.774,290.203l-0.581,0.676l0.581,0.676l0.582-0.676L373.774,290.203z"/>
			</g>
			<polygon clip-path="url(#SVGID_4_)" fill-rule="evenodd" clip-rule="evenodd" fill="#E08529" points="372.903,292.714 
				372.903,294.019 373.048,293.876 373.194,294.019 373.339,293.876 373.484,294.019 373.629,293.876 373.774,294.019 
				373.919,293.876 374.064,294.019 374.209,293.876 374.356,294.019 374.5,293.876 374.645,294.019 374.645,292.714 			"/>
			<polygon clip-path="url(#SVGID_4_)" fill-rule="evenodd" clip-rule="evenodd" fill="#E08529" points="374.645,289.043 
				374.645,287.739 374.5,287.885 374.356,287.739 374.209,287.885 374.064,287.739 373.919,287.885 373.774,287.739 
				373.629,287.885 373.484,287.739 373.339,287.885 373.194,287.739 373.048,287.885 372.903,287.739 372.903,289.043 			"/>
			<polygon clip-path="url(#SVGID_4_)" fill-rule="evenodd" clip-rule="evenodd" fill="#E08529" points="377.065,290.541 
				377.065,289.236 376.918,289.382 376.774,289.236 376.629,289.382 376.483,289.236 376.387,289.382 376.242,289.236 
				376.097,289.382 375.952,289.236 375.952,290.541 			"/>
			<polygon clip-path="url(#SVGID_4_)" fill-rule="evenodd" clip-rule="evenodd" fill="#E08529" points="371.597,290.541 
				371.597,289.236 371.452,289.382 371.307,289.236 371.161,289.382 371.016,289.236 370.872,289.382 370.725,289.236 
				370.58,289.382 370.436,289.236 370.436,290.541 			"/>
			<polygon clip-path="url(#SVGID_4_)" fill-rule="evenodd" clip-rule="evenodd" fill="#E08529" points="377.065,291.217 
				377.065,292.569 376.918,292.376 376.774,292.569 376.629,292.376 376.483,292.569 376.387,292.376 376.242,292.569 
				376.097,292.376 375.952,292.569 375.952,291.217 			"/>
			<polygon clip-path="url(#SVGID_4_)" fill-rule="evenodd" clip-rule="evenodd" fill="#E08529" points="371.597,291.217 
				371.597,292.569 371.452,292.376 371.307,292.569 371.161,292.376 371.016,292.569 370.872,292.376 370.725,292.569 
				370.58,292.376 370.436,292.569 370.436,291.217 			"/>
			<polygon clip-path="url(#SVGID_4_)" fill-rule="evenodd" clip-rule="evenodd" fill="#32745A" points="374.645,292.714 
				374.645,293.535 374.791,293.391 374.936,293.535 375.081,293.391 375.226,293.535 375.37,293.391 375.517,293.535 
				375.662,293.391 375.806,293.535 375.952,293.391 375.952,291.217 			"/>
			<polygon clip-path="url(#SVGID_4_)" fill-rule="evenodd" clip-rule="evenodd" fill="#32745A" points="372.903,292.714 
				372.903,293.535 372.758,293.391 372.613,293.535 372.467,293.391 372.323,293.535 372.178,293.391 372.031,293.535 
				371.886,293.391 371.742,293.535 371.597,293.391 371.597,291.217 			"/>
			<polygon clip-path="url(#SVGID_4_)" fill-rule="evenodd" clip-rule="evenodd" fill="#32745A" points="372.903,289.043 
				372.903,288.223 372.758,288.416 372.613,288.223 372.467,288.416 372.323,288.223 372.178,288.416 372.031,288.223 
				371.886,288.416 371.742,288.223 371.597,288.416 371.597,290.541 			"/>
			<polygon clip-path="url(#SVGID_4_)" fill-rule="evenodd" clip-rule="evenodd" fill="#32745A" points="374.645,289.043 
				374.645,288.223 374.791,288.416 374.936,288.223 375.081,288.416 375.226,288.223 375.37,288.416 375.517,288.223 
				375.662,288.416 375.806,288.223 375.952,288.416 375.952,290.541 			"/>
			<polygon clip-path="url(#SVGID_4_)" fill-rule="evenodd" clip-rule="evenodd" fill="#32745A" points="370.436,292.231 
				370.291,292.038 370.145,292.231 370,292.038 369.855,292.231 369.709,292.038 369.564,292.231 369.419,292.038 369.275,292.231 
				369.275,289.575 369.419,289.72 369.564,289.575 369.709,289.72 369.855,289.575 370,289.72 370.145,289.575 370.291,289.72 
				370.436,289.575 370.436,290.541 369.855,290.541 369.564,290.879 369.855,291.217 370.436,291.217 			"/>
			<polygon clip-path="url(#SVGID_4_)" fill-rule="evenodd" clip-rule="evenodd" fill="#32745A" points="377.065,292.231 
				377.21,292.038 377.355,292.231 377.5,292.038 377.645,292.231 377.791,292.038 377.935,292.231 378.08,292.038 378.226,292.231 
				378.226,289.575 378.08,289.72 377.935,289.575 377.791,289.72 377.645,289.575 377.5,289.72 377.355,289.575 377.21,289.72 
				377.065,289.575 377.065,290.541 377.645,290.541 377.935,290.879 377.645,291.217 377.065,291.217 			"/>
			<path clip-path="url(#SVGID_4_)" fill-rule="evenodd" clip-rule="evenodd" fill="#FFFFFF" d="M372.178,292.811
				c0,0-0.146,0.146-0.146,0.193c0,0.049,0.146,0.193,0.195,0.193c0.097,0,0.193-0.097,0.193-0.193c0-0.048-0.145-0.193-0.145-0.193
				v-0.241c0,0,0.291,0.435,0.291,0.241c0-0.145-0.291-0.387-0.291-0.387h-0.097c0,0-0.292,0.29-0.292,0.387
				c0,0.193,0.292-0.241,0.292-0.241V292.811z"/>
			<path clip-path="url(#SVGID_4_)" fill-rule="evenodd" clip-rule="evenodd" fill="#C1402A" d="M373.678,293.342
				c0,0-0.146,0.146-0.146,0.242c0,0.096,0.146,0.292,0.242,0.292c0.048,0,0.193-0.196,0.193-0.292c0-0.097-0.145-0.242-0.145-0.242
				v-0.386c0,0,0.241,0.579,0.241,0.338c0-0.193-0.241-0.531-0.241-0.531h-0.145c0,0-0.291,0.435-0.242,0.531
				c0,0.241,0.242-0.338,0.242-0.338V293.342z"/>
			<path clip-path="url(#SVGID_4_)" fill-rule="evenodd" clip-rule="evenodd" fill="#32745A" d="M372.467,290.879
				c0,0.097-0.145,0.193-0.29,0.193c-0.195,0-0.292-0.097-0.292-0.193s0.097-0.145,0.292-0.145
				C372.323,290.734,372.467,290.782,372.467,290.879L372.467,290.879z"/>
			<path clip-path="url(#SVGID_4_)" fill-rule="evenodd" clip-rule="evenodd" fill="#32745A" d="M374.064,290.879
				c0,0.097-0.145,0.193-0.29,0.193c-0.194,0-0.291-0.097-0.291-0.193s0.097-0.145,0.291-0.145
				C373.919,290.734,374.064,290.782,374.064,290.879L374.064,290.879z"/>
			<path clip-path="url(#SVGID_4_)" fill-rule="evenodd" clip-rule="evenodd" fill="#32745A" d="M375.662,290.879
				c0,0.097-0.145,0.193-0.292,0.193c-0.193,0-0.29-0.097-0.29-0.193s0.097-0.145,0.29-0.145
				C375.517,290.734,375.662,290.782,375.662,290.879L375.662,290.879z"/>
			<path clip-path="url(#SVGID_4_)" fill-rule="evenodd" clip-rule="evenodd" fill="#FFFFFF" d="M372.129,288.995
				c0,0-0.097-0.145-0.097-0.241c0-0.049,0.097-0.193,0.145-0.193c0.097,0,0.193,0.145,0.193,0.193c0,0.097-0.096,0.241-0.096,0.241
				v0.241c0,0,0.241-0.435,0.241-0.241c0,0.146-0.241,0.387-0.241,0.387h-0.145c0,0-0.243-0.29-0.243-0.387
				c0-0.193,0.243,0.241,0.243,0.241V288.995z"/>
			<path clip-path="url(#SVGID_4_)" fill-rule="evenodd" clip-rule="evenodd" fill="#C1402A" d="M373.629,288.464
				c0,0-0.145-0.193-0.145-0.29c0-0.048,0.194-0.241,0.242-0.241c0.097,0,0.193,0.146,0.193,0.241c0,0.097-0.145,0.29-0.145,0.29
				v0.387c0,0,0.29-0.628,0.29-0.339c0,0.193-0.29,0.483-0.29,0.483h-0.146c0,0-0.29-0.386-0.242-0.483
				c0-0.289,0.242,0.339,0.242,0.339V288.464z"/>
			<path clip-path="url(#SVGID_4_)" fill-rule="evenodd" clip-rule="evenodd" fill="#FFFFFF" d="M375.274,292.811
				c0,0-0.145,0.146-0.145,0.193c0,0.049,0.145,0.193,0.193,0.193c0.048,0,0.195-0.097,0.195-0.193c0-0.048-0.146-0.193-0.146-0.193
				v-0.241c0,0,0.292,0.435,0.292,0.241c0-0.145-0.292-0.387-0.292-0.387h-0.096c0,0-0.29,0.29-0.29,0.387
				c0,0.193,0.29-0.241,0.29-0.241V292.811z"/>
			<path clip-path="url(#SVGID_4_)" fill-rule="evenodd" clip-rule="evenodd" fill="#FFFFFF" d="M375.226,288.995
				c0,0-0.097-0.145-0.097-0.241c-0.048-0.049,0.097-0.193,0.145-0.193c0.098,0,0.194,0.145,0.194,0.193
				c0,0.097-0.097,0.241-0.097,0.241v0.241c0,0,0.242-0.435,0.242-0.241c0,0.146-0.242,0.387-0.242,0.387h-0.146
				c0,0-0.242-0.29-0.242-0.387c0-0.193,0.242,0.241,0.242,0.241V288.995z"/>
			<path clip-path="url(#SVGID_4_)" fill-rule="evenodd" clip-rule="evenodd" fill="#C1402A" d="M370.92,291.893
				c0,0-0.195,0.146-0.195,0.193c0,0.049,0.195,0.193,0.243,0.193c0.096,0,0.241-0.145,0.241-0.193c0-0.048-0.145-0.193-0.145-0.193
				v-0.241c0,0,0.29,0.387,0.29,0.193c0-0.097-0.29-0.338-0.29-0.338h-0.144c0,0-0.34,0.29-0.292,0.338
				c0,0.193,0.292-0.193,0.292-0.193V291.893z"/>
			<path clip-path="url(#SVGID_4_)" fill-rule="evenodd" clip-rule="evenodd" fill="#C1402A" d="M370.872,290.01
				c0,0-0.146-0.097-0.146-0.193c0-0.049,0.146-0.193,0.243-0.193c0.096,0,0.241,0.145,0.241,0.193c0,0.097-0.193,0.193-0.193,0.193
				v0.241c0,0,0.291-0.386,0.291-0.193c0,0.097-0.291,0.339-0.291,0.339h-0.145c0,0-0.34-0.29-0.292-0.339
				c0-0.192,0.292,0.193,0.292,0.193V290.01z"/>
			<path clip-path="url(#SVGID_4_)" fill-rule="evenodd" clip-rule="evenodd" fill="#C1402A" d="M376.483,291.845
				c0,0-0.145,0.146-0.145,0.193c-0.048,0.048,0.145,0.193,0.242,0.193c0.048,0,0.242-0.146,0.242-0.193s-0.193-0.193-0.193-0.193
				v-0.241c0,0,0.29,0.387,0.29,0.241c0-0.145-0.29-0.338-0.29-0.338h-0.146c0,0-0.338,0.241-0.29,0.338
				c0,0.146,0.29-0.241,0.29-0.241V291.845z"/>
			<path clip-path="url(#SVGID_4_)" fill-rule="evenodd" clip-rule="evenodd" fill="#C1402A" d="M376.435,289.961
				c0,0-0.145-0.096-0.145-0.193c0-0.048,0.145-0.145,0.242-0.145c0.097,0,0.242,0.097,0.242,0.145c0,0.098-0.193,0.193-0.193,0.193
				v0.242c0,0,0.29-0.387,0.29-0.193c0,0.097-0.29,0.338-0.29,0.338h-0.146c0,0-0.338-0.29-0.29-0.338
				c0-0.193,0.29,0.193,0.29,0.193V289.961z"/>
			<path clip-path="url(#SVGID_4_)" fill-rule="evenodd" clip-rule="evenodd" fill="#FFFFFF" d="M369.709,291.893
				c-0.048-0.145,0-0.192,0-0.241c-0.048-0.048,0.146-0.192,0.194-0.192s0.145,0.145,0.145,0.192v0.241l-0.097-0.192
				c-0.097,0.29-0.097,0.29-0.145,0L369.709,291.893z"/>
			<path clip-path="url(#SVGID_4_)" fill-rule="evenodd" clip-rule="evenodd" fill="#FFFFFF" d="M369.709,289.961
				c-0.048,0.097,0,0.193,0,0.242c0,0.048,0.146,0.193,0.194,0.193s0.145-0.146,0.145-0.242v-0.193l-0.097,0.193
				c-0.097-0.289-0.097-0.289-0.145,0L369.709,289.961z"/>
			<path clip-path="url(#SVGID_4_)" fill-rule="evenodd" clip-rule="evenodd" fill="#FFFFFF" d="M377.548,291.845
				c-0.049-0.097-0.049-0.145-0.049-0.241c0-0.049,0.146-0.145,0.194-0.145c0.097,0,0.193,0.096,0.193,0.192
				c0,0.049,0,0.097-0.049,0.241l-0.048-0.192c-0.097,0.241-0.097,0.241-0.146-0.049L377.548,291.845z"/>
			<path clip-path="url(#SVGID_4_)" fill-rule="evenodd" clip-rule="evenodd" fill="#FFFFFF" d="M377.548,289.961
				c-0.049,0.097-0.049,0.146-0.049,0.193c0,0.097,0.146,0.193,0.194,0.193c0.097,0,0.193-0.145,0.193-0.193v-0.241l-0.097,0.193
				c-0.097-0.29-0.097-0.29-0.146,0L377.548,289.961z"/>
			<path clip-path="url(#SVGID_4_)" fill-rule="evenodd" clip-rule="evenodd" fill="#C1402A" d="M372.854,294.066v-0.482H371.5
				v-0.918h-1.209v-0.338h-1.016v-2.85h1.016v-0.29h1.209v-0.966h1.354v-0.435h1.791v0.435H376v0.966h1.209v0.29h1.016v2.85h-1.016
				v0.338H376v0.918h-1.355v0.482H372.854z M372.709,294.215v-0.438h-1.355v-0.967h-1.209v-0.338h-1.016v-3.14h1.016v-0.29h1.209
				v-0.965h1.355v-0.483h2.081v0.483h1.354v0.965h1.21v0.29h1.064v3.14h-1.064v0.338h-1.21v0.967h-1.354v0.438H372.709z"/>
			<g clip-path="url(#SVGID_4_)">
				<path fill="none" stroke="#2A2D2F" stroke-width="0" stroke-linecap="square" stroke-miterlimit="10" d="M372.854,294.066
					v-0.482H371.5v-0.918h-1.209v-0.338h-1.016v-2.85h1.016v-0.29h1.209v-0.966h1.354v-0.435h1.791v0.435H376v0.966h1.209v0.29
					h1.016v2.85h-1.016v0.338H376v0.918h-1.355v0.482H372.854z M372.709,294.215v-0.438h-1.355v-0.967h-1.209v-0.338h-1.016v-3.14
					h1.016v-0.29h1.209v-0.965h1.355v-0.483h2.081v0.483h1.354v0.965h1.21v0.29h1.064v3.14h-1.064v0.338h-1.21v0.967h-1.354v0.438
					H372.709z"/>
			</g>
			<path clip-path="url(#SVGID_4_)" fill-rule="evenodd" clip-rule="evenodd" fill="#FFFFFF" d="M399.033,287.208
				c0-3.429-2.807-6.233-6.242-6.233c-3.435,0-6.194,2.805-6.194,6.233c0,3.478,2.76,6.23,6.194,6.23
				C396.226,293.438,399.033,290.686,399.033,287.208L399.033,287.208z"/>
			<path clip-path="url(#SVGID_4_)" fill-rule="evenodd" clip-rule="evenodd" fill="#32745A" d="M397.339,286.242
				c0-3.381-2.759-6.137-6.145-6.137c-3.387,0-6.146,2.756-6.146,6.137c0,3.43,2.76,6.182,6.146,6.182
				C394.581,292.424,397.339,289.672,397.339,286.242L397.339,286.242z"/>
			<polygon clip-path="url(#SVGID_4_)" fill-rule="evenodd" clip-rule="evenodd" fill="#FCFDFD" points="393.612,283.73 
				392.742,283.73 392.5,284.6 392.208,283.73 391.339,283.73 392.015,283.199 391.726,282.379 392.452,282.861 393.177,282.379 
				392.936,283.199 			"/>
			<polygon clip-path="url(#SVGID_4_)" fill-rule="evenodd" clip-rule="evenodd" fill="#FCFDFD" points="390.467,282.137 
				389.597,282.186 389.355,283.006 389.065,282.186 388.194,282.137 388.872,281.603 388.581,280.781 389.306,281.265 
				389.984,280.781 389.791,281.603 			"/>
			<polygon clip-path="url(#SVGID_4_)" fill-rule="evenodd" clip-rule="evenodd" fill="#FCFDFD" points="390.467,285.324 
				389.597,285.324 389.355,286.146 389.065,285.324 388.194,285.324 388.872,284.793 388.581,283.924 389.306,284.455 
				389.984,283.924 389.791,284.793 			"/>
			<polygon clip-path="url(#SVGID_4_)" fill-rule="evenodd" clip-rule="evenodd" fill="#FCFDFD" points="390.467,288.512 
				389.597,288.512 389.355,289.333 389.065,288.512 388.194,288.512 388.872,287.98 388.581,287.111 389.306,287.643 
				389.984,287.111 389.791,287.98 			"/>
			<polygon clip-path="url(#SVGID_4_)" fill-rule="evenodd" clip-rule="evenodd" fill="#FCFDFD" points="387.322,286.87 
				386.451,286.87 386.209,287.739 385.919,286.87 385.048,286.87 385.726,286.339 385.435,285.518 386.162,286.001 
				386.887,285.518 386.646,286.339 			"/>
			<polygon clip-path="url(#SVGID_4_)" fill-rule="evenodd" clip-rule="evenodd" fill="#C1402A" points="374.791,320.688 
				374.984,320.688 374.984,320.253 375.372,320.253 375.372,320.688 375.565,320.688 375.565,319.673 375.372,319.673 
				375.372,320.107 374.984,320.107 374.984,319.673 374.791,319.673 			"/>
		</g>
	</g>
</g>
</svg>
