<?xml version="1.0" encoding="utf-8"?>
<!-- Generator: Adobe Illustrator 16.0.0, SVG Export Plug-In . SVG Version: 6.00 Build 0)  -->
<!DOCTYPE svg PUBLIC "-//W3C//DTD SVG 1.1//EN" "http://www.w3.org/Graphics/SVG/1.1/DTD/svg11.dtd">
<svg version="1.1" id="name" xmlns="http://www.w3.org/2000/svg" xmlns:xlink="http://www.w3.org/1999/xlink" x="0px" y="0px"
	 width="85.711px" height="50px" viewBox="358 276 85.711 50" enable-background="new 358 276 85.711 50" xml:space="preserve">
<g id="tr">
	<g>
		<defs>
			<rect id="SVGID_1_" x="358" y="276" width="85.711" height="50"/>
		</defs>
		<clipPath id="SVGID_2_">
			<use xlink:href="#SVGID_1_"  overflow="visible"/>
		</clipPath>
		<rect x="358" y="276" clip-path="url(#SVGID_2_)" fill="#D1202A" width="85.711" height="50"/>
		<g clip-path="url(#SVGID_2_)">
			<defs>
				<rect id="SVGID_3_" x="358" y="276" width="85.711" height="50"/>
			</defs>
			<clipPath id="SVGID_4_">
				<use xlink:href="#SVGID_3_"  overflow="visible"/>
			</clipPath>
			<path clip-path="url(#SVGID_4_)" fill="#FFFFFF" d="M382.999,288.501c6.904,0,12.502,5.597,12.502,12.501
				c0,6.9-5.598,12.498-12.502,12.498c-6.904,0-12.499-5.598-12.499-12.498C370.5,294.098,376.095,288.501,382.999,288.501"/>
			<path clip-path="url(#SVGID_4_)" fill="#D1202A" d="M386.122,290.998c5.526,0,10.001,4.48,10.001,10.004
				c0,5.52-4.475,10-10.001,10c-5.521,0-9.997-4.48-9.997-10C376.125,295.479,380.601,290.998,386.122,290.998"/>
			<polygon clip-path="url(#SVGID_4_)" fill="#FFFFFF" points="393.562,301.002 399.503,302.934 400.469,299.959 			"/>
			<polygon clip-path="url(#SVGID_4_)" fill="#FFFFFF" points="393.562,301.002 399.503,299.07 400.469,302.041 			"/>
			<polygon clip-path="url(#SVGID_4_)" fill="#FFFFFF" points="397.88,295.056 397.88,301.306 401.006,301.306 			"/>
			<polygon clip-path="url(#SVGID_4_)" fill="#FFFFFF" points="397.88,295.056 401.551,300.112 399.026,301.951 			"/>
			<polygon clip-path="url(#SVGID_4_)" fill="#FFFFFF" points="397.88,306.945 401.551,301.889 399.026,300.053 			"/>
			<polygon clip-path="url(#SVGID_4_)" fill="#FFFFFF" points="397.88,306.945 397.88,300.695 401.006,300.695 			"/>
			<polygon clip-path="url(#SVGID_4_)" fill="#FFFFFF" points="404.867,297.328 398.923,299.258 399.889,302.229 			"/>
			<polygon clip-path="url(#SVGID_4_)" fill="#FFFFFF" points="404.867,297.328 401.193,302.383 398.665,300.547 			"/>
			<polygon clip-path="url(#SVGID_4_)" fill="#FFFFFF" points="404.867,304.672 401.193,299.618 398.665,301.456 			"/>
			<polygon clip-path="url(#SVGID_4_)" fill="#FFFFFF" points="404.867,304.672 398.923,302.743 399.889,299.771 			"/>
		</g>
	</g>
</g>
</svg>
