<?xml version="1.0" encoding="utf-8"?>
<!-- Generator: Adobe Illustrator 16.0.0, SVG Export Plug-In . SVG Version: 6.00 Build 0)  -->
<!DOCTYPE svg PUBLIC "-//W3C//DTD SVG 1.1//EN" "http://www.w3.org/Graphics/SVG/1.1/DTD/svg11.dtd">
<svg version="1.1" id="name" xmlns="http://www.w3.org/2000/svg" xmlns:xlink="http://www.w3.org/1999/xlink" x="0px" y="0px"
	 width="85.712px" height="50px" viewBox="358 276 85.712 50" enable-background="new 358 276 85.712 50" xml:space="preserve">
<g id="tv">
	<g>
		<defs>
			<rect id="SVGID_1_" x="358" y="276" width="85.712" height="50"/>
		</defs>
		<clipPath id="SVGID_2_">
			<use xlink:href="#SVGID_1_"  overflow="visible"/>
		</clipPath>
		<rect x="358" y="276" clip-path="url(#SVGID_2_)" fill="#7FA6D8" width="85.712" height="50"/>
		<polygon clip-path="url(#SVGID_2_)" fill-rule="evenodd" clip-rule="evenodd" fill="#F4D130" points="440.283,288.354 
			437.816,286.663 435.348,288.354 436.293,285.623 433.822,283.936 436.875,283.938 437.816,281.205 438.756,283.938 
			441.809,283.936 439.338,285.623 		"/>
		<polygon clip-path="url(#SVGID_2_)" fill-rule="evenodd" clip-rule="evenodd" fill="#F4D130" points="432.625,310.136 
			430.156,308.445 427.686,310.136 428.633,307.405 426.164,305.718 429.215,305.721 430.156,302.987 431.096,305.721 
			434.15,305.718 431.678,307.405 		"/>
		<polygon clip-path="url(#SVGID_2_)" fill-rule="evenodd" clip-rule="evenodd" fill="#F4D130" points="440.283,305.203 
			437.816,303.514 435.348,305.203 436.293,302.474 433.822,300.789 436.875,300.789 437.816,298.059 438.756,300.789 
			441.809,300.789 439.338,302.474 		"/>
		<polygon clip-path="url(#SVGID_2_)" fill-rule="evenodd" clip-rule="evenodd" fill="#F4D130" points="407.348,321.003 
			404.879,319.312 402.41,321.003 403.355,318.272 400.887,316.585 403.938,316.588 404.879,313.854 405.818,316.588 
			408.873,316.585 406.4,318.272 		"/>
		<polygon clip-path="url(#SVGID_2_)" fill-rule="evenodd" clip-rule="evenodd" fill="#F4D130" points="411.221,303.706 
			413.689,305.396 416.156,303.706 415.209,306.437 417.68,308.124 414.629,308.121 413.689,310.854 412.746,308.121 
			409.695,308.124 412.168,306.437 		"/>
		<polygon clip-path="url(#SVGID_2_)" fill-rule="evenodd" clip-rule="evenodd" fill="#F4D130" points="420.221,291.26 
			422.689,292.95 425.154,291.26 424.209,293.99 426.682,295.678 423.629,295.675 422.689,298.408 421.746,295.675 418.695,295.678 
			421.166,293.99 		"/>
		<polygon clip-path="url(#SVGID_2_)" fill-rule="evenodd" clip-rule="evenodd" fill="#F4D130" points="427.783,288.674 
			430.254,290.365 432.721,288.674 431.775,291.404 434.244,293.092 431.191,293.09 430.252,295.822 429.312,293.09 426.26,293.092 
			428.729,291.404 		"/>
		<polygon clip-path="url(#SVGID_2_)" fill-rule="evenodd" clip-rule="evenodd" fill="#F4D130" points="420.221,310.218 
			422.689,311.908 425.154,310.218 424.209,312.948 426.682,314.636 423.629,314.633 422.689,317.363 421.746,314.63 
			418.695,314.636 421.166,312.948 		"/>
		<polygon clip-path="url(#SVGID_2_)" fill-rule="evenodd" clip-rule="evenodd" fill="#F4D130" points="411.221,312.42 
			413.689,314.11 416.156,312.42 415.209,315.15 417.68,316.838 414.629,316.835 413.689,319.565 412.746,316.835 409.695,316.838 
			412.168,315.15 		"/>
		<rect x="358" y="276" clip-path="url(#SVGID_2_)" fill="#2C3078" width="42.857" height="21.431"/>
		<polygon clip-path="url(#SVGID_2_)" fill="#FFFFFF" points="396.065,276 358,295.032 358,297.431 362.792,297.431 
			400.858,278.396 400.858,276 		"/>
		<polygon clip-path="url(#SVGID_2_)" fill="#FFFFFF" points="358,276 358,278.396 396.065,297.431 400.858,297.431 
			400.858,295.032 362.792,276 		"/>
		<polygon clip-path="url(#SVGID_2_)" fill="#FFFFFF" points="375.858,276 375.858,283.143 358,283.143 358,290.285 
			375.858,290.285 375.858,297.431 383,297.431 383,290.285 400.858,290.285 400.858,283.143 383,283.143 383,276 		"/>
		<polygon clip-path="url(#SVGID_2_)" fill="#C01F3F" points="377.286,276 377.286,284.572 358,284.572 358,288.859 
			377.286,288.859 377.286,297.431 381.571,297.431 381.571,288.859 400.858,288.859 400.858,284.572 381.571,284.572 381.571,276 
					"/>
		<polygon clip-path="url(#SVGID_2_)" fill-rule="evenodd" clip-rule="evenodd" fill="#C01F3F" points="383.375,283.143 
			386.573,283.143 400.858,276 397.663,276 		"/>
		<polygon clip-path="url(#SVGID_2_)" fill="#C01F3F" points="358,277.597 369.092,283.143 372.286,283.143 358,276 		"/>
		<polygon clip-path="url(#SVGID_2_)" fill-rule="evenodd" clip-rule="evenodd" fill="#C01F3F" points="400.858,297.431 
			400.858,295.834 389.766,290.285 386.573,290.285 		"/>
		<polygon clip-path="url(#SVGID_2_)" fill="#C01F3F" points="372.286,290.285 358,297.431 361.194,297.431 375.479,290.285 		"/>
	</g>
</g>
</svg>
