<?xml version="1.0" encoding="utf-8"?>
<!-- Generator: Adobe Illustrator 16.0.0, SVG Export Plug-In . SVG Version: 6.00 Build 0)  -->
<!DOCTYPE svg PUBLIC "-//W3C//DTD SVG 1.1//EN" "http://www.w3.org/Graphics/SVG/1.1/DTD/svg11.dtd">
<svg version="1.1" id="name" xmlns="http://www.w3.org/2000/svg" xmlns:xlink="http://www.w3.org/1999/xlink" x="0px" y="0px"
	 width="85.712px" height="50px" viewBox="358 276 85.712 50" enable-background="new 358 276 85.712 50" xml:space="preserve">
<g id="tz">
	<g>
		<defs>
			<rect id="SVGID_1_" x="358" y="276" width="85.712" height="50"/>
		</defs>
		<clipPath id="SVGID_2_">
			<use xlink:href="#SVGID_1_"  overflow="visible"/>
		</clipPath>
		<polygon clip-path="url(#SVGID_2_)" fill="#43A14A" points="358,276 358,313.965 423.346,276 		"/>
		<polygon clip-path="url(#SVGID_2_)" fill="#4994D0" points="378.366,326 443.713,326 443.713,288.032 		"/>
		<polygon clip-path="url(#SVGID_2_)" fill="#EAC124" points="443.666,276 443.682,276.018 443.713,276 		"/>
		<polygon clip-path="url(#SVGID_2_)" fill="#EAC124" points="358,326 358.032,325.98 358,325.938 		"/>
		<polygon clip-path="url(#SVGID_2_)" fill="#EAC124" points="423.346,276 358,313.965 358,317.823 429.873,276 		"/>
		<polygon clip-path="url(#SVGID_2_)" fill="#EAC124" points="358,326 358,326 358.045,326 358.032,325.98 		"/>
		<polygon clip-path="url(#SVGID_2_)" fill="#EAC124" points="443.713,276 443.682,276.018 443.713,276.06 		"/>
		<polygon clip-path="url(#SVGID_2_)" fill="#EAC124" points="371.838,326 378.366,326 443.713,288.032 443.713,284.174 		"/>
		<polygon clip-path="url(#SVGID_2_)" fill="#010101" points="429.873,276 358,317.823 358,325.938 358.032,325.98 358.045,326 
			371.838,326 443.713,284.174 443.713,276.06 443.682,276.018 443.666,276 		"/>
	</g>
</g>
</svg>
