<?xml version="1.0" encoding="utf-8"?>
<!-- Generator: Adobe Illustrator 16.0.0, SVG Export Plug-In . SVG Version: 6.00 Build 0)  -->
<!DOCTYPE svg PUBLIC "-//W3C//DTD SVG 1.1//EN" "http://www.w3.org/Graphics/SVG/1.1/DTD/svg11.dtd">
<svg version="1.1" id="name" xmlns="http://www.w3.org/2000/svg" xmlns:xlink="http://www.w3.org/1999/xlink" x="0px" y="0px"
	 width="85.711px" height="50px" viewBox="358 276 85.711 50" enable-background="new 358 276 85.711 50" xml:space="preserve">
<g id="ug">
	<g>
		<defs>
			<rect id="SVGID_1_" x="358" y="276" width="85.711" height="50"/>
		</defs>
		<clipPath id="SVGID_2_">
			<use xlink:href="#SVGID_1_"  overflow="visible"/>
		</clipPath>
		<rect x="358" y="276" clip-path="url(#SVGID_2_)" fill="#010101" width="85.711" height="50"/>
		<rect x="358" y="284.336" clip-path="url(#SVGID_2_)" fill="#F7E727" width="85.711" height="8.33"/>
		<rect x="358" y="292.666" clip-path="url(#SVGID_2_)" fill="#CC3527" width="85.711" height="8.336"/>
		<rect x="358" y="309.334" clip-path="url(#SVGID_2_)" fill="#F7E727" width="85.711" height="8.334"/>
		<rect x="358" y="317.668" clip-path="url(#SVGID_2_)" fill="#CC3527" width="85.711" height="8.332"/>
		<g clip-path="url(#SVGID_2_)">
			<defs>
				<rect id="SVGID_3_" x="358" y="276" width="85.711" height="50"/>
			</defs>
			<clipPath id="SVGID_4_">
				<use xlink:href="#SVGID_3_"  overflow="visible"/>
			</clipPath>
			<path clip-path="url(#SVGID_4_)" fill="#FFFCFD" d="M408.641,301.002c0,4.299-3.486,7.784-7.786,7.784
				c-4.301,0-7.784-3.485-7.784-7.784s3.483-7.785,7.784-7.785C405.154,293.217,408.641,296.703,408.641,301.002L408.641,301.002z"
				/>
			<g clip-path="url(#SVGID_4_)">
				<path fill="#010101" d="M400.855,308.826c-4.312,0-7.824-3.512-7.824-7.824c0-4.316,3.512-7.827,7.824-7.827
					c4.317,0,7.825,3.511,7.825,7.827C408.68,305.314,405.172,308.826,400.855,308.826L400.855,308.826z M400.855,293.257
					c-4.27,0-7.741,3.475-7.741,7.745c0,4.27,3.472,7.742,7.741,7.742c4.27,0,7.743-3.473,7.743-7.742
					C408.598,296.731,405.125,293.257,400.855,293.257L400.855,293.257z"/>
			</g>
			<path clip-path="url(#SVGID_4_)" fill="#CC2B27" d="M399.48,295.033l-0.503-0.933c0.193-0.193,0.523-0.344,1.046-0.344
				c0,0.034-0.054,1.021-0.054,1.021L399.48,295.033z"/>
			<g clip-path="url(#SVGID_4_)">
				<path fill="#010101" d="M399.463,295.09l-0.522-0.969c0.241-0.281,0.613-0.406,1.082-0.406c0.043,0.076-0.015,1.062-0.015,1.062
					L399.463,295.09L399.463,295.09z M399.98,293.757c-0.403,0.04-0.755,0.156-0.974,0.375l0.491,0.847l0.448-0.238
					C399.929,294.729,399.98,293.794,399.98,293.757L399.98,293.757z"/>
			</g>
			<path clip-path="url(#SVGID_4_)" fill="#F7E727" d="M399.969,294.785l0.07-1.028c0,0,1.046-0.062,1.615,0.619
				c0.008-0.009-0.557,0.799-0.557,0.799L399.969,294.785z"/>
			<g clip-path="url(#SVGID_4_)">
				<path fill="#010101" d="M401.111,295.223l-1.157-0.397l0.049-1.11h0.104c0.247,0,1.085,0.045,1.578,0.636
					c0.02,0.034,0.02,0.034-0.555,0.847L401.111,295.223L401.111,295.223z M400.108,293.797l-0.1,0.991l1.072,0.339
					c0.09-0.131,0.518-0.739,0.537-0.771C401.15,293.842,400.344,293.797,400.108,293.797L400.108,293.797z"/>
			</g>
			<path clip-path="url(#SVGID_4_)" fill="#CC2B27" d="M401.113,295.166l0.516-0.799c0.344,0.364,0.484,0.623,0.539,1.012
				c0.008,0.009-0.814,0.205-0.814,0.196C401.354,295.564,401.123,295.175,401.113,295.166L401.113,295.166z"/>
			<g clip-path="url(#SVGID_4_)">
				<path fill="#010101" d="M401.355,295.615l-0.039-0.025c-0.016-0.029-0.217-0.373-0.236-0.398l0.512-0.847
					c0.422,0.37,0.562,0.631,0.619,1.028C402.186,295.447,401.361,295.615,401.355,295.615L401.355,295.615z M401.15,295.186
					c0.02,0.004,0.172,0.242,0.225,0.344c0.131-0.025,0.732-0.17,0.775-0.188c-0.076-0.335-0.209-0.585-0.553-0.943L401.15,295.186
					L401.15,295.186z"/>
			</g>
			<path clip-path="url(#SVGID_4_)" fill="#010101" d="M399.739,308.34c0,0,0.966-1.107,2.847-0.869
				c-0.285-0.46-1.199-0.406-1.199-0.406s-0.283-2.156-0.062-2.262c0.221-0.107,1.162,0.009,1.162,0.009
				c0.125,0,0.338-0.338,0.17-0.548c-0.17-0.214-0.664-1.029-0.463-1.191c0.205-0.158,1.312,0.089,1.312,0.089l-3.127-4.006
				c0,0-0.318-1.506,0.318-2.233c0.772-0.639,0.69-1.33,0.665-1.321c-0.105-0.698-1.167-1.207-1.886-0.56
				c-0.43,0.518-0.146,0.906-0.146,0.906s-1.116,0.301-1.159,0.494c-0.045,0.196,1.259-0.033,1.259-0.033l-0.125,0.895
				c0,0-2.534,2.307-0.594,4.301c0.02-0.011,0.062-0.09,0.062-0.09s0.682,0.844,1.4,1.027c0.674,0.693,0.611,0.586,0.611,0.586
				s0.134,1.091,0.008,1.304c-0.167-0.054-1.886-0.116-2.145-0.02c-0.23,0.073-1.116,0.028-0.895,1.475
				c0.167-0.393,0.32-0.736,0.32-0.736s-0.028,0.522,0.185,0.708c-0.033-0.549,0.205-0.921,0.205-0.921s0.045,0.603,0.176,0.69
				c0.134,0.088,0.134-0.975,0.869-0.887c0.736,0.088,1.268,0.062,1.268,0.062s0.25,2.083,0.168,2.279
				c-0.531-0.125-1.799,0.054-1.878,0.372c0.744-0.046,1.091,0.042,1.091,0.042S399.551,308.03,399.739,308.34L399.739,308.34z"/>
			<g clip-path="url(#SVGID_4_)">
				<path fill="#010101" d="M399.733,308.411l-0.028-0.048c-0.179-0.296,0.256-0.739,0.387-0.864
					c-0.074,0.012-0.287-0.017-0.628-0.017c-0.116,0-0.247,0.003-0.395,0.011c0.039-0.442,1.397-0.571,1.886-0.451
					c0.006-0.111-0.116-1.372-0.219-2.205c-0.079,0.037-0.594,0.022-1.232-0.057c-0.003,0-0.006,0-0.009,0
					c-0.48,0-0.619,0.421-0.702,0.673c-0.045,0.143-0.073,0.223-0.136,0.223c-0.15-0.092-0.208-0.475-0.228-0.656
					c-0.031,0.139-0.153,0.439-0.131,0.835c-0.292-0.162-0.267-0.685-0.267-0.708l-0.242,0.753
					c-0.278-1.315,0.409-1.442,0.739-1.505c0.045-0.006,0.079-0.015,0.107-0.023c0.114-0.043,0.486-0.051,0.776-0.051
					c0.576,0,1.281,0.037,1.395,0.07c0.04-0.136-0.017-0.863-0.06-1.238h-0.003c-0.017,0-0.131-0.097-0.6-0.58
					c-0.665-0.167-1.298-0.906-1.392-1.02l0.051-0.065c0.009,0.009,0.685,0.835,1.381,1.015c0.514,0.52,0.6,0.585,0.613,0.591
					c0.052,0.219,0.153,1.15,0.031,1.358c-0.238-0.015-1.963-0.074-2.165,0c-0.033,0.011-0.073,0.017-0.119,0.025
					c-0.329,0.062-0.94,0.173-0.753,1.4l0.242-0.744c0.079,0.022,0.057,0.522,0.25,0.693c-0.103-0.523,0.133-0.898,0.145-0.912
					c0.094,0.262,0.156,0.625,0.235,0.679c0-0.011,0.026-0.1,0.049-0.167c0.091-0.273,0.244-0.733,0.71-0.733
					c0.869,0.1,1.347,0.068,1.35,0.068c0.071,0.25,0.293,2.136,0.21,2.335c-0.156,0-0.301-0.014-0.469-0.014
					c-0.607,0-1.354,0.167-1.409,0.38c0.108-0.06,0.242-0.062,0.358-0.062c0.472,0,0.693,0.055,0.701,0.058
					c-0.13,0.198-0.474,0.573-0.411,0.81c0.213-0.21,1.176-1.043,2.838-0.836c-0.266-0.301-0.922-0.326-1.117-0.326l-0.127-0.037
					c-0.068-0.512-0.271-2.19-0.041-2.302c0.193-0.094,1.186,0.006,1.186,0.004c0.031,0,0.096-0.058,0.143-0.151
					c0.021-0.048,0.088-0.207-0.012-0.329c-0.117-0.146-0.551-0.818-0.516-1.125c0.006-0.055,0.027-0.094,0.061-0.123
					c0.199-0.15,1.312,0.071,1.346,0.08l-3.169-3.94c-0.021-0.079-0.321-1.554,0.321-2.287c0.702-0.579,0.69-1.202,0.661-1.271
					c-0.115-0.71-1.212-1.104-1.823-0.551c-0.398,0.478-0.151,0.836-0.14,0.85c-0.56,0.21-1.128,0.424-1.153,0.528l0,0
					c0,0,0.028,0.028,0.21,0.028c0.358,0,0.994-0.11,1.003-0.11l-0.076,0.94c-0.028,0.037-1.284,1.195-1.324,2.554
					c-0.02,0.625,0.222,1.202,0.719,1.71l0.003-0.008c0.012,0.062-0.009,0.07-0.015,0.076c-0.562-0.534-0.812-1.131-0.792-1.781
					c0.042-1.392,1.326-2.576,1.338-2.588l0.11-0.861c-0.034,0.055-0.616,0.154-0.966,0.154c-0.201,0-0.253-0.035-0.275-0.062
					c0.031-0.271,0.94-0.531,1.159-0.592c-0.062-0.028-0.262-0.414,0.137-0.895c0.673-0.611,1.846-0.168,1.963,0.58
					c0.037,0.094,0.057,0.75-0.679,1.357c-0.614,0.699-0.31,2.18-0.308,2.193l3.124,3.992c-0.049,0.062-0.678-0.077-1.066-0.077
					c-0.174,0-0.232,0.028-0.252,0.046c-0.062,0.314,0.309,0.932,0.465,1.127c0.088,0.111,0.098,0.268,0.023,0.418
					c-0.049,0.1-0.137,0.202-0.225,0.202c-0.006,0-0.443-0.054-0.789-0.054c-0.223,0-0.312,0.022-0.354,0.039
					c-0.119,0.057-0.051,1.196,0.086,2.219c0.309-0.039,0.955,0.003,1.189,0.39c-0.221,0.04-0.395,0.031-0.557,0.031
					c-1.497,0-2.284,0.881-2.292,0.89L399.733,308.411L399.733,308.411z"/>
			</g>
			<path clip-path="url(#SVGID_4_)" fill="#9AA39A" d="M400.038,296.973c0,0-1.844,2.035-1.049,3.589
				c0.043-0.216,0.022-0.353,0.051-0.344c-0.045-0.026,0.228,0.188,0.208,0.145c0.006-0.113-0.083-0.353-0.083-0.353
				c0.083,0.021,0.165,0.04,0.248,0.062c-0.049-0.091-0.097-0.182-0.146-0.27c0.116,0.012,0.236,0.025,0.355,0.04
				c0,0-0.125-0.333-0.085-0.333c0.042,0,0.292,0.023,0.292,0.023C399.304,298.59,399.798,297.809,400.038,296.973L400.038,296.973z
				"/>
			<g clip-path="url(#SVGID_4_)">
				<path fill="#9AA39A" d="M399.006,300.689l-0.055-0.108c-0.798-1.562,1.037-3.616,1.055-3.637
					c0.022,0.21-0.037,0.381-0.097,0.549c-0.233,0.659-0.452,1.284-0.043,2.02c-0.04,0.06-0.287,0.037-0.329,0.037
					c0.031,0.006,0.079,0.156,0.125,0.278l-0.398,0.015l0.185,0.21l-0.21,0.018c-0.006-0.006-0.006-0.009-0.006-0.009
					c-0.006,0,0.062,0.198,0.057,0.304c-0.088,0.045-0.283-0.116-0.283-0.119c0.051,0.122,0.045,0.213,0.022,0.324L399.006,300.689
					L399.006,300.689z M399.989,296.99c-0.134,0.25-1.603,2.02-1.02,3.429c0.006-0.048,0.008-0.085,0.008-0.119l0.052-0.122
					c0.06,0.031,0.201,0.139,0.228,0.15c-0.046-0.054-0.108-0.238-0.131-0.304l-0.028-0.074l0.326,0.083l-0.193-0.213l0.398-0.018
					c-0.165-0.264-0.14-0.299-0.131-0.315c0.085-0.017,0.335,0.003,0.335,0.003c-0.466-0.705-0.23-1.375-0.003-2.025
					C399.886,297.306,399.944,297.149,399.989,296.99L399.989,296.99z"/>
			</g>
			<path clip-path="url(#SVGID_4_)" fill="#9AA39A" d="M400.679,295.229c0,0,0.097,0.702-0.284,0.903
				c-0.062,0.046-0.301,0.125-0.264,0.268c0.042,0.192,0.15,0.159,0.298,0.125C400.83,296.453,401.291,295.601,400.679,295.229
				L400.679,295.229z"/>
			<g clip-path="url(#SVGID_4_)">
				<path fill="#9AA39A" d="M400.276,296.592c-0.1,0-0.159-0.059-0.188-0.184c-0.037-0.143,0.128-0.228,0.228-0.279
					c0.412-0.221,0.323-0.889,0.32-0.895c0.315,0.111,0.424,0.357,0.368,0.65c-0.06,0.324-0.322,0.637-0.566,0.68
					C400.367,296.581,400.319,296.592,400.276,296.592L400.276,296.592z M400.673,295.274c0.062,0.085,0.111,0.696-0.258,0.895
					c-0.165,0.088-0.265,0.147-0.245,0.219c0.025,0.11,0.065,0.122,0.105,0.122l0,0c0.034,0,0.074-0.012,0.125-0.022
					c0.233-0.043,0.466-0.329,0.52-0.616C400.95,295.723,400.952,295.453,400.673,295.274L400.673,295.274z"/>
			</g>
			<path clip-path="url(#SVGID_4_)" fill="#FFFFFF" d="M399.998,295.831c0,0.085-0.068,0.15-0.15,0.15
				c-0.086,0-0.151-0.065-0.151-0.15c0-0.083,0.065-0.15,0.151-0.15C399.929,295.681,399.998,295.748,399.998,295.831
				L399.998,295.831z"/>
			<path clip-path="url(#SVGID_4_)" fill="#CC2B27" d="M399.401,296.416c-0.097,0.08-0.611,0.611-0.105,0.807
				c0.523-0.142,0.381-0.238,0.497-0.354C399.795,296.629,399.532,296.566,399.401,296.416L399.401,296.416z"/>
			<g clip-path="url(#SVGID_4_)">
				<path fill="#010101" d="M399.295,297.269l-0.014-0.006c-0.143-0.057-0.225-0.142-0.242-0.253
					c-0.042-0.253,0.253-0.56,0.336-0.625c0.097,0.051,0.15,0.088,0.21,0.128c0.116,0.083,0.25,0.177,0.247,0.358l-0.057,0.107
					c-0.043,0.103-0.1,0.185-0.469,0.284L399.295,297.269L399.295,297.269z M399.37,296.444c-0.034,0.083-0.278,0.355-0.247,0.552
					c0.014,0.079,0.071,0.139,0.176,0.185c0.344-0.097,0.372-0.168,0.397-0.233c0.015-0.034,0.029-0.068,0.065-0.107
					c-0.008-0.108-0.107-0.18-0.224-0.259C399.477,296.541,399.415,296.498,399.37,296.444L399.37,296.444z"/>
			</g>
			<path clip-path="url(#SVGID_4_)" fill="#9AA39A" d="M400.517,301.445c-0.025,0.113-0.139,0.539,0.021,0.866
				c0.443-0.185,0.648-0.134,0.798-0.034C400.972,301.984,400.83,301.859,400.517,301.445L400.517,301.445z"/>
			<g clip-path="url(#SVGID_4_)">
				<path fill="#9AA39A" d="M400.517,302.365l-0.017-0.037c-0.159-0.32-0.062-0.721-0.028-0.872
					c0.006,0.006,0.008,0.009,0.014,0.012c0.031,0.145-0.048,0.5,0.071,0.79c0.312-0.125,0.529-0.15,0.716-0.062
					c-0.35-0.196-0.492-0.33-0.788-0.725c0.381,0.369,0.524,0.488,0.875,0.772c-0.139,0.009-0.223-0.015-0.326-0.015
					c-0.131,0-0.288,0.04-0.484,0.12L400.517,302.365L400.517,302.365z"/>
			</g>
			<path clip-path="url(#SVGID_4_)" fill="#FFFFFF" d="M401.281,303.456l0.029,0.992c0,0,0.344,0.062,0.502,0
				C401.973,304.386,401.805,303.755,401.281,303.456L401.281,303.456z"/>
			<g clip-path="url(#SVGID_4_)">
				<path fill="#FFFFFF" d="M401.611,304.52c-0.154,0-0.311-0.029-0.311-0.029l-0.062-1.034c0.484,0.205,0.691,0.662,0.674,0.89
					c-0.008,0.097-0.055,0.131-0.082,0.143C401.775,304.508,401.705,304.52,401.611,304.52L401.611,304.52z M401.393,304.426
					c0.1,0,0.32,0.02,0.406-0.018c0.045-0.272-0.148-0.693-0.539-0.918l0.09,0.94C401.355,304.428,401.373,304.426,401.393,304.426
					L401.393,304.426z"/>
			</g>
			<path clip-path="url(#SVGID_4_)" fill="#9AA39A" d="M403.791,303.578c0,0-0.637-1.539-2.271-1.932
				c-1.63-0.389-1.417-2.128-1.284-2.232c0.071-0.151,0.122-0.381,0.594-0.16c0.469,0.223,2.633,1.311,2.944,1.364
				C404.082,300.672,403.816,303.615,403.791,303.578L403.791,303.578z"/>
			<g clip-path="url(#SVGID_4_)">
				<path fill="#010101" d="M403.791,303.621l-0.037-0.025c-0.029-0.062-0.674-1.534-2.244-1.909
					c-0.924-0.222-1.249-0.853-1.356-1.344c-0.1-0.446-0.034-0.893,0.057-0.964c0.071-0.182,0.213-0.363,0.637-0.161l0.542,0.261
					c0.809,0.396,2.158,1.057,2.391,1.1c0.287,0.049,0.17,1.784,0.107,2.525C403.844,303.621,403.836,303.621,403.791,303.621
					L403.791,303.621z M400.509,299.203c-0.134,0-0.177,0.091-0.22,0.19c-0.07,0.091-0.161,0.503-0.042,0.98
					c0.11,0.448,0.423,1.025,1.284,1.233c1.363,0.326,2.049,1.46,2.238,1.835c0.061-0.515,0.203-2.461,0.018-2.759
					c-0.246-0.062-1.338-0.591-2.434-1.128l-0.541-0.265C400.688,299.231,400.585,299.203,400.509,299.203L400.509,299.203z"/>
			</g>
			<path clip-path="url(#SVGID_4_)" fill="#CC2B27" d="M402.238,301.639c-0.025,0.017,2.184,1.304,1.516,2.411
				c0.631-0.417,0.428-1.145,0.428-1.145s0.512,1.341-0.738,1.997c0.135,0.113,0.223,0.086,0.223,0.086l-0.211,0.213
				c0,0-0.1,0.162,0.744-0.248c-0.232,0.186-0.25,0.321-0.25,0.321s0.062,0.177,0.611-0.304c-0.441,0.48-0.541,0.728-0.541,0.719
				c1.197-0.105,3.805-3.997-0.822-5.15c0.246,0.255,0.213,0.221,0.213,0.221L402.238,301.639z"/>
			<g clip-path="url(#SVGID_4_)">
				<path fill="#010101" d="M403.947,305.738l0.037-0.071l0.035,0.02l-0.031-0.025c0.066-0.128,0.174-0.287,0.318-0.46
					c-0.115,0.102-0.219,0.145-0.291,0.145h-0.029l-0.076-0.057c0-0.037,0.025-0.176,0.264-0.367
					c-0.344,0.256-0.592,0.353-0.688,0.353l-0.068-0.094l0.182-0.185c-0.045,0.025-0.107,0-0.182-0.062
					c0.773-0.449,0.855-1.139,0.812-1.585c-0.023,0.238-0.137,0.525-0.455,0.735c0.199-0.48,0.16-1.222-1.465-2.341
					c-0.111-0.077-0.113-0.079-0.113-0.104l1.188-0.912l-0.219-0.16c2.5,0.543,2.766,1.896,2.709,2.648
					c-0.1,1.284-1.207,2.461-1.852,2.518L403.947,305.738L403.947,305.738z M404.535,304.939c-0.168,0.29-0.336,0.52-0.438,0.696
					c0.625-0.14,1.602-1.236,1.695-2.43c0.098-1.253-0.83-2.185-2.605-2.628c0.273,0.174,0.273,0.174,0.262,0.199l-1.148,0.863
					c0.018,0.006,0.035,0.018,0.055,0.031c1.35,0.932,1.832,1.739,1.436,2.398c0.539-0.449,0.352-1.146,0.35-1.154h0.002
					c0.002,0,0.008,0.004,0.012,0.006c0.014,0.009,0.027,0.031,0.039,0.065c0.139,0.29,0.361,1.378-0.73,1.952
					c0.088,0,0.148,0.012,0.178,0.012l-0.01,0.011l0.006-0.003c-0.002,0.003-0.006,0.009-0.008,0.012l-0.146,0.262
					c0.049-0.04,0.205-0.077,0.699-0.315c-0.17,0.238-0.189,0.36-0.189,0.363C404.072,305.264,404.211,305.224,404.535,304.939
					L404.535,304.939z"/>
			</g>
			<path clip-path="url(#SVGID_4_)" fill="#FFFFFF" d="M402.338,301.258c0.299,0.213,0.406,0.283,0.441,0.389
				c-0.275-0.062-0.523-0.043-0.523-0.043s-0.594-0.567-0.699-0.613c-0.082,0-0.543-0.293-0.543-0.293
				c-0.229-0.113-0.442-0.912,0.41-0.682c0.877,0.418,1.002,0.452,1.002,0.452c0.348,0.11,0.697,0.219,1.043,0.326
				c0.203,0.228,0.404,0.449,0.605,0.677c0,0-1.074-0.534-1.205-0.543c0.291,0.238,0.461,0.568,0.461,0.568
				C402.988,301.399,402.693,301.309,402.338,301.258L402.338,301.258z"/>
			<g clip-path="url(#SVGID_4_)">
				<path fill="#010101" d="M402.844,301.703l-0.074-0.017c-0.166-0.037-0.32-0.046-0.422-0.046l-0.119-0.008
					c-0.229-0.217-0.615-0.574-0.688-0.603l0,0c-0.074,0-0.438-0.228-0.549-0.296c-0.134-0.068-0.262-0.344-0.213-0.551
					c0.031-0.122,0.204-0.33,0.657-0.207c0.857,0.406,0.996,0.448,1.002,0.451l1.045,0.326l0.623,0.688
					c-0.463-0.14-1.15-0.466-1.238-0.472c0.324,0.167,0.49,0.491,0.5,0.506l0.045,0.085l-0.158-0.046
					c-0.305-0.085-0.574-0.164-0.893-0.213l-0.018-0.088c0.33,0.051,0.605,0.128,0.916,0.216c-0.053-0.06-0.199-0.293-0.418-0.469
					c0.162-0.065,1.139,0.415,1.25,0.472l-0.35-0.272l-0.305-0.339l-1.014-0.312c-0.014-0.006-0.148-0.042-1.018-0.457
					c-0.293-0.071-0.502-0.031-0.545,0.147c-0.039,0.171,0.065,0.406,0.174,0.46c0.215,0.14,0.475,0.287,0.521,0.29
					c0.125,0.049,0.668,0.563,0.73,0.622c0.137-0.011,0.27-0.008,0.41,0.018c-0.053-0.062-0.152-0.134-0.33-0.262l-0.004-0.017
					c0.324,0.142,0.418,0.213,0.455,0.321L402.844,301.703L402.844,301.703z"/>
			</g>
			<path clip-path="url(#SVGID_4_)" fill="#010101" d="M398.163,296.496c0,0,1.028-0.248,1.15-0.213L398.163,296.496z"/>
			<g clip-path="url(#SVGID_4_)">
				<path fill="#FFFFFF" d="M398.17,296.538l-0.02-0.082c0.176-0.043,1.037-0.25,1.173-0.213
					C399.222,296.3,398.594,296.434,398.17,296.538L398.17,296.538z"/>
			</g>
		</g>
	</g>
</g>
</svg>
