<?xml version="1.0" encoding="utf-8"?>
<!-- Generator: Adobe Illustrator 16.0.0, SVG Export Plug-In . SVG Version: 6.00 Build 0)  -->
<!DOCTYPE svg PUBLIC "-//W3C//DTD SVG 1.1//EN" "http://www.w3.org/Graphics/SVG/1.1/DTD/svg11.dtd">
<svg version="1.1" id="name" xmlns="http://www.w3.org/2000/svg" xmlns:xlink="http://www.w3.org/1999/xlink" x="0px" y="0px"
	 width="85.713px" height="50px" viewBox="358 276 85.713 50" enable-background="new 358 276 85.713 50" xml:space="preserve">
<g id="um">
	<g>
		<defs>
			<rect id="SVGID_1_" x="358" y="276" width="85.713" height="50"/>
		</defs>
		<clipPath id="SVGID_2_">
			<use xlink:href="#SVGID_1_"  overflow="visible"/>
		</clipPath>
		<rect x="358" y="322.153" clip-path="url(#SVGID_2_)" fill="#CB2027" width="85.713" height="3.847"/>
		<rect x="358" y="318.307" clip-path="url(#SVGID_2_)" fill="#FFFFFF" width="85.713" height="3.847"/>
		<rect x="358" y="314.463" clip-path="url(#SVGID_2_)" fill="#CB2027" width="85.713" height="3.844"/>
		<rect x="358" y="310.615" clip-path="url(#SVGID_2_)" fill="#FFFFFF" width="85.713" height="3.848"/>
		<rect x="358" y="306.77" clip-path="url(#SVGID_2_)" fill="#CB2027" width="85.713" height="3.846"/>
		<rect x="358" y="302.925" clip-path="url(#SVGID_2_)" fill="#FFFFFF" width="85.713" height="3.845"/>
		<rect x="358" y="299.078" clip-path="url(#SVGID_2_)" fill="#CB2027" width="85.713" height="3.847"/>
		<rect x="358" y="295.231" clip-path="url(#SVGID_2_)" fill="#FFFFFF" width="85.713" height="3.844"/>
		<rect x="358" y="291.385" clip-path="url(#SVGID_2_)" fill="#CB2027" width="85.713" height="3.847"/>
		<rect x="358" y="287.538" clip-path="url(#SVGID_2_)" fill="#FFFFFF" width="85.713" height="3.847"/>
		<rect x="358" y="283.691" clip-path="url(#SVGID_2_)" fill="#CB2027" width="85.713" height="3.847"/>
		<rect x="358" y="279.847" clip-path="url(#SVGID_2_)" fill="#FFFFFF" width="85.713" height="3.845"/>
		<rect x="358" y="276" clip-path="url(#SVGID_2_)" fill="#CB2027" width="85.713" height="3.847"/>
		<rect x="358" y="276" clip-path="url(#SVGID_2_)" fill="#2B3660" width="39.133" height="26.925"/>
		<polygon clip-path="url(#SVGID_2_)" fill="#FFFFFF" points="361.529,278.967 361.86,279.986 362.929,279.986 362.064,280.614 
			362.395,281.631 361.529,281 360.664,281.631 360.994,280.614 360.129,279.986 361.198,279.986 		"/>
		<polygon clip-path="url(#SVGID_2_)" fill="#FFFFFF" points="361.529,283.461 361.86,284.478 362.929,284.478 362.064,285.105 
			362.395,286.126 361.529,285.495 360.664,286.126 360.994,285.105 360.129,284.478 361.198,284.478 		"/>
		<polygon clip-path="url(#SVGID_2_)" fill="#FFFFFF" points="361.529,287.955 361.86,288.973 362.929,288.973 362.064,289.601 
			362.395,290.62 361.529,289.989 360.664,290.62 360.994,289.601 360.129,288.973 361.198,288.973 		"/>
		<polygon clip-path="url(#SVGID_2_)" fill="#FFFFFF" points="361.529,292.45 361.86,293.467 362.929,293.467 362.064,294.098 
			362.395,295.112 361.529,294.484 360.664,295.112 360.994,294.098 360.129,293.467 361.198,293.467 		"/>
		<polygon clip-path="url(#SVGID_2_)" fill="#FFFFFF" points="361.529,296.944 361.86,297.962 362.929,297.962 362.064,298.59 
			362.395,299.606 361.529,298.979 360.664,299.606 360.994,298.59 360.129,297.962 361.198,297.962 		"/>
		<polygon clip-path="url(#SVGID_2_)" fill="#FFFFFF" points="364.659,281.336 364.99,282.353 366.06,282.353 365.194,282.98 
			365.524,283.998 364.659,283.37 363.793,283.998 364.124,282.98 363.259,282.353 364.329,282.353 		"/>
		<polygon clip-path="url(#SVGID_2_)" fill="#FFFFFF" points="364.659,285.83 364.99,286.845 366.06,286.845 365.194,287.476 
			365.524,288.492 364.659,287.864 363.793,288.492 364.124,287.476 363.259,286.845 364.329,286.845 		"/>
		<polygon clip-path="url(#SVGID_2_)" fill="#FFFFFF" points="364.659,290.322 364.99,291.339 366.06,291.339 365.194,291.97 
			365.524,292.986 364.659,292.359 363.793,292.986 364.124,291.97 363.259,291.339 364.329,291.339 		"/>
		<polygon clip-path="url(#SVGID_2_)" fill="#FFFFFF" points="364.659,294.816 364.99,295.834 366.06,295.834 365.194,296.465 
			365.524,297.479 364.659,296.851 363.793,297.479 364.124,296.465 363.259,295.834 364.329,295.834 		"/>
		<polygon clip-path="url(#SVGID_2_)" fill="#FFFFFF" points="367.83,278.967 368.16,279.986 369.229,279.986 368.364,280.614 
			368.694,281.631 367.83,281 366.963,281.631 367.294,280.614 366.429,279.986 367.499,279.986 		"/>
		<polygon clip-path="url(#SVGID_2_)" fill="#FFFFFF" points="367.83,283.461 368.16,284.478 369.229,284.478 368.364,285.105 
			368.694,286.126 367.83,285.495 366.963,286.126 367.294,285.105 366.429,284.478 367.499,284.478 		"/>
		<polygon clip-path="url(#SVGID_2_)" fill="#FFFFFF" points="367.83,287.955 368.16,288.973 369.229,288.973 368.364,289.601 
			368.694,290.62 367.83,289.989 366.963,290.62 367.294,289.601 366.429,288.973 367.499,288.973 		"/>
		<polygon clip-path="url(#SVGID_2_)" fill="#FFFFFF" points="367.83,292.45 368.16,293.467 369.229,293.467 368.364,294.098 
			368.694,295.112 367.83,294.484 366.963,295.112 367.294,294.098 366.429,293.467 367.499,293.467 		"/>
		<polygon clip-path="url(#SVGID_2_)" fill="#FFFFFF" points="367.83,296.944 368.16,297.962 369.229,297.962 368.364,298.59 
			368.694,299.606 367.83,298.979 366.963,299.606 367.294,298.59 366.429,297.962 367.499,297.962 		"/>
		<polygon clip-path="url(#SVGID_2_)" fill="#FFFFFF" points="370.959,281.336 371.29,282.353 372.359,282.353 371.495,282.98 
			371.824,283.998 370.959,283.37 370.093,283.998 370.423,282.98 369.559,282.353 370.628,282.353 		"/>
		<polygon clip-path="url(#SVGID_2_)" fill="#FFFFFF" points="370.959,285.83 371.29,286.845 372.359,286.845 371.495,287.476 
			371.824,288.492 370.959,287.864 370.093,288.492 370.423,287.476 369.559,286.845 370.628,286.845 		"/>
		<polygon clip-path="url(#SVGID_2_)" fill="#FFFFFF" points="370.959,290.322 371.29,291.339 372.359,291.339 371.495,291.97 
			371.824,292.986 370.959,292.359 370.093,292.986 370.423,291.97 369.559,291.339 370.628,291.339 		"/>
		<polygon clip-path="url(#SVGID_2_)" fill="#FFFFFF" points="370.959,294.816 371.29,295.834 372.359,295.834 371.495,296.465 
			371.824,297.479 370.959,296.851 370.093,297.479 370.423,296.465 369.559,295.834 370.628,295.834 		"/>
		<polygon clip-path="url(#SVGID_2_)" fill="#FFFFFF" points="374.129,278.967 374.46,279.986 375.529,279.986 374.664,280.614 
			374.994,281.631 374.129,281 373.263,281.631 373.594,280.614 372.729,279.986 373.798,279.986 		"/>
		<polygon clip-path="url(#SVGID_2_)" fill="#FFFFFF" points="374.129,283.461 374.46,284.478 375.529,284.478 374.664,285.105 
			374.994,286.126 374.129,285.495 373.263,286.126 373.594,285.105 372.729,284.478 373.798,284.478 		"/>
		<polygon clip-path="url(#SVGID_2_)" fill="#FFFFFF" points="374.129,287.955 374.46,288.973 375.529,288.973 374.664,289.601 
			374.994,290.62 374.129,289.989 373.263,290.62 373.594,289.601 372.729,288.973 373.798,288.973 		"/>
		<polygon clip-path="url(#SVGID_2_)" fill="#FFFFFF" points="374.129,292.45 374.46,293.467 375.529,293.467 374.664,294.098 
			374.994,295.112 374.129,294.484 373.263,295.112 373.594,294.098 372.729,293.467 373.798,293.467 		"/>
		<polygon clip-path="url(#SVGID_2_)" fill="#FFFFFF" points="374.129,296.944 374.46,297.962 375.529,297.962 374.664,298.59 
			374.994,299.606 374.129,298.979 373.263,299.606 373.594,298.59 372.729,297.962 373.798,297.962 		"/>
		<polygon clip-path="url(#SVGID_2_)" fill="#FFFFFF" points="377.259,281.336 377.59,282.353 378.659,282.353 377.793,282.98 
			378.124,283.998 377.259,283.37 376.394,283.998 376.723,282.98 375.859,282.353 376.928,282.353 		"/>
		<polygon clip-path="url(#SVGID_2_)" fill="#FFFFFF" points="377.259,285.83 377.59,286.845 378.659,286.845 377.793,287.476 
			378.124,288.492 377.259,287.864 376.394,288.492 376.723,287.476 375.859,286.845 376.928,286.845 		"/>
		<polygon clip-path="url(#SVGID_2_)" fill="#FFFFFF" points="377.259,290.322 377.59,291.339 378.659,291.339 377.793,291.97 
			378.124,292.986 377.259,292.359 376.394,292.986 376.723,291.97 375.859,291.339 376.928,291.339 		"/>
		<polygon clip-path="url(#SVGID_2_)" fill="#FFFFFF" points="377.259,294.816 377.59,295.834 378.659,295.834 377.793,296.465 
			378.124,297.479 377.259,296.851 376.394,297.479 376.723,296.465 375.859,295.834 376.928,295.834 		"/>
		<polygon clip-path="url(#SVGID_2_)" fill="#FFFFFF" points="380.429,278.967 380.76,279.986 381.83,279.986 380.964,280.614 
			381.293,281.631 380.429,281 379.563,281.631 379.895,280.614 379.029,279.986 380.098,279.986 		"/>
		<polygon clip-path="url(#SVGID_2_)" fill="#FFFFFF" points="380.429,283.461 380.76,284.478 381.83,284.478 380.964,285.105 
			381.293,286.126 380.429,285.495 379.563,286.126 379.895,285.105 379.029,284.478 380.098,284.478 		"/>
		<polygon clip-path="url(#SVGID_2_)" fill="#FFFFFF" points="380.429,287.955 380.76,288.973 381.83,288.973 380.964,289.601 
			381.293,290.62 380.429,289.989 379.563,290.62 379.895,289.601 379.029,288.973 380.098,288.973 		"/>
		<polygon clip-path="url(#SVGID_2_)" fill="#FFFFFF" points="380.429,292.45 380.76,293.467 381.83,293.467 380.964,294.098 
			381.293,295.112 380.429,294.484 379.563,295.112 379.895,294.098 379.029,293.467 380.098,293.467 		"/>
		<polygon clip-path="url(#SVGID_2_)" fill="#FFFFFF" points="380.429,296.944 380.76,297.962 381.83,297.962 380.964,298.59 
			381.293,299.606 380.429,298.979 379.563,299.606 379.895,298.59 379.029,297.962 380.098,297.962 		"/>
		<polygon clip-path="url(#SVGID_2_)" fill="#FFFFFF" points="383.559,281.336 383.889,282.353 384.958,282.353 384.094,282.98 
			384.424,283.998 383.559,283.37 382.693,283.998 383.024,282.98 382.159,282.353 383.228,282.353 		"/>
		<polygon clip-path="url(#SVGID_2_)" fill="#FFFFFF" points="383.559,285.83 383.889,286.845 384.958,286.845 384.094,287.476 
			384.424,288.492 383.559,287.864 382.693,288.492 383.024,287.476 382.159,286.845 383.228,286.845 		"/>
		<polygon clip-path="url(#SVGID_2_)" fill="#FFFFFF" points="383.559,290.322 383.889,291.339 384.958,291.339 384.094,291.97 
			384.424,292.986 383.559,292.359 382.693,292.986 383.024,291.97 382.159,291.339 383.228,291.339 		"/>
		<polygon clip-path="url(#SVGID_2_)" fill="#FFFFFF" points="383.559,294.816 383.889,295.834 384.958,295.834 384.094,296.465 
			384.424,297.479 383.559,296.851 382.693,297.479 383.024,296.465 382.159,295.834 383.228,295.834 		"/>
		<polygon clip-path="url(#SVGID_2_)" fill="#FFFFFF" points="386.73,278.967 387.059,279.986 388.13,279.986 387.264,280.614 
			387.593,281.631 386.73,281 385.864,281.631 386.194,280.614 385.329,279.986 386.398,279.986 		"/>
		<polygon clip-path="url(#SVGID_2_)" fill="#FFFFFF" points="386.73,283.461 387.059,284.478 388.13,284.478 387.264,285.105 
			387.593,286.126 386.73,285.495 385.864,286.126 386.194,285.105 385.329,284.478 386.398,284.478 		"/>
		<polygon clip-path="url(#SVGID_2_)" fill="#FFFFFF" points="386.73,287.955 387.059,288.973 388.13,288.973 387.264,289.601 
			387.593,290.62 386.73,289.989 385.864,290.62 386.194,289.601 385.329,288.973 386.398,288.973 		"/>
		<polygon clip-path="url(#SVGID_2_)" fill="#FFFFFF" points="386.73,292.45 387.059,293.467 388.13,293.467 387.264,294.098 
			387.593,295.112 386.73,294.484 385.864,295.112 386.194,294.098 385.329,293.467 386.398,293.467 		"/>
		<polygon clip-path="url(#SVGID_2_)" fill="#FFFFFF" points="386.73,296.944 387.059,297.962 388.13,297.962 387.264,298.59 
			387.593,299.606 386.73,298.979 385.864,299.606 386.194,298.59 385.329,297.962 386.398,297.962 		"/>
		<polygon clip-path="url(#SVGID_2_)" fill="#FFFFFF" points="389.858,281.336 390.19,282.353 391.258,282.353 390.395,282.98 
			390.724,283.998 389.858,283.37 388.994,283.998 389.324,282.98 388.458,282.353 389.528,282.353 		"/>
		<polygon clip-path="url(#SVGID_2_)" fill="#FFFFFF" points="389.858,285.83 390.19,286.845 391.258,286.845 390.395,287.476 
			390.724,288.492 389.858,287.864 388.994,288.492 389.324,287.476 388.458,286.845 389.528,286.845 		"/>
		<polygon clip-path="url(#SVGID_2_)" fill="#FFFFFF" points="389.858,290.322 390.19,291.339 391.258,291.339 390.395,291.97 
			390.724,292.986 389.858,292.359 388.994,292.986 389.324,291.97 388.458,291.339 389.528,291.339 		"/>
		<polygon clip-path="url(#SVGID_2_)" fill="#FFFFFF" points="389.858,294.816 390.19,295.834 391.258,295.834 390.395,296.465 
			390.724,297.479 389.858,296.851 388.994,297.479 389.324,296.465 388.458,295.834 389.528,295.834 		"/>
		<polygon clip-path="url(#SVGID_2_)" fill="#FFFFFF" points="393.028,278.967 393.359,279.986 394.429,279.986 393.564,280.614 
			393.895,281.631 393.028,281 392.162,281.631 392.495,280.614 391.627,279.986 392.699,279.986 		"/>
		<polygon clip-path="url(#SVGID_2_)" fill="#FFFFFF" points="393.028,283.461 393.359,284.478 394.429,284.478 393.564,285.105 
			393.895,286.126 393.028,285.495 392.162,286.126 392.495,285.105 391.627,284.478 392.699,284.478 		"/>
		<polygon clip-path="url(#SVGID_2_)" fill="#FFFFFF" points="393.028,287.955 393.359,288.973 394.429,288.973 393.564,289.601 
			393.895,290.62 393.028,289.989 392.162,290.62 392.495,289.601 391.627,288.973 392.699,288.973 		"/>
		<polygon clip-path="url(#SVGID_2_)" fill="#FFFFFF" points="393.028,292.45 393.359,293.467 394.429,293.467 393.564,294.098 
			393.895,295.112 393.028,294.484 392.162,295.112 392.495,294.098 391.627,293.467 392.699,293.467 		"/>
		<polygon clip-path="url(#SVGID_2_)" fill="#FFFFFF" points="393.028,296.944 393.359,297.962 394.429,297.962 393.564,298.59 
			393.895,299.606 393.028,298.979 392.162,299.606 392.495,298.59 391.627,297.962 392.699,297.962 		"/>
	</g>
</g>
</svg>
