<?xml version="1.0" encoding="utf-8"?>
<!-- Generator: Adobe Illustrator 16.0.0, SVG Export Plug-In . SVG Version: 6.00 Build 0)  -->
<!DOCTYPE svg PUBLIC "-//W3C//DTD SVG 1.1//EN" "http://www.w3.org/Graphics/SVG/1.1/DTD/svg11.dtd">
<svg version="1.1" id="name" xmlns="http://www.w3.org/2000/svg" xmlns:xlink="http://www.w3.org/1999/xlink" x="0px" y="0px"
	 width="85.711px" height="50px" viewBox="358 276 85.711 50" enable-background="new 358 276 85.711 50" xml:space="preserve">
<g id="uy">
	<g>
		<defs>
			<rect id="SVGID_1_" x="358" y="276" width="85.711" height="50"/>
		</defs>
		<clipPath id="SVGID_2_">
			<use xlink:href="#SVGID_1_"  overflow="visible"/>
		</clipPath>
		<rect x="358" y="276" clip-path="url(#SVGID_2_)" fill="#FFFFFF" width="85.711" height="50"/>
		<path clip-path="url(#SVGID_2_)" fill="#4074B7" d="M358,320.445h85.711v-5.557H358V320.445z M358,309.334h85.711v-5.557H358
			V309.334z M385.786,298.223h57.925v-5.557h-57.925V298.223z M385.786,287.111h57.925v-5.554h-57.925V287.111z"/>
		<g clip-path="url(#SVGID_2_)">
			<defs>
				<rect id="SVGID_3_" x="358" y="276" width="85.711" height="50"/>
			</defs>
			<clipPath id="SVGID_4_">
				<use xlink:href="#SVGID_3_"  overflow="visible"/>
			</clipPath>
			<path clip-path="url(#SVGID_4_)" fill-rule="evenodd" clip-rule="evenodd" fill="#EAC124" d="M371.933,289.93l0.242,4.105
				c-3.785,2.738-1.449,4.35-4.188,5.233c1.853-1.85-0.564-1.85,1.53-6.04"/>
			<path clip-path="url(#SVGID_4_)" fill="#2A2D2F" d="M372.013,289.93l0.242,4.105h-0.161l-0.322-4.105H372.013z M372.254,294.035
				L372.254,294.035v0.082l-0.08-0.082H372.254z M372.254,294.117c-2.012,1.449-2.254,2.574-2.497,3.381h-0.242
				c0.242-0.886,0.565-2.094,2.578-3.545L372.254,294.117z M369.758,297.498c-0.242,0.887-0.402,1.449-1.691,1.853l-0.081-0.161
				c1.208-0.404,1.37-0.967,1.53-1.691H369.758z M368.067,299.351l-0.403,0.159l0.241-0.241h0.081L368.067,299.351z
				 M367.905,299.269c0.806-0.884,0.806-1.366,0.645-2.012h0.242c0.081,0.646,0.161,1.208-0.725,2.094L367.905,299.269z
				 M368.55,297.257c-0.08-0.807-0.241-1.853,0.886-4.028l0.161,0.082c-1.047,2.174-0.966,3.14-0.805,3.946H368.55z"/>
			<path clip-path="url(#SVGID_4_)" fill="#2A2D2F" d="M370.645,293.069c-0.967,1.69-1.209,2.98-1.289,4.025l-0.241-0.079
				c0.16-0.966,0.401-2.336,1.369-4.029L370.645,293.069z M369.356,297.095c-0.162,1.049-0.323,1.853-1.289,2.256l-0.081-0.161
				c0.886-0.404,0.967-1.129,1.128-2.174L369.356,297.095z"/>
			<path clip-path="url(#SVGID_4_)" fill-rule="evenodd" clip-rule="evenodd" fill="#EAC124" d="M371.933,289.93l-0.322-4.188
				c3.785-2.736,1.45-4.35,4.188-5.233c-1.772,1.935,0.564,1.935-1.529,6.04"/>
			<path clip-path="url(#SVGID_4_)" fill="#2A2D2F" d="M371.771,289.93l-0.242-4.105l0.161-0.082l0.322,4.188H371.771z
				 M371.53,285.824v-0.082h0.081L371.53,285.824z M371.53,285.742c2.014-1.449,2.336-2.574,2.497-3.461l0.243,0.08
				c-0.243,0.887-0.565,2.015-2.579,3.463L371.53,285.742z M374.026,282.281c0.243-0.807,0.404-1.451,1.692-1.854l0.08,0.161
				c-1.207,0.404-1.368,0.97-1.529,1.773L374.026,282.281z M375.718,280.427l0.403-0.08l-0.242,0.241l-0.081-0.079L375.718,280.427z
				 M375.879,280.588c-0.805,0.887-0.805,1.291-0.644,1.936l-0.242,0.079c-0.081-0.724-0.161-1.207,0.725-2.176L375.879,280.588z
				 M375.235,282.523c0.08,0.804,0.242,1.853-0.886,4.105l-0.161-0.08c1.047-2.173,0.966-3.222,0.805-3.946L375.235,282.523z"/>
			<path clip-path="url(#SVGID_4_)" fill="#2A2D2F" d="M373.142,286.708c0.966-1.69,1.208-2.978,1.369-3.943h0.161
				c-0.161,1.046-0.402,2.335-1.369,4.026L373.142,286.708z M374.511,282.765c0.161-1.128,0.242-1.855,1.208-2.338l0.08,0.161
				c-0.885,0.404-0.966,1.131-1.127,2.177H374.511z"/>
			<path clip-path="url(#SVGID_4_)" fill-rule="evenodd" clip-rule="evenodd" fill="#EAC124" d="M371.933,289.93l-4.188,0.242
				c-2.738-3.785-4.35-1.449-5.234-4.188c1.933,1.853,1.853-0.482,6.04,1.531"/>
			<path clip-path="url(#SVGID_4_)" fill="#2A2D2F" d="M371.933,290.01l-4.188,0.32v-0.241l4.108-0.241L371.933,290.01z
				 M367.745,290.33L367.745,290.33l-0.081-0.079l0.081-0.079V290.33z M367.664,290.251c-1.369-2.012-2.497-2.253-3.382-2.494
				v-0.162c0.966,0.241,2.094,0.483,3.543,2.577L367.664,290.251z M364.282,287.757c-0.806-0.242-1.45-0.403-1.853-1.69l0.161-0.083
				c0.403,1.208,0.966,1.37,1.692,1.611V287.757z M362.429,286.066l-0.161-0.324l0.322,0.241h-0.08L362.429,286.066z
				 M362.59,285.983c0.886,0.808,1.288,0.725,1.934,0.646l0.08,0.162c-0.726,0.079-1.209,0.158-2.175-0.725L362.59,285.983z
				 M364.524,286.629c0.805-0.162,1.853-0.321,4.107,0.804l-0.161,0.162c-2.175-1.046-3.142-0.887-3.866-0.804L364.524,286.629z"/>
			<path clip-path="url(#SVGID_4_)" fill="#2A2D2F" d="M368.711,288.723c-1.691-1.049-2.98-1.208-3.946-1.369v-0.242
				c1.046,0.162,2.335,0.403,4.027,1.449L368.711,288.723z M364.765,287.354c-1.128-0.162-1.853-0.321-2.336-1.287l0.161-0.083
				c0.403,0.887,1.127,1.049,2.175,1.128V287.354z"/>
			<path clip-path="url(#SVGID_4_)" fill-rule="evenodd" clip-rule="evenodd" fill="#EAC124" d="M371.933,289.93l4.107-0.324
				c2.74,3.785,4.35,1.532,5.236,4.188c-1.933-1.772-1.853,0.565-6.041-1.531"/>
			<path clip-path="url(#SVGID_4_)" fill="#2A2D2F" d="M371.853,289.848l4.188-0.321v0.162l-4.107,0.321L371.853,289.848z
				 M376.04,289.526L376.04,289.526h0.081l-0.081,0.079V289.526z M376.121,289.526c1.37,2.012,2.498,2.335,3.383,2.577v0.159
				c-0.966-0.241-2.095-0.562-3.544-2.574L376.121,289.526z M379.504,292.104c0.805,0.159,1.449,0.32,1.853,1.69h-0.162
				c-0.402-1.208-0.966-1.37-1.69-1.531V292.104z M381.357,293.794l0.16,0.323l-0.322-0.241l0.081-0.082H381.357z M381.195,293.876
				c-0.805-0.807-1.289-0.728-1.933-0.647l-0.081-0.159c0.725-0.162,1.209-0.241,2.176,0.642L381.195,293.876z M379.262,293.229
				c-0.805,0.082-1.853,0.241-4.027-0.884l0.08-0.162c2.175,1.128,3.142,0.966,3.866,0.887L379.262,293.229z"/>
			<path clip-path="url(#SVGID_4_)" fill="#2A2D2F" d="M375.074,291.138c1.692,0.966,2.98,1.207,4.027,1.366l-0.08,0.162
				c-0.967-0.162-2.336-0.321-4.027-1.369L375.074,291.138z M379.101,292.504c1.047,0.162,1.772,0.241,2.256,1.29l-0.162,0.082
				c-0.402-0.969-1.128-1.048-2.174-1.21L379.101,292.504z"/>
			<path clip-path="url(#SVGID_4_)" fill-rule="evenodd" clip-rule="evenodd" fill="#EAC124" d="M371.933,289.93l-2.738,3.14
				c-4.67-0.807-4.188,2.015-6.684,0.725c2.657-0.083,0.966-1.69,5.315-3.222"/>
			<path clip-path="url(#SVGID_4_)" fill="#2A2D2F" d="M371.933,289.93l-2.658,3.14l-0.16-0.083l2.738-3.139L371.933,289.93z
				 M369.275,293.069l-0.081,0.079v-0.079H369.275z M369.194,293.148c-2.416-0.403-3.463,0.162-4.188,0.646l-0.161-0.159
				c0.805-0.486,1.852-1.131,4.349-0.728V293.148z M365.007,293.794c-0.725,0.403-1.289,0.725-2.578,0.082l0.081-0.165
				c1.208,0.566,1.691,0.324,2.335-0.076L365.007,293.794z M362.429,293.876l-0.322-0.165h0.403v0.083L362.429,293.876z
				 M362.51,293.711c1.208-0.076,1.45-0.4,1.853-0.966l0.161,0.162c-0.403,0.562-0.726,0.969-2.014,0.969V293.711z M364.363,292.745
				c0.483-0.642,1.127-1.448,3.462-2.253l0.08,0.162c-2.335,0.805-2.979,1.608-3.381,2.253L364.363,292.745z"/>
			<path clip-path="url(#SVGID_4_)" fill="#2A2D2F" d="M368.792,291.297c-1.933,0.482-2.98,1.289-3.785,1.852l-0.081-0.162
				c0.806-0.562,1.853-1.366,3.786-1.849L368.792,291.297z M365.007,293.148c-0.886,0.646-1.45,1.129-2.497,0.728v-0.165
				c0.966,0.324,1.529-0.076,2.416-0.725L365.007,293.148z"/>
			<path clip-path="url(#SVGID_4_)" fill-rule="evenodd" clip-rule="evenodd" fill="#EAC124" d="M371.933,289.93l2.659-3.139
				c4.671,0.724,4.188-2.095,6.685-0.808c-2.657,0.083-0.967,1.773-5.316,3.222"/>
			<path clip-path="url(#SVGID_4_)" fill="#2A2D2F" d="M371.853,289.848l2.658-3.14l0.161,0.162l-2.739,3.06L371.853,289.848z
				 M374.511,286.708h0.081v0.083L374.511,286.708z M374.591,286.708c2.416,0.403,3.463-0.241,4.188-0.642l0.16,0.158
				c-0.805,0.483-1.852,1.049-4.349,0.646V286.708z M378.78,286.066c0.805-0.483,1.287-0.725,2.577-0.162l-0.081,0.162
				c-1.209-0.565-1.691-0.242-2.336,0.158L378.78,286.066z M381.357,285.904l0.321,0.162l-0.402,0.079v-0.162L381.357,285.904z
				 M381.276,286.146c-1.209,0-1.45,0.403-1.853,0.887l-0.161-0.083c0.483-0.562,0.725-0.966,2.014-1.045V286.146z M379.423,287.032
				c-0.483,0.642-1.127,1.448-3.463,2.253l-0.081-0.162c2.336-0.725,2.981-1.608,3.383-2.174L379.423,287.032z"/>
			<path clip-path="url(#SVGID_4_)" fill="#2A2D2F" d="M374.994,288.48c1.933-0.402,2.979-1.207,3.786-1.852l0.08,0.162
				c-0.806,0.642-1.853,1.448-3.786,1.932L374.994,288.48z M378.78,286.629c0.885-0.646,1.529-1.046,2.496-0.725v0.162
				c-0.967-0.324-1.53,0.158-2.416,0.725L378.78,286.629z"/>
			<path clip-path="url(#SVGID_4_)" fill-rule="evenodd" clip-rule="evenodd" fill="#EAC124" d="M371.933,289.93l-3.141-2.738
				c0.724-4.668-2.094-4.186-0.806-6.683c0.081,2.659,1.771,0.969,3.222,5.315"/>
			<path clip-path="url(#SVGID_4_)" fill="#2A2D2F" d="M371.853,290.01l-3.141-2.736l0.161-0.162l3.06,2.736L371.853,290.01z
				 M368.711,287.273L368.711,287.273v-0.082h0.081L368.711,287.273z M368.711,287.191c0.322-2.415-0.241-3.461-0.644-4.186
				l0.161-0.079c0.403,0.804,1.046,1.77,0.644,4.265H368.711z M368.067,283.006c-0.484-0.725-0.806-1.287-0.162-2.497l0.162,0.079
				c-0.564,1.131-0.242,1.614,0.161,2.339L368.067,283.006z M367.905,280.509l0.162-0.323v0.323h-0.081H367.905z M368.067,280.509
				c0.081,1.21,0.403,1.452,0.966,1.853l-0.08,0.162c-0.563-0.403-0.967-0.725-1.048-2.015H368.067z M369.033,282.361
				c0.645,0.482,1.451,1.128,2.255,3.463l-0.161,0.08c-0.806-2.336-1.612-2.898-2.175-3.381L369.033,282.361z"/>
			<path clip-path="url(#SVGID_4_)" fill="#2A2D2F" d="M370.484,286.791c-0.403-1.933-1.209-2.98-1.853-3.785l0.161-0.079
				c0.644,0.804,1.45,1.85,1.933,3.864H370.484z M368.631,283.006c-0.645-0.886-1.048-1.448-0.726-2.497h0.162
				c-0.323,0.966,0.081,1.531,0.725,2.418L368.631,283.006z"/>
			<path clip-path="url(#SVGID_4_)" fill-rule="evenodd" clip-rule="evenodd" fill="#EAC124" d="M371.933,289.93l3.061,2.656
				c-0.724,4.671,2.094,4.188,0.805,6.683c-0.08-2.577-1.772-0.884-3.221-5.315"/>
			<path clip-path="url(#SVGID_4_)" fill="#2A2D2F" d="M371.933,289.848l3.142,2.656l-0.081,0.162l-3.141-2.656L371.933,289.848z
				 M375.074,292.504l0.08,0.082l-0.08,0.08l-0.081-0.08L375.074,292.504z M375.074,292.666c-0.322,2.418,0.241,3.384,0.644,4.188
				l-0.161,0.08c-0.403-0.805-1.046-1.85-0.644-4.348L375.074,292.666z M375.718,296.854c0.483,0.725,0.806,1.29,0.161,2.497
				l-0.161-0.082c0.563-1.125,0.242-1.69-0.161-2.335L375.718,296.854z M375.879,299.351l-0.161,0.321v-0.403h0.08L375.879,299.351z
				 M375.718,299.269c-0.081-1.125-0.403-1.449-0.966-1.85l0.08-0.082c0.563,0.403,0.966,0.645,1.046,1.932H375.718z
				 M374.752,297.419c-0.645-0.403-1.45-1.048-2.255-3.466h0.161c0.805,2.256,1.611,2.9,2.174,3.384L374.752,297.419z"/>
			<path clip-path="url(#SVGID_4_)" fill="#2A2D2F" d="M373.302,292.986c0.484,1.936,1.208,2.98,1.852,3.787l-0.161,0.16
				c-0.644-0.884-1.45-1.933-1.852-3.864L373.302,292.986z M375.154,296.773c0.644,0.887,1.047,1.529,0.725,2.577l-0.161-0.082
				c0.322-0.966-0.081-1.528-0.725-2.335L375.154,296.773z"/>
			<polyline clip-path="url(#SVGID_4_)" fill-rule="evenodd" clip-rule="evenodd" fill="#EAC124" points="371.933,289.93 
				373.705,289.93 371.933,300.075 370.081,289.93 371.933,289.93 371.933,300.075 			"/>
			<path clip-path="url(#SVGID_4_)" fill="#2A2D2F" d="M371.933,289.848h1.772v0.162h-1.772V289.848z M373.705,289.848h0.161v0.082
				h-0.161V289.848z M373.866,289.93l-1.853,10.146h-0.241l1.853-10.146H373.866z M372.013,300.075l-0.08,0.483l-0.161-0.483h0.161
				H372.013z M371.771,300.075l-1.851-10.146h0.242l1.851,10.146H371.771z M369.92,289.848h0.161v0.082h-0.161V289.848z
				 M370.081,289.848h1.852v0.162h-1.852V289.848z M371.933,289.848h0.08v0.082h-0.08V289.848z M372.013,300.075h-0.241V289.93
				h0.241V300.075z"/>
			<polyline clip-path="url(#SVGID_4_)" fill-rule="evenodd" clip-rule="evenodd" fill="#EAC124" points="371.933,289.93 
				370.081,289.93 371.933,279.702 373.705,289.93 371.933,289.93 371.933,279.702 			"/>
			<path clip-path="url(#SVGID_4_)" fill="#2A2D2F" d="M371.933,290.01h-1.852v-0.162h1.852V290.01z M370.081,290.01h-0.161v-0.08
				h0.161V290.01z M369.92,289.93l1.851-10.228l0.241,0.082l-1.851,10.146H369.92z M371.771,279.702l0.161-0.483l0.08,0.483h-0.08
				H371.771z M372.013,279.702l1.853,10.228h-0.241l-1.853-10.146L372.013,279.702z M373.866,290.01h-0.161v-0.08h0.161V290.01z
				 M373.705,290.01h-1.772v-0.162h1.772V290.01z M371.933,290.01h-0.161v-0.08h0.161V290.01z M371.771,279.702h0.241v10.228h-0.241
				V279.702z"/>
			<polyline clip-path="url(#SVGID_4_)" fill-rule="evenodd" clip-rule="evenodd" fill="#EAC124" points="371.933,289.93 
				371.933,291.779 361.704,289.93 371.933,288.078 371.933,289.93 361.704,289.93 			"/>
			<path clip-path="url(#SVGID_4_)" fill="#2A2D2F" d="M372.013,291.779h-0.241v-1.85h0.241V291.779z M372.013,291.779v0.082h-0.16
				l0.08-0.082H372.013z M371.853,291.861l-10.148-1.852l0.082-0.162l10.147,1.853L371.853,291.861z M361.704,290.01l-0.483-0.08
				l0.483-0.082v0.082V290.01z M361.704,289.848l10.148-1.85l0.08,0.159l-10.147,1.853L361.704,289.848z M371.853,287.998
				l0.16-0.082v0.162h-0.08L371.853,287.998z M372.013,289.93h-0.241v-1.852h0.241V289.93z M372.013,290.01h-0.08v-0.08h0.08V290.01
				z M371.933,290.01h-10.229v-0.162h10.229V290.01z"/>
			<polyline clip-path="url(#SVGID_4_)" fill-rule="evenodd" clip-rule="evenodd" fill="#EAC124" points="371.933,289.93 
				371.933,288.078 382.081,289.93 371.933,291.779 371.933,289.93 382.081,289.93 			"/>
			<path clip-path="url(#SVGID_4_)" fill="#2A2D2F" d="M371.771,288.078h0.241v1.852h-0.241V288.078z M371.771,288.078v-0.162
				l0.161,0.082v0.08H371.771z M371.933,287.998l10.148,1.85L382,290.01l-10.148-1.853L371.933,287.998z M382.081,289.848
				l0.484,0.082l-0.484,0.08v-0.08V289.848z M382.081,290.01l-10.148,1.852l-0.08-0.161L382,289.848L382.081,290.01z
				 M371.933,291.861h-0.161v-0.082h0.161V291.861z M371.771,289.93h0.241v1.85h-0.241V289.93z M371.771,289.848h0.161v0.082h-0.161
				V289.848z M371.933,289.848h10.148v0.162h-10.148V289.848z"/>
			<polyline clip-path="url(#SVGID_4_)" fill-rule="evenodd" clip-rule="evenodd" fill="#EAC124" points="371.933,289.93 
				373.222,291.217 364.684,297.095 370.564,288.561 371.933,289.93 364.684,297.095 			"/>
			<path clip-path="url(#SVGID_4_)" fill="#2A2D2F" d="M371.933,289.848l1.37,1.29l-0.161,0.159l-1.289-1.287L371.933,289.848z
				 M373.302,291.138l0.081,0.079l-0.161,0.08v-0.08L373.302,291.138z M373.222,291.297l-8.457,5.878l-0.081-0.159l8.458-5.878
				L373.222,291.297z M364.765,297.175l-0.402,0.323l0.241-0.482l0.08,0.079L364.765,297.175z M364.604,297.016l5.88-8.455
				l0.161,0.08l-5.88,8.534L364.604,297.016z M370.484,288.561l0.08-0.08l0.081,0.08h-0.081H370.484z M370.645,288.561l1.288,1.287
				l-0.08,0.162l-1.369-1.369L370.645,288.561z M371.933,289.848l0.08,0.082l-0.08,0.08v-0.08V289.848z M371.933,290.01
				l-7.167,7.165l-0.081-0.159l7.168-7.168L371.933,290.01z"/>
			<polyline clip-path="url(#SVGID_4_)" fill-rule="evenodd" clip-rule="evenodd" fill="#EAC124" points="371.933,289.93 
				370.564,288.561 379.101,282.686 373.222,291.217 371.933,289.93 379.101,282.686 			"/>
			<path clip-path="url(#SVGID_4_)" fill="#2A2D2F" d="M371.853,290.01l-1.369-1.369l0.161-0.08l1.288,1.287L371.853,290.01z
				 M370.484,288.641v-0.08h0.08L370.484,288.641z M370.564,288.561l8.457-5.958l0.08,0.162l-8.456,5.876L370.564,288.561z
				 M379.021,282.603l0.402-0.241l-0.242,0.403l-0.08-0.079L379.021,282.603z M379.181,282.765l-5.879,8.532l-0.161-0.159
				l5.879-8.452L379.181,282.765z M373.302,291.297l-0.081,0.082l-0.08-0.082l0.08-0.08L373.302,291.297z M373.142,291.297
				l-1.289-1.287l0.08-0.162l1.37,1.29L373.142,291.297z M371.853,290.01l-0.081-0.08l0.081-0.082l0.08,0.082L371.853,290.01z
				 M371.853,289.848l7.168-7.162l0.16,0.079l-7.249,7.245L371.853,289.848z"/>
			<polyline clip-path="url(#SVGID_4_)" fill-rule="evenodd" clip-rule="evenodd" fill="#EAC124" points="371.933,289.93 
				370.564,291.217 364.684,282.686 373.222,288.561 371.933,289.93 364.684,282.686 			"/>
			<path clip-path="url(#SVGID_4_)" fill="#2A2D2F" d="M371.933,290.01l-1.288,1.287l-0.161-0.159l1.369-1.29L371.933,290.01z
				 M370.645,291.297l-0.081,0.082l-0.08-0.082l0.08-0.08L370.645,291.297z M370.484,291.297l-5.88-8.532l0.161-0.079l5.88,8.452
				L370.484,291.297z M364.604,282.765l-0.241-0.403l0.402,0.241l-0.081,0.083L364.604,282.765z M364.765,282.603l8.457,5.958
				l-0.08,0.08l-8.458-5.876L364.765,282.603z M373.222,288.561h0.161l-0.081,0.08L373.222,288.561z M373.302,288.641l-1.37,1.369
				l-0.08-0.162l1.289-1.287L373.302,288.641z M371.933,290.01L371.933,290.01h-0.08l0.08-0.08V290.01z M371.853,290.01
				l-7.168-7.245l0.081-0.079l7.167,7.162L371.853,290.01z"/>
			<polyline clip-path="url(#SVGID_4_)" fill-rule="evenodd" clip-rule="evenodd" fill="#EAC124" points="371.933,289.93 
				373.222,288.561 379.101,297.095 370.564,291.217 371.933,289.93 379.101,297.095 			"/>
			<path clip-path="url(#SVGID_4_)" fill="#2A2D2F" d="M371.853,289.848l1.289-1.287l0.161,0.08l-1.37,1.369L371.853,289.848z
				 M373.142,288.561l0.08-0.08l0.081,0.08h-0.081H373.142z M373.302,288.561l5.879,8.455l-0.16,0.159l-5.879-8.534L373.302,288.561
				z M379.181,297.016l0.242,0.482l-0.402-0.323l0.08-0.08L379.181,297.016z M379.021,297.175l-8.457-5.878l0.081-0.159l8.456,5.878
				L379.021,297.175z M370.564,291.297l-0.08-0.08v-0.079l0.08,0.079V291.297z M370.484,291.138l1.369-1.29l0.08,0.162l-1.288,1.287
				L370.484,291.138z M371.853,289.848l0.08-0.08v0.08v0.082L371.853,289.848z M371.933,289.848l7.249,7.168l-0.16,0.159
				l-7.168-7.165L371.933,289.848z"/>
			<path clip-path="url(#SVGID_4_)" fill-rule="evenodd" clip-rule="evenodd" fill="#EAC124" d="M375.315,289.93
				c0-1.932-1.53-3.381-3.383-3.381c-1.932,0-3.462,1.449-3.462,3.381c0,1.85,1.53,3.381,3.462,3.381
				C373.785,293.311,375.315,291.779,375.315,289.93"/>
			<path clip-path="url(#SVGID_4_)" fill="#2A2D2F" d="M375.154,289.93c0-0.966-0.322-1.772-0.966-2.335l0.161-0.162
				c0.644,0.646,1.046,1.531,1.046,2.497H375.154z M374.188,287.595c-0.564-0.646-1.37-0.966-2.256-0.966v-0.242
				c0.886,0,1.772,0.404,2.417,1.046L374.188,287.595z M371.933,286.629c-0.966,0-1.771,0.32-2.335,0.966l-0.161-0.162
				c0.645-0.642,1.531-1.046,2.497-1.046V286.629z M369.597,287.595c-0.644,0.562-0.966,1.369-0.966,2.335h-0.242
				c0-0.966,0.402-1.852,1.046-2.497L369.597,287.595z M368.631,289.93c0,0.884,0.322,1.69,0.966,2.333l-0.161,0.082
				c-0.644-0.645-1.046-1.449-1.046-2.415H368.631z M369.597,292.263c0.565,0.565,1.37,0.966,2.335,0.966v0.162
				c-0.966,0-1.852-0.404-2.497-1.046L369.597,292.263z M371.933,293.229c0.886,0,1.692-0.4,2.256-0.966l0.161,0.082
				c-0.645,0.642-1.531,1.046-2.417,1.046V293.229z M374.188,292.263c0.644-0.643,0.966-1.449,0.966-2.333h0.242
				c0,0.966-0.402,1.771-1.046,2.415L374.188,292.263z"/>
			<path clip-path="url(#SVGID_4_)" fill-rule="evenodd" clip-rule="evenodd" fill="#2A2D2F" d="M374.35,288.561
				c-0.161,0.241-0.323-0.162-1.047-0.162c-0.805,0-0.885,0.403-1.048,0.324c-0.08-0.082,0.646-0.645,0.887-0.645
				C373.383,287.998,374.108,288.239,374.35,288.561"/>
			<path clip-path="url(#SVGID_4_)" fill-rule="evenodd" clip-rule="evenodd" fill="#2A2D2F" d="M373.463,288.802
				c0.241,0.241,0.08,0.646-0.161,0.646c-0.242,0-0.644-0.404-0.402-0.646"/>
			<path clip-path="url(#SVGID_4_)" fill-rule="evenodd" clip-rule="evenodd" fill="#2A2D2F" d="M372.498,289.123
				c0-0.4,0.321-0.482,0.805-0.482c0.483,0,0.724,0.402,0.886,0.482c-0.162,0-0.403-0.321-0.886-0.321
				C372.819,288.802,372.819,288.802,372.498,289.123"/>
			<path clip-path="url(#SVGID_4_)" fill-rule="evenodd" clip-rule="evenodd" fill="#2A2D2F" d="M372.578,289.205
				c0.081-0.162,0.241,0.159,0.644,0.159c0.322,0,0.483-0.079,0.725-0.241c0.162-0.159-0.322,0.403-0.644,0.403
				C372.98,289.526,372.498,289.285,372.578,289.205"/>
			<path clip-path="url(#SVGID_4_)" fill-rule="evenodd" clip-rule="evenodd" fill="#2A2D2F" d="M373.625,289.364
				c0.402-0.159,0.161-0.482,0-0.562C373.705,288.882,373.946,289.205,373.625,289.364"/>
			<path clip-path="url(#SVGID_4_)" fill-rule="evenodd" clip-rule="evenodd" fill="#2A2D2F" d="M371.933,291.217
				c0.161,0,0.242-0.079,0.484-0.079c0.242,0,0.805,0.4,1.126,0.241c-0.725,0.321-0.402,0.08-1.611,0.08h-0.161"/>
			<path clip-path="url(#SVGID_4_)" fill-rule="evenodd" clip-rule="evenodd" fill="#2A2D2F" d="M373.705,291.7
				c-0.161-0.241-0.08-0.162-0.402-0.562C373.625,291.379,373.625,291.459,373.705,291.7"/>
			<path clip-path="url(#SVGID_4_)" fill-rule="evenodd" clip-rule="evenodd" fill="#2A2D2F" d="M371.933,291.941
				c0.726,0,0.645-0.162,1.611-0.562c-0.725,0.08-0.885,0.321-1.611,0.321h-0.161"/>
			<path clip-path="url(#SVGID_4_)" fill-rule="evenodd" clip-rule="evenodd" fill="#2A2D2F" d="M371.933,290.813
				c0.161,0,0.242-0.159,0.484-0.159c0.242,0,0.563,0.08,0.725,0.241c0.08,0-0.081-0.241-0.323-0.241
				c-0.241-0.082-0.16-0.482-0.402-0.565c0,0.162,0.081,0.162,0.081,0.324c0,0.159-0.243,0.159-0.323,0
				c0.08,0.241-0.162,0.241-0.242,0.241"/>
			<path clip-path="url(#SVGID_4_)" fill-rule="evenodd" clip-rule="evenodd" fill="#2A2D2F" d="M369.436,288.561
				c0.161,0.241,0.322-0.162,1.048-0.162c0.805,0,0.886,0.403,1.046,0.324c0.081-0.082-0.644-0.645-0.885-0.645
				C370.403,287.998,369.678,288.239,369.436,288.561"/>
			<path clip-path="url(#SVGID_4_)" fill-rule="evenodd" clip-rule="evenodd" fill="#2A2D2F" d="M370.322,288.802
				c-0.241,0.241-0.08,0.646,0.162,0.646c0.241,0,0.644-0.404,0.402-0.646"/>
			<path clip-path="url(#SVGID_4_)" fill-rule="evenodd" clip-rule="evenodd" fill="#2A2D2F" d="M371.289,289.123
				c0-0.4-0.322-0.482-0.805-0.482c-0.483,0-0.726,0.402-0.887,0.482c0.242,0,0.403-0.321,0.887-0.321
				C370.967,288.802,370.967,288.802,371.289,289.123"/>
			<path clip-path="url(#SVGID_4_)" fill-rule="evenodd" clip-rule="evenodd" fill="#2A2D2F" d="M371.208,289.205
				c-0.08-0.162-0.241,0.159-0.644,0.159c-0.322,0-0.483-0.079-0.725-0.241c-0.161-0.159,0.323,0.403,0.645,0.403
				C370.886,289.526,371.289,289.285,371.208,289.205"/>
			<path clip-path="url(#SVGID_4_)" fill-rule="evenodd" clip-rule="evenodd" fill="#2A2D2F" d="M370.162,289.364
				c-0.404-0.159-0.162-0.482,0-0.562C370.081,288.882,369.839,289.205,370.162,289.364"/>
			<path clip-path="url(#SVGID_4_)" fill-rule="evenodd" clip-rule="evenodd" fill="#2A2D2F" d="M371.933,291.217
				c-0.242,0-0.322-0.079-0.563-0.079c-0.242,0-0.806,0.4-1.127,0.241c0.725,0.321,0.403,0.08,1.69,0.08h0.08"/>
			<path clip-path="url(#SVGID_4_)" fill-rule="evenodd" clip-rule="evenodd" fill="#2A2D2F" d="M370.081,291.7
				c0.161-0.241,0.161-0.162,0.403-0.562C370.242,291.379,370.162,291.459,370.081,291.7"/>
			<path clip-path="url(#SVGID_4_)" fill-rule="evenodd" clip-rule="evenodd" fill="#2A2D2F" d="M371.933,291.941
				c-0.805,0-0.644-0.162-1.69-0.562c0.725,0.08,0.886,0.321,1.69,0.321h0.08"/>
			<path clip-path="url(#SVGID_4_)" fill-rule="evenodd" clip-rule="evenodd" fill="#2A2D2F" d="M371.933,290.813
				c-0.242,0-0.322-0.159-0.563-0.159c-0.242,0-0.564,0.08-0.725,0.241c-0.081,0,0.08-0.241,0.322-0.241
				c0.241-0.082,0.161-0.482,0.403-0.565c0,0.162-0.081,0.162-0.081,0.324c0,0.159,0.241,0.159,0.322,0
				c-0.081,0.241,0.161,0.241,0.322,0.241"/>
			<path clip-path="url(#SVGID_4_)" fill-rule="evenodd" clip-rule="evenodd" fill="#2A2D2F" d="M371.933,292.263
				c-0.161,0-0.563,0.082,0,0.082C372.417,292.345,372.013,292.263,371.933,292.263"/>
		</g>
	</g>
</g>
</svg>
