<?xml version="1.0" encoding="utf-8"?>
<!-- Generator: Adobe Illustrator 16.0.0, SVG Export Plug-In . SVG Version: 6.00 Build 0)  -->
<!DOCTYPE svg PUBLIC "-//W3C//DTD SVG 1.1//EN" "http://www.w3.org/Graphics/SVG/1.1/DTD/svg11.dtd">
<svg version="1.1" id="name" xmlns="http://www.w3.org/2000/svg" xmlns:xlink="http://www.w3.org/1999/xlink" x="0px" y="0px"
	 width="85.713px" height="50px" viewBox="358 276 85.713 50" enable-background="new 358 276 85.713 50" xml:space="preserve">
<g>
	<g>
		<g>
			<defs>
				<rect id="SVGID_1_" x="358" y="276" width="85.713" height="50"/>
			</defs>
			<clipPath id="SVGID_2_">
				<use xlink:href="#SVGID_1_"  overflow="visible"/>
			</clipPath>
			<rect x="358" y="276" clip-path="url(#SVGID_2_)" fill="#4497B1" width="85.713" height="16.001"/>
		</g>
		<g>
			<defs>
				<rect id="SVGID_3_" x="358" y="276" width="85.713" height="50"/>
			</defs>
			<clipPath id="SVGID_4_">
				<use xlink:href="#SVGID_3_"  overflow="visible"/>
			</clipPath>
			<rect x="358" y="292.001" clip-path="url(#SVGID_4_)" fill="#BD1F34" width="85.713" height="1"/>
		</g>
		<g>
			<defs>
				<rect id="SVGID_5_" x="358" y="276" width="85.713" height="50"/>
			</defs>
			<clipPath id="SVGID_6_">
				<use xlink:href="#SVGID_5_"  overflow="visible"/>
			</clipPath>
			<rect x="358" y="293.001" clip-path="url(#SVGID_6_)" fill="#FFFFFF" width="85.713" height="15.998"/>
		</g>
		<g>
			<defs>
				<rect id="SVGID_7_" x="358" y="276" width="85.713" height="50"/>
			</defs>
			<clipPath id="SVGID_8_">
				<use xlink:href="#SVGID_7_"  overflow="visible"/>
			</clipPath>
			<rect x="358" y="308.999" clip-path="url(#SVGID_8_)" fill="#BD1F34" width="85.713" height="1"/>
		</g>
		<g>
			<defs>
				<rect id="SVGID_9_" x="358" y="276" width="85.713" height="50"/>
			</defs>
			<clipPath id="SVGID_10_">
				<use xlink:href="#SVGID_9_"  overflow="visible"/>
			</clipPath>
			<rect x="358" y="309.999" clip-path="url(#SVGID_10_)" fill="#50B648" width="85.713" height="16.001"/>
		</g>
		<g id="uz">
			<defs>
				<rect id="SVGID_11_" x="358" y="276" width="85.713" height="50"/>
			</defs>
			<clipPath id="SVGID_12_">
				<use xlink:href="#SVGID_11_"  overflow="visible"/>
			</clipPath>
			<g clip-path="url(#SVGID_12_)">
				<g>
					<defs>
						<rect id="SVGID_13_" x="358" y="276" width="85.713" height="50"/>
					</defs>
					<defs>
						<rect id="SVGID_14_" x="358" y="276" width="85.713" height="50"/>
					</defs>
					<defs>
						<rect id="SVGID_15_" x="358" y="276" width="85.713" height="50"/>
					</defs>
					<defs>
						<rect id="SVGID_16_" x="358" y="276" width="85.713" height="50"/>
					</defs>
					<defs>
						<rect id="SVGID_17_" x="358" y="276" width="85.713" height="50"/>
					</defs>
					<defs>
						<rect id="SVGID_18_" x="358" y="276" width="85.713" height="50"/>
					</defs>
					<defs>
						<rect id="SVGID_19_" x="358" y="276" width="85.713" height="50"/>
					</defs>
					<defs>
						<rect id="SVGID_20_" x="358" y="276" width="85.713" height="50"/>
					</defs>
					<defs>
						<rect id="SVGID_21_" x="358" y="276" width="85.713" height="50"/>
					</defs>
					<defs>
						<rect id="SVGID_22_" x="358" y="276" width="85.713" height="50"/>
					</defs>
					<defs>
						<rect id="SVGID_23_" x="358" y="276" width="85.713" height="50"/>
					</defs>
					<defs>
						<rect id="SVGID_24_" x="358" y="276" width="85.713" height="50"/>
					</defs>
					<defs>
						<rect id="SVGID_25_" x="358" y="276" width="85.713" height="50"/>
					</defs>
					<defs>
						<rect id="SVGID_26_" x="358" y="276" width="85.713" height="50"/>
					</defs>
					<defs>
						<rect id="SVGID_27_" x="358" y="276" width="85.713" height="50"/>
					</defs>
					<defs>
						<rect id="SVGID_28_" x="358" y="276" width="85.713" height="50"/>
					</defs>
					<defs>
						<rect id="SVGID_29_" x="358" y="276" width="85.713" height="50"/>
					</defs>
					<defs>
						<rect id="SVGID_30_" x="358" y="276" width="85.713" height="50"/>
					</defs>
					<defs>
						<rect id="SVGID_31_" x="358" y="276" width="85.713" height="50"/>
					</defs>
					<defs>
						<rect id="SVGID_32_" x="358" y="276" width="85.713" height="50"/>
					</defs>
					<defs>
						<rect id="SVGID_33_" x="358" y="276" width="85.713" height="50"/>
					</defs>
					<defs>
						<rect id="SVGID_34_" x="358" y="276" width="85.713" height="50"/>
					</defs>
					<defs>
						<rect id="SVGID_35_" x="358" y="276" width="85.713" height="50"/>
					</defs>
					<defs>
						<rect id="SVGID_36_" x="358" y="276" width="85.713" height="50"/>
					</defs>
					<defs>
						<rect id="SVGID_37_" x="358" y="276" width="85.713" height="50"/>
					</defs>
					<defs>
						<rect id="SVGID_38_" x="358" y="276" width="85.713" height="50"/>
					</defs>
					<defs>
						<rect id="SVGID_39_" x="358" y="276" width="85.713" height="50"/>
					</defs>
					<defs>
						<rect id="SVGID_40_" x="358" y="276" width="85.713" height="50"/>
					</defs>
					<defs>
						<rect id="SVGID_41_" x="358" y="276" width="85.713" height="50"/>
					</defs>
					<defs>
						<rect id="SVGID_42_" x="358" y="276" width="85.713" height="50"/>
					</defs>
					<defs>
						<rect id="SVGID_43_" x="358" y="276" width="85.713" height="50"/>
					</defs>
					<defs>
						<rect id="SVGID_44_" x="358" y="276" width="85.713" height="50"/>
					</defs>
					<defs>
						<rect id="SVGID_45_" x="358" y="276" width="85.713" height="50"/>
					</defs>
					<defs>
						<rect id="SVGID_46_" x="358" y="276" width="85.713" height="50"/>
					</defs>
					<defs>
						<rect id="SVGID_47_" x="358" y="276" width="85.713" height="50"/>
					</defs>
					<defs>
						<rect id="SVGID_48_" x="358" y="276" width="85.713" height="50"/>
					</defs>
					<defs>
						<rect id="SVGID_49_" x="358" y="276" width="85.713" height="50"/>
					</defs>
					<defs>
						<rect id="SVGID_50_" x="358" y="276" width="85.713" height="50"/>
					</defs>
					<defs>
						<rect id="SVGID_51_" x="358" y="276" width="85.713" height="50"/>
					</defs>
					<defs>
						<rect id="SVGID_52_" x="358" y="276" width="85.713" height="50"/>
					</defs>
					<defs>
						<rect id="SVGID_53_" x="358" y="276" width="85.713" height="50"/>
					</defs>
					<defs>
						<rect id="SVGID_54_" x="358" y="276" width="85.713" height="50"/>
					</defs>
					<defs>
						<rect id="SVGID_55_" x="358" y="276" width="85.713" height="50"/>
					</defs>
					<defs>
						<rect id="SVGID_56_" x="358" y="276" width="85.713" height="50"/>
					</defs>
					<defs>
						<rect id="SVGID_57_" x="358" y="276" width="85.713" height="50"/>
					</defs>
					<defs>
						<rect id="SVGID_58_" x="358" y="276" width="85.713" height="50"/>
					</defs>
					<defs>
						<rect id="SVGID_59_" x="358" y="276" width="85.713" height="50"/>
					</defs>
					<defs>
						<rect id="SVGID_60_" x="358" y="276" width="85.713" height="50"/>
					</defs>
					<defs>
						<rect id="SVGID_61_" x="358" y="276" width="85.713" height="50"/>
					</defs>
					<defs>
						<rect id="SVGID_62_" x="358" y="276" width="85.713" height="50"/>
					</defs>
					<defs>
						<rect id="SVGID_63_" x="358" y="276" width="85.713" height="50"/>
					</defs>
					<defs>
						<rect id="SVGID_64_" x="358" y="276" width="85.713" height="50"/>
					</defs>
					<defs>
						<rect id="SVGID_65_" x="358" y="276" width="85.713" height="50"/>
					</defs>
					<defs>
						<rect id="SVGID_66_" x="358" y="276" width="85.713" height="50"/>
					</defs>
					<defs>
						<rect id="SVGID_67_" x="358" y="276" width="85.713" height="50"/>
					</defs>
					<defs>
						<rect id="SVGID_68_" x="358" y="276" width="85.713" height="50"/>
					</defs>
					<defs>
						<rect id="SVGID_69_" x="358" y="276" width="85.713" height="50"/>
					</defs>
					<defs>
						<rect id="SVGID_70_" x="358" y="276" width="85.713" height="50"/>
					</defs>
					<defs>
						<rect id="SVGID_71_" x="358" y="276" width="85.713" height="50"/>
					</defs>
					<defs>
						<rect id="SVGID_72_" x="358" y="276" width="85.713" height="50"/>
					</defs>
					<defs>
						<rect id="SVGID_73_" x="358" y="276" width="85.713" height="50"/>
					</defs>
					<defs>
						<rect id="SVGID_74_" x="358" y="276" width="85.713" height="50"/>
					</defs>
					<defs>
						<rect id="SVGID_75_" x="358" y="276" width="85.713" height="50"/>
					</defs>
					<defs>
						<rect id="SVGID_76_" x="358" y="276" width="85.713" height="50"/>
					</defs>
					<defs>
						<rect id="SVGID_77_" x="358" y="276" width="85.713" height="50"/>
					</defs>
					<defs>
						<rect id="SVGID_78_" x="358" y="276" width="85.713" height="50"/>
					</defs>
					<defs>
						<rect id="SVGID_79_" x="358" y="276" width="85.713" height="50"/>
					</defs>
					<defs>
						<rect id="SVGID_80_" x="358" y="276" width="85.713" height="50"/>
					</defs>
					<defs>
						<rect id="SVGID_81_" x="358" y="276" width="85.713" height="50"/>
					</defs>
					<defs>
						<rect id="SVGID_82_" x="358" y="276" width="85.713" height="50"/>
					</defs>
					<defs>
						<rect id="SVGID_83_" x="358" y="276" width="85.713" height="50"/>
					</defs>
					<defs>
						<rect id="SVGID_84_" x="358" y="276" width="85.713" height="50"/>
					</defs>
					<defs>
						<rect id="SVGID_85_" x="358" y="276" width="85.713" height="50"/>
					</defs>
					<defs>
						<rect id="SVGID_86_" x="358" y="276" width="85.713" height="50"/>
					</defs>
					<defs>
						<rect id="SVGID_87_" x="358" y="276" width="85.713" height="50"/>
					</defs>
					<defs>
						<rect id="SVGID_88_" x="358" y="276" width="85.713" height="50"/>
					</defs>
					<defs>
						<rect id="SVGID_89_" x="358" y="276" width="85.713" height="50"/>
					</defs>
					<defs>
						<rect id="SVGID_90_" x="358" y="276" width="85.713" height="50"/>
					</defs>
					<defs>
						<rect id="SVGID_91_" x="358" y="276" width="85.713" height="50"/>
					</defs>
					<defs>
						<rect id="SVGID_92_" x="358" y="276" width="85.713" height="50"/>
					</defs>
					<defs>
						<rect id="SVGID_93_" x="358" y="276" width="85.713" height="50"/>
					</defs>
					<defs>
						<rect id="SVGID_94_" x="358" y="276" width="85.713" height="50"/>
					</defs>
					<defs>
						<rect id="SVGID_95_" x="358" y="276" width="85.713" height="50"/>
					</defs>
					<defs>
						<rect id="SVGID_96_" x="358" y="276" width="85.713" height="50"/>
					</defs>
					<defs>
						<rect id="SVGID_97_" x="358" y="276" width="85.713" height="50"/>
					</defs>
					<defs>
						<rect id="SVGID_98_" x="358" y="276" width="85.713" height="50"/>
					</defs>
					<defs>
						<rect id="SVGID_99_" x="358" y="276" width="85.713" height="50"/>
					</defs>
					<defs>
						<rect id="SVGID_100_" x="358" y="276" width="85.713" height="50"/>
					</defs>
					<defs>
						<rect id="SVGID_101_" x="358" y="276" width="85.713" height="50"/>
					</defs>
					<defs>
						<rect id="SVGID_102_" x="358" y="276" width="85.713" height="50"/>
					</defs>
					<defs>
						<rect id="SVGID_103_" x="358" y="276" width="85.713" height="50"/>
					</defs>
					<defs>
						<rect id="SVGID_104_" x="358" y="276" width="85.713" height="50"/>
					</defs>
					<defs>
						<rect id="SVGID_105_" x="358" y="276" width="85.713" height="50"/>
					</defs>
					<defs>
						<rect id="SVGID_106_" x="358" y="276" width="85.713" height="50"/>
					</defs>
					<defs>
						<rect id="SVGID_107_" x="358" y="276" width="85.713" height="50"/>
					</defs>
					<defs>
						<rect id="SVGID_108_" x="358" y="276" width="85.713" height="50"/>
					</defs>
					<defs>
						<rect id="SVGID_109_" x="358" y="276" width="85.713" height="50"/>
					</defs>
					<defs>
						<rect id="SVGID_110_" x="358" y="276" width="85.713" height="50"/>
					</defs>
					<defs>
						<rect id="SVGID_111_" x="358" y="276" width="85.713" height="50"/>
					</defs>
					<defs>
						<rect id="SVGID_112_" x="358" y="276" width="85.713" height="50"/>
					</defs>
					<defs>
						<rect id="SVGID_113_" x="358" y="276" width="85.713" height="50"/>
					</defs>
					<defs>
						<rect id="SVGID_114_" x="358" y="276" width="85.713" height="50"/>
					</defs>
					<defs>
						<rect id="SVGID_115_" x="358" y="276" width="85.713" height="50"/>
					</defs>
					<defs>
						<rect id="SVGID_116_" x="358" y="276" width="85.713" height="50"/>
					</defs>
					<defs>
						<rect id="SVGID_117_" x="358" y="276" width="85.713" height="50"/>
					</defs>
					<defs>
						<rect id="SVGID_118_" x="358" y="276" width="85.713" height="50"/>
					</defs>
					<defs>
						<rect id="SVGID_119_" x="358" y="276" width="85.713" height="50"/>
					</defs>
					<defs>
						<rect id="SVGID_120_" x="358" y="276" width="85.713" height="50"/>
					</defs>
					<defs>
						<rect id="SVGID_121_" x="358" y="276" width="85.713" height="50"/>
					</defs>
					<defs>
						<rect id="SVGID_122_" x="358" y="276" width="85.713" height="50"/>
					</defs>
					<defs>
						<rect id="SVGID_123_" x="358" y="276" width="85.713" height="50"/>
					</defs>
					<defs>
						<rect id="SVGID_124_" x="358" y="276" width="85.713" height="50"/>
					</defs>
					<defs>
						<rect id="SVGID_125_" x="358" y="276" width="85.713" height="50"/>
					</defs>
					<defs>
						<rect id="SVGID_126_" x="358" y="276" width="85.713" height="50"/>
					</defs>
					<defs>
						<rect id="SVGID_127_" x="358" y="276" width="85.713" height="50"/>
					</defs>
					<defs>
						<rect id="SVGID_128_" x="358" y="276" width="85.713" height="50"/>
					</defs>
					<defs>
						<rect id="SVGID_129_" x="358" y="276" width="85.713" height="50"/>
					</defs>
					<defs>
						<rect id="SVGID_130_" x="358" y="276" width="85.713" height="50"/>
					</defs>
					<defs>
						<rect id="SVGID_131_" x="358" y="276" width="85.713" height="50"/>
					</defs>
					<defs>
						<rect id="SVGID_132_" x="358" y="276" width="85.713" height="50"/>
					</defs>
					<defs>
						<rect id="SVGID_133_" x="358" y="276" width="85.713" height="50"/>
					</defs>
					<defs>
						<rect id="SVGID_134_" x="358" y="276" width="85.713" height="50"/>
					</defs>
					<clipPath id="SVGID_135_">
						<use xlink:href="#SVGID_13_"  overflow="visible"/>
					</clipPath>
					<clipPath id="SVGID_136_" clip-path="url(#SVGID_135_)">
						<use xlink:href="#SVGID_14_"  overflow="visible"/>
					</clipPath>
					<clipPath id="SVGID_137_" clip-path="url(#SVGID_136_)">
						<use xlink:href="#SVGID_15_"  overflow="visible"/>
					</clipPath>
					<clipPath id="SVGID_138_" clip-path="url(#SVGID_137_)">
						<use xlink:href="#SVGID_16_"  overflow="visible"/>
					</clipPath>
					<clipPath id="SVGID_139_" clip-path="url(#SVGID_138_)">
						<use xlink:href="#SVGID_17_"  overflow="visible"/>
					</clipPath>
					<clipPath id="SVGID_140_" clip-path="url(#SVGID_139_)">
						<use xlink:href="#SVGID_18_"  overflow="visible"/>
					</clipPath>
					<clipPath id="SVGID_141_" clip-path="url(#SVGID_140_)">
						<use xlink:href="#SVGID_19_"  overflow="visible"/>
					</clipPath>
					<clipPath id="SVGID_142_" clip-path="url(#SVGID_141_)">
						<use xlink:href="#SVGID_20_"  overflow="visible"/>
					</clipPath>
					<clipPath id="SVGID_143_" clip-path="url(#SVGID_142_)">
						<use xlink:href="#SVGID_21_"  overflow="visible"/>
					</clipPath>
					<clipPath id="SVGID_144_" clip-path="url(#SVGID_143_)">
						<use xlink:href="#SVGID_22_"  overflow="visible"/>
					</clipPath>
					<clipPath id="SVGID_145_" clip-path="url(#SVGID_144_)">
						<use xlink:href="#SVGID_23_"  overflow="visible"/>
					</clipPath>
					<clipPath id="SVGID_146_" clip-path="url(#SVGID_145_)">
						<use xlink:href="#SVGID_24_"  overflow="visible"/>
					</clipPath>
					<clipPath id="SVGID_147_" clip-path="url(#SVGID_146_)">
						<use xlink:href="#SVGID_25_"  overflow="visible"/>
					</clipPath>
					<clipPath id="SVGID_148_" clip-path="url(#SVGID_147_)">
						<use xlink:href="#SVGID_26_"  overflow="visible"/>
					</clipPath>
					<clipPath id="SVGID_149_" clip-path="url(#SVGID_148_)">
						<use xlink:href="#SVGID_27_"  overflow="visible"/>
					</clipPath>
					<clipPath id="SVGID_150_" clip-path="url(#SVGID_149_)">
						<use xlink:href="#SVGID_28_"  overflow="visible"/>
					</clipPath>
					<clipPath id="SVGID_151_" clip-path="url(#SVGID_150_)">
						<use xlink:href="#SVGID_29_"  overflow="visible"/>
					</clipPath>
					<clipPath id="SVGID_152_" clip-path="url(#SVGID_151_)">
						<use xlink:href="#SVGID_30_"  overflow="visible"/>
					</clipPath>
					<clipPath id="SVGID_153_" clip-path="url(#SVGID_152_)">
						<use xlink:href="#SVGID_31_"  overflow="visible"/>
					</clipPath>
					<clipPath id="SVGID_154_" clip-path="url(#SVGID_153_)">
						<use xlink:href="#SVGID_32_"  overflow="visible"/>
					</clipPath>
					<clipPath id="SVGID_155_" clip-path="url(#SVGID_154_)">
						<use xlink:href="#SVGID_33_"  overflow="visible"/>
					</clipPath>
					<clipPath id="SVGID_156_" clip-path="url(#SVGID_155_)">
						<use xlink:href="#SVGID_34_"  overflow="visible"/>
					</clipPath>
					<clipPath id="SVGID_157_" clip-path="url(#SVGID_156_)">
						<use xlink:href="#SVGID_35_"  overflow="visible"/>
					</clipPath>
					<clipPath id="SVGID_158_" clip-path="url(#SVGID_157_)">
						<use xlink:href="#SVGID_36_"  overflow="visible"/>
					</clipPath>
					<clipPath id="SVGID_159_" clip-path="url(#SVGID_158_)">
						<use xlink:href="#SVGID_37_"  overflow="visible"/>
					</clipPath>
					<clipPath id="SVGID_160_" clip-path="url(#SVGID_159_)">
						<use xlink:href="#SVGID_38_"  overflow="visible"/>
					</clipPath>
					<clipPath id="SVGID_161_" clip-path="url(#SVGID_160_)">
						<use xlink:href="#SVGID_39_"  overflow="visible"/>
					</clipPath>
					<clipPath id="SVGID_162_" clip-path="url(#SVGID_161_)">
						<use xlink:href="#SVGID_40_"  overflow="visible"/>
					</clipPath>
					<clipPath id="SVGID_163_" clip-path="url(#SVGID_162_)">
						<use xlink:href="#SVGID_41_"  overflow="visible"/>
					</clipPath>
					<clipPath id="SVGID_164_" clip-path="url(#SVGID_163_)">
						<use xlink:href="#SVGID_42_"  overflow="visible"/>
					</clipPath>
					<clipPath id="SVGID_165_" clip-path="url(#SVGID_164_)">
						<use xlink:href="#SVGID_43_"  overflow="visible"/>
					</clipPath>
					<clipPath id="SVGID_166_" clip-path="url(#SVGID_165_)">
						<use xlink:href="#SVGID_44_"  overflow="visible"/>
					</clipPath>
					<clipPath id="SVGID_167_" clip-path="url(#SVGID_166_)">
						<use xlink:href="#SVGID_45_"  overflow="visible"/>
					</clipPath>
					<clipPath id="SVGID_168_" clip-path="url(#SVGID_167_)">
						<use xlink:href="#SVGID_46_"  overflow="visible"/>
					</clipPath>
					<clipPath id="SVGID_169_" clip-path="url(#SVGID_168_)">
						<use xlink:href="#SVGID_47_"  overflow="visible"/>
					</clipPath>
					<clipPath id="SVGID_170_" clip-path="url(#SVGID_169_)">
						<use xlink:href="#SVGID_48_"  overflow="visible"/>
					</clipPath>
					<clipPath id="SVGID_171_" clip-path="url(#SVGID_170_)">
						<use xlink:href="#SVGID_49_"  overflow="visible"/>
					</clipPath>
					<clipPath id="SVGID_172_" clip-path="url(#SVGID_171_)">
						<use xlink:href="#SVGID_50_"  overflow="visible"/>
					</clipPath>
					<clipPath id="SVGID_173_" clip-path="url(#SVGID_172_)">
						<use xlink:href="#SVGID_51_"  overflow="visible"/>
					</clipPath>
					<clipPath id="SVGID_174_" clip-path="url(#SVGID_173_)">
						<use xlink:href="#SVGID_52_"  overflow="visible"/>
					</clipPath>
					<clipPath id="SVGID_175_" clip-path="url(#SVGID_174_)">
						<use xlink:href="#SVGID_53_"  overflow="visible"/>
					</clipPath>
					<clipPath id="SVGID_176_" clip-path="url(#SVGID_175_)">
						<use xlink:href="#SVGID_54_"  overflow="visible"/>
					</clipPath>
					<clipPath id="SVGID_177_" clip-path="url(#SVGID_176_)">
						<use xlink:href="#SVGID_55_"  overflow="visible"/>
					</clipPath>
					<clipPath id="SVGID_178_" clip-path="url(#SVGID_177_)">
						<use xlink:href="#SVGID_56_"  overflow="visible"/>
					</clipPath>
					<clipPath id="SVGID_179_" clip-path="url(#SVGID_178_)">
						<use xlink:href="#SVGID_57_"  overflow="visible"/>
					</clipPath>
					<clipPath id="SVGID_180_" clip-path="url(#SVGID_179_)">
						<use xlink:href="#SVGID_58_"  overflow="visible"/>
					</clipPath>
					<clipPath id="SVGID_181_" clip-path="url(#SVGID_180_)">
						<use xlink:href="#SVGID_59_"  overflow="visible"/>
					</clipPath>
					<clipPath id="SVGID_182_" clip-path="url(#SVGID_181_)">
						<use xlink:href="#SVGID_60_"  overflow="visible"/>
					</clipPath>
					<clipPath id="SVGID_183_" clip-path="url(#SVGID_182_)">
						<use xlink:href="#SVGID_61_"  overflow="visible"/>
					</clipPath>
					<clipPath id="SVGID_184_" clip-path="url(#SVGID_183_)">
						<use xlink:href="#SVGID_62_"  overflow="visible"/>
					</clipPath>
					<clipPath id="SVGID_185_" clip-path="url(#SVGID_184_)">
						<use xlink:href="#SVGID_63_"  overflow="visible"/>
					</clipPath>
					<clipPath id="SVGID_186_" clip-path="url(#SVGID_185_)">
						<use xlink:href="#SVGID_64_"  overflow="visible"/>
					</clipPath>
					<clipPath id="SVGID_187_" clip-path="url(#SVGID_186_)">
						<use xlink:href="#SVGID_65_"  overflow="visible"/>
					</clipPath>
					<clipPath id="SVGID_188_" clip-path="url(#SVGID_187_)">
						<use xlink:href="#SVGID_66_"  overflow="visible"/>
					</clipPath>
					<clipPath id="SVGID_189_" clip-path="url(#SVGID_188_)">
						<use xlink:href="#SVGID_67_"  overflow="visible"/>
					</clipPath>
					<clipPath id="SVGID_190_" clip-path="url(#SVGID_189_)">
						<use xlink:href="#SVGID_68_"  overflow="visible"/>
					</clipPath>
					<clipPath id="SVGID_191_" clip-path="url(#SVGID_190_)">
						<use xlink:href="#SVGID_69_"  overflow="visible"/>
					</clipPath>
					<clipPath id="SVGID_192_" clip-path="url(#SVGID_191_)">
						<use xlink:href="#SVGID_70_"  overflow="visible"/>
					</clipPath>
					<clipPath id="SVGID_193_" clip-path="url(#SVGID_192_)">
						<use xlink:href="#SVGID_71_"  overflow="visible"/>
					</clipPath>
					<clipPath id="SVGID_194_" clip-path="url(#SVGID_193_)">
						<use xlink:href="#SVGID_72_"  overflow="visible"/>
					</clipPath>
					<clipPath id="SVGID_195_" clip-path="url(#SVGID_194_)">
						<use xlink:href="#SVGID_73_"  overflow="visible"/>
					</clipPath>
					<clipPath id="SVGID_196_" clip-path="url(#SVGID_195_)">
						<use xlink:href="#SVGID_74_"  overflow="visible"/>
					</clipPath>
					<clipPath id="SVGID_197_" clip-path="url(#SVGID_196_)">
						<use xlink:href="#SVGID_75_"  overflow="visible"/>
					</clipPath>
					<clipPath id="SVGID_198_" clip-path="url(#SVGID_197_)">
						<use xlink:href="#SVGID_76_"  overflow="visible"/>
					</clipPath>
					<clipPath id="SVGID_199_" clip-path="url(#SVGID_198_)">
						<use xlink:href="#SVGID_77_"  overflow="visible"/>
					</clipPath>
					<clipPath id="SVGID_200_" clip-path="url(#SVGID_199_)">
						<use xlink:href="#SVGID_78_"  overflow="visible"/>
					</clipPath>
					<clipPath id="SVGID_201_" clip-path="url(#SVGID_200_)">
						<use xlink:href="#SVGID_79_"  overflow="visible"/>
					</clipPath>
					<clipPath id="SVGID_202_" clip-path="url(#SVGID_201_)">
						<use xlink:href="#SVGID_80_"  overflow="visible"/>
					</clipPath>
					<clipPath id="SVGID_203_" clip-path="url(#SVGID_202_)">
						<use xlink:href="#SVGID_81_"  overflow="visible"/>
					</clipPath>
					<clipPath id="SVGID_204_" clip-path="url(#SVGID_203_)">
						<use xlink:href="#SVGID_82_"  overflow="visible"/>
					</clipPath>
					<clipPath id="SVGID_205_" clip-path="url(#SVGID_204_)">
						<use xlink:href="#SVGID_83_"  overflow="visible"/>
					</clipPath>
					<clipPath id="SVGID_206_" clip-path="url(#SVGID_205_)">
						<use xlink:href="#SVGID_84_"  overflow="visible"/>
					</clipPath>
					<clipPath id="SVGID_207_" clip-path="url(#SVGID_206_)">
						<use xlink:href="#SVGID_85_"  overflow="visible"/>
					</clipPath>
					<clipPath id="SVGID_208_" clip-path="url(#SVGID_207_)">
						<use xlink:href="#SVGID_86_"  overflow="visible"/>
					</clipPath>
					<clipPath id="SVGID_209_" clip-path="url(#SVGID_208_)">
						<use xlink:href="#SVGID_87_"  overflow="visible"/>
					</clipPath>
					<clipPath id="SVGID_210_" clip-path="url(#SVGID_209_)">
						<use xlink:href="#SVGID_88_"  overflow="visible"/>
					</clipPath>
					<clipPath id="SVGID_211_" clip-path="url(#SVGID_210_)">
						<use xlink:href="#SVGID_89_"  overflow="visible"/>
					</clipPath>
					<clipPath id="SVGID_212_" clip-path="url(#SVGID_211_)">
						<use xlink:href="#SVGID_90_"  overflow="visible"/>
					</clipPath>
					<clipPath id="SVGID_213_" clip-path="url(#SVGID_212_)">
						<use xlink:href="#SVGID_91_"  overflow="visible"/>
					</clipPath>
					<clipPath id="SVGID_214_" clip-path="url(#SVGID_213_)">
						<use xlink:href="#SVGID_92_"  overflow="visible"/>
					</clipPath>
					<clipPath id="SVGID_215_" clip-path="url(#SVGID_214_)">
						<use xlink:href="#SVGID_93_"  overflow="visible"/>
					</clipPath>
					<clipPath id="SVGID_216_" clip-path="url(#SVGID_215_)">
						<use xlink:href="#SVGID_94_"  overflow="visible"/>
					</clipPath>
					<clipPath id="SVGID_217_" clip-path="url(#SVGID_216_)">
						<use xlink:href="#SVGID_95_"  overflow="visible"/>
					</clipPath>
					<clipPath id="SVGID_218_" clip-path="url(#SVGID_217_)">
						<use xlink:href="#SVGID_96_"  overflow="visible"/>
					</clipPath>
					<clipPath id="SVGID_219_" clip-path="url(#SVGID_218_)">
						<use xlink:href="#SVGID_97_"  overflow="visible"/>
					</clipPath>
					<clipPath id="SVGID_220_" clip-path="url(#SVGID_219_)">
						<use xlink:href="#SVGID_98_"  overflow="visible"/>
					</clipPath>
					<clipPath id="SVGID_221_" clip-path="url(#SVGID_220_)">
						<use xlink:href="#SVGID_99_"  overflow="visible"/>
					</clipPath>
					<clipPath id="SVGID_222_" clip-path="url(#SVGID_221_)">
						<use xlink:href="#SVGID_100_"  overflow="visible"/>
					</clipPath>
					<clipPath id="SVGID_223_" clip-path="url(#SVGID_222_)">
						<use xlink:href="#SVGID_101_"  overflow="visible"/>
					</clipPath>
					<clipPath id="SVGID_224_" clip-path="url(#SVGID_223_)">
						<use xlink:href="#SVGID_102_"  overflow="visible"/>
					</clipPath>
					<clipPath id="SVGID_225_" clip-path="url(#SVGID_224_)">
						<use xlink:href="#SVGID_103_"  overflow="visible"/>
					</clipPath>
					<clipPath id="SVGID_226_" clip-path="url(#SVGID_225_)">
						<use xlink:href="#SVGID_104_"  overflow="visible"/>
					</clipPath>
					<clipPath id="SVGID_227_" clip-path="url(#SVGID_226_)">
						<use xlink:href="#SVGID_105_"  overflow="visible"/>
					</clipPath>
					<clipPath id="SVGID_228_" clip-path="url(#SVGID_227_)">
						<use xlink:href="#SVGID_106_"  overflow="visible"/>
					</clipPath>
					<clipPath id="SVGID_229_" clip-path="url(#SVGID_228_)">
						<use xlink:href="#SVGID_107_"  overflow="visible"/>
					</clipPath>
					<clipPath id="SVGID_230_" clip-path="url(#SVGID_229_)">
						<use xlink:href="#SVGID_108_"  overflow="visible"/>
					</clipPath>
					<clipPath id="SVGID_231_" clip-path="url(#SVGID_230_)">
						<use xlink:href="#SVGID_109_"  overflow="visible"/>
					</clipPath>
					<clipPath id="SVGID_232_" clip-path="url(#SVGID_231_)">
						<use xlink:href="#SVGID_110_"  overflow="visible"/>
					</clipPath>
					<clipPath id="SVGID_233_" clip-path="url(#SVGID_232_)">
						<use xlink:href="#SVGID_111_"  overflow="visible"/>
					</clipPath>
					<clipPath id="SVGID_234_" clip-path="url(#SVGID_233_)">
						<use xlink:href="#SVGID_112_"  overflow="visible"/>
					</clipPath>
					<clipPath id="SVGID_235_" clip-path="url(#SVGID_234_)">
						<use xlink:href="#SVGID_113_"  overflow="visible"/>
					</clipPath>
					<clipPath id="SVGID_236_" clip-path="url(#SVGID_235_)">
						<use xlink:href="#SVGID_114_"  overflow="visible"/>
					</clipPath>
					<clipPath id="SVGID_237_" clip-path="url(#SVGID_236_)">
						<use xlink:href="#SVGID_115_"  overflow="visible"/>
					</clipPath>
					<clipPath id="SVGID_238_" clip-path="url(#SVGID_237_)">
						<use xlink:href="#SVGID_116_"  overflow="visible"/>
					</clipPath>
					<clipPath id="SVGID_239_" clip-path="url(#SVGID_238_)">
						<use xlink:href="#SVGID_117_"  overflow="visible"/>
					</clipPath>
					<clipPath id="SVGID_240_" clip-path="url(#SVGID_239_)">
						<use xlink:href="#SVGID_118_"  overflow="visible"/>
					</clipPath>
					<clipPath id="SVGID_241_" clip-path="url(#SVGID_240_)">
						<use xlink:href="#SVGID_119_"  overflow="visible"/>
					</clipPath>
					<clipPath id="SVGID_242_" clip-path="url(#SVGID_241_)">
						<use xlink:href="#SVGID_120_"  overflow="visible"/>
					</clipPath>
					<clipPath id="SVGID_243_" clip-path="url(#SVGID_242_)">
						<use xlink:href="#SVGID_121_"  overflow="visible"/>
					</clipPath>
					<clipPath id="SVGID_244_" clip-path="url(#SVGID_243_)">
						<use xlink:href="#SVGID_122_"  overflow="visible"/>
					</clipPath>
					<clipPath id="SVGID_245_" clip-path="url(#SVGID_244_)">
						<use xlink:href="#SVGID_123_"  overflow="visible"/>
					</clipPath>
					<clipPath id="SVGID_246_" clip-path="url(#SVGID_245_)">
						<use xlink:href="#SVGID_124_"  overflow="visible"/>
					</clipPath>
					<clipPath id="SVGID_247_" clip-path="url(#SVGID_246_)">
						<use xlink:href="#SVGID_125_"  overflow="visible"/>
					</clipPath>
					<clipPath id="SVGID_248_" clip-path="url(#SVGID_247_)">
						<use xlink:href="#SVGID_126_"  overflow="visible"/>
					</clipPath>
					<clipPath id="SVGID_249_" clip-path="url(#SVGID_248_)">
						<use xlink:href="#SVGID_127_"  overflow="visible"/>
					</clipPath>
					<clipPath id="SVGID_250_" clip-path="url(#SVGID_249_)">
						<use xlink:href="#SVGID_128_"  overflow="visible"/>
					</clipPath>
					<clipPath id="SVGID_251_" clip-path="url(#SVGID_250_)">
						<use xlink:href="#SVGID_129_"  overflow="visible"/>
					</clipPath>
					<clipPath id="SVGID_252_" clip-path="url(#SVGID_251_)">
						<use xlink:href="#SVGID_130_"  overflow="visible"/>
					</clipPath>
					<clipPath id="SVGID_253_" clip-path="url(#SVGID_252_)">
						<use xlink:href="#SVGID_131_"  overflow="visible"/>
					</clipPath>
					<clipPath id="SVGID_254_" clip-path="url(#SVGID_253_)">
						<use xlink:href="#SVGID_132_"  overflow="visible"/>
					</clipPath>
					<clipPath id="SVGID_255_" clip-path="url(#SVGID_254_)">
						<use xlink:href="#SVGID_133_"  overflow="visible"/>
					</clipPath>
					<clipPath id="SVGID_256_" clip-path="url(#SVGID_255_)">
						<use xlink:href="#SVGID_134_"  overflow="visible"/>
					</clipPath>
					<path clip-path="url(#SVGID_256_)" fill="#FFFFFF" d="M378,284c0,3.313-2.689,5.998-6.002,5.998
						c-3.311,0-5.999-2.685-5.999-5.998c0-3.312,2.688-6,5.999-6C375.312,278,378,280.688,378,284"/>
					<path clip-path="url(#SVGID_256_)" fill="#4497B1" d="M379.699,284c0,2.76-2.239,4.998-4.999,4.998c-2.759,0-5-2.238-5-4.998
						c0-2.758,2.24-5,5-5C377.459,279,379.699,281.242,379.699,284"/>
					<polygon clip-path="url(#SVGID_256_)" fill="#FFFFFF" points="387.2,278 386.829,279.143 387.399,279.327 					"/>
					<polygon clip-path="url(#SVGID_256_)" fill="#FFFFFF" points="387.2,278 387.571,279.143 387,279.327 					"/>
					<polygon clip-path="url(#SVGID_256_)" fill="#FFFFFF" points="388.34,278.83 387.141,278.83 387.141,279.43 					"/>
					<polygon clip-path="url(#SVGID_256_)" fill="#FFFFFF" points="388.34,278.83 387.371,279.534 387.016,279.049 					"/>
					<polygon clip-path="url(#SVGID_256_)" fill="#FFFFFF" points="386.059,278.83 387.028,279.534 387.38,279.049 					"/>
					<polygon clip-path="url(#SVGID_256_)" fill="#FFFFFF" points="386.059,278.83 387.258,278.83 387.258,279.43 					"/>
					<polygon clip-path="url(#SVGID_256_)" fill="#FFFFFF" points="387.903,280.171 387.534,279.029 386.964,279.213 					"/>
					<polygon clip-path="url(#SVGID_256_)" fill="#FFFFFF" points="387.903,280.171 386.934,279.467 387.287,278.98 					"/>
					<polygon clip-path="url(#SVGID_256_)" fill="#FFFFFF" points="386.494,280.171 387.465,279.467 387.113,278.98 					"/>
					<polygon clip-path="url(#SVGID_256_)" fill="#FFFFFF" points="386.494,280.171 386.866,279.029 387.434,279.213 					"/>
					<polygon clip-path="url(#SVGID_256_)" fill="#FFFFFF" points="392,278 391.629,279.143 392.199,279.327 					"/>
					<polygon clip-path="url(#SVGID_256_)" fill="#FFFFFF" points="392,278 392.37,279.143 391.801,279.327 					"/>
					<polygon clip-path="url(#SVGID_256_)" fill="#FFFFFF" points="393.14,278.83 391.94,278.83 391.94,279.43 					"/>
					<polygon clip-path="url(#SVGID_256_)" fill="#FFFFFF" points="393.14,278.83 392.17,279.534 391.817,279.049 					"/>
					<polygon clip-path="url(#SVGID_256_)" fill="#FFFFFF" points="390.858,278.83 391.83,279.534 392.182,279.049 					"/>
					<polygon clip-path="url(#SVGID_256_)" fill="#FFFFFF" points="390.858,278.83 392.058,278.83 392.058,279.43 					"/>
					<polygon clip-path="url(#SVGID_256_)" fill="#FFFFFF" points="392.705,280.171 392.333,279.029 391.764,279.213 					"/>
					<polygon clip-path="url(#SVGID_256_)" fill="#FFFFFF" points="392.705,280.171 391.733,279.467 392.085,278.98 					"/>
					<polygon clip-path="url(#SVGID_256_)" fill="#FFFFFF" points="391.292,280.171 392.264,279.467 391.914,278.98 					"/>
					<polygon clip-path="url(#SVGID_256_)" fill="#FFFFFF" points="391.292,280.171 391.665,279.029 392.236,279.213 					"/>
					<polygon clip-path="url(#SVGID_256_)" fill="#FFFFFF" points="396.798,278 396.429,279.143 396.999,279.327 					"/>
					<polygon clip-path="url(#SVGID_256_)" fill="#FFFFFF" points="396.798,278 397.17,279.143 396.599,279.327 					"/>
					<polygon clip-path="url(#SVGID_256_)" fill="#FFFFFF" points="397.941,278.83 396.742,278.83 396.742,279.43 					"/>
					<polygon clip-path="url(#SVGID_256_)" fill="#FFFFFF" points="397.941,278.83 396.97,279.534 396.617,279.049 					"/>
					<polygon clip-path="url(#SVGID_256_)" fill="#FFFFFF" points="395.659,278.83 396.627,279.534 396.983,279.049 					"/>
					<polygon clip-path="url(#SVGID_256_)" fill="#FFFFFF" points="395.659,278.83 396.858,278.83 396.858,279.43 					"/>
					<polygon clip-path="url(#SVGID_256_)" fill="#FFFFFF" points="397.502,280.171 397.133,279.029 396.564,279.213 					"/>
					<polygon clip-path="url(#SVGID_256_)" fill="#FFFFFF" points="397.502,280.171 396.534,279.467 396.886,278.98 					"/>
					<polygon clip-path="url(#SVGID_256_)" fill="#FFFFFF" points="396.095,280.171 397.065,279.467 396.713,278.98 					"/>
					<polygon clip-path="url(#SVGID_256_)" fill="#FFFFFF" points="396.095,280.171 396.466,279.029 397.034,279.213 					"/>
					<polygon clip-path="url(#SVGID_256_)" fill="#FFFFFF" points="382.4,282.802 382.029,283.941 382.599,284.125 					"/>
					<polygon clip-path="url(#SVGID_256_)" fill="#FFFFFF" points="382.4,282.802 382.77,283.941 382.201,284.125 					"/>
					<polygon clip-path="url(#SVGID_256_)" fill="#FFFFFF" points="383.541,283.629 382.341,283.629 382.341,284.23 					"/>
					<polygon clip-path="url(#SVGID_256_)" fill="#FFFFFF" points="383.541,283.629 382.571,284.333 382.216,283.85 					"/>
					<polygon clip-path="url(#SVGID_256_)" fill="#FFFFFF" points="381.258,283.629 382.229,284.333 382.581,283.85 					"/>
					<polygon clip-path="url(#SVGID_256_)" fill="#FFFFFF" points="381.258,283.629 382.458,283.629 382.458,284.23 					"/>
					<polygon clip-path="url(#SVGID_256_)" fill="#FFFFFF" points="383.104,284.97 382.734,283.83 382.164,284.015 					"/>
					<polygon clip-path="url(#SVGID_256_)" fill="#FFFFFF" points="383.104,284.97 382.134,284.265 382.487,283.781 					"/>
					<polygon clip-path="url(#SVGID_256_)" fill="#FFFFFF" points="381.693,284.97 382.666,284.265 382.312,283.781 					"/>
					<polygon clip-path="url(#SVGID_256_)" fill="#FFFFFF" points="381.693,284.97 382.065,283.83 382.635,284.015 					"/>
					<polygon clip-path="url(#SVGID_256_)" fill="#FFFFFF" points="387.2,282.802 386.829,283.941 387.399,284.125 					"/>
					<polygon clip-path="url(#SVGID_256_)" fill="#FFFFFF" points="387.2,282.802 387.571,283.941 387,284.125 					"/>
					<polygon clip-path="url(#SVGID_256_)" fill="#FFFFFF" points="388.34,283.629 387.141,283.629 387.141,284.23 					"/>
					<polygon clip-path="url(#SVGID_256_)" fill="#FFFFFF" points="388.34,283.629 387.371,284.333 387.016,283.85 					"/>
					<polygon clip-path="url(#SVGID_256_)" fill="#FFFFFF" points="386.059,283.629 387.028,284.333 387.38,283.85 					"/>
					<polygon clip-path="url(#SVGID_256_)" fill="#FFFFFF" points="386.059,283.629 387.258,283.629 387.258,284.23 					"/>
					<polygon clip-path="url(#SVGID_256_)" fill="#FFFFFF" points="387.903,284.97 387.534,283.83 386.964,284.015 					"/>
					<polygon clip-path="url(#SVGID_256_)" fill="#FFFFFF" points="387.903,284.97 386.934,284.265 387.287,283.781 					"/>
					<polygon clip-path="url(#SVGID_256_)" fill="#FFFFFF" points="386.494,284.97 387.465,284.265 387.113,283.781 					"/>
					<polygon clip-path="url(#SVGID_256_)" fill="#FFFFFF" points="386.494,284.97 386.866,283.83 387.434,284.015 					"/>
					<polygon clip-path="url(#SVGID_256_)" fill="#FFFFFF" points="392,282.802 391.629,283.941 392.199,284.125 					"/>
					<polygon clip-path="url(#SVGID_256_)" fill="#FFFFFF" points="392,282.802 392.37,283.941 391.801,284.125 					"/>
					<polygon clip-path="url(#SVGID_256_)" fill="#FFFFFF" points="393.14,283.629 391.94,283.629 391.94,284.23 					"/>
					<polygon clip-path="url(#SVGID_256_)" fill="#FFFFFF" points="393.14,283.629 392.17,284.333 391.817,283.85 					"/>
					<polygon clip-path="url(#SVGID_256_)" fill="#FFFFFF" points="390.858,283.629 391.83,284.333 392.182,283.85 					"/>
					<polygon clip-path="url(#SVGID_256_)" fill="#FFFFFF" points="390.858,283.629 392.058,283.629 392.058,284.23 					"/>
					<polygon clip-path="url(#SVGID_256_)" fill="#FFFFFF" points="392.705,284.97 392.333,283.83 391.764,284.015 					"/>
					<polygon clip-path="url(#SVGID_256_)" fill="#FFFFFF" points="392.705,284.97 391.733,284.265 392.085,283.781 					"/>
					<polygon clip-path="url(#SVGID_256_)" fill="#FFFFFF" points="391.292,284.97 392.264,284.265 391.914,283.781 					"/>
					<polygon clip-path="url(#SVGID_256_)" fill="#FFFFFF" points="391.292,284.97 391.665,283.83 392.236,284.015 					"/>
					<polygon clip-path="url(#SVGID_256_)" fill="#FFFFFF" points="396.798,282.802 396.429,283.941 396.999,284.125 					"/>
					<polygon clip-path="url(#SVGID_256_)" fill="#FFFFFF" points="396.798,282.802 397.17,283.941 396.599,284.125 					"/>
					<polygon clip-path="url(#SVGID_256_)" fill="#FFFFFF" points="397.941,283.629 396.742,283.629 396.742,284.23 					"/>
					<polygon clip-path="url(#SVGID_256_)" fill="#FFFFFF" points="397.941,283.629 396.97,284.333 396.617,283.85 					"/>
					<polygon clip-path="url(#SVGID_256_)" fill="#FFFFFF" points="395.659,283.629 396.627,284.333 396.983,283.85 					"/>
					<polygon clip-path="url(#SVGID_256_)" fill="#FFFFFF" points="395.659,283.629 396.858,283.629 396.858,284.23 					"/>
					<polygon clip-path="url(#SVGID_256_)" fill="#FFFFFF" points="397.502,284.97 397.133,283.83 396.564,284.015 					"/>
					<polygon clip-path="url(#SVGID_256_)" fill="#FFFFFF" points="397.502,284.97 396.534,284.265 396.886,283.781 					"/>
					<polygon clip-path="url(#SVGID_256_)" fill="#FFFFFF" points="396.095,284.97 397.065,284.265 396.713,283.781 					"/>
					<polygon clip-path="url(#SVGID_256_)" fill="#FFFFFF" points="396.095,284.97 396.466,283.83 397.034,284.015 					"/>
					<polygon clip-path="url(#SVGID_256_)" fill="#FFFFFF" points="377.6,287.601 377.23,288.742 377.798,288.927 					"/>
					<polygon clip-path="url(#SVGID_256_)" fill="#FFFFFF" points="377.6,287.601 377.97,288.742 377.4,288.927 					"/>
					<polygon clip-path="url(#SVGID_256_)" fill="#FFFFFF" points="378.741,288.43 377.542,288.43 377.542,289.029 					"/>
					<polygon clip-path="url(#SVGID_256_)" fill="#FFFFFF" points="378.741,288.43 377.771,289.135 377.417,288.648 					"/>
					<polygon clip-path="url(#SVGID_256_)" fill="#FFFFFF" points="376.458,288.43 377.428,289.135 377.781,288.648 					"/>
					<polygon clip-path="url(#SVGID_256_)" fill="#FFFFFF" points="376.458,288.43 377.658,288.43 377.658,289.029 					"/>
					<polygon clip-path="url(#SVGID_256_)" fill="#FFFFFF" points="378.304,289.771 377.934,288.629 377.364,288.816 					"/>
					<polygon clip-path="url(#SVGID_256_)" fill="#FFFFFF" points="378.304,289.771 377.334,289.066 377.686,288.58 					"/>
					<polygon clip-path="url(#SVGID_256_)" fill="#FFFFFF" points="376.893,289.771 377.866,289.066 377.513,288.58 					"/>
					<polygon clip-path="url(#SVGID_256_)" fill="#FFFFFF" points="376.893,289.771 377.266,288.629 377.834,288.816 					"/>
					<polygon clip-path="url(#SVGID_256_)" fill="#FFFFFF" points="382.4,287.601 382.029,288.742 382.599,288.927 					"/>
					<polygon clip-path="url(#SVGID_256_)" fill="#FFFFFF" points="382.4,287.601 382.77,288.742 382.201,288.927 					"/>
					<polygon clip-path="url(#SVGID_256_)" fill="#FFFFFF" points="383.541,288.43 382.341,288.43 382.341,289.029 					"/>
					<polygon clip-path="url(#SVGID_256_)" fill="#FFFFFF" points="383.541,288.43 382.571,289.135 382.216,288.648 					"/>
					<polygon clip-path="url(#SVGID_256_)" fill="#FFFFFF" points="381.258,288.43 382.229,289.135 382.581,288.648 					"/>
					<polygon clip-path="url(#SVGID_256_)" fill="#FFFFFF" points="381.258,288.43 382.458,288.43 382.458,289.029 					"/>
					<polygon clip-path="url(#SVGID_256_)" fill="#FFFFFF" points="383.104,289.771 382.734,288.629 382.164,288.816 					"/>
					<polygon clip-path="url(#SVGID_256_)" fill="#FFFFFF" points="383.104,289.771 382.134,289.066 382.487,288.58 					"/>
					<polygon clip-path="url(#SVGID_256_)" fill="#FFFFFF" points="381.693,289.771 382.666,289.066 382.312,288.58 					"/>
					<polygon clip-path="url(#SVGID_256_)" fill="#FFFFFF" points="381.693,289.771 382.065,288.629 382.635,288.816 					"/>
					<polygon clip-path="url(#SVGID_256_)" fill="#FFFFFF" points="387.2,287.601 386.829,288.742 387.399,288.927 					"/>
					<polygon clip-path="url(#SVGID_256_)" fill="#FFFFFF" points="387.2,287.601 387.571,288.742 387,288.927 					"/>
					<polygon clip-path="url(#SVGID_256_)" fill="#FFFFFF" points="388.34,288.43 387.141,288.43 387.141,289.029 					"/>
					<polygon clip-path="url(#SVGID_256_)" fill="#FFFFFF" points="388.34,288.43 387.371,289.135 387.016,288.648 					"/>
					<polygon clip-path="url(#SVGID_256_)" fill="#FFFFFF" points="386.059,288.43 387.028,289.135 387.38,288.648 					"/>
					<polygon clip-path="url(#SVGID_256_)" fill="#FFFFFF" points="386.059,288.43 387.258,288.43 387.258,289.029 					"/>
					<polygon clip-path="url(#SVGID_256_)" fill="#FFFFFF" points="387.903,289.771 387.534,288.629 386.964,288.816 					"/>
					<polygon clip-path="url(#SVGID_256_)" fill="#FFFFFF" points="387.903,289.771 386.934,289.066 387.287,288.58 					"/>
					<polygon clip-path="url(#SVGID_256_)" fill="#FFFFFF" points="386.494,289.771 387.465,289.066 387.113,288.58 					"/>
					<polygon clip-path="url(#SVGID_256_)" fill="#FFFFFF" points="386.494,289.771 386.866,288.629 387.434,288.816 					"/>
					<polygon clip-path="url(#SVGID_256_)" fill="#FFFFFF" points="392,287.601 391.629,288.742 392.199,288.927 					"/>
					<polygon clip-path="url(#SVGID_256_)" fill="#FFFFFF" points="392,287.601 392.37,288.742 391.801,288.927 					"/>
					<polygon clip-path="url(#SVGID_256_)" fill="#FFFFFF" points="393.14,288.43 391.94,288.43 391.94,289.029 					"/>
					<polygon clip-path="url(#SVGID_256_)" fill="#FFFFFF" points="393.14,288.43 392.17,289.135 391.817,288.648 					"/>
					<polygon clip-path="url(#SVGID_256_)" fill="#FFFFFF" points="390.858,288.43 391.83,289.135 392.182,288.648 					"/>
					<polygon clip-path="url(#SVGID_256_)" fill="#FFFFFF" points="390.858,288.43 392.058,288.43 392.058,289.029 					"/>
					<polygon clip-path="url(#SVGID_256_)" fill="#FFFFFF" points="392.705,289.771 392.333,288.629 391.764,288.816 					"/>
					<polygon clip-path="url(#SVGID_256_)" fill="#FFFFFF" points="392.705,289.771 391.733,289.066 392.085,288.58 					"/>
					<polygon clip-path="url(#SVGID_256_)" fill="#FFFFFF" points="391.292,289.771 392.264,289.066 391.914,288.58 					"/>
					<polygon clip-path="url(#SVGID_256_)" fill="#FFFFFF" points="391.292,289.771 391.665,288.629 392.236,288.816 					"/>
					<polygon clip-path="url(#SVGID_256_)" fill="#FFFFFF" points="396.798,287.601 396.429,288.742 396.999,288.927 					"/>
					<polygon clip-path="url(#SVGID_256_)" fill="#FFFFFF" points="396.798,287.601 397.17,288.742 396.599,288.927 					"/>
					<polygon clip-path="url(#SVGID_256_)" fill="#FFFFFF" points="397.941,288.43 396.742,288.43 396.742,289.029 					"/>
					<polygon clip-path="url(#SVGID_256_)" fill="#FFFFFF" points="397.941,288.43 396.97,289.135 396.617,288.648 					"/>
					<polygon clip-path="url(#SVGID_256_)" fill="#FFFFFF" points="395.659,288.43 396.627,289.135 396.983,288.648 					"/>
					<polygon clip-path="url(#SVGID_256_)" fill="#FFFFFF" points="395.659,288.43 396.858,288.43 396.858,289.029 					"/>
					<polygon clip-path="url(#SVGID_256_)" fill="#FFFFFF" points="397.502,289.771 397.133,288.629 396.564,288.816 					"/>
					<polygon clip-path="url(#SVGID_256_)" fill="#FFFFFF" points="397.502,289.771 396.534,289.066 396.886,288.58 					"/>
					<polygon clip-path="url(#SVGID_256_)" fill="#FFFFFF" points="396.095,289.771 397.065,289.066 396.713,288.58 					"/>
					<polygon clip-path="url(#SVGID_256_)" fill="#FFFFFF" points="396.095,289.771 396.466,288.629 397.034,288.816 					"/>
				</g>
			</g>
		</g>
	</g>
</g>
</svg>
