<?xml version="1.0" encoding="utf-8"?>
<!-- Generator: Adobe Illustrator 16.0.0, SVG Export Plug-In . SVG Version: 6.00 Build 0)  -->
<!DOCTYPE svg PUBLIC "-//W3C//DTD SVG 1.1//EN" "http://www.w3.org/Graphics/SVG/1.1/DTD/svg11.dtd">
<svg version="1.1" id="name" xmlns="http://www.w3.org/2000/svg" xmlns:xlink="http://www.w3.org/1999/xlink" x="0px" y="0px"
	 width="85.71px" height="50px" viewBox="358 276 85.71 50" enable-background="new 358 276 85.71 50" xml:space="preserve">
<g id="ve">
	<g>
		<defs>
			<rect id="SVGID_1_" x="358" y="276" width="85.71" height="50"/>
		</defs>
		<clipPath id="SVGID_2_">
			<use xlink:href="#SVGID_1_"  overflow="visible"/>
		</clipPath>
		<rect x="358" y="276" clip-path="url(#SVGID_2_)" fill="#EED131" width="85.71" height="16.666"/>
		<rect x="358" y="292.666" clip-path="url(#SVGID_2_)" fill="#2F3E99" width="85.71" height="16.668"/>
		<rect x="358" y="309.334" clip-path="url(#SVGID_2_)" fill="#BD1F38" width="85.71" height="16.666"/>
		<polygon clip-path="url(#SVGID_2_)" fill="#FFFFFF" points="397.125,298.601 397.793,293.856 400.043,298.087 395.737,295.987 
			400.456,295.154 		"/>
		<polygon clip-path="url(#SVGID_2_)" fill="#FFFFFF" points="401.668,298.087 403.918,293.856 404.586,298.601 401.256,295.154 
			405.975,295.987 		"/>
		<polygon clip-path="url(#SVGID_2_)" fill="#FFFFFF" points="393.032,300.641 392.038,295.95 395.596,299.158 390.833,298.658 
			394.983,296.26 		"/>
		<polygon clip-path="url(#SVGID_2_)" fill="#FFFFFF" points="406.113,299.158 409.674,295.95 408.678,300.641 406.729,296.26 
			410.879,298.658 		"/>
		<polygon clip-path="url(#SVGID_2_)" fill="#FFFFFF" points="389.883,303.953 387.344,299.888 391.788,301.684 387.137,302.843 
			390.219,299.172 		"/>
		<polygon clip-path="url(#SVGID_2_)" fill="#FFFFFF" points="409.924,301.684 414.367,299.888 411.828,303.953 411.492,299.172 
			414.574,302.843 		"/>
		<polygon clip-path="url(#SVGID_2_)" fill="#FFFFFF" points="388.057,308.145 384.282,305.195 389.071,305.359 385.096,308.042 
			386.735,303.539 		"/>
		<polygon clip-path="url(#SVGID_2_)" fill="#FFFFFF" points="412.641,305.359 417.43,305.195 413.654,308.145 414.975,303.539 
			416.615,308.042 		"/>
	</g>
</g>
</svg>
