<?xml version="1.0" encoding="utf-8"?>
<!-- Generator: Adobe Illustrator 16.0.0, SVG Export Plug-In . SVG Version: 6.00 Build 0)  -->
<!DOCTYPE svg PUBLIC "-//W3C//DTD SVG 1.1//EN" "http://www.w3.org/Graphics/SVG/1.1/DTD/svg11.dtd">
<svg version="1.1" id="name" xmlns="http://www.w3.org/2000/svg" xmlns:xlink="http://www.w3.org/1999/xlink" x="0px" y="0px"
	 width="85.71px" height="50px" viewBox="358 276 85.71 50" enable-background="new 358 276 85.71 50" xml:space="preserve">
<g id="vi">
	<g>
		<defs>
			<rect id="SVGID_1_" x="358" y="276" width="85.71" height="50"/>
		</defs>
		<clipPath id="SVGID_2_">
			<use xlink:href="#SVGID_1_"  overflow="visible"/>
		</clipPath>
		<rect x="358" y="276" clip-path="url(#SVGID_2_)" fill="#FFFFFF" width="85.71" height="50"/>
		<g clip-path="url(#SVGID_2_)">
			<defs>
				<rect id="SVGID_3_" x="358" y="276" width="85.71" height="50"/>
			</defs>
			<clipPath id="SVGID_4_">
				<use xlink:href="#SVGID_3_"  overflow="visible"/>
			</clipPath>
			<path clip-path="url(#SVGID_4_)" fill-rule="evenodd" clip-rule="evenodd" fill="#F6D629" d="M407.504,294.004
				c0-0.347-0.111-1.014-0.475-1.244c-0.469-0.244-0.469-0.395-0.506-0.713s0.785-0.915,0.785-0.915s-0.748-0.338-1.027-0.302
				c-0.281,0.037-0.824,0.094-0.9,0.168c-0.074,0.077-0.486-1.347-0.225-1.57c0.264-0.225,0.807,0.522,0.807,0.522
				s0.354-0.821-0.9-2.396c0.432-3.068-2.432-3.778-3.088-3.762c-0.543-0.073-1.946,0.43-2.167,1.105
				c-0.713,0.241-0.75,0.861-0.75,0.861s-1.46,0.261-1.648,1.533c0.861-0.71,1.424,0.074,1.424,0.074s0.749,0.525,1.141,0.543
				c0.394,0.02-0.373,1.31-0.598,1.537c-0.225,0.222-1.161,1.085-1.122,1.139c0.036,0.057,0.727,0.262,0.691,0.58
				c-0.038,0.318-2.132,1.293-2.021,1.537c0.543-0.171,0.966-0.04,0.966-0.04c0.075,0.531-0.136,1.142-0.496,1.341H407.504z"/>
			<g clip-path="url(#SVGID_4_)">
				<path fill="#010101" d="M407.58,294.078h-10.476l0.254-0.14c0.315-0.173,0.522-0.735,0.46-1.238
					c-0.028,0.015-0.156-0.009-0.325-0.009c-0.183,0-0.367,0.028-0.547,0.082c-0.037-0.045-0.051-0.09-0.042-0.139l-0.002-0.003
					h0.002c0.032-0.171,0.347-0.372,0.957-0.747c0.397-0.242,0.996-0.605,1.009-0.728c0.022-0.182-0.341-0.35-0.515-0.429
					c-0.109-0.051-0.145-0.071-0.164-0.1c-0.05-0.074-0.065-0.094,0.875-0.988l0.257-0.248c0.197-0.198,0.764-1.17,0.679-1.389
					c-0.441-0.037-1.181-0.555-1.212-0.574c-0.021-0.022-0.27-0.36-0.67-0.36c-0.213,0-0.438,0.094-0.662,0.281l-0.15,0.122
					l0.028-0.19c0.186-1.262,1.585-1.571,1.702-1.597c-0.047-0.018,0.028-0.613,0.744-0.858c0.193-0.685,1.66-1.176,2.205-1.107
					h0.002c0.48,0,1.691,0.29,2.471,1.19c0.602,0.69,0.828,1.582,0.678,2.653c1.254,1.534,0.91,2.381,0.895,2.418l-0.053,0.119
					l-0.076-0.105c-0.15-0.207-0.455-0.536-0.631-0.536c-0.08,0.036-0.113,0.079-0.123,0.215c-0.029,0.43,0.199,1.191,0.268,1.268
					c-0.016-0.068,0.223-0.107,0.729-0.168l0.125-0.017c0.418-0.003,1.043,0.292,1.068,0.307l0.119,0.052l-0.104,0.076
					c-0.305,0.222-0.779,0.647-0.756,0.847c0.037,0.321,0.051,0.438,0.465,0.653c0.41,0.262,0.518,0.972,0.518,1.312V294.078
					L407.58,294.078z M397.608,293.93h9.82c-0.016-0.366-0.137-0.917-0.438-1.107c-0.461-0.238-0.5-0.406-0.537-0.732
					c-0.037-0.318,0.463-0.751,0.709-0.941c-0.203-0.085-0.619-0.247-0.832-0.247l-0.168,0.021c-0.215,0.025-0.666,0.082-0.73,0.131
					c-0.119,0.027-0.156-0.029-0.213-0.183c-0.07-0.188-0.389-1.261-0.109-1.5c0.219-0.188,0.629,0.185,0.814,0.409
					c0.035-0.289-0.004-1.031-0.92-2.179c0.131-1.083-0.086-1.938-0.656-2.595c-0.75-0.86-1.904-1.139-2.348-1.139
					c-0.068-0.006-0.104-0.006-0.143-0.006c-0.613,0-1.793,0.494-1.979,1.06c-0.702,0.271-0.745,0.818-0.746,0.844
					c-0.072,0.065-1.325,0.308-1.609,1.353c0.199-0.131,0.4-0.195,0.597-0.195c0.478,0,0.762,0.383,0.772,0.402l0,0
					c0.009,0,0.724,0.495,1.085,0.512c0.078,0.003,0.137,0.046,0.164,0.113c0.125,0.321-0.533,1.367-0.712,1.549l-0.26,0.25
					c-0.237,0.225-0.709,0.674-0.822,0.818c0.005,0.009,0.045,0.014,0.07,0.025c0.237,0.108,0.634,0.293,0.603,0.582
					c-0.022,0.186-0.426,0.441-1.081,0.839c-0.288,0.176-0.691,0.423-0.863,0.573c0.383-0.085,0.825,0,0.834,0.006
					C398.023,293.117,397.875,293.646,397.608,293.93L397.608,293.93z"/>
			</g>
			<path clip-path="url(#SVGID_4_)" fill-rule="evenodd" clip-rule="evenodd" fill="#F6D629" d="M406.951,308.025
				c0,0,0.096,1.127-0.383,1.602c2.117,0.137,3.26,2.29,3.281,2.805c0.018,0.514-0.648,0.914-0.648,0.914s0.227,0.918-0.648,1.068
				c0.02,0.878-0.592,0.878-0.592,0.878s-0.23,0.725-0.936,0.685c-0.209,1.049-1.297,1.031-1.297,1.031s-0.627,1.526-1.561,0.936
				c-0.592,1.295-2.156,1.238-2.748,0c-0.322-0.021-1.047,0.42-1.488-0.878c-0.972,0.173-1.353-1.068-1.353-1.068
				s-0.649-0.058-0.896-0.705c-0.763-0.153-0.628-0.915-0.628-0.915s-0.763-0.21-0.745-1.051c-0.608-0.361-0.553-1.009-0.553-1.009
				s0.478-2.25,3.243-2.728c-0.44-0.627-0.381-1.545-0.381-1.545L406.951,308.025z"/>
			<g clip-path="url(#SVGID_4_)">
				<path fill="#010101" d="M402.812,318.966c-0.607,0-1.168-0.378-1.459-0.991c-0.006,0.042-0.068,0.054-0.141,0.064
					c-0.098,0.018-0.207,0.035-0.324,0.035c-0.473,0-0.8-0.312-1.026-0.986c0.016,0.062-0.05,0.068-0.112,0.068
					c-0.864,0-1.212-1.043-1.239-1.134c-0.011,0.04-0.645-0.046-0.897-0.704c-0.719-0.111-0.647-0.839-0.634-0.941
					c-0.054,0.035-0.761-0.224-0.744-1.051c-0.605-0.318-0.556-0.988-0.554-1.018c0.007-0.031,0.508-2.252,3.193-2.772
					c-0.381-0.634-0.333-1.457-0.331-1.494l8.407-0.091c0.072,0.107,0.154,1.082-0.232,1.613c2.072,0.228,3.186,2.367,3.205,2.864
					c0.018,0.522-0.586,0.92-0.674,0.978c0.043,0.008,0.117,0.408-0.09,0.725c-0.123,0.189-0.324,0.309-0.594,0.357
					c0.068,0.259-0.012,0.514-0.176,0.682c-0.172,0.174-0.375,0.193-0.422,0.196c0.031,0.037-0.221,0.688-0.889,0.688
					c-0.195,1.017-1.299,1.028-1.346,1.028c0.045,0-0.404,1.071-1.137,1.071c-0.133,0-0.266-0.037-0.398-0.105
					C403.908,318.625,403.395,318.966,402.812,318.966L402.812,318.966z M401.4,317.866c0.355,0.603,0.861,0.952,1.412,0.952
					c0.545,0,1.027-0.338,1.287-0.906c0.01-0.021,0.025-0.037,0.045-0.043c0.023-0.006,0.043-0.003,0.062,0.009
					c0.131,0.085,0.262,0.125,0.391,0.125c0.633,0,1.059-1.015,1.062-1.023c0.178-0.045,1.105-0.073,1.293-1.017
					c0.008-0.034,0.092-0.06,0.127-0.06c0.6,0,0.801-0.608,0.811-0.637c0.078-0.051,0.25-0.054,0.395-0.202
					c0.133-0.139,0.199-0.357,0.193-0.65c0.289-0.113,0.457-0.213,0.557-0.366c0.189-0.287,0.094-0.679,0.094-0.682
					c0.039-0.085,0.662-0.469,0.645-0.933c-0.018-0.482-1.135-2.6-3.211-2.732c-0.027,0-0.053-0.02-0.064-0.049
					c-0.01-0.025-0.004-0.057,0.018-0.079c0.447-0.443,0.361-1.531,0.359-1.543l-8.243,0.091c0.056,0.055,0.038,0.867,0.428,1.427
					c0.016,0.02,0.019,0.048,0.009,0.071c-0.011,0.022-0.031,0.039-0.058,0.045c-2.685,0.463-3.176,2.645-3.182,2.668
					c0,0.017-0.041,0.597,0.52,0.932c0.021,0.838,0.719,1.04,0.727,1.04c0.05,0.116-0.059,0.778,0.622,0.915
					c0.282,0.642,0.865,0.701,0.891,0.704c0.071,0.065,0.432,1.216,1.332,1.068c0.5,1.196,0.966,0.952,1.267,0.9
					C401.268,317.878,401.338,317.866,401.4,317.866L401.4,317.866z"/>
			</g>
			<path clip-path="url(#SVGID_4_)" fill-rule="evenodd" clip-rule="evenodd" fill="#F6D629" d="M393.708,295.121
				c0,0-1.509,1.622-2.263,0.408c-0.753-1.21,1.05-1.551,1.075-1.573c0.021-0.022,1.048-0.344,1.141-2.239
				c0.089-1.895-2.261-3.128-2.922-3.287c-0.662-0.162-2.605-0.162-2.605-0.162s-7.1-1.713-7.83-2.235
				c-0.73-0.525-7.444-1.759-7.444-1.759s-1.073-0.137-0.982,0.821c0.091,0.96,0.982,1.073,0.982,1.073s-0.753,0.594-0.663,1.12
				c0.092,0.525,0.663,1.369,1.85,1.232c-0.137,1.872,2.466,2.168,2.466,2.168s0.274,2.696,2.673,2.56
				c0.569,1.85,2.717,1.918,2.717,1.918s1.004,1.256,2.466,1.347c0.845,2.1,2.673,1.506,2.673,1.506s-0.137,1.324,0.706,1.324
				c-0.434,1.509,1.188,1.713,1.806,1.417c0.158,0.321,0.705,1.302,1.961,0.686c0.755,1.119,1.987,0.594,1.987,0.594
				s0.276,0.892,1.347,0.548C395.92,302.243,393.682,295.166,393.708,295.121L393.708,295.121z"/>
			<g clip-path="url(#SVGID_4_)">
				<path fill="#010101" d="M394.386,302.758L394.386,302.758c-0.585,0-0.85-0.412-0.938-0.603
					c-0.286,0.097-1.255,0.384-1.967-0.594c-0.255,0.119-0.501,0.176-0.729,0.176c-0.36,0-0.865-0.15-1.244-0.858
					c-0.156,0.058-0.35,0.092-0.551,0.092c-0.501,0-0.938-0.186-1.171-0.498c-0.205-0.27-0.259-0.621-0.159-1.042
					c-0.162-0.025-0.297-0.097-0.406-0.219c-0.27-0.298-0.29-0.827-0.283-1.071c-0.109,0.022-0.276,0.051-0.481,0.051
					c-0.566,0-1.603-0.216-2.177-1.645c-1.396-0.034-2.399-1.259-2.452-1.321c0.006,0.021-2.104-0.073-2.711-1.884l-0.107,0.006
					c-2.077,0-2.515-2.147-2.581-2.574c-0.42-0.068-2.513-0.482-2.48-2.15c-1.184,0.082-1.748-0.762-1.844-1.321
					c-0.073-0.429,0.336-0.878,0.56-1.085c-0.286-0.097-0.811-0.369-0.88-1.113c-0.026-0.273,0.035-0.495,0.18-0.654
					c0.319-0.35,0.906-0.27,0.906-0.267c0.281,0.051,6.749,1.241,7.487,1.772c0.708,0.509,7.728,2.205,7.799,2.222
					c0.054-0.009,1.939,0,2.604,0.162c0.661,0.159,3.089,1.409,2.993,3.384c-0.076,1.565-0.767,2.117-1.17,2.307
					c-0.85,0.239-1.106,0.529-1.188,0.736c-0.083,0.207-0.037,0.446,0.129,0.716c0.169,0.272,0.385,0.403,0.658,0.403
					c0.676,0,1.448-0.821,1.455-0.829c0.031-0.034,0.084-0.04,0.124-0.012c0.037,0.025,0.05,0.077,0.028,0.119
					c0.018-0.017,0.062,0.14,0.132,0.39c1.331,4.643,1.636,6.906,0.954,7.122C394.705,302.732,394.54,302.758,394.386,302.758
					L394.386,302.758z M393.499,301.945c0.013,0,0.027,0.002,0.04,0.008c0.023,0.012,0.042,0.031,0.05,0.057
					c0.008,0.023,0.185,0.562,0.798,0.562l0,0c0.134,0,0.278-0.025,0.432-0.076c0.309-0.097,0.577-1.125-1.076-6.893
					c-0.037-0.133-0.065-0.23-0.086-0.301c-0.255,0.241-0.878,0.77-1.474,0.77c-0.339,0-0.612-0.164-0.817-0.494
					c-0.2-0.321-0.249-0.616-0.145-0.881c0.141-0.357,0.553-0.634,1.223-0.815c0.355-0.159,1.049-0.645,1.124-2.168
					c0.086-1.832-2.246-3.048-2.852-3.193c-0.644-0.156-2.562-0.159-2.582-0.159c-0.312-0.07-7.148-1.725-7.885-2.256
					c-0.564-0.406-5.092-1.314-7.406-1.741l0,0c-0.006,0-0.497-0.057-0.74,0.21c-0.109,0.119-0.153,0.293-0.133,0.512
					c0.082,0.875,0.893,0.992,0.902,0.992c0.036,0.005,0.066,0.031,0.076,0.067c0.012,0.034-0.002,0.074-0.031,0.097
					c-0.008,0.006-0.709,0.565-0.628,1.028c0.087,0.509,0.631,1.284,1.747,1.156c0.027-0.005,0.055,0.006,0.075,0.026
					c0.021,0.02,0.03,0.045,0.028,0.073c-0.129,1.765,2.357,2.068,2.383,2.071c0.044,0.006,0.078,0.04,0.083,0.082
					c0.01,0.103,0.278,2.48,2.404,2.48l0.17-0.006c0.048-0.006,0.081,0.025,0.094,0.065c0.544,1.765,2.61,1.853,2.631,1.853
					c0.08,0.049,1.067,1.259,2.468,1.347c0.589,1.321,1.451,1.585,2.085,1.585c0.324,0,0.552-0.073,0.555-0.073
					c0.028-0.009,0.062-0.003,0.086,0.017c0.024,0.021,0.039,0.052,0.034,0.083c-0.001,0.005-0.069,0.728,0.229,1.057
					c0.1,0.11,0.225,0.165,0.386,0.165c0.029,0,0.057,0.011,0.075,0.037c0.017,0.022,0.022,0.054,0.014,0.082
					c-0.117,0.412-0.085,0.744,0.102,0.991c0.197,0.262,0.581,0.421,1.021,0.421c0.21,0,0.411-0.04,0.554-0.108
					c0.045-0.02,0.1-0.003,0.122,0.046c0.404,0.81,1.038,1.034,1.838,0.642c0.04-0.022,0.093-0.009,0.119,0.031
					c0.302,0.449,0.719,0.674,1.236,0.674c0.357,0,0.634-0.114,0.637-0.114C393.474,301.947,393.486,301.945,393.499,301.945
					L393.499,301.945z"/>
			</g>
			<path clip-path="url(#SVGID_4_)" fill-rule="evenodd" clip-rule="evenodd" fill="#F6D629" d="M389.048,289.592
				c0,0,1.664,0.185,1.46,2.765L389.048,289.592z"/>
			<g clip-path="url(#SVGID_4_)">
				<path fill="#010101" d="M390.508,292.45c-0.003,0-0.006,0-0.006,0c-0.054-0.003-0.091-0.048-0.088-0.1
					c0.196-2.463-1.361-2.662-1.378-2.665c-0.051-0.006-0.088-0.051-0.082-0.102c0.005-0.055,0.047-0.103,0.102-0.083
					c0.019,0.003,1.756,0.222,1.546,2.861C390.598,292.413,390.556,292.45,390.508,292.45L390.508,292.45z"/>
			</g>
			<path clip-path="url(#SVGID_4_)" fill-rule="evenodd" clip-rule="evenodd" fill="#F6D629" d="M382.7,286.922
				c0,0-3.197,2.193,2.785,2.877L382.7,286.922z"/>
			<g clip-path="url(#SVGID_4_)">
				<path fill="#010101" d="M385.485,289.893c-0.003,0-0.007,0-0.01,0c-2.268-0.258-3.512-0.772-3.698-1.525
					c-0.194-0.781,0.826-1.491,0.87-1.522c0.043-0.028,0.101-0.017,0.13,0.025c0.029,0.043,0.019,0.1-0.024,0.131
					c-0.01,0.006-0.957,0.665-0.794,1.323c0.114,0.458,0.82,1.072,3.537,1.385c0.052,0.005,0.089,0.051,0.083,0.102
					C385.573,289.859,385.532,289.893,385.485,289.893L385.485,289.893z"/>
			</g>
			<path clip-path="url(#SVGID_4_)" fill-rule="evenodd" clip-rule="evenodd" fill="#F6D629" d="M383.614,289.504
				c-0.024,0.045-1.507,1.801,1.231,2.327c-1.301,1.232,1.143,1.645,1.143,1.645s-0.503,1.302,0.958,1.646
				c-0.479,1.346,1.097,1.278,1.097,1.278s0.047,1.645,1.919,1.619c-0.024,1.119,1.277,1.188,1.277,1.188s0.389,1.213,1.645,0.847
				c0.137,0.844,1.004,0.662,1.004,0.662L383.614,289.504z"/>
			<g clip-path="url(#SVGID_4_)">
				<path fill="#010101" d="M393.693,300.825c-0.153,0-0.366-0.028-0.551-0.156c-0.165-0.11-0.275-0.281-0.33-0.5
					c-1.088,0.259-1.539-0.634-1.639-0.875c-0.262-0.031-1.263-0.216-1.305-1.182c-1.597-0.025-1.866-1.271-1.91-1.619
					c-0.218-0.006-0.774-0.058-1.046-0.424c-0.166-0.224-0.194-0.522-0.086-0.884c-0.424-0.119-0.72-0.332-0.881-0.636
					c-0.204-0.39-0.13-0.81-0.078-1.003c-0.327-0.068-1.303-0.318-1.472-0.872c-0.075-0.245,0.014-0.509,0.263-0.787
					c-0.814-0.182-1.315-0.503-1.492-0.955c-0.161-0.417-0.036-0.938,0.356-1.463c0.024-0.046,0.084-0.068,0.13-0.046
					c0.046,0.023,0.067,0.074,0.044,0.123c-0.003,0.002-0.021,0.028-0.024,0.033c-0.352,0.475-0.469,0.93-0.331,1.285
					c0.162,0.417,0.675,0.713,1.521,0.875c0.034,0.005,0.062,0.031,0.072,0.064c0.01,0.034,0,0.068-0.025,0.094
					c-0.285,0.271-0.398,0.515-0.334,0.723c0.138,0.451,1.078,0.704,1.428,0.761c0.028,0.006,0.052,0.022,0.065,0.048
					c0.015,0.023,0.017,0.052,0.007,0.08c-0.002,0.003-0.194,0.518,0.037,0.955c0.146,0.275,0.435,0.466,0.855,0.564
					c0.025,0.006,0.048,0.023,0.06,0.046c0.013,0.022,0.016,0.051,0.006,0.077c-0.122,0.344-0.112,0.613,0.028,0.804
					c0.275,0.375,0.972,0.353,0.978,0.35c0.028,0,0.048,0.009,0.068,0.025c0.017,0.017,0.028,0.04,0.028,0.065
					c0.003,0.062,0.05,1.512,1.823,1.528c0.011,0,0.05,0.012,0.068,0.028c0.018,0.018,0.027,0.043,0.025,0.068
					c-0.021,1.018,1.142,1.091,1.19,1.091c0.039,0.003,0.071,0.028,0.084,0.065c0.016,0.045,0.377,1.119,1.53,0.784
					c0.025-0.009,0.053-0.003,0.075,0.011c0.022,0.015,0.038,0.037,0.041,0.062c0.037,0.219,0.128,0.381,0.272,0.48
					c0.259,0.176,0.618,0.108,0.623,0.108c0.051-0.006,0.099,0.02,0.11,0.071c0.01,0.051-0.022,0.099-0.074,0.11
					C393.899,300.809,393.814,300.825,393.693,300.825L393.693,300.825z"/>
			</g>
			<path clip-path="url(#SVGID_4_)" fill-rule="evenodd" clip-rule="evenodd" fill="#EEE93A" d="M393.523,302.062
				c0,0,0.067-1.165-0.205-1.393L393.523,302.062z"/>
			<g clip-path="url(#SVGID_4_)">
				<path fill="#010101" d="M393.523,302.155c0,0-0.003,0-0.006,0c-0.052-0.003-0.09-0.046-0.087-0.097
					c0.024-0.435,0.002-1.174-0.172-1.318c-0.04-0.034-0.045-0.094-0.012-0.134c0.031-0.04,0.092-0.045,0.131-0.011
					c0.296,0.247,0.25,1.27,0.239,1.472C393.614,302.118,393.573,302.155,393.523,302.155L393.523,302.155z"/>
			</g>
			<path clip-path="url(#SVGID_4_)" fill-rule="evenodd" clip-rule="evenodd" fill="#EEE93A" d="M391.445,301.422
				c0.023-0.022,0.55-1.07,0.366-1.256L391.445,301.422z"/>
			<g clip-path="url(#SVGID_4_)">
				<path fill="#010101" d="M391.445,301.516c-0.026,0-0.05-0.008-0.07-0.028c-0.031-0.036-0.031-0.088-0.004-0.122
					c0.116-0.179,0.47-1.025,0.374-1.131c-0.034-0.039-0.033-0.1,0.004-0.133c0.037-0.035,0.092-0.035,0.128,0
					c0.047,0.045,0.069,0.116,0.066,0.21c-0.009,0.353-0.378,1.128-0.435,1.179C391.49,301.508,391.467,301.516,391.445,301.516
					L391.445,301.516z"/>
			</g>
			<path clip-path="url(#SVGID_4_)" fill-rule="evenodd" clip-rule="evenodd" fill="#EEE93A" d="M389.527,300.76l1.416-1.392
				L389.527,300.76z"/>
			<g clip-path="url(#SVGID_4_)">
				<path fill="#010101" d="M389.527,300.854c-0.024,0-0.049-0.008-0.067-0.028c-0.036-0.036-0.035-0.094,0-0.13l1.418-1.393
					c0.037-0.04,0.097-0.037,0.134,0c0.034,0.037,0.034,0.097-0.003,0.131l-1.416,1.395
					C389.574,300.846,389.551,300.854,389.527,300.854L389.527,300.854z"/>
			</g>
			<path clip-path="url(#SVGID_4_)" fill-rule="evenodd" clip-rule="evenodd" fill="#EEE93A" d="M387.746,299.391
				c0.023-0.022,2.146-1.347,2.146-1.347L387.746,299.391z"/>
			<g clip-path="url(#SVGID_4_)">
				<path fill="#010101" d="M387.743,299.487c-0.025,0-0.05-0.011-0.07-0.031c-0.033-0.037-0.028-0.1,0.009-0.134
					c0.009-0.008,0.031-0.028,2.162-1.357c0.043-0.025,0.101-0.015,0.128,0.028c0.028,0.045,0.015,0.103-0.028,0.131
					c-0.829,0.517-2.085,1.301-2.143,1.341C387.784,299.481,387.764,299.487,387.743,299.487L387.743,299.487z"/>
			</g>
			<path clip-path="url(#SVGID_4_)" fill-rule="evenodd" clip-rule="evenodd" fill="#EEE93A" d="M386.993,298.044
				c0.021-0.025,1.209-0.525,1.256-0.96L386.993,298.044z"/>
			<g clip-path="url(#SVGID_4_)">
				<path fill="#010101" d="M387.019,298.121c-0.023,0-0.047-0.006-0.062-0.021c-0.036-0.034-0.067-0.082-0.034-0.119
					c0.009-0.009,0.103-0.06,0.112-0.065c0.899-0.435,1.105-0.699,1.121-0.844c0.006-0.051,0.047-0.097,0.103-0.082
					c0.051,0.006,0.088,0.051,0.082,0.105c-0.04,0.375-0.716,0.744-1.225,0.988C387.096,298.109,387.056,298.121,387.019,298.121
					L387.019,298.121z"/>
			</g>
			<path clip-path="url(#SVGID_4_)" fill-rule="evenodd" clip-rule="evenodd" fill="#F6D629" d="M384.367,296.513
				c0,0,2.877,0.616,3.379-0.046L384.367,296.513z"/>
			<g clip-path="url(#SVGID_4_)">
				<path fill="#010101" d="M386.553,296.871c-0.926,0-2.02-0.228-2.207-0.268c-0.05-0.012-0.082-0.06-0.071-0.11
					c0.01-0.052,0.063-0.08,0.11-0.071c0.784,0.168,2.902,0.494,3.285-0.012c0.031-0.039,0.091-0.048,0.13-0.017
					c0.043,0.031,0.052,0.091,0.021,0.131C387.622,296.785,387.119,296.871,386.553,296.871L386.553,296.871z"/>
			</g>
			<path clip-path="url(#SVGID_4_)" fill-rule="evenodd" clip-rule="evenodd" fill="#F6D629" d="M381.969,295.144
				c0.114,0,4.315,0.457,4.703-0.068L381.969,295.144z"/>
			<g clip-path="url(#SVGID_4_)">
				<path fill="#010101" d="M385.093,295.419c-0.732,0-1.707-0.054-2.929-0.165c-0.11-0.008-0.179-0.017-0.196-0.017
					c-0.051,0-0.092-0.043-0.091-0.094c0-0.052,0.041-0.094,0.092-0.094c0.015,0,0.09,0.009,0.213,0.02
					c3.703,0.333,4.321,0.077,4.415-0.048c0.03-0.043,0.09-0.052,0.131-0.023c0.041,0.031,0.05,0.092,0.019,0.131
					C386.605,295.322,386.058,295.419,385.093,295.419L385.093,295.419z"/>
			</g>
			<path clip-path="url(#SVGID_4_)" fill-rule="evenodd" clip-rule="evenodd" fill="#F6D629" d="M379.184,293.248
				c0.068-0.022,4.977,0.912,6.369,0.205L379.184,293.248z"/>
			<g clip-path="url(#SVGID_4_)">
				<path fill="#010101" d="M383.77,293.811c-1.53,0-3.433-0.295-4.236-0.42c-0.193-0.028-0.315-0.049-0.347-0.049
					c-0.049,0.012-0.089-0.017-0.104-0.062c-0.016-0.051,0.023-0.104,0.073-0.119c0.031-0.012,0.034-0.012,0.406,0.046
					c3.188,0.494,5.188,0.551,5.949,0.165c0.049-0.023,0.103-0.006,0.126,0.039c0.022,0.046,0.005,0.103-0.041,0.125
					C385.199,293.74,384.53,293.811,383.77,293.811L383.77,293.811z"/>
			</g>
			<path clip-path="url(#SVGID_4_)" fill-rule="evenodd" clip-rule="evenodd" fill="#F6D629" d="M376.832,290.711
				c0.114,0,6.53,1.555,7.488,1.077L376.832,290.711z"/>
			<g clip-path="url(#SVGID_4_)">
				<path fill="#010101" d="M383.665,291.97c-1.377,0-4.187-0.579-6.357-1.06c-0.275-0.062-0.449-0.103-0.482-0.105
					c-0.052,0-0.09-0.042-0.09-0.094c0-0.051,0.045-0.094,0.097-0.094c0.025,0,0.079,0.012,0.516,0.108
					c4.086,0.906,6.42,1.235,6.932,0.978c0.047-0.023,0.102-0.003,0.125,0.042c0.023,0.046,0.004,0.103-0.042,0.125
					C384.221,291.941,383.981,291.97,383.665,291.97L383.665,291.97z"/>
			</g>
			<path clip-path="url(#SVGID_4_)" fill-rule="evenodd" clip-rule="evenodd" fill="#F6D629" d="M374.388,288.476
				c0.046,0,7.649,1.778,8.607,1.048L374.388,288.476z"/>
			<g clip-path="url(#SVGID_4_)">
				<path fill="#010101" d="M381.981,289.794c-1.661,0-4.773-0.603-7.41-1.185l-0.195-0.043c-0.053,0-0.088-0.04-0.088-0.091
					c0-0.054,0.049-0.094,0.101-0.094c0.015,0,0.015,0,0.224,0.045c4.763,1.055,7.797,1.427,8.327,1.023
					c0.043-0.031,0.101-0.022,0.132,0.017c0.031,0.043,0.022,0.103-0.019,0.134C382.875,289.734,382.499,289.794,381.981,289.794
					L381.981,289.794z"/>
			</g>
			<path clip-path="url(#SVGID_4_)" fill-rule="evenodd" clip-rule="evenodd" fill="#F6D629" d="M373.406,286.308
				c0.024,0,7.286,2.375,7.901,1.781L373.406,286.308z"/>
			<g clip-path="url(#SVGID_4_)">
				<path fill="#010101" d="M380.873,288.268c-1.279,0-4.562-0.945-7.323-1.818l-0.166-0.051c-0.051,0-0.082-0.043-0.082-0.094
					s0.053-0.091,0.104-0.091c0.017,0,0.017,0,0.2,0.057c5.246,1.659,7.385,1.991,7.636,1.75c0.038-0.034,0.097-0.034,0.133,0.003
					s0.034,0.097-0.003,0.131C381.292,288.234,381.12,288.268,380.873,288.268L380.873,288.268z"/>
			</g>
			<path clip-path="url(#SVGID_4_)" fill-rule="evenodd" clip-rule="evenodd" fill="#F6D629" d="M411.934,295.172
				c0,0,1.506,1.622,2.258,0.412c0.756-1.211-1.049-1.555-1.072-1.574c-0.021-0.025-1.051-0.347-1.141-2.238
				c-0.092-1.896,2.26-3.131,2.922-3.291c0.662-0.158,2.602-0.158,2.602-0.158s7.102-1.713,7.834-2.239
				c0.73-0.525,7.445-1.756,7.445-1.756s1.07-0.139,0.979,0.821c-0.09,0.961-0.979,1.074-0.979,1.074s0.75,0.594,0.662,1.116
				c-0.094,0.525-0.662,1.369-1.85,1.233c0.135,1.875-2.469,2.17-2.469,2.17s-0.273,2.693-2.672,2.558
				c-0.57,1.85-2.715,1.917-2.715,1.917s-1.006,1.256-2.469,1.348c-0.842,2.102-2.67,1.508-2.67,1.508s0.137,1.324-0.709,1.324
				c0.434,1.506-1.188,1.713-1.803,1.418c-0.16,0.318-0.709,1.301-1.965,0.682c-0.752,1.119-1.986,0.594-1.986,0.594
				s-0.273,0.893-1.346,0.551C409.719,302.297,411.953,295.217,411.934,295.172L411.934,295.172z"/>
			<g clip-path="url(#SVGID_4_)">
				<path fill="#010101" d="M411.248,302.812c-0.15,0-0.314-0.028-0.486-0.083c-0.682-0.219-0.377-2.488,0.959-7.145
					c0.07-0.238,0.113-0.39,0.119-0.421c-0.021-0.042-0.004-0.068,0.035-0.094c0.037-0.025,0.094,0.003,0.125,0.04
					c0.008,0.009,0.781,0.83,1.457,0.83c0.271,0,0.486-0.131,0.654-0.404c0.168-0.27,0.213-0.508,0.131-0.716
					c-0.08-0.207-0.336-0.497-1.096-0.704c0-0.003-0.094-0.043-0.098-0.043c-0.396-0.182-1.09-0.732-1.164-2.299
					c-0.098-1.975,2.332-3.225,2.994-3.381c0.664-0.164,2.545-0.164,2.623-0.164c0.049-0.015,7.07-1.713,7.777-2.222
					c0.74-0.531,7.209-1.722,7.484-1.773c0.018-0.003,0.59-0.082,0.912,0.268c0.145,0.161,0.205,0.38,0.178,0.656
					c-0.07,0.741-0.594,1.017-0.879,1.11c0.223,0.211,0.633,0.659,0.559,1.088c-0.098,0.558-0.668,1.41-1.844,1.318
					c0.033,1.668-2.062,2.086-2.482,2.151c-0.066,0.426-0.502,2.573-2.578,2.573l-0.107-0.002c-0.615,1.824-2.758,1.914-2.781,1.914
					c0.029,0.018-0.977,1.256-2.465,1.348c-0.492,1.372-1.527,1.585-2.094,1.585c-0.205,0-0.373-0.025-0.482-0.049
					c0.008,0.245-0.01,0.771-0.283,1.071c-0.107,0.119-0.244,0.19-0.406,0.216c0.1,0.421,0.045,0.772-0.158,1.046
					c-0.234,0.31-0.672,0.494-1.172,0.494c-0.201,0-0.393-0.031-0.549-0.088c-0.379,0.705-0.885,0.857-1.246,0.857
					c-0.229,0-0.475-0.059-0.73-0.176c-0.711,0.975-1.68,0.688-1.967,0.594C412.1,302.396,411.836,302.812,411.248,302.812
					L411.248,302.812z M411.98,295.354c-0.018,0.068-0.045,0.159-0.078,0.284c-1.662,5.784-1.391,6.815-1.084,6.915
					c0.154,0.049,0.299,0.071,0.43,0.071c0.617,0,0.793-0.537,0.799-0.562c0.008-0.022,0.027-0.043,0.051-0.054
					c0.023-0.015,0.051-0.012,0.076-0.003c0.004,0.003,0.277,0.116,0.637,0.116c0.518,0,0.936-0.228,1.236-0.676
					c0.025-0.037,0.076-0.055,0.117-0.031c0.795,0.392,1.441,0.162,1.84-0.643c0.023-0.049,0.08-0.065,0.123-0.043
					c0.141,0.068,0.344,0.105,0.553,0.105c0.441,0,0.824-0.156,1.021-0.42c0.186-0.245,0.219-0.58,0.1-0.992
					c-0.008-0.028-0.002-0.06,0.016-0.082c0.018-0.023,0.045-0.037,0.074-0.037c0.162,0,0.287-0.054,0.387-0.162
					c0.299-0.332,0.23-1.051,0.23-1.06c-0.004-0.031,0.008-0.062,0.033-0.082c0.023-0.021,0.057-0.026,0.086-0.015
					c0.004,0,0.232,0.071,0.555,0.071c0.633,0,1.496-0.265,2.002-1.526c1.482-0.145,2.471-1.357,2.48-1.369
					c0.09-0.037,2.156-0.125,2.701-1.887c0.012-0.042,0.027-0.067,0.094-0.067l0.17,0.005c2.123,0,2.393-2.377,2.402-2.477
					c0.004-0.046,0.039-0.08,0.082-0.086c0.027-0.002,2.514-0.307,2.387-2.068c-0.004-0.028,0.008-0.057,0.027-0.073
					c0.02-0.021,0.047-0.034,0.076-0.026c1.117,0.117,1.656-0.65,1.746-1.158c0.066-0.384-0.43-0.869-0.629-1.025
					c-0.027-0.023-0.041-0.062-0.031-0.1s0.039-0.062,0.078-0.068c0.033-0.003,0.816-0.119,0.9-0.992
					c0.021-0.219-0.023-0.389-0.131-0.508c-0.246-0.271-0.736-0.211-0.746-0.211c-2.309,0.424-6.838,1.336-7.402,1.742
					c-0.736,0.528-7.574,2.182-7.865,2.253c-0.039,0.003-1.957,0.003-2.602,0.159c-0.605,0.147-2.939,1.36-2.85,3.193
					c0.072,1.522,0.768,2.008,1.062,2.147c0.73,0.204,1.143,0.48,1.283,0.838c0.104,0.265,0.055,0.563-0.146,0.884
					c-0.203,0.327-0.479,0.492-0.814,0.492C412.859,296.127,412.236,295.596,411.98,295.354L411.98,295.354z"/>
			</g>
			<path clip-path="url(#SVGID_4_)" fill-rule="evenodd" clip-rule="evenodd" fill="#F6D629" d="M416.59,289.646
				c0,0-1.668,0.182-1.463,2.761L416.59,289.646z"/>
			<g clip-path="url(#SVGID_4_)">
				<path fill="#010101" d="M415.127,292.501c-0.047,0-0.09-0.036-0.092-0.085c-0.211-2.64,1.529-2.861,1.545-2.863
					c0.051-0.015,0.098,0.031,0.104,0.082s-0.031,0.097-0.082,0.102c-0.064,0.009-1.576,0.211-1.381,2.666
					c0.004,0.051-0.035,0.096-0.086,0.099C415.131,292.501,415.131,292.501,415.127,292.501L415.127,292.501z"/>
			</g>
			<path clip-path="url(#SVGID_4_)" fill-rule="evenodd" clip-rule="evenodd" fill="#F6D629" d="M422.939,286.976
				c0,0,3.195,2.19-2.787,2.878L422.939,286.976z"/>
			<g clip-path="url(#SVGID_4_)">
				<path fill="#010101" d="M420.152,289.947c-0.045,0-0.088-0.037-0.092-0.082c-0.006-0.052,0.031-0.1,0.082-0.105
					c2.715-0.312,3.422-0.924,3.537-1.384c0.162-0.656-0.785-1.318-0.795-1.324c-0.043-0.028-0.053-0.088-0.021-0.13
					c0.027-0.04,0.086-0.055,0.127-0.023c0.045,0.028,1.064,0.738,0.869,1.523c-0.186,0.75-1.43,1.264-3.695,1.522
					C420.16,289.947,420.156,289.947,420.152,289.947L420.152,289.947z"/>
			</g>
			<path clip-path="url(#SVGID_4_)" fill-rule="evenodd" clip-rule="evenodd" fill="#F6D629" d="M422.023,289.555
				c0.023,0.046,1.51,1.805-1.232,2.33c1.301,1.232-1.143,1.643-1.143,1.643s0.504,1.304-0.959,1.645
				c0.482,1.35-1.094,1.281-1.094,1.281s-0.047,1.643-1.918,1.619c0.021,1.119-1.281,1.188-1.281,1.188s-0.385,1.211-1.641,0.844
				c-0.141,0.847-1.008,0.662-1.008,0.662L422.023,289.555z"/>
			<g clip-path="url(#SVGID_4_)">
				<path fill="#010101" d="M411.943,300.877c-0.121,0-0.207-0.018-0.213-0.018c-0.053-0.012-0.084-0.062-0.074-0.11
					c0.012-0.054,0.062-0.083,0.111-0.074c0.004,0,0.361,0.071,0.623-0.108c0.145-0.099,0.236-0.261,0.271-0.477
					c0.006-0.025,0.021-0.049,0.043-0.065c0.023-0.012,0.051-0.021,0.076-0.009c1.146,0.332,1.512-0.738,1.527-0.784
					c0.01-0.036,0.045-0.065,0.084-0.065c0.049-0.002,1.211-0.079,1.191-1.094c0-0.022,0.008-0.048,0.027-0.065
					c0.018-0.02,0.055-0.017,0.066-0.028c0.014,0,0.027,0,0.039,0c1.717,0,1.781-1.466,1.785-1.531c0-0.022,0.01-0.048,0.031-0.065
					c0.016-0.017,0.045-0.025,0.066-0.022c0.01,0,0.699,0.022,0.975-0.35c0.141-0.19,0.15-0.463,0.027-0.807
					c-0.01-0.025-0.006-0.051,0.006-0.077c0.014-0.022,0.035-0.039,0.061-0.045c0.422-0.1,0.711-0.29,0.859-0.565
					c0.23-0.435,0.037-0.949,0.037-0.955c-0.012-0.025-0.01-0.057,0.006-0.079c0.012-0.025,0.037-0.043,0.064-0.046
					c0.35-0.06,1.289-0.312,1.426-0.761c0.066-0.21-0.047-0.452-0.334-0.725c-0.025-0.022-0.035-0.06-0.025-0.094
					s0.039-0.06,0.072-0.065c0.846-0.162,1.359-0.455,1.521-0.872c0.139-0.353,0.021-0.81-0.328-1.284
					c-0.021-0.046-0.016-0.122,0.031-0.145c0.043-0.021,0.082-0.023,0.107,0.017c0.402,0.548,0.527,1.065,0.365,1.479
					c-0.178,0.452-0.68,0.771-1.494,0.952c0.25,0.278,0.338,0.546,0.266,0.79c-0.17,0.554-1.145,0.801-1.471,0.869
					c0.051,0.193,0.125,0.617-0.08,1.003c-0.16,0.304-0.457,0.521-0.881,0.637c0.107,0.363,0.08,0.659-0.086,0.884
					c-0.271,0.369-0.826,0.42-1.045,0.423c-0.045,0.353-0.312,1.597-1.91,1.622c-0.045,0.963-1.045,1.148-1.305,1.182
					c-0.102,0.242-0.553,1.129-1.639,0.873c-0.055,0.221-0.166,0.389-0.33,0.502C412.311,300.848,412.098,300.877,411.943,300.877
					L411.943,300.877z"/>
			</g>
			<path clip-path="url(#SVGID_4_)" fill-rule="evenodd" clip-rule="evenodd" fill="#EEE93A" d="M412.115,302.115
				c0,0-0.068-1.165,0.205-1.395L412.115,302.115z"/>
			<g clip-path="url(#SVGID_4_)">
				<path fill="#010101" d="M412.115,302.209c-0.049,0-0.092-0.039-0.094-0.088c-0.012-0.205-0.057-1.225,0.238-1.472
					c0.039-0.034,0.1-0.028,0.131,0.011c0.033,0.04,0.029,0.098-0.01,0.131c-0.172,0.146-0.197,0.887-0.172,1.318
					c0.002,0.052-0.037,0.097-0.088,0.1C412.117,302.209,412.117,302.209,412.115,302.209L412.115,302.209z"/>
			</g>
			<path clip-path="url(#SVGID_4_)" fill-rule="evenodd" clip-rule="evenodd" fill="#EEE93A" d="M414.191,301.477
				c-0.021-0.025-0.547-1.074-0.363-1.256L414.191,301.477z"/>
			<g clip-path="url(#SVGID_4_)">
				<path fill="#010101" d="M414.199,301.572c-0.027,0-0.057-0.014-0.076-0.033c-0.008-0.009-0.621-1.125-0.361-1.387
					c0.037-0.037,0.096-0.037,0.131,0c0.037,0.037,0.037,0.097,0,0.133c-0.094,0.108,0.258,0.949,0.375,1.137
					c0.035,0.037,0.029,0.092-0.008,0.125C414.242,301.564,414.221,301.572,414.199,301.572L414.199,301.572z"/>
			</g>
			<path clip-path="url(#SVGID_4_)" fill-rule="evenodd" clip-rule="evenodd" fill="#EEE93A" d="M416.109,300.814l-1.416-1.396
				L416.109,300.814z"/>
			<g clip-path="url(#SVGID_4_)">
				<path fill="#010101" d="M416.109,300.908c-0.023,0-0.047-0.012-0.066-0.029l-1.414-1.392c-0.037-0.037-0.037-0.097,0-0.134
					c0.035-0.037,0.094-0.037,0.131,0l1.414,1.393c0.037,0.037,0.037,0.097,0.002,0.133
					C416.158,300.896,416.135,300.908,416.109,300.908L416.109,300.908z"/>
			</g>
			<path clip-path="url(#SVGID_4_)" fill-rule="evenodd" clip-rule="evenodd" fill="#F6D629" d="M417.891,299.441
				c-0.023-0.022-2.145-1.346-2.145-1.346L417.891,299.441z"/>
			<g clip-path="url(#SVGID_4_)">
				<path fill="#010101" d="M417.891,299.535c-0.02,0-0.039-0.005-0.059-0.02c-0.072-0.051-1.314-0.826-2.135-1.341
					c-0.045-0.025-0.059-0.085-0.031-0.128s0.088-0.057,0.129-0.031c2.133,1.332,2.152,1.353,2.16,1.361
					c0.037,0.037,0.037,0.094,0,0.133C417.939,299.527,417.916,299.535,417.891,299.535L417.891,299.535z"/>
			</g>
			<path clip-path="url(#SVGID_4_)" fill-rule="evenodd" clip-rule="evenodd" fill="#EEE93A" d="M418.646,298.096
				c-0.025-0.023-1.213-0.526-1.256-0.961L418.646,298.096z"/>
			<g clip-path="url(#SVGID_4_)">
				<path fill="#010101" d="M418.646,298.189c-0.02,0-0.037-0.006-0.055-0.015c-0.576-0.281-1.256-0.65-1.295-1.028
					c-0.006-0.051,0.031-0.097,0.084-0.103c0.062-0.017,0.096,0.031,0.102,0.083c0.016,0.145,0.223,0.408,1.123,0.844
					c0.01,0.005,0.1,0.051,0.105,0.06c0.037,0.036,0.037,0.097,0,0.133C418.693,298.181,418.668,298.189,418.646,298.189
					L418.646,298.189z"/>
			</g>
			<path clip-path="url(#SVGID_4_)" fill-rule="evenodd" clip-rule="evenodd" fill="#F6D629" d="M421.27,296.564
				c0,0-2.877,0.619-3.379-0.043L421.27,296.564z"/>
			<g clip-path="url(#SVGID_4_)">
				<path fill="#010101" d="M419.084,296.922c-0.566,0-1.068-0.082-1.268-0.347c-0.031-0.04-0.023-0.1,0.018-0.131
					c0.043-0.031,0.1-0.02,0.131,0.021c0.385,0.502,2.502,0.176,3.285,0.008c0.051-0.006,0.102,0.023,0.111,0.071
					c0.012,0.052-0.021,0.103-0.072,0.11C421.104,296.697,420.01,296.922,419.084,296.922L419.084,296.922z"/>
			</g>
			<path clip-path="url(#SVGID_4_)" fill-rule="evenodd" clip-rule="evenodd" fill="#F6D629" d="M423.67,295.197
				c-0.115,0-4.318,0.455-4.705-0.071L423.67,295.197z"/>
			<g clip-path="url(#SVGID_4_)">
				<path fill="#010101" d="M420.545,295.473c-0.967,0-1.512-0.096-1.654-0.289c-0.031-0.043-0.023-0.1,0.02-0.131
					c0.041-0.031,0.1-0.023,0.131,0.02c0.094,0.128,0.711,0.384,4.416,0.049c0.121-0.012,0.197-0.018,0.213-0.018
					c0.051,0,0.09,0.04,0.092,0.091c0.002,0.052-0.041,0.094-0.092,0.094c-0.018,0-0.086,0.009-0.197,0.018
					C422.252,295.416,421.277,295.473,420.545,295.473L420.545,295.473z"/>
			</g>
			<path clip-path="url(#SVGID_4_)" fill-rule="evenodd" clip-rule="evenodd" fill="#F6D629" d="M426.453,293.3
				c-0.068-0.022-4.977,0.915-6.371,0.204L426.453,293.3z"/>
			<g clip-path="url(#SVGID_4_)">
				<path fill="#010101" d="M421.867,293.865c-0.76,0-1.428-0.074-1.826-0.275c-0.047-0.023-0.064-0.08-0.043-0.125
					c0.025-0.046,0.08-0.066,0.127-0.043c0.762,0.387,2.764,0.332,5.951-0.162c0.371-0.057,0.377-0.057,0.406-0.049
					c0.051,0.015,0.076,0.068,0.061,0.117c-0.014,0.043-0.055,0.074-0.096,0.065c-0.035,0.003-0.156,0.022-0.344,0.051
					C425.301,293.569,423.398,293.865,421.867,293.865L421.867,293.865z"/>
			</g>
			<path clip-path="url(#SVGID_4_)" fill-rule="evenodd" clip-rule="evenodd" fill="#F6D629" d="M428.807,290.766
				c-0.115,0-6.529,1.554-7.49,1.073L428.807,290.766z"/>
			<g clip-path="url(#SVGID_4_)">
				<path fill="#010101" d="M421.973,292.023c-0.318,0-0.559-0.031-0.699-0.102c-0.045-0.023-0.064-0.08-0.041-0.125
					c0.023-0.046,0.08-0.065,0.125-0.04c0.514,0.253,2.846-0.074,6.934-0.978c0.438-0.097,0.49-0.107,0.516-0.107
					c0.053,0,0.094,0.042,0.094,0.094c0,0.048-0.039,0.091-0.088,0.094c-0.035,0.002-0.209,0.042-0.48,0.102
					C426.16,291.441,423.352,292.023,421.973,292.023L421.973,292.023z"/>
			</g>
			<path clip-path="url(#SVGID_4_)" fill-rule="evenodd" clip-rule="evenodd" fill="#F6D629" d="M431.248,288.529
				c-0.045,0-7.646,1.778-8.607,1.049L431.248,288.529z"/>
			<g clip-path="url(#SVGID_4_)">
				<path fill="#010101" d="M423.658,289.845c-0.52,0-0.896-0.057-1.074-0.193c-0.041-0.031-0.049-0.091-0.018-0.13
					c0.031-0.043,0.09-0.049,0.131-0.018c0.529,0.4,3.568,0.031,8.336-1.025c0.201-0.043,0.201-0.043,0.215-0.043
					c0.053,0,0.094,0.043,0.094,0.094c0,0.046-0.035,0.085-0.082,0.091l-0.188,0.043
					C428.436,289.245,425.322,289.845,423.658,289.845L423.658,289.845z"/>
			</g>
			<path clip-path="url(#SVGID_4_)" fill-rule="evenodd" clip-rule="evenodd" fill="#F6D629" d="M432.229,286.359
				c-0.02,0-7.281,2.375-7.896,1.781L432.229,286.359z"/>
			<g clip-path="url(#SVGID_4_)">
				<path fill="#010101" d="M424.768,288.319c-0.248,0-0.42-0.034-0.502-0.111c-0.037-0.036-0.037-0.097-0.002-0.134
					c0.037-0.033,0.096-0.036,0.133-0.002c0.25,0.247,2.395-0.092,7.648-1.753c0.168-0.054,0.168-0.054,0.184-0.054
					c0.053,0,0.094,0.042,0.094,0.094c0,0.045-0.029,0.082-0.07,0.09l-0.152,0.049C429.334,287.373,426.051,288.319,424.768,288.319
					L424.768,288.319z"/>
			</g>
			<path clip-path="url(#SVGID_4_)" fill-rule="evenodd" clip-rule="evenodd" fill="#61C9D7" d="M420.658,297.939
				c0,0-0.447,6.381-0.469,6.366c-0.023-0.014-0.932-1.113-0.932-1.113l-2.805,8.802l0.652,1.918l-1.633,5.357l-1.346-1.707
				l-2.18,0.875l1.746-5.646l1.615-1.159l2.908-8.671l-1.613,0.202L420.658,297.939z"/>
			<g clip-path="url(#SVGID_4_)">
				<path fill="#010101" d="M415.502,319.429l-1.436-1.821l-2.236,0.958l1.793-5.796l1.643-1.196l2.844-8.523l-1.676,0.21
					l4.316-5.562l-0.018,0.247c-0.449,6.433-0.449,6.433-0.541,6.438c-0.053-0.023-0.074-0.037-0.904-1.037l-2.764,8.671
					l0.654,1.872L415.502,319.429L415.502,319.429z M414.098,317.491l1.344,1.622l1.594-5.222l-0.652-1.875l2.846-8.978l0.086,0.104
					c0,0,0.574,0.693,0.818,0.983c0.068-0.796,0.316-4.275,0.434-5.946l-3.793,4.887l1.551-0.193l-2.945,8.782l-1.641,1.195
					l-1.674,5.458L414.098,317.491L414.098,317.491z"/>
			</g>
			<path clip-path="url(#SVGID_4_)" fill-rule="evenodd" clip-rule="evenodd" fill="#61C9D7" d="M426.859,300.572
				c0,0-3.395,5.421-3.406,5.396c-0.012-0.02-0.299-1.421-0.299-1.421l-5.576,5.177l-5.957,5.747l-0.018-1.184l-2.037-0.25
				l2.695-2.066l1.381-0.227l8.703-7.887l-1.518-0.583L426.859,300.572z"/>
			<g clip-path="url(#SVGID_4_)">
				<path fill="#010101" d="M411.547,315.647l-0.018-1.36l-2.154-0.199l2.842-2.174l1.414-0.241l8.572-7.79l-1.57-0.603l6.422-2.878
					l-0.129,0.207c-3.404,5.433-3.416,5.436-3.471,5.436c-0.072-0.052-0.084-0.071-0.346-1.353l-5.482,5.085L411.547,315.647
					L411.547,315.647z M409.756,313.982l1.857,0.23l0.07,1.094l5.842-5.637l5.678-5.268l0.025,0.131c0,0,0.18,0.881,0.26,1.253
					c0.434-0.671,2.289-3.625,3.178-5.046l-5.645,2.528l1.463,0.56l-8.791,7.973l-1.42,0.244L409.756,313.982L409.756,313.982z"/>
			</g>
			<g clip-path="url(#SVGID_4_)">
				<path fill="#010101" d="M411.688,314.323l-0.133-0.076c0.035-0.077,1.715-1.523,3.117-2.72l0.1,0.117
					C413.578,312.664,411.771,314.219,411.688,314.323L411.688,314.323z"/>
			</g>
			<path clip-path="url(#SVGID_4_)" fill-rule="evenodd" clip-rule="evenodd" fill="#61C9D7" d="M425.047,295.987
				c0,0-1.658,6.177-1.68,6.159c-0.016-0.02-0.697-1.272-0.697-1.272l-6.73,11.56l0.275,2.01l-2.416,4.426l-0.996-1.935l-2.305,0.44
				l2.582-4.683l1.807-0.829l6.803-11.416l-1.621-0.11L425.047,295.987z"/>
			<g clip-path="url(#SVGID_4_)">
				<path fill="#010101" d="M413.797,319.028l-1.061-2.06l-2.381,0.512l2.66-4.824l1.84-0.861l6.709-11.279l-1.682-0.116
					l5.301-4.631l-0.064,0.238c-1.664,6.194-1.672,6.194-1.73,6.211c-0.08-0.028-0.098-0.046-0.723-1.193l-6.662,11.446l0.285,1.964
					L413.797,319.028L413.797,319.028z M412.791,316.863l1.008,1.85l2.35-4.305l-0.283-1.966l6.805-11.722l0.064,0.116
					c0,0,0.43,0.79,0.613,1.122c0.211-0.735,1.055-3.861,1.562-5.753l-4.656,4.068l1.562,0.108l-6.867,11.518l-1.838,0.86
					l-2.471,4.512l2.141-0.412l-0.016-0.003c0-0.025,0-0.054,2.334-4.131l0.129,0.077c-0.629,1.094-2.268,3.966-2.316,4.082
					L412.791,316.863L412.791,316.863z"/>
			</g>
			<polygon clip-path="url(#SVGID_4_)" fill-rule="evenodd" clip-rule="evenodd" fill="#61C9D7" points="367.149,294.822 
				371.206,294.845 370.799,295.819 372.571,302.828 374.709,295.837 373.954,294.822 378.176,294.822 377.272,295.803 
				373.789,305.814 374.692,307.124 370.635,307.124 371.539,305.814 368.127,295.837 			"/>
			<g clip-path="url(#SVGID_4_)">
				<path fill="#010101" d="M374.834,307.198h-4.342l0.984-1.427l-3.421-9.909l-1.084-1.114l4.347,0.021l-0.45,1.079l1.709,6.702
					l2.062-6.733l-0.835-1.068h4.543l-1.021,1.103l-3.468,9.986L374.834,307.198L374.834,307.198z M370.774,307.051h3.775
					l-0.822-1.193l3.475-10.08l0.805-0.878h-3.904l0.668,0.895l-2.206,7.31l-1.837-7.267l0.369-0.918l-3.771-0.02l0.855,0.886
					l3.429,10.004L370.774,307.051L370.774,307.051z"/>
			</g>
			<polygon clip-path="url(#SVGID_4_)" fill-rule="evenodd" clip-rule="evenodd" fill="#61C9D7" points="429.379,295.063 
				433.234,295.063 432.607,295.931 432.588,306.127 433.453,307.087 429.379,307.087 430.191,306.053 430.172,295.947 			"/>
			<g clip-path="url(#SVGID_4_)">
				<path fill="#010101" d="M433.621,307.161h-4.395l0.906-1.153l-0.035-10.061l-0.885-0.957h4.166l-0.713,0.982l-0.002,10.154
					L433.621,307.161L433.621,307.161z M429.531,307.011h3.756l-0.754-0.833l-0.002-10.247l0.557-0.793h-3.541l0.682,0.762
					l0.037,10.153L429.531,307.011L429.531,307.011z M400.121,288.018l-0.038-0.145c0.176-0.043,0.643-0.213,0.682-0.455
					c0.043-0.258-0.869-0.752-1.109-0.823c-0.194-0.062-0.629-0.597-0.714-0.704l0.116-0.094c0.2,0.25,0.531,0.619,0.642,0.652
					c0.106,0.035,1.286,0.555,1.214,0.992C400.847,287.822,400.195,288.001,400.121,288.018L400.121,288.018z M401.682,286.771
					c-0.712,0-0.903-0.832-0.906-0.844l-1.012-0.948l0.104-0.108l0.939,0.9c0.73-0.159,1.603,0.458,1.638,0.483
					c0.033,0.048,0.061,0.142-0.01,0.25c-0.094,0.142-0.316,0.232-0.66,0.264C401.744,286.771,401.713,286.771,401.682,286.771
					L401.682,286.771z M400.916,285.904c0.057,0.176,0.252,0.79,0.846,0.713c0.383-0.034,0.506-0.133,0.545-0.193
					C402.35,286.373,401.562,285.811,400.916,285.904L400.916,285.904z"/>
			</g>
			<path clip-path="url(#SVGID_4_)" fill-rule="evenodd" clip-rule="evenodd" fill="#3D863F" d="M393.508,316.073l1.381-1.147
				c0,0-0.304-0.631-1.403-0.607c-1.031-0.725-2.81-2.436-2.81-2.436l-0.89-2.412c0,0,0.726-0.21,0.89-0.798
				c0.161-0.583-0.047-1.31-0.117-1.378c-0.07-0.071-0.798,0.116-1.007,0.42c-0.212,0.305-0.538,1.475-1.03,1.077
				c-0.494-0.397,0.068-0.844,0.068-0.844s0.493-0.608,0.469-0.938c-0.022-0.324-0.656-1.31-0.728-1.333
				c-0.067-0.022-0.207,1.287-0.395,1.43c-0.188,0.139-0.446,0.725-0.821,0.397c-0.375-0.329,0.188-0.818,0.188-0.818
				s1.055-0.565,0.023-2.415c-0.305,0.799-0.89,1.312-0.89,1.312s-0.282,0.492-0.537,0.071c-0.258-0.423,0.304-0.821,0.304-0.821
				s0.912-0.537,0.936-1.335c0.025-0.796-1.101-1.708-1.101-1.708s-0.07,1.475-0.421,1.662c-0.352,0.188-0.49,0.492-0.889,0.162
				c-0.398-0.326,0.303-1.051,0.303-1.051s1.219-1.219,1.147-1.921c-0.07-0.702-0.141-0.821-0.141-0.821s-0.911,0.562-1.03,0.844
				c-0.117,0.281-0.491,1.287-0.96,0.983c-0.328-0.375,0.282-1.1,0.282-1.1s0.444-0.491,0.42-0.702
				c-0.021-0.213-0.374-0.844-1.053-1.451c-0.094-0.188-0.141-0.938-0.141-0.938s-0.516,0.607-0.491,0.938
				c0.022,0.326-0.048,0.982,0.022,1.707c0.07,0.728-0.562-0.232-0.562-0.232l0.116-2.342c0,0-0.889-1.076-1.966-1.477
				c0.398,0.585,0.374,1.147,0.374,1.147s-0.444,0.96-0.444,1.219c0,0.256,0.515,1.381,1.476,2.131
				c-1.451-1.568-3.255-1.054-3.795-1.358c0.258,0.305,1.031,1.452,0.938,1.756c-0.094,0.305,1.381,0.936,1.381,0.936l1.57,0.025
				c0,0,0.772,0.539,0.841,0.889c0.07,0.353-1.123-0.656-1.592-0.631c-0.468,0.023-1.709-0.164-1.709-0.164s0.748,0.701,0.772,1.006
				c0.024,0.304,0.351,1.008,0.795,1.193c0.446,0.188,1.641,0.258,1.641,0.258s0.515-0.304,0.607,0.025
				c0.095,0.327-0.678,0.586-0.678,0.586s-0.797,0-1.055-0.213c-0.258-0.211-0.304-0.561-1.451-0.702
				c-0.116,0.96,0.632,1.943,0.632,1.943s3.162-0.256,3.138,0.423c-0.022,0.68-2.622,0.068-2.715-0.142
				c-0.095-0.21,0.116,1.335,0.725,1.662c0.609,0.327,1.968,0.165,2.131,0.094c0.165-0.068,0.772-0.14,0.772,0.213
				c0,0.35-3.091,0.631-3.137,0.537s0.469,1.196,1.709,1.125c1.241-0.071,1.78-0.446,1.78-0.446s0.749-0.139,0.819,0.165
				s-0.75,0.443-0.75,0.443s-1.967,0.045-2.037-0.046c-0.07-0.094,0.444,1.242,1.827,1.217c1.03-0.094,1.101-0.537,1.31-0.608
				c0.307-0.071,0.961-0.071,1.055-0.046c0.094,0.023,1.732,1.171,1.732,1.171L393.508,316.073z"/>
			<g clip-path="url(#SVGID_4_)">
				<path fill="#010101" d="M393.508,316.147c-0.019,0-0.038-0.006-0.053-0.021l-4.168-4.216c-0.604-0.417-1.61-1.113-1.703-1.153
					c-0.034-0.006-0.69-0.025-1.014,0.049c-0.034,0.014-0.077,0.057-0.13,0.11c-0.157,0.162-0.42,0.432-1.19,0.503
					c0,0-0.001,0-0.003,0c-0.731,0-1.199-0.332-1.471-0.611c-0.287-0.292-0.441-0.616-0.441-0.685c0-0.02,0.008-0.04,0.021-0.054
					c-0.561-0.062-0.914-0.335-1.133-0.568c-0.258-0.272-0.406-0.576-0.406-0.622c0-0.04,0.033-0.073,0.074-0.073
					c0.04,0.017,0.065,0.022,0.168,0.022c0.851,0,2.817-0.276,2.898-0.486c-0.002-0.286-0.541-0.19-0.67-0.139
					c-0.103,0.045-0.557,0.11-1.034,0.11c-0.354,0-0.844-0.037-1.161-0.207c-0.583-0.312-0.813-1.631-0.781-1.759
					c0.028,0,0.147-0.025,0.159,0c0.083,0.103,1.146,0.409,1.936,0.409c0.234,0,0.63-0.031,0.638-0.238
					c0.001-0.04-0.014-0.074-0.047-0.108c-0.102-0.108-0.466-0.284-1.76-0.284c-0.663,0-1.249,0.049-1.251,0.049
					c-0.097-0.071-0.831-1.049-0.711-2.029c0.002-0.02,0.012-0.037,0.027-0.051c0.016-0.012,0.035-0.015,0.056-0.015
					c0.938,0.117,1.168,0.375,1.353,0.583c0.044,0.048,0.086,0.097,0.136,0.137c0.194,0.158,0.794,0.195,1.008,0.195
					c0.158-0.06,0.667-0.281,0.606-0.491c-0.058-0.205-0.496,0.017-0.498,0.02c-0.083,0-1.254-0.065-1.707-0.253
					c-0.476-0.201-0.814-0.929-0.841-1.256c-0.016-0.201-0.468-0.695-0.749-0.96c-0.023-0.02-0.031-0.057-0.017-0.085
					c0.014-0.028,0.046-0.051,0.079-0.043c0.01,0.003,1.096,0.165,1.604,0.165l0.11-0.003c0.256,0,0.656,0.236,1.011,0.446
					c0.208,0.122,0.445,0.261,0.518,0.261c-0.078-0.247-0.63-0.682-0.838-0.826l-1.527-0.012c-0.491-0.204-1.555-0.701-1.451-1.034
					c0.075-0.244-0.617-1.323-0.924-1.685c-0.023-0.028-0.023-0.068,0-0.097s0.062-0.034,0.094-0.017
					c0.147,0.082,0.414,0.1,0.752,0.122c0.591,0.036,1.365,0.088,2.139,0.52c-0.451-0.591-0.684-1.162-0.684-1.35
					c0-0.267,0.404-1.145,0.452-1.25h-0.001c-0.005,0,0.004-0.528-0.367-1.073c-0.019-0.026-0.018-0.062,0.003-0.089
					c0.019-0.025,0.053-0.036,0.085-0.025c1.082,0.403,1.961,1.454,1.998,1.5l-0.1,2.393c0.149,0.204,0.346,0.42,0.411,0.429
					c-0.003-0.006,0.015-0.049,0-0.19c-0.044-0.463-0.032-0.89-0.023-1.233c0.005-0.195,0.011-0.357,0.002-0.477
					c-0.025-0.35,0.454-0.93,0.509-0.992c0.019-0.022,0.05-0.031,0.08-0.022c0.029,0.009,0.05,0.034,0.051,0.065
					c0.013,0.205,0.062,0.768,0.134,0.909c0.675,0.6,1.034,1.239,1.061,1.478c0.026,0.232-0.362,0.673-0.44,0.758
					c-0.156,0.188-0.515,0.736-0.281,1.004c0.031,0.017,0.076,0.031,0.12,0.031c0.31,0,0.589-0.686,0.692-0.941
					c0.147-0.346,0.987-0.875,1.083-0.932c0.017-0.014,0.038-0.017,0.057-0.008c0.021,0.002,0.036,0.017,0.047,0.033
					c0.013,0.021,0.082,0.168,0.15,0.853c0.073,0.728-1.117,1.93-1.168,1.98c-0.004,0.003-0.422,0.438-0.404,0.753
					c0.004,0.076,0.035,0.139,0.095,0.188c0.237,0.193,0.367,0.131,0.568-0.018c0.07-0.051,0.148-0.104,0.238-0.152
					c0.229-0.123,0.355-1.046,0.382-1.603c0.001-0.026,0.019-0.052,0.044-0.062c0.026-0.012,0.056-0.009,0.078,0.009
					c0.047,0.039,1.151,0.948,1.129,1.77c-0.025,0.829-0.936,1.372-0.974,1.397c-0.016,0.009-0.496,0.358-0.277,0.716
					c0.154,0.256,0.361,0.012,0.408-0.068c0.021-0.022,0.59-0.531,0.884-1.301c0.01-0.028,0.036-0.045,0.064-0.048
					c0.031-0.003,0.057,0.011,0.07,0.039c0.418,0.747,0.553,1.381,0.405,1.887c-0.132,0.446-0.44,0.619-0.456,0.628l0,0
					c0.003,0-0.278,0.253-0.278,0.486c0,0.082,0.034,0.15,0.103,0.21c0.213,0.185,0.406-0.034,0.558-0.219
					c0.062-0.077,0.115-0.143,0.169-0.183c0.089-0.067,0.195-0.627,0.252-0.926c0.084-0.44,0.098-0.52,0.188-0.52
					c0.151,0.048,0.78,1.079,0.802,1.406c0.025,0.347-0.432,0.924-0.484,0.988c-0.015,0.015-0.255,0.208-0.255,0.432
					c0,0.108,0.059,0.214,0.175,0.308c0.306,0.244,0.556-0.315,0.74-0.714c0.068-0.145,0.13-0.272,0.182-0.349
					c0.201-0.293,0.795-0.47,1.002-0.47c0.019,0,0.105,0.023,0.119,0.037c0.098,0.1,0.3,0.864,0.135,1.455
					c-0.142,0.509-0.664,0.747-0.863,0.821l0.862,2.338l0,0c0.011,0,1.771,1.69,2.782,2.403c0.012,0,0.026,0,0.037,0
					c1.074,0,1.38,0.611,1.393,0.637l-1.4,1.236C393.542,316.145,393.526,316.147,393.508,316.147L393.508,316.147z
					 M387.321,310.599c0.07,0,0.247,0.003,0.307,0.018c0.095,0.025,1.26,0.835,1.756,1.182l4.131,4.173l1.321-1.096h-0.002
					c-0.058,0-0.359-0.48-1.288-0.48c-0.015,0-0.091-0.006-0.104-0.014c-1.023-0.723-2.8-2.427-2.817-2.443l-0.909-2.441
					c-0.007-0.02-0.006-0.039,0.003-0.06c0.01-0.017,0.027-0.031,0.046-0.036c0.008-0.004,0.69-0.208,0.839-0.748
					c0.156-0.56-0.045-1.241-0.098-1.307c-0.187,0.009-0.725,0.168-0.892,0.409c-0.049,0.074-0.105,0.193-0.168,0.329
					c-0.226,0.486-0.582,1.08-0.971,0.768c-0.154-0.125-0.231-0.268-0.231-0.426c0.003-0.296,0.289-0.525,0.302-0.534
					c0.119-0.153,0.457-0.628,0.44-0.876c-0.021-0.27-0.521-1.067-0.662-1.244c0.025,0.068-0.006,0.236-0.034,0.384
					c-0.103,0.531-0.184,0.918-0.309,1.012c-0.04,0.028-0.09,0.091-0.142,0.156c-0.185,0.228-0.481,0.491-0.773,0.238
					c-0.102-0.091-0.154-0.198-0.154-0.323c0.001-0.308,0.329-0.598,0.344-0.608c0.017-0.012,0.287-0.162,0.399-0.554
					c0.126-0.432,0.018-0.98-0.32-1.628c-0.315,0.719-0.825,1.173-0.848,1.192c-0.002,0.009-0.15,0.259-0.358,0.259
					c-0.111,0-0.209-0.067-0.292-0.204c-0.233-0.384,0.11-0.77,0.324-0.924c0.014-0.008,0.882-0.528,0.904-1.272
					c0.019-0.605-0.682-1.298-0.961-1.552c-0.029,0.401-0.133,1.401-0.45,1.571c-0.085,0.046-0.156,0.097-0.223,0.146
					c-0.219,0.158-0.445,0.261-0.75,0.011c-0.093-0.076-0.143-0.176-0.149-0.295c-0.021-0.381,0.428-0.847,0.447-0.87
					c0.013-0.011,1.192-1.198,1.126-1.857c-0.041-0.412-0.082-0.619-0.106-0.716c-0.288,0.185-0.841,0.567-0.922,0.759
					c-0.186,0.457-0.607,1.323-1.069,1.017c-0.381-0.429,0.238-1.179,0.266-1.21c0.177-0.196,0.417-0.523,0.403-0.648
					c-0.019-0.179-0.35-0.792-1.027-1.403c-0.084-0.153-0.13-0.551-0.151-0.796c-0.159,0.217-0.371,0.546-0.356,0.736
					c0.008,0.122,0.004,0.293-0.002,0.492c-0.009,0.34-0.021,0.761,0.023,1.215c0.016,0.16,0.001,0.256-0.048,0.311
					c-0.015,0.014-0.078,0.042-0.099,0.042c-0.178,0-0.445-0.375-0.552-0.536l0.104-2.39l0,0c-0.023,0-0.777-0.887-1.708-1.312
					c0.282,0.52,0.267,0.972,0.266,0.991c-0.129,0.29-0.444,1.018-0.444,1.216c0,0.183,0.332,0.96,0.977,1.643
					c0.156,0.119,0.319,0.264,0.479,0.438c0.026,0.028,0.026,0.073,0,0.099c-0.026,0.029-0.071,0.031-0.101,0.012
					c-0.178-0.139-0.339-0.289-0.486-0.445c-0.866-0.662-1.801-0.723-2.483-0.768c-0.222-0.014-0.414-0.025-0.57-0.057
					c0.311,0.426,0.895,1.32,0.801,1.631c-0.04,0.128,0.586,0.522,1.339,0.844l1.541,0.02c0.124,0.071,0.842,0.58,0.914,0.949
					c0.004,0.022-0.008,0.105-0.022,0.122c-0.083,0.1-0.32-0.022-0.691-0.241c-0.32-0.19-0.72-0.424-0.935-0.424l-0.11-0.074v0.077
					c-0.38,0-1.049-0.085-1.4-0.134c0.231,0.233,0.613,0.654,0.633,0.893c0.023,0.295,0.349,0.963,0.75,1.131
					c0.419,0.176,1.547,0.25,1.612,0.253c-0.011-0.009,0.206-0.128,0.394-0.128c0.146,0,0.247,0.07,0.284,0.207
					c0.111,0.384-0.641,0.648-0.727,0.676c-0.056,0.012-0.851,0-1.126-0.224c-0.056-0.046-0.103-0.1-0.151-0.153
					c-0.173-0.193-0.367-0.412-1.185-0.523c-0.062,0.858,0.56,1.728,0.619,1.807c0.019-0.027,0.576-0.07,1.202-0.07
					c1.028,0,1.656,0.11,1.868,0.329c0.061,0.062,0.09,0.137,0.087,0.219c-0.008,0.253-0.272,0.384-0.786,0.384
					c-0.62,0-1.585-0.207-1.939-0.393c0.051,0.35,0.282,1.236,0.696,1.461c0.29,0.156,0.753,0.188,1.091,0.188
					c0.496,0,0.908-0.065,0.976-0.097c0.072-0.031,0.222-0.062,0.382-0.062c0.315,0,0.495,0.125,0.495,0.344
					c0,0.454-2.839,0.631-3.047,0.631c-0.023,0-0.044-0.003-0.062-0.003c0.141,0.216,0.617,0.96,1.508,0.96
					c1.295-0.067,1.831-0.429,1.837-0.432c0.028-0.015,0.208-0.048,0.403-0.048c0.312,0,0.492,0.085,0.531,0.256
					c0.015,0.064,0.002,0.13-0.037,0.189c-0.155,0.233-0.711,0.333-0.774,0.344c-0.011,0-0.503,0.015-1.004,0.015
					c-0.544,0-0.812-0.015-0.949-0.031c0.142,0.23,0.639,1.04,1.694,1.04c0.745-0.065,0.975-0.301,1.127-0.457
					c0.065-0.066,0.121-0.123,0.197-0.148C386.738,310.616,387.074,310.599,387.321,310.599L387.321,310.599z M383.591,310.084
					c0.142,0.015,0.393,0.026,0.87,0.026c0.499,0,0.99-0.012,0.99-0.012c0.143-0.025,0.562-0.128,0.664-0.278
					c-0.013-0.193-0.238-0.213-0.37-0.213c-0.18,0-0.345,0.031-0.348,0.031c0.007,0.006-0.542,0.375-1.791,0.445
					C383.603,310.084,383.598,310.084,383.591,310.084L383.591,310.084z"/>
			</g>
			<g clip-path="url(#SVGID_4_)">
				<path fill="#010101" d="M393.48,316.139c-0.022,0-0.048-0.012-0.062-0.034c-0.335-0.52-0.452-0.969-0.344-1.326
					c0.105-0.355,0.391-0.486,0.403-0.495c0.037-0.014,0.081,0,0.098,0.04c0.018,0.037,0.002,0.083-0.038,0.1
					c-0.009,0.003-0.235,0.11-0.321,0.4c-0.092,0.315,0.019,0.719,0.328,1.199c0.021,0.034,0.014,0.082-0.022,0.104
					C393.508,316.133,393.495,316.139,393.48,316.139L393.48,316.139z M385.083,310.877c-0.431,0-0.628-0.167-0.641-0.179
					c-0.03-0.028-0.033-0.074-0.006-0.105c0.026-0.031,0.074-0.034,0.104-0.008c0.006,0.005,0.456,0.38,1.537-0.105
					c0.037-0.017,0.082,0,0.1,0.037c0.016,0.037,0,0.082-0.038,0.1C385.694,310.817,385.345,310.877,385.083,310.877
					L385.083,310.877z M383.899,309.468c-0.335,0-0.545-0.091-0.648-0.136c-0.041,0-0.097-0.043-0.097-0.086
					c0-0.039,0.012-0.082,0.053-0.082c0.011,0,0.096,0.028,0.104,0.031c0.192,0.082,0.778,0.341,1.944-0.281
					c0.036-0.018,0.082-0.006,0.102,0.031c0.02,0.034,0.006,0.08-0.03,0.103C384.706,309.374,384.239,309.468,383.899,309.468
					L383.899,309.468z M388.577,309.451c-0.083,0-0.168-0.009-0.256-0.023c-0.041-0.008-0.068-0.048-0.062-0.088
					c0.008-0.039,0.046-0.064,0.087-0.06c1.112,0.193,1.562-1.067,1.58-1.122c0.014-0.039,0.054-0.062,0.096-0.045
					c0.037,0.011,0.061,0.054,0.046,0.094C390.064,308.221,389.633,309.451,388.577,309.451L388.577,309.451z M387.725,308.187
					c-0.041,0-0.073-0.031-0.075-0.071c0-0.042,0.031-0.076,0.072-0.076c0.543-0.02,0.771-1.1,0.771-1.111
					c0.009-0.039,0.049-0.064,0.09-0.06c0.041,0.009,0.066,0.049,0.059,0.091c-0.012,0.049-0.256,1.205-0.915,1.228
					C387.727,308.187,387.727,308.187,387.725,308.187L387.725,308.187z M383.357,307.77c-0.882,0-1.245-0.452-1.264-0.475
					c-0.025-0.034-0.02-0.08,0.014-0.105c0.031-0.028,0.079-0.02,0.104,0.012c0.021,0.028,0.556,0.679,1.958,0.301
					c0.04-0.006,0.081,0.015,0.091,0.054c0.012,0.04-0.012,0.08-0.052,0.091C383.883,307.735,383.599,307.77,383.357,307.77
					L383.357,307.77z M386.413,306.57c-0.035,0-0.066-0.025-0.073-0.06c-0.008-0.043,0.02-0.08,0.061-0.089
					c0.458-0.082,0.685-0.75,0.689-0.838c0.001-0.039,0.01-0.107,0.075-0.073c0.042,0.003,0.073,0.034,0.073,0.073
					c0,0.114-0.244,0.884-0.812,0.986C386.421,306.57,386.417,306.57,386.413,306.57L386.413,306.57z M382.56,305.738
					c-1.042,0-1.607-0.589-1.634-0.617c-0.028-0.031-0.025-0.076,0.003-0.105c0.031-0.031,0.078-0.027,0.106,0.004
					c0.007,0.005,0.693,0.719,1.926,0.536c0.04-0.003,0.078,0.022,0.084,0.065c0.007,0.04-0.021,0.077-0.063,0.086
					C382.833,305.727,382.693,305.738,382.56,305.738L382.56,305.738z M385.371,304.724c-0.053,0-0.109-0.025-0.109-0.077
					c0.001-0.042,0.047-0.113,0.076-0.073c0.314,0.003,0.544-0.077,0.704-0.242c0.293-0.307,0.262-0.81,0.253-0.974l0.072-0.046
					l0.077,0.037c0.01,0.182,0.043,0.732-0.295,1.085C385.965,304.624,385.704,304.724,385.371,304.724L385.371,304.724z
					 M382.755,303.743c-0.723,0-2.082-0.847-2.142-0.884c-0.035-0.02-0.046-0.068-0.024-0.102c0.022-0.034,0.068-0.046,0.104-0.023
					c0.015,0.009,1.474,0.904,2.13,0.855c0.039,0,0.078,0.025,0.082,0.065c0.004,0.042-0.025,0.079-0.066,0.085
					C382.812,303.743,382.784,303.743,382.755,303.743L382.755,303.743z M384.302,302.195c-0.023,0-0.047,0-0.07,0
					c-0.042-0.003-0.073-0.04-0.071-0.08c0.002-0.043,0.004-0.062,0.079-0.07c0.847,0.031,1.212-0.813,1.215-0.821
					c0.016-0.037,0.061-0.058,0.097-0.04c0.038,0.014,0.057,0.057,0.041,0.097C385.589,301.289,385.207,302.195,384.302,302.195
					L384.302,302.195z M381.847,301.402c-0.792,0-1.365-0.179-1.706-0.531c-0.337-0.347-0.312-0.73-0.311-0.747
					c0.003-0.04,0.05-0.065,0.079-0.068c0.041,0.003,0.072,0.037,0.069,0.077c-0.001,0.014-0.019,0.34,0.272,0.639
					c0.339,0.347,0.967,0.509,1.827,0.478c0.028-0.012,0.076,0.028,0.077,0.071c0.003,0.039-0.029,0.076-0.07,0.076
					C382.004,301.399,381.924,301.402,381.847,301.402L381.847,301.402z M383.276,300.999c-0.031,0-0.061-0.021-0.071-0.052
					c-0.014-0.039,0.008-0.082,0.047-0.096c0.345-0.114,0.562-0.293,0.646-0.535c0.148-0.426-0.165-0.914-0.169-0.92
					c-0.022-0.034-0.013-0.08,0.022-0.103c0.034-0.022,0.081-0.011,0.103,0.021c0.015,0.022,0.358,0.557,0.186,1.054
					c-0.101,0.287-0.349,0.497-0.739,0.628C383.292,300.996,383.284,300.999,383.276,300.999L383.276,300.999z M382.502,300.578
					c-0.013,0-0.026-0.003-0.039-0.012c-1.146-0.695-1.114-2.9-1.112-2.994c0.001-0.039,0.037-0.054,0.076-0.07
					c0.041,0,0.074,0.033,0.073,0.076c0,0.02-0.032,2.211,1.041,2.861c0.035,0.022,0.047,0.068,0.025,0.102
					C382.552,300.564,382.528,300.578,382.502,300.578L382.502,300.578z"/>
			</g>
			<path clip-path="url(#SVGID_4_)" fill-rule="evenodd" clip-rule="evenodd" fill="#F6D629" d="M410.693,302.849
				c0,0,0.922,0.884,0.938,1.065c0.02,0.185,0.24,1.048,0.479,1.179c0.238,0.128,1.178,0.881,1.307,1.177
				c0.127,0.292,0.955,1.542,0.955,1.542s0.771,1.583,1.287,1.71c0.516,0.131,1.969-0.09,2.264,0.608
				c0.293,0.699,0.221,1.71,0.221,1.71s-0.35,0.312-0.516,0.129c-0.166-0.183-0.461,0.92-0.975,0.607
				c-0.703-1.494-2.537-1.25-2.537-1.25s0.402-0.625-1.234-1.176c-2.555,0.439-3.309-2.228-3.309-2.228l-1.457-1.262
				L410.693,302.849z"/>
			<g clip-path="url(#SVGID_4_)">
				<path fill="#010101" d="M416.834,312.707c-0.074,0-0.148-0.023-0.223-0.065c-0.527-1.097-1.607-1.256-2.207-1.256
					c-0.17,0-0.277,0.015-0.279,0.015l-0.154,0.02l0.082-0.134c0.002-0.003,0.064-0.11,0.006-0.272
					c-0.072-0.201-0.342-0.503-1.199-0.796c-0.166,0.04-0.354,0.054-0.531,0.054c-2.145,0-2.822-2.307-2.828-2.329l-1.432-1.225
					l2.615-3.985l0.062,0.062c0.221,0.21,0.941,0.917,0.959,1.113c0.023,0.222,0.254,1.018,0.439,1.119
					c0.23,0.122,1.197,0.887,1.34,1.211c0.125,0.286,0.939,1.522,0.949,1.533c0.215,0.441,0.85,1.58,1.244,1.68
					c0.139,0.034,0.355,0.043,0.605,0.051c0.658,0.025,1.479,0.055,1.707,0.6c0.299,0.707,0.23,1.702,0.227,1.742
					c-0.068,0.102-0.475,0.369-0.645,0.173c-0.012,0.017-0.086,0.125-0.139,0.204C417.291,312.426,417.098,312.707,416.834,312.707
					L416.834,312.707z M416.723,312.545c0.023,0,0.068,0.012,0.111,0.012c0.186,0,0.346-0.233,0.475-0.421
					c0.105-0.153,0.18-0.265,0.277-0.265l0.098,0.046c0.195,0.031,0.355-0.085,0.408-0.131c-0.021-0.003,0.037-0.966-0.24-1.625
					c-0.191-0.457-0.959-0.485-1.574-0.509c-0.26-0.008-0.482-0.02-0.637-0.057c-0.535-0.133-1.256-1.585-1.336-1.75
					c-0.029-0.043-0.83-1.25-0.957-1.545c-0.119-0.273-1.035-1.015-1.273-1.143c-0.293-0.159-0.502-1.097-0.516-1.236
					c-0.016-0.1-0.443-0.562-0.854-0.96l-2.527,3.741l1.441,1.162c0.031,0.066,0.793,2.629,3.25,2.211
					c0.777,0.253,1.215,0.551,1.334,0.893c0.037,0.11,0.035,0.204,0.021,0.272c0.393-0.022,1.865-0.04,2.496,1.304
					C416.721,312.545,416.721,312.545,416.723,312.545L416.723,312.545z"/>
			</g>
			<polygon clip-path="url(#SVGID_4_)" fill-rule="evenodd" clip-rule="evenodd" fill="#F6D629" points="409.223,306.636 
				410.361,307.17 410.271,306.195 			"/>
			<g clip-path="url(#SVGID_4_)">
				<polygon fill="#010101" points="410.449,307.292 409.191,306.703 409.254,306.567 410.277,307.045 410.197,306.201 
					410.346,306.187 410.449,307.292 				"/>
			</g>
			<polygon clip-path="url(#SVGID_4_)" fill-rule="evenodd" clip-rule="evenodd" fill="#F6D629" points="410.842,306.488 
				411.891,307.005 411.467,306.158 			"/>
			<g clip-path="url(#SVGID_4_)">
				<polygon fill="#010101" points="412.055,307.17 410.809,306.556 410.875,306.42 411.723,306.837 411.4,306.192 411.533,306.124 
					412.055,307.17 				"/>
			</g>
			<polygon clip-path="url(#SVGID_4_)" fill-rule="evenodd" clip-rule="evenodd" fill="#F6D629" points="410.785,305.109 
				411.814,305.661 411.34,304.596 			"/>
			<g clip-path="url(#SVGID_4_)">
				<polygon fill="#010101" points="411.973,305.832 410.75,305.176 410.818,305.045 411.656,305.493 411.27,304.624 
					411.406,304.564 411.973,305.832 				"/>
			</g>
			<path clip-path="url(#SVGID_4_)" fill-rule="evenodd" clip-rule="evenodd" fill="#F6D629" d="M412.422,310.167
				c0,0-1.176-1.546-1.158-1.546s2.004,0.387,2.004,0.387l-0.734-1.582l1.82,0.479L412.422,310.167z"/>
			<g clip-path="url(#SVGID_4_)">
				<path fill="#010101" d="M412.363,310.213c-1.195-1.568-1.195-1.568-1.166-1.625c0.074-0.037,0.09-0.043,1.941,0.317l-0.74-1.591
					l1.973,0.518l-0.037,0.145l-1.666-0.438l0.729,1.571l-0.143-0.028c0,0-1.334-0.259-1.824-0.353
					c0.211,0.284,0.703,0.935,1.053,1.392L412.363,310.213L412.363,310.213z"/>
			</g>
			<path clip-path="url(#SVGID_4_)" fill-rule="evenodd" clip-rule="evenodd" fill="#F6D629" d="M415.805,310.405
				c0,0,1.16,0.259,1.123,2.188L415.805,310.405z"/>
			<g clip-path="url(#SVGID_4_)">
				<path fill="#010101" d="M417.002,312.596l-0.15-0.002c0.037-1.842-1.018-2.103-1.062-2.114l0.033-0.146
					C415.871,310.343,417.041,310.627,417.002,312.596L417.002,312.596z"/>
			</g>
			<path clip-path="url(#SVGID_4_)" fill-rule="evenodd" clip-rule="evenodd" fill="#F6D629" d="M416.414,310.11
				c0,0,1.25-0.071,1.176,1.878L416.414,310.11z"/>
			<g clip-path="url(#SVGID_4_)">
				<path fill="#010101" d="M417.664,311.991l-0.148-0.006c0.025-0.702-0.117-1.213-0.426-1.515
					c-0.303-0.301-0.666-0.284-0.672-0.287l-0.01-0.147c0.025,0,0.434-0.02,0.785,0.324
					C417.533,310.695,417.691,311.244,417.664,311.991L417.664,311.991z"/>
			</g>
			<path clip-path="url(#SVGID_4_)" fill-rule="evenodd" clip-rule="evenodd" fill="#F6D629" d="M394.845,303.087
				c0,0-0.919,0.881-0.938,1.065s-0.391,0.935-0.63,1.062c-0.239,0.131-1.062,0.961-1.191,1.256
				c-0.129,0.293-0.918,1.582-0.918,1.582s-0.907,1.312-1.422,1.441c-0.629,0.054-1.835,0.176-2.128,0.875
				c-0.294,0.698,0.161,1.77,0.503,1.77c0.515,0.228,0.75,0.463,0.915,0.281c0.281,0.082,0.122,0.321,0.637,0.009
				c-0.393-0.503-0.35-0.989,0.042-1.114c0.391-0.133,1.028,0.463,1.028,0.463s0.231-1.082,1.87-1.636
				c2.557,0.443,3.241-1.62,3.42-2.114c0.404-0.548,1.031-0.693,1.545-1.039L394.845,303.087z"/>
			<g clip-path="url(#SVGID_4_)">
				<path fill="#010101" d="M389.321,312.658c-0.081,0-0.128-0.045-0.163-0.079c-0.033-0.034-0.067-0.065-0.141-0.088
					c0.022,0.036-0.043,0.067-0.12,0.067c-0.116,0-0.245-0.067-0.425-0.164c-0.106-0.057-0.231-0.122-0.382-0.188
					c-0.087-0.003-0.22-0.088-0.34-0.268c-0.263-0.395-0.41-1.102-0.201-1.6c0.322-0.764,1.632-0.872,2.191-0.92
					c0.387-0.097,1.118-1.051,1.367-1.409c0.006-0.012,0.784-1.284,0.909-1.571c0.139-0.318,0.979-1.156,1.226-1.29
					c0.209-0.113,0.572-0.829,0.59-1.003c0.02-0.195,0.741-0.903,0.96-1.113l0.064-0.06l2.826,4.034l-0.063,0.043
					c-0.174,0.116-0.359,0.21-0.546,0.304c-0.37,0.19-0.722,0.366-0.979,0.719c-0.527,1.466-1.468,2.204-2.797,2.204l0,0
					c-0.216,0-0.449-0.02-0.697-0.062c-1.537,0.529-1.782,1.568-1.783,1.577l-0.028,0.128l-0.097-0.088
					c-0.006-0.006-0.5-0.463-0.853-0.463c-0.227,0.057-0.312,0.139-0.347,0.256c-0.062,0.204,0.026,0.485,0.239,0.755l0.051,0.068
					l-0.071,0.043C389.514,312.613,389.403,312.658,389.321,312.658L389.321,312.658z M389.059,312.349
					c0.108,0.031,0.162,0.085,0.202,0.122l0.06,0.04c0.043,0,0.122-0.034,0.243-0.104c-0.208-0.293-0.286-0.589-0.214-0.824
					c0.05-0.162,0.172-0.284,0.343-0.338c0.307-0.111,0.815,0.235,1.015,0.4c0.107-0.301,0.521-1.114,1.882-1.574
					c0.277,0.04,0.501,0.057,0.709,0.057l0,0c1.899,0,2.468-1.574,2.653-2.091c0.301-0.432,0.685-0.625,1.054-0.812
					c0.159-0.083,0.317-0.162,0.468-0.256l-2.638-3.767c-0.411,0.397-0.839,0.863-0.853,0.96c-0.02,0.19-0.4,0.978-0.671,1.122
					c-0.214,0.113-1.032,0.929-1.157,1.216c-0.129,0.296-0.891,1.54-0.922,1.591c-0.04,0.061-0.932,1.344-1.466,1.478
					c-0.546,0.046-1.793,0.15-2.08,0.83c-0.188,0.451-0.053,1.097,0.188,1.46c0.087,0.128,0.178,0.205,0.246,0.205
					c0.184,0.073,0.312,0.142,0.421,0.201c0.153,0.082,0.275,0.147,0.354,0.147l0.031-0.036L389.059,312.349L389.059,312.349z"/>
			</g>
			<g clip-path="url(#SVGID_4_)">
				<path fill="#010101" d="M388.955,312.469c-0.031,0-0.062-0.021-0.071-0.052c-0.193-0.608-0.174-1.11,0.057-1.491
					c0.296-0.494,0.834-0.6,0.856-0.603c0.036-0.012,0.08,0.02,0.087,0.06c0.009,0.04-0.019,0.08-0.06,0.088
					c-0.006,0-0.497,0.097-0.759,0.531c-0.204,0.344-0.219,0.805-0.04,1.369c0.013,0.04-0.008,0.083-0.048,0.094
					C388.97,312.469,388.962,312.469,388.955,312.469L388.955,312.469z M393.162,310.235c-0.011,0-0.022-0.003-0.034-0.009
					c-0.037-0.018-0.053-0.062-0.034-0.1c0.13-0.256,0.605-0.872,0.89-1.238c0.027-0.034,0.051-0.065,0.074-0.097
					c-0.472,0.097-1.683,0.35-1.683,0.35c-0.028,0.003-0.054-0.003-0.07-0.026c-0.019-0.02-0.023-0.048-0.015-0.073l0.554-1.435
					l-1.487,0.298c-0.044,0.006-0.081-0.02-0.088-0.06c-0.007-0.043,0.019-0.079,0.059-0.088l1.621-0.324
					c0.025-0.006,0.054,0.006,0.072,0.025c0.017,0.023,0.021,0.052,0.011,0.077l-0.551,1.432c1.725-0.36,1.741-0.36,1.751-0.36
					c0.09,0.088,0.09,0.088-0.13,0.372c-0.263,0.338-0.752,0.972-0.874,1.216C393.215,310.221,393.187,310.235,393.162,310.235
					L393.162,310.235z M395.177,307.349c-0.016,0-0.029-0.003-0.041-0.012c-0.022-0.017-0.037-0.042-0.034-0.071l0.091-0.84
					c0.005-0.04,0.043-0.066,0.083-0.066c0.041,0.006,0.07,0.04,0.066,0.083l-0.075,0.702l1.06-0.561
					c0.034-0.02,0.081-0.006,0.1,0.031c0.02,0.037,0.006,0.083-0.031,0.103l-1.182,0.625
					C395.202,307.346,395.19,307.349,395.177,307.349L395.177,307.349z M393.673,307.073c-0.022,0-0.043-0.009-0.057-0.026
					c-0.023-0.022-0.026-0.059-0.009-0.088l0.513-0.869c0.021-0.034,0.066-0.048,0.104-0.025c0.034,0.02,0.046,0.065,0.025,0.103
					l-0.392,0.661l0.897-0.414c0.037-0.018,0.081,0,0.1,0.037c0.018,0.037,0,0.082-0.037,0.1l-1.115,0.514
					C393.693,307.07,393.682,307.073,393.673,307.073L393.673,307.073z M393.858,305.615c-0.02,0-0.04-0.006-0.054-0.022
					c-0.023-0.02-0.028-0.057-0.015-0.082l0.344-0.708c0.019-0.039,0.062-0.057,0.101-0.037c0.037,0.021,0.053,0.062,0.036,0.1
					l-0.258,0.529l0.78-0.336c0.036-0.017,0.08-0.003,0.097,0.037c0.018,0.037,0,0.082-0.038,0.1l-0.965,0.414
					C393.877,305.615,393.867,305.615,393.858,305.615L393.858,305.615z"/>
			</g>
			<g clip-path="url(#SVGID_4_)">
				<path fill="#010101" d="M388.126,312.133c-0.187-0.67-0.146-1.195,0.123-1.562c0.344-0.463,0.927-0.482,0.952-0.482l0.003,0.147
					c-0.006,0-0.537,0.022-0.836,0.426c-0.238,0.327-0.272,0.808-0.1,1.433L388.126,312.133L388.126,312.133z"/>
			</g>
			<g clip-path="url(#SVGID_4_)">
				<path fill="#010101" d="M409.18,313.402c-0.041,0-0.08-0.027-0.09-0.07c-0.006-0.031-0.822-3.19-3.543-2.961
					c-0.061,0.006-0.092-0.031-0.1-0.079c-0.006-0.052,0.025-0.097,0.072-0.105c0.266-0.054,0.449-0.182,0.547-0.378
					c0.213-0.42-0.018-1.008-0.02-1.014l0.084-0.037l-0.008-0.1c0.033-0.003,0.135-0.012,0.205,0.488
					c0.062,0.469-0.053,0.821-0.33,1.035c2.512,0.145,3.266,3.073,3.273,3.104c0.014,0.052-0.018,0.1-0.068,0.114
					C409.197,313.4,409.188,313.402,409.18,313.402L409.18,313.402z"/>
			</g>
			<g clip-path="url(#SVGID_4_)">
				<path fill="#010101" d="M401.402,318.054c-0.039,0-0.072-0.031-0.076-0.071c-0.008-0.213-0.229-5.228,0.846-6.085
					c0.061-0.052,0.127-0.085,0.195-0.108c-0.037-0.028-0.072-0.062-0.102-0.1c-0.021,0.018-0.053,0.023-0.078,0.006
					c-0.033-0.017-0.066-0.034-0.098-0.051c-0.143-0.065-0.277-0.065-0.412,0c-1.152,0.56-1.667,5.418-1.67,5.466
					c-0.004,0.04-0.038,0.068-0.081,0.065s-0.071-0.039-0.068-0.082c0.021-0.202,0.527-4.989,1.755-5.586
					c0.068-0.031,0.141-0.054,0.211-0.06c-0.096-0.091-0.174-0.188-0.232-0.287c-0.016,0.009-0.025,0.012-0.047,0.012
					c-0.01-0.003-0.021-0.006-0.031-0.006c-0.004,0.003-0.01,0.009-0.014,0.012c-0.07,0.062-2.436,2.281-2.806,4.847
					c-0.006,0.043-0.046,0.062-0.086,0.065c-0.039-0.006-0.068-0.046-0.062-0.085c0.336-2.324,2.281-4.424,2.792-4.876
					c-0.131-0.034-0.246-0.085-0.342-0.15c-0.352,0.225-3.044,2.037-3.238,4.299c-0.003,0.042-0.03,0.071-0.081,0.067
					c-0.04-0.002-0.071-0.036-0.068-0.079c0.192-2.225,2.69-4.009,3.273-4.381c-0.052-0.051-0.096-0.108-0.131-0.171
					c-0.002-0.002-0.002-0.002-0.002-0.002c-0.016,0.011-0.042,0.017-0.058,0.02c-0.13-0.009-0.242-0.043-0.337-0.105
					c0,0,0,0-0.002,0c-0.033,0.021-3.389,1.998-3.242,3.745c0.004,0.04-0.027,0.076-0.068,0.079c-0.05,0-0.078-0.025-0.081-0.068
					c-0.147-1.747,2.858-3.607,3.274-3.857c-0.009-0.012-0.018-0.021-0.025-0.031c-0.024-0.029-0.047-0.065-0.07-0.108
					c-0.014,0.017-0.048,0.025-0.057,0.022c-0.228-0.008-0.412-0.082-0.548-0.219c-0.009,0.003-0.018,0.006-0.026,0.009
					c-0.025,0.006-2.514,0.503-3.125,3.165c-0.01,0.039-0.051,0.068-0.089,0.057c-0.042-0.009-0.065-0.051-0.056-0.091
					c0.585-2.557,2.846-3.185,3.196-3.268c-0.25-0.397-0.163-1.025-0.111-1.286c0-0.086,0.151-0.089,0.151-0.006
					c0,0.006-0.005,0.028-0.006,0.033c-0.05,0.256-0.14,0.893,0.131,1.233c0.113,0.142,0.271,0.213,0.485,0.225
					c-0.065-0.196-0.095-0.485-0.021-0.918c0-0.082,0.153-0.103,0.153-0.02c0,0.006-0.006,0.04-0.007,0.046
					c-0.103,0.602,0.007,0.895,0.116,1.033c0.086,0.108,0.205,0.168,0.361,0.18c-0.15-0.421,0.044-0.9,0.054-0.924
					c0.018-0.039,0.06-0.051,0.097-0.043c0.04,0.018,0.057,0.062,0.041,0.1c-0.001,0.006-0.22,0.543,0,0.927
					c0.038,0.068,0.09,0.128,0.154,0.179c0.01,0.003,0.02,0.012,0.027,0.02c0.115,0.086,0.266,0.146,0.453,0.177
					c-0.193-0.44-0.09-0.866-0.09-0.872c0.012-0.04,0.051-0.065,0.09-0.055c0.041,0.012,0.066,0.052,0.055,0.092
					c-0.008,0.036-0.203,0.857,0.592,1.329c-0.172-0.406,0.002-0.929,0.01-0.954c0.014-0.037,0.055-0.061,0.094-0.046
					c0.041,0.015,0.062,0.057,0.049,0.094c-0.002,0.006-0.182,0.548,0.01,0.903c0.076,0.137,0.197,0.23,0.365,0.275
					c0.004,0.003,0.01,0.003,0.014,0.003c0.01,0.003,0.018,0.009,0.027,0.018c0.006-0.015,0.016-0.022,0.031-0.031
					c0.045-0.022,0.088-0.043,0.133-0.058c0.633-0.323,0.43-1.133,0.42-1.17c-0.012-0.04,0.014-0.08,0.053-0.091
					c0.041-0.009,0.082,0.014,0.092,0.051c0.002,0.012,0.191,0.753-0.271,1.188c0.068,0.012,0.133,0.037,0.195,0.077
					c1.139,0.725,0.908,5.988,0.898,6.213c-0.004,0.043-0.043,0.086-0.08,0.071c-0.039-0.003-0.072-0.037-0.07-0.077
					c0.002-0.054,0.236-5.403-0.828-6.079c-0.107-0.068-0.225-0.083-0.352-0.043c-0.039,0.021-0.086,0.04-0.131,0.057
					c-0.027,0.009-0.055,0.003-0.074-0.014c-0.016,0.028-0.049,0.045-0.084,0.034c-0.004,0-0.006,0-0.01-0.003
					c-0.141-0.034-0.27-0.009-0.387,0.085c-1.016,0.81-0.789,5.909-0.785,5.963c0,0.04-0.031,0.074-0.072,0.077
					C401.404,318.054,401.404,318.054,401.402,318.054L401.402,318.054z M405.75,317.1c-0.039,0-0.07-0.029-0.076-0.065
					c-0.004-0.055-0.545-5.393-2.125-5.558c-0.035-0.006-0.062-0.031-0.068-0.068c-0.002-0.033,0.018-0.068,0.051-0.079
					c0.223-0.071,0.367-0.19,0.436-0.355c0.133-0.326-0.074-0.733-0.076-0.738c-0.021-0.037-0.006-0.083,0.031-0.1
					c0.035-0.021,0.082-0.006,0.102,0.031c0.008,0.017,0.23,0.449,0.094,0.833c0.002,0.002,0.002,0.002,0.006,0.005
					c0.006,0.006,0.018,0.018,0.033,0.034c0.01-0.006,0.018-0.012,0.029-0.014c0.02-0.006,0.043-0.012,0.064-0.015
					c0.629-0.173,0.605-0.887,0.535-1.304c0-0.08,0.139-0.123,0.143-0.046c0.064,0.366,0.051,0.677-0.033,0.921
					c0.734-0.449,0.518-1.327,0.516-1.336c-0.012-0.039,0.014-0.082,0.053-0.091c0.037-0.017,0.08,0.015,0.092,0.054
					c0.002,0.009,0.221,0.893-0.461,1.415c2.846,0.73,3.543,3.726,3.549,3.757c0.01,0.039-0.016,0.079-0.057,0.088
					c-0.039,0.008-0.08-0.015-0.088-0.057c-0.008-0.031-0.711-3.052-3.604-3.68c-0.02-0.006-0.039-0.02-0.047-0.037
					c-0.061,0.119-0.137,0.219-0.234,0.299c1.74,0.188,3.361,4.091,3.436,4.27c0.014,0.037-0.002,0.08-0.043,0.097
					c-0.035,0.017-0.078-0.003-0.096-0.042c-0.02-0.046-1.887-4.523-3.627-4.162c-0.002,0-0.004,0-0.008,0.002
					c0.615,0.623,2.824,2.989,2.809,4.842c-0.002,0.039-0.035,0.07-0.078,0.07l0,0c-0.041,0-0.074-0.033-0.074-0.073
					c0.02-1.935-2.584-4.56-2.885-4.855c-0.062,0.097-0.148,0.176-0.26,0.238c1.525,0.591,2.014,5.424,2.037,5.64
					c0.004,0.04-0.027,0.077-0.068,0.08C405.754,317.1,405.752,317.1,405.75,317.1L405.75,317.1z"/>
			</g>
			<g clip-path="url(#SVGID_4_)">
				<path fill="#010101" d="M402.773,310.857l-0.031-0.014c-7.12-3.254-10.865-11.123-8.707-18.309l0.026-0.091l0.081,0.046
					c0.023,0.014,2.349,1.283,4.066,1.283h0.135c1.737-0.073,4.373-1.201,4.4-1.213c0.092,0.018,2.428,1.324,4.301,1.137
					c1.883-0.179,4.523-1.201,4.553-1.21l0.082-0.034l0.018,0.088c1.572,7.85-1.918,15.035-8.893,18.303L402.773,310.857
					L402.773,310.857z M394.152,292.666c-2.075,7.08,1.618,14.811,8.622,18.026c6.861-3.233,10.307-10.299,8.795-18.035
					c-0.469,0.177-2.795,1.026-4.512,1.19c-1.906,0.182-4.283-1.133-4.32-1.153c0.025,0.022-2.626,1.153-4.386,1.228l-0.141,0.003
					C396.617,293.925,394.588,292.896,394.152,292.666L394.152,292.666z"/>
			</g>
			<path clip-path="url(#SVGID_4_)" fill-rule="evenodd" clip-rule="evenodd" fill="#B31E42" d="M394.108,292.555
				c0,0,2.471,1.364,4.239,1.293c1.771-0.074,4.426-1.219,4.426-1.219s2.361,1.33,4.279,1.145c1.914-0.184,4.57-1.219,4.57-1.219
				c1.586,7.918-2.029,15.024-8.85,18.221C395.532,307.468,392.017,299.516,394.108,292.555L394.108,292.555z"/>
			<g clip-path="url(#SVGID_4_)">
				<path fill="#010101" d="M402.773,310.877l-0.041-0.017c-7.127-3.256-10.875-11.138-8.715-18.331l0.034-0.11l0.101,0.054
					c0.024,0.015,2.346,1.284,4.058,1.284l0.135-0.003c1.732-0.074,4.365-1.199,4.392-1.21c0.111,0.017,2.445,1.307,4.307,1.136
					c1.881-0.179,4.52-1.201,4.547-1.213l0.104-0.039l0.021,0.11c1.576,7.858-1.92,15.052-8.902,18.322L402.773,310.877
					L402.773,310.877z M394.165,292.691c-2.06,7.062,1.625,14.768,8.609,17.981c6.844-3.228,10.281-10.276,8.779-17.989
					c-0.51,0.189-2.801,1.022-4.492,1.182c-1.93,0.193-4.242-1.103-4.332-1.154c-0.027,0.052-2.609,1.156-4.377,1.23l-0.142,0.003
					C396.636,293.944,394.639,292.941,394.165,292.691L394.165,292.691z"/>
			</g>
			<path clip-path="url(#SVGID_4_)" fill-rule="evenodd" clip-rule="evenodd" fill="#2B3379" d="M394.108,292.555
				c0,0,0.616,0.344,1.456,0.674c0.84,0.332,1.897,0.656,2.783,0.619c1.771-0.074,4.426-1.219,4.426-1.219s2.361,1.33,4.279,1.145
				c1.914-0.184,4.57-1.219,4.57-1.219c0.387,2.302,0.58,3.475,0.24,5.754l-18.25-0.105
				C393.383,295.928,393.395,295.004,394.108,292.555L394.108,292.555z"/>
			<g clip-path="url(#SVGID_4_)">
				<path fill="#010101" d="M411.943,298.402h-0.08l-18.335-0.108l-0.008-0.082c-0.239-2.355-0.205-3.271,0.497-5.683l0.034-0.113
					l0.101,0.057c0.007,0.006,0.624,0.344,1.446,0.671c1.016,0.4,1.918,0.613,2.609,0.613l0.137-0.003
					c1.732-0.074,4.365-1.199,4.392-1.21c0.111,0.017,2.445,1.307,4.307,1.136c1.881-0.179,4.52-1.201,4.547-1.213l0.107-0.039
					l0.02,0.113c0.389,2.312,0.582,3.475,0.238,5.781L411.943,298.402L411.943,298.402z M393.699,298.109l18.083,0.105
					c0.318-2.188,0.137-3.336-0.23-5.531c-0.52,0.192-2.801,1.022-4.49,1.182c-1.93,0.193-4.242-1.103-4.332-1.154
					c-0.027,0.052-2.609,1.156-4.377,1.23l-0.144,0.003c-0.725,0-1.627-0.21-2.678-0.628c-0.638-0.253-1.155-0.514-1.365-0.625
					C393.51,294.965,393.474,295.882,393.699,298.109L393.699,298.109z"/>
			</g>
			<polygon clip-path="url(#SVGID_4_)" fill-rule="evenodd" clip-rule="evenodd" fill="#FFFFFF" points="394.758,298.291 
				394.748,302.604 395.951,304.761 395.938,298.291 			"/>
			<polygon clip-path="url(#SVGID_4_)" fill-rule="evenodd" clip-rule="evenodd" fill="#FFFFFF" points="397.78,298.306 
				397.792,307.198 398.975,308.271 398.96,298.306 			"/>
			<polygon clip-path="url(#SVGID_4_)" fill-rule="evenodd" clip-rule="evenodd" fill="#FFFFFF" points="400.745,298.34 
				400.745,309.667 401.936,310.314 401.926,298.34 			"/>
			<polygon clip-path="url(#SVGID_4_)" fill-rule="evenodd" clip-rule="evenodd" fill="#FFFFFF" points="410.953,298.388 
				410.98,302.078 409.861,304.346 409.773,298.388 			"/>
			<polygon clip-path="url(#SVGID_4_)" fill-rule="evenodd" clip-rule="evenodd" fill="#FFFFFF" points="408.029,298.362 
				407.99,306.934 406.836,308.025 406.85,298.362 			"/>
			<polygon clip-path="url(#SVGID_4_)" fill-rule="evenodd" clip-rule="evenodd" fill="#FFFFFF" points="404.955,298.352 
				404.969,309.53 403.764,310.275 403.775,298.352 			"/>
			<g clip-path="url(#SVGID_4_)">
				<path fill="#010101" d="M402.773,310.857l-0.031-0.014c-7.12-3.254-10.865-11.123-8.707-18.309l0.026-0.091l0.081,0.046
					c0.023,0.014,2.349,1.283,4.066,1.283h0.135c1.737-0.073,4.373-1.201,4.4-1.213c0.092,0.018,2.428,1.324,4.301,1.137
					c1.883-0.179,4.523-1.201,4.553-1.21l0.082-0.034l0.018,0.088c1.572,7.85-1.918,15.035-8.893,18.303L402.773,310.857
					L402.773,310.857z M394.152,292.666c-2.075,7.08,1.618,14.811,8.622,18.026c6.861-3.233,10.307-10.299,8.795-18.035
					c-0.469,0.177-2.795,1.026-4.512,1.19c-1.906,0.182-4.283-1.133-4.32-1.153c0.025,0.022-2.626,1.153-4.386,1.228l-0.141,0.003
					C396.617,293.925,394.588,292.896,394.152,292.666L394.152,292.666z"/>
			</g>
		</g>
	</g>
</g>
</svg>
