<?xml version="1.0" encoding="utf-8"?>
<!-- Generator: Adobe Illustrator 16.0.0, SVG Export Plug-In . SVG Version: 6.00 Build 0)  -->
<!DOCTYPE svg PUBLIC "-//W3C//DTD SVG 1.1//EN" "http://www.w3.org/Graphics/SVG/1.1/DTD/svg11.dtd">
<svg version="1.1" id="name" xmlns="http://www.w3.org/2000/svg" xmlns:xlink="http://www.w3.org/1999/xlink" x="0px" y="0px"
	 width="85.711px" height="50px" viewBox="358 276 85.711 50" enable-background="new 358 276 85.711 50" xml:space="preserve">
<g id="vu">
	<g>
		<defs>
			<rect id="SVGID_1_" x="358" y="276" width="85.711" height="50"/>
		</defs>
		<clipPath id="SVGID_2_">
			<use xlink:href="#SVGID_1_"  overflow="visible"/>
		</clipPath>
		<rect x="358" y="276" clip-path="url(#SVGID_2_)" fill="#C01F3F" width="85.711" height="24.999"/>
		<rect x="358" y="300.999" clip-path="url(#SVGID_2_)" fill="#3D9546" width="85.711" height="25.001"/>
		<polygon clip-path="url(#SVGID_2_)" fill="#010101" points="358,276 358,326 406.494,300.999 		"/>
		<rect x="358" y="296.527" clip-path="url(#SVGID_2_)" fill="#010101" width="85.711" height="8.946"/>
		<polygon clip-path="url(#SVGID_2_)" fill="#F6CD2A" points="358,322.446 399.598,300.999 358,279.552 		"/>
		<rect x="358" y="299.684" clip-path="url(#SVGID_2_)" fill="#F6CD2A" width="85.711" height="2.633"/>
		<polygon clip-path="url(#SVGID_2_)" fill="#010101" points="358,319.485 393.857,300.999 358,282.515 		"/>
		<g clip-path="url(#SVGID_2_)">
			<defs>
				<rect id="SVGID_3_" x="358" y="276" width="85.711" height="50"/>
			</defs>
			<clipPath id="SVGID_4_">
				<use xlink:href="#SVGID_3_"  overflow="visible"/>
			</clipPath>
			<path clip-path="url(#SVGID_4_)" fill="#F4CD2E" d="M368.13,305.783v2.85c2.478,0,7.341-1.9,7.341-8.015s-5.188-7.251-6.74-7.251
				c-1.551,0-6.344,1.111-6.344,6.114s4.701,5.466,5.626,5.466c0.928,0,4.401-0.832,4.006-4.582c0,1.062-1.203,3.31-3.726,3.31
				c-2.526,0-4.1-1.875-4.1-3.73c0-1.849,1.527-4.329,4.192-4.329c2.662,0,4.608,2.36,4.608,4.75
				C372.994,302.749,371.119,305.783,368.13,305.783L368.13,305.783z"/>
			<path clip-path="url(#SVGID_4_)" fill="#F4CD2E" d="M365.958,302.075l0.147,0.094c0,0,1.173-2.673,4.327-4.577
				C370.032,297.811,367.921,298.859,365.958,302.075L365.958,302.075z"/>
			<g clip-path="url(#SVGID_4_)">
				<path fill="#F4CD2E" d="M366.125,302.234l-0.19-0.122c0.853-1.479,2.326-3.406,4.428-4.531h0.001
					c-0.625,0.369-1.193,0.801-1.706,1.261c0.49-0.434,1.057-0.863,1.708-1.261l0.088,0.048c-3.104,1.873-4.295,4.531-4.307,4.558
					L366.125,302.234L366.125,302.234z M367.079,300.539c-0.432,0.545-0.791,1.082-1.084,1.559l0.087,0.023
					C366.149,301.973,366.46,301.346,367.079,300.539L367.079,300.539z"/>
			</g>
			<path clip-path="url(#SVGID_4_)" fill="#F4CD2E" d="M366.262,301.612c0,0-0.364-0.744-0.042-1.077
				c0.321-0.329,0.173,0.879,0.173,0.879l0.139-0.199c0,0-0.217-0.912,0.025-1.105c0.245-0.188,0.121,0.878,0.121,0.878l0.149-0.19
				c0,0-0.156-0.887,0.077-1.051c0.236-0.165,0.088,0.832,0.088,0.832l0.173-0.199c0,0-0.131-0.841,0.157-1.042
				c0.286-0.199,0.034,0.801,0.034,0.801l0.19-0.207c0,0-0.085-0.772,0.158-0.949c0.242-0.173,0.034,0.73,0.034,0.73l0.173-0.183
				c0,0-0.053-0.721,0.183-0.886c0.233-0.165,0.016,0.685,0.016,0.685l0.185-0.17c0,0-0.045-0.723,0.25-0.864
				c0.295-0.14-0.052,0.679-0.052,0.679l0.2-0.173c0,0,0.061-0.844,0.314-0.921c0.251-0.076-0.114,0.748-0.114,0.748l0.182-0.148
				c0,0,0.097-0.722,0.374-0.807c0.278-0.088-0.173,0.659-0.173,0.659l0.182-0.14c0,0,0.202-0.721,0.46-0.798
				c0.26-0.079-0.269,0.676-0.269,0.676l0.172-0.119c0,0,0.288-0.653,0.521-0.696c0.235-0.042-0.259,0.537-0.259,0.537l0.217-0.131
				c0,0,0.372-0.676,0.503-0.469c0.131,0.211-0.521,0.515-0.521,0.515l-0.217,0.119c0,0,0.792-0.372,0.888-0.179
				c0.094,0.19-1.088,0.31-1.088,0.31l-0.19,0.131c0,0,0.792-0.216,0.695-0.018c-0.095,0.202-0.878,0.156-0.878,0.156l-0.182,0.131
				c0,0,0.792-0.19,0.688-0.009c-0.105,0.182-0.878,0.165-0.878,0.165l-0.192,0.156c0,0,0.773-0.198,0.661,0.034
				c-0.112,0.236-0.99,0.225-0.99,0.225l-0.217,0.201c0,0,0.817-0.275,0.747-0.06c-0.069,0.216-0.999,0.33-0.999,0.33l-0.209,0.207
				c0,0,0.876-0.296,0.617-0.025c-0.261,0.27-0.895,0.341-0.895,0.341l-0.251,0.304c0,0,0.87-0.522,0.747-0.227
				c-0.121,0.295-0.973,0.494-0.973,0.494l-0.173,0.21c0,0,0.781-0.451,0.703-0.201c-0.078,0.252-0.912,0.522-0.912,0.522
				l-0.139,0.19c0,0,0.92-0.546,0.844-0.27c-0.078,0.277-0.956,0.477-0.956,0.477l-0.112,0.174c0,0,0.851-0.486,0.859-0.25
				c0.007,0.232-0.999,0.469-0.999,0.469L366.262,301.612z"/>
			<path clip-path="url(#SVGID_4_)" fill="#F4CD2E" d="M370.957,302.075l-0.146,0.094c0,0-1.173-2.673-4.326-4.577
				C366.884,297.811,368.995,298.859,370.957,302.075L370.957,302.075z"/>
			<g clip-path="url(#SVGID_4_)">
				<path fill="#F4CD2E" d="M370.792,302.234l-0.021-0.048c-0.013-0.026-1.205-2.685-4.308-4.558l0.032-0.014l-0.01-0.023
					l0.024-0.036c0.014,0.009,0.029,0.017,0.045,0.028l0.002-0.003c2.101,1.131,3.573,3.054,4.438,4.472L370.792,302.234
					L370.792,302.234z M369.553,300.181c0.786,0.948,1.183,1.729,1.275,1.923l0.104-0.064
					C370.573,301.481,370.114,300.831,369.553,300.181L369.553,300.181z"/>
			</g>
			<path clip-path="url(#SVGID_4_)" fill="#F4CD2E" d="M370.653,301.612c0,0,0.365-0.744,0.045-1.077
				c-0.323-0.329-0.173,0.879-0.173,0.879l-0.141-0.199c0,0,0.217-0.912-0.027-1.105c-0.242-0.188-0.121,0.878-0.121,0.878
				l-0.146-0.19c0,0,0.155-0.887-0.078-1.051c-0.236-0.165-0.087,0.832-0.087,0.832l-0.176-0.199c0,0,0.13-0.841-0.155-1.042
				c-0.287-0.199-0.035,0.801-0.035,0.801l-0.189-0.207c0,0,0.086-0.772-0.158-0.949c-0.243-0.173-0.034,0.73-0.034,0.73
				l-0.175-0.183c0,0,0.053-0.721-0.182-0.886c-0.236-0.165-0.019,0.685-0.019,0.685l-0.182-0.17c0,0,0.044-0.723-0.253-0.864
				c-0.293-0.14,0.052,0.679,0.052,0.679l-0.199-0.173c0,0-0.06-0.844-0.312-0.921c-0.253-0.076,0.114,0.748,0.114,0.748
				l-0.183-0.148c0,0-0.097-0.722-0.375-0.807c-0.277-0.088,0.176,0.659,0.176,0.659l-0.183-0.14c0,0-0.2-0.721-0.462-0.798
				c-0.26-0.079,0.27,0.676,0.27,0.676l-0.173-0.119c0,0-0.287-0.653-0.521-0.696c-0.234-0.042,0.26,0.537,0.26,0.537l-0.217-0.131
				c0,0-0.373-0.676-0.503-0.469c-0.131,0.211,0.521,0.515,0.521,0.515l0.217,0.119c0,0-0.792-0.372-0.887-0.179
				c-0.097,0.19,1.087,0.31,1.087,0.31l0.19,0.131c0,0-0.79-0.216-0.695-0.018c0.094,0.202,0.878,0.156,0.878,0.156l0.18,0.131
				c0,0-0.788-0.19-0.683-0.009c0.103,0.182,0.875,0.165,0.875,0.165l0.19,0.156c0,0-0.773-0.198-0.659,0.034
				c0.112,0.236,0.99,0.225,0.99,0.225l0.217,0.201c0,0-0.815-0.275-0.747-0.06c0.071,0.216,0.999,0.33,0.999,0.33l0.209,0.207
				c0,0-0.878-0.296-0.615-0.025c0.258,0.27,0.894,0.341,0.894,0.341l0.251,0.304c0,0-0.868-0.522-0.747-0.227
				c0.121,0.295,0.972,0.494,0.972,0.494l0.176,0.21c0,0-0.784-0.451-0.705-0.201c0.078,0.252,0.912,0.522,0.912,0.522l0.138,0.19
				c0,0-0.919-0.546-0.841-0.27c0.078,0.277,0.955,0.477,0.955,0.477l0.114,0.174c0,0-0.851-0.486-0.861-0.25
				c-0.009,0.232,1,0.469,1,0.469L370.653,301.612z"/>
		</g>
	</g>
</g>
</svg>
