<?xml version="1.0" encoding="utf-8"?>
<!-- Generator: Adobe Illustrator 16.0.0, SVG Export Plug-In . SVG Version: 6.00 Build 0)  -->
<!DOCTYPE svg PUBLIC "-//W3C//DTD SVG 1.1//EN" "http://www.w3.org/Graphics/SVG/1.1/DTD/svg11.dtd">
<svg version="1.1" id="name" xmlns="http://www.w3.org/2000/svg" xmlns:xlink="http://www.w3.org/1999/xlink" x="0px" y="0px"
	 width="85.711px" height="50px" viewBox="358 276 85.711 50" enable-background="new 358 276 85.711 50" xml:space="preserve">
<g id="ws">
	<g>
		<defs>
			<rect id="SVGID_1_" x="358" y="276" width="85.711" height="50"/>
		</defs>
		<clipPath id="SVGID_2_">
			<use xlink:href="#SVGID_1_"  overflow="visible"/>
		</clipPath>
		<rect x="358" y="276" clip-path="url(#SVGID_2_)" fill="#BD1F34" width="85.711" height="50"/>
		<rect x="358" y="276" clip-path="url(#SVGID_2_)" fill="#2B3379" width="45.795" height="22.896"/>
		<polygon clip-path="url(#SVGID_2_)" fill="#FFFFFF" points="380.896,291.894 382.864,297.944 377.717,294.206 384.077,294.206 
			378.93,297.944 		"/>
		<polygon clip-path="url(#SVGID_2_)" fill="#FFFFFF" points="373.901,282.68 375.473,287.518 371.356,284.526 376.446,284.526 
			372.328,287.518 		"/>
		<polygon clip-path="url(#SVGID_2_)" fill="#FFFFFF" points="388.052,281.726 389.527,286.263 385.667,283.458 390.439,283.458 
			386.578,286.263 		"/>
		<polygon clip-path="url(#SVGID_2_)" fill="#FFFFFF" points="380.896,276.955 382.468,281.793 378.353,278.802 383.44,278.802 
			379.325,281.793 		"/>
		<polygon clip-path="url(#SVGID_2_)" fill="#FFFFFF" points="384.395,287.604 385.379,290.629 382.805,288.76 385.985,288.76 
			383.412,290.629 		"/>
	</g>
</g>
</svg>
