<?xml version="1.0" encoding="utf-8"?>
<!-- Generator: Adobe Illustrator 16.0.0, SVG Export Plug-In . SVG Version: 6.00 Build 0)  -->
<!DOCTYPE svg PUBLIC "-//W3C//DTD SVG 1.1//EN" "http://www.w3.org/Graphics/SVG/1.1/DTD/svg11.dtd">
<svg version="1.1" id="name" xmlns="http://www.w3.org/2000/svg" xmlns:xlink="http://www.w3.org/1999/xlink" x="0px" y="0px"
	 width="85.711px" height="49.997px" viewBox="358 276 85.711 49.997" enable-background="new 358 276 85.711 49.997"
	 xml:space="preserve">
<g id="xk">
	<g>
		<defs>
			<rect id="SVGID_1_" x="358" y="276" width="85.711" height="49.997"/>
		</defs>
		<clipPath id="SVGID_2_">
			<use xlink:href="#SVGID_1_"  overflow="visible"/>
		</clipPath>
		<rect x="358" y="276" clip-path="url(#SVGID_2_)" fill="#2C4E9E" width="85.711" height="49.997"/>
		<g clip-path="url(#SVGID_2_)">
			<defs>
				<rect id="SVGID_3_" x="358" y="276" width="85.711" height="49.997"/>
			</defs>
			<clipPath id="SVGID_4_">
				<use xlink:href="#SVGID_3_"  overflow="visible"/>
			</clipPath>
			<path clip-path="url(#SVGID_4_)" fill="#EDAE4A" d="M401.234,291.844c0.293,0.342,0.488,0.683,0.488,1.098
				c-0.246,0.122-0.586,0.17-0.781,0.392c1.223-0.173,1.465,1.245,2.832,0.708c0.049,0.195,0.246,0.366,0.488,0.293l0.148-0.39
				c0.533-0.147,0.387,0.729,0.975,0.56c0.295,0.244,0.098,0.658,0.295,0.955c0,0.338,0.146,0.633,0.291,0.926
				c0.146-0.17,0.242-0.414,0.586-0.342c0.244,0.268,0.441,0.512,0.49,0.805c-0.1,0.562-0.246,1.051,0.338,1.344v0.17
				c0.393,0.172,1.271-0.17,1.271,0.512c-0.049,0.244,0.244,0.025,0.344,0.17c0.244-0.096,0.584-0.048,0.877-0.048
				c0.244,0.515-0.293,0.881-0.439,1.345c0.244,0.244,0.146,0.684,0.098,0.974l-0.146,0.074c0.389,0.073,0.879-0.048,1.221,0.173
				l0.635,0.242c0.293-0.168,0.633-0.193,1.025-0.168c0.293,0.219-0.098,0.585,0.148,0.753c0.342,0,0.633,0.052,0.682,0.344
				l0.051,0.097c0.24-0.44,0.928-0.145,1.219-0.463c0.488,0,0.584,0.537,0.828,0.829c0.1,0.759-0.828,1.103-0.535,1.858
				c-0.197,0.363-0.584,0.656-0.879,1c0.098,0.049,0.049,0.17,0.049,0.241c-0.295,0.173-0.049,0.688-0.441,0.733
				c-0.047,0.318-0.631,0.195-0.438,0.539c0.391,0.512-0.193,0.83-0.193,1.293c-0.246,0.27-0.734-0.244-0.734,0.27
				c-0.295,0.074-0.588-0.27-0.781,0.023c-0.1,0.344,0.193,0.463,0.148,0.807c0.484-0.051,0.633,0.438,0.826,0.73l0.49,0.491
				c-0.49,0.39-1.123-0.051-1.709,0.168c-0.146-0.071,0-0.265-0.146-0.339c-0.146-0.172-0.439-0.172-0.682-0.221
				c0.045,0.221-0.395,0.295-0.199,0.56c0,0.073,0.098,0.292-0.096,0.292c-0.393,0.125-0.342-0.338-0.686-0.168
				c-0.438,0.168-0.096,0.827-0.732,0.756c0.098,0.586-0.973,0.978-0.242,1.489c0.096,0.097,0.047,0.292,0.047,0.44
				c-0.439,0.393-1.217,0.244-1.707,0.1c-0.393-0.1-0.146-0.591-0.291-0.855c-0.148-0.247-0.586-0.418-0.586-0.758
				c-0.295-0.123-0.539-0.197-0.736-0.441c-0.682,0.66-1.514,1.297-2.488,1.318c-0.439,0.219-0.686,1.103-1.367,0.736
				c-0.27,0.438-1.074,0-1.123,0.631c-0.316,0.125-0.17,0.539-0.365,0.732c-0.076,0.489,0,0.903,0.414,1.196
				c0.172,0.366-0.365,0.366-0.146,0.71c0.049,0.119,0,0.293-0.072,0.342c-0.146,0.073-0.195,0.147-0.146,0.295
				c-0.125,0-0.172,0.07-0.27,0.168c-0.121,0.244-0.512,0.366-0.781,0.537c-0.268,0.073-0.465-0.119-0.635-0.293
				c-0.051,0.27-0.27,0.414-0.537,0.414c-0.391,0-0.318-0.34-0.611-0.488c0.121-0.438-0.27-0.633-0.145-1.025
				c0.316-0.241,0.854-0.415,0.707-0.93c-0.342-0.411-0.221-1.022-0.562-1.512c-0.219-0.192-0.584-0.484-0.463-0.951
				c0.318-0.366,0-0.807-0.172-1.195c-0.072-0.318-0.268-0.611-0.268-0.978c-0.537-0.315-0.562-1.147-1.318-1.222
				c-0.537,0-0.635-0.682-1.172-0.633c-0.051-0.098-0.17-0.172-0.27-0.268c-0.391,0.268-0.879-0.074-1.365,0.045
				c-0.318-0.533,0.266-1.268-0.588-1.586v-0.34c0.1,0.048,0.146-0.049,0.172-0.1c0.049-0.367-0.611-0.412-0.342-0.826
				c-0.146-0.125-0.318-0.174-0.219-0.418c-0.369-0.756-1.467-0.682-1.711-1.441c0.197-0.167,0.197-0.34,0.27-0.488
				c-0.172-0.293-0.219-0.607-0.172-0.926c0.172-0.049,0.268-0.27,0.367-0.44c-0.221-0.147-0.486-0.366-0.732-0.293
				c-0.439-0.073-0.758-0.415-1.146-0.61c-0.1-0.097-0.049-0.268-0.049-0.389c0.537-0.174-0.074-0.93,0.586-0.83
				c0.17-0.223,0.537-0.293,0.805-0.467c0.27-0.048,0.49,0.052,0.756,0.125c0.221,0.291,0.609,0.168,0.832,0.412
				c0.219-0.048,0.486-0.17,0.756-0.048c0-0.415,0.193-0.659,0.49-0.952c0.047-0.17,0.316-0.293,0.535-0.389
				c0.414,0.096,0.902,0.096,1.197-0.196c0.193,0.122,0.365-0.122,0.584-0.122c0.27-0.051,0.488,0.022,0.686,0.145
				c0.023-0.488,0.877-0.07,1.049-0.659c0.195-0.389-0.537-0.536-0.488-0.878c-0.121-0.392,0.17-0.585,0.316-0.852
				c0.172-0.074,0.367-0.174,0.586-0.125c0.561-0.193,0.123-1.344,1.027-0.926c0,0.121-0.051,0.266,0.023,0.292
				c0.318,0,0.365-0.366,0.586-0.489c0.096-0.341-0.123-0.756,0.17-1.025c0.145-0.022,0.27-0.07,0.367-0.195
				c0-0.268-0.146-0.415-0.367-0.586c-0.074,0.123-0.266,0.025-0.391,0.074c0-0.293-0.17-0.488-0.219-0.758
				c-0.146-0.072-0.221-0.194-0.17-0.367c0.219-0.219,0-0.756,0.514-0.634c0.191-0.171,0.535-0.048,0.73-0.341
				c0.512-0.293,1.197-0.293,1.588-0.83c0.17,0.025,0.365-0.147,0.535,0C400.77,291.672,401.234,291.549,401.234,291.844"/>
			<polygon clip-path="url(#SVGID_4_)" fill="#FFFFFF" points="386.127,291.672 384.316,290.398 382.506,291.672 383.201,289.62 
				381.385,288.354 383.627,288.358 384.316,286.302 385.004,288.358 387.246,288.354 385.428,289.617 			"/>
			<polygon clip-path="url(#SVGID_4_)" fill="#FFFFFF" points="392.23,289.72 390.42,288.443 388.609,289.72 389.307,287.666 
				387.49,286.401 389.73,286.404 390.42,284.35 391.107,286.404 393.348,286.398 391.531,287.666 			"/>
			<polygon clip-path="url(#SVGID_4_)" fill="#FFFFFF" points="405.879,288.375 404.066,287.103 402.258,288.375 402.953,286.321 
				401.137,285.057 403.379,285.061 404.066,283.003 404.754,285.061 406.998,285.057 405.18,286.321 			"/>
			<polygon clip-path="url(#SVGID_4_)" fill="#FFFFFF" points="412.469,289.72 410.658,288.443 408.85,289.72 409.545,287.666 
				407.729,286.401 409.969,286.404 410.658,284.35 411.346,286.404 413.588,286.398 411.771,287.666 			"/>
			<polygon clip-path="url(#SVGID_4_)" fill="#FFFFFF" points="398.723,288.375 396.912,287.103 395.104,288.375 395.799,286.321 
				393.984,285.057 396.225,285.061 396.912,283.003 397.602,285.061 399.842,285.057 398.025,286.321 			"/>
			<polygon clip-path="url(#SVGID_4_)" fill="#FFFFFF" points="419.207,291.672 417.396,290.398 415.586,291.672 416.283,289.62 
				414.465,288.354 416.707,288.358 417.396,286.302 418.084,288.358 420.326,288.354 418.508,289.617 			"/>
		</g>
	</g>
</g>
</svg>
