<?xml version="1.0" encoding="utf-8"?>
<!-- Generator: Adobe Illustrator 16.0.0, SVG Export Plug-In . SVG Version: 6.00 Build 0)  -->
<!DOCTYPE svg PUBLIC "-//W3C//DTD SVG 1.1//EN" "http://www.w3.org/Graphics/SVG/1.1/DTD/svg11.dtd">
<svg version="1.1" id="name" xmlns="http://www.w3.org/2000/svg" xmlns:xlink="http://www.w3.org/1999/xlink" x="0px" y="0px"
	 width="85.708px" height="50px" viewBox="358 276 85.708 50" enable-background="new 358 276 85.708 50" xml:space="preserve">
<g id="za">
	<g>
		<defs>
			<rect id="SVGID_1_" x="358" y="276" width="85.708" height="50"/>
		</defs>
		<clipPath id="SVGID_2_">
			<use xlink:href="#SVGID_1_"  overflow="visible"/>
		</clipPath>
		<polygon clip-path="url(#SVGID_2_)" fill="#D03033" points="373.02,276 398.02,292.666 443.709,292.666 443.709,276 		"/>
		<polygon clip-path="url(#SVGID_2_)" fill="#FFFFFF" points="403.021,296.002 443.709,296.002 443.709,292.666 398.02,292.666 		
			"/>
		<polygon clip-path="url(#SVGID_2_)" fill="#FFFFFF" points="398.02,309.334 443.709,309.334 443.709,305.999 403.021,305.999 		
			"/>
		<polygon clip-path="url(#SVGID_2_)" fill="#2D328E" points="398.02,309.334 373.02,326 443.709,326 443.709,309.334 		"/>
		<polygon clip-path="url(#SVGID_2_)" fill="#010101" points="358,292.666 367.975,292.666 358,286.015 		"/>
		<polygon clip-path="url(#SVGID_2_)" fill="#010101" points="358,292.666 358,309.334 367.975,309.334 380.475,300.999 
			367.975,292.666 		"/>
		<polygon clip-path="url(#SVGID_2_)" fill="#010101" points="358,309.334 358,315.985 367.975,309.334 		"/>
		<polygon clip-path="url(#SVGID_2_)" fill="#F1B124" points="358,286.015 380.475,300.999 358,315.985 358,319.991 
			386.485,300.999 358,282.009 		"/>
		<polygon clip-path="url(#SVGID_2_)" fill="#33784D" points="358,276 358,282.009 386.485,300.999 358,319.991 358,326 
			367.012,326 397.01,305.999 443.709,305.999 443.709,296.002 397.01,296.002 367.012,276 		"/>
	</g>
</g>
</svg>
