<?xml version="1.0" encoding="utf-8"?>
<!-- Generator: Adobe Illustrator 16.0.0, SVG Export Plug-In . SVG Version: 6.00 Build 0)  -->
<!DOCTYPE svg PUBLIC "-//W3C//DTD SVG 1.1//EN" "http://www.w3.org/Graphics/SVG/1.1/DTD/svg11.dtd">
<svg version="1.1" id="name" xmlns="http://www.w3.org/2000/svg" xmlns:xlink="http://www.w3.org/1999/xlink" x="0px" y="0px"
	 width="85.712px" height="50px" viewBox="358 276 85.712 50" enable-background="new 358 276 85.712 50" xml:space="preserve">
<g id="zm">
	<g>
		<defs>
			<rect id="SVGID_1_" x="358" y="276" width="85.712" height="50"/>
		</defs>
		<clipPath id="SVGID_2_">
			<use xlink:href="#SVGID_1_"  overflow="visible"/>
		</clipPath>
		<rect x="358" y="276" clip-path="url(#SVGID_2_)" fill="#408C41" width="85.712" height="50"/>
		<rect x="433.656" y="296.527" clip-path="url(#SVGID_2_)" fill="#DF7B27" width="10.057" height="29.467"/>
		<rect x="423.607" y="296.513" clip-path="url(#SVGID_2_)" fill="#010101" width="10.049" height="29.477"/>
		<rect x="413.35" y="296.535" clip-path="url(#SVGID_2_)" fill="#CC2027" width="10.26" height="29.465"/>
		<g clip-path="url(#SVGID_2_)">
			<defs>
				<rect id="SVGID_3_" x="358" y="276" width="85.712" height="50"/>
			</defs>
			<clipPath id="SVGID_4_">
				<use xlink:href="#SVGID_3_"  overflow="visible"/>
			</clipPath>
			<path clip-path="url(#SVGID_4_)" fill="#DF7B27" d="M436.975,283.318c0,0,3.783-1.613,4.15-1.948
				c0.168,0.198-1.518,2.233-4.785,2.985c2.967-0.701,5.504-2.903,6.021-2.835c0.146,0.031,0.115,2.15-6.689,3.986
				c4.703-1.236,7.439-3.503,7.404-3.253c0.035,0.051-0.469,1.783-4.586,3.137c1.152-0.271,4.271-2.168,4.236-1.802
				c0.1,0.15-3.02,4.15-8.654,2.85c4.502,1.168,7.418-1.647,7.836-1.6c0.086,0.017-0.832,2.469-6.502,2.616
				c2.719-0.283,1.934-0.017,1.934-0.017s-1.602,1.25-3.533,0.4c1.516,0.418,1.682,0.435,1.715,0.568
				c-0.1,0.165-1.35,0.418-2.551-0.233c0.967,0.398,1.836,0.467,1.852,0.617c-0.016,0.048-0.633,0.4-1.184,0.15
				c-0.551-0.253-5.619-3.369-5.619-3.369l8.637-2.37L436.975,283.318z"/>
			<g clip-path="url(#SVGID_4_)">
				<path fill="#010101" d="M434.064,289.104c-0.162,0-0.318-0.034-0.457-0.097c-0.545-0.25-5.422-3.245-5.625-3.372
					c-0.025-0.018-0.041-0.046-0.035-0.071c0.004-0.028,0.023-0.054,0.051-0.06l8.639-2.369l0.359,0.119
					c1.254-0.557,3.797-1.68,4.08-1.938c0.018-0.012,0.037-0.015,0.055-0.018c0.02,0,0.037,0.009,0.051,0.025
					c0.014,0.018,0.025,0.105,0.023,0.125c-0.043,0.205-0.393,0.659-1.012,1.162c0.289-0.17,0.559-0.335,0.803-0.485
					c0.672-0.409,1.111-0.68,1.34-0.68c0.031,0.006,0.121,0.094,0.127,0.128c0.037,0.256-0.168,0.812-0.998,1.492
					c0.416-0.233,0.75-0.438,0.998-0.588c0.395-0.239,0.525-0.316,0.596-0.316c0.016,0.015,0.092,0.08,0.09,0.103
					c-0.053,0.268-0.348,0.808-1.098,1.418c0.307-0.14,0.508-0.213,0.617-0.213c0.02,0,0.09,0.022,0.102,0.04
					c0,0.002,0.029,0.116,0.025,0.121c-0.033,0.14-0.4,0.629-1.051,1.177c0.062-0.028,0.111-0.042,0.154-0.042
					c0.035,0.002,0.09,0.054,0.088,0.09c-0.012,0.29-0.896,1.927-4.473,2.489c0,0.006,0.002,0.009,0.002,0.015
					c0.01,0.062-0.039,0.11-0.152,0.15c-0.014,0.014-0.824,0.637-1.994,0.693c0.152,0.057,0.205,0.104,0.225,0.188
					c-0.078,0.162-0.404,0.256-0.799,0.275c0.062,0.031,0.094,0.068,0.1,0.116C434.857,288.907,434.457,289.104,434.064,289.104
					L434.064,289.104z M428.197,285.598c0.824,0.506,4.98,3.054,5.469,3.278c0.428,0.193,1.049-0.077,1.098-0.125
					c-0.051,0.015-0.279-0.042-0.512-0.1c-0.477-0.06-0.914-0.198-1.314-0.415c-0.035-0.017-0.049-0.059-0.031-0.094
					c0.016-0.033,0.057-0.051,0.094-0.033c0.484,0.198,0.951,0.318,1.26,0.395c0.652,0.071,1.162-0.08,1.203-0.134l0,0
					c-0.025,0-0.143-0.042-0.666-0.185c-0.338-0.037-0.688-0.131-1.021-0.278c-0.035-0.017-0.051-0.057-0.037-0.091
					c0.012-0.034,0.051-0.057,0.084-0.046l1.016,0.276c0.113,0.011,0.234,0.017,0.355,0.017c1.104,0,1.932-0.557,2.078-0.662
					c-0.033-0.003-0.072-0.003-0.125-0.003c-0.539,0.068-1.127,0.114-1.738,0.131c-0.039-0.017-0.07-0.031-0.074-0.068
					c-0.002-0.039,0.025-0.074,0.066-0.076c0.824-0.086,1.408-0.131,1.738-0.131c3.748-0.488,4.691-2.168,4.705-2.403
					c-0.023,0.06-0.25,0.196-0.514,0.353c-0.279,0.167-0.641,0.383-1.08,0.602c-0.555,0.29-1.139,0.52-1.742,0.68
					c-1.455,0.402-2.961,0.414-4.455,0.025c-0.037-0.012-0.059-0.049-0.051-0.088c0.008-0.037,0.049-0.061,0.086-0.052
					c1.518,0.35,3.002,0.341,4.383-0.025c0.574-0.159,1.137-0.378,1.713-0.668c1.646-0.86,2.449-1.957,2.473-2.082
					c-0.17,0.017-0.883,0.378-1.312,0.591c-0.588,0.369-1.301,0.713-2.117,1.02c-0.275,0.119-0.525,0.208-0.721,0.253
					c-0.035,0.009-0.074-0.014-0.086-0.051c-0.008-0.037,0.012-0.074,0.049-0.085c0.25-0.083,0.486-0.168,0.707-0.25
					c0.529-0.225,1.174-0.549,1.768-0.848l0.338-0.17c1.367-0.857,1.705-1.637,1.725-1.784c-0.018,0.06-0.229,0.185-0.469,0.333
					c-0.482,0.292-1.293,0.781-2.363,1.307c-0.918,0.491-2.084,0.954-3.461,1.372c-0.33,0.103-0.67,0.202-1.02,0.292l0,0l0,0
					c-0.004,0-0.004,0-0.004,0c-0.037,0.012-0.076-0.011-0.084-0.051c-0.012-0.037,0.01-0.076,0.047-0.088
					c0.359-0.097,0.697-0.193,1.018-0.29c1.168-0.363,2.324-0.821,3.441-1.366c2.131-1.145,2.258-2.103,2.203-2.208
					c-0.164,0.021-0.641,0.31-1.24,0.677c-0.641,0.389-1.432,0.875-2.344,1.312c-0.736,0.381-1.535,0.67-2.373,0.863
					c-0.039,0.006-0.08-0.014-0.088-0.054c-0.008-0.037,0.014-0.077,0.055-0.085l0,0l0,0c0,0,0,0,0.002,0
					c0.742-0.177,1.506-0.455,2.342-0.855c1.412-0.73,2.164-1.571,2.35-1.897c-0.797,0.478-3.877,1.792-4.016,1.854l-0.371-0.116
					L428.197,285.598L428.197,285.598z"/>
			</g>
			<path clip-path="url(#SVGID_4_)" fill="#DF7B27" d="M426.82,291.757c-0.762,0-0.781,0.673-0.781,0.673s-0.062,0.052-0.02,0.379
				c0.125-0.223,0.184-0.293,0.184-0.293c0.086,0.014,0.436,0.119,0.986-0.315c-0.504,0.525-0.205,0.719-0.205,0.719
				s-0.115,0.412,0.264,0.497c-0.115-0.168-0.045-0.315-0.045-0.315s0.535-0.057,0.5-0.71c0.02,0.591,0.342,0.738,0.342,0.738
				s0,0.327,0.35,0.355c-0.188-0.168-0.148-0.426-0.148-0.426s0.455-0.327,0.07-0.884c0.23-0.134,0.418-0.503,0.418-0.503
				s-0.312-0.134-0.459-0.244c-0.068-0.146-0.006-0.946-0.006-0.946l-0.191-1.04l-0.533,1.617
				C427.564,290.828,427.578,291.757,426.82,291.757L426.82,291.757z"/>
			<g clip-path="url(#SVGID_4_)">
				<path fill="#010101" d="M428.395,293.555c-0.004,0-0.006,0-0.006,0c-0.322-0.025-0.41-0.277-0.416-0.414
					c-0.025,0.006-0.172-0.074-0.27-0.344c-0.127,0.284-0.387,0.355-0.469,0.372c0.018,0.017,0.006,0.104,0.074,0.204
					c0.018,0.025,0.018,0.057,0.002,0.083c-0.016,0.022-0.051,0.034-0.076,0.028c-0.127-0.028-0.221-0.091-0.277-0.185
					c-0.084-0.14-0.061-0.302-0.049-0.37c-0.02,0-0.068-0.062-0.08-0.161c-0.012-0.089,0.012-0.185,0.062-0.29
					c-0.25,0.125-0.543,0.139-0.664,0.113c-0.01,0.025-0.062,0.103-0.145,0.25c-0.018,0.029-0.047,0.043-0.078,0.034
					c-0.031-0.005-0.053-0.028-0.059-0.06c-0.041-0.312,0.012-0.409,0.045-0.44c-0.02-0.003,0.037-0.692,0.83-0.692
					c0.52,0,0.631-0.48,0.652-0.614c-0.002-0.006-0.002-0.011-0.002-0.017c0.002-0.015,0.008-0.034,0.018-0.052l0.521-1.582
					c0.012-0.031,0.037-0.046,0.074-0.049c0.035,0.003,0.061,0.026,0.066,0.06l0.188,1.037c-0.023,0.344-0.041,0.842,0.002,0.93
					c0.117,0.079,0.42,0.207,0.424,0.21c0.016,0.009,0.031,0.022,0.039,0.042c0.006,0.018,0.006,0.037-0.002,0.055
					c-0.01,0.017-0.172,0.329-0.385,0.491c0.322,0.531-0.059,0.869-0.119,0.918c0.018,0.005,0.006,0.192,0.143,0.317
					c0.025,0.021,0.031,0.055,0.02,0.083C428.447,293.538,428.422,293.555,428.395,293.555L428.395,293.555z M427.707,292.331
					c0.037,0,0.064,0.02,0.068,0.057c0.027,0.537,0.289,0.671,0.301,0.676c0.027,0.062,0.043,0.19,0.133,0.272
					c-0.055-0.145-0.033-0.281-0.033-0.289c0.045-0.06,0.42-0.341,0.082-0.832c-0.012-0.018-0.014-0.037-0.012-0.058
					c0.006-0.02,0.02-0.036,0.037-0.045c0.15-0.089,0.287-0.299,0.35-0.406c-0.104-0.046-0.293-0.137-0.4-0.219
					c-0.098-0.185-0.047-0.876-0.037-1.012l-0.137-0.744l-0.439,1.332l0,0c0,0-0.068,0.765-0.799,0.765
					c-0.686,0-0.711,0.579-0.711,0.605c-0.012,0.025-0.027,0.059-0.031,0.136c0.045-0.071,0.072-0.1,0.072-0.103
					c0.119-0.014,0.17-0.002,0.24-0.002c0.23,0,0.482-0.108,0.754-0.318c0.027-0.029,0.07-0.023,0.096,0.006
					c0.025,0.027,0.025,0.07,0,0.099c-0.238,0.247-0.277,0.406-0.27,0.495c0.008,0.079,0.055,0.113,0.057,0.113
					c0.025,0.082-0.02,0.247,0.055,0.366c0.008,0.015,0.02,0.031,0.033,0.043c-0.018-0.111,0.02-0.193,0.023-0.199
					c0.076-0.042,0.512-0.1,0.494-0.65c-0.004-0.04,0.027-0.085,0.068-0.088C427.703,292.331,427.703,292.331,427.707,292.331
					L427.707,292.331z"/>
			</g>
			<path clip-path="url(#SVGID_4_)" fill="#DF7B27" d="M430.57,289.424c0.018,0.018,0.564,0.634,1.1,0.6
				c0.201-0.167-0.416-0.533-0.416-0.616c0.217,0.199,1.135,0.985,1.717,0.702c0.232-0.336-0.418-0.284-1.133-1.186
				c0.5,0.333,1.75,1.068,2.334,0.785c0.25-0.268-1.301-1.103-1.818-1.75l-1.334-0.686l-1.816,1.483L430.57,289.424z"/>
			<g clip-path="url(#SVGID_4_)">
				<path fill="#010101" d="M432.689,290.242c-0.305,0-0.633-0.158-0.912-0.335c0.004,0.012,0.006,0.025,0.006,0.037
					c0,0.022-0.051,0.122-0.064,0.134c-0.012,0-0.023,0-0.035,0c-0.564,0-1.027-0.458-1.162-0.6l-1.35-0.656
					c-0.021-0.009-0.037-0.031-0.043-0.057c-0.002-0.023,0.01-0.049,0.029-0.062l1.814-1.486l1.416,0.676
					c0.238,0.293,0.656,0.605,1.02,0.887c0.523,0.395,0.844,0.648,0.861,0.844c0.002,0.02-0.031,0.119-0.045,0.134
					c-0.553,0.292-1.391-0.156-1.967-0.489c0.205,0.186,0.389,0.305,0.529,0.393c0.166,0.105,0.277,0.176,0.301,0.287
					c0.012,0.062-0.006,0.128-0.057,0.201C432.908,290.217,432.803,290.242,432.689,290.242L432.689,290.242z M431.254,289.336
					c0.018,0,0.035,0.006,0.049,0.018c0.156,0.147,1.125,0.932,1.637,0.69c-0.002-0.12-0.102-0.183-0.23-0.265
					c-0.227-0.142-0.57-0.36-0.928-0.812c-0.023-0.025-0.021-0.065,0.002-0.091c0.025-0.028,0.064-0.034,0.094-0.011
					c0.244,0.158,1.707,1.045,2.264,0.777c-0.027-0.15-0.447-0.469-0.818-0.75c-0.375-0.283-0.797-0.604-1.025-0.892l-1.309-0.665
					l-1.654,1.406l1.268,0.617c0.283,0.298,0.682,0.594,1.025,0.594c0.012-0.088-0.17-0.248-0.27-0.333
					c-0.125-0.107-0.176-0.156-0.176-0.213c0-0.028,0.016-0.054,0.045-0.065C431.234,289.336,431.244,289.336,431.254,289.336
					L431.254,289.336z"/>
			</g>
			<path clip-path="url(#SVGID_4_)" fill="#DF7B27" d="M428.52,284.355c0,0,0.615-0.366,3.084-0.185
				c0.268,0.034,1.686-0.482,2.135-0.634c0.715-0.133,3-0.633,3.619-1.102c0.432-0.049-0.119,0.801-0.668,1.003
				c-0.582,0.267-2.701,1-3.451,0.9c0.9,0.017,0.4,0.75-1.1,0.4c0.715,0.401,0.449,0.466,0.449,0.466s-1.268,0.068-1.6-0.216
				c0.85,0.315,0.5,0.433,0.5,0.433s-0.867,0.085-1.268-0.1c0.617,0.185,0.299,0.301,0.299,0.301s-0.5,0.082-0.916-0.068
				S428.553,284.355,428.52,284.355L428.52,284.355z"/>
			<g clip-path="url(#SVGID_4_)">
				<path fill="#010101" d="M430.189,285.717c-0.23,0-0.438-0.031-0.611-0.094c-0.338-0.122-0.768-0.736-0.996-1.065
					c-0.055-0.077-0.092-0.131-0.105-0.147c-0.035,0-0.041-0.015-0.049-0.046s0.025-0.054,0.055-0.071
					c0.02-0.014,0.646-0.381,3.125-0.193c0.002,0,0.002,0,0.002,0c0.285,0,1.275-0.344,1.807-0.527l0.299-0.103
					c0.938-0.174,3.037-0.668,3.598-1.091c0.182-0.015,0.252,0.037,0.27,0.127c0.043,0.254-0.412,0.836-0.867,0.998
					c-0.514,0.235-2.076,0.783-3.018,0.895c0.059,0.057,0.062,0.116,0.061,0.143c-0.014,0.221-0.514,0.435-1.264,0.338
					c0.199,0.145,0.221,0.227,0.213,0.287c-0.004,0.031-0.074,0.102-0.104,0.11c-0.025,0.003-0.545,0.028-1.006-0.025
					c0.023,0.034,0.035,0.065,0.031,0.103c-0.002,0.028-0.094,0.127-0.119,0.136c-0.025,0.006-0.52,0.04-0.844,0.009
					c0.004,0.012,0.006,0.025,0.006,0.043c0,0.076-0.068,0.127-0.127,0.15C430.531,285.694,430.389,285.717,430.189,285.717
					L430.189,285.717z M428.635,284.385c0.018,0.022,0.037,0.054,0.066,0.091c0.188,0.27,0.633,0.906,0.926,1.014
					c0.158,0.058,0.346,0.083,0.562,0.083c0.186,0,0.314-0.021,0.318-0.021c0.023-0.009,0.006-0.048-0.148-0.107
					c-0.057-0.012-0.115-0.031-0.17-0.058c-0.033-0.014-0.051-0.054-0.037-0.09c0.014-0.035,0.055-0.058,0.088-0.043
					c0.068,0.02,0.125,0.039,0.174,0.057c0.15,0.037,0.363,0.06,0.621,0.06c0.248,0,0.443-0.02,0.443-0.02
					c0.006-0.009-0.002-0.06-0.195-0.156c-0.148-0.034-0.268-0.085-0.344-0.151c-0.025-0.022-0.031-0.059-0.014-0.09
					c0.016-0.031,0.053-0.046,0.084-0.031c0.146,0.054,0.254,0.099,0.338,0.142c0.43,0.1,1.154,0.073,1.23,0.071
					c-0.021-0.009-0.072-0.108-0.477-0.333c-0.031-0.017-0.045-0.057-0.031-0.088c0.014-0.034,0.051-0.051,0.082-0.046
					c0.264,0.062,0.512,0.094,0.736,0.094c0.496,0,0.721-0.153,0.725-0.229c0.002-0.031-0.062-0.091-0.244-0.114
					c-0.047,0-0.094-0.002-0.141-0.008c-0.035-0.006-0.064-0.04-0.062-0.077c0.004-0.037,0.035-0.068,0.072-0.068h0.002
					c0.055,0.003,0.104,0.006,0.145,0.012c0.859,0,2.768-0.673,3.273-0.906c0.42-0.15,0.811-0.682,0.781-0.841
					c-0.668,0.438-2.939,0.94-3.688,1.079l-0.287,0.1c-0.783,0.271-1.57,0.537-1.832,0.537c-0.525-0.04-0.943-0.054-1.299-0.054
					C429.291,284.191,428.809,284.318,428.635,284.385L428.635,284.385z"/>
			</g>
			<path clip-path="url(#SVGID_4_)" fill="#DF7B27" d="M429.508,289.771l0.09,1.631c0,0-0.047,0.082-0.09,0.13
				c-0.039,0.049-1.156-0.173-1.004,0.677c0,0.35,0.01,0.439,0.244,0.633c-0.062-0.229-0.041-0.389-0.041-0.389
				s0.312,0.188,0.621-0.327c-0.209,0.509-0.062,0.69-0.014,0.702c0.049,0.091-0.086,0.503,0.336,0.497
				c-0.162-0.156-0.086-0.378-0.086-0.378s0.439-0.071,0.283-0.863c0.162-0.159,0.225-0.006,0.225-0.006s0.049,0.472,0.432,0.375
				c0.174,0.097-0.027,0.355-0.027,0.355s0.277,0.008,0.363-0.23c0.082-0.238,0.182-0.662-0.277-0.836
				c-0.059-0.167,0.182-0.182,0.182-0.182s0.291,0.097,0.375,0.244c0.082,0.148,0.053-0.383-0.307-0.439
				c-0.447-0.012-0.475-0.103-0.475-0.125c0-0.021-0.078-1.186-0.111-1.521L429.508,289.771z"/>
			<g clip-path="url(#SVGID_4_)">
				<path fill="#010101" d="M429.639,293.396c-0.373,0-0.381-0.302-0.385-0.449c0,0-0.064-0.153-0.066-0.156
					c-0.029-0.057-0.059-0.168-0.029-0.353c-0.154,0.125-0.295,0.131-0.381,0.114c0,0.062,0.012,0.158,0.039,0.272
					c0.01,0.028-0.002,0.062-0.027,0.079c-0.029,0.018-0.061,0.015-0.086-0.006c-0.258-0.213-0.27-0.326-0.27-0.689
					c-0.037-0.202-0.002-0.375,0.102-0.503c0.178-0.214,0.512-0.239,0.748-0.239l0.158,0.003c0.053-0.028,0.094-0.104,0.094-0.104
					l-0.098-1.592l0.783-0.125c0.111,0.39,0.188,1.531,0.189,1.589c0-0.003,0.062,0.045,0.404,0.057
					c0.318,0.048,0.424,0.386,0.414,0.515c-0.006,0.062-0.141,0.088-0.172,0.031c-0.057-0.1-0.262-0.186-0.336-0.211
					c-0.012,0.006-0.074,0.023-0.094,0.049c0.219,0.096,0.488,0.335,0.281,0.923c-0.096,0.271-0.395,0.278-0.43,0.278
					c-0.025,0-0.053-0.014-0.064-0.039c-0.012-0.026-0.008-0.055,0.008-0.077c0.031-0.04,0.092-0.146,0.08-0.208
					c-0.377-0.017-0.486-0.314-0.5-0.471c-0.018,0.32-0.045,0.579-0.164,0.752c-0.088,0.125-0.199,0.168-0.244,0.18
					c0.021,0.017,0,0.156,0.104,0.256c0.021,0.022,0.029,0.051,0.018,0.079c-0.012,0.025-0.037,0.046-0.064,0.046H429.639
					L429.639,293.396z M429.328,292.053c0.01,0,0.02,0.002,0.031,0.008c0.035,0.018,0.049,0.057,0.035,0.092
					c-0.174,0.42-0.086,0.588-0.055,0.61c0.057,0.071,0.057,0.119,0.061,0.182c0.002,0.134,0.014,0.235,0.1,0.281
					c-0.055-0.15-0.006-0.292-0.004-0.301c0.061-0.049,0.154-0.065,0.225-0.174c0.094-0.139,0.113-0.363,0.061-0.653
					c0.207-0.32,0.332-0.116,0.357-0.048c0.008,0.034,0.045,0.344,0.27,0.344c0.018-0.003,0.117-0.012,0.131-0.003
					c0.057,0.031,0.094,0.076,0.105,0.137c0.012,0.059-0.006,0.125-0.025,0.182c0.059-0.025,0.125-0.068,0.152-0.156
					c0.139-0.393,0.062-0.631-0.236-0.742c-0.07-0.125-0.047-0.179-0.025-0.213c0.062-0.097,0.211-0.107,0.229-0.107
					c0.039,0.008,0.184,0.057,0.303,0.139c-0.008-0.02-0.021-0.039-0.037-0.06c-0.051-0.077-0.121-0.119-0.203-0.131
					c-0.125-0.005-0.535-0.017-0.535-0.198c-0.002-0.04-0.076-1.183-0.109-1.512l-0.643,0.113l0.156,1.555
					c-0.01,0.039-0.061,0.133-0.107,0.185c-0.016,0.017-0.1,0.034-0.121,0.034l-0.158-0.003c-0.119,0-0.48,0-0.637,0.188
					c-0.08,0.091-0.102,0.224-0.07,0.397c0,0.228,0.002,0.332,0.059,0.426c-0.008-0.107,0-0.176,0-0.179
					c0.004-0.025,0.02-0.046,0.041-0.057c0.02-0.012,0.047-0.009,0.068,0.003c0,0,0.258,0.139,0.521-0.305
					C429.281,292.066,429.303,292.053,429.328,292.053L429.328,292.053z"/>
			</g>
			<path clip-path="url(#SVGID_4_)" fill="#DF7B27" d="M431.059,291.16c0.006-0.076-0.762-1.107-0.564-1.241
				c0.193,0.04,0.51,0.509,0.77,0.357c-0.076-0.182-0.307-0.079-0.568-0.548c-0.264-0.528-0.301-1.324-1.219-2.193
				c0.594,0.918,1.939,1.457,1.996,1.19c0.059-0.267-1.184-1.278-1.121-1.522c0.246,0.5,1.494,1.616,2.414,1.522
				c0.062-0.216-0.752-0.647-0.963-1.052c-0.588-0.395-2.158-1.752-2.189-2.064c-0.572-0.833-0.93-1.089-1.098-1.186
				c-0.062-0.074-0.08-0.145-0.094-0.193c-0.352-0.835,0.117-1.107,0.393-1.147c0.227-0.025,0.293,0.009,0.455-0.071
				c-0.193-0.073-0.387-0.147-0.578-0.221c0.25,0.184,0.896,0.022,0.754,0.554c0.281-0.108,0.883-0.821-0.68-0.983
				c-0.508-0.579-2.596-0.918-3.119,1.628c0.039,0.034,0.062,0.065,0.195,0.165c-0.658-0.321-2.439-0.568-3.078-0.671
				c-1.734-0.5-3.533-1.704-3.705-1.557c-0.234,0.103,1.045,1.29,0.98,1.318c-1.109-0.646-2.123-1.105-3.062-1.521
				c-0.666-0.247-1.328-0.826-1.402-0.716c-0.244,0.506,1.062,1.776,1.309,1.924c0.24,0.145,2.152,1.031,2.125,1.042
				c-2.879-1.307-3.361-1.545-3.506-1.695c-0.254-0.057-0.873-0.893-1.047-0.836c-0.094,0.092,0.098,1.41,1.469,2
				c0.225,0.165,2.947,1.143,2.918,1.217c-0.006,0.02-3.113-1.281-3.236-1.327c-0.6-0.235-1.334-1.062-1.471-0.969
				c-0.131,0.085,0.338,0.978,0.943,1.256c0.318,0.142,1.537,0.744,2.633,1.128c0.072,0.025-1.971-0.773-2.955-1.185
				c-0.445-0.247-0.652-0.554-0.721-0.489c-0.1,0.065,0.162,1.384,3.316,2.129c0.084,0.033,1.109-0.245,1.062-0.208
				c-0.016,0.009-1.021,0.23-1.121,0.222c-0.088-0.014-0.639,0.065-0.65,0.094c-0.031,0.088,0.203,0.562,1.83,0.463
				c0.211-0.014,1.338-0.412,1.244-0.326c-0.049,0.042-1.539,0.528-1.652,0.537c-0.1,0.014-0.623,0.067-0.643,0.125
				c-0.023,0.073,0.389,0.411,1.264,0.465c0.773,0.04,2.248-0.474,2.217-0.439c-0.029,0.033-1.418,0.511-1.455,0.539
				c-0.051,0.025-0.561,0.055-0.576,0.094c-0.043,0.097,0.732,0.824,3.027,0.049c-0.232,0.312-1.344,0.525-1.344,0.582
				c-0.002,0.04,0.248,0.281,0.637,0.367c0.193,0.042,0.461,0.033,0.701-0.003c0.438-0.089,0.898-0.262,1.484-0.802
				c0.068,0.168-1.461,0.943-1.391,1.018c0.334,0.31,1.434-0.04,1.506-0.08c0.072-0.039,2.123-1.195,2.115-1.329
				c0.033,0.17-2.643,1.622-2.611,1.685c0.17,0.272,1.082-0.014,1.127-0.043c0.043-0.022,1.166-0.628,1.197-0.647
				c0.031-0.017-1.318,0.79-1.199,0.912c-0.061,0.525,2.107-0.36,2.279-0.469c0.084-0.057-1.043,0.494-1.043,0.753
				c0.359,0.613,1.52,0.418,1.699,0.284c0.09-0.065-0.105,0.457-0.041,0.409c0.02-0.012,0.254-0.281,0.342-0.48
				c-0.029,0.17-0.156,0.44-0.23,0.75s-0.098,0.659-0.199,1.028c-0.023,0.165,0.717-0.315,0.607-1.469
				c0.062,0.6-0.232,1.719-0.156,1.778c0.156,0.114,0.586-0.56,0.629-1.014c0.127,0.229,0.395,0.71,0.625,0.82
				c-0.025-0.35,0.006-0.332-0.1-0.673c0.059-0.458,0.068-1.085,0.082-1.796c0.625,1.199,0.875,1.705,0.701,2.62
				c0.186,0.079,0.48-0.64,0.459-1.009C430.014,291.035,431.041,291.188,431.059,291.16L431.059,291.16z"/>
			<g clip-path="url(#SVGID_4_)">
				<path fill="#010101" d="M431.039,291.22c-0.145,0-0.914-0.179-1.232-0.926c-0.055,0.267-0.18,0.568-0.307,0.704
					c-0.053,0.057-0.104,0.083-0.154,0.083c-0.025-0.009-0.092-0.046-0.086-0.074c0.156-0.824-0.025-1.29-0.59-2.381
					c-0.012,0.625-0.025,1.165-0.08,1.574c0.08,0.241,0.082,0.301,0.088,0.463l0.012,0.199c-0.275-0.052-0.504-0.393-0.654-0.648
					c-0.1,0.403-0.406,0.918-0.615,0.918c-0.129-0.068-0.119-0.159-0.049-0.605c0.006-0.036,0.012-0.071,0.018-0.11
					c-0.15,0.278-0.344,0.426-0.436,0.426c-0.012-0.014-0.084-0.082-0.082-0.097c0.061-0.216,0.092-0.417,0.119-0.607
					c0.025-0.147,0.049-0.293,0.08-0.429c0.031-0.125,0.068-0.242,0.105-0.35c-0.062,0.079-0.117,0.136-0.137,0.145
					c-0.105-0.049-0.098-0.091-0.057-0.247c0.016-0.062,0.045-0.171,0.039-0.196c-0.025,0.103-0.34,0.18-0.682,0.18
					c-0.287,0-0.801-0.058-1.035-0.452c-0.002-0.122,0.135-0.265,0.311-0.397c-0.605,0.219-1.342,0.412-1.508,0.225
					c-0.023-0.026-0.053-0.071-0.043-0.146c0.006-0.071,0.105-0.176,0.246-0.292l-0.162,0.085c-0.053,0.034-1.039,0.281-1.203,0.02
					c-0.023-0.046-0.031-0.065,0.221-0.222c-0.412,0.103-1.012,0.15-1.219-0.039c-0.008-0.086,0.039-0.148,0.227-0.271
					c-0.094,0.028-0.184,0.051-0.27,0.068c-0.258,0.04-0.537,0.042-0.725,0.003c-0.369-0.083-0.693-0.33-0.682-0.432
					c0-0.055,0.049-0.068,0.328-0.151c0.207-0.062,0.502-0.15,0.729-0.255c-0.557,0.161-1.059,0.241-1.5,0.241
					c-0.764,0-1.133-0.247-1.219-0.378c-0.012-0.018-0.025-0.086-0.02-0.103c0.023-0.046,0.068-0.057,0.373-0.091
					c0.088-0.012,0.209-0.022,0.232-0.031c0.008-0.009,0.062-0.031,0.309-0.119c-0.332,0.074-0.676,0.131-0.953,0.131
					c-0.848-0.049-1.287-0.305-1.391-0.452c0-0.147,0.066-0.182,0.594-0.244c0.053-0.006,0.199-0.046,0.385-0.103
					c-1.305,0.057-1.645-0.253-1.736-0.383c-0.039-0.061-0.055-0.12-0.039-0.162c0.021-0.061,0.289-0.097,0.482-0.117
					c-2.281-0.591-3.02-1.508-3.105-1.975c-0.018-0.088-0.006-0.145,0.035-0.173c0.125-0.017,0.176,0.034,0.283,0.128
					c0.117,0.097,0.279,0.235,0.5,0.357c0.008,0.003,0.018,0.009,0.023,0.012c-0.422-0.315-0.74-0.861-0.754-1.082
					c-0.002-0.023,0.029-0.114,0.049-0.125c0.162-0.015,0.307,0.102,0.588,0.329c0.113,0.094,0.242,0.199,0.373,0.296
					c-0.504-0.5-0.637-1.062-0.666-1.205c-0.018-0.1-0.039-0.275,0.018-0.335c0.164-0.015,0.336,0.139,0.594,0.397
					c0.188,0.188,0.398,0.4,0.502,0.424c0.104,0.1,0.359,0.241,1.16,0.619c-0.436-0.387-1.375-1.387-1.15-1.858
					c0.172-0.048,0.301,0.037,0.551,0.193c0.264,0.165,0.592,0.369,0.924,0.494c0.881,0.39,1.814,0.812,2.814,1.378
					c-0.037-0.037-0.076-0.079-0.113-0.119c-0.514-0.551-0.752-0.838-0.725-0.98c0.008-0.002,0.123-0.094,0.131-0.094
					c0.15,0,0.494,0.177,1.018,0.44c0.715,0.361,1.695,0.855,2.656,1.131l0.252,0.04c0.699,0.107,1.936,0.298,2.615,0.543
					c0.352-1.918,1.521-2.117,2.008-2.117c0.469,0,0.932,0.174,1.156,0.432c0.643,0.052,1.006,0.23,1.043,0.518
					c0.033,0.262-0.227,0.497-0.387,0.557c-0.049-0.17-0.051-0.244-0.086-0.299c-0.014-0.022-0.033-0.042-0.059-0.057
					c-0.006,0.009-0.014,0.018-0.025,0.021c-0.119,0.06-0.193,0.06-0.297,0.065c-0.047,0-0.102,0.002-0.176,0.011
					c-0.064,0.009-0.281,0.058-0.396,0.262c-0.111,0.196-0.094,0.466,0.051,0.81c0.02,0.062,0.033,0.116,0.084,0.176
					c0.305,0.174,0.68,0.58,1.098,1.191c0.039,0.286,1.518,1.604,2.18,2.048c0.113,0.204,0.35,0.403,0.559,0.579
					c0.262,0.217,0.469,0.39,0.426,0.537c-0.088,0.046-0.127,0.046-0.166,0.046c-0.49,0-1.027-0.278-1.467-0.614
					c0.236,0.265,0.367,0.446,0.342,0.562c-0.01,0.043-0.047,0.114-0.191,0.114c-0.238,0-0.707-0.19-1.15-0.509
					c0.188,0.324,0.283,0.619,0.375,0.89c0.061,0.173,0.111,0.332,0.182,0.472c0.148,0.267,0.281,0.332,0.389,0.386
					c0.072,0.037,0.143,0.074,0.182,0.162c-0.066,0.1-0.113,0.114-0.164,0.114c-0.156,0-0.307-0.129-0.443-0.239
					c-0.084-0.068-0.17-0.14-0.227-0.15c0.002,0.02,0.043,0.196,0.465,0.872c0.146,0.23,0.172,0.278,0.168,0.315L431.039,291.22
					L431.039,291.22z M429.775,289.953c0.025,0,0.051,0.017,0.057,0.042c0.193,0.841,0.943,1.077,1.168,1.105
					c-0.047-0.028-0.1-0.113-0.148-0.19c-0.324-0.52-0.561-0.924-0.389-1.037c0.127,0.006,0.215,0.08,0.32,0.165
					c0.119,0.1,0.256,0.21,0.369,0.21l0,0c0.037,0,0.004-0.02-0.068-0.054c-0.115-0.06-0.271-0.14-0.439-0.438
					c-0.074-0.147-0.129-0.31-0.188-0.489c-0.117-0.344-0.248-0.729-0.547-1.15c-0.191-0.167-0.354-0.354-0.482-0.551
					c-0.014-0.022-0.012-0.057,0.012-0.074c0.023-0.02,0.057-0.017,0.076,0.003c0.188,0.177,0.35,0.361,0.488,0.554
					c0.506,0.446,1.104,0.688,1.336,0.688c0.1-0.127-0.236-0.491-0.482-0.755c-0.373-0.398-0.6-0.651-0.561-0.793
					c0.006-0.025,0.023-0.04,0.049-0.043c0.023,0,0.049,0.009,0.057,0.031c0.256,0.521,1.488,1.583,2.357,1.492
					c-0.027-0.034-0.252-0.225-0.434-0.375c-0.219-0.183-0.467-0.39-0.574-0.594c-0.492-0.321-2.158-1.728-2.195-2.086
					c-0.4-0.571-0.766-0.963-1.068-1.139c-0.084-0.091-0.104-0.168-0.117-0.216c-0.158-0.381-0.176-0.688-0.049-0.915
					c0.143-0.25,0.406-0.308,0.484-0.318c0.078-0.012,0.139-0.012,0.189-0.015c0.037,0,0.068-0.002,0.096-0.006l-0.107-0.042
					c-0.158-0.048-0.256-0.074-0.326-0.128c-0.025-0.018-0.031-0.049-0.018-0.074c0.014-0.022,0.045-0.037,0.072-0.025l0.328,0.105
					c0.172,0.031,0.354,0.062,0.436,0.195c0.055,0.083,0.062,0.188,0.025,0.321c0.043-0.113,0.262-0.307,0.236-0.503
					c-0.029-0.219-0.375-0.375-0.979-0.438c-0.201-0.207-0.607-0.408-1.107-0.408c-0.463,0-1.58,0.192-1.949,1.991
					c0.039,0,0.076,0.034,0.174,0.104c0.025,0.021,0.031,0.052,0.014,0.077c-0.014,0.025-0.049,0.037-0.074,0.022
					c-0.574-0.281-2.025-0.506-2.807-0.625l-0.256-0.039c-0.98-0.281-1.965-0.779-2.684-1.143c-0.453-0.228-0.844-0.426-0.967-0.426
					c-0.037,0.107,0.463,0.647,0.68,0.877c0.297,0.321,0.324,0.355,0.312,0.404c-1.18-0.597-2.197-1.057-3.143-1.478
					c-0.342-0.125-0.674-0.335-0.943-0.503c-0.174-0.108-0.35-0.222-0.404-0.222c-0.195,0.432,1.053,1.679,1.305,1.833
					c0.125,0.073,0.691,0.344,1.207,0.59c0.586,0.279,0.811,0.387,0.895,0.438c0.006,0.004,0.012,0.006,0.021,0.009l-0.004,0.003
					c0.037,0.025,0.037,0.037,0.035,0.055c-0.016-0.009-0.031-0.015-0.049-0.023l-0.045,0.062c-0.041-0.028-0.498-0.247-0.904-0.44
					c-0.188-0.088-0.381-0.182-0.559-0.267c-1.674-0.725-1.934-0.869-2.047-0.992c-0.111-0.014-0.314-0.219-0.533-0.438
					c-0.16-0.161-0.381-0.383-0.455-0.383c0.012,0.014,0.014,0.213,0.123,0.503c0.129,0.357,0.479,1.014,1.354,1.392
					c0.031,0.023,0.104,0.06,0.311,0.148l0.15,0.062c0.285,0.116,0.66,0.261,1.031,0.406c1.488,0.579,1.486,0.591,1.455,0.67
					c-0.018,0.009-0.041,0.015-0.086,0.003l-0.014,0.012c-0.004-0.006-0.014-0.012-0.031-0.021
					c-0.201-0.057-0.738-0.275-2.398-0.966l-0.145-0.06l0,0l0,0l0,0l0,0c-0.002,0-0.006,0-0.006,0c-0.35-0.145-0.6-0.25-0.631-0.264
					c-0.324-0.125-0.682-0.418-0.969-0.648c-0.184-0.15-0.395-0.32-0.457-0.32c-0.031,0.09,0.375,0.889,0.943,1.152l0.293,0.134
					c0.27,0.128,0.67,0.315,1.115,0.509l0.861,0.341c0.156,0.062,0.254,0.1,0.312,0.128c0.014,0.003,0.031,0.009,0.045,0.015
					l-0.002,0.005c0.049,0.026,0.045,0.037,0.043,0.061c-0.02-0.003-0.041-0.009-0.061-0.012l-0.021,0.054
					c-0.018-0.009-0.16-0.065-0.379-0.15l-0.152-0.06c-0.244-0.085-0.475-0.182-0.693-0.275c-0.592-0.236-1.273-0.509-1.73-0.699
					c-0.236-0.131-0.404-0.275-0.523-0.378c-0.062-0.051-0.131-0.11-0.156-0.116c0.018,0.003,0.014,0.102,0.107,0.275
					c0.18,0.341,0.855,1.193,3.203,1.747c0.115-0.011,0.225-0.031,0.338-0.057l0.367-0.082c0.227-0.054,0.309-0.071,0.34-0.071
					c0.006,0.022,0.057,0.091,0.035,0.105c-0.029,0.025-0.715,0.162-0.719,0.162c-0.125,0.027-0.236,0.048-0.309,0.057
					c-0.059,0.008-0.104,0.014-0.125,0.014c-0.166,0-0.566,0.06-0.615,0.082c0.174,0.177,0.543,0.438,1.793,0.361
					c0.094-0.006,0.422-0.107,0.688-0.188c0.314-0.097,0.496-0.15,0.553-0.15c0.01,0.022,0.062,0.094,0.047,0.11
					c-0.074,0.065-1.604,0.546-1.688,0.552c-0.393,0.048-0.572,0.082-0.605,0.104c0.037,0.034,0.414,0.321,1.225,0.372
					c0.002,0,0.006,0,0.008,0c0.682,0,1.605-0.272,2-0.389c0.336-0.1,0.238-0.06,0.256-0.02c0.012,0.02,0.008,0.045-0.006,0.062
					c-0.023,0.022-0.068,0.042-0.869,0.332c-0.299,0.105-0.568,0.201-0.602,0.219c-0.031,0.017-0.1,0.025-0.277,0.045
					c-0.104,0.012-0.266,0.029-0.295,0.043c0.041,0.031,0.375,0.301,1.15,0.301c0.523,0,1.137-0.116,1.824-0.35
					c0.023-0.008,0.051,0,0.066,0.021c0.014,0.02,0.014,0.048,0,0.068c-0.168,0.228-0.723,0.389-1.088,0.5
					c-0.111,0.034-0.24,0.071-0.26,0.085c0.025-0.014,0.244,0.193,0.605,0.272c0.174,0.04,0.439,0.034,0.682-0.003
					c0.4-0.082,0.852-0.232,1.451-0.787c0.143,0.143-0.07,0.299-0.783,0.733c-0.217,0.131-0.486,0.296-0.518,0.341
					c0.072,0.018,0.211,0.055,0.412,0.055c0.438,0,0.975-0.177,1.018-0.199c0.564-0.312,2.014-1.156,2.088-1.293
					c0-0.031,0.02-0.048,0.051-0.051c0.01-0.018,0.055,0.025,0.061,0.054c0.021,0.11-0.219,0.29-1.76,1.196
					c-0.402,0.238-0.82,0.482-0.863,0.528c-0.014-0.003,0.137,0.031,0.291,0.031c0.312,0,0.727-0.134,0.764-0.15l0.27-0.147
					c0.346-0.186,0.904-0.486,0.926-0.5c0.025-0.018,0.061-0.009,0.08,0.02c0.014,0.028,0.006,0.062-0.023,0.079l0,0l0,0l0,0
					c-0.637,0.384-1.156,0.756-1.178,0.847c0.037,0.094,0.078,0.123,0.201,0.123c0.42,0,1.309-0.321,1.807-0.537
					c0.195-0.103,0.213-0.103,0.225-0.103c0.025,0,0.045,0.017,0.055,0.042c0.008,0.026-0.004,0.055-0.025,0.068
					c-0.029,0.018-0.104,0.052-0.209,0.097c-0.475,0.253-0.809,0.503-0.809,0.608c0.193,0.315,0.664,0.366,0.926,0.366
					c0.33,0,0.613-0.077,0.682-0.128c0.131,0.046,0.119,0.108,0.07,0.287c-0.002,0.014-0.004,0.028-0.01,0.045
					c0.053-0.107,0.166-0.261,0.221-0.38c0.014-0.026,0.037-0.037,0.07-0.031c0.027,0.009,0.043,0.036,0.041,0.062
					c-0.014,0.088-0.055,0.198-0.098,0.326c-0.045,0.128-0.096,0.272-0.133,0.427c-0.033,0.133-0.055,0.275-0.08,0.423
					c-0.027,0.193-0.062,0.397-0.119,0.611c0.049-0.049,0.41-0.37,0.488-0.997c0.012-0.14,0.018-0.279,0.012-0.401l0,0
					c0-0.028,0.014-0.079,0.037-0.097c0.018-0.011,0.043-0.014,0.057-0.014c0.01,0,0.014,0.006,0.014,0.017c0,0.003,0,0.003,0,0.006
					c0.018,0.239,0.012,0.378-0.004,0.503c-0.023,0.256-0.066,0.528-0.104,0.759c-0.033,0.207-0.07,0.443-0.057,0.485
					c0.113-0.014,0.48-0.557,0.523-0.988c0.002-0.025,0.02-0.046,0.045-0.051c0.025-0.004,0.051,0.005,0.062,0.027
					c0.117,0.211,0.387,0.696,0.6,0.796l-0.094-0.145c-0.008-0.159-0.008-0.208-0.086-0.458c0.051-0.443,0.062-1.006,0.078-1.656
					l0.002-0.156c0-0.025,0.018-0.048,0.045-0.054c0.025-0.006,0.051,0.006,0.062,0.028c0.611,1.168,0.891,1.699,0.705,2.656
					l0.043-0.107c0.148-0.159,0.32-0.625,0.305-0.909c-0.004-0.028,0.02-0.054,0.047-0.06
					C429.77,289.953,429.771,289.953,429.775,289.953L429.775,289.953z"/>
			</g>
			<path clip-path="url(#SVGID_4_)" fill="#DF7B27" d="M420.648,283.561c0,0-0.422,0.318-0.953,0.301
				c0.133,0.528,1.229,0.122,1.229,0.122s-0.531,0.586-0.906,0.683c0.225,0.188,1.18,0.122,1.342,0.028
				c0.158-0.097,0.443-0.464,0.443-0.464s-0.982,1.134-1.125,1.125c-0.018,0.131,1.031,0.083,1.246-0.116
				c0.219-0.196,0.768-0.491,0.768-0.491s-1.438,1.003-1.502,1.003c0.539,0.142,1.615-0.168,2.307-0.597
				c-1.02,0.682-1.117,0.807-1.637,1.031c0.463,0.105,0.701,0.418,2.27-0.264c0.898-0.427,1.41-1.202,1.41-1.202
				c-0.561,0.747-1.438,1.381-2.412,2.006c-0.057,0.113,1.039,0.576,2.439-0.881L420.648,283.561z"/>
			<g clip-path="url(#SVGID_4_)">
				<path fill="#010101" d="M423.617,286.938c-0.25,0-0.422-0.062-0.488-0.108c-0.021-0.017-0.068-0.104-0.053-0.131
					c0.35-0.227,0.693-0.457,1.021-0.701c-1.289,0.551-1.668,0.426-2.037,0.307c-0.07-0.022-0.139-0.045-0.213-0.062
					c-0.025-0.006-0.043-0.025-0.045-0.051c0-0.025,0.014-0.049,0.033-0.057c0.355-0.154,0.506-0.259,0.91-0.537
					c0.018-0.015,0.037-0.025,0.053-0.04c-0.582,0.228-1.227,0.358-1.625,0.25c-0.027-0.009-0.045-0.034-0.041-0.062
					c0.002-0.031,0.027-0.051,0.057-0.051c0.031-0.012,0.193-0.12,0.414-0.268c-0.344,0.074-0.799,0.08-0.926,0.015
					c-0.02-0.012-0.061-0.071-0.057-0.094c0.094-0.043,0.326-0.268,0.596-0.555c-0.344,0.068-1.025,0.092-1.238-0.085
					c0.254-0.125,0.568-0.417,0.75-0.603c-0.25,0.065-0.65,0.146-0.895,0.015c-0.104-0.052-0.168-0.134-0.193-0.244
					c0.561-0.054,0.971-0.361,0.975-0.364c0.025-0.017,0.062-0.014,0.082,0.015c0.018,0.025,0.014,0.06-0.014,0.079
					c-0.018,0.015-0.461,0.353-0.988,0.312c0.076,0.006,0.119,0.062,0.193,0.103c0.314,0.165,1.01-0.088,1.016-0.091
					c0.025-0.006,0.051,0,0.068,0.022c0.014,0.022,0.012,0.052-0.006,0.071c-0.021,0.022-0.545,0.6-0.934,0.696
					c0.215,0.062,1.145,0.011,1.297-0.077c0.029-0.017,0.061-0.042,0.098-0.076c0.111-0.122,0.225-0.25,0.332-0.375
					c0.02-0.025,0.057-0.025,0.08-0.006c0.025,0.02,0.027,0.054,0.008,0.079c-0.008,0.012-0.174,0.228-0.326,0.372
					c-0.336,0.37-0.711,0.756-0.836,0.773c0.172-0.006,1.018-0.046,1.203-0.213c0.219-0.199,0.752-0.486,0.775-0.498
					c0.031-0.017,0.062-0.005,0.076,0.021c0.018,0.025,0.012,0.06-0.014,0.077c-0.812,0.564-1.191,0.814-1.367,0.926
					c0.523,0.051,1.457-0.213,2.105-0.617c0.027-0.014,0.062-0.008,0.08,0.018c0.016,0.028,0.01,0.062-0.018,0.08
					c-0.312,0.21-0.537,0.366-0.717,0.488c-0.34,0.235-0.512,0.352-0.781,0.482c0.023,0.006,0.043,0.012,0.066,0.021
					c0.352,0.116,0.721,0.232,2.012-0.324c0.307-0.147,0.568-0.335,0.781-0.52c0.227-0.214,0.428-0.433,0.602-0.665
					c0.02-0.022,0.055-0.031,0.08-0.012c0.025,0.018,0.033,0.055,0.016,0.077c-0.014,0.022-0.24,0.363-0.656,0.716
					c-0.52,0.478-1.141,0.903-1.76,1.301c0.033-0.014,0.135,0.034,0.318,0.055c0.283,0.025,1.07-0.012,2.035-1.018
					c0.023-0.02,0.061-0.022,0.084,0c0.021,0.023,0.021,0.057,0,0.082C424.789,286.736,424.072,286.938,423.617,286.938
					L423.617,286.938z"/>
			</g>
			<path clip-path="url(#SVGID_4_)" fill="#DF7B27" d="M428.252,286.714c0,0,0.094,0.446,0.471,0.787
				c0.379,0.338,0.406,0.671,0.406,0.671L428.252,286.714z"/>
			<g clip-path="url(#SVGID_4_)">
				<path fill="#010101" d="M429.129,288.229c-0.031,0-0.053-0.02-0.057-0.051c0-0.004-0.033-0.316-0.389-0.634
					c-0.387-0.35-0.486-0.799-0.488-0.815c-0.01-0.031,0.012-0.062,0.043-0.068c0.027-0.012,0.062,0.012,0.068,0.043
					c0.002,0.005,0.096,0.432,0.453,0.752c0.393,0.353,0.428,0.699,0.428,0.714c0.002,0.031-0.023,0.057-0.053,0.06
					C429.133,288.229,429.129,288.229,429.129,288.229L429.129,288.229z"/>
			</g>
			<path clip-path="url(#SVGID_4_)" fill="#DF7B27" d="M428.061,283.824c0,0,0.131,0.396,0.521,0.651
				c0.396,0.255,0.99,1.06,1.039,1.201c0.045,0.171,0.273,1.406,0.256,1.54L428.061,283.824z"/>
			<g clip-path="url(#SVGID_4_)">
				<path fill="#010101" d="M429.877,287.273c-0.006,0-0.006,0-0.008,0c-0.031-0.006-0.055-0.034-0.053-0.065
					c0.018-0.113-0.203-1.332-0.252-1.517c-0.043-0.131-0.631-0.921-1.014-1.168c-0.4-0.264-0.537-0.665-0.543-0.682
					c-0.012-0.031,0.006-0.062,0.037-0.074c0.027-0.008,0.062,0.009,0.07,0.037c0.004,0.006,0.131,0.381,0.498,0.622
					c0.408,0.265,1.014,1.085,1.062,1.233c0.039,0.15,0.277,1.414,0.258,1.565C429.928,287.254,429.902,287.273,429.877,287.273
					L429.877,287.273z"/>
			</g>
			<path clip-path="url(#SVGID_4_)" fill="#DF7B27" d="M425.652,284.438c0.027,0.15-0.561,0.917,0.244,1.815
				c-0.727,0.889-0.727,1-0.727,1s0.406,0.227,1.133-0.395c1.199,1.471,0.801,2.147,0.801,2.147L425.652,284.438z"/>
			<g clip-path="url(#SVGID_4_)">
				<path fill="#010101" d="M427.104,289.063c-0.012,0-0.02,0-0.027-0.006c-0.029-0.017-0.037-0.051-0.023-0.079
					c0.004-0.006,0.357-0.668-0.793-2.086c-0.674,0.654-1.102,0.424-1.119,0.412c-0.031-0.133,0.238-0.514,0.713-1.088
					c-0.656-0.659-0.418-1.31-0.303-1.625c0.021-0.054,0.047-0.125,0.045-0.145c-0.006-0.031,0.018-0.061,0.045-0.065
					c0.043,0.005,0.062,0.014,0.068,0.045c0.008,0.049-0.014,0.108-0.049,0.208c-0.115,0.312-0.328,0.9,0.279,1.579
					c-0.582,0.778-0.691,0.994-0.711,1.04c0.01-0.006,0.037-0.003,0.08,0c0.148,0,0.48-0.028,0.957-0.438
					c1.293,1.491,0.904,2.19,0.887,2.222C427.145,289.055,427.123,289.063,427.104,289.063L427.104,289.063z"/>
			</g>
			<path clip-path="url(#SVGID_4_)" fill="#DF7B27" d="M427.008,287.964c0,0-0.111-0.156,0.088-0.747
				c0.176,0.213,0.371,0.259,0.461,0.347c0.084,0.085,0.99,0.216,1.051,0.821L427.008,287.964z"/>
			<g clip-path="url(#SVGID_4_)">
				<path fill="#010101" d="M428.607,288.444c-0.031,0-0.057-0.022-0.061-0.054c-0.039-0.424-0.553-0.603-0.832-0.699
					c-0.113-0.04-0.17-0.06-0.199-0.088c-0.025-0.025-0.07-0.052-0.121-0.08c-0.094-0.054-0.225-0.128-0.344-0.27
					c-0.084,0.52,0.006,0.679,0.006,0.679c0.016,0.028,0.008,0.062-0.018,0.08c-0.029,0.017-0.061,0.009-0.08-0.015
					c-0.012-0.017-0.119-0.199,0.08-0.801c0.205,0.11,0.32,0.176,0.412,0.227c0.059,0.031,0.107,0.061,0.145,0.097
					c0.018,0.015,0.09,0.04,0.156,0.062c0.301,0.105,0.863,0.299,0.912,0.799c0.002,0.031-0.02,0.06-0.055,0.062H428.607
					L428.607,288.444z"/>
			</g>
			<path clip-path="url(#SVGID_4_)" fill="#DF7B27" d="M428.072,282.416c0-0.046-0.182-0.438-0.863,0.051
				C427.576,282.489,427.936,282.699,428.072,282.416L428.072,282.416z"/>
			<g clip-path="url(#SVGID_4_)">
				<path fill="#010101" d="M427.82,282.62L427.82,282.62c-0.094,0-0.197-0.022-0.305-0.046c-0.1-0.02-0.205-0.045-0.309-0.051
					l-0.162-0.009l0.133-0.094c0.232-0.17,0.438-0.255,0.605-0.255c0.242,0,0.346,0.182,0.346,0.25
					C428.066,282.561,427.965,282.62,427.82,282.62L427.82,282.62z M427.371,282.43c0.061,0.009,0.113,0.02,0.168,0.031
					c0.105,0.022,0.199,0.043,0.281,0.043l0,0c0.1,0,0.162-0.034,0.199-0.111l0,0C427.996,282.396,427.771,282.186,427.371,282.43
					L427.371,282.43z"/>
			</g>
			<path clip-path="url(#SVGID_4_)" fill="#DF7B27" d="M434.572,284.205c0.031,0.018,2.035,0.449,2.703,0.233
				c-0.854,1.134-2.555,0.366-2.555,0.366c0.836,0.25,0.869,0.233,1.135,0.469c0.084,0.216-1.535,0.117-2.066-0.185
				c1.482,0.466,1.518,0.432,1.564,0.616c0.068,0.25-2.434-0.068-2.65-0.4c0.668,0.518,1.035,0.617,1.4,0.853
				c-0.447,0.198-1.283,0.397-2.818-0.685c2.021,1.835,3.836,1.719,4.121,2.048c-0.699,1.037-3.418-0.613-4.668-1.448
				c-1.254-0.836,2.732,2.017,3.1,1.969c-0.182,0.281-1.5,0.034-1.582-0.1L434.572,284.205z"/>
			<g clip-path="url(#SVGID_4_)">
				<path fill="#010101" d="M433.363,288.226c-0.006,0-0.012,0-0.02,0c-0.422-0.003-1.061-0.131-1.141-0.256l0.1-0.06
					c0.057,0.068,0.717,0.23,1.182,0.199c0.104-0.009,0.172-0.023,0.219-0.043c-0.658-0.236-2.875-1.827-3.215-2.086
					c-0.006-0.005-0.01-0.005-0.012-0.008l0,0c-0.02-0.018-0.035-0.028-0.035-0.028c0.055-0.1,0.053-0.103,0.328,0.079
					c1.156,0.773,3.918,2.458,4.59,1.466c-0.072-0.017-0.303-0.076-0.625-0.161c-0.777-0.199-2.076-0.535-3.484-1.812
					c-0.023-0.023-0.027-0.058-0.006-0.08c0.02-0.022,0.051-0.028,0.076-0.012c1.482,1.049,2.283,0.89,2.762,0.68
					c-0.129,0.02-0.25-0.04-0.385-0.108c-0.244-0.125-0.516-0.265-0.889-0.54c-0.074-0.037-0.125-0.079-0.152-0.119
					c-0.016-0.022-0.012-0.054,0.008-0.074c0.02-0.02,0.055-0.02,0.076-0.002c0.047,0.037,0.092,0.07,0.137,0.102
					c0.25,0.125,0.83,0.259,1.475,0.333c0.623,0.071,0.914,0.042,0.951,0.005c-0.033-0.088-0.033-0.094-0.781-0.323l-0.084-0.025
					c-0.273-0.052-0.521-0.122-0.678-0.21c-0.027-0.015-0.035-0.049-0.025-0.074c0.012-0.028,0.043-0.037,0.072-0.031l0.67,0.207
					c0.58,0.105,1.262,0.111,1.326,0.034c-0.146-0.11-0.213-0.147-0.443-0.222c-0.381-0.074-0.656-0.193-0.662-0.195
					c-0.027-0.015-0.039-0.046-0.031-0.074c0.012-0.028,0.041-0.043,0.072-0.034l0.312,0.091c0.143,0.043,0.25,0.074,0.338,0.103
					c0.52,0.103,1.238,0.11,1.732-0.412c-0.789,0.113-2.518-0.247-2.574-0.276l0.047-0.104c0.088,0.028,2.021,0.438,2.662,0.233
					c0.021-0.009,0.051,0,0.064,0.022c0.014,0.02,0.014,0.045,0,0.065c-0.42,0.56-1.037,0.668-1.58,0.633
					c0.049,0.035,0.098,0.074,0.154,0.123c0.012,0.011,0.012,0.051,0.012,0.068c0,0.017-0.016,0.057-0.025,0.067
					c-0.086,0.077-0.418,0.094-0.799,0.068c0.27,0.094,0.295,0.137,0.33,0.259c0.008,0.025-0.047,0.107-0.072,0.119
					c-0.221,0.097-1.371-0.003-2.096-0.199c0.189,0.119,0.355,0.205,0.508,0.281c0.133,0.071,0.258,0.137,0.383,0.217
					c-0.416,0.264-1.062,0.429-2.133-0.129c1.119,0.816,2.123,1.071,2.762,1.236c0.355,0.091,0.588,0.153,0.686,0.268
					c-0.504,0.798-1.979,0.25-3.311-0.486c0.773,0.515,1.574,1.018,1.689,0.983c0.023,0,0.047,0.009,0.057,0.028
					c0.016,0.017,0.016,0.043,0,0.062C433.82,288.174,433.645,288.226,433.363,288.226L433.363,288.226z"/>
			</g>
			<path clip-path="url(#SVGID_4_)" fill="#DF7B27" d="M435.09,286.12c-0.236,0.037-0.934,0.037-1.033,0.021L435.09,286.12z"/>
			<g clip-path="url(#SVGID_4_)">
				<path fill="#010101" d="M434.408,286.208c-0.174,0-0.318-0.005-0.361-0.011c-0.031-0.006-0.053-0.034-0.047-0.065
					s0.039-0.058,0.064-0.049c0.098,0.018,0.793,0.015,1.018-0.02c0.031,0.003,0.059,0.017,0.064,0.051
					c0.004,0.031-0.016,0.06-0.051,0.065C434.957,286.199,434.656,286.208,434.408,286.208L434.408,286.208z"/>
			</g>
			<path clip-path="url(#SVGID_4_)" fill="#DF7B27" d="M420.064,283.256c0,0,1.521,0.802,2.164,0.748
				c-0.17,0.158-0.426,0.227-0.426,0.227c0.162,0.065,0.605,0.302,1.275,0.151c-0.158,0.159-0.367,0.338-0.367,0.338
				s0.578,0.219,1.229-0.122c-0.199,0.247-0.312,0.426-0.312,0.426l0.455,0.028L420.064,283.256z"/>
			<g clip-path="url(#SVGID_4_)">
				<path fill="#010101" d="M424.082,285.111h-0.004l-0.455-0.031c-0.033-0.064,0.021-0.182,0.135-0.338
					c-0.574,0.213-1.047,0.043-1.066,0.034c-0.014-0.074,0.094-0.188,0.213-0.307c-0.531,0.071-0.906-0.091-1.076-0.168
					c-0.023-0.009-0.061-0.042-0.057-0.065c0-0.025-0.006-0.057,0.018-0.062c0.002,0,0.135-0.037,0.27-0.116
					c-0.711-0.062-1.963-0.722-2.02-0.75c-0.029-0.015-0.041-0.052-0.025-0.079c0.016-0.029,0.051-0.037,0.078-0.023
					c0.016,0.009,1.525,0.812,2.131,0.738c0.023,0,0.049,0.012,0.061,0.035c0.008,0.022,0.002,0.048-0.016,0.064
					c-0.094,0.092-0.213,0.154-0.303,0.19c0.246,0.1,0.611,0.202,1.102,0.091c0.031-0.002,0.051,0.006,0.062,0.029
					c0.012,0.022,0.01,0.051-0.008,0.067c-0.129,0.125-0.281,0.262-0.344,0.318c0.049-0.009,0.15,0.003,0.293,0.003
					c0.215,0,0.521-0.028,0.844-0.196c0.021-0.011,0.053-0.005,0.07,0.015c0.018,0.022,0.018,0.054,0,0.074
					c-0.195,0.241-0.307,0.417-0.309,0.42l0.41-0.06c0.031,0.003,0.055,0.028,0.053,0.062
					C424.139,285.086,424.113,285.111,424.082,285.111L424.082,285.111z"/>
			</g>
			<path clip-path="url(#SVGID_4_)" fill="#FFFFFF" d="M400.024,308.511c0.047,0,0.172-0.079,0.064-0.079
				C400.038,308.432,399.913,308.511,400.024,308.511L400.024,308.511z"/>
		</g>
	</g>
</g>
</svg>
