<?xml version="1.0" encoding="utf-8"?>
<!-- Generator: Adobe Illustrator 16.0.0, SVG Export Plug-In . SVG Version: 6.00 Build 0)  -->
<!DOCTYPE svg PUBLIC "-//W3C//DTD SVG 1.1//EN" "http://www.w3.org/Graphics/SVG/1.1/DTD/svg11.dtd">
<svg version="1.1" id="name" xmlns="http://www.w3.org/2000/svg" xmlns:xlink="http://www.w3.org/1999/xlink" x="0px" y="0px"
	 width="85.712px" height="50px" viewBox="358 276 85.712 50" enable-background="new 358 276 85.712 50" xml:space="preserve">
<g id="zw">
	<g>
		<defs>
			<rect id="SVGID_1_" x="358" y="276" width="85.712" height="50"/>
		</defs>
		<clipPath id="SVGID_2_">
			<use xlink:href="#SVGID_1_"  overflow="visible"/>
		</clipPath>
		<rect x="358" y="276" clip-path="url(#SVGID_2_)" fill="#4A9442" width="85.712" height="50"/>
		<rect x="358" y="283.143" clip-path="url(#SVGID_2_)" fill="#F6D12B" width="85.712" height="35.715"/>
		<rect x="358" y="290.285" clip-path="url(#SVGID_2_)" fill="#CC2027" width="85.712" height="21.43"/>
		<rect x="358" y="297.431" clip-path="url(#SVGID_2_)" fill="#010101" width="85.712" height="7.143"/>
		<polygon clip-path="url(#SVGID_2_)" fill="#010101" points="358,276 358,326 359.817,326 393.124,300.999 359.817,276 		"/>
		<polygon clip-path="url(#SVGID_2_)" fill="#FFFFFF" points="358,276 358,326 391.309,300.999 		"/>
		<polygon clip-path="url(#SVGID_2_)" fill="#CC2027" points="371.483,288.303 365.866,299.689 374.399,303.905 		"/>
		<polygon clip-path="url(#SVGID_2_)" fill="#CC2027" points="371.483,288.303 377.098,299.689 368.563,303.905 		"/>
		<polygon clip-path="url(#SVGID_2_)" fill="#CC2027" points="371.483,288.303 367.231,300.266 376.198,303.456 		"/>
		<polygon clip-path="url(#SVGID_2_)" fill="#CC2027" points="371.483,288.303 375.733,300.266 366.768,303.456 		"/>
		<polygon clip-path="url(#SVGID_2_)" fill="#CC2027" points="383.549,297.075 370.993,295.252 369.624,304.676 		"/>
		<polygon clip-path="url(#SVGID_2_)" fill="#CC2027" points="359.415,297.075 371.971,295.252 373.34,304.676 		"/>
		<polygon clip-path="url(#SVGID_2_)" fill="#CC2027" points="383.549,297.075 370.866,296.726 370.602,306.246 		"/>
		<polygon clip-path="url(#SVGID_2_)" fill="#CC2027" points="359.415,297.075 372.098,296.726 372.36,306.246 		"/>
		<polygon clip-path="url(#SVGID_2_)" fill="#CC2027" points="377.891,309.829 375.665,299.146 370.329,300.26 		"/>
		<polygon clip-path="url(#SVGID_2_)" fill="#CC2027" points="377.891,309.829 368.426,304.408 371.133,299.675 		"/>
		<polygon clip-path="url(#SVGID_2_)" fill="#CC2027" points="365.073,309.829 374.538,304.408 371.829,299.675 		"/>
		<polygon clip-path="url(#SVGID_2_)" fill="#CC2027" points="365.073,309.829 367.297,299.146 372.635,300.26 		"/>
		<g clip-path="url(#SVGID_2_)">
			<defs>
				<rect id="SVGID_3_" x="358" y="276" width="85.712" height="50"/>
			</defs>
			<clipPath id="SVGID_4_">
				<use xlink:href="#SVGID_3_"  overflow="visible"/>
			</clipPath>
			<path clip-path="url(#SVGID_4_)" fill="#010101" d="M375.836,308.932c0.004-1.605,0.277-3.131,0.857-4.765
				c0.264-0.742,0.955-2.251,1.139-2.48c0.018-0.022,0.312,0.037,0.654,0.131c0.699,0.196,0.893,0.159,0.893-0.168
				c0-0.185-0.717-0.821-4.217-3.756c-2.357-1.975-4.293-3.531-4.389-3.531s-0.191-0.054-0.211-0.119
				c-0.021-0.062-0.135-0.827-0.252-1.699s-0.277-1.73-0.352-1.909c-0.225-0.523-0.684-0.799-1.42-0.85
				c-0.557-0.04-0.672-0.02-1.051,0.201c-0.254,0.148-0.559,0.248-0.768,0.248c-0.418,0-0.756,0.323-0.756,0.725v0.264l0.613-0.017
				c0.336-0.012,0.508,0.003,0.379,0.028c-0.434,0.082-0.26,0.699,0.252,0.881c0.551,0.195,0.527,0.079,0.527,2.668
				c0,2.119-0.018,2.42-0.168,2.912c-0.223,0.715-0.223,1.781,0,2.485c0.09,0.284,0.164,0.548,0.166,0.585
				c0.002,0.04-0.26,0.387-0.582,0.773c-0.578,0.695-0.934,1.439-0.934,1.963c0,0.119-0.076,0.326-0.17,0.457
				c-0.215,0.305-0.219,0.821-0.012,1.021c0.215,0.204,1.105,3.881,1.109,4.574c0,0.253,0.041,0.253,1.393-0.04
				c1.09-0.233,3.672-0.287,4.977-0.097c0.602,0.085,1.305,0.216,1.561,0.284C375.879,309.923,375.834,309.969,375.836,308.932"/>
			<path clip-path="url(#SVGID_4_)" fill="#F4EB33" d="M374.739,309.46c-1.189-0.287-2.533-0.396-4.049-0.33
				c-0.766,0.034-1.568,0.097-1.783,0.137l-0.389,0.076l-0.1-0.653c-0.053-0.357-0.084-0.664-0.068-0.682
				c0.014-0.018,0.385-0.082,0.824-0.145c1.508-0.219,4.729-0.134,6.219,0.164l0.273,0.057v0.787c0,0.574-0.027,0.781-0.105,0.776
				C375.504,309.639,375.133,309.557,374.739,309.46"/>
			<path clip-path="url(#SVGID_4_)" fill="#F4EB33" d="M367.315,309.52c0-0.19-0.469-2.443-0.672-3.239
				c-0.141-0.542-0.256-1.02-0.256-1.065c0-0.039,0.129,0.012,0.285,0.119c0.156,0.108,0.355,0.196,0.443,0.196
				c0.434,0.006,0.672,0.659,1.039,2.861c0.053,0.31,0.113,0.656,0.135,0.767c0.033,0.18-0.014,0.216-0.387,0.305
				C367.43,309.576,367.315,309.585,367.315,309.52"/>
			<path clip-path="url(#SVGID_4_)" fill="#F4EB33" d="M375.547,307.795c-0.027-0.049,0.008-0.137,0.078-0.202
				c0.102-0.094,0.127-0.088,0.127,0.031C375.752,307.798,375.614,307.914,375.547,307.795"/>
			<path clip-path="url(#SVGID_4_)" fill="#F4EB33" d="M368.768,307.437c0.225-0.25,0.23-0.253,0.406-0.073
				c0.166,0.164,0.168,0.182,0.025,0.244c-0.086,0.037-0.268,0.07-0.406,0.074l-0.25,0.005L368.768,307.437z"/>
			<path clip-path="url(#SVGID_4_)" fill="#F4EB33" d="M374.336,307.579c0.018-0.06,0.105-0.162,0.197-0.23
				c0.143-0.103,0.184-0.088,0.314,0.11l0.152,0.228h-0.35C374.424,307.687,374.315,307.65,374.336,307.579"/>
			<path clip-path="url(#SVGID_4_)" fill="#F4EB33" d="M375.086,307.445c-0.1-0.143-0.17-0.27-0.154-0.287
				c0.016-0.017,0.191,0,0.389,0.04l0.359,0.068l-0.207,0.216l-0.207,0.219L375.086,307.445z"/>
			<path clip-path="url(#SVGID_4_)" fill="#F4EB33" d="M368.192,307.459c-0.062-0.182,0.084-0.332,0.326-0.332
				c0.193-0.003,0.188,0.018-0.062,0.275C368.266,307.604,368.243,307.607,368.192,307.459"/>
			<path clip-path="url(#SVGID_4_)" fill="#F4EB33" d="M370.163,307.289l0.221-0.259l0.217,0.21
				c0.119,0.117,0.229,0.219,0.242,0.225c0.016,0.009-0.182,0.031-0.438,0.049l-0.467,0.034L370.163,307.289z"/>
			<path clip-path="url(#SVGID_4_)" fill="#F4EB33" d="M373.149,307.511l-0.281-0.06l0.203-0.211l0.203-0.21l0.242,0.281
				C373.782,307.619,373.754,307.636,373.149,307.511"/>
			<path clip-path="url(#SVGID_4_)" fill="#F4EB33" d="M369.424,307.267l-0.197-0.236h0.301c0.168,0,0.371-0.025,0.451-0.062
				c0.117-0.051,0.107-0.005-0.051,0.236c-0.109,0.161-0.223,0.295-0.252,0.295S369.534,307.395,369.424,307.267"/>
			<path clip-path="url(#SVGID_4_)" fill="#F4EB33" d="M371.577,307.218l0.242-0.281l0.236,0.253
				c0.131,0.14,0.238,0.265,0.238,0.281c0,0.018-0.217,0.028-0.48,0.028h-0.48L371.577,307.218z"/>
			<path clip-path="url(#SVGID_4_)" fill="#F4EB33" d="M373.811,307.267l-0.197-0.236h0.393c0.428,0,0.482,0.071,0.242,0.312
				C374.049,307.542,374.045,307.542,373.811,307.267"/>
			<path clip-path="url(#SVGID_4_)" fill="#F4EB33" d="M370.858,307.17l-0.199-0.233h0.453h0.451l-0.199,0.233
				C371.12,307.459,371.102,307.459,370.858,307.17"/>
			<path clip-path="url(#SVGID_4_)" fill="#F4EB33" d="M372.377,307.17l-0.199-0.233h0.451h0.453l-0.199,0.233
				C372.639,307.459,372.622,307.459,372.377,307.17"/>
			<path clip-path="url(#SVGID_4_)" fill="#F4EB33" d="M375.077,306.934c-0.209-0.039-1.047-0.125-1.865-0.189
				c-1.416-0.114-3.172-0.055-4.736,0.164c-0.322,0.043-0.4,0.025-0.4-0.088c0-0.244,1.691-0.4,4.303-0.4
				c1.275,0,2.574,0.037,2.889,0.079c0.527,0.071,0.568,0.094,0.568,0.304C375.834,307.053,375.764,307.064,375.077,306.934"/>
			<path clip-path="url(#SVGID_4_)" fill="#F4EB33" d="M368.518,306.133c0.172-0.176,0.346-0.324,0.385-0.324
				c0.037,0,0.156,0.105,0.262,0.228l0.191,0.23l-0.408,0.06c-0.225,0.031-0.486,0.073-0.578,0.097
				C368.245,306.451,368.282,306.377,368.518,306.133"/>
			<path clip-path="url(#SVGID_4_)" fill="#F4EB33" d="M367.918,306.178c-0.062-0.188-0.045-0.238,0.1-0.301
				c0.096-0.04,0.246-0.062,0.334-0.045c0.137,0.022,0.125,0.059-0.1,0.298l-0.256,0.272L367.918,306.178z"/>
			<path clip-path="url(#SVGID_4_)" fill="#F4EB33" d="M375.752,306.289c0-0.046,0.053-0.105,0.121-0.134
				c0.082-0.034,0.107-0.009,0.076,0.083C375.897,306.386,375.752,306.426,375.752,306.289"/>
			<path clip-path="url(#SVGID_4_)" fill="#F4EB33" d="M370.083,305.953c0.125-0.156,0.229-0.289,0.229-0.298
				c0-0.011,0.119,0.103,0.266,0.25l0.27,0.265l-0.496,0.031l-0.496,0.031L370.083,305.953z"/>
			<path clip-path="url(#SVGID_4_)" fill="#F4EB33" d="M374.59,306.209l-0.359-0.033l0.258-0.242l0.258-0.241l0.207,0.216
				c0.227,0.236,0.268,0.381,0.102,0.355C374.997,306.255,374.79,306.232,374.59,306.209"/>
			<path clip-path="url(#SVGID_4_)" fill="#F4EB33" d="M369.372,305.951l-0.242-0.217l0.404-0.067
				c0.223-0.037,0.418-0.052,0.436-0.031c0.018,0.02-0.055,0.147-0.16,0.284l-0.191,0.247L369.372,305.951z"/>
			<path clip-path="url(#SVGID_4_)" fill="#F4EB33" d="M373.067,306.107l-0.195-0.062l0.215-0.225c0.182-0.19,0.234-0.205,0.348-0.1
				c0.072,0.065,0.17,0.199,0.215,0.293c0.072,0.147,0.051,0.17-0.15,0.162C373.368,306.172,373.176,306.141,373.067,306.107"/>
			<path clip-path="url(#SVGID_4_)" fill="#F4EB33" d="M375.196,305.891l-0.244-0.295l0.209,0.06c0.115,0.031,0.363,0.06,0.549,0.06
				l0.336,0.003l-0.252,0.23c-0.139,0.128-0.273,0.232-0.301,0.235C375.467,306.184,375.334,306.053,375.196,305.891"/>
			<path clip-path="url(#SVGID_4_)" fill="#F4EB33" d="M370.87,305.871c-0.1-0.116-0.18-0.241-0.18-0.278
				c0-0.034,0.215-0.065,0.477-0.065h0.477l-0.16,0.199C371.202,306.073,371.067,306.104,370.87,305.871"/>
			<path clip-path="url(#SVGID_4_)" fill="#F4EB33" d="M371.649,305.852c0.271-0.268,0.365-0.262,0.541,0.034
				c0.121,0.204,0.119,0.207-0.33,0.204l-0.453-0.006L371.649,305.852z"/>
			<path clip-path="url(#SVGID_4_)" fill="#F4EB33" d="M373.741,305.806l-0.195-0.278h0.207c0.113,0,0.324,0.025,0.465,0.06
				l0.258,0.058l-0.236,0.224c-0.133,0.122-0.256,0.222-0.271,0.219S373.848,305.957,373.741,305.806"/>
			<path clip-path="url(#SVGID_4_)" fill="#F4EB33" d="M372.377,305.764l-0.199-0.236h0.451h0.453l-0.199,0.236
				C372.639,306.053,372.622,306.053,372.377,305.764"/>
			<path clip-path="url(#SVGID_4_)" fill="#F4EB33" d="M367.868,305.457c0.033-0.089,0.105-0.373,0.16-0.631l0.1-0.469l0.928-0.518
				c0.508-0.284,1.076-0.645,1.26-0.804s0.375-0.318,0.43-0.353c0.129-0.082,2.576,0.097,3.656,0.27
				c0.834,0.134,2.293,0.424,2.344,0.464c0.012,0.011-0.115,0.438-0.285,0.948c-0.168,0.512-0.32,0.986-0.338,1.057
				c-0.027,0.098-0.129,0.111-0.414,0.062c-1.387-0.227-5.379-0.207-6.916,0.04C367.918,305.664,367.792,305.655,367.868,305.457"/>
			<path clip-path="url(#SVGID_4_)" fill="#010101" d="M374.915,304.88c0.543-0.605,0.172-1.603-0.598-1.603
				c-0.494,0-0.844,0.39-0.844,0.938C373.473,305.07,374.372,305.484,374.915,304.88"/>
			<path clip-path="url(#SVGID_4_)" fill="#F4EB33" d="M374.006,304.857c-0.459-0.256-0.426-1.077,0.051-1.296
				c0.463-0.213,0.936,0.122,0.936,0.665C374.993,304.74,374.436,305.099,374.006,304.857"/>
			<path clip-path="url(#SVGID_4_)" fill="#010101" d="M371.524,304.82c0.506-0.475,0.391-1.321-0.213-1.603
				c-0.4-0.185-0.826-0.031-1.049,0.375c-0.244,0.446-0.209,0.778,0.125,1.147C370.75,305.146,371.145,305.176,371.524,304.82"/>
			<path clip-path="url(#SVGID_4_)" fill="#F4EB33" d="M370.717,304.777c-0.625-0.278-0.408-1.406,0.27-1.406
				c0.662,0,0.881,1.023,0.287,1.363C371.004,304.891,370.973,304.891,370.717,304.777"/>
			<path clip-path="url(#SVGID_4_)" fill="#F4EB33" d="M367.487,305.195c0.119-0.347,0.104-0.793-0.027-0.793
				c-0.07,0-0.109,0.122-0.109,0.33c0,0.182-0.051,0.381-0.113,0.445c-0.092,0.097-0.104,0.023-0.064-0.423
				c0.025-0.298,0.014-0.54-0.025-0.54c-0.076,0-0.223,0.449-0.275,0.844c-0.031,0.233-0.031,0.233-0.104-0.043
				c-0.053-0.213-0.027-0.354,0.113-0.627c0.1-0.193,0.182-0.478,0.182-0.628c0-0.23,0.16-0.455,0.938-1.296
				c0.518-0.56,1.117-1.253,1.336-1.543c0.377-0.5,0.396-0.551,0.381-1.057c-0.006-0.293-0.037-0.557-0.066-0.591
				c-0.1-0.11-0.23,0.457-0.18,0.767c0.049,0.279,0,0.373-0.545,1.061c-0.328,0.414-0.887,1.042-1.236,1.395
				c-0.648,0.65-0.881,1-0.881,1.33c0,0.1-0.072,0.363-0.162,0.585c-0.09,0.225-0.143,0.448-0.113,0.503
				c0.029,0.06,0.01,0.06-0.053-0.003c-0.072-0.074-0.078-0.213-0.018-0.512c0.045-0.224,0.062-0.442,0.039-0.485
				c-0.09-0.162-0.197,0.045-0.25,0.491c-0.031,0.256-0.09,0.44-0.129,0.412c-0.121-0.085-0.082-0.546,0.066-0.781
				c0.078-0.122,0.172-0.415,0.211-0.65c0.111-0.659,0.377-1.183,0.967-1.896c0.297-0.36,0.539-0.67,0.539-0.685
				c0-0.02-0.08-0.281-0.176-0.588c-0.219-0.705-0.236-1.778-0.035-2.433c0.215-0.685,0.65-1.366,1.342-2.085
				c0.715-0.741,1.393-1.188,1.721-1.134c0.285,0.049,8.451,6.881,8.451,7.074c0,0.074-0.064,0.134-0.148,0.131
				c-0.08,0-2.156-0.628-4.615-1.397c-3.926-1.225-4.49-1.424-4.66-1.646c-0.242-0.31-0.252-0.787-0.023-1.107
				c0.094-0.131,0.168-0.293,0.168-0.361c0-0.207-0.416,0.321-0.496,0.631c-0.094,0.363,0.08,0.969,0.334,1.162
				c0.1,0.076,0.85,0.353,1.662,0.611c1.391,0.439,1.484,0.488,1.561,0.732c0.178,0.591-0.408,1.278-1.252,1.475
				c-0.271,0.062-0.619,0.236-0.859,0.429c-0.949,0.768-1.613,1.22-2.168,1.475c-0.328,0.151-0.641,0.321-0.699,0.381
				c-0.057,0.06-0.141,0.335-0.188,0.608c-0.1,0.582-0.141,0.673-0.301,0.673C367.43,305.437,367.422,305.383,367.487,305.195"/>
			<path clip-path="url(#SVGID_4_)" fill="#F4EB33" d="M376.045,303.036c-0.865-0.214-2.24-0.418-3.635-0.54l-1.34-0.116
				l0.506-0.208c0.275-0.11,0.676-0.304,0.887-0.429c0.332-0.196,0.465-0.219,0.971-0.182c0.752,0.06,1.26-0.088,1.449-0.423
				c0.078-0.14,0.154-0.271,0.166-0.29c0.012-0.021,0.609,0.145,1.328,0.366l1.303,0.4l-0.252,0.48
				c-0.139,0.262-0.314,0.616-0.389,0.781C376.885,303.218,376.833,303.229,376.045,303.036"/>
			<path clip-path="url(#SVGID_4_)" fill="#F4EB33" d="M373.079,301.322c-0.07-0.048-0.068-0.107,0.014-0.232
				c0.07-0.105,0.133-0.134,0.166-0.071C373.336,301.158,373.196,301.405,373.079,301.322"/>
			<path clip-path="url(#SVGID_4_)" fill="#F4EB33" d="M373.389,301.306c0-0.119,0.061-0.119,0.127,0
				c0.029,0.054,0.012,0.094-0.039,0.094C373.43,301.399,373.389,301.359,373.389,301.306"/>
			<path clip-path="url(#SVGID_4_)" fill="#F4EB33" d="M373.811,301.255c0-0.083,0.037-0.122,0.084-0.089
				c0.109,0.074,0.109,0.233,0,0.233C373.848,301.399,373.811,301.334,373.811,301.255"/>
			<path clip-path="url(#SVGID_4_)" fill="#F4EB33" d="M374.209,301.249c-0.033-0.037-0.061-0.131-0.061-0.213
				c0-0.105,0.023-0.114,0.094-0.037c0.051,0.057,0.078,0.153,0.061,0.21C374.286,301.269,374.243,301.289,374.209,301.249"/>
			<path clip-path="url(#SVGID_4_)" fill="#F4EB33" d="M373.536,301.062c-0.033-0.037-0.062-0.134-0.062-0.213
				c0-0.105,0.025-0.116,0.094-0.04c0.053,0.06,0.08,0.156,0.062,0.213C373.612,301.081,373.569,301.099,373.536,301.062"/>
			<path clip-path="url(#SVGID_4_)" fill="#F4EB33" d="M374.524,301.019c-0.09-0.165,0.014-0.198,0.129-0.042
				c0.066,0.088,0.074,0.142,0.018,0.142C374.62,301.118,374.555,301.072,374.524,301.019"/>
			<path clip-path="url(#SVGID_4_)" fill="#F4EB33" d="M373.858,300.843c-0.027-0.048-0.01-0.11,0.037-0.147
				c0.047-0.031,0.084,0.008,0.084,0.091C373.979,300.951,373.93,300.974,373.858,300.843"/>
			<path clip-path="url(#SVGID_4_)" fill="#F4EB33" d="M374.233,300.689c0-0.08,0.037-0.117,0.084-0.088
				c0.109,0.076,0.109,0.235,0,0.235C374.27,300.837,374.233,300.771,374.233,300.689"/>
			<path clip-path="url(#SVGID_4_)" fill="#F4EB33" d="M373.221,300.607c0-0.165,0.051-0.188,0.123-0.058
				c0.025,0.049,0.01,0.111-0.039,0.146C373.258,300.729,373.221,300.689,373.221,300.607"/>
			<path clip-path="url(#SVGID_4_)" fill="#F4EB33" d="M373.557,300.502c0-0.08,0.039-0.119,0.086-0.088
				c0.107,0.076,0.107,0.235,0,0.235C373.596,300.649,373.557,300.584,373.557,300.502"/>
			<path clip-path="url(#SVGID_4_)" fill="#F4EB33" d="M367.887,295.99c-0.025-0.406-0.025-1.353,0-2.103
				c0.047-1.554,0.012-1.708-0.465-1.878c-0.389-0.139-0.529-0.256-0.529-0.44c0-0.119,0.088-0.134,0.512-0.085
				c0.447,0.054,0.51,0.039,0.486-0.094c-0.043-0.242-0.633-0.424-1.258-0.39c-0.492,0.028-0.553,0.015-0.52-0.125
				c0.066-0.29,0.342-0.478,0.756-0.52c0.221-0.026,0.549-0.128,0.727-0.233c0.262-0.156,0.439-0.185,0.943-0.159
				c1.105,0.062,1.316,0.39,1.605,2.492c0.111,0.815,0.203,1.573,0.207,1.682c0,0.14-0.154,0.31-0.541,0.588
				c-0.572,0.409-1.309,1.156-1.668,1.688l-0.213,0.315L367.887,295.99z"/>
			<path clip-path="url(#SVGID_4_)" fill="#010101" d="M368.708,291.075c0.129-0.156,0.137-0.228,0.055-0.427
				c-0.119-0.292-0.26-0.227-0.203,0.097c0.033,0.193,0.008,0.239-0.137,0.239s-0.178-0.06-0.178-0.296
				c0-0.247-0.02-0.275-0.127-0.173c-0.164,0.15-0.162,0.363,0.014,0.576C368.311,291.316,368.518,291.311,368.708,291.075"/>
		</g>
	</g>
</g>
</svg>
