<?xml version="1.0" encoding="utf-8"?>
<!-- Generator: Adobe Illustrator 16.0.0, SVG Export Plug-In . SVG Version: 6.00 Build 0)  -->
<!DOCTYPE svg PUBLIC "-//W3C//DTD SVG 1.1//EN" "http://www.w3.org/Graphics/SVG/1.1/DTD/svg11.dtd">
<svg version="1.1" id="name" xmlns="http://www.w3.org/2000/svg" xmlns:xlink="http://www.w3.org/1999/xlink" x="0px" y="0px"
	 width="85.71px" height="50px" viewBox="358 276 85.71 50" enable-background="new 358 276 85.71 50" xml:space="preserve">
<g id="cy-tr">
	<g>
		<defs>
			<rect id="SVGID_1_" x="358" y="276" width="85.71" height="50"/>
		</defs>
		<clipPath id="SVGID_2_">
			<use xlink:href="#SVGID_1_"  overflow="visible"/>
		</clipPath>
		<rect x="358" y="276" clip-path="url(#SVGID_2_)" fill="#FFFFFF" width="85.71" height="50"/>
		<rect x="358" y="281" clip-path="url(#SVGID_2_)" fill="#D1202A" width="85.71" height="5.001"/>
		<rect x="358" y="315.999" clip-path="url(#SVGID_2_)" fill="#D1202A" width="85.71" height="5.001"/>
		<g clip-path="url(#SVGID_2_)">
			<defs>
				<rect id="SVGID_3_" x="358" y="276" width="85.71" height="50"/>
			</defs>
			<clipPath id="SVGID_4_">
				<use xlink:href="#SVGID_3_"  overflow="visible"/>
			</clipPath>
			<path clip-path="url(#SVGID_4_)" fill="#D1202A" d="M383,288.501c6.902,0,12.5,5.597,12.5,12.501c0,6.9-5.598,12.497-12.5,12.497
				c-6.904,0-12.5-5.597-12.5-12.497C370.5,294.098,376.096,288.501,383,288.501"/>
			<path clip-path="url(#SVGID_4_)" fill="#FFFFFF" d="M386.124,290.998c5.523,0,10,4.48,10,10.004c0,5.52-4.477,10-10,10
				c-5.521,0-9.998-4.48-9.998-10C376.125,295.479,380.602,290.998,386.124,290.998"/>
			<polygon clip-path="url(#SVGID_4_)" fill="#D1202A" points="393.563,301.002 399.504,302.934 400.471,299.959 			"/>
			<polygon clip-path="url(#SVGID_4_)" fill="#D1202A" points="393.563,301.002 399.504,299.069 400.471,302.041 			"/>
			<polygon clip-path="url(#SVGID_4_)" fill="#D1202A" points="397.881,295.055 397.881,301.306 401.006,301.306 			"/>
			<polygon clip-path="url(#SVGID_4_)" fill="#D1202A" points="397.881,295.055 401.555,300.112 399.026,301.95 			"/>
			<polygon clip-path="url(#SVGID_4_)" fill="#D1202A" points="397.881,306.945 401.555,301.888 399.026,300.05 			"/>
			<polygon clip-path="url(#SVGID_4_)" fill="#D1202A" points="397.881,306.945 397.881,300.694 401.006,300.694 			"/>
			<polygon clip-path="url(#SVGID_4_)" fill="#D1202A" points="404.867,297.328 398.924,299.257 399.889,302.229 			"/>
			<polygon clip-path="url(#SVGID_4_)" fill="#D1202A" points="404.867,297.328 401.195,302.382 398.667,300.547 			"/>
			<polygon clip-path="url(#SVGID_4_)" fill="#D1202A" points="404.867,304.672 401.195,299.618 398.667,301.456 			"/>
			<polygon clip-path="url(#SVGID_4_)" fill="#D1202A" points="404.867,304.672 398.924,302.743 399.889,299.771 			"/>
		</g>
	</g>
</g>
</svg>
