<?xml version="1.0" encoding="utf-8"?>
<!-- Generator: Adobe Illustrator 16.0.0, SVG Export Plug-In . SVG Version: 6.00 Build 0)  -->
<!DOCTYPE svg PUBLIC "-//W3C//DTD SVG 1.1//EN" "http://www.w3.org/Graphics/SVG/1.1/DTD/svg11.dtd">
<svg version="1.1" id="name" xmlns="http://www.w3.org/2000/svg" xmlns:xlink="http://www.w3.org/1999/xlink" x="0px" y="0px"
	 width="85.054px" height="49.613px" viewBox="358 276 85.054 49.613" enable-background="new 358 276 85.054 49.613"
	 xml:space="preserve">
<g id="ru-ba">
	<g>
		<defs>
			<rect id="SVGID_1_" x="358" y="276" width="85.052" height="49.613"/>
		</defs>
		<clipPath id="SVGID_2_">
			<use xlink:href="#SVGID_1_"  overflow="visible"/>
		</clipPath>
		<rect x="358" y="276" clip-path="url(#SVGID_2_)" fill="#4F69B2" width="85.054" height="16.535"/>
		<rect x="358" y="292.535" clip-path="url(#SVGID_2_)" fill="#FFFFFF" width="85.054" height="16.539"/>
		<rect x="358" y="309.074" clip-path="url(#SVGID_2_)" fill="#317338" width="85.054" height="16.539"/>
		<g clip-path="url(#SVGID_2_)">
			<defs>
				<rect id="SVGID_3_" x="358" y="276" width="85.054" height="49.613"/>
			</defs>
			<clipPath id="SVGID_4_">
				<use xlink:href="#SVGID_3_"  overflow="visible"/>
			</clipPath>
			<g clip-path="url(#SVGID_4_)">
				<path fill="#F5D729" d="M400.528,307.424c-3.648,0-6.615-2.969-6.615-6.619c0-3.647,2.967-6.613,6.615-6.613
					c3.646,0,6.615,2.966,6.615,6.613C407.143,304.455,404.174,307.424,400.528,307.424L400.528,307.424z M400.528,295.018
					c-3.191,0-5.789,2.596-5.789,5.787c0,3.193,2.598,5.793,5.789,5.793c3.191,0,5.787-2.6,5.787-5.793
					C406.314,297.613,403.719,295.018,400.528,295.018L400.528,295.018z"/>
			</g>
			<path clip-path="url(#SVGID_4_)" fill="#F5D729" d="M400.528,299.482c0.732,0,1.322,0.594,1.322,1.322
				c0,0.732-0.59,1.324-1.322,1.324c-0.732,0-1.322-0.592-1.322-1.324C399.206,300.076,399.795,299.482,400.528,299.482
				L400.528,299.482z"/>
			<g clip-path="url(#SVGID_4_)">
				<polygon fill="#F5D729" points="404.66,300.972 400.528,300.972 400.528,300.641 404.66,300.641 404.66,300.972 				"/>
			</g>
			<path clip-path="url(#SVGID_4_)" fill="#F5D729" d="M404.66,299.979c0.457,0,0.826,0.373,0.826,0.826
				c0,0.459-0.369,0.828-0.826,0.828c-0.455,0-0.824-0.369-0.824-0.828C403.836,300.352,404.205,299.979,404.66,299.979
				L404.66,299.979z"/>
			<g clip-path="url(#SVGID_4_)">
				<polygon fill="#F5D729" points="400.61,300.947 400.446,300.663 404.023,298.598 404.189,298.884 400.61,300.947 				"/>
			</g>
			<path clip-path="url(#SVGID_4_)" fill="#F5D729" d="M403.693,298.023c0.395-0.229,0.902-0.092,1.129,0.304
				c0.232,0.392,0.094,0.899-0.303,1.128c-0.393,0.229-0.896,0.093-1.129-0.301C403.162,298.759,403.299,298.252,403.693,298.023
				L403.693,298.023z"/>
			<g clip-path="url(#SVGID_4_)">
				<polygon fill="#F5D729" points="400.67,300.889 400.383,300.723 402.453,297.145 402.738,297.31 400.67,300.889 				"/>
			</g>
			<path clip-path="url(#SVGID_4_)" fill="#F5D729" d="M401.877,296.812c0.229-0.396,0.736-0.531,1.133-0.304
				c0.393,0.229,0.529,0.734,0.299,1.132c-0.229,0.396-0.732,0.53-1.127,0.301C401.783,297.715,401.648,297.209,401.877,296.812
				L401.877,296.812z"/>
			<g clip-path="url(#SVGID_4_)">
				<polygon fill="#F5D729" points="400.694,300.805 400.362,300.805 400.362,296.672 400.694,296.672 400.694,300.805 				"/>
			</g>
			<path clip-path="url(#SVGID_4_)" fill="#F5D729" d="M399.702,296.672c0-0.457,0.369-0.827,0.826-0.827s0.828,0.37,0.828,0.827
				c0,0.455-0.371,0.828-0.828,0.828S399.702,297.127,399.702,296.672L399.702,296.672z"/>
			<g clip-path="url(#SVGID_4_)">
				<polygon fill="#F5D729" points="400.383,300.889 398.317,297.31 398.602,297.145 400.67,300.723 400.383,300.889 				"/>
			</g>
			<path clip-path="url(#SVGID_4_)" fill="#F5D729" d="M397.745,297.641c-0.229-0.397-0.094-0.903,0.301-1.132
				c0.396-0.228,0.902-0.092,1.131,0.304c0.23,0.396,0.094,0.902-0.305,1.129C398.481,298.171,397.973,298.037,397.745,297.641
				L397.745,297.641z"/>
			<g clip-path="url(#SVGID_4_)">
				<polygon fill="#F5D729" points="400.446,300.947 396.866,298.884 397.032,298.598 400.61,300.663 400.446,300.947 				"/>
			</g>
			<path clip-path="url(#SVGID_4_)" fill="#F5D729" d="M396.536,299.455c-0.398-0.229-0.533-0.736-0.305-1.128
				c0.229-0.396,0.736-0.532,1.131-0.304s0.529,0.735,0.301,1.131C397.434,299.548,396.926,299.685,396.536,299.455L396.536,299.455
				z"/>
			<g clip-path="url(#SVGID_4_)">
				<polygon fill="#F5D729" points="400.528,300.972 396.393,300.972 396.393,300.641 400.528,300.641 400.528,300.972 				"/>
			</g>
			<path clip-path="url(#SVGID_4_)" fill="#F5D729" d="M396.393,299.979c0.457,0,0.826,0.373,0.826,0.826
				c0,0.459-0.369,0.828-0.826,0.828c-0.455,0-0.824-0.369-0.824-0.828C395.569,300.352,395.938,299.979,396.393,299.979
				L396.393,299.979z"/>
			<g clip-path="url(#SVGID_4_)">
				<polygon fill="#F5D729" points="400.694,304.941 400.362,304.941 400.362,300.805 400.694,300.805 400.694,304.941 				"/>
			</g>
		</g>
	</g>
</g>
</svg>
