<?xml version="1.0" encoding="utf-8"?>
<!-- Generator: Adobe Illustrator 16.0.0, SVG Export Plug-In . SVG Version: 6.00 Build 0)  -->
<!DOCTYPE svg PUBLIC "-//W3C//DTD SVG 1.1//EN" "http://www.w3.org/Graphics/SVG/1.1/DTD/svg11.dtd">
<svg version="1.1" id="name" xmlns="http://www.w3.org/2000/svg" xmlns:xlink="http://www.w3.org/1999/xlink" x="0px" y="0px"
	 width="85.711px" height="50px" viewBox="358 276 85.711 50" enable-background="new 358 276 85.711 50" xml:space="preserve">
<g id="ru-in">
	<g>
		<defs>
			<rect id="SVGID_1_" x="358" y="276" width="85.711" height="50"/>
		</defs>
		<clipPath id="SVGID_2_">
			<use xlink:href="#SVGID_1_"  overflow="visible"/>
		</clipPath>
		<rect x="358" y="276" clip-path="url(#SVGID_2_)" fill="#3D9244" width="85.711" height="50"/>
		<rect x="358" y="284.336" clip-path="url(#SVGID_2_)" fill="#FFFFFF" width="85.711" height="33.331"/>
		<g clip-path="url(#SVGID_2_)">
			<defs>
				<rect id="SVGID_3_" x="358" y="276" width="85.711" height="50"/>
			</defs>
			<clipPath id="SVGID_4_">
				<use xlink:href="#SVGID_3_"  overflow="visible"/>
			</clipPath>
			<g clip-path="url(#SVGID_4_)">
				<path fill="#C62127" d="M400.339,312.258c-5.012,0-9.09-4.077-9.09-9.092c0-5.012,4.078-9.088,9.09-9.088
					c5.013,0,9.092,4.076,9.092,9.088C409.431,308.181,405.352,312.258,400.339,312.258L400.339,312.258z M400.339,298.623
					c-2.506,0-4.543,2.037-4.543,4.543c0,2.509,2.037,4.546,4.543,4.546s4.546-2.037,4.546-4.546
					C404.885,300.66,402.845,298.623,400.339,298.623L400.339,298.623z"/>
			</g>
			<g clip-path="url(#SVGID_4_)">
				<path fill="#C62127" d="M400.353,296.586l-0.013-2.5c1.103-0.006,1.999-0.903,1.999-2c0-1.105-0.897-2-2-2
					c-0.619,0-1.194,0.278-1.578,0.764l-1.964-1.548c0.862-1.091,2.152-1.716,3.542-1.716c2.481,0,4.5,2.018,4.5,4.5
					C404.839,294.555,402.826,296.572,400.353,296.586L400.353,296.586z"/>
			</g>
			<path clip-path="url(#SVGID_4_)" fill="#C62127" d="M399.029,290.078c0,0.689-0.56,1.25-1.25,1.25s-1.25-0.561-1.25-1.25
				c0-0.691,0.56-1.25,1.25-1.25S399.029,289.387,399.029,290.078L399.029,290.078z"/>
			<g clip-path="url(#SVGID_4_)">
				<path fill="#C62127" d="M409.926,313.209c-0.778,0-1.545-0.201-2.238-0.602c-2.14-1.238-2.881-3.989-1.654-6.137l2.171,1.241
					c-0.547,0.954-0.217,2.183,0.734,2.73c0.461,0.267,0.997,0.338,1.518,0.196c0.516-0.137,0.947-0.469,1.213-0.93
					c0.312-0.537,0.358-1.173,0.126-1.75l2.323-0.926c0.517,1.289,0.413,2.725-0.284,3.926c-0.599,1.037-1.568,1.781-2.728,2.098
					C410.716,313.158,410.319,313.209,409.926,313.209L409.926,313.209z"/>
			</g>
			<path clip-path="url(#SVGID_4_)" fill="#C62127" d="M412.331,308.578c-0.597-0.346-0.803-1.11-0.456-1.707
				c0.344-0.6,1.108-0.801,1.706-0.457s0.803,1.11,0.459,1.707C413.693,308.718,412.929,308.922,412.331,308.578L412.331,308.578z"
				/>
			<g clip-path="url(#SVGID_4_)">
				<path fill="#C62127" d="M390.103,313.17c-1.377-0.201-2.564-1.006-3.259-2.213c-0.598-1.035-0.759-2.248-0.447-3.41
					c0.311-1.162,1.056-2.133,2.095-2.732c2.137-1.236,4.893-0.506,6.142,1.633l-2.159,1.262c-0.556-0.951-1.781-1.278-2.73-0.73
					c-0.463,0.268-0.794,0.699-0.932,1.214c-0.14,0.517-0.068,1.057,0.197,1.517c0.311,0.537,0.839,0.895,1.453,0.986
					L390.103,313.17L390.103,313.17z"/>
			</g>
			<path clip-path="url(#SVGID_4_)" fill="#C62127" d="M389.658,310.849c0.598-0.347,1.362-0.14,1.707,0.458
				c0.345,0.599,0.141,1.363-0.457,1.707c-0.599,0.344-1.362,0.143-1.706-0.457C388.855,311.959,389.062,311.195,389.658,310.849
				L389.658,310.849z"/>
		</g>
	</g>
</g>
</svg>
