<?xml version="1.0" encoding="utf-8"?>
<!-- Generator: Adobe Illustrator 16.0.0, SVG Export Plug-In . SVG Version: 6.00 Build 0)  -->
<svg version="1.2" baseProfile="tiny" id="New_South_Wales"
	 xmlns="http://www.w3.org/2000/svg" xmlns:xlink="http://www.w3.org/1999/xlink" x="0px" y="0px" width="90px" height="50px"
	 viewBox="5 0 90 50" xml:space="preserve">
<g id="au-nsw">
	<g>
		<polygon fill="#1E3E71" points="95,50 95,0 5,0 5,50 		"/>
		<polygon fill="#1E3E71" points="5.046,24.999 50.044,24.999 50.044,0.001 5.046,0.001 		"/>
		<path fill="#FFFFFF" d="M5.044,21.841L44.42,0.045h5.624V3.16L10.67,24.955c0,0-5.626,0-5.626-0.091
			C5.044,24.688,5.044,21.841,5.044,21.841L5.044,21.841z"/>
		<path fill="#FFFFFF" d="M50.044,21.841L10.67,0.045L5.044,0.033v3.128l39.377,21.794c0,0,5.623,0.176,5.623,0
			C50.044,24.779,50.044,21.841,50.044,21.841L50.044,21.841z"/>
		<polygon fill="#E82429" points="5.046,24.999 9.264,24.999 31.764,12.5 27.545,12.5 		"/>
		<polygon fill="#E82429" points="27.545,12.5 50.044,0.001 45.825,0.001 23.325,12.5 		"/>
		<polygon fill="#E82429" points="5.046,2.344 5.046,0.001 27.545,12.5 23.325,12.5 		"/>
		<polygon fill="#E82429" points="31.764,12.5 50.044,22.655 50.044,24.999 27.545,12.5 		"/>
		<polygon fill="#FFFFFF" points="5,8.574 5,16.425 50,16.425 50,8.574 		"/>
		<polygon fill="#FFFFFF" points="24.021,25.059 31.066,25.059 31.066,0.059 24.021,0.059 		"/>
		<polygon fill="#E82429" points="5,10.205 5,14.914 50,14.914 50,10.205 		"/>
		<polygon fill="#E82429" points="25.432,25 29.657,25 29.657,0 25.432,0 		"/>
	</g>
	<g>
		<path fill="#FFFFFF" d="M72.501,12.598L72.501,12.598c6.83,0,12.399,5.571,12.399,12.402l0,0c0,6.83-5.57,12.402-12.399,12.402
			l0,0c-6.83,0-12.399-5.572-12.399-12.402l0,0C60.1,18.169,65.671,12.598,72.501,12.598L72.501,12.598z"/>
		<path fill="#C54A34" d="M72.501,12.598L72.501,12.598c0.979,0,1.771,0.055,1.771,0.12v24.563c0,0.062-0.795,0.119-1.771,0.119l0,0
			c-0.978,0-1.771-0.058-1.771-0.119V12.718C70.729,12.652,71.523,12.598,72.501,12.598L72.501,12.598z"/>
		<path fill="#C54A34" d="M60.1,25L60.1,25c1.096-0.119,1.891-0.066,1.891,0l22.793-1.771c1.771,1.838,0.977,1.891,0,1.891
			l0.119-0.116c-1.094,0.116-1.892,0.063-1.892,0l-22.793,1.771c-1.771-1.838-0.979-1.892,0-1.892L60.1,25z"/>
		<polygon fill="#FBE000" stroke="#211F1F" stroke-width="0.7501" stroke-miterlimit="2.6131" points="72.193,20.178 71.889,19.084 
			70.938,19.709 71.495,18.719 70.382,18.49 71.477,18.184 70.852,17.234 71.841,17.789 72.068,16.678 72.376,17.771 73.325,17.146 
			72.771,18.137 73.882,18.365 72.788,18.672 73.415,19.619 72.423,19.064 		"/>
		<polygon fill="#FBE000" stroke="#211F1F" stroke-width="0.7501" stroke-miterlimit="2.6131" points="72.193,20.178 71.889,19.084 
			70.938,19.709 71.495,18.719 70.382,18.49 71.477,18.184 70.852,17.234 71.841,17.789 72.068,16.678 72.376,17.771 73.325,17.146 
			72.771,18.137 73.882,18.365 72.788,18.672 73.415,19.619 72.423,19.064 		"/>
		<polygon fill="#FBE000" stroke="#211F1F" stroke-width="0.7501" stroke-miterlimit="2.6131" points="72.193,20.178 71.889,19.084 
			70.938,19.709 71.495,18.719 70.382,18.49 71.477,18.184 70.852,17.234 71.841,17.789 72.068,16.678 72.376,17.771 73.325,17.146 
			72.771,18.137 73.882,18.365 72.788,18.672 73.415,19.619 72.423,19.064 		"/>
		<polygon fill="#FBE000" stroke="#211F1F" stroke-width="0.7501" stroke-miterlimit="2.6131" points="72.193,20.178 71.889,19.084 
			70.938,19.709 71.495,18.719 70.382,18.49 71.477,18.184 70.852,17.234 71.841,17.789 72.068,16.678 72.376,17.771 73.325,17.146 
			72.771,18.137 73.882,18.365 72.788,18.672 73.415,19.619 72.423,19.064 		"/>
		<path fill="#FFC613" stroke="#211F1F" stroke-width="0.7501" stroke-miterlimit="2.6131" d="M67.871,24.121
			c-0.044-0.344,0.71-0.172,0.843,0.1c0.443,0.148,2.479,0.689,2.479,0.689l-0.266,0.195c0,0-2.037-0.718-2.17-0.664
			c-0.135,0.049-0.486-0.123-0.486-0.123l-0.047-0.175c0,0-0.045,0.147-0.088,0.147c-0.045,0-0.045-0.176-0.045-0.176l-0.181,0.123
			L67.871,24.121L67.871,24.121z"/>
		<path fill="#FFC613" stroke="#211F1F" stroke-width="0.7501" stroke-miterlimit="2.6131" d="M71.458,24.787
			c0.666-0.016,3.785-0.016,3.785-0.016s0.575-0.011,0.603-0.193c0.021-0.188-0.513-0.197-0.513-0.197l-2.791-0.012
			c0,0-0.377-0.025-0.42-0.35c-0.045-0.318,0.397-0.344,0.397-0.344l1.527-0.023c0,0,0-0.16,0.021-0.16
			c0.021,0,0.088,0.086,0.088,0.086s0.179-0.123,0.179-0.109c0,0.012,0.063,0.1,0.063,0.1l0.134-0.062c0,0,0.046,0.071,0.069,0.071
			c0.021,0,0.176-0.062,0.176-0.062l0.109,0.086l0.223,0.074h-0.268l-0.043,0.062l-0.111-0.062l-0.133,0.1l-0.09-0.062
			c0,0-0.092,0.049-0.092,0.062c0,0.012-0.088-0.074-0.107-0.074c-0.021,0-0.135,0.062-0.135,0.062s-0.064-0.049-0.09-0.049
			c-0.021,0-1.525,0.021-1.525,0.021s-0.244,0.014-0.27,0.283c-0.021,0.271,0.312,0.271,0.312,0.271s2.854,0.012,2.879,0.012
			c0.021,0,0.553,0.037,0.53,0.259c-0.024,0.222-0.288,0.261-0.288,0.261s0.288,0.086,0.422,0.258
			c0.131,0.177,0.045,0.226,0.176,0.322c0.135,0.098,0.664,0.31,0.664,0.506c0,0.197-0.088,0.187-0.111,0.187
			c-0.021,0-0.105-0.05-0.105-0.05s0.062,0.07-0.156,0.186c-0.223,0.111-0.709,0.188-0.709,0.188l-0.11-0.062l-0.046,0.074
			c0,0-0.021-0.062-0.044-0.062c-0.021,0-0.111,0.052-0.111,0.052s-0.043-0.062-0.063-0.062c-0.021,0-0.111,0.074-0.111,0.074
			s-0.021-0.086,0.068-0.137c0.086-0.051,0.287-0.023,0.309-0.023s0.602-0.024,0.555-0.348c-0.045-0.318-0.467-0.318-0.467-0.318
			s-0.527-0.124-1.262-0.135c-0.729-0.015-1.639,0.159-2.812,0.245c-1.174,0.088-2.725,0.419-2.725,0.419l-0.044,0.073
			c0,0-0.065-0.1-0.091-0.088c-0.021,0.012-0.043,0.102-0.064,0.102s-0.135-0.113-0.135-0.113s-0.197,0.147-0.197,0.138
			c0-0.013,0.021-0.11,0.021-0.11s-0.133-0.197,0.312-0.271c0.443-0.074,0.468-0.013,0.996-0.121c0.53-0.111,0.197-0.42,0.709-0.682
			C71.061,24.799,71.48,24.799,71.458,24.787L71.458,24.787z"/>
		<path fill="#FFC613" stroke="#211F1F" stroke-width="0.7501" stroke-miterlimit="2.6131" d="M70.852,24.775L70.852,24.775
			c0.09-0.062,0.164,0,0.164,0.079l0,0c0,0.077-0.074,0.146-0.164,0.146v-0.063c-0.095,0.063-0.166-0.002-0.166-0.077l0,0
			c0-0.078,0.071-0.146,0.166-0.146V24.775z"/>
		<path fill="#FFC613" stroke="#211F1F" stroke-width="0.7501" stroke-miterlimit="2.6131" d="M70.673,24.713L70.673,24.713
			c0.095-0.062,0.166,0,0.166,0.08l0,0c0,0.078-0.071,0.144-0.166,0.144v-0.062c-0.092,0.062-0.166-0.004-0.166-0.08l0,0
			c0-0.08,0.074-0.146,0.166-0.146V24.713z"/>
		<path fill="#FFC613" stroke="#211F1F" stroke-width="0.7501" stroke-miterlimit="2.6131" d="M70.661,24.873L70.661,24.873
			c0.094-0.063,0.168,0,0.168,0.08l0,0c0,0.078-0.074,0.144-0.168,0.144v-0.063c-0.093,0.062-0.166,0-0.166-0.08l0,0
			c0-0.077,0.073-0.146,0.166-0.146V24.873z"/>
		<path fill="#FFC613" stroke="#211F1F" stroke-width="0.7501" stroke-miterlimit="2.6131" d="M70.495,24.806L70.495,24.806
			c0.094-0.063,0.166,0,0.166,0.08l0,0c0,0.079-0.072,0.145-0.166,0.145v-0.062c-0.091,0.062-0.165-0.001-0.165-0.08l0,0
			c0-0.08,0.074-0.146,0.165-0.146V24.806z"/>
		<path fill="#FFC613" stroke="#211F1F" stroke-width="0.7501" stroke-miterlimit="2.6131" d="M70.341,24.917L70.341,24.917
			c0.093-0.063,0.166,0,0.166,0.079l0,0c0,0.078-0.073,0.145-0.166,0.145v-0.064c-0.094,0.064-0.166,0-0.166-0.076l0,0
			c0-0.08,0.072-0.146,0.166-0.146V24.917z"/>
		<path fill="#FFC613" stroke="#211F1F" stroke-width="0.7501" stroke-miterlimit="2.6131" d="M70.484,24.99L70.484,24.99
			c0.092-0.062,0.166,0.002,0.166,0.08l0,0c0,0.08-0.074,0.146-0.166,0.146v-0.063c-0.092,0.063-0.166,0-0.166-0.08v0.002
			c0-0.08,0.074-0.146,0.166-0.146V24.99z"/>
		<path fill="#FFC613" stroke="#211F1F" stroke-width="0.7501" stroke-miterlimit="2.6131" d="M70.175,24.984L70.175,24.984
			c0.093-0.062,0.166,0,0.166,0.079l0,0c0,0.08-0.073,0.146-0.166,0.146v-0.064c-0.094,0.064-0.166,0-0.166-0.079l0,0
			c0-0.078,0.072-0.145,0.166-0.145V24.984z"/>
		<path fill="#FFC613" stroke="#211F1F" stroke-width="0.7501" stroke-miterlimit="2.6131" d="M70.298,25.046L70.298,25.046
			c0.093-0.063,0.164,0,0.164,0.08l0,0c0,0.077-0.071,0.144-0.164,0.144v-0.062c-0.092,0.062-0.166-0.005-0.166-0.08l0,0
			c0-0.08,0.074-0.146,0.166-0.146V25.046z"/>
		<path fill="#FFC613" stroke="#211F1F" stroke-width="0.7501" stroke-miterlimit="2.6131" d="M70.784,24.596L70.784,24.596
			c0.092-0.062,0.166,0.001,0.166,0.08l0,0c0,0.08-0.074,0.145-0.166,0.145v-0.062c-0.093,0.062-0.167-0.001-0.167-0.08l0,0
			c0-0.079,0.074-0.146,0.167-0.146V24.596z"/>
		<path fill="#FFC613" stroke="#211F1F" stroke-width="0.7501" stroke-miterlimit="2.6131" d="M70.982,24.695L70.982,24.695
			c0.092-0.062,0.166,0,0.166,0.08l0,0c0,0.077-0.074,0.145-0.166,0.145v-0.062c-0.094,0.062-0.166-0.002-0.166-0.08l0,0
			c0-0.078,0.072-0.146,0.166-0.146V24.695z"/>
		<path fill="#FFC613" stroke="#211F1F" stroke-width="0.7501" stroke-miterlimit="2.6131" d="M70.904,24.498L70.904,24.498
			c0.093-0.063,0.166,0,0.166,0.08l0,0c0,0.078-0.071,0.145-0.166,0.145v-0.064c-0.092,0.064-0.165-0.002-0.165-0.08l0,0
			c0-0.077,0.073-0.144,0.165-0.144V24.498z"/>
		<path fill="#FFC613" stroke="#211F1F" stroke-width="0.7501" stroke-miterlimit="2.6131" d="M71.093,24.602L71.093,24.602
			c0.095-0.064,0.168,0.002,0.168,0.08l0,0c0,0.08-0.073,0.145-0.168,0.145v-0.062c-0.092,0.062-0.166,0-0.166-0.08l0,0
			c0-0.077,0.074-0.146,0.166-0.146V24.602z"/>
		<path fill="#FFC613" stroke="#211F1F" stroke-width="0.7501" stroke-miterlimit="2.6131" d="M71.236,24.695L71.236,24.695
			c0.093-0.062,0.166,0,0.166,0.08l0,0c0,0.077-0.073,0.145-0.166,0.145v-0.062c-0.09,0.062-0.166-0.002-0.166-0.08l0,0
			c0-0.078,0.076-0.146,0.166-0.146V24.695z"/>
		<path fill="#FFC613" stroke="#211F1F" stroke-width="0.7501" stroke-miterlimit="2.6131" d="M71.105,24.806L71.105,24.806
			c0.09-0.063,0.164,0,0.164,0.08l0,0c0,0.079-0.074,0.145-0.164,0.145v-0.062c-0.096,0.062-0.168-0.001-0.168-0.08l0,0
			c0-0.08,0.072-0.146,0.168-0.146V24.806z"/>
		<path fill="#FFC613" stroke="#211F1F" stroke-width="0.7501" stroke-miterlimit="2.6131" d="M70.973,24.886L70.973,24.886
			c0.094-0.062,0.166,0.001,0.166,0.08l0,0c0,0.078-0.072,0.144-0.166,0.144v-0.062c-0.095,0.062-0.166-0.002-0.166-0.08l0,0
			c0-0.079,0.073-0.146,0.166-0.146V24.886z"/>
		<path fill="#FFC613" stroke="#211F1F" stroke-width="0.7501" stroke-miterlimit="2.6131" d="M70.784,24.971L70.784,24.971
			c0.092-0.062,0.166,0.002,0.166,0.08l0,0c0,0.08-0.074,0.145-0.166,0.145v-0.062c-0.093,0.062-0.167,0-0.167-0.08l0,0
			c0-0.078,0.074-0.145,0.167-0.145V24.971z"/>
		<path fill="#FFC613" stroke="#211F1F" stroke-width="0.7501" stroke-miterlimit="2.6131" d="M70.628,25.051L70.628,25.051
			c0.095-0.062,0.168,0.002,0.168,0.08l0,0c0,0.08-0.073,0.145-0.168,0.145v-0.062c-0.092,0.062-0.166,0-0.166-0.08l0,0
			c0-0.078,0.074-0.145,0.166-0.145V25.051z"/>
		<path fill="#FFC613" stroke="#211F1F" stroke-width="0.7501" stroke-miterlimit="2.6131" d="M70.484,25.145L70.484,25.145
			c0.092-0.062,0.166,0.001,0.166,0.08l0,0c0,0.079-0.074,0.145-0.166,0.145v-0.062c-0.092,0.062-0.166-0.001-0.166-0.08l0,0
			c0-0.079,0.074-0.144,0.166-0.144V25.145z"/>
		<path fill="#FFC613" stroke="#211F1F" stroke-width="0.7501" stroke-miterlimit="2.6131" d="M69.941,25.322L69.941,25.322
			c0.093-0.062,0.166,0.002,0.166,0.08l0,0c0,0.078-0.073,0.146-0.166,0.146v-0.062c-0.092,0.062-0.166-0.002-0.166-0.08l0,0
			c0-0.078,0.074-0.146,0.166-0.146V25.322z"/>
		<path fill="#FFC613" stroke="#211F1F" stroke-width="0.7501" stroke-miterlimit="2.6131" d="M69.766,25.261L69.766,25.261
			c0.092-0.062,0.166,0.002,0.166,0.08l0,0c0,0.08-0.074,0.144-0.166,0.144v-0.062c-0.093,0.062-0.166,0-0.166-0.08l0,0
			c0-0.078,0.073-0.146,0.166-0.146V25.261z"/>
		<path fill="#FFC613" stroke="#211F1F" stroke-width="0.7501" stroke-miterlimit="2.6131" d="M69.632,24.996L69.632,24.996
			c0.093-0.062,0.166,0,0.166,0.08l0,0c0,0.078-0.073,0.145-0.166,0.145v-0.064c-0.092,0.064-0.166,0-0.166-0.08l0,0
			c0-0.078,0.074-0.143,0.166-0.143V24.996z"/>
		<path fill="#FFC613" stroke="#211F1F" stroke-width="0.7501" stroke-miterlimit="2.6131" d="M69.876,25.145L69.876,25.145
			c0.095-0.062,0.166,0.001,0.166,0.08l0,0c0,0.079-0.071,0.145-0.166,0.145v-0.062c-0.093,0.062-0.166-0.001-0.166-0.08l0,0
			c0-0.079,0.073-0.144,0.166-0.144V25.145z"/>
		<path fill="#FFC613" stroke="#211F1F" stroke-width="0.7501" stroke-miterlimit="2.6131" d="M70.074,25.242L70.074,25.242
			c0.095-0.063,0.167,0.002,0.167,0.08l0,0c0,0.08-0.072,0.145-0.167,0.145v-0.064c-0.092,0.064-0.165,0-0.165-0.08l0,0
			c0-0.078,0.073-0.144,0.165-0.144V25.242z"/>
		<path fill="#FFC613" stroke="#211F1F" stroke-width="0.7501" stroke-miterlimit="2.6131" d="M69.999,25.046L69.999,25.046
			c0.09-0.063,0.164,0,0.164,0.08l0,0c0,0.077-0.074,0.144-0.164,0.144v-0.062c-0.095,0.062-0.168-0.005-0.168-0.08l0,0
			c0-0.08,0.073-0.146,0.168-0.146V25.046z"/>
		<path fill="#FFC613" stroke="#211F1F" stroke-width="0.7501" stroke-miterlimit="2.6131" d="M70.186,25.15L70.186,25.15
			c0.092-0.062,0.166,0.002,0.166,0.08l0,0c0,0.078-0.074,0.146-0.166,0.146v-0.065c-0.093,0.065-0.164,0-0.164-0.077l0,0
			c0-0.078,0.071-0.146,0.164-0.146V25.15z"/>
		<path fill="#FFC613" stroke="#211F1F" stroke-width="0.7501" stroke-miterlimit="2.6131" d="M70.33,25.242L70.33,25.242
			c0.091-0.063,0.164,0.002,0.164,0.08l0,0c0,0.08-0.073,0.145-0.164,0.145v-0.064c-0.094,0.064-0.165,0-0.165-0.08l0,0
			c0-0.078,0.071-0.144,0.165-0.144V25.242z"/>
		<path fill="#FFC613" stroke="#211F1F" stroke-width="0.7501" stroke-miterlimit="2.6131" d="M70.195,25.354L70.195,25.354
			c0.095-0.062,0.168,0.001,0.168,0.08l0,0c0,0.08-0.073,0.145-0.168,0.145v-0.062c-0.09,0.062-0.165,0-0.165-0.081l0,0
			c0-0.079,0.075-0.144,0.165-0.144V25.354z"/>
		<path fill="#FFC613" stroke="#211F1F" stroke-width="0.7501" stroke-miterlimit="2.6131" d="M69.941,25.008L69.941,25.008
			c0.093-0.062,0.166,0.002,0.166,0.081l0,0c0,0.079-0.073,0.144-0.166,0.144v-0.062c-0.092,0.062-0.166-0.001-0.166-0.08l0,0
			c0-0.079,0.074-0.146,0.166-0.146V25.008z"/>
		<path fill="#FFC613" stroke="#211F1F" stroke-width="0.7501" stroke-miterlimit="2.6131" d="M69.755,25.096L69.755,25.096
			c0.093-0.064,0.164,0,0.164,0.08l0,0c0,0.078-0.071,0.143-0.164,0.143v-0.062c-0.092,0.062-0.166-0.001-0.166-0.079l0,0
			c0-0.08,0.074-0.146,0.166-0.146V25.096z"/>
		<path fill="#FFC613" stroke="#211F1F" stroke-width="0.7501" stroke-miterlimit="2.6131" d="M71.148,24.99L71.148,24.99
			c0.092-0.062,0.166,0.002,0.166,0.08l0,0c0,0.08-0.074,0.146-0.166,0.146v-0.063c-0.094,0.063-0.166,0-0.166-0.08v0.002
			c0-0.08,0.072-0.146,0.166-0.146V24.99z"/>
		<path fill="#FFC613" stroke="#211F1F" stroke-width="0.7501" stroke-miterlimit="2.6131" d="M70.973,24.928L70.973,24.928
			c0.094-0.062,0.166,0.002,0.166,0.08l0,0c0,0.08-0.072,0.145-0.166,0.145v-0.062c-0.095,0.062-0.166-0.001-0.166-0.081l0,0
			c0-0.078,0.073-0.145,0.166-0.145V24.928z"/>
		<path fill="#FFC613" stroke="#211F1F" stroke-width="0.7501" stroke-miterlimit="2.6131" d="M70.962,25.089L70.962,25.089
			c0.095-0.063,0.166,0.001,0.166,0.08l0,0c0,0.079-0.071,0.144-0.166,0.144v-0.062c-0.094,0.062-0.166-0.001-0.166-0.08l0,0
			c0-0.079,0.072-0.146,0.166-0.146V25.089z"/>
		<path fill="#FFC613" stroke="#211F1F" stroke-width="0.7501" stroke-miterlimit="2.6131" d="M70.796,25.021L70.796,25.021
			c0.095-0.062,0.166,0.002,0.166,0.08l0,0c0,0.08-0.071,0.144-0.166,0.144v-0.062c-0.095,0.062-0.168,0-0.168-0.08l0,0
			c0-0.077,0.073-0.144,0.168-0.144V25.021z"/>
		<path fill="#FFC613" stroke="#211F1F" stroke-width="0.7501" stroke-miterlimit="2.6131" d="M70.641,25.131L70.641,25.131
			c0.092-0.062,0.166,0.002,0.166,0.08l0,0c0,0.081-0.074,0.145-0.166,0.145v-0.062c-0.093,0.062-0.166,0-0.166-0.081l0,0
			c0-0.078,0.073-0.145,0.166-0.145V25.131z"/>
		<path fill="#FFC613" stroke="#211F1F" stroke-width="0.7501" stroke-miterlimit="2.6131" d="M70.579,24.117L70.579,24.117
			c-0.031-0.062,0.028-0.008,0.028,0.057L70.59,24.24c0.018-0.004-0.041,0.047-0.113,0.047l-0.104-0.061
			c0.03,0.061-0.027,0.012-0.027-0.055l0.021-0.068c-0.021,0.008,0.041-0.048,0.113-0.048L70.579,24.117z"/>
		<path fill="#FFC613" stroke="#211F1F" stroke-width="0.7501" stroke-miterlimit="2.6131" d="M70.552,24.004L70.552,24.004
			c-0.03-0.059,0.027-0.008,0.027,0.056l-0.019,0.066c0.019-0.003-0.041,0.05-0.115,0.05l-0.104-0.061
			c0.029,0.061-0.027,0.008-0.027-0.058l0.019-0.063c-0.019,0.002,0.041-0.049,0.112-0.049L70.552,24.004z"/>
		<path fill="#FFC613" stroke="#211F1F" stroke-width="0.7501" stroke-miterlimit="2.6131" d="M70.3,24.019L70.3,24.019
			c-0.028-0.06,0.028-0.007,0.028,0.056l-0.018,0.066c0.018-0.004-0.043,0.051-0.115,0.051l-0.104-0.061
			c0.028,0.061-0.029,0.008-0.029-0.055l0.019-0.066c-0.019,0.003,0.043-0.051,0.114-0.051L70.3,24.019z"/>
		<path fill="#FFC613" stroke="#211F1F" stroke-width="0.7501" stroke-miterlimit="2.6131" d="M70.271,24.152L70.271,24.152
			c-0.031-0.06,0.028-0.009,0.028,0.058l-0.021,0.065c0.021-0.005-0.043,0.049-0.114,0.049l-0.104-0.062
			c0.029,0.062-0.029,0.008-0.029-0.055l0.021-0.068c-0.021,0.004,0.043-0.047,0.113-0.047L70.271,24.152z"/>
		<path fill="#FFC613" stroke="#211F1F" stroke-width="0.7501" stroke-miterlimit="2.6131" d="M70.102,24.091L70.102,24.091
			c-0.031-0.06,0.028-0.008,0.028,0.056l-0.021,0.066c0.021-0.004-0.041,0.049-0.112,0.049l-0.104-0.061
			c0.028,0.061-0.029,0.008-0.029-0.058l0.02-0.065c-0.02,0.004,0.043-0.049,0.113-0.049L70.102,24.091z"/>
		<path fill="#FFC613" stroke="#211F1F" stroke-width="0.7501" stroke-miterlimit="2.6131" d="M70.43,24.135L70.43,24.135
			c-0.029-0.061,0.028-0.009,0.028,0.055l-0.019,0.066c0.019-0.002-0.043,0.049-0.115,0.049l-0.104-0.061
			c0.029,0.061-0.028,0.01-0.028-0.058l0.02-0.065c-0.02,0.005,0.043-0.047,0.114-0.047L70.43,24.135z"/>
		<path fill="#FFC613" stroke="#211F1F" stroke-width="0.7501" stroke-miterlimit="2.6131" d="M70.784,25.205L70.784,25.205
			c0.092-0.062,0.166,0,0.166,0.08l0,0c0,0.08-0.074,0.145-0.166,0.145v-0.062c-0.093,0.062-0.167-0.002-0.167-0.08l0,0
			c0-0.078,0.074-0.145,0.167-0.145V25.205z"/>
		<path fill="#FFC613" stroke="#211F1F" stroke-width="0.7501" stroke-miterlimit="2.6131" d="M70.475,25.199L70.475,25.199
			c0.092-0.062,0.166,0.002,0.166,0.08l0,0c0,0.08-0.074,0.145-0.166,0.145V25.36c-0.093,0.064-0.166,0-0.166-0.08l0,0
			c0-0.078,0.073-0.143,0.166-0.143V25.199z"/>
		<path fill="#FFC613" stroke="#211F1F" stroke-width="0.7501" stroke-miterlimit="2.6131" d="M70.596,25.261L70.596,25.261
			c0.094-0.062,0.165,0.002,0.165,0.08l0,0c0,0.08-0.071,0.144-0.165,0.144v-0.062c-0.093,0.062-0.166,0-0.166-0.08l0,0
			c0-0.078,0.073-0.146,0.166-0.146V25.261z"/>
		<path fill="#FFC613" stroke="#211F1F" stroke-width="0.7501" stroke-miterlimit="2.6131" d="M71.083,24.812L71.083,24.812
			c0.094-0.062,0.166,0.001,0.166,0.079l0,0c0,0.08-0.074,0.145-0.166,0.145v-0.062c-0.094,0.062-0.166,0-0.166-0.08l0,0
			c0-0.078,0.072-0.145,0.166-0.145V24.812z"/>
		<path fill="#FFC613" stroke="#211F1F" stroke-width="0.7501" stroke-miterlimit="2.6131" d="M70.771,24.49
			c0.021-0.099,0.312-0.071,0.289-0.209c-0.067-0.136-0.711,0.015-0.953-0.013c-0.311-0.062-0.555-0.271-0.729-0.196
			c-0.178,0.073,0.154,0.101,0.045,0.188c-0.108,0.086-0.377,0.613,0.198,0.812C70.175,25.181,70.751,24.59,70.771,24.49
			L70.771,24.49z"/>
		<path fill="#FFC613" stroke="#211F1F" stroke-width="0.7501" stroke-miterlimit="2.6131" d="M71.282,24.91L71.282,24.91
			c0.092-0.064,0.166,0,0.166,0.08l0,0c0,0.078-0.074,0.145-0.166,0.145V25.07c-0.093,0.064-0.166,0-0.166-0.08l0,0
			c0-0.078,0.073-0.146,0.166-0.146V24.91z"/>
		<path fill="#FFC613" stroke="#211F1F" stroke-width="0.7501" stroke-miterlimit="2.6131" d="M71.205,24.713L71.205,24.713
			c0.091-0.062,0.164,0,0.164,0.08l0,0c0,0.078-0.073,0.144-0.164,0.144v-0.062c-0.094,0.062-0.167-0.004-0.167-0.08l0,0
			c0-0.08,0.073-0.146,0.167-0.146V24.713z"/>
		<path fill="#FFC613" stroke="#211F1F" stroke-width="0.7501" stroke-miterlimit="2.6131" d="M71.393,24.818L71.393,24.818
			c0.092-0.062,0.166,0,0.166,0.079l0,0c0,0.079-0.074,0.146-0.166,0.146V24.98c-0.093,0.063-0.166-0.002-0.166-0.078l0,0
			c0-0.078,0.073-0.146,0.166-0.146V24.818z"/>
		<path fill="#FFC613" stroke="#211F1F" stroke-width="0.7501" stroke-miterlimit="2.6131" d="M70.175,25.311L70.175,25.311
			c0.093-0.064,0.166,0.001,0.166,0.08l0,0c0,0.08-0.073,0.145-0.166,0.145v-0.062c-0.094,0.062-0.166,0-0.166-0.08l0,0
			c0-0.079,0.072-0.146,0.166-0.146V25.311z"/>
		<path fill="#FFC613" stroke="#211F1F" stroke-width="0.7501" stroke-miterlimit="2.6131" d="M70.298,25.211L70.298,25.211
			c0.093-0.063,0.164,0.001,0.164,0.081l0,0c0,0.079-0.071,0.144-0.164,0.144v-0.064c-0.092,0.064-0.166,0-0.166-0.076l0,0
			c0-0.08,0.074-0.146,0.166-0.146V25.211z"/>
		<path fill="#FFC613" stroke="#211F1F" stroke-width="0.7501" stroke-miterlimit="2.6131" d="M70.484,25.318L70.484,25.318
			c0.092-0.062,0.166,0,0.166,0.079l0,0c0,0.077-0.074,0.146-0.166,0.146V25.48c-0.092,0.063-0.166-0.003-0.166-0.078l0,0
			c0-0.08,0.074-0.146,0.166-0.146V25.318z"/>
		<path fill="#FFC613" stroke="#211F1F" stroke-width="0.7501" stroke-miterlimit="2.6131" d="M71.448,24.662L71.448,24.662
			c0.092-0.062,0.165,0.002,0.165,0.082l0,0c0,0.078-0.073,0.143-0.165,0.143v-0.062c-0.093,0.062-0.166-0.002-0.166-0.08l0,0
			c0-0.078,0.073-0.145,0.166-0.145V24.662z"/>
		<path fill="#FFC613" stroke="#211F1F" stroke-width="0.7501" stroke-miterlimit="2.6131" d="M71.128,24.324L71.128,24.324
			c0.093-0.062,0.166,0,0.166,0.08l0,0c0,0.076-0.074,0.145-0.166,0.145v-0.062c-0.094,0.062-0.166-0.002-0.166-0.08l0,0
			c0-0.08,0.072-0.145,0.166-0.145V24.324z"/>
		<path fill="#FFC613" stroke="#211F1F" stroke-width="0.7501" stroke-miterlimit="2.6131" d="M71.271,24.398L71.271,24.398
			c0.092-0.062,0.166,0.002,0.166,0.08l0,0c0,0.078-0.074,0.145-0.166,0.145v-0.062c-0.092,0.062-0.166-0.001-0.166-0.078l0,0
			c0-0.078,0.074-0.145,0.166-0.145V24.398z"/>
		<path fill="#FFC613" stroke="#211F1F" stroke-width="0.7501" stroke-miterlimit="2.6131" d="M70.962,24.393L70.962,24.393
			c0.095-0.064,0.166,0.001,0.166,0.08l0,0c0,0.08-0.071,0.145-0.166,0.145v-0.062c-0.094,0.062-0.166,0-0.166-0.08l0,0
			c0-0.078,0.072-0.146,0.166-0.146V24.393z"/>
		<path fill="#FFC613" stroke="#211F1F" stroke-width="0.7501" stroke-miterlimit="2.6131" d="M71.083,24.453L71.083,24.453
			c0.094-0.062,0.166,0.002,0.166,0.08l0,0c0,0.08-0.074,0.145-0.166,0.145v-0.062c-0.094,0.062-0.166-0.002-0.166-0.08l0,0
			c0-0.08,0.072-0.145,0.166-0.145V24.453z"/>
		<path fill="#FFC613" stroke="#211F1F" stroke-width="0.7501" stroke-miterlimit="2.6131" d="M71.415,24.46L71.415,24.46
			c0.092-0.063,0.166,0.001,0.166,0.079l0,0c0,0.078-0.074,0.146-0.166,0.146V24.62c-0.093,0.065-0.166,0-0.166-0.075l0,0
			c0-0.08,0.073-0.146,0.166-0.146V24.46z"/>
		<path fill="#FFC613" stroke="#211F1F" stroke-width="0.7501" stroke-miterlimit="2.6131" d="M71.271,24.553L71.271,24.553
			c0.092-0.063,0.166,0.002,0.166,0.08l0,0c0,0.08-0.074,0.145-0.166,0.145v-0.062c-0.092,0.062-0.166,0-0.166-0.08l0,0
			c0-0.078,0.074-0.146,0.166-0.146V24.553z"/>
		<path fill="#FFC613" stroke="#211F1F" stroke-width="0.7501" stroke-miterlimit="2.6131" d="M70.794,24.012L70.794,24.012
			c-0.028-0.061,0.029-0.008,0.029,0.057l-0.021,0.066c0.021-0.004-0.041,0.048-0.113,0.048l-0.104-0.06
			c0.03,0.06-0.029,0.009-0.029-0.055l0.02-0.067c-0.02,0.003,0.042-0.05,0.113-0.05L70.794,24.012z"/>
		<path fill="#FFC613" stroke="#211F1F" stroke-width="0.7501" stroke-miterlimit="2.6131" d="M71.032,24.123L71.032,24.123
			c-0.031-0.062,0.03-0.008,0.03,0.056l-0.021,0.067c0.021-0.004-0.041,0.049-0.11,0.049l-0.104-0.061
			c0.03,0.061-0.028,0.01-0.028-0.058l0.021-0.063c-0.021,0.004,0.041-0.053,0.113-0.053L71.032,24.123z"/>
		<path fill="#FFC613" stroke="#211F1F" stroke-width="0.7501" stroke-miterlimit="2.6131" d="M70.837,24.126L70.837,24.126
			c-0.028-0.062,0.027-0.009,0.027,0.054l-0.019,0.068c0.019-0.006-0.041,0.048-0.113,0.048l-0.104-0.06
			c0.031,0.06-0.024,0.008-0.024-0.059l0.018-0.064c-0.018,0.004,0.041-0.051,0.113-0.051L70.837,24.126z"/>
		<path fill="#FFC613" stroke="#211F1F" stroke-width="0.7501" stroke-miterlimit="2.6131" d="M71.21,24.227L71.21,24.227
			c-0.028-0.061,0.026-0.009,0.026,0.055l-0.018,0.066c0.018-0.003-0.041,0.049-0.115,0.049L71,24.337
			c0.029,0.06-0.027,0.009-0.027-0.054l0.019-0.066c-0.019,0.002,0.041-0.051,0.114-0.051L71.21,24.227z"/>
		<path fill="#211F1F" d="M70.223,24.9c0.004-0.056,0.004-0.056,0.004-0.056c0-0.122-0.177-0.222-0.392-0.222
			c-0.213,0-0.388,0.097-0.39,0.218c0,0.004,0,0.005,0,0.005c0,0.122,0.176,0.221,0.39,0.221c0.215,0,0.392-0.099,0.392-0.221
			c0-0.001,0-0.003,0-0.003l-0.392,0.003L70.223,24.9L70.223,24.9z"/>
		<path fill="#211F1F" d="M69.962,24.52c0.011-0.045,0.011-0.045,0.011-0.045c0-0.049-0.074-0.092-0.164-0.092
			c-0.088,0-0.16,0.041-0.162,0.091c0,0.001,0,0.001,0,0.001c0,0.053,0.074,0.094,0.162,0.094c0.09,0,0.162-0.041,0.162-0.094l0,0
			h-0.162L69.962,24.52L69.962,24.52z"/>
		<path fill="#211F1F" d="M70.404,24.617c0.007-0.043,0.007-0.043,0.007-0.043c0-0.054-0.072-0.096-0.16-0.096
			c-0.09,0-0.162,0.04-0.162,0.094v0.002c0,0.049,0.072,0.09,0.162,0.09s0.16-0.041,0.16-0.09c0-0.002,0-0.002,0-0.002l-0.16,0.002
			L70.404,24.617L70.404,24.617z"/>
		<path fill="#211F1F" d="M70.141,24.693c0.008-0.046,0.008-0.046,0.008-0.046c0-0.052-0.074-0.093-0.162-0.093
			c-0.09,0-0.162,0.041-0.164,0.091c0,0.003,0,0.003,0,0.003c0,0.051,0.074,0.092,0.164,0.092c0.089,0,0.162-0.041,0.162-0.092
			c0,0,0,0,0-0.002l-0.162,0.002L70.141,24.693L70.141,24.693z"/>
		<path fill="#211F1F" d="M69.807,24.806c0.211-0.084,0.211-0.084,0.211-0.084c0-0.038-0.058-0.069-0.121-0.069
			c-0.066,0-0.121,0.03-0.123,0.067c0,0.002,0,0.002,0,0.002c0,0.038,0.055,0.069,0.123,0.069c0.063,0,0.121-0.031,0.121-0.069
			c0,0,0-0.001,0-0.002l-0.121,0.002L69.807,24.806L69.807,24.806z"/>
	</g>
</g>
</svg>
