<?xml version="1.0" encoding="utf-8"?>
<!-- Generator: Adobe Illustrator 16.0.0, SVG Export Plug-In . SVG Version: 6.00 Build 0)  -->
<svg version="1.2" baseProfile="tiny" id="Torrest_Strait_Islands_1_"
	 xmlns="http://www.w3.org/2000/svg" xmlns:xlink="http://www.w3.org/1999/xlink" x="0px" y="0px" width="75px" height="50px"
	 viewBox="12 0 75 50" xml:space="preserve">
<g id="au-tsi">
	<rect id="rect2160_1_" x="12" y="41.25" fill="#098843" width="75" height="8.75"/>
	<rect id="rect3198_1_" x="12" fill="#098843" width="75" height="8.75"/>
	<rect id="rect3200_1_" x="12" y="8.75" width="75" height="2.5"/>
	<rect id="rect4171_1_" x="12" y="38.75" width="75" height="2.5"/>
	<rect id="rect4173_1_" x="12" y="11.25" fill="#3D58A6" width="75" height="27.5"/>
	<path id="path5162_1_" fill="#FFFFFF" d="M48.25,11.875c-12.5,3.75-11.875,13.125-7.875,21.75l-4.75,4.5L44.25,35V23.5
		c2.75-4.125,7.75-4.125,10.5,0V35l8.625,3.125l-4.75-4.5c4-8.625,4.625-18-7.875-21.75L49.5,17.25L48.25,11.875z"/>
	<path id="path6829_1_" fill="#FFFFFF" d="M54.25,24.631l-2.918,2.246l1.107,3.623l-2.938-2.227l-2.934,2.223l1.102-3.621
		l-2.92-2.25l3.618-0.014L49.497,21l1.133,3.614L54.25,24.631z"/>
</g>
</svg>
