<?xml version="1.0" encoding="utf-8"?>
<!-- Generator: Adobe Illustrator 16.0.0, SVG Export Plug-In . SVG Version: 6.00 Build 0)  -->
<svg version="1.2" baseProfile="tiny" id="Victoria"
	 xmlns="http://www.w3.org/2000/svg" xmlns:xlink="http://www.w3.org/1999/xlink" x="0px" y="0px" width="90px" height="50px"
	 viewBox="5 0 90 50" xml:space="preserve">
<g id="au-vic">
	<rect x="5" fill="#00587E" width="90" height="50"/>
	<rect x="5.093" fill="#00587E" width="44.907" height="24.948"/>
	<path fill="#FFFFFF" d="M5.093,21.83L44.399,0.104H50v3.119L10.695,24.948c0,0-5.604,0-5.604-0.104
		C5.093,24.74,5.093,21.83,5.093,21.83L5.093,21.83z"/>
	<path fill="#FFFFFF" d="M50,21.83L10.695,0.104H5.091v3.119l39.307,21.726c0,0,5.602,0.208,5.602,0S50,21.83,50,21.83L50,21.83z"/>
	<polygon fill="#DB6328" points="5.093,24.948 9.294,24.948 31.794,12.475 27.593,12.475 	"/>
	<polygon fill="#DB6328" points="27.593,12.475 50,0 45.799,0 23.392,12.475 	"/>
	<polygon fill="#DB6328" points="5.093,2.391 5.093,0 27.593,12.475 23.392,12.475 	"/>
	<polygon fill="#DB6328" points="31.794,12.475 50,22.661 50,24.948 27.593,12.475 	"/>
	<rect x="5" y="8.627" fill="#FFFFFF" width="45" height="7.798"/>
	<rect x="24.046" y="0.104" fill="#FFFFFF" width="7.001" height="24.948"/>
	<rect x="5" y="10.188" fill="#DB6328" width="45" height="4.78"/>
	<rect x="25.445" fill="#DB6328" width="4.202" height="24.948"/>
	<path fill="#D25329" d="M69.232,14.449v-2.287l-0.521-1.039c-0.205-0.52-0.104-0.729,0.104-0.729
		c0.207-0.104,0.521,0.104,0.83,0.104c0.311,0,0.207-0.623,0.728-0.52c0.521,0,1.351,0.312,2.073,0.312
		c0.729,0.104,1.142-0.209,1.972-0.312c0.829,0,1.144,0.416,1.144,0.416c0.104,0,0.312-0.207,0.519-0.207s0.312,0.104,0.312,0.104
		s0,0.623-0.104,0.936c-0.104,0.313-0.52,0.938-0.52,0.938s-0.104,2.394-0.104,2.494C75.664,14.657,69.232,14.553,69.232,14.449
		L69.232,14.449z"/>
	<path fill="none" d="M69.232,14.449v-2.287l-0.521-1.039c-0.205-0.52-0.104-0.729,0.104-0.729c0.207-0.104,0.521,0.104,0.83,0.104
		c0.311,0,0.207-0.623,0.728-0.52c0.521,0,1.351,0.312,2.073,0.312c0.729,0.104,1.142-0.209,1.972-0.312
		c0.829,0,1.144,0.416,1.144,0.416c0.104,0,0.312-0.207,0.519-0.207s0.312,0.104,0.312,0.104s0,0.623-0.104,0.936
		c-0.104,0.313-0.52,0.938-0.52,0.938s-0.104,2.394-0.104,2.494C75.664,14.657,69.232,14.553,69.232,14.449L69.232,14.449z"/>
	<path fill="#FFE41F" d="M75.872,12.162c0,0,0.622-0.52,0.622-1.768c0-0.729-0.312-1.248-1.141-1.248
		c-1.145,0-2.803,0.521-2.803,0.521v0.207c0,0,1.242-0.521,2.803-0.521c0.621,0,0.933,0.521,0.933,1.039
		c0,0.832-0.622,1.769-0.622,1.769v1.455h0.208V12.162z"/>
	<path fill="none" d="M75.872,12.162c0,0,0.622-0.52,0.622-1.768c0-0.729-0.312-1.248-1.141-1.248c-1.145,0-2.803,0.521-2.803,0.521
		v0.207c0,0,1.242-0.521,2.803-0.521c0.621,0,0.933,0.521,0.933,1.039c0,0.832-0.622,1.769-0.622,1.769v1.455h0.208V12.162z"/>
	<path fill="#FFFFFF" d="M76.184,11.746c0.312,0,0.312-0.104,0.207-0.104S76.184,11.746,76.184,11.746L76.184,11.746
		c0,0.104,0.104,0.209,0.207,0.209c0.103,0,0.104-0.104,0.104-0.209l0,0h-0.104H76.184z"/>
	<path fill="none" d="M76.184,11.746c0.312,0,0.312-0.104,0.207-0.104S76.184,11.746,76.184,11.746L76.184,11.746
		c0,0.104,0.104,0.209,0.207,0.209c0.103,0,0.104-0.104,0.104-0.209l0,0h-0.104H76.184z"/>
	<path fill="#FFFFFF" d="M76.391,11.436c0.312-0.104,0.209-0.209,0.104-0.209S76.391,11.33,76.391,11.436L76.391,11.436
		c0,0,0,0.104,0.104,0.104s0.207-0.104,0.207-0.104l0,0h-0.207H76.391z"/>
	<path fill="none" d="M76.391,11.436c0.312-0.104,0.209-0.209,0.104-0.209S76.391,11.33,76.391,11.436L76.391,11.436
		c0,0,0,0.104,0.104,0.104s0.207-0.104,0.207-0.104l0,0h-0.207H76.391z"/>
	<path fill="#FFFFFF" d="M76.391,11.02c0.416-0.104,0.312-0.209,0.209-0.209C76.494,10.811,76.391,10.914,76.391,11.02L76.391,11.02
		c0,0,0.104,0.104,0.209,0.104c0.103,0,0.207-0.104,0.207-0.104l0,0H76.6H76.391z"/>
	<path fill="none" d="M76.391,11.02c0.416-0.104,0.312-0.209,0.209-0.209C76.494,10.811,76.391,10.914,76.391,11.02L76.391,11.02
		c0,0,0.104,0.104,0.209,0.104c0.103,0,0.207-0.104,0.207-0.104l0,0H76.6H76.391z"/>
	<path fill="#FFFFFF" d="M76.494,10.499c0.312-0.104,0.312-0.104,0.207-0.104C76.6,10.395,76.494,10.395,76.494,10.499
		L76.494,10.499c0,0.104,0.104,0.208,0.207,0.208s0.104-0.104,0.104-0.208l0,0h-0.104H76.494z"/>
	<path fill="none" d="M76.494,10.499c0.312-0.104,0.312-0.104,0.207-0.104C76.6,10.395,76.494,10.395,76.494,10.499L76.494,10.499
		c0,0.104,0.104,0.208,0.207,0.208s0.104-0.104,0.104-0.208l0,0h-0.104H76.494z"/>
	<path fill="#FFFFFF" d="M76.494,10.083c0.312-0.104,0.207-0.208,0.207-0.208C76.6,9.875,76.494,9.979,76.494,10.083L76.494,10.083
		c0,0.104,0.104,0.104,0.207,0.104c0,0,0.104,0,0.104-0.104l0,0h-0.104H76.494z"/>
	<path fill="none" d="M76.494,10.083c0.312-0.104,0.207-0.208,0.207-0.208C76.6,9.875,76.494,9.979,76.494,10.083L76.494,10.083
		c0,0.104,0.104,0.104,0.207,0.104c0,0,0.104,0,0.104-0.104l0,0h-0.104H76.494z"/>
	<path fill="#FFFFFF" d="M75.977,12.162c0.311-0.104,0.207-0.207,0.104-0.207S75.977,12.059,75.977,12.162L75.977,12.162
		c0,0.104,0,0.104,0.104,0.104s0.207,0,0.207-0.104l0,0H76.08H75.977z"/>
	<path fill="none" d="M75.977,12.162c0.311-0.104,0.207-0.207,0.104-0.207S75.977,12.059,75.977,12.162L75.977,12.162
		c0,0.104,0,0.104,0.104,0.104s0.207,0,0.207-0.104l0,0H76.08H75.977z"/>
	<path fill="#FFFFFF" d="M76.391,9.562c0.312,0,0.209-0.104,0.104-0.104S76.391,9.562,76.391,9.562L76.391,9.562
		c0,0.104,0,0.209,0.104,0.209s0.207-0.104,0.207-0.209l0,0h-0.207H76.391z"/>
	<path fill="none" d="M76.391,9.562c0.312,0,0.209-0.104,0.104-0.104S76.391,9.562,76.391,9.562L76.391,9.562
		c0,0.104,0,0.209,0.104,0.209s0.207-0.104,0.207-0.209l0,0h-0.207H76.391z"/>
	<path fill="#FFFFFF" d="M76.079,9.252c0.312-0.105,0.207-0.209,0.104-0.209C76.08,9.043,76.079,9.146,76.079,9.252L76.079,9.252
		c0,0.104,0,0.207,0.104,0.207c0.104,0,0.205-0.104,0.205-0.207l0,0h-0.205H76.079z"/>
	<path fill="none" d="M76.079,9.252c0.312-0.105,0.207-0.209,0.104-0.209C76.08,9.043,76.079,9.146,76.079,9.252L76.079,9.252
		c0,0.104,0,0.207,0.104,0.207c0.104,0,0.205-0.104,0.205-0.207l0,0h-0.205H76.079z"/>
	<path fill="#FFFFFF" d="M75.664,9.043c0.312-0.104,0.206-0.207,0.104-0.207C75.664,8.836,75.664,8.939,75.664,9.043L75.664,9.043
		c0,0.104,0,0.104,0.104,0.104s0.207,0,0.207-0.104l0,0h-0.207H75.664z"/>
	<path fill="none" d="M75.664,9.043c0.312-0.104,0.206-0.207,0.104-0.207C75.664,8.836,75.664,8.939,75.664,9.043L75.664,9.043
		c0,0.104,0,0.104,0.104,0.104s0.207,0,0.207-0.104l0,0h-0.207H75.664z"/>
	<path fill="#FFFFFF" d="M75.249,8.939c0.312,0,0.209-0.104,0.104-0.104C75.249,8.836,75.249,8.939,75.249,8.939L75.249,8.939
		c0,0.104,0,0.207,0.104,0.207c0.104,0,0.207-0.104,0.207-0.207l0,0h-0.207H75.249z"/>
	<path fill="none" d="M75.249,8.939c0.312,0,0.209-0.104,0.104-0.104C75.249,8.836,75.249,8.939,75.249,8.939L75.249,8.939
		c0,0.104,0,0.207,0.104,0.207c0.104,0,0.207-0.104,0.207-0.207l0,0h-0.207H75.249z"/>
	<path fill="#FFFFFF" d="M74.73,9.043c0.414-0.104,0.312-0.207,0.207-0.207C74.835,8.836,74.73,8.939,74.73,9.043L74.73,9.043
		c0,0.104,0.104,0.104,0.207,0.104c0.103,0,0.207,0,0.207-0.104l0,0h-0.207H74.73z"/>
	<path fill="none" d="M74.73,9.043c0.414-0.104,0.312-0.207,0.207-0.207C74.835,8.836,74.73,8.939,74.73,9.043L74.73,9.043
		c0,0.104,0.104,0.104,0.207,0.104c0.103,0,0.207,0,0.207-0.104l0,0h-0.207H74.73z"/>
	<path fill="#FFFFFF" d="M74.314,9.043c0.312-0.104,0.312-0.104,0.207-0.104C74.418,8.939,74.314,8.939,74.314,9.043L74.314,9.043
		c0,0.104,0.104,0.209,0.207,0.209c0.104,0,0.104-0.104,0.104-0.209l0,0h-0.104H74.314z"/>
	<path fill="none" d="M74.314,9.043c0.312-0.104,0.312-0.104,0.207-0.104C74.418,8.939,74.314,8.939,74.314,9.043L74.314,9.043
		c0,0.104,0.104,0.209,0.207,0.209c0.104,0,0.104-0.104,0.104-0.209l0,0h-0.104H74.314z"/>
	<path fill="#FFFFFF" d="M73.9,9.146c0.312-0.104,0.207-0.207,0.104-0.207S73.9,9.043,73.9,9.146L73.9,9.146
		c0,0.104,0,0.209,0.104,0.209s0.207-0.104,0.207-0.209l0,0h-0.207H73.9z"/>
	<path fill="none" d="M73.9,9.146c0.312-0.104,0.207-0.207,0.104-0.207S73.9,9.043,73.9,9.146L73.9,9.146
		c0,0.104,0,0.209,0.104,0.209s0.207-0.104,0.207-0.209l0,0h-0.207H73.9z"/>
	<path fill="#FFFFFF" d="M73.382,9.252c0.312-0.105,0.312-0.209,0.207-0.209S73.382,9.146,73.382,9.252L73.382,9.252
		c0,0.104,0.104,0.104,0.207,0.104c0.104,0,0.104,0,0.104-0.104l0,0h-0.104H73.382z"/>
	<path fill="none" d="M73.382,9.252c0.312-0.105,0.312-0.209,0.207-0.209S73.382,9.146,73.382,9.252L73.382,9.252
		c0,0.104,0.104,0.104,0.207,0.104c0.104,0,0.104,0,0.104-0.104l0,0h-0.104H73.382z"/>
	<path fill="#FFFFFF" d="M72.966,9.355c0.312-0.104,0.312-0.209,0.209-0.209C73.07,9.146,72.966,9.252,72.966,9.355L72.966,9.355
		c0,0.104,0.104,0.104,0.209,0.104s0.104,0,0.104-0.104l0,0h-0.104H72.966z"/>
	<path fill="none" d="M72.966,9.355c0.312-0.104,0.312-0.209,0.209-0.209C73.07,9.146,72.966,9.252,72.966,9.355L72.966,9.355
		c0,0.104,0.104,0.104,0.209,0.104s0.104,0,0.104-0.104l0,0h-0.104H72.966z"/>
	<path fill="#FFFFFF" d="M68.816,11.746c0,0-0.104-0.104-0.207-0.104l-0.104,0.104l0,0c0,0.104,0.104,0.209,0.104,0.209
		C68.714,11.955,68.816,11.85,68.816,11.746L68.816,11.746h-0.207H68.816z"/>
	<path fill="none" d="M68.816,11.746c0,0-0.104-0.104-0.207-0.104l-0.104,0.104l0,0c0,0.104,0.104,0.209,0.104,0.209
		C68.714,11.955,68.816,11.85,68.816,11.746L68.816,11.746h-0.207H68.816z"/>
	<path fill="#FFFFFF" d="M68.609,11.436c0-0.104,0-0.209-0.104-0.209s-0.211,0.104-0.211,0.209l0,0c0,0,0.104,0.104,0.211,0.104
		C68.609,11.539,68.609,11.436,68.609,11.436L68.609,11.436h-0.104H68.609z"/>
	<path fill="none" d="M68.609,11.436c0-0.104,0-0.209-0.104-0.209s-0.211,0.104-0.211,0.209l0,0c0,0,0.104,0.104,0.211,0.104
		C68.609,11.539,68.609,11.436,68.609,11.436L68.609,11.436h-0.104H68.609z"/>
	<path fill="#FFFFFF" d="M68.609,11.02c0-0.104-0.104-0.209-0.207-0.209c-0.103,0-0.209,0.104-0.209,0.209l0,0
		c0,0,0.104,0.104,0.209,0.104C68.507,11.123,68.609,11.02,68.609,11.02L68.609,11.02h-0.207H68.609z"/>
	<path fill="none" d="M68.609,11.02c0-0.104-0.104-0.209-0.207-0.209c-0.103,0-0.209,0.104-0.209,0.209l0,0
		c0,0,0.104,0.104,0.209,0.104C68.507,11.123,68.609,11.02,68.609,11.02L68.609,11.02h-0.207H68.609z"/>
	<path fill="#FFFFFF" d="M68.507,10.499c0-0.104-0.104-0.104-0.207-0.104s-0.104,0-0.104,0.104l0,0c0,0.104,0,0.208,0.104,0.208
		C68.404,10.707,68.507,10.604,68.507,10.499L68.507,10.499H68.3H68.507z"/>
	<path fill="none" d="M68.507,10.499c0-0.104-0.104-0.104-0.207-0.104s-0.104,0-0.104,0.104l0,0c0,0.104,0,0.208,0.104,0.208
		C68.404,10.707,68.507,10.604,68.507,10.499L68.507,10.499H68.3H68.507z"/>
	<path fill="#FFFFFF" d="M68.507,10.083c0-0.104-0.104-0.208-0.207-0.208c0,0-0.104,0.104-0.104,0.208l0,0
		c0,0.104,0.104,0.104,0.104,0.104C68.402,10.188,68.507,10.188,68.507,10.083L68.507,10.083H68.3H68.507z"/>
	<path fill="none" d="M68.507,10.083c0-0.104-0.104-0.208-0.207-0.208c0,0-0.104,0.104-0.104,0.208l0,0
		c0,0.104,0.104,0.104,0.104,0.104C68.402,10.188,68.507,10.188,68.507,10.083L68.507,10.083H68.3H68.507z"/>
	<path fill="#FFFFFF" d="M68.609,9.562c0,0,0-0.104-0.104-0.104s-0.211,0.104-0.211,0.104l0,0c0,0.104,0.104,0.209,0.211,0.209
		C68.609,9.771,68.609,9.668,68.609,9.562L68.609,9.562h-0.104H68.609z"/>
	<path fill="none" d="M68.609,9.562c0,0,0-0.104-0.104-0.104s-0.211,0.104-0.211,0.104l0,0c0,0.104,0.104,0.209,0.211,0.209
		C68.609,9.771,68.609,9.668,68.609,9.562L68.609,9.562h-0.104H68.609z"/>
	<path fill="#FFFFFF" d="M68.921,9.252c0-0.105,0-0.209-0.104-0.209c-0.104,0-0.207,0.104-0.207,0.209l0,0
		c0,0.104,0.104,0.207,0.207,0.207C68.92,9.459,68.921,9.355,68.921,9.252L68.921,9.252h-0.104H68.921z"/>
	<path fill="none" d="M68.921,9.252c0-0.105,0-0.209-0.104-0.209c-0.104,0-0.207,0.104-0.207,0.209l0,0
		c0,0.104,0.104,0.207,0.207,0.207C68.92,9.459,68.921,9.355,68.921,9.252L68.921,9.252h-0.104H68.921z"/>
	<path fill="#FFFFFF" d="M69.337,9.043c0-0.104,0-0.207-0.104-0.207c-0.104,0-0.207,0.104-0.207,0.207l0,0
		c0,0.104,0.104,0.104,0.207,0.104C69.337,9.146,69.337,9.146,69.337,9.043L69.337,9.043h-0.104H69.337z"/>
	<path fill="none" d="M69.337,9.043c0-0.104,0-0.207-0.104-0.207c-0.104,0-0.207,0.104-0.207,0.207l0,0
		c0,0.104,0.104,0.104,0.207,0.104C69.337,9.146,69.337,9.146,69.337,9.043L69.337,9.043h-0.104H69.337z"/>
	<path fill="#FFFFFF" d="M69.751,8.939c0,0,0-0.104-0.104-0.104c-0.104,0-0.207,0.104-0.207,0.104l0,0
		c0,0.104,0.104,0.207,0.207,0.207C69.75,9.146,69.751,9.043,69.751,8.939L69.751,8.939h-0.104H69.751z"/>
	<path fill="none" d="M69.751,8.939c0,0,0-0.104-0.104-0.104c-0.104,0-0.207,0.104-0.207,0.104l0,0c0,0.104,0.104,0.207,0.207,0.207
		C69.75,9.146,69.751,9.043,69.751,8.939L69.751,8.939h-0.104H69.751z"/>
	<path fill="#FFFFFF" d="M70.271,9.043c0-0.104-0.104-0.207-0.207-0.207c-0.105,0-0.209,0.104-0.209,0.207l0,0
		c0,0.104,0.104,0.104,0.209,0.104C70.167,9.146,70.271,9.146,70.271,9.043L70.271,9.043h-0.207H70.271z"/>
	<path fill="none" d="M70.271,9.043c0-0.104-0.104-0.207-0.207-0.207c-0.105,0-0.209,0.104-0.209,0.207l0,0
		c0,0.104,0.104,0.104,0.209,0.104C70.167,9.146,70.271,9.146,70.271,9.043L70.271,9.043h-0.207H70.271z"/>
	<path fill="#FFFFFF" d="M70.686,9.043c0-0.104-0.104-0.104-0.209-0.104c0,0-0.104,0-0.104,0.104l0,0
		c0,0.104,0.104,0.209,0.104,0.209C70.581,9.252,70.686,9.146,70.686,9.043L70.686,9.043h-0.209H70.686z"/>
	<path fill="none" d="M70.686,9.043c0-0.104-0.104-0.104-0.209-0.104c0,0-0.104,0-0.104,0.104l0,0c0,0.104,0.104,0.209,0.104,0.209
		C70.581,9.252,70.686,9.146,70.686,9.043L70.686,9.043h-0.209H70.686z"/>
	<path fill="#FFFFFF" d="M71.1,9.146c0-0.104,0-0.207-0.104-0.207s-0.207,0.104-0.207,0.207l0,0c0,0.104,0.104,0.209,0.207,0.209
		C71.1,9.355,71.1,9.252,71.1,9.146L71.1,9.146h-0.104H71.1z"/>
	<path fill="none" d="M71.1,9.146c0-0.104,0-0.207-0.104-0.207s-0.207,0.104-0.207,0.207l0,0c0,0.104,0.104,0.209,0.207,0.209
		C71.1,9.355,71.1,9.252,71.1,9.146L71.1,9.146h-0.104H71.1z"/>
	<path fill="#FFFFFF" d="M71.618,9.252c0-0.105-0.104-0.209-0.207-0.209s-0.104,0.104-0.104,0.209l0,0c0,0.104,0,0.104,0.104,0.104
		S71.618,9.355,71.618,9.252L71.618,9.252h-0.207H71.618z"/>
	<path fill="none" d="M71.618,9.252c0-0.105-0.104-0.209-0.207-0.209s-0.104,0.104-0.104,0.209l0,0c0,0.104,0,0.104,0.104,0.104
		S71.618,9.355,71.618,9.252L71.618,9.252h-0.207H71.618z"/>
	<path fill="#FFFFFF" d="M72.034,9.355c0-0.104-0.104-0.209-0.209-0.209s-0.104,0.104-0.104,0.209l0,0c0,0.104,0,0.104,0.104,0.104
		S72.034,9.459,72.034,9.355L72.034,9.355h-0.209H72.034z"/>
	<path fill="none" d="M72.034,9.355c0-0.104-0.104-0.209-0.209-0.209s-0.104,0.104-0.104,0.209l0,0c0,0.104,0,0.104,0.104,0.104
		S72.034,9.459,72.034,9.355L72.034,9.355h-0.209H72.034z"/>
	<path fill="#FFFFFF" d="M69.023,12.162c0-0.104,0-0.207-0.104-0.207s-0.207,0.104-0.207,0.207l0,0c0,0.104,0.104,0.104,0.207,0.104
		S69.023,12.266,69.023,12.162L69.023,12.162H68.92H69.023z"/>
	<path fill="none" d="M69.023,12.162c0-0.104,0-0.207-0.104-0.207s-0.207,0.104-0.207,0.207l0,0c0,0.104,0.104,0.104,0.207,0.104
		S69.023,12.266,69.023,12.162L69.023,12.162H68.92H69.023z"/>
	<path fill="#FFE41F" d="M69.13,12.162c0,0-0.623-0.52-0.623-1.768c0-0.729,0.312-1.248,1.144-1.248
		c1.143,0,2.904,0.521,2.904,0.521v0.207c0,0-1.352-0.521-2.904-0.521c-0.623,0-0.937,0.521-0.937,1.039
		c0,0.832,0.623,1.769,0.623,1.769v1.455H69.13V12.162L69.13,12.162z"/>
	<path fill="none" d="M69.13,12.162c0,0-0.623-0.52-0.623-1.768c0-0.729,0.312-1.248,1.144-1.248c1.143,0,2.904,0.521,2.904,0.521
		v0.207c0,0-1.352-0.521-2.904-0.521c-0.623,0-0.937,0.521-0.937,1.039c0,0.832,0.623,1.769,0.623,1.769v1.455H69.13V12.162
		L69.13,12.162z"/>
	<path fill="#FFE41F" d="M70.374,12.786c0,0,0-0.104,0.207-0.104c0.104,0,0.207,0.104,0.207,0.312v0.207h0.104v-0.207
		c0-0.208,0.104-0.312,0.207-0.312c0.206,0,0.206,0.104,0.206,0.104s0-0.417-0.206-0.417c-0.104,0-0.207,0.209-0.207,0.209
		s0.104-0.209,0.104-0.416s-0.208-0.312-0.208-0.312s-0.104,0.105-0.104,0.312s0.104,0.416,0.104,0.416s-0.104-0.209-0.207-0.209
		C70.374,12.369,70.374,12.786,70.374,12.786L70.374,12.786z"/>
	<path fill="none" d="M70.374,12.786c0,0,0-0.104,0.207-0.104c0.104,0,0.207,0.104,0.207,0.312v0.207h0.104v-0.207
		c0-0.208,0.104-0.312,0.207-0.312c0.206,0,0.206,0.104,0.206,0.104s0-0.417-0.206-0.417c-0.104,0-0.207,0.209-0.207,0.209
		s0.104-0.209,0.104-0.416s-0.208-0.312-0.208-0.312s-0.104,0.105-0.104,0.312s0.104,0.416,0.104,0.416s-0.104-0.209-0.207-0.209
		C70.374,12.369,70.374,12.786,70.374,12.786L70.374,12.786z"/>
	<path fill="#FFE41F" d="M73.693,12.786c0,0,0-0.104,0.207-0.104c0.104,0,0.207,0.104,0.207,0.312v0.207h0.104v-0.207
		c0-0.208,0.104-0.312,0.207-0.312c0.207,0,0.207,0.104,0.207,0.104s0-0.417-0.207-0.417c-0.104,0-0.207,0.209-0.207,0.209
		s0.104-0.209,0.104-0.416s-0.104-0.312-0.104-0.312s-0.104,0.105-0.104,0.312s0,0.416,0,0.416s0-0.209-0.207-0.209
		S73.693,12.786,73.693,12.786L73.693,12.786z"/>
	<path fill="none" d="M73.693,12.786c0,0,0-0.104,0.207-0.104c0.104,0,0.207,0.104,0.207,0.312v0.207h0.104v-0.207
		c0-0.208,0.104-0.312,0.207-0.312c0.207,0,0.207,0.104,0.207,0.104s0-0.417-0.207-0.417c-0.104,0-0.207,0.209-0.207,0.209
		s0.104-0.209,0.104-0.416s-0.104-0.312-0.104-0.312s-0.104,0.105-0.104,0.312s0,0.416,0,0.416s0-0.209-0.207-0.209
		S73.693,12.786,73.693,12.786L73.693,12.786z"/>
	<path fill="#FFE41F" d="M69.13,14.657v-1.664c0,0,0.414,0.624,0.828,0.624c0.416,0,0.83-0.729,0.83-0.729s0.414,0.521,0.829,0.521
		s0.938-0.728,0.938-0.728s0.312,0.728,0.827,0.728c0.414,0,0.83-0.521,0.83-0.521s0.414,0.729,0.937,0.729
		c0.518,0,0.726-0.624,0.726-0.624v1.664H69.13z"/>
	<path fill="none" d="M69.13,14.657v-1.664c0,0,0.414,0.624,0.828,0.624c0.416,0,0.83-0.729,0.83-0.729s0.414,0.521,0.829,0.521
		s0.938-0.728,0.938-0.728s0.312,0.728,0.827,0.728c0.414,0,0.83-0.521,0.83-0.521s0.414,0.729,0.937,0.729
		c0.518,0,0.726-0.624,0.726-0.624v1.664H69.13z"/>
	<path fill="#FFE41F" d="M69.13,14.657v-1.248c0,0,1.037,0.312,1.037,1.248H69.13z"/>
	<path fill="none" d="M69.13,14.657v-1.248c0,0,1.037,0.312,1.037,1.248H69.13z"/>
	<path fill="#FFE41F" d="M75.872,14.657v-1.248c0,0-1.037,0.312-1.037,1.248H75.872z"/>
	<path fill="none" d="M75.872,14.657v-1.248c0,0-1.037,0.312-1.037,1.248H75.872z"/>
	<path fill="#FFE41F" d="M69.854,14.657c0-0.938,0.935-1.456,0.935-1.456s1.037,0.52,1.037,1.456H69.854L69.854,14.657z"/>
	<path fill="none" d="M69.854,14.657c0-0.938,0.935-1.456,0.935-1.456s1.037,0.52,1.037,1.456H69.854L69.854,14.657z"/>
	<path fill="#FFE41F" d="M73.175,14.657c0-0.938,1.035-1.456,1.035-1.456s0.937,0.52,0.937,1.456H73.175L73.175,14.657z"/>
	<path fill="none" d="M73.175,14.657c0-0.938,1.035-1.456,1.035-1.456s0.937,0.52,0.937,1.456H73.175L73.175,14.657z"/>
	<path fill="#FFE41F" d="M71.309,14.657c0-0.938,1.243-1.664,1.243-1.664s1.142,0.728,1.142,1.664H71.309L71.309,14.657z"/>
	<path fill="none" d="M71.309,14.657c0-0.938,1.243-1.664,1.243-1.664s1.142,0.728,1.142,1.664H71.309L71.309,14.657z"/>
	<path fill="#FFFFFF" d="M75.977,14.657c-0.312-0.209-1.56-0.416-3.425-0.416c-1.974,0-3.319,0.208-3.633,0.416
		c-0.312,0.104-0.312,0.52,0,0.623c0.312,0.208,1.659,0.415,3.633,0.415c1.865,0,3.109-0.207,3.425-0.415
		C76.286,15.177,76.286,14.761,75.977,14.657L75.977,14.657z"/>
	<path fill="none" d="M75.977,14.657c-0.312-0.209-1.56-0.416-3.425-0.416c-1.974,0-3.319,0.208-3.633,0.416
		c-0.312,0.104-0.312,0.52,0,0.623c0.312,0.208,1.659,0.415,3.633,0.415c1.865,0,3.109-0.207,3.425-0.415
		C76.286,15.177,76.286,14.761,75.977,14.657L75.977,14.657z"/>
	<path fill="#858C92" d="M75.872,15.281c0,0.416-2.802,0.416-3.317,0.416c-0.621,0-3.425,0.104-3.425-0.416
		c0-0.312,2.804-0.312,3.425-0.312C73.07,14.969,75.872,15.073,75.872,15.281L75.872,15.281z"/>
	<path fill="#D25329" d="M69.544,14.033c0-0.104-0.104-0.208-0.207-0.208c-0.104,0-0.207,0.104-0.207,0.208l0,0
		c0,0.104,0.104,0.208,0.207,0.208S69.544,14.137,69.544,14.033L69.544,14.033h-0.207H69.544z"/>
	<path fill="#D25329" d="M75.872,14.033c0-0.104-0.104-0.208-0.208-0.208s-0.206,0.104-0.206,0.208l0,0
		c0,0.104,0.104,0.208,0.206,0.208C75.768,14.241,75.872,14.137,75.872,14.033L75.872,14.033h-0.208H75.872z"/>
	<path fill="#211F1F" d="M72.864,13.93c0-0.209-0.208-0.416-0.312-0.416c-0.206,0-0.413,0.209-0.413,0.416l0,0
		c0,0.207,0.206,0.416,0.413,0.416C72.656,14.345,72.864,14.137,72.864,13.93L72.864,13.93h-0.312H72.864z"/>
	<path fill="#048244" d="M74.419,13.93c0-0.104-0.104-0.312-0.207-0.312c-0.207,0-0.312,0.208-0.312,0.312l0,0
		c0,0.207,0.104,0.312,0.312,0.312C74.314,14.241,74.419,14.137,74.419,13.93L74.419,13.93h-0.207H74.419z"/>
	<path fill="#048244" d="M70.996,13.93c0-0.104-0.104-0.312-0.206-0.312c-0.209,0-0.312,0.208-0.312,0.312l0,0
		c0,0.207,0.104,0.312,0.312,0.312C70.893,14.241,70.996,14.137,70.996,13.93L70.996,13.93H70.79H70.996z"/>
	<path fill="#FFE41F" d="M71.825,12.786c0,0,0.209-0.312,0.416-0.312h0.207v0.207c0,0.207-0.312,0.312-0.312,0.312h0.728
		c0,0-0.312-0.104-0.312-0.312v-0.207h0.207c0.209,0,0.416,0.312,0.416,0.312v-0.831c0,0-0.207,0.311-0.416,0.311h-0.207v-0.207
		c0-0.312,0.312-0.416,0.312-0.416h-0.728c0,0,0.312,0.104,0.312,0.416v0.207h-0.207c-0.207,0-0.416-0.311-0.416-0.311V12.786z"/>
	<path fill="none" d="M71.825,12.786c0,0,0.209-0.312,0.416-0.312h0.207v0.207c0,0.207-0.312,0.312-0.312,0.312h0.728
		c0,0-0.312-0.104-0.312-0.312v-0.207h0.207c0.209,0,0.416,0.312,0.416,0.312v-0.831c0,0-0.207,0.311-0.416,0.311h-0.207v-0.207
		c0-0.312,0.312-0.416,0.312-0.416h-0.728c0,0,0.312,0.104,0.312,0.416v0.207h-0.207c-0.207,0-0.416-0.311-0.416-0.311V12.786z"/>
	<path fill="#FFE41F" d="M69.13,13.409h0.207c0,0-0.104-0.104-0.104-0.416v-0.104h0.104c0.104,0,0.207,0.209,0.207,0.209v-0.623
		c0,0-0.104,0.207-0.207,0.207h-0.104v-0.207c0-0.209,0.104-0.312,0.104-0.312H69.13V13.409L69.13,13.409z"/>
	<path fill="none" d="M69.13,13.409h0.207c0,0-0.104-0.104-0.104-0.416v-0.104h0.104c0.104,0,0.207,0.209,0.207,0.209v-0.623
		c0,0-0.104,0.207-0.207,0.207h-0.104v-0.207c0-0.209,0.104-0.312,0.104-0.312H69.13V13.409L69.13,13.409z"/>
	<path fill="#FFE41F" d="M75.872,13.409h-0.208c0,0,0.104-0.104,0.104-0.416v-0.104h-0.104c-0.104,0-0.206,0.209-0.206,0.209v-0.623
		c0,0,0.104,0.207,0.206,0.207h0.104v-0.207c0-0.209-0.104-0.312-0.104-0.312h0.208V13.409L75.872,13.409z"/>
	<path fill="none" d="M75.872,13.409h-0.208c0,0,0.104-0.104,0.104-0.416v-0.104h-0.104c-0.104,0-0.206,0.209-0.206,0.209v-0.623
		c0,0,0.104,0.207,0.206,0.207h0.104v-0.207c0-0.209-0.104-0.312-0.104-0.312h0.208V13.409L75.872,13.409z"/>
	<path fill="#FFFFFF" d="M72.656,12.369c0-0.104-0.104-0.207-0.104-0.207c-0.104,0-0.206,0.104-0.206,0.207l0,0
		c0,0.105,0.104,0.105,0.206,0.105C72.552,12.475,72.656,12.475,72.656,12.369L72.656,12.369h-0.104H72.656z"/>
	<path fill="none" d="M72.656,12.369c0-0.104-0.104-0.207-0.104-0.207c-0.104,0-0.206,0.104-0.206,0.207l0,0
		c0,0.105,0.104,0.105,0.206,0.105C72.552,12.475,72.656,12.475,72.656,12.369L72.656,12.369h-0.104H72.656z"/>
	<path fill="#FFE41F" d="M71.825,9.043c0,0,0.209-0.312,0.416-0.312h0.207v0.209c0,0.312-0.312,0.416-0.312,0.416h0.728
		c0,0-0.312-0.104-0.312-0.416V8.73h0.207c0.209,0,0.416,0.312,0.416,0.312V8.211c0,0-0.207,0.312-0.416,0.312h-0.207V8.316
		c0-0.312,0.312-0.416,0.312-0.416h-0.728c0,0,0.312,0.104,0.312,0.416v0.207h-0.207c-0.207,0-0.416-0.312-0.416-0.312V9.043z"/>
	<path fill="none" d="M71.825,9.043c0,0,0.209-0.312,0.416-0.312h0.207v0.209c0,0.312-0.312,0.416-0.312,0.416h0.728
		c0,0-0.312-0.104-0.312-0.416V8.73h0.207c0.209,0,0.416,0.312,0.416,0.312V8.211c0,0-0.207,0.312-0.416,0.312h-0.207V8.316
		c0-0.312,0.312-0.416,0.312-0.416h-0.728c0,0,0.312,0.104,0.312,0.416v0.207h-0.207c-0.207,0-0.416-0.312-0.416-0.312V9.043z"/>
	<path fill="#FFFFFF" d="M72.656,8.627c0-0.104,0-0.104-0.104-0.104c-0.104,0-0.206,0-0.206,0.104l0,0
		c0,0.104,0.104,0.209,0.206,0.209C72.655,8.836,72.656,8.73,72.656,8.627L72.656,8.627h-0.104H72.656z"/>
	<path fill="none" d="M72.656,8.627c0-0.104,0-0.104-0.104-0.104c-0.104,0-0.206,0-0.206,0.104l0,0c0,0.104,0.104,0.209,0.206,0.209
		C72.655,8.836,72.656,8.73,72.656,8.627L72.656,8.627h-0.104H72.656z"/>
	<rect x="72.139" y="9.355" fill="#FFE41F" width="0.727" height="0.52"/>
	<rect x="72.139" y="9.355" fill="none" width="0.727" height="0.52"/>
	<rect x="72.139" y="9.668" fill="#FFE41F" width="0.727" height="1.975"/>
	<rect x="72.139" y="9.668" fill="none" width="0.727" height="1.975"/>
	<path fill="#FFFFFF" d="M72.656,11.33c0-0.104-0.104-0.207-0.104-0.207c-0.104,0-0.206,0.104-0.206,0.207l0,0
		c0,0,0.104,0.104,0.206,0.104L72.656,11.33v-0.104l-0.104,0.104H72.656z"/>
	<path fill="none" d="M72.656,11.33c0-0.104-0.104-0.207-0.104-0.207c-0.104,0-0.206,0.104-0.206,0.207l0,0
		c0,0,0.104,0.104,0.206,0.104L72.656,11.33v-0.104l-0.104,0.104H72.656z"/>
	<path fill="#FFFFFF" d="M72.656,10.811c0-0.104-0.104-0.104-0.104-0.104c-0.104,0-0.206,0-0.206,0.104l0,0
		c0,0.104,0.104,0.209,0.206,0.209C72.552,11.02,72.656,10.914,72.656,10.811L72.656,10.811h-0.104H72.656z"/>
	<path fill="none" d="M72.656,10.811c0-0.104-0.104-0.104-0.104-0.104c-0.104,0-0.206,0-0.206,0.104l0,0
		c0,0.104,0.104,0.209,0.206,0.209C72.552,11.02,72.656,10.914,72.656,10.811L72.656,10.811h-0.104H72.656z"/>
	<path fill="#FFFFFF" d="M72.656,10.395c0-0.104-0.104-0.207-0.104-0.207c-0.104,0-0.206,0.104-0.206,0.207l0,0
		c0,0.104,0.104,0.209,0.206,0.209C72.552,10.604,72.656,10.499,72.656,10.395L72.656,10.395h-0.104H72.656z"/>
	<path fill="none" d="M72.656,10.395c0-0.104-0.104-0.207-0.104-0.207c-0.104,0-0.206,0.104-0.206,0.207l0,0
		c0,0.104,0.104,0.209,0.206,0.209C72.552,10.604,72.656,10.499,72.656,10.395L72.656,10.395h-0.104H72.656z"/>
	<path fill="#FFFFFF" d="M72.656,9.979c0-0.104-0.104-0.207-0.104-0.207c-0.104,0-0.206,0.104-0.206,0.207l0,0
		c0,0.104,0.104,0.104,0.206,0.104C72.552,10.083,72.656,10.083,72.656,9.979L72.656,9.979h-0.104H72.656z"/>
	<path fill="none" d="M72.656,9.979c0-0.104-0.104-0.207-0.104-0.207c-0.104,0-0.206,0.104-0.206,0.207l0,0
		c0,0.104,0.104,0.104,0.206,0.104C72.552,10.083,72.656,10.083,72.656,9.979L72.656,9.979h-0.104H72.656z"/>
	<path fill="#211F1F" d="M72.864,14.657L72.864,14.657c0-0.104-0.208-0.209-0.312-0.209c-0.206,0-0.413,0.104-0.413,0.209l0,0
		c0,0,0.206,0.104,0.413,0.104C72.656,14.761,72.864,14.657,72.864,14.657L72.864,14.657h-0.312H72.864z"/>
	<path fill="#211F1F" d="M75.977,14.969c0-0.104,0-0.104,0-0.104s-0.209-0.104-0.414-0.104c-0.207,0-0.312,0.104-0.312,0.104l0,0
		c0,0.104,0.104,0.208,0.312,0.208c0.205,0,0.414-0.104,0.414-0.208l0,0h-0.414L75.977,14.969z"/>
	<path fill="#211F1F" d="M74.626,14.761L74.626,14.761c0-0.104-0.104-0.208-0.312-0.208s-0.312,0.104-0.414,0.208l0,0
		c0,0,0.207,0.104,0.414,0.104C74.521,14.864,74.626,14.761,74.626,14.761L74.626,14.761h-0.312H74.626z"/>
	<path fill="#211F1F" d="M69.023,14.969c0.623-0.104,0.623-0.104,0.623-0.104s-0.104-0.104-0.312-0.104
		c-0.207,0-0.312,0.104-0.312,0.104l0,0c0,0.104,0.104,0.208,0.312,0.208c0.209,0,0.312-0.104,0.312-0.208l0,0h-0.312L69.023,14.969
		z"/>
	<path fill="#211F1F" d="M70.374,14.761c0.621-0.104,0.621-0.104,0.621-0.104s-0.104-0.104-0.31-0.104c-0.209,0-0.312,0-0.312,0.104
		l0,0c0,0.104,0.104,0.207,0.312,0.207c0.205,0,0.31-0.104,0.31-0.207l0,0h-0.31L70.374,14.761z"/>
</g>
</svg>
